<?xml version="1.0" encoding="utf-8"?>
<!-- Generator: Adobe Illustrator 15.1.0, SVG Export Plug-In . SVG Version: 6.00 Build 0)  -->
<!DOCTYPE svg PUBLIC "-//W3C//DTD SVG 1.1//EN" "http://www.w3.org/Graphics/SVG/1.1/DTD/svg11.dtd">
<svg version="1.1" id="title" xmlns="http://www.w3.org/2000/svg" xmlns:xlink="http://www.w3.org/1999/xlink" x="0px" y="0px"
	 width="669.6px" height="218.7px" viewBox="0 0 669.6 218.7" style="enable-background:new 0 0 669.6 218.7;" xml:space="preserve"
	>
<style type="text/css">
<![CDATA[
	.st0{opacity:0.22;enable-background:new    ;}
	.st1{opacity:0.49;clip-path:url(#SVGID_3_);}
	.st2{opacity:0.49;clip-path:url(#SVGID_6_);}
	.st3{fill:url(#SVGID_1_);}
	.st4{fill:url(#SVGID_4_);}
]]>
</style>
<g>
	<g>
		
			<linearGradient id="SVGID_1_" gradientUnits="userSpaceOnUse" x1="36.4021" y1="233.6494" x2="49.0692" y2="233.6494" gradientTransform="matrix(1 0 0 -1 0.105 343.5625)">
			<stop  offset="0" style="stop-color:#8F6040"/>
			<stop  offset="1" style="stop-color:#362519"/>
		</linearGradient>
		<rect x="38.4" y="1.3" class="st3" width="10.5" height="217.3"/>
		<path d="M38.5,218.5l10.5-0.1l-0.1,0.1c-0.1-9.1-0.1-18.1-0.1-27.2l-0.1-27.2l-0.1-27.2l0.1-27.2l0.2-54.3
			c0.1-18.1-0.1-36.2-0.1-54.3l0.3,0.3l-10.5,0l0.3-0.3l0.1,54.3l0,54.3c0,18.1-0.1,36.2-0.1,54.3C38.7,182.3,38.6,200.4,38.5,218.5
			z M38.4,218.6c-0.2-18.1-0.2-36.2-0.3-54.3c-0.1-18.1-0.2-36.2-0.1-54.3l0-54.3l0.1-54.3l0-0.3l0.3,0l10.5,0l0.3,0v0.3
			c0,18.1-0.2,36.2-0.1,54.3l0.2,54.3l0.1,27.2l-0.1,27.2l-0.1,27.2c0,9.1-0.1,18.1-0.1,27.2l0,0.1l-0.1,0L38.4,218.6L38.4,218.6
			L38.4,218.6z"/>
	</g>
	<path class="st0" d="M44.5,1.3L45.7,154c0.6-0.7,1.2-1.4,1.7-2.2c-0.5,0.8-1.1,1.5-1.7,2.2l0,1.8l0-1.8c-2,2.2-4.5,4-7.3,5.4v59.3
		h10.5V1.3H44.5z"/>
	<g>
		<g>
			<defs>
				<rect id="SVGID_2_" x="38.4" y="0.4" width="10.5" height="217.3"/>
			</defs>
			<clipPath id="SVGID_3_">
				<use xlink:href="#SVGID_2_"  style="overflow:visible;"/>
			</clipPath>
			<g class="st1">
				<g>
					<path d="M54.1-4.3c-1.2,1.7-2.6,3.3-4.1,4.8c-1.5,1.5-3.1,2.9-4.8,4.2c-1.7,1.2-3.5,2.4-5.5,3.2c-1,0.4-2,0.7-3,1
						c-1.1,0.2-2.1,0.3-3.2,0.2c2.1-0.2,4.1-0.9,5.9-1.9c1.8-1,3.6-2.1,5.2-3.3c1.7-1.2,3.3-2.6,4.9-3.9c0.8-0.7,1.6-1.4,2.3-2.1
						C52.6-2.8,53.3-3.5,54.1-4.3z"/>
				</g>
				<g>
					<path d="M54.1,2.4c-1.2,1.7-2.6,3.3-4.1,4.8c-1.5,1.5-3.1,2.9-4.8,4.2c-1.7,1.2-3.5,2.4-5.5,3.2c-1,0.4-2,0.7-3,1
						c-1.1,0.2-2.1,0.3-3.2,0.2c2.1-0.2,4.1-0.9,5.9-1.9c1.8-1,3.6-2.1,5.2-3.3c1.7-1.2,3.3-2.6,4.9-3.9C50.2,6,51,5.3,51.8,4.5
						C52.6,3.9,53.3,3.1,54.1,2.4z"/>
				</g>
				<g>
					<path d="M54.1,9.1c-1.2,1.7-2.6,3.3-4.1,4.8c-1.5,1.5-3.1,2.9-4.8,4.2c-1.7,1.2-3.5,2.4-5.5,3.2c-1,0.4-2,0.7-3,1
						c-1.1,0.2-2.1,0.3-3.2,0.2c2.1-0.2,4.1-0.9,5.9-1.9c1.8-1,3.6-2.1,5.2-3.3c1.7-1.2,3.3-2.6,4.9-3.9c0.8-0.7,1.6-1.4,2.3-2.1
						C52.6,10.5,53.3,9.8,54.1,9.1z"/>
				</g>
				<g>
					<path d="M54.1,15.7c-1.2,1.7-2.6,3.3-4.1,4.8c-1.5,1.5-3.1,2.9-4.8,4.2c-1.7,1.2-3.5,2.4-5.5,3.2c-1,0.4-2,0.7-3,1
						c-1.1,0.2-2.1,0.3-3.2,0.2c2.1-0.2,4.1-0.9,5.9-1.9c1.8-1,3.6-2.1,5.2-3.3c1.7-1.2,3.3-2.6,4.9-3.9c0.8-0.7,1.6-1.4,2.3-2.1
						C52.6,17.2,53.3,16.5,54.1,15.7z"/>
				</g>
				<g>
					<path d="M54.1,22.4c-1.2,1.7-2.6,3.3-4.1,4.8c-1.5,1.5-3.1,2.9-4.8,4.2c-1.7,1.2-3.5,2.4-5.5,3.2c-1,0.4-2,0.7-3,1
						c-1.1,0.2-2.1,0.3-3.2,0.2c2.1-0.2,4.1-0.9,5.9-1.9c1.8-1,3.6-2.1,5.2-3.3c1.7-1.2,3.3-2.6,4.9-3.9c0.8-0.7,1.6-1.4,2.3-2.1
						C52.6,23.9,53.3,23.1,54.1,22.4z"/>
				</g>
				<g>
					<path d="M54.1,29.1c-1.2,1.7-2.6,3.3-4.1,4.8c-1.5,1.5-3.1,2.9-4.8,4.2c-1.7,1.2-3.5,2.4-5.5,3.2c-1,0.4-2,0.7-3,1
						c-1.1,0.2-2.1,0.3-3.2,0.2c2.1-0.2,4.1-0.9,5.9-1.9c1.8-1,3.6-2.1,5.2-3.3c1.7-1.2,3.3-2.6,4.9-3.9c0.8-0.7,1.6-1.4,2.3-2.1
						C52.6,30.5,53.3,29.8,54.1,29.1z"/>
				</g>
				<g>
					<path d="M54.1,35.7c-1.2,1.7-2.6,3.3-4.1,4.8c-1.5,1.5-3.1,2.9-4.8,4.2c-1.7,1.2-3.5,2.4-5.5,3.2c-1,0.4-2,0.7-3,1
						c-1.1,0.2-2.1,0.3-3.2,0.2c2.1-0.2,4.1-0.9,5.9-1.9c1.8-1,3.6-2.1,5.2-3.3c1.7-1.2,3.3-2.6,4.9-3.9c0.8-0.7,1.6-1.4,2.3-2.1
						C52.6,37.2,53.3,36.5,54.1,35.7z"/>
				</g>
				<g>
					<path d="M54.1,42.4c-1.2,1.7-2.6,3.3-4.1,4.8c-1.5,1.5-3.1,2.9-4.8,4.2c-1.7,1.2-3.5,2.4-5.5,3.2c-1,0.4-2,0.7-3,1
						c-1.1,0.2-2.1,0.3-3.2,0.2c2.1-0.2,4.1-0.9,5.9-1.9c1.8-1,3.6-2.1,5.2-3.3c1.7-1.2,3.3-2.6,4.9-3.9c0.8-0.7,1.6-1.4,2.3-2.1
						C52.6,43.9,53.3,43.1,54.1,42.4z"/>
				</g>
				<g>
					<path d="M54.1,49.1c-1.2,1.7-2.6,3.3-4.1,4.8c-1.5,1.5-3.1,2.9-4.8,4.2c-1.7,1.2-3.5,2.4-5.5,3.2c-1,0.4-2,0.7-3,1
						c-1.1,0.2-2.1,0.3-3.2,0.2c2.1-0.2,4.1-0.9,5.9-1.9c1.8-1,3.6-2.1,5.2-3.3c1.7-1.2,3.3-2.6,4.9-3.9c0.8-0.7,1.6-1.4,2.3-2.1
						C52.6,50.5,53.3,49.8,54.1,49.1z"/>
				</g>
				<g>
					<path d="M54.1,55.7c-1.2,1.7-2.6,3.3-4.1,4.8c-1.5,1.5-3.1,2.9-4.8,4.2c-1.7,1.2-3.5,2.4-5.5,3.2c-1,0.4-2,0.7-3,1
						c-1.1,0.2-2.1,0.3-3.2,0.2c2.1-0.2,4.1-0.9,5.9-1.9c1.8-1,3.6-2.1,5.2-3.3c1.7-1.2,3.3-2.6,4.9-3.9c0.8-0.7,1.6-1.4,2.3-2.1
						C52.6,57.2,53.3,56.5,54.1,55.7z"/>
				</g>
				<g>
					<path d="M54.1,62.4c-1.2,1.7-2.6,3.3-4.1,4.8c-1.5,1.5-3.1,2.9-4.8,4.2c-1.7,1.2-3.5,2.4-5.5,3.2c-1,0.4-2,0.7-3,1
						c-1.1,0.2-2.1,0.3-3.2,0.2c2.1-0.2,4.1-0.9,5.9-1.9c1.8-1,3.6-2.1,5.2-3.3c1.7-1.2,3.3-2.6,4.9-3.9c0.8-0.7,1.6-1.4,2.3-2.1
						C52.6,63.9,53.3,63.1,54.1,62.4z"/>
				</g>
				<g>
					<path d="M54.1,69.1c-1.2,1.7-2.6,3.3-4.1,4.8c-1.5,1.5-3.1,2.9-4.8,4.2c-1.7,1.2-3.5,2.4-5.5,3.2c-1,0.4-2,0.7-3,1
						c-1.1,0.2-2.1,0.3-3.2,0.2c2.1-0.2,4.1-0.9,5.9-1.9c1.8-1,3.6-2.1,5.2-3.3c1.7-1.2,3.3-2.6,4.9-3.9c0.8-0.7,1.6-1.4,2.3-2.1
						C52.6,70.5,53.3,69.8,54.1,69.1z"/>
				</g>
				<g>
					<path d="M54.1,75.7c-1.2,1.7-2.6,3.3-4.1,4.8c-1.5,1.5-3.1,2.9-4.8,4.2c-1.7,1.2-3.5,2.4-5.5,3.2c-1,0.4-2,0.7-3,1
						c-1.1,0.2-2.1,0.3-3.2,0.2c2.1-0.2,4.1-0.9,5.9-1.9c1.8-1,3.6-2.1,5.2-3.3c1.7-1.2,3.3-2.6,4.9-3.9c0.8-0.7,1.6-1.4,2.3-2.1
						C52.6,77.2,53.3,76.5,54.1,75.7z"/>
				</g>
				<g>
					<path d="M54.1,82.4c-1.2,1.7-2.6,3.3-4.1,4.8c-1.5,1.5-3.1,2.9-4.8,4.2c-1.7,1.2-3.5,2.4-5.5,3.2c-1,0.4-2,0.7-3,1
						c-1.1,0.2-2.1,0.3-3.2,0.2c2.1-0.2,4.1-0.9,5.9-1.9c1.8-1,3.6-2.1,5.2-3.3c1.7-1.2,3.3-2.6,4.9-3.9c0.8-0.7,1.6-1.4,2.3-2.1
						C52.6,83.9,53.3,83.1,54.1,82.4z"/>
				</g>
				<g>
					<path d="M54.1,89.1c-1.2,1.7-2.6,3.3-4.1,4.8c-1.5,1.5-3.1,2.9-4.8,4.2c-1.7,1.2-3.5,2.4-5.5,3.2c-1,0.4-2,0.7-3,1
						c-1.1,0.2-2.1,0.3-3.2,0.2c2.1-0.2,4.1-0.9,5.9-1.9c1.8-1,3.6-2.1,5.2-3.3c1.7-1.2,3.3-2.6,4.9-3.9c0.8-0.7,1.6-1.4,2.3-2.1
						C52.6,90.5,53.3,89.8,54.1,89.1z"/>
				</g>
				<g>
					<path d="M54.1,95.7c-1.2,1.7-2.6,3.3-4.1,4.8c-1.5,1.5-3.1,2.9-4.8,4.2c-1.7,1.2-3.5,2.4-5.5,3.2c-1,0.4-2,0.7-3,1
						c-1.1,0.2-2.1,0.3-3.2,0.2c2.1-0.2,4.1-0.9,5.9-1.9c1.8-1,3.6-2.1,5.2-3.3c1.7-1.2,3.3-2.6,4.9-3.9c0.8-0.7,1.6-1.4,2.3-2.1
						C52.6,97.2,53.3,96.5,54.1,95.7z"/>
				</g>
				<g>
					<path d="M54.1,102.4c-1.2,1.7-2.6,3.3-4.1,4.8c-1.5,1.5-3.1,2.9-4.8,4.2c-1.7,1.2-3.5,2.4-5.5,3.2c-1,0.4-2,0.7-3,1
						c-1.1,0.2-2.1,0.3-3.2,0.2c2.1-0.2,4.1-0.9,5.9-1.9c1.8-1,3.6-2.1,5.2-3.3c1.7-1.2,3.3-2.6,4.9-3.9c0.8-0.7,1.6-1.4,2.3-2.1
						C52.6,103.9,53.3,103.1,54.1,102.4z"/>
				</g>
				<g>
					<path d="M54.1,109.1c-1.2,1.7-2.6,3.3-4.1,4.8c-1.5,1.5-3.1,2.9-4.8,4.2c-1.7,1.2-3.5,2.4-5.5,3.2c-1,0.4-2,0.7-3,1
						c-1.1,0.2-2.1,0.3-3.2,0.2c2.1-0.2,4.1-0.9,5.9-1.9c1.8-1,3.6-2.1,5.2-3.3c1.7-1.2,3.3-2.6,4.9-3.9c0.8-0.7,1.6-1.4,2.3-2.1
						C52.6,110.5,53.3,109.8,54.1,109.1z"/>
				</g>
				<g>
					<path d="M54.1,115.7c-1.2,1.7-2.6,3.3-4.1,4.8c-1.5,1.5-3.1,2.9-4.8,4.2c-1.7,1.2-3.5,2.4-5.5,3.2c-1,0.4-2,0.7-3,1
						c-1.1,0.2-2.1,0.3-3.2,0.2c2.1-0.2,4.1-0.9,5.9-1.9c1.8-1,3.6-2.1,5.2-3.3c1.7-1.2,3.3-2.6,4.9-3.9c0.8-0.7,1.6-1.4,2.3-2.1
						C52.6,117.2,53.3,116.5,54.1,115.7z"/>
				</g>
				<g>
					<path d="M54.1,122.4c-1.2,1.7-2.6,3.3-4.1,4.8c-1.5,1.5-3.1,2.9-4.8,4.2c-1.7,1.2-3.5,2.4-5.5,3.2c-1,0.4-2,0.7-3,1
						c-1.1,0.2-2.1,0.3-3.2,0.2c2.1-0.2,4.1-0.9,5.9-1.9c1.8-1,3.6-2.1,5.2-3.3c1.7-1.2,3.3-2.6,4.9-3.9c0.8-0.7,1.6-1.4,2.3-2.1
						C52.6,123.9,53.3,123.1,54.1,122.4z"/>
				</g>
				<g>
					<path d="M54.1,129.1c-1.2,1.7-2.6,3.3-4.1,4.8c-1.5,1.5-3.1,2.9-4.8,4.2c-1.7,1.2-3.5,2.4-5.5,3.2c-1,0.4-2,0.7-3,1
						c-1.1,0.2-2.1,0.3-3.2,0.2c2.1-0.2,4.1-0.9,5.9-1.9c1.8-1,3.6-2.1,5.2-3.3c1.7-1.2,3.3-2.6,4.9-3.9c0.8-0.7,1.6-1.4,2.3-2.1
						C52.6,130.5,53.3,129.8,54.1,129.1z"/>
				</g>
				<g>
					<path d="M54.1,135.7c-1.2,1.7-2.6,3.3-4.1,4.8c-1.5,1.5-3.1,2.9-4.8,4.2c-1.7,1.2-3.5,2.4-5.5,3.2c-1,0.4-2,0.7-3,1
						c-1.1,0.2-2.1,0.3-3.2,0.2c2.1-0.2,4.1-0.9,5.9-1.9c1.8-1,3.6-2.1,5.2-3.3c1.7-1.2,3.3-2.6,4.9-3.9c0.8-0.7,1.6-1.4,2.3-2.1
						C52.6,137.2,53.3,136.5,54.1,135.7z"/>
				</g>
				<g>
					<path d="M54.1,142.4c-1.2,1.7-2.6,3.3-4.1,4.8c-1.5,1.5-3.1,2.9-4.8,4.2c-1.7,1.2-3.5,2.4-5.5,3.2c-1,0.4-2,0.7-3,1
						c-1.1,0.2-2.1,0.3-3.2,0.2c2.1-0.2,4.1-0.9,5.9-1.9c1.8-1,3.6-2.1,5.2-3.3c1.7-1.2,3.3-2.6,4.9-3.9c0.8-0.7,1.6-1.4,2.3-2.1
						C52.6,143.9,53.3,143.1,54.1,142.4z"/>
				</g>
				<g>
					<path d="M54.1,149.1c-1.2,1.7-2.6,3.3-4.1,4.8c-1.5,1.5-3.1,2.9-4.8,4.2c-1.7,1.2-3.5,2.4-5.5,3.2c-1,0.4-2,0.7-3,1
						c-1.1,0.2-2.1,0.3-3.2,0.2c2.1-0.2,4.1-0.9,5.9-1.9c1.8-1,3.6-2.1,5.2-3.3c1.7-1.2,3.3-2.6,4.9-3.9c0.8-0.7,1.6-1.4,2.3-2.1
						C52.6,150.5,53.3,149.8,54.1,149.1z"/>
				</g>
				<g>
					<path d="M54.1,155.8c-1.2,1.7-2.6,3.3-4.1,4.8c-1.5,1.5-3.1,2.9-4.8,4.2c-1.7,1.2-3.5,2.4-5.5,3.2c-1,0.4-2,0.7-3,1
						c-1.1,0.2-2.1,0.3-3.2,0.2c2.1-0.2,4.1-0.9,5.9-1.9c1.8-1,3.6-2.1,5.2-3.3c1.7-1.2,3.3-2.6,4.9-3.9c0.8-0.7,1.6-1.4,2.3-2.1
						C52.6,157.2,53.3,156.5,54.1,155.8z"/>
				</g>
				<g>
					<path d="M54.1,162.4c-1.2,1.7-2.6,3.3-4.1,4.8c-1.5,1.5-3.1,2.9-4.8,4.2c-1.7,1.2-3.5,2.4-5.5,3.2c-1,0.4-2,0.7-3,1
						c-1.1,0.2-2.1,0.3-3.2,0.2c2.1-0.2,4.1-0.9,5.9-1.9c1.8-1,3.6-2.1,5.2-3.3c1.7-1.2,3.3-2.6,4.9-3.9c0.8-0.7,1.6-1.4,2.3-2.1
						C52.6,163.9,53.3,163.1,54.1,162.4z"/>
				</g>
				<g>
					<path d="M54.1,169.1c-1.2,1.7-2.6,3.3-4.1,4.8c-1.5,1.5-3.1,2.9-4.8,4.2c-1.7,1.2-3.5,2.4-5.5,3.2c-1,0.4-2,0.7-3,1
						c-1.1,0.2-2.1,0.3-3.2,0.2c2.1-0.2,4.1-0.9,5.9-1.9c1.8-1,3.6-2.1,5.2-3.3c1.7-1.2,3.3-2.6,4.9-3.9c0.8-0.7,1.6-1.4,2.3-2.1
						C52.6,170.5,53.3,169.8,54.1,169.1z"/>
				</g>
				<g>
					<path d="M54.1,175.8c-1.2,1.7-2.6,3.3-4.1,4.8c-1.5,1.5-3.1,2.9-4.8,4.2c-1.7,1.2-3.5,2.4-5.5,3.2c-1,0.4-2,0.7-3,1
						c-1.1,0.2-2.1,0.3-3.2,0.2c2.1-0.2,4.1-0.9,5.9-1.9c1.8-1,3.6-2.1,5.2-3.3c1.7-1.2,3.3-2.6,4.9-3.9c0.8-0.7,1.6-1.4,2.3-2.1
						C52.6,177.2,53.3,176.5,54.1,175.8z"/>
				</g>
				<g>
					<path d="M54.1,182.4c-1.2,1.7-2.6,3.3-4.1,4.8c-1.5,1.5-3.1,2.9-4.8,4.2c-1.7,1.2-3.5,2.4-5.5,3.2c-1,0.4-2,0.7-3,1
						c-1.1,0.2-2.1,0.3-3.2,0.2c2.1-0.2,4.1-0.9,5.9-1.9c1.8-1,3.6-2.1,5.2-3.3c1.7-1.2,3.3-2.6,4.9-3.9c0.8-0.7,1.6-1.4,2.3-2.1
						C52.6,183.9,53.3,183.1,54.1,182.4z"/>
				</g>
				<g>
					<path d="M54.1,189.1c-1.2,1.7-2.6,3.3-4.1,4.8c-1.5,1.5-3.1,2.9-4.8,4.2c-1.7,1.2-3.5,2.4-5.5,3.2c-1,0.4-2,0.7-3,1
						c-1.1,0.2-2.1,0.3-3.2,0.2c2.1-0.2,4.1-0.9,5.9-1.9c1.8-1,3.6-2.1,5.2-3.3c1.7-1.2,3.3-2.6,4.9-3.9c0.8-0.7,1.6-1.4,2.3-2.1
						C52.6,190.5,53.3,189.8,54.1,189.1z"/>
				</g>
				<g>
					<path d="M54.1,195.8c-1.2,1.7-2.6,3.3-4.1,4.8c-1.5,1.5-3.1,2.9-4.8,4.2c-1.7,1.2-3.5,2.4-5.5,3.2c-1,0.4-2,0.7-3,1
						c-1.1,0.2-2.1,0.3-3.2,0.2c2.1-0.2,4.1-0.9,5.9-1.9c1.8-1,3.6-2.1,5.2-3.3c1.7-1.2,3.3-2.6,4.9-3.9c0.8-0.7,1.6-1.4,2.3-2.1
						C52.6,197.2,53.3,196.5,54.1,195.8z"/>
				</g>
				<g>
					<path d="M54.1,202.4c-1.2,1.7-2.6,3.3-4.1,4.8c-1.5,1.5-3.1,2.9-4.8,4.2c-1.7,1.2-3.5,2.4-5.5,3.2c-1,0.4-2,0.7-3,1
						c-1.1,0.2-2.1,0.3-3.2,0.2c2.1-0.2,4.1-0.9,5.9-1.9c1.8-1,3.6-2.1,5.2-3.3c1.7-1.2,3.3-2.6,4.9-3.9c0.8-0.7,1.6-1.4,2.3-2.1
						C52.6,203.9,53.3,203.1,54.1,202.4z"/>
				</g>
			</g>
		</g>
	</g>
</g>
<g>
	<g>
		
			<linearGradient id="SVGID_4_" gradientUnits="userSpaceOnUse" x1="603.0686" y1="234.0654" x2="615.7357" y2="234.0654" gradientTransform="matrix(1 0 0 -1 0.105 343.5625)">
			<stop  offset="0" style="stop-color:#8F6040"/>
			<stop  offset="1" style="stop-color:#362519"/>
		</linearGradient>
		<rect x="605.1" y="0.8" class="st4" width="10.5" height="217.3"/>
		<path d="M605.2,218.1l10.4-0.1l-0.1,0.1c-0.1-9.1-0.1-18.1-0.1-27.2l-0.1-27.2l-0.1-27.2l0.1-27.2l0.2-54.3
			c0.1-18.1-0.1-36.2-0.1-54.3l0.3,0.3l-10.5,0l0.3-0.3l0.1,54.3l0,54.3c0,18.1-0.1,36.2-0.1,54.3
			C605.4,181.9,605.3,200,605.2,218.1z M605.1,218.2c-0.2-18.1-0.2-36.2-0.3-54.3c-0.1-18.1-0.2-36.2-0.1-54.3l0-54.3l0.1-54.3
			l0-0.3l0.3,0l10.5,0l0.3,0l0,0.3c0,18.1-0.2,36.2-0.1,54.3l0.2,54.3l0.1,27.2l-0.1,27.2l-0.1,27.2c0,9.1-0.1,18.1-0.1,27.2l0,0.1
			l-0.1,0L605.1,218.2L605.1,218.2L605.1,218.2z"/>
	</g>
	<path class="st0" d="M611.2,0.8l1.2,152.7c0.6-0.7,1.2-1.4,1.7-2.2c-0.5,0.8-1.1,1.5-1.7,2.2l0,1.8l0-1.8c-2,2.2-4.5,4-7.3,5.4
		v59.3h10.5V0.8H611.2z"/>
	<g>
		<g>
			<defs>
				<rect id="SVGID_5_" x="605.1" width="10.5" height="217.3"/>
			</defs>
			<clipPath id="SVGID_6_">
				<use xlink:href="#SVGID_5_"  style="overflow:visible;"/>
			</clipPath>
			<g class="st2">
				<g>
					<path d="M620.7-4.7c-1.2,1.7-2.6,3.3-4.1,4.8c-1.5,1.5-3.1,2.9-4.8,4.2c-1.7,1.2-3.5,2.4-5.5,3.2c-1,0.4-2,0.7-3,1
						c-1,0.2-2.1,0.3-3.2,0.2c2.1-0.2,4.1-0.9,5.9-1.9c1.8-1,3.6-2.1,5.2-3.3c1.7-1.2,3.3-2.6,4.9-3.9c0.8-0.7,1.6-1.4,2.3-2.1
						C619.2-3.2,620-4,620.7-4.7z"/>
				</g>
				<g>
					<path d="M620.7,2c-1.2,1.7-2.6,3.3-4.1,4.8c-1.5,1.5-3.1,2.9-4.8,4.2c-1.7,1.2-3.5,2.4-5.5,3.2c-1,0.4-2,0.7-3,1
						c-1,0.2-2.1,0.3-3.2,0.2c2.1-0.2,4.1-0.9,5.9-1.9c1.8-1,3.6-2.1,5.2-3.3c1.7-1.2,3.3-2.6,4.9-3.9c0.8-0.7,1.6-1.4,2.3-2.1
						C619.2,3.4,620,2.7,620.7,2z"/>
				</g>
				<g>
					<path d="M620.7,8.7c-1.2,1.7-2.6,3.3-4.1,4.8c-1.5,1.5-3.1,2.9-4.8,4.2c-1.7,1.2-3.5,2.4-5.5,3.2c-1,0.4-2,0.7-3,1
						c-1,0.2-2.1,0.3-3.2,0.2c2.1-0.2,4.1-0.9,5.9-1.9c1.8-1,3.6-2.1,5.2-3.3c1.7-1.2,3.3-2.6,4.9-3.9c0.8-0.7,1.6-1.4,2.3-2.1
						C619.2,10.1,620,9.4,620.7,8.7z"/>
				</g>
				<g>
					<path d="M620.7,15.3c-1.2,1.7-2.6,3.3-4.1,4.8c-1.5,1.5-3.1,2.9-4.8,4.2c-1.7,1.2-3.5,2.4-5.5,3.2c-1,0.4-2,0.7-3,1
						c-1,0.2-2.1,0.3-3.2,0.2c2.1-0.2,4.1-0.9,5.9-1.9c1.8-1,3.6-2.1,5.2-3.3c1.7-1.2,3.3-2.6,4.9-3.9c0.8-0.7,1.6-1.4,2.3-2.1
						C619.2,16.8,620,16,620.7,15.3z"/>
				</g>
				<g>
					<path d="M620.7,22c-1.2,1.7-2.6,3.3-4.1,4.8c-1.5,1.5-3.1,2.9-4.8,4.2c-1.7,1.2-3.5,2.4-5.5,3.2c-1,0.4-2,0.7-3,1
						c-1,0.2-2.1,0.3-3.2,0.2c2.1-0.2,4.1-0.9,5.9-1.9c1.8-1,3.6-2.1,5.2-3.3c1.7-1.2,3.3-2.6,4.9-3.9c0.8-0.7,1.6-1.4,2.3-2.1
						C619.2,23.4,620,22.7,620.7,22z"/>
				</g>
				<g>
					<path d="M620.7,28.7c-1.2,1.7-2.6,3.3-4.1,4.8c-1.5,1.5-3.1,2.9-4.8,4.2c-1.7,1.2-3.5,2.4-5.5,3.2c-1,0.4-2,0.7-3,1
						c-1,0.2-2.1,0.3-3.2,0.2c2.1-0.2,4.1-0.9,5.9-1.9c1.8-1,3.6-2.1,5.2-3.3c1.7-1.2,3.3-2.6,4.9-3.9c0.8-0.7,1.6-1.4,2.3-2.1
						C619.2,30.1,620,29.4,620.7,28.7z"/>
				</g>
				<g>
					<path d="M620.7,35.3c-1.2,1.7-2.6,3.3-4.1,4.8c-1.5,1.5-3.1,2.9-4.8,4.2c-1.7,1.2-3.5,2.4-5.5,3.2c-1,0.4-2,0.7-3,1
						c-1,0.2-2.1,0.3-3.2,0.2c2.1-0.2,4.1-0.9,5.9-1.9c1.8-1,3.6-2.1,5.2-3.3c1.7-1.2,3.3-2.6,4.9-3.9c0.8-0.7,1.6-1.4,2.3-2.1
						C619.2,36.8,620,36,620.7,35.3z"/>
				</g>
				<g>
					<path d="M620.7,42c-1.2,1.7-2.6,3.3-4.1,4.8c-1.5,1.5-3.1,2.9-4.8,4.2c-1.7,1.2-3.5,2.4-5.5,3.2c-1,0.4-2,0.7-3,1
						c-1,0.2-2.1,0.3-3.2,0.2c2.1-0.2,4.1-0.9,5.9-1.9c1.8-1,3.6-2.1,5.2-3.3c1.7-1.2,3.3-2.6,4.9-3.9c0.8-0.7,1.6-1.4,2.3-2.1
						C619.2,43.4,620,42.7,620.7,42z"/>
				</g>
				<g>
					<path d="M620.7,48.7c-1.2,1.7-2.6,3.3-4.1,4.8c-1.5,1.5-3.1,2.9-4.8,4.2c-1.7,1.2-3.5,2.4-5.5,3.2c-1,0.4-2,0.7-3,1
						c-1,0.2-2.1,0.3-3.2,0.2c2.1-0.2,4.1-0.9,5.9-1.9c1.8-1,3.6-2.1,5.2-3.3c1.7-1.2,3.3-2.6,4.9-3.9c0.8-0.7,1.6-1.4,2.3-2.1
						C619.2,50.1,620,49.4,620.7,48.7z"/>
				</g>
				<g>
					<path d="M620.7,55.3c-1.2,1.7-2.6,3.3-4.1,4.8c-1.5,1.5-3.1,2.9-4.8,4.2c-1.7,1.2-3.5,2.4-5.5,3.2c-1,0.4-2,0.7-3,1
						c-1,0.2-2.1,0.3-3.2,0.2c2.1-0.2,4.1-0.9,5.9-1.9c1.8-1,3.6-2.1,5.2-3.3c1.7-1.2,3.3-2.6,4.9-3.9c0.8-0.7,1.6-1.4,2.3-2.1
						C619.2,56.8,620,56,620.7,55.3z"/>
				</g>
				<g>
					<path d="M620.7,62c-1.2,1.7-2.6,3.3-4.1,4.8c-1.5,1.5-3.1,2.9-4.8,4.2c-1.7,1.2-3.5,2.4-5.5,3.2c-1,0.4-2,0.7-3,1
						c-1,0.2-2.1,0.3-3.2,0.2c2.1-0.2,4.1-0.9,5.9-1.9c1.8-1,3.6-2.1,5.2-3.3c1.7-1.2,3.3-2.6,4.9-3.9c0.8-0.7,1.6-1.4,2.3-2.1
						C619.2,63.4,620,62.7,620.7,62z"/>
				</g>
				<g>
					<path d="M620.7,68.7c-1.2,1.7-2.6,3.3-4.1,4.8c-1.5,1.5-3.1,2.9-4.8,4.2c-1.7,1.2-3.5,2.4-5.5,3.2c-1,0.4-2,0.7-3,1
						c-1,0.2-2.1,0.3-3.2,0.2c2.1-0.2,4.1-0.9,5.9-1.9c1.8-1,3.6-2.1,5.2-3.3c1.7-1.2,3.3-2.6,4.9-3.9c0.8-0.7,1.6-1.4,2.3-2.1
						C619.2,70.1,620,69.4,620.7,68.7z"/>
				</g>
				<g>
					<path d="M620.7,75.3c-1.2,1.7-2.6,3.3-4.1,4.8c-1.5,1.5-3.1,2.9-4.8,4.2c-1.7,1.2-3.5,2.4-5.5,3.2c-1,0.4-2,0.7-3,1
						c-1,0.2-2.1,0.3-3.2,0.2c2.1-0.2,4.1-0.9,5.9-1.9c1.8-1,3.6-2.1,5.2-3.3c1.7-1.2,3.3-2.6,4.9-3.9c0.8-0.7,1.6-1.4,2.3-2.1
						C619.2,76.8,620,76,620.7,75.3z"/>
				</g>
				<g>
					<path d="M620.7,82c-1.2,1.7-2.6,3.3-4.1,4.8c-1.5,1.5-3.1,2.9-4.8,4.2c-1.7,1.2-3.5,2.4-5.5,3.2c-1,0.4-2,0.7-3,1
						c-1,0.2-2.1,0.3-3.2,0.2c2.1-0.2,4.1-0.9,5.9-1.9c1.8-1,3.6-2.1,5.2-3.3c1.7-1.2,3.3-2.6,4.9-3.9c0.8-0.7,1.6-1.4,2.3-2.1
						C619.2,83.4,620,82.7,620.7,82z"/>
				</g>
				<g>
					<path d="M620.7,88.7c-1.2,1.7-2.6,3.3-4.1,4.8c-1.5,1.5-3.1,2.9-4.8,4.2c-1.7,1.2-3.5,2.4-5.5,3.2c-1,0.4-2,0.7-3,1
						c-1,0.2-2.1,0.3-3.2,0.2c2.1-0.2,4.1-0.9,5.9-1.9c1.8-1,3.6-2.1,5.2-3.3c1.7-1.2,3.3-2.6,4.9-3.9c0.8-0.7,1.6-1.4,2.3-2.1
						C619.2,90.1,620,89.4,620.7,88.7z"/>
				</g>
				<g>
					<path d="M620.7,95.3c-1.2,1.7-2.6,3.3-4.1,4.8c-1.5,1.5-3.1,2.9-4.8,4.2c-1.7,1.2-3.5,2.4-5.5,3.2c-1,0.4-2,0.7-3,1
						c-1,0.2-2.1,0.3-3.2,0.2c2.1-0.2,4.1-0.9,5.9-1.9c1.8-1,3.6-2.1,5.2-3.3c1.7-1.2,3.3-2.6,4.9-3.9c0.8-0.7,1.6-1.4,2.3-2.1
						C619.2,96.8,620,96,620.7,95.3z"/>
				</g>
				<g>
					<path d="M620.7,102c-1.2,1.7-2.6,3.3-4.1,4.8c-1.5,1.5-3.1,2.9-4.8,4.2c-1.7,1.2-3.5,2.4-5.5,3.2c-1,0.4-2,0.7-3,1
						c-1,0.2-2.1,0.3-3.2,0.2c2.1-0.2,4.1-0.9,5.9-1.9c1.8-1,3.6-2.1,5.2-3.3c1.7-1.2,3.3-2.6,4.9-3.9c0.8-0.7,1.6-1.4,2.3-2.1
						C619.2,103.4,620,102.7,620.7,102z"/>
				</g>
				<g>
					<path d="M620.7,108.7c-1.2,1.7-2.6,3.3-4.1,4.8c-1.5,1.5-3.1,2.9-4.8,4.2c-1.7,1.2-3.5,2.4-5.5,3.2c-1,0.4-2,0.7-3,1
						c-1,0.2-2.1,0.3-3.2,0.2c2.1-0.2,4.1-0.9,5.9-1.9c1.8-1,3.6-2.1,5.2-3.3c1.7-1.2,3.3-2.6,4.9-3.9c0.8-0.7,1.6-1.4,2.3-2.1
						C619.2,110.1,620,109.4,620.7,108.7z"/>
				</g>
				<g>
					<path d="M620.7,115.3c-1.2,1.7-2.6,3.3-4.1,4.8c-1.5,1.5-3.1,2.9-4.8,4.2c-1.7,1.2-3.5,2.4-5.5,3.2c-1,0.4-2,0.7-3,1
						c-1,0.2-2.1,0.3-3.2,0.2c2.1-0.2,4.1-0.9,5.9-1.9c1.8-1,3.6-2.1,5.2-3.3c1.7-1.2,3.3-2.6,4.9-3.9c0.8-0.7,1.6-1.4,2.3-2.1
						C619.2,116.8,620,116,620.7,115.3z"/>
				</g>
				<g>
					<path d="M620.7,122c-1.2,1.7-2.6,3.3-4.1,4.8c-1.5,1.5-3.1,2.9-4.8,4.2c-1.7,1.2-3.5,2.4-5.5,3.2c-1,0.4-2,0.7-3,1
						c-1,0.2-2.1,0.3-3.2,0.2c2.1-0.2,4.1-0.9,5.9-1.9c1.8-1,3.6-2.1,5.2-3.3c1.7-1.2,3.3-2.6,4.9-3.9c0.8-0.7,1.6-1.4,2.3-2.1
						C619.2,123.4,620,122.7,620.7,122z"/>
				</g>
				<g>
					<path d="M620.7,128.7c-1.2,1.7-2.6,3.3-4.1,4.8c-1.5,1.5-3.1,2.9-4.8,4.2c-1.7,1.2-3.5,2.4-5.5,3.2c-1,0.4-2,0.7-3,1
						c-1,0.2-2.1,0.3-3.2,0.2c2.1-0.2,4.1-0.9,5.9-1.9c1.8-1,3.6-2.1,5.2-3.3c1.7-1.2,3.3-2.6,4.9-3.9c0.8-0.7,1.6-1.4,2.3-2.1
						C619.2,130.1,620,129.4,620.7,128.7z"/>
				</g>
				<g>
					<path d="M620.7,135.3c-1.2,1.7-2.6,3.3-4.1,4.8c-1.5,1.5-3.1,2.9-4.8,4.2c-1.7,1.2-3.5,2.4-5.5,3.2c-1,0.4-2,0.7-3,1
						c-1,0.2-2.1,0.3-3.2,0.2c2.1-0.2,4.1-0.9,5.9-1.9c1.8-1,3.6-2.1,5.2-3.3c1.7-1.2,3.3-2.6,4.9-3.9c0.8-0.7,1.6-1.4,2.3-2.1
						C619.2,136.8,620,136.1,620.7,135.3z"/>
				</g>
				<g>
					<path d="M620.7,142c-1.2,1.7-2.6,3.3-4.1,4.8c-1.5,1.5-3.1,2.9-4.8,4.2c-1.7,1.2-3.5,2.4-5.5,3.2c-1,0.4-2,0.7-3,1
						c-1,0.2-2.1,0.3-3.2,0.2c2.1-0.2,4.1-0.9,5.9-1.9c1.8-1,3.6-2.1,5.2-3.3c1.7-1.2,3.3-2.6,4.9-3.9c0.8-0.7,1.6-1.4,2.3-2.1
						C619.2,143.4,620,142.7,620.7,142z"/>
				</g>
				<g>
					<path d="M620.7,148.7c-1.2,1.7-2.6,3.3-4.1,4.8c-1.5,1.5-3.1,2.9-4.8,4.2c-1.7,1.2-3.5,2.4-5.5,3.2c-1,0.4-2,0.7-3,1
						c-1,0.2-2.1,0.3-3.2,0.2c2.1-0.2,4.1-0.9,5.9-1.9c1.8-1,3.6-2.1,5.2-3.3c1.7-1.2,3.3-2.6,4.9-3.9c0.8-0.7,1.6-1.4,2.3-2.1
						C619.2,150.1,620,149.4,620.7,148.7z"/>
				</g>
				<g>
					<path d="M620.7,155.3c-1.2,1.7-2.6,3.3-4.1,4.8c-1.5,1.5-3.1,2.9-4.8,4.2c-1.7,1.2-3.5,2.4-5.5,3.2c-1,0.4-2,0.7-3,1
						c-1,0.2-2.1,0.3-3.2,0.2c2.1-0.2,4.1-0.9,5.9-1.9c1.8-1,3.6-2.1,5.2-3.3c1.7-1.2,3.3-2.6,4.9-3.9c0.8-0.7,1.6-1.4,2.3-2.1
						C619.2,156.8,620,156.1,620.7,155.3z"/>
				</g>
				<g>
					<path d="M620.7,162c-1.2,1.7-2.6,3.3-4.1,4.8c-1.5,1.5-3.1,2.9-4.8,4.2c-1.7,1.2-3.5,2.4-5.5,3.2c-1,0.4-2,0.7-3,1
						c-1,0.2-2.1,0.3-3.2,0.2c2.1-0.2,4.1-0.9,5.9-1.9c1.8-1,3.6-2.1,5.2-3.3c1.7-1.2,3.3-2.6,4.9-3.9c0.8-0.7,1.6-1.4,2.3-2.1
						C619.2,163.4,620,162.7,620.7,162z"/>
				</g>
				<g>
					<path d="M620.7,168.7c-1.2,1.7-2.6,3.3-4.1,4.8c-1.5,1.5-3.1,2.9-4.8,4.2c-1.7,1.2-3.5,2.4-5.5,3.2c-1,0.4-2,0.7-3,1
						c-1,0.2-2.1,0.3-3.2,0.2c2.1-0.2,4.1-0.9,5.9-1.9c1.8-1,3.6-2.1,5.2-3.3c1.7-1.2,3.3-2.6,4.9-3.9c0.8-0.7,1.6-1.4,2.3-2.1
						C619.2,170.1,620,169.4,620.7,168.7z"/>
				</g>
				<g>
					<path d="M620.7,175.3c-1.2,1.7-2.6,3.3-4.1,4.8c-1.5,1.5-3.1,2.9-4.8,4.2c-1.7,1.2-3.5,2.4-5.5,3.2c-1,0.4-2,0.7-3,1
						c-1,0.2-2.1,0.3-3.2,0.2c2.1-0.2,4.1-0.9,5.9-1.9c1.8-1,3.6-2.1,5.2-3.3c1.7-1.2,3.3-2.6,4.9-3.9c0.8-0.7,1.6-1.4,2.3-2.1
						C619.2,176.8,620,176.1,620.7,175.3z"/>
				</g>
				<g>
					<path d="M620.7,182c-1.2,1.7-2.6,3.3-4.1,4.8c-1.5,1.5-3.1,2.9-4.8,4.2c-1.7,1.2-3.5,2.4-5.5,3.2c-1,0.4-2,0.7-3,1
						c-1,0.2-2.1,0.3-3.2,0.2c2.1-0.2,4.1-0.9,5.9-1.9c1.8-1,3.6-2.1,5.2-3.3c1.7-1.2,3.3-2.6,4.9-3.9c0.8-0.7,1.6-1.4,2.3-2.1
						C619.2,183.4,620,182.7,620.7,182z"/>
				</g>
				<g>
					<path d="M620.7,188.7c-1.2,1.7-2.6,3.3-4.1,4.8c-1.5,1.5-3.1,2.9-4.8,4.2c-1.7,1.2-3.5,2.4-5.5,3.2c-1,0.4-2,0.7-3,1
						c-1,0.2-2.1,0.3-3.2,0.2c2.1-0.2,4.1-0.9,5.9-1.9c1.8-1,3.6-2.1,5.2-3.3c1.7-1.2,3.3-2.6,4.9-3.9c0.8-0.7,1.6-1.4,2.3-2.1
						C619.2,190.1,620,189.4,620.7,188.7z"/>
				</g>
				<g>
					<path d="M620.7,195.3c-1.2,1.7-2.6,3.3-4.1,4.8c-1.5,1.5-3.1,2.9-4.8,4.2c-1.7,1.2-3.5,2.4-5.5,3.2c-1,0.4-2,0.7-3,1
						c-1,0.2-2.1,0.3-3.2,0.2c2.1-0.2,4.1-0.9,5.9-1.9c1.8-1,3.6-2.1,5.2-3.3c1.7-1.2,3.3-2.6,4.9-3.9c0.8-0.7,1.6-1.4,2.3-2.1
						C619.2,196.8,620,196.1,620.7,195.3z"/>
				</g>
				<g>
					<path d="M620.7,202c-1.2,1.7-2.6,3.3-4.1,4.8c-1.5,1.5-3.1,2.9-4.8,4.2c-1.7,1.2-3.5,2.4-5.5,3.2c-1,0.4-2,0.7-3,1
						c-1,0.2-2.1,0.3-3.2,0.2c2.1-0.2,4.1-0.9,5.9-1.9c1.8-1,3.6-2.1,5.2-3.3c1.7-1.2,3.3-2.6,4.9-3.9c0.8-0.7,1.6-1.4,2.3-2.1
						C619.2,203.5,620,202.7,620.7,202z"/>
				</g>
			</g>
		</g>
	</g>
</g>
</svg>
