<?xml version="1.0" encoding="utf-8"?>
<!-- Generator: Adobe Illustrator 15.1.0, SVG Export Plug-In . SVG Version: 6.00 Build 0)  -->
<!DOCTYPE svg PUBLIC "-//W3C//DTD SVG 1.1//EN" "http://www.w3.org/Graphics/SVG/1.1/DTD/svg11.dtd">
<svg version="1.1" id="Layer_1" xmlns="http://www.w3.org/2000/svg" xmlns:xlink="http://www.w3.org/1999/xlink" x="0px" y="0px"
	 width="193px" height="210px" viewBox="0 0 193 210" style="enable-background:new 0 0 193 210;" xml:space="preserve">
<style type="text/css">
<![CDATA[
	.st0{opacity:0.45;fill:#B73220;}
	.st1{opacity:0.25;}
	.st2{fill:#EFA075;}
	.st3{fill:#BA916C;}
	.st4{fill:#BF0000;}
	.st5{opacity:0.45;fill:#FFE33B;}
	.st6{fill:#F9D3AA;}
	.st7{clip-path:url(#SVGID_2_);}
	.st8{clip-path:url(#SVGID_4_);}
	.st9{clip-path:url(#SVGID_6_);}
	.st10{fill:#91623C;}
	.st11{opacity:0.42;fill:#FF9494;}
	.st12{fill:#C42612;}
	.st13{fill:#FCFCFC;}
	.st14{opacity:0.52;fill:#FF9999;}
	.st15{fill:#FF5033;}
	.st16{fill:#FFE33B;}
	.st17{fill:#FFFFFF;}
	.st18{opacity:0.45;fill:#D3BB46;}
	.st19{opacity:0.48;fill:#AA931F;}
	.st20{opacity:0.62;fill:#A05737;}
]]>
</style>
<g>
	<g>
		<path class="st15" d="M65.2,169.1c1.9,3.5,4.6,5.6,7.5,6.8c-1.9-3.1-3.5-6.5-4.7-10.3c-0.6,1.7-0.8,3.5-0.6,5.6c0,0.1,0,0.1,0,0.2
			c0,0.1,0,0.2,0,0.3c0,0-0.6-0.7-1.6-1.9c-1.6-2-4.3-5.5-6.9-10c-4.1-7.1-8.1-16.6-7.8-26.3c0,0-5,14.8-3.8,30.3
			c1.1,14.5,7.4,29.6,28.1,34c0,0,11.8,3.9,21.7-1.2c-10.1-5-18.8-11.6-24.5-20.7C69.8,174.7,67.1,172.6,65.2,169.1z"/>
		<g>
			<path d="M65.3,169.1c0.8,1.5,1.9,2.9,3.2,4c1.3,1.2,2.8,2.1,4.4,2.6l-0.1,0.1c-0.5-0.8-1-1.6-1.4-2.4c-0.5-0.8-0.9-1.7-1.3-2.5
				c-0.4-0.9-0.8-1.7-1.1-2.6c-0.3-0.9-0.7-1.8-1-2.7l0.5,0c-0.3,1-0.5,2-0.6,3c0,0.5,0,1,0,1.5c0,0.5,0.1,1,0.1,1.5l0.1,1l-0.7-0.7
				c-2.4-2.6-4.5-5.5-6.5-8.5c-2-3-3.7-6.1-5.2-9.3c-1.5-3.2-2.7-6.6-3.5-10.1c-0.8-3.5-1.2-7-1.1-10.6l0.5,0.1
				c-1,3.1-1.8,6.3-2.4,9.5c-0.6,3.2-1.1,6.4-1.4,9.7c-0.5,6.5-0.3,13.1,1.3,19.4c1.6,6.3,4.7,12.3,9.4,16.7
				c4.7,4.4,10.9,7.1,17.2,8.4l0,0l0,0c1.7,0.5,3.5,0.9,5.3,1.1c1.8,0.2,3.6,0.3,5.5,0.3c3.6-0.1,7.3-0.9,10.5-2.5l0,0.9
				c-4.8-2.5-9.5-5.3-13.7-8.8c-2.1-1.8-4-3.7-5.8-5.7c-1.8-2-3.4-4.2-4.8-6.6l0.1,0c-1.6-0.6-3.1-1.6-4.4-2.7
				C67,172,66,170.6,65.3,169.1L65.3,169.1z M65.3,169.1c0.8,1.5,1.9,2.9,3.2,4c1.3,1.2,2.8,2.1,4.4,2.6l0,0l0,0
				c2.9,4.6,6.7,8.5,10.9,11.9c4.2,3.3,8.9,6.1,13.7,8.5l0.9,0.4l-0.9,0.5c-3.4,1.7-7.2,2.6-10.9,2.7c-1.9,0.1-3.8,0-5.6-0.3
				c-1.9-0.2-3.7-0.6-5.5-1.2l0.1,0c-6.4-1.4-12.8-4.1-17.6-8.8c-4.9-4.6-7.9-10.8-9.4-17.2c-1.5-6.4-1.6-13.1-1.1-19.6
				c0.6-6.5,1.8-13,3.7-19.3l0.5-1.7l0,1.8c-0.1,3.5,0.4,7,1.3,10.4c0.9,3.4,2.1,6.7,3.6,9.9c1.5,3.2,3.2,6.2,5.1,9.2
				c1.9,3,4,5.8,6.3,8.5l-0.6,0.3c0-0.5-0.1-1-0.1-1.6c0-0.5,0-1.1,0.1-1.6c0.1-1,0.3-2.1,0.7-3.1l0.3-0.7l0.2,0.7
				c1.1,3.6,2.6,7.1,4.5,10.3L73,176l-0.3-0.1c-1.6-0.6-3.1-1.6-4.4-2.7C67,172,66,170.6,65.3,169.1L65.3,169.1z"/>
		</g>
	</g>
	<path class="st0" d="M75.7,180c5.5,7,13,12.3,21.5,16.5c-9.9,5.1-21.7,1.2-21.7,1.2c-20.7-4.4-27-19.5-28.1-34
		c-0.2-2.8-0.2-5.5-0.1-8.2C50.5,167.9,63.1,174.5,75.7,180z"/>
	<g>
		<path class="st16" d="M51.2,133.5c-0.4,9.7,3.6,19.2,7.8,26.3c1.4-1.7,1.9-3.3,1.9-3.3c5.7-11.8,1.1-22.1,1.1-22.1l-2.6,5
			C55,119,44,120.5,44,120.5s3.5,2.9,1.3,9.1c-2.2,6.2-0.8,21.1-0.8,21.1c-1.5-12.7-4.4-10.4-4.4-10.4l-0.4,6.5
			c-1.7,11.9,5.3,16.4,5.3,16.4c0.8,0.2,1.6,0.4,2.4,0.5C46.3,148.3,51.2,133.5,51.2,133.5z"/>
		<g>
			<path d="M51.3,133.5c-0.1,4.6,0.8,9.2,2.3,13.6c1.5,4.4,3.5,8.5,5.8,12.5l-0.7,0c0.4-0.5,0.7-1,1-1.5c0.3-0.5,0.6-1.1,0.8-1.7
				l0,0l0,0c1.6-3.4,2.6-7.1,2.8-10.8c0.1-1.9,0-3.7-0.2-5.6c-0.3-1.8-0.7-3.7-1.4-5.4l0.6,0l-2.6,4.9l-0.3,0.6l-0.1-0.7
				c-0.9-4.3-2.2-8.5-4.6-12.2c-1.2-1.8-2.7-3.5-4.5-4.7c-1.8-1.2-4-2-6.1-1.8l0.1-0.4c2,1.9,2.5,4.8,2,7.4
				c-0.1,0.7-0.3,1.3-0.5,1.9c-0.2,0.6-0.4,1.2-0.5,1.8c-0.3,1.2-0.4,2.5-0.5,3.8c-0.2,2.6-0.2,5.1-0.1,7.7c0.1,2.6,0.2,5.1,0.4,7.7
				l-0.9,0.1c-0.2-2-0.6-4-1.1-6c-0.3-1-0.6-1.9-1-2.8c-0.2-0.4-0.5-0.8-0.8-1.1c-0.3-0.3-0.6-0.3-0.8-0.2l0.2-0.4l-0.4,6.5l0,0l0,0
				c-0.4,2.9-0.4,5.9,0.4,8.7c0.4,1.4,1,2.8,1.8,4c0.8,1.2,1.8,2.4,2.9,3.2l-0.1-0.1c0.8,0.2,1.5,0.4,2.3,0.6l-0.5,0.5
				c-0.3-5.1,0-10.3,0.7-15.4c0.4-2.5,0.8-5.1,1.4-7.6C49.7,138.4,50.4,135.9,51.3,133.5l0-0.3L51.3,133.5z M51.2,133.9
				c-0.7,2.3-1.2,4.7-1.7,7.1c-0.5,2.5-0.9,5-1.2,7.6c-0.6,5.1-0.8,10.2-0.4,15.2l0,0.5l-0.5-0.1c-0.8-0.1-1.6-0.3-2.4-0.5l-0.1,0
				l0,0c-1.4-0.9-2.4-2.1-3.2-3.4c-0.8-1.3-1.5-2.8-1.9-4.2c-0.9-3-0.9-6.2-0.5-9.2l0,0l0.4-6.5l0-0.3l0.2-0.1
				c0.8-0.5,1.6-0.1,2.1,0.3c0.5,0.4,0.8,0.9,1,1.4c0.5,1,0.8,2,1.1,3c0.5,2,0.8,4.1,1,6.1l-0.9,0.1c-0.2-2.6-0.3-5.2-0.4-7.8
				c0-2.6,0-5.2,0.3-7.8c0.1-1.3,0.3-2.6,0.6-3.9c0.1-0.6,0.3-1.3,0.5-1.9c0.2-0.6,0.4-1.2,0.5-1.8c0.2-1.2,0.3-2.5,0-3.7
				c-0.3-1.2-0.9-2.4-1.7-3.3l-0.3-0.3l0.4,0c2.3-0.1,4.5,0.7,6.3,1.9c1.9,1.2,3.3,2.9,4.6,4.8c1.2,1.8,2.2,3.8,3,5.9
				c0.8,2.1,1.4,4.2,1.9,6.3l-0.5-0.1l2.5-5l0.3-0.6l0.3,0.6c0.8,1.8,1.2,3.7,1.5,5.6c0.3,1.9,0.4,3.8,0.3,5.8
				c-0.2,3.9-1.2,7.7-2.9,11.1l0-0.1c-0.2,0.7-0.5,1.2-0.9,1.8c-0.3,0.6-0.7,1.1-1.1,1.6l-0.4,0.5l-0.3-0.5c-2.3-4-4.3-8.3-5.7-12.7
				C51.7,142.9,51,138.4,51.2,133.9z"/>
		</g>
	</g>
	<path class="st18" d="M49.1,121.8c1,0.5,2,1.2,3,2.2c2.4,11.3,2.9,22.4,9.1,31.8c-0.1,0.2-0.2,0.4-0.3,0.6c0,0-0.5,1.6-1.9,3.3
		c-4.1-7.1-8.1-16.6-7.8-26.3c0,0-5,14.8-3.8,30.3c-0.8-0.1-1.5-0.3-2.4-0.5c0,0-0.1,0-0.2-0.1C44.2,148.8,43.8,134.8,49.1,121.8z"
		/>
	<g>
		<g>
			<path class="st2" d="M55,159.3c-0.1,1.4,1,1.6,2.5,1.7c1.4,0.1,2.6,0.2,2.7-1.2c0.1-1.4-0.8-3.5-2.3-3.6
				C56.5,156,55.1,157.9,55,159.3z"/>
			<path d="M55.1,159.3c0,0.3,0,0.7,0.3,0.9c0.2,0.2,0.5,0.3,0.8,0.3c0.6,0,1.3,0,1.9,0.2c0.6,0.1,1.3,0.3,1.7-0.2
				c0.4-0.5,0.2-1.2,0-1.8c-0.3-0.6-0.6-1.1-1-1.5c-0.4-0.4-0.9-0.5-1.3-0.4c-0.5,0.1-1,0.5-1.4,0.9C55.6,158,55.1,158.6,55.1,159.3
				z M55,159.3c0.1-0.7,0.2-1.4,0.5-2c0.3-0.7,0.9-1.3,1.7-1.5c0.4-0.1,0.9-0.1,1.3,0.1c0.4,0.2,0.7,0.4,1,0.7
				c0.5,0.6,0.8,1.3,0.9,2c0.1,0.7,0.1,1.4-0.3,2.1c-0.2,0.3-0.6,0.5-1,0.6c-0.4,0.1-0.7,0.1-1.1,0.2c-0.7,0-1.4-0.1-2.1-0.4
				c-0.3-0.2-0.7-0.4-0.9-0.7C54.9,160,54.9,159.6,55,159.3z"/>
		</g>
		<path class="st20" d="M55,159.3c0.1-0.8,0.6-1.7,1.2-2.4c-0.1,0.9,0.2,1.8,0.7,2.4c1.1,0.7,2.2,0.8,3.3,0.7
			c-0.2,1.2-1.3,1.1-2.7,1C56,160.8,54.9,160.6,55,159.3z"/>
	</g>
	<g>
		<g>
			<path class="st2" d="M51.6,150.1c-0.1,1.4,1,1.6,2.5,1.7c1.4,0.1,2.6,0.2,2.7-1.2c0.1-1.4-0.8-3.5-2.3-3.6S51.7,148.7,51.6,150.1
				z"/>
			<path d="M51.6,150.1c0,0.3,0,0.7,0.3,0.9c0.2,0.2,0.5,0.3,0.8,0.3c0.6,0,1.3,0,1.9,0.2c0.6,0.1,1.3,0.3,1.7-0.2
				c0.4-0.5,0.2-1.2,0-1.8c-0.3-0.6-0.6-1.1-1-1.5c-0.4-0.4-0.9-0.5-1.3-0.4c-0.5,0.1-1,0.5-1.4,0.9
				C52.1,148.8,51.7,149.4,51.6,150.1z M51.5,150.1c0.1-0.7,0.2-1.4,0.5-2c0.3-0.7,0.9-1.3,1.7-1.5c0.2-0.1,0.4-0.1,0.7-0.1
				c0.2,0,0.4,0.1,0.6,0.1c0.4,0.2,0.7,0.4,1,0.7c0.5,0.6,0.8,1.3,0.9,2c0.1,0.7,0.1,1.4-0.3,2.1c-0.2,0.3-0.6,0.5-1,0.6
				c-0.4,0.1-0.7,0.1-1.1,0.2c-0.7,0-1.4-0.1-2.1-0.4c-0.3-0.2-0.7-0.4-0.9-0.7C51.5,150.8,51.5,150.4,51.5,150.1z"/>
		</g>
		<path class="st20" d="M51.6,150.1c0.1-0.8,0.6-1.7,1.2-2.4c-0.1,0.9,0.2,1.8,0.7,2.4c1.1,0.7,2.2,0.9,3.3,0.7
			c-0.2,1.2-1.3,1.1-2.7,1C52.6,151.6,51.4,151.5,51.6,150.1z"/>
	</g>
	<g>
		<g>
			<path class="st2" d="M48.7,142.2c-0.1,1.4,1,1.6,2.5,1.7c1.4,0.1,2.6,0.2,2.7-1.2c0.1-1.4-0.8-3.5-2.3-3.6
				C50.2,139,48.8,140.8,48.7,142.2z"/>
			<path d="M48.8,142.2c0,0.3,0,0.7,0.3,0.9c0.2,0.2,0.5,0.3,0.8,0.3c0.6,0,1.3,0,1.9,0.2c0.6,0.1,1.3,0.3,1.7-0.2
				c0.4-0.5,0.2-1.2,0-1.8c-0.3-0.6-0.6-1.1-1-1.5c-0.4-0.4-0.9-0.5-1.3-0.4c-0.5,0.1-1,0.5-1.4,0.9C49.3,141,48.8,141.5,48.8,142.2
				z M48.7,142.2c0.1-0.7,0.2-1.4,0.5-2c0.3-0.7,0.9-1.3,1.7-1.5c0.4-0.1,0.9-0.1,1.3,0.1c0.4,0.2,0.7,0.4,1,0.7
				c0.5,0.6,0.8,1.3,0.9,2c0.1,0.7,0.1,1.4-0.3,2.1c-0.2,0.3-0.6,0.5-1,0.6c-0.4,0.1-0.7,0.1-1.1,0.2c-0.7,0-1.4-0.1-2.1-0.4
				c-0.3-0.2-0.7-0.4-0.9-0.7C48.6,142.9,48.6,142.5,48.7,142.2z"/>
		</g>
		<path class="st20" d="M48.7,142.2c0.1-0.8,0.6-1.7,1.2-2.4c-0.1,0.9,0.2,1.8,0.7,2.4c1.1,0.7,2.2,0.9,3.3,0.7
			c-0.2,1.2-1.3,1.1-2.7,1C49.7,143.8,48.6,143.6,48.7,142.2z"/>
	</g>
	<g>
		<g>
			<path class="st15" d="M111.2,146.3c13.6-8.7,18.6,1,18.6,1c17.6-17.2,29.2,14.3,29.2,14.3c2.5-30.2,29-11.5,29-11.5l-5.2-10.4
				c-20.4-31.8-23.7-23.2-23.7-23.2c-11.7,17.3-53.2,20.6-53.2,20.6s-2.3-0.2-2,4.5"/>
			<path d="M111.2,146.3c1.5-1,3-1.8,4.6-2.5c1.6-0.7,3.4-1.2,5.1-1.3c1.8-0.1,3.6,0.2,5.2,1.1c1.6,0.8,3,2.1,3.9,3.7l-0.5-0.1
				c2.4-2.4,5.3-4.5,8.8-5.1c1.7-0.3,3.5-0.2,5.2,0.3c1.7,0.5,3.2,1.4,4.6,2.4c2.7,2.1,4.9,4.9,6.7,7.7c1.8,2.9,3.3,5.9,4.5,9.1
				l-0.7,0.1c0.3-3.4,1-6.9,2.4-10.1c0.8-1.6,1.7-3.1,3-4.3c1.3-1.2,2.8-2.1,4.5-2.6c3.4-0.9,7-0.3,10.2,0.7
				c3.3,1.1,6.4,2.6,9.3,4.5l-0.3,0.3l-5.3-10.3l0,0c-3.2-4.9-6.6-9.8-10.3-14.4c-1.9-2.3-3.8-4.5-6-6.5c-1.1-1-2.2-1.9-3.5-2.5
				c-0.6-0.3-1.3-0.5-1.9-0.5c-0.6,0-1.1,0.3-1.3,0.7l0,0.1l0,0c-2.9,4.1-7,7.1-11.3,9.5c-4.3,2.4-8.9,4.1-13.6,5.6
				c-4.7,1.4-9.5,2.5-14.3,3.4c-4.8,0.9-9.6,1.6-14.5,1.9h0h0c-0.4,0-0.8,0.2-1.1,0.5c-0.3,0.3-0.5,0.7-0.6,1.2
				c-0.2,0.9-0.3,1.8-0.2,2.7l-0.1,0c-0.1-0.9-0.1-1.8,0.2-2.7c0.1-0.4,0.3-0.9,0.6-1.3c0.3-0.4,0.8-0.6,1.3-0.6h0
				c4.8-0.5,9.7-1.3,14.4-2.2c4.8-1,9.5-2.1,14.1-3.6c4.6-1.5,9.1-3.3,13.4-5.6c4.2-2.3,8.2-5.3,10.9-9.2l-0.1,0.1
				c0.4-1,1.4-1.4,2.3-1.4c0.9,0,1.7,0.3,2.4,0.7c1.4,0.7,2.6,1.7,3.7,2.7c2.2,2,4.2,4.3,6,6.6c3.7,4.7,7,9.6,10.1,14.6l0,0l0,0
				l5.1,10.4l0.4,0.8l-0.7-0.5c-2.8-1.9-5.9-3.5-9.1-4.6c-3.2-1.1-6.7-1.7-10-0.7c-1.6,0.5-3.1,1.3-4.4,2.5
				c-1.2,1.2-2.2,2.6-2.8,4.2c-1.4,3.1-1.9,6.5-2.2,9.9l-0.1,1.5l-0.5-1.4c-1.2-3.1-2.8-6.1-4.6-8.9c-1.8-2.8-3.9-5.4-6.5-7.5
				c-1.3-1-2.7-1.8-4.3-2.3c-1.5-0.5-3.2-0.6-4.8-0.3c-3.2,0.6-6,2.6-8.4,4.8l-0.3,0.3l-0.2-0.4c-0.8-1.4-2.1-2.7-3.6-3.5
				c-1.5-0.8-3.2-1.2-4.9-1.1c-1.7,0-3.4,0.5-5.1,1.1C114.3,144.7,112.8,145.5,111.2,146.3L111.2,146.3z"/>
		</g>
		<path class="st5" d="M144.6,139c-5.7-3.3-11.7,0.6-12.7,6.6c10.5-8.3,18.6,0.5,23.1,8C152.8,147.3,150.2,141.5,144.6,139z"/>
		<path class="st5" d="M161.1,140.2c-4.2,4.1-5.1,9.9-4.7,16c1.6,3.1,2.5,5.5,2.5,5.5c2.5-30.2,29-11.5,29-11.5l-2.2-4.5
			C178.2,138.8,169.3,133.3,161.1,140.2z"/>
		<path class="st5" d="M115.5,144.1c7.1-3,11.2-0.3,13,1.7C125.4,140.9,119.7,137.8,115.5,144.1z"/>
		<g>
			<path class="st16" d="M185.9,148.9c1.3,0.8,2.1,1.3,2.1,1.3l-5.2-10.4c-19.2-30-23.3-24.1-23.7-23.3
				C171.7,124.5,179.2,136.6,185.9,148.9z"/>
			<g>
				<path d="M185.9,148.8c0.7,0.4,1.5,0.8,2.2,1.2l-0.2,0.2c-0.9-1.7-1.8-3.4-2.7-5.1c-0.9-1.7-1.8-3.4-2.7-5.1l0,0l-2.5-3.7
					c-0.8-1.2-1.6-2.5-2.5-3.7c-1.6-2.4-3.3-4.9-5.1-7.2c-1.8-2.3-3.7-4.6-5.9-6.5c-1.1-1-2.3-1.9-3.6-2.5c-0.6-0.3-1.3-0.5-2-0.5
					c-0.7,0-1.3,0.3-1.5,0.8l-0.1-0.5c3,1.8,5.9,4,8.5,6.5c2.6,2.4,5,5.1,7.2,7.9c2.2,2.8,4.1,5.8,5.9,8.8
					C182.7,142.5,184.4,145.7,185.9,148.8z M185.9,148.9c-1.8-3-3.6-6.1-5.6-9c-1.9-3-3.9-5.8-6.1-8.6c-2.2-2.8-4.5-5.4-7-7.8
					c-2.5-2.4-5.3-4.6-8.2-6.6l-0.3-0.2l0.1-0.3c0.4-0.8,1.4-1.2,2.2-1.1c0.8,0,1.5,0.4,2.2,0.7c1.3,0.7,2.5,1.7,3.6,2.7
					c2.2,2,4.1,4.3,6,6.5c1.9,2.3,3.7,4.6,5.5,7c0.9,1.2,1.7,2.4,2.5,3.6l2.4,3.7l0,0l0,0c0.8,1.7,1.7,3.5,2.5,5.2
					c0.8,1.7,1.7,3.5,2.4,5.3l0.2,0.6l-0.5-0.4C187.3,149.8,186.6,149.4,185.9,148.9L185.9,148.9L185.9,148.9z"/>
			</g>
		</g>
		<g>
			<path class="st16" d="M159.4,158.7l-10.1-33.4c-0.4,0.2-0.8,0.4-1.2,0.7l8.5,30.4c1.6,3,2.4,5.3,2.4,5.3
				C159.1,160.6,159.2,159.6,159.4,158.7z"/>
			<g>
				<path d="M159.3,158.7c-1-2.7-1.9-5.5-2.8-8.2c-0.9-2.8-1.8-5.5-2.6-8.3c-0.8-2.8-1.5-5.6-2.3-8.4l-1.2-4.2l-1.3-4.2l0.3,0.1
					l-1.2,0.7l0.1-0.3l2.3,7.6l2.2,7.6c0.7,2.5,1.4,5.1,2.1,7.6c0.7,2.5,1.3,5.1,2,7.6l0-0.1c0.8,1.8,1.6,3.5,2.2,5.4l-0.4,0
					C158.9,160.7,159.1,159.7,159.3,158.7z M159.4,158.7c-0.1,1-0.2,2-0.2,3l0,0.8l-0.3-0.8c-0.8-1.8-1.6-3.5-2.6-5.2l0,0l0,0
					c-0.8-2.5-1.5-5-2.3-7.6c-0.7-2.5-1.5-5.1-2.1-7.6l-2-7.6l-1.9-7.7l0-0.2l0.2-0.1l1.2-0.6l0.2-0.1l0.1,0.2l1.2,4.2l1.3,4.2
					c0.9,2.8,1.9,5.5,2.7,8.3c0.9,2.8,1.6,5.6,2.5,8.4C158,153,158.7,155.8,159.4,158.7L159.4,158.7L159.4,158.7z"/>
			</g>
		</g>
		<g>
			<path class="st16" d="M128.9,133.2l0.3,13.2c0.5,0.6,0.7,1,0.7,1c0.2-0.2,0.4-0.3,0.6-0.5l-0.4-14
				C129.7,133,129.3,133.1,128.9,133.2z"/>
			<g>
				<path d="M128.9,133.2c0.4,2.2,0.5,4.4,0.5,6.5c0,1.1-0.1,2.2-0.1,3.3c-0.1,1.1-0.1,2.2,0,3.3l0-0.1c0.3,0.3,0.5,0.6,0.8,1
					l-0.4-0.1l0.5-0.6l-0.1,0.2c-0.1-1.2-0.2-2.3-0.3-3.5c-0.1-1.2-0.1-2.3-0.2-3.5c0-2.3,0-4.7,0.2-7l0.2,0.2
					C129.7,133.1,129.3,133.2,128.9,133.2z M128.9,133.2c0.4-0.2,0.7-0.3,1.1-0.4l0.2-0.1l0,0.3c0.3,2.3,0.5,4.7,0.5,7
					c0,1.2,0,2.3,0,3.5c0,1.2,0,2.3-0.1,3.5l0,0.1l-0.1,0.1l-0.6,0.5l-0.2,0.2l-0.1-0.3c-0.2-0.3-0.4-0.7-0.6-1l0,0l0-0.1
					c0-1.1,0-2.2-0.1-3.3c-0.1-1.1-0.2-2.2-0.3-3.3C128.5,137.6,128.6,135.4,128.9,133.2L128.9,133.2L128.9,133.2z"/>
			</g>
		</g>
		<g>
			<path class="st12" d="M166.6,118.7c-6.1-5.5-7.5-2.1-7.5-2.1c-11.7,17.3-53.2,20.6-53.2,20.6s-1.4-0.1-1.9,2.1
				C126.8,138.7,150,135,166.6,118.7z"/>
			<g>
				<path d="M166.5,118.7c-1.1-1-2.3-1.9-3.6-2.5c-0.7-0.3-1.4-0.5-2.1-0.5c-0.7,0-1.4,0.4-1.7,1l0,0l0,0c-2.8,4.1-6.8,7.1-11.1,9.5
					c-4.3,2.4-8.9,4.1-13.5,5.6c-4.7,1.4-9.4,2.6-14.2,3.5c-4.8,0.9-9.6,1.7-14.5,2.1l0,0l0,0c-0.2,0-0.5,0.1-0.6,0.2
					c-0.2,0.1-0.4,0.3-0.5,0.5c-0.3,0.4-0.5,0.9-0.6,1.3l-0.1-0.2c5.6-0.2,11.2-0.6,16.8-1.3c5.6-0.7,11.1-1.7,16.5-3.2
					c5.4-1.5,10.7-3.5,15.6-6.2C157.9,125.9,162.5,122.6,166.5,118.7z M166.6,118.7c-4,4-8.5,7.4-13.5,10.1
					c-4.9,2.7-10.2,4.8-15.6,6.3c-10.9,3.1-22.2,4-33.4,4.3l-0.2,0l0-0.2c0.1-0.5,0.3-1,0.6-1.4c0.3-0.4,0.8-0.8,1.4-0.8h0
					c4.8-0.4,9.7-1.1,14.5-2c4.8-1,9.5-2.1,14.2-3.6c4.6-1.5,9.2-3.3,13.4-5.6c4.2-2.3,8.3-5.2,11.1-9.3l0,0
					c0.3-0.7,1.1-1.1,1.9-1.1c0.8,0,1.5,0.3,2.1,0.6C164.3,116.8,165.5,117.7,166.6,118.7L166.6,118.7L166.6,118.7z"/>
			</g>
		</g>
	</g>
	<g>
		<g>
			<path class="st15" d="M81.8,145.8c-13.6-8.7-18.6,1-18.6,1C45.5,129.5,34,161,34,161c-2.4-30.2-29-11.5-29-11.5l5.2-10.4
				C30.7,107.4,33.9,116,33.9,116c11.7,17.3,53.2,20.6,53.2,20.6s2.3-0.2,2,4.5"/>
			<path d="M81.7,145.8c-1.5-0.9-3-1.7-4.7-2.4c-1.6-0.6-3.3-1-5.1-1.1c-1.7-0.1-3.4,0.3-4.9,1.1c-1.5,0.8-2.8,2-3.6,3.5l-0.2,0.4
				l-0.3-0.3c-2.4-2.3-5.2-4.3-8.4-4.8c-1.6-0.3-3.3-0.2-4.8,0.3c-1.6,0.5-3,1.3-4.3,2.3c-2.6,2-4.7,4.7-6.5,7.5
				c-1.8,2.8-3.4,5.8-4.6,8.9l-0.5,1.4l-0.1-1.5c-0.2-3.4-0.8-6.8-2.2-9.9c-0.7-1.5-1.6-3-2.8-4.2c-1.2-1.2-2.7-2-4.3-2.5
				c-3.3-0.9-6.8-0.3-10,0.7c-3.2,1.1-6.3,2.7-9.1,4.6l-0.7,0.5l0.4-0.8L9.9,139l0,0l0,0c3.2-5,6.5-10,10.2-14.6
				c1.9-2.3,3.8-4.6,6-6.6c1.1-1,2.3-2,3.7-2.7c0.7-0.3,1.5-0.6,2.4-0.7c0.9,0,1.9,0.4,2.3,1.4l-0.1-0.1c2.7,3.9,6.7,6.9,10.9,9.2
				c4.2,2.3,8.8,4.1,13.4,5.6c4.6,1.5,9.3,2.7,14.1,3.7c4.8,1,9.6,1.7,14.4,2.3h0c0.5,0,1,0.3,1.3,0.6c0.3,0.4,0.5,0.8,0.6,1.3
				c0.2,0.9,0.2,1.8,0.2,2.7l-0.1,0c0-0.9,0-1.8-0.2-2.7c-0.1-0.4-0.3-0.8-0.6-1.2c-0.3-0.3-0.7-0.5-1.1-0.5h0h0
				c-4.9-0.4-9.7-1.1-14.5-1.9c-4.8-0.9-9.6-2-14.3-3.4c-4.7-1.4-9.3-3.2-13.6-5.6c-4.3-2.4-8.4-5.4-11.2-9.5l0,0l0-0.1
				c-0.2-0.4-0.7-0.7-1.3-0.7c-0.6,0-1.3,0.2-1.9,0.5c-1.3,0.6-2.4,1.5-3.5,2.5c-2.2,2-4.1,4.2-6,6.5c-3.7,4.6-7.1,9.4-10.3,14.4
				l0,0l-5.3,10.3l-0.3-0.3c2.9-1.9,6-3.4,9.3-4.5c3.3-1,6.8-1.6,10.2-0.7c1.7,0.5,3.3,1.3,4.5,2.6c1.3,1.2,2.2,2.7,3,4.3
				c1.5,3.2,2.1,6.6,2.4,10.1l-0.7-0.1c1.2-3.2,2.7-6.2,4.5-9.1c1.8-2.9,3.9-5.6,6.7-7.7c1.4-1,2.9-1.9,4.6-2.4
				c1.7-0.5,3.5-0.6,5.2-0.3c3.5,0.7,6.4,2.8,8.8,5.2l-0.5,0.1c1-1.6,2.3-2.8,3.9-3.7c1.6-0.8,3.4-1.2,5.2-1
				c1.8,0.1,3.5,0.6,5.1,1.3C78.8,143.9,80.3,144.7,81.7,145.8L81.7,145.8z"/>
		</g>
		<path class="st5" d="M48.4,138.4c5.7-3.3,11.7,0.6,12.7,6.6c-10.5-8.3-18.6,0.5-23.1,7.9C40.2,146.6,42.8,140.8,48.4,138.4z"/>
		<path class="st5" d="M31.9,139.5c4.2,4.2,5,9.9,4.6,16c-1.6,3.1-2.5,5.5-2.5,5.5c-2.4-30.2-29-11.5-29-11.5l2.3-4.5
			C14.8,138.1,23.7,132.6,31.9,139.5z"/>
		<path class="st5" d="M77.5,143.5c-7.1-3-11.2-0.3-13,1.7C67.6,140.3,73.3,137.2,77.5,143.5z"/>
		<g>
			<path class="st16" d="M7.1,148.2C5.8,149,5,149.5,5,149.5l5.2-10.4c19.3-29.9,23.3-24,23.7-23.2C21.4,123.9,13.8,136,7.1,148.2z"
				/>
			<g>
				<path d="M7.1,148.2c-0.7,0.5-1.4,0.9-2.1,1.4L4.6,150l0.2-0.5c0.8-1.8,1.6-3.5,2.5-5.3c0.8-1.8,1.7-3.5,2.5-5.2l0,0l0,0l2.4-3.7
					c0.8-1.2,1.7-2.4,2.5-3.6c1.7-2.4,3.6-4.7,5.5-7c1.9-2.3,3.8-4.5,6-6.5c1.1-1,2.2-2,3.6-2.7c0.7-0.4,1.4-0.7,2.2-0.7
					c0.8-0.1,1.7,0.3,2.2,1.1l0.1,0.3l-0.3,0.2c-2.9,1.9-5.7,4.1-8.2,6.6c-2.5,2.4-4.9,5-7,7.8c-2.2,2.8-4.2,5.6-6.1,8.6
					C10.8,142.2,9,145.2,7.1,148.2L7.1,148.2L7.1,148.2z M7.1,148.2c1.6-3.2,3.2-6.3,5-9.3c1.8-3,3.7-6,5.9-8.8
					c2.2-2.8,4.5-5.5,7.2-7.9c2.6-2.4,5.5-4.6,8.5-6.4l-0.1,0.5c-0.3-0.5-0.9-0.9-1.5-0.8c-0.7,0-1.4,0.2-2,0.5
					c-1.3,0.6-2.5,1.5-3.6,2.5c-2.2,2-4.1,4.2-5.9,6.5c-1.8,2.3-3.5,4.8-5.1,7.2c-0.8,1.2-1.7,2.4-2.5,3.7l-2.5,3.7l0,0
					c-0.9,1.7-1.8,3.4-2.7,5.1c-0.9,1.7-1.8,3.4-2.8,5.1l-0.2-0.2C5.6,148.9,6.3,148.5,7.1,148.2z"/>
			</g>
		</g>
		<g>
			<path class="st16" d="M33.6,158l10.1-33.3c0.4,0.2,0.8,0.5,1.2,0.7l-8.6,30.4c-1.6,3-2.4,5.3-2.4,5.3C33.9,160,33.8,159,33.6,158
				z"/>
			<g>
				<path d="M33.6,158c0.7-2.8,1.5-5.6,2.2-8.4c0.8-2.8,1.6-5.6,2.5-8.4c0.8-2.8,1.8-5.5,2.7-8.3l1.3-4.2l1.2-4.2l0.1-0.2l0.2,0.1
					l1.2,0.6l0.2,0.1l0,0.2l-2,7.7l-2,7.6c-0.7,2.5-1.4,5.1-2.1,7.6c-0.7,2.5-1.5,5-2.3,7.6l0,0l0,0c-0.9,1.7-1.8,3.4-2.6,5.2
					l-0.3,0.8l0-0.8C33.8,160,33.7,159,33.6,158L33.6,158L33.6,158z M33.7,158c0.2,1,0.4,2,0.5,3l-0.4,0c0.6-1.9,1.4-3.6,2.3-5.4
					l0,0.1c0.7-2.5,1.3-5.1,2-7.6c0.7-2.5,1.4-5.1,2.1-7.6l2.2-7.6l2.3-7.5l0.1,0.3l-1.2-0.7l0.3-0.1l-1.3,4.2l-1.2,4.2
					c-0.8,2.8-1.5,5.6-2.3,8.4c-0.8,2.8-1.7,5.5-2.6,8.3C35.6,152.5,34.7,155.3,33.7,158z"/>
			</g>
		</g>
		<g>
			<path class="st16" d="M64.1,132.6l-0.3,13.2c-0.5,0.6-0.7,1-0.7,1c-0.2-0.2-0.4-0.3-0.6-0.5l0.4-14
				C63.4,132.4,63.8,132.5,64.1,132.6z"/>
			<g>
				<path d="M64.2,132.6c0.3,2.2,0.3,4.4,0.3,6.6c0,1.1-0.2,2.2-0.3,3.3c-0.1,1.1-0.2,2.2-0.1,3.3l0,0.1l0,0c-0.2,0.3-0.5,0.7-0.6,1
					l-0.1,0.3L63,147l-0.6-0.5l-0.1-0.1l0-0.1c-0.1-1.2-0.1-2.3-0.1-3.5c0-1.2,0-2.3,0-3.5c0.1-2.3,0.3-4.7,0.5-7l0-0.3l0.2,0.1
					C63.4,132.3,63.8,132.4,64.2,132.6L64.2,132.6L64.2,132.6z M64.1,132.6c-0.4,0-0.8-0.1-1.1-0.2l0.2-0.2c0.2,2.3,0.2,4.7,0.2,7
					c0,1.2-0.1,2.3-0.2,3.5c-0.1,1.2-0.2,2.3-0.3,3.5l-0.1-0.2l0.5,0.5l-0.4,0.1c0.2-0.4,0.5-0.7,0.8-1l0,0.1c0.1-1.1,0.1-2.2,0-3.3
					c-0.1-1.1-0.1-2.2-0.1-3.3C63.6,137,63.7,134.8,64.1,132.6z"/>
			</g>
		</g>
		<g>
			<path class="st12" d="M26.5,118.1c6.1-5.5,7.5-2.1,7.5-2.1c11.7,17.3,53.2,20.6,53.2,20.6s1.4-0.1,1.9,2.1
				C66.2,138.1,43,134.3,26.5,118.1z"/>
			<g>
				<path d="M26.5,118.1c1.1-1,2.2-1.9,3.5-2.6c0.7-0.3,1.4-0.6,2.1-0.6c0.8,0,1.6,0.4,1.9,1.1l0,0c2.8,4,6.8,6.9,11,9.3
					c4.3,2.3,8.8,4.1,13.4,5.6c4.6,1.5,9.4,2.7,14.1,3.6c4.8,0.9,9.6,1.6,14.5,2.1h0c0.6,0,1.1,0.3,1.4,0.8c0.3,0.4,0.5,0.9,0.6,1.4
					l0,0.2l-0.2,0c-11.2-0.2-22.6-1.2-33.4-4.3c-5.4-1.5-10.7-3.6-15.6-6.4C35,125.5,30.4,122.1,26.5,118.1L26.5,118.1L26.5,118.1z
					 M26.5,118.1c4.1,3.9,8.6,7.2,13.6,9.8c4.9,2.7,10.2,4.7,15.6,6.2c5.4,1.5,10.9,2.5,16.5,3.2c5.6,0.7,11.2,1.1,16.8,1.3
					l-0.1,0.2c-0.1-0.5-0.3-1-0.6-1.3c-0.1-0.2-0.3-0.4-0.5-0.5c-0.2-0.1-0.4-0.2-0.6-0.2h0h0c-4.9-0.5-9.7-1.3-14.5-2.1
					c-4.8-0.9-9.6-2-14.2-3.5c-4.7-1.5-9.3-3.2-13.5-5.6c-4.2-2.4-8.3-5.4-11.1-9.5l0,0l0,0c-0.3-0.6-1-1-1.7-1
					c-0.7,0-1.4,0.2-2.1,0.5C28.8,116.2,27.6,117.1,26.5,118.1z"/>
			</g>
		</g>
	</g>
	<g>
		<g>
			<path class="st2" d="M80.2,48.5c0.9,2.4,3,1.8,5.5,0.8c2.5-1,4.5-1.8,3.6-4.3c-0.9-2.4-4.3-5.2-6.8-4.2
				C80,41.8,79.3,46.1,80.2,48.5z"/>
			<path d="M80.3,48.5c0.2,0.6,0.6,1.1,1.2,1.3c0.6,0.2,1.2,0.1,1.7,0c1.1-0.4,2.3-0.9,3.5-1.3c0.6-0.2,1.2-0.4,1.7-0.7
				c0.5-0.3,1-0.7,1.1-1.3c0.1-0.6-0.1-1.2-0.3-1.7c-0.3-0.5-0.7-1-1.1-1.5c-0.9-0.9-1.9-1.6-3-1.9c-1.1-0.4-2.3-0.3-3,0.5
				c-0.8,0.7-1.3,1.8-1.7,3C80,46,79.8,47.3,80.3,48.5z M80.2,48.5c-0.4-1.2-0.6-2.5-0.5-3.8c0.1-1.3,0.5-2.7,1.6-3.7
				c0.5-0.5,1.3-0.8,2-0.9c0.7-0.1,1.4,0.1,2.1,0.3c1.3,0.5,2.3,1.4,3.1,2.5c0.4,0.5,0.7,1.1,1,1.7c0.2,0.6,0.5,1.2,0.3,1.9
				c-0.1,0.7-0.6,1.3-1.1,1.7c-0.5,0.4-1.1,0.7-1.7,1c-1.2,0.5-2.4,1-3.7,1.1c-0.7,0.1-1.4,0-2-0.4C80.7,49.7,80.4,49.1,80.2,48.5z"
				/>
		</g>
		<path class="st20" d="M80.2,48.5c-0.5-1.4-0.5-3.4,0.1-5c0.6,1.5,1.8,2.8,3.1,3.4c2.5,0.3,4.4-0.4,6.1-1.5c0.6,2.2-1.3,3-3.7,3.9
			C83.2,50.3,81.1,50.9,80.2,48.5z"/>
	</g>
	<g>
		<path class="st16" d="M117.1,46.2l4.9-14.3l-5.7-15.7c-0.5-1.4,0.2-2.9,1.6-3.3c1.4-0.5,2.9,0.2,3.3,1.6l3.5,9.7l5.7-16.7
			c0.7-2,2.9-3,4.8-2.4c2,0.7,3,2.9,2.4,4.8l-13.4,38.8c-0.7,2-2.9,3-4.8,2.4C117.5,50.3,116.4,48.1,117.1,46.2z"/>
		<g>
			<path d="M117.1,46.1l2.4-7.2l2.3-7.2l0,0.2c-1.1-2.7-2.1-5.5-3.1-8.2c-0.5-1.4-1-2.7-1.5-4.1l-0.7-2.1l-0.4-1l-0.1-0.3
				c0-0.1-0.1-0.2-0.1-0.3c-0.1-0.2-0.1-0.4-0.1-0.6c0-0.9,0.4-1.7,1-2.3c0.6-0.6,1.5-0.8,2.3-0.7c0.8,0.1,1.6,0.6,2.1,1.2
				c0.2,0.3,0.4,0.7,0.5,1.1l0.4,1c0.9,2.8,1.9,5.6,2.9,8.3l-0.3,0c1.2-3.2,2.2-6.5,3.3-9.8l1.6-4.9c0.3-0.8,0.5-1.6,0.8-2.5
				c0.4-0.8,1.1-1.6,1.9-2c1.7-0.9,4-0.4,5.1,1.1c0.6,0.7,0.9,1.7,0.9,2.7c0,0.5-0.1,1-0.2,1.4l-0.4,1.2l-3.3,9.8
				c-2.3,6.5-4.5,13-6.8,19.5l-1.8,4.8l-0.9,2.4c-0.2,0.4-0.3,0.8-0.5,1.2c-0.2,0.4-0.5,0.8-0.8,1.1c-1.3,1.3-3.4,1.5-4.9,0.6
				C117.2,49.8,116.5,47.8,117.1,46.1z M117.2,46.2c-0.6,1.6,0.2,3.6,1.6,4.4c0.7,0.4,1.6,0.6,2.4,0.5c0.8-0.1,1.6-0.5,2.1-1.1
				c0.3-0.3,0.5-0.7,0.7-1c0.2-0.4,0.3-0.8,0.4-1.2l0.8-2.5l1.6-4.9c2.1-6.6,4.4-13.1,6.6-19.6l3.4-9.7l0.4-1.2
				c0.1-0.4,0.2-0.7,0.2-1.1c0-0.8-0.2-1.5-0.7-2.1c-0.9-1.3-2.8-1.7-4.2-1c-0.7,0.3-1.3,0.9-1.7,1.6c-0.3,0.7-0.6,1.6-0.9,2.4
				l-1.8,4.9c-1.1,3.3-2.3,6.5-3.4,9.8l-0.2,0.5l-0.2-0.5c-1-2.8-2.1-5.5-3.1-8.2c-0.3-0.7-0.5-1.4-0.8-1.9c-0.4-0.5-1-0.9-1.6-0.9
				c-0.6-0.1-1.3,0.2-1.7,0.6c-0.5,0.4-0.7,1.1-0.7,1.7c0,0.5,0.4,1.3,0.6,2l0.8,2.1c0.5,1.4,1,2.8,1.5,4.1c1,2.8,1.9,5.5,2.9,8.3
				l0,0.1l0,0.1l-2.6,7.1L117.2,46.2z"/>
		</g>
	</g>
	<path class="st19" d="M121.3,14.5l3.5,9.5l5.7-16.7c0.4-1.3,1.5-2.2,2.7-2.5c-3.9,7-5.8,14.9-6.6,22.7
		C122.4,24.7,121.5,19.1,121.3,14.5z"/>
	<g>
		<defs>
			<path id="SVGID_1_" d="M117.1,46.2l4.9-14.3l-5.7-15.7c-0.5-1.4,0.2-2.9,1.6-3.3c1.4-0.5,2.9,0.2,3.3,1.6l3.5,9.7l5.7-16.7
				c0.7-2,2.9-3,4.8-2.4c2,0.7,3,2.9,2.4,4.8l-13.4,38.8c-0.7,2-2.9,3-4.8,2.4C117.5,50.3,116.4,48.1,117.1,46.2z"/>
		</defs>
		<clipPath id="SVGID_2_">
			<use xlink:href="#SVGID_1_"  style="overflow:visible;"/>
		</clipPath>
		<g class="st7">
			<g>
				<path d="M140.4,13.2c-2.2,0.8-4.6,0.7-6.9-0.1c-2.2-0.7-4.2-2.2-5.5-4.1c1.8,1.5,3.7,2.7,5.8,3.4c1,0.4,2.1,0.6,3.2,0.7
					C138.1,13.2,139.3,13.3,140.4,13.2z"/>
			</g>
			<g>
				<path d="M142.2,9c-2.2,0.8-4.6,0.7-6.9-0.1c-2.2-0.7-4.2-2.2-5.5-4.1c1.8,1.5,3.7,2.7,5.8,3.4c1,0.4,2.1,0.6,3.2,0.7
					C139.9,9.1,141.1,9.1,142.2,9z"/>
			</g>
			<g>
				<path d="M138.8,17.9c-2.2,0.8-4.6,0.7-6.9-0.1c-2.2-0.7-4.2-2.2-5.5-4.1c1.8,1.5,3.7,2.7,5.8,3.4c1,0.4,2.1,0.6,3.2,0.7
					C136.5,18,137.7,18,138.8,17.9z"/>
			</g>
			<g>
				<path d="M134.8,29.1c-1.8,0-3.6-0.3-5.3-0.8c-1.7-0.4-3.4-1-5.1-1.8c-1.6-0.8-3.2-1.6-4.6-2.7c-1.4-1.1-2.8-2.3-3.8-3.7
					c1.3,1.2,2.7,2.3,4.2,3.3c1.5,0.9,3,1.8,4.6,2.5c1.6,0.7,3.2,1.3,4.9,1.9C131.3,28.3,133,28.7,134.8,29.1z"/>
			</g>
			<g>
				<path d="M137.7,24.6c-2-0.1-4.1-0.5-6.1-0.9c-2-0.5-4-1.1-5.9-1.9c-1.9-0.8-3.7-1.7-5.5-2.9c-1.7-1.1-3.3-2.4-4.7-4
					c1.6,1.3,3.2,2.5,5,3.5c1.8,1,3.6,1.9,5.4,2.7c1.9,0.8,3.8,1.5,5.7,2.1C133.7,23.7,135.6,24.2,137.7,24.6z"/>
			</g>
			<g>
				<path d="M133.1,32.8c-2.2,0.8-4.6,0.7-6.9-0.1c-2.2-0.7-4.2-2.2-5.5-4.1c1.8,1.5,3.7,2.7,5.8,3.4c1,0.4,2.1,0.6,3.2,0.7
					C130.9,32.9,132,32.9,133.1,32.8z"/>
			</g>
			<g>
				<path d="M131.9,37.6c-2.2,0.8-4.6,0.7-6.9-0.1c-2.2-0.7-4.2-2.2-5.5-4.1c1.8,1.5,3.7,2.7,5.8,3.4c1,0.4,2.1,0.6,3.2,0.7
					C129.6,37.6,130.7,37.7,131.9,37.6z"/>
			</g>
			<g>
				<path d="M130.2,42.3c-2.2,0.8-4.6,0.7-6.9-0.1c-2.2-0.7-4.2-2.2-5.5-4.1c1.8,1.5,3.7,2.7,5.8,3.4c1,0.4,2.1,0.6,3.2,0.7
					C127.9,42.4,129,42.4,130.2,42.3z"/>
			</g>
		</g>
	</g>
	<g>
		<path class="st16" d="M77,47.4l-5.8-13.9L76,17.4c0.4-1.4-0.4-2.8-1.8-3.2c-1.4-0.4-2.8,0.4-3.2,1.8L68,25.8L61.3,9.5
			c-0.8-1.9-3-2.9-5-2.1c-1.9,0.8-2.9,3-2.1,5L70,50.3c0.8,1.9,3,2.9,5,2.1C76.9,51.6,77.8,49.3,77,47.4z"/>
		<g>
			<path d="M77,47.4l-3-6.9l-3-6.9l0-0.1l0-0.1c0.8-2.8,1.5-5.7,2.4-8.5c0.4-1.4,0.8-2.8,1.2-4.2l0.6-2.1c0.2-0.7,0.5-1.5,0.5-2
				c0-0.6-0.3-1.2-0.8-1.6c-0.5-0.4-1.1-0.6-1.8-0.5c-0.6,0.1-1.2,0.5-1.6,1c-0.3,0.5-0.5,1.3-0.7,2c-0.9,2.8-1.8,5.6-2.6,8.4
				l-0.1,0.5l-0.2-0.5c-1.3-3.2-2.6-6.4-4-9.5l-2-4.7c-0.3-0.8-0.7-1.6-1-2.3c-0.4-0.7-1-1.2-1.8-1.5c-1.5-0.6-3.3,0-4.1,1.3
				c-0.4,0.6-0.6,1.4-0.6,2.2c0,0.4,0.1,0.7,0.3,1.1l0.5,1.2l4,9.5c2.6,6.4,5.3,12.7,7.8,19.1l1.9,4.8l0.9,2.4
				c0.2,0.4,0.3,0.8,0.5,1.2c0.2,0.4,0.4,0.7,0.7,1c0.6,0.6,1.4,0.9,2.2,1c0.8,0.1,1.7-0.2,2.4-0.6C77,51,77.6,49,77,47.4z
				 M77.1,47.4c0.7,1.6,0.1,3.7-1.3,4.7c-1.4,1-3.6,1-4.9-0.3c-0.3-0.3-0.6-0.7-0.8-1.1c-0.2-0.4-0.4-0.8-0.5-1.2l-1-2.4l-2.1-4.7
				c-2.8-6.3-5.4-12.7-8-19l-3.9-9.6l-0.5-1.2c-0.2-0.4-0.3-0.9-0.3-1.4c-0.1-1,0.2-1.9,0.8-2.7c1.1-1.6,3.3-2.2,5-1.5
				c0.9,0.4,1.6,1,2,1.9c0.4,0.8,0.7,1.6,1,2.4l1.9,4.8c1.3,3.2,2.6,6.4,3.9,9.5l-0.3,0c0.8-2.8,1.6-5.6,2.4-8.5l0.3-1.1
				c0.1-0.3,0.2-0.8,0.4-1.1c0.4-0.7,1.2-1.2,2-1.4c0.8-0.2,1.7,0.1,2.4,0.6c0.7,0.5,1.1,1.3,1.1,2.2c0,0.2,0,0.4,0,0.7
				c0,0.1,0,0.2-0.1,0.3l-0.1,0.3L76,18.8l-0.6,2.1c-0.4,1.4-0.8,2.8-1.3,4.2c-0.8,2.8-1.7,5.6-2.6,8.4l0-0.2l2.7,7L77.1,47.4z"/>
		</g>
	</g>
	<g>
		<path class="st15" d="M115.9,136.7c0,0,51.5,59.1-2.4,17.6"/>
		<path d="M115.9,136.7c4,4.1,7.7,8.4,11.2,12.9c1.7,2.3,3.3,4.6,5,7c1.6,2.3,3.3,4.6,4.8,7.1c0.4,0.6,0.7,1.3,1,1.9
			c0.3,0.7,0.6,1.3,0.7,2.2c0,0.4,0,0.9-0.4,1.3c-0.4,0.4-0.9,0.4-1.3,0.4c-0.8,0-1.5-0.3-2.2-0.5c-2.7-1.1-5.1-2.6-7.5-4.2
			c-4.7-3.2-9.2-6.7-13.6-10.4l0.1-0.1c4.7,3.2,9.3,6.5,14.1,9.6c2.4,1.5,4.8,3.1,7.3,4.2c1.2,0.5,3,1,2.8-0.3
			c-0.1-1.3-0.8-2.6-1.4-3.8c-2.6-5-6.2-9.5-9.9-13.8C122.8,145.7,119.3,141.3,115.9,136.7L115.9,136.7z"/>
	</g>
	<path class="st0" d="M115.9,136.7c0,0,1.8,2,4.3,5c1.8,9.5,7.9,18.9,16.6,22.5c3.7,7.1,0.4,8.2-23.3-10L115.9,136.7z"/>
	<path class="st19" d="M67,28.2c-6.9-2.1-2.6-16.1-10.8-20.8c0,0,0,0,0,0c1.9-0.8,4.2,0.1,5,2.1L68,25.8l2.9-9.9
		c0.4-1.3,1.7-2,3-1.8C68.1,17.8,73.7,30.2,67,28.2z"/>
	<g>
		<defs>
			<path id="SVGID_3_" d="M77,47.4l-5.8-13.9L76,17.4c0.4-1.4-0.4-2.8-1.8-3.2c-1.4-0.4-2.8,0.4-3.2,1.8L68,25.8L61.3,9.5
				c-0.8-1.9-3-2.9-5-2.1c-1.9,0.8-2.9,3-2.1,5L70,50.3c0.8,1.9,3,2.9,5,2.1C76.9,51.6,77.8,49.3,77,47.4z"/>
		</defs>
		<clipPath id="SVGID_4_">
			<use xlink:href="#SVGID_3_"  style="overflow:visible;"/>
		</clipPath>
		<g class="st8">
			<g>
				<path d="M51.7,15.9c1.1,0,2.3-0.1,3.4-0.3c1.1-0.2,2.2-0.5,3.2-0.9c2.1-0.8,3.9-2.1,5.5-3.7c-1.2,2-3.1,3.5-5.3,4.4
					C56.4,16.3,54,16.5,51.7,15.9z"/>
			</g>
			<g>
				<path d="M49.7,11.9c1.1,0,2.3-0.1,3.4-0.3c1.1-0.2,2.2-0.5,3.2-0.9c2.1-0.8,3.9-2.1,5.5-3.7c-1.2,2-3.1,3.5-5.3,4.4
					C54.4,12.3,51.9,12.5,49.7,11.9z"/>
			</g>
			<g>
				<path d="M53.6,20.5c1.1,0,2.3-0.1,3.4-0.3c1.1-0.2,2.2-0.5,3.2-0.9c2.1-0.8,3.9-2.1,5.5-3.7c-1.2,2-3.1,3.5-5.3,4.4
					C58.3,20.9,55.8,21.2,53.6,20.5z"/>
			</g>
			<g>
				<path d="M58.3,31.4c1.7-0.5,3.4-1,5-1.6c1.6-0.6,3.2-1.4,4.8-2.2c1.6-0.8,3-1.8,4.5-2.8c1.4-1,2.7-2.2,4-3.5
					c-1,1.5-2.2,2.8-3.6,4c-1.4,1.2-2.9,2.2-4.5,3c-1.6,0.8-3.2,1.5-5,2.1C61.9,30.9,60.1,31.3,58.3,31.4z"/>
			</g>
			<g>
				<path d="M55.2,27.2c2-0.5,3.9-1.2,5.8-1.9c1.9-0.7,3.8-1.5,5.6-2.4c1.8-0.9,3.6-1.9,5.3-3c1.7-1.1,3.3-2.4,4.8-3.8
					c-1.3,1.6-2.8,3-4.4,4.3c-1.6,1.3-3.4,2.3-5.3,3.2c-1.9,0.9-3.8,1.7-5.7,2.3C59.2,26.5,57.2,27,55.2,27.2z"/>
			</g>
			<g>
				<path d="M60.2,35.1c1.1,0,2.3-0.1,3.4-0.3c1.1-0.2,2.2-0.5,3.2-0.9c2.1-0.8,3.9-2.1,5.5-3.7c-1.2,2-3.1,3.5-5.3,4.4
					C64.9,35.5,62.4,35.7,60.2,35.1z"/>
			</g>
			<g>
				<path d="M61.8,39.7c1.1,0,2.3-0.1,3.4-0.3c1.1-0.2,2.2-0.5,3.2-0.9c2.1-0.8,3.9-2.1,5.5-3.7c-1.2,2-3.1,3.5-5.3,4.4
					C66.4,40.1,64,40.4,61.8,39.7z"/>
			</g>
			<g>
				<path d="M63.8,44.4c1.1,0,2.3-0.1,3.4-0.3c1.1-0.2,2.2-0.5,3.2-0.9c2.1-0.8,3.9-2.1,5.5-3.7c-1.2,2-3.1,3.5-5.3,4.4
					C68.4,44.7,66,45,63.8,44.4z"/>
			</g>
		</g>
	</g>
	<g>
		<path class="st6" d="M59.1,114.7c0.8-6.1,1.2-5.7,1.1-8.6C60,87.5,77.5,78.2,99.4,77.5c21.9-0.7,37.6,3.2,40.1,24.9
			c0.4,3.4-1.2,7-1.1,10.2c0.1,3.1,1.6,5.2,1.7,7.9c0.3,8.7-9.3,14.2-41.1,15.2c-31.8,1-40.7-3.9-41-12.7
			C57.8,119.8,58.3,120.8,59.1,114.7z"/>
		<g>
			<path d="M59,114.7c0.1-1.2,0.3-2.5,0.5-3.7c0.2-1.2,0.5-2.4,0.6-3.7c0-1.2,0-2.5,0.1-3.7c0.1-1.2,0.3-2.5,0.5-3.7
				c1-4.9,3.7-9.4,7.5-12.7c3.7-3.4,8.3-5.6,13-7.2c4.7-1.6,9.7-2.4,14.7-2.7c5-0.3,9.9-0.3,14.9,0.1c4.9,0.4,9.9,1.3,14.5,3.3
				c2.3,1,4.4,2.3,6.3,4c1.9,1.6,3.4,3.6,4.6,5.8c1.2,2.2,2.1,4.5,2.7,7c0.3,1.2,0.5,2.4,0.7,3.7c0.1,0.6,0.2,1.2,0.2,1.9
				c0,0.6,0,1.3,0,1.9c-0.2,2.5-1,4.9-1,7.3c0,1.2,0.2,2.4,0.6,3.6c0.3,1.2,0.8,2.3,1,3.6c0.4,2.5-0.2,5.3-1.8,7.3
				c-1.6,2.1-3.9,3.4-6.1,4.4c-4.6,2-9.6,2.9-14.5,3.6c-4.9,0.7-9.9,1-14.8,1.3c-5,0.2-9.9,0.3-14.9,0.2c-5-0.1-9.9-0.4-14.8-1.3
				c-2.4-0.4-4.9-1-7.2-1.9c-2.3-0.9-4.6-2.1-6.2-4.1c-0.8-1-1.4-2.1-1.7-3.3c-0.3-1.2-0.4-2.5-0.4-3.7c0-1.3,0.4-2.5,0.6-3.7
				C58.7,117.1,58.9,115.9,59,114.7z M59.1,114.7c-0.1,1.2-0.3,2.5-0.5,3.7c-0.2,1.2-0.6,2.4-0.6,3.6c0,1.2,0.1,2.5,0.4,3.6
				c0.3,1.2,0.9,2.3,1.7,3.2c1.6,1.8,3.9,3,6.2,3.8c2.3,0.8,4.7,1.3,7.2,1.7c4.9,0.7,9.8,0.9,14.7,1c4.9,0,9.9-0.1,14.8-0.3
				c4.9-0.2,9.9-0.6,14.7-1.3c4.9-0.7,9.8-1.6,14.2-3.5c2.2-1,4.3-2.3,5.8-4.1c1.5-1.8,2-4.3,1.7-6.7c-0.2-1.2-0.6-2.3-0.9-3.5
				c-0.3-1.2-0.6-2.5-0.6-3.8c0.1-2.6,0.9-4.9,1.2-7.4c0.1-0.6,0.1-1.2,0.1-1.8c0-0.6-0.1-1.2-0.2-1.8c-0.2-1.2-0.4-2.4-0.7-3.6
				c-0.6-2.4-1.4-4.7-2.6-6.9c-1.2-2.2-2.7-4.1-4.5-5.8c-1.8-1.6-4-2.9-6.2-3.9c-4.5-2-9.5-2.7-14.4-3c-4.9-0.3-9.9-0.2-14.8,0.2
				c-4.9,0.4-9.8,1.3-14.5,2.7c-4.7,1.5-9.1,3.7-12.9,6.9c-3.7,3.2-6.5,7.5-7.6,12.3c-0.6,2.4-0.7,4.9-0.7,7.3
				c-0.1,1.3-0.4,2.5-0.6,3.7C59.4,112.3,59.3,113.5,59.1,114.7z"/>
		</g>
	</g>
	<g>
		<g>
			<path class="st15" d="M28.6,44.8c0,0-11.3,5.4,4.3,10.2c0,0-8.3,4.6,4.4,7.8c4.8,1.2,8.7,1.2,11.7,0.7c-8.3,11.8-8.5,25-6.1,37.8
				c4,20.8,11.1,32.1,31.5,35.9c-3.9,5.3-8.4,22.7-13.8,42.4c-6.6,23.7,13.6,27.6,37.6,26.6c17.4-0.7,22.3-11.1,23.9-24.6
				c2.6-21.9-5.2-44.3-5.2-44.3c0,0,0,0,0,0c25.6-3.9,33.3-15.6,36.7-39.1c1.8-12.2,0.8-25.6-7.8-36.8c2.7,0.1,6.1-0.3,10-1.5
				c12.5-4,3.9-8,3.9-8c15.3-5.8,3.6-10.5,3.6-10.5c10.2-4.3,5.7-12.3,5.7-12.3s-8,2.5-20,12.5c-9.1,7.6-17,7-20.4,6.3
				c-4.3-2.3-14.6-7-31.3-6.4C78.8,42,68.8,46.7,65,49l0.3-0.3c0,0-9.8,4.8-22.3-4.5c-12.6-9.2-20.7-11.3-20.7-11.3
				S18.1,41.2,28.6,44.8z M58.7,122.2c-0.1-3.2,0.4-2.2,1.1-8.3c0.8-6.1,1.1-5.7,1.1-8.5c-0.1-10.8,5.8-18.5,15-23.1
				c3,1.8,7.6,2.8,12.8,2.6c4.5-0.1,8.5-1.2,11.3-2.7c2.9,1.3,7,2.1,11.5,2c5.8-0.2,10.8-1.8,13.6-4.2c8.1,3.4,13.4,9.9,14.7,21.7
				c0.4,3.4-1.2,7-1.1,10.1c0.1,3.1,1.6,5.2,1.6,7.8c0.3,8.7-9.3,14.1-40.9,15.1C67.8,135.8,59,130.9,58.7,122.2z"/>
		</g>
		<g>
			<path d="M28.7,44.8c-1.2,0.6-2.4,1.5-3.3,2.6c-0.4,0.6-0.7,1.2-0.7,1.9c0,0.7,0.4,1.3,0.8,1.8c0.9,1,2.2,1.7,3.5,2.3
				c1.3,0.6,2.6,1,3.9,1.5l0.2,0.1L33,55.1c-0.9,0.5-1.7,1.2-2.3,2.1c-0.3,0.4-0.4,0.9-0.3,1.4c0.1,0.5,0.3,0.9,0.7,1.3
				c0.7,0.7,1.7,1.2,2.6,1.6c1,0.4,2,0.7,3,1c4,1.1,8.3,1.5,12.4,0.8l0.5-0.1l-0.3,0.4c-2.2,3.1-3.9,6.5-5.1,10.1
				c-1.2,3.6-1.9,7.3-2.1,11.1c-0.5,7.6,0.8,15.1,2.6,22.5c0.9,3.7,2.1,7.3,3.7,10.7c1.6,3.4,3.6,6.6,6.3,9.3
				c2.6,2.7,5.8,4.8,9.2,6.3c3.4,1.5,7.1,2.6,10.8,3.3l0.6,0.1l-0.3,0.5c-1.1,1.5-1.9,3.3-2.6,5c-0.7,1.8-1.4,3.6-2,5.4
				c-1.2,3.6-2.3,7.3-3.4,11c-2.1,7.4-4.1,14.8-6.1,22.3c-0.9,3.7-1.2,7.6-0.3,11.2c0.5,1.8,1.3,3.5,2.4,5c1.1,1.5,2.6,2.7,4.2,3.7
				c3.2,2,6.9,3.1,10.7,3.8c3.8,0.7,7.6,1,11.4,1.1c3.8,0.1,7.7,0,11.5-0.3c3.8-0.4,7.6-1.3,10.8-3.3c3.2-2,5.7-5,7.3-8.5
				c1.6-3.5,2.4-7.2,2.9-11c1-7.6,0.8-15.3-0.1-23c-0.9-7.6-2.5-15.2-4.9-22.5l0,0l0,0c0,0.1,0,0.2,0.1,0.2l-0.6-0.3l0.7-0.1
				c4-0.6,8-1.4,11.9-2.7c3.8-1.3,7.5-3.1,10.7-5.6c3.2-2.5,5.8-5.6,7.8-9.2c2-3.6,3.3-7.4,4.3-11.4c1.9-7.9,3.1-16,2.5-24.2
				c-0.3-4-1.1-8.1-2.5-11.9c-1.4-3.8-3.4-7.4-5.8-10.6l-0.3-0.3l0.4,0c3.9,0.1,7.8-0.7,11.4-2c0.9-0.3,1.8-0.7,2.6-1.2
				c0.8-0.5,1.6-1,2.2-1.8c0.3-0.4,0.4-0.8,0.3-1.2c0-0.4-0.2-0.8-0.5-1.2c-0.6-0.7-1.4-1.3-2.2-1.7l-0.5-0.2l0.5-0.2
				c1.3-0.5,2.6-1.1,3.8-1.7c1.2-0.7,2.4-1.4,3.2-2.5c0.4-0.5,0.7-1.1,0.6-1.8c0-0.6-0.3-1.2-0.8-1.7c-0.9-1-2.1-1.7-3.3-2.3
				l-0.7-0.3l0.7-0.3c1.2-0.5,2.3-1.1,3.3-1.9c1-0.8,1.8-1.7,2.4-2.8c0.6-1.1,0.8-2.3,0.7-3.5c-0.1-1.2-0.4-2.5-1-3.5l0.5,0.2
				c-3.5,1.3-6.8,3.2-10,5.2c-3.2,2-6.2,4.3-9.2,6.7c-2.9,2.5-6.2,4.7-9.9,6c-3.7,1.3-7.7,1.8-11.5,1l-0.1,0l-0.1,0
				c-4.8-2.6-10-4.2-15.3-5.2c-5.3-1-10.8-1.3-16.3-1.2c-5.5,0.2-10.9,0.7-16.2,1.9c-5.3,1.1-10.6,2.8-15.3,5.5l-1.4,0.8l1-1.3
				l0.3-0.3l0.4,0.5c-3.8,1.5-8,1.5-11.9,0.6c-3.9-0.9-7.5-2.8-10.7-5.2c-3.2-2.4-6.5-4.5-9.9-6.5c-3.4-1.9-7-3.7-10.8-4.9l0.2-0.1
				c-0.5,1.1-0.8,2.4-0.8,3.7c0,1.3,0.3,2.5,1,3.6c0.6,1.1,1.6,2,2.6,2.7C26.3,43.8,27.4,44.3,28.7,44.8l0.1-0.1L28.7,44.8z
				 M28.5,44.8c-1.2-0.4-2.3-0.9-3.4-1.6c-1.1-0.7-2.1-1.6-2.7-2.8c-0.7-1.1-1-2.4-1.1-3.7c0-1.3,0.2-2.6,0.8-3.8l0-0.1l0.1,0
				c3.8,1.1,7.4,2.9,10.9,4.8c3.5,1.9,6.8,4.1,10,6.4c3.2,2.3,6.7,4.1,10.5,5c1.9,0.4,3.9,0.6,5.8,0.5c1.9-0.1,3.9-0.4,5.6-1.2
				l1.1-0.5l-0.7,1l-0.2,0.3l-0.4-0.5c4.8-2.8,10.1-4.5,15.5-5.7c5.4-1.2,10.9-1.8,16.4-2c5.5-0.2,11,0.1,16.5,1.1
				c5.4,1,10.7,2.7,15.6,5.3l-0.1,0c3.6,0.8,7.5,0.3,11-0.9c3.5-1.3,6.7-3.3,9.6-5.8c3-2.4,6-4.7,9.3-6.8c3.3-2,6.6-3.9,10.3-5.3
				l0.4-0.1l0.2,0.3c0.6,1.2,1,2.5,1.1,3.9c0.1,1.4-0.2,2.7-0.9,4c-0.6,1.2-1.6,2.2-2.7,3c-1.1,0.8-2.3,1.4-3.5,1.9l0-0.6
				c1.3,0.6,2.6,1.4,3.5,2.5c0.5,0.6,0.8,1.3,0.9,2.1c0,0.8-0.3,1.5-0.8,2.1c-0.9,1.2-2.2,1.9-3.4,2.6c-1.3,0.7-2.6,1.2-3.9,1.7
				l0-0.4c0.9,0.5,1.7,1,2.4,1.8c0.3,0.4,0.6,0.9,0.6,1.4c0.1,0.5-0.1,1.1-0.4,1.5c-0.6,0.9-1.5,1.4-2.3,1.9
				c-0.9,0.5-1.8,0.9-2.7,1.2c-3.7,1.3-7.6,2.2-11.6,2l0.2-0.3c2.5,3.2,4.5,6.9,5.9,10.7c1.4,3.9,2.2,7.9,2.5,12
				c0.6,8.2-0.6,16.3-2.5,24.3c-1,4-2.3,7.9-4.3,11.5c-2,3.6-4.6,6.8-7.9,9.3c-3.2,2.5-7,4.3-10.8,5.7c-3.9,1.3-7.9,2.2-11.9,2.8
				l0.1-0.4c0.1,0,0.1,0.1,0.1,0.2l0-0.1c2.4,7.4,4,14.9,5,22.6c0.9,7.7,1.2,15.4,0.2,23.1c-0.5,3.8-1.3,7.7-3,11.2
				c-1.6,3.6-4.2,6.7-7.5,8.8c-3.3,2.1-7.2,3.1-11.1,3.5c-3.9,0.3-7.7,0.4-11.6,0.3c-3.9-0.1-7.7-0.4-11.6-1
				c-3.8-0.7-7.6-1.8-11-3.8c-1.7-1-3.2-2.3-4.4-3.9c-1.2-1.6-2.1-3.4-2.6-5.3c-1-3.9-0.6-7.9,0.3-11.7c2-7.5,4.1-14.9,6.2-22.3
				c1.1-3.7,2.2-7.4,3.4-11.1c0.6-1.8,1.3-3.6,2-5.4c0.8-1.8,1.5-3.6,2.7-5.2l0.2,0.6c-3.7-0.7-7.5-1.8-11-3.3
				c-3.5-1.6-6.7-3.7-9.4-6.5c-2.7-2.8-4.8-6-6.4-9.5c-1.6-3.5-2.7-7.1-3.7-10.8c-1.8-7.4-3.1-15-2.5-22.6c0.3-3.8,1-7.6,2.2-11.2
				c1.2-3.6,3-7,5.2-10.2l0.2,0.3c-4.2,0.7-8.5,0.2-12.5-0.9c-1-0.3-2-0.6-3-1c-1-0.4-1.9-0.9-2.7-1.7c-0.4-0.4-0.7-0.9-0.8-1.4
				c-0.1-0.6,0.1-1.1,0.4-1.6c0.6-0.9,1.4-1.6,2.4-2.1l0,0.2c-1.3-0.4-2.7-0.9-4-1.5c-1.3-0.6-2.5-1.3-3.5-2.4
				c-0.5-0.5-0.8-1.2-0.8-1.9c0-0.7,0.3-1.4,0.7-2C26.1,46.2,27.3,45.4,28.5,44.8z"/>
			<path d="M58.6,122.2c0-1,0-1.9,0.2-2.9c0.2-0.9,0.4-1.9,0.6-2.8c0.3-1.9,0.5-3.8,0.8-5.7l0.5-2.8c0.2-0.9,0.2-1.9,0.1-2.9
				c0-1.9,0.2-3.9,0.6-5.8c0.8-3.8,2.6-7.4,5.2-10.4c2.6-3,5.8-5.3,9.3-7l0.2-0.1l0.2,0.1c1.7,1,3.7,1.6,5.7,2.1
				c2,0.4,4.1,0.6,6.1,0.6c2.1,0,4.1-0.2,6.1-0.6c2-0.4,4-1,5.8-2l0.1-0.1l0.1,0.1c1.9,0.9,4.1,1.4,6.2,1.8c2.1,0.3,4.3,0.4,6.5,0.2
				c2.2-0.1,4.3-0.5,6.4-1.1c2.1-0.6,4.1-1.5,5.7-2.9l0.1-0.1l0.1,0c2.7,1.1,5.3,2.7,7.4,4.7c2.1,2,3.8,4.5,5,7.2
				c1.2,2.7,1.9,5.6,2.4,8.4c0.1,0.7,0.2,1.4,0.3,2.2c0,0.8,0,1.5-0.1,2.2c-0.2,1.5-0.5,2.9-0.7,4.3c-0.3,1.4-0.3,2.8-0.1,4.2
				c0.2,1.4,0.8,2.7,1.2,4.2c0.8,2.9,0.3,6.3-1.7,8.7c-2,2.4-4.7,3.8-7.5,4.8c-2.8,1-5.6,1.7-8.5,2.3c-5.8,1.1-11.6,1.5-17.4,1.9
				c-5.8,0.3-11.7,0.4-17.5,0.2c-5.8-0.2-11.7-0.7-17.4-2c-2.8-0.7-5.6-1.7-8-3.5c-1.2-0.9-2.2-2-2.8-3.3
				C59,125.1,58.7,123.7,58.6,122.2z M58.7,122.2c0.1,1.4,0.4,2.9,1,4.2c0.7,1.3,1.7,2.4,2.8,3.2c2.3,1.7,5.2,2.6,8,3.3
				c5.7,1.2,11.5,1.5,17.3,1.6c5.8,0.1,11.6-0.1,17.4-0.4c5.8-0.3,11.6-0.8,17.3-1.9c2.8-0.5,5.7-1.2,8.3-2.2c2.7-1,5.3-2.3,7.1-4.5
				c1.8-2.1,2.3-5.2,1.6-7.8c-0.4-1.4-0.9-2.8-1.1-4.3c-0.3-1.5-0.2-3,0.1-4.5c0.3-1.4,0.6-2.9,0.8-4.3c0.1-0.7,0.1-1.4,0.1-2.1
				c0-0.7-0.1-1.4-0.2-2.1c-0.4-2.9-1.1-5.7-2.2-8.3c-1.1-2.7-2.7-5.1-4.8-7.1c-2.1-2-4.6-3.6-7.2-4.7l0.2,0c-1.7,1.4-3.8,2.3-5.8,3
				c-2.1,0.7-4.3,1-6.5,1.2c-2.2,0.2-4.4,0.1-6.6-0.1c-2.2-0.3-4.3-0.8-6.4-1.7l0.3,0c-1.9,1-3.9,1.7-5.9,2.1
				c-2,0.4-4.2,0.7-6.3,0.7c-2.1,0-4.2-0.1-6.3-0.6c-2.1-0.4-4.1-1-6-2.1l0.4,0c-3.4,1.7-6.6,3.9-9.1,6.7c-2.6,2.8-4.4,6.3-5.3,10
				c-0.4,1.9-0.7,3.8-0.7,5.7c0,1,0,1.9-0.2,2.9c-0.2,1-0.4,1.9-0.5,2.8c-0.3,1.9-0.5,3.8-0.8,5.7c-0.2,1-0.4,1.9-0.6,2.8
				C58.7,120.3,58.7,121.2,58.7,122.2z"/>
		</g>
	</g>
	<g>
		<path class="st16" d="M99.5,134.8c2.8-0.1,5.4-0.2,7.8-0.4c2.7,23.4,4.2,47,0.1,70.3c-2.9,0.2-6,1.3-9.2,1.4
			c-10.9,0.5-20.9-0.8-29.7-3.8c16.9-18.8,25.5-42.3,27.8-67.5C97.3,134.8,98.4,134.8,99.5,134.8z"/>
		<g>
			<path d="M99.5,134.7c2.6-0.1,5.2-0.2,7.8-0.4l0.1,0l0,0.1c0.7,5.8,1.4,11.7,2,17.5c0.3,2.9,0.5,5.9,0.7,8.8
				c0.2,2.9,0.3,5.9,0.3,8.8c0.1,5.9-0.1,11.8-0.6,17.7c-0.5,5.9-1.2,11.7-2.3,17.5l0,0.1l-0.1,0c-3.2,0.3-6.4,1.4-9.8,1.5
				c-3.3,0.2-6.6,0.2-9.9,0c-6.6-0.4-13.1-1.5-19.4-3.6l-0.7-0.2l0.5-0.5c4.1-4.6,7.8-9.6,11-14.8c3.2-5.2,6-10.8,8.3-16.5
				c2.3-5.7,4.2-11.6,5.7-17.6c1.5-6,2.5-12.1,3.1-18.3l0-0.1l0.1,0L99.5,134.7z M99.5,134.8l-3.2,0.1l0.1-0.1
				c-0.6,6.2-1.4,12.3-2.7,18.4c-1.3,6.1-3,12.1-5.3,17.8c-2.3,5.8-5.1,11.4-8.3,16.7c-3.3,5.3-7,10.3-11.2,14.9l-0.2-0.7
				c6.2,2.1,12.7,3.4,19.2,3.9c3.3,0.2,6.6,0.3,9.8,0.2c3.3-0.1,6.4-1.1,9.7-1.4l-0.1,0.1c1-5.8,1.7-11.6,2-17.5
				c0.3-5.9,0.4-11.7,0.3-17.6c-0.1-2.9-0.2-5.9-0.3-8.8c-0.1-2.9-0.3-5.9-0.5-8.8c-0.4-5.9-0.9-11.7-1.5-17.6l0.1,0.1
				C104.7,134.7,102.1,134.8,99.5,134.8z"/>
		</g>
	</g>
	<path class="st0" d="M82.2,137c4.8,0.3,10.6,0.4,17.3,0.2c3.6-0.1,7-0.3,10-0.5C101.6,142.8,89.9,143.2,82.2,137z"/>
	<g>
		<path class="st1" d="M65.7,63.3c0.1,2.5,2.1,4.4,4.6,4.3c2.5-0.1,4.4-2.1,4.3-4.6c-0.1-2.5-2.1-4.4-4.6-4.3
			C67.6,58.8,65.6,60.9,65.7,63.3z"/>
		<path d="M66.8,63.3c0.1,2.5,2.1,4.4,4.6,4.3c2.5-0.1,4.4-2.1,4.3-4.6c-0.1-2.5-2.1-4.4-4.6-4.3C68.7,58.8,66.8,60.8,66.8,63.3z"/>
		<path class="st17" d="M72.7,62.4c0,0.4,0.4,0.7,0.8,0.7c0.4,0,0.7-0.4,0.7-0.8c0-0.4-0.4-0.7-0.8-0.7
			C73.1,61.6,72.7,61.9,72.7,62.4z"/>
	</g>
	<g>
		<path class="st1" d="M119.2,62.4c0.1,2.5,2.1,4.4,4.6,4.3c2.5-0.1,4.4-2.1,4.3-4.6c-0.1-2.5-2.1-4.4-4.6-4.3
			C121.1,57.9,119.2,60,119.2,62.4z"/>
		<path d="M120.4,62.4c0.1,2.5,2.1,4.4,4.6,4.3c2.5-0.1,4.4-2.1,4.3-4.6c-0.1-2.5-2.1-4.4-4.6-4.3C122.2,57.9,120.3,59.9,120.4,62.4
			z"/>
		<path class="st17" d="M126.3,61.5c0,0.4,0.4,0.7,0.8,0.7c0.4,0,0.7-0.4,0.7-0.8c0-0.4-0.4-0.7-0.8-0.7
			C126.6,60.7,126.3,61.1,126.3,61.5z"/>
	</g>
	<path class="st14" d="M59.3,70.8c0,1.4,3.3,2.5,7.4,2.6c4.1,0.1,7.4-1,7.5-2.4c0-1.4-3.3-2.5-7.4-2.6
		C62.6,68.4,59.3,69.5,59.3,70.8z"/>
	<path class="st0" d="M24.7,49c7.7,5.1,17.8,9.6,25.8,6.4c2.1-1.7,4-3.6,5.8-5.7c0.2,0,0.4,0.1,0.6,0.1c-0.1,0.3-0.3,0.7-0.4,1
		c0.3-0.3,0.5-0.7,0.8-1c5,0.3,8.1-1.2,8.1-1.2l-9,11.9c0,0-1.6,1.4-4.9,2.4c-5.2,11.6-10.3,23.2-8.3,36.7
		c2.2,13.4,10.5,22.5,17.6,32.8c-10.2-5.9-14.8-16-17.7-31.1c-2.4-12.8-2.2-26,6.1-37.8c-0.2,0-0.3,0-0.5,0.1
		c-0.3,0-0.5,0.1-0.8,0.1c-0.2,0-0.4,0-0.6,0.1c-0.4,0-0.7,0.1-1.1,0.1c-0.3,0-0.5,0-0.8,0c-0.3,0-0.7,0-1,0c-0.2,0-0.5,0-0.8,0
		c-0.4,0-0.7-0.1-1.1-0.1c-0.4,0-0.7-0.1-1.1-0.1c-0.4,0-0.8-0.1-1.2-0.2c-0.3,0-0.6-0.1-0.9-0.2c-0.1,0-0.2,0-0.4-0.1c0,0,0,0,0,0
		c-0.5-0.1-1-0.2-1.5-0.3c-12.7-3.2-4.4-7.8-4.4-7.8C26.2,53,24.5,50.8,24.7,49z"/>
	<path class="st0" d="M130.6,130.6c6.1-2.2,8.9-5.1,9.6-8.7c5.8-5.5,11.1-11.9,12-20.9c1.2-14.4-4.7-27.5-11-40.3
		c-3-0.8-4.6-2-4.6-2l-9.7-11.3c0,0,1.9,0.8,5,0.9c1.3,0.6,2.6,1.1,3.9,1.5c-0.3-0.6-0.5-1.1-0.8-1.7c0.2,0,0.3-0.1,0.5-0.1
		c0.1,0.6,0.3,1.3,0.5,1.9c10.1,2.9,20.6-1.7,30-6.8c2.1,1.9,3.1,5.1-6.5,8.7c0,0,8.6,4.1-3.9,8c-3.9,1.3-7.3,1.6-10,1.5
		c0,0,0,0,0.1,0c8.6,11.1,9.6,24.6,7.8,36.7c-2.9,20.3-9.1,31.8-27.1,37C127.6,133.6,129,132.1,130.6,130.6z"/>
	<path class="st17" d="M59.3,69.1c0,0.4,1.1,0.8,2.4,0.8c1.3,0,2.4-0.3,2.4-0.8c0-0.4-1.1-0.8-2.4-0.8
		C60.3,68.4,59.3,68.7,59.3,69.1z"/>
	<g class="st1">
		<path class="st10" d="M59.1,114.7c0.8-6.1,1.2-5.7,1.1-8.6c0-4.3,0.9-8.1,2.6-11.4c-1-4.2-3.6-22.7,29.9-26
			c37.9-3.7,45.5,2.4,47.2,20.4l-1.4,7.8c0.4,1.7,0.8,3.5,1,5.5c0.4,3.4-1.2,7-1.1,10.2c0.1,3.1,1.6,5.2,1.7,7.9
			c0.2,5.3-3.3,9.4-13.3,12.1c2.6-1.7,4.9-3.8,6.4-6.4c3.5-7.5,5.6-17,4.8-26.2l-0.1,0.3l-2.9-3.9l-1.9,1.8l-0.6-4.4l-2.9,2.8l-2-7
			l-2.3,5l-0.6-4.4l-4.4,3.7l-0.1-4.6l-1.8,2.4l-4.3-2.2c0,0-0.3,2.8-14,3.9c-11.8,1-11,6.3-7.2,8.9c-3.2-1.8-8.6-5.7-1.8-9.8
			c0,0-10.8,5.7,1.5,14.6c0,0-13.2-1.8-13.8-8.9c0,0-1.8,5.8,0.5,8.2c-4.6-2.7-14.4-10,1.9-17.3c0,0-11.3,1-11.5,7.2l-3-2.2l0.1,4.5
			L64,96.3c-2.6,15.3,0.4,30.7,12.9,38.8c-14.2-1.6-18.8-5.9-19-12.1C57.8,119.8,58.3,120.8,59.1,114.7z"/>
		<path class="st10" d="M79.3,106.4c1.2,0.7,2,1,2,1C80.4,107.3,79.8,106.9,79.3,106.4z"/>
		<path class="st10" d="M92.8,102.3c1.1,0.6,2,1,2,1C94.1,103,93.5,102.7,92.8,102.3z"/>
	</g>
	<g>
		<path class="st4" d="M113.9,87.1c0,0-0.3,2.8-14,3.9c-13.7,1.2-10.4,8.1-5.1,9.9c0,0-13-5.2-3.8-10.7c0,0-10.8,5.7,1.5,14.6
			c0,0-13.2-1.8-13.8-8.9c0,0-2.7,8.4,2.5,9.3c0,0-20.6-9.2-0.1-18.4c0,0-11.3,1-11.5,7.2l-3-2.2l0.1,4.5l-3.8-2.9
			c0,0-8.2-23.1,29.7-26.8c37.9-3.7,45.5,2.4,47.2,20.4l-2,11.1l-2.9-3.9l-1.9,1.8l-0.6-4.4l-2.9,2.8l-2-7l-2.3,5l-0.6-4.4l-4.4,3.7
			l-0.1-4.6l-1.8,2.4L113.9,87.1z"/>
		<path d="M113.9,87.1c-0.3,0.7-0.9,1-1.5,1.4c-0.6,0.3-1.3,0.6-2,0.8c-1.3,0.4-2.7,0.8-4.1,1c-1.4,0.3-2.8,0.5-4.2,0.6
			c-1.4,0.2-2.8,0.3-4.2,0.5c-1.4,0.2-2.7,0.5-4,1c-1.3,0.5-2.5,1.2-3.1,2.4c-0.6,1.2-0.2,2.6,0.7,3.5c0.9,1,2.1,1.7,3.4,2.1
			l-0.2,0.7c-1.2-0.5-2.4-1.1-3.5-1.8c-1.1-0.7-2.2-1.6-3-2.7c-0.4-0.6-0.7-1.2-0.8-2c-0.1-0.7,0.1-1.5,0.4-2.1
			c0.7-1.3,1.9-2.1,3-2.8l0.4,0.7c-1.3,0.7-2.4,1.8-3.2,3c-0.8,1.2-1.1,2.7-0.8,4.1c0.3,1.4,1.2,2.7,2.2,3.8c1,1.1,2.2,2.1,3.4,3
			l1.5,1.1l-1.8-0.3c-1.5-0.2-2.9-0.6-4.3-1c-1.4-0.4-2.8-0.9-4.2-1.6c-1.3-0.7-2.6-1.5-3.7-2.6c-1.1-1.1-1.8-2.6-1.9-4.1l0.7,0.1
			c-0.5,1.7-0.8,3.5-0.7,5.2c0.1,0.9,0.3,1.7,0.8,2.4c0.5,0.7,1.2,1.1,2.1,1.2l-0.2,0.6c-2.1-1-4-2.2-5.8-3.7
			c-0.9-0.8-1.7-1.6-2.3-2.6c-0.6-1-1.1-2.1-1.2-3.3c-0.1-1.2,0.3-2.4,0.9-3.3c0.6-1,1.5-1.8,2.3-2.5c1.8-1.4,3.8-2.5,5.9-3.4
			l0.1,0.3c-2.4,0.3-4.8,0.8-7,1.8c-1.1,0.5-2.1,1.2-2.9,2c-0.8,0.9-1.3,2-1.3,3.2l0,0.4L69.5,94l-3-2.2l0.3-0.2l0.2,4.5l0,0.5
			l-0.4-0.3l-3.9-2.9l-0.1,0l0-0.1c-1.3-4.3-1-9.1,1-13.1c2-4.1,5.6-7.1,9.6-9.2c4-2.1,8.3-3.3,12.7-4.1c4.4-0.8,8.8-1.2,13.2-1.5
			c4.4-0.3,8.8-0.6,13.3-0.5c4.4,0.1,8.9,0.4,13.3,1.5c2.2,0.6,4.3,1.4,6.2,2.6c1.9,1.2,3.6,2.9,4.8,4.8c1.2,1.9,2,4.1,2.5,6.3
			c0.5,2.2,0.8,4.4,1,6.6l0,0.1l0,0.1L138.2,98l-0.2,1l-0.6-0.8l-2.9-3.9l0.6,0l-1.9,1.8l-0.5,0.5l-0.1-0.7l-0.6-4.4l0.6,0.2
			l-2.9,2.8l-0.4,0.4l-0.2-0.5l-2-7l0.5,0l-2.3,4.9L125,93l-0.1-0.9l-0.6-4.4l0.4,0.1l-4.4,3.6l-0.3,0.2l0-0.4l-0.1-4.6l0.2,0.1
			l-1.8,2.4l-0.1,0.1l-0.1,0L113.9,87.1z M113.9,87l4.4,2.2l-0.1,0l1.7-2.4l0.2-0.3l0,0.4l0.2,4.6l-0.3-0.1l4.3-3.7l0.3-0.3l0.1,0.4
			l0.6,4.3l-0.5-0.1l2.3-5l0.3-0.7l0.2,0.7l2.1,7l-0.6-0.1l2.8-2.8l0.5-0.5l0.1,0.7l0.7,4.4l-0.6-0.2l1.9-1.8l0.3-0.3l0.3,0.4l3,3.9
			l-0.8,0.2l2-11.1l0,0.1c-0.4-4.3-1.2-8.8-3.5-12.4c-1.1-1.8-2.7-3.3-4.5-4.5c-1.8-1.2-3.8-1.9-5.9-2.5c-4.2-1.1-8.6-1.4-13-1.5
			c-4.4-0.1-8.8,0.1-13.2,0.4c-4.4,0.3-8.8,0.7-13.1,1.4c-4.3,0.8-8.6,2-12.5,3.9c-3.9,2-7.4,4.9-9.4,8.8c-2,3.9-2.3,8.5-1.1,12.7
			L63.1,93l3.8,2.9l-0.4,0.2l-0.1-4.5l0-0.4l0.3,0.3l3,2.3l-0.3,0.1c0-1.3,0.6-2.5,1.5-3.4c0.9-0.9,1.9-1.6,3.1-2.1
			c1.1-0.5,2.3-0.9,3.5-1.2c1.2-0.3,2.4-0.5,3.6-0.7l1-0.1l-0.9,0.4c-2,0.9-4.1,2-5.8,3.4c-0.9,0.7-1.7,1.5-2.2,2.4
			c-0.6,0.9-0.9,2-0.9,3.1c0.1,1.1,0.5,2.1,1.2,3c0.6,0.9,1.4,1.7,2.3,2.4c1.7,1.4,3.7,2.6,5.7,3.5l1.9,0.9l-2-0.3
			c-1-0.1-1.9-0.6-2.5-1.5c-0.6-0.8-0.8-1.8-0.9-2.7c-0.1-0.9,0-1.9,0.1-2.8c0.1-0.9,0.3-1.8,0.6-2.7l0.6-2l0.2,2.1
			c0.1,1.4,0.8,2.6,1.7,3.6c1,1,2.2,1.8,3.5,2.4c1.3,0.6,2.6,1.1,4,1.5c1.4,0.4,2.8,0.7,4.2,0.9l-0.3,0.8c-1.3-0.9-2.5-1.9-3.6-3.1
			c-1.1-1.2-2-2.6-2.4-4.2c-0.4-1.6,0-3.4,0.9-4.8c0.9-1.4,2.1-2.4,3.5-3.3l0.4,0.7c-1.1,0.7-2.1,1.4-2.7,2.5
			c-0.6,1-0.4,2.3,0.3,3.3c0.7,1,1.7,1.8,2.8,2.5c1.1,0.7,2.2,1.3,3.4,1.8l-0.2,0.7c-1.4-0.5-2.7-1.3-3.6-2.4c-0.5-0.6-0.9-1.2-1-2
			c-0.2-0.7-0.1-1.6,0.3-2.3c0.8-1.4,2.1-2.1,3.5-2.6c1.3-0.5,2.7-0.8,4.2-1c1.4-0.2,2.8-0.2,4.2-0.4c1.4-0.1,2.8-0.3,4.2-0.5
			c1.4-0.2,2.8-0.5,4.1-0.9c0.7-0.2,1.3-0.5,1.9-0.8C112.9,88.1,113.6,87.7,113.9,87L113.9,87z"/>
	</g>
	<path class="st14" d="M136.9,69.2c0.1,1.4-3.1,2.7-7.2,3c-4.1,0.3-7.5-0.6-7.6-1.9c-0.1-1.4,3.1-2.7,7.2-3
		C133.4,67,136.8,67.8,136.9,69.2z"/>
	<path class="st17" d="M136.8,67.5c0,0.4-1,0.9-2.3,1c-1.3,0.1-2.4-0.2-2.4-0.6c0-0.4,1-0.9,2.3-1C135.7,66.8,136.8,67.1,136.8,67.5
		z"/>
	<g>
		<path d="M130.9,49.1c-0.3-0.1-0.4-0.1-0.4-0.1c0.1,0,0.2,0,0.3,0c0,0,0,0,0,0c0,0,0,0,0,0c0-0.1,0.1-0.2,0.2-0.2
			c0,0,0.1,0,0.2,0.1c0.1,0.1,0.1,0.2,0.1,0.2c0,0,0,0,0.1,0c0,0,0,0,0.1,0c0,0,0.1,0,0.1,0.1C131.5,49.1,131.3,49.1,130.9,49.1
			L130.9,49.1L130.9,49.1z M131,49.1L131,49.1c-0.4-0.1-0.5-0.1-0.5-0.2c0,0,0,0,0.1,0l0.1,0l0.1,0c0,0,0,0.1,0.1,0.2
			c0.1,0.1,0.2,0.1,0.2,0.1c0.1,0,0.2-0.1,0.2-0.2c0,0,0,0,0,0c0,0,0,0,0,0c0,0,0.2,0,0.2,0.1C131.5,49.1,131.4,49.1,131,49.1
			L131,49.1z"/>
	</g>
	<g>
		<path class="st16" d="M60.7,75.8c19.3-20.5,55.6-23.1,77.9-0.2c8,10.5,6.7,18.6,1,25.4c-1.5-11.3-6.7-17.6-14.6-20.9
			c-2.7,2.3-7.7,4-13.6,4.2c-4.5,0.1-8.5-0.6-11.5-2c-2.9,1.5-6.9,2.5-11.3,2.7c-5.2,0.2-9.8-0.9-12.8-2.6
			c-9.2,4.6-15.1,12.3-15,23.1c0,0.2,0,0.5,0,0.7C55.7,99.7,51.9,83.5,60.7,75.8z"/>
		<g>
			<path d="M60.7,75.8c4.9-5.3,11.1-9.4,17.7-12.3c6.7-2.8,13.9-4.4,21.2-4.5c3.6,0,7.3,0.3,10.9,1c3.6,0.7,7.1,1.8,10.5,3.2
				c6.7,2.8,12.8,7.1,17.9,12.3l0,0l0,0c1.4,1.9,2.7,3.9,3.6,6c1,2.1,1.7,4.4,1.9,6.7c0.2,2.3-0.1,4.7-1,6.9c-0.8,2.2-2.1,4.2-3.6,6
				l-0.3,0.4l-0.1-0.5c-0.6-4.4-1.9-8.8-4.3-12.5c-1.2-1.8-2.7-3.5-4.5-4.8c-1.7-1.4-3.7-2.4-5.7-3.3l0.4-0.1
				c-1.7,1.5-3.8,2.4-5.9,3.1c-2.1,0.7-4.3,1.1-6.5,1.2c-2.2,0.2-4.4,0.1-6.6-0.2c-2.2-0.3-4.4-0.8-6.4-1.7l0.4,0
				c-1.9,1-3.9,1.7-6,2.1c-2.1,0.4-4.2,0.7-6.3,0.7c-2.1,0-4.2-0.2-6.3-0.6c-2.1-0.4-4.1-1.1-6-2.2l0.5,0c-4.4,2.2-8.4,5.3-11.1,9.4
				c-1.4,2-2.4,4.3-3,6.6c-0.6,2.4-0.9,4.8-0.9,7.3l0,1l-0.6-0.7c-1.8-2.2-2.9-4.8-3.8-7.4c-0.9-2.6-1.4-5.4-1.5-8.1
				c-0.1-2.7,0.1-5.5,0.9-8.2C57.1,80,58.6,77.6,60.7,75.8z M60.8,75.8c-2.1,1.8-3.5,4.2-4.3,6.8c-0.8,2.6-1,5.4-0.8,8.1
				c0.2,2.7,0.8,5.4,1.7,8c0.9,2.6,2.1,5,3.9,7.1l-0.6,0.2c-0.1-2.5,0.1-5,0.7-7.5c0.6-2.5,1.6-4.8,3-7c1.4-2.1,3.1-4,5.1-5.7
				c1.9-1.6,4.1-3,6.4-4.1l0.2-0.1l0.2,0.1c1.7,1,3.7,1.6,5.7,2c2,0.4,4,0.6,6.1,0.5c2.1,0,4.1-0.2,6.1-0.6c2-0.4,4-1,5.7-2l0.2-0.1
				l0.2,0.1c1.9,0.9,4,1.4,6.1,1.7s4.3,0.3,6.4,0.2c2.1-0.1,4.3-0.5,6.3-1.1c2-0.6,4-1.5,5.7-2.8l0.2-0.1l0.2,0.1
				c2.1,0.9,4.1,2,5.8,3.5c1.8,1.4,3.3,3.1,4.5,5c2.5,3.8,3.7,8.3,4.3,12.7l-0.4-0.1c1.5-1.8,2.8-3.7,3.6-5.9c0.8-2.1,1.2-4.5,1-6.8
				c-0.2-2.3-0.9-4.5-1.9-6.6c-1-2.1-2.3-4-3.7-5.8l0,0c-5.1-5.1-11.2-9.2-17.8-11.9c-3.3-1.4-6.8-2.4-10.3-3.1
				c-3.5-0.7-7.1-1-10.7-1c-7.2,0-14.4,1.3-21.1,4C71.9,66.5,65.7,70.6,60.8,75.8z"/>
		</g>
	</g>
	<path class="st18" d="M75.3,77.6c4.6-1.3,15.4,5.4,22.3,0.5c1.1-1.2,2.2-3.6,3.4-4.8c0.1,2.3,2.5,4.6,3.7,5.8
		c7.1,1,14.2,5.4,18.6-5.3c10.4,3.8,15.6,14.9,16.2,25.4c-1.8-10.2-6.9-16-14.3-19.1c-2.7,2.3-7.7,4-13.6,4.2
		c-4.5,0.1-8.5-0.6-11.5-2c-2.9,1.5-6.9,2.5-11.3,2.7c-5.2,0.2-9.8-0.9-12.8-2.6c-9.2,4.6-15.1,12.3-15,23.1c0,0.2,0,0.5,0,0.7
		c-0.8-1-1.6-2.2-2.3-3.6C59.7,90.4,63.9,78.7,75.3,77.6z"/>
	<g>
		<path class="st16" d="M129,70.8c0,0,5-14.2-10.1-4.2"/>
		<path d="M128.9,70.7c0.1-1.6,0.4-3,0.4-4.5c0.1-0.7,0.1-1.5-0.3-2.1c-0.4-0.7-1.1-0.9-1.8-0.8c-1.4,0.2-2.8,0.8-4.1,1.5
			c-1.4,0.6-2.7,1.3-4.2,1.9l-0.1-0.1c1.1-1.1,2.4-2,3.8-2.8c0.7-0.4,1.4-0.6,2.2-0.9c0.8-0.2,1.6-0.3,2.4-0.2
			c0.8,0.1,1.6,0.5,2.1,1.2c0.5,0.7,0.7,1.5,0.8,2.3c0.1,0.8-0.1,1.6-0.2,2.4C129.7,69.4,129.4,70.1,128.9,70.7L128.9,70.7z"/>
	</g>
	<path d="M125.1,67.2c-0.3,0.6-0.4,1.3-0.1,1.4c0.3,0.1,0.8-0.3,1.1-0.9c0.3-0.7,0.4-1.3,0.1-1.4C126,66.1,125.5,66.5,125.1,67.2z"
		/>
	<path d="M129.1,76.3c0.1,0.7,0.5,1.3,0.9,1.2c0.4,0,0.6-0.7,0.5-1.4c-0.1-0.7-0.5-1.3-0.9-1.2C129.2,75,129,75.6,129.1,76.3z"/>
	
		<ellipse transform="matrix(-0.9986 -5.194677e-002 5.194677e-002 -0.9986 139.1172 158.9708)" cx="71.6" cy="77.7" rx="0.7" ry="1.3"/>
	<g>
		<path class="st16" d="M76.7,66.8c0,0-10.1-11.2-8.5,6.9"/>
		<path d="M76.7,66.8c-1.3-0.9-2.5-1.8-3.7-2.5c-0.6-0.4-1.3-0.8-2-0.8c-0.7,0-1.3,0.5-1.6,1.2c-0.5,1.3-0.6,2.8-0.7,4.3
			c-0.1,1.5-0.2,3-0.3,4.6l-0.1,0c-0.4-1.5-0.7-3.1-0.6-4.6c0-0.8,0.1-1.6,0.3-2.4c0.2-0.8,0.5-1.6,1-2.2c0.5-0.7,1.2-1.2,2.1-1.2
			c0.8-0.1,1.7,0.1,2.4,0.4c0.7,0.3,1.4,0.8,2,1.4C75.8,65.4,76.4,66,76.7,66.8L76.7,66.8z"/>
	</g>
	<ellipse transform="matrix(-0.8376 0.5463 -0.5463 -0.8376 169.8145 85.7139)" cx="72.2" cy="68.1" rx="0.6" ry="1.3"/>
	<g>
		<path d="M129.1,76.3c2.9,0.2,5.7,1.7,7.8,3.8c2.1,2.1,3.7,4.7,4.7,7.4c1.1,2.8,1.4,5.6,2.5,8.3c0.9,2.7,2.2,5.3,3.6,7.8
			c2.9,5,6.4,9.6,10.6,13.5c4.2,3.8,9.3,6.8,15,7.7l0,0.1c-2.9-0.1-5.8-0.9-8.4-2.1c-2.7-1.3-5.1-2.9-7.3-4.9
			c-2.2-2-4.1-4.2-5.8-6.5c-1.7-2.3-3.2-4.9-4.5-7.5c-1.3-2.6-2.4-5.3-3.5-8c-0.5-1.4-1-2.7-1.4-4.1c-0.4-1.4-0.9-2.7-1.5-4
			c-1.1-2.6-2.5-5.1-4.5-7.2C134.4,78.6,131.9,76.9,129.1,76.3L129.1,76.3z"/>
	</g>
	<g>
		<path d="M71.6,77.7c-1.5,0.4-3,1.1-4.3,1.9c-1.4,0.8-2.6,1.7-3.8,2.7c-2.4,2-4.6,4.4-6.5,6.9c-1.9,2.5-3.7,5.1-5.2,8
			c-1.5,2.8-2.6,5.8-3.6,8.8c-1.8,6.1-4.2,12.2-7.6,17.6c-1.7,2.7-3.7,5.3-6.1,7.5c-1.2,1.1-2.5,2.1-3.9,2.9
			c-1.4,0.8-2.9,1.5-4.5,1.7l0-0.1c1.5-0.3,2.9-1.1,4.3-2c1.3-0.9,2.5-1.9,3.6-3c2.2-2.2,4.1-4.8,5.8-7.5c1.6-2.7,3.1-5.5,4.4-8.4
			c1.3-2.9,2.4-5.8,3.6-8.8c1.1-3,2.4-5.9,3.8-8.8c1.4-2.9,2.9-5.7,4.8-8.3c1.9-2.6,4.1-5,6.7-7C65.5,79.9,68.4,78.2,71.6,77.7
			L71.6,77.7z"/>
	</g>
	<g>
		<g>
			<path class="st2" d="M91.8,40.5c-0.3,3,2.2,3.4,5.3,3.7c3.1,0.3,5.6,0.4,5.9-2.6c0.3-3-1.8-7.5-4.9-7.8
				C95.1,33.4,92.1,37.5,91.8,40.5z"/>
			<path d="M91.9,40.5c-0.1,0.7,0,1.5,0.5,2c0.5,0.5,1.1,0.8,1.8,0.9c1.4,0.2,2.8,0.3,4.3,0.5c0.7,0.1,1.4,0.2,2.1,0.1
				c0.7,0,1.4-0.3,1.8-0.8c0.4-0.5,0.5-1.3,0.5-2c0-0.7-0.2-1.4-0.4-2.1c-0.4-1.3-1.1-2.6-2.1-3.6c-0.9-1-2.2-1.5-3.4-1.1
				c-1.2,0.3-2.3,1.3-3.3,2.3C92.8,37.7,92,39,91.9,40.5z M91.8,40.5c0.2-1.5,0.6-2.9,1.4-4.2c0.8-1.3,1.9-2.5,3.5-2.9
				c0.8-0.2,1.7-0.2,2.5,0.1c0.8,0.3,1.4,0.8,1.9,1.4c1,1.2,1.7,2.6,1.9,4.1c0.2,0.7,0.2,1.5,0.2,2.2c0,0.7-0.2,1.5-0.6,2.2
				c-0.4,0.7-1.2,1-2,1.2c-0.8,0.2-1.5,0.2-2.2,0.2c-1.5-0.1-2.9-0.2-4.4-0.7c-0.7-0.3-1.4-0.7-1.8-1.3C91.8,42,91.7,41.2,91.8,40.5
				z"/>
		</g>
		<path class="st20" d="M91.8,40.5c0.2-1.7,1.2-3.8,2.6-5.1c-0.2,1.9,0.5,3.8,1.5,5.1c2.4,1.6,4.7,1.8,7.1,1.5
			c-0.5,2.6-2.9,2.5-5.8,2.2C94,43.8,91.5,43.4,91.8,40.5z"/>
	</g>
	<g>
		<defs>
			<path id="SVGID_5_" d="M99.5,134.8c2.8-0.1,5.4-0.2,7.8-0.4c2.7,23.4,4.2,46.2,0.1,69.5c-2.9,0.2-6,2.1-9.2,2.3
				c-10.9,0.5-20-0.8-28.9-3.8c16.9-18.8,24.6-42.3,27-67.5C97.3,134.8,98.4,134.8,99.5,134.8z"/>
		</defs>
		<clipPath id="SVGID_6_">
			<use xlink:href="#SVGID_5_"  style="overflow:visible;"/>
		</clipPath>
		<g class="st9">
			<g>
				<path d="M127.8,138.9c-4.4,0.9-8.9,1.4-13.4,1.8c-4.5,0.4-9,0.5-13.5,0.7c-4.5,0-9,0-13.5-0.1l-6.7-0.3
					c-2.2-0.1-4.5-0.3-6.7-0.5l13.5,0c4.5,0,9,0,13.4-0.1c4.5,0,9-0.2,13.4-0.4c2.2-0.1,4.5-0.2,6.7-0.4
					C123.4,139.4,125.6,139.2,127.8,138.9z"/>
			</g>
			<g>
				<path d="M128,145.5c-4.4,0.9-8.9,1.4-13.4,1.8c-4.5,0.4-9,0.5-13.5,0.7c-4.5,0-9,0-13.5-0.1l-6.7-0.3c-2.2-0.1-4.5-0.3-6.7-0.5
					l13.5,0c4.5,0,9,0,13.4-0.1c4.5,0,9-0.2,13.4-0.4c2.2-0.1,4.5-0.2,6.7-0.4C123.6,145.9,125.8,145.7,128,145.5z"/>
			</g>
			<g>
				<path d="M128.2,152c-4.4,0.9-8.9,1.4-13.4,1.8c-4.5,0.4-9,0.5-13.5,0.7c-4.5,0-9,0-13.5-0.1l-6.7-0.3c-2.2-0.1-4.5-0.3-6.7-0.5
					l13.5,0c4.5,0,9,0,13.4-0.1c4.5,0,9-0.2,13.4-0.4c2.2-0.1,4.5-0.2,6.7-0.4C123.8,152.5,126,152.3,128.2,152z"/>
			</g>
			<g>
				<path d="M128.4,158.6c-4.4,0.9-8.9,1.4-13.4,1.8c-4.5,0.4-9,0.5-13.5,0.7c-4.5,0-9,0-13.5-0.1l-6.7-0.3
					c-2.2-0.1-4.5-0.3-6.7-0.5l13.5,0c4.5,0,9,0,13.4-0.1c4.5,0,9-0.2,13.4-0.4c2.2-0.1,4.5-0.2,6.7-0.4
					C124,159.1,126.2,158.8,128.4,158.6z"/>
			</g>
			<g>
				<path d="M128.6,165.1c-4.4,0.9-8.9,1.4-13.4,1.8c-4.5,0.4-9,0.5-13.5,0.7c-4.5,0-9,0-13.5-0.1l-6.7-0.3
					c-2.2-0.1-4.5-0.3-6.7-0.5l13.5,0c4.5,0,9,0,13.4-0.1c4.5,0,9-0.2,13.4-0.4c2.2-0.1,4.5-0.2,6.7-0.4
					C124.2,165.6,126.4,165.4,128.6,165.1z"/>
			</g>
			<g>
				<path d="M128.8,171.7c-4.4,0.9-8.9,1.4-13.4,1.8c-4.5,0.4-9,0.5-13.5,0.7c-4.5,0-9,0-13.5-0.1l-6.7-0.3
					c-2.2-0.1-4.5-0.3-6.7-0.5l13.5,0c4.5,0,9,0,13.4-0.1c4.5,0,9-0.2,13.4-0.4c2.2-0.1,4.5-0.2,6.7-0.4
					C124.4,172.2,126.6,172,128.8,171.7z"/>
			</g>
			<g>
				<path d="M129,178.3c-4.4,0.9-8.9,1.4-13.4,1.8c-4.5,0.4-9,0.5-13.5,0.7c-4.5,0-9,0-13.5-0.1l-6.7-0.3c-2.2-0.1-4.5-0.3-6.7-0.5
					l13.5,0c4.5,0,9,0,13.4-0.1c4.5,0,9-0.2,13.4-0.4c2.2-0.1,4.5-0.2,6.7-0.4C124.6,178.7,126.8,178.5,129,178.3z"/>
			</g>
			<g>
				<path d="M121.8,184.9c-4.4,0.9-8.9,1.4-13.4,1.8c-4.5,0.4-9,0.5-13.5,0.7c-4.5,0-9,0-13.5-0.1l-6.7-0.3
					c-2.2-0.1-4.5-0.3-6.7-0.5l13.5,0c4.5,0,9,0,13.4-0.1c4.5,0,9-0.2,13.4-0.4c2.2-0.1,4.5-0.2,6.7-0.4
					C117.4,185.4,119.6,185.2,121.8,184.9z"/>
			</g>
			<g>
				<path d="M115.7,192.3c-4.4,0.9-8.9,1.4-13.4,1.8c-4.5,0.4-9,0.5-13.5,0.7c-4.5,0-9,0-13.5-0.1l-6.7-0.3
					c-2.2-0.1-4.5-0.3-6.7-0.5l13.5,0c4.5,0,9,0,13.4-0.1c4.5,0,9-0.2,13.4-0.4c2.2-0.1,4.5-0.2,6.7-0.4
					C111.2,192.8,113.4,192.6,115.7,192.3z"/>
			</g>
			<g>
				<path d="M115.3,199.5c-4.9,1-9.9,1.4-14.8,1.8c-5,0.4-9.9,0.6-14.9,0.7c-5,0.1-10,0.1-14.9-0.1l-7.5-0.3c-2.5-0.1-5-0.3-7.4-0.5
					l14.9-0.1c5,0,9.9,0,14.9-0.2c5-0.1,9.9-0.2,14.9-0.5c2.5-0.1,5-0.2,7.4-0.4C110.4,200,112.8,199.8,115.3,199.5z"/>
			</g>
		</g>
	</g>
	<path d="M70.2,114.4c0.4,2,2.7,3.2,5,2.7c2.3-0.5,3.9-2.6,3.4-4.6c-0.4-2-2.7-3.2-5-2.7C71.3,110.3,69.7,112.4,70.2,114.4z"/>
	<path d="M68.6,106.4c-0.1,0.6,2.4,1.5,5.6,2c3.2,0.5,5.8,0.4,5.9-0.3c0.1-0.6-2.4-1.5-5.6-2C71.4,105.7,68.7,105.8,68.6,106.4z"/>
	<path class="st17" d="M75.4,112.5c0.1,0.4,0.5,0.6,1,0.5c0.5-0.1,0.8-0.5,0.7-0.9c-0.1-0.4-0.5-0.6-1-0.5
		C75.7,111.8,75.4,112.1,75.4,112.5z"/>
	
		<ellipse transform="matrix(-0.9991 4.147571e-002 -4.147571e-002 -0.9991 148.1439 238.0515)" class="st11" cx="71.6" cy="120.6" rx="10.1" ry="2.9"/>
	<path class="st17" d="M63,118.8c0,1.1,1.5,2,3.2,1.9c1.7-0.1,3.1-1.1,3-2.2c0-1.1-1.5-2-3.2-1.9C64.3,116.7,62.9,117.7,63,118.8z"
		/>
	<ellipse transform="matrix(0.9876 0.1571 -0.1571 0.9876 19.1607 -18.2373)" cx="125" cy="112.1" rx="4.3" ry="3.7"/>
	<path d="M130.3,104.7c0.1,0.6-2.3,1.7-5.4,2.4c-3.1,0.7-5.8,0.7-5.9,0.1c-0.1-0.6,2.3-1.7,5.4-2.4
		C127.5,104.2,130.2,104.1,130.3,104.7z"/>
	<path class="st17" d="M127.5,111.6c-0.1,0.4-0.5,0.6-1,0.5s-0.8-0.4-0.8-0.8c0.1-0.4,0.5-0.6,1-0.5
		C127.3,110.9,127.6,111.3,127.5,111.6z"/>
	
		<ellipse transform="matrix(0.9998 -2.010907e-002 2.010907e-002 0.9998 -2.3687 2.5652)" class="st11" cx="126.4" cy="119.1" rx="10.1" ry="2.9"/>
	<path class="st17" d="M134.9,116.8c0,1.1-1.4,2.1-3.1,2.1c-1.7,0-3.1-0.9-3.1-2c0-1.1,1.3-2.1,3.1-2.1
		C133.4,114.8,134.8,115.7,134.9,116.8z"/>
	<g>
		<path d="M90,121.2c0.1,0.9,0.9,1.6,1.5,2.2c0.7,0.6,1.5,1.1,2.4,1.5c1.7,0.8,3.4,1.3,5.3,1.4c1.8,0.1,3.7-0.2,5.4-1
			c1.7-0.8,3.2-2.1,4.1-3.6c0.2-0.4,0.4-0.8,0.3-1.2c-0.1-0.3-0.4-0.6-0.7-0.8c-0.7-0.4-1.6-0.7-2.5-0.9c-1.8-0.4-3.7-0.5-5.5-0.5
			c-1.9,0-3.7,0.1-5.6,0.4c-0.9,0.1-1.8,0.3-2.7,0.7c-0.4,0.2-0.9,0.4-1.2,0.7C90.4,120.4,90,120.8,90,121.2z M89.9,121.2
			c0-0.5,0.3-0.9,0.7-1.2c0.4-0.3,0.8-0.6,1.2-0.8c0.9-0.4,1.8-0.8,2.7-1.1c1.8-0.6,3.8-0.8,5.7-0.8c1.9,0,3.8,0.2,5.7,0.6
			c0.9,0.2,1.9,0.6,2.7,1.1c0.4,0.3,0.9,0.7,1,1.4c0,0.6-0.2,1.1-0.5,1.5c-1.1,1.6-2.7,2.7-4.4,3.6c-1.7,0.9-3.6,1.5-5.5,1.5
			c-2,0-3.9-0.6-5.5-1.7c-0.8-0.5-1.6-1.1-2.2-1.8c-0.3-0.4-0.6-0.7-0.9-1.1C90.2,122.2,90,121.7,89.9,121.2z"/>
	</g>
	<g>
		<path class="st3" d="M90,121.2c0.1,1.7,4.5,5.7,9.8,5.5s9.5-4.4,9.5-6.1c-0.1-1.7-4.4-2.9-9.8-2.8C94.2,118.1,89.9,119.6,90,121.2
			z"/>
		<g>
			<path d="M90,121.2c0.1,0.9,0.9,1.6,1.5,2.2c0.7,0.6,1.5,1.1,2.4,1.5c1.7,0.8,3.4,1.3,5.3,1.4c1.8,0.1,3.7-0.2,5.4-1
				c1.7-0.8,3.2-2.1,4.1-3.6c0.2-0.4,0.4-0.8,0.3-1.2c-0.1-0.3-0.4-0.6-0.7-0.8c-0.7-0.4-1.6-0.7-2.5-0.9c-1.8-0.4-3.7-0.5-5.5-0.5
				c-1.9,0-3.7,0.1-5.6,0.4c-0.9,0.1-1.8,0.3-2.7,0.7c-0.4,0.2-0.9,0.4-1.2,0.7C90.4,120.4,90,120.8,90,121.2z M89.9,121.2
				c0-0.5,0.3-0.9,0.7-1.2c0.4-0.3,0.8-0.6,1.2-0.8c0.9-0.4,1.8-0.8,2.7-1.1c1.8-0.6,3.8-0.8,5.7-0.8c1.9,0,3.8,0.2,5.7,0.6
				c0.9,0.2,1.9,0.6,2.7,1.1c0.4,0.3,0.9,0.7,1,1.4c0,0.6-0.2,1.1-0.5,1.5c-1.1,1.6-2.7,2.7-4.4,3.6c-1.7,0.9-3.6,1.5-5.5,1.5
				c-2,0-3.9-0.6-5.5-1.7c-0.8-0.5-1.6-1.1-2.2-1.8c-0.3-0.4-0.6-0.7-0.9-1.1C90.2,122.2,90,121.7,89.9,121.2z"/>
		</g>
	</g>
	<g>
		<path class="st13" d="M90.6,120.1c1.3-1.2,4.8-2.1,9-2.3c5.3-0.2,9.7,1.1,9.8,2.8c0,0.3-0.1,0.6-0.3,0.9
			C102.8,122.6,96.6,121.7,90.6,120.1z"/>
		<path d="M90.6,120.1c0.6-0.6,1.5-1,2.3-1.3c0.8-0.3,1.7-0.5,2.6-0.7c1.7-0.3,3.5-0.5,5.3-0.4c1.8,0.1,3.5,0.3,5.2,0.7
			c0.9,0.2,1.7,0.5,2.5,0.9c0.4,0.2,0.8,0.5,1,1c0.2,0.5,0,1-0.2,1.4l0,0.1l-0.1,0c-3.1,0.6-6.2,0.7-9.4,0.3
			C96.6,121.8,93.5,121.1,90.6,120.1L90.6,120.1L90.6,120.1z M90.6,120.1c3,0.6,6.1,1.2,9.1,1.4c3.1,0.3,6.2,0.3,9.3-0.2l-0.1,0.1
			c0.2-0.4,0.4-0.8,0.2-1.1c-0.1-0.4-0.5-0.7-0.8-0.9c-0.7-0.5-1.6-0.7-2.4-0.9c-1.7-0.4-3.5-0.5-5.2-0.4c-1.7,0-3.5,0.2-5.2,0.4
			c-0.9,0.2-1.7,0.3-2.5,0.6C92.1,119.3,91.3,119.6,90.6,120.1z"/>
	</g>
	<path class="st0" d="M60.6,179.6c2.5-9,4.8-17.5,6.9-24.6c0.6-3.3,1.2-6.6,1.5-10c1-0.9,1.9-1.7,2.7-2.4c0.7-1.7,1.3-3.1,2-4.2
		c0.9,0.1,1.6,0.3,1.6,0.7c0,0.1,0,0.2,0,0.3c0.1-0.1,0.2-0.2,0.2-0.2l5.9,18.9c-3.4,1.8-6.5,3.3-9.3,4.6
		c-2.3,12.8-4.2,25.5-0.1,37.8c0.6,1.7,1.5,3,2.8,4.2C63.1,201.8,56.4,194.7,60.6,179.6z"/>
	<g>
		<path class="st15" d="M75.5,136.7c0,0-61.1,53,5.9,18.9"/>
		<path d="M75.5,136.7l-13.2,12.8c-2.2,2.1-4.4,4.2-6.4,6.5c-1,1.1-2,2.3-2.9,3.6c-0.9,1.2-1.7,2.5-2.3,3.9
			c-0.3,0.7-0.5,1.4-0.4,2.1c0.1,0.6,0.6,1,1.3,1c1.4,0.2,2.9-0.2,4.4-0.6c2.9-0.8,5.7-1.9,8.6-3.1c5.6-2.3,11.2-4.9,16.8-7.4l0,0.1
			c-5.3,3.1-10.8,5.9-16.4,8.3c-2.8,1.2-5.7,2.3-8.7,3c-1.5,0.3-3.1,0.7-4.7,0.4c-0.4-0.1-0.8-0.2-1.2-0.5c-0.4-0.3-0.6-0.8-0.7-1.2
			c-0.1-0.9,0.2-1.7,0.6-2.4c1.4-2.8,3.5-5.1,5.4-7.5c2-2.3,4-4.6,6.1-6.9C66.1,144.5,70.6,140.4,75.5,136.7L75.5,136.7z"/>
	</g>
</g>
</svg>
