<?xml version="1.0" encoding="utf-8"?>
<!-- Generator: Adobe Illustrator 15.1.0, SVG Export Plug-In . SVG Version: 6.00 Build 0)  -->
<!DOCTYPE svg PUBLIC "-//W3C//DTD SVG 1.1//EN" "http://www.w3.org/Graphics/SVG/1.1/DTD/svg11.dtd">
<svg version="1.1" id="Layer_2" xmlns="http://www.w3.org/2000/svg" xmlns:xlink="http://www.w3.org/1999/xlink" x="0px" y="0px"
	 width="167px" height="213px" viewBox="0 0 167 213" style="enable-background:new 0 0 167 213;" xml:space="preserve">
<style type="text/css">
<![CDATA[
	.st0{opacity:0.6;fill:#FF9494;}
	.st1{opacity:0.38;fill:#BF7326;}
	.st2{opacity:0.25;}
	.st3{opacity:0.46;}
	.st4{fill:#B78558;}
	.st5{fill:#EDBB8A;}
	.st6{opacity:8.000000e-002;fill:#BF7326;}
	.st7{opacity:0.42;fill:#FF9494;}
	.st8{fill:#C99C6B;}
	.st9{fill:#FF9D33;}
	.st10{fill:#FFE1C5;}
	.st11{fill:#FFF4EB;}
	.st12{fill:#FFFFFF;}
]]>
</style>
<g>
	<g>
		<path class="st9" d="M68.1,169.3c0,0-27.3,12.2-36.8,15.4c-10.8,3.7-21.5,18.8,0,22s25-9.7,16.8-8.6s-17.3,3.6-17.3-1.7
			c0-7.5,15-10.2,18-10.7s18.1-8.5,20.1-14.5S68.1,169.3,68.1,169.3z"/>
		<path d="M68.1,169.3c-6.7,3.2-13.4,6.2-20.2,9.1c-3.4,1.5-6.8,2.9-10.2,4.3c-1.7,0.7-3.4,1.4-5.2,2c-0.9,0.3-1.7,0.6-2.6,0.9
			c-0.8,0.4-1.6,0.8-2.4,1.2c-3.1,1.8-5.9,4.4-7.6,7.6c-0.8,1.6-1.2,3.5-0.7,5.2c0.5,1.7,1.8,3.1,3.4,4.1c3.1,1.9,6.9,2.6,10.5,3
			c3.6,0.4,7.4,0.3,10.9-0.5c1.8-0.4,3.5-1.1,5-2.1c0.7-0.5,1.4-1.1,1.9-1.8c0.5-0.7,0.9-1.5,0.8-2.3c-0.1-0.8-0.7-1.3-1.5-1.6
			c-0.8-0.2-1.7-0.1-2.6,0l-5.5,0.9c-1.8,0.3-3.7,0.6-5.5,0.7c-0.9,0-1.9,0-2.9-0.1c-0.9-0.2-2-0.5-2.8-1.3c-0.8-0.8-0.9-2-0.8-3
			c0.1-1,0.5-2,1-2.8c1.1-1.7,2.7-2.8,4.4-3.7c3.3-1.8,7-2.8,10.6-3.5c0.9-0.2,1.9-0.3,2.7-0.5c0.8-0.2,1.7-0.6,2.5-0.9
			c1.7-0.7,3.3-1.6,4.9-2.5c3.2-1.8,6.3-3.8,9-6.3c1.3-1.2,2.6-2.6,3.3-4.3c0.3-0.9,0.6-1.7,0.8-2.6c0-0.2,0.1-0.5,0-0.6
			c-0.1-0.1-0.3,0.1-0.5,0.3C68.7,168.6,68.4,168.9,68.1,169.3L68.1,169.3L68.1,169.3z M68.1,169.2c0.3-0.4,0.5-0.7,0.9-1.1
			c0.1-0.1,0.2-0.2,0.3-0.2c0.1-0.1,0.2-0.2,0.4-0.1c0.2,0.3,0.1,0.5,0.1,0.8c-0.1,0.9-0.4,1.8-0.7,2.7c-0.7,1.8-1.9,3.2-3.3,4.5
			c-2.7,2.6-5.8,4.6-9,6.5c-1.6,0.9-3.2,1.8-4.9,2.6c-0.9,0.4-1.7,0.8-2.6,1l-2.7,0.5c-3.6,0.8-7.1,1.8-10.3,3.5
			c-1.6,0.9-3,1.9-4,3.4c-0.5,0.7-0.8,1.5-0.9,2.3c-0.1,0.8,0,1.7,0.5,2.2c0.5,0.6,1.3,0.8,2.2,1c0.9,0.1,1.8,0.2,2.7,0.1
			c1.8-0.1,3.6-0.3,5.4-0.6c1.8-0.3,3.6-0.6,5.5-0.8c0.9-0.1,1.9-0.2,2.9,0.1c0.5,0.2,1,0.4,1.4,0.8c0.4,0.4,0.6,0.9,0.7,1.5
			c0.1,1.1-0.4,2.1-1,2.8c-0.6,0.8-1.4,1.4-2.2,1.9c-1.6,1-3.4,1.6-5.2,2c-3.7,0.8-7.4,0.7-11.1,0.3c-1.8-0.2-3.7-0.5-5.5-1
			c-1.8-0.5-3.6-1.1-5.2-2.1c-1.6-1-3-2.4-3.6-4.3c-0.6-1.8-0.2-3.8,0.6-5.5c0.8-1.7,1.9-3.2,3.2-4.6c1.3-1.3,2.8-2.5,4.4-3.5
			c0.8-0.5,1.6-0.9,2.5-1.3c0.9-0.4,1.8-0.7,2.6-1c1.7-0.6,3.4-1.3,5.2-2c3.4-1.3,6.8-2.7,10.2-4.2L68.1,169.2z"/>
	</g>
	<path class="st1" d="M30.9,196.9c0-0.2-0.1-0.4-0.1-0.6c0-7.5,15-10.2,18-10.7c2.3-0.4,12.1-5.4,17.2-10.4
		c-10.5,6.5-26.2,3.1-35,13.7C28.5,192.4,29,195.2,30.9,196.9z"/>
	<path class="st1" d="M31,204c-5.7-0.8-9.4-3.6-11.7-8.4c-1.5,4.7,1,9.5,12,11.1c14.7,2.2,21-3.2,20.9-6.5
		C45.4,202.3,38.6,205.1,31,204z"/>
	<path d="M57,174.2c-0.7,0.3-1.5,0.6-2.2,1c1.2,1.7,2.2,3.8,2.2,5.9C57,178.9,57,176.5,57,174.2z"/>
	<path d="M47,180c1.5,2.3,0.7,4-0.2,6c0.9-0.2,1.6-0.3,2-0.4c0.6-0.1,1.6-0.5,2.9-1.1C50.4,183,48.3,181.9,47,180z"/>
	<path d="M40,186c-0.6-1.7,0.4-3.3,0.9-5c-1.4,0.6-2.8,1.1-4.1,1.6C38.2,183.2,39.5,184,40,186z"/>
	<path d="M32.7,192.1c0.7-0.8,1.7-1.5,2.7-2.1c-1.5-0.9-3.1-1.8-4.4-3C31,189.2,31.6,190.8,32.7,192.1z"/>
	<path d="M44,200c0,3.5-2.5,5.6-5.4,7.2c4.7-0.1,8-1.1,10.2-2.5C47.7,202.8,46.2,201.1,44,200z"/>
	<path d="M33,199.2c-0.3,0.8-0.9,1.4-2,1.8c3.2,0,6.4,0.6,8.6-1.7C36.9,199.7,34.6,199.8,33,199.2z"/>
	<path d="M28,193c-3,0.7-5.4,0.9-8,1c-1.4,2.7-1.5,5.4,0.2,7.7C23.9,200.5,26.5,196.7,28,193z"/>
	<g>
		<path class="st5" d="M128.8,91.6c-1.1-7.1-1.5-6.6-1.6-9.9c-0.5-21.7-21.1-31.8-46.5-31.8c-25.5,0-43.5,5.1-45.7,30.4
			c-0.3,4,1.7,8.1,1.6,11.8c0,3.6-1.6,6.1-1.6,9.2c0,10.2,11.3,16.2,48.3,16.2c37,0,47.2-6,47.2-16.2
			C130.4,97.4,129.9,98.6,128.8,91.6z"/>
		<g>
			<path d="M128.7,91.6c-0.2-1.4-0.5-2.8-0.8-4.2c-0.3-1.4-0.7-2.8-0.8-4.2c-0.1-1.4-0.1-2.9-0.3-4.3c-0.2-1.4-0.4-2.8-0.8-4.2
				c-1.5-5.5-4.8-10.5-9.3-14c-4.5-3.6-9.7-6-15.2-7.5c-5.5-1.6-11.2-2.4-16.9-2.7c-5.7-0.2-11.5-0.2-17.2,0.4
				c-5.7,0.6-11.4,1.6-16.6,4.1c-2.6,1.2-5,2.8-7.1,4.8c-2.1,2-3.8,4.3-5,6.9c-1.3,2.6-2.2,5.3-2.7,8.1c-0.3,1.4-0.5,2.8-0.7,4.2
				c-0.1,0.7-0.2,1.4-0.2,2.1c0,0.7,0,1.4,0.1,2.1c0.4,2.8,1.4,5.5,1.6,8.5c0.1,1.5-0.2,3-0.5,4.4c-0.3,1.4-0.8,2.8-1,4.2
				c-0.3,2.8,0.4,5.6,2.2,7.7c1.8,2.1,4.3,3.5,6.9,4.6c5.3,2.1,11,2.9,16.7,3.5c5.7,0.6,11.4,0.8,17.2,0.9c5.7,0.1,11.5,0,17.2-0.2
				c5.7-0.2,11.5-0.7,17.1-1.7c2.8-0.5,5.6-1.2,8.3-2.2c2.6-1,5.2-2.5,7-4.7c0.9-1.1,1.6-2.4,1.9-3.8c0.4-1.4,0.4-2.8,0.4-4.3
				c0-1.4-0.5-2.8-0.8-4.2C129.2,94.4,128.9,93,128.7,91.6z M128.8,91.6c0.2,1.4,0.5,2.8,0.8,4.2c0.3,1.4,0.8,2.8,0.8,4.2
				c0.1,1.4,0,2.9-0.3,4.3c-0.4,1.4-1,2.7-1.9,3.9c-1.8,2.3-4.4,3.8-7.1,4.9c-2.7,1.1-5.5,1.9-8.3,2.4c-5.7,1.2-11.4,1.7-17.2,2
				c-5.8,0.3-11.5,0.3-17.3,0.3c-5.8-0.1-11.5-0.3-17.3-0.9c-5.7-0.7-11.5-1.5-16.9-3.7c-2.7-1.1-5.3-2.6-7.3-4.9
				c-1.9-2.3-2.7-5.5-2.3-8.4c0.2-1.5,0.7-2.9,1-4.2c0.4-1.4,0.6-2.8,0.6-4.2c-0.1-2.8-1.1-5.6-1.5-8.5c-0.1-0.7-0.1-1.5-0.1-2.2
				c0-0.7,0.1-1.5,0.2-2.2c0.2-1.4,0.4-2.9,0.7-4.3c0.6-2.8,1.5-5.6,2.8-8.2c1.3-2.6,3.1-4.9,5.2-6.9c2.1-2,4.5-3.6,7.2-4.8
				c5.2-2.5,11-3.6,16.7-4.3c2.9-0.3,5.7-0.5,8.6-0.6c2.9-0.1,5.8-0.2,8.6,0c5.8,0.3,11.5,1,17.1,2.6c5.5,1.6,10.9,4.1,15.4,7.9
				c4.5,3.7,7.8,8.8,9.1,14.4c0.3,1.4,0.6,2.8,0.7,4.3c0.2,1.4,0.1,2.9,0.2,4.3c0.1,1.4,0.5,2.8,0.8,4.2
				C128.4,88.7,128.6,90.1,128.8,91.6z"/>
		</g>
	</g>
	<g>
		<path class="st5" d="M35,80.3c-0.1,1.2,0,2.5,0.2,3.7c0-1.3-0.1-2.7-0.2-4C35,80.1,35,80.2,35,80.3z"/>
		<g>
			<path d="M35,80.3c0,0.3,0.1,0.6,0.2,0.9c0.1,0.3,0.2,0.6,0.2,0.9c0,0.3-0.1,0.6-0.1,0.9c0,0.3,0,0.6,0.2,0.9L35,84
				c-0.1-0.3-0.2-0.7-0.3-1c-0.1-0.3-0.1-0.7-0.1-1c0-0.3,0-0.7,0-1c0.1-0.3,0.2-0.7,0.3-1l0.2,0C35,80.1,35,80.2,35,80.3z
				 M34.9,80.3c0-0.1,0-0.2,0-0.3l0.2,0c0.1,0.3,0.3,0.7,0.4,1c0.1,0.3,0.1,0.7,0.2,1c0,0.3,0,0.7,0,1c0,0.3-0.1,0.7-0.2,1L35,84
				c0-0.3,0-0.6-0.1-0.9c-0.1-0.3-0.3-0.6-0.3-0.9c-0.1-0.3,0-0.6,0.1-1C34.8,80.9,34.9,80.6,34.9,80.3z"/>
		</g>
	</g>
	<g class="st3">
		<path class="st4" d="M37.9,90.5c1.3-1.3-1.1-3.8-2.5-5.2c0.5,2.4,1.2,4.7,1.2,6.8c0,3.6-1.6,6.1-1.6,9.2c0,6.4,4.4,11.1,16.8,13.7
			C42.5,110.6,36.2,103.7,37.9,90.5z"/>
		<path class="st4" d="M128.8,91.6c-1.1-7.1-1.5-6.6-1.6-9.9c0-1.7-0.2-3.4-0.5-5c0.3-8.1-1.3-38.4-43.5-40.4
			c0,0-36.1-0.3-42.9,19.4c0,0-3.6,2.7-0.9,16.6l3.8-3.6l3.1,1.5l2.6-4.3l1.7,3.5l3.5-4l2.8,3.2l3.2-3.8l3.2,5.6l2.9-5.1l3.9,3.2
			l1.2-3.6l3.4,3.6l2.1-4.9l4.3,5.6l3.2-4.4c0,0,2.4,5.8,2.7,5.3c0.2-0.5,3.3-4.3,3.3-4.3s0,5.1,1,4.1c1-1,4.1-4.8,4.4-4.3
			c0.3,0.5,2.4,3.5,2.4,3.5l2.9-2.3l1.2,4.3l4.8-4.3l1,3.4l3.5-3.8l1.2,4.6h4L118,76l3.6-3.2l2.3,2.7c2.7,15.4,0.6,31-10.3,39.6
			c12.6-2.6,16.8-7.4,16.8-13.9C130.4,97.4,129.9,98.6,128.8,91.6z"/>
	</g>
	<path d="M40.2,52.9c0,0-3.6,2.7-0.9,16.6l3.8-3.6l3.1,1.5l2.6-4.3l1.7,3.5l3.5-4l2.8,3.2l3.2-3.8l3.2,5.6l2.9-5.1l3.9,3.2l1.2-3.6
		l3.4,3.6l2.1-4.9l4.3,5.6l3.2-4.4c0,0,2.4,5.8,2.7,5.3c0.2-0.5,3.3-4.3,3.3-4.3s0,5.1,1,4.1c1-1,4.1-4.8,4.4-4.3
		c0.3,0.5,2.4,3.5,2.4,3.5l2.9-2.3l1.2,4.3l4.8-4.3l1,3.4l3.5-3.8l1.2,4.6h4l1.3,4.6l3.6-3.2l4.9,6c0,0,5.3-40.1-43.4-42.4
		C83.1,33.5,47,33.2,40.2,52.9z"/>
	<g>
		<path class="st9" d="M132.3,8.5c-12.3,3.8-30.1,1.7-30.1,1.7l0,0c-5.4-1-12.1-1.7-20.1-1.7c-7.1,0-13.2,0.8-18.3,1.9
			c0.1-0.1,0.1-0.1,0.2-0.2c0,0-17.8,2-30.1-1.7C21.6,4.7,2.2,5.7,9.2,21.4S24,36.9,24,36.9s0,0,0.1,0c-7.4,12.5-7.8,26.8-5.5,39.7
			c4.5,25.6,13.1,39,38.9,43.5c4.9,0.6,9.7,1.1,14.6,1.4c-0.2,0.1-0.4,0.2-0.6,0.3c0,0-27,72.8,4.7,85.4c0,0,2.7,2.6,2.3-17.1
			c0,0,11,4.7,18.7,0c0,0-1,41.3,14.3-1.4c0,0,3-5.4,2-25s-9.7-42.9-9.7-42.9s-0.1,0-0.2-0.1c3-0.3,5.9-0.7,8.8-1.1
			c-0.1-0.1-0.1-0.2-0.2-0.3c23.6-5.2,31.5-18.7,35.4-43c2.1-13.3,1.8-27-5.5-39.4l0,0c0,0,7.9,0.3,14.9-15.5S144.6,4.7,132.3,8.5z
			 M83,117.4c-36.9,0-48.2-6-48.2-16.1c0-3,1.6-5.5,1.6-9.2c0-3.6-2-7.7-1.6-11.7c1.1-13.8,7.1-21.6,16.4-25.8
			c3.3,2.6,9.2,4.4,15.9,4.4c5.2,0,9.9-1,13.3-2.7c3.4,1.7,8.1,2.7,13.3,2.7c6,0,11.4-1.4,14.8-3.5c10.9,5.1,18.1,13.8,18.3,26.4
			c0.1,3.3,0.5,2.8,1.6,9.9c1.1,7,1.6,5.9,1.6,9.6C130.1,111.4,119.9,117.4,83,117.4z"/>
		<g>
			<path d="M132.3,8.5c-4.8,1.5-9.9,2-15,2.2c-5,0.2-10.1,0.1-15.1-0.4l0.1-0.2l0,0l0.2,0.3l-0.3-0.1C95.9,9.2,89.4,8.7,83,8.6
				c-6.4,0-12.9,0.5-19.1,1.9l-0.8,0.2l0.5-0.6l0.2-0.2l0.2,0.4c-3.7,0.4-7.5,0.6-11.2,0.6c-3.8,0-7.5-0.2-11.2-0.6
				c-1.9-0.2-3.7-0.6-5.6-1c-0.9-0.2-1.8-0.5-2.7-0.7c-0.9-0.3-1.8-0.5-2.7-0.7c-3.6-0.8-7.4-1.1-11.1-0.8c-1.8,0.1-3.7,0.4-5.4,1
				c-1.7,0.6-3.4,1.5-4.5,2.9c-1.1,1.4-1.6,3.2-1.5,5c0.1,1.8,0.7,3.6,1.4,5.2c1.5,3.4,3.3,6.7,5.6,9.5c1.2,1.4,2.5,2.7,4,3.8
				c0.7,0.5,1.5,1,2.4,1.3c0.8,0.3,1.7,0.6,2.5,0.6l-0.1,0l0,0l1.2-0.5l-0.6,1.1c-2.5,4.2-4.3,8.9-5.4,13.7
				c-1.1,4.8-1.5,9.8-1.3,14.7c0.1,4.9,0.9,9.8,1.8,14.7c1,4.9,2.2,9.7,4,14.3c1.8,4.6,4.2,9,7.5,12.7c3.3,3.7,7.4,6.5,11.9,8.6
				c4.5,2,9.3,3.3,14.2,4.2c4.9,0.7,9.9,1.2,14.8,1.4l0.6,0l-0.5,0.3l-0.6,0.3l0.1-0.1c-2.6,7.3-4.7,14.7-6.5,22.2
				c-1.8,7.5-3.1,15.1-3.8,22.8c-0.6,7.6-0.6,15.5,1.2,22.9c0.9,3.7,2.4,7.3,4.7,10.3c2.3,3.1,5.4,5.4,8.9,6.8l0.1,0.1
				c0,0,0.1,0,0.1,0c0.1,0,0.2-0.1,0.3-0.3c0.2-0.3,0.3-0.6,0.4-0.9c0.2-0.7,0.3-1.4,0.4-2.2c0.2-1.5,0.3-3,0.4-4.5
				c0.1-3,0.1-6,0.1-9l0-0.6l0.6,0.2c1.5,0.6,3,1,4.5,1.4c1.6,0.3,3.1,0.6,4.7,0.6c3.1,0.1,6.4-0.4,9-2l0.7-0.4l0,0.8
				c0,3.4,0.1,6.9,0.5,10.3c0.2,1.7,0.5,3.4,1,5c0.3,0.8,0.7,1.6,1.2,1.9c0.5,0.4,1.2,0.1,1.8-0.4c1.2-1.1,2.1-2.6,2.9-4.1
				c0.8-1.5,1.6-3.1,2.3-4.7c1.4-3.2,2.6-6.4,3.8-9.7l0,0l0-0.1c0.5-1.2,0.9-2.6,1.1-4c0.3-1.4,0.5-2.8,0.6-4.3
				c0.3-2.9,0.4-5.7,0.4-8.6c0-5.8-0.3-11.5-1.2-17.2c-0.9-5.7-2.1-11.3-3.6-16.9c-1.5-5.6-3.2-11.1-5.1-16.5l0.3,0.3l-0.2-0.1
				l-2.1-0.7l2.2-0.2c2.9-0.3,5.9-0.7,8.8-1.1l-0.3,0.8l-0.2-0.3l-0.5-0.6l0.7-0.2c4.1-0.9,8.1-2.1,11.9-3.9c3.8-1.8,7.3-4.1,10.2-7
				c2.9-2.9,5.3-6.4,7.1-10.2c1.8-3.8,3.1-7.8,4.1-11.8c1.9-8.1,3.3-16.5,3.1-24.9c-0.2-8.4-2.2-16.7-6.5-24l-0.3-0.5l0.6,0.2l0,0
				l-0.1,0c1.2,0,2.4-0.5,3.4-1c1.1-0.6,2.1-1.3,3-2.1c1.9-1.6,3.4-3.6,4.8-5.6c1.4-2.1,2.5-4.3,3.5-6.5c1-2.2,1.7-4.7,1.4-7.1
				c-0.2-1.2-0.6-2.4-1.4-3.3c-0.8-1-1.7-1.7-2.8-2.3c-2.2-1.1-4.7-1.6-7.1-1.8C142,6.5,137,7.1,132.3,8.5z M132.3,8.4
				C137,7,142,6.3,147,6.6c2.5,0.2,5,0.7,7.2,1.8c1.1,0.6,2.1,1.3,2.9,2.3c0.8,1,1.3,2.2,1.5,3.4c0.4,2.5-0.4,5-1.4,7.3
				c-1,2.3-2.2,4.5-3.5,6.6c-1.4,2.1-2.9,4.1-4.8,5.7c-0.9,0.8-2,1.6-3.1,2.2c-1.1,0.6-2.3,1-3.6,1.1l0,0l0,0l0,0l0.3-0.3
				c4.3,7.3,6.5,15.7,6.7,24.2c0.3,8.5-1.1,16.9-3,25.1c-1,4.1-2.3,8.2-4.1,12c-1.8,3.8-4.2,7.5-7.2,10.5c-3,3.1-6.6,5.4-10.5,7.3
				c-3.9,1.8-7.9,3.1-12.1,4l0.3-0.8l0.2,0.3l0.5,0.7l-0.8,0.1c-2.9,0.4-5.9,0.8-8.8,1.1l0.1-0.9l0.2,0.1l0.2,0.1l0.1,0.2
				c2,5.5,3.7,11,5.1,16.6c1.5,5.6,2.7,11.3,3.6,17c0.9,5.7,1.2,11.6,1.2,17.4c0,2.9-0.1,5.8-0.4,8.7c-0.1,1.4-0.3,2.9-0.6,4.3
				c-0.3,1.4-0.6,2.8-1.2,4.3l0-0.1c-1.2,3.3-2.4,6.5-3.8,9.7c-0.7,1.6-1.5,3.2-2.3,4.7c-0.9,1.5-1.7,3.1-3.1,4.3
				c-0.4,0.3-0.8,0.6-1.3,0.8c-0.5,0.2-1.2,0.1-1.6-0.3c-0.9-0.7-1.2-1.6-1.5-2.4c-0.6-1.7-0.9-3.5-1.1-5.2c-0.4-3.5-0.5-7-0.4-10.5
				l0.7,0.4c-2.9,1.8-6.3,2.3-9.5,2.1c-1.6-0.1-3.3-0.3-4.8-0.7c-1.6-0.4-3.1-0.8-4.7-1.5l0.5-0.4c0,3,0,6-0.1,9
				c-0.1,1.5-0.2,3-0.4,4.5c-0.1,0.8-0.3,1.5-0.5,2.3c-0.1,0.4-0.3,0.7-0.5,1.1c-0.1,0.2-0.3,0.4-0.5,0.5c-0.3,0.1-0.7,0.1-0.9-0.1
				l0.1,0.1c-3.6-1.4-6.9-3.9-9.2-7.1c-2.3-3.1-3.8-6.8-4.8-10.6c-1.9-7.6-1.8-15.4-1.2-23.1c0.7-7.7,2.1-15.3,3.9-22.8
				c1.8-7.5,4-14.9,6.6-22.2l0-0.1l0.1,0l0.6-0.3l0.1,0.3c-5-0.3-9.9-0.7-14.8-1.4c-4.9-0.9-9.8-2.1-14.3-4.2
				c-4.6-2-8.8-4.9-12.1-8.6c-3.4-3.7-5.8-8.1-7.7-12.8C21.2,90,20,85.2,19,80.3c-1-4.9-1.8-9.8-1.9-14.8c-0.2-5,0.2-10,1.3-14.9
				c1.1-4.9,2.9-9.6,5.5-13.9l0.5,0.6l-0.1,0l-0.1,0l-0.1,0c-2.1-0.1-3.8-1-5.4-2.1c-1.6-1.1-2.9-2.5-4.1-3.9
				c-2.4-2.9-4.3-6.3-5.8-9.7C8,19.8,7.4,17.9,7.3,16C7.1,14,7.7,12,9,10.5c1.3-1.5,3.1-2.5,4.9-3.1c1.8-0.6,3.7-0.9,5.6-1
				c3.8-0.2,7.6,0.1,11.3,0.9c0.9,0.2,1.8,0.4,2.7,0.7c0.9,0.3,1.8,0.5,2.7,0.8c1.8,0.4,3.6,0.8,5.5,1c7.4,1,14.9,0.9,22.3,0.2
				l0.6-0.1l-0.4,0.5L64,10.5l-0.2-0.4C70.1,8.7,76.6,8.2,83,8.3c6.4,0.1,12.9,0.6,19.2,1.8l-0.1,0.2l0,0L102,10l0.3,0
				c5,0.5,10.1,0.7,15.1,0.5C122.4,10.4,127.4,9.8,132.3,8.4z"/>
			<path d="M83,117.4c-4.5,0-9.1-0.1-13.6-0.3c-4.5-0.2-9.1-0.5-13.6-1.2c-4.5-0.7-9-1.6-13.2-3.5c-2.1-1-4.1-2.2-5.6-4
				c-1.6-1.7-2.5-4.1-2.6-6.4c0-0.3,0-0.6,0-0.9c0-0.3,0-0.6,0-0.9c0.1-0.6,0.2-1.2,0.3-1.7c0.3-1.1,0.6-2.2,0.9-3.3
				c0.3-1.1,0.4-2.2,0.5-3.3c0-1.1-0.2-2.2-0.4-3.3c-0.4-2.2-1.1-4.4-1.2-6.7c0-0.6,0-1.2,0-1.8c0.1-0.6,0.1-1.1,0.2-1.7
				c0.1-1.1,0.3-2.3,0.5-3.4c0.9-4.5,2.5-8.9,5.3-12.5c2.7-3.7,6.5-6.5,10.6-8.3l0.1,0l0.1,0.1c2,1.6,4.4,2.5,6.8,3.2
				c2.4,0.7,5,1,7.5,1.1c2.5,0.1,5.1-0.1,7.6-0.5c2.5-0.4,4.9-1.1,7.2-2.2l0.1-0.1l0.1,0.1c2.2,1,4.5,1.7,6.8,2.1
				c2.4,0.4,4.8,0.6,7.2,0.5c2.4-0.1,4.8-0.4,7.1-0.9c2.3-0.6,4.6-1.4,6.6-2.6l0.2-0.1l0.2,0.1c4.1,1.9,8,4.4,11.2,7.8
				c3.2,3.3,5.5,7.5,6.6,11.9c0.6,2.2,0.9,4.5,0.9,6.8c0,1.1,0.1,2.2,0.3,3.3c0.2,1.1,0.5,2.2,0.7,3.3c0.4,2.2,0.7,4.5,1.2,6.7
				c0.2,1.1,0.5,2.2,0.8,3.3c0.3,1.2,0.3,2.3,0.3,3.5c0,2.3-0.7,4.7-2.1,6.6c-1.4,1.9-3.4,3.3-5.4,4.3c-4.1,2-8.6,2.9-13.1,3.6
				c-4.5,0.7-9,1-13.5,1.2C92,117.4,87.5,117.4,83,117.4z M83,117.3c9-0.1,18.1-0.4,26.9-1.8c4.4-0.8,8.8-1.8,12.8-3.8
				c2-1,3.8-2.3,5-4.1c1.3-1.8,1.9-3.9,1.8-6.1c0-1.1,0-2.2-0.3-3.2c-0.3-1.1-0.6-2.2-0.8-3.3c-0.5-2.2-0.7-4.5-1.2-6.7
				c-0.2-1.1-0.5-2.2-0.7-3.3c-0.3-1.1-0.3-2.3-0.3-3.4c-0.1-2.2-0.4-4.4-0.9-6.6c-1.1-4.3-3.3-8.3-6.3-11.5
				c-3-3.3-6.8-5.8-10.8-7.6l0.4,0c-2.1,1.3-4.5,2.1-6.9,2.7c-2.4,0.5-4.8,0.8-7.3,0.8c-2.4,0-4.9-0.1-7.3-0.6
				c-2.4-0.4-4.8-1.1-7-2.2h0.2c-2.3,1.1-4.8,1.8-7.4,2.2c-2.5,0.4-5.1,0.5-7.6,0.4c-2.6-0.1-5.1-0.5-7.6-1.2
				c-2.5-0.7-4.9-1.7-6.9-3.3l0.2,0c-4.1,1.9-7.8,4.6-10.4,8.3c-2.6,3.6-4.2,8-5,12.4c-0.2,1.1-0.4,2.2-0.5,3.3
				c-0.1,0.6-0.1,1.1-0.2,1.7c0,0.5,0,1.1,0,1.6c0.1,2.2,0.8,4.4,1.3,6.6c0.2,1.1,0.4,2.3,0.4,3.4c0,1.2-0.2,2.3-0.5,3.5
				c-0.5,2.3-1.3,4.3-1.1,6.5c0.1,2.2,0.9,4.3,2.4,5.9c1.4,1.7,3.3,2.9,5.3,3.8c4,1.9,8.5,2.9,12.9,3.7
				C64.8,117,73.9,117.3,83,117.3z"/>
		</g>
	</g>
	<path class="st1" d="M102,187c-9,4-19,1-29,0c4.6,6.5,4.1,12.9,3.2,20.2c0.5,0.2,2.5,0.2,2.2-17.2c0,0,11,4.7,18.7,0
		c0,0-0.5,21.8,5.1,17.3C98,202.7,99.7,193.1,102,187z"/>
	<path class="st1" d="M66.4,138.2c-4.7,17.5-9.6,44.8-0.7,59.8c-5.4-16.7,1.3-33.4,1.3-51c14,5,29,5,41-2
		c4.8,15.2,4.4,30.4,2.7,45.7c0.2-0.7,0.5-1.3,0.7-2c0,0,3-5.4,2-25c-0.5-9.7-2.8-20.2-5.1-28.4C94.6,138,80.5,138.6,66.4,138.2z"/>
	<path d="M73,178c-4.9,0.8-8.4-1-12.3-2.8c0,2.5,0.1,4.9,0.3,7.2C65.6,182.9,70.3,182.1,73,178z"/>
	<path d="M96,166c5.4,2.3,11.5,4,17.7,4.2c0-2-0.1-4.2-0.2-6.7c0-0.6-0.1-1.1-0.1-1.7C108.4,165.2,102.8,166.8,96,166z"/>
	<path d="M100,179c3.7,3.7,8.4,3,13.1,2.8c0.2-1.5,0.4-3.4,0.5-5.6C109.3,178.3,105.2,179.7,100,179z"/>
	<path d="M101,152c3.5,2.1,7.6,2.7,11.4,1.8c-0.4-2.3-0.8-4.7-1.2-6.9C109.2,150.6,106.2,153.5,101,152z"/>
	<path d="M77,164c-5.5,0.8-10.5-1.6-15.3-3.1c-0.4,2.7-0.6,5.5-0.8,8.2C66.8,169.7,72.5,168.5,77,164z"/>
	<path d="M64.1,147.5c-0.3,1.4-0.6,2.9-0.9,4.3c3.3-0.2,6.5-1.5,9.8-2.8C69.9,148.2,66.8,148.6,64.1,147.5z"/>
	<g>
		<path class="st10" d="M89,117.3c-1.9,0-3.9,0.1-6,0.1c-0.2,0-0.5,0-0.7,0c-7,22.9-11.3,51.1-3.3,72.8c1.9,0.7,8.9,3,15,1.2
			C90.5,166.9,98.6,141.7,89,117.3z"/>
		<g>
			<path d="M88.9,117.4c-2.2,0.1-4.4,0.2-6.7,0.2l0.2-0.1c-1.7,5.9-3.2,11.9-4.4,18c-0.6,3-1.1,6.1-1.5,9.1c-0.5,3-0.8,6.1-1.1,9.2
				c-0.6,6.1-0.7,12.3-0.2,18.5c0.5,6.1,1.8,12.2,4,18l-0.1-0.1c2.4,0.9,4.9,1.4,7.4,1.7c2.5,0.2,5.1,0.1,7.4-0.6l-0.3,0.4
				c-1-6.2-1.1-12.5-1-18.7c0.1-6.2,0.5-12.5,0.7-18.7c0.2-6.2,0.3-12.4-0.3-18.6c-0.3-3.1-0.8-6.2-1.5-9.2
				C90.9,123.3,90,120.3,88.9,117.4z M89,117.3c1.2,2.9,2.2,5.8,3,8.9c0.8,3,1.3,6.1,1.7,9.2c0.7,6.2,0.9,12.5,0.7,18.7l-0.7,18.7
				c-0.2,6.2,0,12.4,0.8,18.6l0,0.3l-0.3,0.1c-2.5,0.7-5.2,0.8-7.7,0.5c-2.6-0.3-5.1-0.9-7.5-1.8l-0.1,0l0-0.1
				c-2.1-5.8-3.3-12-3.9-18.1c-0.6-6.2-0.7-12.4-0.3-18.6c0.2-3.1,0.6-6.2,1-9.2c0.5-3.1,1-6.1,1.6-9.1c1.3-6.1,2.9-12,4.8-17.9
				l0-0.1l0.1,0C84.5,117.2,86.7,117.3,89,117.3L89,117.3L89,117.3z"/>
		</g>
	</g>
	<path class="st1" d="M137.8,38.5c-1.4,23.2,9.6,58.8-16.4,76.6c-0.8,0.5-1.4,1.2-1.9,2.1c18.1-6.3,24.7-19.3,28.2-41
		c2.1-13.3,1.8-27-5.5-39.4l0,0c0,0,7.9,0.3,14.9-15.5c0.7-1.5,1.1-2.8,1.3-4C154.1,27.5,137.8,32.2,137.8,38.5z"/>
	<path class="st1" d="M22.4,40.2c-5.7,11.7-5.9,24.6-3.8,36.4c3.3,18.5,8.6,30.6,21.1,37.6c-0.1-0.2-0.2-0.3-0.3-0.5
		C27.7,90.4,12.4,65.9,22.4,40.2z"/>
	
		<ellipse transform="matrix(-0.9994 -3.428255e-002 3.428255e-002 -0.9994 86.3022 96.6853)" class="st0" cx="44" cy="47.6" rx="9.9" ry="2.9"/>
	<path class="st12" d="M36.8,45.3c0,0.7,0.8,1.3,1.9,1.4c1.1,0,2-0.5,2-1.3c0-0.7-0.8-1.3-1.9-1.4C37.7,44,36.8,44.6,36.8,45.3z"/>
	<path d="M130.9,53.6c5.4,0,11.4,0,16.8-2c-0.5-2.6-1.3-5.3-2.2-7.8C141.8,48.6,137.1,51.5,130.9,53.6z"/>
	<path d="M24.3,68.6c3.1,3.9,6.6,7.7,10.6,10.8c0.2-1.5,0.4-3,0.6-4.4C31.2,73.8,27.7,69.8,24.3,68.6z"/>
	<path d="M33.8,93.2c-7.3-0.9-11-4.9-13.8-9.5c1,4.1,2.1,7.8,3.4,11.1C26.6,95.8,29.9,95.7,33.8,93.2z"/>
	<path d="M31.1,59c-5.1-2-8.7-6.3-11.8-10.7c-1,3.6-1.6,7.3-1.8,11C21.7,60.8,26.4,60.6,31.1,59z"/>
	<path d="M135,91.9c3.8-1.3,7.4-3.2,10.6-5.5c0.6-2.2,1.1-4.6,1.5-7.1C144.8,84.7,140.3,88.7,135,91.9z"/>
	<path class="st0" d="M125.7,45.5c0.1,1.6-4.3,3-9.8,3.2c-5.5,0.2-9.9-0.9-10-2.5c-0.1-1.6,4.3-3,9.8-3.2
		C121.2,42.8,125.7,44,125.7,45.5z"/>
	
		<ellipse transform="matrix(0.9994 -3.384986e-002 3.384986e-002 0.9994 -1.4084 4.1241)" class="st12" cx="121.1" cy="43.7" rx="1.9" ry="1.2"/>
	<path d="M125.7,74c0.7,2.4,1.1,4.9,1.1,7.7c0,2,0.2,2.6,0.6,4.3c7.8-2.7,12.6-12.7,15.8-20.1C138.1,71,133,73.7,125.7,74z"/>
	<g>
		<g>
			<path class="st10" d="M43.1,18.6C43.1,18.4,43.1,18.4,43.1,18.6L43.1,18.6z"/>
			<path d="M43.1,18.6L43.1,18.6c-0.4,0-0.5,0-0.4,0c0.1,0,0.2-0.1,0.2-0.1c0,0,0,0,0,0c0,0,0,0,0,0C42.9,18.6,43,18.7,43.1,18.6
				c0,0.1,0.1,0.1,0.2,0c0.1-0.1,0.1-0.2,0.1-0.2c0,0,0,0,0.1,0l0.1,0c0,0,0.1,0,0.1,0C43.6,18.4,43.5,18.5,43.1,18.6L43.1,18.6z
				 M43.1,18.6c-0.3,0-0.4,0-0.5,0c0,0,0,0,0-0.1c0,0,0,0,0.1-0.1l0.1,0c0-0.1,0-0.2,0.1-0.2c0.1-0.1,0.2-0.1,0.2-0.1
				c0.1,0,0.3,0.1,0.2,0.2c0,0,0,0,0,0c0,0,0,0,0,0c0,0,0.2,0,0.3,0C43.6,18.5,43.5,18.5,43.1,18.6L43.1,18.6L43.1,18.6z"/>
		</g>
		<g>
			<path class="st10" d="M79.4,40.4c-0.1,0-0.2,0-0.3,0C42.3,41.4,23,57.5,34,78.3c2-10.9,8.9-20.1,17.1-23.8
				c3.3,2.6,9.2,4.4,15.9,4.4c5.2,0,9.9-1,13.3-2.7c0.2,0.1,0.4,0.2,0.6,0.3C78.8,51.4,78.1,45.9,79.4,40.4z"/>
			<path d="M79.3,40.5c-6,0.3-12,1-17.8,2.2c-5.9,1.2-11.6,3-16.9,5.8c-2.6,1.4-5.1,3.1-7.3,5.1c-2.1,2.1-4,4.5-5,7.3
				c-1.1,2.8-1.4,5.9-0.9,8.8c0.4,3,1.5,5.8,2.9,8.4l-0.4,0.1c0.9-5,2.8-9.9,5.7-14.1c2.9-4.2,6.7-7.9,11.5-10.1l0.3-0.1l0.3,0.2
				c1.9,1.5,4.3,2.5,6.7,3.1c2.4,0.7,4.9,1,7.4,1.1c2.5,0.1,5,0,7.5-0.4c2.5-0.4,4.9-1,7.2-2.1l0.2-0.1l0.2,0.1l0.6,0.3l-0.4,0.4
				c-1.1-2.5-1.8-5.2-2.1-8C78.4,45.9,78.6,43.1,79.3,40.5z M79.4,40.4c-1.1,5.4-0.3,11,1.9,15.9l0.4,0.8l-0.8-0.3l-0.6-0.3l0.3,0
				c-2.3,1.2-4.8,1.9-7.3,2.3c-2.5,0.4-5.1,0.6-7.7,0.5c-2.6-0.1-5.1-0.4-7.6-1.1c-2.5-0.7-5-1.7-7-3.3l0.5,0.1
				c-4.5,2-8.3,5.6-11.2,9.6c-2.9,4.1-4.9,8.8-5.9,13.7L34.1,79l-0.3-0.6c-1.4-2.7-2.4-5.6-2.8-8.6c-0.4-3-0.1-6.1,0.9-9
				c1.1-2.9,2.8-5.5,4.9-7.6c2.2-2.2,4.6-4,7.3-5.4c5.3-3,11.3-4.7,17.2-5.8C67.3,40.8,73.3,40.3,79.4,40.4L79.4,40.4L79.4,40.4z"/>
		</g>
		<g>
			<path class="st10" d="M132.3,63.1c-5.9-17.8-19.8-23.6-52.9-22.7c-1.3,5.5-0.6,11,1.6,16c3.3,1.5,7.8,2.4,12.7,2.4
				c6,0,11.4-1.4,14.8-3.5c10.9,5.1,18.1,12.4,18.3,25c0,0.5,0,1,0.1,1.3C132.1,76.8,134.8,71.4,132.3,63.1z"/>
			<path d="M132.2,63.2c-0.8-2.5-1.9-4.9-3.2-7.1c-1.3-2.2-3-4.2-5-5.9c-1.9-1.7-4.1-3.1-6.5-4.2c-2.3-1.1-4.8-2-7.3-2.6
				c-5-1.3-10.2-2-15.3-2.4c-5.2-0.4-10.4-0.5-15.6-0.4l0.2-0.1c-0.6,2.6-0.8,5.4-0.5,8.1c0.3,2.7,1.1,5.3,2.2,7.8l-0.1-0.1
				c4.3,1.8,9.1,2.4,13.8,2.2c2.3-0.1,4.7-0.4,6.9-1c2.3-0.6,4.5-1.4,6.4-2.6l0.2-0.1l0.2,0.1c2.6,1.2,5.2,2.6,7.5,4.3
				c2.3,1.7,4.5,3.7,6.2,6.1c1.7,2.3,3,5,3.8,7.8c0.4,1.4,0.6,2.8,0.8,4.3c0.2,1.4,0.1,2.9,0.2,4.3l-0.6-0.2c2.5-2.3,4.8-5,5.8-8.2
				c0.5-1.6,0.7-3.3,0.7-5C133.1,66.5,132.7,64.8,132.2,63.2z M132.3,63.1c0.5,1.6,0.9,3.3,1,5.1c0.1,1.7-0.1,3.5-0.6,5.1
				c-1,3.4-3.2,6.2-5.6,8.6l-0.5,0.5l-0.1-0.7c-0.1-1.5-0.1-2.9-0.3-4.3c-0.2-1.4-0.5-2.8-0.9-4.1c-0.8-2.7-2-5.2-3.7-7.5
				c-1.7-2.2-3.8-4.2-6-5.8c-2.3-1.6-4.8-3-7.3-4.2l0.5,0c-2.1,1.3-4.4,2.1-6.7,2.6c-2.3,0.6-4.7,0.8-7.1,0.9
				c-4.8,0.1-9.6-0.6-14-2.6l-0.1,0l0-0.1c-1.1-2.5-1.8-5.2-2.1-8c-0.3-2.7-0.1-5.5,0.5-8.2l0-0.1l0.1,0c5.2-0.1,10.4-0.2,15.7,0
				c5.2,0.2,10.5,0.8,15.5,2.2c2.5,0.7,5,1.6,7.4,2.8c2.3,1.2,4.5,2.7,6.4,4.5C128.2,53.4,130.7,58.2,132.3,63.1z"/>
		</g>
	</g>
	<path d="M86.9,39.1c0,3.3-3.5,8.6-7.8,8.6s-7.8-5.4-7.8-8.6c0-3.3,3.5-4.5,7.8-4.5S86.9,35.9,86.9,39.1z"/>
	<g>
		<path class="st2" d="M118,37.6c0,2.7-2.2,4.9-5.1,5c-2.9,0.1-5.2-2.1-5.3-4.8c0-2.7,2.2-4.9,5.1-5C115.6,32.7,117.9,34.9,118,37.6
			z"/>
		<path d="M116.7,37.6c0,2.7-2.2,4.9-5.1,5c-2.9,0.1-5.2-2.1-5.3-4.8c0-2.7,2.2-4.9,5.1-5C114.3,32.8,116.6,34.9,116.7,37.6z"/>
		<path class="st12" d="M109.8,36.9c0,0.5-0.4,0.8-0.9,0.8c-0.5,0-0.9-0.4-0.9-0.8c0-0.5,0.4-0.8,0.9-0.8
			C109.4,36.1,109.8,36.5,109.8,36.9z"/>
	</g>
	<g>
		<path class="st2" d="M55.3,39.4c0,2.7-2.2,4.9-5.1,5c-2.9,0.1-5.2-2.1-5.3-4.8c0-2.7,2.2-4.9,5.1-5C52.9,34.6,55.2,36.7,55.3,39.4
			z"/>
		<path d="M54,39.5c0,2.7-2.2,4.9-5.1,5c-2.9,0-5.2-2.1-5.3-4.8c0-2.7,2.2-4.9,5.1-5C51.6,34.6,53.9,36.7,54,39.5z"/>
		<path class="st12" d="M47.1,38.8c0,0.5-0.4,0.8-0.9,0.8c-0.5,0-0.9-0.4-0.9-0.8c0-0.5,0.4-0.8,0.9-0.8
			C46.7,37.9,47.1,38.3,47.1,38.8z"/>
	</g>
	<ellipse transform="matrix(0.9866 -0.1634 0.1634 0.9866 -5.0074 12.9381)" class="st12" cx="76.1" cy="36.9" rx="3" ry="0.6"/>
	<g>
		<path class="st10" d="M118.4,16.5c0,0,11.3,1.3,19.1-1.1c7.8-2.4,20.2-1.7,15.8,8.3c-4.5,10-9.5,9.9-9.5,9.9
			S127.1,26.2,118.4,16.5z"/>
		<path d="M118.4,16.4c4.8,0.2,9.5,0.2,14.2-0.4c1.2-0.2,2.3-0.4,3.5-0.7c1.1-0.3,2.3-0.7,3.5-0.9c2.4-0.5,4.8-0.6,7.2-0.4
			c1.2,0.1,2.4,0.3,3.5,0.7c1.1,0.4,2.2,1,3,2c0.8,0.9,1.1,2.2,1.1,3.4c-0.1,1.2-0.4,2.4-0.9,3.5c-0.9,2.2-2,4.4-3.5,6.3
			c-0.8,1-1.6,1.8-2.6,2.6c-1,0.7-2.1,1.3-3.6,1.4l-0.1,0l-0.1,0c-2.4-1-4.7-2.2-6.9-3.4c-2.3-1.3-4.5-2.5-6.6-4
			C125.7,23.7,121.6,20.5,118.4,16.4l-0.1,0L118.4,16.4z M118.5,16.5c1.8,1.8,3.7,3.4,5.7,4.9c2,1.5,4.2,3,6.3,4.3
			c2.2,1.3,4.4,2.6,6.6,3.9c2.3,1.2,4.5,2.4,6.8,3.5l-0.2,0c0.4,0,1-0.2,1.5-0.4c0.5-0.2,1-0.5,1.5-0.8c0.9-0.7,1.8-1.5,2.5-2.3
			c1.5-1.8,2.7-3.8,3.7-6c0.5-1.1,0.9-2.2,1-3.3c0.1-1.2-0.2-2.3-0.9-3.2c-0.7-0.9-1.8-1.5-2.9-1.8c-1.1-0.4-2.3-0.5-3.5-0.6
			c-2.4-0.1-4.7,0.2-7,0.7c-1.1,0.2-2.2,0.6-3.4,0.9c-1.2,0.3-2.4,0.5-3.6,0.6c-2.4,0.3-4.8,0.4-7.2,0.3
			C123.1,17.1,120.8,16.9,118.5,16.5z"/>
	</g>
	<g>
		<path class="st10" d="M118.4,16.5c0,0,11.3,1.3,19.1-1.1c7.8-2.4,20.2-1.7,15.8,8.3c-4.5,10-9.5,9.9-9.5,9.9
			S127.1,26.2,118.4,16.5z"/>
		<path d="M118.4,16.4c4.8,0.2,9.5,0.2,14.2-0.4c1.2-0.2,2.3-0.4,3.5-0.7c1.1-0.3,2.3-0.7,3.5-0.9c2.4-0.5,4.8-0.6,7.2-0.4
			c1.2,0.1,2.4,0.3,3.5,0.7c1.1,0.4,2.2,1,3,2c0.8,0.9,1.1,2.2,1.1,3.4c-0.1,1.2-0.4,2.4-0.9,3.5c-0.9,2.2-2,4.4-3.5,6.3
			c-0.8,1-1.6,1.8-2.6,2.6c-1,0.7-2.1,1.3-3.6,1.4l-0.1,0l-0.1,0c-2.4-1-4.7-2.2-6.9-3.4c-2.3-1.3-4.5-2.5-6.6-4
			C125.7,23.7,121.6,20.5,118.4,16.4l-0.1,0L118.4,16.4z M118.5,16.5c1.8,1.8,3.7,3.4,5.7,4.9c2,1.5,4.2,3,6.3,4.3
			c2.2,1.3,4.4,2.6,6.6,3.9c2.3,1.2,4.5,2.4,6.8,3.5l-0.2,0c0.4,0,1-0.2,1.5-0.4c0.5-0.2,1-0.5,1.5-0.8c0.9-0.7,1.8-1.5,2.5-2.3
			c1.5-1.8,2.7-3.8,3.7-6c0.5-1.1,0.9-2.2,1-3.3c0.1-1.2-0.2-2.3-0.9-3.2c-0.7-0.9-1.8-1.5-2.9-1.8c-1.1-0.4-2.3-0.5-3.5-0.6
			c-2.4-0.1-4.7,0.2-7,0.7c-1.1,0.2-2.2,0.6-3.4,0.9c-1.2,0.3-2.4,0.5-3.6,0.6c-2.4,0.3-4.8,0.4-7.2,0.3
			C123.1,17.1,120.8,16.9,118.5,16.5z"/>
	</g>
	<g>
		<path class="st10" d="M50.5,14c0,0-11.7,2.7-20.1,1.1C21.9,13.6,9,15.7,14.8,25.7c5.8,9.9,11.1,9.2,11.1,9.2S42.5,25.2,50.5,14z"
			/>
		<path d="M50.3,14.1c-2.4,0.6-4.8,1.1-7.2,1.4c-2.5,0.4-5,0.5-7.5,0.5c-1.3,0-2.5-0.1-3.8-0.2c-1.3-0.2-2.5-0.5-3.7-0.6
			c-2.5-0.3-5-0.3-7.4,0.1c-1.2,0.2-2.4,0.5-3.6,1c-1.1,0.5-2.2,1.2-2.8,2.3c-0.7,1-0.9,2.3-0.6,3.5c0.2,1.2,0.8,2.3,1.4,3.4
			c1.3,2.1,2.8,4.1,4.6,5.8c0.9,0.8,1.9,1.6,2.9,2.2c0.5,0.3,1.1,0.5,1.6,0.7c0.5,0.2,1.2,0.3,1.6,0.2l-0.2,0.1
			c2.3-1.4,4.5-2.9,6.7-4.4c2.2-1.5,4.4-3.2,6.5-4.8c2.1-1.7,4.1-3.4,6.1-5.3C46.9,18.1,48.7,16.2,50.3,14.1z M50.5,14.1
			c-3,4.5-6.9,8.4-11.1,11.8c-2.1,1.8-4.3,3.4-6.5,4.9c-2.2,1.6-4.5,3-6.8,4.4L26,35.3l-0.1,0c-1.5,0.1-2.7-0.5-3.9-1.1
			c-1.1-0.6-2.1-1.5-3.1-2.4c-1.8-1.8-3.2-3.9-4.5-6.1c-0.6-1.1-1.1-2.3-1.3-3.6c-0.2-1.3,0-2.6,0.7-3.7c0.7-1.1,1.8-1.9,2.9-2.4
			c1.2-0.5,2.4-0.9,3.6-1.2c2.5-0.5,5-0.6,7.6-0.4c1.3,0.1,2.5,0.4,3.7,0.5c1.2,0.2,2.5,0.3,3.7,0.3C40.5,15.3,45.5,14.8,50.5,14.1
			L50.5,14.1L50.5,14.1z"/>
	</g>
	<g>
		<g>
			<line class="st12" x1="104" y1="46.9" x2="121.6" y2="40.3"/>
			<path d="M104,46.9c2.8-1.5,5.7-2.6,8.6-3.8c2.9-1.1,5.9-2.1,9-2.8c-2.8,1.5-5.7,2.6-8.6,3.8C110.1,45.2,107.1,46.2,104,46.9z"/>
		</g>
		<g>
			<line class="st12" x1="107" y1="48.5" x2="125.8" y2="48.9"/>
			<path d="M107,48.5c3.1-0.3,6.3-0.4,9.4-0.3c3.1,0.1,6.3,0.2,9.4,0.7c-3.1,0.3-6.3,0.4-9.4,0.3C113.3,49.1,110.2,48.9,107,48.5z"
				/>
		</g>
		<g>
			<line class="st12" x1="104" y1="50" x2="121.3" y2="57.3"/>
			<path d="M104,50c3,0.9,6,2,8.9,3.2c2.9,1.2,5.7,2.5,8.5,4.1c-3-0.8-6-2-8.9-3.2C109.6,52.9,106.7,51.6,104,50z"/>
		</g>
	</g>
	<g>
		<g>
			<line class="st12" x1="52.6" y1="48.5" x2="35" y2="41.9"/>
			<path d="M52.6,48.5c-3.1-0.7-6-1.7-9-2.8c-2.9-1.1-5.8-2.3-8.6-3.8c3.1,0.7,6,1.7,9,2.8C46.9,45.8,49.8,47,52.6,48.5z"/>
		</g>
		<g>
			<line class="st12" x1="49.6" y1="50" x2="30.8" y2="50.4"/>
			<path d="M49.6,50c-3.1,0.5-6.3,0.6-9.4,0.7c-3.1,0-6.3,0-9.4-0.3c3.1-0.5,6.3-0.6,9.4-0.7C43.3,49.7,46.5,49.7,49.6,50z"/>
		</g>
		<g>
			<line class="st12" x1="52.6" y1="51.6" x2="35.3" y2="58.9"/>
			<path d="M52.6,51.6c-2.7,1.6-5.6,2.9-8.5,4.1c-2.9,1.2-5.8,2.3-8.9,3.2c2.7-1.6,5.6-2.9,8.5-4.1C46.7,53.6,49.6,52.4,52.6,51.6z"
				/>
		</g>
	</g>
	<path d="M93.9,20.7c-3.7-1.2-7.7-1.8-11.7-2c0.5-1.3,0.9-2.7,1.3-4c9.2-0.7,16.1-2.6,16.1-2.6c-4.7-1.6-9.8-2.3-14.8-2.5
		c0.1-0.3,0.1-0.6,0.2-0.9c-1,0-2,0-3,0c-3.9,0-7.4,0.2-10.7,0.6c0,0.3,0.1,0.5,0.1,0.8c-7.6,0.8-13,2.1-13,2.1
		c4.3,1.6,9,2.4,13.6,2.7c0.2,1.4,0.4,2.8,0.6,4.2c-6.5,0.6-11.3,1.8-11.3,1.8c3.8,1.4,8,2.1,12.1,2.2c0.4,1.4,0.8,2.8,1.3,4.2
		c-5.2,0.4-9,1.4-9,1.4c3.2,1.2,6.9,1.6,10.3,1.7c0.5,1,1,2,1.5,2.9c0.3-1,0.5-2,0.8-3c6.2-0.3,11.1-1.6,11.1-1.6
		c-3.2-1.1-6.8-1.5-10.2-1.5c0.5-1.4,0.9-2.8,1.4-4.2C88.2,22.2,93.9,20.7,93.9,20.7z"/>
	<path d="M114.1,89.8c0.1,2.4-2.2,4.5-5,4.6c-2.9,0.1-5.2-1.8-5.3-4.3c-0.1-2.4,2.2-4.5,5-4.6C111.7,85.5,114,87.4,114.1,89.8z"/>
	<path d="M116.5,82c0.1,0.8-2.9,1.8-6.7,2.4c-3.8,0.5-6.9,0.4-7.1-0.4c-0.1-0.8,2.9-1.8,6.7-2.4C113.2,81.1,116.4,81.2,116.5,82z"/>
	<path class="st12" d="M107.5,89.3c0,0.4-0.4,0.8-1,0.8c-0.6,0-1.1-0.3-1.1-0.8c0-0.4,0.4-0.8,1-0.8C107,88.5,107.5,88.8,107.5,89.3
		z"/>
	<path d="M49.5,90.5c-0.1,2.4,2.2,4.5,5,4.6c2.9,0.1,5.2-1.8,5.3-4.3c0.1-2.4-2.2-4.5-5-4.6C52,86.1,49.6,88,49.5,90.5z"/>
	<path d="M47.1,82.6C47,83.4,50,84.4,53.8,85c3.8,0.5,6.9,0.4,7.1-0.4c0.1-0.8-2.9-1.8-6.7-2.4C50.4,81.7,47.3,81.9,47.1,82.6z"/>
	
		<ellipse transform="matrix(-0.9994 -3.433616e-002 3.433616e-002 -0.9994 100.3659 181.5361)" class="st12" cx="51.7" cy="89.9" rx="1.1" ry="0.8"/>
	<path class="st7" d="M126.3,97.2c0.1,1.6-4.3,3-9.8,3.2c-5.5,0.2-9.9-0.9-10-2.5c-0.1-1.6,4.3-3,9.8-3.2
		C121.8,94.5,126.2,95.6,126.3,97.2z"/>
	
		<ellipse transform="matrix(0.9994 -3.426283e-002 3.426283e-002 0.9994 -3.1945 4.2242)" class="st12" cx="121.7" cy="95.3" rx="3" ry="2"/>
	<path class="st7" d="M38.9,97.9c-0.1,1.6,4.3,3,9.8,3.2c5.4,0.2,9.9-0.9,10-2.5c0.1-1.6-4.3-3-9.8-3.2C43.4,95.2,39,96.3,38.9,97.9
		z"/>
	
		<ellipse transform="matrix(-0.9994 -3.418796e-002 3.418796e-002 -0.9994 83.792 193.4371)" class="st12" cx="43.5" cy="96" rx="3" ry="2"/>
	<path class="st1" d="M65.7,119.3c13.8,5.3,28.8,7.6,40.7-0.6c-6.2,0.8-14,1.2-23.5,1.2C76.4,119.9,70.7,119.7,65.7,119.3z"/>
	<g>
		<path class="st11" d="M72.8,119.3c0,0,8.7-6.3,23,0c0,0,3.2,1.2,1.9,4.9c-1.2,3.7,0.3,4.8,0.3,4.8l-2.4-2.9c0,0,3.8,6.3,3.5,11.3
			c0,0.3,0,0.6-0.1,0.9c-0.9,5.1-1.9,4.7-3.9,9.1c0,0-6.2-1.1-4.1-6.5c0,0-1.8,3.1,0,8.1c0,0-5.9,0-6.6-8.4c0,0,1,6.5-2.7,6.8
			c0,0,1.4-2.7,0-6.8l-1.7,3.2c0,0-8.2-4.7-3.2-16.4l-3.9,4c0,0,5.1-7.1,1.9-9.3C71.5,120,72.8,119.3,72.8,119.3z"/>
		<path d="M72.8,119.2c2.5-1.6,5.3-2.4,8.2-2.7c2.9-0.4,5.9-0.2,8.7,0.4c1.4,0.3,2.8,0.7,4.2,1.2c0.7,0.2,1.4,0.5,2,0.8
			c0.8,0.3,1.4,0.8,1.9,1.5c0.5,0.7,0.7,1.5,0.6,2.3c0,0.8-0.3,1.6-0.5,2.2c-0.2,0.7-0.3,1.4-0.3,2c0,0.3,0.1,0.7,0.2,0.9
			c0.1,0.3,0.3,0.6,0.4,0.7l-0.6,0.6l-2.4-2.9l0.6-0.5c0.9,1.7,1.7,3.5,2.3,5.3c0.6,1.8,1.1,3.7,1,5.7c0,1-0.2,1.9-0.4,2.9
			c-0.2,0.9-0.5,1.9-0.9,2.7c-0.4,0.9-1,1.7-1.5,2.5c-0.5,0.8-0.9,1.7-1.3,2.5l-0.1,0.1l-0.1,0c-0.8-0.2-1.5-0.4-2.2-0.8
			c-0.7-0.4-1.3-0.8-1.8-1.5c-0.5-0.6-0.8-1.4-0.8-2.2c0-0.8,0.2-1.6,0.4-2.3l0.4,0.2c-0.3,0.6-0.5,1.2-0.6,1.9
			c-0.1,0.7-0.1,1.3-0.1,2c0.1,1.3,0.4,2.7,0.8,3.9l0.2,0.5l-0.5,0c-1.1,0-2.1-0.4-3-0.9c-0.9-0.5-1.7-1.3-2.2-2.1
			c-1.2-1.7-1.7-3.7-1.9-5.7l0.9-0.1c0.1,0.7,0.1,1.4,0.1,2.1c0,0.7-0.1,1.4-0.2,2.1c-0.2,0.7-0.4,1.4-0.9,2c-0.5,0.6-1.3,1-2.1,1.1
			l-0.9,0.1l0.4-0.8c0.2-0.4,0.3-1,0.4-1.5c0.1-0.5,0.1-1.1,0.1-1.6c0-1.1-0.2-2.2-0.6-3.3l1,0.1l-1.7,3.2l-0.3,0.5l-0.4-0.3
			c-1.4-0.9-2.5-2.1-3.3-3.4c-0.8-1.4-1.4-2.9-1.6-4.4c-0.4-3.2,0.4-6.3,1.6-9.1l0.6,0.4l-4,3.9l-0.4-0.3c0.7-0.9,1.3-2,1.8-3
			c0.5-1,1-2.1,1.2-3.3c0.1-0.6,0.1-1.2-0.1-1.7c-0.2-0.6-0.6-1-1.1-1.3c-0.5-0.4-1-0.7-1.3-1.2c-0.2-0.2-0.4-0.5-0.5-0.8
			C72.4,119.8,72.5,119.4,72.8,119.2z M72.8,119.3c-0.2,0.2-0.3,0.5-0.2,0.7c0.1,0.3,0.3,0.5,0.5,0.7c0.4,0.4,0.9,0.8,1.3,1.1
			c0.5,0.3,1,0.7,1.2,1.3c0.2,0.6,0.2,1.2,0.2,1.8c-0.2,1.2-0.6,2.3-1.1,3.4c-0.5,1.1-1.1,2.1-1.8,3.1l-0.4-0.3l3.8-4.1l1.3-1.4
			l-0.7,1.8c-1.1,2.8-1.8,5.8-1.3,8.7c0.2,1.4,0.7,2.8,1.5,4.1c0.8,1.2,1.8,2.3,3,3.1l-0.7,0.2l1.7-3.2l0.6-1.1l0.4,1.2
			c0.4,1.1,0.6,2.4,0.6,3.6c0,0.6,0,1.2-0.1,1.8c-0.1,0.6-0.3,1.2-0.5,1.8l-0.5-0.7c0.6-0.1,1.1-0.3,1.4-0.7c0.4-0.4,0.6-1,0.8-1.6
			c0.3-1.2,0.3-2.6,0.1-3.9l0.9-0.1c0.2,1.9,0.6,3.8,1.6,5.3c0.5,0.8,1.2,1.4,2,1.9c0.8,0.5,1.7,0.8,2.6,0.9l-0.3,0.5
			c-0.5-1.3-0.7-2.7-0.8-4.2c0-0.7,0.1-1.4,0.2-2.1c0.1-0.7,0.3-1.4,0.7-2l0.4,0.2c-0.3,0.7-0.5,1.4-0.5,2.1c0,0.7,0.2,1.4,0.7,2
			c0.9,1.2,2.3,1.8,3.7,2.1l-0.2,0.1c0.4-0.9,0.8-1.7,1.3-2.6c0.5-0.8,1-1.6,1.4-2.5c0.4-0.8,0.7-1.8,0.9-2.7
			c0.2-0.9,0.4-1.9,0.4-2.8c0-1.9-0.5-3.7-1.2-5.5c-0.7-1.8-1.5-3.5-2.4-5.1l0.6-0.5l2.4,2.8l-0.6,0.6c-0.8-0.7-0.9-1.5-1-2.3
			c0-0.8,0.1-1.6,0.3-2.3c0.2-0.8,0.4-1.4,0.5-2c0-0.7-0.1-1.3-0.5-1.8c-0.3-0.5-0.9-1-1.5-1.2c-0.7-0.3-1.3-0.6-2-0.8
			c-1.3-0.5-2.7-1-4.1-1.3c-2.8-0.7-5.7-1-8.6-0.8C78.1,117,75.3,117.8,72.8,119.3z"/>
	</g>
	<g>
		<path class="st11" d="M98,129l-0.3-0.4C97.9,128.8,98,129,98,129z"/>
		<path d="M98,129L98,129c-0.2,0.1-0.3,0.1-0.4,0.1c-0.1,0-0.1,0-0.1-0.1c0-0.1,0.1-0.2,0.1-0.3c0-0.1-0.1-0.1-0.2,0l0.4-0.3
			c0.2,0,0.3,0,0.3,0C98.3,128.5,98.2,128.6,98,129L98,129z M98,129c-0.3,0.2-0.5,0.2-0.6,0.1c-0.1-0.1-0.1-0.2,0-0.4l1-1.6
			l-0.6,1.3c0,0.1-0.1,0.2,0,0.2c0.1,0,0.2-0.1,0.3-0.1c0.1,0,0.1,0.1,0.1,0.1C98.2,128.7,98.2,128.8,98,129L98,129L98,129z"/>
	</g>
	<g>
		<path class="st11" d="M84.4,140.7C84.4,140.6,84.4,140.6,84.4,140.7C84.4,140.6,84.4,140.6,84.4,140.7z"/>
		<path d="M84.3,140.7c-0.2,0-0.3,0-0.3,0c-0.1,0-0.1,0,0,0c0.1,0,0.2,0,0.2-0.1c0,0,0,0-0.1,0l0.5-0.1c0.2,0,0.3,0,0.3,0
			C84.9,140.6,84.8,140.6,84.3,140.7L84.3,140.7L84.3,140.7z M84.4,140.7L84.4,140.7c-0.4,0-0.5,0-0.5,0c0,0,0.1,0,0.3-0.1l1-0.2
			l-0.4,0.1c-0.1,0-0.1,0-0.1,0l0.3,0c0.1,0,0,0,0,0C84.7,140.6,84.6,140.6,84.4,140.7L84.4,140.7z"/>
	</g>
	<path class="st6" d="M95.6,126.1l2.1,2.5c-0.4-0.6-0.8-1.9,0.1-4.4c1.2-3.7-1.9-4.9-1.9-4.9c-1.9-0.8-3.7-1.4-5.4-1.9
		c2.8,2.8,2.6,7.4,0.5,11.6c0,1-3-1-4-2c0,1,0,3,0,4c-1,1-3-1-4-2c0,5.8-4.1,3.4-7.8,3.5c-1.1,8,4.7,11.3,4.7,11.3l1.7-3.2
		c1.4,4.1,0,6.8,0,6.8c3.4-0.3,2.8-6,2.8-6.7c0,0,0-0.1,0-0.1c0,0,0,0,0,0.1C85.1,149,91,149,91,149c-1.8-4.9,0-8.1,0-8.1
		c-2.1,5.4,4.1,6.5,4.1,6.5c2-4.4,3-4,3.9-9.1c0.1-0.3,0.1-0.6,0.1-0.9C99.4,132.4,95.6,126.1,95.6,126.1z"/>
	<g>
		<path class="st11" d="M84,148c0-0.1,0-0.1,0-0.1C84,148,84,148,84,148z"/>
		<path d="M83.9,148c-0.2,0-0.3,0-0.3,0c-0.1,0-0.1,0,0,0c0.1,0,0.2,0,0.2-0.1c0,0,0,0-0.1,0l0.5-0.1c0.2,0,0.3,0,0.3,0
			C84.5,147.9,84.4,148,83.9,148L83.9,148L83.9,148z M84,148L84,148c-0.4,0-0.5,0-0.5,0c0,0,0.1-0.1,0.2-0.1l2.5-0.5l-2,0.5
			c-0.1,0-0.1,0-0.1,0c0,0,0.2,0,0.3,0c0.1,0,0,0,0,0C84.3,148,84.2,148,84,148L84,148z"/>
	</g>
	<g>
		<path class="st8" d="M79.1,106.6c0,0,3.6-0.9,6.7-0.2"/>
		<path d="M79.1,106.6c0.5-0.3,1.1-0.5,1.6-0.7c0.6-0.2,1.1-0.2,1.7-0.3c1.2,0,2.4,0.1,3.4,0.8c-1.2,0.1-2.2,0.2-3.3,0.2
			C81.4,106.7,80.3,106.7,79.1,106.6z"/>
	</g>
	<g>
		<path class="st9" d="M101.8,120.2c0,0,36.1,23.2-18.9,27.1l18.2-13.8l-3.7-3.4"/>
		<path d="M101.9,120.2c2,1.2,3.8,2.5,5.5,4c1.7,1.5,3.3,3.2,4.6,5.1c0.6,1,1.2,2,1.5,3.2c0.3,1.1,0.5,2.4,0.2,3.6
			c-0.2,1.2-0.8,2.3-1.6,3.2c-0.8,0.9-1.7,1.6-2.7,2.2c-2,1.2-4.1,2-6.3,2.7c-2.2,0.7-4.4,1.2-6.6,1.7c-4.5,1-9,1.5-13.6,1.9
			l-1.6,0.1l1.3-1c3-2.4,6.1-4.6,9.1-6.9l4.6-3.4c1.5-1.1,3.1-2.2,4.6-3.3l0,0.4l-3.6-3.5l0.1-0.1l3.9,3.2l0.2,0.2l-0.2,0.2
			c-1.5,1.2-3,2.4-4.4,3.6l-4.5,3.5c-3,2.3-6,4.7-9.1,6.9l-0.3-0.9c4.5-0.3,9-0.7,13.5-1.4c2.2-0.4,4.5-0.8,6.6-1.5
			c2.2-0.7,4.3-1.6,6.1-2.8c1.8-1.3,3.4-3,3.7-5.2c0.4-2.1-0.5-4.3-1.7-6.1C108.9,126.1,105.4,123,101.9,120.2L101.9,120.2z"/>
	</g>
	<path class="st1" d="M101.4,142.2c1.6-3.2,7.4-4.9,5.8-7c-1.6-2.5-5.3-3.4-8.9-4.1l2.8,2.5L83,147.4c19.4-1.4,27.4-5.1,29.7-9.5
		C109.5,141,106,143.1,101.4,142.2z"/>
	<g>
		<path class="st9" d="M72.2,120.9c0,0-26.1,17.2-3.2,24.7c23,7.6,30-9.7,31.2-11.1l1-1c0,0-16.8-2.6-28.6,2.1l2.1-3.8"/>
		<path d="M72.2,120.9c-2.4,1.8-4.6,3.7-6.7,5.8c-2,2.1-3.9,4.4-5,7.1c-0.5,1.3-0.7,2.8-0.4,4.1c0.3,1.4,1.1,2.6,2.1,3.5
			c2.1,2,4.9,3.2,7.7,4.1c2.8,0.9,5.7,1.6,8.7,1.7c2.9,0.1,5.9-0.3,8.7-1.3c2.7-1,5.2-2.7,7.3-4.7c1-1,2-2.1,2.8-3.3
			c0.4-0.6,0.8-1.2,1.2-1.8l0.6-1c0.2-0.3,0.3-0.6,0.6-1l0,0l0,0l1-1l0.3,0.9c-2.4-0.3-4.8-0.5-7.2-0.6c-2.4-0.1-4.8-0.1-7.2,0
			c-2.4,0.1-4.8,0.3-7.2,0.7c-2.4,0.4-4.7,0.9-7,1.7l-0.5,0.2l0.3-0.4l2.2-3.8l0.1,0l-1.9,3.9l-0.2-0.3c2.2-1,4.6-1.6,7-2.1
			c2.4-0.5,4.8-0.7,7.2-0.9c2.4-0.2,4.9-0.2,7.3-0.1c2.4,0.1,4.8,0.3,7.3,0.6l1,0.2l-0.7,0.7l-1,1l0,0c-0.2,0.2-0.4,0.6-0.5,0.9
			l-0.6,1c-0.4,0.6-0.8,1.3-1.3,1.9c-0.9,1.2-1.9,2.4-3,3.4c-2.2,2.1-4.9,3.7-7.7,4.6c-2.9,0.9-5.9,1.2-8.9,1.1
			c-3-0.2-5.9-0.7-8.8-1.6c-2.8-0.8-5.7-1.9-8.1-3.9c-1.1-1-2.1-2.4-2.4-4c-0.4-1.6,0-3.2,0.5-4.6c1.2-2.9,3.2-5.2,5.3-7.3
			C67.2,124.2,69.6,122.4,72.2,120.9L72.2,120.9z"/>
	</g>
	<path class="st1" d="M72.5,135.6l2.1-3.8l-0.1-0.3c-2.8,1.8-5.6,3.7-8.3,5.3c7.4,6.5,16.9,1.1,25.3,0.5c-5.8,9.2-20.5,7.6-29,1.6
		c-1.3-1-2.2-2.2-2.8-3.6C59,139.2,61,143,69,145.6c23,7.6,30-9.7,31.2-11.1l1-1C101.1,133.5,84.4,130.9,72.5,135.6z"/>
</g>
</svg>
