<?xml version="1.0" encoding="utf-8"?>
<!-- Generator: Adobe Illustrator 15.1.0, SVG Export Plug-In . SVG Version: 6.00 Build 0)  -->
<!DOCTYPE svg PUBLIC "-//W3C//DTD SVG 1.1//EN" "http://www.w3.org/Graphics/SVG/1.1/DTD/svg11.dtd">
<svg version="1.1" id="Layer_1" xmlns="http://www.w3.org/2000/svg" xmlns:xlink="http://www.w3.org/1999/xlink" x="0px" y="0px"
	 width="146px" height="161px" viewBox="0 0 146 161" style="enable-background:new 0 0 146 161;" xml:space="preserve">
<style type="text/css">
<![CDATA[
	.st0{fill:#825E37;}
	.st1{opacity:0.25;}
	.st2{opacity:0.54;fill:#442916;}
	.st3{opacity:0.1;fill:#442916;}
	.st4{fill:#231F20;}
	.st5{fill:#FFE000;stroke:#000000;stroke-miterlimit:10;}
	.st6{fill:#F9D8AC;}
	.st7{fill:#FCC581;}
	.st8{opacity:0.52;fill:#FF9999;}
	.st9{opacity:0.43;fill:#442916;}
	.st10{fill:none;stroke:#000000;stroke-miterlimit:10;}
	.st11{fill:#FFFFFF;}
	.st12{fill:#754220;}
	.st13{fill:#442916;}
]]>
</style>
<g>
	<g>
		<path class="st12" d="M88.7,89.4l11.3,15.2c0,0,6.1,4.1-3.6,11c0,0,15,13,0.2,7.5"/>
		<path d="M88.7,89.4c2.1,2.4,4.1,4.9,6,7.4c1.9,2.5,3.6,5.2,5.4,7.8l0,0c0.9,0.7,1.6,1.7,1.9,2.9c0.3,1.2,0,2.4-0.5,3.5
			c-1.1,2.2-2.9,3.7-4.7,5.1l0-0.8c1.1,1,2.2,2,3.3,3.1c1,1.1,2.1,2.2,2.9,3.5c0.2,0.3,0.4,0.7,0.5,1.1c0.1,0.2,0.1,0.4,0.1,0.7
			c0,0.2,0,0.6-0.2,0.8c-0.4,0.5-0.9,0.5-1.3,0.5c-0.4,0-0.8-0.1-1.2-0.2c-1.5-0.3-2.9-0.9-4.2-1.5l0-0.1c1.4,0.4,2.9,0.8,4.3,1
			c0.4,0,0.7,0.1,1,0c0.3,0,0.6-0.1,0.7-0.2c0.1-0.1,0-0.4-0.1-0.7c-0.1-0.3-0.3-0.6-0.5-0.9c-0.8-1.2-1.8-2.2-2.9-3.3
			c-1-1-2.1-2.1-3.2-3.1l-0.5-0.4l0.5-0.3c0.9-0.6,1.8-1.3,2.6-2.1c0.8-0.8,1.6-1.6,2.1-2.5c0.6-0.9,0.9-2,0.7-3.1
			c-0.2-1.1-0.8-2.1-1.7-2.7l0,0l0,0c-1.9-2.5-4-4.9-5.9-7.4C92.1,94.7,90.3,92.2,88.7,89.4L88.7,89.4z"/>
	</g>
	<path class="st9" d="M88.7,89.4l3.8,5.1c0.8,4.9,3.7,8.6,6.1,12.7c0.8,1.7,1.1,3.5,1.3,5.3c-0.8,0.9-1.9,1.9-3.5,3
		c0,0,1.9,1.6,3.6,3.5c0,1.8,0.1,3.5,0.3,5.2c-0.9-0.2-2.2-0.6-3.7-1.2L88.7,89.4z"/>
	<g>
		<path class="st12" d="M60.3,133.1c0,0-10.6,5.1-18.9-18.1c-8.4-23.2-8-37.9-20.5-35.5c-12.5,2.5-4.4,29,3.6,26.4
			c8-2.6,7.1-8.4,7.1-8.4s0-3.9-2.4-1.9c0,0,0.2,6.1-5.2,7.3c-5.4,1.3-7.9-14.5-6.6-17.4c1.3-2.9,9-4.5,10.6-1.4
			c1.6,3.1,6.9,17.8,8.8,25.3c1.9,7.5,11.2,33.6,24.6,25.2c13.4-8.3,0,0,0,0S62,132.7,60.3,133.1z"/>
		<path d="M60.3,133.1c-2.4,0.9-5.1,0.5-7.3-0.7c-2.2-1.2-4-3-5.5-5c-3.1-4-5.1-8.6-6.8-13.3c-1.7-4.7-3.2-9.5-4.6-14.3l-2.2-7.2
			c-0.7-2.4-1.5-4.7-2.6-6.9c-1.1-2.2-2.5-4.3-4.6-5.3c-2.1-1-4.8-0.8-7-0.1c-1.1,0.4-2.1,1.1-2.9,2.1c-0.8,0.9-1.3,2.1-1.6,3.2
			c-0.7,2.4-0.7,4.9-0.3,7.3c0.4,2.5,1.1,4.9,2.1,7.1c0.5,1.1,1.1,2.2,1.9,3.2c0.8,1,1.7,1.9,2.7,2.4c0.5,0.3,1.1,0.4,1.7,0.4
			c0.6,0,1.2-0.2,1.7-0.4c1.2-0.4,2.3-1,3.2-1.8c1-0.7,1.8-1.7,2.3-2.8c0.5-1.1,0.8-2.3,0.7-3.5l0,0l0,0c0-0.7-0.1-1.4-0.5-1.9
			c-0.2-0.2-0.4-0.3-0.7-0.2c-0.3,0.1-0.6,0.3-0.8,0.5l0.1-0.2c0,1.3-0.3,2.7-0.8,3.9c-0.5,1.2-1.5,2.3-2.6,3
			c-0.6,0.3-1.2,0.6-1.9,0.8c-0.7,0.2-1.5,0.1-2.1-0.2c-1.3-0.7-2-1.9-2.7-3c-1.2-2.4-1.9-4.9-2.3-7.5c-0.2-1.3-0.4-2.6-0.4-3.9
			c0-0.7,0-1.3,0.1-2c0-0.3,0.1-0.7,0.2-1l0.1-0.1c0,0,0,0,0-0.1l0-0.1l0.1-0.2c0.1-0.2,0.2-0.3,0.3-0.5c1-1.1,2.2-1.7,3.5-2.1
			c1.3-0.4,2.6-0.6,4-0.5c0.7,0.1,1.4,0.2,2,0.5c0.3,0.2,0.6,0.4,0.9,0.7c0.3,0.3,0.5,0.7,0.6,0.9c0.6,1.2,1.1,2.4,1.5,3.6
			c1.9,4.8,3.6,9.7,5.2,14.6c0.8,2.5,1.5,4.9,2.1,7.4c0.6,2.5,1.5,4.9,2.4,7.3c1.8,4.8,4.1,9.4,7.2,13.5c1.6,2,3.5,3.8,5.8,4.8
			c1.1,0.5,2.4,0.8,3.6,0.8c1.3,0,2.5-0.3,3.7-0.9c1.1-0.5,2.2-1.3,3.3-1.9l3.3-2l0.4-0.3l0.1-0.1l0.1,0l0,0
			c-0.1-0.2,0.1,0.2,0.1,0.2l-0.2,0.1l-0.8,0.5l-1.6,1l-3.3,2l-0.1,0.1l0.1-0.2c0.1-0.4,0.2-0.8,0.1-1.2c-0.1-0.2-0.2-0.3-0.4-0.4
			C60.7,133.1,60.5,133.1,60.3,133.1L60.3,133.1z M60.3,133c0.2-0.1,0.4-0.1,0.7,0c0.2,0,0.4,0.2,0.5,0.5c0.1,0.4,0,0.9-0.1,1.3
			l-0.1-0.1l3.3-2.1l1.6-1l0.8-0.5l0.2-0.1c0,0,0.2,0.3,0.1,0.2l0,0l-0.1,0l-0.1,0.1l-0.4,0.3l-3.3,2.1c-1.1,0.7-2.1,1.4-3.3,2
			c-1.2,0.6-2.5,1-3.8,1c-1.3,0.1-2.7-0.2-3.9-0.7c-2.4-1-4.4-2.9-6.1-4.9c-1.7-2-3.1-4.2-4.3-6.5c-1.2-2.3-2.3-4.6-3.3-7.1
			c-1-2.4-1.8-4.9-2.5-7.4c-0.6-2.5-1.4-4.9-2.2-7.4c-1.6-4.9-3.3-9.7-5.2-14.5c-0.5-1.2-0.9-2.4-1.5-3.5c-0.4-1-1.6-1.5-2.8-1.6
			c-1.2-0.1-2.4,0.1-3.6,0.4c-1.2,0.4-2.3,0.9-3.1,1.8c-0.1,0.1-0.2,0.2-0.2,0.3l-0.1,0.2l0,0.1c0,0,0,0,0,0l0,0.1
			c-0.1,0.2-0.1,0.5-0.2,0.8c-0.1,0.6-0.1,1.2-0.1,1.9c0,1.3,0.2,2.5,0.4,3.8c0.4,2.5,1,5,2.2,7.3c0.6,1.1,1.3,2.2,2.3,2.8
			c0.5,0.3,1.1,0.4,1.6,0.2c0.6-0.1,1.2-0.4,1.7-0.7c2.2-1.2,3.2-3.9,3.2-6.3l0-0.1l0.1-0.1c0.3-0.2,0.6-0.5,1-0.6
			c0.4-0.1,1,0.1,1.2,0.4c0.3,0.3,0.4,0.7,0.5,1.1c0.1,0.4,0.1,0.7,0.1,1.1l0,0c0.2,2.7-1.2,5.2-3.3,6.7c-1,0.8-2.2,1.3-3.3,1.8
			c-0.6,0.2-1.2,0.4-1.9,0.4c-0.7,0-1.3-0.2-1.9-0.5c-1.2-0.6-2.1-1.5-2.8-2.5c-0.8-1-1.4-2.1-2-3.2c-1.1-2.3-1.8-4.7-2.2-7.2
			c-0.4-2.5-0.4-5.1,0.2-7.5c0.3-1.2,0.9-2.4,1.7-3.4c0.8-1,1.9-1.8,3.1-2.3c1.2-0.5,2.5-0.6,3.8-0.7c1.3,0,2.6,0.2,3.8,0.7
			c1.2,0.5,2.2,1.4,3.1,2.4c0.8,1,1.5,2.1,2,3.2c1.1,2.3,1.9,4.7,2.7,7c0.8,2.4,1.4,4.8,2.1,7.2c1.4,4.8,2.8,9.6,4.4,14.3
			c1.6,4.7,3.5,9.4,6.5,13.4c1.5,2,3.3,3.8,5.4,5C55.3,133.5,58,134,60.3,133L60.3,133L60.3,133z"/>
	</g>
	<path class="st2" d="M26.3,104.1c-5.9,2.7-8.2-5.8-10.4-11.2c-1.5-4.7,1.3-8,3.6-9.7c4.1-1.8,9-1.4,11.7,4
		c7.1,17,10.2,46.8,27.7,47.3c0-0.3,0-0.7-0.1-1c0.9-0.1,1.4-0.4,1.4-0.4c1.7-0.4,1,1.6,1,1.6c-13.4,8.3-22.7-17.7-24.6-25.2
		c-1.9-7.5-7.2-22.2-8.8-25.3c-1.6-3.1-9.3-1.5-10.6,1.4c-1.3,2.9,1.3,18.6,6.6,17.4c5.4-1.3,5.2-7.3,5.2-7.3
		c0.1-0.1,0.2-0.2,0.3-0.3C30,98.8,28.6,102.7,26.3,104.1z"/>
	<g>
		<path class="st7" d="M37.9,70.7c0.5-5.7,0.9-5.3,0.8-8c-0.7-17.4,15.3-26.5,35.7-27.8c20.4-1.3,35.1,1.9,38,22.1
			c0.5,3.2-0.9,6.6-0.7,9.5c0.2,2.9,1.6,4.8,1.8,7.3c0.5,8.1-8.2,13.5-37.8,15.3C46,90.9,37.5,86.6,37,78.5
			C36.8,75.5,37.3,76.4,37.9,70.7z"/>
		<g>
			<path d="M37.8,70.7c0.1-1.1,0.2-2.3,0.4-3.4c0.1-1.1,0.4-2.3,0.4-3.4c0-1.1-0.1-2.3,0-3.5c0-1.2,0.2-2.3,0.4-3.4
				c0.8-4.6,3.2-8.8,6.6-12.1c3.4-3.3,7.6-5.5,11.9-7.1c4.4-1.6,9-2.5,13.6-3c4.6-0.4,9.2-0.5,13.9-0.3c4.6,0.3,9.3,0.9,13.6,2.6
				c4.3,1.7,8.1,4.8,10.5,8.8c1.2,2,2,4.2,2.7,6.4c0.3,1.1,0.6,2.2,0.8,3.4c0.1,0.6,0.2,1.1,0.3,1.7c0.1,0.6,0.1,1.2,0,1.8
				c-0.1,2.3-0.8,4.6-0.8,6.8c0,1.1,0.3,2.2,0.7,3.3c0.4,1.1,0.8,2.2,1,3.3c0.5,2.3,0,4.9-1.4,6.9c-1.4,2-3.5,3.3-5.6,4.3
				c-4.3,2-8.8,3-13.4,3.8c-4.6,0.8-9.2,1.2-13.8,1.6c-4.6,0.3-9.2,0.6-13.8,0.6c-4.6,0-9.3-0.1-13.9-0.8c-2.3-0.3-4.6-0.8-6.8-1.6
				c-2.2-0.8-4.3-1.8-5.9-3.6c-0.8-0.9-1.4-1.9-1.7-3c-0.4-1.1-0.5-2.3-0.5-3.4c-0.1-1.2,0.3-2.3,0.5-3.4
				C37.6,73,37.7,71.9,37.8,70.7z M37.9,70.7c-0.1,1.1-0.2,2.3-0.4,3.4c-0.2,1.1-0.5,2.3-0.4,3.4c0,1.1,0.1,2.3,0.5,3.4
				c0.4,1.1,0.9,2.1,1.7,2.9c1.6,1.7,3.7,2.7,5.8,3.4c2.2,0.7,4.4,1.1,6.7,1.3c4.6,0.5,9.2,0.6,13.8,0.5c4.6-0.1,9.2-0.3,13.8-0.7
				c4.6-0.4,9.2-0.9,13.7-1.6c4.5-0.8,9-1.7,13.2-3.7c2-1,4-2.2,5.3-4c1.3-1.7,1.8-4.1,1.4-6.2c-0.2-1.1-0.6-2.2-1-3.3
				c-0.4-1.1-0.6-2.3-0.6-3.5c0-2.4,0.7-4.6,0.9-6.9c0.1-1.1,0-2.2-0.2-3.4c-0.2-1.1-0.4-2.3-0.7-3.4c-0.6-2.2-1.4-4.4-2.6-6.3
				c-1.2-2-2.6-3.8-4.4-5.2c-1.8-1.5-3.8-2.6-5.9-3.4c-4.3-1.7-8.9-2.3-13.5-2.4c-4.6-0.1-9.2,0.1-13.8,0.6c-4.6,0.5-9.1,1.5-13.4,3
				c-4.3,1.5-8.4,3.7-11.8,6.8c-3.4,3-5.8,7.1-6.7,11.6c-0.5,2.2-0.5,4.6-0.4,6.9c0,1.2-0.3,2.3-0.4,3.4
				C38.1,68.4,38,69.6,37.9,70.7z"/>
		</g>
	</g>
	<g>
		<path class="st12" d="M2.8,37c-0.6-10,7.3-18.6,17.7-19.3c4.6-0.3,8.8,1,12.3,3.4c0.4,11.3-2.7,22.7-8.4,32.7
			c-0.5,0.1-1.1,0.1-1.6,0.2C12.4,54.6,3.4,47,2.8,37z"/>
		<g>
			<path d="M2.8,37C2.5,33.5,3.3,29.9,5,26.8c0.9-1.6,1.9-3,3.2-4.2c1.3-1.2,2.8-2.3,4.3-3.1c3.2-1.6,6.8-2.4,10.4-2
				c3.5,0.3,7,1.6,9.9,3.6l0.1,0l0,0.1c0.1,2.9,0,5.7-0.3,8.6c-0.3,2.8-0.7,5.7-1.4,8.5c-0.7,2.8-1.6,5.5-2.6,8.2
				c-1.1,2.7-2.3,5.3-3.7,7.7l-0.1,0.2l-0.3,0c-2.6,0.4-5.3,0.2-7.8-0.4c-2.6-0.6-4.9-1.9-7-3.5c-2-1.6-3.7-3.7-4.9-6
				C3.6,42.1,2.9,39.6,2.8,37z M2.9,37c0.2,2.5,0.9,5.1,2.2,7.2c1.3,2.2,3,4.1,5.1,5.5c2,1.5,4.3,2.5,6.8,3.1c2.4,0.6,5,0.7,7.4,0.3
				L24,53.5c1.4-2.5,2.7-5,3.8-7.6c1.1-2.6,2-5.3,2.8-8c0.8-2.7,1.4-5.5,1.7-8.3c0.4-2.8,0.5-5.7,0.4-8.5l0.1,0.1
				c-1.4-1-3-1.8-4.6-2.3c-1.6-0.5-3.4-0.8-5.1-0.9c-3.4-0.1-6.9,0.6-9.9,2.2c-1.5,0.8-3,1.7-4.2,2.9c-1.3,1.1-2.4,2.5-3.3,3.9
				c-0.9,1.5-1.6,3.1-2.1,4.8C2.9,33.5,2.8,35.2,2.9,37z"/>
		</g>
	</g>
	<g>
		<path class="st12" d="M142.2,28.5c-0.6-10-9.6-17.6-20-16.9c-4.6,0.3-8.6,2.1-11.7,4.9c1,11.3,5.5,22.2,12.4,31.4
			c0.5,0,1.1,0,1.6,0C134.9,47.2,142.8,38.5,142.2,28.5z"/>
		<g>
			<path d="M142.2,28.5c-0.1-1.7-0.5-3.5-1.1-5.1c-0.6-1.6-1.6-3.1-2.6-4.5c-1.1-1.3-2.4-2.5-3.8-3.5c-1.4-1-2.9-1.8-4.6-2.4
				c-3.2-1.2-6.7-1.5-10.1-0.9c-1.7,0.3-3.4,0.8-4.9,1.5c-1.6,0.7-3,1.7-4.3,2.9l0.1-0.1c0.3,2.8,0.7,5.6,1.4,8.4
				c0.7,2.7,1.7,5.4,2.7,8c1.1,2.6,2.4,5.1,3.8,7.6c1.4,2.5,3,4.8,4.7,7.1l-0.4-0.2c2.5,0.1,5-0.4,7.3-1.3c2.3-0.9,4.5-2.2,6.3-3.9
				c1.8-1.7,3.3-3.8,4.3-6.1C141.9,33.7,142.3,31.1,142.2,28.5z M142.3,28.5c0.2,2.6-0.2,5.2-1.1,7.6c-0.9,2.4-2.3,4.7-4.1,6.6
				c-1.8,1.9-4,3.4-6.5,4.3c-2.4,1-5.1,1.4-7.7,1.4l-0.3,0l-0.2-0.2c-1.7-2.3-3.3-4.7-4.7-7.2c-1.4-2.5-2.6-5.1-3.6-7.8
				c-1-2.7-1.8-5.4-2.5-8.2c-0.6-2.8-1.1-5.6-1.3-8.5l0-0.1l0.1-0.1c2.6-2.4,5.9-4.1,9.4-4.8c3.5-0.8,7.2-0.5,10.6,0.7
				c1.7,0.6,3.3,1.5,4.7,2.6c1.4,1.1,2.7,2.4,3.7,3.8C140.8,21.6,142.1,25,142.3,28.5z"/>
		</g>
	</g>
	<path class="st9" d="M4.2,29C4.4,35,5.8,40.4,10.1,45c4,3.5,9.6,6.1,15.9,5.7c-0.5,1-1,2-1.6,3c-0.5,0.1-1.1,0.1-1.6,0.2
		C12.4,54.6,3.4,47,2.8,37C2.6,34.1,3.2,31.4,4.2,29z"/>
	<g>
		<path class="st13" d="M11.1,36.5c-0.4-7.1,5.2-13.3,12.6-13.7c3.2-0.2,6.3,0.7,8.7,2.4c0.3,8-1.9,16.1-6,23.2
			c-0.4,0.1-0.8,0.1-1.2,0.1C17.9,49,11.6,43.6,11.1,36.5z"/>
		<g>
			<path d="M11.1,36.5c-0.1-2.5,0.4-5,1.6-7.3c1.2-2.2,3.1-4.2,5.4-5.3c2.3-1.2,4.9-1.7,7.5-1.4c2.5,0.2,5,1.2,7,2.6l0.1,0l0,0.1
				c0.1,2,0,4.1-0.2,6.1c-0.2,2-0.5,4-1,6c-0.5,2-1.1,3.9-1.9,5.8c-0.8,1.9-1.6,3.8-2.6,5.5l-0.1,0.2l-0.3,0
				c-1.9,0.3-3.8,0.2-5.6-0.3c-1.8-0.5-3.5-1.4-5-2.5C13,43.7,11.3,40.1,11.1,36.5z M11.2,36.5c0.1,1.8,0.7,3.6,1.6,5.1
				c0.9,1.5,2.2,2.9,3.6,3.9c1.4,1,3.1,1.7,4.8,2.2c1.7,0.4,3.5,0.5,5.2,0.2L26,48.1c1-1.7,1.9-3.5,2.7-5.4c0.8-1.8,1.5-3.7,2-5.7
				c0.6-1.9,1-3.9,1.3-5.9c0.3-2,0.4-4,0.3-6l0.1,0.1c-1-0.7-2.1-1.2-3.3-1.6c-1.2-0.4-2.4-0.6-3.6-0.6c-2.4-0.1-4.9,0.5-7,1.6
				c-2.1,1.1-4,2.7-5.4,4.8C11.7,31.5,11,34,11.2,36.5z"/>
		</g>
	</g>
	<path class="st9" d="M141.3,23.9c0.5,1.5,0.8,3,0.9,4.6c0.6,10-7.3,18.6-17.7,19.3c-0.5,0-1.1,0-1.6,0c-0.6-0.8-1.2-1.6-1.8-2.5
		C132.2,42.3,141.2,35.7,141.3,23.9z"/>
	<g>
		<path class="st13" d="M133.9,29c-0.4-7.1-6.8-12.5-14.2-12.1c-3.2,0.2-6.1,1.5-8.3,3.5c0.7,8,3.9,15.8,8.8,22.3c0.4,0,0.8,0,1.2,0
			C128.7,42.3,134.3,36.2,133.9,29z"/>
		<g>
			<path d="M133.8,29c-0.1-2.5-1.2-4.9-2.7-6.8c-1.6-1.9-3.7-3.2-5.9-4.1c-2.3-0.8-4.7-1.1-7.2-0.7c-1.2,0.2-2.4,0.5-3.5,1
				c-1.1,0.5-2.1,1.2-3.1,2l0.1-0.1c0.2,2,0.5,4,1,5.9c0.5,1.9,1.2,3.8,2,5.7c0.8,1.8,1.7,3.6,2.7,5.4c1,1.7,2.1,3.4,3.3,5l-0.4-0.2
				c1.7,0.1,3.5-0.3,5.1-0.9c1.6-0.6,3.2-1.5,4.5-2.7c1.3-1.2,2.4-2.7,3.1-4.3C133.6,32.7,133.9,30.9,133.8,29z M133.9,29
				c0.3,3.6-1,7.4-3.6,10.2c-1.3,1.3-2.9,2.4-4.6,3.1c-1.8,0.7-3.6,1-5.5,1l-0.3,0l-0.2-0.2c-1.2-1.6-2.3-3.4-3.3-5.2
				c-1-1.8-1.9-3.7-2.6-5.6c-0.7-1.9-1.3-3.9-1.7-5.9c-0.4-2-0.8-4-0.9-6l0-0.1l0.1-0.1c1.9-1.7,4.2-2.9,6.7-3.5
				c2.5-0.6,5.2-0.4,7.6,0.5c2.4,0.9,4.5,2.6,6,4.6C133,24.1,133.8,26.5,133.9,29z"/>
		</g>
	</g>
	<g class="st1">
		<path class="st0" d="M108.9,75.8c1.4-5.3,2.7-11.9,3.5-18.8c0.4,3.2-0.9,6.5-0.7,9.4c0.2,2.9,1.6,4.8,1.8,7.3
			c0.3,4.5-2.3,8.2-9.8,10.9C106,82.3,107.8,79.4,108.9,75.8z"/>
		<path class="st0" d="M38.6,62.7c-0.2-4.7,0.9-8.9,2.9-12.4l-7.5-8.3c0,0,12-21.8,42.6-20.4c30.5,1.4,38,17.9,36.6,29.9l-3.7,1.1
			l-1.9-2.4l-1.1,1.8l-1.4-4l-0.6,1.7l-2.4-3.4l-1.3,3.1L98.8,45l-0.7,4.9l-1.7-2.6l-1.6,4.3l-1.6-2.9l-1.1,5.7L89.8,52l-1,7.7
			l-3.7-7.4l-1,3.9L82,51.8L80,53.6l-2.8-2.8l-2.1,4.7l-1.3-2.6l-1.3,5.8L69,55.9l-1.4,6.5l-2.9-6.2l-2.6,1.8l-1.8-4.8l-1.9,2.2
			l-2-5.5l-1,1.2l-2-1.8l-1.3,2L51,50.1l-2.5,2.5l-0.8-2.3l-3.8,2.5c-3.8,12.3-4.7,24.9,5.7,32.1c2.8,2.2,5.9,3.6,9,4.4
			C42.6,88.8,37.4,84.8,37,78.5c-0.2-3,0.3-2.1,0.8-7.8C38.4,65,38.8,65.4,38.6,62.7z"/>
	</g>
	<path class="st5" d="M96.3,45.1l-1.6,4.3l-1.6-2.9L92,52.2l-2.3-2.4l-1,7.7L85,50.1L84,54l-2.1-4.4l-2.1,1.8L77,48.6L75,53.3
		l-1.3-2.6l-1.3,5.8l-3.5-2.8l-1.4,6.5L64.6,54l-2.6,1.8L60.2,51l-1.9,2.2l-2-5.5l-1,1.2l-2-1.8l-1.3,2l-1.2-1.2l-2.5,2.5l-0.8-2.3
		l-3.8,2.6l-9.8-10.8c0,0,12-21.8,42.6-20.4c30.5,1.4,38,17.9,36.6,29.9l-3.7,1.1l-1.9-2.4l-1.1,1.8l-1.4-4l-0.6,1.7l-2.4-3.4
		l-1.3,3.1l-2.1-4.3L98,47.7L96.3,45.1z"/>
	<path class="st10" d="M102.8,8.7C102.8,8.5,102.8,8.5,102.8,8.7L102.8,8.7z"/>
	<g>
		<g>
			<path class="st12" d="M22.8,59.6c4.2,18.8,11,29,29.3,32.2l13.7-0.3c-0.7,0.2-1,0.3-1,0.3c-19,45.6-6.1,52.2-6.1,52.2
				c6.3,29.5,10.3,0,10.3,0c9.4,2,19.3-1.3,19.3-1.3c1.2,21.4,5.6,11.7,5.6,11.7C109.2,144,92.8,100.4,89,91l3.3-0.1
				c0-0.1-0.1-0.1-0.1-0.1c0,0,0,0,0,0c23.6-4.3,30.4-15.4,32.9-37.3c1.8-16-1.5-34.2-22.3-44.8c0,0.6-10.3-7.4-31.4-6.1
				C48.6,4.1,40,11.7,40,11.7C20.2,25.8,19.1,43.2,22.8,59.6z M38.8,70.8c0.5-5.6,0.9-5.3,0.8-7.9c-0.4-10,4.8-17.3,13.2-21.8
				c12.1-7,32-9.7,45.4-3.5c7.6,2.9,12.7,8.8,14.3,19.7c0.5,3.2-0.9,6.5-0.7,9.4c0.2,2.9,1.6,4.8,1.8,7.2c0.5,8-8.2,13.4-37.4,15.2
				C46.8,90.8,38.5,86.6,38,78.6C37.8,75.6,38.3,76.5,38.8,70.8z"/>
		</g>
		<g>
			<path d="M22.8,59.6c0.9,3.8,1.9,7.6,3.3,11.3c1.4,3.6,3.2,7.2,5.7,10.2c2.5,3,5.6,5.5,9.1,7.2c3.5,1.7,7.3,2.7,11.2,3.4l0,0
				l13.7-0.4l2-0.1l-1.9,0.6l-1,0.3l0.2-0.2c-3.5,8.5-6.6,17.1-8.5,26c-1,4.5-1.7,9-1.7,13.5c0,2.3,0.2,4.5,0.8,6.7
				c0.3,1.1,0.7,2.1,1.2,3.1c0.5,0.9,1.2,1.9,2.1,2.4l0.2,0.1l0,0.2c0.5,2.4,1.1,4.7,1.8,7c0.4,1.1,0.8,2.3,1.2,3.4
				c0.3,0.5,0.5,1.1,0.9,1.5c0.3,0.5,0.8,0.9,1.2,0.9c0.4,0.1,0.8-0.3,1.2-0.8c0.3-0.5,0.6-1,0.8-1.5c0.5-1.1,0.8-2.2,1.1-3.4
				c0.6-2.3,1.1-4.7,1.4-7.1l0-0.3l0.3,0.1c3.1,0.7,6.4,0.8,9.6,0.5c3.2-0.3,6.4-0.8,9.5-1.8l0.3-0.1l0,0.3c0.2,3,0.4,6,0.9,9
				c0.3,1.4,0.6,3,1.4,4.2c0.2,0.3,0.5,0.5,0.8,0.6c0.3,0.1,0.6-0.1,0.9-0.3c0.5-0.4,1-1.1,1.3-1.7l0,0l0,0c2.3-1.5,3.9-4,4.8-6.5
				c0.9-2.6,1.3-5.4,1.5-8.2c0.2-5.6-0.5-11.1-1.6-16.6c-1.1-5.5-2.5-10.9-4.2-16.2c-1.7-5.3-3.5-10.6-5.6-15.7l-0.2-0.4l0.4,0
				l3.3-0.1L92,91.1L92,90.9l0.3,0.2h0l-0.1-0.6c4.4-0.8,8.8-2,12.9-3.8c4.1-1.8,7.9-4.3,10.8-7.7c2.9-3.4,4.8-7.5,6.2-11.8
				c1.3-4.3,2-8.7,2.6-13.2c0.5-4.5,0.7-9,0.2-13.4c-0.5-4.4-1.6-8.8-3.5-12.9c-1.9-4.1-4.5-7.7-7.8-10.8c-3.2-3.1-7-5.6-11-7.7
				l0.7-0.4c0,0.2-0.2,0.4-0.3,0.4c-0.1,0-0.1,0-0.2,0.1l-0.1,0c-0.1,0-0.1,0-0.2,0c-0.1,0-0.1,0-0.2-0.1L102.1,9l-0.5-0.2l-0.9-0.5
				c-0.6-0.3-1.2-0.6-1.8-0.9c-1.2-0.6-2.5-1-3.8-1.5c-2.6-0.9-5.2-1.5-7.8-2C82,3,76.5,2.8,71.1,3.1C65.7,3.4,60.3,4.2,55,5.5
				C52.4,6.2,49.8,7,47.3,8c-2.5,1-5,2.3-7,3.9l0,0l0,0c-3.7,2.6-7.2,5.6-10.1,9.1c-2.9,3.5-5.2,7.4-6.7,11.7
				c-1.5,4.3-2.2,8.8-2.2,13.4C21.2,50.7,21.9,55.2,22.8,59.6z M22.7,59.6c-1-4.4-1.7-9-1.7-13.5c0-4.6,0.6-9.1,2.1-13.5
				c1.5-4.3,3.8-8.4,6.7-11.9c2.9-3.5,6.4-6.6,10.1-9.2l0,0c2.2-1.8,4.7-3,7.2-4.1c2.5-1.1,5.1-1.9,7.8-2.6
				C60.1,3.4,65.6,2.6,71,2.2C76.5,1.8,82.1,2,87.5,3c2.7,0.5,5.4,1.2,8,2.1c1.3,0.5,2.6,1,3.8,1.5c0.6,0.3,1.3,0.6,1.9,0.9l0.9,0.5
				l0.4,0.2l0.2,0.1l0.1,0l-0.1,0l0,0c0,0-0.1,0-0.2,0c-0.1,0-0.3,0.2-0.3,0.4l0-0.8l0.7,0.4c4.1,2.1,7.9,4.6,11.2,7.8
				c3.3,3.2,6,7,7.9,11.1c1.9,4.2,3.1,8.7,3.6,13.2c0.5,4.5,0.4,9.1-0.2,13.6c-0.5,4.5-1.3,9-2.6,13.4c-1.3,4.4-3.4,8.6-6.4,12.1
				c-3,3.5-6.9,6.1-11.1,7.9c-4.2,1.8-8.6,2.9-13.1,3.7l-0.1-0.6h0l0.2,0l0.1,0.2l0.1,0.1l0.2,0.5l-0.5,0L89,91.3l0.3-0.4
				c2,5.2,3.9,10.5,5.5,15.8c1.6,5.3,3.1,10.8,4.1,16.2c1,5.5,1.7,11.1,1.5,16.7c-0.1,2.8-0.6,5.6-1.5,8.3c-0.9,2.6-2.5,5.1-4.9,6.7
				l0.1-0.1c-0.3,0.7-0.8,1.4-1.4,1.9c-0.3,0.2-0.7,0.5-1.2,0.4c-0.5-0.1-0.8-0.4-1-0.7c-0.9-1.3-1.2-2.9-1.5-4.3c-0.6-3-0.8-6-1-9
				l0.3,0.2c-1.6,0.5-3.2,0.9-4.8,1.2c-1.6,0.3-3.2,0.5-4.9,0.7c-3.3,0.3-6.6,0.2-9.8-0.5l0.4-0.3c-0.3,2.4-0.8,4.8-1.4,7.2
				c-0.3,1.2-0.7,2.4-1.2,3.5c-0.2,0.6-0.5,1.1-0.9,1.7c-0.2,0.3-0.4,0.5-0.7,0.7c-0.3,0.2-0.7,0.4-1.1,0.3
				c-0.8-0.1-1.3-0.7-1.7-1.2c-0.4-0.5-0.7-1.1-0.9-1.6c-0.5-1.1-0.9-2.3-1.3-3.5c-0.7-2.3-1.3-4.7-1.8-7.1l0.2,0.3
				c-1.1-0.7-1.8-1.7-2.4-2.7c-0.6-1-1-2.1-1.3-3.3c-0.6-2.3-0.8-4.6-0.8-6.9c0-4.6,0.7-9.2,1.7-13.7c2.1-9,5.3-17.6,8.8-26l0.1-0.1
				l0.1,0l1.1-0.3l0.1,0.6l-13.7,0.2h0l0,0c-3.9-0.7-7.7-1.8-11.2-3.5c-3.5-1.7-6.7-4.3-9.2-7.3c-2.5-3.1-4.3-6.6-5.7-10.3
				C24.6,67.3,23.6,63.5,22.7,59.6z"/>
			<path d="M38.8,70.8c0.1-1.1,0.2-2.3,0.4-3.4c0.1-1.1,0.4-2.3,0.4-3.4c0-1.1-0.1-2.3,0-3.4c0.1-1.1,0.2-2.3,0.4-3.4
				c0.8-4.5,3.2-8.8,6.5-11.9c1.7-1.6,3.5-3,5.6-4.1c2-1.2,4-2.2,6.2-3.1c4.3-1.8,8.8-2.9,13.3-3.6c4.6-0.7,9.2-0.8,13.8-0.4
				c4.6,0.5,9.1,1.5,13.3,3.4c4.3,1.6,8.1,4.6,10.5,8.6c1.2,2,2.1,4.1,2.7,6.3c0.3,1.1,0.6,2.2,0.8,3.4c0.1,0.6,0.2,1.1,0.3,1.7
				c0.1,0.6,0.1,1.2,0.1,1.8c-0.1,2.3-0.8,4.6-0.8,6.8c0,1.1,0.2,2.2,0.6,3.3c0.3,1.1,0.8,2.1,1.1,3.3c0.5,2.3,0.1,4.9-1.3,6.9
				c-1.4,2-3.4,3.3-5.5,4.4c-4.2,2-8.7,3-13.3,3.8c-4.5,0.8-9.1,1.2-13.7,1.6c-4.6,0.3-9.1,0.6-13.7,0.6c-4.6,0-9.2-0.1-13.7-0.7
				c-2.3-0.3-4.5-0.8-6.7-1.5c-2.2-0.8-4.3-1.8-5.9-3.6c-0.8-0.9-1.3-1.9-1.7-3c-0.4-1.1-0.5-2.3-0.5-3.4c-0.1-1.2,0.3-2.3,0.5-3.4
				C38.5,73.1,38.6,72,38.8,70.8z M38.9,70.8c-0.1,1.1-0.2,2.3-0.4,3.4c-0.2,1.1-0.5,2.2-0.4,3.4c0,1.1,0.1,2.3,0.5,3.3
				c0.4,1.1,0.9,2.1,1.7,2.9c1.5,1.7,3.7,2.6,5.8,3.3c2.2,0.7,4.4,1.1,6.7,1.3c4.5,0.5,9.1,0.6,13.6,0.4c4.6-0.1,9.1-0.4,13.7-0.7
				c4.5-0.4,9.1-0.9,13.6-1.6c4.5-0.8,9-1.7,13-3.7c2-1,3.9-2.2,5.2-4c1.3-1.8,1.7-4.1,1.2-6.2c-0.2-1.1-0.7-2.1-1-3.2
				c-0.3-1.1-0.6-2.3-0.6-3.5c0-2.4,0.8-4.6,0.9-6.8c0.1-1.1-0.1-2.2-0.3-3.3c-0.2-1.1-0.4-2.2-0.7-3.3c-0.6-2.2-1.4-4.3-2.6-6.3
				c-1.2-1.9-2.7-3.7-4.4-5.1c-1.8-1.4-3.8-2.5-5.9-3.3c-4.2-1.9-8.7-2.9-13.2-3.2c-4.5-0.3-9.1-0.1-13.6,0.6
				c-4.5,0.7-8.9,1.9-13.1,3.6c-2.1,0.8-4.1,1.8-6.1,3c-2,1.1-3.8,2.4-5.5,3.9c-3.4,3-5.8,7.1-6.7,11.5c-0.5,2.2-0.5,4.5-0.4,6.8
				c0,1.2-0.3,2.3-0.4,3.4C39.1,68.6,39,69.7,38.9,70.8z"/>
		</g>
	</g>
	<path class="st9" d="M90.4,94.5c5.2,13.8,17.3,50.5,3.5,59.9c0,0-0.3,0.6-0.8,1.2C102.4,136.7,96.7,113.5,90.4,94.5z"/>
	<path class="st9" d="M66.9,141.8c7.7,1.4,15.5,1.4,23.2-1.4c-2,4.7-0.2,11.3,1.8,16.2c-1.4,0.3-3-1.9-3.7-13.9
		c0,0-9.9,3.3-19.3,1.3c0,0-2.1,15.4-5.6,12.8C67,153.9,66.4,146.5,66.9,141.8z"/>
	<path class="st9" d="M24.6,29.5c-2.1,22.2,0.8,47.3,23.2,60c0.7,0.3,1.3,1,1.7,1.8c-16.3-3.7-22.7-13.8-26.7-31.7
		C20.5,49.6,20.1,39.2,24.6,29.5z"/>
	<path class="st9" d="M113.5,74.5c6.7-13.2,10-27.5,10.1-41.9c2.1,6.9,2.2,14.1,1.5,20.9c-1.9,16.9-6.4,27.3-19.1,33.2
		c1.1-1.6,2.2-3.1,3.3-4.8C112.3,79.8,113.5,77.3,113.5,74.5z"/>
	<g>
		<path class="st6" d="M35,45.9c5-6.5,6-11.3,9.6-22.2c3.6-10.9,10.2-9.9,17.8-10c7.6-0.1,7.5,1.8,15.3,1.3
			c7.9-0.5,9.5-4.7,17.8-2.5c8.3,2.2,6.3,12.6,19.6,24.9c9.3,8.6,2.2,15.8-2.9,19.3c0-0.2,0-0.4,0-0.6c-1.3-9.2-5.1-14.8-10.8-18.1
			c-4.8,3.9-15.1,7.1-27.3,7.9c-11,0.7-19.5,0.3-25.2-2.4c-6.1,4.6-9.7,11.1-9.3,19.5c0.1,1.5,0,2-0.2,3.2
			C26,63.8,30.6,51.6,35,45.9z"/>
		<g>
			<path d="M35,45.8c1.7-2.3,3.2-4.7,4.4-7.3c1.2-2.6,2.1-5.3,2.9-8c0.9-2.7,1.7-5.4,2.6-8.1c1-2.7,2.5-5.3,5-7
				c1.2-0.8,2.6-1.4,4-1.7c1.4-0.3,2.9-0.4,4.3-0.4c1.4,0,2.9,0,4.3,0c1.4,0,2.9,0,4.3,0.2c1.4,0.2,2.9,0.5,4.2,0.8
				c1.4,0.3,2.8,0.4,4.2,0.4c1.4,0,2.8-0.1,4.2-0.2c1.4-0.2,2.7-0.5,4.1-1c1.3-0.4,2.7-1,4-1.4c1.4-0.4,2.9-0.6,4.3-0.5
				c1.5,0.1,2.9,0.4,4.3,0.8c1.4,0.4,2.7,1.2,3.7,2.3c2,2.1,3.1,4.9,4.4,7.4c1.3,2.5,2.6,5,4.2,7.4c1.6,2.3,3.4,4.5,5.5,6.5
				c1,1,2.1,1.9,3.1,3c1,1.1,1.8,2.3,2.4,3.6c0.6,1.3,0.8,2.8,0.7,4.3c-0.1,1.5-0.7,2.9-1.4,4.1c-1.5,2.5-3.7,4.4-6,6.1l-0.4,0.3
				l-0.1-0.5c-0.2-1.8-0.6-3.7-1.1-5.4c-0.5-1.8-1.2-3.5-2.1-5.1c-1.7-3.2-4.4-6-7.5-7.8l0.5,0c-1.8,1.5-3.9,2.5-6,3.4
				c-2.1,0.9-4.3,1.6-6.5,2.2c-4.4,1.2-8.9,1.9-13.5,2.3c-4.5,0.3-9.1,0.5-13.6,0.3c-2.3-0.1-4.6-0.3-6.8-0.7c-2.3-0.4-4.5-1-6.6-2
				l0.5-0.1c-1.7,1.3-3.2,2.7-4.6,4.3c-1.3,1.6-2.4,3.5-3.2,5.4c-0.8,2-1.3,4-1.5,6.1C40,60.6,40,61.7,40,62.7
				c0.1,1.1-0.1,2.2-0.3,3.3l0,0.2l-0.2,0c-2.2-0.4-4.4-1.1-6.1-2.5c-0.9-0.7-1.6-1.6-2.1-2.6c-0.5-1-0.7-2.1-0.8-3.2
				c-0.1-2.2,0.4-4.4,1.2-6.4C32.5,49.5,33.6,47.6,35,45.8z M35,45.9c-1.3,1.7-2.4,3.7-3.2,5.7c-0.8,2-1.3,4.2-1.2,6.4
				c0.1,2.2,1.2,4.2,2.9,5.5c1.7,1.3,3.9,1.9,6,2.3l-0.3,0.2c0.2-1.1,0.2-2.1,0.2-3.2c-0.1-1.1-0.1-2.2,0-3.3
				c0.2-2.2,0.6-4.3,1.4-6.4c0.8-2,1.9-4,3.2-5.7c1.3-1.7,2.9-3.2,4.7-4.6l0.2-0.2l0.3,0.1c4,1.9,8.6,2.4,13,2.6
				c4.5,0.2,9,0,13.5-0.4c4.5-0.4,8.9-1,13.3-2.2c2.2-0.6,4.3-1.3,6.4-2.1c2.1-0.9,4.1-1.9,5.8-3.3l0.2-0.2l0.3,0.2
				c1.6,1,3.2,2.2,4.5,3.6c1.3,1.4,2.4,3,3.3,4.7c0.9,1.7,1.6,3.5,2.1,5.3c0.5,1.8,0.9,3.7,1.1,5.6l-0.5-0.2
				c2.3-1.6,4.5-3.5,5.9-5.9c0.7-1.2,1.2-2.5,1.4-3.9c0.1-1.4-0.1-2.8-0.6-4.1c-0.5-1.3-1.3-2.5-2.3-3.5c-0.9-1.1-2-2-3-3
				c-2-2-3.9-4.2-5.5-6.6c-1.6-2.3-3-4.8-4.3-7.4c-0.6-1.3-1.3-2.5-2-3.8c-0.7-1.2-1.5-2.4-2.4-3.4c-1.9-2-4.9-2.6-7.6-2.7
				c-1.4,0-2.8,0.2-4.1,0.6c-1.3,0.4-2.6,1-4,1.5c-1.4,0.5-2.8,0.9-4.2,1.1c-1.5,0.2-2.9,0.3-4.3,0.3c-1.4,0-2.9-0.1-4.3-0.4
				c-1.4-0.3-2.8-0.6-4.2-0.8c-1.4-0.2-2.8-0.2-4.2-0.2c-1.4,0-2.9,0-4.3,0c-2.8,0.1-5.7,0.3-8,1.9c-2.3,1.5-3.9,4-4.9,6.6
				c-1,2.6-1.8,5.4-2.8,8.1c-0.9,2.7-1.8,5.4-3,8C38.3,41.2,36.8,43.7,35,45.9z"/>
		</g>
	</g>
	<g>
		<path class="st1" d="M45.2,28.6c0.2,2.4,2.2,4.3,4.7,4.1c2.4-0.2,4.3-2.2,4.1-4.7c-0.1-2.4-2.2-4.3-4.7-4.1
			C46.9,24.1,45.1,26.2,45.2,28.6z"/>
		<circle cx="50.7" cy="28.2" r="4.4"/>
		<path class="st11" d="M52.1,27.4c0,0.4,0.4,0.7,0.8,0.7c0.4,0,0.7-0.4,0.7-0.8c0-0.4-0.4-0.7-0.8-0.7C52.4,26.6,52.1,27,52.1,27.4
			z"/>
	</g>
	<g>
		<path class="st1" d="M93.2,25.6c0.1,2.4,2.2,4.3,4.7,4.1c2.4-0.2,4.3-2.2,4.1-4.7c-0.2-2.4-2.2-4.3-4.7-4.1
			C94.9,21.1,93,23.2,93.2,25.6z"/>
		<path d="M94.3,25.5c0.2,2.4,2.2,4.3,4.7,4.1c2.4-0.2,4.3-2.2,4.1-4.7c-0.2-2.4-2.2-4.3-4.7-4.1C96,21,94.2,23.1,94.3,25.5z"/>
		<circle class="st11" cx="100.8" cy="24.4" r="0.7"/>
	</g>
	<path class="st8" d="M113.7,30.7c0.2,1.5-3.4,3.2-8,3.7c-4.6,0.5-8.5-0.4-8.6-1.9c-0.2-1.5,3.4-3.2,8-3.7
		C109.6,28.4,113.5,29.2,113.7,30.7z"/>
	<path class="st11" d="M113.5,28.8c0,0.5-1.1,1-2.6,1.2c-1.5,0.2-2.7-0.1-2.8-0.6c0-0.5,1.1-1,2.6-1.2
		C112.2,28.1,113.4,28.4,113.5,28.8z"/>
	<path class="st8" d="M37.3,35.4c0,1.6,3.8,2.7,8.5,2.7c4.7-0.1,8.4-1.4,8.4-3c0-1.6-3.8-2.7-8.5-2.7C41,32.5,37.2,33.8,37.3,35.4z"
		/>
	<path class="st11" d="M37.2,33.5c0,0.5,1.2,0.9,2.7,0.9c1.5,0,2.7-0.5,2.7-1c0-0.5-1.2-0.9-2.7-0.8C38.4,32.6,37.2,33,37.2,33.5z"
		/>
	<path class="st8" d="M39.6,74.5c0,1.6,3.8,2.7,8.5,2.7c4.7-0.1,8.4-1.4,8.4-3c0-1.6-3.8-2.7-8.5-2.7C43.3,71.6,39.5,72.9,39.6,74.5
		z"/>
	<path class="st11" d="M39.5,72.6c0,0.5,1.2,0.9,2.7,0.9c1.5,0,2.7-0.5,2.7-1c0-0.5-1.2-0.9-2.7-0.8C40.7,71.7,39.5,72.1,39.5,72.6z
		"/>
	<path class="st8" d="M108.9,69.9c0.2,1.5-3.5,3.2-8.1,3.7c-4.6,0.5-8.5-0.4-8.7-1.9c-0.2-1.5,3.5-3.2,8.1-3.7
		C104.8,67.5,108.7,68.3,108.9,69.9z"/>
	<path class="st11" d="M108.7,68c0.1,0.5-1.1,1-2.6,1.2c-1.5,0.2-2.7-0.1-2.8-0.6c-0.1-0.5,1.1-1,2.6-1.2
		C107.4,67.2,108.6,67.5,108.7,68z"/>
	<g>
		<path d="M106.5,32.1c-4.4,3.1-9.2,5.6-14.3,7.5c-5,1.9-10.3,3.2-15.7,3.7c-5.4,0.5-10.9,0.2-16.1-1c-2.6-0.6-5.2-1.5-7.7-2.5
			c-2.5-1.1-4.9-2.4-7.1-3.8c4.7,2.6,9.7,4.6,14.9,5.6c5.2,1.1,10.6,1.3,15.9,0.8c5.3-0.5,10.5-1.7,15.6-3.5c2.5-0.9,5-1.9,7.4-3
			C101.9,34.7,104.3,33.5,106.5,32.1z"/>
	</g>
	<g>
		<path d="M104.1,29.4c1.3,0.7,2.4,1.6,3.4,2.6c0.5,0.5,1,1,1.4,1.6c0.4,0.6,0.8,1.2,1.1,1.9c-1.2-0.9-2.2-1.8-3.2-2.7
			C105.8,31.7,104.8,30.7,104.1,29.4z"/>
	</g>
	<g>
		<path d="M48.9,34.1c-1,1-2.1,1.8-3.1,2.6c-0.5,0.4-1,0.9-1.5,1.3c-0.5,0.5-0.9,1-1.3,1.5c0-0.7,0.3-1.4,0.7-2
			c0.4-0.6,0.9-1.1,1.4-1.6c0.5-0.5,1.1-0.9,1.8-1.2C47.5,34.5,48.2,34.2,48.9,34.1z"/>
	</g>
	<g>
		<path d="M87,30.6c-0.9-0.7-1.8-1.4-2.8-1.9c-1-0.6-2-1.1-3.1-1.4c-2.1-0.8-4.4-1.2-6.6-1c-2.2,0.1-4.4,0.7-6.5,1.6
			c-1,0.5-2.1,1-3,1.6c-1,0.6-1.9,1.2-2.9,1.9c0.8-0.8,1.7-1.6,2.6-2.3c0.9-0.7,1.9-1.3,3-1.9c2.1-1.1,4.4-1.8,6.8-1.9
			c2.4-0.1,4.8,0.4,6.9,1.3C83.5,27.5,85.5,28.9,87,30.6z"/>
	</g>
	
		<ellipse transform="matrix(-0.9982 6.078491e-002 -6.078491e-002 -0.9982 159.9398 57.6653)" cx="79.1" cy="31.3" rx="0.5" ry="1.2"/>
	<ellipse transform="matrix(-0.998 6.243496e-002 -6.243496e-002 -0.998 143.4975 59.079)" cx="70.8" cy="31.8" rx="0.5" ry="1.2"/>
	<g>
		<path class="st6" d="M84.4,88.4c0,0,5.1,18.2,9.5,29.7c4.3,11.3,3.3,22.8-14.1,22.5c-17.4-0.2-19-13.6-16.2-23
			c2.8-9.4,6.3-28.1,6.3-28.1S74.6,89,84.4,88.4z"/>
		<path d="M84.4,88.3c1.6,5.1,3.2,10.1,4.9,15.2c1.6,5.1,3.4,10.1,5.3,15c0.9,2.5,1.6,5.2,1.8,7.9c0.2,2.7-0.1,5.5-1.4,7.9
			c-1.3,2.4-3.6,4.2-6.1,5.1c-2.5,1-5.2,1.3-7.9,1.4c-2.7,0.1-5.4-0.1-8-0.8c-2.6-0.7-5.1-2-7-4c-1.9-2-3.1-4.6-3.6-7.3
			c-0.5-2.7-0.4-5.4,0-8.1c0.2-1.3,0.6-2.7,1-3.9c0.4-1.3,0.7-2.5,1-3.8c0.7-2.6,1.3-5.2,1.8-7.7c1.2-5.2,2.3-10.4,3.4-15.6l0.1-0.3
			l0.2,0C74.7,88.7,79.6,88.5,84.4,88.3L84.4,88.3L84.4,88.3z M84.4,88.4c-2.4,0.2-4.8,0.4-7.2,0.7c-2.4,0.2-4.8,0.5-7.2,0.8
			l0.3-0.3c-0.9,5.2-1.9,10.5-3.1,15.7c-0.6,2.6-1.2,5.2-1.8,7.8c-0.3,1.3-0.7,2.6-1,3.9c-0.4,1.3-0.7,2.5-1,3.8
			c-0.5,2.6-0.6,5.2-0.1,7.8c0.5,2.5,1.5,5,3.3,6.9c1.7,1.9,4.1,3.2,6.6,4c2.5,0.8,5.2,1,7.8,1c2.6,0,5.3-0.3,7.8-1.3
			c2.4-0.9,4.7-2.6,5.8-5c1.2-2.3,1.4-5.1,1.1-7.6c-0.3-2.6-1-5.2-1.9-7.6C90,108.9,87,98.7,84.4,88.4z"/>
	</g>
	<path class="st9" d="M58.7,144c0.1,0.4,0.2,0.8,0.3,1.2c-0.5-5.5-0.6-11-0.5-16.6c0.6,0.1,1.7-0.4,3.9-2.1c0,0,3.1-1.4-0.6-9.9
		l3.9-10.9l-1-13c0,0-6.6,7.4-8,16.7c-0.5,3.7-0.5,5.6-0.1,6.9C50.7,140,58.7,144,58.7,144z M58.6,124.2c0.1-1.4,0.2-2.8,0.3-4.2
		c0,0,0,0,0,0.1C59.3,121,59,122.6,58.6,124.2z"/>
	<g>
		<path class="st12" d="M65.8,91.5c0,0-9.5,7-12.1,16.2c-2.6,9.2,0.9,7.7,2.3,10.8c1.3,3.2-7.4,12.5,4.1,6.6c0,0,4.2-1.2,0-9.9
			l6.1-10.7"/>
		<path d="M65.9,91.6c-3,2.6-5.7,5.5-7.9,8.7c-1.1,1.6-2.1,3.3-2.9,5c-0.8,1.8-1.4,3.7-1.8,5.6c-0.2,1-0.3,1.9-0.2,2.9
			c0.1,1,0.6,1.8,1.3,2.4c0.7,0.6,1.5,1.4,1.9,2.4c0.2,0.6,0.1,1.1,0.1,1.6c-0.1,0.5-0.2,1-0.4,1.5c-0.3,1-0.7,1.9-1,2.8
			c-0.2,0.5-0.3,0.9-0.4,1.4c0,0.2-0.1,0.4,0,0.6c0,0.2,0.1,0.2,0.2,0.2c0.3,0.1,0.8,0,1.2-0.1c0.4-0.1,0.9-0.3,1.3-0.5
			c0.9-0.4,1.8-0.8,2.6-1.3l0,0l0.1,0c0.6-0.2,1.1-0.9,1.3-1.7c0.2-0.8,0.2-1.6,0.1-2.5c-0.3-1.7-0.9-3.4-1.7-5.1l-0.1-0.2l0.1-0.2
			c1-1.8,2.1-3.5,3.2-5.3c1.1-1.8,2.2-3.5,3.3-5.2l0.1,0c-0.9,1.8-1.9,3.7-2.8,5.5c-1,1.8-1.9,3.6-2.9,5.4l0-0.4
			c0.8,1.6,1.6,3.4,1.9,5.3c0.2,0.9,0.2,1.9-0.1,2.9c-0.3,1-0.9,2-2.1,2.4l0.1,0c-0.9,0.4-1.8,0.9-2.7,1.3c-0.5,0.2-1,0.4-1.5,0.5
			c-0.5,0.1-1,0.3-1.7,0.1c-0.4-0.1-0.7-0.5-0.7-0.9c-0.1-0.3,0-0.6,0.1-0.9c0.1-0.5,0.3-1,0.5-1.5c0.4-0.9,0.8-1.8,1.2-2.7
			c0.3-0.9,0.7-1.9,0.5-2.7c-0.3-0.9-1-1.6-1.7-2.3c-0.4-0.3-0.7-0.7-1-1.2c-0.2-0.5-0.4-1-0.5-1.5c-0.1-1,0-2,0.1-3
			c0.3-2,0.7-3.9,1.5-5.8c0.8-1.9,1.7-3.6,2.9-5.2C59.6,96.5,62.5,93.7,65.9,91.6L65.9,91.6z"/>
	</g>
	<path class="st9" d="M67.2,91.3c3.3,0.1,7,0,11.4-0.3c3.3-0.2,6.3-0.5,8.9-0.8C81.5,93.7,74.1,93.5,67.2,91.3z"/>
	<g>
		<path class="st4" d="M93.2,69l2-3l2-3l0,0c0.4-0.6,1-0.8,1.6-0.7c0.5,0,1,0.3,1.4,0.5c0.8,0.5,1.4,1.2,1.8,2l-0.1,0.1
			c-0.8-0.4-1.5-0.9-2.2-1.2c-0.4-0.2-0.7-0.3-1-0.3c-0.3,0-0.6,0.1-0.7,0.2l0,0L98,63.6l-2.3,2.8L93.2,69L93.2,69z"/>
	</g>
	<g>
		<path class="st4" d="M61.2,70.5c-1-0.7-2-1.4-3-2c-1-0.7-2-1.4-3.1-1.9c-0.1-0.1-0.3-0.1-0.4-0.2c-0.1,0-0.1,0-0.1,0
			c-0.1,0-0.1,0-0.1,0c-0.2,0.1-0.5,0.2-0.8,0.3c-0.5,0.2-1.1,0.5-1.6,0.7c-1.1,0.5-2.2,1-3.1,1.7l-0.1-0.1c0.3-0.6,0.7-1.1,1.2-1.5
			c0.5-0.4,1-0.8,1.6-1.1c0.5-0.3,1.1-0.5,1.7-0.7c0.3-0.1,0.6-0.2,1-0.2c0.1,0,0.2,0,0.3,0c0.1,0,0.3,0.1,0.4,0.1
			c0.2,0.1,0.3,0.2,0.5,0.2c1.1,0.7,2,1.4,3,2.2C59.4,68.9,60.4,69.7,61.2,70.5L61.2,70.5z"/>
	</g>
	<g>
		<path class="st11" d="M92.8,72.8l-34.9,2.1c0,0,1.2,13,18.9,11.8C94.6,85.6,92.8,72.8,92.8,72.8z"/>
		<path d="M92.7,72.9c-2.9,0.3-5.8,0.6-8.6,0.8c-2.9,0.2-5.8,0.4-8.7,0.6c-2.9,0.2-5.8,0.3-8.7,0.4c-2.9,0.1-5.8,0.2-8.7,0.4
			l0.2-0.2c0.6,4,3.3,7.5,6.7,9.3c3.5,1.9,7.6,2.3,11.6,2c4-0.2,8-1,11.3-3.2c1.6-1.1,3-2.6,3.8-4.4C92.4,76.9,92.8,74.9,92.7,72.9z
			 M92.8,72.8c0.3,2,0,4.1-0.8,6c-0.8,1.9-2.2,3.6-3.9,4.8c-1.7,1.2-3.6,2.1-5.6,2.7c-2,0.5-4.1,0.8-6.1,0.9c-2.1,0.1-4.1,0-6.2-0.3
			c-2-0.4-4-1-5.8-2.1c-3.6-2.1-6.1-5.9-6.7-10l0-0.2l0.2,0c2.9-0.2,5.8-0.4,8.7-0.6c2.9-0.3,5.8-0.5,8.7-0.7
			c2.9-0.2,5.8-0.3,8.7-0.4C87,72.9,89.9,72.8,92.8,72.8L92.8,72.8L92.8,72.8z"/>
	</g>
	<path class="st3" d="M81.7,79.1c-6.4,3.2-14.6,4.6-21.3,1.7c-0.9-1.2-1.4-2.4-1.8-3.3C65.5,81.1,74.2,80.5,81.7,79.1z"/>
	<g>
		<path class="st4" d="M80.1,80.5c-1.6,0.6-3.3,0.9-5,1c-0.8,0-1.7-0.1-2.5-0.1c-0.8,0-1.7,0.1-2.5,0.2c-0.8,0.1-1.7,0.2-2.5,0.2
			c-0.8,0-1.7,0-2.5,0c-1.7-0.2-3.4-0.5-4.9-1.4l0-0.1c1.7,0.2,3.3,0.3,5,0.4c1.6,0.1,3.3,0.2,5,0.3c0.8,0.1,1.7,0.1,2.5,0
			c0.8-0.1,1.7-0.3,2.5-0.5C76.7,80.4,78.4,80.3,80.1,80.5L80.1,80.5z"/>
	</g>
	<g>
		<path class="st4" d="M68.3,79.2c0.1,0.7,0.3,1.4,0.3,2.1c0,0.3,0.2,0.7,0.1,1c-0.1,0.3-0.2,0.7-0.5,1h-0.1c-0.3-0.3-0.4-0.7-0.5-1
			c-0.1-0.3,0.1-0.7,0.1-1C67.9,80.6,68.1,79.9,68.3,79.2L68.3,79.2z"/>
	</g>
</g>
</svg>
