<?xml version="1.0" encoding="utf-8"?>
<!-- Generator: Adobe Illustrator 15.1.0, SVG Export Plug-In . SVG Version: 6.00 Build 0)  -->
<!DOCTYPE svg PUBLIC "-//W3C//DTD SVG 1.1//EN" "http://www.w3.org/Graphics/SVG/1.1/DTD/svg11.dtd">
<svg version="1.1" id="Layer_2" xmlns="http://www.w3.org/2000/svg" xmlns:xlink="http://www.w3.org/1999/xlink" x="0px" y="0px"
	 width="159px" height="208px" viewBox="0 0 159 208" style="enable-background:new 0 0 159 208;" xml:space="preserve">
<style type="text/css">
<![CDATA[
	.st0{fill:#FFEFD7;stroke:#000000;stroke-miterlimit:10;}
	.st1{opacity:0.26;fill:#CE6A06;}
	.st2{opacity:0.52;fill:#B29A7B;}
	.st3{opacity:0.25;}
	.st4{opacity:0.35;fill:#966D44;}
	.st5{fill:#8E4904;}
	.st6{fill:#F9D3AA;}
	.st7{clip-path:url(#SVGID_2_);}
	.st8{clip-path:url(#SVGID_4_);}
	.st9{opacity:0.52;fill:#FF9999;}
	.st10{fill:#C99C6B;}
	.st11{fill:#FFD04D;}
	.st12{fill:#FFFFFF;}
	.st13{fill:#DBA214;}
	.st14{fill:#FFD04D;stroke:#000000;stroke-miterlimit:10;}
]]>
</style>
<g>
	<g>
		<path class="st11" d="M101.3,179.7c0,0-11.8-13.6,7.1-29.1c18.9-15.5,21.9-0.2,30.6-22.3l0.5,2c0,0-4.6,13.7-15.2,15.1
			c-10.7,1.4-29.6,15.8-22.1,30C102.1,175.5,105.1,178.9,101.3,179.7z"/>
		<path d="M101.2,179.7c-2-2.4-3.3-5.3-3.7-8.4c-0.5-3.1,0-6.3,1.1-9.2c1.2-2.9,3-5.5,5.1-7.8c2.1-2.3,4.5-4.3,7-6.1
			c2.5-1.8,5.2-3.4,8.1-4.5c2.9-1.2,6-1.5,9-2.1c1.5-0.3,2.9-0.8,4.1-1.8c1.2-0.9,2.1-2.1,2.9-3.4c1.6-2.6,2.8-5.4,3.9-8.3l0.3-0.8
			l0.2,0.9l0.5,2l0,0.1l0,0.1c-0.9,2.6-2.1,5.1-3.7,7.4c-1.5,2.3-3.4,4.4-5.8,5.9c-1.2,0.8-2.4,1.4-3.8,1.8
			c-0.7,0.2-1.4,0.4-2.1,0.5c-0.7,0.1-1.3,0.2-1.9,0.4c-2.6,0.7-5,1.8-7.4,3.1c-2.3,1.3-4.5,2.9-6.5,4.7c-2,1.8-3.8,3.8-5.2,6.1
			c-1.4,2.3-2.4,4.8-2.7,7.4c-0.3,2.6,0.3,5.3,1.5,7.8l0,0c0.3,0.4,0.6,0.8,0.8,1.2c0.2,0.4,0.3,0.9,0.3,1.4c0,0.5-0.3,1-0.7,1.2
			C102.2,179.5,101.7,179.7,101.2,179.7L101.2,179.7L101.2,179.7z M101.3,179.7c0.4-0.1,0.9-0.3,1.2-0.5c0.4-0.3,0.6-0.7,0.6-1.1
			c0-0.9-0.6-1.7-1.1-2.4l0,0l0,0c-1.3-2.4-2-5.2-1.8-8c0.2-2.8,1.2-5.5,2.6-7.8c2.8-4.8,7.1-8.5,11.9-11.3c2.4-1.4,4.9-2.5,7.6-3.2
			c0.7-0.2,1.4-0.3,2.1-0.4c0.6-0.1,1.3-0.2,1.9-0.4c1.3-0.4,2.5-0.9,3.6-1.6c2.2-1.4,4.1-3.4,5.6-5.6c1.5-2.2,2.8-4.6,3.8-7.1
			l0,0.2l-0.4-2l0.5,0c-1.2,2.8-2.4,5.7-4.1,8.3c-0.8,1.3-1.8,2.5-3.1,3.5c-1.2,1-2.7,1.6-4.2,1.9c-1.5,0.3-3,0.6-4.5,0.9
			c-1.5,0.3-2.9,0.8-4.3,1.4c-2.8,1.2-5.4,2.8-7.8,4.6c-2.4,1.8-4.8,3.8-6.8,6c-2.1,2.2-3.8,4.7-5,7.5c-1.2,2.8-1.7,5.8-1.3,8.8
			C98.4,174.3,99.5,177.2,101.3,179.7z"/>
	</g>
	<path class="st1" d="M137.2,132.5c0.4-0.4,0.8-0.9,1.3-1.3C138,131.6,137.6,132,137.2,132.5c-4.4,9.4-7.5,9.1-12.9,10.1
		c-12.4,7.1-24,12.8-26.5,29.3c0.8,4.8,3.4,7.8,3.4,7.8c3.8-0.8,0.8-4.2,0.8-4.2c-7.5-14.2,11.5-28.6,22.1-30
		c10.7-1.4,15.2-15.1,15.2-15.1l-0.5-2C138.4,129.9,137.8,131.3,137.2,132.5z"/>
	<path class="st14" d="M137.3,133.1c-1.7-1.7-0.5-6.4,2.6-10.5c3.1-4.1,8.6-4.2,8.6-4.2s-1.9,9-3.5,12
		C142.6,134.9,139,134.8,137.3,133.1z"/>
	<path class="st1" d="M139.2,123.5c-0.4,3.5-0.3,7,1,10.6c1.6-0.1,3.4-1.1,4.8-3.8c1.6-3.1,3.5-12,3.5-12s-5.5,0.1-8.6,4.2
		C139.6,122.9,139.4,123.2,139.2,123.5z"/>
	<g>
		<g>
			<path d="M148.4,118.4c-0.3,1.5-0.7,3-1.2,4.4c-0.5,1.5-1.1,2.9-1.8,4.3c-0.7,1.4-1.5,2.7-2.5,3.9c-1,1.2-2.2,2.3-3.7,2.7
				c1.4-0.6,2.5-1.7,3.4-2.9c0.9-1.2,1.7-2.5,2.3-3.9c0.7-1.4,1.3-2.8,1.9-4.2C147.4,121.3,147.9,119.8,148.4,118.4z"/>
		</g>
		<g>
			<path d="M136.8,132.3c0-1.5,0.3-3,0.8-4.4c0.5-1.4,1.3-2.7,2.2-3.9c1-1.2,2-2.2,3.3-3.1c1.2-0.9,2.5-1.6,3.9-2.1
				c-1.3,0.7-2.5,1.5-3.7,2.4c-1.1,0.9-2.2,1.9-3.1,3.1c-0.9,1.1-1.7,2.4-2.3,3.7C137.4,129.4,137.1,130.9,136.8,132.3z"/>
		</g>
		<g>
			<path d="M137.3,133.1c1.8-2.4,3.5-4.9,5.3-7.3l5.5-7.2l1-1.3l-0.6,1.5c-0.5,1.5-1.2,2.9-1.8,4.4c-0.7,1.4-1.4,2.8-2.3,4.2
				c-0.9,1.3-1.8,2.6-2.9,3.7C140.4,132.2,138.9,133.2,137.3,133.1z M137.3,133.1c1.6,0,3-1,4-2.1c1.1-1.1,2-2.4,2.8-3.8
				c1.6-2.7,2.9-5.6,4-8.5l0.4,0.2l-5.5,7.1C141.1,128.4,139.2,130.8,137.3,133.1z"/>
		</g>
		<g>
			<path d="M147,120.5c-0.4,1.2-0.9,2.3-1.5,3.4c-0.6,1.1-1.2,2.1-1.9,3.2c-0.7,1-1.4,2-2.3,2.9c-0.9,0.9-1.9,1.7-3,2.1
				c1.1-0.6,1.9-1.5,2.7-2.4c0.8-0.9,1.5-1.9,2.2-2.9C144.6,124.7,145.8,122.6,147,120.5z"/>
		</g>
		<g>
			<path d="M147.6,118.5c-1.6,2.2-3.3,4.3-5,6.4c-0.8,1.1-1.7,2.1-2.5,3.2c-0.8,1.1-1.6,2.2-2.3,3.3c0.6-1.2,1.3-2.4,2-3.5
				c0.7-1.1,1.6-2.2,2.4-3.3C143.9,122.5,145.7,120.4,147.6,118.5z"/>
		</g>
		<g>
			<path d="M146,120c-0.9,0.8-1.8,1.6-2.6,2.4c-0.8,0.9-1.6,1.7-2.3,2.7c-1.4,1.9-2.6,3.9-3.6,6c0.3-1.1,0.8-2.2,1.3-3.3
				c0.5-1.1,1.2-2.1,1.9-3c0.7-0.9,1.5-1.8,2.4-2.7C144,121.4,145,120.6,146,120z"/>
		</g>
	</g>
	<g>
		<path class="st6" d="M117,81.4c-1-6.3-1.4-5.9-1.4-8.8C115.1,53.2,96.7,44.2,74,44.2c-22.7,0-38.9,4.5-40.8,27.2
			c-0.3,3.6,1.5,7.3,1.5,10.5c0,3.2-1.5,5.5-1.5,8.2c0,9.1,10.1,14.4,43.1,14.4c33.1,0,42.1-5.4,42.1-14.4
			C118.5,86.7,118,87.7,117,81.4z"/>
		<g>
			<path d="M116.9,81.4c-0.2-1.3-0.4-2.5-0.7-3.8c-0.2-1.3-0.6-2.5-0.7-3.8c-0.1-1.3-0.1-2.6-0.2-3.8c-0.1-1.3-0.4-2.5-0.7-3.8
				c-1.3-5-4.3-9.3-8.3-12.5c-4-3.2-8.7-5.3-13.6-6.7c-4.9-1.4-10-2.1-15.1-2.4c-5.1-0.2-10.2-0.1-15.3,0.3
				c-5.1,0.5-10.2,1.4-14.8,3.6c-2.3,1.1-4.5,2.5-6.3,4.2c-1.9,1.8-3.4,3.8-4.5,6.1c-1.1,2.3-1.9,4.7-2.4,7.2
				c-0.3,1.3-0.4,2.5-0.6,3.8c-0.1,0.6-0.1,1.3-0.1,1.9c0,0.6,0,1.3,0.1,1.9c0.3,2.5,1.3,4.9,1.4,7.6c0.1,1.3-0.2,2.7-0.5,3.9
				c-0.3,1.3-0.7,2.5-0.9,3.7c-0.3,2.4,0.4,5,2,6.9c1.6,1.9,3.8,3.1,6.2,4.1c4.7,1.8,9.8,2.6,14.9,3.2c5.1,0.5,10.2,0.8,15.3,0.8
				c5.1,0.1,10.3,0,15.4-0.2c5.1-0.2,10.2-0.6,15.3-1.5c2.5-0.5,5-1,7.4-2c2.4-0.9,4.7-2.2,6.3-4.2c0.8-1,1.4-2.1,1.7-3.4
				c0.3-1.2,0.4-2.5,0.3-3.8c0-1.3-0.5-2.5-0.7-3.8C117.4,84,117.1,82.7,116.9,81.4z M117,81.4c0.2,1.3,0.4,2.5,0.7,3.8
				c0.3,1.2,0.7,2.5,0.8,3.8c0.1,1.3,0,2.6-0.3,3.9c-0.3,1.3-0.9,2.5-1.7,3.5c-1.6,2.1-3.9,3.4-6.3,4.4c-2.4,1-4.9,1.7-7.4,2.2
				c-5.1,1-10.2,1.5-15.3,1.8C82.3,105,77.2,105,72,105c-5.1-0.1-10.3-0.3-15.4-0.8c-5.1-0.6-10.3-1.4-15.1-3.3
				c-2.4-1-4.8-2.3-6.5-4.4c-1.7-2.1-2.4-4.9-2.1-7.5c0.2-1.3,0.6-2.6,0.9-3.8c0.3-1.2,0.5-2.5,0.5-3.7c-0.1-2.5-1-5-1.3-7.5
				c-0.1-0.6-0.1-1.3-0.1-2c0-0.7,0.1-1.3,0.2-1.9c0.2-1.3,0.4-2.6,0.6-3.8c0.6-2.5,1.4-5,2.5-7.3c1.2-2.3,2.7-4.4,4.6-6.2
				c1.9-1.8,4.1-3.2,6.4-4.3c4.7-2.2,9.8-3.3,14.9-3.9c5.1-0.6,10.3-0.7,15.4-0.6c5.1,0.2,10.3,0.9,15.3,2.4
				c4.9,1.5,9.8,3.7,13.7,7.1c4,3.3,6.9,7.9,8.2,12.9c0.3,1.3,0.5,2.5,0.7,3.8c0.2,1.3,0.1,2.6,0.2,3.8c0.1,1.3,0.5,2.5,0.7,3.8
				C116.6,78.9,116.8,80.1,117,81.4z"/>
		</g>
	</g>
	<g>
		<path class="st0" d="M99.3,16.8c0,0,35.1-2.1,42-14c0,0-1.3,25.3-21.7,30.6C119.6,33.3,104.9,30.4,99.3,16.8z"/>
		<path class="st2" d="M122.4,28.1c-4.4-6.6-11.9-5.3-14.1-12.2c-5.2,0.7-8.9,0.9-8.9,0.9c5.6,13.6,20.3,16.5,20.3,16.5
			c15.2-4,19.8-19.1,21.1-26.5C136.5,15.5,130.3,23.1,122.4,28.1z"/>
		<g>
			<defs>
				<path id="SVGID_1_" d="M99.3,16.8c0,0,35.1-2.1,42-14c0,0-1.3,25.3-21.7,30.6C119.6,33.3,104.9,30.4,99.3,16.8z"/>
			</defs>
			<clipPath id="SVGID_2_">
				<use xlink:href="#SVGID_1_"  style="overflow:visible;"/>
			</clipPath>
			<g class="st7">
				<g>
					<path d="M102.4,16.7c0.7,2,1.5,3.9,2.4,5.8c0.9,1.9,1.9,3.8,3.4,5.2c1.4,1.5,3.1,2.8,5,3.7c1.9,0.9,3.9,1.5,6,1.6v0
						c-2.1,0.1-4.3-0.3-6.2-1.2c-1.9-0.9-3.6-2.4-4.9-4c-1.3-1.7-2.5-3.4-3.6-5.2C103.5,20.8,102.8,18.8,102.4,16.7L102.4,16.7z"/>
				</g>
				<g>
					<path d="M104.9,16.7c0.7,2,1.5,3.9,2.4,5.8c0.9,1.9,1.9,3.8,3.4,5.2c1.4,1.5,3.1,2.8,5,3.7c1.9,0.9,3.9,1.5,6,1.6v0
						c-2.1,0.1-4.3-0.3-6.2-1.2c-1.9-0.9-3.6-2.4-4.9-4c-1.3-1.7-2.5-3.4-3.6-5.2C105.9,20.8,105.2,18.8,104.9,16.7L104.9,16.7z"/>
				</g>
				<g>
					<path d="M107.3,16.7c0.7,2,1.5,3.9,2.4,5.8c0.9,1.9,1.9,3.8,3.4,5.2c1.4,1.5,3.1,2.8,5,3.7c1.9,0.9,3.9,1.5,6,1.6v0
						c-2.1,0.1-4.3-0.3-6.2-1.2c-1.9-0.9-3.6-2.4-4.9-4c-1.3-1.7-2.5-3.4-3.6-5.2C108.4,20.8,107.6,18.8,107.3,16.7L107.3,16.7z"/>
				</g>
				<g>
					<path d="M108.5,14.8c0.7,2,1.5,3.9,2.4,5.8c0.9,1.9,1.9,3.8,3.4,5.2c1.4,1.5,3.1,2.8,5,3.7c1.9,0.9,3.9,1.5,6,1.6v0
						c-2.1,0.1-4.3-0.3-6.2-1.2c-1.9-0.9-3.6-2.4-4.9-4c-1.3-1.7-2.5-3.4-3.6-5.2C109.6,18.9,108.8,16.9,108.5,14.8L108.5,14.8z"/>
				</g>
				<g>
					<path d="M110.9,13.3c0.7,2,1.5,3.9,2.4,5.8c0.9,1.9,1.9,3.8,3.4,5.2c1.4,1.5,3.1,2.8,5,3.7c1.9,0.9,3.9,1.5,6,1.6v0
						c-2.1,0.1-4.3-0.3-6.2-1.2c-1.9-0.9-3.6-2.4-4.9-4c-1.3-1.7-2.5-3.4-3.6-5.2C111.9,17.4,111.2,15.4,110.9,13.3L110.9,13.3z"/>
				</g>
				<g>
					<path d="M113.3,11.4c0.7,2,1.5,3.9,2.4,5.8c0.9,1.9,1.9,3.8,3.4,5.2c1.4,1.5,3.1,2.8,5,3.7c1.9,0.9,3.9,1.5,6,1.6v0
						c-2.1,0.1-4.3-0.3-6.2-1.2c-1.9-0.9-3.6-2.4-4.9-4c-1.3-1.7-2.5-3.4-3.6-5.2C114.3,15.5,113.6,13.5,113.3,11.4L113.3,11.4z"/>
				</g>
				<g>
					<path d="M115.7,9.7c0.7,2,1.5,3.9,2.4,5.8c0.9,1.9,1.9,3.8,3.4,5.2c1.4,1.5,3.1,2.8,5,3.7c1.9,0.9,3.9,1.5,6,1.6v0
						c-2.1,0.1-4.3-0.3-6.2-1.2c-1.9-0.9-3.6-2.4-4.9-4c-1.3-1.7-2.5-3.4-3.6-5.2C116.8,13.8,116,11.8,115.7,9.7L115.7,9.7z"/>
				</g>
				<g>
					<path d="M118.7,6.6c0.7,2,1.5,3.9,2.4,5.8c0.9,1.9,1.9,3.8,3.4,5.2c1.4,1.5,3.1,2.8,5,3.7c1.9,0.9,3.9,1.5,6,1.6v0
						c-2.1,0.1-4.3-0.3-6.2-1.2c-1.9-0.9-3.6-2.4-4.9-4c-1.3-1.7-2.5-3.4-3.6-5.2C119.8,10.7,119,8.7,118.7,6.6L118.7,6.6z"/>
				</g>
				<g>
					<path d="M121.7,3.8c0.7,2,1.5,3.9,2.4,5.8c0.9,1.9,1.9,3.8,3.4,5.2c1.4,1.5,3.1,2.8,5,3.7c1.9,0.9,3.9,1.5,6,1.6v0
						c-2.1,0.1-4.3-0.3-6.2-1.2c-1.9-0.9-3.6-2.4-4.9-4c-1.3-1.7-2.5-3.4-3.6-5.2C122.8,7.9,122,5.9,121.7,3.8L121.7,3.8z"/>
				</g>
				<g>
					<path d="M123.3,0.9c0.7,2,1.5,3.9,2.4,5.8c0.9,1.9,1.9,3.8,3.4,5.2c1.4,1.5,3.1,2.8,5,3.7c1.9,0.9,3.9,1.5,6,1.6v0
						c-2.1,0.1-4.3-0.3-6.2-1.2c-1.9-0.9-3.6-2.4-4.9-4c-1.3-1.7-2.5-3.4-3.6-5.2C124.4,5,123.6,3,123.3,0.9L123.3,0.9z"/>
				</g>
				<g>
					<path d="M127.7,1.4c1,1.8,2.2,3.6,3.4,5.3c1.2,1.7,2.6,3.3,4.3,4.6c1.7,1.2,3.6,2.2,5.6,2.8c2,0.6,4.1,0.8,6.2,0.6l0,0
						c-2.1,0.5-4.3,0.5-6.4-0.1c-2.1-0.6-4-1.7-5.6-3.1c-1.6-1.4-3.1-2.9-4.5-4.5C129.5,5.2,128.4,3.4,127.7,1.4L127.7,1.4z"/>
				</g>
				<g>
					<path d="M130.2-1.9c1,1.8,2.2,3.6,3.4,5.3c1.2,1.7,2.6,3.3,4.3,4.6c1.7,1.2,3.6,2.2,5.6,2.8c2,0.6,4.1,0.8,6.2,0.6l0,0
						c-2.1,0.5-4.3,0.5-6.4-0.1c-2.1-0.6-4-1.7-5.6-3.1c-1.6-1.4-3.1-2.9-4.5-4.5C132,2,130.9,0.1,130.2-1.9L130.2-1.9z"/>
				</g>
				<g>
					<path d="M131.2-5.1c1,1.8,2.2,3.6,3.4,5.3c1.2,1.7,2.6,3.3,4.3,4.6c1.7,1.2,3.6,2.2,5.6,2.8c2,0.6,4.1,0.8,6.2,0.6l0,0
						c-2.1,0.5-4.3,0.5-6.4-0.1c-2.1-0.6-4-1.7-5.6-3.1c-1.6-1.4-3.1-2.9-4.5-4.5C133-1.2,131.9-3.1,131.2-5.1L131.2-5.1z"/>
				</g>
			</g>
		</g>
	</g>
	<g>
		<path class="st4" d="M116.1,76.4c-0.3,10.4-4.1,20-11.4,25.8c10.3-2.4,13.8-6.6,13.8-12.1c0-3.4-0.5-2.3-1.5-8.6
			C116.6,78.8,116.3,77.4,116.1,76.4z"/>
		<path class="st4" d="M65.2,76.6c0.1,0,0.1,0.1,0.1,0.1C65.3,76.7,65.2,76.6,65.2,76.6z"/>
		<path class="st4" d="M120.3,73.3c0,0-22.1-63.1-83.6-29.6c0,0-12,22.2-5.9,31.8c0,0,1-0.3,2.6-1c0.4,2.5,1.3,5,1.3,7.3
			c0,3.2-1.5,5.5-1.5,8.2c0,5.5,3.7,9.6,13.8,12c-2-1.2-3.8-2.6-5.2-4.3c-7.2-6.4-6.5-15.5-6.3-24.4c5-3.3,12.3-11,13.1-28.1
			c0,0,2.9,26.7,16.5,31.4c-0.8-0.3-4.4-2.3-5-10.2c0,0,6.4,9.7,16.5,10.2l-7-9.2c0,0,17.1,8.1,17.1,14c0,0,8.2-15.2-6.1-25.3
			c0,0,10.1,6.8,10.6,12.5c0,0,2.6-7.1-0.3-13.2C95.3,61.3,105.5,71.8,120.3,73.3z"/>
	</g>
	<g>
		<path class="st5" d="M48.7,44c0,0,2.9,26.9,16.6,31.5c0,0-4.5-1.4-5.2-10.2c0,0,6.4,9.7,16.5,10.2l-7-9.2c0,0,17.1,8.1,17.1,14
			c0,0,8.2-15.2-6.1-25.3c0,0,10.1,6.8,10.6,12.5c0,0,3.8-10.4-2.9-16.8c0,0,11.7,19.3,32.1,21.4c0,0-22.1-63.1-83.6-29.6
			c0,0-12,22.2-5.9,31.8C30.9,74.3,47.3,70.2,48.7,44z"/>
		<path d="M48.7,44c0.4,3.1,1,6.1,1.8,9.1c0.8,3,1.8,5.9,3,8.8c1.2,2.8,2.7,5.6,4.6,8c1.9,2.4,4.4,4.4,7.3,5.4l-0.2,0.6
			c-1.1-0.4-1.8-1.1-2.5-1.9c-0.7-0.8-1.2-1.7-1.6-2.6c-0.8-1.9-1.2-3.9-1.4-5.9L59.7,64l0.7,1.1c0.9,1.3,2,2.6,3.2,3.7
			c1.2,1.1,2.5,2.2,3.8,3.1c2.7,1.8,5.9,3,9.2,3.2l-0.4,0.7c-2.4-3.1-4.7-6.1-7-9.2l-1.1-1.5l1.6,0.8c3.4,1.7,6.7,3.6,9.9,5.7
			c1.6,1.1,3.1,2.2,4.5,3.6c0.7,0.7,1.3,1.4,1.9,2.2c0.5,0.8,1,1.8,1,2.8l-0.7-0.2c1-2.1,1.7-4.4,2.1-6.7c0.4-2.3,0.3-4.7-0.1-7
			c-0.5-2.3-1.5-4.5-2.8-6.4c-1.4-1.9-3.1-3.5-5-4.9l0.3-0.4c2.3,1.6,4.5,3.4,6.4,5.5c1,1,1.9,2.1,2.7,3.3c0.8,1.2,1.4,2.5,1.5,4
			l-0.3,0c0.9-2.8,1.3-5.9,0.9-8.8c-0.2-1.5-0.6-2.9-1.2-4.3c-0.6-1.3-1.5-2.5-2.6-3.6l0.3-0.2c1.8,2.8,3.9,5.3,6.2,7.7
			c2.3,2.4,4.8,4.6,7.5,6.4c2.7,1.9,5.6,3.5,8.7,4.7c3.1,1.2,6.3,2,9.6,2.3l-0.4,0.5c-1.5-4-3.5-7.8-5.7-11.4
			c-2.2-3.6-4.8-7.1-7.6-10.3C101,44.1,94,38.8,86,35.9c-8-2.9-16.8-3.4-25.1-1.8c-8.4,1.5-16.4,4.8-23.9,8.8l0.2-0.2
			c-1.3,2.4-2.5,5-3.5,7.5c-1,2.6-2,5.2-2.7,7.9c-0.7,2.7-1.3,5.4-1.4,8.1c-0.1,2.7,0.2,5.6,1.6,7.9L30.8,74
			c2.9-0.9,5.6-2.6,7.8-4.7c2.2-2.1,4.1-4.7,5.5-7.4C47,56.4,48.3,50.2,48.7,44L48.7,44z M48.7,44.4c-0.3,6.1-1.5,12.2-4.2,17.7
			c-1.4,2.8-3.3,5.4-5.5,7.6c-2.3,2.2-4.9,4-8,5l-0.2,0.1l-0.1-0.2C29,72,28.7,69,28.8,66.2c0.1-2.8,0.6-5.6,1.4-8.3
			c0.7-2.7,1.6-5.4,2.7-8c1-2.6,2.2-5.2,3.5-7.7l0.1-0.1l0.1-0.1c7.5-4.2,15.7-7.5,24.2-9c8.5-1.6,17.5-1.2,25.7,1.9
			c8.2,3,15.3,8.4,21,14.9c2.9,3.2,5.4,6.8,7.6,10.5c2.2,3.7,4.2,7.6,5.7,11.6l0.2,0.5l-0.6-0.1c-3.3-0.4-6.6-1.2-9.7-2.5
			c-3.1-1.3-6-2.9-8.8-4.8c-2.7-1.9-5.2-4.1-7.5-6.6c-2.3-2.4-4.4-5-6.2-7.8l-0.9-1.4l1.2,1.1c1.1,1.1,2,2.3,2.7,3.7
			c0.7,1.4,1,2.9,1.2,4.4c0.2,1.5,0.2,3,0,4.5c-0.2,1.5-0.5,3-0.9,4.4L91,68.3L91,67.5c-0.1-1.4-0.7-2.6-1.5-3.8
			c-0.8-1.2-1.7-2.2-2.6-3.2c-1.9-2-4.1-3.8-6.4-5.3l0.3-0.4c2,1.4,3.8,3,5.2,5c1.4,1.9,2.5,4.2,3,6.5c0.5,2.4,0.6,4.8,0.2,7.2
			c-0.4,2.4-1,4.7-2.1,6.9l-0.6,1.3l0-1.4c0-0.8-0.4-1.7-0.9-2.4c-0.5-0.8-1.1-1.4-1.8-2.1c-1.3-1.3-2.9-2.4-4.4-3.5
			c-3.1-2.1-6.4-3.9-9.8-5.6l0.5-0.7c2.4,3,4.7,6.1,7,9.2l0.6,0.7l-0.9-0.1c-3.4-0.2-6.7-1.5-9.5-3.4c-1.4-0.9-2.7-2-3.9-3.2
			c-1.2-1.2-2.3-2.5-3.3-3.9l0.6-0.2c0.2,2,0.5,3.9,1.3,5.7c0.4,0.9,0.9,1.8,1.5,2.5c0.6,0.7,1.4,1.4,2.2,1.7l-0.2,0.6
			c-3-1-5.6-3.1-7.5-5.6c-1.9-2.5-3.4-5.3-4.6-8.1c-1.2-2.9-2.1-5.9-2.8-8.9C49.6,50.3,49.1,47.3,48.7,44.4z"/>
	</g>
	<g>
		<path class="st0" d="M51.6,18.9c0,0-35.1-2.1-42-14c0,0,1.3,25.3,21.7,30.6C31.3,35.4,46,32.5,51.6,18.9z"/>
		<path class="st2" d="M28.5,30.1c4.4-6.6,11.9-5.3,14.1-12.2c5.2,0.7,8.9,0.9,8.9,0.9C46,32.5,31.3,35.4,31.3,35.4
			C16,31.4,11.5,16.3,10.1,8.9C14.4,17.5,20.6,25.1,28.5,30.1z"/>
		<g>
			<defs>
				<path id="SVGID_3_" d="M51.6,18.9c0,0-35.1-2.1-42-14c0,0,1.3,25.3,21.7,30.6C31.3,35.4,46,32.5,51.6,18.9z"/>
			</defs>
			<clipPath id="SVGID_4_">
				<use xlink:href="#SVGID_3_"  style="overflow:visible;"/>
			</clipPath>
			<g class="st8">
				<g>
					<path d="M48.5,18.7c-0.4,2.1-1.1,4.1-2.1,6c-1.1,1.8-2.3,3.6-3.6,5.2c-1.3,1.6-3,3.1-4.9,4c-1.9,1-4.1,1.4-6.2,1.2v0
						c2.1-0.2,4.1-0.7,6-1.6c1.8-0.9,3.5-2.2,5-3.7c1.5-1.5,2.6-3.3,3.4-5.2C46.9,22.7,47.8,20.7,48.5,18.7L48.5,18.7z"/>
				</g>
				<g>
					<path d="M46.1,18.7c-0.4,2.1-1.1,4.1-2.1,6c-1.1,1.8-2.3,3.6-3.6,5.2c-1.3,1.6-3,3.1-4.9,4c-1.9,1-4.1,1.4-6.2,1.2v0
						c2.1-0.2,4.1-0.7,6-1.6c1.8-0.9,3.5-2.2,5-3.7c1.5-1.5,2.6-3.3,3.4-5.2C44.5,22.7,45.3,20.7,46.1,18.7L46.1,18.7z"/>
				</g>
				<g>
					<path d="M43.6,18.7c-0.4,2.1-1.1,4.1-2.1,6c-1.1,1.8-2.3,3.6-3.6,5.2c-1.3,1.6-3,3.1-4.9,4c-1.9,0.9-4.1,1.4-6.2,1.2v0
						c2.1-0.2,4.1-0.7,6-1.6c1.8-0.9,3.5-2.2,5-3.7c1.5-1.5,2.6-3.3,3.4-5.2C42.1,22.7,42.9,20.7,43.6,18.7L43.6,18.7z"/>
				</g>
				<g>
					<path d="M42.4,16.8c-0.4,2.1-1.1,4.1-2.1,6c-1.1,1.8-2.3,3.6-3.6,5.2c-1.3,1.6-3,3.1-4.9,4c-1.9,0.9-4.1,1.4-6.2,1.2v0
						c2.1-0.2,4.1-0.7,6-1.6c1.8-0.9,3.5-2.2,5-3.7c1.5-1.5,2.6-3.3,3.4-5.2C40.9,20.8,41.7,18.8,42.4,16.8L42.4,16.8z"/>
				</g>
				<g>
					<path d="M40.1,15.3c-0.4,2.1-1.1,4.1-2.1,6c-1.1,1.8-2.3,3.6-3.6,5.2c-1.3,1.6-3,3.1-4.9,4c-1.9,1-4.1,1.4-6.2,1.2v0
						c2.1-0.2,4.1-0.7,6-1.6c1.8-0.9,3.5-2.2,5-3.7c1.5-1.5,2.6-3.3,3.4-5.2C38.5,19.3,39.3,17.3,40.1,15.3L40.1,15.3z"/>
				</g>
				<g>
					<path d="M37.7,13.4c-0.4,2.1-1.1,4.1-2.1,6c-1.1,1.8-2.3,3.6-3.6,5.2c-1.3,1.6-3,3.1-4.9,4c-1.9,1-4.1,1.4-6.2,1.2v0
						c2.1-0.2,4.1-0.7,6-1.6c1.8-0.9,3.5-2.2,5-3.7c1.5-1.5,2.6-3.3,3.4-5.2C36.1,17.3,36.9,15.4,37.7,13.4L37.7,13.4z"/>
				</g>
				<g>
					<path d="M35.2,11.7c-0.4,2.1-1.1,4.1-2.1,6c-1.1,1.8-2.3,3.6-3.6,5.2c-1.3,1.6-3,3.1-4.9,4c-1.9,1-4.1,1.4-6.2,1.2v0
						c2.1-0.2,4.1-0.7,6-1.6c1.8-0.9,3.5-2.2,5-3.7c1.5-1.5,2.6-3.3,3.4-5.2C33.7,15.6,34.5,13.7,35.2,11.7L35.2,11.7z"/>
				</g>
				<g>
					<path d="M32.3,8.6c-0.4,2.1-1.1,4.1-2.1,6c-1.1,1.8-2.3,3.6-3.6,5.2c-1.3,1.6-3,3.1-4.9,4c-1.9,0.9-4.1,1.4-6.2,1.2v0
						c2.1-0.2,4.1-0.7,6-1.6c1.8-0.9,3.5-2.2,5-3.7c1.5-1.5,2.6-3.3,3.4-5.2C30.7,12.5,31.5,10.6,32.3,8.6L32.3,8.6z"/>
				</g>
				<g>
					<path d="M29.2,5.8c-0.4,2.1-1.1,4.1-2.1,6c-1.1,1.8-2.3,3.6-3.6,5.2c-1.3,1.6-3,3.1-4.9,4c-1.9,1-4.1,1.4-6.2,1.2v0
						c2.1-0.2,4.1-0.7,6-1.6c1.8-0.9,3.5-2.2,5-3.7c1.5-1.5,2.6-3.3,3.4-5.2C27.7,9.7,28.5,7.8,29.2,5.8L29.2,5.8z"/>
				</g>
				<g>
					<path d="M27.6,2.9c-0.4,2.1-1.1,4.1-2.1,6c-1.1,1.8-2.3,3.6-3.6,5.2c-1.3,1.6-3,3.1-4.9,4c-1.9,1-4.1,1.4-6.2,1.2v0
						c2.1-0.2,4.1-0.7,6-1.6c1.8-0.9,3.5-2.2,5-3.7c1.5-1.5,2.6-3.3,3.4-5.2C26.1,6.8,26.9,4.9,27.6,2.9L27.6,2.9z"/>
				</g>
				<g>
					<path d="M23.2,3.4c-0.7,2-1.8,3.8-3.2,5.5c-1.4,1.6-2.9,3.1-4.5,4.5C14,14.8,12.1,16,10,16.5c-2.1,0.6-4.3,0.6-6.4,0.1l0,0
						c2.1,0.2,4.2,0,6.2-0.6c2-0.6,3.9-1.6,5.6-2.8c1.7-1.2,3.1-2.8,4.3-4.6C21,7,22.1,5.2,23.2,3.4L23.2,3.4z"/>
				</g>
				<g>
					<path d="M20.8,0.1c-0.7,2-1.8,3.8-3.2,5.5c-1.4,1.6-2.9,3.1-4.5,4.5c-1.6,1.4-3.5,2.5-5.6,3.1c-2.1,0.6-4.3,0.6-6.4,0.1l0,0
						c2.1,0.2,4.2,0,6.2-0.6c2-0.6,3.9-1.6,5.6-2.8c1.7-1.2,3.1-2.8,4.3-4.6C18.5,3.7,19.7,2,20.8,0.1L20.8,0.1z"/>
				</g>
				<g>
					<path d="M19.7-3c-0.7,2-1.8,3.8-3.2,5.5c-1.4,1.6-2.9,3.1-4.5,4.5c-1.6,1.4-3.5,2.5-5.6,3.1c-2.1,0.6-4.3,0.6-6.4,0.1l0,0
						c2.1,0.2,4.2,0,6.2-0.6c2-0.6,3.9-1.6,5.6-2.8c1.7-1.2,3.1-2.8,4.3-4.6C17.5,0.6,18.6-1.2,19.7-3L19.7-3z"/>
				</g>
			</g>
		</g>
	</g>
	<path class="st14" d="M134.3,68c3-18.7-6.3-37.1-25-47c-1.6-4.8-16.2-8.6-33.9-8.6c-18.8,0-34,4.3-34,9.5c0,0.2,0,0.4,0.1,0.6
		C24.3,32.8,15.9,50.5,19,68.3c4.3,24.4,12.7,36.3,39.5,39.5c0,0,0,0,0,0c0,0-7.7,23.7-12.2,46.2c-2.2,11,0.6,17.1,7,20.5
		c5.4,15.9,17.8,56.3,19.6,4.2c2.3,0.1,4.7,0.2,7.2,0.2c5.3,0.1,10.8,0,16.1-0.6c1.5,14.3-0.3,54.8,16.6-4.6
		c5.9-4.5,8.6-11.2,5.6-20.9c-6.3-20.3-11.6-41.1-15.8-46.6C123.7,101.7,130.8,89.7,134.3,68z M76.5,104.7c-32.9,0-43-5.4-43-14.4
		c0-2.7,1.4-5,1.5-8.2c0-3.2-1.8-6.9-1.5-10.5c1.9-22.6,18-27.1,40.7-27.1c22.7,0,41.1,9,41.5,28.4c0.1,3,0.5,2.5,1.4,8.8
		c1,6.3,1.5,5.2,1.5,8.6C118.6,99.3,109.5,104.7,76.5,104.7z"/>
	<path class="st1" d="M63.5,202.8c4.5,4.6,8.5,0.9,9.4-24c1.8,0.1,3.7,0.1,5.6,0.2c-3.9-0.8-7.8-1.8-11.9-1.8
		C67.6,186,68.9,195.9,63.5,202.8z"/>
	<path class="st1" d="M105.7,176c-2.9,1.6-6.2,2.2-9.5,2.7c1,9.3-0.8,29.4,5.6,25.5C98.6,196.3,102.9,185.1,105.7,176z"/>
	<path class="st1" d="M45.5,19.6c-0.3-0.6-0.4-1.4-0.2-2.1c-2.5,1.3-3.9,2.8-3.9,4.4c0,0.2,0,0.4,0.1,0.6c-5.1,3.1-9.5,6.9-13,11.1
		c6.3-5.9,15.3-9.6,24.4-11.6C50.3,22,47.9,20.8,45.5,19.6z"/>
	<path class="st1" d="M100.4,23.2C108,22,114,24,119.1,27.7c-2.9-2.5-6.2-4.8-9.9-6.7c-0.3-0.9-1.1-1.8-2.4-2.7
		C106.6,20.7,103.5,22.5,100.4,23.2z"/>
	<path class="st1" d="M105.3,112.4c2.1,22.5,8,41.5,6.2,62.4c6.8-4.5,10.2-11.4,7-21.8c-5.7-18.4-9.2-37.8-14.4-44.7
		C103.5,109.8,103.7,111.3,105.3,112.4z"/>
	<path class="st1" d="M60.1,109.9c-0.8-0.2-1.5-0.4-2.2-0.7c-2.4,5.4-7.7,25.5-11.6,44.8c-2.1,10.4,0.3,16.4,5.9,19.9
		C43.3,157.6,55.7,128.6,60.1,109.9z"/>
	<g>
		<path class="st1" d="M34.2,94.1c-10.7-11.9-15.7-28.4-14-45.2c-0.1,0.2-0.1,0.3-0.2,0.5c-1.7,6-2.2,12.4-1,18.9
			c3.9,22,11.1,33.8,32,38.3c-3.9-1.8-7.5-4.1-10.7-6.7C37,98.3,35.1,96.3,34.2,94.1z"/>
		<path class="st1" d="M134.5,55.7c0-0.3,0-0.5,0-0.8c-0.7-9,3.9-21.9-17.7-26.5l-2.4,6.5c0,0,1.6,12.5,9.7,18.8
			c0,0,3.6,3.5,1.7,6.1c-1.5,2,5.1,3.4,7.7-0.4c-1.1,13.2-6.5,25.9-16.1,36c-0.9,1.6-2.3,2.9-4.4,4.1c-1.3,1.1-2.6,2.2-4,3.2
			c-1.2,0.8-2.4,1.9-3.4,3.1c18.8-5.1,25.4-17,28.7-37.7C134.9,63.8,135,59.7,134.5,55.7z"/>
	</g>
	<g>
		<path class="st11" d="M114.2,35.2c0,0,3.4,12.1,12.4,17.2c0,0,4.1,3,2.6,5.8c-1.6,2.8,9.9,2.7,7.9-6.1c-2-8.8,0.7-22.2-21.4-23.7"
			/>
		<path d="M114.2,35.2c0.6,1.7,1.4,3.3,2.2,4.9c0.8,1.6,1.8,3.1,2.8,4.6c1,1.5,2.2,2.8,3.4,4.1c1.2,1.3,2.6,2.4,4.1,3.3l0,0l0,0
			c1,0.8,1.8,1.7,2.4,2.8c0.3,0.6,0.5,1.2,0.5,1.8c0,0.3-0.1,0.6-0.2,1c-0.1,0.3-0.3,0.6-0.3,0.8c-0.1,0.5,0.4,0.9,1,1
			c0.6,0.1,1.2,0.2,1.7,0.1c1.2-0.1,2.3-0.6,3.2-1.3c0.9-0.7,1.5-1.8,1.7-2.9c0.2-1.1,0.1-2.3-0.2-3.4c-0.6-2.4-0.8-4.8-1.2-7.2
			c-0.4-2.4-0.9-4.7-1.9-6.8c-1-2.1-2.5-3.9-4.4-5.3c-1.9-1.4-4.1-2.3-6.4-2.9c-2.3-0.6-4.7-1.1-7.1-1.3l0-0.1
			c2.4,0.1,4.8,0.3,7.2,0.8c2.4,0.5,4.7,1.4,6.8,2.8c2.1,1.4,3.8,3.4,4.8,5.6c1.1,2.2,1.6,4.7,1.9,7.1c0.4,2.4,0.5,4.8,0.9,7.1
			c0.3,1.2,0.4,2.5,0,3.7c-0.3,1.2-1,2.3-2,3.1c-1,0.8-2.2,1.2-3.4,1.3c-0.6,0.1-1.2,0.1-1.9-0.1c-0.3-0.1-0.6-0.2-0.9-0.4
			c-0.3-0.2-0.5-0.6-0.4-1c0.1-0.4,0.3-0.6,0.3-0.9c0.1-0.3,0.1-0.5,0.1-0.8c0-0.6-0.2-1.1-0.5-1.6c-0.6-1-1.5-1.8-2.4-2.5l0,0
			c-1.6-0.9-3.1-2-4.4-3.3c-1.3-1.3-2.4-2.8-3.4-4.3c-1-1.5-1.9-3.1-2.6-4.8C115.2,38.7,114.5,36.9,114.2,35.2L114.2,35.2z"/>
	</g>
	<path class="st1" d="M36.7,34.2c0,0-0.7,12.5-8.3,19.5c0,0-3.4,3.8-1.2,6.2c2.1,2.4-9.1,4.8-9-4.2c0-9-5.6-21.5,15.7-27.8"/>
	<g>
		<path class="st11" d="M36.7,35.3c0,0-3.4,12.1-12.3,17.2c0,0-4.1,3-2.6,5.8c1.6,2.8-9.9,2.7-7.9-6.1c2-8.8-0.7-22.2,21.4-23.7"/>
		<path d="M36.8,35.3c-0.4,1.8-1,3.5-1.8,5.1c-0.7,1.7-1.6,3.3-2.6,4.8c-1,1.5-2.1,3-3.4,4.3c-1.3,1.3-2.8,2.4-4.4,3.3l0,0
			c-0.9,0.7-1.8,1.5-2.4,2.5c-0.3,0.5-0.5,1-0.5,1.6c0,0.3,0,0.6,0.1,0.8c0.1,0.3,0.2,0.5,0.3,0.9c0.1,0.4-0.1,0.8-0.4,1
			c-0.3,0.2-0.6,0.3-0.9,0.4C20.3,60,19.7,60,19,60c-1.2-0.1-2.4-0.6-3.4-1.3c-1-0.7-1.8-1.9-2-3.1c-0.3-1.2-0.2-2.5,0-3.7
			c0.4-2.3,0.6-4.7,0.9-7.1c0.3-2.4,0.8-4.9,1.9-7.1c1.1-2.2,2.8-4.2,4.8-5.6c2.1-1.4,4.4-2.3,6.8-2.8c2.4-0.5,4.8-0.7,7.2-0.8
			l0,0.1c-2.4,0.3-4.8,0.7-7.1,1.3c-2.3,0.7-4.5,1.6-6.4,2.9c-1.9,1.4-3.5,3.2-4.4,5.3c-1,2.1-1.6,4.4-1.9,6.8
			c-0.4,2.4-0.6,4.8-1.2,7.2c-0.3,1.1-0.5,2.3-0.2,3.4c0.2,1.1,0.8,2.2,1.7,2.9c0.9,0.7,2.1,1.2,3.2,1.3c0.6,0.1,1.2,0.1,1.7-0.1
			c0.5-0.1,1.1-0.5,1-1c0-0.2-0.3-0.5-0.4-0.8c-0.1-0.3-0.2-0.6-0.2-1c0-0.7,0.2-1.3,0.5-1.8c0.6-1.1,1.4-2,2.4-2.8l0,0l0,0
			c1.5-0.9,2.9-2,4.1-3.3c1.3-1.2,2.4-2.6,3.4-4.1c1-1.5,1.9-3,2.8-4.6C35.3,38.6,36.1,36.9,36.8,35.3L36.8,35.3z"/>
	</g>
	<g>
		<circle class="st3" cx="100.4" cy="35.8" r="4.4"/>
		<path d="M103.7,35.8c0,2.4-2,4.4-4.4,4.4c-2.4,0-4.4-2-4.4-4.4c0-2.4,2-4.4,4.4-4.4C101.7,31.4,103.7,33.4,103.7,35.8z"/>
		<path class="st12" d="M97.9,35.1c0,0.4-0.3,0.7-0.7,0.7c-0.4,0-0.7-0.3-0.7-0.7c0-0.4,0.3-0.7,0.7-0.7
			C97.6,34.3,97.9,34.6,97.9,35.1z"/>
	</g>
	<g>
		<circle class="st3" cx="52.7" cy="35.8" r="4.4"/>
		<path d="M56,35.8c0,2.4-2,4.4-4.4,4.4c-2.4,0-4.4-2-4.4-4.4c0-2.4,2-4.4,4.4-4.4C54,31.4,56,33.4,56,35.8z"/>
		<path class="st12" d="M50.2,35.1c0,0.4-0.3,0.7-0.7,0.7c-0.4,0-0.7-0.3-0.7-0.7c0-0.4,0.3-0.7,0.7-0.7
			C49.8,34.3,50.2,34.6,50.2,35.1z"/>
	</g>
	<path class="st9" d="M37.1,42.2c-0.1,1.5,3.6,2.9,8.2,3.1c4.6,0.2,8.4-0.9,8.4-2.4c0.1-1.5-3.6-2.9-8.2-3.1
		C41,39.6,37.2,40.6,37.1,42.2z"/>
	<path class="st12" d="M37.2,40.3c0,0.5,1.2,0.9,2.6,1c1.5,0.1,2.7-0.3,2.7-0.8c0-0.5-1.1-0.9-2.6-1C38.4,39.4,37.2,39.8,37.2,40.3z
		"/>
	<path class="st9" d="M113.1,42c0.1,1.5-3.6,3-8.3,3.2c-4.6,0.2-8.4-0.9-8.5-2.4c-0.1-1.5,3.6-3,8.3-3.2
		C109.2,39.4,113,40.5,113.1,42z"/>
	<path class="st12" d="M113,40.1c0,0.5-1.2,0.9-2.6,1c-1.5,0.1-2.7-0.3-2.7-0.8c0-0.5,1.2-0.9,2.6-1C111.8,39.3,113,39.7,113,40.1z"
		/>
	<path class="st0" d="M114,49.8c0,7.8-17.1,10.7-38.2,10.7c-21.1,0-38.2-2.8-38.2-10.7c0-7.8,17.1-14.1,38.2-14.1
		C96.9,35.7,114,42,114,49.8z"/>
	<path class="st2" d="M37.7,49.2c0,0.2,0,0.4,0,0.6c0,7.8,17.1,10.7,38.2,10.7c21.1,0,38.2-2.8,38.2-10.7c0-0.8-0.2-1.6-0.5-2.3
		C93,62,60.8,59.5,37.7,49.2z"/>
	<ellipse cx="57.1" cy="45.6" rx="1.4" ry="3.3"/>
	<ellipse cx="92.7" cy="45.6" rx="1.5" ry="3.6"/>
	<g>
		<path class="st13" d="M92.2,44.9c0.3,1.2,0.5,2.4,0.5,3.7C92.7,57.6,84.7,65,75,65c-9.8,0-17.7-7.4-17.7-16.5
			c0-1.1,0.1-2.1,0.3-3.2l-1.2,0c-0.4,1.4-0.6,2.8-0.6,4.3c0,9.8,8.6,17.8,19.1,17.8c10.6,0,19.1-8,19.1-17.8c0-1.7-0.3-3.3-0.7-4.9
			L92.2,44.9z"/>
		<path d="M92.3,44.9c0.7,2.4,0.7,5,0.2,7.5c-0.6,2.5-1.8,4.8-3.5,6.8c-3.4,3.9-8.5,6.2-13.7,6.2c-5.2,0.1-10.3-2.1-13.7-5.9
			c-3.5-3.7-5.1-9.1-4.1-14.2l0.2,0.3l-1.2,0l0.2-0.2c-1.5,5.4,0.2,11.3,3.9,15.3c1.8,2,4.1,3.6,6.7,4.7c2.5,1,5.3,1.6,8,1.5
			c5.5,0,10.9-2.4,14.5-6.6c1.8-2.1,3.1-4.6,3.7-7.3c0.6-2.7,0.6-5.5-0.2-8.2l0.1,0.1L92.3,44.9z M92.1,44.8l1.2,0l0.1,0l0,0.1
			c0.9,2.7,1.1,5.6,0.6,8.4c-0.5,2.8-1.8,5.5-3.6,7.7c-1.8,2.2-4.2,4-6.8,5.2C81,67.4,78.1,68,75.3,68c-5.8,0.1-11.6-2.3-15.4-6.7
			c-1.9-2.2-3.3-4.8-3.9-7.6c-0.6-2.8-0.5-5.7,0.2-8.5l0-0.2h0.2l1.2,0h0.3l-0.1,0.3c-0.6,2.4-0.5,5,0.2,7.4c0.7,2.4,2,4.6,3.7,6.4
			c3.5,3.6,8.5,5.5,13.4,5.3c4.9-0.1,9.8-2.1,13.1-5.8C91.7,55.1,93.3,49.8,92.1,44.8L92.1,44.8z"/>
	</g>
	<g>
		<path class="st10" d="M86.9,91.2c0,4.2-5.6,8.8-12.5,8.8c-6.9,0-12.5-4.6-12.5-8.8c0-4.2,5.6-5.2,12.5-5.2
			C81.3,86,86.9,87,86.9,91.2z"/>
		<g>
			<path d="M86.9,91.2c0,1.3-0.5,2.6-1.3,3.7c-0.7,1.1-1.7,2.1-2.8,2.9c-2.2,1.6-4.9,2.5-7.6,2.6c-2.7,0.1-5.4-0.6-7.8-1.8
				c-2.3-1.2-4.6-3-5.6-5.6c-0.5-1.3-0.6-2.8,0.2-4.1c0.8-1.3,2.1-2,3.4-2.4c2.6-0.9,5.3-1,8-1.1c2.6,0,5.3,0.1,8,0.7
				c1.3,0.3,2.6,0.8,3.7,1.6C86.2,88.5,87,89.8,86.9,91.2z M86.8,91.2c0-0.6-0.2-1.3-0.5-1.9c-0.3-0.6-0.8-1-1.4-1.3
				c-1.1-0.7-2.4-1-3.7-1.1c-2.6-0.3-5.2-0.4-7.8-0.3c-2.6,0.1-5.2,0.2-7.7,0.9c-1.2,0.4-2.4,1-3,1.9c-0.7,1-0.7,2.3-0.3,3.5
				c0.4,1.2,1.1,2.3,2.1,3.2c0.9,0.9,2,1.7,3.2,2.2c2.4,1.1,5,1.5,7.6,1.3c2.6-0.2,5.1-1,7.3-2.3c1.1-0.7,2.1-1.5,2.9-2.5
				C86.3,93.8,86.8,92.5,86.8,91.2z"/>
		</g>
	</g>
	<g>
		<path class="st12" d="M86.8,91.5c0-0.1,0-0.2,0-0.3c0-4.2-5.6-5.2-12.5-5.2c-6.6,0-12,0.9-12.5,4.7C70.2,92,78.5,92,86.8,91.5z"/>
		<g>
			<path d="M86.8,91.5c0.1-1.2-0.5-2.5-1.4-3.2c-1-0.8-2.2-1.1-3.3-1.4c-2.4-0.5-4.9-0.6-7.3-0.6c-2.5,0-4.9,0.1-7.3,0.6
				c-1.2,0.2-2.4,0.6-3.4,1.2c-1,0.6-1.8,1.6-1.9,2.7l-0.2-0.3c4.1,0.7,8.3,1,12.4,1.1C78.5,91.7,82.7,91.6,86.8,91.5z M86.8,91.5
				c-4.2,0.3-8.3,0.5-12.5,0.5c-4.2,0-8.4-0.4-12.5-1l-0.2,0l0-0.2c0.1-0.6,0.3-1.3,0.7-1.8c0.4-0.5,0.9-0.9,1.4-1.3
				c1.1-0.6,2.3-1,3.6-1.2c2.5-0.5,4.9-0.5,7.4-0.5c2.5,0.1,5,0.2,7.4,0.8c1.2,0.3,2.4,0.8,3.4,1.6C86.5,88.9,87,90.2,86.8,91.5z"/>
		</g>
	</g>
	<path class="st9" d="M111,90.5c0.1,1.3-3.1,2.6-7.1,2.7c-4,0.2-7.3-0.8-7.4-2.1c-0.1-1.3,3.1-2.6,7.1-2.7
		C107.7,88.2,111,89.1,111,90.5z"/>
	<path class="st12" d="M111,88.8c0,0.4-1,0.8-2.3,0.9c-1.3,0.1-2.3-0.2-2.4-0.7c0-0.4,1-0.8,2.3-0.9C109.9,88.1,110.9,88.4,111,88.8
		z"/>
	<path class="st9" d="M38.4,90.6c-0.1,1.3,3.1,2.6,7.1,2.7c4,0.2,7.3-0.8,7.4-2.1c0.1-1.3-3.1-2.6-7.1-2.7
		C41.7,88.3,38.5,89.3,38.4,90.6z"/>
	<path class="st12" d="M38.5,88.9c0,0.4,1,0.8,2.3,0.9c1.3,0.1,2.3-0.2,2.4-0.7c0-0.4-1-0.8-2.3-0.9C39.5,88.2,38.5,88.5,38.5,88.9z
		"/>
	<path class="st1" d="M63.6,108.2c0,0,25.2-0.1,30.5-1.7C94.1,106.6,77.1,113.6,63.6,108.2z"/>
	<path class="st1" d="M58.9,110.6c0,0-22.6,16.2,18.1,57.2c0,0,7.1,2.4-6.8-34.8"/>
	<g>
		<path class="st11" d="M59.3,107.7c0,0-24.7,15.3,14.9,60.8c0,0,7.2,3-4.7-36.8"/>
		<path d="M59.3,107.7c-2.3,1.7-4.1,4.1-5.3,6.7c-1.2,2.6-1.8,5.5-2,8.3c-0.3,5.8,1.3,11.4,3.5,16.7c2.2,5.3,5.2,10.3,8.4,15.1
			c3.3,4.8,6.8,9.3,10.6,13.7l-0.2-0.1c0.1,0,0.4,0,0.6-0.2c0.2-0.2,0.4-0.5,0.5-0.9c0.2-0.7,0.3-1.5,0.4-2.3c0.1-1.6,0-3.2-0.2-4.8
			c-0.3-3.2-0.9-6.4-1.6-9.5c-1.3-6.3-3-12.5-4.7-18.8c2,6.1,3.8,12.3,5.3,18.6c0.7,3.1,1.4,6.3,1.8,9.5c0.2,1.6,0.3,3.2,0.2,4.9
			c-0.1,0.8-0.1,1.7-0.4,2.5c-0.1,0.4-0.3,0.8-0.7,1.2c-0.4,0.4-1,0.6-1.6,0.4l-0.1,0l-0.1-0.1c-3.8-4.4-7.5-8.9-10.8-13.7
			c-3.3-4.8-6.2-9.9-8.4-15.3c-2.2-5.4-3.6-11.2-3.2-17.1c0.2-2.9,0.9-5.8,2.2-8.4C55,111.7,56.9,109.3,59.3,107.7z"/>
	</g>
	<path class="st1" d="M104,110.8c0,0,21.2,16.8-20.2,54.7c0,0-7,2,8.2-33.5"/>
	<g>
		<path class="st11" d="M102.1,105.9c0,0,24.7,15.4-15,60.8c0,0-7.2,2.9,4.7-36.7"/>
		<path d="M102.1,105.9c2.4,1.6,4.3,4,5.6,6.6c1.3,2.6,2,5.5,2.2,8.4c0.4,5.9-1,11.7-3.3,17.1c-2.2,5.4-5.2,10.5-8.4,15.3
			c-3.3,4.8-7,9.3-10.8,13.7l-0.1,0.1l-0.1,0c-0.6,0.2-1.2,0-1.6-0.4c-0.4-0.4-0.6-0.8-0.7-1.2c-0.3-0.8-0.4-1.7-0.4-2.5
			c-0.1-1.7,0-3.3,0.2-4.9c0.4-3.2,1-6.4,1.8-9.5c1.5-6.3,3.3-12.5,5.3-18.6c-1.7,6.2-3.4,12.5-4.7,18.8c-0.7,3.1-1.2,6.3-1.6,9.5
			c-0.2,1.6-0.3,3.2-0.2,4.8c0,0.8,0.1,1.6,0.4,2.3c0.1,0.3,0.3,0.7,0.5,0.9c0.2,0.2,0.5,0.3,0.6,0.2l-0.2,0.1
			c3.8-4.4,7.4-8.9,10.6-13.7c3.3-4.8,6.2-9.7,8.4-15.1c2.2-5.3,3.8-11,3.5-16.7c-0.1-2.9-0.8-5.7-2-8.3
			C106.1,110.1,104.4,107.7,102.1,105.9z"/>
	</g>
	<g>
		<path d="M92.8,85.8c0.8-0.9,1.7-1.6,2.7-2.3c1-0.6,2.2-1.1,3.4-1.4c1.2-0.3,2.5-0.5,3.8-0.1c1.2,0.4,2.3,1.1,3.1,2.2l-0.1,0.2
			c-1.3-0.1-2.3-0.3-3.4-0.4c-1-0.1-2-0.4-3.1-0.3C98.1,83.8,97,84,96,84.4c-1.1,0.4-2.1,0.9-3,1.5L92.8,85.8z"/>
	</g>
	<g>
		<path d="M56.5,85.9c-1-0.6-2-1.2-3-1.5c-1.1-0.4-2.1-0.6-3.2-0.7c-1.1-0.1-2.1,0.2-3.1,0.3c-1,0.1-2.1,0.3-3.4,0.4l-0.1-0.2
			c0.7-1.1,1.8-1.8,3.1-2.2c1.2-0.4,2.6-0.2,3.8,0.1c1.2,0.3,2.4,0.8,3.4,1.4c1,0.6,2,1.4,2.7,2.3L56.5,85.9z"/>
	</g>
</g>
</svg>
