<?xml version="1.0" encoding="utf-8"?>
<!-- Generator: Adobe Illustrator 15.1.0, SVG Export Plug-In . SVG Version: 6.00 Build 0)  -->
<!DOCTYPE svg PUBLIC "-//W3C//DTD SVG 1.1//EN" "http://www.w3.org/Graphics/SVG/1.1/DTD/svg11.dtd">
<svg version="1.1" id="Layer_1" xmlns="http://www.w3.org/2000/svg" xmlns:xlink="http://www.w3.org/1999/xlink" x="0px" y="0px"
	 width="109px" height="150px" viewBox="0 0 109 150" style="enable-background:new 0 0 109 150;" xml:space="preserve">
<style type="text/css">
<![CDATA[
	.st0{fill:none;stroke:#000000;stroke-width:0.75;stroke-miterlimit:10;}
	.st1{fill:#4C2600;}
	.st2{fill:#B28476;}
	.st3{opacity:0.25;}
	.st4{opacity:0.37;}
	.st5{fill:#FFE6D9;stroke:#000000;stroke-miterlimit:10;}
	.st6{opacity:0.37;fill:#B28476;}
	.st7{fill:#F2CDC0;}
	.st8{fill:#F9D3AA;}
	.st9{fill:#997858;}
	.st10{opacity:0.52;fill:#FF9999;}
	.st11{fill:#FFFFFF;}
	.st12{opacity:0.39;fill:#B7A286;}
	.st13{opacity:0.37;fill:#997858;}
	.st14{fill:#D1AF8F;}
]]>
</style>
<g>
	<g>
		<path class="st7" d="M44.1,79c0,0-15.4,18.1-22.3,19.9c-7,1.8,6.8,5.6,19.1-4.7"/>
		<path d="M44.2,79c-2.8,3.7-5.8,7.2-9.2,10.4c-1.7,1.6-3.5,3.1-5.3,4.5c-1.8,1.5-3.6,3-5.6,4.2c-0.5,0.3-1,0.6-1.6,0.8
			c-0.6,0.2-1.1,0.4-1.6,0.6c-0.2,0.1-0.5,0.2-0.6,0.4c-0.1,0.1,0,0.1,0,0c0,0,0,0,0.1,0.1c0.3,0.2,0.9,0.4,1.4,0.4
			c2.2,0.3,4.5-0.1,6.7-0.5c4.4-1,8.6-3,12.3-5.8l0.1,0.1c-3.3,3.2-7.6,5.6-12.1,6.7c-2.3,0.5-4.7,0.8-7.1,0.4
			c-0.6-0.1-1.2-0.2-1.8-0.7c-0.1-0.1-0.3-0.3-0.4-0.6c0-0.3,0.1-0.6,0.3-0.7c0.3-0.3,0.6-0.4,0.9-0.5c0.6-0.2,1.2-0.3,1.7-0.5
			c0.5-0.2,1-0.4,1.6-0.7c2-1,3.9-2.4,5.6-4c1.7-1.5,3.3-3.2,4.9-4.9C37.6,85.5,40.8,82.2,44.2,79L44.2,79z"/>
	</g>
	<path class="st6" d="M39.9,83.7c-0.4,9.8-11.6,12.2-19.4,16.8c2.4,1.1,11.7,0.9,20.4-6.4L44.1,79C44.1,79,42.4,81,39.9,83.7z"/>
	<g>
		<path d="M73.1,124c0.8-0.9,1.7-1.5,2.8-2c0.5-0.2,1.1-0.4,1.8-0.5c0.6-0.1,1.3,0,2,0.2c0.7,0.3,1.2,0.8,1.5,1.4
			c0.3,0.6,0.4,1.2,0.5,1.8c0.1,1.1,0.3,2.2,0.3,3.4c0,0.6-0.1,1.3-0.5,1.9c-0.3,0.6-1,1.2-2,1.3c-0.5,0-1-0.1-1.4-0.5
			c-0.4-0.3-0.7-0.8-0.7-1.3c0-0.2-0.1-0.5,0-0.7c0-0.1,0-0.2,0.1-0.4l0-0.2c0.1-0.3,0.2-0.5,0.3-0.7c0.1-0.2,0.3-0.4,0.5-0.5
			c0.9-0.6,1.7-0.5,2.4-0.3c0.7,0.2,1.2,0.4,1.7,0.8c1,0.7,1.9,1.6,2.2,2.8l-0.2,0.1c-0.8-0.7-1.8-1.2-2.7-1.5
			c-0.5-0.1-0.9-0.3-1.4-0.3c-0.4,0-0.8,0.1-0.8,0.1c0,0,0,0,0,0c0,0,0,0,0,0l-0.1,0.2c0-0.1,0,0,0,0c0,0.1,0,0.1,0,0.2
			c0,0.1,0,0.1,0.1,0.2c0.1,0,0.4-0.1,0.7-0.3c0.3-0.3,0.5-0.7,0.7-1.2c0.4-0.9,0.4-2.1,0.2-3.1c-0.1-0.5-0.4-0.9-0.8-1.2
			c-0.4-0.3-0.7-0.4-1.1-0.5c-0.8-0.1-1.8-0.1-2.8,0.1c-1,0.2-2,0.5-3.2,0.7L73.1,124z"/>
	</g>
	<g>
		<path class="st8" d="M86.4,62.1c-0.7-5-1-4.7-1-7.1c0-15.4-14.6-22.8-32.6-23.2c-18.1-0.3-31,3-32.8,21c-0.3,2.8,1.1,5.8,1,8.4
			c-0.1,2.6-1.2,4.3-1.3,6.5c-0.1,7.2,7.8,11.6,34.1,12.1C80,80.3,87.3,76.2,87.4,69C87.4,66.3,87.1,67.1,86.4,62.1z"/>
		<g>
			<path d="M86.3,62.1c-0.1-1-0.3-2-0.5-3c-0.2-1-0.5-2-0.5-3c0-2-0.1-4.1-0.7-6.1c-1-3.9-3.3-7.5-6.4-10c-3.1-2.6-6.8-4.3-10.7-5.5
				c-3.9-1.2-7.9-1.8-11.9-2.1c-4-0.3-8.1-0.3-12.2,0c-4,0.3-8.1,1-11.8,2.6c-1.8,0.8-3.6,1.9-5.1,3.3c-1.5,1.4-2.7,3-3.7,4.8
				c-0.9,1.8-1.6,3.7-2,5.7c-0.2,1-0.4,2-0.5,3c-0.1,1-0.2,2-0.1,3c0.2,2,1,3.9,1,6.1c0,1.1-0.2,2.1-0.4,3.1c-0.3,1-0.6,2-0.7,2.9
				c-0.3,1.9,0.2,3.9,1.5,5.4c1.2,1.5,3,2.5,4.8,3.3c3.7,1.5,7.8,2.2,11.8,2.7c4,0.5,8.1,0.7,12.2,0.9c4.1,0.1,8.1,0.2,12.2,0.1
				c4.1-0.1,8.1-0.3,12.1-0.9c2-0.3,4-0.7,5.9-1.4c1.9-0.7,3.7-1.7,5-3.2c1.3-1.5,1.8-3.6,1.7-5.6c0-1-0.3-2-0.5-3
				C86.6,64.1,86.4,63.1,86.3,62.1z M86.4,62.1c0.1,1,0.3,2,0.5,3c0.2,1,0.5,2,0.6,3c0,1,0,2.1-0.3,3.1c-0.3,1-0.7,1.9-1.4,2.8
				c-1.3,1.6-3.2,2.7-5.1,3.4c-1.9,0.8-3.9,1.3-5.9,1.7c-4,0.8-8.1,1.1-12.2,1.2c-4.1,0.2-8.2,0.1-12.3,0c-4.1-0.1-8.2-0.4-12.3-0.9
				c-4.1-0.5-8.2-1.3-12-2.9c-1.9-0.8-3.8-1.9-5.1-3.6c-1.4-1.7-1.9-4-1.5-6.1c0.2-1.1,0.5-2,0.8-3c0.3-1,0.5-1.9,0.5-2.9
				c0-2-0.7-3.9-0.9-6c-0.1-0.5-0.1-1,0-1.6c0-0.5,0.1-1,0.2-1.5c0.1-1,0.3-2,0.6-3c0.5-2,1.2-4,2.1-5.8c1.9-3.7,5.2-6.5,8.9-8.2
				c3.8-1.7,7.9-2.5,11.9-2.9c4.1-0.4,8.2-0.5,12.3-0.3c4.1,0.3,8.2,0.8,12.1,2.1c3.9,1.3,7.7,3.1,10.8,5.8
				c3.1,2.7,5.4,6.4,6.3,10.4c0.2,1,0.4,2,0.5,3c0.1,1,0.1,2.1,0.1,3.1c0.1,1,0.3,2,0.5,3C86.1,60.1,86.3,61.1,86.4,62.1z"/>
		</g>
	</g>
	<path class="st13" d="M21.1,46.9c-0.5,1.8-0.9,3.8-1.2,6c-0.3,2.8,1.1,5.8,1,8.4c-0.1,2.6-1.2,4.3-1.3,6.5c-0.1,3.3,1.6,6,5.8,8
		c-0.8-1.1-1.5-2.2-2-3.4C21.3,64.1,20.4,55.3,21.1,46.9z"/>
	<path class="st13" d="M87.4,69c0-2.7-0.3-1.8-1-6.9c-0.7-5-1-4.7-1-7.1c0-4.4-1.2-8.2-3.4-11.3c1,13.1,1,28.4-8.7,35.2
		C83.9,77.4,87.3,73.9,87.4,69z"/>
	<g class="st4">
		<path class="st9" d="M78.9,51.4c5.7-0.2,1.2,2.2,1.2,2.2s8.4-2,1.1-6.7l10.1,0.7c0,0-7.6-22.2-39.9-24.7c0,0-33.9,2.7-34.6,20.4
			c0,0,0.4,7.5,6.1,7.1c0,0-2.9-0.5,0.8-5.5c0,0,0.5,3.4,1.5,3.5c0,0-0.5-4.2,3.7-4.2c0,0-2.9,6.4,2.7,8.6c0,0-4.2-3,1.1-8.5
			c0,0,1.2,5.2-0.4,6.3c-1.7,1.1,3,3.3,10.3-8.6c-0.4,0.6-2,4.2,5.8,8.9c0,0,1.6,1.7-0.1,2.8c0,0,4.6-1.8,0.9-6.8
			c0,0,3.3,4.2,5.8,5.1l1.1-4.1c0,0-0.2,2.7,6.4,6c0,0-3.2-3.3-1.9-4.9c0,0,4.4,4.1,2.6,7.2c0,0,8.5-1.8,5.5-8.4c0,0,2.5,4.8,5,4
			c0,0-3.2-1.9,0.1-4.4C73.8,47.5,73.3,51.6,78.9,51.4z"/>
		<path class="st9" d="M18.7,60.5c2.7,2.2,5,0.1,5,0.1c-3.4-0.5-4.9-9-4.9-9C10,49.9,16,66.3,16,66.3c3.4,6.4,9.1,2.9,9.1,2.9
			C20.2,71.1,16,58.3,18.7,60.5z"/>
		<path class="st9" d="M78.7,62.8c0,0,3.5,3.4,6.7,0.5c0,0,0.7,10.6-8.2,9.1c0,0,11,3.7,12.6-9.2l-4.6-8.7
			C85.3,54.4,85.6,65.3,78.7,62.8z"/>
	</g>
	<g>
		<g>
			<path class="st1" d="M79,50.5c5.7-0.2,1.2,2.2,1.2,2.2s8.4-2,1.1-6.7l10.1,0.7c0,0-7.6-22.2-39.9-24.7c0,0-33.9,2.7-34.6,20.4
				c0,0,0.4,7.5,6.1,7.1c0,0-2.9-0.5,0.8-5.5c0,0,0.5,3.4,1.5,3.5c0,0-0.5-4.2,3.7-4.2c0,0-2.9,6.4,2.7,8.6c0,0-4.2-3,1.1-8.5
				c0,0,1.2,5.2-0.4,6.3c-1.7,1.1,3,3.3,10.3-8.6c-0.4,0.6-1.9,4.2,5.8,8.9c0,0,1.6,1.7-0.1,2.8c0,0,4.6-1.8,0.9-6.8
				c0,0,3.3,4.3,5.8,5.1l1.1-4.1c0,0-0.2,2.7,6.4,6c0,0-3.2-3.3-1.9-4.9c0,0,4.4,4.1,2.6,7.2c0,0,8.5-1.8,5.5-8.4c0,0,2.5,4.8,5,4
				c0,0-3.2-1.9,0.1-4.4C73.8,46.5,73.3,50.6,79,50.5z"/>
			<path d="M79,50.4c0.5,0,0.9,0,1.4,0c0.5,0,0.9,0.1,1.3,0.3c0.1,0.1,0.2,0.2,0.2,0.3s0,0.3-0.1,0.4c-0.1,0.2-0.3,0.4-0.5,0.5
				c-0.4,0.3-0.7,0.5-1.1,0.8l0-0.1c0.8-0.2,1.6-0.5,2.4-0.9c0.7-0.4,1.4-1,1.6-1.8c0.2-0.8-0.4-1.6-0.9-2.2c-0.6-0.6-1.3-1.1-2-1.6
				l-0.4-0.2l0.4,0l10.1,0.6l-0.2,0.3c-1.5-3.8-4-7.1-6.8-10.1c-2.8-2.9-6.1-5.5-9.6-7.5c-3.5-2-7.3-3.6-11.3-4.7
				c-3.9-1.1-8-1.8-12.1-2.1l0.1,0c-3.6,0.3-7.1,0.9-10.7,1.7c-3.5,0.8-7,1.8-10.3,3.2c-3.3,1.4-6.5,3.2-9.1,5.7
				c-1.3,1.2-2.4,2.7-3.2,4.3c-0.8,1.6-1.2,3.4-1.3,5.2v0c0.2,1.7,0.6,3.4,1.6,4.8c0.5,0.7,1.1,1.3,1.9,1.6c0.8,0.4,1.6,0.5,2.4,0.4
				l0,0.5c-0.6-0.1-1.1-0.7-1.2-1.3c-0.1-0.6,0-1.2,0.2-1.7c0.4-1.1,1-2,1.6-2.9l0.4-0.5l0.1,0.6c0.1,0.6,0.3,1.3,0.5,1.9
				c0.1,0.3,0.2,0.6,0.4,0.9c0.1,0.3,0.4,0.5,0.5,0.5L25,47.5c0-0.6,0-1.1,0.1-1.7c0.1-0.5,0.4-1.1,0.7-1.5c0.4-0.5,0.9-0.8,1.4-1
				c0.5-0.2,1.1-0.3,1.7-0.3l0.5,0l-0.2,0.5c-0.6,1.5-0.9,3.2-0.5,4.8c0.2,0.8,0.6,1.5,1.1,2.1c0.5,0.6,1.2,1,2,1.3l-0.4,0.7
				c-0.7-0.6-1.2-1.3-1.5-2.2c-0.3-0.9-0.3-1.8-0.1-2.6c0.4-1.7,1.5-3.1,2.7-4.3l0.6-0.6l0.2,0.8c0.2,0.9,0.4,1.9,0.4,2.8
				c0.1,1,0.1,1.9-0.3,3c-0.1,0.3-0.2,0.5-0.5,0.7c-0.1,0.1-0.3,0.2-0.3,0.3c-0.1,0-0.1,0.1-0.1,0.1c0,0,0,0,0-0.1c0-0.1,0,0,0,0
				c0.1,0,0.3,0.1,0.5,0c0.8-0.1,1.6-0.5,2.3-1c1.5-1,2.7-2.4,3.9-3.8c1.1-1.4,2.2-2.9,3.2-4.5l0.9,0.5c-0.4,0.7-0.4,1.6-0.1,2.4
				c0.3,0.8,0.8,1.6,1.4,2.3c1.2,1.4,2.8,2.5,4.4,3.5l0.1,0l0,0c0.2,0.3,0.4,0.5,0.6,0.8c0.2,0.3,0.3,0.6,0.3,1
				c0,0.4-0.1,0.8-0.3,1.1c-0.2,0.3-0.5,0.6-0.7,0.7l-0.5-0.9c0.5-0.2,1-0.6,1.4-1.1c0.4-0.5,0.6-1,0.6-1.6c0.1-1.2-0.6-2.4-1.4-3.4
				l0.8-0.6c0.8,1,1.6,2,2.6,2.9c0.9,0.9,1.9,1.7,3,2.1L54.6,51l1.1-4.1l1-3.6l0,3.8c0,0.2,0.1,0.6,0.3,0.8c0.1,0.3,0.3,0.6,0.6,0.9
				c0.4,0.6,1,1.1,1.5,1.5c1.1,0.9,2.4,1.7,3.7,2.3l-0.5,0.7c-0.7-0.7-1.2-1.5-1.7-2.4c-0.2-0.4-0.4-0.9-0.5-1.4
				c-0.1-0.5-0.1-1.2,0.3-1.7l0.3-0.3l0.3,0.3c1,1,1.8,2.1,2.5,3.4c0.3,0.6,0.5,1.3,0.6,2.1c0.1,0.7-0.1,1.5-0.4,2.1L63.2,55
				c0.9-0.2,1.9-0.5,2.7-1c0.9-0.4,1.7-1,2.3-1.7c0.6-0.7,1-1.6,1-2.6c0-0.9-0.2-1.9-0.6-2.8l0.3-0.1c0.5,1,1.2,2,2,2.8
				c0.4,0.4,0.8,0.8,1.3,1c0.5,0.3,1.1,0.4,1.6,0.2l0,0.2c-0.4-0.3-0.7-0.6-1-1c-0.3-0.4-0.4-0.9-0.4-1.3c0-0.5,0.2-0.9,0.5-1.3
				c0.3-0.4,0.6-0.7,1-1l0.1-0.1l0,0.2c0,0.6,0.1,1.2,0.3,1.8c0.3,0.6,0.7,1,1.2,1.3C76.5,50.3,77.7,50.4,79,50.4z M79,50.5
				c-1.2,0-2.5-0.1-3.6-0.8c-0.5-0.3-1-0.8-1.3-1.4c-0.3-0.6-0.4-1.2-0.4-1.8l0.1,0.1c-0.7,0.6-1.4,1.3-1.4,2.2
				c-0.1,0.9,0.6,1.7,1.3,2.1L74,51l-0.2,0.1c-0.6,0.2-1.2,0.1-1.8-0.2c-0.5-0.3-1-0.6-1.4-1.1C69.8,49,69.1,48,68.5,47l0.3-0.1
				c0.4,0.9,0.7,1.9,0.7,2.9c0,1-0.4,2.1-1.1,2.8c-0.6,0.8-1.5,1.4-2.4,1.9c-0.9,0.5-1.8,0.8-2.8,1.1l-0.6,0.2l0.3-0.6
				c0.3-0.5,0.4-1.2,0.3-1.8c-0.1-0.6-0.3-1.2-0.6-1.8c-0.6-1.2-1.4-2.2-2.4-3.1l0.6,0c-0.4,0.5-0.1,1.5,0.3,2.2
				c0.4,0.8,1,1.5,1.6,2.2l1.6,1.7l-2.1-1C61,52.7,59.6,52,58.4,51c-0.6-0.5-1.2-1-1.7-1.6c-0.3-0.3-0.5-0.7-0.7-1
				c-0.2-0.4-0.4-0.7-0.4-1.3l1,0.2l-1.1,4.1l-0.1,0.5l-0.5-0.2c-0.7-0.2-1.3-0.6-1.8-1c-0.5-0.4-1.1-0.8-1.5-1.3
				c-1-0.9-1.8-1.9-2.7-3l0.8-0.6c0.4,0.6,0.8,1.2,1.1,1.8c0.3,0.7,0.5,1.4,0.5,2.2c0,0.8-0.3,1.6-0.8,2.2c-0.5,0.6-1.1,1-1.8,1.4
				l-0.5-0.9c0.4-0.3,0.6-0.6,0.5-0.9c0-0.2-0.1-0.4-0.2-0.6c-0.1-0.2-0.3-0.4-0.4-0.5l0.1,0.1c-1.7-1-3.3-2.2-4.6-3.7
				C42.9,45.9,42.3,45,42,44c-0.3-1-0.3-2.2,0.2-3.2l0.9,0.5c-1,1.6-2.1,3.1-3.3,4.6c-1.2,1.4-2.5,2.8-4.1,3.9
				c-0.8,0.5-1.7,1-2.7,1.2c-0.3,0-0.6,0-0.9-0.1c-0.2-0.1-0.4-0.2-0.5-0.5c-0.1-0.3-0.1-0.6,0.1-0.8c0.1-0.2,0.3-0.3,0.4-0.4
				c0.1-0.1,0.1-0.1,0.2-0.2c0.1-0.1,0.2-0.3,0.3-0.4c0.3-0.7,0.3-1.7,0.2-2.5c-0.1-0.9-0.2-1.8-0.4-2.7l0.8,0.2
				c-1.1,1.1-2.1,2.4-2.5,3.9c-0.2,0.7-0.2,1.5,0,2.2c0.2,0.7,0.7,1.4,1.2,1.8l2,1.6l-2.3-0.9c-0.8-0.3-1.6-0.8-2.3-1.5
				c-0.6-0.7-1.1-1.5-1.3-2.4c-0.2-0.9-0.2-1.8-0.1-2.7c0.1-0.9,0.3-1.7,0.7-2.5l0.3,0.4c-1,0-2,0.3-2.6,1c-0.6,0.7-0.8,1.8-0.8,2.8
				l0,0.4l-0.3-0.1c-0.6-0.1-0.7-0.5-0.9-0.8c-0.2-0.3-0.3-0.6-0.4-1c-0.2-0.7-0.3-1.3-0.5-2l0.5,0.1c-0.6,0.9-1.2,1.8-1.6,2.7
				c-0.2,0.5-0.3,1-0.2,1.5c0.1,0.5,0.4,0.8,0.8,0.9l1.4,0.4L23,49.7c-0.9,0.1-1.8-0.1-2.7-0.5c-0.8-0.4-1.5-1-2-1.8
				c-0.5-0.7-0.9-1.6-1.1-2.4c-0.3-0.9-0.4-1.7-0.5-2.6l0,0l0,0c0.1-1.8,0.5-3.6,1.3-5.3c0.8-1.6,1.9-3.1,3.2-4.4
				c2.6-2.6,5.8-4.4,9.1-5.8c3.3-1.5,6.8-2.5,10.3-3.4c3.5-0.9,7.1-1.5,10.7-1.9l0,0l0,0c4.1,0.3,8.2,0.9,12.2,2
				c4,1.1,7.9,2.7,11.5,4.8c3.6,2.1,6.9,4.7,9.7,7.7c2.8,3.1,5.2,6.5,6.7,10.4l0.1,0.3l-0.3,0l-10.1-0.8l0.1-0.2
				c0.7,0.5,1.4,1,2,1.6c0.6,0.6,1.1,1.4,1,2.4c-0.2,0.9-1,1.5-1.7,1.9c-0.8,0.4-1.6,0.7-2.4,0.9l-0.6,0.1l0.5-0.3
				c0.4-0.2,0.8-0.5,1.1-0.7c0.2-0.1,0.3-0.3,0.4-0.5c0.1-0.2,0.1-0.4-0.1-0.5c-0.4-0.2-0.8-0.3-1.3-0.3
				C79.9,50.5,79.4,50.5,79,50.5z"/>
		</g>
		<g>
			<path class="st1" d="M18.7,59.5c2.7,2.2,5,0.1,5,0.1c-3.4-0.5-4.9-9-4.9-9C10,49,16,65.4,16,65.4c3.4,6.4,9.1,2.9,9.1,2.9
				C20.2,70.1,16,57.3,18.7,59.5z"/>
			<path d="M18.8,59.5c0.7,0.6,1.5,0.9,2.4,0.9c0.9,0,1.7-0.4,2.3-1l0.1,0.4c-1-0.1-1.8-0.8-2.4-1.5c-0.6-0.7-1-1.6-1.4-2.4
				c-0.7-1.7-1.2-3.4-1.4-5.3l0.3,0.3c-0.7-0.2-1.4-0.2-2.1,0c-0.7,0.2-1.3,0.6-1.7,1.2c-0.8,1.3-0.8,2.9-0.8,4.3
				c0.1,1.5,0.4,3,0.8,4.5c0.4,1.5,0.9,2.9,1.4,4.3l0-0.1c0.8,1.5,2.1,2.9,3.7,3.3c0.8,0.2,1.6,0.3,2.5,0.1c0.8-0.1,1.7-0.4,2.4-0.8
				l0.5,0.9c-0.6,0.2-1.4,0.3-2,0.1c-0.6-0.2-1.2-0.5-1.7-0.9c-0.9-0.8-1.6-1.8-2.2-2.8c-0.5-1-1-2.1-1.3-3.2
				c-0.2-0.6-0.3-1.1-0.3-1.7c0-0.3-0.1-0.6,0.1-0.9c0.1-0.2,0.3-0.2,0.4-0.1C18.5,59.3,18.6,59.4,18.8,59.5z M18.7,59.5
				c-0.2-0.2-0.5-0.4-0.7-0.1c-0.1,0.2-0.1,0.5-0.1,0.8c0.1,0.6,0.2,1.1,0.4,1.6c0.4,1.1,0.9,2.1,1.6,3c0.6,0.9,1.4,1.8,2.2,2.4
				c0.8,0.6,1.8,0.9,2.7,0.6l0.5,0.9c-0.9,0.5-1.8,0.8-2.7,1c-1,0.2-2,0.1-2.9-0.2c-0.9-0.3-1.8-0.9-2.5-1.6
				c-0.7-0.7-1.2-1.5-1.6-2.3l0,0l0,0c-0.9-2.9-1.5-6-1.7-9.1c0-1.5,0-3.1,0.8-4.6c0.4-0.7,1-1.3,1.8-1.5c0.8-0.3,1.6-0.2,2.4-0.1
				l0.2,0l0.1,0.3c0.4,1.7,0.9,3.4,1.5,5c0.3,0.8,0.7,1.6,1.1,2.3c0.5,0.7,1.1,1.4,1.9,1.5l0.5,0.1l-0.4,0.3
				c-0.8,0.6-1.7,0.9-2.6,0.8C20.3,60.5,19.4,60.1,18.7,59.5z"/>
		</g>
		<g>
			<path class="st1" d="M78.8,61.8c0,0,3.5,3.4,6.7,0.5c0,0,0.7,10.6-8.2,9.1c0,0,11,3.7,12.6-9.2l-4.6-8.7
				C85.3,53.4,85.7,64.4,78.8,61.8z"/>
			<path d="M79.1,62c0.9,0.6,1.9,1.1,3,1.2c0.6,0.1,1.2,0,1.7-0.2c0.5-0.2,1-0.6,1.4-0.9l0.6-0.6l0,0.8c0.1,1.3,0,2.5-0.3,3.7
				c-0.2,1.2-0.7,2.4-1.5,3.5c-0.8,1-1.9,1.8-3.2,2.1c-1.2,0.3-2.5,0.2-3.7,0l0.1-0.4c1.4,0.5,3,0.6,4.5,0.4
				c1.5-0.2,2.9-0.7,4.1-1.7c1.2-0.9,2-2.2,2.5-3.6c0.5-1.4,0.9-2.8,1-4.3l0.1,0.3c-1.6-2.9-3.1-5.8-4.6-8.7l0.9-0.3
				c0,1.1-0.1,2.2-0.3,3.3c-0.2,1.1-0.5,2.2-1,3.2c-0.5,1-1.3,1.9-2.5,2.3C81,62.5,80,62.3,79.1,62z M78.8,61.8c1,0.3,2.1,0.4,3.1,0
				c0.9-0.4,1.6-1.2,2-2.2c0.8-1.9,1-4.1,0.9-6.2l-0.1-2.1l1,1.8c1.6,2.9,3.1,5.8,4.6,8.7l0.1,0.1l0,0.1c-0.2,1.5-0.6,3.1-1.2,4.5
				c-0.6,1.4-1.6,2.7-2.9,3.7c-1.3,0.9-2.8,1.4-4.4,1.6c-1.5,0.1-3.1,0-4.6-0.4l0.1-0.4c1.2,0.2,2.4,0.1,3.5-0.2
				c1.1-0.4,2-1.1,2.6-2c0.6-0.9,1.1-2,1.3-3.1c0.3-1.1,0.4-2.3,0.3-3.5l0.6,0.3c-1,0.9-2.4,1.4-3.7,1.1c-0.7-0.1-1.3-0.4-1.8-0.7
				C79.7,62.7,79.2,62.3,78.8,61.8l-0.2-0.1L78.8,61.8z"/>
		</g>
	</g>
	<g>
		<g>
			<path class="st7" d="M26.6,9.6C26.6,9.4,26.6,9.4,26.6,9.6L26.6,9.6z"/>
			<path d="M26.6,9.6L26.6,9.6c-0.4,0-0.5,0-0.4,0c0.1,0,0.2,0,0.2-0.1c0,0,0,0,0,0c0,0,0,0,0,0c0,0.1,0.1,0.2,0.2,0.2
				c0,0,0.1,0,0.2-0.1c0.1-0.1,0.1-0.2,0.1-0.2l0.1,0l0.1,0c0,0,0.1,0,0.1,0C27.1,9.5,27,9.5,26.6,9.6L26.6,9.6z M26.6,9.6
				c-0.3,0-0.4,0-0.5,0c0,0,0,0,0.1-0.1c0,0,0,0,0.1,0l0.1,0c0-0.1,0-0.2,0.1-0.2c0.1-0.1,0.2-0.1,0.2-0.1c0.1,0,0.3,0.1,0.2,0.2
				c0,0,0,0,0,0c0,0,0,0,0,0l0.3,0C27.1,9.5,27,9.5,26.6,9.6L26.6,9.6L26.6,9.6z"/>
		</g>
		<g>
			<path class="st7" d="M82,9.8c0,0-7.9-6.4-28-6.8c-18.7-0.3-27.4,7.1-27.4,6.6C8.7,19.7,6.5,35.9,8.7,49.9
				c3,19.2,9.5,28.7,30.4,31.6c0,0,0,0,0,0s0,0,0,0l3.6,0c-1.9,5.8-8.5,25.4-12.2,31.3c-4.3,7,7.3,40,11.5,33.9c0,0,1.3-1.5,1-11.5
				c0,0,9.8,3,17.9,0.3c8.1-2.7,0,0.4,0,0.4s-2.1,11,1.9,11.5c4,0.6,11-16.1,12.4-24.7c1.5-8.4-9.5-31.1-9.8-41.4l8.2-0.1
				c0,0-0.1-0.1-0.1-0.1C90.3,77.6,96,68.3,99.1,51.3C101.7,36.7,100,21.4,82,9.8z M86.4,68.6c-0.1,7.1-7.3,11.2-33.2,10.7
				c-25.8-0.5-33.7-4.8-33.6-11.9c0-2.1,1.2-3.9,1.3-6.4c0.1-2.5-1.3-5.4-1-8.2c1-9.7,5.2-15.1,11.8-17.9c2.3,1.9,6.4,3.2,11.1,3.3
				c3.7,0.1,7-0.6,9.4-1.7c2.3,1.2,5.6,2,9.3,2.1c4.2,0.1,8-0.8,10.4-2.3c7.6,3.7,12.5,9.9,12.5,18.7c0,2.3,0.3,2,1,7
				C86.1,66.8,86.5,65.9,86.4,68.6z"/>
			<g>
				<path d="M82,9.8c-1.9-1.4-4.2-2.4-6.4-3.2c-2.3-0.8-4.6-1.5-6.9-2c-4.7-1-9.5-1.4-14.3-1.5C49.5,3.1,44.7,3.5,40,4.6
					c-2.3,0.5-4.6,1.2-6.9,2.1c-1.1,0.4-2.2,0.9-3.3,1.5c-0.5,0.3-1.1,0.6-1.6,0.9l-0.8,0.4l-0.4,0.2l-0.2,0.1c0,0-0.1,0-0.1,0.1
					c0,0-0.1,0-0.1,0c0,0-0.3,0-0.4-0.3l0.4,0.2c-3.4,2-6.6,4.4-9.3,7.2C14.7,20,12.5,23.3,11,27c-3,7.3-3.2,15.5-1.9,23.3
					c0.6,3.9,1.4,7.8,2.8,11.6c1.3,3.7,3.2,7.3,5.9,10.2c2.7,2.9,6.1,5,9.8,6.4c3.7,1.4,7.6,2.3,11.5,2.8l0.2,0l0,0.2
					c0,0.1,0,0.2-0.1,0.2l0.1-0.1l0,0l-0.2-0.4l3.6,0l0.3,0l-0.1,0.3C41,87.3,39,93,36.8,98.7c-1.1,2.8-2.2,5.7-3.4,8.5
					c-0.6,1.4-1.2,2.8-1.9,4.1c-0.3,0.7-0.8,1.3-1.1,2c-0.3,0.7-0.4,1.4-0.5,2.2c-0.3,3,0.1,6,0.7,9c0.6,3,1.4,5.9,2.3,8.8
					c1,2.9,2,5.7,3.4,8.4c0.7,1.3,1.4,2.7,2.4,3.8c0.5,0.6,1,1.1,1.6,1.4c0.3,0.2,0.6,0.2,0.9,0.1c0.3-0.1,0.5-0.3,0.7-0.6l0-0.1
					l0,0c0.2-0.3,0.3-0.8,0.4-1.2c0.1-0.5,0.2-0.9,0.2-1.4c0.1-1,0.2-1.9,0.2-2.9c0.1-1.9,0.1-3.9,0-5.8l0-0.5l0.5,0.1
					c2,0.6,4.2,0.9,6.3,1.2c2.1,0.2,4.3,0.3,6.4,0.1c2.1-0.2,4.2-0.7,6.2-1.4l1.6-0.5c0.3-0.1,0.5-0.2,0.8-0.2l0.1,0c0,0,0,0,0.3,0
					c0.1,0.1,0.2,0.1,0.3,0.4c0,0.1,0,0.2-0.1,0.3l0,0c0,0.1-0.1,0.1-0.1,0.1l-0.1,0.1l-0.2,0.1l-0.4,0.2c-1,0.4-2,0.8-3,1.2
					l0.3-0.3c-0.3,1.7-0.5,3.4-0.5,5.1c0,1.7,0,3.5,0.8,4.9c0.2,0.3,0.4,0.6,0.7,0.8c0.1,0.1,0.3,0.1,0.5,0.2c0,0,0.1,0,0.1,0l0.2,0
					c0.1,0,0.1,0,0.2,0c0.7-0.1,1.3-0.7,1.9-1.3c1.1-1.2,2-2.7,2.9-4.2c1.7-3,3-6.3,4.2-9.5c0.6-1.6,1.1-3.3,1.6-5
					c0.5-1.7,0.9-3.4,1.1-5c0.1-1.7-0.1-3.4-0.4-5.1c-0.3-1.7-0.7-3.4-1.2-5.1c-0.9-3.4-2-6.7-3.1-10s-2.2-6.7-3.1-10
					c-0.9-3.4-1.9-6.8-2-10.4l0-0.5l0.5,0l8.2-0.1l-0.4,0.8l-0.1-0.1l-0.5-0.6l0.8-0.2c3.7-0.7,7.3-1.8,10.5-3.6
					c3.3-1.8,6.1-4.3,8.2-7.4c2.1-3.1,3.5-6.6,4.6-10.1c1.1-3.6,1.8-7.3,2.4-11c0.5-3.7,0.7-7.5,0.4-11.2c-0.3-3.7-1.2-7.4-2.8-10.8
					c-1.5-3.4-3.7-6.6-6.2-9.3C88.1,14.2,85.1,11.9,82,9.8L82,9.8L82,9.8z M82,9.8L82,9.8c3.2,2,6.2,4.4,8.8,7.1
					c2.6,2.7,4.8,5.9,6.4,9.3c1.6,3.4,2.5,7.2,2.9,10.9c0.4,3.8,0.2,7.6-0.3,11.3c-0.5,3.7-1.2,7.5-2.3,11.1
					c-1,3.6-2.5,7.2-4.6,10.4c-2.1,3.2-5,5.9-8.4,7.7c-3.3,1.9-7,3-10.7,3.8l0.3-0.8l0.1,0.1l0.6,0.8l-1,0l-8.2,0.1l0.5-0.5
					c0.1,3.4,1.1,6.8,2,10.1c1,3.3,2,6.7,3.1,10s2.2,6.7,3.1,10.1c0.5,1.7,0.9,3.4,1.2,5.1c0.3,1.7,0.6,3.5,0.4,5.3
					c-0.2,1.8-0.7,3.5-1.1,5.2c-0.5,1.7-1,3.4-1.6,5c-1.2,3.3-2.6,6.6-4.3,9.7c-0.9,1.5-1.8,3.1-3,4.4c-0.6,0.6-1.3,1.3-2.4,1.6
					c-1.2,0.2-2.2-0.6-2.6-1.4c-0.5-0.9-0.7-1.8-0.8-2.7c-0.1-0.9-0.1-1.8-0.1-2.7c0-1.8,0.2-3.5,0.6-5.3l0-0.2l0.2-0.1
					c1-0.4,2-0.8,3-1.2l0.4-0.2l0.1-0.1c0,0,0,0,0,0c0,0,0,0-0.1,0.1l0,0c0,0.1-0.1,0.2-0.1,0.3c0,0.2,0.1,0.3,0.2,0.3
					c0.2,0.1,0.2,0,0.2,0c0,0,0,0,0,0c-0.2,0-0.5,0.1-0.7,0.2l-1.5,0.5c-2,0.7-4.2,1.2-6.4,1.4c-2.2,0.2-4.4,0.1-6.5-0.1
					c-2.2-0.2-4.3-0.6-6.4-1.2l0.4-0.3c0,2,0.1,3.9,0,5.9c-0.1,1-0.1,2-0.3,2.9c-0.1,0.5-0.2,1-0.3,1.5c-0.1,0.5-0.2,0.9-0.6,1.5
					l0,0c-0.2,0.3-0.6,0.7-1,0.8c-0.5,0.1-0.9,0-1.3-0.2c-0.7-0.4-1.3-1-1.8-1.6c-1-1.2-1.7-2.6-2.4-3.9c-1.4-2.7-2.4-5.6-3.4-8.5
					c-0.9-2.9-1.7-5.8-2.3-8.8c-0.5-3-1-6-0.6-9.1c0.1-0.8,0.3-1.5,0.6-2.3c0.4-0.7,0.8-1.3,1.1-2c0.7-1.3,1.3-2.7,1.9-4.1
					c1.2-2.8,2.3-5.6,3.4-8.5c2.1-5.7,4.1-11.4,6-17.2l0.2,0.3l-3.6,0.1l-0.4,0l0.2-0.4c0,0,0,0,0,0l0-0.1l0.1,0
					c-0.1,0-0.1,0.1-0.1,0.2l0.2,0.2c-4-0.5-7.9-1.4-11.7-2.8c-3.8-1.4-7.3-3.5-10.1-6.5c-2.8-2.9-4.7-6.6-6.1-10.4
					C9.8,58.3,9,54.4,8.3,50.4c-0.7-4-1-8-0.7-12c0.2-4,1.1-8,2.7-11.8c1.6-3.7,3.8-7.2,6.6-10.1c2.8-2.9,6.1-5.3,9.6-7.3l0.4-0.2
					l0,0.4c0-0.3-0.3-0.2-0.3-0.2c0,0,0,0,0,0l0.1,0l0.2-0.1L27.2,9L28,8.5c0.5-0.3,1.1-0.6,1.6-0.8c1.1-0.5,2.2-1,3.3-1.5
					c2.3-0.9,4.6-1.6,6.9-2.1c4.7-1,9.6-1.4,14.4-1.3c4.8,0.1,9.6,0.6,14.4,1.6c2.4,0.5,4.7,1.2,6.9,2C77.8,7.3,80.1,8.3,82,9.8z"/>
				<path d="M86.5,68.6c0,1.2-0.2,2.4-0.8,3.5c-0.5,1.1-1.3,2-2.3,2.7c-1.9,1.5-4.2,2.3-6.5,2.9c-4.6,1.2-9.4,1.6-14.2,1.9
					c-4.8,0.2-9.5,0.2-14.3,0c-4.8-0.2-9.5-0.6-14.2-1.5c-2.3-0.4-4.7-1-6.9-1.8c-2.2-0.9-4.5-2-6-3.8c-1.6-1.9-2.1-4.5-1.4-6.9
					c0.3-1.2,0.7-2.3,0.9-3.4c0.2-1.2,0.1-2.3-0.1-3.5c-0.2-1.2-0.5-2.3-0.7-3.5c-0.1-0.6-0.1-1.2-0.1-1.8c0-0.6,0.1-1.2,0.2-1.8
					c0.3-2.4,0.8-4.7,1.8-7c0.9-2.2,2.2-4.3,4-6c1.7-1.7,3.8-3.1,6-4l0.2-0.1l0.2,0.2c1.3,1.1,3,1.7,4.6,2.2
					c1.7,0.5,3.4,0.7,5.2,0.8c1.7,0.1,3.5,0,5.2-0.2c1.7-0.3,3.4-0.7,5-1.4l0.2-0.1l0.2,0.1c1.5,0.7,3,1.2,4.7,1.6
					c1.6,0.3,3.3,0.5,5,0.5c1.7,0,3.3-0.2,4.9-0.5c1.6-0.3,3.2-0.9,4.6-1.7l0.2-0.1l0.2,0.1c2.9,1.4,5.5,3.3,7.7,5.7
					c2.1,2.4,3.6,5.4,4.3,8.5c0.3,1.6,0.5,3.1,0.5,4.7c0,0.8,0,1.6,0.1,2.3l0.4,2.3c0.3,1.6,0.4,3.1,0.7,4.7
					c0.1,0.8,0.3,1.5,0.5,2.3C86.5,67,86.5,67.8,86.5,68.6z M86.4,68.6c0.1-1.6-0.5-3.1-0.7-4.6c-0.3-1.6-0.5-3.1-0.8-4.7
					c-0.1-0.8-0.3-1.5-0.5-2.3c-0.2-0.8-0.2-1.6-0.2-2.4c0-1.6-0.2-3.1-0.6-4.6c-0.8-3-2.3-5.8-4.4-8c-2.1-2.3-4.7-4-7.5-5.3l0.5,0
					c-1.5,0.9-3.2,1.5-4.9,1.9c-1.7,0.4-3.4,0.5-5.2,0.5c-1.7,0-3.5-0.1-5.2-0.5c-1.7-0.3-3.4-0.8-5-1.6l0.5,0
					c-1.7,0.8-3.5,1.2-5.3,1.5c-1.8,0.3-3.6,0.3-5.4,0.2c-1.8-0.1-3.6-0.4-5.4-0.9c-1.7-0.5-3.5-1.3-4.9-2.5l0.4,0.1
					c-2.2,0.9-4.2,2.1-5.8,3.8c-1.7,1.6-3,3.6-3.9,5.8c-0.9,2.2-1.5,4.5-1.8,6.8c-0.1,0.6-0.2,1.2-0.2,1.8c0,0.6,0,1.2,0.1,1.7
					c0.1,1.2,0.4,2.3,0.7,3.5c0.2,1.2,0.3,2.4,0.1,3.6c-0.2,1.2-0.6,2.3-0.9,3.5c-0.6,2.3-0.1,4.8,1.4,6.6c1.5,1.8,3.7,2.9,5.9,3.6
					c2.2,0.8,4.6,1.3,6.9,1.6c4.7,0.7,9.4,1,14.2,1.2c4.7,0.1,9.5,0.3,14.2,0.1c4.7-0.1,9.5-0.4,14.1-1.4c2.3-0.6,4.6-1.3,6.5-2.7
					c0.9-0.7,1.7-1.6,2.3-2.7C86.1,70.9,86.4,69.8,86.4,68.6z"/>
			</g>
		</g>
	</g>
	<g class="st4">
		<path class="st2" d="M26.6,9.6C26.6,9.4,26.6,9.4,26.6,9.6L26.6,9.6z"/>
		<path class="st2" d="M65.8,83.4c-1.6,3.3-1,6.9,0.1,10.1c4.2,17.3,9.8,40.3-4.7,52.2c0.4,0.9,1,1.5,1.8,1.6
			c4,0.6,11-16.1,12.4-24.7C76.7,114.8,67.3,94.5,65.8,83.4z"/>
		<path class="st2" d="M63.7,134.7c-1.1,0.4-2.7,1.1-2.7,1.1s-0.6,3.4-0.5,6.4C62.7,140.5,63.3,137.6,63.7,134.7z"/>
		<path class="st2" d="M41,132.6c-1.2,4-0.8,8.6,1.8,11.3c0.2-1.7,0.4-4.5,0.3-8.8c0,0,9.8,3,17.9,0.3c1.3-0.4,2.2-0.7,2.7-0.9
			c0.1-0.9,0.2-1.7,0.3-2.5C56.4,135.5,48.7,134.9,41,132.6z"/>
		<path class="st2" d="M42,83.5c-2.5,7.4-8.2,23.9-11.5,29.2c-1.4,2.3-1.1,7.3,0,12.8c1-12.1,5.2-23.7,10.4-35
			C42.1,88.4,43.1,85.8,42,83.5z"/>
	</g>
	<g>
		<path class="st7" d="M26.6,9.6C26.6,9.4,26.6,9.4,26.6,9.6L26.6,9.6z"/>
		<path d="M26.6,9.6L26.6,9.6c-0.4,0-0.5,0-0.4,0c0.1,0,0.2,0,0.2-0.1c0,0,0,0,0,0c0,0,0,0,0,0c0,0.1,0.1,0.2,0.2,0.2
			c0,0,0.1,0,0.2-0.1c0.1-0.1,0.1-0.2,0.1-0.2l0.1,0l0.1,0c0,0,0.1,0,0.1,0C27.1,9.5,27,9.5,26.6,9.6L26.6,9.6z M26.6,9.6
			c-0.3,0-0.4,0-0.5,0c0,0,0,0,0.1-0.1c0,0,0,0,0.1,0l0.1,0c0-0.1,0-0.2,0.1-0.2c0.1-0.1,0.2-0.1,0.2-0.1c0.1,0,0.3,0.1,0.2,0.2
			c0,0,0,0,0,0c0,0,0,0,0,0l0.3,0C27.1,9.5,27,9.5,26.6,9.6L26.6,9.6L26.6,9.6z"/>
	</g>
	<path class="st6" d="M64.3,81.1c-3.2,0.2-6.9,0.2-11.1,0.1c-3.3-0.1-6.4-0.2-9.2-0.4C50.2,85.4,57.7,84.6,64.3,81.1z"/>
	<path class="st6" d="M33.8,79.2c-2-0.8-3.8-1.8-5.4-2.8c-5.8-1.8-8.3-4.5-8.7-7.9c-7.5-9.6-9.9-22.7-11.1-34.8
		c-1,5.4-0.8,11,0,16.2c2.8,18,8.7,27.5,26.7,31C34.9,80.1,34.3,79.5,33.8,79.2z"/>
	<path class="st6" d="M86.4,68.3c0,0.1,0,0.2,0,0.3c-0.1,3-1.4,5.5-4.8,7.3c-0.8,1.2-1.7,2.5-2.5,3.7c12.5-4.2,17.3-13.2,20-28.2
		c1.2-6.7,1.5-13.6-0.3-20.2C99.2,44.1,93.6,56.5,86.4,68.3z"/>
	<g>
		<circle class="st3" cx="75.5" cy="26" r="3.9"/>
		<circle cx="74.5" cy="26" r="3.9"/>
		<path class="st11" d="M73.3,25.3c0,0.4-0.3,0.6-0.7,0.6c-0.4,0-0.7-0.3-0.6-0.7c0-0.4,0.3-0.6,0.7-0.6C73,24.7,73.3,25,73.3,25.3z
			"/>
	</g>
	<g>
		<circle class="st3" cx="33.1" cy="25.3" r="3.9"/>
		<path d="M36,25.3c0,2.1-1.8,3.8-3.9,3.8c-2.1,0-3.9-1.8-3.8-4c0-2.1,1.8-3.8,4-3.8C34.3,21.4,36.1,23.2,36,25.3z"/>
		<path class="st11" d="M30.9,24.6c0,0.4-0.3,0.6-0.7,0.6c-0.4,0-0.6-0.3-0.6-0.7c0-0.4,0.3-0.6,0.7-0.6
			C30.6,23.9,30.9,24.2,30.9,24.6z"/>
	</g>
	<path class="st6" d="M28.3,20.5c0,0-1.3,16.8-13,16.9c0,0-1.6,0.6-1.7,3.9c0,0-6.8,2.2-8.1-8.6C4.2,22,1.4,15.3,22.1,12.6"/>
	<g>
		<path class="st7" d="M28.3,20.4c0,0-5,16.6-17,14.7c0,0-1.7,0.3-2.6,3.6c0,0-7.4,1-6.3-10c1.1-11-0.2-18.2,21.3-17.3"/>
		<path d="M28.4,20.4c-0.5,2-1.3,3.9-2.2,5.7c-0.9,1.8-2.1,3.5-3.5,5.1c-1.4,1.5-3.1,2.8-5.1,3.6c-2,0.7-4.1,0.9-6.2,0.5l0.1,0
			c-0.3,0.1-0.6,0.3-0.9,0.5c-0.3,0.2-0.5,0.5-0.7,0.8c-0.4,0.6-0.7,1.3-0.9,2.1l0,0.1l-0.1,0c-2,0.2-4.1-0.7-5.3-2.4
			C2.4,34.8,2,32.7,2,30.7c0-1,0.1-2,0.1-3l0.2-2.9c0.2-1.9,0.3-3.9,0.9-5.9c0.5-1.9,1.6-3.9,3.3-5.1c1.6-1.3,3.6-1.9,5.6-2.3
			c2-0.4,3.9-0.5,5.9-0.5c2,0,3.9,0.1,5.9,0.3l0,0.1c-3.9,0-7.8,0.2-11.6,1c-1.9,0.4-3.7,1.1-5.1,2.2c-1.5,1.1-2.4,2.8-2.9,4.6
			c-0.5,1.8-0.7,3.7-0.9,5.7L3,27.8c-0.1,1-0.2,1.9-0.2,2.9c0,1.9,0.2,3.9,1.2,5.5C4.4,37,5.2,37.6,6,38c0.9,0.4,1.8,0.6,2.8,0.5
			l-0.1,0.1c0.2-0.7,0.5-1.5,0.9-2.2c0.2-0.3,0.5-0.7,0.7-0.9c0.3-0.3,0.6-0.5,1.1-0.6l0,0l0,0c2,0.3,4,0,5.8-0.8
			c1.8-0.8,3.4-2,4.8-3.4c1.4-1.4,2.5-3.1,3.6-4.8C26.6,24.1,27.5,22.3,28.4,20.4L28.4,20.4z"/>
	</g>
	<path class="st10" d="M19.2,30.7c-0.1,1.4,3.1,2.7,7.2,2.9c4.1,0.3,7.4-0.6,7.5-2c0.1-1.4-3.1-2.7-7.2-2.9
		C22.6,28.4,19.3,29.3,19.2,30.7z"/>
	<path class="st11" d="M19.3,29c0,0.4,1,0.9,2.3,0.9c1.3,0.1,2.4-0.2,2.4-0.6c0-0.4-1-0.8-2.3-0.9C20.4,28.3,19.3,28.6,19.3,29z"/>
	
		<ellipse transform="matrix(0.9997 -2.506915e-002 2.506915e-002 0.9997 -0.7768 1.9957)" class="st10" cx="79.2" cy="32" rx="7.5" ry="2.5"/>
	<path class="st11" d="M86.6,30.1c0,0.4-1.1,0.8-2.4,0.9c-1.3,0-2.4-0.3-2.4-0.7c0-0.4,1-0.8,2.4-0.9C85.5,29.3,86.6,29.7,86.6,30.1
		z"/>
	<path class="st10" d="M84.8,65.7c0,1.4-3.3,2.6-7.4,2.7c-4.1,0.1-7.5-0.9-7.5-2.3c0-1.4,3.3-2.6,7.4-2.7
		C81.4,63.3,84.8,64.3,84.8,65.7z"/>
	<path class="st11" d="M84.8,64c0,0.4-1,0.8-2.4,0.9c-1.3,0-2.4-0.3-2.4-0.7c0-0.4,1-0.8,2.4-0.9C83.7,63.2,84.8,63.5,84.8,64z"/>
	<path class="st10" d="M22.7,64.6c-0.1,1.4,3.2,2.7,7.3,2.9c4.1,0.3,7.5-0.7,7.6-2c0.1-1.4-3.2-2.7-7.3-2.9
		C26.2,62.4,22.8,63.3,22.7,64.6z"/>
	<path class="st11" d="M22.8,63c0,0.4,1,0.9,2.3,0.9c1.3,0.1,2.4-0.2,2.4-0.6c0-0.4-1-0.9-2.3-0.9C23.9,62.2,22.8,62.5,22.8,63z"/>
	<path class="st5" d="M81.5,36.4c-0.1,5.7-12.7,7.6-28.1,7.3c-15.5-0.3-28-2.6-27.9-8.3c0.1-5.7,12.7-10.2,28.2-9.9
		C69.1,25.8,81.6,30.7,81.5,36.4z"/>
	<path class="st12" d="M26.1,33.3c-0.4,0.7-0.6,1.4-0.6,2.1c-0.1,5.7,12.4,8,27.9,8.3c15.5,0.3,28-1.6,28.1-7.3
		c0-0.7-0.2-1.5-0.6-2.2C64.8,43.7,40.9,43.5,26.1,33.3z"/>
	<ellipse transform="matrix(0.9998 1.820937e-002 -1.820937e-002 0.9998 0.6428 -0.7141)" cx="39.5" cy="34.9" rx="2.6" ry="3.8"/>
	<ellipse transform="matrix(0.9998 1.807822e-002 -1.807822e-002 0.9998 0.6478 -1.2208)" cx="67.8" cy="35.2" rx="2.6" ry="3.8"/>
	<path class="st6" d="M79.2,20.9c0,0,1.6,16.5,12.8,17.4c0,0,1.5,0.7,1.7,3.9c0,0,6.5,2.6,7.5-7.9c1-10.5,3.4-16.9-16.3-20.8"/>
	<g>
		<path class="st7" d="M79.5,20.7c0,0,4.4,16.7,16.4,15.3c0,0,1.7,0.4,2.5,3.7c0,0,7.4,1.3,6.6-9.8c-0.7-11.1,0.9-18.2-20.7-18"/>
		<path d="M79.5,20.7c0.7,1.9,1.5,3.8,2.5,5.5c1,1.8,2.1,3.5,3.4,4.9c1.3,1.5,2.9,2.8,4.7,3.6c1.8,0.9,3.8,1.2,5.8,1l0,0l0,0
			c0.4,0.1,0.7,0.4,1,0.7c0.3,0.3,0.5,0.6,0.7,1c0.4,0.7,0.6,1.4,0.8,2.2l-0.1-0.1c0.9,0.1,1.9,0,2.8-0.4c0.9-0.4,1.6-1,2.1-1.8
			c1.1-1.6,1.3-3.5,1.4-5.4c0-1-0.1-1.9-0.1-2.9l-0.2-2.9c-0.1-1.9-0.3-3.9-0.7-5.7c-0.4-1.8-1.3-3.5-2.7-4.7
			c-1.4-1.2-3.2-1.9-5-2.4c-3.7-1-7.6-1.2-11.5-1.4v-0.1c1.9-0.1,3.9-0.2,5.9-0.1c2,0.1,3.9,0.3,5.9,0.7c1.9,0.5,3.9,1.1,5.5,2.5
			c1.6,1.3,2.6,3.3,3.1,5.2c0.5,2,0.6,3.9,0.6,5.9l0.1,2.9c0,1,0.1,2,0,3c-0.1,2-0.5,4-1.7,5.7c-1.2,1.7-3.4,2.5-5.4,2.2l-0.1,0
			l0-0.1c-0.2-0.7-0.4-1.4-0.8-2.1c-0.2-0.3-0.4-0.6-0.7-0.9c-0.3-0.2-0.6-0.5-0.9-0.6l0.1,0c-2,0.3-4.2,0.1-6.1-0.7
			c-1.9-0.8-3.6-2.2-5-3.7c-1.3-1.6-2.5-3.3-3.3-5.2C80.6,24.7,79.9,22.7,79.5,20.7L79.5,20.7z"/>
	</g>
	<g>
		<line class="st0" x1="68" y1="57.7" x2="80.7" y2="58.6"/>
		<line class="st0" x1="68.4" y1="58.9" x2="78.8" y2="59.9"/>
		<line class="st0" x1="68.1" y1="60.2" x2="80.8" y2="61.1"/>
		<line class="st0" x1="68.4" y1="61.4" x2="78.9" y2="62.3"/>
	</g>
	<g>
		<line class="st0" x1="38.6" y1="56.9" x2="25.9" y2="57.7"/>
		<line class="st0" x1="38.3" y1="58.1" x2="27.8" y2="59"/>
		<line class="st0" x1="38.5" y1="59.3" x2="25.8" y2="60.2"/>
		<line class="st0" x1="38.2" y1="60.5" x2="27.7" y2="61.4"/>
	</g>
	<g>
		<path class="st14" d="M64.6,67.5c0,0.7-4.4,2.1-9.9,2c-5.4-0.1-9.8-1.7-9.8-2.4c0-0.7,4.4-1.2,9.8-1.1
			C60.2,66.2,64.6,66.8,64.6,67.5z"/>
		<g>
			<path d="M64.7,67.5c-0.1,0.3-0.3,0.4-0.4,0.5c-0.2,0.1-0.4,0.2-0.6,0.3c-0.4,0.2-0.8,0.3-1.2,0.5c-0.8,0.3-1.6,0.5-2.5,0.7
				c-1.7,0.4-3.4,0.6-5.1,0.5c-1.7-0.1-3.4-0.4-5.1-0.8c-0.8-0.2-1.7-0.4-2.5-0.6c-0.4-0.1-0.8-0.3-1.2-0.4
				c-0.4-0.2-0.8-0.3-1.2-0.7c0-0.1-0.1-0.1-0.1-0.2c0-0.1,0-0.1,0-0.2c0,0,0,0,0-0.1c0.1-0.2,0.3-0.3,0.4-0.3
				c0.2-0.1,0.4-0.2,0.6-0.3c0.4-0.1,0.8-0.2,1.3-0.3c0.9-0.1,1.7-0.3,2.6-0.3c1.7-0.1,3.4-0.2,5.1-0.2c1.7,0.1,3.4,0.2,5.1,0.5
				c0.8,0.1,1.7,0.3,2.5,0.5c0.4,0.1,0.8,0.2,1.2,0.3c0.2,0.1,0.4,0.1,0.6,0.2C64.4,67.2,64.6,67.2,64.7,67.5L64.7,67.5L64.7,67.5z
				 M64.6,67.5c0-0.2-0.3-0.3-0.4-0.3c-0.2-0.1-0.4-0.1-0.6-0.2c-0.4-0.1-0.8-0.2-1.2-0.2c-0.8-0.1-1.7-0.1-2.5-0.1l-5.1-0.1
				c-1.7,0-3.4,0-5,0c-0.8,0-1.7,0.1-2.5,0.2c-0.4,0-0.8,0.1-1.2,0.2c-0.2,0-0.4,0.1-0.5,0.2c-0.1,0-0.2,0.1-0.1,0c0,0,0,0,0,0
				c0-0.1,0,0,0-0.1c0,0,0,0,0,0c0.2,0.2,0.6,0.5,1,0.6c0.4,0.2,0.8,0.3,1.2,0.5c0.8,0.3,1.6,0.5,2.4,0.6c1.7,0.3,3.4,0.3,5,0.3
				c1.7,0,3.3-0.1,5-0.3c0.8-0.1,1.7-0.2,2.5-0.4c0.4-0.1,0.8-0.2,1.2-0.3c0.2-0.1,0.4-0.2,0.6-0.3C64.3,67.8,64.5,67.7,64.6,67.5z"
				/>
		</g>
	</g>
	<g>
		<path class="st7" d="M64,80.9c0,0,20.2,20.8,21,28c0.8,7.3-5.4-4.7-19.6-9.9"/>
		<path d="M64,80.8c3.7,3.4,7.2,7.1,10.4,11c1.6,2,3.1,4,4.6,6.1c1.5,2,3,4.1,4.4,6.2c0.7,1.1,1.3,2.2,1.7,3.5
			c0.2,0.6,0.3,1.3,0.4,2c0,0.3,0,0.7,0,1c0,0.2-0.1,0.4-0.2,0.6c-0.1,0.3-0.5,0.4-0.8,0.4c-0.5,0-0.8-0.3-1.1-0.4
			c-0.3-0.2-0.6-0.4-0.8-0.6c-0.5-0.4-1-0.8-1.5-1.2l-2.9-2.4c-3.9-3.2-8.1-6-12.7-8l0-0.1c4.9,1.4,9.4,4.1,13.3,7.3
			c1,0.8,2,1.6,2.9,2.4c0.5,0.4,0.9,0.8,1.4,1.2c0.2,0.2,0.5,0.4,0.7,0.5c0.2,0.2,0.5,0.3,0.6,0.3c0.1,0,0,0,0,0
			c0,0,0.1-0.1,0.1-0.3c0-0.2,0-0.5,0-0.8c0-0.6-0.1-1.2-0.3-1.8c-0.3-1.2-0.9-2.3-1.4-3.4c-1.2-2.2-2.6-4.3-4.1-6.3
			c-1.6-2-3.3-3.9-4.9-5.7C70.5,88.6,67.2,84.8,64,80.8L64,80.8z"/>
	</g>
	<path class="st6" d="M65.2,96.5l0.2,2.5c12.3,4.5,18.6,14.1,19.5,11.8C78.7,105.6,72.4,100.5,65.2,96.5z"/>
	<g>
		<path d="M49.6,115.8c1.3,0.7,2.6,1.4,3.8,2c0.6,0.3,1.3,0.6,2,0.6c0.3,0,0.7-0.1,1-0.3c0.3-0.2,0.4-0.5,0.5-0.8
			c0.1-0.6-0.3-1.1-0.8-1.2c-0.5-0.1-1.2,0.1-1.8,0.4c-1.3,0.5-2.5,1.4-3.8,2.1l-0.1-0.1c0.9-1.2,2-2.3,3.4-3
			c0.7-0.3,1.6-0.6,2.5-0.3c0.5,0.1,0.9,0.4,1.1,0.9c0.2,0.5,0.2,1,0,1.3c-0.3,0.8-1.2,1.2-1.9,1.3c-0.8,0.1-1.6,0.1-2.3-0.2
			c-0.7-0.2-1.4-0.6-2-1.1C50.5,117.1,50,116.5,49.6,115.8L49.6,115.8z"/>
	</g>
</g>
</svg>
