<?xml version="1.0" encoding="utf-8"?>
<!-- Generator: Adobe Illustrator 15.1.0, SVG Export Plug-In . SVG Version: 6.00 Build 0)  -->
<!DOCTYPE svg PUBLIC "-//W3C//DTD SVG 1.1//EN" "http://www.w3.org/Graphics/SVG/1.1/DTD/svg11.dtd">
<svg version="1.1" id="Layer_1" xmlns="http://www.w3.org/2000/svg" xmlns:xlink="http://www.w3.org/1999/xlink" x="0px" y="0px"
	 width="115px" height="172px" viewBox="0 0 115 172" style="enable-background:new 0 0 115 172;" xml:space="preserve">
<style type="text/css">
<![CDATA[
	.st0{fill:#AA8561;}
	.st1{opacity:0.25;}
	.st2{opacity:0.27;}
	.st3{opacity:0.34;}
	.st4{opacity:0.37;}
	.st5{opacity:0.52;}
	.st6{fill:#F9D3AA;}
	.st7{fill:#C19F9F;}
	.st8{fill:#997858;}
	.st9{opacity:0.52;fill:#FF9999;}
	.st10{fill:#FF2424;}
	.st11{fill:#FFFFFF;}
	.st12{opacity:0.34;fill:#C19F9F;}
	.st13{opacity:0.47;fill:#FFA6A6;}
	.st14{fill:#3A1E03;}
	.st15{fill:#751717;}
	.st16{opacity:0.27;fill:#751717;}
]]>
</style>
<g>
	<g>
		<path class="st11" d="M43.6,108.7c0,0-5.2,0.1-14.6,6.3c-9.4,6.2-24.2,2.8-24.2,2.8s2.3,9.5,13.2,8.9c0,0-12.1,6.1,10.4,1.4
			c0,0-11.7,8.5,9,0.7c0,0-6.5,8,4.4-2.1"/>
		<path d="M43.6,108.7c-1.7,0.2-3.3,0.8-4.9,1.4c-1.6,0.6-3.1,1.4-4.6,2.2c-1.5,0.8-2.9,1.7-4.4,2.6c-1.4,1-3,1.8-4.6,2.4
			c-3.3,1.2-6.8,1.7-10.2,1.6c-3.4,0-6.9-0.4-10.2-1.1l0.2-0.2c0.4,1.4,1,2.6,1.9,3.8c0.8,1.1,1.8,2.2,3,2.9c2.4,1.6,5.3,2,8.1,1.8
			l1.8-0.2l-1.6,0.9c-0.7,0.3-1.3,0.7-1.9,1.2c-0.3,0.2-0.6,0.4-0.8,0.7c-0.1,0.1-0.2,0.2-0.2,0.3c0,0.1,0-0.1,0,0
			c0.1,0.1,0.5,0.2,0.9,0.2c0.4,0,0.7,0,1.1,0c0.7,0,1.5-0.1,2.2-0.2c3-0.4,6-1,9-1.6l2.3-0.5l-1.9,1.4c-0.6,0.4-1.2,0.9-1.7,1.4
			c-0.5,0.5-1.1,1-1.3,1.5c-0.1,0.1,0,0.2-0.1,0.1c0-0.1,0,0,0.1,0c0.2,0.1,0.6,0,0.9,0c0.7-0.1,1.4-0.2,2.1-0.4
			c2.9-0.7,5.7-1.7,8.5-2.7l1.3-0.4l-0.8,1c-0.6,0.7-1.2,1.5-1.7,2.3c-0.1,0.1-0.1,0.2-0.1,0.3l0,0.1c0,0,0,0,0-0.1
			c-0.1-0.1-0.1-0.1-0.1-0.1c0,0,0.1,0,0.2-0.1c0.1-0.1,0.2-0.1,0.3-0.2c0.4-0.3,0.8-0.5,1.2-0.8c1.5-1.2,3-2.5,4.5-3.7l0.1,0.1
			c-1.4,1.4-2.8,2.7-4.3,4c-0.4,0.3-0.8,0.6-1.2,0.9c-0.1,0.1-0.2,0.1-0.3,0.2c-0.1,0.1-0.2,0.1-0.5,0.2c-0.1,0-0.2,0-0.3-0.1
			c-0.1-0.1-0.1-0.2-0.1-0.3c0-0.1,0-0.2,0.1-0.3c0.1-0.1,0.1-0.3,0.2-0.4c0.5-0.9,1.1-1.7,1.7-2.5l0.4,0.6
			c-2.8,1.1-5.6,2.1-8.5,2.9c-0.7,0.2-1.5,0.4-2.3,0.4c-0.4,0-0.8,0.1-1.3,0c-0.2-0.1-0.6-0.2-0.8-0.6c-0.2-0.4,0-0.7,0.1-0.9
			c0.4-0.8,1-1.3,1.6-1.8c0.6-0.5,1.2-1,1.8-1.4l0.4,0.9c-3,0.6-6,1.2-9.1,1.5c-0.8,0.1-1.5,0.2-2.3,0.2c-0.4,0-0.8,0-1.2,0
			c-0.4-0.1-0.8,0-1.3-0.4c-0.1-0.1-0.3-0.3-0.3-0.5c0-0.2,0-0.4,0.1-0.5c0.1-0.3,0.3-0.4,0.4-0.6c0.3-0.3,0.6-0.5,1-0.8
			c0.7-0.4,1.3-0.8,2-1.2L18,127c-2.9,0.1-6-0.5-8.4-2.2c-2.4-1.7-4.1-4.2-5-7l-0.1-0.3l0.3,0.1c3.3,0.7,6.8,0.9,10.1,0.8
			c3.4-0.2,6.8-0.7,9.9-1.8c1.6-0.6,3-1.3,4.5-2.3c1.5-0.9,2.9-1.8,4.5-2.6C36.9,110.2,40.2,108.8,43.6,108.7L43.6,108.7z"/>
	</g>
	<path class="st12" d="M39,109.8c3.3,4.9-2.6,11.5-5.8,15.7c0-1.9,0-3.8,0-5.6c-3.1,3.1-6.9,7.5-12.5,6.9c0.6-1.9,3.1-2.5,3.1-4.4
		c-4.2,0-8.4,2.8-12.9,2.9c1.8,0.9,4.1,1.5,7.1,1.3c0,0-12.1,6.1,10.4,1.4c0,0-11.7,8.5,9,0.7c0,0-6.5,8,4.4-2.1l1.9-18
		C43.6,108.7,42,108.7,39,109.8z"/>
	<g>
		<g>
			<path class="st10" d="M66.5,133.6c0,0,8.6-16,10.2-33c1.6-17,22-31.9,29.6-15.5c0,0-11.3-7.6-14.6,7.8c-0.1,0.4-0.2,0.9-0.3,1.3
				c-3,17.1-13.9,48-25.7,44.9"/>
			<path d="M66.5,133.6c2.9-6,5.2-12.3,7-18.6c0.9-3.2,1.6-6.4,2.2-9.7c0.3-1.6,0.5-3.3,0.7-4.9c0.2-1.7,0.6-3.3,1.1-5
				c1.1-3.2,2.7-6.2,4.8-8.8c2.1-2.6,4.6-4.9,7.5-6.6c1.5-0.8,3-1.5,4.7-1.8c1.6-0.3,3.4-0.4,5,0.1c1.6,0.5,3.1,1.4,4.3,2.6
				c1.2,1.2,2.1,2.7,2.9,4.2l0.4,0.9l-0.8-0.5c-1.3-0.8-2.8-1.4-4.3-1.7c-1.5-0.3-3.1-0.1-4.5,0.6c-1.4,0.7-2.4,1.8-3.2,3.2
				c-0.8,1.3-1.3,2.8-1.7,4.3c-0.4,1.5-0.6,3.1-0.9,4.7c-0.3,1.6-0.7,3.2-1,4.7c-0.8,3.1-1.7,6.2-2.6,9.3c-2,6.1-4.4,12.1-7.6,17.7
				c-1.6,2.8-3.4,5.5-5.8,7.8c-1.2,1.1-2.5,2.1-4,2.8c-1.5,0.7-3.2,0.8-4.8,0.4l0-0.1c1.6,0.4,3.2,0.1,4.6-0.6
				c1.4-0.7,2.6-1.7,3.8-2.8c2.2-2.3,3.9-5,5.5-7.8c3-5.6,5.3-11.6,7.3-17.7c1-3,1.8-6.1,2.6-9.2c0.4-1.5,0.7-3.1,1.1-4.7
				c0.3-1.5,0.5-3.2,1-4.7c0.4-1.6,1-3.1,1.9-4.6c0.9-1.4,2.1-2.7,3.6-3.4c1.5-0.7,3.3-0.8,4.9-0.5c1.6,0.3,3.2,1,4.6,1.8l-0.4,0.4
				c-0.7-1.5-1.5-2.9-2.7-4.1c-1.1-1.2-2.5-2.1-4.1-2.6c-3.2-0.9-6.6,0-9.4,1.6c-2.9,1.7-5.3,4-7.3,6.6c-2,2.6-3.5,5.6-4.4,8.8
				c-0.5,1.6-0.8,3.2-1,4.8c-0.2,1.7-0.4,3.3-0.6,5c-0.6,3.3-1.4,6.6-2.3,9.8C72.3,121.6,69.7,127.8,66.5,133.6L66.5,133.6z"/>
		</g>
		<g>
			<path class="st10" d="M63.3,126.7c0,0,10.6-7,16.8-19.2c6.2-12.2,24.5-10.7,24.7,7c0,0-5.3-13.2-12.2-3.4
				c-0.2,0.3-0.4,0.6-0.6,0.9c-7.2,11.5-23.9,28.5-30.9,18.5"/>
			<path d="M63.2,126.7c4.2-3.2,7.9-6.9,11.1-11c1.6-2,3.1-4.2,4.3-6.5c0.7-1.1,1.2-2.3,1.9-3.5c0.7-1.1,1.6-2.2,2.6-3
				c2-1.8,4.6-2.9,7.2-3.3c2.6-0.3,5.4,0.1,7.7,1.5c2.3,1.3,4.1,3.4,5.2,5.8c1.1,2.4,1.6,5.1,1.7,7.7l0.1,1.6l-0.6-1.4
				c-0.5-1.1-1.1-2.2-1.8-3.1c-0.7-1-1.5-1.9-2.4-2.6c-0.9-0.7-2-1.1-3.1-0.9c-1.1,0.2-2.1,0.9-2.9,1.7c-0.8,0.8-1.5,1.8-2.1,2.9
				c-0.7,1.1-1.3,2.1-2.1,3.1c-1.4,2-3,3.9-4.6,5.8c-3.3,3.7-6.9,7.1-11.1,9.8c-2.1,1.3-4.5,2.3-7,2.6c-1.3,0.1-2.6-0.1-3.7-0.7
				c-1.1-0.6-2-1.5-2.7-2.5l0.1-0.1c0.7,1,1.7,1.8,2.8,2.3c1.1,0.5,2.3,0.6,3.5,0.5c2.4-0.3,4.6-1.4,6.6-2.7
				c4.1-2.7,7.5-6.2,10.8-9.8c1.6-1.8,3.1-3.8,4.5-5.7c0.7-1,1.4-2,2.1-3c0.7-1.1,1.4-2.1,2.3-3c0.9-0.9,2-1.7,3.4-1.9
				c1.4-0.2,2.8,0.3,3.8,1.1c2,1.6,3.3,3.9,4.2,6.2l-0.6,0.1c0-2.6-0.4-5.2-1.4-7.6c-1-2.4-2.8-4.5-5-5.7c-2.3-1.3-5-1.7-7.5-1.2
				c-2.5,0.4-4.9,1.6-6.8,3.4c-0.9,0.9-1.8,1.8-2.5,2.9c-0.7,1-1.2,2.3-1.9,3.4c-1.3,2.3-2.8,4.5-4.5,6.5
				C71.6,120.3,67.7,123.9,63.2,126.7L63.2,126.7z"/>
		</g>
		<g>
			<path class="st10" d="M65.3,136.1c0,0,10.7-13,15-29.4c4.3-16.4,26-24,30.4-5c0,0-9.4-11.6-15.1,2.6c-0.2,0.4-0.3,0.8-0.5,1.2
				c-5.6,16.1-21,43-31.6,35.8"/>
			<path d="M65.3,136.1c3.8-5.2,7.1-10.7,9.9-16.5c1.4-2.9,2.6-5.9,3.6-8.9c0.5-1.5,1-3,1.4-4.6c0.5-1.6,1.1-3.1,1.9-4.5
				c1.6-2.9,3.8-5.4,6.4-7.3c2.6-1.9,5.7-3.4,8.9-3.7c1.6-0.2,3.3-0.1,4.9,0.4c1.6,0.4,3,1.3,4.3,2.4c2.5,2.2,3.9,5.3,4.7,8.5
				l0.3,1.2l-0.8-0.9c-1-1.1-2.1-2.1-3.4-2.9c-1.3-0.8-2.7-1.4-4.1-1.3c-1.4,0-2.8,0.7-3.8,1.7c-1,1-1.8,2.3-2.5,3.6
				c-0.7,1.3-1.1,2.8-1.6,4.2c-0.5,1.4-1.1,2.9-1.7,4.3c-1.2,2.8-2.5,5.6-4,8.3c-2.8,5.4-6.1,10.7-10.2,15.3c-2,2.3-4.3,4.5-7,6.1
				c-1.3,0.8-2.8,1.3-4.4,1.4c-1.6,0.1-3.1-0.4-4.4-1.3l0.1-0.1c1.3,0.8,2.8,1.2,4.3,1.1c1.5-0.1,2.9-0.8,4.2-1.5
				c2.6-1.6,4.7-3.8,6.7-6.1c3.9-4.7,7-10,9.8-15.3c1.4-2.7,2.7-5.5,3.9-8.3c0.6-1.4,1.2-2.8,1.7-4.2c0.5-1.4,1-2.9,1.7-4.3
				c0.7-1.4,1.5-2.8,2.7-3.9c1.1-1.1,2.8-1.9,4.4-1.9c1.7,0,3.2,0.7,4.5,1.6c1.3,0.9,2.5,1.9,3.5,3.1l-0.5,0.3
				c-0.7-3.1-2-6.2-4.3-8.3c-2.3-2.2-5.7-3.1-8.8-2.7c-3.2,0.4-6.2,1.8-8.6,3.8c-2.5,2-4.5,4.5-6,7.3c-0.7,1.4-1.3,2.9-1.8,4.4
				c-0.4,1.5-0.8,3.1-1.4,4.7c-1,3.1-2.3,6.1-3.7,9C73,125.7,69.5,131.2,65.3,136.1L65.3,136.1z"/>
		</g>
		<g>
			<path class="st10" d="M66.3,137.4c0,0,10.3-6.5,16.3-18.1c6.1-11.7,23.8-9.6,23.9,7.5c0,0-5.1-13-11.9-3.6
				c-0.2,0.3-0.4,0.5-0.5,0.8c-7,10.9-23.2,27-30,17"/>
			<path d="M66.3,137.3c4.1-3,7.7-6.5,10.9-10.4c1.6-2,3-4,4.2-6.2c0.6-1.1,1.2-2.2,1.9-3.3c0.8-1.1,1.6-2,2.6-2.9
				c2-1.6,4.5-2.6,7.1-2.8c2.6-0.2,5.2,0.4,7.4,1.8c2.2,1.4,3.9,3.4,4.9,5.8c1.1,2.3,1.5,4.9,1.6,7.5l0,1.6l-0.6-1.5
				c-0.5-1.1-1-2.1-1.7-3c-0.6-1-1.4-1.9-2.3-2.6c-0.9-0.7-1.9-1.2-2.9-1.1c-1,0.1-2,0.7-2.8,1.5c-0.8,0.8-1.5,1.7-2.1,2.7
				c-0.6,1-1.3,2-2,3c-1.4,1.9-2.9,3.8-4.5,5.5c-3.2,3.5-6.8,6.8-10.9,9.2c-2.1,1.2-4.4,2.1-6.8,2.2c-1.2,0-2.5-0.2-3.5-0.8
				c-1.1-0.6-1.9-1.5-2.6-2.5l0.1-0.1c0.7,0.9,1.6,1.8,2.6,2.3c1,0.5,2.2,0.7,3.4,0.6c2.3-0.2,4.5-1.2,6.5-2.4
				c4-2.5,7.4-5.8,10.6-9.2c1.6-1.7,3.1-3.6,4.4-5.5c0.7-0.9,1.4-1.9,2-2.9c0.7-1,1.4-2,2.3-2.9c0.9-0.8,2-1.6,3.4-1.7
				c1.4-0.1,2.6,0.5,3.6,1.3c1.9,1.7,3.1,3.8,4,6l-0.6,0.1c0-2.5-0.3-5-1.3-7.3c-1-2.3-2.6-4.4-4.7-5.7c-2.1-1.3-4.7-1.9-7.2-1.6
				c-2.5,0.3-4.8,1.3-6.7,2.9c-0.9,0.8-1.8,1.7-2.5,2.7c-0.7,1-1.2,2.2-1.9,3.3c-1.3,2.2-2.8,4.3-4.4,6.3
				C74.5,131.3,70.7,134.8,66.3,137.3L66.3,137.3z"/>
		</g>
		<g>
			<path class="st10" d="M64.7,134.5c0,0,5.2-14.6,4.5-28.3c-0.7-13.6,14.5-30.4,22.8-19.7c0,0-10.3-3-11.3,9.8c0,0.3,0,0.7-0.1,1.1
				c-0.4,14.1-5.8,40.9-16,41.5"/>
			<path d="M64.7,134.5c1.6-5.4,2.8-10.8,3.5-16.3c0.4-2.8,0.6-5.5,0.6-8.3c0-1.4,0-2.8-0.1-4.2c0-1.4,0.1-2.9,0.4-4.3
				c1.2-5.6,4.1-10.7,8.2-14.5c2.1-1.9,4.5-3.5,7.4-3.9c1.4-0.2,2.9,0,4.2,0.7c1.3,0.6,2.4,1.6,3.3,2.7l0.5,0.6L92,86.8
				c-2.5-0.6-5.4-0.2-7.4,1.4c-2,1.7-2.9,4.4-3.2,7c-0.2,1.3-0.1,2.7-0.2,4.1c-0.1,1.4-0.2,2.7-0.3,4.1c-0.3,2.7-0.7,5.4-1.1,8.1
				c-1,5.4-2.3,10.7-4.4,15.8c-1,2.5-2.3,5-3.9,7.3c-0.8,1.1-1.8,2.1-2.9,3c-1.1,0.8-2.5,1.4-3.8,1.4l0-0.1c1.4-0.1,2.6-0.7,3.7-1.6
				c1-0.8,1.9-1.9,2.7-3c1.5-2.2,2.6-4.7,3.6-7.2c1.9-5.1,3.1-10.4,4.1-15.7c0.5-2.7,0.8-5.4,1.1-8.1c0.1-1.3,0.3-2.7,0.3-4.1
				c0.1-1.3,0.1-2.7,0.3-4.1c0.2-1.4,0.5-2.8,1.1-4.1c0.6-1.3,1.4-2.5,2.5-3.4c1.1-0.9,2.5-1.5,3.9-1.6c1.4-0.2,2.8-0.1,4.2,0.3
				l-0.3,0.5c-0.8-1.1-1.8-2.1-3-2.7c-1.2-0.6-2.6-0.9-4-0.7c-2.7,0.3-5.2,1.9-7.2,3.8c-2,1.9-3.7,4.2-5,6.6
				c-1.3,2.5-2.2,5.1-2.7,7.8c-0.2,1.3-0.4,2.7-0.3,4.1c0.1,1.4,0.1,2.8,0.1,4.2c-0.1,2.8-0.3,5.6-0.8,8.4
				C68.1,123.8,66.7,129.3,64.7,134.5L64.7,134.5z"/>
		</g>
	</g>
	<g>
		<path class="st6" d="M84.2,90.1c-0.5-5.2-0.9-4.8-0.8-7.3c0.5-15.8-14.1-24-32.6-25c-18.5-1-31.9,2-34.4,20.3
			c-0.4,2.9,0.9,6,0.7,8.6c-0.2,2.6-1.4,4.4-1.6,6.6c-0.4,7.4,7.6,12.2,34.4,13.7c26.9,1.5,34.5-2.5,34.9-9.9
			C85.2,94.4,84.7,95.2,84.2,90.1z"/>
		<g>
			<path d="M84.2,90.1c-0.1-1-0.2-2.1-0.4-3.1c-0.1-1-0.4-2.1-0.4-3.1c0-2.1,0-4.2-0.5-6.2c-0.9-4.1-3.1-7.8-6.2-10.5
				c-3.1-2.7-6.8-4.7-10.7-6c-3.9-1.3-8-2.2-12.2-2.6c-4.1-0.4-8.3-0.6-12.5-0.4c-4.2,0.2-8.4,0.7-12.2,2.3
				c-1.9,0.8-3.8,1.8-5.3,3.2c-1.6,1.3-2.9,3-3.9,4.8C18.8,70,18,72,17.5,74c-0.3,1-0.5,2-0.6,3.1c-0.2,1-0.3,2-0.2,3.1
				c0.2,2,0.8,4.1,0.8,6.2c0,1.1-0.2,2.2-0.5,3.2c-0.3,1-0.7,2-0.9,3c-0.3,2,0.1,4.1,1.3,5.6c1.2,1.6,3,2.7,4.8,3.6
				c3.7,1.7,7.9,2.5,12,3.2c4.1,0.6,8.3,1.1,12.4,1.4c4.2,0.3,8.3,0.5,12.5,0.6c4.2,0.1,8.3,0,12.5-0.5c2.1-0.3,4.1-0.6,6.1-1.3
				c2-0.6,3.9-1.6,5.3-3.1c1.4-1.5,2-3.7,2-5.7c0-1-0.3-2.1-0.4-3.1C84.4,92.2,84.3,91.1,84.2,90.1z M84.3,90.1
				c0.1,1,0.2,2.1,0.4,3.1c0.2,1,0.5,2,0.5,3.1c0,1-0.1,2.1-0.4,3.1c-0.3,1-0.8,2-1.5,2.8c-1.4,1.6-3.4,2.6-5.3,3.3
				c-2,0.7-4.1,1.1-6.1,1.5c-4.2,0.6-8.4,0.8-12.6,0.8c-4.2,0-8.4-0.2-12.6-0.5c-4.2-0.3-8.4-0.7-12.5-1.4
				c-4.1-0.7-8.3-1.6-12.2-3.4c-1.9-0.9-3.8-2.1-5.1-3.9c-1.3-1.8-1.8-4.1-1.3-6.3c0.2-1.1,0.6-2.1,0.9-3c0.3-1,0.5-2,0.6-3
				c0-2-0.6-4.1-0.7-6.2c0-0.5,0-1.1,0-1.6c0-0.5,0.1-1.1,0.2-1.6c0.2-1,0.4-2.1,0.7-3.1c0.6-2,1.3-4,2.4-5.8
				c2.1-3.7,5.5-6.5,9.4-8.1c3.9-1.6,8.1-2.2,12.3-2.5c4.2-0.2,8.4-0.2,12.6,0.2c4.2,0.4,8.4,1.2,12.4,2.6c4,1.4,7.8,3.4,10.9,6.4
				c3.1,2.9,5.3,6.8,6,10.9c0.2,1,0.3,2.1,0.4,3.1c0.1,1,0,2.1,0,3.1c0,1,0.3,2.1,0.4,3.1C84,88,84.2,89,84.3,90.1z"/>
		</g>
	</g>
	<g class="st4">
		<path class="st8" d="M84.2,90.1c-0.5-5.2-0.9-4.8-0.8-7.3c0.1-3.7-0.6-7-2-9.9c3,10.4,2.6,22.3-5.9,28.6c-2.9,2.1-5.7,4.1-8.7,5.6
			c13.5-0.8,17.8-4.5,18.1-10C85.2,94.4,84.7,95.2,84.2,90.1z"/>
		<path class="st8" d="M21,94.7c-2.1-7.8-4.1-17.7-1.1-27c-1.7,2.8-2.9,6.2-3.5,10.5c-0.4,2.9,0.9,6,0.7,8.6
			c-0.2,2.6-1.4,4.4-1.6,6.6c-0.3,4.7,3,8.4,12.4,10.8C24.4,101.9,21.7,99,21,94.7z"/>
		<path class="st8" d="M70.6,71.2l0.5,1.6l1.3-1.5l1.1,1.6l1.4-1.5l1,1.6l1.7-1.6l1.5,1.3l3.9-4c0,0-1.8-22.2-31.6-23.8
			c-0.2,0-0.3,0-0.5,0c0,0-31.4,14.1-30.7,21.2l3.7,3.4l0.2-4.1l1.4,1.5l1.5-3c0,0,0.7,3.8,3.4,5.1l0.1-3.4l2.6,4.8l0.2-0.5
			c2.9,5.2,9.5,9,17.3,9.5c7.3,0.4,13.9-2.3,17.5-6.6l0.1,0.6L70.6,71.2z M42.9,68.6l1.5,1c-0.8-0.2-1.6-0.4-2.4-0.6L42.9,68.6z
			 M48.8,70.2l2.2-0.8l0.5,0.8C50.6,70.2,49.7,70.2,48.8,70.2z"/>
	</g>
	<g>
		<path class="st14" d="M27,62.9c0,0,0.7,3.8,3.4,5.1l0.1-3.4l2.6,4.8l0.9-2.2l5.3,2.2l3.7-1.7l3.6,2.3l4.5-1.5l2.2,3.7l4.1-2.8
			l3,0.3l-0.1,1.6l2.6-2.5l1.5,2.7l3.3-2.1l0.5,3l2.5-2.1l0.5,1.6l1.3-1.5l1.1,1.6l1.4-1.5l1,1.6l1.7-1.6l1.5,1.3l3.9-4
			c0,0-1.8-22.2-31.6-23.8c-29.8-1.6-0.5,0-0.5,0S19.6,58.1,20.3,65.1l3.7,3.4l0.2-4.1l1.4,1.5L27,62.9z"/>
		<path d="M27,62.9c0.3,1,0.7,2,1.2,2.9c0.6,0.9,1.3,1.6,2.2,2.1L30.2,68l0.1-3.4l0-0.9l0.4,0.8l2.6,4.8l-0.5,0l0.9-2.2l0.1-0.3
			l0.3,0.1l5.3,2.2l-0.3,0l3.7-1.7l0.2-0.1l0.2,0.1l3.6,2.3l-0.4,0l4.5-1.5l0.3-0.1l0.2,0.3l2.2,3.7L53,71.8l4.1-2.8l0.1-0.1l0.2,0
			l3,0.3l0.4,0l0,0.4l-0.1,1.6L60,70.9l2.6-2.4l0.4-0.3l0.2,0.4l1.4,2.7l-0.5-0.1l3.3-2l0.4-0.2l0.1,0.5l0.5,3L68,72.1l2.6-2.1
			l0.3-0.2l0.1,0.4l0.4,1.6L71,71.6l1.3-1.5l0.2-0.2l0.1,0.2l1.1,1.6l-0.3,0l1.4-1.5l0.2-0.2l0.1,0.2l1,1.6l-0.3,0l1.7-1.6l0.1-0.1
			l0.1,0.1l1.5,1.3l-0.2,0l3.9-4l0,0.1c-0.8-5.7-3.8-11-8-14.9c-4.2-3.9-9.7-6.3-15.3-7.4c-2.8-0.6-5.7-0.9-8.5-1.1L42.5,44
			l-4.3-0.2l-0.1,0l0,0c0.1-2.1,0-0.6,0.1-1l0,0l0.1,0l0.3,0l0.5,0l1.1,0.1l2.2,0.1l8.7,0.5l2.1,0.1l-1.9,0.9
			c-2.9,1.3-5.7,2.7-8.6,4.1C39.8,50,37,51.5,34.2,53c-2.7,1.6-5.5,3.2-8,5.1c-1.3,0.9-2.5,1.9-3.6,3.1c-0.5,0.6-1,1.2-1.4,1.8
			c-0.4,0.6-0.7,1.4-0.6,2.1l-0.1-0.2l3.6,3.4l-0.4,0.2l0.3-4.1l0-0.4l0.3,0.3l1.4,1.5l-0.2,0l1.6-3.1L27,62.9z M27,63L25.6,66
			l-0.1,0.2L25.4,66L24,64.5l0.3-0.1l-0.1,4.1l0,0.5l-0.4-0.3l-3.7-3.4L20,65.3l0-0.1c-0.1-0.9,0.3-1.7,0.7-2.4
			c0.4-0.7,0.9-1.3,1.5-1.9c1.1-1.2,2.3-2.2,3.6-3.2c2.5-1.9,5.2-3.7,8-5.3c2.7-1.6,5.5-3.2,8.4-4.6c2.8-1.5,5.7-2.9,8.6-4.2l0.2,1
			L42.3,44l-2.2-0.1L39,43.8l-0.5,0l-0.3,0l-0.1,0l0,0c0-0.5-0.1,1,0-1c0,0,0,0,0,0l0.1,0l4.3,0.3l8.7,0.5c2.9,0.2,5.8,0.5,8.7,1.2
			c5.7,1.3,11.2,3.8,15.4,7.8c2.1,2,3.9,4.4,5.2,7c1.3,2.6,2.3,5.4,2.7,8.3l0,0.1l-0.1,0.1l-3.9,4L79.1,72L79,71.9l-1.6-1.3l0.2,0
			l-1.6,1.6l-0.2,0.1l-0.1-0.2l-1-1.6l0.3,0L73.7,72l-0.2,0.2L73.4,72l-1.1-1.6l0.3,0l-1.3,1.5L71,72.2l-0.1-0.4l-0.5-1.6l0.4,0.1
			l-2.5,2.1l-0.4,0.3l-0.1-0.5l-0.6-3l0.5,0.2l-3.3,2.1l-0.3,0.2L64,71.6l-1.5-2.7l0.6,0.1l-2.6,2.5l-0.8,0.7l0.1-1.1l0.1-1.6
			l0.4,0.4l-3-0.2l0.3-0.1l-4.1,2.8l-0.4,0.3l-0.2-0.4l-2.2-3.7l0.5,0.2l-4.5,1.5l-0.2,0.1l-0.2-0.1L42.7,68l0.4,0l-3.7,1.7
			l-0.2,0.1l-0.2-0.1l-5.2-2.3l0.4-0.2l-1,2.2l-0.3,0.6l-0.3-0.6l-2.5-4.8l0.5-0.1L30.6,68l0,0.3l-0.3-0.1c-1-0.5-1.7-1.4-2.2-2.3
			C27.5,65,27.2,64,27,63z"/>
	</g>
	<g>
		<path class="st10" d="M31.6,62.9c0,8,8.3,14.8,18.9,15.4c10.9,0.6,20.1-5.6,20.5-13.9c0-0.6,0-1.2,0-1.8
			C59.7,71,43.8,71.9,31.6,62.9z"/>
		<path d="M31.7,63c0.1,2.3,0.9,4.5,2.2,6.3c1.3,1.9,3,3.5,4.9,4.7c3.8,2.5,8.4,3.7,13,3.9c4.6,0.2,9.3-0.9,13.1-3.7
			c1.9-1.3,3.5-3.1,4.5-5.1c1-2,1.4-4.3,1.2-6.6l0.6,0.3c-2.8,2.2-6,3.9-9.4,5c-3.4,1.2-6.9,1.8-10.5,1.8c-3.6,0-7.1-0.6-10.5-1.7
			C37.5,66.9,34.4,65.2,31.7,63z M31.7,62.9c2.9,2,6.1,3.5,9.4,4.5c3.3,1,6.8,1.4,10.3,1.4c3.5,0,6.9-0.7,10.2-1.8
			c3.3-1.1,6.4-2.7,9.2-4.7l0.6-0.4l0.1,0.7c0.2,2.4-0.3,4.9-1.5,6.9c-1.2,2.1-2.9,3.8-4.8,5.2c-3.9,2.7-8.6,4-13.3,4.1
			c-4.7,0.1-9.5-1.2-13.5-3.9c-2-1.3-3.7-3.1-4.9-5.1C32.2,67.7,31.5,65.3,31.7,62.9L31.7,62.9L31.7,62.9z"/>
	</g>
	<g>
		<path class="st10" d="M52.2,46.8c-11.7-0.6-21.6,6.1-22.1,14.9c0,0.2,0,0.5,0,0.7C43.3,72,60.4,71,72.5,62
			C71.6,54,63.1,47.4,52.2,46.8z"/>
		<path d="M52.2,46.8c-2.5-0.1-5,0.1-7.5,0.7c-2.4,0.6-4.7,1.6-6.8,3c-2.1,1.3-3.9,3-5.3,5.1c-1.3,2-2.2,4.4-2.2,6.9l-0.1-0.3
			c1.5,1.1,3.1,2.2,4.7,3.1c1.7,0.9,3.4,1.6,5.2,2.2c3.6,1.1,7.4,1.6,11.1,1.5c3.7-0.1,7.5-0.8,11-2.1c3.5-1.2,6.8-3,9.8-5.2
			L72,62.1c-0.2-2.2-1.1-4.3-2.3-6.1c-1.2-1.9-2.9-3.4-4.7-4.8c-1.8-1.3-3.9-2.4-6-3.1C56.8,47.4,54.5,47,52.2,46.8z M52.3,46.7
			c2.3,0.1,4.6,0.5,6.8,1.1c2.2,0.6,4.4,1.6,6.3,2.8c2,1.2,3.7,2.9,5.1,4.8c1.3,1.9,2.3,4.2,2.5,6.6l0,0.3l-0.2,0.2
			c-3.1,2.3-6.5,4.1-10.2,5.3c-3.6,1.2-7.5,1.8-11.3,1.8c-3.8,0-7.6-0.6-11.2-1.8c-1.8-0.6-3.6-1.3-5.3-2.1
			c-1.7-0.8-3.4-1.8-4.9-2.9l-0.1-0.1l0-0.2c-0.1-2.6,0.7-5.2,2.1-7.4c1.4-2.2,3.4-3.9,5.6-5.2c2.2-1.3,4.7-2.1,7.1-2.6
			C47.2,46.7,49.7,46.5,52.3,46.7z"/>
	</g>
	<path class="st16" d="M71,62.6c-10.1,7.5-24,9-35.5,2.8c6.6,7.2,17.1,9.1,27,6.1c-3.2,3.5-7.5,5.8-12.1,6.9c0,0,0.1,0,0.1,0
		c10.9,0.6,20.1-5.6,20.5-13.9C71.1,63.8,71,63.2,71,62.6z"/>
	<g>
		<path class="st11" d="M25.8,34.1C25.8,34,25.8,34,25.8,34.1L25.8,34.1z"/>
		<path d="M25.8,34.1L25.8,34.1c-0.4,0-0.5,0-0.4,0c0.1,0,0.2,0,0.2,0c0,0,0,0,0,0c0,0,0,0,0,0c0,0.1,0.1,0.2,0.2,0.2
			c0,0,0.1,0,0.2-0.1c0.1-0.1,0.1-0.2,0.1-0.2l0.1,0c0,0,0.1,0,0.1,0c0,0,0.1,0,0.1,0C26.3,34,26.2,34.1,25.8,34.1L25.8,34.1z
			 M25.8,34.2c-0.3,0-0.4,0-0.5,0c0,0,0,0,0.1-0.1c0,0,0,0,0.1,0l0.1,0c0-0.1,0-0.2,0.1-0.2s0.2-0.1,0.2-0.1c0.1,0,0.2,0.1,0.2,0.2
			c0,0,0,0,0,0c0,0,0,0,0,0c0,0,0.2,0,0.3,0C26.3,34.1,26.2,34.1,25.8,34.2L25.8,34.2L25.8,34.2z"/>
	</g>
	<g>
		<path class="st11" d="M82.4,36.4c0,0-7.8-6.9-28.3-8c-19.1-1-28.2,6.2-28.3,5.7C7.1,43.8,4.2,60.3,6,74.7
			c2.4,19.7,8.9,29.5,30.2,33.2c0,0,0,0,0,0l0,0l5.7,0.6c0.2,0.2,0.5,0.4,0.5,0.4s-5,16.7-9.8,27.8c-4.8,11.1,2.1,24.7,2.1,24.7
			s6.5,21.1,7.7-3.3c0,0,11.9,3.2,21.9,0c0,0-1.5,24.7,7.7,0c0,0,6.1-12.3-1.5-27.8c-5.7-11.6-7.8-18.7-8.5-21.5l9.7,0.1
			c16.7-2.9,22.8-12.2,26.5-29.3C101.5,64.7,100.4,48.9,82.4,36.4z M84.7,96.7c-0.4,7.3-7.9,11.1-34.3,9.7
			c-26.4-1.4-34.2-6.2-33.8-13.4c0.1-2.2,1.4-3.9,1.5-6.5c0.2-2.6-1.1-5.6-0.7-8.5c1.4-9.9,5.9-15.2,12.7-17.8
			c2.2,2,6.4,3.5,11.2,3.8c3.7,0.2,7.1-0.4,9.6-1.4c2.4,1.3,5.7,2.3,9.4,2.5c4.3,0.2,8.2-0.6,10.7-2c7.6,4,12.4,10.5,12.1,19.6
			c-0.1,2.4,0.2,2.1,0.8,7.1C84.5,94.8,84.9,94,84.7,96.7z"/>
		<g>
			<path d="M82.4,36.5c-1.9-1.5-4.2-2.6-6.4-3.5c-2.3-0.9-4.6-1.7-7-2.3c-4.8-1.2-9.7-1.8-14.6-2.1c-4.9-0.3-9.8,0-14.7,0.9
				c-2.4,0.5-4.8,1.1-7.1,1.9c-1.1,0.4-2.3,0.9-3.4,1.4c-0.6,0.3-1.1,0.5-1.6,0.8l-0.8,0.4l-0.4,0.2l-0.2,0.1c0,0-0.1,0-0.1,0.1
				c0,0-0.1,0-0.1,0c0,0-0.4,0-0.4-0.3l0.5,0.3c-3.6,1.9-6.9,4.2-9.8,7c-2.9,2.8-5.2,6.2-6.9,9.8C7.6,55,6.6,59,6.2,63
				c-0.4,4-0.3,8.1,0.2,12.1c0.5,4,1.2,8,2.4,11.9c1.2,3.8,3.1,7.5,5.8,10.5c2.7,3,6.2,5.3,9.9,6.8c3.7,1.6,7.7,2.6,11.7,3.3l0,0
				l5.7,0.6l0.1,0l0.1,0.1c0.1,0.1,0.3,0.2,0.4,0.3l0.2,0.1l-0.1,0.2c-1.3,4.4-2.8,8.7-4.3,13.1c-1.5,4.3-3,8.6-4.8,12.9
				c-0.4,1.1-0.9,2.1-1.3,3.2c-0.4,1.1-0.6,2.2-0.8,3.3c-0.4,2.2-0.4,4.5-0.2,6.8c0.4,4.5,1.7,9,3.7,13.1l0,0l0,0
				c0.6,1.8,1.2,3.6,2.1,5.2c0.4,0.8,0.9,1.7,1.4,2.3c0.3,0.3,0.6,0.6,1,0.7c0.3,0.1,0.6-0.2,0.8-0.6c0.5-0.7,0.7-1.7,0.9-2.6
				c0.2-0.9,0.3-1.8,0.5-2.8c0.2-1.9,0.4-3.7,0.4-5.6l0-0.4l0.4,0.1c1.8,0.4,3.6,0.7,5.4,1c1.8,0.2,3.7,0.4,5.5,0.4
				c3.7,0,7.3-0.3,10.8-1.4l0.6-0.2l0,0.6c-0.1,2-0.1,4,0,6c0.1,1,0.2,2,0.4,2.9c0.1,0.5,0.3,0.9,0.5,1.3c0.3,0.3,0.3,0.3,0.7,0.1
				c0.7-0.5,1.2-1.4,1.7-2.2c0.5-0.9,0.9-1.8,1.3-2.7c0.8-1.8,1.6-3.7,2.3-5.6v0l0,0c1.6-3.8,2.3-8.2,2.2-12.4
				c-0.1-4.3-1-8.5-2.6-12.4c-0.8-2-1.8-3.9-2.7-5.9c-0.9-2-1.8-3.9-2.6-6c-1.7-4-3.2-8.1-4.3-12.3l-0.2-0.6l0.7,0l9.7,0.1l-0.1,0
				c3.7-0.7,7.4-1.7,10.8-3.4c3.3-1.7,6.3-4.3,8.5-7.3c2.2-3.1,3.8-6.6,5-10.2c1.2-3.6,2.1-7.3,2.8-11.1c0.7-3.8,1-7.6,0.8-11.4
				c-0.2-3.8-1-7.6-2.4-11.1c-1.4-3.5-3.5-6.8-6-9.7C88.4,41.2,85.5,38.7,82.4,36.5L82.4,36.5L82.4,36.5z M82.4,36.4L82.4,36.4
				c3.2,2.2,6.1,4.7,8.7,7.6c2.5,2.9,4.7,6.1,6.1,9.7c1.5,3.5,2.3,7.4,2.6,11.2c0.3,3.8,0,7.7-0.6,11.5c-0.6,3.8-1.5,7.5-2.7,11.2
				c-1.2,3.7-2.7,7.3-5,10.4c-2.2,3.2-5.2,5.9-8.7,7.7c-3.4,1.8-7.2,3-11,3.6l0,0h0l-9.7-0.1l0.5-0.6c1.1,4.1,2.6,8.2,4.2,12.2
				c0.8,2,1.7,4,2.6,5.9c0.9,2,1.9,3.9,2.7,5.9c1.7,4.1,2.6,8.4,2.7,12.8c0.1,4.4-0.6,8.8-2.4,12.9l0,0c-0.7,1.9-1.5,3.8-2.3,5.7
				c-0.4,0.9-0.9,1.9-1.4,2.8c-0.5,0.9-1,1.8-2,2.5c-0.3,0.2-0.6,0.3-1.1,0.3c-0.4-0.1-0.7-0.4-0.9-0.6c-0.3-0.5-0.5-1.1-0.6-1.6
				c-0.2-1-0.3-2.1-0.4-3.1c-0.1-2.1-0.1-4.1,0-6.1l0.6,0.5c-3.6,1.1-7.4,1.4-11.1,1.4c-1.9,0-3.7-0.2-5.6-0.4
				c-1.8-0.2-3.7-0.6-5.5-1l0.4-0.3c-0.1,1.9-0.3,3.8-0.5,5.7c-0.1,0.9-0.3,1.9-0.5,2.8c-0.2,0.9-0.5,1.9-1,2.8
				c-0.1,0.2-0.3,0.4-0.6,0.6c-0.2,0.2-0.6,0.3-0.9,0.2c-0.6-0.1-1-0.5-1.3-0.9c-0.6-0.8-1.1-1.6-1.5-2.5c-0.8-1.7-1.5-3.5-2.1-5.3
				l0,0c-2-4.2-3.2-8.7-3.7-13.3c-0.2-2.3-0.2-4.6,0.2-6.9c0.2-1.1,0.5-2.3,0.9-3.4c0.4-1.1,0.9-2.1,1.3-3.2
				c3.5-8.5,6.4-17.2,9-25.9l0.1,0.2c-0.2-0.1-0.5-0.2-0.6-0.4l0.1,0.1l-5.7-0.6l0,0l0,0c-4-0.7-8-1.7-11.8-3.2
				c-3.8-1.6-7.4-3.8-10.1-6.9c-2.8-3.1-4.7-6.8-6-10.7c-1.3-3.9-2-8-2.5-12C5.1,71.1,5,67,5.4,62.9c0.4-4.1,1.4-8.2,3.1-11.9
				c1.7-3.8,4.2-7.2,7.1-10.1c3-2.9,6.4-5.2,10.1-7.1l0.5-0.2l0,0.5c0-0.3-0.4-0.3-0.3-0.3c0,0,0,0,0,0l0.1,0l0.2-0.1l0.4-0.2
				l0.8-0.4c0.6-0.3,1.1-0.5,1.7-0.8c1.1-0.5,2.3-1,3.5-1.4c2.3-0.8,4.7-1.4,7.2-1.9c4.9-0.9,9.8-1.1,14.8-0.7
				c4.9,0.3,9.8,1,14.6,2.2c2.4,0.6,4.7,1.4,7,2.3C78.3,33.8,80.5,34.8,82.4,36.4z"/>
			<path d="M84.8,96.7c-0.1,1.2-0.3,2.4-0.9,3.5c-0.6,1.1-1.4,2-2.4,2.7c-2,1.4-4.4,2.2-6.8,2.7c-4.8,1.1-9.7,1.3-14.6,1.4
				c-4.9,0-9.7-0.2-14.6-0.6c-4.9-0.4-9.7-1-14.5-2c-2.4-0.5-4.8-1.2-7-2.1c-2.2-1-4.5-2.2-6-4.2c-1.6-2-1.9-4.7-1.2-7.1
				c0.3-1.2,0.8-2.3,1-3.5c0.2-1.2,0.2-2.4,0-3.6c-0.2-1.2-0.4-2.4-0.6-3.6c-0.1-0.6-0.1-1.2-0.1-1.9c0-0.6,0.1-1.2,0.2-1.8
				c0.4-2.4,1-4.8,2-7.1c1-2.2,2.4-4.3,4.3-6c1.8-1.7,4-3,6.3-3.9l0.2-0.1l0.2,0.2c1.3,1.1,3,1.9,4.6,2.5c1.7,0.6,3.5,0.9,5.2,1.1
				c1.8,0.2,3.6,0.2,5.4-0.1c1.8-0.2,3.5-0.6,5.1-1.3l0.2-0.1l0.2,0.1c1.5,0.8,3.1,1.4,4.7,1.8c1.7,0.4,3.3,0.6,5.1,0.7
				c1.7,0.1,3.4,0,5.1-0.3c1.7-0.3,3.3-0.8,4.8-1.6l0.2-0.1l0.2,0.1c2.9,1.6,5.5,3.6,7.6,6.1c2.1,2.5,3.5,5.6,4.1,8.8
				c0.3,1.6,0.4,3.2,0.3,4.8c0,0.8-0.1,1.6,0.1,2.4l0.3,2.4c0.2,1.6,0.3,3.2,0.5,4.8c0.1,0.8,0.2,1.6,0.4,2.4
				C84.9,95,84.8,95.9,84.8,96.7z M84.7,96.6c0.2-1.6-0.4-3.2-0.6-4.8c-0.2-1.6-0.4-3.2-0.6-4.8c-0.1-0.8-0.3-1.6-0.4-2.4
				C83,83.9,83,83.1,83,82.3c0-1.6-0.1-3.2-0.5-4.7c-0.7-3.1-2.1-6-4.2-8.4c-2.1-2.4-4.7-4.3-7.5-5.7l0.5,0
				c-1.6,0.9-3.3,1.4-5.1,1.7c-1.8,0.3-3.5,0.4-5.3,0.4c-1.8-0.1-3.5-0.3-5.3-0.7c-1.7-0.4-3.4-1-5-1.9l0.5,0
				c-1.7,0.7-3.6,1.1-5.4,1.3c-1.9,0.2-3.7,0.2-5.6,0c-1.8-0.2-3.7-0.5-5.4-1.1c-1.8-0.6-3.5-1.4-4.9-2.7l0.4,0.1
				c-2.2,0.8-4.3,2-6.1,3.6c-1.8,1.6-3.2,3.6-4.2,5.7c-1,2.2-1.7,4.5-2.1,6.9c-0.1,0.6-0.2,1.2-0.3,1.8c0,0.6,0,1.2,0,1.8
				c0.1,1.2,0.4,2.4,0.5,3.6c0.2,1.2,0.2,2.5,0,3.7c-0.2,1.2-0.7,2.4-1.1,3.5c-0.7,2.3-0.3,4.9,1.2,6.8c1.5,1.9,3.7,3.1,5.9,3.9
				c2.3,0.9,4.6,1.5,7,1.9c4.8,0.9,9.6,1.4,14.4,1.8c4.8,0.3,9.7,0.6,14.5,0.7c4.8,0.1,9.7,0,14.5-0.9c2.4-0.5,4.7-1.2,6.7-2.6
				c1-0.7,1.8-1.6,2.4-2.6C84.3,99.1,84.6,97.9,84.7,96.6z"/>
		</g>
	</g>
	<path class="st12" d="M41.3,112.4c-1.7,5.5-5.3,16.3-8.7,24.2c-3.3,7.5-1.1,16.2,0.6,21c1.8-13.5,6.5-26.7,8.8-40.2
		C42,115.7,41.7,114.1,41.3,112.4z"/>
	<path class="st12" d="M70.6,130.2c-3.1-6.5-5.2-11.5-6.5-15.2c3.3,16.6,12.1,38.4,3.6,52.5c1.1-1.6,2.5-4.5,4.4-9.5
		C72.1,158,78.1,145.6,70.6,130.2z"/>
	<path class="st12" d="M41.3,155c0.5,4.8-0.3,10-2.5,14.6c1.5,1,3-1.1,3.6-11.6c0,0,11.9,3.2,21.9,0c0,0-0.4,7.1,0.6,9.9
		c1.1-4.1,1.6-8.4,2.1-12.3C58.9,158.7,48.8,159.4,41.3,155z"/>
	<g>
		<path class="st11" d="M25.8,34.1C25.8,34,25.8,34,25.8,34.1L25.8,34.1z"/>
		<path d="M25.8,34.1L25.8,34.1c-0.4,0-0.5,0-0.4,0c0.1,0,0.2,0,0.2,0c0,0,0,0,0,0c0,0,0,0,0,0c0,0.1,0.1,0.2,0.2,0.2
			c0,0,0.1,0,0.2-0.1c0.1-0.1,0.1-0.2,0.1-0.2l0.1,0c0,0,0.1,0,0.1,0c0,0,0.1,0,0.1,0C26.3,34,26.2,34.1,25.8,34.1L25.8,34.1z
			 M25.8,34.2c-0.3,0-0.4,0-0.5,0c0,0,0,0,0.1-0.1c0,0,0,0,0.1,0l0.1,0c0-0.1,0-0.2,0.1-0.2s0.2-0.1,0.2-0.1c0.1,0,0.2,0.1,0.2,0.2
			c0,0,0,0,0,0c0,0,0,0,0,0c0,0,0.2,0,0.3,0C26.3,34.1,26.2,34.1,25.8,34.2L25.8,34.2L25.8,34.2z"/>
	</g>
	<g>
		<path class="st11" d="M25.8,34.1C25.8,34,25.8,34,25.8,34.1L25.8,34.1z"/>
		<path d="M25.8,34.1L25.8,34.1c-0.4,0-0.5,0-0.4,0c0.1,0,0.2,0,0.2,0c0,0,0,0,0,0c0,0,0,0,0,0c0,0.1,0.1,0.2,0.2,0.2
			c0,0,0.1,0,0.2-0.1c0.1-0.1,0.1-0.2,0.1-0.2l0.1,0c0,0,0.1,0,0.1,0c0,0,0.1,0,0.1,0C26.3,34,26.2,34.1,25.8,34.1L25.8,34.1z
			 M25.8,34.2c-0.3,0-0.4,0-0.5,0c0,0,0,0,0.1-0.1c0,0,0,0,0.1,0l0.1,0c0-0.1,0-0.2,0.1-0.2s0.2-0.1,0.2-0.1c0.1,0,0.2,0.1,0.2,0.2
			c0,0,0,0,0,0c0,0,0,0,0,0c0,0,0.2,0,0.3,0C26.3,34.1,26.2,34.1,25.8,34.2L25.8,34.2L25.8,34.2z"/>
	</g>
	<path class="st12" d="M83.7,104.7c8.1-4.8,11.9-13,14.6-25.2c2.6-12,2.4-24.7-7.4-35.7C98.1,63,96.1,86.9,83.7,104.7z"/>
	<path class="st12" d="M59.3,111.5c1.1-0.7,2.5-1.6,3.8-2.8c-3.2,0-6.8-0.1-10.9-0.3c-3.3-0.2-6.3-0.4-9-0.7
		C46.7,112.4,54,114.6,59.3,111.5z"/>
	<path class="st12" d="M28.3,104.9c-0.8-0.7-1.6-1.4-2.3-2.1c-7.2-2.4-9.7-5.7-9.4-9.9c0-0.6,0.1-1.1,0.3-1.7
		c-8.7-15-8.7-32.9-2.7-48.3C5.9,52.3,4.7,64.1,6,74.7c2.2,17.8,7.4,27.7,24.2,32.1C29.6,106.2,29,105.5,28.3,104.9z"/>
	<g>
		<path class="st10" d="M52.2,46.8c-11.7-0.6-21.6,6.1-22.1,14.9c0,0.2,0,0.5,0,0.7C43.3,72,60.4,71,72.5,62
			C71.6,54,63.1,47.4,52.2,46.8z"/>
		<path d="M52.2,46.8c-2.5-0.1-5,0.1-7.5,0.7c-2.4,0.6-4.7,1.6-6.8,3c-2.1,1.3-3.9,3-5.3,5.1c-1.3,2-2.2,4.4-2.2,6.9l-0.1-0.3
			c1.5,1.1,3.1,2.2,4.7,3.1c1.7,0.9,3.4,1.6,5.2,2.2c3.6,1.1,7.4,1.6,11.1,1.5c3.7-0.1,7.5-0.8,11-2.1c3.5-1.2,6.8-3,9.8-5.2
			L72,62.1c-0.2-2.2-1.1-4.3-2.3-6.1c-1.2-1.9-2.9-3.4-4.7-4.8c-1.8-1.3-3.9-2.4-6-3.1C56.8,47.4,54.5,47,52.2,46.8z M52.3,46.7
			c2.3,0.1,4.6,0.5,6.8,1.1c2.2,0.6,4.4,1.6,6.3,2.8c2,1.2,3.7,2.9,5.1,4.8c1.3,1.9,2.3,4.2,2.5,6.6l0,0.3l-0.2,0.2
			c-3.1,2.3-6.5,4.1-10.2,5.3c-3.6,1.2-7.5,1.8-11.3,1.8c-3.8,0-7.6-0.6-11.2-1.8c-1.8-0.6-3.6-1.3-5.3-2.1
			c-1.7-0.8-3.4-1.8-4.9-2.9l-0.1-0.1l0-0.2c-0.1-2.6,0.7-5.2,2.1-7.4c1.4-2.2,3.4-3.9,5.6-5.2c2.2-1.3,4.7-2.1,7.1-2.6
			C47.2,46.7,49.7,46.5,52.3,46.7z"/>
	</g>
	<path class="st16" d="M72.5,62c-0.7-6.7-6.7-12.4-14.9-14.5c4.8,3.3,8.5,7.9,5.6,11.1c-4.3,5.3-11.4,8.9-19,9.8
		C54.1,70.5,64.4,68,72.5,62z"/>
	<g>
		<path class="st1" d="M79.6,52.2c-0.1,2.2-2,3.9-4.2,3.7c-2.2-0.1-3.9-2-3.7-4.2c0.1-2.2,2-3.9,4.2-3.7
			C78,48.2,79.7,50.1,79.6,52.2z"/>
		<path d="M78.6,52.2c-0.1,2.2-2,3.9-4.2,3.7c-2.2-0.1-3.9-2-3.7-4.2c0.1-2.2,2-3.9,4.2-3.7C77,48.1,78.7,50,78.6,52.2z"/>
		<path class="st11" d="M73.4,51.2c0,0.4-0.3,0.7-0.7,0.6c-0.4,0-0.7-0.3-0.6-0.7c0-0.4,0.3-0.6,0.7-0.6
			C73.1,50.6,73.4,50.9,73.4,51.2z"/>
	</g>
	<g>
		<path class="st1" d="M34.3,49.8c-0.1,2.2-2,3.9-4.2,3.7c-2.2-0.1-3.9-2-3.7-4.2c0.1-2.2,2-3.9,4.2-3.7
			C32.8,45.7,34.5,47.6,34.3,49.8z"/>
		<path d="M33.3,49.7c-0.1,2.2-2,3.9-4.2,3.7c-2.2-0.1-3.9-2-3.7-4.2c0.1-2.2,2-3.9,4.2-3.7C31.8,45.7,33.5,47.5,33.3,49.7z"/>
		<path class="st11" d="M28.1,48.8c0,0.4-0.3,0.6-0.7,0.6c-0.4,0-0.7-0.3-0.6-0.7c0-0.4,0.3-0.7,0.7-0.6
			C27.9,48.1,28.1,48.4,28.1,48.8z"/>
	</g>
	<path class="st9" d="M15.9,54.6c-0.1,1.4,3.1,2.8,7.3,3.2c4.1,0.4,7.6-0.4,7.8-1.8c0.1-1.4-3.1-2.8-7.3-3.2
		C19.5,52.4,16.1,53.2,15.9,54.6z"/>
	<path class="st11" d="M16.1,52.9c0,0.4,1,0.9,2.3,1c1.3,0.1,2.4-0.1,2.5-0.6c0-0.4-1-0.9-2.3-1C17.3,52.2,16.2,52.4,16.1,52.9z"/>
	<path class="st9" d="M86.8,58.3c0,1.4-3.4,2.5-7.6,2.5c-4.2,0-7.6-1.2-7.6-2.6c0-1.4,3.4-2.5,7.6-2.5
		C83.4,55.8,86.8,56.9,86.8,58.3z"/>
	<path class="st11" d="M86.8,56.6c0,0.5-1.1,0.8-2.5,0.8c-1.3,0-2.4-0.4-2.4-0.8c0-0.5,1.1-0.8,2.5-0.8
		C85.7,55.8,86.8,56.2,86.8,56.6z"/>
	<g>
		<path class="st10" d="M63.3,35.1c1.2-1.4,2.4-3.1,3.4-5c3.3-6.4,3.4-12.9,0.2-14.5c-1-0.5-2.2-0.5-3.4,0C62.7,8,59.7,2.4,55.9,2.2
			c-4.8-0.3-9.1,8-9.7,18.5c-0.3,5.1,0.4,9.8,1.7,13.3C53.1,33.2,58.5,33.3,63.3,35.1z"/>
		<path d="M63.3,35.1c1.3-1.6,2.4-3.4,3.3-5.3c0.9-1.9,1.5-3.9,1.9-5.9c0.4-2,0.5-4.2-0.3-6c-0.4-0.9-1-1.7-1.9-2
			c-0.9-0.3-1.9-0.2-2.8,0.1l-0.5,0.2l0-0.5c-0.2-2.2-0.5-4.3-1.1-6.4c-0.7-2-1.6-4.1-3.1-5.6C58,3,57.1,2.4,56,2.4
			c-1-0.1-2.1,0.3-2.9,0.9c-1.7,1.3-2.8,3.2-3.7,5.1c-1.7,3.9-2.5,8.3-2.7,12.6c-0.2,4.3,0.2,8.7,1.6,12.7l-0.5-0.3
			c2.6-0.3,5.3-0.5,7.9-0.2C58.3,33.5,60.9,34.1,63.3,35.1z M63.3,35.2c-2.5-0.8-5.1-1.2-7.6-1.3c-2.6-0.1-5.2,0.1-7.7,0.5l-0.4,0.1
			l-0.1-0.3c-0.8-2.1-1.3-4.3-1.6-6.5c-0.3-2.2-0.4-4.4-0.3-6.6c0.3-4.4,1.1-8.8,3-12.9c1-2,2.3-3.9,4.1-5.2c0.9-0.6,2.1-1,3.2-0.9
			c1.1,0.1,2.2,0.7,3,1.5c1.6,1.6,2.6,3.6,3.3,5.7c0.7,2.1,1.2,4.3,1.4,6.5l-0.5-0.3c1-0.4,2.2-0.6,3.4-0.2c1.1,0.4,2,1.4,2.4,2.4
			c0.8,2.1,0.6,4.4,0.2,6.5c-0.4,2.1-1.2,4.1-2.2,6C66.1,31.9,64.8,33.6,63.3,35.2L63.3,35.2L63.3,35.2z"/>
	</g>
	<path class="st16" d="M60.9,6.2c1.2,5.1,1.9,10.2-0.5,15.1c1.5-1.8,2.9-3.9,4.4-5.9c-0.4,0.1-0.9,0.1-1.3,0.3
		C63.1,11.9,62.2,8.6,60.9,6.2z"/>
	<path class="st16" d="M55,33.5c2.8,0.1,5.6,0.6,8.3,1.6c1.2-1.4,2.4-3.1,3.4-5c2.1-4.1,2.9-8.2,2.3-11.1
		C66.8,25.7,61.4,29.9,55,33.5z"/>
	<g class="st3">
		<path class="st7" d="M60.5,118.7l-4.4-10l-2.3-0.2c-1.6,3-4,6.6-7.1,9.4c-3.9,3.2-5.9,3.5-8.7,7.8c-2.6,3.7,0.1,8.5,4.1,10.4
			c1.9,0.9,5.1,0.3,6-1.3c0.1,2,1.8,5.3,3.7,6.4c4,2.4,9.1,0.5,10.3-5C64,127.5,62.1,124.5,60.5,118.7z"/>
	</g>
	<g>
		<path class="st10" d="M58.7,116.7l-4.4-10l-2.3-0.2c-1.6,3-4,6.6-7.1,9.4c-3.9,3.2-5.9,3.5-8.7,7.8c-2.6,3.7,0.1,8.6,4.1,10.4
			c1.9,0.9,5.1,0.2,6-1.3c0.1,2,1.8,5.3,3.6,6.4c4,2.4,9.1,0.5,10.4-5C62.2,125.4,60.3,122.5,58.7,116.7z"/>
		<g>
			<path d="M58.7,116.7l-2.2-5.1l-2.3-4.8l0.1,0.1l-2.3-0.1l0.3-0.2c-0.9,1.9-2,3.6-3.2,5.2c-1.2,1.6-2.5,3-4,4.3
				c-1.4,1.2-3,2.2-4.5,3.2c-0.7,0.5-1.4,1.1-2,1.7c-0.6,0.6-1.2,1.3-1.7,1.9c-0.5,0.7-1,1.3-1.2,2.1c-0.3,0.7-0.4,1.5-0.3,2.3
				c0.1,1.5,0.9,3.1,2,4.3c0.6,0.6,1.2,1.2,2,1.7c0.4,0.2,0.8,0.4,1.2,0.6c0.4,0.2,0.8,0.2,1.2,0.3c0.8,0.1,1.7,0,2.4-0.3
				c0.8-0.3,1.5-0.7,1.9-1.3l0.6-0.9l0.1,1.2c0.1,1.4,0.8,2.9,1.6,4.1c0.4,0.6,0.9,1.2,1.5,1.6c0.2,0.1,0.3,0.2,0.4,0.3
				c0.2,0.1,0.3,0.2,0.5,0.2c0.3,0.1,0.7,0.3,1,0.4c2.8,0.8,5.6-0.4,7.2-2.9c0.4-0.6,0.7-1.4,0.9-2.1c0.2-0.8,0.4-1.6,0.5-2.5
				c0.3-1.7,0.5-3.4,0.5-5.2c0-1.8-0.4-3.5-0.8-5.2C59.6,119.9,59.1,118.3,58.7,116.7z M58.8,116.6c0.9,3.3,2.3,6.4,2.5,10.1
				c0.1,1.8,0,3.7-0.2,5.4c-0.1,0.9-0.3,1.7-0.5,2.6c-0.2,0.9-0.5,1.7-1,2.4c-1.7,2.9-4.8,4.1-7.9,3.2c-0.4-0.1-0.8-0.3-1.1-0.4
				c-0.2-0.1-0.4-0.2-0.6-0.3c-0.2-0.1-0.4-0.2-0.6-0.4c-0.7-0.5-1.3-1.2-1.7-1.9c-0.9-1.4-1.6-2.9-1.7-4.6l0.7,0.2
				c-0.6,0.8-1.4,1.2-2.2,1.5c-0.9,0.2-1.8,0.3-2.7,0.2c-0.5-0.1-0.9-0.2-1.4-0.4c-0.4-0.2-0.8-0.4-1.2-0.7c-0.8-0.5-1.5-1.2-2-1.9
				c-1.1-1.3-1.9-2.9-2-4.5c0-0.8,0.1-1.6,0.4-2.3c0.3-0.8,0.8-1.5,1.2-2.1c1-1.4,2.2-2.7,3.7-3.8c1.5-1.1,3-2.1,4.4-3.4
				c1.4-1.2,2.7-2.7,3.8-4.2c1.2-1.6,2.3-3.3,3.3-5.1l0.1-0.2l0.2,0l2.2,0.2l0.1,0l0,0.1l2.1,5L58.8,116.6L58.8,116.6z"/>
		</g>
	</g>
	<g class="st2">
		<path class="st15" d="M59.3,116.1l-2.3-5.4c1.3,7.1,4.5,14.2-3.5,19.2c2-2-1.7-4.3-1.6-6.4c-2.2,9-7,9.3-13.5,8.6
			c0.7,0.7,1.6,1.3,2.5,1.7c1.9,0.9,5.1,0.2,6-1.3c0.1,2,1.8,5.2,3.6,6.2c4,2.3,9.1,0.4,10.4-5.1C62.8,124.8,60.9,121.9,59.3,116.1z
			"/>
	</g>
	<path d="M74.7,89.1c0.1,1.8-1.2,3.5-3.1,3.6c-1.9,0.1-3.5-1.2-3.6-3.1c-0.1-1.8,1.2-3.5,3.1-3.6C73,85.9,74.6,87.3,74.7,89.1z"/>
	<g>
		<path class="st0" d="M49.3,96.4c-0.1-1.7,1-3.2,2.5-3.3c1.5-0.1,2.8,1.2,2.9,3c0.1,1.7-1,3.2-2.5,3.3
			C50.7,99.5,49.4,98.2,49.3,96.4z"/>
		<g>
			<path d="M49.3,96.4c-0.1-0.8,0.1-1.5,0.5-2.2c0.4-0.7,1.1-1.2,2-1.3c0.8-0.1,1.7,0.2,2.3,0.8c0.6,0.6,1,1.5,1,2.4
				c0,0.8-0.2,1.7-0.7,2.4c-0.5,0.7-1.4,1.1-2.3,1.1c-0.8,0-1.6-0.5-2.1-1.1C49.6,97.9,49.3,97.2,49.3,96.4z M49.3,96.4
				c0.1,0.8,0.4,1.5,0.9,2c0.5,0.5,1.3,0.8,2,0.7c0.7-0.1,1.2-0.6,1.5-1.1c0.3-0.6,0.5-1.2,0.4-1.9c-0.1-1.2-0.9-2.7-2.4-2.7
				c-0.7,0-1.4,0.3-1.8,0.9C49.4,94.9,49.2,95.7,49.3,96.4z"/>
		</g>
	</g>
	<g>
		<path class="st11" d="M51.8,93.1c-1,0.1-1.9,0.8-2.3,1.9c1.6,0.4,3.3,0.5,5.1,0.5C54.2,94.1,53.1,93.1,51.8,93.1z"/>
		<path d="M51.8,93.1c-0.5,0-1,0.3-1.4,0.6c-0.4,0.3-0.7,0.8-0.8,1.3l0-0.1c0.8,0.2,1.7,0.3,2.5,0.4c0.8,0.1,1.7,0.1,2.5,0.1
			l-0.1,0.1c-0.1-0.6-0.4-1.3-0.9-1.7C53.1,93.4,52.4,93.1,51.8,93.1z M51.8,93.1c0.7-0.1,1.3,0.2,1.8,0.7c0.5,0.4,0.9,1.1,1,1.7
			l0,0.1l-0.1,0c-1.7,0-3.4-0.1-5.1-0.6l-0.1,0l0-0.1C49.8,94,50.7,93.2,51.8,93.1z"/>
	</g>
	<path class="st11" d="M70.2,88.4c0,0.6-0.4,1.1-0.8,1.1c-0.4,0-0.7-0.5-0.7-1.1c0-0.6,0.4-1.1,0.8-1.1
		C69.9,87.3,70.2,87.8,70.2,88.4z"/>
	<path class="st13" d="M81.4,97.6c-0.1,1.4-3.8,2.1-8.2,1.6c-4.4-0.5-7.8-1.9-7.7-3.3c0.1-1.4,3.8-2.1,8.2-1.6
		C78.1,94.7,81.5,96.2,81.4,97.6z"/>
	<path class="st11" d="M80,95.7c-0.1,0.6-1.2,1-2.4,0.7c-1.2-0.3-2-1-1.9-1.6c0.1-0.7,1.2-1,2.4-0.7C79.3,94.3,80.1,95,80,95.7z"/>
	<path d="M75.3,83.9c-0.1,0.4-1.7,0.4-3.7,0c-2-0.4-3.5-1-3.4-1.4c0.1-0.4,1.7-0.4,3.7,0C73.8,82.9,75.4,83.5,75.3,83.9z"/>
	<path d="M26.1,85.1c-0.3,1.8,0.8,3.6,2.7,3.9c1.8,0.3,3.6-0.8,3.9-2.7c0.3-1.8-0.8-3.6-2.7-3.9C28.2,82.1,26.5,83.3,26.1,85.1z"/>
	<path class="st11" d="M26.7,84.7c-0.1,0.6,0.2,1.1,0.6,1.2c0.4,0,0.8-0.4,0.8-1c0-0.6-0.2-1.1-0.6-1.2
		C27.1,83.6,26.8,84.1,26.7,84.7z"/>
	
		<ellipse transform="matrix(-1 -3.367569e-003 3.367569e-003 -1 54.7017 185.8548)" class="st13" cx="27.5" cy="92.9" rx="8" ry="2.5"/>
	<path class="st11" d="M21.1,91.1c0.1,0.7,1.1,1.1,2.3,1c1.2-0.1,2.1-0.8,2.1-1.4c-0.1-0.7-1.1-1.1-2.3-1
		C22,89.8,21.1,90.4,21.1,91.1z"/>
	
		<ellipse transform="matrix(-0.9965 8.411984e-002 -8.411984e-002 -0.9965 66.037 156.3279)" cx="29.7" cy="79.6" rx="3.6" ry="0.7"/>
	<g class="st5">
		<path class="st11" d="M46.8,49.1c-2.1,1-4.1,1.8-5.9,2.8c-0.9,0.5-1.8,1-2.6,1.7c-0.8,0.6-1.6,1.4-2.4,2.3c0-1.2,0.5-2.4,1.2-3.3
			c0.7-1,1.7-1.8,2.7-2.3c1.1-0.6,2.2-1,3.3-1.2C44.5,48.9,45.7,48.8,46.8,49.1z"/>
	</g>
	<path class="st12" d="M61.4,107.4c0,0,20.3,14.9,14,26.8c-6.3,11.9-13.2,17.7-19.6,16c0,0,6.9-8.1,8.1-11.1c0,0-16.1,16.8-1.6-6.7
		c0,0-12.8,3.6-0.3-10.1c0,0,4.7-4.3-1.2-9.7"/>
	<g>
		<path class="st11" d="M61.1,107.9c0,0,21.3,13.4,15.9,25.7c-5.4,12.3-11.9,18.5-18.4,17.3c0,0,6.3-8.6,7.3-11.7
			c0,0-14.8,17.9-2.1-6.6c0,0-12.5,4.5-1-10.1c0,0,4.4-4.6-1.9-9.6"/>
		<path d="M61.1,107.8c4.2,2.6,8.2,5.7,11.5,9.5c1.6,1.9,3.1,3.9,4.2,6.2c1.1,2.3,1.7,4.9,1.3,7.5c-0.2,1.3-0.7,2.5-1.2,3.6
			c-0.5,1.1-1.1,2.2-1.7,3.3c-1.2,2.2-2.5,4.3-4.1,6.3c-1.5,2-3.3,3.8-5.4,5.2c-2.1,1.4-4.7,2.2-7.2,1.7l-0.3-0.1l0.2-0.3
			c1.3-1.9,2.6-3.8,3.8-5.7c0.6-1,1.2-1.9,1.8-2.9c0.6-1,1.1-2,1.5-3l0.7,0.4c-1.3,1.5-2.6,3-4,4.4c-0.7,0.7-1.4,1.4-2.4,1.9
			c-0.1,0.1-0.3,0.1-0.5,0.2c-0.2,0-0.4,0.1-0.7-0.1c-0.3-0.2-0.4-0.4-0.4-0.6c0-0.2-0.1-0.3-0.1-0.5c0-0.6,0.2-1.1,0.3-1.6
			c0.6-2,1.4-3.7,2.3-5.5c0.9-1.8,1.7-3.5,2.7-5.3l0.6,0.7c-0.7,0.2-1.4,0.4-2.2,0.6c-0.7,0.1-1.5,0.2-2.3,0.1
			c-0.4-0.1-0.8-0.2-1.2-0.5c-0.4-0.3-0.7-0.7-0.8-1.1c-0.2-0.9,0-1.7,0.3-2.4c0.5-1.4,1.3-2.7,2.1-3.9c0.8-1.2,1.7-2.3,2.6-3.5l0,0
			l0,0c0.6-0.6,1-1.4,1.3-2.3c0.3-0.8,0.3-1.8,0.1-2.6c-0.4-1.8-1.6-3.3-3-4.4l0.1-0.1c1.5,1.1,2.8,2.5,3.4,4.4
			c0.3,0.9,0.3,1.9,0,2.9c-0.2,0.9-0.7,1.8-1.3,2.6l0,0c-0.9,1.1-1.7,2.3-2.5,3.5c-0.8,1.2-1.5,2.4-1.9,3.7
			c-0.2,0.6-0.3,1.3-0.2,1.9c0.1,0.5,0.6,0.8,1.2,0.9c1.3,0.2,2.7-0.2,4-0.6l1.2-0.4l-0.6,1.1c-0.9,1.7-1.8,3.5-2.6,5.3
			c-0.8,1.8-1.6,3.6-2.2,5.4c-0.1,0.4-0.3,0.9-0.3,1.3c0,0.2,0.1,0.3,0,0.2c-0.1,0,0.1,0,0.2-0.1c0.7-0.4,1.5-1.1,2.2-1.7
			c1.4-1.3,2.7-2.8,4-4.3l1.6-1.8l-0.8,2.2c-0.4,1.2-1,2.1-1.6,3.1c-0.6,1-1.2,2-1.9,2.9c-1.3,1.9-2.6,3.8-4,5.6l-0.1-0.4
			c2.4,0.5,4.9-0.2,7-1.5c2.1-1.3,3.8-3.2,5.3-5.1c1.5-2,2.7-4.1,3.8-6.3c0.6-1.1,1.1-2.2,1.6-3.4c0.5-1.1,0.9-2.2,1.1-3.4
			c0.4-2.4-0.2-4.8-1.2-7c-1-2.2-2.4-4.2-4-6.1c-1.6-1.9-3.3-3.6-5.2-5.3C65,110.9,63.1,109.3,61.1,107.8L61.1,107.8z"/>
	</g>
	<path class="st12" d="M61.1,107.9l-0.1,2.1c7.9,7.2,13.1,17.4,13.9,28c0.7-1.3,1.4-2.8,2.1-4.3C82.4,121.3,61.1,107.9,61.1,107.9z"
		/>
</g>
</svg>
