<?xml version="1.0" encoding="utf-8"?>
<!-- Generator: Adobe Illustrator 15.1.0, SVG Export Plug-In . SVG Version: 6.00 Build 0)  -->
<!DOCTYPE svg PUBLIC "-//W3C//DTD SVG 1.1//EN" "http://www.w3.org/Graphics/SVG/1.1/DTD/svg11.dtd">
<svg version="1.1" id="Layer_5" xmlns="http://www.w3.org/2000/svg" xmlns:xlink="http://www.w3.org/1999/xlink" x="0px" y="0px"
	 width="252px" height="289.5px" viewBox="0 0 252 289.5" style="enable-background:new 0 0 252 289.5;" xml:space="preserve">
<style type="text/css">
<![CDATA[
	.st0{fill:#7AD7EE;}
	.st1{opacity:0.24;}
	.st2{opacity:0.25;}
	.st3{opacity:0.27;}
	.st4{opacity:0.38;fill:url(#SVGID_3_);}
	.st5{fill:#595959;}
	.st6{opacity:0.45;fill:#FDACBD;}
	.st7{fill:#F69D01;}
	.st8{opacity:0.24;fill:#F69D01;}
	.st9{fill:#FCC581;stroke:#000000;stroke-miterlimit:10;}
	.st10{opacity:0.25;fill:#078D9E;}
	.st11{fill:#FFFFFF;}
	.st12{fill:none;stroke:#078D9E;stroke-miterlimit:10;}
	.st13{fill:#006283;}
	.st14{opacity:0.25;clip-path:url(#SVGID_2_);}
]]>
</style>
<g>
	<path class="st9" d="M178.7,133.7c-1.4-9.1-2-8.5-2.1-12.8c-0.6-28.1-27.3-41.2-60.3-41.2c-33,0-56.4,6.6-59.1,39.4
		c-0.4,5.2,2.2,10.5,2.1,15.2c-0.1,4.7-2.1,8-2.1,11.9c0,13.2,14.7,20.9,62.5,20.9c48,0,62.5-7.8,62.5-20.9
		C182.2,141.3,180.1,142.8,178.7,133.7z"/>
	<path class="st8" d="M61.4,128.3c0-4.7-1.5-10.3-2.7-15.3c-0.3,1.9-0.6,4-0.8,6.1c-0.4,5.2,2.2,10.5,2.1,15.2
		c-0.1,4.7-2.1,8-2.1,11.9c0,4.3,1.6,8.1,5.5,11.2C60.3,149.2,61.4,138.2,61.4,128.3z"/>
	<path class="st8" d="M179.4,133.7c-1.4-9.1-2-8.5-2.1-12.8c-0.4-16.8-10-28.2-24.8-34.7c12.6,17.4,27.9,41.4,13,58.5
		c-18.2,20-45.5,18.7-71.3,21.5c7.4,0.7,16.1,1,26.3,1c48,0,62.5-7.8,62.5-20.9C182.9,141.3,180.8,142.8,179.4,133.7z"/>
	<path class="st8" d="M182.9,144c-0.7-1.4-1.6-3.3-2.4-8c-1.4-9.1-2-8.5-2.1-12.8C177.9,95.1,151.1,82,118.1,82
		c-18.8,0-34.5,2.1-45,10.1c-8,6-13,15.2-14.1,29.4c-0.3,3.9,1.1,7.8,1.7,11.5c3.7-6.7,0-15.3,3-22.2c-1.2,3.5,1.2,5.8,1.2,9.4
		c1.1-9.7,6.1-16.4,10.5-24.7c8.3,10.7,23.1,14.5,36.2,16.5c-2.3-3.5-4.7-7-8.2-9.4c8.2,4.7,19.9,4.7,26.9,12.9
		c2.3-2.3,0-5.8,1.2-8.2c7,15.2,22.2,9.4,33.9,12.9c-1.2-4.7-5.8-5.8-9.4-8.2C174.1,115.1,172.9,133.6,182.9,144z"/>
	<path d="M181.7,141.6c-0.7-1.4-1.6-3.3-2.4-8c-1.4-9.1-2-8.5-2.1-12.8C176.7,92.8,150,79.7,117,79.7c-18.8,0-34.5,2.1-45,10.1
		c-7.9,6-13,15.2-14.1,29.4c-0.3,3.9,1.1,7.8,1.7,11.5c3.7-6.7,0-15.3,3-22.2c-1.2,3.5,1.2,5.8,1.2,9.4c1.1-9.7,6.1-16.4,10.5-24.7
		c8.3,10.7,23.1,14.5,36.2,16.5c-2.3-3.5-4.7-7-8.2-9.4c8.2,4.7,19.9,4.7,26.9,12.9c2.3-2.3,0-5.8,1.2-8.2
		c7,15.2,22.2,9.4,33.9,12.9c-1.2-4.7-5.8-5.8-9.4-8.2C172.9,112.7,171.7,131.2,181.7,141.6z"/>
	<g class="st1">
		<path class="st7" d="M87.4,151.5c1,0.6,2,1.1,3.1,1.4c1.1,0.3,2.2,0.4,3.3,0.4c2.2-0.1,4.3-1,6.2-2.3l0,0c0.7-0.5,1.4-0.6,2.1-0.8
			c0.7-0.1,1.4-0.1,2.1-0.2c1.4,0,2.8,0.1,4.2,0.3c1.4,0.2,2.8,0.4,4.1,0.7c1.3,0.3,2.7,0.7,4,1.1c2.6,0.7,5.3,1.2,8,1
			c2.6-0.2,5.4-1.1,7.3-3l0.1,0.1c-1.6,2.4-4.5,3.6-7.3,3.9c-2.8,0.4-5.7-0.2-8.4-1c-2.6-0.9-5.2-1.9-7.9-2.4
			c-1.4-0.2-2.7-0.4-4.1-0.3c-0.7,0-1.4,0.1-2,0.3c-0.6,0.2-1.3,0.4-1.7,0.8l0.1-0.1l-0.1,0.1c-1.8,1.5-4.2,2.5-6.6,2.5
			c-1.2,0-2.4-0.2-3.5-0.7C89.2,153.1,88.2,152.4,87.4,151.5L87.4,151.5z"/>
	</g>
	<g>
		<path d="M87.1,151.3c0.8,0.7,1.8,1.2,2.8,1.5c1,0.3,2.1,0.5,3.1,0.4c2.1-0.1,4-1,5.8-2.2l0,0c0.7-0.5,1.4-0.6,2.2-0.8
			c0.7-0.1,1.5-0.1,2.2-0.1c1.4,0,2.9,0.1,4.3,0.3c1.4,0.2,2.8,0.5,4.2,0.8c1.4,0.3,2.8,0.8,4.1,1.2c2.7,0.7,5.5,1.1,8.3,0.8
			c2.7-0.3,5.5-1.2,7.7-3l0.1,0.1c-1.9,2.2-4.8,3.4-7.7,3.9c-2.9,0.4-5.9,0-8.7-0.8c-2.8-0.9-5.3-1.9-8.1-2.5
			c-1.4-0.3-2.8-0.5-4.2-0.4c-0.7,0-1.4,0.1-2.1,0.3c-0.6,0.2-1.4,0.4-1.8,0.8l0.7-0.6l-0.7,0.6c-1.7,1.4-3.9,2.5-6.2,2.5
			c-1.2,0-2.3-0.3-3.3-0.7C88.7,152.9,87.8,152.2,87.1,151.3L87.1,151.3z"/>
	</g>
	<g>
		<path class="st0" d="M102.5,171.6c0,0-21.9,19.8-17.9,28.7c4,8.9,8,12.3,3.4,16.2s-6.4,12-0.3,7.9l19.2-52.2L102.5,171.6z"/>
		<g>
			<path d="M102.5,171.6c-4,3.9-7.8,8.1-11.2,12.5c-1.7,2.2-3.3,4.5-4.6,6.9c-0.7,1.2-1.3,2.5-1.7,3.8c-0.4,1.3-0.7,2.6-0.5,4
				c0.1,0.7,0.3,1.2,0.6,1.9c0.3,0.6,0.6,1.3,0.9,1.9c0.6,1.3,1.2,2.5,1.9,3.8c0.6,1.3,1.3,2.5,1.8,3.8c0.5,1.3,0.8,2.8,0.3,4.2
				c-0.3,0.7-0.7,1.3-1.2,1.8c-0.5,0.5-1.1,0.9-1.5,1.5c-0.9,1-1.7,2.2-2.3,3.4c-0.3,0.6-0.5,1.3-0.7,1.9c-0.1,0.6-0.2,1.4,0,1.9
				c0.2,0.5,0.9,0.5,1.5,0.3c0.6-0.2,1.2-0.6,1.8-1l-0.1,0.2l4.7-13.1c1.6-4.4,3.1-8.7,4.8-13.1c1.6-4.4,3.2-8.7,4.9-13
				c1.6-4.3,3.3-8.7,5-13l0.1,0.2L102.5,171.6z M102.5,171.5l4.4,0.5l0.2,0l-0.1,0.2c-1.5,4.4-3,8.8-4.6,13.1
				c-1.5,4.4-3.1,8.7-4.7,13.1c-1.6,4.4-3.2,8.7-4.8,13l-4.9,13l0,0.1l-0.1,0.1c-0.6,0.4-1.2,0.8-1.9,1c-0.4,0.1-0.7,0.2-1.2,0.1
				c-0.4,0-0.8-0.4-1-0.8c-0.3-0.8-0.1-1.5,0-2.2c0.2-0.7,0.4-1.4,0.8-2c0.6-1.3,1.4-2.5,2.4-3.5c0.5-0.5,1.1-1,1.5-1.4
				c0.5-0.5,0.9-1,1.1-1.7c0.5-1.3,0.2-2.7-0.3-4c-0.5-1.3-1.2-2.5-1.9-3.7c-0.7-1.2-1.4-2.5-2-3.7c-0.3-0.6-0.6-1.3-0.9-1.9
				c-0.3-0.6-0.6-1.4-0.7-2.1c-0.2-1.5,0.1-3,0.5-4.3c0.4-1.4,1-2.7,1.7-3.9c1.4-2.5,3-4.8,4.8-7C94.3,179.2,98.2,175.2,102.5,171.5
				L102.5,171.5z"/>
		</g>
	</g>
	<path class="st10" d="M106.9,172.2l-4.4-0.6c0,0-1.1,1-2.8,2.7c-5,9.7-10.5,20-12.7,30.9c2.9,5.5,4.7,8.3,1,11.4
		c-0.7,0.6-1.3,1.3-1.9,2c0.3,2,0.8,4.1,1.1,6.1c0.1-0.1,0.3-0.2,0.4-0.3L106.9,172.2z"/>
	<g>
		<g>
			<path class="st0" d="M153.6,236.7c0,0,28.8,6.8,24.7-35.3c-4.1-42.1,18-48.5,36.6-37.3c8.6,5.2,11.5,11.4,11.5,11.4
				s-3.7,1.1-10.2-4.2c0,0-28.7-24.3-33.4,17.5c0,0,3.2,40.6-3.5,46.2c-6.7,5.6-26.6,16.1-33,5L153.6,236.7z"/>
			<g>
				<path d="M153.6,236.6c5.6,1,11.7-0.1,16.2-3.7c2.2-1.8,4-4.1,5.2-6.6c1.3-2.5,2-5.3,2.5-8.1c1-5.6,0.9-11.4,0.3-17.1
					c-0.6-5.7-0.7-11.6,0-17.3c0.7-5.7,2.2-11.5,5.5-16.4c1.6-2.4,3.8-4.5,6.3-6c2.5-1.5,5.4-2.3,8.3-2.5c5.8-0.3,11.5,1.5,16.5,4.4
					c2.5,1.4,4.9,3.2,7,5.1c2.1,2,4,4.2,5.4,6.8l0.1,0.3l-0.3,0.1c-1.4,0.3-2.7,0-4-0.5c-1.3-0.4-2.4-1-3.5-1.7
					c-1.1-0.7-2.2-1.5-3.2-2.3c-1-0.8-2.1-1.5-3.2-2.2c-2.2-1.4-4.5-2.5-6.9-3.3c-2.4-0.8-5-1.3-7.5-1c-2.5,0.3-4.9,1.3-6.8,3
					c-1.9,1.7-3.3,3.9-4.3,6.2c-2.1,4.7-3.1,9.8-3.6,14.9l0-0.1c0.5,7,0.8,14,0.8,21.1c0,3.5-0.1,7-0.4,10.5
					c-0.3,3.5-0.7,7-1.7,10.5c-0.3,0.9-0.6,1.7-1,2.5c-0.4,0.8-1,1.6-1.7,2.2c-1.4,1.1-2.9,2.1-4.4,3c-3,1.8-6.2,3.4-9.5,4.6
					c-3.3,1.2-6.8,2.1-10.4,1.9c-1.8-0.1-3.6-0.5-5.2-1.3c-1.6-0.8-2.9-2.2-3.7-3.7l-0.1-0.1l0.1-0.1L153.6,236.6L153.6,236.6z
					 M153.6,236.7l-7.1,3.3l0.1-0.2c0.9,1.5,2.1,2.7,3.7,3.5c1.5,0.8,3.3,1.1,5,1.2c3.5,0.1,6.9-0.8,10.1-2c3.3-1.2,6.4-2.8,9.3-4.7
					c1.5-0.9,2.9-1.9,4.3-3c1.3-1,1.9-2.7,2.4-4.3c0.9-3.3,1.3-6.8,1.5-10.3c0.2-3.5,0.3-7,0.3-10.5c0-7-0.3-14-0.8-21l0-0.1l0,0
					c0.6-5.2,1.6-10.4,3.8-15.2c1.1-2.4,2.6-4.7,4.6-6.4c2-1.8,4.6-2.9,7.3-3.1c2.7-0.3,5.3,0.3,7.8,1.1c2.5,0.9,4.8,2.1,7,3.5
					c1.1,0.7,2.2,1.5,3.2,2.3c1,0.8,2,1.6,3.1,2.3c1.1,0.7,2.2,1.3,3.4,1.7c1.2,0.4,2.5,0.7,3.7,0.5l-0.1,0.3
					c-1.3-2.5-3.2-4.7-5.3-6.7c-2.1-2-4.4-3.7-6.9-5.1c-2.5-1.4-5.1-2.6-7.8-3.4c-2.7-0.8-5.6-1.2-8.5-1c-2.8,0.2-5.7,1-8.1,2.5
					c-2.4,1.5-4.5,3.6-6,5.9c-3.1,4.8-4.5,10.5-5.1,16.2c-0.6,5.7-0.4,11.4,0.1,17.1c0.5,5.7,0.6,11.6-0.4,17.3
					c-0.5,2.9-1.4,5.7-2.7,8.3c-1.3,2.6-3.2,5-5.5,6.7c-2.3,1.8-5.1,2.9-7.9,3.4C159.3,237.3,156.4,237.3,153.6,236.7z"/>
			</g>
		</g>
		<path class="st10" d="M156.1,240.5c0,0,0-2,0-3.5c-1.5-0.1-2.5-0.3-2.5-0.3l-7.1,3.2c6.4,11.1,26.3,0.6,33-5
			c4.6-3.8,4.5-24,4-36.4C181.5,219.1,180.8,243.3,156.1,240.5z"/>
		<g>
			<defs>
				<path id="SVGID_1_" d="M153.6,236.7c0,0,28.8,6.8,24.7-35.3c-4.1-42.1,18-48.5,36.6-37.3c8.6,5.2,11.5,11.4,11.5,11.4
					s-3.7,1.1-10.2-4.2c0,0-28.7-24.3-33.4,17.5c0,0,3.2,40.6-3.5,46.2c-6.7,5.6-26.6,16.1-33,5L153.6,236.7z"/>
			</defs>
			<clipPath id="SVGID_2_">
				<use xlink:href="#SVGID_1_"  style="overflow:visible;"/>
			</clipPath>
			<g class="st14">
				<g>
					<path class="st12" d="M155.4,235.6c0,0-4,5-1,10.8"/>
					<path class="st12" d="M159.3,235.6c0,0-4,5-1,10.8"/>
					<path class="st12" d="M162.4,235.5c0,0-2.9,5.6,1.2,10.8"/>
					<path class="st12" d="M165.3,234.1c0,0-1.6,6.1,3.5,10.3"/>
					<path class="st12" d="M173.8,224.9c0,0,3.4,5.4,9.9,4.4"/>
					<path class="st12" d="M174.1,220.5c0,0,4.5,4.5,10.6,2.2"/>
					<path class="st12" d="M174.7,215.1c0,0,4.5,4.5,10.6,2.2"/>
					<path class="st12" d="M175.4,209.7c0,0,4.5,4.5,10.6,2.2"/>
					<path class="st12" d="M176.1,204.3c0,0,4.5,4.5,10.6,2.2"/>
					<path class="st12" d="M175.4,198.9c0,0,4.5,4.5,10.6,2.2"/>
					<path class="st12" d="M176.1,192.6c0,0,4.5,4.5,10.6,2.2"/>
					<path class="st12" d="M176.1,186c0,0,4.5,4.5,10.6,2.2"/>
					<path class="st12" d="M176.4,180.5c0,0,3.8,5.1,10.2,3.6"/>
					<path class="st12" d="M177.8,175.5c0,0,3.8,5.1,10.2,3.6"/>
					<path class="st12" d="M179.1,169.8c0,0,3.2,5.5,9.7,4.8"/>
					<path class="st12" d="M182.4,164.4c0,0,2,6,8.6,6.7"/>
					<path class="st12" d="M187.5,160.2c0,0,0.7,6.3,6.9,8.4"/>
					<path class="st12" d="M193.8,157.2c0,0-1.2,6.2,4.1,10"/>
					<path class="st12" d="M200.5,155.6c0,0-2.8,5.7,1.3,10.8"/>
					<path class="st12" d="M207.4,157c0,0-4.6,4.4-2.4,10.6"/>
					<path class="st12" d="M213.1,159.8c0,0-5.7,2.9-5.4,9.4"/>
					<path class="st12" d="M218.7,162.9c0,0-6,2-6.7,8.5"/>
					<path class="st12" d="M222.8,165.8c0,0-6,2-6.7,8.5"/>
					<path class="st12" d="M226.1,169.3c0,0-6,2-6.7,8.5"/>
					<path class="st12" d="M167.7,233.1c0,0-0.4,4.9,7,6.2"/>
					<path class="st12" d="M171.7,230.6c0,0,0.3,4.9,7.8,5.1"/>
				</g>
			</g>
		</g>
	</g>
	<path class="st10" d="M193.5,163.3c-4,2-8.8,7.3-8,13.2c8.5-24.2,30.8-5.3,30.8-5.3c0.7,0.1,1.3,0.2,1.8,0.2
		c-0.8-0.3-1.6-0.6-2.4-1.1C209.8,164.5,201.7,159.8,193.5,163.3z"/>
	<g>
		<g>
			<path class="st11" d="M95.9,90c-3.7,0.2-7.8,1.3-11.6,4c0,0-0.1,17,4.9,17.8H96C94.6,104.7,94.6,97.3,95.9,90z"/>
			<path d="M95.8,90.1c-2,0.3-4,0.8-5.9,1.5c-1,0.4-1.9,0.8-2.8,1.3c-0.9,0.5-1.8,1-2.6,1.6l0.2-0.4c0,1.6,0,3.2,0.1,4.8
				c0.1,1.6,0.1,3.2,0.4,4.8c0.2,1.6,0.6,3.2,1.1,4.6c0.3,0.7,0.6,1.5,1.1,2.1c0.5,0.6,1.1,1.1,1.8,1.2l-0.1,0
				c2.3-0.1,4.6-0.1,6.9-0.2l-0.5,0.6c-0.8-3.6-1.2-7.3-1.1-11c0-1.8,0.1-3.7,0.4-5.5C95.1,93.6,95.4,91.8,95.8,90.1z M95.9,90
				c-0.2,1.8-0.4,3.6-0.5,5.5c-0.1,1.8-0.1,3.6-0.1,5.5c0.1,3.6,0.4,7.3,1.1,10.8l0.1,0.6l-0.6,0c-2.3,0-4.6-0.1-6.9-0.2l0,0l0,0
				c-0.9-0.2-1.6-0.9-2.1-1.6c-0.5-0.7-0.8-1.5-1.1-2.2c-0.5-1.5-0.8-3.1-1.1-4.7c-0.6-3.2-1-6.4-1-9.7l0-0.2l0.2-0.1
				c0.9-0.6,1.8-1.1,2.7-1.6c0.9-0.5,1.9-0.9,2.9-1.2C91.7,90.3,93.8,89.9,95.9,90L95.9,90L95.9,90z"/>
		</g>
		<g>
			<path class="st11" d="M109.5,92.5c0,0-6.1-2.9-13.6-2.4c-1.3,7.3-1.3,14.7,0.1,21.9h10.4C106.4,111.9,112.8,108.1,109.5,92.5z"/>
			<path d="M109.4,92.5c-1.1-0.4-2.2-0.7-3.3-1c-1.1-0.3-2.2-0.5-3.4-0.7c-1.1-0.2-2.3-0.3-3.4-0.4c-1.1-0.1-2.3,0-3.4,0l0.4-0.4
				c-0.3,1.8-0.6,3.6-0.9,5.4c-0.2,1.8-0.4,3.6-0.4,5.5c-0.1,3.7,0.4,7.3,1.3,10.9l-0.3-0.3c3.5-0.1,6.9-0.1,10.4-0.2l-0.3,0.1
				c0.6-0.4,1.1-1,1.6-1.7c0.4-0.7,0.8-1.4,1.1-2.2c0.6-1.5,0.9-3.2,1.1-4.9C110.2,99.3,109.9,95.9,109.4,92.5z M109.5,92.4
				c0.9,3.3,1.5,6.8,1.3,10.3c-0.1,1.7-0.4,3.5-1,5.2c-0.3,0.8-0.7,1.7-1.2,2.4c-0.5,0.8-1.1,1.4-1.9,2l-0.1,0.1l-0.2,0
				c-3.5,0-6.9-0.1-10.4-0.2l-0.3,0l0-0.3c-0.6-3.6-0.8-7.3-0.9-11c0-1.8,0-3.7,0.1-5.5c0.1-1.8,0.3-3.7,0.6-5.5l0.1-0.3l0.3,0
				c1.2-0.1,2.4,0,3.5,0c1.2,0.1,2.3,0.2,3.5,0.5c1.1,0.2,2.3,0.6,3.4,0.9C107.4,91.4,108.4,91.9,109.5,92.4L109.5,92.4L109.5,92.4z
				"/>
		</g>
	</g>
	<g>
		<g>
			<path class="st11" d="M95.9,90c-3.7,0.2-7.8,1.3-11.6,4c0,0-0.1,17,4.9,17.8H96C94.6,104.7,94.6,97.3,95.9,90z"/>
			<path d="M95.8,90.1c-2,0.3-4,0.8-5.9,1.5c-1,0.4-1.9,0.8-2.8,1.3c-0.9,0.5-1.8,1-2.6,1.6l0.2-0.4c0,1.6,0,3.2,0.1,4.8
				c0.1,1.6,0.1,3.2,0.4,4.8c0.2,1.6,0.6,3.2,1.1,4.6c0.3,0.7,0.6,1.5,1.1,2.1c0.5,0.6,1.1,1.1,1.8,1.2l-0.1,0
				c2.3-0.1,4.6-0.1,6.9-0.2l-0.5,0.6c-0.8-3.6-1.2-7.3-1.1-11c0-1.8,0.1-3.7,0.4-5.5C95.1,93.6,95.4,91.8,95.8,90.1z M95.9,90
				c-0.2,1.8-0.4,3.6-0.5,5.5c-0.1,1.8-0.1,3.6-0.1,5.5c0.1,3.6,0.4,7.3,1.1,10.8l0.1,0.6l-0.6,0c-2.3,0-4.6-0.1-6.9-0.2l0,0l0,0
				c-0.9-0.2-1.6-0.9-2.1-1.6c-0.5-0.7-0.8-1.5-1.1-2.2c-0.5-1.5-0.8-3.1-1.1-4.7c-0.6-3.2-1-6.4-1-9.7l0-0.2l0.2-0.1
				c0.9-0.6,1.8-1.1,2.7-1.6c0.9-0.5,1.9-0.9,2.9-1.2C91.7,90.3,93.8,89.9,95.9,90L95.9,90L95.9,90z"/>
		</g>
		<g>
			<path class="st11" d="M109.5,92.5c0,0-6.1-2.9-13.6-2.4c-1.3,7.3-1.3,14.7,0.1,21.9h10.4C106.4,111.9,112.8,108.1,109.5,92.5z"/>
			<path d="M109.4,92.5c-1.1-0.4-2.2-0.7-3.3-1c-1.1-0.3-2.2-0.5-3.4-0.7c-1.1-0.2-2.3-0.3-3.4-0.4c-1.1-0.1-2.3,0-3.4,0l0.4-0.4
				c-0.3,1.8-0.6,3.6-0.9,5.4c-0.2,1.8-0.4,3.6-0.4,5.5c-0.1,3.7,0.4,7.3,1.3,10.9l-0.3-0.3c3.5-0.1,6.9-0.1,10.4-0.2l-0.3,0.1
				c0.6-0.4,1.1-1,1.6-1.7c0.4-0.7,0.8-1.4,1.1-2.2c0.6-1.5,0.9-3.2,1.1-4.9C110.2,99.3,109.9,95.9,109.4,92.5z M109.5,92.4
				c0.9,3.3,1.5,6.8,1.3,10.3c-0.1,1.7-0.4,3.5-1,5.2c-0.3,0.8-0.7,1.7-1.2,2.4c-0.5,0.8-1.1,1.4-1.9,2l-0.1,0.1l-0.2,0
				c-3.5,0-6.9-0.1-10.4-0.2l-0.3,0l0-0.3c-0.6-3.6-0.8-7.3-0.9-11c0-1.8,0-3.7,0.1-5.5c0.1-1.8,0.3-3.7,0.6-5.5l0.1-0.3l0.3,0
				c1.2-0.1,2.4,0,3.5,0c1.2,0.1,2.3,0.2,3.5,0.5c1.1,0.2,2.3,0.6,3.4,0.9C107.4,91.4,108.4,91.9,109.5,92.4L109.5,92.4L109.5,92.4z
				"/>
		</g>
	</g>
	<g class="st3">
		<g>
			<path class="st5" d="M84.3,94.1c0,0,0,2.1,0.2,4.9c3.2-0.2,6.3-1.3,8.5-3.5c-0.8,5.3-1,11.1,0.5,16.4H96c-1-4.8-1.3-9.7-1-14.6
				c-0.3-0.2-0.6-0.4-0.9-0.6c0.3,0.2,0.6,0.4,0.9,0.6c0.1-2.4,0.4-4.8,0.9-7.2C92.2,90.3,88.1,91.3,84.3,94.1z"/>
			<path class="st5" d="M109.5,92.5c0,0-6.1-2.9-13.6-2.4c-0.4,2.4-0.7,4.8-0.9,7.2c3.5,2,8.6,3.1,10.8,5.3c3.8,2.8-1.6,7.2-6.8,9.4
				h7.4C106.4,111.9,112.8,108.1,109.5,92.5z"/>
		</g>
	</g>
	<g>
		<circle class="st0" cx="50.6" cy="57.8" r="36.2"/>
		<g>
			<path d="M86.9,57.8c0.1,9.5-3.7,19-10.4,25.8c-3.3,3.4-7.4,6.2-11.8,8c-4.4,1.9-9.2,2.8-14,2.8c-4.8,0-9.6-1-14-2.9
				c-4.4-1.9-8.4-4.6-11.8-8c-3.3-3.4-6.1-7.4-7.9-11.8c-1.8-4.4-2.8-9.2-2.9-13.9c-0.1-9.6,3.7-19.2,10.6-26
				c3.4-3.4,7.4-6.2,11.9-8c4.4-1.9,9.3-2.8,14.1-2.8c4.8,0,9.6,0.9,14.1,2.8c4.4,1.9,8.5,4.6,11.8,8.1
				C83.1,38.8,86.9,48.3,86.9,57.8z M86.8,57.8c0-4.7-1-9.5-2.8-13.8c-1.9-4.3-4.6-8.3-8-11.6c-6.7-6.6-16-10.4-25.4-10.3
				c-9.4,0-18.7,3.8-25.3,10.4c-3.3,3.3-6,7.2-7.8,11.6c-1.8,4.3-2.8,9-2.8,13.7c-0.1,9.4,3.7,18.9,10.5,25.5
				c6.7,6.7,16.1,10.4,25.5,10.3c9.4,0,18.7-3.8,25.4-10.4c3.4-3.3,6.1-7.2,8-11.6C85.8,67.3,86.7,62.6,86.8,57.8z"/>
		</g>
	</g>
	<path class="st10" d="M50.6,21.6c-10.7,0-20.3,4.6-26.9,12c19.6-5.1,51.8-1.4,42.4,15.2c-5.8,12.9-18.7,23.4-30.4,33.9
		c-2.9,2.4-8.3,0.6-14-3c6.6,8.8,17.1,14.4,28.9,14.4c20,0,36.2-16.2,36.2-36.2S70.6,21.6,50.6,21.6z"/>
	<g>
		<g>
			<path class="st0" d="M239.1,56.2c0-23.5-19-42.5-42.5-42.5c-20,0-36.8,13.8-41.3,32.4c-9.8-3.4-20.5-5.2-31.8-5.2
				c-45.9,0-78.8,30.8-78.8,68.8c0,11.1,4.1,19.2,6.7,27.6c5.5,17.6,17.2,30,51.9,33.1c-1,2.7-2.9,7.6-3.7,9c0,0-28.9,51.5,0,86.4
				c0,0,9.3,16.2,10.8-4.3l2.1-12.6l2.3,0.1c-2.1-0.3-4.3-0.8-6.6-1.5c2.3,0.8,4.5,1.3,6.6,1.5l5.1,0.1c2.6-0.2,5.3-0.7,8.1-1.7
				c-2.9,0.9-5.5,1.5-8.1,1.7l2.9,0.1c0,0,7.4,26,13.2,23.7c0,0,37.4-30.7,5.9-101.7v-1c46.3-4.8,64.7-27,64.7-60.5
				c0-4.1-0.4-8-1.3-11.9C224.6,93.8,239.1,76.7,239.1,56.2z M135.6,167.1c0,0-73.1,6.1-75.4-24l-1.5-24.5c0,0,0-14.9,12-27.6
				c0,0,3.8,14.5,20.5,3.9c0,0,29.2,15.7,56.7-6.1c0,0,29.8,12.3,28.3,39.7l2.9,15.2C179.2,143.7,186.8,167.7,135.6,167.1z"/>
		</g>
		<g>
			<path d="M239,56.2c0-10.3-3.9-20.5-10.7-28.1c-6.8-7.7-16.5-12.8-26.6-13.9c-10.2-1.2-20.7,1.4-29.1,7.3
				c-8.4,5.8-14.6,14.8-16.9,24.7l-0.1,0.4l-0.3-0.1c-9.6-3.3-19.7-4.9-29.8-5.1c-10.1-0.2-20.2,1.2-29.9,4.2
				c-9.6,3-18.7,7.8-26.5,14.3c-7.8,6.4-14.2,14.6-18.3,23.8c-4.2,9.2-6.1,19.4-5.5,29.5c0.3,5,1.6,10,3.3,14.8l2.5,7.2
				c0.8,2.4,1.5,4.8,2.5,7.2c1.9,4.7,4.6,9.1,8.1,12.7c3.5,3.6,7.8,6.5,12.4,8.6c4.6,2.1,9.5,3.6,14.4,4.7c5,1.1,10,1.7,15,2.2
				l0.3,0l-0.1,0.2c-0.8,2-1.5,3.9-2.3,5.9c-0.4,1-0.8,2-1.3,2.9c-0.5,0.9-1,1.9-1.4,2.8c-1.8,3.8-3.5,7.7-4.9,11.6
				c-2.9,7.9-5,16.1-5.9,24.5c-1,8.3-0.8,16.9,1.2,25c1.9,8.2,5.7,15.9,11.1,22.3l0,0l0,0c0.9,1.5,1.9,2.9,3.1,4.1
				c0.6,0.6,1.3,1.2,2,1.5c0.7,0.3,1.5,0.4,2.1-0.1c0.6-0.5,1-1.2,1.4-2c0.3-0.8,0.5-1.6,0.7-2.5c0.4-1.7,0.6-3.4,0.7-5.2l0,0l0,0
				l2.1-12.6l0.1-0.4l0.4,0l2.3,0.1l-0.1,0.9c-2.3-0.3-4.5-0.8-6.7-1.5l0.3-0.9c2.1,0.7,4.3,1.2,6.6,1.5l0,0l5.1,0.1l0,0
				c2.7-0.2,5.4-0.8,8-1.7l0.3,0.9c-2.7,0.9-5.4,1.5-8.2,1.7l0-0.9l2.9,0.1l0.3,0l0.1,0.3c1.3,4.5,2.9,9,4.7,13.3
				c0.9,2.2,1.9,4.3,3.1,6.3c0.6,1,1.3,1.9,2.1,2.7c0.8,0.8,1.8,1.4,2.7,1l-0.1,0.1c3.3-2.9,6-6.6,8.4-10.4
				c2.3-3.8,4.2-7.9,5.7-12.1c3-8.5,4.3-17.5,4.2-26.5c0-9-1.4-18-3.6-26.7c-2.2-8.7-5.3-17.2-9-25.5l0-0.1v-0.1l0-1l0-0.5l0.4,0
				c9.2-0.9,18.4-2.6,27.1-5.7c8.7-3.1,16.9-7.7,23.3-14.4c3.2-3.3,5.9-7.1,8-11.2c2.1-4.1,3.6-8.5,4.6-13c1-4.5,1.5-9.1,1.6-13.8
				c0.2-4.6-0.3-9.3-1.2-13.8l0-0.2l0.2,0c9.4-1.9,18.1-7.2,24.2-14.7c3-3.7,5.4-8,7.1-12.5C238.2,65.9,239,61,239,56.2z
				 M239.1,56.2c0,4.8-0.8,9.7-2.4,14.2c-1.6,4.6-4,8.8-7,12.6c-6.1,7.6-14.8,12.9-24.3,14.9l0.1-0.2c1,4.5,1.4,9.2,1.3,13.9
				c-0.1,4.6-0.6,9.3-1.5,13.9c-1,4.6-2.5,9-4.6,13.2c-2.1,4.2-4.8,8-8,11.4c-6.4,6.8-14.8,11.5-23.5,14.7c-8.8,3.2-18,4.9-27.2,5.9
				l0.4-0.5l0,1l0-0.2c3.7,8.3,6.8,16.8,9,25.6c2.2,8.8,3.6,17.8,3.6,26.9c0,9.1-1.3,18.2-4.3,26.8c-1.5,4.3-3.4,8.4-5.8,12.3
				c-2.4,3.9-5.1,7.5-8.6,10.6l0,0l-0.1,0c-0.7,0.3-1.5,0.2-2.1-0.1c-0.6-0.3-1.1-0.7-1.6-1.1c-0.9-0.9-1.6-1.9-2.2-2.9
				c-1.3-2.1-2.3-4.2-3.2-6.4c-1.9-4.4-3.4-8.9-4.7-13.5l0.4,0.3l-2.9-0.1l0-0.9c2.7-0.2,5.4-0.8,8-1.6l0.3,0.9
				c-2.7,0.9-5.4,1.5-8.2,1.7l0,0h0l-5.1-0.1l0,0l0,0c-2.3-0.3-4.5-0.8-6.7-1.5l0.3-0.9c2.1,0.7,4.3,1.2,6.6,1.5l-0.1,0.9l-2.3-0.1
				l0.4-0.4l-2.1,12.6l0,0c-0.1,1.8-0.3,3.5-0.7,5.3c-0.2,0.9-0.4,1.7-0.8,2.6c-0.4,0.8-0.8,1.7-1.6,2.3c-0.4,0.3-0.9,0.5-1.4,0.5
				c-0.5,0-1-0.1-1.4-0.3c-0.9-0.4-1.6-1-2.2-1.6c-1.3-1.3-2.3-2.8-3.2-4.3l0,0.1c-5.4-6.5-9.2-14.4-11.2-22.6
				c-1.9-8.3-2.1-16.9-1.1-25.2c1-8.4,3.1-16.6,6-24.6c1.5-4,3.1-7.9,5-11.7c0.5-0.9,1-1.9,1.5-2.8c0.5-0.9,0.9-1.9,1.3-2.9
				c0.8-1.9,1.6-3.9,2.3-5.9l0.2,0.3c-5.1-0.5-10.1-1.2-15.1-2.2c-5-1.1-9.9-2.6-14.5-4.7c-4.6-2.1-9-5-12.5-8.6
				c-3.6-3.6-6.3-8.1-8.2-12.8c-1-2.3-1.7-4.8-2.5-7.2l-2.5-7.2c-1.7-4.8-3-9.8-3.4-14.9c-0.6-10.2,1.3-20.5,5.5-29.8
				c4.2-9.3,10.6-17.6,18.4-24.1c7.8-6.6,17-11.4,26.7-14.5c9.7-3.1,20-4.4,30.2-4.2c10.2,0.2,20.3,2,30,5.3l-0.4,0.2
				c2.5-10.1,8.8-19.1,17.3-25c4.3-2.9,9-5.1,14.1-6.3c5-1.2,10.3-1.5,15.4-0.9c10.3,1.2,20,6.4,26.8,14.1
				C235.3,35.6,239.2,45.9,239.1,56.2z"/>
			<path d="M135.6,167.2c-5.9,0.4-11.7,0.6-17.6,0.6c-5.9,0-11.7-0.3-17.6-0.9c-5.8-0.6-11.7-1.5-17.4-3c-5.7-1.6-11.3-3.7-16-7.5
				c-2.3-1.9-4.3-4.2-5.6-6.9c-0.7-1.4-1.1-2.8-1.4-4.3c-0.3-1.5-0.3-3-0.4-4.4l-0.9-17.6l-0.2-4.4c0-1.5,0.2-3,0.5-4.4
				c0.5-2.9,1.3-5.8,2.3-8.5c2.1-5.5,5.3-10.6,9.3-14.9l0.2-0.2l0.1,0.3c0.6,1.9,1.7,3.8,3.2,5.2c1.5,1.4,3.5,2.3,5.5,2.4
				c2,0.2,4.1-0.3,6-1c1.9-0.7,3.8-1.7,5.5-2.8l0.1-0.1l0.1,0.1c4.5,2.2,9.3,3.6,14.2,4.5c4.9,0.9,9.9,1.1,14.9,0.6
				c5-0.5,9.8-1.8,14.4-3.7c4.6-1.9,8.9-4.5,12.8-7.6l0.2-0.2l0.3,0.1c4,1.8,7.8,4.1,11.3,6.7c3.5,2.6,6.7,5.6,9.4,9.1
				c2.7,3.4,4.9,7.3,6.3,11.5c1.4,4.2,2,8.6,1.7,13l0-0.1l2.8,15.2l0,0c0.6,2.4,0.5,4.9-0.2,7.2c-0.7,2.3-1.9,4.5-3.6,6.2
				c-3.3,3.5-7.8,5.6-12.2,7c-4.5,1.4-9.2,2.1-13.9,2.6C145,167.1,140.3,167.2,135.6,167.2z M135.6,167.1c4.7,0,9.4-0.1,14.1-0.6
				c4.7-0.5,9.3-1.3,13.8-2.8c4.4-1.5,8.8-3.6,11.9-7.1c1.5-1.7,2.7-3.8,3.3-6c0.6-2.2,0.7-4.6,0.1-6.7l0,0l0,0l-3-15.2l0-0.1l0-0.1
				c0.2-4.3-0.3-8.6-1.7-12.6c-1.4-4-3.5-7.8-6.1-11.2c-2.7-3.4-5.8-6.3-9.2-8.9c-3.4-2.6-7.1-4.9-11-6.6l0.5-0.1
				c-4,3.1-8.3,5.8-13,7.7c-4.7,1.9-9.6,3.2-14.7,3.6c-5,0.5-10.1,0.2-15.1-0.7c-5-0.9-9.8-2.4-14.3-4.7l0.2,0
				c-1.8,1.1-3.6,2.1-5.6,2.8c-2,0.7-4.1,1.2-6.2,1c-2.1-0.2-4.2-1.1-5.7-2.5c-1.5-1.5-2.6-3.3-3.2-5.4l0.3,0.1
				c-4,4.3-7.1,9.3-9.2,14.8c-1,2.7-1.8,5.6-2.2,8.5c-0.2,1.4-0.4,2.9-0.4,4.3l0.3,4.4l1.2,17.6c0.1,1.5,0.1,2.9,0.4,4.3
				c0.3,1.4,0.7,2.8,1.3,4.1c1.2,2.6,3.2,4.8,5.4,6.6c4.5,3.6,10.1,5.8,15.6,7.4c5.6,1.6,11.4,2.6,17.2,3.3
				C112.1,167.7,123.9,167.9,135.6,167.1z"/>
		</g>
	</g>
	<path class="st10" d="M139.7,171.5c-2.3,17.5,2.3,32.7,1.2,50.3c0,1.2,3.5,5.8,8.2,4.7c-2.2,13.3-5.5,40.1-21.6,36.1
		c2.5,6,5.7,11.5,8.5,10.4c0,0,37.2-30.5,6.2-101.1C141.2,171.8,140.3,171.5,139.7,171.5z"/>
	<path class="st10" d="M109.7,267c0.3-1.4,0.6-3.2,0.8-5.5l2.1-12.6l2.3,0.1c-1.7-0.2-3.5-0.6-5.3-1.1
		C109.8,254.3,108.8,260.6,109.7,267z"/>
	<path class="st10" d="M147.9,88.8c0,0,0.1,0,0.2,0.1c-0.9-2-2.3-3.4-3.7-2.7c-11.4,7.3-22.8,12.7-35.9,13.8
		C119.3,101.3,133.8,100,147.9,88.8z"/>
	<path class="st10" d="M79.3,98.7c-2.9-1.9-5.1-4.5-6-8.5c-0.8,0.5-1.6,1-2.4,1.5C71.6,93.4,73.9,98.1,79.3,98.7z"/>
	<path class="st10" d="M68.6,93.5C54.8,105,53.8,126,60.2,142.9l-1.4-24.3C58.7,118.6,58.7,105.6,68.6,93.5z"/>
	<path class="st10" d="M239.1,56.2c0-6-1.2-11.7-3.5-16.9c0.8,9-0.6,18.3-3.5,27c-5.8,17.5-23.4,26.9-42.1,28.1
		c7.2,26.2-3,60.1-27,72c30.9-8.7,43.6-28.8,43.6-56.6c0-4.1-0.4-8-1.3-11.9C224.6,93.8,239.1,76.7,239.1,56.2z"/>
	<g>
		<circle class="st10" cx="131.5" cy="78" r="4.6"/>
		<circle cx="130.3" cy="78" r="4.6"/>
		<circle class="st11" cx="128" cy="77.2" r="0.8"/>
	</g>
	<linearGradient id="SVGID_3_" gradientUnits="userSpaceOnUse" x1="177.2261" y1="33.3018" x2="218.7317" y2="74.8074">
		<stop  offset="1.818180e-002" style="stop-color:#078D9E"/>
		<stop  offset="1" style="stop-color:#078D9E;stop-opacity:0"/>
	</linearGradient>
	<path class="st4" d="M201,86c0,0-26.3-8.7-32.1-34.4c-5.8-25.7,36.7-29.1,45.2-17.1c0,0,17,11.9,10.1,31.3
		C219.4,79.6,213.1,80.5,201,86z"/>
	<g>
		<ellipse class="st10" cx="70.5" cy="78" rx="4.3" ry="4.6"/>
		<ellipse cx="69.4" cy="78" rx="4.3" ry="4.6"/>
		<ellipse class="st11" cx="67.3" cy="77.2" rx="0.7" ry="0.8"/>
	</g>
	<path class="st10" d="M100.8,80.5c0,2-3.4,7.2-7.7,7.2s-7.7-5.1-7.7-7.2s3.4-3.7,7.7-3.7S100.8,78.5,100.8,80.5z"/>
	<path d="M99.7,81.6c0,2-3.4,7.2-7.7,7.2s-7.7-5.1-7.7-7.2S87.7,78,92,78S99.7,79.6,99.7,81.6z"/>
	<g>
		<path class="st13" d="M196.9,83.5c-3.5-1.4-7.1-3.8-10.7-6.8c1.5,0,3.1-0.4,4.6-1.6c2.9-2.3,3.8-6.1,1.9-8.5
			c-1.6-2.1-4.7-2.4-7.4-1c1.5-2.2,1.7-4.9,0.3-6.7c-1.9-2.4-5.8-2.5-8.7-0.2c-1.6,1.2-2.6,2.9-2.8,4.5c-5.2-8.1-5.8-16.2,2.4-24.6
			c11.2-11.7,29.6-12.3,41.1-1.4c5.3,5.1,8.2,11.7,8.6,18.5c-0.4-7.5-3.6-14.9-9.4-20.6c-12.3-11.8-31.8-11.4-43.6,0.9
			c-11.8,12.3-5.9,24,6.2,36.1c6.5,6.5,12.9,11.1,19.1,12.8C197.9,84.5,197.4,84,196.9,83.5z"/>
		<g>
			<path d="M196.9,83.5c-4-1.6-7.5-4-10.8-6.7l-0.5-0.4l0.6,0c1.8,0,3.6-0.8,4.9-2c1.3-1.2,2.2-3,2.2-4.8c0-1.8-1.1-3.5-2.7-4.1
				c-1.7-0.6-3.6-0.4-5.2,0.5l-1.4,0.7l0.9-1.3c1-1.4,1.5-3.3,1-5c-0.3-0.8-0.8-1.5-1.4-2c-0.7-0.5-1.5-0.8-2.4-0.9
				c-1.7-0.2-3.5,0.4-4.9,1.5c-1.4,1.1-2.4,2.6-2.7,4.3l-0.2,1.1l-0.6-1c-2.1-3.3-3.8-7.1-3.9-11.2c0-2,0.3-4,1-5.9
				c0.7-1.9,1.7-3.6,2.9-5.2c2.4-3.1,5.4-5.8,8.8-7.8c3.4-2,7.2-3.3,11.1-3.9c7.8-1.1,16,1,22.2,5.9c3.1,2.4,5.7,5.5,7.5,9
				c1.8,3.5,2.9,7.4,3.2,11.3l-0.6,0c-0.3-5.6-2.3-11.1-5.5-15.7c-3.3-4.6-7.8-8.3-12.9-10.5c-5.2-2.2-10.9-2.9-16.5-2.1
				c-5.5,0.8-10.8,3.2-15.1,6.8c-2.1,1.8-4.1,3.9-5.6,6.2c-1.5,2.3-2.6,4.9-3,7.7c-0.3,2.7,0.1,5.6,1.1,8.2c1,2.6,2.4,5.1,4,7.4
				c1.6,2.3,3.5,4.5,5.4,6.5c1.9,2.1,4,4.1,6.1,5.9c4.3,3.7,9,7.1,14.5,8.7l-0.1,0.1C197.8,84.5,197.3,84,196.9,83.5z M196.9,83.5
				c0.5,0.5,1,1,1.5,1.5l0.2,0.2l-0.3-0.1c-2.8-0.7-5.4-1.9-7.8-3.4c-2.5-1.5-4.8-3.2-6.9-5c-2.2-1.9-4.2-3.8-6.2-5.9
				c-2-2.1-3.9-4.2-5.6-6.5c-1.7-2.3-3.2-4.8-4.2-7.5c-1-2.7-1.6-5.7-1.2-8.6c0.3-2.9,1.4-5.7,3-8.1c1.6-2.4,3.6-4.6,5.8-6.5
				c4.4-3.8,9.9-6.2,15.6-7.1c5.7-0.8,11.7-0.1,17,2.3c5.3,2.3,9.9,6.1,13.2,10.9c3.3,4.7,5.2,10.4,5.5,16.2l-0.6,0
				c-0.2-3.9-1.3-7.7-3.1-11.1c-1.8-3.4-4.3-6.5-7.3-8.9c-3-2.4-6.6-4.2-10.3-5.2c-3.8-1-7.7-1.2-11.6-0.6
				c-7.7,1.1-14.8,5.5-19.3,11.8c-2.3,3.1-3.8,6.8-3.6,10.6c0.1,3.8,1.7,7.5,3.8,10.7l-0.8,0.2c0.4-2,1.6-3.7,3.1-4.9
				c1.5-1.2,3.5-1.9,5.5-1.6c1,0.1,2,0.5,2.8,1.1c0.8,0.6,1.4,1.5,1.7,2.4c0.6,2,0,4-1.1,5.6l-0.5-0.6c1.7-0.9,3.9-1.2,5.8-0.4
				c0.9,0.4,1.8,1.1,2.3,1.9c0.6,0.9,0.8,1.9,0.8,2.9c0,2-1.1,3.9-2.5,5.2c-1.4,1.3-3.4,2.2-5.3,2.1l0.1-0.4
				C189.5,79.3,193,81.8,196.9,83.5L196.9,83.5L196.9,83.5z"/>
		</g>
	</g>
	<path class="st8" d="M152.6,130c0.3,0.8-3,2.6-7.3,3.9c-4.3,1.4-7.9,1.8-8.2,1c-0.3-0.8,3-2.6,7.3-3.9
		C148.7,129.6,152.3,129.2,152.6,130z"/>
	<ellipse transform="matrix(0.9522 -0.3054 0.3054 0.9522 -33.4932 50.2046)" cx="143.7" cy="132.1" rx="8.1" ry="1.5"/>
	<ellipse transform="matrix(0.8201 0.5722 -0.5722 0.8201 90.0789 -19.4152)" class="st8" cx="75.9" cy="133.6" rx="5.5" ry="1.5"/>
	<ellipse transform="matrix(0.8202 0.572 -0.572 0.8202 89.8302 -18.7504)" cx="74.7" cy="133.6" rx="5.5" ry="1.5"/>
	<g>
		<path class="st0" d="M140.7,170.1c0,0,21.1,13.5,23.8,26.1c2.7,12.5-9.6,21.9-9.6,21.9s7.1,6.4,4.6,7.9c-2.5,1.5-8.1,3.2-15.5-5.3
			c0,0,4.9-14.4,0.5-26.2"/>
		<path d="M140.8,170c4.4,2.7,8.5,5.7,12.3,9.2c3.8,3.4,7.4,7.2,9.8,11.8c1.2,2.3,2,4.8,2.2,7.4c0.2,2.6-0.2,5.2-1.1,7.6
			c-0.8,2.4-2.1,4.7-3.6,6.8c-1.5,2.1-3.2,4-5.2,5.7l0-0.5c1.7,1.6,3.4,3.2,4.7,5.2c0.3,0.5,0.6,1.1,0.7,1.8c0,0.4,0,0.8-0.3,1.1
			c-0.1,0.2-0.3,0.3-0.5,0.4l-0.4,0.2c-1.1,0.6-2.3,0.9-3.5,1c-2.5,0.2-4.9-0.7-6.9-1.9c-2-1.3-3.7-3-5.3-4.7l-0.2-0.2l0.1-0.3
			c0.7-2.1,1.2-4.2,1.6-6.4c0.4-2.2,0.7-4.4,0.8-6.6c0.3-4.4-0.1-8.9-1.5-13.1l0.1,0c1.7,4.1,2.2,8.7,2.1,13.2
			c-0.1,2.2-0.3,4.5-0.7,6.7c-0.4,2.2-0.8,4.4-1.5,6.6l-0.1-0.5c1.5,1.7,3.2,3.3,5.1,4.5c1.9,1.2,4,2,6.2,1.9
			c1.1-0.1,2.2-0.4,3.1-0.9c0.6-0.3,0.7-0.4,0.7-0.8c0-0.4-0.3-1-0.5-1.4c-1.1-1.9-2.8-3.6-4.4-5.2l-0.3-0.3l0.3-0.2
			c3.9-3.1,7.3-7.2,9-12c0.8-2.4,1.2-4.9,0.9-7.4c-0.2-2.5-1.1-4.9-2.4-7.1c-1.3-2.2-2.8-4.2-4.4-6.1c-1.6-1.9-3.4-3.7-5.3-5.5
			C148.8,176.3,144.8,173.1,140.8,170L140.8,170z"/>
	</g>
	<path class="st10" d="M154.9,218.1c0,0,9.1-7,9.9-16.9c-3.3,5.8-11.1,10.6-11.1,17c0,1.2,2.3,2.3,2.3,4.7c-0.7,2.2-2.3,3-4.3,3.6
		c3.5,1.3,6.2,0.3,7.7-0.6C162,224.5,154.9,218.1,154.9,218.1z"/>
	<ellipse transform="matrix(0.9844 -0.1761 0.1761 0.9844 -12.7676 16.7715)" class="st11" cx="88.1" cy="80.3" rx="2.1" ry="0.6"/>
	<g>
		<g>
			<path d="M125.7,88.5c4.3-2.4,9-3.9,13.8-5.1c4.8-1.2,9.6-2,14.5-2.6c4.9-0.5,9.8-0.8,14.7-0.8c2.5,0,4.9,0.1,7.4,0.2
				c2.4,0.1,4.9,0.3,7.3,0.6c-2.5,0-4.9-0.1-7.3-0.1c-2.4,0-4.9,0-7.3,0.1c-4.9,0.2-9.8,0.4-14.6,1c-4.9,0.5-9.7,1.3-14.4,2.4
				c-2.4,0.5-4.7,1.1-7.1,1.9C130.2,86.7,127.9,87.5,125.7,88.5z"/>
		</g>
		<g>
			<path d="M123.7,92c4.5-1.2,9.2-1.8,13.9-2.2c4.7-0.4,9.4-0.4,14.1-0.1c4.7,0.3,9.4,0.9,14,1.8c2.3,0.5,4.6,1,6.8,1.7
				c2.2,0.7,4.5,1.4,6.7,2.3c-4.5-1.3-9-2.4-13.6-3.2c-4.6-0.8-9.2-1.4-13.9-1.6c-4.6-0.3-9.3-0.3-14-0.1c-2.3,0.1-4.7,0.3-7,0.5
				C128.4,91.3,126,91.6,123.7,92z"/>
		</g>
		<g>
			<path d="M121.7,94.4c5.3,1.4,10.5,3,15.7,4.6c5.2,1.6,10.4,3.2,15.6,4.8c5.2,1.7,10.4,3.3,15.6,5l7.8,2.6
				c2.6,0.9,5.2,1.8,7.7,2.7c-2.6-0.7-5.2-1.5-7.9-2.2l-7.8-2.3c-5.2-1.6-10.4-3.2-15.6-4.8c-5.2-1.7-10.4-3.3-15.6-5
				C132,97.9,126.8,96.2,121.7,94.4z"/>
		</g>
	</g>
	<g>
		<g>
			<path d="M76.6,88.7c-1.7-0.9-3.4-1.6-5.2-2.3c-1.8-0.7-3.6-1.2-5.4-1.7c-3.6-1-7.4-1.7-11.1-2.2c-3.7-0.5-7.5-0.8-11.3-0.9
				c-3.8-0.1-7.6-0.1-11.4,0C36,81.2,39.8,81,43.6,81c3.8,0,7.6,0.3,11.4,0.8c3.8,0.5,7.5,1.3,11.2,2.4
				C69.8,85.3,73.4,86.6,76.6,88.7z"/>
		</g>
		<g>
			<path d="M78.1,91.9c-1.8-0.4-3.6-0.6-5.3-0.8c-1.8-0.2-3.6-0.4-5.4-0.5c-3.6-0.2-7.2-0.2-10.8,0.1c-3.6,0.2-7.2,0.7-10.7,1.5
				c-3.5,0.7-7,1.7-10.4,2.9c1.6-0.7,3.3-1.4,5.1-2c1.7-0.6,3.5-1.1,5.2-1.5c3.5-0.9,7.1-1.4,10.8-1.7c3.6-0.2,7.3-0.2,10.9,0.1
				C71,90.3,74.6,90.8,78.1,91.9z"/>
		</g>
		<g>
			<path d="M79.7,94c-3.9,1.6-7.9,3.2-11.9,4.7l-12,4.5l-12,4.4c-4,1.4-8,2.8-12.1,4.2c3.9-1.6,7.9-3.2,11.9-4.7l12-4.5l12-4.4
				C71.6,96.7,75.6,95.3,79.7,94z"/>
		</g>
	</g>
	<path class="st6" d="M171.6,143.2c0,2.6-5.6,4.7-12.6,4.7c-6.9,0-12.6-2.1-12.6-4.7c0-2.6,5.6-4.7,12.6-4.7
		C165.9,138.5,171.6,140.6,171.6,143.2z"/>
	<ellipse class="st11" cx="167.4" cy="140" rx="4.1" ry="1.5"/>
	<path class="st6" d="M76.6,143.1c0,1.6-2.8,2.8-6.3,2.8s-6.3-1.3-6.3-2.8c0-1.6,2.8-2.8,6.3-2.8S76.6,141.5,76.6,143.1z"/>
	<ellipse class="st11" cx="65.1" cy="140.7" rx="2.8" ry="1.2"/>
	<path class="st10" d="M112,170.1c0,0,9.7,1.9,19.8,0C131.8,170.1,120.2,175,112,170.1z"/>
	<g class="st2">
		<path class="st11" d="M98.7,191.9l-2.2,10.5c-0.7,3.5-1.4,7-2,10.4c-0.6,3.5-1,7-1.3,10.5c-0.3,3.5-0.3,7-0.1,10.7
			c-1.5-3.3-2.1-7-2.3-10.7c-0.2-3.7,0.1-7.3,0.7-10.9c0.6-3.6,1.5-7.1,2.7-10.6C95.4,198.4,96.8,195,98.7,191.9z"/>
	</g>
</g>
</svg>
