<?xml version="1.0" encoding="utf-8"?>
<!-- Generator: Adobe Illustrator 15.1.0, SVG Export Plug-In . SVG Version: 6.00 Build 0)  -->
<!DOCTYPE svg PUBLIC "-//W3C//DTD SVG 1.1//EN" "http://www.w3.org/Graphics/SVG/1.1/DTD/svg11.dtd">
<svg version="1.1" id="Layer_1" xmlns="http://www.w3.org/2000/svg" xmlns:xlink="http://www.w3.org/1999/xlink" x="0px" y="0px"
	 width="142px" height="179px" viewBox="0 0 142 179" style="enable-background:new 0 0 142 179;" xml:space="preserve">
<style type="text/css">
<![CDATA[
	.st0{opacity:0.48;fill:#BC9A79;}
	.st1{fill:#4C2706;}
	.st2{opacity:0.25;}
	.st3{opacity:0.48;}
	.st4{fill:#EFBA6C;}
	.st5{opacity:0.1;fill:#4C2706;}
	.st6{fill:#F9D3AA;}
	.st7{fill:#934600;}
	.st8{opacity:0.52;fill:#FF9999;}
	.st9{opacity:0.1;}
	.st10{fill:#FFCE00;}
	.st11{fill:#FFFFFF;}
	.st12{opacity:0.23;fill:#4C2706;}
	.st13{fill:#3A1E01;}
	.st14{opacity:0.48;fill:#4C2706;}
]]>
</style>
<g>
	<g>
		<path class="st4" d="M54.8,141.4c0,0-5.3-11.2-25.1-10c-19.8,1.1-18.1-17.9-18.1-17.9s-10.3,15.8,12.1,32
			c22.4,16.2,28.1,12.8,33.9,0.2C63.4,133.1,54.8,141.4,54.8,141.4z"/>
		<path d="M54.7,141.4c-1.2-2.1-3-3.8-5-5.1c-2-1.4-4.1-2.4-6.4-3.1c-4.6-1.4-9.4-1.7-14.2-1.4c-2.4,0.1-4.9-0.1-7.3-0.8
			c-2.4-0.7-4.6-2-6.3-3.9c-1.7-1.8-2.8-4.1-3.5-6.4c-0.6-2.4-0.9-4.8-0.8-7.2l0.3,0.1c-1,1.6-1.6,3.5-2,5.3
			c-0.4,1.9-0.4,3.8-0.2,5.7c0.4,3.8,2,7.4,4.2,10.5c2.2,3.1,4.9,5.8,7.9,8.2c3,2.3,6.2,4.5,9.4,6.5c3.2,2,6.6,3.9,10.2,5.2
			c1.8,0.6,3.6,1,5.5,0.9c1.8-0.1,3.6-0.8,5-2c1.4-1.2,2.6-2.7,3.5-4.4c1-1.6,1.8-3.3,2.6-5.1c0.4-0.9,0.8-1.8,1.1-2.6
			c0.2-0.4,0.3-0.9,0.4-1.4c0.1-0.4,0.2-0.9,0.1-1.3c-0.1-0.4-0.6-0.3-1-0.1c-0.4,0.2-0.8,0.4-1.2,0.7
			C56.3,140.2,55.5,140.8,54.7,141.4L54.7,141.4L54.7,141.4z M54.8,141.3c0.7-0.7,1.4-1.3,2.1-1.9c0.4-0.3,0.8-0.6,1.3-0.8
			c0.2-0.1,0.5-0.2,0.8-0.2c0.3,0,0.6,0.2,0.7,0.5c0.2,0.5,0.1,1.1,0,1.5c-0.1,0.5-0.2,1-0.4,1.4c-0.3,0.9-0.7,1.8-1,2.7
			c-0.8,1.8-1.6,3.5-2.6,5.2c-1,1.7-2.1,3.3-3.6,4.6c-1.5,1.3-3.5,2.2-5.5,2.3c-2,0.2-4-0.3-5.9-0.9c-3.7-1.3-7.1-3.2-10.4-5.2
			c-3.3-2.1-6.4-4.3-9.5-6.7c-3-2.4-5.7-5.3-7.9-8.5c-2.2-3.2-3.7-7-4-10.8c-0.4-3.9,0.4-7.8,2.3-11.2l0.3-0.6l0,0.7
			c-0.2,4.7,1.1,9.8,4.4,13.2c1.6,1.7,3.8,2.8,6,3.5c2.3,0.7,4.7,0.8,7,0.7c4.8-0.3,9.8,0,14.4,1.6c2.3,0.8,4.5,1.9,6.5,3.4
			C51.9,137.4,53.7,139.2,54.8,141.3z"/>
	</g>
	<g>
		<g>
			<path class="st13" d="M54.3,140.8c-2-1.4-4.2-2.7-6.4-3.7c-2.2-1.1-4.5-2-6.8-2.7c-2.3-0.7-4.8-1.1-7.2-1.1
				c-1.2,0-2.4,0.1-3.6,0.4c-0.6,0.1-1.2,0.3-1.8,0.5c-0.6,0.2-1.2,0.3-1.9,0.4c-2.5,0.3-5.1-0.1-7.4-1.4c-2.2-1.2-4-3.1-5.4-5.2
				c-2.7-4.2-3.9-9.4-3-14.3c-0.3,2.4-0.1,4.9,0.5,7.3c0.6,2.4,1.6,4.6,3,6.6c1.4,2,3.1,3.8,5.2,4.9c2.1,1.2,4.6,1.6,6.9,1.2
				c0.6-0.1,1.2-0.2,1.8-0.4c0.6-0.2,1.2-0.3,1.8-0.5c1.2-0.2,2.5-0.4,3.7-0.3c2.5,0,5,0.5,7.4,1.2C46,135.3,50.4,137.7,54.3,140.8z
				"/>
		</g>
		<g>
			<path class="st13" d="M54.6,141.2c-2.1-1.1-4.3-1.9-6.5-2.7c-2.2-0.7-4.5-1.3-6.8-1.5c-2.3-0.2-4.7-0.2-6.9,0.3
				c-1.1,0.3-2.2,0.7-3.2,1.3c-1,0.6-2.1,1.2-3.3,1.5c-2.4,0.6-5,0.1-7.1-1.1c-2.1-1.1-4-2.8-5.5-4.6c-3-3.7-5-8.2-5.5-12.9
				c0.4,2.3,1.1,4.6,2.1,6.7c1,2.1,2.3,4.1,3.8,5.9c1.5,1.8,3.3,3.3,5.3,4.4c2,1.1,4.4,1.5,6.6,0.9c1.1-0.3,2.1-0.7,3.1-1.4
				c1.1-0.6,2.2-1,3.4-1.3c2.4-0.6,4.8-0.6,7.1-0.2C46,137.1,50.5,138.9,54.6,141.2z"/>
		</g>
		<g>
			<path class="st13" d="M11.4,113.4c-0.7,5.5-0.8,11.2,0.8,16.5c0.8,2.6,2,5.1,3.8,7.2c1.8,2.1,4.1,3.7,6.5,4.8
				c5,2.2,10.7,2.6,16.2,2.3c5.5-0.4,11-1.4,16.2-3.1l2.5-0.8l-2.2,1.4c-2.8,1.8-5.8,3.1-8.9,4.2c-3.1,1-6.4,1.7-9.6,1.8
				c-3.3,0.1-6.6-0.3-9.7-1.4c-3.1-1.1-5.9-2.8-8.4-4.9c2.5,2.1,5.4,3.7,8.5,4.7c3.1,1,6.4,1.3,9.6,1.2c3.2-0.2,6.4-0.9,9.5-1.9
				c3-1,6-2.4,8.7-4.1l0.3,0.6c-5.3,1.7-10.8,2.8-16.4,3.2c-5.5,0.3-11.3-0.1-16.5-2.4c-2.6-1.2-4.9-2.9-6.7-5
				c-1.8-2.2-3.1-4.8-3.8-7.4c-0.8-2.7-1-5.5-1-8.3C10.7,118.9,10.9,116.1,11.4,113.4z"/>
		</g>
		<g>
			<path class="st13" d="M15,133.7c2,2.9,5,4.9,8.2,6.1c3.2,1.3,6.6,2,10,2.3c3.4,0.4,6.9,0.4,10.3,0.3c3.4-0.2,6.9-0.5,10.3-1.1
				l0.6-0.1l-0.2,0.5c-0.9,2.7-2.9,4.8-5.3,6.2c-2.4,1.4-5.1,2-7.8,2.1c-5.4,0.3-10.8-1.1-15.8-2.9c2.6,0.8,5.2,1.5,7.8,1.9
				c2.6,0.4,5.3,0.7,8,0.5c2.6-0.2,5.3-0.9,7.5-2.2c2.2-1.3,4.1-3.4,4.9-5.8l0.4,0.4c-3.4,0.6-6.9,0.9-10.4,1.1
				c-3.5,0.1-7,0-10.4-0.4c-3.5-0.4-6.9-1.2-10.1-2.6C19.9,138.8,16.9,136.6,15,133.7z"/>
		</g>
		<g>
			<path class="st13" d="M53.6,140.7c-2.4,0.1-4.7,0.1-7.1,0.1c-2.4,0-4.7-0.1-7.1-0.1c-2.4-0.1-4.7-0.2-7.1-0.3
				c-2.4-0.1-4.7-0.3-7.1-0.5c2.4-0.1,4.7-0.1,7.1-0.1c2.4,0,4.7,0.1,7.1,0.1c2.4,0.1,4.7,0.2,7.1,0.3
				C48.9,140.3,51.2,140.5,53.6,140.7z"/>
		</g>
		<g>
			<path class="st13" d="M28.3,139.5c2.1-0.5,4.3-0.8,6.5-1c2.2-0.2,4.4-0.3,6.6-0.3c4.4,0.1,8.8,0.7,13,2.2l-0.3,0.6
				c-4.1-2.5-8.6-4.4-13.3-5.4c-2.4-0.4-4.8-0.6-7.1-0.3c-1.2,0.1-2.3,0.4-3.5,0.8c-0.6,0.2-1.1,0.4-1.7,0.7
				c-0.6,0.2-1.2,0.4-1.8,0.5c-2.4,0.6-5.1,0.3-7.3-0.8c-2.2-1.1-4.1-2.9-5.5-4.9c-1.4-2-2.5-4.3-3.1-6.6c-0.6-2.4-0.9-4.8-0.7-7.2
				c-0.2,4.9,1.4,9.7,4.2,13.6c1.4,1.9,3.2,3.6,5.4,4.6c2.1,1,4.6,1.3,6.9,0.7c0.6-0.1,1.1-0.3,1.7-0.5c0.6-0.2,1.1-0.5,1.7-0.7
				c1.2-0.4,2.4-0.7,3.6-0.9c2.5-0.3,4.9-0.2,7.4,0.3c4.8,1,9.4,2.9,13.5,5.5l2.6,1.6l-2.8-1c-4.1-1.5-8.4-2.2-12.8-2.4
				C37,138.5,32.6,138.7,28.3,139.5z"/>
		</g>
		<g>
			<path class="st13" d="M56.1,143.2c-1.2,3.4-3.6,6.4-6.8,8.1c-3.2,1.8-7.1,2-10.6,1.3c-3.6-0.7-6.9-2.1-10-3.9
				c-3.1-1.8-6-3.8-8.8-6.1c2.9,2,5.9,4,9.1,5.6c3.1,1.6,6.4,3,9.9,3.6c3.4,0.7,7.1,0.5,10.2-1.1c1.6-0.8,3-1.9,4.2-3.2
				C54.4,146.3,55.4,144.8,56.1,143.2z"/>
		</g>
		<g>
			<path class="st13" d="M57.6,144.8c-0.8,1.6-1.8,3.1-2.9,4.5c-1.2,1.4-2.5,2.6-4.1,3.5c-1.6,0.9-3.4,1.5-5.3,1.4
				c-1.9-0.1-3.6-0.8-5.1-1.8c1.6,0.8,3.3,1.3,5.1,1.3c1.7,0,3.4-0.6,4.9-1.5c1.5-0.9,2.8-2,4.1-3.3
				C55.4,147.7,56.5,146.3,57.6,144.8z"/>
		</g>
	</g>
	<g>
		<path class="st7" d="M93.6,100.1l10.7,17.3c0,0,4.9,3.4-2.4,11.2c0,0,13.6,18.6-5.2,2.9c0,0-3.6-3.7-0.5-10.2"/>
		<path d="M93.7,100.1c2,2.8,3.8,5.6,5.6,8.5c0.9,1.4,1.8,2.9,2.7,4.3c0.9,1.4,1.7,2.9,2.6,4.4l-0.1-0.1c0.9,0.8,1.4,1.8,1.6,2.9
			c0.2,1.1-0.1,2.2-0.4,3.2c-0.4,1-0.9,2-1.5,2.9c-0.6,0.9-1.3,1.8-2,2.6l0-0.3c1.1,1.5,2.2,3,3.2,4.6c0.5,0.8,1,1.6,1.3,2.5
			c0.2,0.4,0.4,0.9,0.4,1.5c0,0.3,0.1,0.7-0.3,1.1c-0.4,0.3-0.8,0.3-1.1,0.2c-1.1-0.3-1.9-0.8-2.7-1.3c-0.8-0.5-1.6-1-2.3-1.6
			c-1.5-1.1-2.9-2.3-4.3-3.5l0,0l0,0c-0.7-0.8-1.1-1.6-1.4-2.5c-0.3-0.9-0.4-1.8-0.4-2.8c0-1.9,0.7-3.7,1.5-5.2l0.1,0
			c-0.3,0.8-0.6,1.7-0.8,2.6c-0.2,0.9-0.3,1.8-0.2,2.6c0,0.9,0.2,1.7,0.5,2.5c0.3,0.8,0.7,1.6,1.3,2.2l0,0c1.4,1.1,2.9,2.3,4.4,3.4
			c0.7,0.5,1.5,1.1,2.2,1.6c0.8,0.5,1.6,1,2.3,1.2c0.2,0,0.3,0,0.2,0c0,0.1,0-0.1,0-0.2c0-0.4-0.2-0.8-0.3-1.2
			c-0.3-0.8-0.8-1.6-1.2-2.4c-0.9-1.6-1.9-3.2-2.9-4.7l-0.1-0.2l0.2-0.2c1.5-1.5,2.8-3.2,3.6-5.2c0.4-1,0.5-2.1,0.3-3.1
			c-0.2-1-0.8-2-1.5-2.5l0,0l0-0.1c-0.9-1.4-1.9-2.8-2.8-4.3c-0.9-1.4-1.8-2.9-2.7-4.3C96.9,106.1,95.2,103.1,93.7,100.1L93.7,100.1
			z"/>
	</g>
	<path class="st14" d="M93.6,100.1l10.7,17.3c0,0,4.9,3.4-2.4,11.2c0,0,13.6,18.6-5.2,2.9c0,0-3.6-3.7-0.5-10.2"/>
	<g>
		<path class="st6" d="M43,78.9c0.9-5.8,1.3-5.4,1.3-8.2c0.4-17.9,17.4-26.2,38.4-26.2c21,0,35.9,4.2,37.7,25.1
			c0.3,3.3-1.4,6.7-1.4,9.7c0,3,1.4,5.1,1.4,7.6c0,8.4-9.3,13.3-39.8,13.3c-30.5,0-38.9-5-38.9-13.3C41.6,83.7,42.1,84.7,43,78.9z"
			/>
		<g>
			<path d="M42.9,78.9c0.2-1.2,0.4-2.3,0.6-3.5c0.2-1.2,0.5-2.3,0.6-3.5c0.1-1.2,0.1-2.4,0.2-3.6c0.1-1.2,0.3-2.4,0.6-3.5
				c1.1-4.6,3.9-8.9,7.5-12c3.7-3.1,8.1-5.2,12.7-6.5c4.6-1.4,9.4-2,14.1-2.2c4.8-0.1,9.5,0,14.3,0.6c4.7,0.6,9.5,1.5,13.8,3.6
				c4.3,2,8,5.4,10.2,9.7c1.1,2.1,1.8,4.4,2.4,6.7c0.3,1.2,0.4,2.3,0.6,3.5c0.1,0.6,0.1,1.2,0.2,1.8c0,0.6,0,1.2-0.1,1.8
				c-0.3,2.4-1.1,4.7-1.2,7c0,1.2,0.2,2.3,0.5,3.4c0.3,1.1,0.7,2.3,0.9,3.5c0.3,2.4-0.3,5.1-1.9,7c-1.6,1.9-3.8,3.2-6,4.1
				c-4.5,1.8-9.3,2.5-14,3.1c-4.7,0.5-9.5,0.7-14.2,0.8c-4.8,0-9.5,0-14.3-0.2c-4.7-0.3-9.5-0.7-14.2-1.7c-2.3-0.5-4.6-1.1-6.9-2
				c-2.2-0.9-4.3-2.2-5.8-4.1c-0.7-1-1.3-2.1-1.6-3.2c-0.3-1.2-0.3-2.4-0.3-3.6c0-1.2,0.5-2.3,0.7-3.5
				C42.5,81.2,42.7,80.1,42.9,78.9z M43,78.9c-0.2,1.2-0.4,2.3-0.6,3.5c-0.2,1.2-0.7,2.3-0.7,3.5c0,1.2,0,2.4,0.3,3.5
				c0.3,1.1,0.8,2.2,1.6,3.1c1.5,1.8,3.6,3,5.8,3.8c2.2,0.8,4.5,1.4,6.8,1.8c4.6,0.8,9.4,1.2,14.1,1.4c4.7,0.2,9.5,0.2,14.2,0.2
				c4.7-0.1,9.5-0.3,14.2-0.8c4.7-0.5,9.4-1.2,13.7-2.9c2.1-0.9,4.2-2,5.7-3.8c1.5-1.7,2.1-4.1,1.8-6.3c-0.1-1.1-0.5-2.3-0.8-3.4
				c-0.3-1.2-0.5-2.4-0.4-3.6c0.1-2.5,1-4.7,1.3-7c0.2-1.2,0.1-2.3,0-3.5c-0.1-1.2-0.3-2.3-0.5-3.5c-0.5-2.3-1.2-4.6-2.2-6.7
				c-1.1-2.1-2.5-4-4.2-5.7c-1.7-1.6-3.7-2.9-5.8-3.9c-4.3-2-9-2.9-13.7-3.3c-4.7-0.4-9.5-0.5-14.2-0.3c-4.7,0.2-9.4,0.9-13.9,2.2
				c-4.5,1.3-8.9,3.3-12.5,6.2c-3.7,2.9-6.5,7-7.7,11.5c-0.7,2.3-0.8,4.6-0.9,7c-0.1,1.2-0.5,2.3-0.7,3.5
				C43.4,76.6,43.2,77.7,43,78.9z"/>
		</g>
	</g>
	<path class="st0" d="M43.7,72.2l-5.3,9.7c0.5,4.7,2.1,7.5,4.1,9.1c1.5,3,4.9,5.4,11.3,7c-1.5-1.5-2.9-3.2-4-5
		c1.5-0.1,2.6-0.4,2.6-0.4c-1.1,0.2-2,0.2-2.8,0c-1.7-2.7-2.9-5.7-3.4-9.1c2.6,0.3,4.7-1.8,4.7-1.8c-2.3,0.8-3.9,0.3-5-0.8
		c0-1.5,0.1-3.1,0.3-4.7c0.2-1.9,0.5-3.8,0.9-5.7c1.1,0.6,2.3,0.9,2.3,0.9s-4.9-2.7,1.4-2.4c6.4,0.3,5.9-4.3,5.9-4.3c3.6,3,0,5,0,5
		c2.8,0.9,5.8-4.4,5.8-4.4c-3.6,7.4,6,9.6,6,9.6c-1.9-3.5,3.1-8,3.1-8c1.3,1.8-2.3,5.5-2.3,5.5c7.4-3.5,7.3-6.6,7.3-6.6l1.1,4.6
		c2.9-0.9,6.6-5.7,6.6-5.7c-4.3,5.5,0.8,7.7,0.8,7.7c-1.9-1.4,0-3.2,0-3.2c8.8-5.1,7.1-9.2,6.7-9.9c8,13.5,13.3,11.2,11.5,9.9
		c-1.9-1.3-0.4-7.1-0.4-7.1c5.9,6.3,1.1,9.6,1.1,9.6c6.4-2.3,3.3-9.6,3.3-9.6c4.6,0.1,4,4.8,4,4.8c1.1-0.1,1.8-3.9,1.8-3.9
		c4,5.7,0.7,6.2,0.7,6.2c1.4,0.1,2.5-0.2,3.4-0.7c-0.1,2.9-0.4,5.7-0.8,8.5c-0.9,1.9-2.1,3.5-3.6,3.6c0,0,1,1,2.6,1.1
		c-0.8,3.1-1.8,6-3.1,8.9c-0.4,0-0.9,0-1.3-0.2c0,0,0.4,0.3,1.2,0.6c-1.1,2.5-2.4,4.8-3.9,7c7.4-1.9,10.8-4.9,11.7-8.7
		c0.5-0.5,0.9-1.2,1.4-2c0,0,6.1-15.9-1.1-16.8c0-0.2,0-0.4,0-0.6c-0.1-1.5-0.3-2.9-0.6-4.2c1-2.1,1.2-4.3,1.2-4.3
		c-0.4-19.9-38.5-23.7-38.5-23.7C46,39.6,37,64.4,37,64.4l8.4-0.4c-0.6,2.1-1,4.3-1.1,6.8c0,1.7-0.2,2.2-0.5,3.8
		C43.7,73.2,43.7,72.2,43.7,72.2z M119.3,81.8c-0.1-0.5-0.2-1.1-0.3-1.7C119.5,80.1,119.6,80.8,119.3,81.8z"/>
	<g>
		<g>
			<path class="st10" d="M50.9,67.9c-6.4-0.3-1.4,2.4-1.4,2.4s-9.4-2.4-1.1-7.5L37,63.3c0,0,9-24.8,45.4-26.9
				c0,0,38.1,3.8,38.5,23.7c0,0-0.6,8.4-7,7.8c0,0,3.2-0.6-0.7-6.2c0,0-0.7,3.9-1.8,4c0,0,0.6-4.7-4-4.8c0,0,3.1,7.3-3.3,9.6
				c0,0,4.8-3.3-1.1-9.6c0,0-1.5,5.8,0.4,7.1c1.9,1.3-3.4,3.6-11.5-9.9c0.4,0.7,2.1,4.8-6.7,9.9c0,0-1.9,1.8,0,3.2
				c0,0-5.2-2.1-0.8-7.7c0,0-3.8,4.7-6.6,5.7l-1.1-4.6c0,0,0.1,3.1-7.3,6.6c0,0,3.6-3.7,2.3-5.5c0,0-5,4.5-3.1,8c0,0-9.6-2.2-6-9.6
				c0,0-2.9,5.4-5.8,4.4c0,0,3.6-2,0-5C56.8,63.5,57.3,68.2,50.9,67.9z"/>
			<path d="M50.9,67.9c-0.5,0-1,0-1.5,0c-0.5,0-1,0.1-1.5,0.3c-0.2,0.1-0.3,0.4-0.2,0.6c0.1,0.2,0.3,0.4,0.5,0.6
				c0.4,0.3,0.8,0.6,1.2,0.9l0.5,0.3l-0.6-0.2c-0.9-0.3-1.8-0.6-2.7-1.1c-0.8-0.5-1.7-1.2-1.9-2.2c-0.2-1,0.5-2,1.1-2.6
				c0.7-0.7,1.5-1.3,2.3-1.8l0.1,0.2L37,63.5l-0.3,0l0.1-0.3c1.8-4.3,4.5-8.2,7.7-11.6c3.2-3.4,7-6.2,11.1-8.5c4.1-2.3,8.5-4,13-5.1
				c4.5-1.2,9.1-1.8,13.8-2.1l0,0l0,0c4.1,0.5,8.1,1.3,12,2.3c3.9,1,7.8,2.3,11.6,4c3.7,1.7,7.3,3.8,10.2,6.8c1.4,1.5,2.7,3.1,3.5,5
				c0.9,1.9,1.3,3.9,1.4,6v0l0,0c-0.1,1-0.3,2-0.6,2.9c-0.3,0.9-0.7,1.9-1.3,2.7c-0.6,0.8-1.4,1.5-2.3,2c-0.9,0.4-2,0.6-3,0.5
				l-1.5-0.1l1.5-0.3c0.5-0.1,0.9-0.5,1-1.1c0.1-0.5,0-1.1-0.2-1.7c-0.4-1.1-1-2.1-1.7-3.1l0.5-0.1c-0.1,0.8-0.3,1.5-0.6,2.2
				c-0.1,0.4-0.3,0.7-0.5,1.1c-0.2,0.3-0.4,0.8-1,0.9l-0.3,0.1l0-0.4c0.1-1.1-0.1-2.3-0.8-3.2c-0.7-0.9-1.8-1.2-2.9-1.3l0.3-0.4
				c0.4,0.9,0.6,1.9,0.7,2.9c0.1,1,0.1,2-0.1,3c-0.2,1-0.7,1.9-1.5,2.7c-0.7,0.7-1.6,1.2-2.6,1.6l-2.3,0.9l2-1.5
				c0.6-0.5,1.2-1.2,1.4-2c0.3-0.8,0.3-1.7,0.1-2.5c-0.4-1.7-1.5-3.2-2.7-4.5l0.8-0.2c-0.2,1-0.4,2-0.5,3c-0.1,1-0.1,2,0.2,2.9
				c0.1,0.2,0.2,0.4,0.3,0.5c0.1,0.1,0.1,0.1,0.2,0.2c0.1,0.1,0.3,0.2,0.4,0.4c0.1,0.2,0.2,0.5,0,0.8c-0.1,0.3-0.4,0.4-0.5,0.5
				c-0.4,0.1-0.7,0.1-1,0.1c-1.2-0.2-2.1-0.8-3-1.4c-1.8-1.3-3.2-2.8-4.5-4.5c-1.3-1.7-2.5-3.4-3.6-5.2l0.9-0.5
				c0.6,1.1,0.6,2.5,0.2,3.6c-0.4,1.1-1,2.1-1.8,2.9c-1.5,1.7-3.4,2.9-5.3,4.1l0.1-0.1c-0.2,0.2-0.3,0.4-0.5,0.6
				c-0.1,0.2-0.2,0.5-0.2,0.7c0,0.4,0.2,0.8,0.6,1.1L85,71.5c-0.8-0.4-1.5-0.9-2-1.6c-0.5-0.7-0.9-1.5-0.9-2.4
				c0-0.9,0.2-1.7,0.6-2.4c0.3-0.7,0.8-1.4,1.3-2l0.8,0.6c-1,1.2-2,2.2-3.1,3.3c-0.6,0.5-1.1,1-1.8,1.4c-0.6,0.4-1.3,0.8-2.1,1.1
				l-0.5,0.2l-0.1-0.5l-1.1-4.6l1-0.1c0,0.6-0.2,1-0.4,1.4c-0.2,0.4-0.5,0.8-0.8,1.1c-0.6,0.7-1.2,1.3-1.9,1.8
				c-1.4,1.1-2.9,1.9-4.5,2.6l-2.1,1l1.6-1.7c0.7-0.7,1.4-1.5,1.9-2.4c0.2-0.4,0.5-0.9,0.6-1.3c0.1-0.5,0.1-0.9-0.2-1.2l0.6,0.1
				c-1.1,1-2.1,2.2-2.7,3.5c-0.3,0.7-0.6,1.4-0.7,2.1c-0.1,0.7,0,1.4,0.3,2.1l0.3,0.6l-0.6-0.2c-1.1-0.3-2.2-0.7-3.2-1.3
				c-1-0.6-1.9-1.3-2.6-2.2c-0.7-0.9-1.1-2.1-1.1-3.2c0-1.2,0.3-2.3,0.8-3.3l0.3,0.2c-0.7,1.1-1.4,2.2-2.4,3.1
				c-0.5,0.5-1,0.9-1.6,1.2c-0.6,0.3-1.3,0.4-2,0.2l-0.2-0.1l0.2-0.1c0.8-0.5,1.6-1.4,1.6-2.4c0-0.5-0.2-1-0.5-1.4
				c-0.3-0.4-0.7-0.8-1-1.1l0.1-0.1c0,0.7-0.1,1.4-0.4,2.1c-0.3,0.6-0.8,1.2-1.4,1.5C53.7,67.9,52.3,68,50.9,67.9z M50.9,67.8
				c1.4,0.1,2.8-0.1,4-0.8c0.6-0.4,1.1-0.9,1.4-1.5c0.3-0.6,0.4-1.3,0.4-2l0-0.2l0.1,0.1c0.4,0.3,0.8,0.7,1.1,1.1
				c0.3,0.4,0.5,0.9,0.6,1.5c0,0.5-0.2,1.1-0.5,1.5c-0.3,0.4-0.7,0.8-1.2,1.1l0-0.2c0.6,0.2,1.2,0.1,1.8-0.2
				c0.6-0.3,1.1-0.7,1.5-1.1c0.9-0.9,1.6-2,2.3-3.1l0.3,0.1c-0.5,1-0.8,2.1-0.7,3.1c0,1.1,0.4,2.1,1.1,2.9c0.7,0.8,1.6,1.5,2.5,2
				c1,0.5,2,0.9,3,1.2l-0.3,0.4c-0.4-0.7-0.5-1.6-0.5-2.4c0.1-0.8,0.4-1.6,0.7-2.3c0.4-0.7,0.8-1.4,1.3-2c0.5-0.6,1-1.2,1.6-1.8
				l0.3-0.3l0.3,0.3c0.4,0.5,0.4,1.3,0.3,1.8c-0.1,0.6-0.4,1.1-0.6,1.6c-0.6,1-1.2,1.8-2,2.6l-0.5-0.7c1.5-0.7,3-1.6,4.3-2.6
				c0.6-0.5,1.3-1.1,1.8-1.7c0.2-0.3,0.5-0.6,0.6-1c0.2-0.3,0.3-0.7,0.3-1l0.1-3.7l0.9,3.6l1.2,4.6l-0.6-0.4c0.6-0.2,1.2-0.6,1.8-1
				c0.6-0.4,1.1-0.9,1.7-1.4c1.1-1,2-2.1,3-3.2l0.8,0.6c-0.9,1.1-1.7,2.5-1.6,3.8c0,0.7,0.3,1.3,0.7,1.8c0.4,0.5,1,1,1.6,1.2
				l-0.5,0.9c-0.3-0.2-0.6-0.5-0.8-0.8c-0.2-0.4-0.3-0.8-0.3-1.2c0-0.4,0.2-0.8,0.3-1.1c0.2-0.3,0.4-0.6,0.6-0.9l0,0l0.1,0
				c1.8-1.1,3.6-2.3,5-3.9c0.7-0.8,1.3-1.6,1.6-2.6c0.3-0.9,0.3-2-0.1-2.7l0.9-0.5c1.1,1.8,2.2,3.5,3.5,5.1c1.3,1.6,2.7,3.1,4.3,4.3
				c0.8,0.6,1.7,1.1,2.6,1.2c0.2,0,0.4,0,0.5,0c0.1,0,0.1,0,0,0c0,0,0,0.1,0,0.1c0,0-0.1-0.1-0.1-0.1c-0.1-0.1-0.3-0.2-0.4-0.3
				c-0.2-0.2-0.4-0.5-0.5-0.8c-0.4-1.1-0.3-2.2-0.3-3.3c0.1-1.1,0.3-2.1,0.5-3.2l0.2-0.8l0.6,0.6c1.3,1.4,2.4,3,2.9,4.9
				c0.2,1,0.2,2-0.1,2.9c-0.3,0.9-0.9,1.8-1.7,2.4L104,70c0.9-0.3,1.7-0.8,2.3-1.4c0.6-0.6,1.1-1.4,1.3-2.3c0.4-1.8,0.1-3.7-0.5-5.4
				l-0.2-0.5l0.5,0c0.6,0,1.3,0.1,1.9,0.4c0.6,0.2,1.1,0.6,1.5,1.2c0.4,0.5,0.6,1.1,0.8,1.7c0.1,0.6,0.2,1.2,0.1,1.9l-0.3-0.3
				c0.2,0,0.4-0.3,0.6-0.6c0.2-0.3,0.3-0.6,0.4-1c0.2-0.7,0.4-1.4,0.6-2.1L113,61l0.3,0.5c0.7,1,1.3,2.1,1.8,3.3
				c0.2,0.6,0.3,1.2,0.2,1.9c-0.1,0.7-0.7,1.3-1.4,1.4l0-0.5c0.9,0.1,1.9,0,2.8-0.4c0.9-0.4,1.6-1,2.2-1.8c1.1-1.6,1.7-3.5,1.9-5.4
				l0,0c0-2-0.5-4-1.3-5.8c-0.8-1.8-2.1-3.5-3.5-4.9c-2.9-2.9-6.4-5-10.1-6.6c-3.7-1.6-7.6-2.9-11.5-3.8c-3.9-1-7.9-1.7-12-2.1
				l0.1,0c-4.6,0.3-9.2,1-13.6,2.1c-4.4,1.2-8.8,2.8-12.8,5c-4,2.2-7.7,5-11,8.2c-3.2,3.3-6,7-7.8,11.2L37,63l11.4-0.4l0.4,0
				l-0.4,0.2c-0.8,0.5-1.6,1.1-2.3,1.7c-0.7,0.7-1.3,1.5-1.1,2.5c0.2,0.9,1,1.6,1.8,2.1c0.8,0.5,1.7,0.8,2.6,1.1l-0.1,0.1
				c-0.4-0.3-0.9-0.5-1.3-0.9c-0.2-0.2-0.4-0.4-0.5-0.6c-0.1-0.1-0.1-0.3-0.1-0.4c0-0.1,0.2-0.3,0.3-0.3c0.5-0.3,1-0.3,1.5-0.3
				C49.9,67.8,50.4,67.8,50.9,67.8z"/>
		</g>
		<g>
			<path class="st10" d="M118.5,79.3c-3.1,2.4-5.6,0-5.6,0c3.8-0.5,5.7-10.1,5.7-10.1c9.9-1.6,2.9,16.7,2.9,16.7
				c-3.9,7.2-10.3,3.1-10.3,3.1C116.6,91.2,121.6,76.9,118.5,79.3z"/>
			<path d="M118.5,79.3c-0.8,0.6-1.8,1.1-2.8,1.1c-0.5,0-1-0.1-1.5-0.2c-0.5-0.2-1-0.4-1.4-0.8l-0.3-0.3l0.5-0.1
				c0.9-0.2,1.6-0.9,2.2-1.7c0.5-0.8,1-1.7,1.4-2.6c0.8-1.8,1.3-3.7,1.8-5.7l0.1-0.3l0.2,0c0.9-0.1,1.8-0.1,2.7,0.2
				c0.9,0.3,1.6,1,2,1.8c0.8,1.6,0.8,3.4,0.8,5.1c-0.3,3.5-1,6.9-2.1,10.2l0,0l0,0c-0.5,0.9-1.1,1.8-1.9,2.6
				c-0.8,0.8-1.7,1.4-2.8,1.7c-1.1,0.3-2.2,0.4-3.3,0.2c-1.1-0.2-2.1-0.6-3-1.1l0.5-0.9c1,0.4,2.2,0.1,3.1-0.6
				c1-0.7,1.8-1.7,2.5-2.7c0.7-1,1.3-2.2,1.8-3.3c0.2-0.6,0.4-1.2,0.5-1.8c0-0.3,0.1-0.6-0.1-0.9C119.1,78.9,118.8,79.1,118.5,79.3z
				 M118.5,79.2c0.1-0.1,0.3-0.2,0.4-0.3c0.2-0.1,0.4,0,0.5,0.1c0.2,0.3,0.1,0.7,0.1,1c-0.1,0.6-0.2,1.3-0.4,1.9
				c-0.4,1.2-0.9,2.4-1.6,3.6c-0.6,1.1-1.4,2.2-2.5,3.1c-0.5,0.4-1.2,0.8-1.9,1c-0.7,0.2-1.5,0.1-2.2-0.1l0.5-0.9
				c0.8,0.4,1.7,0.8,2.7,1c0.9,0.2,1.9,0.1,2.8-0.1c0.9-0.2,1.7-0.7,2.4-1.4c0.7-0.7,1.3-1.5,1.8-2.3l0,0.1c0.6-1.6,1.2-3.2,1.6-4.8
				c0.5-1.6,0.8-3.3,1-5c0.1-1.7,0.1-3.5-0.8-4.9c-0.4-0.7-1.1-1.2-1.9-1.4c-0.8-0.2-1.6-0.2-2.4,0l0.3-0.3c-0.2,1-0.4,2-0.7,3
				c-0.3,1-0.6,2-1,2.9c-0.4,0.9-0.9,1.9-1.6,2.7c-0.7,0.8-1.5,1.6-2.7,1.7l0.1-0.4c0.7,0.6,1.6,1.1,2.6,1.1
				C116.7,80.3,117.7,79.8,118.5,79.2z"/>
		</g>
		<g>
			<path class="st10" d="M50.9,80.6c0,0-4,3.8-7.6,0.4c0,0-1,11.9,9,10.4c0,0-12.5,3.9-14-10.7l5.3-9.7
				C43.7,71.1,43.1,83.4,50.9,80.6z"/>
			<path d="M50.9,80.7c-0.5,0.5-1.1,0.9-1.7,1.3c-0.6,0.3-1.3,0.6-2,0.7c-0.7,0.1-1.5,0-2.2-0.2c-0.7-0.2-1.4-0.6-1.9-1.2l0.6-0.2
				c-0.1,1.3,0,2.7,0.3,3.9c0.3,1.3,0.7,2.5,1.4,3.6c0.7,1.1,1.7,1.9,3,2.3c1.2,0.4,2.6,0.5,3.9,0.3l0.1,0.4
				c-1.7,0.5-3.5,0.5-5.2,0.4c-1.7-0.2-3.4-0.8-4.9-1.9c-1.4-1.1-2.5-2.6-3.2-4.2c-0.7-1.6-1.1-3.4-1.3-5.1l0-0.1l0.1-0.1
				c1.7-3.3,3.5-6.5,5.3-9.7l1-1.8l-0.1,2.1c-0.1,2.3,0.1,4.8,1,7c0.4,1.1,1.2,2.1,2.2,2.5C48.5,81,49.7,80.9,50.9,80.7l0.1-0.1
				L50.9,80.7z M50.5,80.8c-1,0.4-2.2,0.6-3.3,0.2c-1.2-0.4-2.1-1.5-2.7-2.6c-0.6-1.1-0.9-2.4-1.1-3.6c-0.2-1.2-0.3-2.5-0.3-3.7
				l0.9,0.3c-1.7,3.3-3.5,6.5-5.4,9.7l0.1-0.3c0.2,1.7,0.5,3.3,1.1,4.9c0.6,1.5,1.5,3,2.8,4.1c1.3,1.1,2.9,1.7,4.6,2
				c1.7,0.2,3.4,0,5-0.4l0.1,0.4c-1.4,0.2-2.8,0.3-4.2-0.1c-1.4-0.4-2.7-1.3-3.5-2.4c-0.8-1.2-1.3-2.5-1.6-3.9
				c-0.3-1.4-0.3-2.8-0.2-4.2l0.1-0.8l0.6,0.6c0.5,0.5,1,0.9,1.6,1.1c0.6,0.2,1.3,0.3,1.9,0.3C48.3,82.1,49.5,81.5,50.5,80.8z"/>
		</g>
	</g>
	<path class="st9" d="M108.3,41.8c0,0,3.2,4.7-2.1,8.6c-5.3,3.9-11.1,24.5-11.1,24.5s3.8,5.8-5.4,7.2c-10.1,1.6-13.9,1.2-24.3,0
		c-4-0.4-4.4-4.8-1.6-7.2c0,0,0.4-20.5-5.5-28.2l-1.8-5"/>
	<g>
		<g>
			<path class="st7" d="M112.6,19.4C112.6,19.3,112.6,19.3,112.6,19.4L112.6,19.4z"/>
			<path d="M112.5,19.4c-0.3-0.1-0.4-0.1-0.4-0.1c0.1,0,0.2,0,0.3,0c0,0,0,0,0,0c0,0,0,0,0,0c0-0.1,0.1-0.2,0.2-0.2
				c0,0,0.1,0,0.2,0.1c0.1,0.1,0.1,0.2,0.1,0.2c0,0,0,0,0.1,0c0,0,0,0,0.1,0c0,0,0.1,0,0.1,0.1C113.1,19.5,113,19.5,112.5,19.4
				L112.5,19.4L112.5,19.4z M112.6,19.4L112.6,19.4c-0.4-0.1-0.5-0.2-0.5-0.2c0,0,0,0,0.1,0l0.1,0l0.1,0c0,0,0,0.1,0.1,0.2
				c0.1,0.1,0.2,0.1,0.2,0.1c0.1,0,0.2-0.1,0.2-0.2c0,0,0,0,0,0c0,0,0,0,0,0c0,0,0.2,0.1,0.2,0.1C113.1,19.5,113,19.5,112.6,19.4
				L112.6,19.4z"/>
		</g>
		<g>
			<path class="st7" d="M28.4,65.9c3.1,19.6,9.5,30.4,28.5,34.6l0,0l8.4,0.5c-21.5,46-8,60-8,60c8.6,32.8,8.5,1.9,8.5,1.9
				c12.9,3.6,23.3,0,23.3,0c-0.5,15.9,2.3,13.5,2.3,13.5c21.3-22.5,5.9-65.5,2.3-74.7l3,0.1c0-0.1-0.1-0.1-0.1-0.1c0,0,0,0,0,0
				c24.2-2.9,31.7-13.6,35.6-35.7c2.8-16,0.6-34.7-19.8-46.7c-0.1,0.6-9.9-8.2-31.4-8.2c-23.1,0-32.3,7.2-32.3,7.2
				C27.9,31.5,25.7,49,28.4,65.9z M42.6,86c0-3,0.4-2.1,1.3-7.8c0.9-5.7,1.2-5.3,1.3-8c0.2-10.2,6-17.2,14.8-21.2
				c2.7,1.7,7,2.9,11.9,2.9c4.2,0,8-0.8,10.7-2.2c2.7,1.3,6.5,2.2,10.7,2.2c5.5,0,10.2-1.4,12.8-3.5c7.5,3.4,12.3,9.7,13.2,20.8
				c0.3,3.2-1.4,6.5-1.3,9.5c0,2.9,1.3,4.9,1.3,7.4c0,8.2-9.1,13-38.8,13C50.8,99,42.6,94.2,42.6,86z"/>
			<g>
				<path d="M28.5,65.9c0.7,4,1.5,8,2.7,11.8c1.2,3.8,2.9,7.6,5.3,10.8c2.4,3.2,5.6,5.9,9.1,7.8c3.6,1.9,7.4,3.1,11.4,4l0,0l8.5,0.5
					l0.5,0l-0.2,0.4c-2.2,4.8-4.2,9.6-6,14.5c-1.8,4.9-3.2,9.9-4.4,15c-1.1,5.1-1.8,10.3-1.7,15.5c0.1,2.6,0.3,5.2,0.9,7.7
					c0.3,1.3,0.7,2.5,1.2,3.7c0.5,1.2,1.1,2.4,1.9,3.3l0.1,0.1l0,0.1c0.6,2.5,1.3,4.9,2.1,7.3c0.4,1.2,0.8,2.4,1.2,3.6
					c0.5,1.2,1,2.3,1.7,3.3c0.4,0.5,0.8,0.9,1.2,0.6c0.4-0.3,0.6-1,0.8-1.5c0.3-1.2,0.5-2.4,0.7-3.7c0.3-2.5,0.4-5,0.4-7.6l0-0.3
					l0.3,0.1c3.8,1.1,7.7,1.6,11.6,1.7c2,0,3.9-0.1,5.9-0.4c1.9-0.3,3.9-0.6,5.7-1.2l0.2-0.1l0,0.2c-0.1,2.4-0.1,4.9,0.1,7.3
					c0.1,1.2,0.2,2.4,0.4,3.6c0.1,0.6,0.3,1.2,0.5,1.7c0.2,0.5,0.7,1,1,0.7l0,0c4.5-4.7,7.5-10.7,9.1-17c1.6-6.3,2-12.9,1.7-19.4
					c-0.4-6.5-1.4-13-2.9-19.3c-1.5-6.3-3.5-12.6-5.8-18.6l-0.3-0.6l0.7,0l3,0.1l-0.4,0.7l-0.1-0.1l0.4,0.3c-0.1,0-0.2,0-0.3-0.1
					c-0.1-0.1-0.1-0.2-0.1-0.3l0-0.4l0.4-0.1c4.5-0.6,9-1.4,13.3-3c4.3-1.5,8.3-3.9,11.4-7.1c3.2-3.2,5.4-7.3,7-11.5
					c1.6-4.3,2.6-8.7,3.4-13.2c0.8-4.5,1.2-9,1-13.6c-0.2-4.5-1.1-9-2.7-13.3c-1.6-4.2-4.1-8.1-7.2-11.4c-3.1-3.3-6.7-6.1-10.6-8.4
					l0.7-0.4c0,0.2-0.2,0.4-0.3,0.4c-0.1,0-0.1,0-0.2,0l-0.1,0c-0.1,0-0.1,0-0.2,0c-0.1,0-0.1-0.1-0.2-0.1l-0.3-0.1l-0.5-0.3
					l-0.9-0.5c-0.6-0.3-1.2-0.7-1.8-1c-1.2-0.6-2.4-1.2-3.7-1.8c-2.5-1.1-5.1-1.9-7.8-2.6c-5.3-1.3-10.8-1.9-16.3-1.9
					c-5.5,0-11,0.4-16.4,1.4c-2.7,0.5-5.4,1.2-8,2.1c-2.6,0.9-5.2,2-7.4,3.5l0,0l0,0c-3.9,2.4-7.6,5.2-10.8,8.5
					c-3.2,3.3-5.8,7.2-7.6,11.4c-1.8,4.2-2.8,8.8-3,13.4C27.4,56.7,27.8,61.3,28.5,65.9z M28.4,65.9c-0.7-4.6-1.1-9.2-0.9-13.8
					c0.2-4.6,1.2-9.2,3-13.5c1.8-4.3,4.4-8.2,7.5-11.6c3.2-3.4,6.9-6.3,10.8-8.7l0,0c2.3-1.6,4.9-2.7,7.5-3.7
					c2.6-0.9,5.3-1.6,8.1-2.2c5.5-1.1,11-1.5,16.6-1.6c5.6,0,11.1,0.5,16.6,1.8c2.7,0.7,5.4,1.5,8,2.6c1.3,0.5,2.6,1.1,3.8,1.8
					c0.6,0.3,1.2,0.7,1.8,1l0.9,0.5l0.4,0.3l0.2,0.1l0.1,0l-0.1,0l0,0c0,0-0.1,0-0.2,0c-0.1,0-0.3,0.2-0.3,0.4l0-0.8l0.7,0.4
					c4,2.3,7.7,5.2,10.8,8.6c3.1,3.4,5.7,7.4,7.3,11.8c1.7,4.3,2.6,9,2.8,13.6c0.2,4.6-0.2,9.3-1,13.8c-0.8,4.5-1.9,9-3.5,13.4
					c-1.6,4.3-3.9,8.5-7.2,11.8c-3.3,3.4-7.4,5.8-11.8,7.3c-4.4,1.6-8.9,2.4-13.5,3l0.4-0.5c0-0.1,0-0.2-0.1-0.3
					c-0.1-0.1-0.2-0.1-0.3-0.1l0.3,0l0.1,0.3l0.1,0.1l0.3,0.7l-0.7,0l-3-0.1l0.4-0.6c2.4,6.1,4.4,12.4,5.8,18.8
					c1.5,6.4,2.5,12.9,2.8,19.5c0.3,6.6-0.1,13.2-1.8,19.6c-1.7,6.3-4.8,12.4-9.3,17.2l0,0l0,0c-0.3,0.3-0.8,0.2-1.1-0.1
					c-0.3-0.2-0.4-0.5-0.6-0.8c-0.3-0.6-0.4-1.2-0.5-1.8c-0.2-1.2-0.3-2.4-0.4-3.7c-0.1-2.5-0.1-4.9,0-7.4l0.2,0.2
					c-1.9,0.6-3.8,1-5.8,1.2c-2,0.3-3.9,0.4-5.9,0.4c-3.9,0-7.9-0.5-11.7-1.6l0.3-0.2c0,2.5-0.1,5.1-0.3,7.6
					c-0.1,1.3-0.3,2.5-0.6,3.8c-0.2,0.6-0.4,1.3-0.9,1.8c-0.1,0.1-0.4,0.2-0.6,0.3c-0.2,0-0.4-0.1-0.6-0.2c-0.3-0.2-0.6-0.5-0.8-0.7
					c-0.8-1.1-1.3-2.3-1.8-3.4c-0.5-1.2-0.9-2.4-1.3-3.6c-0.8-2.4-1.5-4.9-2.1-7.3l0.1,0.1c-0.9-1.1-1.5-2.2-2.1-3.5
					c-0.5-1.2-0.9-2.5-1.2-3.8c-0.6-2.6-0.9-5.2-1-7.9c-0.1-5.3,0.5-10.5,1.6-15.7c1.1-5.2,2.7-10.2,4.5-15.1
					c1.8-4.9,3.9-9.8,6.1-14.5l0.3,0.4l-8.4-0.6l0,0l0,0c-4-0.9-7.9-2.2-11.4-4.2c-3.6-2-6.7-4.7-9.1-8c-2.4-3.3-4.1-7-5.3-10.9
					C29.8,73.9,29,69.9,28.4,65.9z"/>
				<path d="M42.5,86c0-0.9,0-1.8,0.3-2.7c0.2-0.9,0.4-1.8,0.6-2.6c0.3-1.8,0.6-3.6,0.9-5.3l0.5-2.7c0.2-0.9,0.2-1.8,0.2-2.7
					c0-1.8,0.3-3.6,0.7-5.4c0.9-3.6,2.6-6.9,5.1-9.6c2.5-2.7,5.6-4.8,8.9-6.3l0.2-0.1l0.2,0.1c1.6,1,3.4,1.6,5.3,2.1
					c1.9,0.4,3.8,0.7,5.7,0.7c1.9,0,3.8-0.1,5.8-0.4c1.9-0.3,3.8-0.8,5.5-1.7l0.1-0.1l0.1,0.1c1.8,0.9,3.8,1.5,5.8,1.8
					c2,0.4,4,0.5,6.1,0.4c2-0.1,4.1-0.3,6-0.9c2-0.5,3.9-1.3,5.5-2.6l0.1-0.1l0.1,0c2.5,1.1,4.9,2.7,6.8,4.6c1.9,2,3.5,4.3,4.5,6.9
					c1.1,2.6,1.7,5.3,2,8c0.1,0.7,0.2,1.4,0.2,2.1c0,0.7-0.1,1.4-0.2,2.1c-0.2,1.4-0.6,2.7-0.8,4c-0.3,1.3-0.4,2.6-0.2,3.9
					c0.2,1.3,0.6,2.6,1,3.9c0.7,2.8,0.1,5.9-1.8,8.1c-1.9,2.2-4.6,3.4-7.2,4.3c-2.6,0.9-5.3,1.5-8.1,1.9C97,99,91.5,99.3,86,99.4
					c-5.5,0.1-11,0-16.4-0.3c-5.5-0.4-11-1-16.3-2.4c-2.6-0.8-5.2-1.8-7.4-3.5c-1.1-0.9-2-1.9-2.6-3.2C42.8,88.8,42.5,87.4,42.5,86z
					 M42.6,86c0,1.4,0.3,2.7,0.8,4c0.6,1.2,1.5,2.3,2.6,3.1c2.1,1.7,4.8,2.6,7.4,3.3c5.3,1.3,10.8,1.7,16.2,2
					c5.5,0.2,10.9,0.2,16.4,0.1c5.5-0.1,10.9-0.4,16.3-1.3c2.7-0.4,5.3-1,7.9-1.8c2.5-0.9,5-2,6.8-4c1.7-1.9,2.3-4.8,1.7-7.3
					c-0.3-1.3-0.7-2.6-0.9-4c-0.2-1.4-0.1-2.9,0.2-4.2c0.3-1.4,0.7-2.7,0.9-4c0.1-0.7,0.2-1.3,0.2-2c0-0.6-0.1-1.3-0.1-2
					c-0.3-2.7-0.8-5.4-1.8-7.9c-1-2.5-2.4-4.9-4.3-6.8c-1.9-1.9-4.2-3.5-6.7-4.6l0.2,0c-1.6,1.3-3.6,2.1-5.6,2.6
					c-2,0.6-4,0.8-6.1,0.9c-2.1,0.1-4.1,0-6.2-0.3c-2-0.3-4.1-0.9-6-1.8h0.3c-1.8,0.9-3.7,1.5-5.6,1.8c-1.9,0.4-3.9,0.5-5.9,0.5
					c-2,0-4-0.3-5.9-0.7c-1.9-0.5-3.8-1.1-5.6-2.2l0.4,0c-3.2,1.5-6.3,3.5-8.7,6c-2.5,2.5-4.3,5.7-5.2,9.2c-0.5,1.7-0.7,3.5-0.8,5.3
					c0,0.9-0.1,1.8-0.3,2.7c-0.2,0.9-0.4,1.8-0.6,2.6c-0.4,1.8-0.6,3.6-1,5.3c-0.2,0.9-0.4,1.8-0.6,2.6C42.7,84.2,42.6,85.1,42.6,86
					z"/>
			</g>
		</g>
	</g>
	<g>
		<path class="st7" d="M112.6,19.4C112.6,19.3,112.6,19.3,112.6,19.4L112.6,19.4z"/>
		<path d="M112.5,19.4c-0.3-0.1-0.4-0.1-0.4-0.1c0.1,0,0.2,0,0.3,0c0,0,0,0,0,0c0,0,0,0,0,0c0-0.1,0.1-0.2,0.2-0.2
			c0,0,0.1,0,0.2,0.1c0.1,0.1,0.1,0.2,0.1,0.2c0,0,0,0,0.1,0c0,0,0,0,0.1,0c0,0,0.1,0,0.1,0.1C113.1,19.5,113,19.5,112.5,19.4
			L112.5,19.4L112.5,19.4z M112.6,19.4L112.6,19.4c-0.4-0.1-0.5-0.2-0.5-0.2c0,0,0,0,0.1,0l0.1,0l0.1,0c0,0,0,0.1,0.1,0.2
			c0.1,0.1,0.2,0.1,0.2,0.1c0.1,0,0.2-0.1,0.2-0.2c0,0,0,0,0,0c0,0,0,0,0,0c0,0,0.2,0.1,0.2,0.1C113.1,19.5,113,19.5,112.6,19.4
			L112.6,19.4z"/>
	</g>
	<path class="st14" d="M43,34.4c-1.1,1.1-3.3-3.3-5.5-4.4c-6.2,21.4-6,43.5,4.3,64C34,88.1,30.5,78.9,28.4,65.9
		C25.7,49,27.9,31.5,48.9,18.5c0,0,1.7-1.3,5.4-2.8C54.9,24.1,48,28.3,43,34.4z"/>
	<path class="st14" d="M114.5,96c14.3-18.7,23.1-44,7.7-66.1c-1.1-1.1-5.5,3.3-7.7,1.1c-3.7-3.7-8.2-9-7.5-14.6
		c3.7,1.7,5.6,3.2,5.6,3c20.4,12,22.6,30.7,19.8,46.7c-2.9,16.2-7.7,26.3-19.6,31.6C113.4,97.3,114,96.7,114.5,96z"/>
	<path class="st14" d="M80.1,101.3c4.3,0,8-0.1,11.3-0.4c-0.3,0.2-0.5,0.5-0.7,0.7c-8.4,4.3-17.4,4.1-24.8-1
		C69.7,101.1,74.4,101.3,80.1,101.3z"/>
	<g>
		<path class="st7" d="M106.6,38.5c0,0,2.9,4.7-2,8.7c-4.9,3.9-10.3,24.7-10.3,24.7s3.5,5.9-5,7.3c-9.4,1.6-13,1.2-22.6,0
			c-3.7-0.4-4.1-4.9-1.5-7.3c0,0,0.3-20.6-5.1-28.3l-1.7-5"/>
		<path d="M106.6,38.5c0.8,1.3,1.2,2.9,0.9,4.5c-0.2,1.6-1.2,3-2.3,4.1c-1.2,0.9-2,2.2-2.8,3.5c-0.7,1.3-1.4,2.7-2,4.1
			c-1.2,2.8-2.2,5.7-3.2,8.6c-1,2.9-1.9,5.8-2.8,8.7l0-0.2c0.4,0.8,0.7,1.7,0.7,2.7c0,0.9-0.3,1.9-0.9,2.6c-1.3,1.4-3.1,2-4.9,2.3
			c-3.5,0.6-7.1,1.1-10.7,1.2c-3.6,0-7.2-0.4-10.8-0.7c-0.9-0.1-1.8-0.1-2.8-0.6c-0.9-0.4-1.6-1.3-1.9-2.3c-0.6-2,0.2-4.1,1.6-5.4
			l-0.2,0.4c0-4.8-0.2-9.7-0.9-14.5c-0.3-2.4-0.7-4.8-1.3-7.1c-0.6-2.3-1.3-4.6-2.7-6.6l0,0l0,0l-1.5-5l0.1,0l1.8,4.9l0-0.1
			c1.5,2,2.3,4.4,3,6.7c0.7,2.4,1.1,4.8,1.5,7.2c0.4,2.4,0.6,4.9,0.7,7.3c0.2,2.4,0.2,4.9,0.2,7.3l0,0.2l-0.2,0.1
			c-1.2,1.1-1.8,2.9-1.4,4.4c0.2,0.8,0.7,1.4,1.4,1.7c0.7,0.4,1.6,0.4,2.5,0.5c3.6,0.4,7.1,0.9,10.7,1c3.6,0.1,7.1-0.3,10.7-0.9
			c0.9-0.1,1.7-0.4,2.6-0.7c0.8-0.3,1.6-0.8,2.1-1.5c1.2-1.3,0.9-3.4,0.1-4.8l0-0.1l0-0.1c0.7-3,1.5-5.9,2.4-8.9
			c0.9-2.9,1.9-5.8,3.2-8.6c0.6-1.4,1.3-2.8,2.1-4.1c0.4-0.7,0.8-1.3,1.3-1.9c0.5-0.6,1.1-1.2,1.7-1.6c1.1-0.9,2-2.2,2.3-3.7
			C107.5,41.5,107.2,39.9,106.6,38.5L106.6,38.5z"/>
	</g>
	<path class="st14" d="M65.1,71.2c0-2.5-0.1-12.4-2.1-20.3c4.5,8,9,16.1,11.6,24.6c0.1,0.1,0.1,0.1,0.2,0.2c1.7,1.2,4.2,1.4,6.5,1.1
		c5.3-6.9,9.2-14,14.4-21.5c3.8-5.5,6.8-11,11.2-15.9c0.6,1.5,1.3,4.9-2.4,7.9c-4.9,3.9-10.3,24.7-10.3,24.7s3.5,5.9-5,7.3
		c-0.6,0.1-1.1,0.2-1.6,0.3c-0.3,0-0.5,0.1-0.8,0.1c-0.2,0-0.5,0.1-0.7,0.1c-0.3,0-0.6,0.1-0.9,0.1c-0.2,0-0.3,0-0.5,0.1
		c-0.3,0-0.7,0.1-1,0.1c-0.1,0-0.2,0-0.3,0c-0.4,0-0.7,0.1-1,0.1c-0.1,0-0.1,0-0.2,0c-0.4,0-0.7,0-1.1,0.1c0,0-0.1,0-0.1,0
		c-0.4,0-0.7,0-1.1,0c0,0,0,0,0,0c-3.3,0.1-6.3-0.2-10.5-0.7c-0.1,0-0.1,0-0.2,0c-0.4,0-0.7-0.1-1.1-0.1c-0.5-0.1-0.9-0.1-1.4-0.2
		c-3.7-0.4-4.1-4.9-1.5-7.3C65.1,71.8,65.1,71.6,65.1,71.2z"/>
	<path d="M90.8,73.6c-0.5,0.7-1,1.2-0.1,1.5c0.9,0.3,1.1-0.3,1.5-1c0.5-0.7,0.7-0.7-0.2-1C91.2,72.8,91.3,72.9,90.8,73.6z"/>
	<path d="M67.6,73.8c0.5,0.7,0.9,1.2,0.1,1.5c-0.9,0.3-1.1-0.3-1.5-1c-0.5-0.7-0.7-0.7,0.2-1C67.2,73,67.1,73.1,67.6,73.8z"/>
	<g>
		<circle class="st2" cx="53.3" cy="38.6" r="4.7"/>
		<circle cx="54.5" cy="38.6" r="4.7"/>
		<path class="st11" d="M56,37.8c0,0.4,0.4,0.8,0.8,0.8c0.4,0,0.8-0.3,0.8-0.8c0-0.4-0.4-0.8-0.8-0.8C56.3,37.1,56,37.4,56,37.8z"/>
	</g>
	<g>
		<path class="st2" d="M105.1,38.6c0,2.6,2.1,4.7,4.7,4.7c2.6,0,4.7-2.1,4.7-4.7c0-2.6-2.1-4.7-4.7-4.7
			C107.2,34,105.1,36.1,105.1,38.6z"/>
		<path d="M106.3,38.6c0,2.6,2.1,4.7,4.7,4.7c2.6,0,4.7-2.1,4.7-4.7c0-2.6-2.1-4.7-4.7-4.7C108.4,34,106.3,36.1,106.3,38.6z"/>
		<path class="st11" d="M112.5,37.8c0,0.4,0.3,0.8,0.8,0.8c0.4,0,0.8-0.3,0.8-0.8c0-0.4-0.4-0.8-0.8-0.8
			C112.9,37.1,112.5,37.4,112.5,37.8z"/>
	</g>
	<path class="st8" d="M126.4,45.4c0.1,1.6-3.8,3.1-8.7,3.3c-4.9,0.2-8.9-0.9-9-2.6c-0.1-1.6,3.8-3.1,8.7-3.3
		C122.3,42.7,126.4,43.8,126.4,45.4z"/>
	<path class="st11" d="M126.4,43.4c0,0.5-1.2,1-2.8,1.1c-1.6,0.1-2.9-0.3-2.9-0.8c0-0.5,1.2-1,2.8-1.1
		C125,42.5,126.3,42.9,126.4,43.4z"/>
	<path class="st8" d="M39.8,45.3c-0.1,1.6,3.9,3.2,8.8,3.4c4.9,0.2,9-0.9,9.1-2.6c0.1-1.7-3.9-3.2-8.8-3.4
		C43.9,42.5,39.8,43.7,39.8,45.3z"/>
	<path class="st11" d="M39.8,43.3c0,0.5,1.2,1,2.8,1.1c1.6,0.1,2.9-0.3,2.9-0.8c0-0.5-1.2-1-2.8-1.1C41.2,42.4,39.9,42.8,39.8,43.3z
		"/>
	
		<ellipse transform="matrix(-0.9991 -4.317530e-002 4.317530e-002 -0.9991 99.8881 171.3287)" class="st8" cx="51.8" cy="84.6" rx="6.1" ry="2"/>
	<path class="st11" d="M45.8,82.9c0,0.4,0.8,0.7,1.9,0.7c1.1,0,2-0.2,2-0.6c0-0.4-0.8-0.7-1.9-0.7C46.7,82.3,45.8,82.6,45.8,82.9z"
		/>
	
		<ellipse transform="matrix(0.9991 -4.334466e-002 4.334466e-002 0.9991 -3.5818 4.7859)" class="st8" cx="108.6" cy="85" rx="6.1" ry="2"/>
	<path class="st11" d="M114.6,83.3c0,0.4-0.8,0.7-1.9,0.7c-1.1,0.1-2-0.2-2-0.6c0-0.4,0.8-0.7,1.9-0.7
		C113.7,82.7,114.6,83,114.6,83.3z"/>
	<g>
		<path class="st7" d="M44.3,30.4c-3.3-1.4-6.8-4.1-9.9-7.9c-6.1-7.4-8-15.8-4.3-18.8c3.7-3,11.6,0.5,17.7,7.8
			c3.1,3.7,5.1,7.7,5.8,11.2C49.7,24.3,46.6,27.1,44.3,30.4z"/>
		<path d="M44.3,30.5c-2.7-1-5-2.6-7.2-4.5c-2.1-1.9-4-4.1-5.5-6.5c-1.5-2.4-2.7-5-3.3-7.8c-0.3-1.4-0.4-2.8-0.2-4.3
			c0.2-1.4,0.7-2.8,1.9-3.8c1.1-1,2.7-1.3,4.1-1.2c1.4,0.1,2.8,0.5,4.2,1c2.6,1.1,5,2.8,7.1,4.7c2.1,1.9,3.9,4.1,5.4,6.6
			c1.5,2.4,2.7,5.1,3.3,7.9l0.1,0.4l-0.3,0.1c-1.9,0.7-3.6,1.8-5.2,3C47,27.4,45.6,28.8,44.3,30.5L44.3,30.5L44.3,30.5z M44.3,30.4
			c1.1-1.7,2.4-3.3,3.9-4.7c1.5-1.4,3.3-2.5,5.2-3.4l-0.3,0.5c-1.4-5.3-4.7-10.1-8.5-13.9c-2-1.9-4.2-3.6-6.7-4.8
			c-1.2-0.6-2.6-1-3.9-1.2c-1.4-0.1-2.8,0.1-3.8,1c-1.1,0.9-1.6,2.2-1.7,3.6c-0.1,1.4,0.1,2.8,0.4,4.1c0.7,2.7,2,5.2,3.5,7.5
			c1.5,2.3,3.3,4.5,5.2,6.4C39.6,27.4,41.8,29.1,44.3,30.4z"/>
	</g>
	<path class="st14" d="M29.5,4.3c0,7.1,2.4,13.3,8,18c5.4,3.2,9.7-1.9,14-5.2c1,2,1.8,3.9,2.1,5.7c-3.9,1.6-7,4.4-9.3,7.7
		c-3.3-1.4-6.8-4.1-9.9-7.9C28.7,15.6,26.6,7.7,29.5,4.3z"/>
	<g>
		<path class="st4" d="M46.3,28.8c-2.1-0.8-4.4-2.4-6.3-4.7c-3.7-4.5-4.7-9.9-2.1-12.1c2.6-2.1,7.7-0.2,11.5,4.4
			c1.9,2.3,3.1,4.8,3.4,7C50.1,24.6,48,26.5,46.3,28.8z"/>
		<path d="M46.3,28.8c-1.7-0.5-3.3-1.4-4.7-2.6c-1.4-1.2-2.6-2.6-3.5-4.1c-0.9-1.6-1.6-3.3-1.8-5.1c-0.1-0.9-0.1-1.8,0.1-2.7
			c0.2-0.9,0.7-1.7,1.4-2.4c0.7-0.6,1.6-0.9,2.6-1c0.9-0.1,1.8,0.1,2.7,0.4c1.8,0.5,3.3,1.5,4.7,2.7c2.7,2.4,4.9,5.6,5.5,9.3
			l0.1,0.4L53,23.8c-1.3,0.5-2.5,1.3-3.6,2.1C48.3,26.8,47.3,27.7,46.3,28.8L46.3,28.8L46.3,28.8z M46.3,28.7
			c0.8-1.2,1.7-2.3,2.7-3.3c1.1-1,2.3-1.8,3.6-2.5l-0.3,0.5c-0.3-1.7-1-3.3-1.9-4.7c-0.9-1.5-2-2.8-3.3-4c-1.3-1.2-2.7-2.2-4.3-2.8
			c-0.8-0.3-1.6-0.5-2.5-0.5c-0.9,0-1.7,0.2-2.4,0.8c-0.7,0.5-1.1,1.3-1.2,2.2c-0.2,0.8-0.1,1.7,0.1,2.6c0.3,1.7,1.1,3.3,2,4.8
			C40.6,24.6,43.1,27.2,46.3,28.7z"/>
	</g>
	<g>
		<path class="st7" d="M119.2,30.4c3.3-1.4,6.8-4.1,9.9-7.9c6.1-7.4,8-15.8,4.3-18.8c-3.7-3-11.6,0.5-17.7,7.8
			c-3.1,3.7-5.1,7.7-5.8,11.2C113.8,24.3,116.9,27.1,119.2,30.4z"/>
		<path d="M119.2,30.4c2.5-1.3,4.7-3,6.7-4.9c2-1.9,3.8-4.1,5.2-6.4c1.5-2.3,2.8-4.8,3.5-7.5c0.4-1.3,0.6-2.7,0.4-4.1
			c-0.1-1.4-0.7-2.7-1.7-3.6c-1-0.9-2.5-1.1-3.8-1c-1.4,0.1-2.7,0.6-3.9,1.2c-2.5,1.2-4.7,2.9-6.7,4.8c-3.9,3.9-7.2,8.6-8.5,13.9
			l-0.3-0.5c1.9,0.8,3.7,2,5.2,3.4C116.9,27,118.1,28.6,119.2,30.4z M119.2,30.4c-1.2-1.6-2.7-3.1-4.2-4.4c-1.6-1.3-3.3-2.3-5.2-3
			l-0.3-0.1l0.1-0.4c0.6-2.8,1.8-5.5,3.3-7.9c1.5-2.4,3.4-4.6,5.4-6.6c2.1-1.9,4.4-3.6,7.1-4.7c1.3-0.5,2.7-0.9,4.2-1
			c1.4-0.1,3,0.2,4.1,1.2c1.1,1,1.7,2.4,1.9,3.8c0.2,1.4,0,2.9-0.2,4.3c-0.6,2.8-1.8,5.4-3.3,7.8c-1.5,2.4-3.4,4.6-5.5,6.5
			C124.3,27.8,121.9,29.5,119.2,30.4L119.2,30.4L119.2,30.4z"/>
	</g>
	<path class="st14" d="M135,11.3c-0.7,3.4-2.8,7.5-5.8,11.2c-3.1,3.8-6.7,6.5-9.9,7.9c-2.3-3.4-5.4-6.1-9.3-7.7
		c0-0.1,0.1-0.3,0.1-0.4C119.7,23.9,129.3,19.6,135,11.3z"/>
	<g>
		<path class="st4" d="M117.2,28.8c2.1-0.8,4.4-2.4,6.3-4.7c3.7-4.5,4.7-9.9,2.1-12.1c-2.6-2.1-7.7-0.2-11.5,4.4
			c-1.9,2.3-3.1,4.8-3.4,7C113.4,24.6,115.6,26.5,117.2,28.8z"/>
		<path d="M117.3,28.7c3.2-1.6,5.6-4.1,7.4-7.1c0.9-1.5,1.7-3.1,2-4.8c0.2-0.8,0.2-1.7,0.1-2.6c-0.2-0.8-0.6-1.6-1.2-2.2
			c-0.7-0.5-1.5-0.8-2.4-0.8c-0.9,0-1.7,0.2-2.5,0.5c-1.6,0.7-3,1.7-4.3,2.8c-1.3,1.2-2.3,2.5-3.3,4c-0.9,1.5-1.6,3.1-1.9,4.7
			l-0.3-0.5c1.3,0.6,2.5,1.5,3.6,2.5C115.6,26.4,116.5,27.5,117.3,28.7z M117.2,28.8c-0.9-1.1-2-2.1-3.1-2.9
			c-1.1-0.8-2.3-1.6-3.6-2.1l-0.3-0.1l0.1-0.4c0.5-3.7,2.7-6.9,5.5-9.3c1.4-1.2,3-2.2,4.7-2.7c0.9-0.3,1.8-0.4,2.7-0.4
			c0.9,0.1,1.9,0.3,2.6,1c0.7,0.6,1.2,1.5,1.4,2.4c0.2,0.9,0.2,1.8,0.1,2.7c-0.2,1.8-0.8,3.6-1.8,5.1c-0.9,1.6-2.1,3-3.5,4.1
			C120.6,27.4,119,28.4,117.2,28.8L117.2,28.8L117.2,28.8z"/>
	</g>
	<path class="st14" d="M81.3,56.7C81.2,57.2,81.1,57.1,81.3,56.7L81.3,56.7z"/>
	<path class="st14" d="M50.8,29.6c0,0,2.7-6.5,5-8.8l-2.1-1.5c0,0,0.1-1,0.7-2.5c17-5.4,36.5-5.5,52.4-0.5c2.1,3.6,4.5,9.3,2.3,14.7
		c0,0-0.8-7.2-2.8-9.3c0,0,0.7,10.5-5.5,17.6c0,0-9.9,6.8-9.4,13c0,0-2.1-10.3,5.4-18.4c0,0-9.2,6.5-8.5,20.2
		c0.7,13.8-3.1,15.8-3.1,15.8s2.2-7.6-1.3-20.4c0,0-1.5,6.2-2.5,7.3c0,0,0,0.1-0.1,0.1c0.2-1,0.1-4.8-4.3-15.9c0,0-1.2,4.8-0.7,8
		c0,0-7.5-7.3-7.1-16.8c0,0-4.1-3.1-6.4,0.6c-2.3,3.7,0.8,1.9,0,4.9c0,0-2-1.7-2.6-4.9c-0.5-3.2,4.1-2.9,4.3-4.9
		c0,0-8.4-0.1-13.5,4.9c0,0,1.9-6,9.6-9C60.5,23.6,55.4,24.6,50.8,29.6z"/>
	<g>
		<path class="st4" d="M67.7,3.8c0,0,17.6-7.7,31,1.1c0,0,5.8,3.9,8.1,6.4c0,0-0.6,1.8-4.8-0.9c0,0,8.4,9.6,4.8,18.4
			c0,0-0.8-7.2-2.8-9.3c0,0,0.7,10.5-5.5,17.6c0,0-9.9,6.8-9.4,13c0,0-2.1-10.3,5.4-18.4c0,0-9.2,6.5-8.5,20.2
			c0.7,13.8-3.1,15.7-3.1,15.7s2.2-7.6-1.3-20.4c0,0-1.5,6.2-2.5,7.3c-1,1.1,2.3,0.9-4.4-15.8c0,0-1.2,4.8-0.7,8
			c0,0-7.5-7.3-7.1-16.8c0,0-4.1-3.1-6.4,0.6c-2.3,3.7,0.8,1.9,0,4.9c0,0-2-1.7-2.6-4.9c-0.5-3.2,4.1-2.9,4.3-4.9
			c0,0-8.4-0.1-13.5,4.9c0,0,1.9-6,9.6-9c0,0-5.1,1-9.7,5.9c0,0,2.7-6.5,5-8.8L51.4,17C51.4,17,52.3,6.9,67.7,3.8z"/>
		<path d="M67.7,3.8C71,2.4,74.5,1.5,78,1c3.5-0.5,7.1-0.6,10.6-0.1c3.5,0.5,7,1.7,10,3.6c1.5,1,2.9,2,4.4,3.1
			c1.4,1.1,2.8,2.1,4.1,3.4l0.1,0.1l-0.1,0.2c-0.3,0.7-0.9,0.8-1.4,0.8c-0.5,0-1-0.1-1.4-0.3c-0.9-0.3-1.7-0.7-2.5-1.2l0.5-0.5
			c1.1,1.3,2,2.7,2.9,4.1c0.8,1.5,1.5,3,2.1,4.6c0.5,1.6,0.9,3.3,0.9,5c0,1.7-0.3,3.4-0.9,5l-0.6,1.6l-0.2-1.7
			c-0.2-1.6-0.5-3.2-0.9-4.8c-0.2-0.8-0.4-1.6-0.7-2.3c-0.3-0.7-0.6-1.5-1.1-2l0.8-0.3c0.1,1.6,0,3.2-0.2,4.8
			c-0.2,1.6-0.5,3.1-1,4.7c-0.9,3.1-2.4,6-4.5,8.4l0,0l0,0c-2.2,1.6-4.3,3.4-6.1,5.5c-0.9,1-1.7,2.1-2.3,3.4c-0.6,1.2-1,2.5-0.9,3.9
			L89,50.1c-0.3-1.7-0.3-3.3-0.2-5c0.1-1.7,0.4-3.3,0.8-4.9c0.9-3.2,2.6-6.2,4.8-8.7l0.2,0.2c-2.6,2-4.6,4.7-6,7.6
			c-1.4,2.9-2.2,6.1-2.4,9.4c-0.1,1.6,0,3.2,0.1,4.9c0,1.6,0,3.3-0.1,4.9c-0.1,1.6-0.3,3.3-0.8,4.9c-0.2,0.8-0.5,1.6-0.8,2.4
			c-0.4,0.8-0.8,1.5-1.6,2.1l-0.6,0.4l0.2-0.7c0.4-1.6,0.5-3.4,0.6-5.1c0.1-1.7,0-3.4-0.1-5.1c-0.3-3.4-0.9-6.8-1.8-10.1l0.7,0
			c-0.5,2-1,4.1-1.8,6.1c-0.2,0.5-0.4,1-0.8,1.5c0,0,0,0.1,0,0.1c0,0,0,0,0,0c0,0,0-0.1,0-0.2c-0.1-0.1-0.1-0.2-0.3-0.2
			c-0.1,0-0.2,0-0.2,0c0,0-0.1,0-0.1,0.1c-0.1,0.1-0.1,0.1-0.1,0.1c0,0,0-0.1,0-0.2c0-0.2,0-0.5,0-0.7c0-1-0.2-2-0.4-3
			c-0.9-4-2.4-8-4-11.8l0.9-0.1c-0.3,1.3-0.5,2.6-0.7,3.9c-0.1,1.3-0.2,2.6,0,3.9l0.3,1.5L73.7,47c-1.1-1.2-2.1-2.4-3-3.7
			c-0.9-1.3-1.7-2.7-2.3-4.1c-1.3-2.9-2.1-6.1-2-9.3l0.2,0.4c-0.8-0.5-1.8-1-2.7-1.1C63,29,62.1,29.3,61.5,30
			c-0.3,0.3-0.6,0.7-0.8,1.2c-0.2,0.4-0.5,0.9-0.5,1.2c0,0.1,0,0.2,0.2,0.3c0.2,0.2,0.4,0.4,0.6,0.7c0.3,0.7,0.2,1.4,0.1,1.9
			l-0.2,0.9l-0.6-0.6c-0.9-0.8-1.5-1.7-2-2.7c-0.2-0.5-0.4-1-0.6-1.6c-0.1-0.3-0.1-0.5-0.2-0.8l0-0.1l0-0.1l0-0.2c0-0.2,0-0.3,0-0.5
			c0-0.6,0.4-1.3,0.8-1.7c0.4-0.4,1-0.7,1.4-1c0.5-0.2,1-0.5,1.4-0.7c0.4-0.2,0.7-0.5,0.7-0.8l0.5,0.5c-1.2,0-2.4,0.1-3.6,0.3
			c-1.2,0.2-2.4,0.5-3.5,0.8c-2.3,0.7-4.4,1.9-6.1,3.5l-1.4,1.3l0.7-1.8c0.4-1.2,1-2.1,1.7-3.1c0.7-0.9,1.5-1.8,2.3-2.6
			c1.7-1.5,3.8-2.7,5.9-3.5l0.2,0.7c-0.9,0.2-1.8,0.5-2.7,0.9c-0.9,0.4-1.7,0.8-2.5,1.3c-1.6,1-3.1,2.2-4.4,3.6l-1,1.1l0.6-1.3
			c0.7-1.6,1.4-3.1,2.2-4.6c0.4-0.7,0.8-1.5,1.3-2.2c0.5-0.7,1-1.4,1.6-2l0,0.3l-2.1-1.6l-0.1-0.1l0-0.1c0.3-1.9,1.1-3.6,2.2-5.1
			c1.1-1.5,2.4-2.8,4-3.9C60.5,5.7,64.1,4.5,67.7,3.8z M67.7,3.9c-3.6,0.7-7.2,2-10.2,4.2c-1.5,1.1-2.8,2.4-3.9,3.9
			c-1,1.5-1.8,3.3-2.1,5l-0.1-0.1l2.2,1.5l0.2,0.1l-0.1,0.1c-0.6,0.6-1,1.3-1.5,2c-0.4,0.7-0.9,1.4-1.2,2.2c-0.8,1.5-1.5,3-2.1,4.6
			l-0.4-0.3c1.3-1.4,2.8-2.7,4.5-3.8c0.8-0.5,1.7-1,2.6-1.4c0.9-0.4,1.8-0.7,2.8-1l0.2,0.7c-2.1,0.8-4,2-5.6,3.5
			c-0.8,0.7-1.5,1.6-2.2,2.5c-0.6,0.9-1.2,1.9-1.5,2.8l-0.7-0.5c1.8-1.8,4.1-3,6.5-3.8c1.2-0.4,2.4-0.7,3.6-0.9
			c1.2-0.2,2.5-0.3,3.7-0.4l0.5,0l0,0.5c0,0.4-0.2,0.8-0.4,1c-0.2,0.3-0.5,0.4-0.7,0.6c-0.5,0.3-1,0.5-1.4,0.7
			c-0.9,0.4-1.7,1-1.7,1.8c0,0.3,0.1,0.9,0.2,1.4c0.1,0.5,0.3,0.9,0.5,1.4c0.4,0.9,1,1.8,1.7,2.4L60,35.2c0.1-0.5,0.2-0.9,0-1.2
			c-0.1-0.1-0.2-0.3-0.4-0.5c-0.2-0.2-0.5-0.7-0.5-1.1c0-0.8,0.3-1.2,0.6-1.7c0.3-0.5,0.6-1,1-1.4c0.8-0.9,2.2-1.3,3.3-1.2
			c1.2,0.1,2.2,0.6,3.2,1.3l0.2,0.2l0,0.3c-0.1,3,0.6,6.1,1.8,8.8c0.6,1.4,1.4,2.7,2.2,4c0.9,1.3,1.8,2.5,2.9,3.6l-0.8,0.4
			c-0.2-1.4-0.2-2.8,0-4.2c0.2-1.4,0.4-2.7,0.7-4l0.4-1.4l0.5,1.4c0.8,2,1.5,3.9,2.2,5.9c0.7,2,1.3,4,1.7,6.1c0.2,1,0.4,2.1,0.4,3.2
			c0,0.3,0,0.6,0,0.9c0,0.2,0,0.3-0.1,0.5c0,0,0,0.1-0.1,0.2c0,0-0.1,0-0.1,0.1c0,0-0.1,0-0.2,0c-0.2,0-0.3-0.1-0.4-0.3
			c0-0.1,0-0.2,0-0.2c0-0.1,0-0.2,0.1-0.2c0-0.1,0.1-0.2,0.1-0.3c0.3-0.4,0.5-0.8,0.7-1.3c0.7-1.9,1.3-3.9,1.8-5.9l0.4-1.4l0.4,1.4
			c0.9,3.3,1.5,6.8,1.8,10.2c0.1,1.7,0.2,3.5,0.1,5.2c-0.1,1.7-0.3,3.5-0.7,5.2l-0.4-0.3c0.6-0.4,1-1.1,1.4-1.8
			c0.4-0.7,0.6-1.5,0.8-2.3c0.4-1.6,0.7-3.2,0.8-4.8c0.1-1.6,0.2-3.3,0.1-4.9c0-1.6-0.2-3.3,0-4.9c0.2-3.3,1-6.6,2.5-9.5
			c0.7-1.5,1.6-2.9,2.6-4.2c1-1.3,2.1-2.5,3.5-3.5l0.2,0.2c-2.2,2.4-3.8,5.4-4.7,8.5c-0.4,1.6-0.7,3.2-0.8,4.8
			c-0.1,1.6,0,3.3,0.2,4.9L89,50.1c-0.1-1.5,0.3-2.9,0.9-4.1c0.6-1.3,1.4-2.4,2.3-3.5c0.9-1.1,1.9-2.1,2.9-3c1-0.9,2.1-1.8,3.3-2.6
			l-0.1,0.1c2-2.3,3.4-5.2,4.2-8.2c0.4-1.5,0.7-3,0.9-4.6c0.2-1.5,0.3-3.1,0.2-4.6l-0.1-1.3l0.8,0.9c0.6,0.7,0.9,1.5,1.3,2.3
			c0.3,0.8,0.5,1.6,0.7,2.4c0.4,1.6,0.7,3.2,0.9,4.9l-0.9-0.1c0.6-1.5,0.9-3.1,0.9-4.7c0-1.6-0.3-3.2-0.8-4.8c-0.5-1.5-1.2-3-2-4.5
			c-0.8-1.4-1.7-2.8-2.7-4.1L100.4,9l1.8,1.1c0.7,0.5,1.5,0.9,2.3,1.2c0.4,0.1,0.8,0.2,1.2,0.2c0.4,0,0.8-0.2,0.8-0.3l0.1,0.3
			c-1.2-1.2-2.6-2.4-4-3.4c-1.4-1.1-2.8-2.1-4.3-3.1C95.4,3,92,1.8,88.5,1.2c-3.5-0.6-7.1-0.5-10.6,0C74.5,1.7,71,2.5,67.7,3.9
			L67.7,3.9L67.7,3.9z"/>
	</g>
	<path class="st12" d="M89.2,50.1c0,0-2-9.9,5-18c-0.3,3.6-1.3,7.3-2,10.9C90.4,45.1,89,47.6,89.2,50.1z"/>
	<g>
		<path class="st4" d="M79.1,54.5C79,55,78.9,54.9,79.1,54.5L79.1,54.5z"/>
		<path d="M79.1,54.6c0.3,0.1,0.4,0.2,0.3,0.3c-0.1,0-0.2,0-0.3,0c0,0,0,0,0,0.1c0,0,0,0,0,0.1c0,0,0,0.1-0.1,0.1c0,0-0.1,0.1-0.2,0
			C78.7,55,78.7,55,78.7,55c0-0.1,0-0.1-0.1-0.1c0,0,0-0.1-0.1-0.1c0,0,0-0.1,0-0.1c0-0.1,0-0.1,0-0.2
			C78.6,54.4,78.8,54.4,79.1,54.6L79.1,54.6L79.1,54.6z M79.1,54.5L79.1,54.5c0.3,0.3,0.4,0.3,0.4,0.4c0,0,0,0-0.1,0c0,0,0,0-0.1,0
			c0,0,0,0-0.1-0.1c0,0,0,0-0.1-0.1C79.2,54.7,79.2,54.7,79.1,54.5c-0.1,0-0.2,0.1-0.2,0.1c0,0,0,0-0.1,0.1l0,0c0,0,0,0,0,0
			c0,0-0.2-0.1-0.2-0.1c-0.1,0,0,0,0,0C78.8,54.5,78.8,54.5,79.1,54.5L79.1,54.5z"/>
	</g>
	<path class="st12" d="M58.3,21.4c0,0-5.1,1-9.7,5.9c0,0,2.7-6.5,5-8.8L51.4,17c0,0,0.4-4.1,4.7-7.9c-0.1,2.9,0.8,5.8,2.3,8.7
		c1.1-2.2,3.3-3.3,5.5-5.5c0,3.3-1.1,6.6,1.1,9.9c1.1-2.2,0-6.6,4.4-7.7c0,5.5,2.2,11,5.5,15.4c2.2-2.2-3.3-6.6,2.2-8.8
		c1.1,6.6,3.3,14.3,5.5,20.9c1.1-8.8,5.5-16.5,7.7-24.2c3.3,1.1,3.3,5.5,3.3,7.7c0.6,2.1,0.7,4.2,0.6,6.4c-1.7,1.4-8.7,7.9-8.1,19.9
		c0.7,13.8-3.1,15.7-3.1,15.7s2.2-7.6-1.3-20.4c0,0-1.5,6.2-2.5,7.3c0,0,0,0.1-0.1,0.1c0.2-1,0.1-4.8-4.3-15.9c0,0-1.2,4.8-0.7,8
		c0,0-7.5-7.3-7.1-16.8c0,0-4.1-3.1-6.4,0.6c-2.3,3.7,0.8,1.9,0,4.9c0,0-2-1.7-2.6-4.9c-0.5-3.2,4.1-2.9,4.3-4.9
		c0,0-8.4-0.1-13.5,4.9C48.7,30.4,50.6,24.5,58.3,21.4z"/>
	<g class="st3">
		<path class="st1" d="M112.6,19.4C112.6,19.3,112.6,19.3,112.6,19.4L112.6,19.4z"/>
		<path class="st1" d="M61.3,159.7c10.9,1.6,21.1,0.8,32-1.6c-0.6,5.6-3.3,12.3-1,17.5c-0.2,0.3-0.5,0.6-0.8,0.8
			c0,0-2.9,2.3-2.3-13.5c0,0-10.3,3.6-23.3,0c0,0,0,6.8-0.9,10.7C64.3,168.8,61.9,164.5,61.3,159.7z"/>
		<path class="st1" d="M54.4,133.5c-4.5-6-2.7-8.1-2.7-8.1c2.4-9.8,13-22.1,13-22.1l0,16.2l-4.1,6.1c-0.2,1.4-0.5,2.8-0.7,4.2
			c2.7,5.8,1.2,6.2,1.2,6.2c-1.2,1.1-2.2,2-3.1,2.8c-0.4,1.8-0.8,3.5-1.3,5.3c-3.1,11.5,5.8,21.4,7,32.1c-1.3,0-3.2-3.7-6.2-15.1
			c0,0-4.9-5.1-4.1-19.3c-1.6,0.5-0.7-1.9,0.4-4C53.9,136.5,54.1,135.1,54.4,133.5z"/>
		<path class="st1" d="M101.8,154.5c-0.7-16.4-4.2-32.8-6.6-48.8C98.7,115.3,104.8,136,101.8,154.5z"/>
	</g>
	<g>
		<path class="st7" d="M66.4,100.9c0,0-13,12.4-16.5,22.7c0,0-2.6,2.4,3.4,10.4c0,0-12.1,15.4,6.2,1.7c0,0,2-0.5-1.7-8.8l7.2-8.6"/>
		<path d="M66.4,100.9c-1.6,1.7-3.2,3.5-4.7,5.3c-1.5,1.8-3,3.6-4.4,5.5c-1.4,1.9-2.8,3.8-4,5.8c-1.3,2-2.4,4-3.2,6.2l0,0l0,0
			c-0.5,0.6-0.6,1.7-0.5,2.6c0.1,0.9,0.5,1.8,0.9,2.7c0.8,1.7,1.9,3.3,3.1,4.8l0.1,0.2l-0.1,0.2c-1,1.3-1.9,2.7-2.7,4.2
			c-0.4,0.7-0.8,1.5-0.9,2.2c0,0.2,0,0.3,0,0.4c0,0,0,0,0.1,0c0.2,0,0.6-0.1,1-0.2c1.5-0.6,2.9-1.6,4.2-2.5c1.4-1,2.7-1.9,4.1-2.9
			l0.1,0l0.1,0c-0.1,0,0,0,0,0c0,0,0-0.1,0.1-0.1c0-0.1,0.1-0.3,0.1-0.4c0-0.3,0-0.7,0-1c-0.1-0.7-0.3-1.5-0.5-2.2
			c-0.4-1.5-1-2.9-1.6-4.3l-0.1-0.2l0.2-0.2c1.2-1.4,2.5-2.8,3.7-4.2c1.2-1.4,2.5-2.8,3.7-4.2l0.1,0.1c-1.1,1.5-2.2,3-3.4,4.5
			c-1.2,1.5-2.3,3-3.5,4.4l0.1-0.4c0.7,1.4,1.3,2.9,1.8,4.4c0.2,0.8,0.4,1.5,0.5,2.4c0,0.4,0.1,0.8,0,1.3c0,0.2-0.1,0.5-0.2,0.7
			c-0.1,0.1-0.1,0.3-0.2,0.4c-0.1,0.1-0.2,0.2-0.5,0.3l0.2-0.1c-1.3,1-2.7,2-4.1,2.9c-1.4,0.9-2.8,1.8-4.5,2.5
			c-0.4,0.1-0.8,0.3-1.4,0.3c-0.2,0-0.3-0.1-0.5-0.2c-0.2-0.1-0.3-0.3-0.3-0.5c-0.1-0.3,0-0.6,0-0.8c0.2-0.9,0.7-1.6,1.1-2.4
			c0.9-1.5,1.9-2.8,3-4.1l0,0.3c-1.1-1.6-2.2-3.2-3-5c-0.4-0.9-0.7-1.8-0.9-2.8c-0.1-1-0.2-2,0.5-2.9l-0.1,0.1
			c0.7-2.3,1.8-4.4,2.9-6.5c1.2-2.1,2.5-4,4-5.9c1.5-1.9,3-3.7,4.6-5.4C62.9,104.1,64.6,102.4,66.4,100.9L66.4,100.9z"/>
	</g>
	<path class="st14" d="M58.2,133.2c1.6-1.6-3.9-7-0.8-9.4c2-2,3.9-3.9,6.8-4.5l-6.3,7.6c3.7,8.3,1.7,8.8,1.7,8.8
		c-5.5,4.2-8.3,5.6-9.4,5.7C53,138.7,55.5,135.4,58.2,133.2z"/>
	<g>
		<circle cx="107.4" cy="78.8" r="3.6"/>
		<circle class="st11" cx="109.5" cy="77.5" r="0.7"/>
	</g>
	<g>
		<circle cx="54.9" cy="78.8" r="3.6"/>
		<circle class="st11" cx="57" cy="77.5" r="0.7"/>
	</g>
	<g>
		<path class="st11" d="M96.2,89.3c0,0-8.4-3.7-19.6-1.4c-11.3,2.3-14.4-1.7-14.4-1.7S75,100.1,96.2,89.3z"/>
		<path d="M96,89.3c-2.7-0.9-5.5-1.4-8.4-1.6c-2.9-0.2-5.8-0.1-8.6,0.2c-1.4,0.2-2.8,0.5-4.3,0.6c-1.5,0.2-2.9,0.3-4.4,0.3
			c-1.5,0-2.9-0.1-4.4-0.5c-0.7-0.2-1.4-0.4-2.1-0.7c-0.7-0.3-1.3-0.7-1.9-1.3l0.4-0.3c2.2,2,4.8,3.6,7.6,4.7c2.8,1.2,5.7,1.8,8.7,2
			c3,0.2,6,0,8.9-0.7C90.4,91.5,93.3,90.5,96,89.3z M96.2,89.3c-2.6,1.5-5.5,2.8-8.4,3.6c-3,0.8-6.1,1.2-9.2,1c-3.1-0.2-6.2-1-9-2.2
			c-2.8-1.3-5.4-3-7.6-5.2l0.4-0.3c0.9,1,2.3,1.6,3.7,2c1.4,0.4,2.8,0.5,4.3,0.4c1.4,0,2.9-0.2,4.3-0.5c1.4-0.3,2.8-0.7,4.3-0.9
			c2.9-0.5,5.9-0.5,8.8-0.1C90.6,87.3,93.5,88,96.2,89.3L96.2,89.3L96.2,89.3z"/>
	</g>
	<path class="st5" d="M85.5,90.2c-3.9,1.2-7.7,2.2-11.5,2.4c-2.8-0.7-5.2-1.7-7-2.8C73.2,90.6,79.4,89.5,85.5,90.2z"/>
	<g>
		<path class="st11" d="M62.2,86.2c0,0,0.1,0.1,0.4,0.4C62.3,86.3,62.2,86.2,62.2,86.2z"/>
		<path d="M62.2,86.2c0.2-0.1,0.3-0.1,0.3-0.1c0.1,0,0.1,0,0.1,0.1c0,0.1-0.1,0.2-0.1,0.3c0,0.1,0.1,0,0.2,0l-0.4,0.4
			c-0.2,0.1-0.3,0.1-0.4,0C61.9,86.7,61.9,86.5,62.2,86.2L62.2,86.2L62.2,86.2z M62.1,86.2L62.1,86.2c0.3-0.2,0.5-0.2,0.6-0.2
			c0,0.1,0.1,0.1,0,0.3l-0.4,0.4c0-0.1,0-0.2,0-0.2c-0.1,0-0.2,0.1-0.3,0.1c-0.1,0-0.1,0-0.1-0.1C62,86.5,62,86.4,62.1,86.2
			L62.1,86.2z"/>
	</g>
	<g>
		<path class="st11" d="M83.7,90.7c0,0-9.2,0.7-15.1,0"/>
		<path d="M83.7,90.7c-2.5,0.6-5,0.7-7.5,0.8c-2.5,0-5.1-0.1-7.5-0.8c2.5-0.1,5-0.2,7.5-0.2C78.7,90.5,81.2,90.5,83.7,90.7z"/>
	</g>
</g>
</svg>
