<?xml version="1.0" encoding="utf-8"?>
<!-- Generator: Adobe Illustrator 15.1.0, SVG Export Plug-In . SVG Version: 6.00 Build 0)  -->
<!DOCTYPE svg PUBLIC "-//W3C//DTD SVG 1.1//EN" "http://www.w3.org/Graphics/SVG/1.1/DTD/svg11.dtd">
<svg version="1.1" id="Layer_1" xmlns="http://www.w3.org/2000/svg" xmlns:xlink="http://www.w3.org/1999/xlink" x="0px" y="0px"
	 width="121px" height="144px" viewBox="0 0 121 144" style="enable-background:new 0 0 121 144;" xml:space="preserve">
<style type="text/css">
<![CDATA[
	.st0{fill:#E59F5A;}
	.st1{opacity:0.21;}
	.st2{opacity:0.25;}
	.st3{opacity:0.52;}
	.st4{opacity:0.61;}
	.st5{fill:#591E01;}
	.st6{fill:#F9D3AA;}
	.st7{fill:#C17E34;}
	.st8{fill:#C92727;}
	.st9{opacity:0.52;fill:#FF9999;}
	.st10{fill:none;stroke:#000000;stroke-miterlimit:10;}
	.st11{fill:#FFFFFF;}
	.st12{opacity:0.37;fill:#997858;}
	.st13{opacity:0.47;fill:#FFA6A6;}
	.st14{opacity:0.52;fill:#6D4319;}
	.st15{fill:#6D4319;}
	.st16{opacity:0.4;fill:#6D4319;}
]]>
</style>
<g>
	<g>
		<path class="st7" d="M50.1,113.9c0,0-1.3-7.7-7.2-9.5c-6-1.8-14.6-9.8-14.6-14.6s-5.1-1.6-3.7,2.7c1.4,4.3,7.5,12,17.1,15.4
			c0,0,5.1,1.1,7.2,10.7C50.9,128,50.1,113.9,50.1,113.9z"/>
		<path d="M50,113.9c-0.6-2.7-1.8-5.4-3.8-7.3c-1-0.9-2.2-1.6-3.5-2c-1.4-0.4-2.7-1-3.9-1.7c-1.2-0.7-2.4-1.5-3.5-2.4
			c-1.1-0.9-2.1-1.9-3.1-2.9c-1-1-1.8-2.2-2.6-3.4c-0.7-1.2-1.4-2.5-1.6-4c-0.1-0.7,0-1.4-0.3-2c-0.1-0.3-0.3-0.6-0.6-0.7
			c-0.3-0.1-0.6-0.1-0.9,0c-1.2,0.5-1.9,2-1.9,3.3c0,0.7,0.2,1.3,0.5,2c0.3,0.6,0.6,1.2,0.9,1.8c0.7,1.2,1.5,2.3,2.4,3.3
			c3.6,4.2,8.3,7.4,13.5,9.3l-0.1,0c1.2,0.3,2.1,1,2.9,1.7c0.8,0.7,1.5,1.6,2.1,2.5c1.1,1.8,1.8,3.9,2.3,5.9c0.2,1,0.4,2.1,0.6,3.1
			c0.1,0.2,0.1,0.5,0.2,0.7c0,0.1,0.1,0.2,0.1,0.3c0,0,0.1,0.1,0,0.1c0,0-0.1,0-0.1,0c0,0,0,0,0,0c0.2-0.4,0.2-1,0.2-1.4
			C50.2,118.1,50.1,116,50,113.9z M50.1,113.9c0.1,2.1,0.2,4.2,0.2,6.2c0,0.5,0,1-0.2,1.6c0,0,0,0.1-0.1,0.1c-0.1,0.1-0.2,0.1-0.3,0
			c-0.1-0.1-0.2-0.2-0.2-0.2c-0.1-0.1-0.1-0.3-0.2-0.4c-0.1-0.3-0.2-0.5-0.3-0.8c-0.3-1-0.6-2-0.8-3c-0.6-2-1.3-3.9-2.4-5.6
			c-0.5-0.8-1.2-1.6-1.9-2.3c-0.7-0.6-1.6-1.2-2.4-1.4l-0.1,0l0,0c-5.4-1.9-10.1-5.4-13.7-9.8c-0.9-1.1-1.7-2.3-2.3-3.5
			c-0.3-0.6-0.6-1.3-0.9-1.9c-0.2-0.6-0.4-1.4-0.4-2.1c0-1.4,0.7-3,2.1-3.6c0.4-0.1,0.8-0.2,1.1,0c0.4,0.2,0.6,0.5,0.8,0.8
			c0.3,0.7,0.3,1.5,0.3,2.1c0.2,1.3,0.9,2.6,1.6,3.7c0.8,1.1,1.7,2.2,2.7,3.2c2,1.9,4.1,3.7,6.5,5.1c1.2,0.7,2.4,1.3,3.7,1.8
			c1.4,0.5,2.6,1.3,3.6,2.3c1,1,1.7,2.3,2.3,3.5C49.4,111.2,49.9,112.5,50.1,113.9L50.1,113.9L50.1,113.9z"/>
	</g>
	<path class="st14" d="M25.2,88.2c-0.3,3,0,6.2,2.5,7.6c9.5,6.2,18.2,12.4,22.6,21.5c0.1,3.4,0,7.3-1.4,1
		c-2.1-9.6-7.2-10.7-7.2-10.7c-9.5-3.4-15.6-11.1-17.1-15.4C23.9,90.7,24.4,89.1,25.2,88.2z"/>
	<g>
		<path class="st7" d="M79,5.9c0,0,6.4,1.6,9.8,1.6c3.4,0,12.9,4.2,18.8,21.7c5.8,17.5,22.9,50-3.2,46.1c-26.1-3.9-4-36.8-5.7-50.3"
			/>
		<path d="M79,5.8c3.2,0.6,6.4,1.3,9.7,1.3c1.7,0,3.3,0.6,4.8,1.4c1.5,0.8,2.8,1.8,4.1,2.9c4.9,4.5,8.1,10.6,10.2,16.8
			c1,3.1,2.1,6.2,3.2,9.2c1.1,3.1,2.3,6.1,3.3,9.2c1.1,3.1,2.1,6.2,2.9,9.4c0.8,3.2,1.5,6.4,1.5,9.7c0,1.7-0.2,3.3-0.8,4.9
			c-0.6,1.6-1.7,3-3.2,3.9c-1.5,0.9-3.2,1.3-4.8,1.4c-1.7,0.1-3.3,0-5-0.2c-3.3-0.4-6.6-1.3-9.3-3.5c-1.3-1.1-2.4-2.5-3.1-4
			c-0.7-1.6-1.1-3.2-1.3-4.9c-0.3-3.3,0.1-6.7,0.8-9.9c0.7-3.2,1.6-6.4,2.6-9.5c0.9-3.1,1.9-6.2,2.8-9.4c0.8-3.1,1.6-6.4,1.4-9.6
			l0.1,0c0.2,1.6,0.1,3.3-0.1,4.9c-0.2,1.6-0.5,3.2-0.9,4.8c-0.8,3.2-1.7,6.3-2.6,9.5c-0.9,3.1-1.7,6.3-2.3,9.5
			c-0.6,3.2-1,6.4-0.7,9.6c0.2,1.6,0.5,3.1,1.2,4.6c0.7,1.4,1.6,2.7,2.8,3.7c2.4,2,5.6,2.9,8.8,3.4c1.6,0.2,3.2,0.3,4.8,0.2
			c1.6-0.1,3.2-0.5,4.5-1.2c1.4-0.8,2.4-2,3-3.5c0.6-1.5,0.8-3.1,0.9-4.7c0.1-3.2-0.5-6.5-1.3-9.6c-0.8-3.2-1.8-6.3-2.9-9.3
			c-2.2-6.1-4.9-12.1-7-18.3c-1.1-3.1-2.4-6-4-8.8c-1.6-2.8-3.5-5.4-5.9-7.6c-1.2-1.1-2.5-2.1-3.9-2.9c-1.4-0.8-2.9-1.4-4.5-1.4
			c-1.7-0.1-3.3-0.4-4.9-0.7C82.1,6.7,80.5,6.3,79,5.8L79,5.8z"/>
	</g>
	<path class="st14" d="M98.7,24.9L79,5.9c0,0,6.4,1.6,9.8,1.6c3.4,0,12.9,4.2,18.8,21.7c1.6,4.8,4.1,10.8,6.2,16.8
		c0.4,10.3-1.9,20.7-6.5,29.6c-0.9,0-1.9-0.1-2.9-0.3C78.3,71.3,100.4,38.4,98.7,24.9z"/>
	<g>
		<path class="st6" d="M31.3,63.8c0.8-5,1.1-4.7,1.1-7c0.3-15.3,14.9-22.5,32.9-22.5c18,0,30.8,3.6,32.3,21.5
			c0.2,2.8-1.2,5.7-1.2,8.3c0,2.6,1.2,4.3,1.2,6.5c0,7.2-8,11.4-34.2,11.4c-26.2,0-33.4-4.2-33.4-11.4
			C30.2,67.9,30.5,68.8,31.3,63.8z"/>
		<g>
			<path d="M31.3,63.8c0.2-1,0.3-2,0.5-3c0.2-1,0.5-2,0.5-3c0.1-1,0-2,0.2-3c0.1-1,0.3-2,0.5-3c0.9-4,3.3-7.6,6.4-10.3
				c3.1-2.7,7-4.5,10.9-5.6c3.9-1.2,8-1.7,12.1-1.9c4.1-0.1,8.2,0,12.2,0.5c4,0.5,8.1,1.3,11.8,3.1c3.7,1.7,6.9,4.7,8.7,8.3
				c0.9,1.8,1.6,3.8,2,5.8c0.2,1,0.4,2,0.5,3c0.1,0.5,0.1,1,0.1,1.5c0,0.5,0,1.1-0.1,1.6c-0.2,2.1-1,4-1,6c0,1,0.1,1.9,0.4,2.9
				c0.3,1,0.6,1.9,0.7,3c0.3,2.1-0.3,4.4-1.6,6c-1.4,1.7-3.3,2.7-5.2,3.5c-3.9,1.5-8,2.2-12,2.6c-4.1,0.4-8.2,0.6-12.2,0.7
				c-4.1,0-8.2,0-12.2-0.2c-4.1-0.2-8.2-0.6-12.2-1.4c-2-0.4-4-1-5.9-1.8c-1.9-0.8-3.7-1.9-5-3.5c-0.6-0.8-1.1-1.8-1.3-2.8
				c-0.3-1-0.3-2-0.2-3.1c0-1,0.4-2,0.6-3C30.9,65.8,31.1,64.8,31.3,63.8z M31.4,63.8c-0.2,1-0.3,2-0.5,3c-0.2,1-0.6,2-0.6,3
				c-0.1,2,0.3,4.1,1.6,5.7c1.3,1.6,3.1,2.5,5,3.3c1.9,0.7,3.9,1.2,5.8,1.5c4,0.7,8,1,12.1,1.1c4.1,0.1,8.1,0.2,12.2,0.1
				c4.1-0.1,8.1-0.3,12.1-0.7c4-0.4,8-1,11.8-2.5c1.8-0.7,3.6-1.7,4.9-3.2c1.3-1.5,1.8-3.5,1.6-5.4c-0.1-1-0.4-1.9-0.7-2.9
				c-0.2-1-0.4-2.1-0.4-3.1c0.1-2.1,0.9-4,1.1-6c0.2-1,0.1-2,0-3c-0.1-1-0.2-2-0.4-3c-0.4-2-1-3.9-1.9-5.7c-0.9-1.8-2.1-3.5-3.6-4.8
				c-1.5-1.4-3.2-2.5-5-3.4c-3.7-1.7-7.7-2.5-11.7-2.8c-4-0.4-8.1-0.4-12.1-0.2c-4,0.2-8,0.8-11.9,1.9c-3.9,1.1-7.6,2.8-10.7,5.3
				c-3.1,2.5-5.5,5.9-6.6,9.9c-0.6,2-0.7,4-0.8,6c-0.1,1-0.4,2-0.6,3C31.7,61.8,31.5,62.8,31.4,63.8z"/>
		</g>
	</g>
	<g>
		<path class="st12" d="M94.5,72.2c0.9-1.8,1.7-4.1,2.2-6.5c0.3,1.8,1,3.3,1,5c0,4.6-3.3,8-12.6,9.9C89.5,78.8,92.9,76.1,94.5,72.2z
			"/>
		<path class="st12" d="M31.3,63.8c0.8-5,1.1-4.7,1.1-7c0.1-3.1,0.7-5.9,1.9-8.4c-0.1,1.6-0.3,3.2-0.4,4.8
			C38.2,39.4,50.9,32.9,66,32.9c18,0,30.9,4.7,32.7,27.8c-3-1.9-6.1-3.5-9.1-4.8c-0.1-2.2-0.3-4.5-1-6.3c0,2.2,0,4.1,0,5.9
			c-3.6-1.4-7.2-2.4-10.9-3c0-3.1,0-6.3,0-9.4c0,3.4-0.8,6.2-1.1,9.2c-8.4-1.3-17-0.6-25.5,1.3c0-2.2,0-4.4,0-6.7
			c-1.1,2.1-1.3,4.5-1.2,7c-4,1-8,2.3-12,3.8c-0.4-2.5-0.6-5.2-0.6-8.2c-0.7,2.6-0.9,5.8-0.9,8.8c-0.8,0.3-1.6,0.7-2.4,1
			c0,8.7,1.6,16.7,8.4,21.1c-9-1.8-12-5.2-12-9.9C30.2,67.9,30.5,68.8,31.3,63.8z"/>
	</g>
	<g>
		<path class="st5" d="M34.9,57.9c-1.2,0.5-2.4,1-3.6,1.5C33,40.3,47.9,31.3,66,31.3c18.8,0,32.3,4.9,34.1,29c-3.1-2-6.3-3.7-9.5-5
			c-0.1-2.3-0.3-4.7-1-6.6c0,2.3,0,4.2,0,6.2c-3.7-1.5-7.5-2.5-11.3-3.2c0-3.3,0-6.5,0-9.8c0,3.5-0.9,6.5-1.2,9.6
			c-8.8-1.3-17.8-0.7-26.7,1.4c0-2.3,0-4.6,0-7c-1.1,2.2-1.3,4.7-1.3,7.3c-4.2,1-8.4,2.4-12.5,4c-0.4-2.7-0.7-5.5-0.7-8.6
			C35.2,51.4,35,54.8,34.9,57.9z"/>
		<path d="M34.9,58c-1.2,0.5-2.4,1-3.6,1.6l-0.2,0.1l0-0.2c0.3-4.2,1.3-8.4,3.3-12.2c1.9-3.8,4.7-7.1,8.2-9.6
			c3.4-2.5,7.4-4.3,11.5-5.3c4.1-1.1,8.4-1.5,12.6-1.4c4.2,0,8.5,0.4,12.6,1.3c4.1,0.9,8.2,2.6,11.4,5.4c3.3,2.7,5.6,6.4,7,10.4
			c1.5,4,2.2,8.2,2.5,12.4l0,0.4l-0.3-0.2c-3-1.9-6.2-3.6-9.5-4.9l-0.2-0.1l0-0.2c-0.1-2.2-0.3-4.5-1-6.5l0.6-0.1l0,6.2l0,0.5
			l-0.5-0.2c-3.6-1.4-7.4-2.4-11.3-3.1l-0.4-0.1l0-0.4l0-9.8h1c0,1.7-0.2,3.3-0.4,4.9c-0.3,1.6-0.6,3.2-0.7,4.8l-0.1,0.5l-0.5-0.1
			c-4.4-0.7-8.8-0.8-13.3-0.6c-4.4,0.3-8.8,1-13.2,1.9l-0.6,0.1l0-0.6l0.1-7l0.8,0.2c-1.1,2.1-1.3,4.6-1.3,7.1l0,0.3l-0.3,0.1
			c-4.2,1-8.4,2.4-12.5,3.9l-0.3,0.1l-0.1-0.3c-0.4-2.8-0.6-5.7-0.6-8.6l0.4,0C35.3,51.7,35.1,54.8,34.9,58L34.9,58L34.9,58z
			 M34.9,57.9c0-3.1,0.2-6.2,0.9-9.2l0.3-1.5l0,1.5c0.1,2.9,0.3,5.7,0.7,8.5L36.5,57c4.1-1.6,8.3-3,12.5-4.1l-0.3,0.4
			c0-2.5,0.1-5.1,1.3-7.5l0.8-1.6l0,1.8l0.1,7l-0.6-0.5c4.4-1,8.8-1.7,13.3-2c4.5-0.3,9-0.1,13.5,0.6l-0.6,0.5
			c0.2-1.6,0.5-3.2,0.8-4.8c0.3-1.6,0.5-3.2,0.5-4.7h1l0,9.8l-0.4-0.4c3.9,0.7,7.7,1.8,11.4,3.3l-0.5,0.3l0-6.2l0-1.8l0.6,1.7
			c0.4,1.1,0.6,2.2,0.7,3.3c0.1,1.1,0.2,2.3,0.2,3.4l-0.2-0.2c1.7,0.7,3.3,1.5,4.9,2.3c1.6,0.8,3.1,1.8,4.7,2.8l-0.3,0.2
			c-0.3-4.2-1-8.4-2.4-12.3c-1.4-3.9-3.7-7.6-7-10.2c-3.2-2.6-7.2-4.2-11.3-5c-4.1-0.9-8.3-1.1-12.5-1.1c-4.2,0-8.3,0.4-12.4,1.4
			c-4,1-7.9,2.7-11.3,5.1c-3.4,2.4-6.2,5.6-8.1,9.3c-2,3.7-3.1,7.8-3.5,11.9l-0.2-0.1C32.4,58.8,33.6,58.3,34.9,57.9z"/>
	</g>
	<g>
		<g>
			<path class="st7" d="M91.6,11.5C91.6,11.3,91.7,11.3,91.6,11.5L91.6,11.5z"/>
			<path d="M91.6,11.5c-0.3-0.1-0.4-0.1-0.4-0.1l0.3,0c0,0,0,0,0,0c0,0,0,0,0,0c0-0.1,0.1-0.2,0.2-0.2c0,0,0.1,0,0.2,0.1
				c0.1,0.1,0.1,0.2,0.1,0.2l0.1,0c0,0,0,0,0.1,0c0,0,0.1,0,0.1,0.1C92.1,11.6,92,11.6,91.6,11.5L91.6,11.5L91.6,11.5z M91.6,11.5
				L91.6,11.5c-0.4-0.1-0.5-0.1-0.5-0.2c0,0,0,0,0.1,0l0.1,0l0.1,0c0,0,0,0.1,0.1,0.2c0.1,0.1,0.2,0.1,0.2,0.1
				c0.1,0,0.2-0.1,0.2-0.2c0,0,0,0,0,0c0,0,0,0,0,0c0,0,0.2,0,0.2,0.1C92.1,11.5,92,11.5,91.6,11.5L91.6,11.5z"/>
		</g>
		<g>
			<path class="st7" d="M17.9,52.6c2.7,17.3,8.3,26.9,25,30.7l0,0l11.3,0.5c0.6,8.2-1.5,11.1-5,26c-3.7,15.7,3.3,21,3.3,21
				c5.5,22.6,6.4,0.7,6.4,0.7c6.8,2.4,13.9-0.3,13.9-0.3c0.1,27.1,13.1-11.1,9.1-19.2c-3.6-7.3-8-24.1-8.9-27.5l4.8,0.2l0,0
				c0,0,0,0,0,0C98.9,82,105.5,72.4,109,52.9c2.5-14.2,0.5-30.7-17.3-41.4c-0.1,0.5-8.7-7.2-27.5-7.2c-20.3,0-28.3,6.4-28.3,6.4
				C17.5,22.1,15.5,37.7,17.9,52.6z M30.3,70.4c0-2.7,0.4-1.8,1.2-6.9c0.8-5,1.1-4.7,1.1-7.1c0.2-9,5.2-15.2,12.9-18.8
				c2.4,1.5,6.2,2.5,10.4,2.5c3.7,0,7-0.7,9.4-1.9c2.4,1.2,5.7,1.9,9.4,1.9c4.8,0,9-1.3,11.3-3.1c6.6,3,10.7,8.5,11.5,18.4
				c0.2,2.9-1.2,5.8-1.2,8.4c0,2.6,1.2,4.4,1.2,6.5c0,7.2-8,11.5-34,11.5C37.5,81.9,30.3,77.7,30.3,70.4z"/>
			<g>
				<path d="M17.9,52.6c0.6,3.5,1.3,7,2.4,10.4c1.1,3.4,2.6,6.7,4.7,9.5c2.1,2.8,4.9,5.1,8,6.8c3.1,1.7,6.5,2.8,9.9,3.5l-0.1,0
					l11.3,0.5l0.3,0l0,0.3c0.1,2,0.1,4.1-0.1,6.2c-0.3,2-0.8,4-1.3,6c-1.1,3.9-2.2,7.8-3.2,11.8c-1,3.9-1.8,7.9-1.6,12
					c0.1,2,0.4,4,1.1,5.9c0.7,1.9,1.7,3.7,3.1,5l0.1,0.1l0,0.1c0.4,1.7,0.9,3.5,1.4,5.2c0.3,0.8,0.6,1.7,0.9,2.5
					c0.3,0.8,0.7,1.7,1.3,2.2c0.3,0.3,0.6,0.2,0.9-0.1c0.2-0.3,0.4-0.7,0.5-1.2c0.3-0.8,0.4-1.7,0.6-2.6c0.3-1.8,0.4-3.5,0.5-5.3
					l0-0.3l0.2,0.1c2.2,0.8,4.6,1.1,6.9,1c2.3-0.1,4.7-0.5,6.9-1.3l0.2-0.1l0,0.2c0,1.5,0,2.9,0.2,4.4c0.1,1.4,0.3,2.9,0.9,4.2
					c0.2,0.3,0.3,0.6,0.6,0.8c0.3,0.1,0.6,0.1,0.9-0.1c0.6-0.4,1-1,1.3-1.6c0.7-1.2,1.3-2.6,1.8-3.9c1-2.7,1.8-5.5,2.5-8.4
					c0.6-2.8,1.1-5.7,1.2-8.6c0.1-1.4,0-2.9-0.2-4.3c-0.1-0.7-0.4-1.3-0.7-2c-0.3-0.7-0.6-1.3-0.9-2c-1.1-2.7-2.1-5.5-3-8.2
					c-1.8-5.6-3.4-11.2-5-16.8l-0.2-0.6l0.6,0l2.4,0.1l1.2,0l0.6,0l0.3,0l0.1,0l0.1,0l0,0h0l0,0h0c0,0,0,0,0,0l0,0
					c0-0.2,0,1.7,0,0.9V84l-0.1,0c4-0.5,8-1.3,11.7-2.7c3.7-1.4,7.2-3.5,9.9-6.4c2.7-2.9,4.6-6.4,6-10.2c1.4-3.8,2.3-7.7,3-11.6
					c1.4-7.9,1.4-16.2-1.5-23.6c-1.4-3.7-3.6-7.2-6.2-10.1c-2.7-3-5.9-5.4-9.3-7.5l0.8-0.4c0,0.2-0.2,0.4-0.3,0.4
					c-0.1,0-0.1,0-0.2,0l-0.1,0c-0.1,0-0.1,0-0.2,0c-0.1,0-0.1,0-0.2-0.1L91,11.8l-0.4-0.2l-0.8-0.5c-0.5-0.3-1-0.6-1.6-0.9
					c-1.1-0.6-2.1-1.1-3.2-1.5c-2.2-0.9-4.5-1.7-6.8-2.3c-4.7-1.2-9.5-1.6-14.3-1.6C59,4.8,54.2,5.1,49.5,6c-2.4,0.4-4.7,1-7,1.8
					C40.2,8.6,38,9.6,36,10.9l0,0l0,0c-3.5,2.1-6.7,4.6-9.5,7.6c-2.8,2.9-5.1,6.4-6.6,10.1c-1.6,3.7-2.4,7.8-2.6,11.8
					C17,44.5,17.3,48.6,17.9,52.6z M17.8,52.6c-0.6-4-1-8.1-0.8-12.2c0.2-4.1,1-8.1,2.6-11.9c1.5-3.8,3.8-7.3,6.6-10.3
					c2.8-3,6-5.6,9.5-7.8l0,0c2-1.5,4.3-2.4,6.6-3.3c2.3-0.8,4.7-1.5,7.1-2c4.8-1,9.7-1.4,14.6-1.4c4.9,0,9.8,0.5,14.6,1.6
					c2.4,0.6,4.7,1.3,7,2.3c1.1,0.5,2.2,1,3.3,1.6c0.5,0.3,1.1,0.6,1.6,0.9l0.8,0.5l0.4,0.2l0.2,0.1l0.1,0c0,0,0,0-0.1,0l0,0
					c0,0-0.1,0-0.2,0c-0.1,0-0.3,0.2-0.3,0.4l0-0.8l0.7,0.4c3.5,2.1,6.8,4.6,9.5,7.7c2.8,3,5,6.6,6.4,10.4c1.5,3.8,2.2,7.9,2.4,12
					c0.2,4.1-0.2,8.2-0.9,12.2c-0.7,4-1.6,8-3,11.8c-1.4,3.8-3.4,7.5-6.3,10.5c-2.9,3-6.5,5.2-10.3,6.6c-3.9,1.4-7.9,2.2-11.9,2.7
					l-0.1-0.9c0-0.8,0,1.1,0,0.9l0,0h0h0h0l0,0l0,0l-0.1,0l-0.2,0l-0.3,0l-0.6,0l-1.2,0L73,84.8l0.4-0.5c1.5,5.6,3,11.3,4.8,16.8
					c0.9,2.8,1.8,5.5,2.9,8.2c0.3,0.7,0.6,1.3,0.9,2c0.3,0.6,0.6,1.4,0.7,2.1c0.3,1.5,0.3,3,0.2,4.4c-0.2,2.9-0.7,5.8-1.3,8.7
					c-0.7,2.9-1.5,5.7-2.5,8.4c-0.5,1.4-1.1,2.7-1.9,4c-0.4,0.6-0.8,1.3-1.5,1.7c-0.3,0.2-0.8,0.4-1.2,0.1c-0.4-0.2-0.6-0.6-0.8-0.9
					c-0.6-1.4-0.7-2.9-0.9-4.3c-0.1-1.5-0.2-2.9-0.2-4.4l0.2,0.2c-2.3,0.8-4.6,1.2-7,1.3c-2.4,0.1-4.8-0.2-7-1l0.3-0.2
					c-0.1,1.8-0.2,3.6-0.5,5.4c-0.1,0.9-0.3,1.8-0.6,2.6c-0.1,0.4-0.3,0.9-0.6,1.3c-0.1,0.2-0.3,0.4-0.7,0.5c-0.3,0-0.6-0.1-0.8-0.3
					c-0.7-0.7-1-1.5-1.4-2.4c-0.3-0.8-0.6-1.7-0.9-2.5c-0.5-1.7-1-3.4-1.4-5.2l0.1,0.1c-1.6-1.4-2.6-3.3-3.3-5.2c-0.7-1.9-1-4-1.1-6
					c-0.2-4.1,0.6-8.2,1.5-12.1c0.9-4,2-7.9,3-11.8c0.5-2,1-3.9,1.2-5.9c0.2-2,0.2-4,0-6l0.4,0.3l-11.3-0.4l0,0l0,0
					c-3.5-0.8-7-2-10.1-3.7c-3.2-1.8-5.9-4.2-8-7.2c-2.1-2.9-3.5-6.3-4.5-9.7C19.1,59.7,18.4,56.2,17.8,52.6z"/>
				<path d="M30.3,70.4c0-0.8,0-1.6,0.2-2.4c0.2-0.8,0.4-1.5,0.5-2.3c0.3-1.6,0.5-3.2,0.8-4.7c0.3-1.6,0.7-3.1,0.6-4.7
					c0-1.6,0.2-3.2,0.6-4.8c0.7-3.1,2.3-6.1,4.5-8.5c2.2-2.4,4.9-4.3,7.9-5.7l0.2-0.1l0.2,0.1c1.4,0.9,3,1.5,4.6,1.8
					c1.6,0.4,3.3,0.6,5,0.6c1.7,0,3.4,0,5-0.3c1.7-0.3,3.3-0.7,4.8-1.5l0.1-0.1l0.1,0.1c1.6,0.8,3.3,1.3,5,1.6
					c1.7,0.3,3.5,0.4,5.3,0.4c1.8-0.1,3.6-0.3,5.3-0.8c1.7-0.5,3.4-1.1,4.8-2.3l0.1-0.1l0.1,0c2.2,1,4.3,2.4,6,4.1
					c1.7,1.7,3,3.8,3.9,6.1c0.9,2.3,1.5,4.6,1.8,7.1c0.1,0.6,0.1,1.2,0.2,1.8c0,0.6,0,1.3-0.1,1.9c-0.2,1.2-0.5,2.4-0.7,3.6
					c-0.2,1.2-0.4,2.3-0.2,3.5c0.1,1.1,0.5,2.3,0.8,3.5c0.7,2.4,0.2,5.2-1.5,7.2c-1.6,2-4,3.1-6.2,4c-2.3,0.8-4.7,1.3-7.1,1.7
					c-4.8,0.7-9.6,1-14.5,1.1c-4.8,0.1-9.6,0-14.5-0.3c-4.8-0.4-9.6-0.9-14.3-2.2c-2.3-0.7-4.6-1.6-6.5-3.1C32.3,76,31.5,75.1,31,74
					C30.5,72.9,30.3,71.6,30.3,70.4z M30.4,70.4c0,1.2,0.2,2.4,0.7,3.5c0.5,1.1,1.3,2,2.2,2.8c1.9,1.5,4.2,2.3,6.5,2.9
					c4.6,1.2,9.5,1.5,14.2,1.7c4.8,0.2,9.6,0.2,14.4,0.1c4.8-0.1,9.6-0.4,14.3-1.2c2.4-0.4,4.7-0.9,6.9-1.6c2.2-0.8,4.4-1.9,5.8-3.6
					c1.5-1.7,1.9-4.2,1.3-6.4c-0.3-1.1-0.7-2.3-0.8-3.6c-0.2-1.2,0-2.5,0.3-3.7c0.3-1.2,0.6-2.3,0.8-3.5c0.1-0.6,0.1-1.2,0.2-1.7
					c0-0.6-0.1-1.2-0.1-1.8c-0.3-2.4-0.7-4.7-1.6-6.9c-0.9-2.2-2.1-4.3-3.7-6c-1.6-1.7-3.7-3.1-5.8-4.1l0.2,0
					c-1.4,1.1-3.1,1.8-4.9,2.3c-1.7,0.5-3.5,0.7-5.4,0.8c-3.6,0.1-7.3-0.3-10.6-1.8h0.3c-1.6,0.8-3.2,1.3-4.9,1.6
					c-1.7,0.3-3.5,0.5-5.2,0.4c-1.7,0-3.5-0.2-5.2-0.6c-1.7-0.4-3.4-1-4.9-1.9l0.4,0c-2.9,1.3-5.5,3.1-7.7,5.4
					c-2.2,2.3-3.8,5.1-4.6,8.1c-0.4,1.5-0.6,3.1-0.7,4.7c0,0.8-0.1,1.6-0.3,2.4c-0.2,0.8-0.4,1.6-0.5,2.3c-0.3,1.6-0.5,3.1-0.8,4.7
					C30.9,67.3,30.3,68.8,30.4,70.4z"/>
			</g>
		</g>
	</g>
	<g class="st3">
		<path class="st15" d="M91.6,11.5C91.6,11.3,91.7,11.3,91.6,11.5L91.6,11.5z"/>
		<path class="st15" d="M56.1,129.4c0.1,0.2,0.1,0.4,0.2,0.6c-0.1,0-0.1,0-0.2,0V129.4z"/>
		<path class="st15" d="M74.3,127.7c-1.6,4.2,0.7,8.8,0.6,13c-1.2-0.1-2-2.7-2.1-9.6c0,0-7.1,2.7-13.9,0.3c0,0-0.3,6.8-1.4,8.9
			c-1-3.1-0.4-7.5-1.2-10.4C62.4,130,68.6,131.1,74.3,127.7z"/>
		<path class="st15" d="M50.4,128.1c-1.7-3-3.4-8.7-1.2-18.3c2.6-11.1,4.4-15.5,4.9-20.4C56.1,102.3,49.1,115.6,50.4,128.1z"/>
		<path class="st15" d="M76,95.1c1.8,6,4,12.8,6,16.8c2,4.2-0.3,16.2-3.2,23.3C79.3,121.8,78.3,108.4,76,95.1z"/>
	</g>
	<g>
		<path class="st7" d="M-20,14.1C-20,13.9-20,13.9-20,14.1L-20,14.1z"/>
		<path d="M-20.1,14.1c-0.3-0.1-0.4-0.1-0.4-0.1l0.3,0c0,0,0,0,0,0c0,0,0,0,0,0c0-0.1,0.1-0.2,0.2-0.2c0,0,0.1,0,0.2,0.1
			c0.1,0.1,0.1,0.2,0.1,0.2l0.1,0c0,0,0,0,0.1,0c0,0,0.1,0,0.1,0.1C-19.5,14.2-19.7,14.2-20.1,14.1L-20.1,14.1L-20.1,14.1z
			 M-20,14.1L-20,14.1c-0.4-0.1-0.5-0.1-0.5-0.2c0,0,0,0,0.1,0l0.1,0l0.1,0c0,0,0,0.2,0.1,0.2c0.1,0.1,0.2,0.1,0.2,0.1
			c0.1,0,0.2-0.1,0.2-0.2c0,0,0,0,0,0c0,0,0,0,0,0c0,0,0.2,0,0.2,0.1C-19.5,14.1-19.6,14.1-20,14.1L-20,14.1z"/>
	</g>
	<path class="st14" d="M86,80.3c8.7-1.9,11.8-5.3,11.8-9.8c0-0.2,0-0.3,0-0.5c9.6-13,9.4-32,5.6-48.2c6.9,9.5,7.3,20.9,5.6,31.1
		c-3.2,18.7-9.3,28.2-28,31.2C82.1,82.6,84,81.5,86,80.3z"/>
	<path class="st14" d="M56.8,83.9c2.4,0.1,5,0.2,8,0.2c2.3,0,4.5,0,6.4-0.1C66.2,86.4,61.4,85.7,56.8,83.9z"/>
	<path class="st10" d="M-20,14.1C-20,13.9-20,13.9-20,14.1L-20,14.1z"/>
	<g>
		<path class="st2" d="M39,27c0,2,1.6,3.6,3.6,3.6c2,0,3.6-1.6,3.6-3.6c0-2-1.6-3.6-3.6-3.6C40.6,23.3,39,25,39,27z"/>
		<path d="M39.9,27c0,2,1.6,3.6,3.6,3.6c2,0,3.6-1.6,3.6-3.6c0-2-1.6-3.6-3.6-3.6C41.6,23.3,39.9,25,39.9,27z"/>
		<path class="st11" d="M44.8,26.4c0,0.3,0.3,0.6,0.6,0.6c0.3,0,0.6-0.3,0.6-0.6c0-0.3-0.3-0.6-0.6-0.6C45,25.8,44.8,26,44.8,26.4z"
			/>
	</g>
	<g>
		<path class="st2" d="M83.5,27.6c0,2,1.6,3.6,3.6,3.6c2,0,3.6-1.6,3.6-3.6c0-2-1.6-3.6-3.6-3.6C85.1,24,83.5,25.6,83.5,27.6z"/>
		<circle cx="88" cy="27.6" r="3.6"/>
		<circle class="st11" cx="89.9" cy="27" r="0.6"/>
	</g>
	<path class="st1" d="M57.6,41.8c0,6.4,3.8,11.6,8.5,11.6c4.7,0,8.5-5.2,8.5-11.6c0-6.4-3.8-11.6-8.5-11.6
		C61.4,30.1,57.6,35.3,57.6,41.8z"/>
	<g>
		<path class="st8" d="M57.6,39.8c0,6.4,3.8,11.6,8.5,11.6c4.7,0,8.5-5.2,8.5-11.6c0-6.4-3.8-11.6-8.5-11.6
			C61.4,28.2,57.6,33.4,57.6,39.8z"/>
		<path d="M57.6,39.8c0,2.6,0.8,5.3,2.3,7.4c0.7,1.1,1.7,2,2.7,2.7c1,0.7,2.3,1.1,3.5,1.1c2.5,0.1,4.9-1.5,6.3-3.7
			c1.4-2.2,2-4.9,1.9-7.5c-0.1-2.6-0.8-5.2-2.2-7.3c-1.4-2.1-3.6-3.8-6.1-3.8c-2.5,0-4.7,1.6-6.2,3.7C58.4,34.5,57.6,37.2,57.6,39.8
			z M57.5,39.8c0-2.6,0.5-5.4,1.8-7.8c0.7-1.2,1.6-2.3,2.7-3.1c1.1-0.8,2.6-1.3,4-1.3c1.4,0,2.9,0.5,4,1.3c1.2,0.8,2.1,1.9,2.8,3
			c1.5,2.4,2,5.1,1.9,7.8c-0.1,2.7-0.8,5.4-2.2,7.7c-0.7,1.1-1.6,2.2-2.7,3c-1.1,0.8-2.5,1.3-3.9,1.4c-1.4,0-2.8-0.4-4-1.2
			c-1.2-0.8-2.1-1.9-2.7-3.1C58,45.2,57.6,42.5,57.5,39.8z"/>
	</g>
	<g class="st4">
		<line class="st8" x1="66" y1="36.4" x2="66.2" y2="45"/>
		<path d="M66,36.4c0.4,1.4,0.6,2.8,0.6,4.3c0,1.4,0,2.9-0.4,4.3c-0.4-1.4-0.6-2.8-0.6-4.3C65.6,39.3,65.6,37.8,66,36.4z"/>
	</g>
	<g>
		<path class="st0" d="M86.7,37.1c-2.3,1.9-6.5,3.1-11.4,3.1c-3.7,0-7.1-0.7-9.5-1.9c-2.4,1.2-5.8,1.9-9.5,1.9
			c-4.3,0-8.1-1-10.5-2.5C38,41.3,33,47.5,32.8,56.5c0,1.5-0.2,1.9-0.5,3.4c-0.1-0.1-0.1-0.2-0.2-0.4c-2.9-10.7-0.7-24.4,8-29.2
			c15.6-8.8,34.8-9.7,50.4-1c10.5,7.5,13.6,19.9,7.7,27.4C97.3,47.3,93.2,40,86.7,37.1z"/>
		<path d="M86.7,37.2c-1.4,1.1-3.1,1.9-4.9,2.4c-1.8,0.5-3.6,0.8-5.4,0.9c-1.8,0.1-3.7,0-5.5-0.3c-1.8-0.3-3.6-0.8-5.3-1.6H66
			c-1.6,0.8-3.3,1.3-5,1.6s-3.5,0.4-5.2,0.4c-1.8,0-3.5-0.2-5.2-0.6c-1.7-0.4-3.4-1-4.9-1.9l0.4,0c-2.1,0.9-4,2.1-5.8,3.6
			c-1.7,1.4-3.3,3.1-4.4,5.1c-1.2,1.9-2,4.1-2.4,6.3c-0.2,1.1-0.3,2.3-0.4,3.4c0,0.6-0.1,1.2-0.2,1.8c-0.1,0.6-0.2,1.1-0.4,1.7
			l-0.2,0.9L32.1,60c-1.1-3.5-1.4-7.1-1.3-10.6c0.1-3.6,0.7-7.2,2.1-10.5c1.3-3.3,3.5-6.4,6.6-8.4c3.1-1.9,6.3-3.4,9.7-4.6
			c6.8-2.4,14-3.5,21.2-3.1c7.2,0.4,14.3,2.5,20.6,6l0,0l0,0c2.2,1.6,4.2,3.4,5.8,5.5c1.7,2.1,3,4.5,3.9,7.1c0.9,2.6,1.3,5.3,1,8
			c-0.3,2.7-1.3,5.3-3,7.4L98,57.5L98,56.7c-0.4-3.9-1.3-7.8-3.1-11.3c-0.9-1.7-2-3.4-3.4-4.8C90.1,39.2,88.5,38,86.7,37.2z
			 M86.7,37.1c3.7,1.6,6.6,4.6,8.5,8.1c1.9,3.5,2.9,7.5,3.4,11.4L98,56.5c1.6-2,2.5-4.5,2.8-7.1c0.2-2.6-0.2-5.2-1.1-7.6
			c-1.8-4.9-5.2-9.1-9.4-12.1l0,0c-6.2-3.4-13.1-5.5-20.1-6c-7-0.5-14.2,0.5-20.9,2.7c-3.4,1.1-6.6,2.6-9.7,4.4
			c-3,1.8-5.2,4.8-6.5,8.1c-1.3,3.3-2,6.8-2,10.4c0,1.8,0.1,3.5,0.3,5.3c0.2,1.7,0.5,3.5,1.1,5.2l-0.4,0c0.3-1.1,0.5-2.2,0.4-3.4
			c0-1.2,0.1-2.3,0.3-3.5c0.4-2.3,1.2-4.6,2.3-6.6c1.2-2,2.8-3.8,4.6-5.3c1.8-1.5,3.8-2.7,5.9-3.7l0.2-0.1l0.2,0.1
			c1.4,0.9,3,1.5,4.7,1.9c1.6,0.4,3.3,0.6,5,0.6c1.7,0,3.4-0.1,5.1-0.4c1.7-0.3,3.3-0.8,4.8-1.5l0.2-0.1L66,38
			c1.6,0.8,3.3,1.3,5.1,1.6c1.8,0.3,3.6,0.4,5.4,0.4c1.8,0,3.6-0.3,5.3-0.7C83.5,38.8,85.3,38.2,86.7,37.1L86.7,37.1L86.7,37.1z"/>
	</g>
	<path class="st16" d="M43.8,34.2c2.9-1,5.9,1.9,8.8,1.9c9.7,1,15.6-1.9,25.3,1c1.9,1,4.9-2.9,7.8-1.9c3.3,0.5,5.3,3.2,6.8,6.5
		c-1.7-2-3.6-3.5-5.8-4.5c-2.3,1.9-6.5,3.1-11.4,3.1c-3.7,0-7.1-0.7-9.5-1.9c-2.4,1.2-5.8,1.9-9.5,1.9c-4.3,0-8.1-1-10.5-2.5
		C38.8,41,34,46.3,33,54C33.4,45.9,36.7,38.1,43.8,34.2z"/>
	<path class="st9" d="M34.7,31c-0.1,1.1,2.7,2.2,6.1,2.3c3.4,0.2,6.2-0.7,6.3-1.8c0-1.1-2.7-2.2-6.1-2.3C37.6,29,34.7,29.9,34.7,31z
		"/>
	<path class="st11" d="M34.8,29.6c0,0.4,0.9,0.7,2,0.7c1.1,0,2-0.2,2-0.6c0-0.4-0.9-0.7-2-0.7C35.7,29,34.8,29.2,34.8,29.6z"/>
	<path class="st9" d="M99.7,31.6c0,1.1-2.7,2.2-6.1,2.3c-3.4,0.2-6.2-0.7-6.3-1.8c0-1.1,2.7-2.2,6.1-2.3
		C96.8,29.7,99.6,30.5,99.7,31.6z"/>
	<path class="st11" d="M99.6,30.2c0,0.4-0.9,0.7-2,0.7c-1.1,0-2-0.2-2-0.6c0-0.4,0.9-0.7,2-0.7C98.7,29.6,99.6,29.9,99.6,30.2z"/>
	<path class="st14" d="M43,6.6c0,0-5.3,1.8-8.2,2c-2.9,0.2-12.5,4.6-15.9,20.8c-3.4,16.1-22.7,36.5,2.6,41.1c13.9,2.5,7.7-25.8,8-38
		"/>
	<g>
		<path class="st7" d="M44.9,6.9c0,0-5.5,1.6-8.4,1.6s-12.9,4.2-17.9,21.7c-5,17.5-26.3,38.5-1.6,45.4c13.6,3.8,10.3-27.8,11.8-41.2
			"/>
		<path d="M45,6.9c-1.4,0.4-2.8,0.8-4.2,1.1c-1.4,0.3-2.9,0.6-4.4,0.6c-1.4,0.1-2.7,0.8-4,1.5c-1.2,0.7-2.4,1.6-3.4,2.6
			c-2.1,1.9-3.9,4.2-5.4,6.7c-1.5,2.5-2.7,5.1-3.6,7.8c-0.5,1.4-0.9,2.7-1.4,4.1c-0.5,1.4-1,2.8-1.6,4.1c-1.2,2.7-2.5,5.3-3.9,7.9
			c-1.4,2.6-2.7,5.2-3.9,7.8c-1.2,2.6-2.3,5.4-3,8.2c-0.7,2.8-0.8,5.8,0.3,8.4c1.1,2.6,3.5,4.4,6,5.6c1.3,0.6,2.6,1.1,4,1.5
			c1.4,0.4,2.7,0.6,4,0.3c1.3-0.4,2.3-1.3,3.1-2.4c0.8-1.1,1.3-2.5,1.8-3.8c0.9-2.7,1.3-5.6,1.6-8.5c0.3-2.9,0.5-5.8,0.6-8.7
			c0.3-5.8,0.3-11.7,1-17.5l0.1,0c-0.2,2.9-0.2,5.8-0.3,8.7c0,2.9,0,5.8-0.1,8.8c-0.1,2.9-0.2,5.8-0.5,8.8c-0.3,2.9-0.7,5.8-1.6,8.7
			c-0.5,1.4-1,2.8-1.9,4.1c-0.9,1.3-2.1,2.4-3.7,2.8c-1.5,0.4-3.2,0.1-4.6-0.3c-1.4-0.4-2.8-0.9-4.1-1.6c-1.3-0.7-2.6-1.5-3.7-2.5
			c-1.1-1-2-2.3-2.6-3.7c-1.2-2.9-0.8-6-0.1-8.8c1.6-5.7,4.6-10.8,7.1-16c1.3-2.6,2.6-5.2,3.7-7.9c0.5-1.3,1-2.7,1.5-4.1
			c0.4-1.4,0.8-2.8,1.2-4.2c1.9-5.5,4.8-10.9,9.3-14.9c1.1-1,2.3-1.8,3.6-2.6c1.3-0.7,2.7-1.3,4.2-1.4C39.2,8.2,42.1,7.5,45,6.9
			L45,6.9z"/>
	</g>
	<path class="st14" d="M24.3,60.5c2-4.6,3.5-9.2,4-14.2C28,60.8,27.4,78.4,17.1,75.5c-10-2.8-12.5-7.9-11.5-14.1
		C11.4,61.2,19.6,68.9,24.3,60.5z"/>
	<path d="M60.9,31.8c0,2.2,2.3,5.8,5.2,5.8s5.2-3.6,5.2-5.8c0-2.2-2.3-3-5.2-3S60.9,29.6,60.9,31.8z"/>
	<path class="st11" d="M66.1,30c0,0.2,0.8,0.5,1.9,0.7c1.1,0.2,2,0.1,2-0.1c0-0.2-0.8-0.5-1.9-0.7C67.1,29.7,66.2,29.7,66.1,30z"/>
	<g>
		<path d="M50.6,65.4c-1-0.4-2-0.7-3-0.9c-1-0.2-2-0.4-3-0.4c-1,0-1.9,0.3-2.8,0.4c-0.9,0.1-1.8,0.4-2.9,0.7L38.6,65
			c0.4-1.2,1.4-2.1,2.5-2.5c1.2-0.5,2.4-0.3,3.5-0.1c1.1,0.2,2.2,0.6,3.2,1.1c1,0.5,1.9,1,2.8,1.7L50.6,65.4z"/>
	</g>
	
		<ellipse transform="matrix(-0.9981 -6.216250e-002 6.216250e-002 -0.9981 79.742 138.3544)" class="st13" cx="42" cy="67.9" rx="7.4" ry="2.3"/>
	<path class="st11" d="M36.2,65.9c0,0.6,1,1.1,2.1,1c1.1,0,2-0.6,2-1.2c0-0.6-1-1.1-2.1-1C37.1,64.8,36.2,65.3,36.2,65.9z"/>
	<g>
		<path d="M78.3,65.5c0.9-0.7,1.8-1.2,2.8-1.7c1-0.5,2.1-0.8,3.2-1.1c1.1-0.2,2.4-0.4,3.5,0.1c1.1,0.5,2.2,1.3,2.5,2.5l-0.1,0.1
			c-1.1-0.4-2-0.6-2.9-0.7c-0.9-0.1-1.8-0.4-2.8-0.4c-1,0-2,0.2-3,0.4c-1,0.2-2,0.5-3,0.9L78.3,65.5z"/>
	</g>
	<path class="st13" d="M94.4,67.7c0.1,1.3-3.2,2.5-7.2,2.8c-4.1,0.3-7.4-0.6-7.5-1.8c-0.1-1.3,3.2-2.5,7.2-2.8
		C90.9,65.6,94.3,66.4,94.4,67.7z"/>
	<path class="st11" d="M92.8,66.2c0,0.6-1,1.1-2.1,1c-1.1-0.1-2-0.6-2-1.2c0-0.6,1-1.1,2.1-1C91.9,65,92.8,65.6,92.8,66.2z"/>
	<path class="st14" d="M72.8,85.8c0,0,9.3,10.7,0.2,24.8c-9.1,14.1-6.8,2.7-4-8.5"/>
	<path class="st14" d="M54.4,85.2c0,0-4.1,9.1,0.3,21.6c4.4,12.5,9.8,15.6,6-5"/>
	<g>
		<path class="st7" d="M72.8,84.1c0,0,9.3,10.7,0.2,24.8c-9.1,14.1-6.8,2.7-4-8.5"/>
		<path d="M72.8,84.1c2.9,3.2,4.6,7.5,4.6,11.8c0,2.2-0.5,4.3-1.1,6.3c-0.6,2-1.5,4-2.5,5.9c-1,1.9-2.2,3.7-3.5,5.4
			c-0.3,0.4-0.7,0.8-1.1,1.2c-0.4,0.4-0.8,0.8-1.5,1.1c-0.2,0.1-0.4,0.1-0.7,0c-0.3-0.1-0.5-0.2-0.6-0.4c-0.3-0.4-0.3-0.7-0.4-1
			c-0.1-0.6-0.1-1.2-0.1-1.7c0.2-2.2,0.7-4.3,1.2-6.3c0.5-2.1,1.1-4.1,1.8-6.1l0.1,0l-1.1,6.3c-0.4,2.1-0.7,4.2-0.9,6.2
			c0,0.5,0,1,0,1.5c0,0.2,0.1,0.4,0.2,0.5c0.1,0,0,0,0.1,0c0.3-0.1,0.7-0.4,1.1-0.8c0.4-0.3,0.7-0.7,1-1.1c1.3-1.6,2.6-3.3,3.8-5.1
			c1.2-1.8,2.1-3.7,2.7-5.7c0.6-2,0.7-4.2,0.6-6.2C76.3,91.8,75,87.7,72.8,84.1L72.8,84.1z"/>
	</g>
	<g>
		<path class="st7" d="M54.4,83.5c0,0-4.1,9.1,0.3,21.6c4.4,12.5,9.8,15.6,6-5"/>
		<path d="M54.5,83.5c-1.2,3.9-1.5,8.1-1.3,12.1c0.1,2,0.3,4.1,0.7,6.1c0.5,2,1.2,3.9,2.1,5.8c0.9,1.9,1.8,3.7,2.9,5.3
			c0.3,0.4,0.6,0.8,0.9,1.1c0.3,0.3,0.8,0.6,0.9,0.5c0.1,0,0.4-0.3,0.5-0.8c0.1-0.4,0.2-0.9,0.2-1.4c0.2-2,0-4-0.2-6.1
			c-0.2-2-0.4-4.1-0.6-6.1l0.1,0c0.5,2,1,4,1.3,6.1c0.3,2.1,0.6,4.1,0.4,6.3c0,0.5-0.1,1.1-0.3,1.6c-0.1,0.3-0.2,0.6-0.4,0.9
			c-0.2,0.3-0.6,0.6-1,0.6c-0.4,0-0.8-0.1-1-0.3c-0.3-0.2-0.5-0.4-0.7-0.6c-0.4-0.4-0.7-0.8-1-1.3c-1.2-1.8-2-3.7-2.7-5.7
			c-0.7-2-1.3-3.9-1.9-5.9c-0.5-2-1-4-1.2-6.1c-0.2-2.1-0.1-4.2,0.2-6.2C52.9,87.3,53.4,85.3,54.5,83.5L54.5,83.5z"/>
	</g>
	<g>
		<path d="M73,69.9c-0.2,0.9-1,1.6-1.9,1.7c-0.9,0.2-1.8,0-2.6-0.3c-0.8-0.4-1.4-0.9-2.2-1.1c-0.8-0.2-1.6-0.3-2.4-0.1
			c-0.8,0.2-1.5,0.5-2.2,0.9c-0.2,0.1-0.3,0.2-0.5,0.3c-0.2,0.1-0.4,0.3-0.6,0.3c-0.4,0.2-0.9,0.3-1.3,0.4c-1.8,0.2-3.7-0.8-4.5-2.2
			l0.1-0.1c1.4,1,2.9,1.4,4.3,1.3c0.4,0,0.7-0.1,1.1-0.2c0.2-0.1,0.3-0.1,0.5-0.2c0.2-0.1,0.4-0.2,0.6-0.3c0.8-0.4,1.7-0.5,2.5-0.6
			c0.9,0,1.7,0,2.5,0.2c0.4,0.1,0.8,0.1,1.3,0.3l1.2,0.4c0.7,0.2,1.5,0.4,2.2,0.4C71.7,70.8,72.4,70.5,73,69.9L73,69.9z"/>
	</g>
</g>
</svg>
