<?xml version="1.0" encoding="utf-8"?>
<!-- Generator: Adobe Illustrator 15.1.0, SVG Export Plug-In . SVG Version: 6.00 Build 0)  -->
<!DOCTYPE svg PUBLIC "-//W3C//DTD SVG 1.1//EN" "http://www.w3.org/Graphics/SVG/1.1/DTD/svg11.dtd">
<svg version="1.1" id="Layer_2" xmlns="http://www.w3.org/2000/svg" xmlns:xlink="http://www.w3.org/1999/xlink" x="0px" y="0px"
	 width="167px" height="217px" viewBox="0 0 167 217" style="enable-background:new 0 0 167 217;" xml:space="preserve">
<style type="text/css">
<![CDATA[
	.st0{opacity:0.18;}
	.st1{opacity:0.25;}
	.st2{opacity:0.49;}
	.st3{opacity:0.35;fill:#966D44;}
	.st4{fill:#BA9874;}
	.st5{fill:#F3FCFF;}
	.st6{fill:#F9D3AA;}
	.st7{fill:#92DBFF;}
	.st8{fill:#FC8B96;}
	.st9{opacity:0.52;fill:#FF9999;}
	.st10{fill:#FFFFFF;}
	.st11{opacity:0.49;fill:#92DBFF;}
]]>
</style>
<g>
	<g>
		<ellipse class="st5" cx="103.7" cy="185.3" rx="4.8" ry="6.4"/>
		<path d="M108.5,185.3c0,1.5-0.2,3-0.9,4.4c-0.4,0.7-0.9,1.3-1.5,1.8c-0.7,0.5-1.5,0.7-2.3,0.7c-0.8,0-1.6-0.4-2.2-0.8
			c-0.6-0.5-1.1-1.1-1.5-1.7c-0.8-1.3-1.2-2.8-1.3-4.3c-0.1-1.5,0.2-3.1,1-4.4c0.4-0.7,0.9-1.3,1.6-1.8c0.7-0.5,1.5-0.7,2.4-0.7
			c0.8,0,1.7,0.3,2.3,0.8c0.7,0.5,1.2,1.1,1.5,1.8C108.3,182.3,108.5,183.8,108.5,185.3z M108.4,185.3c0-1.5-0.5-2.9-1.4-4
			c-0.9-1.1-2-1.9-3.3-1.9c-1.3,0-2.4,0.8-3.2,1.9c-0.8,1.1-1.2,2.5-1.3,3.9c-0.1,1.4,0.2,2.9,1,4.1c0.8,1.2,2.2,2,3.5,1.9
			c1.3-0.1,2.5-0.9,3.3-2C107.9,188.2,108.5,186.7,108.4,185.3z"/>
	</g>
	<ellipse class="st11" cx="101.7" cy="186.3" rx="4.8" ry="6.4"/>
	<g>
		<path class="st5" d="M110.9,51.9c0,0,12.2-20.8,19.2-35.8c7-15,22.5-18.9,30.4-8.5c7.9,10.4,3.7,28.2-10.5,40.7
			c-14.2,12.5-20.4,21.6-20.4,21.6"/>
		<path d="M110.8,51.8c6.2-11.3,12.4-22.6,18-34.2c0.7-1.4,1.4-2.9,2.2-4.3c0.8-1.4,1.8-2.7,2.9-4c2.1-2.5,4.7-4.6,7.6-6
			c2.9-1.4,6.2-2.1,9.5-1.7c3.2,0.4,6.3,2,8.5,4.5c2.2,2.4,3.8,5.4,4.6,8.6c0.8,3.2,0.8,6.5,0.3,9.8c-1,6.5-4,12.5-8.1,17.6
			c-2,2.6-4.3,4.9-6.8,7c-2.4,2.1-4.8,4.3-7.1,6.5c-2.3,2.2-4.6,4.5-6.8,6.9c-2.2,2.4-4.3,4.8-6.2,7.4l-0.1-0.1
			c3.7-5.3,8-10.1,12.6-14.7c2.3-2.3,4.6-4.5,7-6.7c2.4-2.1,4.7-4.4,6.6-6.9c3.9-5,6.9-10.9,7.9-17.1c0.5-3.1,0.5-6.4-0.2-9.4
			c-0.7-3.1-2.1-6-4.2-8.4c-2.1-2.4-5-4-8.2-4.5c-3.2-0.5-6.4,0.2-9.3,1.6c-2.9,1.4-5.4,3.5-7.4,6c-1,1.2-1.9,2.6-2.7,4
			c-0.8,1.4-1.4,2.9-2.1,4.3c-2.7,5.9-5.8,11.5-8.9,17.2C117.6,40.8,114.3,46.4,110.8,51.8L110.8,51.8z"/>
	</g>
	<g>
		<path class="st8" d="M115.5,53.2c0,0,10.2-16,16.7-27.6c6.5-11.7,14.7-13.7,16.3-4.7s-4.2,23.1-13.6,32.2
			c-9.4,9.1-14.3,16-14.3,16"/>
		<path d="M115.5,53.1L130,28.6c1.2-2,2.4-4.1,3.7-6.1c1.4-1.9,3-3.8,4.8-5.3c0.9-0.7,2-1.4,3.1-1.8c1.1-0.4,2.4-0.6,3.6-0.1
			c1.2,0.5,2,1.5,2.6,2.6c0.6,1.1,0.9,2.3,1,3.5c0.4,2.4,0.3,4.8-0.1,7.2c-0.4,2.4-1,4.7-1.9,7c-1.7,4.5-4,8.8-6.9,12.6
			c-1.5,1.9-3.1,3.7-4.8,5.4c-1.7,1.6-3.4,3.3-5.1,5c-3.3,3.4-6.5,6.9-9.4,10.6l-0.1-0.1c2.7-3.9,5.8-7.6,9-11.1
			c1.6-1.8,3.3-3.5,5-5.1c1.7-1.7,3.2-3.4,4.7-5.3c2.8-3.8,5.2-7.9,6.9-12.3c0.8-2.2,1.5-4.5,2-6.8c0.4-2.3,0.6-4.7,0.4-7
			c-0.1-1.2-0.4-2.3-0.9-3.4c-0.5-1-1.3-2-2.3-2.4c-1.1-0.4-2.3-0.3-3.4,0c-1.1,0.4-2.1,1-3,1.8c-1.8,1.5-3.3,3.4-4.6,5.3
			c-1.3,2-2.3,4.1-3.5,6.2C126,37.3,120.9,45.3,115.5,53.1L115.5,53.1z"/>
	</g>
	<g>
		<path class="st6" d="M123.3,121.9c-1-6.2-1.4-5.8-1.4-8.8c-0.4-19.2-18.6-28.1-41.2-28.1c-22.5,0-38.5,4.5-40.4,26.9
			c-0.3,3.5,1.5,7.2,1.4,10.4c0,3.2-1.4,5.4-1.4,8.1c0,9,10,14.3,42.7,14.3c32.7,0,41.7-5.3,41.7-14.3
			C124.8,127.1,124.3,128.2,123.3,121.9z"/>
		<g>
			<path d="M123.3,122c-0.2-1.3-0.4-2.5-0.7-3.8c-0.2-1.2-0.6-2.5-0.7-3.8c-0.1-1.3-0.1-2.5-0.2-3.8c-0.1-1.3-0.4-2.5-0.7-3.7
				c-1.3-4.9-4.3-9.3-8.2-12.4c-3.9-3.1-8.6-5.3-13.4-6.6c-4.9-1.4-9.9-2.1-14.9-2.3c-5-0.2-10.1-0.1-15.2,0.3
				c-5,0.5-10.1,1.4-14.7,3.6c-2.3,1.1-4.4,2.5-6.3,4.2c-1.8,1.7-3.3,3.8-4.5,6.1c-1.1,2.3-1.9,4.7-2.4,7.2
				c-0.3,1.2-0.4,2.5-0.6,3.7c-0.1,0.6-0.1,1.3-0.1,1.9c0,0.6,0,1.2,0.1,1.9c0.3,2.5,1.3,4.9,1.4,7.5c0.1,1.3-0.2,2.6-0.5,3.9
				c-0.3,1.3-0.7,2.5-0.9,3.7c-0.3,2.4,0.4,5,2,6.8c1.6,1.9,3.8,3.1,6.1,4c4.7,1.8,9.7,2.6,14.7,3.1c5,0.5,10.1,0.8,15.2,0.8
				c5.1,0.1,10.2,0,15.2-0.2c5.1-0.2,10.1-0.6,15.1-1.5c2.5-0.5,5-1,7.3-1.9c2.3-0.9,4.6-2.2,6.2-4.1c0.8-1,1.4-2.1,1.7-3.3
				c0.3-1.2,0.4-2.5,0.3-3.8c0-1.3-0.5-2.5-0.7-3.7C123.7,124.5,123.5,123.2,123.3,122z M123.4,121.9c0.2,1.3,0.4,2.5,0.7,3.7
				c0.3,1.2,0.7,2.4,0.8,3.7c0.1,1.3,0,2.6-0.3,3.8c-0.3,1.2-0.9,2.4-1.7,3.5c-1.6,2.1-3.9,3.4-6.3,4.4c-2.4,1-4.9,1.6-7.4,2.2
				c-5,1-10.1,1.5-15.2,1.8c-5.1,0.3-10.2,0.3-15.3,0.2c-5.1-0.1-10.2-0.3-15.3-0.8c-5.1-0.6-10.2-1.4-15-3.3
				c-2.4-1-4.7-2.3-6.4-4.4c-1.7-2.1-2.4-4.9-2-7.5c0.2-1.3,0.6-2.5,0.9-3.7c0.3-1.2,0.5-2.4,0.5-3.7c-0.1-2.5-1-4.9-1.3-7.5
				c-0.1-0.6-0.1-1.3-0.1-1.9c0-0.6,0.1-1.3,0.2-1.9c0.2-1.3,0.4-2.5,0.6-3.8c0.5-2.5,1.4-4.9,2.5-7.2c1.2-2.3,2.7-4.4,4.6-6.1
				c1.9-1.8,4-3.2,6.3-4.3c4.6-2.2,9.7-3.2,14.8-3.8c5.1-0.6,10.2-0.7,15.3-0.6c5.1,0.2,10.2,0.9,15.1,2.3c4.9,1.5,9.7,3.6,13.6,7
				c3.9,3.3,6.9,7.8,8.1,12.8c0.3,1.2,0.5,2.5,0.7,3.8c0.2,1.3,0.1,2.6,0.2,3.8c0.1,1.3,0.5,2.5,0.7,3.7
				C123,119.4,123.2,120.7,123.4,121.9z"/>
		</g>
	</g>
	<path class="st3" d="M127.8,130c0,0,14.5-49-37.5-52.7c-52-3.7-54.4,11.4-53.5,33.2l3.6,10.1c0,0,0.4-0.6,1-1.6
		c0.3,1.2,0.4,2.3,0.4,3.4c0,3.2-1.4,5.4-1.4,8.1c0,5.2,3.3,9.1,12.4,11.5c-2.6-2.3-4.7-5.1-6-8.2c-2.6-5.2-3.6-11.1-3.8-17.3
		c4.2-6.7,11.9-19.6,11.3-23.8c0,0,10.5,13.5,18,15.3c0,0-8.9-2.5-11.6-21.9c0.6,3.6,4.5,17.7,26.6,23c0,0-7.7-5.1-7.2-9.6
		c0,1.2,1.3,9.1,31.5,17.9c0,0,5,1.3,9.4,4c-0.6,8.2-3.3,15.7-8.9,20.8c9.6-2.4,12.8-6.5,12.8-11.8c0-3.1-0.4-2.4-1.2-7.1
		C125.7,125.1,127.4,127.3,127.8,130z"/>
	<path d="M60.5,84.1c0,0,1.3,17.7,26.7,23.9c0,0-7.9-5.2-7.2-9.8c0,0-1.2,8.5,31.5,18.1c0,0,15,3.9,16.3,12.5c0,0,14.5-49-37.5-52.7
		c-52-3.7-54.4,11.4-53.5,33.2l3.6,10.1c0,0,14.8-22.1,13.9-27.9c0,0,10.5,13.5,18,15.3C72.2,106.8,63,104.3,60.5,84.1z"/>
	<g>
		<path class="st10" d="M72.2,86.7c0,0,0,15.2,6.2,14.7c1.1-0.1,2.1,0.4,3.1,0.6c-0.1-5.3-0.1-11.2,0.3-16.5
			C78.2,84.7,74.4,84.7,72.2,86.7z"/>
		<path d="M72.3,86.7c0.2,1.7,0.4,3.4,0.7,5.1c0.3,1.7,0.6,3.3,1.2,4.9c0.3,0.8,0.6,1.6,1,2.3c0.4,0.7,0.9,1.4,1.6,1.8
			c0.3,0.2,0.7,0.3,1.1,0.4c0.4,0.1,0.8,0,1.3,0c0.9,0.1,1.7,0.4,2.5,0.6l-0.2,0.2c-0.1-2.8-0.3-5.5-0.3-8.3c0-2.8,0-5.5,0.3-8.3
			l0.4,0.5c-1.6-0.3-3.2-0.6-4.9-0.5C75.3,85.4,73.6,85.7,72.3,86.7z M72.2,86.7c0.6-0.6,1.3-1.1,2.1-1.4c0.8-0.3,1.7-0.5,2.5-0.6
			c1.7-0.2,3.4,0,5.1,0.3l0.4,0.1l0,0.5c-0.2,2.7-0.4,5.5-0.4,8.2c-0.1,2.7-0.3,5.5-0.2,8.3l0,0.2l-0.2,0c-0.9-0.2-1.7-0.5-2.5-0.6
			c-0.4,0-0.8,0.1-1.3,0c-0.5,0-0.9-0.1-1.3-0.3c-0.8-0.4-1.5-1.1-2-1.8c-0.5-0.7-0.9-1.6-1.1-2.4c-0.6-1.7-0.9-3.4-1-5.1
			C72.1,90.2,72,88.4,72.2,86.7L72.2,86.7L72.2,86.7z"/>
	</g>
	<g>
		<path class="st10" d="M92.9,89.2c0,0-5.5-2.7-11.1-3.8c-0.5,5.4-0.4,11.2-0.3,16.5c3.4,0.5,6,0.5,6,0.5S92,103.4,92.9,89.2z"/>
		<path d="M92.9,89.2c-1.8-0.7-3.6-1.3-5.5-1.9c-1.8-0.6-3.7-1.1-5.6-1.5l0.5-0.4c-0.3,2.7-0.6,5.5-0.7,8.2c0,1.4,0,2.8,0.1,4.1
			l0.2,4.1l-0.3-0.4c2,0.2,4,0.4,6,0.4h0l0.1,0c0.1,0,0.4,0,0.6-0.1c0.2-0.1,0.5-0.2,0.7-0.4c0.4-0.4,0.8-0.8,1.1-1.3
			c0.6-1,1-2.2,1.4-3.4C92.1,94.2,92.5,91.7,92.9,89.2z M93,89.2c0,2.6-0.1,5.1-0.7,7.7c-0.3,1.3-0.7,2.5-1.3,3.7
			c-0.3,0.6-0.7,1.2-1.3,1.6c-0.3,0.2-0.6,0.4-0.9,0.6c-0.4,0.1-0.7,0.3-1.3,0.2l0.1,0c-2-0.1-4.1-0.3-6.1-0.7l-0.3-0.1v-0.3
			c0-1.4,0.1-2.8,0.1-4.1l0.1-4.1c0.1-2.8-0.1-5.5,0.1-8.3l0-0.5l0.5,0.1c2,0.3,3.8,0.9,5.7,1.6C89.5,87.3,91.3,88.1,93,89.2
			L93,89.2L93,89.2z"/>
	</g>
	<path class="st0" d="M81.9,85.4c-3.7-0.7-7.4-0.7-9.6,1.3c0,0,0,4.4,1,8.4c2.5,0,5-0.1,7.5-1.8c-0.5,2.7-0.8,5.5-0.8,8.2
		c0.6,0.1,1.2,0.3,1.7,0.4C81.4,96.6,81.4,90.7,81.9,85.4z"/>
	<path class="st0" d="M81.9,85.4c-0.2,2.1-0.3,4.4-0.3,6.6c2.6,1.6,5.8,3.1,9.1,3.1c0.7,6.3-4,6.1-8.3,7c3,0.4,5.2,0.4,5.2,0.4
		s4.4,1,5.4-13.3C92.9,89.2,87.4,86.5,81.9,85.4z"/>
	<g>
		<g>
			<path class="st5" d="M48.5,57.4C48.4,57.2,48.4,57.2,48.5,57.4L48.5,57.4z"/>
			<path d="M48.5,57.4L48.5,57.4c-0.4,0-0.5,0-0.4,0c0.1,0,0.2-0.1,0.2-0.1c0,0,0,0,0,0c0,0,0,0,0,0c0,0.1,0.1,0.2,0.2,0.2
				c0,0,0.1,0,0.2-0.1c0.1-0.1,0.1-0.2,0.1-0.2l0.1,0l0.1,0c0,0,0.1,0,0.1,0C48.9,57.2,48.8,57.3,48.5,57.4L48.5,57.4z M48.4,57.4
				c-0.3,0-0.4,0-0.5,0c0,0,0,0,0-0.1c0,0,0,0,0.1-0.1c0,0,0,0,0.1,0c0-0.1,0-0.2,0.1-0.2c0.1-0.1,0.2-0.1,0.2-0.1
				c0.1,0,0.2,0.1,0.2,0.2c0,0,0,0,0,0c0,0,0,0,0,0c0,0,0.2,0,0.3,0C49,57.2,48.9,57.3,48.4,57.4L48.4,57.4L48.4,57.4z"/>
		</g>
		<g>
			<path class="st5" d="M62.3,217.2C62.3,217.2,62.3,217.2,62.3,217.2C62.3,217.2,62.3,217.3,62.3,217.2z"/>
			<path d="M62.3,217.2L62.3,217.2l-0.3,0.3l0.8-0.3l-0.3,0c0.2,0,0.2,0,0.3,0c0,0,0,0,0,0c0,0,0,0,0,0l0-0.1l-0.3-0.3l-0.6,0.3
				l0,0.1l0,0c0,0,0,0,0,0c0,0,0,0,0,0L62.3,217.2L62.3,217.2z M62.3,217.2l0.5,0c0,0,0,0,0,0c0,0,0,0,0,0l0,0l0,0.1l-0.6,0.3
				l-0.3-0.3l0-0.1c0,0,0,0,0,0c0,0,0,0,0,0c0.1,0,0.1,0,0.3,0l-0.3,0H62.3l0.3-0.3L62.3,217.2z"/>
		</g>
		<g>
			<path class="st5" d="M118.4,56.3c0,0-10.1-8-35.5-8c-23.6,0-34.4,9.6-34.5,9C26.1,70.5,23.6,91,26.7,108.7
				c3.9,22.1,11.2,33.9,32.7,38.1c2.7,0.5,5.4,0.8,8.1,1c-2.4,7.6-15.9,53.4,3.3,67.1c0,0,3.8,2.7,4.9-12.3c0,0,10.4,4,14.4-0.3
				c0,0-0.2,13,2.9,12.8s18.5-6.6,6.3-67.6c0,0-0.4-0.1-1.1-0.2c3.8-0.3,7.6-0.6,11.4-0.9c0,0,0,0,0,0c20.9-4.6,27.9-16.5,31.3-38
				C143.9,89.9,141.4,70.5,118.4,56.3z M83.7,144.7c-32.6,0-42.6-5.3-42.6-14.3c0-2.7,1.4-4.9,1.4-8.1c0-3.2-1.7-6.8-1.4-10.4
				c1-12.2,6.3-19.1,14.5-22.8c2.9,2.3,8.1,3.9,14.1,3.9c4.6,0,8.8-0.9,11.8-2.4c3,1.5,7.2,2.4,11.8,2.4c5.3,0,10.1-1.2,13.1-3.1
				c9.7,4.5,16,12.2,16.2,23.3c0.1,2.9,0.4,2.5,1.4,8.8c1,6.2,1.4,5.2,1.4,8.5C125.3,139.4,116.4,144.7,83.7,144.7z"/>
			<g>
				<path d="M118.4,56.4c-2.5-1.7-5.3-2.9-8.2-3.9c-2.9-1-5.8-1.7-8.8-2.3c-6-1.2-12-1.6-18.1-1.6c-6.1,0-12.1,0.7-18,2.1
					c-2.9,0.7-5.8,1.7-8.6,2.8c-1.4,0.6-2.8,1.2-4.1,1.9c-0.7,0.4-1.3,0.7-2,1.1l-1,0.6l-0.5,0.3l-0.3,0.1c0,0-0.1,0-0.2,0.1
					c0,0-0.1,0-0.1,0c0,0-0.4,0-0.4-0.3l0.5,0.2c-4.4,2.6-8.4,5.7-11.8,9.5c-3.4,3.8-6.1,8.1-7.8,12.9c-1.8,4.7-2.7,9.8-2.9,14.8
					c-0.2,5.1,0.3,10.1,1.3,15.1c0.9,5,2.1,10,4,14.7c1.9,4.7,4.5,9.2,8.2,12.6c3.7,3.5,8.2,5.9,13.1,7.5c2.4,0.8,4.9,1.4,7.4,1.9
					c2.5,0.4,5,0.7,7.6,1l0.2,0l-0.1,0.2c-2.1,6.8-3.8,13.7-5,20.7c-1.2,7-1.9,14.1-1.7,21.2c0.1,3.5,0.5,7.1,1.3,10.5
					c0.8,3.4,2.1,6.8,4.1,9.7c1,1.4,2.2,2.8,3.5,3.9c0.3,0.3,0.7,0.5,1,0.8c0.3,0.2,0.6,0.2,1,0.1c0.7-0.3,1.2-1.1,1.5-1.8
					c0.7-1.6,1.1-3.3,1.4-5c0.3-1.7,0.5-3.5,0.6-5.3l0-0.5l0.5,0.2c2.3,0.8,4.8,1.4,7.3,1.6c1.2,0.1,2.5,0,3.7-0.2
					c1.2-0.3,2.3-0.8,3.1-1.6l0.7-0.8l0,1.1c0,1.8,0.1,3.6,0.2,5.3c0.2,1.8,0.4,3.5,0.9,5.2c0.2,0.8,0.6,1.7,1.2,1.9
					c0.2,0.1,0.7,0,1-0.1c0.4-0.1,0.8-0.3,1.1-0.5c1.5-0.8,2.7-2.1,3.7-3.5c1.9-2.9,3-6.4,3.7-9.8c0.7-3.5,1-7,1.2-10.6
					c0.2-7.1-0.3-14.2-1.1-21.3c-0.9-7.1-2.1-14.1-3.5-21.1l0.4,0.4l-1.1-0.2l-4-0.6l4.1-0.3l11.4-0.9l-0.3,0.8l0,0l-0.5-0.6
					l0.7-0.2c4.6-1,9.1-2.5,13.2-4.9c4.1-2.3,7.6-5.6,10.2-9.5c2.6-3.9,4.3-8.4,5.6-12.9c1.2-4.6,2.1-9.2,2.7-13.9
					c0.6-4.7,0.7-9.5,0.2-14.2c-0.5-4.7-1.7-9.3-3.7-13.6c-2-4.3-4.8-8.2-8.1-11.6C126.2,61.8,122.4,58.9,118.4,56.4L118.4,56.4
					L118.4,56.4z M118.4,56.3L118.4,56.3c4.1,2.5,7.9,5.4,11.3,8.8c3.4,3.4,6.2,7.3,8.2,11.6c2.1,4.3,3.3,9,3.9,13.7
					c0.6,4.7,0.4,9.6-0.1,14.3c-0.6,4.7-1.4,9.4-2.6,14.1c-1.2,4.6-2.9,9.2-5.6,13.2c-2.6,4.1-6.2,7.5-10.4,9.9
					c-4.2,2.4-8.8,3.9-13.5,5l0.3-0.8l0,0l0.6,0.7l-0.9,0.1l-11.4,0.9l0-1l1.1,0.2l0.3,0.1l0.1,0.3c1.4,7,2.6,14.1,3.5,21.2
					c0.8,7.1,1.4,14.3,1.1,21.5c-0.1,3.6-0.5,7.2-1.2,10.7c-0.7,3.5-1.8,7.1-3.8,10.1c-1,1.5-2.3,2.9-4,3.8
					c-0.4,0.2-0.9,0.4-1.3,0.6c-0.5,0.1-0.9,0.3-1.6,0.1c-0.6-0.2-0.9-0.7-1.2-1.1c-0.2-0.4-0.4-0.9-0.6-1.3
					c-0.5-1.8-0.7-3.6-0.9-5.4c-0.1-1.8-0.2-3.6-0.2-5.4l0.7,0.3c-0.9,1-2.2,1.6-3.5,1.9c-1.3,0.3-2.6,0.3-3.9,0.2
					c-1.3-0.1-2.6-0.3-3.8-0.6c-1.2-0.3-2.5-0.6-3.7-1.1l0.5-0.3c-0.1,1.8-0.3,3.6-0.6,5.3c-0.3,1.8-0.7,3.5-1.5,5.2
					c-0.4,0.8-0.9,1.7-1.9,2.1c-0.5,0.2-1.1,0.2-1.6-0.2c-0.4-0.3-0.7-0.5-1.1-0.8c-1.4-1.2-2.6-2.5-3.6-4c-2-3-3.3-6.4-4.1-9.9
					c-0.8-3.5-1.2-7.1-1.3-10.6c-0.2-7.1,0.6-14.3,1.8-21.3c1.3-7,3-13.9,5-20.8l0.2,0.2c-2.5-0.2-5.1-0.5-7.6-0.9
					c-2.5-0.5-5-1.1-7.4-1.9c-4.9-1.6-9.5-4-13.3-7.6c-3.8-3.5-6.5-8-8.4-12.8c-1.9-4.8-3.1-9.8-4.1-14.8c-1-5-1.5-10.2-1.4-15.3
					c0.2-5.1,1.1-10.3,2.9-15.1c1.8-4.8,4.6-9.3,8.1-13.1c3.5-3.8,7.6-7,12-9.5l0.4-0.3l0.1,0.5c0-0.3-0.4-0.3-0.3-0.3c0,0,0,0,0,0
					l0.1,0l0.2-0.1l0.5-0.3l1-0.6c0.7-0.4,1.3-0.8,2-1.1c1.4-0.7,2.7-1.4,4.2-1.9c2.8-1.2,5.7-2.1,8.7-2.8c5.9-1.4,12.1-2,18.1-1.9
					c6.1,0.1,12.2,0.6,18.1,1.7c3,0.6,5.9,1.4,8.8,2.4C113.1,53.3,115.9,54.5,118.4,56.3z"/>
				<path d="M83.7,144.8c-4,0-8,0-12-0.2c-4-0.2-8-0.5-12-1c-4-0.6-8-1.4-11.7-3c-1.8-0.9-3.6-2-5-3.5c-1.4-1.6-2.2-3.6-2.3-5.7
					c0-0.3,0-0.5,0-0.8c0-0.3,0-0.5,0-0.8c0-0.5,0.1-1,0.3-1.5c0.2-1,0.5-2,0.8-2.9c0.2-0.9,0.4-1.9,0.4-2.9c0-1-0.1-1.9-0.3-2.9
					c-0.4-1.9-1-3.9-1.1-6c0-0.5,0-1,0-1.6c0.1-0.5,0.1-1,0.2-1.5c0.1-1,0.3-2,0.5-3c0.8-4,2.3-7.8,4.7-11.1
					c2.4-3.3,5.8-5.7,9.4-7.4l0.1,0l0.1,0.1c1.7,1.4,3.9,2.2,6,2.8c2.2,0.6,4.4,0.9,6.6,1c2.2,0.1,4.5-0.1,6.7-0.4
					c2.2-0.4,4.4-1,6.3-2l0.1-0.1l0.1,0.1c1.9,0.9,4,1.5,6,1.8c2.1,0.4,4.2,0.5,6.3,0.4c2.1-0.1,4.2-0.3,6.3-0.8
					c2-0.5,4-1.2,5.8-2.3l0.2-0.1l0.2,0.1c3.7,1.7,7.1,3.9,9.9,6.9c2.8,2.9,4.8,6.6,5.8,10.6c0.5,2,0.8,4,0.8,6c0,1,0.1,1.9,0.3,2.9
					c0.2,1,0.4,2,0.6,2.9c0.4,2,0.6,4,1,5.9c0.2,1,0.4,1.9,0.7,2.9c0.3,1,0.3,2.1,0.3,3.1c0,2.1-0.6,4.2-1.9,5.9
					c-1.2,1.7-3,2.9-4.8,3.8c-3.7,1.8-7.6,2.6-11.6,3.2c-4,0.6-7.9,0.9-11.9,1C91.6,144.7,87.7,144.8,83.7,144.8z M83.7,144.7
					c8-0.1,16-0.3,23.8-1.6c3.9-0.7,7.8-1.6,11.3-3.4c1.7-0.9,3.3-2.1,4.4-3.6c1.1-1.5,1.6-3.4,1.6-5.4c0-1,0-1.9-0.3-2.8
					c-0.2-0.9-0.5-1.9-0.7-2.9c-0.4-2-0.7-4-1-5.9c-0.2-1-0.4-1.9-0.6-2.9c-0.2-1-0.3-2.1-0.3-3.1c-0.1-2-0.3-3.9-0.8-5.8
					c-1-3.8-2.9-7.3-5.5-10.2c-2.7-2.9-6-5.1-9.6-6.8l0.4,0c-1.9,1.2-4,1.9-6.1,2.4c-2.1,0.5-4.3,0.7-6.5,0.7
					c-2.2,0-4.3-0.1-6.5-0.5c-2.1-0.4-4.2-1-6.2-2h0.2c-2.1,1-4.3,1.6-6.5,1.9c-2.2,0.4-4.5,0.5-6.8,0.4c-2.3-0.1-4.5-0.4-6.7-1
					c-2.2-0.6-4.3-1.5-6.1-2.9l0.2,0c-3.6,1.6-6.9,4.1-9.2,7.3c-2.3,3.2-3.7,7.1-4.4,11c-0.2,1-0.3,2-0.4,2.9
					c-0.1,0.5-0.1,1-0.1,1.5c0,0.5,0,1,0,1.4c0.1,1.9,0.7,3.9,1.1,5.8c0.2,1,0.4,2,0.4,3.1c0,1.1-0.2,2.1-0.4,3.1
					c-0.5,2-1.2,3.8-1,5.8c0.1,1.9,0.8,3.8,2.1,5.2c1.3,1.5,2.9,2.5,4.7,3.4c3.6,1.7,7.5,2.6,11.4,3.3
					C67.6,144.3,75.7,144.6,83.7,144.7z"/>
			</g>
		</g>
	</g>
	<g class="st2">
		<path class="st7" d="M48.5,57.4C48.4,57.2,48.4,57.2,48.5,57.4L48.5,57.4z"/>
		<path class="st7" d="M62.3,217.2C62.3,217.2,62.3,217.2,62.3,217.2C62.3,217.2,62.3,217.3,62.3,217.2z"/>
		<path class="st7" d="M63.3,164.3c-2.6,12.6-4.4,29.4,0.3,41C61.8,191.5,62.5,178.1,63.3,164.3z"/>
		<path class="st7" d="M102.6,166.9c-0.6,13.6-2,27.4-2,40.9C103.5,201.3,105.5,189.2,102.6,166.9z"/>
		<path class="st7" d="M96.8,199c-7,3-17,5-24,0c1.9,5.7,1.1,11.3-1.5,16.1c1.1,0.1,3.5-0.8,4.4-12.5c0,0,10.4,4,14.4-0.3
			c0,0-0.2,13,2.9,12.8c0.4,0,1-0.1,1.7-0.5c-0.4-0.8-0.7-1.8-0.9-2.7C92.8,207,94.8,203,96.8,199z"/>
	</g>
	<g>
		<path class="st5" d="M48.5,57.4C48.4,57.2,48.4,57.2,48.5,57.4L48.5,57.4z"/>
		<path d="M48.5,57.4L48.5,57.4c-0.4,0-0.5,0-0.4,0c0.1,0,0.2-0.1,0.2-0.1c0,0,0,0,0,0c0,0,0,0,0,0c0,0.1,0.1,0.2,0.2,0.2
			c0,0,0.1,0,0.2-0.1c0.1-0.1,0.1-0.2,0.1-0.2l0.1,0l0.1,0c0,0,0.1,0,0.1,0C48.9,57.2,48.8,57.3,48.5,57.4L48.5,57.4z M48.4,57.4
			c-0.3,0-0.4,0-0.5,0c0,0,0,0,0.1-0.1c0,0,0,0,0.1-0.1c0,0,0,0,0.1,0c0-0.1,0-0.2,0.1-0.2c0.1-0.1,0.2-0.1,0.2-0.1
			c0.1,0,0.2,0.1,0.2,0.2c0,0,0,0,0,0c0,0,0,0,0,0c0,0,0.2,0,0.3,0C49,57.2,48.9,57.3,48.4,57.4L48.4,57.4L48.4,57.4z"/>
	</g>
	<g>
		<path class="st5" d="M48.5,57.4C48.4,57.2,48.4,57.2,48.5,57.4L48.5,57.4z"/>
		<path d="M48.5,57.4L48.5,57.4c-0.4,0-0.5,0-0.4,0c0.1,0,0.2-0.1,0.2-0.1c0,0,0,0,0,0c0,0,0,0,0,0c0,0.1,0.1,0.2,0.2,0.2
			c0,0,0.1,0,0.2-0.1c0.1-0.1,0.1-0.2,0.1-0.2l0.1,0l0.1,0c0,0,0.1,0,0.1,0C48.9,57.2,48.8,57.3,48.5,57.4L48.5,57.4z M48.4,57.4
			c-0.3,0-0.4,0-0.5,0c0,0,0,0,0.1-0.1c0,0,0,0,0.1-0.1c0,0,0,0,0.1,0c0-0.1,0-0.2,0.1-0.2c0.1-0.1,0.2-0.1,0.2-0.1
			c0.1,0,0.2,0.1,0.2,0.2c0,0,0,0,0,0c0,0,0,0,0,0c0,0,0.2,0,0.3,0C49,57.2,48.9,57.3,48.4,57.4L48.4,57.4L48.4,57.4z"/>
	</g>
	<path class="st7" d="M48.5,57.4C48.4,57.2,48.4,57.2,48.5,57.4L48.5,57.4z"/>
	<path class="st11" d="M118.6,143.6c14-5.9,19.4-17.2,22.3-35.2c2.3-14.6,1.3-29.8-10.6-42.5C138.9,91.7,136.5,121.2,118.6,143.6z"
		/>
	<path class="st11" d="M93.9,147.8c-3.6,0.3-7.8,0.4-12.7,0.4c-3.7,0-7-0.1-10-0.3C78.8,151.8,87,152.1,93.9,147.8z"/>
	<path class="st11" d="M45.8,138.8c-1.8-1.2-3.1-2.6-3.8-4.1c-14.4-17.8-15.6-45.2-6.7-66.3c-10,12.2-10.8,27-8.5,40.3
		c3.6,20.5,10.2,32.1,28.3,37.1C51.6,143.8,48.5,141.4,45.8,138.8z"/>
	<path d="M86.4,82.7c0,2.6-2.8,7-6.3,7c-3.5,0-6.3-4.4-6.3-7c0-2.6,2.8-3.7,6.3-3.7C83.6,79,86.4,80,86.4,82.7z"/>
	<ellipse transform="matrix(0.9866 -0.1633 0.1633 0.9866 -12.1606 13.765)" class="st10" cx="77.7" cy="80.9" rx="2.4" ry="0.5"/>
	<g>
		<circle class="st1" cx="107.2" cy="77.1" r="4.3"/>
		<path d="M110.4,77.1c0,2.4-1.9,4.3-4.3,4.3c-2.4,0-4.3-1.9-4.3-4.3c0-2.4,1.9-4.3,4.3-4.3C108.5,72.7,110.4,74.7,110.4,77.1z"/>
		<path class="st10" d="M104.7,76.3c0,0.4-0.3,0.7-0.7,0.7c-0.4,0-0.7-0.3-0.7-0.7c0-0.4,0.3-0.7,0.7-0.7
			C104.3,75.6,104.7,75.9,104.7,76.3z"/>
	</g>
	<g>
		<path class="st1" d="M58.6,77.8c0,2.4-1.9,4.3-4.3,4.3c-2.4,0-4.3-1.9-4.3-4.3c0-2.4,1.9-4.3,4.3-4.3
			C56.7,73.5,58.6,75.4,58.6,77.8z"/>
		<path d="M57.5,77.8c0,2.4-1.9,4.3-4.3,4.3c-2.4,0-4.3-1.9-4.3-4.3c0-2.4,1.9-4.3,4.3-4.3C55.6,73.5,57.5,75.4,57.5,77.8z"/>
		<circle class="st10" cx="51" cy="77.1" r="0.7"/>
	</g>
	<g>
		<path class="st5" d="M68.2,54.9c0,0-19.4-50.8-55.7-34.9C2.9,24.3,17.5,51,27.8,51C40.3,51,44,63.6,44,63.6"/>
		<path d="M68.2,54.9c-1.1-2.6-2.4-5.1-3.8-7.6c-1.4-2.5-2.8-4.9-4.4-7.2c-3.1-4.7-6.7-9.1-10.9-12.9c-4.2-3.8-8.9-7-14.3-8.7
			c-2.7-0.9-5.5-1.3-8.3-1.3c-2.8,0-5.6,0.4-8.4,1.1c-1.4,0.4-2.7,0.8-4,1.4c-0.6,0.3-1.3,0.5-1.9,0.9c-0.6,0.3-1.1,0.8-1.4,1.4
			c-0.8,1.1-1,2.5-1,3.9c0,1.4,0.2,2.8,0.6,4.1c1.5,5.4,4.3,10.4,8,14.6c1.8,2.1,3.9,4,6.4,5.2c0.6,0.3,1.3,0.5,1.9,0.6
			c0.6,0.1,1.3,0.1,2,0.2c1.5,0.1,2.9,0.3,4.3,0.8c2.8,0.9,5.3,2.6,7.1,4.8c1.9,2.2,3.3,4.8,4.1,7.5l-0.1,0c-1-2.6-2.5-5.1-4.4-7.1
			c-1.9-2-4.3-3.6-6.9-4.4c-1.3-0.4-2.7-0.6-4.1-0.7c-0.7,0-1.5,0-2.2-0.2c-0.7-0.1-1.5-0.4-2.1-0.7c-2.7-1.3-4.9-3.3-6.7-5.4
			c-1.9-2.2-3.5-4.6-4.8-7.1c-1.4-2.5-2.5-5.2-3.1-8C9.2,28.6,9,27.2,9,25.7c0.1-1.4,0.4-3,1.3-4.2c0.4-0.6,1-1.1,1.7-1.5
			c0.7-0.3,1.3-0.6,2-0.8c1.3-0.5,2.7-0.9,4.1-1.3c5.5-1.5,11.4-1.5,16.9,0.1c5.5,1.6,10.5,4.6,14.8,8.5c4.3,3.8,7.8,8.4,10.9,13.2
			C63.6,44.5,66.3,49.6,68.2,54.9L68.2,54.9z"/>
	</g>
	<g>
		<path class="st8" d="M47.8,60.4c0.2,0.8,4.4-2.5,4.2-3.3c0.7-12.4-7.3-23-18.1-28.1c-1.1,2.9-3,5.1-5.5,6.9
			C38.4,36.4,41.5,53.9,47.8,60.4z"/>
		<g>
			<path d="M47.9,60.4c0.1,0.2,0.4,0,0.5-0.1c0.2-0.1,0.4-0.2,0.6-0.4c0.4-0.3,0.7-0.6,1.1-0.9c0.3-0.3,0.7-0.6,1-1
				c0.2-0.2,0.3-0.3,0.4-0.5c0.1-0.1,0.1-0.2,0.2-0.3c0-0.1,0.1-0.2,0.1-0.2l0,0l0-0.1c0.1-2.9-0.3-5.8-1.1-8.6
				c-0.4-1.4-0.9-2.8-1.5-4.1c-0.6-1.3-1.3-2.6-2.1-3.8c-1.6-2.5-3.5-4.7-5.7-6.6c-2.3-1.9-4.8-3.4-7.5-4.6l0.4-0.2
				c-0.5,1.4-1.2,2.8-2.2,4c-0.9,1.2-2.1,2.2-3.3,3.1l-0.2-0.8c1.4,0.1,2.8,0.5,4.1,1.2c1.2,0.7,2.3,1.6,3.2,2.7
				c1.8,2.1,3.2,4.5,4.5,6.9c1.2,2.4,2.3,4.9,3.5,7.3c0.6,1.2,1.2,2.4,1.9,3.6C46.2,58.2,47,59.4,47.9,60.4L47.9,60.4L47.9,60.4z
				 M47.8,60.4c-2-1.9-3.4-4.3-4.7-6.6c-1.3-2.4-2.5-4.8-3.8-7.2c-1.3-2.4-2.6-4.7-4.4-6.7c-0.9-1-1.8-1.9-2.9-2.5
				c-1.1-0.7-2.3-1.1-3.6-1.1l-1.3-0.1l1.1-0.7c2.4-1.7,4.4-3.9,5.5-6.6l0.1-0.3l0.3,0.1c2.7,1.3,5.2,3,7.4,4.9
				c2.3,1.9,4.4,4,6.1,6.5c0.9,1.2,1.7,2.5,2.3,3.9c0.7,1.4,1.2,2.8,1.6,4.2c0.8,2.9,1.1,5.9,0.8,8.9l0-0.1c0,0.3-0.1,0.4-0.1,0.5
				c-0.1,0.1-0.1,0.2-0.2,0.3c-0.2,0.2-0.3,0.4-0.5,0.5c-0.4,0.3-0.7,0.6-1.1,0.9c-0.4,0.3-0.8,0.6-1.2,0.8
				c-0.2,0.1-0.4,0.2-0.6,0.3c-0.1,0-0.2,0.1-0.4,0.1c-0.1,0-0.1,0-0.2,0C47.9,60.6,47.8,60.5,47.8,60.4z"/>
		</g>
	</g>
	<path class="st9" d="M120.5,130.2c0.1,1.3-3.1,2.5-7.1,2.7c-4,0.2-7.2-0.8-7.3-2.1c-0.1-1.3,3.1-2.5,7.1-2.7
		C117.2,127.9,120.5,128.8,120.5,130.2z"/>
	<path class="st10" d="M120.5,128.5c0,0.4-1,0.8-2.3,0.9c-1.3,0.1-2.3-0.2-2.3-0.7c0-0.4,1-0.8,2.3-0.9
		C119.4,127.8,120.4,128.1,120.5,128.5z"/>
	<path class="st9" d="M116.8,84.1c0.1,1.3-3.1,2.5-7.1,2.7c-4,0.2-7.2-0.8-7.3-2.1c-0.1-1.3,3.1-2.5,7.1-2.7
		C113.5,81.9,116.8,82.8,116.8,84.1z"/>
	<path class="st10" d="M116.8,82.5c0,0.4-1,0.8-2.3,0.9c-1.3,0.1-2.3-0.2-2.3-0.7c0-0.4,1-0.8,2.3-0.9
		C115.7,81.8,116.7,82.1,116.8,82.5z"/>
	<path class="st9" d="M45.4,129.5c-0.1,1.3,3.1,2.5,7.1,2.7c4,0.2,7.2-0.8,7.3-2.1c0.1-1.3-3.1-2.5-7.1-2.7S45.5,128.2,45.4,129.5z"
		/>
	<path class="st10" d="M45.5,127.9c0,0.4,1,0.8,2.3,0.9c1.3,0.1,2.3-0.2,2.3-0.7c0-0.4-1-0.8-2.3-0.9
		C46.5,127.1,45.5,127.4,45.5,127.9z"/>
	<path class="st9" d="M41.7,84.8c-0.1,1.3,3.1,2.5,7.1,2.7c4,0.2,7.2-0.8,7.3-2.1c0.1-1.3-3.1-2.5-7.1-2.7
		C45,82.6,41.7,83.5,41.7,84.8z"/>
	<path class="st10" d="M41.7,83.2c0,0.4,1,0.8,2.3,0.9c1.3,0.1,2.3-0.2,2.3-0.7c0-0.4-1-0.8-2.3-0.9C42.8,82.5,41.7,82.8,41.7,83.2z
		"/>
	<path d="M61.5,123c0,2.6-2.1,4.6-4.6,4.6s-4.6-2.1-4.6-4.6c0-2.6,2.1-4.6,4.6-4.6S61.5,120.4,61.5,123z"/>
	<circle class="st10" cx="54.3" cy="121.1" r="0.8"/>
	<circle cx="106.7" cy="123.4" r="4.6"/>
	<circle class="st10" cx="104.1" cy="121.5" r="0.8"/>
	<g>
		
			<ellipse transform="matrix(-0.9994 -3.393967e-002 3.393967e-002 -0.9994 164.0044 268.5222)" class="st4" cx="84.3" cy="132.9" rx="3.8" ry="1.7"/>
		<path d="M80.5,132.7c0-0.4,0.3-0.7,0.6-0.9c0.3-0.2,0.7-0.4,1-0.5c0.7-0.3,1.5-0.4,2.2-0.4c0.7,0,1.6,0,2.3,0.2
			c0.4,0.1,0.8,0.3,1.1,0.5c0.3,0.3,0.8,0.7,0.8,1.3c0,0.2-0.2,0.6-0.3,0.8c-0.2,0.2-0.3,0.4-0.5,0.5c-0.4,0.2-0.8,0.4-1.2,0.5
			c-0.8,0.2-1.6,0.2-2.3,0.1c-0.8-0.1-1.5-0.3-2.2-0.6c-0.3-0.1-0.7-0.3-1-0.6C80.7,133.5,80.5,133.1,80.5,132.7z M80.5,132.7
			c0,0.4,0.3,0.7,0.6,0.9c0.3,0.2,0.7,0.4,1,0.5c0.7,0.2,1.4,0.2,2.2,0.2c0.7,0,1.4-0.2,2.1-0.4c0.6-0.2,1.3-0.7,1.3-0.9
			c0.1-0.3-0.6-0.8-1.2-1c-0.6-0.3-1.3-0.5-2.1-0.5c-0.7-0.1-1.5-0.1-2.2,0.1c-0.4,0.1-0.7,0.2-1,0.4
			C80.8,132.1,80.5,132.4,80.5,132.7z"/>
	</g>
	<path class="st11" d="M68.2,149.6c0,0-9.3,4.8,5.8,36.7c0,0,8.7,10.9,3.2-21.1"/>
	<g>
		<path class="st5" d="M68.2,147.6c0,0-9.3,4.8,5.8,36.7c0,0,8.7,10.9,3.2-21.1"/>
		<path d="M68.2,147.6c-1.3,1-1.8,2.6-2.2,4.1c-0.3,1.6-0.4,3.2-0.3,4.8c0.2,3.2,0.8,6.4,1.5,9.5c0.7,3.2,1.7,6.3,3,9.2
			c1.2,3,2.7,5.9,4.1,8.8l-0.1-0.1c0.7,0.8,1.6,1.6,2.5,1.6c0.8,0,1.2-1.1,1.4-2.2c0.4-2.1,0.3-4.4,0.2-6.7
			c-0.1-2.3-0.3-4.5-0.5-6.8l-0.8-6.8l0.1,0c0.5,2.2,1,4.5,1.4,6.7c0.4,2.3,0.7,4.5,0.9,6.8c0.1,2.3,0.3,4.6-0.2,7
			c-0.1,0.6-0.3,1.2-0.6,1.8c-0.2,0.3-0.4,0.6-0.7,0.8c-0.3,0.2-0.7,0.4-1.1,0.4c-0.8,0-1.4-0.4-1.8-0.7c-0.5-0.4-0.9-0.8-1.3-1.3
			l0,0l0,0c-1.4-3-2.5-6-3.7-9c-1.1-3.1-2.3-6.1-3.3-9.2c-1-3.1-1.6-6.4-1.7-9.7c0-1.6,0.1-3.3,0.5-4.9c0.2-0.8,0.5-1.6,1-2.3
			C66.9,148.6,67.4,147.9,68.2,147.6L68.2,147.6z"/>
	</g>
	<path class="st11" d="M98.9,149.8c0,0,9.1,5.3-7.6,36.3c0,0-9.2,10.4-2.1-21.3"/>
	<g>
		<path class="st5" d="M98.9,147.8c0,0,9.1,5.3-7.6,36.3c0,0-9.2,10.4-2.1-21.3"/>
		<path d="M98.9,147.8c0.7,0.4,1.2,1.1,1.6,1.9c0.4,0.7,0.7,1.5,0.8,2.3c0.4,1.6,0.4,3.3,0.3,4.9c-0.2,3.3-1,6.5-2.2,9.6
			c-1.1,3.1-2.4,6-3.7,9c-1.3,3-2.6,6-4.1,8.8l0,0l0,0c-0.4,0.5-0.8,0.9-1.4,1.2c-0.5,0.3-1.1,0.7-1.9,0.6c-0.4,0-0.8-0.2-1.1-0.4
			c-0.3-0.2-0.5-0.5-0.6-0.8c-0.3-0.6-0.4-1.2-0.5-1.8c-0.4-2.4-0.1-4.7,0.1-7c0.3-2.3,0.7-4.5,1.2-6.8c0.5-2.2,1-4.5,1.7-6.6l0.1,0
			l-1.1,6.8c-0.3,2.2-0.7,4.5-0.9,6.8c-0.2,2.2-0.4,4.5-0.1,6.7c0.1,1,0.5,2.2,1.3,2.2c0.8,0.1,1.8-0.7,2.5-1.4l-0.1,0.1
			c1.6-2.8,3.2-5.6,4.6-8.6c1.4-2.9,2.5-6,3.4-9.1c0.9-3.1,1.7-6.2,2-9.4c0.1-1.6,0.2-3.2-0.1-4.8
			C100.6,150.6,100.1,148.9,98.9,147.8L98.9,147.8z"/>
	</g>
	<g>
		<path class="st5" d="M23.1,17c0,0-18.7-3.8-21,31.4s34.8,28.3,34.5-20.7"/>
		<path d="M23.1,17c-2.5-0.3-5.1,0.3-7.4,1.4c-2.3,1.1-4.2,2.8-5.7,4.8c-1.6,2-2.8,4.2-3.7,6.6c-0.9,2.4-1.7,4.8-2.3,7.3
			c-0.6,2.5-1,5-1.3,7.5c-0.3,2.5-0.6,5.1-0.5,7.6c0,2.6,0.3,5.1,1,7.6c0.7,2.5,1.8,4.8,3.4,6.7c1.6,1.9,4,3.2,6.4,3.4
			c2.5,0.3,5-0.4,7.1-1.6c2.2-1.2,4.1-2.9,5.7-4.8c1.6-1.9,3-4,4.2-6.3c2.3-4.5,3.9-9.4,4.9-14.4c1-5,1.5-10.1,1.6-15.2h0.1
			c0.2,5.1-0.1,10.3-1,15.4c-0.9,5.1-2.4,10.1-4.8,14.7c-2.4,4.6-5.7,8.9-10.4,11.5c-2.3,1.3-5,2-7.7,1.6c-2.7-0.3-5.1-1.8-6.7-3.9
			c-1.7-2-2.7-4.5-3.4-7c-0.7-2.5-0.9-5.1-1-7.7c-0.1-2.6,0.1-5.1,0.3-7.7C2.4,42,2.7,39.5,3.2,37c1.1-5,2.9-10.1,6.2-14.1
			c1.6-2,3.7-3.7,6.1-4.8C17.9,16.9,20.6,16.5,23.1,17L23.1,17z"/>
	</g>
</g>
</svg>
