<?xml version="1.0" encoding="utf-8"?>
<!-- Generator: Adobe Illustrator 15.1.0, SVG Export Plug-In . SVG Version: 6.00 Build 0)  -->
<!DOCTYPE svg PUBLIC "-//W3C//DTD SVG 1.1//EN" "http://www.w3.org/Graphics/SVG/1.1/DTD/svg11.dtd">
<svg version="1.1" id="Layer_1" xmlns="http://www.w3.org/2000/svg" xmlns:xlink="http://www.w3.org/1999/xlink" x="0px" y="0px"
	 width="155px" height="190px" viewBox="0 0 155 190" style="enable-background:new 0 0 155 190;" xml:space="preserve">
<style type="text/css">
<![CDATA[
	.st0{opacity:0.58;fill:#B7AA72;}
	.st1{opacity:0.25;}
	.st2{fill:#EFE6B9;}
	.st3{opacity:0.35;fill:#966D44;}
	.st4{fill:#F9D3AA;}
	.st5{opacity:0.29;fill:#B7AA72;}
	.st6{opacity:0.52;fill:#FF9999;}
	.st7{fill:#FFEBCA;}
	.st8{fill:#FFFFFF;}
	.st9{opacity:0.41;fill:#BCB1A0;}
]]>
</style>
<g>
	<g>
		<path class="st8" d="M65.2,120.3c0,0-5,0.7-4.3,4.1c0,0-2.7,2.2-1.9,3.6c0,0-1,0.4,0,1.4c0,0-1.7-1.1-0.9,0.6
			c0.8,1.7-5,1.9-2.8,4.7c0,0-1.3,0.3-0.4,1.2c0,0-2,0.9-0.2,2.3c0,0-2.2,0.6-0.6,1.6c0,0-2.5,3-0.3,3.5c0,0-1.4,1.6,0.3,1.5
			c0,0-2.5,2.6,0.3,2.6c0,0-0.2,1.4,1,1.3"/>
		<path d="M65.2,120.3c-0.5,0.2-1.1,0.3-1.6,0.6c-0.5,0.2-1,0.5-1.4,0.8c-0.4,0.3-0.7,0.7-0.9,1.2c-0.2,0.4-0.1,0.9,0,1.4l0.1,0.3
			l-0.2,0.2c-0.5,0.4-1,1-1.4,1.5c-0.4,0.5-0.7,1.2-0.5,1.6l0.2,0.4l-0.4,0.1c-0.1,0-0.2,0.1-0.2,0.1c0,0.1-0.1,0.1-0.1,0.2
			c0,0.1,0.1,0.4,0.3,0.6l1.6,1.8l-2-1.4c-0.1-0.1-0.3-0.2-0.4-0.2c-0.1-0.1-0.3-0.1-0.3-0.1c0-0.1,0,0.1,0,0.3
			c0,0.2,0.1,0.3,0.2,0.5c0.1,0.2,0.1,0.5,0,0.6c-0.1,0.2-0.2,0.3-0.4,0.5c-0.3,0.2-0.6,0.4-0.9,0.6c-0.6,0.4-1.3,0.7-1.7,1.2
			c-0.4,0.5-0.2,1.1,0.3,1.6l0.3,0.4l-0.5,0.2c-0.2,0.1-0.4,0.2-0.4,0.3c0,0,0,0,0,0.1c0,0.1,0.1,0.1,0.2,0.2l0.4,0.4l-0.5,0.3
			c-0.2,0.1-0.4,0.2-0.5,0.4c-0.1,0.1-0.2,0.3-0.2,0.4c0,0.2,0.3,0.5,0.6,0.8l0.8,0.5l-1,0.3c-0.3,0.1-0.7,0.3-0.8,0.5
			c0,0.1,0-0.1,0,0c0,0.1,0.2,0.2,0.3,0.2l0.5,0.3l-0.4,0.5c-0.4,0.5-0.8,1.1-1,1.7c-0.1,0.3-0.1,0.6-0.1,0.7c0,0.1,0.2,0.2,0.5,0.3
			l0.8,0.2l-0.6,0.6c-0.2,0.2-0.4,0.6-0.4,0.7c0,0-0.1,0,0,0c0.1,0,0.2,0.1,0.4,0.1l1,0l-0.7,0.7c-0.4,0.4-0.8,0.9-1,1.4
			c-0.1,0.2,0,0.4,0.2,0.5c0.2,0.1,0.5,0.2,0.8,0.2l0.2,0l0,0.2c0,0.3,0,0.6,0.1,0.8c0.1,0.3,0.4,0.4,0.7,0.4l0,0.1
			c-0.2,0-0.3,0-0.5,0c-0.2-0.1-0.3-0.2-0.4-0.3c-0.2-0.3-0.3-0.7-0.3-1l0.2,0.2c-0.3,0-0.7,0-1.1-0.1c-0.2-0.1-0.4-0.2-0.5-0.5
			c-0.1-0.2-0.1-0.5-0.1-0.7c0.1-0.4,0.2-0.7,0.4-1c0.2-0.3,0.4-0.6,0.6-0.8l0.3,0.7c-0.2,0-0.5,0-0.7-0.1c-0.1-0.1-0.3-0.1-0.4-0.3
			c-0.1-0.2-0.2-0.4-0.2-0.5c0-0.3,0.1-0.5,0.2-0.8c0.1-0.2,0.2-0.4,0.4-0.6l0.3,0.8c-0.4-0.1-1-0.3-1.2-0.9c-0.2-0.5-0.1-1,0-1.4
			c0.1-0.4,0.3-0.8,0.5-1.1c0.2-0.3,0.4-0.6,0.7-1l0.1,0.8c-0.2-0.1-0.4-0.3-0.6-0.6c-0.1-0.1-0.2-0.4-0.2-0.6
			c0-0.2,0.1-0.4,0.2-0.6c0.2-0.3,0.4-0.4,0.7-0.5c0.2-0.1,0.4-0.2,0.7-0.3l-0.1,0.8c-0.2-0.2-0.4-0.4-0.6-0.6
			c-0.2-0.3-0.4-0.6-0.3-1c0-0.4,0.3-0.7,0.5-0.9c0.2-0.2,0.5-0.4,0.7-0.5l-0.1,0.6c-0.1-0.1-0.2-0.2-0.3-0.4
			c-0.1-0.2-0.1-0.5,0-0.7c0.1-0.2,0.3-0.4,0.4-0.4c0.2-0.1,0.3-0.1,0.5-0.2L55,135c-0.2-0.3-0.4-0.7-0.5-1.1
			c-0.1-0.4,0.1-0.9,0.4-1.2c0.5-0.6,1.2-0.9,1.8-1.2c0.3-0.2,0.6-0.3,0.9-0.5c0.3-0.2,0.4-0.5,0.3-0.7c-0.1-0.1-0.2-0.3-0.2-0.5
			c0-0.1-0.1-0.2-0.1-0.3c0-0.1,0-0.3,0.2-0.4c0.3-0.1,0.5,0,0.7,0c0.2,0.1,0.4,0.1,0.5,0.2l-0.3,0.4c-0.2-0.2-0.5-0.5-0.6-0.9
			c0-0.2,0-0.5,0.2-0.7c0.1-0.2,0.3-0.3,0.5-0.4l-0.2,0.5c-0.3-0.4-0.3-1-0.2-1.4c0.1-0.4,0.3-0.8,0.5-1.1c0.5-0.7,1-1.2,1.6-1.7
			l-0.2,0.4c-0.1-0.6-0.1-1.3,0.2-1.9c0.3-0.6,0.7-1.1,1.2-1.4c0.5-0.3,1-0.6,1.6-0.7C64,120.4,64.6,120.3,65.2,120.3L65.2,120.3z"
			/>
	</g>
	<path d="M58.2,168c0,0,3.6,34.5,9.2,0H58.2z"/>
	<path d="M81.7,169c0,0,2.8,34.4,10.8-0.4L81.7,169z"/>
	<g>
		<path class="st8" d="M129.4,76c0,0,2.8-2.5,0.1-3.1c0,0,4.7-4.2-0.1-4.9c0,0,5.3-5.5-3.1-5.6c-8.4-0.1,1.5-20.4-39.9-26.3
			c-41.4-5.9-66.1,13.6-63,24.1c0,0-4.7,2.5-2.8,4.7c0,0-3.2,2.7-1,3.9c0,0-3.4,2.7,0.2,3.8c0,0-1.3,3.8,1.3,7.1
			c2.6,3.3-1.7,4.5,1.1,6.6c0,0-1.5,2.6,0.7,2.7c0,0-0.4,3.4,2,3c0,0-2,3.6,1.2,3.7c0,0,0.7,2.4,1.9,1.8c0,0-2.9,2.2-0.1,3
			c0,0-0.3,3.2,2.2,2c0,0-2.8,6.9,1.3,4.3c0,0,0.7,3.4,3.2,1.7c2.5-1.7-1.5,1.4,1.9,2.3c0,0,0.6,2.3,4.1,0.5c0,0-0.4,5.1,2.7,3
			c0,0,1.5,2.6,3,1.3c0,0,1.1,1.9,4.4,1.1c0,0,0.5,1.3,2.4,0.3c0,0,0,0.8,0.7,1l1.4,0c0.2,0,0.3-0.1,0.5-0.2
			c-0.1,0.1-0.2,0.1-0.3,0.2c0,0,3.5,1.5,9.1,2.6c-0.2,0.4-0.1,1,0.3,1.9c0,0-3.1-0.3-1.3,2.3c0,0-4.6,2.1-2.6,4.1
			c0,0-4,2.8-2.1,5.6c0,0-3.8,1.1-2,4.2c1.9,3.1-2.4,1.6-2.5,4.2c-0.1,2.5-1.2,2.2-0.5,5.2c0.7,3.1-3.6,2-1.9,4.2
			c0,0-2.8,2.6-0.4,4.6c0,0-2.2,3.1,0.2,3.2c0,0-1.1,0.9,0.1,1.2c0,0-2.6,4.9,1.6,4.2c0,0-0.8,2.2,0.9,1.7c1.6-0.4-1.4,6.2,3.6,3.8
			c0,0-3.1,1.9,0.6,2.3c0,0,0.1,3.3,4.8,0c0,0,0.1,4.2,3.7,0.7c0,0,2.5,3.1,3.9,0.2c0,0,2.6,4.1,5,1.2c0,0,3.3,1.2,3.6-1.5
			c0,0,0.2,2.4,2.3,0.9c0,0,1.6,2.6,3.4,0.3c0,0,2.7,2,2.6-1c0,0,5,1.7,6-1.4c1-3.2,3.1,0.3,2.4-4.3s2.1-2.2,0.1-4.6
			c0,0,3.1-2.7,0.7-3.7c0,0,1.9-4.8-0.5-4.9c0,0-0.4-5.9-3.9-5.9c0,0,3.2-4-0.2-7.1c0,0,1.9-4.7-1.3-5.2c-3.2-0.5,2.4-3.4-0.8-6.2
			c0,0,2.3-1.2,0.4-2.1c0,0,1.7-2.2-0.3-2.5c0,0,0.4-2.5-1.3-2.2c0,0,0.5-2-2.1-2c0,0,0.2-0.3,0.4-0.8c4.2-0.8,8.6-2.1,12.9-4.2
			c0,0-0.5-0.3-0.9-0.4c1.4,0.1,3.6,0,4.7-1.8c0,0,4.3,3.5,9.1-4.4c0,0,3.3,1.3,2-1.2c0,0,4.3-0.3,3.1-3.5c0,0,6.7-2,4.5-7.6
			c0,0,4-2.2,1.8-4c0,0,4.2-0.6,2.6-5.2c-1.6-4.6,4.3-2.2,2.5-8.3C130.2,80.5,132.9,76.1,129.4,76z"/>
		<g>
			<path d="M129.3,76c0.5-0.5,1-1,1.2-1.7c0.1-0.3,0.1-0.7-0.2-0.9c-0.2-0.2-0.6-0.3-0.9-0.4l-0.1,0l0.1-0.1
				c0.4-0.4,0.8-0.8,1.1-1.3c0.3-0.5,0.6-0.9,0.8-1.5c0.2-0.5,0-1.1-0.4-1.4c-0.4-0.3-1-0.5-1.6-0.5l-0.2,0l0.2-0.2
				c0.5-0.5,0.9-1.1,1.2-1.7c0.3-0.6,0.5-1.3,0.4-1.9c-0.2-0.6-0.8-1-1.4-1.3c-0.6-0.2-1.3-0.3-2-0.4c-0.7-0.1-1.4,0-2.1-0.2
				c-0.7-0.2-1.4-0.6-1.9-1.1c-1-1.1-1.4-2.5-2-3.8c-1-2.6-2.2-5.2-3.9-7.4c-1.7-2.2-3.8-4.1-6.1-5.6c-4.7-3.1-10-5-15.4-6.3
				c-5.4-1.3-11-2.1-16.6-2.6c-11.2-0.9-22.5,0.1-33.2,3.4c-5.3,1.7-10.4,4.1-14.9,7.4c-2.2,1.7-4.3,3.6-5.8,5.9
				c-0.8,1.1-1.4,2.4-1.8,3.7c-0.4,1.3-0.5,2.7-0.1,4l0.1,0.3l-0.2,0.1c-0.9,0.5-1.7,1.1-2.4,1.8c-0.3,0.4-0.6,0.8-0.7,1.2
				c-0.1,0.4,0.1,0.8,0.4,1.2l0.2,0.2l-0.2,0.2c-0.6,0.5-1.1,1.1-1.4,1.7c-0.2,0.3-0.3,0.7-0.2,1c0,0.3,0.3,0.5,0.6,0.7l0.4,0.2
				l-0.3,0.3c-0.6,0.5-1.2,1.2-1.3,1.9c-0.1,0.3,0.1,0.7,0.4,0.9c0.3,0.2,0.7,0.4,1.1,0.5l0.3,0.1L20,72.6c-0.3,1.1-0.4,2.4-0.2,3.5
				c0.2,1.2,0.7,2.3,1.4,3.2c0.4,0.5,0.8,1.1,0.9,1.7c0.2,0.7,0,1.4-0.2,2c-0.2,0.6-0.5,1.1-0.5,1.7c0,0.5,0.4,1,0.9,1.3l0.2,0.1
				l-0.1,0.2c-0.3,0.5-0.5,1.1-0.5,1.6c0,0.3,0.1,0.5,0.3,0.6c0.2,0.1,0.4,0.2,0.7,0.2l0.2,0l0,0.2c-0.1,0.7,0,1.4,0.3,2
				c0.1,0.3,0.3,0.5,0.6,0.7c0.3,0.1,0.6,0.2,0.9,0.1l0.4-0.1L25,92.1c-0.4,0.7-0.7,1.5-0.6,2.3c0,0.4,0.2,0.7,0.5,0.9
				c0.3,0.2,0.7,0.3,1.1,0.3l0.1,0l0,0.1c0.1,0.4,0.4,0.9,0.6,1.3c0.1,0.2,0.3,0.3,0.5,0.4c0.2,0.1,0.4,0.1,0.6,0l1.3-0.6l-1.1,0.9
				c-0.5,0.4-1,0.9-1.2,1.5c-0.1,0.3,0,0.6,0.2,0.8c0.2,0.2,0.5,0.3,0.9,0.4l0.1,0l0,0.1c0,0.6,0,1.3,0.4,1.8
				c0.4,0.5,1.1,0.4,1.6,0.1l0.4-0.2l-0.1,0.4c-0.4,1.1-0.8,2.2-0.9,3.3c0,0.5,0,1.2,0.5,1.3c0.5,0,1-0.3,1.5-0.6l0.2-0.1l0.1,0.2
				c0.2,0.7,0.5,1.4,1.1,1.8c0.6,0.4,1.4,0.1,2-0.3l0.5-0.3c0.1-0.1,0.2-0.1,0.3-0.1c0,0,0.1,0,0.2,0c0.1,0.1,0.1,0.2,0.1,0.2
				c0,0.1,0,0.1-0.1,0.2c-0.2,0.4-0.3,0.7-0.3,1c-0.1,0.7,0.6,1.2,1.3,1.3l0.1,0l0,0.1c0.1,0.3,0.3,0.6,0.6,0.8
				c0.3,0.2,0.7,0.3,1,0.2c0.8,0,1.5-0.3,2.2-0.7l0.3-0.1l0,0.3c0,0.9,0,1.9,0.3,2.7c0.2,0.4,0.5,0.7,0.9,0.7c0.4,0,0.8-0.2,1.2-0.5
				l0.2-0.1l0.1,0.2c0.3,0.5,0.7,1,1.2,1.3c0.2,0.2,0.5,0.3,0.8,0.2c0.3,0,0.5-0.1,0.7-0.3l0.2-0.2l0.1,0.2c0.2,0.3,0.5,0.6,0.8,0.7
				c0.3,0.2,0.7,0.3,1.1,0.4c0.8,0.1,1.6,0,2.3-0.2l0.2,0l0.1,0.2c0.1,0.1,0.2,0.3,0.4,0.4c0.2,0.1,0.3,0.2,0.5,0.2
				c0.4,0,0.8-0.1,1.2-0.4l0.3-0.2l0,0.4c0,0.2,0.1,0.4,0.2,0.5c0.1,0.1,0.2,0.3,0.4,0.3l-0.1,0l1.4,0l-0.1,0c0.2,0,0.3-0.1,0.5-0.2
				L56,118l-0.3,0.2l0-0.4c1.5,0.6,3,1,4.5,1.5c1.5,0.4,3.1,0.8,4.6,1.1l0.3,0.1l-0.1,0.3c-0.2,0.5,0,1.1,0.3,1.6l0.2,0.4l-0.5,0
				c-0.5,0-1.3,0.1-1.5,0.4c-0.2,0.4,0.1,1,0.4,1.5l0.2,0.3l-0.3,0.1c-0.8,0.4-1.7,0.9-2.3,1.5c-0.3,0.3-0.6,0.7-0.6,1.1
				c-0.1,0.4,0.1,0.7,0.4,1l0.2,0.2l-0.3,0.2c-0.8,0.6-1.6,1.4-2.1,2.3c-0.2,0.5-0.4,1-0.4,1.4c0,0.5,0.2,1,0.5,1.4l0.3,0.4
				l-0.4,0.1c-0.8,0.3-1.6,0.7-2,1.4c-0.4,0.7-0.2,1.5,0.3,2.3c0.2,0.4,0.5,0.9,0.5,1.5c0,0.3-0.2,0.7-0.4,0.8
				c-0.2,0.2-0.5,0.3-0.7,0.4c-0.9,0.3-1.7,0.6-1.8,1.4c0,0.3-0.1,0.9-0.2,1.4c-0.1,0.5-0.3,0.9-0.4,1.4c-0.3,0.8-0.2,1.6,0,2.5
				c0.1,0.4,0.2,1,0,1.6c-0.2,0.6-0.7,0.9-1.1,1.2c-0.4,0.2-0.9,0.4-1.1,0.6c0,0.1-0.1,0.1,0,0.3c0.1,0.1,0.2,0.3,0.3,0.5l0.2,0.3
				l-0.3,0.3c-0.6,0.6-1.1,1.3-1.2,2c-0.2,0.7,0.2,1.4,0.8,1.9l0.3,0.2l-0.2,0.3c-0.3,0.5-0.7,1.1-0.8,1.7c-0.1,0.3,0,0.5,0.1,0.6
				c0.1,0.1,0.3,0.2,0.6,0.2l1.2,0l-1,0.7c-0.1,0.1-0.3,0.4-0.3,0.4c0,0,0-0.1,0,0c0,0,0.1,0.1,0.2,0.1l0.5,0.1l-0.3,0.5
				c-0.2,0.4-0.4,0.9-0.5,1.4c-0.1,0.5-0.2,0.9-0.2,1.4c0,0.4,0.2,0.7,0.6,0.8c0.4,0.1,0.9,0.1,1.3,0l0.7-0.1l-0.2,0.7
				c-0.1,0.3-0.2,0.7-0.1,1c0,0.1,0.1,0.2,0.1,0.2c0,0,0.1,0,0.3,0c0.1,0,0.2-0.1,0.4-0.1c0.2,0,0.5,0.2,0.6,0.4
				c0.2,0.3,0.2,0.6,0.2,0.8c0,0.5,0,0.9,0,1.3c0,0.8,0.1,1.7,0.5,1.8c0.4,0.2,1.3-0.1,2-0.4l0.4,0.8c-0.3,0.2-0.5,0.4-0.7,0.6
				c-0.2,0.2-0.3,0.5-0.3,0.4c0,0,0.2,0.2,0.5,0.3c0.3,0.1,0.6,0.1,0.9,0.2l0.4,0l0,0.4c0,0.3,0.2,0.7,0.5,0.9
				c0.3,0.2,0.7,0.2,1.1,0.1c0.9-0.2,1.7-0.7,2.5-1.3l0.7-0.5l0,0.8c0,0.4,0.1,0.8,0.3,1.1c0.2,0.3,0.4,0.5,0.6,0.5
				c0.3,0,0.7-0.2,1-0.4c0.3-0.2,0.7-0.5,1-0.8l0.4-0.3l0.3,0.4c0.5,0.5,1.1,1.1,1.7,1.2c0.3,0.1,0.6,0,0.8-0.1
				c0.2-0.2,0.4-0.5,0.6-0.8l0.4-0.7l0.5,0.7c0.5,0.8,1.3,1.5,2.1,1.9c0.4,0.2,0.8,0.2,1.2,0.1c0.4-0.1,0.7-0.4,1-0.8l0.2-0.2
				l0.3,0.1c0.6,0.2,1.4,0.3,2,0.2c0.6-0.2,0.9-0.6,1-1.3l0.5-4l0.5,4c0,0.2,0.1,0.4,0.2,0.6c0.1,0.2,0.2,0.3,0.3,0.3
				c0.2,0.1,0.7-0.1,1.1-0.4l0.4-0.3l0.3,0.4c0.2,0.2,0.4,0.5,0.6,0.7c0.2,0.2,0.5,0.3,0.7,0.4c0.5,0.1,0.9-0.2,1.3-0.7l0.3-0.4
				l0.4,0.3c0.5,0.3,1.1,0.6,1.5,0.5c0.2,0,0.2-0.1,0.3-0.3c0.1-0.2,0.1-0.5,0.1-0.8l0-0.7l0.7,0.2c1.3,0.4,2.8,0.6,4,0.3
				c0.6-0.2,1.1-0.6,1.3-1.2c0.2-0.6,0.5-1.7,1.5-2c0.5-0.1,0.9-0.1,0.9-0.2c0,0,0.1-0.3,0.1-0.7c0-0.7-0.1-1.4-0.2-2.2
				c0-0.4,0-0.8,0-1.2c0.1-0.4,0.1-0.9,0.5-1.3c0.1-0.2,0.4-0.4,0.5-0.5c0.1-0.1,0,0,0,0.1c0,0.1,0,0,0,0c-0.1-0.2-0.4-0.5-0.6-0.8
				l-0.3-0.4l0.3-0.3c0.5-0.5,1-1.1,1.3-1.7c0.1-0.3,0.2-0.6,0.1-0.8c-0.1-0.2-0.3-0.3-0.6-0.5l-0.4-0.2l0.2-0.4
				c0.3-0.8,0.6-1.7,0.6-2.6c0-0.4,0-0.9-0.1-1.2c-0.1-0.3-0.3-0.4-0.6-0.5l-0.4,0l0-0.4c-0.1-1.2-0.4-2.5-0.9-3.5
				c-0.3-0.5-0.6-1-1-1.4c-0.4-0.4-0.9-0.5-1.5-0.5l-1,0l0.6-0.8c0.3-0.5,0.6-1,0.9-1.6c0.2-0.6,0.4-1.2,0.4-1.7
				c0.1-1.2-0.5-2.3-1.4-3.1l-0.2-0.2l0.1-0.3c0.4-1,0.6-2.1,0.5-3.1c-0.1-0.5-0.3-0.9-0.6-1.2c-0.2-0.1-0.4-0.2-0.6-0.3
				c-0.2-0.1-0.6-0.1-0.9-0.2c-0.2-0.1-0.4-0.2-0.5-0.4c-0.2-0.2-0.2-0.5-0.2-0.7c0.1-0.4,0.2-0.7,0.3-1c0.3-0.5,0.6-1,0.7-1.5
				c0.2-0.5,0.2-1,0.1-1.4c-0.1-0.4-0.4-0.8-0.8-1.2l-0.5-0.4l0.6-0.3c0.4-0.2,0.8-0.5,0.9-0.8c0-0.1,0-0.1,0-0.2
				c-0.1-0.1-0.2-0.2-0.4-0.3l-0.5-0.2l0.4-0.5c0.3-0.4,0.6-0.9,0.6-1.2c0-0.2,0-0.3-0.1-0.4c-0.1-0.1-0.3-0.2-0.5-0.2l-0.4-0.1
				l0.1-0.4c0.1-0.4,0.1-0.9-0.1-1.3c-0.1-0.3-0.3-0.4-0.7-0.4l-0.6,0.1l0.1-0.6c0-0.2,0-0.4,0-0.6c-0.1-0.2-0.2-0.4-0.3-0.5
				c-0.3-0.3-0.8-0.4-1.4-0.4h-0.7l0.3-0.6c0.1-0.2,0.2-0.5,0.3-0.7l0.1-0.2l0.2,0c4.4-0.8,8.8-2.2,12.8-4.2l0,0.6
				c-0.3-0.1-0.6-0.3-0.8-0.3l0.1-0.7c0.8,0.1,1.7,0,2.5-0.2c0.8-0.2,1.5-0.7,1.9-1.4l0.2-0.3l0.3,0.2c0.7,0.5,1.6,0.7,2.4,0.7
				c0.9,0,1.7-0.4,2.5-0.9c1.5-1,2.7-2.5,3.7-4.1l0.1-0.2l0.2,0.1c0.5,0.2,1.1,0.4,1.6,0.3c0.2-0.1,0.3-0.1,0.3-0.3
				c0-0.2-0.1-0.5-0.2-0.7l-0.2-0.4l0.4,0c0.9-0.1,1.8-0.3,2.4-0.9c0.3-0.3,0.5-0.6,0.6-1c0.1-0.4,0-0.8-0.2-1.2l-0.1-0.3l0.3-0.1
				c1.5-0.5,3-1.4,4-2.7c0.5-0.6,0.8-1.4,0.8-2.2c0.1-0.8-0.1-1.6-0.4-2.4l-0.1-0.2l0.2-0.1c0.7-0.4,1.5-1,2-1.6
				c0.3-0.3,0.4-0.7,0.4-1.1c0-0.4-0.3-0.7-0.6-1l-0.3-0.3l0.4-0.1c1.3-0.2,2.5-1.1,2.7-2.4c0.1-0.6,0.1-1.3-0.1-2
				c-0.2-0.6-0.5-1.3-0.5-2c0-0.4,0.1-0.7,0.3-1.1c0.2-0.3,0.5-0.6,0.7-0.8c0.6-0.4,1.2-0.7,1.6-1.2c0.4-0.5,0.6-1.2,0.6-1.8
				c0-0.7-0.1-1.3-0.3-2l0,0l0,0c0.5-0.8,0.9-1.7,1-2.7c0-0.5-0.1-1-0.4-1.3C130.3,76.2,129.8,76.1,129.3,76L129.3,76L129.3,76z
				 M129.5,76c0.5,0,0.9,0.1,1.3,0.4c0.4,0.3,0.5,0.9,0.5,1.4c-0.1,1-0.5,1.9-1,2.8l0-0.1c0.2,0.7,0.3,1.3,0.4,2
				c0,0.7-0.2,1.4-0.6,2c-0.5,0.6-1.1,0.9-1.6,1.3c-0.5,0.4-0.9,1-0.9,1.6c0,0.7,0.3,1.3,0.5,1.9c0.2,0.7,0.3,1.4,0.1,2.1
				c-0.1,0.7-0.5,1.4-1.1,1.8c-0.6,0.5-1.2,0.8-1.9,0.9l0.1-0.3c0.4,0.3,0.7,0.7,0.7,1.3c0,0.5-0.2,1-0.5,1.4
				c-0.6,0.8-1.3,1.3-2.1,1.8l0.1-0.3c0.3,0.8,0.5,1.7,0.4,2.6c-0.1,0.9-0.4,1.7-0.9,2.5c-0.5,0.7-1.2,1.3-1.9,1.8
				c-0.7,0.5-1.5,0.8-2.3,1.1l0.2-0.4c0.2,0.5,0.3,1,0.2,1.5c-0.1,0.5-0.4,1-0.8,1.3c-0.4,0.3-0.8,0.5-1.3,0.7
				c-0.5,0.2-0.9,0.3-1.4,0.3l0.2-0.4c0.1,0.3,0.3,0.6,0.3,1c0,0.2,0,0.4-0.2,0.6c-0.2,0.2-0.4,0.3-0.6,0.3c-0.4,0.1-0.7,0-1-0.1
				c-0.3-0.1-0.6-0.2-0.9-0.3l0.4-0.1c-1,1.6-2.2,3.2-3.8,4.3c-0.8,0.5-1.8,0.9-2.8,1c-1,0.1-2-0.2-2.9-0.8l0.5-0.1
				c-0.5,0.8-1.4,1.4-2.3,1.7c-0.9,0.3-1.8,0.3-2.8,0.3l0.1-0.7c0.4,0.1,0.6,0.2,1,0.4l0.6,0.3l-0.7,0.3c-4.1,2-8.5,3.5-13,4.3
				l0.3-0.2c-0.1,0.3-0.2,0.5-0.4,0.8l-0.4-0.6c0.6,0,1.3,0.1,1.9,0.5c0.3,0.2,0.5,0.6,0.6,0.9c0.1,0.4,0.1,0.7,0,1.1l-0.5-0.5
				c0.3,0,0.7-0.1,1,0.1c0.4,0.2,0.6,0.5,0.7,0.8c0.1,0.3,0.2,0.6,0.2,0.9c0,0.3,0,0.6,0,0.9l-0.4-0.5c0.3,0.1,0.7,0.1,1,0.4
				c0.3,0.3,0.5,0.8,0.4,1.1c0,0.4-0.2,0.7-0.3,0.9c-0.1,0.3-0.3,0.5-0.5,0.8l-0.2-0.7c0.3,0.1,0.5,0.3,0.8,0.6
				c0.3,0.3,0.3,0.9,0.1,1.2c-0.2,0.3-0.4,0.5-0.6,0.7c-0.2,0.2-0.4,0.3-0.7,0.5l0.1-0.8c0.5,0.4,0.9,1,1.1,1.6
				c0.2,0.7,0.1,1.4-0.1,2c-0.2,0.6-0.5,1.1-0.8,1.6c-0.1,0.2-0.2,0.5-0.2,0.6c0,0.1,0,0.1,0,0.1c0,0,0.1,0.1,0.1,0.1
				c0.2,0.1,0.4,0.1,0.8,0.2c0.3,0.1,0.7,0.2,0.9,0.5c0.6,0.4,0.9,1.2,1,1.8c0.2,1.3-0.1,2.5-0.5,3.6l-0.1-0.6
				c0.5,0.5,1,1.1,1.3,1.7c0.3,0.7,0.5,1.4,0.4,2.1c0,0.7-0.2,1.4-0.4,2.1c-0.3,0.7-0.6,1.3-1,1.8l-0.4-0.8c0.7,0,1.5,0.3,2.1,0.8
				c0.6,0.5,1,1.1,1.3,1.7c0.3,0.6,0.5,1.3,0.7,1.9c0.2,0.7,0.3,1.3,0.3,2l-0.5-0.5c0.3,0,0.6,0.1,0.9,0.3c0.3,0.2,0.5,0.5,0.6,0.8
				c0.2,0.6,0.2,1.1,0.2,1.6c-0.1,1-0.4,1.9-0.7,2.9l-0.3-0.6c0.4,0.2,0.9,0.5,1.1,1c0.2,0.6,0,1.1-0.1,1.5c-0.4,0.8-0.9,1.4-1.6,2
				l0.1-0.7c0.2,0.3,0.5,0.6,0.7,1c0.1,0.1,0.1,0.2,0.1,0.5c0,0.1-0.1,0.3-0.2,0.4c-0.1,0.1-0.1,0.1-0.2,0.2
				c-0.2,0.1-0.3,0.2-0.3,0.3c-0.3,0.4-0.3,1.1-0.3,1.8c0.1,0.7,0.2,1.4,0.2,2.2c0,0.2,0,0.4-0.1,0.6c0,0.2-0.1,0.5-0.4,0.8
				c-0.3,0.2-0.6,0.2-0.8,0.3c-0.2,0-0.3,0-0.5,0.1c-0.5,0.1-0.7,0.7-0.9,1.4c-0.3,0.8-1.1,1.5-1.9,1.7c-0.8,0.3-1.6,0.3-2.4,0.2
				c-0.8-0.1-1.5-0.2-2.3-0.5l0.6-0.5c0,0.4,0,0.7-0.1,1.1c-0.1,0.4-0.5,0.9-1.1,0.9c-0.5,0.1-0.9-0.1-1.2-0.2
				c-0.4-0.1-0.7-0.3-1-0.5l0.7-0.1c-0.2,0.3-0.5,0.6-0.9,0.8c-0.4,0.2-0.9,0.4-1.3,0.3c-0.5-0.1-0.8-0.3-1.1-0.6
				c-0.3-0.3-0.6-0.5-0.8-0.9l0.7,0.1c-0.2,0.2-0.5,0.3-0.8,0.5c-0.3,0.1-0.7,0.2-1.1,0.1c-0.4-0.1-0.7-0.5-0.8-0.8
				c-0.2-0.3-0.2-0.6-0.3-0.9l0.9,0c-0.1,0.4-0.2,0.9-0.5,1.3c-0.3,0.4-0.7,0.7-1.2,0.8c-0.5,0.1-0.9,0.1-1.3,0.1
				c-0.4,0-0.8-0.1-1.2-0.3l0.5-0.1c-0.4,0.4-0.8,0.8-1.4,1c-0.6,0.2-1.3,0.1-1.8-0.1c-0.6-0.2-1-0.6-1.4-1
				c-0.4-0.4-0.8-0.8-1.1-1.3l0.8,0c-0.2,0.4-0.5,0.8-0.9,1.1c-0.4,0.3-1.1,0.4-1.5,0.3c-0.5-0.1-0.9-0.4-1.3-0.6
				c-0.4-0.3-0.7-0.6-1-0.9l0.7,0c-0.3,0.3-0.7,0.7-1.1,0.9c-0.4,0.3-0.9,0.6-1.5,0.6c-0.3,0-0.7-0.1-0.9-0.3
				c-0.3-0.2-0.4-0.5-0.6-0.7c-0.2-0.5-0.3-1-0.4-1.5l0.7,0.4c-0.9,0.6-1.7,1.1-2.8,1.4c-0.5,0.1-1.2,0.2-1.8-0.2
				c-0.6-0.4-0.9-1-0.9-1.6l0.4,0.4c-0.4,0-0.7-0.1-1.1-0.2c-0.2-0.1-0.4-0.1-0.6-0.2c-0.2-0.1-0.4-0.3-0.5-0.6
				c-0.1-0.3,0-0.7,0.1-0.9c0.1-0.2,0.3-0.4,0.4-0.5c0.3-0.3,0.6-0.5,0.9-0.7l0.4,0.8c-0.4,0.2-0.8,0.4-1.2,0.5
				c-0.4,0.1-1,0.2-1.5-0.1c-0.6-0.3-0.8-0.9-0.9-1.3c-0.1-0.5-0.1-0.9-0.1-1.3c0-0.4,0-0.8,0-1.2c0-0.2,0-0.4-0.1-0.4
				c0,0,0.1,0.1,0.1,0.1c0.1,0,0,0-0.2,0c-0.2,0-0.6,0.1-0.9-0.1c-0.4-0.2-0.5-0.6-0.5-0.8c-0.1-0.6,0-1,0.2-1.4l0.5,0.6
				c-0.5,0.1-1.1,0.2-1.8,0c-0.3-0.1-0.6-0.3-0.8-0.6c-0.2-0.3-0.3-0.6-0.3-0.9c-0.1-0.6,0.1-1.2,0.2-1.7c0.2-0.5,0.4-1,0.6-1.5
				l0.3,0.6c-0.2,0-0.3-0.1-0.5-0.2c-0.2-0.1-0.4-0.4-0.4-0.7c0-0.3,0.1-0.5,0.3-0.6c0.1-0.1,0.2-0.3,0.4-0.4l0.3,0.8
				c-0.4,0-0.9-0.1-1.2-0.5c-0.4-0.4-0.3-1-0.2-1.3c0.2-0.8,0.5-1.4,1-2l0.1,0.6c-0.4-0.3-0.7-0.7-0.9-1.2c-0.2-0.5-0.2-1-0.1-1.5
				c0.1-0.5,0.3-0.9,0.6-1.3c0.3-0.4,0.5-0.8,0.9-1.1l0,0.5c-0.2-0.2-0.3-0.4-0.4-0.7c-0.1-0.1-0.1-0.3-0.1-0.5
				c0-0.2,0.1-0.4,0.2-0.5c0.5-0.5,0.9-0.6,1.3-0.8c0.4-0.2,0.6-0.5,0.8-0.8c0.1-0.3,0.1-0.7,0-1.1c-0.2-0.9-0.3-1.9,0-2.9
				c0.2-0.5,0.3-0.8,0.4-1.3c0.1-0.4,0.1-0.8,0.2-1.4c0.1-0.6,0.5-1.1,1-1.3c0.4-0.3,0.9-0.4,1.3-0.6c0.4-0.2,0.7-0.4,0.7-0.6
				c0-0.1,0-0.3-0.1-0.5c-0.1-0.2-0.2-0.4-0.3-0.6c-0.2-0.4-0.5-0.9-0.5-1.4c-0.1-0.5,0-1.1,0.3-1.5c0.6-0.9,1.5-1.4,2.4-1.7
				l-0.2,0.5c-0.4-0.5-0.6-1.1-0.6-1.7c0-0.6,0.2-1.2,0.5-1.7c0.3-0.5,0.6-1,1-1.4c0.4-0.4,0.8-0.8,1.3-1.1l0,0.5
				c-0.4-0.4-0.7-1-0.5-1.6c0.1-0.6,0.4-1,0.8-1.4c0.7-0.7,1.6-1.2,2.5-1.6l-0.1,0.4c-0.2-0.3-0.4-0.6-0.5-0.9
				c-0.1-0.3-0.2-0.8,0-1.2c0.2-0.4,0.6-0.5,1-0.6c0.4-0.1,0.7-0.1,1-0.1l-0.3,0.4c-0.2-0.3-0.3-0.6-0.4-1c-0.1-0.3-0.1-0.7,0.1-1.1
				l0.2,0.4c-1.6-0.3-3.1-0.7-4.6-1.1c-1.5-0.4-3-0.9-4.5-1.5L55,118l0.4-0.2l0.3-0.2l0.2,0.4c-0.2,0.1-0.4,0.1-0.6,0.2l0,0l0,0
				l-1.4,0l0,0l0,0c-0.2-0.1-0.5-0.3-0.6-0.5c-0.2-0.2-0.2-0.5-0.3-0.8l0.3,0.2c-0.4,0.2-0.9,0.4-1.4,0.4c-0.3,0-0.5-0.1-0.8-0.2
				c-0.2-0.2-0.4-0.3-0.5-0.6l0.3,0.1c-0.8,0.2-1.7,0.3-2.5,0.1c-0.4-0.1-0.8-0.2-1.2-0.4c-0.4-0.2-0.7-0.5-1-0.9l0.3,0.1
				c-0.3,0.2-0.6,0.4-1,0.4c-0.4,0-0.7-0.1-1-0.3c-0.6-0.4-1-0.9-1.3-1.5l0.3,0.1c-0.4,0.3-0.9,0.5-1.4,0.5c-0.6,0-1.1-0.5-1.2-0.9
				c-0.4-0.9-0.4-1.9-0.4-2.9l0.3,0.2c-0.7,0.4-1.5,0.7-2.3,0.7c-0.4,0-0.9-0.1-1.2-0.3c-0.4-0.2-0.7-0.6-0.8-1l0.1,0.1
				c-0.4-0.1-0.8-0.3-1.1-0.5c-0.3-0.3-0.5-0.7-0.5-1.2c0-0.4,0.2-0.8,0.4-1.1c0,0,0-0.1,0-0.1c0,0,0,0,0.1,0.1c0.1,0,0.1,0,0.1,0
				c-0.1,0-0.1,0.1-0.2,0.1l-0.5,0.3c-0.3,0.2-0.7,0.4-1.1,0.5c-0.4,0.1-0.9,0-1.2-0.2c-0.7-0.5-1-1.3-1.2-2l0.2,0.1
				c-0.5,0.3-1,0.7-1.7,0.6c-0.4,0-0.6-0.4-0.7-0.7c-0.1-0.3-0.1-0.6,0-0.9c0.1-1.2,0.5-2.3,0.9-3.4l0.2,0.2c-0.3,0.1-0.6,0.3-1,0.3
				c-0.4,0-0.8-0.1-1-0.4c-0.2-0.3-0.3-0.6-0.4-1c-0.1-0.3-0.1-0.7-0.1-1l0.1,0.2c-0.3-0.1-0.7-0.2-1-0.5c-0.3-0.2-0.4-0.7-0.3-1.1
				c0.1-0.4,0.3-0.7,0.6-0.9c0.2-0.3,0.5-0.5,0.8-0.7l0.2,0.3c-0.3,0.1-0.6,0.2-0.9,0c-0.3-0.1-0.5-0.3-0.6-0.5
				c-0.3-0.4-0.5-0.9-0.7-1.4l0.2,0.1c-0.4,0-0.9-0.1-1.3-0.3c-0.4-0.2-0.7-0.7-0.7-1.2c-0.1-0.9,0.3-1.7,0.6-2.5l0.2,0.3
				c-0.4,0.1-0.8,0-1.2-0.1c-0.4-0.2-0.6-0.5-0.8-0.9c-0.3-0.7-0.4-1.5-0.3-2.2l0.2,0.2c-0.3,0-0.7-0.1-1-0.3
				c-0.3-0.2-0.4-0.6-0.5-0.9c0-0.7,0.2-1.3,0.5-1.8l0.1,0.3c-0.5-0.4-1-0.9-1-1.7c0-0.7,0.4-1.3,0.5-1.9c0.2-0.6,0.3-1.1,0.2-1.7
				c-0.1-0.6-0.4-1-0.8-1.5c-0.8-1-1.3-2.2-1.5-3.5c-0.2-1.3-0.1-2.6,0.2-3.8l0.2,0.4c-0.4-0.1-0.9-0.3-1.3-0.6
				c-0.4-0.3-0.7-0.9-0.6-1.4c0.1-0.5,0.3-0.9,0.6-1.3c0.3-0.4,0.6-0.7,0.9-1l0,0.5c-0.4-0.2-0.8-0.6-0.9-1.1
				c-0.1-0.5,0.1-1,0.3-1.3c0.4-0.8,1-1.4,1.6-1.9l0,0.4c-0.4-0.4-0.6-1.1-0.5-1.7c0.1-0.6,0.5-1.1,0.8-1.5c0.7-0.8,1.6-1.5,2.6-2
				L23,60.2c-0.4-1.4-0.3-3,0.1-4.3c0.4-1.4,1.1-2.7,1.9-3.9c1.6-2.4,3.7-4.4,5.9-6.1c4.5-3.4,9.7-5.9,15.1-7.7
				c10.8-3.6,22.3-4.3,33.5-3.4c5.6,0.5,11.2,1.3,16.7,2.7c5.5,1.4,10.9,3.3,15.6,6.5c2.3,1.6,4.5,3.5,6.2,5.8
				c1.7,2.3,2.9,4.9,3.9,7.5c0.5,1.3,1,2.6,1.9,3.7c0.4,0.5,1,0.9,1.6,1c0.6,0.2,1.4,0.1,2.1,0.2c0.7,0.1,1.4,0.2,2.1,0.4
				c0.7,0.3,1.4,0.7,1.6,1.5c0.2,0.8-0.1,1.5-0.4,2.1c-0.3,0.6-0.8,1.2-1.3,1.7l-0.1-0.2c0.6,0.1,1.2,0.2,1.7,0.6
				c0.2,0.2,0.4,0.4,0.5,0.8c0.1,0.3,0.1,0.6,0,0.9c-0.2,0.6-0.5,1.1-0.8,1.5c-0.4,0.5-0.8,0.9-1.2,1.3l0-0.1c0.3,0.1,0.7,0.2,1,0.5
				c0.3,0.3,0.3,0.7,0.2,1.1C130.4,75,130,75.5,129.5,76z"/>
		</g>
	</g>
	<path class="st9" d="M79.7,144.8c0.7,3.9,0,7.2,1.3,11.1c2,9.2,7.9,0.7,12.5-2c0.7,2-2,4.6,2,5.2c-0.7,0-2-0.7-2.6,0.7
		c0,1.3-0.7,3.3,2,2.6c-0.7,0.7-2.6,0-2.6,2c0.8,0,0.6,0.8,0.7,1.2c0.2,0,0.5,0.1,0.6,0.1c-0.5,0.2-0.6,0.1-0.6-0.1
		c-0.7-0.1-1.5-0.2-2,0.7c0,1.3-0.7,2.6,0.7,3.3c-2.6,0-2.6,1.3-5.2,0.7c0,0.4-0.4,0.7-0.6,1.1c0.2,0.1,0.5,0.2,0.6,0.2
		c0,0,0,1.3-0.7,0.7c-0.3-0.3-0.2-0.6,0-0.9c-0.7-0.3-1.5-0.9-2-0.4c-0.7,1.3-0.7,2.6-2.6,2c0,0.7-0.2,1.3-0.4,2
		c0.3,0.1,0.8,0.1,1.5-0.4c0,0,1.6,2.6,3.4,0.3c0,0,2.7,2,2.6-1c0,0,5,1.7,6-1.4c1-3.2,3.1,0.3,2.4-4.3s2.1-2.2,0.1-4.6
		c0,0,3.1-2.7,0.7-3.7c0,0,1.9-4.8-0.5-4.9c0,0-0.4-5.9-3.9-5.9c0,0,3.2-4-0.2-7.1c0,0,1.9-4.7-1.3-5.2c-3.2-0.5,2.4-3.4-0.8-6.2
		c0,0,2.3-1.2,0.4-2.1c0,0,1.5-1.8,0.1-2.4C84.2,131.2,79.1,136.4,79.7,144.8z"/>
	<g>
		<path class="st8" d="M71.8,174.6c-0.1-0.1-0.1-0.1-0.2-0.2C71.6,174.5,71.7,174.6,71.8,174.6z"/>
		<g>
			<path d="M71.8,174.6L71.8,174.6c-0.2,0.1-0.3,0.2-0.3,0.2c-0.1,0-0.1,0-0.1,0c0-0.1,0.1-0.2,0.2-0.2c0,0,0,0-0.1,0l0.4-0.4
				c0.2-0.1,0.2-0.1,0.3-0.1C72.1,174.3,72,174.4,71.8,174.6L71.8,174.6z M71.8,174.6L71.8,174.6c-0.3,0.2-0.4,0.2-0.5,0.2
				c0,0,0-0.1,0.1-0.3l0.4-0.4c-0.1,0.1-0.1,0.1,0,0.1c0,0,0.2-0.1,0.2-0.1c0.1,0,0,0,0,0.1C72,174.4,71.9,174.5,71.8,174.6
				L71.8,174.6z"/>
		</g>
	</g>
	<path class="st9" d="M61.4,169c-0.4,0-0.9,0-1.3,0c-2.3-1.8-0.7-4.3-1.4-5.4c-0.5,0.1-1.3,0.2-2.5,0.2c0.1-0.2,0.1-0.4,0.1-0.7
		c0,0,0,0-0.1,0c0,0,0,0,0.1,0c-0.1-2.8-3.6-7.3,1.2-7.9c-0.7-1.3-3.9-1.3-2.6-3.3c0.7-0.7,0.7-1.3,2-1.3c-2-3.3,1.3-7.2,4.6-8.5
		c-4.6-1.3-1.3-6.6-0.7-9.2c0-0.7,1.3-2,2.6-1.3c-1.8-2.2-1.7-4.1-1.2-6.1c-1.1,0.8-2.3,2-1.1,3.3c0,0-4,2.8-2.1,5.6
		c0,0-3.8,1.1-2,4.2c1.9,3.1-2.4,1.6-2.5,4.2c-0.1,2.5-1.2,2.2-0.5,5.2c0.7,3.1-3.6,2-1.9,4.2c0,0-2.8,2.6-0.4,4.6
		c0,0-2.2,3.1,0.2,3.2c0,0-1.1,0.9,0.1,1.2c0,0-2.6,4.9,1.6,4.2c0,0-0.8,2.2,0.9,1.7c1.6-0.4-1.4,6.2,3.6,3.8c0,0-3.1,1.9,0.6,2.3
		c0,0,0.1,3.3,4.8,0c0,0,0.1,4.2,3.7,0.7c0,0,2.4,3,3.9,0.3c-2-1.5-5.3-0.3-7.8-1.8C62.2,171.7,61.5,170.6,61.4,169z"/>
	<g>
		<path class="st8" d="M56.2,163.1C56.2,163.1,56.2,163.1,56.2,163.1C56.2,163.1,56.2,163.1,56.2,163.1
			C56.2,163.1,56.2,163.1,56.2,163.1z"/>
		<g>
			<path d="M56.2,163.1L56.2,163.1l-0.3,0l0.3,0.3c0,0.1,0,0.2,0,0.2c0,0,0-0.1,0-0.2c0-0.1,0-0.1,0-0.1c0,0,0,0.1,0,0.3l-0.1-0.9
				c0-0.1,0-0.1,0,0C56.2,162.7,56.2,162.8,56.2,163.1L56.2,163.1z M56.2,163.2c0,0.3,0,0.4,0,0.5c0,0.1,0,0.1,0,0l-0.1-1l0,0.1
				c0,0.2,0,0.2,0.1,0.3c0,0,0,0.1,0-0.1c0-0.1,0-0.2,0-0.2c0,0,0,0.1,0,0.2L56.2,163.2l0.3-0.1L56.2,163.2L56.2,163.2z"/>
		</g>
	</g>
	<g>
		<path class="st8" d="M55.3,117.7l-1.4,0C54.3,117.9,54.7,117.9,55.3,117.7z"/>
		<g>
			<path d="M55.3,117.7L55.3,117.7c-0.1,0.3-0.3,0.3-0.4,0.4c-0.1,0.1-0.2,0.1-0.3,0c-0.1-0.1-0.2-0.2-0.3-0.2c-0.1,0-0.2,0-0.3,0.1
				l0.1-0.5c0.2-0.1,0.4-0.2,0.6-0.2C54.8,117.4,55,117.4,55.3,117.7L55.3,117.7z M55.3,117.8c-0.1,0.4-0.4,0.5-0.7,0.6
				c-0.3,0-0.6-0.1-0.8-0.4l-0.8-1.2l0.9,0.7c0.1,0.1,0.2,0.1,0.3,0.1c0.1,0,0.2-0.2,0.3-0.3c0.1-0.1,0.2,0,0.3,0
				C55.1,117.4,55.2,117.5,55.3,117.8L55.3,117.8L55.3,117.8z"/>
		</g>
	</g>
	<path class="st9" d="M129.3,78.8c0,0,2.8-2.3,0.1-2.9c0,0,4.7-3.8-0.1-4.5c0,0,5.3-5-3.1-5.1c-7-0.1-1.3-13-23.3-20.5
		c-5.3,6.5-6.3,14.6-5.4,22.8c-0.1,2.4,3.8,4.9,5.1,4.9c3.7,1.2,8.5,1.4,10.2-2.6c0-0.2,0.1-0.4,0.3-0.7c-0.1,0.3-0.2,0.5-0.3,0.7
		c-0.3,1.7,2.8,2,2.8,4.1c1.2-1,2.3-2,2.6-3.9c-0.2-0.2-0.3-0.5,0.1-0.8c0,0.3,0,0.5-0.1,0.8c0.6,0.5,2.3,0.8,1.3,1.6
		c1.3,0,3.9,0.1,4-2.3c3.8,6.1,1,13.1-0.5,19.1c-2,6.8-6.1,13.6-7.8,20.9c0.6,0,1-0.3,0.4-1.4c0,0,4.3-0.3,3.1-3.2
		c0,0,6.7-1.8,4.5-6.9c0,0,4-2,1.8-3.7c0,0,4.2-0.6,2.6-4.8c-1.6-4.2,4.3-2,2.5-7.6C130.1,82.9,132.8,78.8,129.3,78.8z"/>
	<g>
		<path class="st8" d="M55.8,117.6c0.2-0.1,0.5-0.2,0.7-0.3C56.6,117.2,56.2,117.3,55.8,117.6z"/>
		<g>
			<path d="M55.8,117.6L55.8,117.6c0-0.3,0-0.4,0.1-0.4c0-0.1,0.1-0.1,0.2-0.1c0.1,0,0.2,0.2,0.3,0.2c0.1,0,0.1-0.1,0.1-0.2l0.2,0.5
				c0,0.2-0.1,0.3-0.2,0.4C56.3,117.9,56.1,117.8,55.8,117.6L55.8,117.6z M55.8,117.5c0-0.3,0-0.5,0.2-0.6c0.1-0.1,0.3-0.1,0.5,0.1
				l2.1,1.4l-1.9-0.9c-0.1,0-0.2-0.1-0.2,0c0,0.1,0,0.2-0.1,0.3c0,0.1-0.1,0.1-0.2,0.1C56.1,117.8,56,117.8,55.8,117.5L55.8,117.5
				L55.8,117.5z"/>
		</g>
	</g>
	<g>
		<path class="st8" d="M99.8,116.2c-0.4-0.1-0.8-0.2-1.3-0.2C98.5,115.9,99,116.1,99.8,116.2z"/>
		<g>
			<path d="M99.8,116.2L99.8,116.2c-0.2,0.2-0.3,0.3-0.4,0.3c-0.1,0-0.2,0-0.3,0c-0.1-0.1-0.2-0.3-0.3-0.3c-0.1,0-0.2,0-0.3,0.1
				l0.1-0.5c0.2-0.1,0.5-0.2,0.7-0.1C99.4,115.6,99.6,115.8,99.8,116.2L99.8,116.2z M99.8,116.2c-0.3,0.3-0.5,0.4-0.7,0.4
				c-0.2,0-0.5-0.1-0.6-0.4l-1.4-1.9l1.5,1.3c0.1,0.1,0.2,0.2,0.3,0.1c0.1,0,0.3-0.2,0.4-0.2c0.1,0,0.2,0,0.4,0.1
				C99.7,115.8,99.7,115.9,99.8,116.2L99.8,116.2L99.8,116.2z"/>
		</g>
	</g>
	<path class="st9" d="M30.2,101.8c1.4-4.7-1-11.8-6.1-15.5c1.3,0,1.3,0,2.6,0.1c-1.1-7.1-3.6-11.9-0.9-17.7c2.6,1.2,2.5,5.9,6.4,3.7
		c0-1.2,0.1-2.4,0.1-3.5c1.3,0,2.5,2.4,3.9,1.3c0-1.2,0.1-3.5,0.1-4.7c1.3,1.2,3.8,2.4,5.1,2.5c5-6.5,6.7-15.1,6-22.9
		c-17.2,4.6-26.2,13.8-24.3,19.8c0,0-4.7,2.3-2.8,4.3c0,0-3.2,2.5-1,3.5c0,0-3.4,2.5,0.2,3.4c0,0-1.3,3.4,1.3,6.4
		c2.6,3-1.7,4.1,1.1,6c0,0-1.5,2.4,0.7,2.5c0,0-0.4,3,2,2.7c0,0-2,3.3,1.2,3.4c0,0,0.7,2.1,1.9,1.6c0,0-2.9,2-0.1,2.7
		c0,0-0.3,2.9,2.2,1.8c0,0-2.8,6.2,1.3,3.8c0,0,0.7,3.1,3.2,1.6c2.5-1.5-1.5,1.2,1.9,2.1c0,0,0.5,1.7,3.2,0.8
		c-1.1-3.9-5.7-7.6-5.6-11.9C32.9,99.6,31.5,101.9,30.2,101.8z"/>
	<g>
		<path class="st4" d="M112.3,93.5c-0.8-5.8-1.1-5.4-1.1-8.1c0.1-17.7-16.5-26.3-37.3-26.9C53.1,58.1,38.3,61.8,36,82.4
			c-0.3,3.3,1.2,6.7,1.1,9.6c-0.1,3-1.5,5-1.5,7.4c-0.2,8.3,8.9,13.4,39,14.2c30.2,0.7,38.6-3.9,38.8-12.2
			C113.5,98.4,113,99.3,112.3,93.5z"/>
		<g>
			<path d="M112.2,93.5c-0.2-1.2-0.3-2.3-0.5-3.5c-0.2-1.2-0.5-2.3-0.6-3.5c0-2.4-0.1-4.7-0.7-7c-1.1-4.5-3.8-8.6-7.3-11.6
				c-3.6-3-7.8-5-12.2-6.4c-4.4-1.4-9.1-2.2-13.7-2.5c-4.6-0.3-9.3-0.4-14-0.1c-4.6,0.3-9.3,1.1-13.6,3c-2.1,0.9-4.1,2.2-5.9,3.7
				c-1.7,1.6-3.2,3.4-4.3,5.5c-1.1,2.1-1.9,4.3-2.4,6.5c-0.3,1.1-0.5,2.3-0.6,3.4c-0.2,1.2-0.3,2.3-0.1,3.4c0.2,2.3,1.1,4.5,1.1,7
				c0,1.2-0.2,2.4-0.5,3.6c-0.3,1.1-0.7,2.2-0.9,3.4c-0.3,2.2,0.2,4.6,1.6,6.3c1.4,1.7,3.4,3,5.5,3.9c4.3,1.8,8.9,2.6,13.5,3.2
				c4.6,0.6,9.3,0.9,14,1.1c4.7,0.2,9.4,0.3,14,0.2c4.7-0.1,9.3-0.3,14-1c2.3-0.4,4.6-0.8,6.8-1.6c2.2-0.8,4.3-1.9,5.8-3.6
				c0.8-0.9,1.3-1.9,1.6-3c0.3-1.1,0.4-2.3,0.4-3.5c0-1.2-0.4-2.3-0.6-3.4C112.5,95.9,112.4,94.7,112.2,93.5z M112.3,93.5
				c0.2,1.2,0.3,2.3,0.6,3.5c0.2,1.1,0.6,2.3,0.6,3.5c0,1.2,0,2.4-0.4,3.5c-0.3,1.1-0.9,2.2-1.6,3.1c-1.5,1.9-3.7,3-5.9,3.9
				c-2.2,0.9-4.5,1.4-6.8,1.8c-4.6,0.9-9.4,1.1-14,1.3c-4.7,0.1-9.4,0-14.1-0.1c-4.7-0.2-9.4-0.5-14.1-1.1
				c-4.7-0.7-9.3-1.5-13.7-3.4c-2.2-1-4.3-2.2-5.8-4.2c-1.5-1.9-2.1-4.6-1.7-7c0.2-1.2,0.6-2.3,0.9-3.4c0.3-1.1,0.5-2.2,0.5-3.4
				c0-2.3-0.8-4.5-1-6.9c-0.1-0.6-0.1-1.2,0-1.8c0-0.6,0.1-1.2,0.2-1.8c0.2-1.2,0.4-2.3,0.7-3.5c0.6-2.3,1.4-4.5,2.5-6.6
				c2.2-4.2,6-7.5,10.3-9.4c4.3-1.9,9-2.8,13.7-3.2c4.7-0.4,9.4-0.5,14.1-0.2c4.7,0.3,9.4,1,13.9,2.5c4.5,1.5,8.8,3.6,12.4,6.8
				c3.6,3.1,6.2,7.4,7.1,12c0.3,1.2,0.4,2.3,0.5,3.5c0.1,1.2,0.1,2.4,0.1,3.5c0.1,1.2,0.4,2.3,0.5,3.5
				C112,91.2,112.2,92.4,112.3,93.5z"/>
		</g>
	</g>
	<path class="st3" d="M112.3,93.5c-0.8-5.8-1.1-5.4-1.1-8.1c0-0.1,0-0.1,0-0.2c0,0,0,0,0,0c0-0.1,0-0.2-0.1-0.3
		c-0.1-4.6-1.3-8.6-3.4-11.9c-0.1,0.9-0.1,1.8-0.1,2.7c-6.1-8.9-18.8-13.4-33.6-13.8c-19.2-0.5-33.4,2.7-37.3,19.4c0-1,0-2,0.1-3
		c-0.3,1.3-0.5,2.7-0.7,4.2c-0.1,0.7,0,1.5,0,2.2c0,0.3-0.1,0.7-0.1,1c-0.1,1.1,0,2.2,0.2,3.3c0.3,0.1,0.5,0.1,0.8,0.2
		c0.2,1,0.3,2,0.3,2.9c-0.1,3-1.5,5-1.5,7.4c-0.1,5.1,3.3,9,12.9,11.4c-1.4-1-2.8-2-4.1-3.2c-4.5-4.7-6.6-11.3-7.4-18.5
		c3.1,0.9,6.2,1.6,9.4,2.2c0.4-3.5,1.3-6.8,2.5-10.3c0.4-1.6,1-3.2,1.8-4.6c-0.7,1.6-1.3,3.1-1.8,4.6c-0.9,3.2-1.2,6.8-1.3,10.5
		c4.2,0.8,8.3,1.3,12.5,1.6c0.1-3.5,0.4-8,1.7-11.1c-0.1,3.3-0.7,7.3-0.2,11.2c6.1,0.4,12.1,0.2,18.2-0.4c0.1-3.3,0.2-7.4,0.3-10.3
		c1.7,3.4,2.2,6.7,2.4,10.1c6.5-0.8,13-2.2,19.4-4.1c-1.1-4.5-2.3-7.9-3.4-12.6c2.1,3.8,3.4,8,4.8,12.2c1.9-0.6,3.8-1.3,5.7-2
		c1.1,6.1,2.2,12.2-0.5,17.9c-2.3,5.1-7.6,7.2-13.3,9c13.8-1.5,18.2-5.6,18.4-11.6C113.5,98.4,113,99.3,112.3,93.5z"/>
	<path d="M111.3,82.6c-2-15.4-17.8-23-37.3-23.4c-20.9-0.5-35.8,3.3-38,23.9c-0.1,1.1,0,2.2,0.2,3.3c3.4,1,6.9,1.8,10.3,2.5
		c0.4-3.5,1.3-6.8,2.5-10.3c0.4-1.6,1-3.2,1.8-4.6c-0.7,1.6-1.3,3.1-1.8,4.6c-0.9,3.2-1.2,6.8-1.3,10.5c4.2,0.8,8.4,1.3,12.5,1.6
		c0.1-3.5,0.4-8,1.7-11.1c-0.1,3.3-0.7,7.3-0.2,11.2c6.1,0.4,12.1,0.2,18.2-0.4C79.9,87,80,82.9,80.1,80c1.7,3.4,2.2,6.7,2.4,10.1
		c6.5-0.8,13-2.2,19.4-4.1c-1.1-4.5-2.3-7.9-3.4-12.7c2.1,3.8,3.4,8,4.8,12.2C106,84.7,108.6,83.7,111.3,82.6z"/>
	<g>
		<path d="M44.2,37.8L44.2,37.8c-0.4,0-0.5,0-0.4,0c0.1,0,0.2,0,0.2-0.1c0,0,0,0,0,0c0,0,0,0,0,0c0,0.1,0.1,0.2,0.2,0.2
			c0,0,0.1,0,0.2-0.1c0.1-0.1,0.1-0.2,0.1-0.2l0.1,0l0.1,0c0,0,0.1,0,0.1,0C44.6,37.7,44.5,37.7,44.2,37.8L44.2,37.8z M44.1,37.8
			c-0.3,0-0.4,0-0.5,0c0,0,0,0,0.1-0.1c0,0,0,0,0.1,0c0,0,0,0,0.1,0c0,0,0-0.2,0.1-0.2c0.1-0.1,0.2-0.1,0.2-0.1
			c0.1,0,0.2,0.1,0.2,0.2c0,0,0,0,0,0c0,0,0,0,0,0c0,0,0.2,0,0.3,0C44.6,37.7,44.5,37.8,44.1,37.8L44.1,37.8L44.1,37.8z"/>
	</g>
	<g>
		<g>
			<path class="st2" d="M139.7,60c0.1-0.2,0.2-0.3,0.4-0.5c0,0,0,0,0-0.1c0.8-1,1.5-2,1.9-2.9c0.9-1.6,1.6-3.4,2.1-5.3
				c0.5-2.1,0.8-4.3,0.7-6.6c-0.6-12.6-11.7-22.3-24.7-21.7C107,23.7,96.9,34.4,97.5,47c0.6,12.6,11.7,22.3,24.7,21.7
				c0.1,0,0.1,0,0.2,0l0,0c22.8,13.1,28.6-3.8,28.6-3.8C146.2,70.4,135.1,65.4,139.7,60z"/>
			<g>
				<path d="M139.7,59.9l0.4-0.5l0,0l0-0.1l0,0l0,0c0.8-1,1.5-2.1,2.1-3.3c0.6-1.2,1.1-2.4,1.5-3.6c0.8-2.5,1.1-5.1,0.9-7.7
					c-0.3-5.2-2.5-10.2-6-13.9c-1.8-1.9-3.8-3.5-6.1-4.7c-2.3-1.2-4.7-2.1-7.3-2.5c-5.1-0.9-10.5-0.2-15.1,2.2
					c-2.3,1.2-4.4,2.7-6.2,4.6c-1.8,1.9-3.3,4.1-4.3,6.5c-2.1,4.8-2.4,10.3-0.8,15.2c1.5,4.9,4.9,9.2,9.1,12.1
					c4.3,2.9,9.5,4.2,14.6,3.9l1.8-0.1l-1.5,1.1l0,0l0-0.9c2.4,1.4,4.8,2.6,7.4,3.5c2.6,0.9,5.3,1.5,8,1.4c2.7,0,5.4-0.7,7.6-2.2
					c2.2-1.5,4-3.7,5.1-6.2l0.4,0.3c-1.1,1.2-2.5,2-4.1,2.3c-1.5,0.3-3.1,0.2-4.6-0.3c-1.5-0.5-2.9-1.3-3.7-2.7
					c-0.4-0.7-0.5-1.5-0.4-2.3C138.8,61.2,139.2,60.5,139.7,59.9z M139.8,60c-0.5,0.6-0.9,1.3-1,2c-0.1,0.7,0,1.5,0.4,2.2
					c0.8,1.3,2.2,2.1,3.6,2.6c1.4,0.4,3,0.5,4.5,0.2c1.5-0.3,2.8-1.1,3.7-2.3l1-1.2l-0.5,1.4c-1,2.7-2.8,5-5.1,6.7
					c-2.3,1.7-5.2,2.5-8.1,2.6c-2.9,0.1-5.7-0.6-8.3-1.5c-2.7-0.9-5.2-2.2-7.6-3.5l-0.7-0.4l0.7-0.5l0,0l0.3,1
					c-5.3,0.3-10.8-1.2-15.2-4.2c-4.4-3-7.8-7.5-9.2-12.7c-1.5-5.1-1.1-10.7,1.1-15.5c2.2-4.8,6-8.8,10.7-11.3
					c4.7-2.5,10.1-3.4,15.4-2.6c5.2,0.8,10.3,3.4,13.8,7.4c3.6,3.9,5.7,9.2,5.9,14.5c0.2,5.3-1.6,10.6-4.9,14.7l0,0l0,0.1l0,0l0,0
					L139.8,60z"/>
			</g>
		</g>
		<path class="st0" d="M149.8,66c-5.4,4.7-14.1,6-16.5,0.2c-1.5-3.2,7.3-14.2,2-20.1c-4.6-4.8-21.3-9.3-22.8,3.9
			c-0.1,5.8,5.2,11.9,10.8,8.9c7.5-3.8,6.8-10.5,1.1-11.7c5.5,0.1,9.3,4.2,10,9.7c-0.1,4.7-2.5,7.8-5.7,10.1c-1.9,1-3.9,1.6-5.8,2
			c22.5,12.8,28.3-4,28.3-4C150.7,65.3,150.3,65.6,149.8,66z"/>
		<g>
			<path d="M100.2,56c3.2,4.6,7.4,8.6,12.5,10.9c2.5,1.1,5.3,1.8,8.1,1.6c2.8-0.1,5.6-1.1,7.8-2.8c2.2-1.7,3.8-4.1,4.5-6.8
				c0.7-2.6,0.5-5.5-1-7.8c-0.7-1.1-1.7-2-2.9-2.7c-1.1-0.7-2.5-0.9-3.9-0.8c-1.3,0.1-2.7,0.5-3.7,1.4c-1.1,0.9-1.9,2-2.5,3.3
				l-0.1,0c0.5-1.3,1.2-2.7,2.2-3.7c1.1-1,2.5-1.7,4-1.8c0.7-0.1,1.5,0,2.2,0.1c0.4,0.1,0.7,0.1,1.1,0.2c0.4,0.1,0.7,0.3,1.1,0.4
				c1.3,0.7,2.5,1.7,3.3,3c1.7,2.6,1.8,5.8,1,8.6c-0.8,2.8-2.7,5.3-5.1,7c-2.4,1.7-5.2,2.5-8.1,2.7c-2.9,0.2-5.8-0.2-8.5-1.2
				c-2.7-1.1-5.1-2.8-7.2-4.8C103.2,60.9,101.4,58.6,100.2,56L100.2,56z"/>
		</g>
		<g>
			<g>
				<line class="st8" x1="122.9" y1="23.1" x2="124.4" y2="47.7"/>
				<path d="M122.9,23.1c0.6,4.1,1,8.2,1.3,12.3c0.2,4.1,0.4,8.2,0.3,12.3c-0.6-4.1-1-8.2-1.3-12.3
					C122.9,31.3,122.8,27.2,122.9,23.1z"/>
			</g>
			<g>
				<path d="M127.2,23.7c0.1,4,0,8-0.3,12c-0.3,4-0.6,8-1.3,12c-0.1-4,0-8,0.3-12C126.2,31.7,126.6,27.7,127.2,23.7z"/>
			</g>
			<g>
				<path d="M130.6,24.9c-0.2,3.9-0.7,7.7-1.2,11.5c-0.6,3.8-1.2,7.6-2.2,11.4c0.2-3.9,0.6-7.7,1.2-11.5
					C129,32.4,129.7,28.6,130.6,24.9z"/>
			</g>
			<g>
				<path d="M135.2,27.4c-0.7,3.5-1.6,6.9-2.7,10.3c-1.1,3.4-2.2,6.7-3.6,10c0.7-3.5,1.6-6.9,2.7-10.3
					C132.6,34,133.7,30.6,135.2,27.4z"/>
			</g>
			<g>
				<path d="M139.2,31c-1.2,3.1-2.6,6-4.1,8.9c-1.5,2.9-3.1,5.7-5,8.4c1.2-3.1,2.6-6,4.1-8.9C135.7,36.6,137.3,33.7,139.2,31z"/>
			</g>
			<g>
				<path d="M141.9,34.7c-1.4,2.7-3,5.2-4.6,7.7c-1.7,2.5-3.5,4.9-5.5,7.1c1.4-2.7,3-5.2,4.6-7.7C138.1,39.3,139.8,36.9,141.9,34.7z
					"/>
			</g>
			<g>
				<path d="M144.1,39.9c-1.8,1.9-3.8,3.6-5.9,5.2c-2.1,1.6-4.2,3.1-6.5,4.4c1.8-1.9,3.8-3.6,5.9-5.2
					C139.7,42.7,141.8,41.2,144.1,39.9z"/>
			</g>
			<g>
				<path d="M131.7,49.5c2-1.2,4.2-2,6.4-2.9c2.2-0.8,4.4-1.5,6.7-1.9c-2,1.2-4.2,2-6.4,2.9C136.3,48.4,134.1,49.1,131.7,49.5z"/>
			</g>
			<g>
				<path d="M133.2,51.3c1.8-0.8,3.7-1.4,5.6-1.8c1.9-0.4,3.8-0.8,5.8-0.8c-1.8,0.8-3.7,1.4-5.6,1.8
					C137.1,50.9,135.2,51.3,133.2,51.3z"/>
			</g>
			<g>
				<path d="M133.8,52.5c1.7-0.6,3.4-0.9,5.1-1.1c1.7-0.2,3.5-0.3,5.2-0.1c-1.7,0.6-3.4,0.9-5.1,1.1
					C137.3,52.6,135.6,52.7,133.8,52.5z"/>
			</g>
			<g>
				<path d="M133.8,53.7c1.5-0.4,3-0.4,4.5-0.4c1.5,0,3,0.1,4.5,0.6c-1.5,0.4-3,0.4-4.5,0.4C136.7,54.3,135.2,54.1,133.8,53.7z"/>
			</g>
			<g>
				<path d="M133.7,54.9c1.5-0.2,2.9,0,4.3,0.2c1.4,0.2,2.8,0.5,4.2,1.2c-1.5,0.2-2.9,0-4.3-0.2C136.5,55.8,135.1,55.5,133.7,54.9z"
					/>
			</g>
			<g>
				<path d="M134.2,56.5c1.3-0.1,2.5,0,3.6,0.2c1.2,0.3,2.3,0.6,3.4,1.2c-1.3,0.2-2.5,0-3.6-0.2C136.5,57.4,135.3,57.1,134.2,56.5z"
					/>
			</g>
			<g>
				<path d="M134.3,58.2c1-0.2,1.9-0.2,2.8,0c0.9,0.2,1.8,0.4,2.7,0.9c-1,0.2-1.9,0.2-2.8,0C136,59,135.1,58.7,134.3,58.2z"/>
			</g>
			<g>
				<path d="M139,61.1c-0.9,0.3-1.9,0.3-2.8,0.2c-0.9-0.1-1.8-0.3-2.7-0.8c0.9-0.3,1.9-0.3,2.8-0.2C137.3,60.4,138.1,60.6,139,61.1z
					"/>
			</g>
			<g>
				<path d="M138.4,62.1c-1.1,0.5-2.3,0.7-3.5,0.9c-1.2,0.1-2.4,0.1-3.6-0.1c1.1-0.5,2.3-0.7,3.5-0.9
					C136,61.8,137.2,61.8,138.4,62.1z"/>
			</g>
			<g>
				<path d="M138.4,63.5c-1.8,1-3.7,1.8-5.7,2.4c-1.9,0.6-3.9,1.2-6,1.5c1.8-1,3.7-1.8,5.7-2.4C134.4,64.3,136.3,63.7,138.4,63.5z"
					/>
			</g>
			<g>
				<path d="M138.9,64.9c-2.2,1.2-4.4,2.2-6.7,3c-2.3,0.8-4.6,1.6-7.1,2.1c2.2-1.2,4.4-2.2,6.7-3C134.1,66.2,136.5,65.4,138.9,64.9z
					"/>
			</g>
			<g>
				<path d="M139.1,64.4c-1.4,1.5-2.9,2.7-4.5,3.9c-1.6,1.2-3.3,2.3-5.1,3.1c1.4-1.5,2.9-2.7,4.5-3.9
					C135.6,66.3,137.3,65.2,139.1,64.4z"/>
			</g>
			<g>
				<path d="M138.9,64.9c-0.5,1.5-1.3,2.8-2.1,4.1c-0.9,1.3-1.8,2.5-3,3.6c0.5-1.5,1.3-2.8,2.1-4.1C136.8,67.3,137.7,66,138.9,64.9z
					"/>
			</g>
			<g>
				<path d="M139.6,65c0.1,1.5-0.2,3-0.5,4.4c-0.3,1.4-0.8,2.9-1.5,4.2c-0.1-1.5,0.2-3,0.5-4.4C138.5,67.7,138.9,66.3,139.6,65z"/>
			</g>
			<g>
				<path d="M140,65.6c0.4,1.3,0.6,2.7,0.6,4c0,1.4,0,2.7-0.4,4.1c-0.4-1.3-0.6-2.7-0.6-4C139.6,68.3,139.6,67,140,65.6z"/>
			</g>
			<g>
				<path d="M141.1,66.2c0.5,1.1,0.7,2.2,0.9,3.3c0.1,1.1,0.1,2.2-0.1,3.4c-0.5-1.1-0.7-2.2-0.9-3.3
					C140.9,68.5,140.8,67.3,141.1,66.2z"/>
			</g>
			<g>
				<path d="M142,66.6c0.7,0.8,1.1,1.7,1.5,2.7c0.3,1,0.6,1.9,0.6,3c-0.7-0.8-1.2-1.7-1.5-2.7C142.2,68.7,142,67.7,142,66.6z"/>
			</g>
			<g>
				<path d="M144.2,67.2c0.6,0.6,1,1.2,1.3,1.9c0.3,0.7,0.4,1.4,0.3,2.3c-0.6-0.6-1-1.2-1.3-1.9C144.3,68.8,144.1,68,144.2,67.2z"/>
			</g>
			<g>
				<path d="M145.9,67.8c0.6,0.2,0.9,0.6,1.1,1c0.2,0.4,0.4,0.9,0.2,1.5c-0.6-0.2-0.9-0.6-1.1-1C145.9,68.9,145.8,68.4,145.9,67.8z"
					/>
			</g>
			<g>
				<path d="M147.3,67.1c0.5,0.2,0.8,0.5,1,0.8c0.2,0.3,0.3,0.7,0.1,1.3c-0.5-0.2-0.8-0.5-1-0.8C147.2,68,147.1,67.6,147.3,67.1z"/>
			</g>
			<g>
				<path d="M148.5,66.8c0.5,0,0.7,0.1,0.8,0.3c0.1,0.2,0.2,0.4,0.1,0.9c-0.5,0.1-0.7-0.1-0.8-0.3C148.4,67.5,148.3,67.2,148.5,66.8
					z"/>
			</g>
			<g>
				<path d="M123.6,47.5c-1-3.9-1.7-7.9-2.4-11.9c-0.6-4-1.1-8-1.4-12.1c1,3.9,1.7,7.9,2.4,11.9C122.8,39.5,123.3,43.5,123.6,47.5z"
					/>
			</g>
			<g>
				<path d="M123.6,47.5c-0.9-1.9-1.7-3.8-2.5-5.8c-0.8-1.9-1.5-3.9-2.2-5.9c-0.7-2-1.4-4-2-6l-0.9-3c-0.3-1-0.6-2-0.8-3
					c0.5,0.9,0.9,1.9,1.3,2.9l1.2,2.9c0.8,1.9,1.5,3.9,2.2,5.9c0.7,2,1.4,4,2,6C122.4,43.5,123,45.5,123.6,47.5z"/>
			</g>
			<g>
				<path d="M122.2,48.1c-1.2-1.7-2.4-3.5-3.5-5.3c-1.1-1.8-2.2-3.6-3.3-5.5c-1.1-1.8-2.1-3.7-3.1-5.6l-1.5-2.8
					c-0.5-1-1-1.9-1.4-2.9c0.6,0.9,1.2,1.8,1.8,2.6l1.7,2.7c1.1,1.8,2.2,3.6,3.3,5.5c1.1,1.8,2.1,3.7,3.1,5.6
					C120.4,44.3,121.3,46.2,122.2,48.1z"/>
			</g>
			<g>
				<path d="M121.4,48.8c-1.4-1.6-2.8-3.2-4.1-4.9c-1.3-1.7-2.6-3.4-3.9-5.1c-1.3-1.7-2.5-3.4-3.7-5.2l-1.8-2.7
					c-0.6-0.9-1.2-1.8-1.7-2.7c0.7,0.8,1.4,1.6,2.1,2.4l2,2.5c1.3,1.7,2.6,3.4,3.9,5.1c1.3,1.7,2.5,3.4,3.7,5.2
					C119.1,45.2,120.3,46.9,121.4,48.8z"/>
			</g>
			<g>
				<path d="M120.6,49.6c-1.7-1.2-3.4-2.4-5.1-3.7c-1.7-1.3-3.3-2.6-4.9-3.9c-1.6-1.3-3.2-2.7-4.8-4.1l-2.3-2.1
					c-0.8-0.7-1.5-1.4-2.3-2.2c0.9,0.6,1.7,1.2,2.6,1.8l2.5,1.9c1.7,1.3,3.3,2.6,4.9,3.9c1.6,1.3,3.2,2.7,4.8,4.1
					C117.6,46.7,119.1,48.1,120.6,49.6z"/>
			</g>
			<g>
				<path d="M120.6,49.6c-1.6-1.4-3.1-2.8-4.7-4.3c-1.5-1.5-3-3-4.5-4.5c-1.5-1.5-2.9-3.1-4.3-4.7l-2.1-2.4c-0.7-0.8-1.4-1.6-2-2.5
					c0.8,0.7,1.6,1.4,2.4,2.1l2.3,2.2c1.5,1.5,3,3,4.5,4.5c1.5,1.5,2.9,3.1,4.3,4.7C117.9,46.3,119.3,47.9,120.6,49.6z"/>
			</g>
			<g>
				<path d="M120.6,49.6c-3.8,0.3-7.6,0.3-11.5,0.2c-3.8-0.1-7.6-0.3-11.4-0.8c3.8-0.3,7.6-0.3,11.5-0.2
					C113,48.9,116.8,49.1,120.6,49.6z"/>
			</g>
			<g>
				<path d="M120.3,50c-3.9-0.7-7.7-1.6-11.5-2.7c-3.8-1.1-7.5-2.2-11.2-3.6c3.9,0.7,7.7,1.6,11.5,2.7
					C112.8,47.4,116.6,48.6,120.3,50z"/>
			</g>
			<g>
				<path d="M120.3,50c-3.8-1.5-7.4-3.3-11-5.2c-3.6-1.9-7.1-3.8-10.6-6.1c3.8,1.5,7.4,3.3,11,5.2C113.3,45.8,116.9,47.8,120.3,50z"
					/>
			</g>
			<g>
				<path d="M120.3,50c-3.6,0.9-7.2,1.4-10.8,1.9c-3.6,0.4-7.2,0.8-10.9,0.9c3.6-0.9,7.2-1.4,10.8-1.9C113,50.4,116.6,50.1,120.3,50
					z"/>
			</g>
			<g>
				<path d="M119.6,51c-3,1.4-6,2.6-9.1,3.7c-3.1,1-6.2,2-9.4,2.7c3-1.4,6-2.6,9.1-3.7C113.3,52.7,116.4,51.7,119.6,51z"/>
			</g>
			<g>
				<path d="M119.1,52.2c-2.2,1.8-4.6,3.4-7,4.9c-2.4,1.5-4.9,2.9-7.6,4.1c2.2-1.8,4.6-3.4,7-4.9C114,54.8,116.4,53.4,119.1,52.2z"
					/>
			</g>
			<g>
				<path d="M119.6,51.5c-0.9,2.7-2.1,5.2-3.3,7.7c-1.3,2.5-2.6,5-4.2,7.3c0.9-2.7,2.1-5.2,3.3-7.7C116.7,56.2,118,53.8,119.6,51.5z
					"/>
			</g>
			<g>
				<path d="M119.6,51.5c-1.8,2.4-3.7,4.6-5.8,6.7c-2.1,2.1-4.2,4.2-6.5,6c1.8-2.4,3.7-4.6,5.8-6.7
					C115.2,55.4,117.3,53.3,119.6,51.5z"/>
			</g>
			<g>
				<path d="M120.6,49.6c0.3,3.2,0.2,6.3,0.1,9.4c-0.1,3.1-0.4,6.3-0.9,9.4c-0.3-3.2-0.2-6.3-0.1-9.4
					C119.9,55.8,120.1,52.7,120.6,49.6z"/>
			</g>
			<g>
				<path d="M120.6,49.6c1.7,2.6,3,5.3,4.4,8.1c1.3,2.8,2.5,5.6,3.5,8.5c-1.7-2.6-3.1-5.3-4.4-8.1C122.8,55.3,121.6,52.5,120.6,49.6
					z"/>
			</g>
			<g>
				<path d="M120.3,50c1.1,2.9,1.8,6,2.5,9c0.7,3,1.2,6.1,1.5,9.2c-1.1-2.9-1.8-6-2.5-9C121.1,56.2,120.6,53.1,120.3,50z"/>
			</g>
			<g>
				<path d="M120.3,50.7c-0.4,3-1.1,5.9-1.8,8.8c-0.8,2.9-1.6,5.8-2.8,8.6c0.4-3,1.1-5.9,1.8-8.8C118.2,56.4,119.1,53.5,120.3,50.7z
					"/>
			</g>
			<g>
				<path d="M120.8,50c2.2,1.8,4.1,3.8,6,5.8c1.9,2.1,3.7,4.2,5.3,6.5c-2.2-1.8-4.1-3.8-6-5.8C124.2,54.5,122.4,52.3,120.8,50z"/>
			</g>
			<g>
				<path d="M120.3,50c2.3,0,4.6,0.4,6.8,0.8c2.2,0.4,4.5,0.9,6.7,1.8c-2.3,0-4.6-0.4-6.8-0.8C124.7,51.3,122.5,50.8,120.3,50z"/>
			</g>
			<g>
				<path d="M120.3,50c0.9-0.8,2-1.3,3.1-1.8c1.1-0.4,2.2-0.8,3.5-0.9c-0.9,0.8-2,1.4-3.1,1.8C122.6,49.5,121.5,49.9,120.3,50z"/>
			</g>
			<g>
				<path d="M120.8,50c1.6-0.6,3.3-0.9,5-1.1c1.7-0.2,3.4-0.3,5.1-0.1c-1.6,0.6-3.3,0.9-5,1.1C124.3,50.1,122.6,50.2,120.8,50z"/>
			</g>
			<g>
				<path d="M120.8,50c2.4,0.9,4.7,2,6.9,3.2c2.2,1.2,4.4,2.5,6.4,4.1c-2.4-0.9-4.7-2-6.9-3.2C125,52.9,122.9,51.6,120.8,50z"/>
			</g>
		</g>
	</g>
	<g>
		<g>
			<path class="st2" d="M14.6,56.6c-0.1-0.2-0.2-0.3-0.3-0.5c0,0,0,0,0-0.1c-0.8-1.1-1.3-2.1-1.7-3c-0.8-1.7-1.5-3.5-1.9-5.4
				c-0.4-2.1-0.6-4.4-0.3-6.6C11.5,28.6,23,19.4,36,20.7c13,1.3,22.6,12.5,21.3,25c-1.2,12.6-12.8,21.7-25.8,20.4
				c-0.1,0-0.1,0-0.2,0l0,0C8,78.1,3,60.9,3,60.9C7.6,66.8,19,62.3,14.6,56.6z"/>
			<g>
				<path d="M14.6,56.7c-3.2-4.2-4.8-9.6-4.6-14.9c0.2-5.3,2.5-10.5,6.2-14.4c3.7-3.9,8.8-6.3,14.1-7c5.3-0.6,10.8,0.5,15.4,3.1
					c4.6,2.6,8.3,6.8,10.3,11.7c2,4.9,2.2,10.6,0.5,15.6c-1.7,5.1-5.2,9.5-9.8,12.3c-4.6,2.8-10.1,4.1-15.5,3.5l0.4-0.9l0,0l0.6,0.5
					l-0.7,0.3c-2.5,1.3-5.1,2.4-7.8,3.2c-2.7,0.8-5.5,1.3-8.4,1.1c-2.8-0.2-5.7-1.2-7.9-3c-2.2-1.8-3.9-4.2-4.8-6.9l-0.5-1.5
					l0.9,1.2c0.9,1.2,2.2,2,3.6,2.5c1.4,0.4,3,0.4,4.5,0.1c1.4-0.4,2.9-1.1,3.7-2.4c0.4-0.6,0.6-1.4,0.5-2.1
					C15.4,57.9,15,57.3,14.6,56.7z M14.6,56.6c0.5,0.6,0.8,1.3,1,2.1c0.1,0.8-0.1,1.6-0.5,2.3c-0.8,1.3-2.3,2.1-3.8,2.5
					c-1.5,0.4-3.1,0.5-4.6,0.1c-1.5-0.4-2.9-1.2-3.9-2.5l0.5-0.2c0.9,2.5,2.6,4.8,4.8,6.4c2.2,1.6,4.8,2.5,7.5,2.6
					c2.7,0.2,5.4-0.3,8-1.1c2.6-0.8,5.1-1.9,7.6-3.1L31,66.5l0,0l-1.2-1.1l1.6,0.2c5.1,0.6,10.4-0.5,14.8-3.2
					c4.4-2.7,8-6.8,9.7-11.7c1.7-4.9,1.7-10.4-0.2-15.3c-1-2.4-2.3-4.7-4.1-6.6c-1.7-1.9-3.8-3.6-6.1-4.9c-4.6-2.5-10-3.5-15.1-2.7
					c-2.6,0.4-5.1,1.1-7.4,2.3c-2.3,1.2-4.4,2.7-6.2,4.5c-3.6,3.7-6,8.6-6.4,13.8c-0.2,2.6,0,5.3,0.8,7.8
					C11.9,52.1,13.1,54.5,14.6,56.6z"/>
			</g>
		</g>
		<path class="st0" d="M4.3,62.1c5.2,5,13.8,6.6,16.4,1c1.6-3.1-6.6-14.6-1-20.2c4.8-4.6,21.7-8.2,22.6,5
			c-0.1,5.8-5.8,11.7-11.2,8.4c-7.3-4.1-6.2-10.9-0.5-11.8c-5.5-0.1-9.5,3.7-10.4,9.2c-0.1,4.7,2.2,7.9,5.2,10.3
			c1.9,1.1,3.8,1.8,5.7,2.2C8,78,3,60.9,3,60.9C3.4,61.4,3.8,61.8,4.3,62.1z"/>
		<g>
			<path d="M54.3,54.7c-1.4,2.5-3.3,4.7-5.5,6.6c-2.2,1.9-4.6,3.5-7.4,4.4c-2.8,0.9-5.7,1.1-8.5,0.8c-2.8-0.3-5.6-1.3-7.9-3.1
				c-2.3-1.8-4-4.3-4.7-7.2c-0.7-2.8-0.4-6.1,1.4-8.6c0.9-1.2,2.1-2.2,3.5-2.8c0.4-0.1,0.7-0.3,1.1-0.4c0.4-0.1,0.7-0.2,1.1-0.2
				c0.7-0.1,1.5-0.1,2.2,0c1.5,0.2,2.9,0.9,3.9,2c1,1.1,1.6,2.4,2,3.8l-0.1,0c-0.5-1.3-1.3-2.5-2.3-3.4c-1-0.9-2.3-1.5-3.7-1.6
				c-1.3-0.1-2.8,0-3.9,0.6c-1.2,0.6-2.3,1.5-3,2.5c-1.6,2.2-1.9,5.1-1.4,7.7c0.6,2.7,2.1,5.1,4.1,7c2.1,1.8,4.8,3,7.6,3.2
				c2.8,0.3,5.6-0.2,8.2-1.2C46.4,62.9,50.8,59.1,54.3,54.7L54.3,54.7z"/>
		</g>
		<g>
			<g>
				<line class="st8" x1="33.2" y1="20.6" x2="30.5" y2="45.1"/>
				<path d="M33.2,20.6c-0.1,4.1-0.4,8.2-0.9,12.3c-0.5,4.1-1,8.2-1.9,12.2c0.1-4.1,0.4-8.2,0.9-12.3C31.8,28.7,32.4,24.6,33.2,20.6
					z"/>
			</g>
			<g>
				<path d="M28.9,21c0.5,4,0.6,8,0.7,12c0,4,0,8-0.3,12c-0.5-4-0.6-8-0.7-12C28.5,29.1,28.6,25.1,28.9,21z"/>
			</g>
			<g>
				<path d="M25.4,22c0.8,3.8,1.2,7.6,1.6,11.5c0.4,3.8,0.6,7.7,0.6,11.6c-0.8-3.8-1.2-7.6-1.6-11.5C25.7,29.7,25.4,25.9,25.4,22z"
					/>
			</g>
			<g>
				<path d="M20.8,24.3C22,27.6,23,31,23.9,34.4c0.9,3.4,1.6,6.9,2.1,10.4c-1.3-3.3-2.2-6.7-3.1-10.1C22.1,31.3,21.3,27.8,20.8,24.3
					z"/>
			</g>
			<g>
				<path d="M16.5,27.7c1.7,2.8,3.2,5.7,4.6,8.7c1.4,3,2.7,6,3.7,9.1c-1.7-2.8-3.2-5.7-4.6-8.7C18.9,33.8,17.6,30.8,16.5,27.7z"/>
			</g>
			<g>
				<path d="M13.7,31.2c1.9,2.3,3.5,4.8,5.1,7.4c1.6,2.6,3,5.2,4.3,7.9c-1.9-2.3-3.5-4.8-5.1-7.4C16.4,36.6,14.9,34,13.7,31.2z"/>
			</g>
			<g>
				<path d="M11.3,36.4c2.2,1.4,4.3,3,6.2,4.7c2,1.7,3.9,3.5,5.6,5.5c-2.2-1.4-4.3-3-6.2-4.7C14.9,40.1,13,38.3,11.3,36.4z"/>
			</g>
			<g>
				<path d="M23.1,46.5c-2.3-0.5-4.5-1.4-6.6-2.2c-2.1-0.9-4.2-1.9-6.2-3.2c2.3,0.5,4.5,1.4,6.6,2.2C19,44.3,21.1,45.3,23.1,46.5z"
					/>
			</g>
			<g>
				<path d="M21.6,48.3c-2-0.2-3.9-0.6-5.8-1.1c-1.9-0.5-3.7-1.2-5.5-2.1c2,0.2,3.9,0.6,5.8,1.1C17.9,46.8,19.8,47.4,21.6,48.3z"/>
			</g>
			<g>
				<path d="M20.9,49.5c-1.8,0.1-3.5-0.1-5.2-0.4c-1.7-0.3-3.4-0.7-5.1-1.4c1.8-0.1,3.5,0.1,5.2,0.4C17.6,48.4,19.3,48.8,20.9,49.5z
					"/>
			</g>
			<g>
				<path d="M20.9,50.7c-1.5,0.3-3,0.4-4.5,0.3c-1.5-0.1-3-0.2-4.5-0.7c1.5-0.3,3-0.4,4.5-0.3C17.9,50.1,19.4,50.2,20.9,50.7z"/>
			</g>
			<g>
				<path d="M20.9,51.8c-1.4,0.5-2.8,0.8-4.2,0.9c-1.4,0.1-2.9,0.2-4.3,0c1.4-0.5,2.8-0.8,4.2-0.9C17.9,51.6,19.4,51.6,20.9,51.8z"
					/>
			</g>
			<g>
				<path d="M20.3,53.4c-1.1,0.6-2.3,0.8-3.5,1c-1.2,0.2-2.4,0.3-3.6,0c1.1-0.6,2.3-0.8,3.5-1C17.8,53.3,19,53.2,20.3,53.4z"/>
			</g>
			<g>
				<path d="M20.2,55.1c-0.9,0.5-1.8,0.7-2.7,0.8c-0.9,0.1-1.9,0.1-2.8-0.2c0.9-0.5,1.8-0.7,2.7-0.8C18.3,54.8,19.2,54.8,20.2,55.1z
					"/>
			</g>
			<g>
				<path d="M15.3,57.7c0.9-0.5,1.8-0.6,2.7-0.7c0.9,0,1.8,0,2.8,0.3c-0.9,0.5-1.8,0.6-2.7,0.7C17.1,58.1,16.2,58.1,15.3,57.7z"/>
			</g>
			<g>
				<path d="M15.8,58.8c1.2-0.2,2.4-0.1,3.6,0c1.2,0.2,2.3,0.5,3.4,1c-1.2,0.2-2.4,0.1-3.6,0C18,59.6,16.9,59.4,15.8,58.8z"/>
			</g>
			<g>
				<path d="M15.7,60.2c2.1,0.4,4,1,5.9,1.8c1.9,0.8,3.8,1.6,5.5,2.7c-2.1-0.4-4-1-5.9-1.8C19.4,62.1,17.5,61.3,15.7,60.2z"/>
			</g>
			<g>
				<path d="M15.2,61.6c2.4,0.6,4.7,1.5,7,2.4c2.3,1,4.5,2,6.6,3.4c-2.4-0.6-4.7-1.5-7-2.4C19.5,64,17.3,63,15.2,61.6z"/>
			</g>
			<g>
				<path d="M15,61c1.8,0.9,3.4,2.1,5,3.4c1.5,1.3,3,2.6,4.3,4.1c-1.8-0.9-3.4-2.1-5-3.4C17.8,63.9,16.3,62.6,15,61z"/>
			</g>
			<g>
				<path d="M15.2,61.6c1.1,1.1,2,2.4,2.8,3.7c0.8,1.3,1.5,2.7,1.9,4.2c-1.1-1.1-2-2.4-2.8-3.7C16.3,64.5,15.6,63.2,15.2,61.6z"/>
			</g>
			<g>
				<path d="M14.5,61.6c0.6,1.4,1,2.8,1.3,4.3c0.2,1.5,0.4,2.9,0.3,4.5c-0.7-1.4-1-2.8-1.3-4.3C14.5,64.6,14.3,63.1,14.5,61.6z"/>
			</g>
			<g>
				<path d="M14.1,62.2c0.3,1.4,0.3,2.7,0.2,4.1c-0.1,1.3-0.3,2.7-0.8,4c-0.3-1.4-0.3-2.7-0.2-4.1C13.3,64.9,13.5,63.5,14.1,62.2z"
					/>
			</g>
			<g>
				<path d="M12.9,62.7c0.2,1.2,0.1,2.3,0,3.4c-0.2,1.1-0.5,2.2-1,3.2c-0.2-1.2-0.1-2.3,0-3.4C12.1,64.9,12.4,63.8,12.9,62.7z"/>
			</g>
			<g>
				<path d="M12,63.1c0,1.1-0.3,2-0.7,3c-0.4,0.9-0.9,1.8-1.6,2.6c0-1.1,0.3-2,0.7-3C10.8,64.8,11.3,63.9,12,63.1z"/>
			</g>
			<g>
				<path d="M9.8,63.6c0.1,0.8-0.2,1.5-0.4,2.2C9,66.5,8.7,67.2,8,67.7c-0.1-0.8,0.2-1.6,0.4-2.2C8.7,64.8,9.1,64.1,9.8,63.6z"/>
			</g>
			<g>
				<path d="M8.1,64.2c0.1,0.6-0.1,1-0.3,1.4c-0.3,0.4-0.6,0.7-1.2,0.9c-0.1-0.6,0.1-1,0.3-1.4C7.2,64.7,7.5,64.4,8.1,64.2z"/>
			</g>
			<g>
				<path d="M6.7,63.3c0.1,0.5,0,0.9-0.2,1.2c-0.2,0.3-0.5,0.6-1,0.7c-0.1-0.5,0-0.9,0.2-1.2C5.9,63.7,6.1,63.5,6.7,63.3z"/>
			</g>
			<g>
				<path d="M5.6,63c0.1,0.4,0,0.7-0.1,0.9c-0.2,0.2-0.4,0.3-0.9,0.2c-0.1-0.4,0-0.7,0.1-0.9C4.9,63,5.1,62.9,5.6,63z"/>
			</g>
			<g>
				<path d="M31.4,45c0.4-4,1.2-8,2-12c0.8-4,1.7-7.9,2.9-11.8c-0.4,4-1.2,8-2,12C33.5,37.2,32.6,41.1,31.4,45z"/>
			</g>
			<g>
				<path d="M31.4,45c0.6-2,1.3-4,2.1-6c0.7-2,1.5-3.9,2.3-5.9c0.8-1.9,1.6-3.9,2.5-5.8l1.3-2.9c0.5-0.9,0.9-1.9,1.4-2.8
					c-0.3,1-0.7,2-1,3l-1.1,3c-0.7,2-1.5,3.9-2.3,5.9c-0.8,1.9-1.6,3.9-2.5,5.8C33.3,41.2,32.4,43.1,31.4,45z"/>
			</g>
			<g>
				<path d="M32.7,45.7c1-1.9,2.1-3.7,3.1-5.6c1.1-1.8,2.2-3.6,3.4-5.4c1.2-1.8,2.3-3.6,3.6-5.3l1.9-2.6c0.6-0.8,1.3-1.7,1.9-2.5
					c-0.5,1-1,1.9-1.5,2.8l-1.6,2.8c-1.1,1.8-2.2,3.6-3.4,5.4c-1.2,1.8-2.3,3.6-3.6,5.3C35.2,42.3,34,44,32.7,45.7z"/>
			</g>
			<g>
				<path d="M33.5,46.3c1.2-1.8,2.5-3.5,3.7-5.2c1.3-1.7,2.6-3.4,4-5c1.4-1.6,2.7-3.3,4.1-4.9l2.1-2.4c0.7-0.8,1.4-1.6,2.2-2.3
					c-0.6,0.9-1.2,1.8-1.8,2.6l-1.9,2.6c-1.3,1.7-2.6,3.4-4,5c-1.4,1.6-2.7,3.3-4.1,4.9C36.4,43.2,35,44.8,33.5,46.3z"/>
			</g>
			<g>
				<path d="M34.2,47.2c1.6-1.4,3.2-2.7,4.8-4c1.6-1.3,3.3-2.6,5-3.8c1.7-1.2,3.4-2.5,5.1-3.6l2.6-1.8c0.9-0.6,1.8-1.1,2.7-1.7
					c-0.8,0.7-1.6,1.4-2.4,2.1l-2.4,2c-1.6,1.3-3.3,2.6-5,3.8c-1.7,1.2-3.4,2.5-5.1,3.6C37.8,44.9,36,46.1,34.2,47.2z"/>
			</g>
			<g>
				<path d="M34.2,47.2c1.4-1.6,2.9-3.1,4.3-4.6c1.5-1.5,3-3,4.5-4.5c1.5-1.4,3.1-2.9,4.7-4.3l2.4-2.1c0.8-0.7,1.6-1.4,2.5-2
					c-0.7,0.8-1.4,1.6-2.1,2.4l-2.2,2.3c-1.5,1.5-3,3-4.5,4.4c-1.5,1.4-3.1,2.9-4.7,4.3C37.5,44.5,35.9,45.9,34.2,47.2z"/>
			</g>
			<g>
				<path d="M34.2,47.2c3.8-0.3,7.6-0.3,11.5-0.2c3.8,0.1,7.6,0.3,11.4,0.8c-3.8,0.3-7.6,0.3-11.5,0.2C41.8,47.8,38,47.6,34.2,47.2z
					"/>
			</g>
			<g>
				<path d="M34.5,47.6c3.7-1.2,7.6-2.2,11.4-3.1c3.8-0.8,7.7-1.6,11.6-2.1c-3.7,1.2-7.6,2.2-11.4,3.1
					C42.3,46.4,38.4,47.1,34.5,47.6z"/>
			</g>
			<g>
				<path d="M34.5,47.6c3.5-2,7.2-3.8,10.8-5.5c3.7-1.7,7.4-3.3,11.3-4.6c-3.5,2.1-7.2,3.8-10.8,5.5C42.1,44.7,38.4,46.3,34.5,47.6z
					"/>
			</g>
			<g>
				<path d="M34.5,47.6c3.7,0.3,7.3,0.8,10.8,1.4c3.6,0.7,7.2,1.4,10.7,2.4c-3.7-0.2-7.3-0.8-10.8-1.4C41.6,49.4,38,48.6,34.5,47.6z
					"/>
			</g>
			<g>
				<path d="M35.1,48.6c3.2,0.8,6.2,2,9.3,3.2c3,1.2,6,2.5,8.9,4.1c-3.2-0.8-6.2-2-9.3-3.2C41,51.5,38,50.2,35.1,48.6z"/>
			</g>
			<g>
				<path d="M35.6,49.9c2.6,1.3,5,2.9,7.3,4.5c2.3,1.6,4.6,3.3,6.8,5.3c-2.6-1.3-5-2.9-7.3-4.5C40.1,53.5,37.7,51.8,35.6,49.9z"/>
			</g>
			<g>
				<path d="M35.1,49.1c1.5,2.4,2.7,4.9,3.8,7.5c1.1,2.6,2.2,5.2,2.9,7.9C40.4,62,39.2,59.5,38,57C36.9,54.4,35.9,51.8,35.1,49.1z"
					/>
			</g>
			<g>
				<path d="M35.1,49.1c2.2,2,4.2,4.1,6.2,6.3c1.9,2.2,3.8,4.5,5.4,7c-2.2-2-4.2-4.1-6.2-6.3C38.6,53.8,36.7,51.6,35.1,49.1z"/>
			</g>
			<g>
				<path d="M34.2,47.2c0.4,3.1,0.4,6.3,0.4,9.4c0,3.1-0.1,6.3-0.6,9.4c-0.4-3.1-0.4-6.3-0.4-9.4C33.7,53.4,33.8,50.3,34.2,47.2z"/>
			</g>
			<g>
				<path d="M34.2,47.2c-1.1,2.9-2.5,5.6-3.9,8.4c-1.5,2.7-3,5.4-4.8,7.9c1.1-2.9,2.5-5.6,3.9-8.4C30.9,52.4,32.4,49.7,34.2,47.2z"
					/>
			</g>
			<g>
				<path d="M34.5,47.6c-0.4,3.1-1.2,6.1-2,9.1c-0.8,3-1.7,6-2.9,8.9c0.4-3.1,1.2-6.1,2-9.1C32.4,53.5,33.3,50.5,34.5,47.6z"/>
			</g>
			<g>
				<path d="M34.5,48.3c1,2.9,1.7,5.8,2.4,8.7c0.6,2.9,1.1,5.9,1.4,8.9c-1-2.9-1.7-5.8-2.4-8.7C35.3,54.3,34.8,51.4,34.5,48.3z"/>
			</g>
			<g>
				<path d="M34,47.6c-1.7,2.2-3.6,4.3-5.6,6.2c-2,2-4,3.9-6.3,5.5c1.7-2.2,3.6-4.3,5.6-6.2C29.7,51.2,31.7,49.3,34,47.6z"/>
			</g>
			<g>
				<path d="M34.5,47.6c-2.2,0.7-4.5,1.1-6.7,1.4c-2.3,0.3-4.6,0.5-6.9,0.4c2.2-0.7,4.5-1.1,6.7-1.4C29.9,47.8,32.2,47.5,34.5,47.6z
					"/>
			</g>
			<g>
				<path d="M34.5,47.6c-1.2-0.1-2.4-0.6-3.4-1.1c-1.1-0.5-2.1-1.1-3-2c1.2,0.1,2.4,0.6,3.4,1.1C32.6,46.2,33.6,46.8,34.5,47.6z"/>
			</g>
			<g>
				<path d="M34,47.6c-1.7,0.1-3.4-0.1-5.1-0.3c-1.7-0.3-3.3-0.7-5-1.3c1.7-0.1,3.4,0.1,5.1,0.3C30.7,46.6,32.4,46.9,34,47.6z"/>
			</g>
			<g>
				<path d="M34,47.6c-2.1,1.5-4.4,2.6-6.6,3.8c-2.3,1.1-4.6,2.1-7.1,2.9c2.1-1.5,4.4-2.6,6.6-3.8C29.2,49.4,31.5,48.3,34,47.6z"/>
			</g>
		</g>
	</g>
	<g>
		<path class="st7" d="M60.5,73.9C66.5,74.1,72,73,76,71.2c3.9,2,9.3,3.4,15.4,3.5c7,0.2,13.2-1.3,17.2-3.7l0,0
			c6-2.4,10-6.8,4.7-12.4c-7.9-8.3-9.7-14.2-16.8-16c-8.8-2.2-26.2-1.6-36.8-0.4C49,43.3,48.4,48.3,41.6,53.8
			c-6.8,5.6-3.1,12.9,0.2,14.7l0,0C45.5,71.6,52.6,73.7,60.5,73.9z"/>
		<g>
			<path d="M60.5,73.9c2.6,0,5.3-0.1,7.9-0.6c2.6-0.4,5.2-1.2,7.5-2.3l0.1,0l0.1,0c2.5,1.2,5.2,2,7.9,2.5c2.7,0.5,5.5,0.8,8.3,0.7
				c2.8,0,5.6-0.2,8.3-0.8c2.7-0.6,5.4-1.4,7.8-2.8l0,0l0,0c2.2-0.8,4.4-2,5.9-3.8c0.7-0.9,1.2-2,1.2-3.2c0-1.2-0.5-2.3-1.1-3.3
				c-0.6-1-1.5-1.8-2.3-2.8c-0.8-0.9-1.6-1.8-2.4-2.8l-4.6-5.7c-1.5-1.9-3.2-3.7-5.3-4.9c-2.1-1.2-4.5-1.6-6.9-2
				c-4.8-0.6-9.7-0.7-14.5-0.7c-4.8,0.1-9.7,0.3-14.5,0.7c-2.4,0.2-4.8,0.4-7.2,0.9c-2.3,0.5-4.5,1.4-6.4,2.8
				c-1.9,1.4-3.4,3.3-5.1,5.1c-0.9,0.9-1.7,1.7-2.7,2.5c-0.5,0.4-1,0.8-1.4,1.2c-0.4,0.4-0.8,0.8-1.2,1.3c-1.5,1.8-2.2,4.2-1.7,6.5
				c0.2,1.1,0.6,2.3,1.2,3.3c0.6,1,1.4,1.9,2.4,2.5l0,0l0,0c1.2,1.1,2.6,1.9,4.1,2.6c1.5,0.7,3,1.2,4.6,1.7
				C53.9,73.3,57.2,73.8,60.5,73.9z M60.5,74c-3.3-0.1-6.6-0.4-9.8-1.2c-1.6-0.4-3.2-0.9-4.7-1.5c-1.5-0.6-3-1.4-4.3-2.5l0,0
				c-1.1-0.6-2-1.6-2.7-2.6c-0.7-1.1-1.2-2.2-1.4-3.5c-0.5-2.5,0.2-5.2,1.8-7.2c0.7-1,1.8-1.9,2.7-2.6c0.9-0.8,1.8-1.6,2.6-2.5
				c1.7-1.7,3.2-3.6,5.2-5.2c2-1.6,4.4-2.5,6.8-3c2.4-0.5,4.9-0.6,7.3-0.8c4.9-0.4,9.7-0.6,14.6-0.6c4.9,0,9.8,0.2,14.6,1
				c2.4,0.4,4.9,0.9,7,2.2c2.1,1.3,3.8,3.1,5.3,5c1.5,1.9,3,3.8,4.5,5.7c0.8,0.9,1.6,1.8,2.4,2.7c0.8,0.9,1.7,1.7,2.4,2.8
				c0.7,1,1.2,2.2,1.2,3.5c0,1.3-0.5,2.5-1.2,3.5c-1.5,2-3.8,3.2-6,4.2l0.1,0c-2.5,1.5-5.2,2.4-8,3c-2.8,0.6-5.6,0.9-8.5,0.8
				c-2.8,0-5.7-0.3-8.4-0.9c-2.8-0.6-5.5-1.5-8-2.9l0.2,0c-2.5,1.1-5.1,1.7-7.7,2.1C65.8,73.9,63.1,74,60.5,74z"/>
		</g>
	</g>
	<g>
		<path class="st7" d="M48.7,46.3c0,0-3.4,10.9-11.6,15.4c0,0-3.8,2.6-2.5,5.2c1.4,2.6-9.1,2.3-7.1-5.7c2-8-0.1-20.3,20.1-21.1"/>
		<path d="M48.7,46.3c-0.4,1.6-1,3.1-1.7,4.6c-0.7,1.5-1.5,3-2.5,4.3c-1,1.4-2,2.7-3.2,3.8c-1.2,1.1-2.6,2.2-4.1,2.9l0,0
			c-0.9,0.6-1.7,1.3-2.2,2.2c-0.3,0.4-0.5,0.9-0.5,1.4c0,0.3,0,0.5,0.1,0.7c0.1,0.3,0.2,0.4,0.3,0.8c0.1,0.3-0.1,0.7-0.4,0.9
			c-0.3,0.2-0.5,0.3-0.8,0.4c-0.6,0.1-1.1,0.1-1.7,0c-1.1-0.1-2.2-0.6-3.1-1.3c-0.9-0.7-1.6-1.7-1.8-2.9c-0.3-1.1-0.1-2.3,0.1-3.4
			c0.5-2.1,0.6-4.3,1-6.5c0.4-2.2,0.9-4.4,1.9-6.4c1-2,2.6-3.8,4.6-5c1.9-1.2,4.1-2,6.3-2.4c2.2-0.4,4.4-0.6,6.6-0.5l0,0.1
			c-2.2,0.2-4.4,0.5-6.5,1.1c-2.1,0.6-4.1,1.3-5.9,2.5c-1.8,1.2-3.2,2.8-4.1,4.7c-1,1.9-1.5,4-1.9,6.1c-0.4,2.1-0.7,4.3-1.2,6.5
			c-0.3,1-0.5,2.1-0.3,3.1c0.2,1,0.7,2,1.5,2.7c0.8,0.7,1.8,1.1,2.9,1.3c0.5,0.1,1.1,0.1,1.6,0c0.5-0.1,1-0.4,0.9-0.9
			c0-0.2-0.2-0.5-0.3-0.7c-0.1-0.3-0.1-0.6-0.1-0.9c0-0.6,0.2-1.2,0.5-1.7c0.6-1,1.4-1.8,2.3-2.5l0,0l0,0c1.4-0.8,2.7-1.8,3.8-2.9
			c1.2-1.1,2.2-2.3,3.2-3.6c0.9-1.3,1.8-2.7,2.6-4.1C47.3,49.3,48,47.8,48.7,46.3L48.7,46.3z"/>
	</g>
	<g>
		<path class="st7" d="M100.6,46.1c0,0,4.9,10.3,13.7,13.5c0,0,4.2,2,3.2,4.8c-1,2.8,9.3,0.9,6.2-6.7c-3.2-7.6-2.8-20.1-22.9-18"/>
		<path d="M100.6,46c0.8,1.4,1.8,2.8,2.7,4.1c1,1.3,2.1,2.5,3.2,3.7c1.1,1.2,2.4,2.2,3.7,3.1c1.3,0.9,2.7,1.7,4.2,2.3l0,0l0,0
			c1,0.6,1.9,1.3,2.6,2.2c0.3,0.5,0.6,1,0.7,1.6c0,0.3,0,0.6,0,0.9c0,0.3-0.2,0.6-0.2,0.8c0,0.4,0.5,0.7,1,0.7c0.5,0,1.1,0,1.6-0.2
			c1-0.3,2-0.9,2.7-1.7c0.7-0.8,1.1-1.8,1.1-2.9c0-1.1-0.3-2.1-0.7-3c-0.9-2.1-1.5-4.2-2.2-6.3c-0.7-2.1-1.6-4.1-2.8-5.8
			c-1.2-1.7-2.9-3.1-4.8-4.1c-1.9-0.9-4-1.4-6.2-1.7c-2.2-0.2-4.4-0.2-6.6-0.1l0-0.1c2.2-0.3,4.4-0.5,6.6-0.4
			c2.2,0.1,4.5,0.5,6.5,1.4c2.1,0.9,3.9,2.4,5.2,4.3c1.3,1.9,2.1,4,2.8,6.1c0.7,2.1,1.2,4.3,1.9,6.3c0.4,1,0.7,2.2,0.6,3.4
			c-0.1,1.2-0.6,2.3-1.4,3.1c-0.8,0.8-1.8,1.4-2.9,1.7c-0.5,0.1-1.1,0.2-1.7,0.2c-0.3,0-0.6-0.1-0.9-0.2c-0.3-0.1-0.5-0.5-0.5-0.8
			c0-0.4,0.2-0.6,0.2-0.8c0-0.3,0-0.5,0-0.8c-0.1-0.5-0.4-0.9-0.7-1.3c-0.7-0.8-1.6-1.4-2.5-1.9l0,0c-1.6-0.5-3.1-1.3-4.5-2.3
			c-1.4-1-2.6-2.1-3.7-3.3c-1.1-1.2-2.1-2.5-3.1-3.9C102,49,101.2,47.6,100.6,46L100.6,46z"/>
	</g>
	<path class="st5" d="M119.9,60c-2.5-2.7-6.4-2.8-10.3-4.2c-1.1-1.1-2.1-3.1-1.6-4.5c0.9-0.1,1.7-0.5,2.3-1.2
		c3.7-1.3,5.3-4.2,5.9-7.6c-1-0.8-2.3-1.5-3.7-2c1.1-0.8,3.1-2.6,0.5-2.9c0,0,4.2-8.8-3.7-10.1c0,0-2.4-3.6-4.6-1.3
		c-2.2,2.3-0.6-9.9-8.4-8.4c0,0-3.6-2.7-4.4,0.1c0,0-5.9-3.6-6.6,0.3c0,0-5.5-3.3-5.4,0.3c0,0-2.9-4.8-3.5-1.8c0,0-2.2-2.1-2.8,0.9
		c0,0-1.3-1-1.5,0.6c0,0-4.8-3.8-4.1,0.2c0,0-4.3-4.8-7.3,0.1c0,0-1.9-0.7-2.1,1.3c-0.2,1.9-6.5-2.3-7.8,2.1c0,0-5.5,0.2-4,4.1
		c0,0-3-0.8-3.1,1.8c0,0-5.6-0.4-5.3,3.2c0.3,3.6-5,3.4-2.9,5.4c0,0-5.4,4.2-0.6,5.3c0,0-0.6,1.1-0.6,2.1c-0.4,0.3-0.8,0.6-1.1,1
		c0,0.4,0,0.8,0,1.2c1.3,0,2.6,0.1,3.9,0.1c-2.6-0.1-0.1,2.6-1.4,3.9c3.2,2.2,5.5,0.9,8.4,0.4c0.4,0.1,0.9,0.3,1.4,0.4
		c-3.9,3.5-8.8,5.9-11.4,9.6c-2.7,1.9-2,5,0.3,7.5c0.5-0.2,0.7-0.6,0.4-1.2c-1.4-2.6,2.5-5.2,2.5-5.2c0.3-0.1,0.5-0.3,0.8-0.5
		c0,3.4,2.1,6.3,4,7.3c3.7,3.1,10.8,5.2,18.6,5.4C66.5,74.1,72,73,76,71.2c3.9,2,9.3,3.4,15.4,3.5c7,0.2,13.2-1.3,17.2-3.7
		c4.8-1.9,8.2-5.1,6.9-9c-1.5,2.4-3.5,4.4-6.2,5.6c-10.6,6.3-27.5,7.1-36.4-4.8C70,73.1,58.4,70.2,49.3,70
		c-6.4-1.1-8.8-5.3-9.2-10.4c3-2.5,5.1-5.7,6.5-8.4c1.8,0.2,3.3,0,3.2-1.8c0,0,1.7,2.5,5.2-1.6c0,0,1.6,5.4,4.4,0.5
		c0,0,8.7,6.9,8.6,1.8c-0.1-5.1,2.5,0.5,3.9-3.5c1.3-4.1,2.7,5.6,7.6,2.4c0,0,5.2,4.9,7.3,2c0,0,8,4.3,7.3,0.3c0,0,8.2,5.4,7.5,0.3
		c0,0,2.8,1.8,2.6,0c2.3,3,5.7,6.3,10.1,7.9c0,0,4.2,2,3.2,4.8c-0.4,1.2,1.2,1.5,3,0.9C121,63.5,120.8,61.6,119.9,60z"/>
	<g>
		<path class="st8" d="M46.7,24.9c0,0-3-0.8-3.1,1.8c0,0-5.6-0.4-5.3,3.2c0.3,3.6-5,3.4-2.9,5.4c0,0-5.4,4.2-0.6,5.3
			c0,0-2.4,4.2,2.2,3.7c0,0-0.3,5.9,4.4,4c0,0,8.7,3.9,8.5-0.2c0,0,1.8,2.5,5.2-1.6c0,0,1.6,5.4,4.4,0.5c0,0,8.7,6.9,8.6,1.8
			c-0.1-5.1,2.5,0.5,3.9-3.5c1.3-4.1,2.7,5.6,7.6,2.4c0,0,5.2,4.9,7.3,2c0,0,8,4.3,7.3,0.3c0,0,8.2,5.4,7.5,0.3c0,0,3.4,2.2,2.4-0.6
			c0,0,5.3,1.6,6.6-1.7c0,0,6.2-6,1.1-8.3c0,0,4.6-2.9,1.2-3.3c0,0,4.2-8.8-3.7-10.1c0,0-2.4-3.6-4.6-1.3c-2.2,2.3-0.6-9.9-8.4-8.4
			c0,0-3.6-2.7-4.4,0.1c0,0-5.9-3.6-6.7,0.3c0,0-5.5-3.3-5.4,0.3c0,0-2.9-4.8-3.5-1.8c0,0-2.2-2.1-2.8,0.9c0,0-1.3-1-1.5,0.6
			c0,0-4.8-3.8-4.1,0.2c0,0-4.3-4.8-7.3,0.1c0,0-1.9-0.7-2.1,1.3c-0.2,1.9-6.5-2.3-7.8,2.1C50.7,20.8,45.2,21,46.7,24.9z"/>
		<g>
			<path d="M46.7,25c-0.7-0.1-1.4-0.2-2,0.1c-0.3,0.1-0.6,0.4-0.7,0.7c-0.2,0.3-0.2,0.6-0.2,1l0,0.1l-0.1,0c-1.2,0-2.4,0.1-3.4,0.5
				c-0.5,0.2-1,0.5-1.3,1c-0.3,0.4-0.4,1-0.4,1.5c0.1,0.6,0,1.3-0.3,1.8c-0.3,0.6-0.8,1-1.3,1.4c-0.5,0.4-1,0.6-1.4,1
				c-0.2,0.2-0.3,0.3-0.3,0.5c0,0.2,0.2,0.4,0.4,0.6l0.2,0.2l-0.3,0.2c-0.9,0.8-1.8,1.7-2.3,2.7c-0.2,0.5-0.3,1,0.1,1.4
				c0.3,0.4,0.9,0.6,1.4,0.7l0.5,0.1L35,40.7c-0.2,0.4-0.4,0.9-0.5,1.3c-0.1,0.4-0.1,0.9,0,1.2c0.1,0.3,0.5,0.5,0.9,0.6
				c0.4,0.1,0.9,0.1,1.4,0l0.4,0l0,0.5c0,1.2,0.2,2.5,0.9,3.3c0.3,0.4,0.8,0.6,1.4,0.7c0.5,0,1.1-0.1,1.7-0.3l0.2-0.1l0.2,0.1
				c1.5,0.6,3,1.2,4.6,1.4c0.8,0.1,1.6,0.2,2.3,0.1c0.7-0.1,1.1-0.6,1-1.3l-0.1-1.4l0.9,1.1c0.2,0.3,0.6,0.5,1,0.6
				c0.4,0,0.8-0.1,1.3-0.3c0.8-0.4,1.6-1.1,2.2-1.9l0.5-0.6l0.2,0.7c0.2,0.5,0.4,1,0.6,1.4c0.3,0.4,0.6,0.8,1,0.8
				c0.3,0.1,0.8-0.2,1.1-0.6c0.4-0.4,0.7-0.8,0.9-1.3l0.2-0.4l0.4,0.3c1.8,1.4,3.7,2.7,5.8,3.5c0.5,0.2,1.1,0.3,1.5,0.2
				c0.4-0.1,0.7-0.5,0.8-1c0.1-0.5,0-1.1,0.1-1.7c0-0.3,0.1-0.6,0.3-0.9c0.1-0.2,0.3-0.3,0.5-0.4c0.2-0.1,0.4,0,0.6,0
				c0.6,0.2,1.1,0.4,1.6,0.3c0.4-0.1,0.7-0.6,0.9-1.1c0.1-0.2,0.2-0.5,0.3-0.8c0.1-0.1,0.2-0.3,0.3-0.4c0.1-0.1,0.4-0.2,0.6-0.2
				c0.4,0.1,0.6,0.4,0.7,0.6c0.2,0.2,0.4,0.5,0.5,0.7c0.7,0.9,1.3,1.9,2.3,2.4c0.5,0.3,1,0.4,1.5,0.3c0.5-0.1,1-0.3,1.5-0.6l0.1-0.1
				l0.1,0.1c1,0.9,2.2,1.8,3.4,2.4c0.6,0.3,1.3,0.5,2,0.5c0.7,0,1.3-0.3,1.7-0.8l0.1-0.1l0.1,0.1c1.3,0.7,2.7,1.3,4.1,1.7
				c0.7,0.2,1.4,0.3,2.1,0.2c0.3-0.1,0.6-0.2,0.8-0.5c0.1-0.3,0.1-0.6,0.1-1l-0.1-0.4l0.3,0.2c1.4,0.8,2.8,1.6,4.3,2.1
				c0.7,0.2,1.6,0.4,2.2,0.2c0.7-0.2,0.8-1,0.7-1.8l-0.1-0.5l0.5,0.3c0.5,0.3,1.2,0.6,1.7,0.7c0.1,0,0.3,0,0.3,0
				c0.1,0,0.1-0.1,0.1-0.2c0-0.2-0.1-0.6-0.2-0.9l-0.2-0.5l0.5,0.1c1.2,0.3,2.4,0.5,3.6,0.3c0.6-0.1,1.2-0.2,1.6-0.6
				c0.5-0.3,0.8-0.8,1-1.3l0-0.1l0.1-0.1c1.1-1.2,2.2-2.5,2.7-4c0.3-0.7,0.4-1.5,0.1-2.2c-0.3-0.7-0.9-1.1-1.6-1.5l-0.7-0.3l0.6-0.4
				c0.7-0.5,1.4-1,1.9-1.6c0.3-0.3,0.4-0.7,0.3-0.7c-0.1-0.1-0.5-0.3-0.9-0.3l-0.6-0.1l0.3-0.6c0.4-0.9,0.7-1.9,0.9-2.9
				c0.2-1,0.2-2,0-3c-0.2-1-0.7-1.8-1.5-2.4c-0.8-0.6-1.7-0.9-2.8-1.1l-0.2,0l-0.1-0.2c-0.8-1.2-2.3-2.4-3.3-1.6
				c-0.1,0.1-0.3,0.2-0.4,0.3c-0.1,0.1-0.3,0.4-0.8,0.5c-0.2,0-0.5-0.1-0.7-0.2c-0.2-0.1-0.2-0.3-0.3-0.4c-0.1-0.2-0.2-0.4-0.3-0.6
				c-0.3-0.8-0.4-1.6-0.7-2.4c-0.4-1.5-1-3-2-4.1c-1-1.1-2.5-1.3-4-1l-0.2,0L96,17.1c-0.6-0.5-1.4-0.9-2.2-1c-0.4-0.1-0.7,0-0.9,0.1
				c-0.2,0.1-0.4,0.4-0.5,0.8l-0.2,0.6l-0.6-0.3c-1.1-0.6-2.3-1.2-3.5-1.4c-0.6-0.1-1.2-0.1-1.6,0.1c-0.4,0.2-0.7,0.7-0.8,1.2
				l-0.1,0.7L85,17.5c-0.9-0.5-2-1-3-1.3c-0.5-0.1-1-0.1-1.3,0c-0.3,0.1-0.4,0.6-0.4,1.1l0.1,1.8l-0.9-1.5c-0.4-0.7-1-1.5-1.5-2.1
				c-0.3-0.3-0.7-0.5-0.8-0.5c0,0-0.1,0-0.2,0.1c-0.1,0.1-0.1,0.3-0.2,0.5l-0.2,0.7L76,15.9c-0.4-0.4-1-0.7-1.3-0.6
				c-0.4,0.1-0.6,0.7-0.7,1.3l-0.1,0.6l-0.5-0.4c-0.2-0.2-0.5-0.3-0.6-0.2c-0.1,0-0.2,0.2-0.3,0.5l-0.1,0.6l-0.5-0.4
				c-0.8-0.6-1.6-1.2-2.5-1.5c-0.4-0.1-0.9-0.2-1,0.1c-0.2,0.3-0.1,0.8-0.1,1.3l0.2,1.1l-0.8-0.8c-0.9-1-2.2-1.9-3.5-2
				c-0.7-0.1-1.3,0.1-1.9,0.5c-0.6,0.4-1,0.9-1.4,1.5l-0.1,0.2l-0.2-0.1c-0.4-0.1-0.9-0.2-1.2,0c-0.3,0.2-0.5,0.6-0.6,1.1
				c-0.1,0.4-0.5,0.6-0.8,0.6c-0.3,0-0.6,0-0.8,0c-0.5-0.1-1-0.2-1.5-0.3c-1-0.2-2-0.4-2.9-0.2c-0.9,0.2-1.7,0.9-1.9,1.9l0,0.1
				l-0.1,0c-1.1,0.1-2.3,0.3-3.2,0.9c-0.5,0.3-0.8,0.8-0.9,1.3C46.4,23.8,46.5,24.4,46.7,25L46.7,25L46.7,25z M46.6,24.8
				c-0.2-0.5-0.3-1.1-0.2-1.7c0.1-0.6,0.5-1.1,1-1.5c0.5-0.4,1-0.6,1.6-0.7c0.6-0.2,1.1-0.3,1.7-0.3l-0.1,0.1c0.1-0.5,0.4-1,0.7-1.4
				c0.4-0.4,0.9-0.7,1.4-0.8c1-0.2,2.1-0.1,3.1,0.1c0.5,0.1,1,0.2,1.5,0.2c0.5,0.1,1,0,1-0.2c0-0.4,0.2-1.1,0.8-1.5
				c0.6-0.3,1.1-0.3,1.7-0.1l-0.3,0.1c0.4-0.6,0.9-1.3,1.5-1.7c0.6-0.5,1.5-0.7,2.3-0.7c0.8,0,1.5,0.3,2.2,0.7
				c0.7,0.4,1.2,0.9,1.8,1.4l-0.6,0.3c-0.1-0.5-0.2-1.1,0.1-1.7c0.2-0.3,0.6-0.5,0.9-0.5c0.3,0,0.6,0,0.9,0.1
				c1.1,0.4,1.9,0.9,2.8,1.6L71.7,17c0-0.2,0.1-0.4,0.2-0.6c0.1-0.2,0.3-0.4,0.6-0.5c0.3-0.1,0.5,0,0.8,0c0.2,0.1,0.4,0.2,0.6,0.3
				l-0.6,0.2c0.1-0.3,0.2-0.7,0.3-1c0.2-0.3,0.5-0.7,0.9-0.9c0.5-0.1,0.9,0,1.3,0.1c0.4,0.2,0.6,0.4,0.9,0.6l-0.7,0.2
				c0.1-0.2,0.1-0.5,0.3-0.8c0.1-0.3,0.5-0.6,0.9-0.6c0.8,0.1,1.1,0.5,1.5,0.8c0.7,0.7,1.2,1.4,1.7,2.2l-0.9,0.3c0-0.3,0-0.7,0.1-1
				c0.1-0.4,0.4-0.7,0.7-0.9c0.7-0.4,1.4-0.3,2-0.2c1.2,0.3,2.3,0.8,3.3,1.4L84.8,17c0.1-0.7,0.5-1.6,1.3-2c0.8-0.4,1.6-0.4,2.3-0.2
				c0.7,0.1,1.4,0.3,2,0.6c0.6,0.3,1.2,0.6,1.8,0.9l-0.8,0.3c0.1-0.5,0.4-1,0.9-1.4c0.5-0.3,1.2-0.4,1.7-0.3c0.5,0.1,1,0.3,1.4,0.5
				c0.4,0.2,0.8,0.5,1.2,0.7l-0.4-0.1c0.8-0.2,1.7-0.2,2.6,0c0.9,0.2,1.7,0.7,2.3,1.3c1.3,1.3,1.8,3,2.3,4.5
				c0.2,0.8,0.4,1.6,0.6,2.3c0.1,0.2,0.1,0.3,0.2,0.5c0,0.1,0.1,0.1,0.1,0.1c0,0-0.1,0-0.1,0c-0.1,0.1,0.4-0.4,0.8-0.6
				c0.4-0.3,0.9-0.4,1.5-0.4c0.5,0,1,0.2,1.4,0.5c0.8,0.5,1.4,1.1,1.9,1.8l-0.3-0.2c1.1,0.2,2.2,0.5,3.2,1.3c1,0.7,1.6,1.8,1.8,2.9
				c0.2,1.1,0.2,2.3,0,3.4c-0.2,1.1-0.5,2.1-1,3.2L113,36c0.2,0,0.5,0.1,0.7,0.2c0.2,0.1,0.5,0.2,0.8,0.5c0.2,0.3,0.2,0.8,0.1,1
				c-0.1,0.3-0.3,0.5-0.4,0.7c-0.6,0.7-1.4,1.2-2.1,1.7l0-0.7c0.8,0.4,1.6,1,2,1.9c0.4,0.9,0.2,1.9-0.1,2.7
				c-0.3,0.8-0.8,1.6-1.3,2.3c-0.5,0.7-1.1,1.4-1.7,2l0.1-0.1c-0.2,0.6-0.7,1.2-1.3,1.6c-0.6,0.4-1.2,0.5-1.9,0.6
				c-1.3,0.1-2.6,0-3.8-0.4l0.3-0.4c0.1,0.3,0.2,0.7,0.2,1.1c0,0.2-0.2,0.5-0.4,0.6c-0.2,0.1-0.5,0.1-0.6,0.1
				c-0.7-0.1-1.3-0.5-1.9-0.9l0.4-0.2c0.1,0.4,0.1,0.9-0.1,1.3c-0.1,0.4-0.5,0.9-1,1c-0.9,0.3-1.7,0-2.5-0.3c-1.6-0.5-3-1.3-4.4-2.2
				l0.3-0.2c0.1,0.4,0.1,0.8-0.1,1.2c-0.2,0.4-0.6,0.6-1,0.7c-0.8,0.1-1.5-0.1-2.3-0.3c-1.4-0.4-2.8-1-4.1-1.7l0.2,0
				c-0.4,0.6-1.2,1-1.9,1c-0.7,0-1.4-0.2-2.1-0.5c-1.3-0.6-2.4-1.5-3.5-2.4l0.2,0c-0.5,0.3-1,0.6-1.7,0.7c-0.6,0.1-1.2-0.1-1.8-0.3
				c-1.1-0.6-1.8-1.6-2.4-2.5c-0.2-0.2-0.3-0.5-0.5-0.7c-0.2-0.2-0.4-0.4-0.5-0.5c-0.1-0.1-0.3,0.1-0.4,0.4
				c-0.1,0.2-0.2,0.5-0.3,0.8c-0.2,0.5-0.5,1.2-1.2,1.4c-0.7,0.2-1.3-0.2-1.8-0.3c-0.3,0-0.4,0-0.5,0.2c-0.1,0.2-0.2,0.5-0.2,0.7
				c-0.1,0.5,0,1.1-0.1,1.7c0,0.3-0.1,0.6-0.3,0.9c-0.2,0.3-0.5,0.5-0.9,0.6c-0.7,0.2-1.3,0-1.9-0.2c-1.1-0.4-2.2-0.9-3.2-1.5
				c-1-0.6-1.9-1.3-2.9-2l0.6-0.1c-0.3,0.5-0.6,1-1,1.4c-0.4,0.4-1,0.9-1.8,0.8c-0.8-0.1-1.2-0.7-1.6-1.2c-0.3-0.5-0.6-1-0.8-1.6
				l0.7,0.2c-0.7,0.8-1.5,1.6-2.5,2.1c-0.5,0.3-1.1,0.4-1.8,0.4c-0.6-0.1-1.2-0.4-1.6-0.9l0.8-0.3c0,0.5-0.1,1-0.4,1.5
				c-0.3,0.4-0.9,0.7-1.3,0.8c-0.9,0.2-1.8,0.1-2.6-0.1c-1.7-0.3-3.2-0.9-4.8-1.5l0.3,0c-0.6,0.2-1.3,0.4-2,0.4
				c-0.7,0-1.5-0.4-1.9-1c-0.5-0.6-0.7-1.2-0.9-1.9c-0.1-0.7-0.2-1.3-0.2-2l0.4,0.4c-0.5,0.1-1.1,0.1-1.6,0c-0.5-0.1-1.2-0.4-1.4-1
				c-0.3-0.6-0.2-1.2-0.1-1.7c0.1-0.5,0.3-1,0.6-1.5l0.2,0.5c-0.6-0.2-1.3-0.4-1.8-0.9c-0.3-0.3-0.4-0.7-0.4-1.1
				c0-0.4,0.1-0.7,0.2-1c0.3-0.6,0.7-1.1,1.1-1.6c0.4-0.5,0.9-0.9,1.4-1.3l0,0.4c-0.2-0.2-0.5-0.5-0.6-0.9c0-0.2,0-0.5,0.1-0.6
				c0.1-0.2,0.2-0.3,0.4-0.4c0.5-0.4,1-0.6,1.5-1c0.5-0.3,0.9-0.7,1.2-1.2c0.3-0.5,0.4-1,0.3-1.6c0-0.6,0.1-1.3,0.5-1.8
				c0.4-0.5,0.9-0.8,1.5-1.1c1.1-0.4,2.4-0.5,3.6-0.4l-0.1,0.1c0-0.4,0.1-0.7,0.3-1.1c0.2-0.3,0.5-0.6,0.8-0.7
				C45.3,24.6,46,24.7,46.6,24.8z"/>
		</g>
	</g>
	<path class="st9" d="M111.8,39.7c0,0,4.6-2.9,1.2-3.3c0,0,4.2-8.8-3.7-10.1c0,0-2.4-3.6-4.6-1.3c-2.2,2.3-0.6-9.9-8.4-8.4
		c0,0-3.6-2.7-4.4,0.1c0,0-0.1-0.1-0.3-0.2c-1.1,1.1-3,1.3-2,2.3c2.6,0.1,6.5,1.5,10.4,1.6c1.3,1.3-1.4,3.9-1.4,5.2
		c1.3-1.3,2.6,1.4,3.9,1.4c0,1.3-1.4,2.6-2.7,2.5c1.3,0,2.6,0.1,3.9,0.1c2.5,4,3.7,7.9,1,11.8c-1.4,2.6-6.6,2.4-10.4-1.6
		c1.2,3.9-2.8,7.7-6.7,6.4c-2.5-2.7-6.4-4.1-6.3-8c-2.6-0.1-1.4,3.9-4,3.8c-3.9,1.2-6.4-2.8-9-4.1c-2.6-0.1-1.4,2.6-2.7,3.8
		c-3.9,1.2-7.7-2.8-10.4-1.6c-6,3.4-15.2,4.6-20.7,0.7c-0.5,1-1.4,3.8,2.3,3.4c0,0-0.3,5.9,4.4,4c0,0,8.7,3.9,8.5-0.2
		c0,0,1.8,2.5,5.2-1.6c0,0,1.6,5.4,4.4,0.5c0,0,8.7,6.9,8.6,1.8c-0.1-5.1,2.5,0.5,3.9-3.5c1.3-4.1,2.7,5.6,7.6,2.4
		c0,0,5.2,4.9,7.3,2c0,0,8,4.3,7.3,0.3c0,0,8.2,5.4,7.5,0.3c0,0,3.4,2.2,2.4-0.6c0,0,5.3,1.6,6.6-1.7
		C110.7,48.1,116.9,42,111.8,39.7z"/>
	<g>
		<path class="st8" d="M33.5,83.2c3.6,3.1,3.8-1.3,3.8-1.3c3.3,0.6,1.2-2.4,1.2-2.4c3.1,0.8,2.6-2.9,2.6-2.9
			c2.3-0.4,1.5-2.1,1.5-2.1c4.7-0.9,1.2-4.7,1.2-4.7s1.5-2.2-1.9-1.4"/>
		<path d="M33.5,83.2c0.4,0.2,0.8,0.5,1.2,0.7c0.4,0.2,0.9,0.2,1.2,0.1c0.6-0.2,0.9-1.3,0.9-2.1l0-0.5l0.5,0.1
			c0.3,0.1,0.6,0.1,0.9,0.1c0.3,0,0.4-0.1,0.5-0.2c0.1-0.2,0-0.5,0-0.8c-0.1-0.3-0.2-0.6-0.4-0.9l-0.3-0.5l0.5,0.2
			c0.4,0.1,0.8,0.2,1.1,0.1c0.4-0.1,0.7-0.3,0.9-0.6c0.4-0.6,0.3-1.5,0.2-2.2l-0.1-0.3l0.3-0.1c0.5-0.1,0.9-0.3,1.1-0.6
			c0.1-0.1,0.1-0.3,0.1-0.5c0-0.2-0.1-0.4-0.1-0.5l-0.3-0.6l0.6-0.1c0.5-0.1,1-0.3,1.3-0.5c0.4-0.2,0.6-0.5,0.7-0.9
			c0.1-0.4-0.1-0.8-0.2-1.3c-0.2-0.4-0.5-0.9-0.8-1.3l-0.2-0.3l0.2-0.2c0.1-0.2,0.3-0.4,0.3-0.6c0-0.2,0-0.3-0.2-0.4
			c-0.5-0.2-1.1-0.1-1.7-0.1l0-0.1c0.3-0.1,0.6-0.2,0.9-0.3c0.3-0.1,0.6-0.1,1,0c0.2,0,0.4,0.1,0.5,0.3c0.2,0.2,0.2,0.4,0.2,0.6
			c0,0.4-0.1,0.7-0.3,1l0-0.5c0.4,0.4,0.7,0.9,1,1.4c0.3,0.5,0.5,1.1,0.4,1.8c-0.1,0.7-0.6,1.3-1.2,1.6c-0.6,0.3-1.1,0.4-1.7,0.5
			l0.3-0.7c0.1,0.3,0.2,0.6,0.2,1c0,0.3-0.2,0.7-0.4,1c-0.5,0.5-1.1,0.7-1.6,0.7l0.3-0.4c0,0.4,0,0.9-0.1,1.3
			c-0.1,0.4-0.2,0.8-0.5,1.2c-0.3,0.4-0.7,0.6-1.1,0.7c-0.4,0.1-0.9,0-1.3-0.1l0.2-0.3c0.2,0.3,0.4,0.6,0.6,0.9
			c0.1,0.3,0.3,0.7,0.2,1.2c-0.1,0.2-0.2,0.5-0.5,0.6c-0.2,0.1-0.4,0.2-0.6,0.2c-0.4,0.1-0.8,0-1.1-0.1l0.5-0.4c0,0.5-0.2,1-0.4,1.5
			c-0.2,0.5-0.6,1-1.2,1.2c-0.6,0.1-1.2-0.1-1.6-0.4C34.1,83.9,33.8,83.6,33.5,83.2L33.5,83.2z"/>
	</g>
	<g>
		<path class="st8" d="M115.8,88.7c-4.7-0.9-2.6,3-2.6,3c-3.2,1.1,0.1,2.6,0.1,2.6c-3.1,0.8-0.8,3.8-0.8,3.8
			c-1.8,1.5-0.2,2.6-0.2,2.6c-3.6,3.1,1.3,4.7,1.3,4.7s-0.2,2.6,2.3,0.2"/>
		<path d="M115.8,88.8c-0.5,0-1,0-1.4,0c-0.4,0.1-0.9,0.2-1.1,0.5c-0.4,0.5-0.1,1.5,0.2,2.2l0.2,0.5l-0.5,0.2
			c-0.3,0.1-0.6,0.2-0.8,0.4c-0.2,0.2-0.3,0.3-0.3,0.4c0,0.2,0.2,0.5,0.4,0.7c0.2,0.2,0.5,0.4,0.8,0.6l0.5,0.3l-0.5,0.1
			c-0.4,0.1-0.7,0.2-1,0.4c-0.3,0.2-0.5,0.6-0.5,0.9c0,0.7,0.4,1.4,0.9,2l0.2,0.2l-0.2,0.2c-0.3,0.3-0.6,0.7-0.6,1.1
			c0,0.2,0,0.3,0.1,0.5c0.1,0.1,0.2,0.3,0.4,0.4l0.5,0.3l-0.5,0.4c-0.4,0.3-0.7,0.7-0.9,1.1c-0.2,0.4-0.3,0.7-0.1,1.1
			c0.1,0.4,0.5,0.7,0.8,1c0.4,0.3,0.8,0.6,1.3,0.7l0.3,0.1l0,0.3c0,0.2,0,0.5,0,0.7c0.1,0.2,0.1,0.2,0.4,0.2c0.5-0.1,1-0.4,1.5-0.8
			l0.1,0.1c-0.2,0.2-0.4,0.5-0.6,0.7c-0.2,0.2-0.5,0.4-0.8,0.5c-0.2,0.1-0.4,0.1-0.6,0c-0.2-0.1-0.4-0.3-0.5-0.4
			c-0.2-0.4-0.2-0.7-0.2-1l0.3,0.4c-0.6-0.2-1.1-0.4-1.6-0.7c-0.5-0.3-1-0.7-1.3-1.4c-0.3-0.7-0.1-1.5,0.2-2
			c0.3-0.5,0.8-0.9,1.2-1.3l0,0.8c-0.3-0.2-0.5-0.5-0.6-0.8c-0.2-0.3-0.2-0.7-0.1-1c0.2-0.7,0.6-1.1,1-1.4l0,0.5
			c-0.2-0.4-0.4-0.8-0.6-1.2c-0.1-0.4-0.2-0.8-0.2-1.3c0-0.4,0.3-0.9,0.6-1.1c0.3-0.3,0.7-0.4,1.1-0.6l0,0.4c-0.3-0.1-0.6-0.3-1-0.5
			c-0.3-0.2-0.6-0.5-0.8-0.9c-0.1-0.2,0-0.5,0.1-0.8c0.1-0.2,0.3-0.4,0.5-0.5c0.3-0.3,0.7-0.4,1-0.5l-0.3,0.6
			c-0.2-0.5-0.4-1-0.4-1.5c0-0.5,0-1.2,0.5-1.6c0.5-0.4,1.1-0.5,1.6-0.5C114.8,88.4,115.3,88.5,115.8,88.8L115.8,88.8z"/>
	</g>
	<g>
		<path class="st8" d="M37.4,109.9c4.7-0.5,1.6-3.7,1.6-3.7c2.7-2-0.9-2.5-0.9-2.5c2.8-1.7-0.3-3.8-0.3-3.8c1.3-2-0.5-2.5-0.5-2.5
			c2.6-4-2.6-4.1-2.6-4.1s-0.6-2.6-2.3,0.5"/>
		<path d="M37.4,109.8c0.5-0.1,0.9-0.2,1.3-0.5c0.4-0.2,0.8-0.5,0.9-0.8c0.2-0.6-0.3-1.5-0.9-2.1l-0.3-0.4l0.4-0.3
			c0.3-0.2,0.5-0.4,0.7-0.6c0.2-0.2,0.3-0.4,0.2-0.5c-0.1-0.2-0.3-0.4-0.6-0.5c-0.3-0.1-0.6-0.3-0.9-0.3l-0.5-0.1l0.4-0.2
			c0.3-0.2,0.6-0.4,0.9-0.7c0.2-0.3,0.3-0.7,0.2-1c-0.2-0.7-0.8-1.3-1.5-1.6l-0.2-0.2l0.2-0.3c0.2-0.4,0.4-0.9,0.3-1.2
			c0-0.2-0.1-0.3-0.2-0.4c-0.1-0.1-0.3-0.2-0.5-0.3l-0.6-0.2l0.3-0.5c0.3-0.4,0.5-0.9,0.6-1.3c0.1-0.4,0-0.8-0.2-1.1
			c-0.2-0.3-0.6-0.5-1.1-0.7c-0.4-0.2-1-0.3-1.4-0.3l-0.3,0l-0.1-0.3c0-0.2-0.1-0.5-0.2-0.7c-0.1-0.2-0.2-0.2-0.4-0.1
			c-0.4,0.2-0.8,0.7-1.2,1.2l-0.1-0.1c0.1-0.3,0.2-0.6,0.4-0.8c0.2-0.3,0.3-0.5,0.6-0.7c0.1-0.1,0.3-0.2,0.6-0.2
			c0.2,0,0.5,0.1,0.6,0.3c0.3,0.3,0.4,0.6,0.5,0.9l-0.4-0.3c0.6,0,1.1,0.1,1.7,0.2c0.6,0.1,1.2,0.4,1.6,1c0.5,0.6,0.5,1.4,0.4,2
			c-0.2,0.6-0.5,1.1-0.8,1.6l-0.3-0.7c0.3,0.1,0.6,0.3,0.8,0.5c0.2,0.2,0.4,0.6,0.4,0.9c0.1,0.7-0.3,1.3-0.6,1.7L38,99.6
			c0.3,0.3,0.6,0.6,0.9,0.9c0.2,0.3,0.5,0.7,0.5,1.2c0.1,0.4,0,0.9-0.3,1.3c-0.2,0.4-0.6,0.6-0.9,0.9l-0.1-0.3
			c0.4,0,0.7,0.1,1.1,0.2c0.3,0.1,0.7,0.2,1,0.7c0.1,0.2,0.2,0.5,0.2,0.8c0,0.3-0.2,0.5-0.3,0.6c-0.2,0.3-0.5,0.6-0.8,0.8l0.1-0.7
			c0.4,0.4,0.6,0.8,0.9,1.3c0.2,0.5,0.3,1.1,0,1.7c-0.3,0.6-0.9,0.8-1.4,0.9C38.4,109.9,37.9,109.9,37.4,109.8L37.4,109.8z"/>
	</g>
	<g>
		<path class="st1" d="M104.2,59.4c-0.1,2.3-2,4.1-4.3,4c-2.3-0.1-4.1-2-4-4.3c0.1-2.3,2-4.1,4.3-4.1
			C102.5,55.2,104.3,57.1,104.2,59.4z"/>
		<path d="M103.2,59.4c-0.1,2.3-2,4.1-4.3,4.1c-2.3-0.1-4.1-2-4.1-4.3c0.1-2.3,2-4.1,4.3-4C101.4,55.2,103.2,57.1,103.2,59.4z"/>
		<path class="st8" d="M97.7,58.5c0,0.4-0.3,0.7-0.7,0.7c-0.4,0-0.7-0.3-0.7-0.7c0-0.4,0.3-0.7,0.7-0.7
			C97.4,57.8,97.7,58.1,97.7,58.5z"/>
	</g>
	<g>
		<path class="st1" d="M58.9,58.3c-0.1,2.3-2,4.1-4.3,4c-2.3-0.1-4.1-2-4-4.3c0.1-2.3,2-4.1,4.3-4.1C57.1,54.1,58.9,56,58.9,58.3z"
			/>
		<path d="M57.8,58.3c-0.1,2.3-2,4.1-4.3,4c-2.3-0.1-4.1-2-4.1-4.3c0.1-2.3,2-4.1,4.3-4.1C56.1,54.1,57.9,56,57.8,58.3z"/>
		<path class="st8" d="M52.3,57.4c0,0.4-0.3,0.7-0.7,0.7c-0.4,0-0.7-0.3-0.7-0.7c0-0.4,0.3-0.7,0.7-0.7C52,56.7,52.3,57,52.3,57.4z"
			/>
	</g>
	<path class="st6" d="M39.8,63.9c-0.1,1.5,3.4,2.9,7.7,3.2c4.4,0.3,8-0.6,8.1-2.1c0.1-1.5-3.4-2.9-7.7-3.2
		C43.5,61.5,39.9,62.4,39.8,63.9z"/>
	<path class="st8" d="M39.9,62.1c0,0.5,1.1,0.9,2.5,1c1.4,0.1,2.6-0.2,2.6-0.7c0-0.5-1.1-0.9-2.5-1C41.1,61.3,39.9,61.6,39.9,62.1z"
		/>
	<path class="st6" d="M112,65.5c0,1.5-3.5,2.7-7.9,2.8c-4.4,0.1-8-1-8-2.5c0-1.5,3.5-2.7,7.9-2.8C108.4,62.9,111.9,64.1,112,65.5z"
		/>
	<path class="st8" d="M111.9,63.7c0,0.5-1.1,0.9-2.5,0.9c-1.4,0-2.6-0.3-2.6-0.8c0-0.5,1.1-0.9,2.5-0.9
		C110.8,62.9,111.9,63.3,111.9,63.7z"/>
	<path d="M80,65.6c0,1.4-2.1,4.7-4.5,4.6c-2.4-0.1-4.3-3.4-4.2-4.8c0-1.4,2-1.4,4.4-1.3C78.1,64.1,80.1,64.2,80,65.6z"/>
	
		<ellipse transform="matrix(0.9997 2.468674e-002 -2.468674e-002 0.9997 1.6299 -1.804)" class="st8" cx="73.9" cy="65.1" rx="1" ry="0.4"/>
	<path class="st6" d="M109.3,99.8c0.1,1.3-3,2.5-6.9,2.8c-3.9,0.3-7.1-0.6-7.2-1.9c-0.1-1.3,3-2.5,6.9-2.8
		C106,97.7,109.2,98.5,109.3,99.8z"/>
	<path class="st8" d="M109.2,98.2c0,0.4-1,0.8-2.2,0.9c-1.2,0.1-2.3-0.2-2.3-0.6c0-0.4,1-0.8,2.2-0.9
		C108.1,97.5,109.2,97.8,109.2,98.2z"/>
	<path class="st6" d="M38.8,101.4c0,1.3,3.1,2.4,7,2.5c3.9,0.1,7.1-0.9,7.1-2.2c0-1.3-3.1-2.4-7-2.5C42,99.1,38.8,100.1,38.8,101.4z
		"/>
	<path class="st8" d="M38.8,99.8c0,0.4,1,0.8,2.2,0.8c1.2,0,2.3-0.3,2.3-0.7c0-0.4-1-0.8-2.2-0.8C39.9,99.1,38.9,99.4,38.8,99.8z"/>
	<path class="st9" d="M66.5,120.4c0,0,11.2,2.2,20.5-0.1C87,120.3,79,128.6,66.5,120.4z"/>
	<g>
		<circle cx="49.9" cy="94.7" r="4.5"/>
		<circle class="st8" cx="47.2" cy="93.3" r="0.9"/>
	</g>
	<g>
		<circle cx="97.6" cy="94.2" r="4.5"/>
		<circle class="st8" cx="94.9" cy="92.7" r="0.9"/>
	</g>
	<g>
		<path d="M64.1,102.6c1.9,0.6,3.8,0.9,5.7,1.2c1.9,0.2,3.8,0.3,5.8,0.3c3.9-0.1,7.7-0.8,11.5-1.7c-3.6,1.7-7.5,2.6-11.5,2.7
			c-2,0-4-0.1-5.9-0.5C67.7,104.2,65.8,103.6,64.1,102.6z"/>
	</g>
	<path d="M86.2,143.6c0,0-11.6,32.9,7.6,2.7L86.2,143.6z"/>
	<g>
		<path class="st8" d="M86.6,121.9c0,0,4.4,0.1,3.4,2.3c0,0,4.3,1.7,3.2,3.7c0,0,3.2,1,0.2,3.6c0,0,2.7,0.2,1.8,2.2
			c0,0,3.8,0.5,2.5,3.5c-1.3,3,2.7,2.5-0.6,5.9c0,0,1.3,2.8-1,3.4c0,0,0.6,2.5-1.4,2.4c-2-0.2-0.4,4.5-3.7,2.7c0,0-2.7,2.2-3.4-0.6
			c0,0-2.6,0.7-2.4-0.7c0.2-1.5-3.7,0-1.6-3.4c0,0-3.2-1.6-1-3.9c2.2-2.3-2.7-5.7,0.9-6.6c0,0-1.3-2.4,0.3-2.4c0,0-0.9-2.2,0.6-2
			c0,0-0.7-2.5,0.3-2.5"/>
		<path d="M86.6,121.8c0.8,0,1.6,0.1,2.5,0.3c0.4,0.1,0.8,0.3,1.1,0.7c0.3,0.4,0.2,1,0.1,1.4l-0.1-0.4c0.9,0.3,1.7,0.8,2.5,1.4
			c0.4,0.3,0.7,0.7,1,1.2c0.3,0.5,0.3,1.2,0,1.7l-0.2-0.6c0.4,0.2,0.8,0.4,1.2,0.7c0.4,0.3,0.6,0.9,0.6,1.4c0,0.5-0.3,1-0.5,1.3
			c-0.3,0.4-0.6,0.7-0.9,0.9l-0.3-0.8c0.4,0,0.6,0.1,1,0.2c0.3,0.1,0.6,0.3,0.9,0.5c0.3,0.3,0.5,0.7,0.5,1.1c0,0.4-0.1,0.7-0.2,1
			l-0.3-0.6c0.6,0.1,1,0.2,1.5,0.5c0.5,0.3,0.9,0.6,1.2,1.1c0.3,0.5,0.3,1.1,0.2,1.7c-0.1,0.3-0.2,0.5-0.3,0.8
			c-0.1,0.2-0.2,0.4-0.2,0.6c-0.1,0.4-0.1,0.9,0.2,1.3c0.2,0.4,0.6,0.8,0.7,1.3c0.1,0.6-0.2,1.1-0.4,1.5c-0.3,0.4-0.6,0.8-1,1.1
			l0-0.2c0.3,0.7,0.5,1.4,0.4,2.1c-0.1,0.4-0.2,0.7-0.5,1c-0.3,0.3-0.6,0.5-1,0.6l0.1-0.2c0.1,0.4,0.1,0.8,0.1,1.2
			c0,0.4-0.2,0.8-0.5,1.2c-0.3,0.3-0.9,0.4-1.2,0.3c-0.3,0-0.5,0.2-0.6,0.5c-0.3,0.6-0.2,1.4-0.7,2.2c-0.1,0.2-0.3,0.4-0.6,0.5
			c-0.3,0.1-0.5,0.1-0.7,0.1c-0.5-0.1-0.8-0.2-1.2-0.4l0.4,0c-0.3,0.3-0.6,0.5-1,0.6c-0.4,0.2-0.8,0.3-1.2,0.3c-0.5,0-1-0.2-1.3-0.6
			c-0.3-0.4-0.5-0.8-0.6-1.2l0.6,0.3c-0.7,0.2-1.4,0.4-2.3,0.1c-0.2-0.1-0.5-0.3-0.6-0.5c-0.1-0.3-0.1-0.6-0.1-0.8c0,0,0-0.1,0-0.1
			c0-0.1,0,0,0,0c0,0,0,0,0,0c0,0-0.1-0.1-0.2-0.1c-0.2-0.1-0.6-0.1-0.9-0.3c-0.2-0.1-0.4-0.1-0.6-0.3c-0.2-0.1-0.4-0.4-0.5-0.7
			c-0.1-0.5,0-1,0.1-1.3c0.1-0.4,0.3-0.7,0.5-1l0.2,0.7c-0.5-0.3-1-0.6-1.4-1.1c-0.4-0.5-0.7-1.1-0.7-1.8c0-0.7,0.4-1.3,0.8-1.7
			c0.2-0.2,0.3-0.3,0.4-0.5c0.1-0.2,0.2-0.4,0.2-0.6c0.1-0.8-0.4-1.8-0.7-2.8c-0.2-0.5-0.4-1.1-0.1-1.8c0.2-0.3,0.4-0.6,0.7-0.7
			c0.3-0.1,0.6-0.2,0.8-0.3l-0.2,0.5c-0.2-0.5-0.4-1-0.5-1.5c0-0.3,0-0.6,0.2-0.9c0.3-0.3,0.6-0.4,0.9-0.3l-0.3,0.4
			c-0.2-0.4-0.3-0.9-0.3-1.4c0-0.2,0.1-0.5,0.3-0.7c0.3-0.2,0.6-0.2,0.8-0.1l-0.2,0.2c-0.1-0.5-0.2-0.9-0.2-1.4c0-0.2,0-0.5,0.1-0.7
			c0.1-0.2,0.3-0.5,0.6-0.4l0,0.1c-0.2,0-0.4,0.2-0.4,0.4c0,0.2,0,0.4,0,0.7c0,0.4,0.1,0.9,0.3,1.3l0.1,0.2l-0.3,0
			c-0.2,0-0.4,0-0.5,0.1c-0.1,0.1-0.1,0.3-0.1,0.4c0,0.4,0.1,0.8,0.3,1.2l0.1,0.4l-0.4,0c-0.2,0-0.4,0.1-0.4,0.2
			c-0.1,0.1-0.1,0.3-0.1,0.5c0.1,0.4,0.3,0.9,0.5,1.3l0.2,0.4l-0.5,0.1c-0.5,0.1-0.9,0.3-1,0.6c-0.1,0.3,0,0.8,0.2,1.2
			c0.3,0.9,1,1.9,0.9,3.2c0,0.3-0.1,0.6-0.3,0.9c-0.1,0.3-0.4,0.6-0.5,0.7c-0.3,0.3-0.5,0.7-0.5,1.1c-0.1,0.7,0.7,1.5,1.5,1.9
			l0.5,0.3l-0.3,0.5c-0.2,0.3-0.3,0.5-0.4,0.8c-0.1,0.3-0.1,0.5-0.1,0.6c0,0.1,0.1,0.2,0.4,0.3c0.3,0.1,0.6,0.1,1,0.3
			c0.2,0.1,0.4,0.2,0.6,0.4c0.2,0.2,0.2,0.7,0.2,0.9c0,0.2,0,0.2,0.1,0.3c0.4,0.1,1.1,0.1,1.6-0.1l0.5-0.1L88,151
			c0.1,0.3,0.2,0.6,0.4,0.8c0.2,0.2,0.4,0.3,0.6,0.3c0.5,0,1.2-0.3,1.7-0.7l0.2-0.2l0.2,0.1c0.3,0.2,0.6,0.3,0.9,0.4
			c0.3,0,0.5,0,0.6-0.2c0.3-0.5,0.4-1.3,0.8-2c0.1-0.2,0.2-0.4,0.4-0.5c0.1-0.1,0.2-0.1,0.3-0.2c0.1,0,0.3,0,0.3,0
			c0.4,0,0.7,0,0.9-0.2c0.5-0.4,0.5-1.2,0.4-1.9l0-0.2l0.2,0c0.3-0.1,0.6-0.2,0.8-0.4c0.2-0.2,0.3-0.5,0.4-0.8
			c0.1-0.6-0.1-1.3-0.3-1.9l0-0.1l0.1-0.1c0.3-0.3,0.7-0.7,0.9-1.1c0.3-0.4,0.4-0.8,0.3-1.2c-0.1-0.4-0.4-0.8-0.7-1.2
			c-0.3-0.4-0.4-1-0.3-1.6c0-0.3,0.1-0.5,0.2-0.8c0.1-0.2,0.1-0.4,0.2-0.6c0.1-0.4,0-0.9-0.2-1.2c-0.4-0.7-1.4-1-2.3-1.2l-0.5-0.1
			l0.2-0.5c0.2-0.5,0.2-0.9-0.1-1.1c-0.3-0.3-0.8-0.4-1.3-0.5l-1.1-0.1l0.8-0.7c0.6-0.5,1.1-1.1,1.2-1.6c0-0.3-0.1-0.5-0.3-0.7
			c-0.2-0.2-0.6-0.4-0.9-0.5l-0.4-0.2l0.2-0.4c0.2-0.3,0.2-0.6,0-1c-0.1-0.3-0.4-0.7-0.7-0.9c-0.6-0.6-1.4-1-2.2-1.4l-0.3-0.1
			l0.1-0.2c0.2-0.3,0.2-0.7,0-0.9c-0.2-0.3-0.5-0.5-0.9-0.7C88.2,122.1,87.4,122,86.6,121.8L86.6,121.8z"/>
	</g>
</g>
</svg>
