<?xml version="1.0" encoding="utf-8"?>
<!-- Generator: Adobe Illustrator 15.1.0, SVG Export Plug-In . SVG Version: 6.00 Build 0)  -->
<!DOCTYPE svg PUBLIC "-//W3C//DTD SVG 1.1//EN" "http://www.w3.org/Graphics/SVG/1.1/DTD/svg11.dtd">
<svg version="1.1" id="buddha" xmlns="http://www.w3.org/2000/svg" xmlns:xlink="http://www.w3.org/1999/xlink" x="0px" y="0px"
	 width="316px" height="228px" viewBox="0 0 316 228" style="enable-background:new 0 0 316 228;" xml:space="preserve">
<style type="text/css">
<![CDATA[
	.st0{opacity:0.29;fill:#09B7B2;}
	.st1{opacity:0.16;}
	.st2{opacity:0.25;}
	.st3{opacity:0.54;}
	.st4{opacity:0.61;}
	.st5{fill:#750000;stroke:#231F20;stroke-miterlimit:10;}
	.st6{opacity:0.54;fill:#A9FFFF;}
	.st7{fill:#EAE35C;}
	.st8{fill:#EBFEFF;stroke:#231F20;stroke-miterlimit:10;}
	.st9{fill:#EBFEFF;}
	.st10{fill:#50A0FF;}
	.st11{opacity:0.8;fill:#CC0202;}
	.st12{fill:#231F20;}
	.st13{opacity:0.33;fill:#A0856E;}
	.st14{opacity:0.2;}
	.st15{fill:#FFD9B6;}
	.st16{fill:#FFFFFF;}
	.st17{opacity:0.62;fill:#FFCACA;}
	.st18{fill:#EAE35C;stroke:#231F20;stroke-miterlimit:10;}
	.st19{fill:#FFFFFF;stroke:#231F20;stroke-miterlimit:10;}
	.st20{opacity:0.35;fill:url(#SVGID_1_);}
	.st21{opacity:0.61;fill:#FFFFFF;}
]]>
</style>
<g>
	<g>
		<path class="st9" d="M286.3,182.6c0,0-11.1,4.7-21.2-8.1c-7.7-9.8-16.8-11.2-20.7-11.3c-4.7-3.3-10.8-5.4-17.5-5.4
			c-14.9,0-26.9,10-26.9,22.3c0,12.3,12,22.3,26.9,22.3c11.5,0,21.3-6,25.2-14.5c1.7-4.4,7.4-5.8,12.5-3.3
			c-5.1-2.5-10.8-1.1-12.5,3.3c0,0,0,0,0-0.1c5.3-2,12.4-1.4,17,3.3c7.7,7.8,13.1,2.4,13.1,2.4c4.8-11.3,16.1-8.3,16.1-8.3
			C293.8,179,286.3,182.6,286.3,182.6z"/>
		<path class="st12" d="M286.3,182.6c-3.8,1.4-8.2,1-11.9-0.6c-3.8-1.6-6.9-4.4-9.4-7.6c-2.5-3.2-5.6-5.9-9.1-7.9
			c-3.5-2-7.5-3.1-11.5-3.2l0,0l0,0c-4.8-3.4-10.7-5.1-16.5-5.2c-5.8-0.1-11.7,1.3-16.7,4.4c-4.9,3-8.9,7.8-10.2,13.5
			c-0.7,2.8-0.7,5.8,0,8.5c0.7,2.8,2,5.4,3.8,7.7c3.6,4.5,8.9,7.6,14.5,8.9c5.6,1.4,11.6,1.2,17.2-0.5c5.5-1.7,10.6-5.2,13.8-10
			c0.4-0.6,0.8-1.2,1.1-1.9c0.2-0.3,0.3-0.6,0.5-1c0.1-0.3,0.3-0.7,0.5-1c0.8-1.3,2.1-2.3,3.6-2.9c2.9-1.1,6.2-0.7,8.8,0.6l-0.3,0.6
			c-2.1-1.1-4.5-1.5-6.9-1.1c-1.1,0.2-2.3,0.7-3.2,1.4c-0.9,0.7-1.7,1.7-2.1,2.8l-0.4-0.2l0-0.1l0-0.1l0.1,0c2.6-1,5.5-1.3,8.2-0.9
			c2.8,0.4,5.4,1.4,7.6,3.2c1.1,0.9,2,1.9,3.1,2.8c1.1,0.9,2.2,1.6,3.5,2.1c1.3,0.5,2.7,0.7,4,0.5c1.3-0.2,2.6-0.8,3.7-1.7l0,0
			c0.7-1.5,1.5-3,2.6-4.2c1.1-1.3,2.4-2.3,3.9-3c1.5-0.7,3.1-1.2,4.8-1.3c1.6-0.2,3.3-0.1,4.9,0.3l0,0c-0.6-0.9-1.4-1.7-2.4-2.4
			c-0.9-0.6-2-1.1-3.1-1.3c-1.1-0.2-2.2-0.2-3.3-0.1C288.4,181.9,287.3,182.2,286.3,182.6z M286.3,182.6c1-0.5,2.1-0.7,3.2-0.9
			c1.1-0.2,2.2-0.2,3.3,0.1c1.1,0.2,2.2,0.6,3.1,1.3c0.9,0.6,1.7,1.4,2.4,2.4l0,0.1l-0.1,0c-1.6-0.4-3.3-0.4-4.9-0.3
			c-1.6,0.2-3.3,0.6-4.7,1.4c-1.5,0.7-2.8,1.8-3.9,3c-1.1,1.2-1.9,2.7-2.6,4.2l0,0l0,0c-1,0.9-2.4,1.5-3.7,1.7
			c-1.4,0.2-2.8,0-4.1-0.5c-1.3-0.5-2.5-1.2-3.6-2.1c-1.1-0.8-2-1.9-3.1-2.7c-2.1-1.7-4.8-2.7-7.5-3c-2.7-0.3-5.5,0-8,1l0.1-0.1l0,0
			l-0.4-0.2c0.4-1.2,1.2-2.2,2.2-3c1-0.8,2.2-1.3,3.4-1.5c2.5-0.5,5-0.1,7.3,1l-0.3,0.6c-2.6-1.3-5.6-1.6-8.3-0.5
			c-1.3,0.5-2.4,1.4-3.2,2.6c-0.2,0.3-0.3,0.6-0.5,0.9c-0.2,0.4-0.3,0.7-0.5,1c-0.3,0.7-0.7,1.3-1.1,2c-3.3,5.1-8.5,8.6-14.2,10.4
			c-5.7,1.8-11.9,2-17.7,0.6c-5.8-1.4-11.3-4.6-15-9.3c-1.9-2.4-3.3-5.1-4-8c-0.7-2.9-0.7-6,0-9c1.4-5.9,5.6-10.8,10.7-13.8
			c5.1-3.1,11.1-4.5,17.1-4.3c5.9,0.2,11.8,2,16.6,5.5l-0.1,0c4.1,0.2,8.1,1.4,11.6,3.4c3.5,2,6.6,4.8,9.1,8c2.5,3.2,5.6,6,9.3,7.6
			C278.1,183.6,282.4,184,286.3,182.6z"/>
	</g>
	<path class="st6" d="M273.2,186.9c-4.3,1.1-10.8-5.4-16.1-3.2c-0.2,0.1-0.3,0.2-0.5,0.3c2.4-0.8,5.3-0.6,8,0.8
		c-2.7-1.4-5.6-1.6-8-0.8c-1.2,0.7-2.3,2.1-3.2,3.6c5.2-1.5,11.5-0.6,15.7,3.7c7.7,7.8,13.1,2.4,13.1,2.4
		c4.8-11.3,16.1-8.3,16.1-8.3c-0.1-0.2-0.3-0.4-0.5-0.6C289.9,184.5,281.7,185.1,273.2,186.9z"/>
	<g>
		<path class="st9" d="M256.5,184c-2,0.7-3.7,2.1-4.5,4.1c0,0,0,0,0-0.1c0.4-0.2,0.8-0.3,1.2-0.4C254.3,186.1,255.4,184.7,256.5,184
			z"/>
		<path class="st12" d="M256.5,184c-1,0.4-1.8,1-2.5,1.7c-0.7,0.7-1.2,1.6-1.5,2.5l-0.9-0.4l0,0l0-0.1l0.1-0.2l0.1,0
			c0.4-0.1,0.9-0.2,1.3-0.3l-0.2,0.2C253.9,186.1,255.1,184.8,256.5,184z M256.5,184c-1.3,1-2.2,2.4-2.9,3.8l-0.1,0.1l-0.2,0.1
			c-0.4,0.2-0.8,0.3-1.1,0.5l0.3-0.2l0,0v0l-0.9-0.4c0.5-1,1.2-1.9,2.1-2.6C254.5,184.7,255.5,184.2,256.5,184z"/>
	</g>
	<ellipse class="st6" cx="225.1" cy="178.7" rx="15" ry="12.6"/>
	<g>
		<path class="st12" d="M228.4,181.9c-2.2,0.4-4.5,0.9-6.4,2.1c-0.9,0.6-1.7,1.4-1.8,2.5c-0.1,1,0.4,2,1.2,2.6c0.8,0.6,1.9,1,3,1.2
			c1.1,0.2,2.2,0.3,3.3,0.3c1.1,0,2.2-0.1,3.3-0.3c1.1-0.2,2.2-0.5,3-1l0,0l0,0c1.3-0.9,2.6-2,3.7-3.2c1-1.2,1.9-2.7,2.1-4.3
			c0.2-1.6-0.4-3.2-1.5-4.5c-1-1.3-2.4-2.3-3.8-3.3c1.5,0.8,2.9,1.7,4.1,3c1.2,1.2,2,3,1.8,4.8c-0.1,1.8-1,3.4-2.1,4.8
			c-1.1,1.3-2.4,2.5-3.8,3.5l0,0c-1.1,0.8-2.2,1-3.4,1.3c-1.2,0.2-2.3,0.3-3.5,0.3c-1.2,0-2.3-0.1-3.5-0.4c-1.1-0.3-2.3-0.7-3.3-1.5
			c-0.5-0.4-0.9-0.9-1.1-1.5c-0.3-0.6-0.3-1.2-0.2-1.9c0.2-1.3,1.2-2.3,2.2-2.8c1-0.6,2.2-0.9,3.3-1.2
			C226.1,182.1,227.2,181.9,228.4,181.9z"/>
	</g>
</g>
<g>
	<path class="st8" d="M216.5,206.3c0,0-1.4-0.7-1-7.9c0.3-4.6-6.6-7.4-12.8-3.9c0.1-0.3,0.1-0.7,0.2-1c2.3-14.2-7.9-27.5-22.8-29.9
		s-28.7,7.2-30.9,21.3c-2.3,14.2,7.9,27.5,22.8,29.9c8.7,1.4,17.1-1.3,22.9-6.7c1.1,2.3,4.2,7.1,7.2,1.3c3.8-7.3,13.2-0.6,14.6,0
		s10.2,4.9,19.9-4.5C236.6,205,224.7,212.5,216.5,206.3z"/>
	<circle class="st6" cx="172.9" cy="189" r="18.4"/>
	<g>
		<path class="st12" d="M149.5,191.7c2.1,5.5,6.3,10.2,11.4,12.9c2.6,1.4,5.4,2.3,8.3,2.8c2.9,0.5,5.8,0.5,8.7-0.2
			c2.8-0.6,5.5-2,7.7-3.8c2.2-1.9,3.9-4.3,4.9-7c0.5-1.3,0.8-2.8,0.9-4.2c0-0.7-0.1-1.4-0.2-2.1c-0.2-0.7-0.3-1.4-0.5-2.1
			c-0.7-2.8-1.8-5.6-3.6-7.8c-1.7-2.3-4.2-3.9-7-4.7c-2.7-0.8-5.7-0.7-8.5-0.1c-2.8,0.6-5.6,1.7-7.7,3.7c-1,1-1.8,2.2-2.3,3.5
			c-0.5,1.3-0.5,2.8-0.3,4.2c0.5,2.8,1.9,5.5,3.6,7.8c0.9,1.2,1.8,2.3,3,3.1c1.1,0.9,2.5,1.5,3.9,1.5c1.4,0,2.8-0.6,3.9-1.5
			c1.1-0.9,2-2.1,2.7-3.4c0.7-1.3,1.1-2.7,1.2-4.2c0-0.7,0-1.5-0.3-2.1c-0.3-0.7-0.9-1.2-1.7-1.3c0.7,0,1.4,0.5,1.7,1.2
			c0.3,0.7,0.4,1.4,0.4,2.2c-0.1,1.5-0.5,2.9-1.1,4.3c-0.6,1.3-1.5,2.6-2.7,3.6c-1.1,1-2.6,1.7-4.2,1.7c-1.6,0-3-0.7-4.2-1.6
			c-1.2-0.9-2.2-2-3.1-3.2c-1.8-2.4-3.3-5-3.9-8.1c-0.3-1.5-0.2-3.1,0.3-4.6c0.5-1.5,1.4-2.8,2.5-3.9c2.2-2.1,5.1-3.3,8.1-4
			c2.9-0.6,6-0.8,9,0.1c2.9,0.8,5.6,2.6,7.5,5c1.9,2.4,2.9,5.3,3.7,8.2c0.2,0.7,0.4,1.4,0.5,2.2c0.2,0.7,0.3,1.5,0.2,2.3
			c0,1.5-0.4,3-0.9,4.5c-2.2,5.7-7.3,10-13.3,11.2c-2.9,0.6-6,0.6-8.9,0c-2.9-0.5-5.8-1.5-8.4-2.9
			C155.5,202.1,151.4,197.3,149.5,191.7z"/>
	</g>
</g>
<g>
	<ellipse class="st8" cx="49.2" cy="119.7" rx="16.6" ry="16.6"/>
	<ellipse class="st6" cx="49.2" cy="119.7" rx="9.3" ry="9.2"/>
	<g>
		<path class="st12" d="M52,120.5c1.6,0.2,3.5,0.1,4.7-1c0.6-0.5,1-1.2,1-2c0.1-0.8,0-1.6-0.3-2.3c-0.6-1.4-2-2.4-3.5-3
			c-0.7-0.3-1.5-0.5-2.3-0.5c-0.8-0.1-1.6,0-2.1,0.4l-0.1,0l-0.1,0c-1.3,0.6-2.6,1.4-3.8,2.3c-1.1,0.9-2.1,2.1-2.7,3.4
			c-0.6,1.3-0.7,2.9-0.4,4.3c0.3,1.5,1,2.9,1.8,4.2c-1-1.2-1.8-2.5-2.2-4c-0.4-1.5-0.4-3.2,0.2-4.7c0.6-1.5,1.6-2.8,2.8-3.8
			c1.2-1,2.5-1.9,4-2.5l-0.1,0.1c0.9-0.6,1.9-0.6,2.8-0.6c0.9,0.1,1.8,0.3,2.6,0.6c1.6,0.7,3.2,1.8,3.9,3.6c0.3,0.9,0.4,1.8,0.2,2.7
			c-0.2,0.9-0.6,1.8-1.4,2.3c-0.8,0.5-1.6,0.7-2.5,0.8C53.6,120.8,52.8,120.7,52,120.5z"/>
	</g>
</g>
<g>
	<path class="st8" d="M95.2,187.1c0,0,2.7-2.7,7,10.2c4.3,12.9,32.5,19.9,54.2,0c0,0,11.1-8.8,24.4-1.6c13.3,7.2,38.4-1.8,31.2-16.3
		l-52.2-44C159.8,135.4,43.8,155.6,95.2,187.1z"/>
	<ellipse class="st6" cx="122.8" cy="177.3" rx="24" ry="20.9"/>
	<g>
		<path class="st12" d="M101.9,174.7c1.4,6.1,5.1,11.7,10.1,15.3c2.5,1.8,5.4,3.1,8.4,4c3,0.8,6.1,1.2,9.2,0.7
			c6.1-0.8,11.6-5,14.3-10.5c0.7-1.4,1.2-2.8,1.3-4.3c0.1-0.8,0.1-1.5,0-2.3c-0.1-0.8-0.1-1.5-0.2-2.3c-0.4-3.1-1.1-6.1-2.6-8.8
			c-0.7-1.3-1.7-2.5-2.8-3.5c-1.1-1-2.5-1.8-3.9-2.4c-2.8-1.2-6-1.4-9-1c-3,0.4-6.1,1.4-8.4,3.3c-1.2,1-2.1,2.2-2.7,3.6
			c-0.6,1.4-0.8,2.9-0.8,4.4c0.1,3.1,1.3,6,2.7,8.8c0.7,1.4,1.6,2.7,2.7,3.7c1.1,1.1,2.4,1.9,3.9,2.1c1.5,0.2,3-0.4,4.3-1.3
			c1.3-0.9,2.3-2.1,3.1-3.4c0.8-1.3,1.5-2.8,1.8-4.3c0.1-0.8,0.2-1.6,0-2.3c-0.2-0.8-0.8-1.4-1.6-1.6c0.8,0.1,1.4,0.8,1.6,1.5
			c0.2,0.8,0.2,1.6,0.1,2.4c-0.3,1.6-0.9,3-1.7,4.4c-0.8,1.4-1.8,2.6-3.1,3.6c-1.3,1-2.9,1.6-4.5,1.5c-1.7-0.1-3.1-1-4.3-2.1
			c-1.2-1.1-2.1-2.5-2.8-3.8c-1.5-2.8-2.8-5.8-2.9-9c-0.1-1.6,0.1-3.3,0.8-4.8c0.6-1.5,1.7-2.9,2.9-3.9c2.5-2.1,5.7-3.2,8.9-3.6
			c3.2-0.4,6.5-0.2,9.5,1c1.5,0.6,2.9,1.5,4.1,2.5c1.2,1.1,2.3,2.4,3.1,3.8c1.6,2.8,2.3,6,2.7,9.2c0.1,0.8,0.2,1.6,0.2,2.4
			c0.1,0.8,0.1,1.6,0,2.4c-0.2,1.6-0.7,3.2-1.4,4.6c-2.8,5.8-8.6,10.1-15,10.9c-3.2,0.4-6.4,0-9.5-0.9c-3-0.9-6-2.3-8.5-4.2
			C106.6,186.6,103.1,180.8,101.9,174.7z"/>
	</g>
	<ellipse class="st6" cx="191" cy="176.2" rx="12.2" ry="12.8"/>
	<g>
		<path class="st12" d="M191.2,179.1c-0.9,0.1-1.8,0.2-2.7,0.5c-0.9,0.3-1.7,0.8-2.2,1.4c-1.1,1.3-0.9,3.4,0.1,4.8
			c1,1.4,2.6,2.2,4.4,2.5c0.9,0.2,1.7,0.2,2.6,0.1c0.8-0.1,1.7-0.3,2.2-0.8l0-0.1l0.1,0c1.3-0.9,2.6-2,3.6-3.2
			c1-1.2,1.9-2.7,2.3-4.2c0.4-1.6,0.2-3.2-0.4-4.7c-0.6-1.5-1.6-2.9-2.8-4.1c1.3,1.1,2.4,2.4,3.2,3.9c0.8,1.5,1.1,3.4,0.7,5.1
			c-0.3,1.7-1.2,3.3-2.3,4.7c-1.1,1.4-2.4,2.5-3.8,3.5l0.1-0.1c-0.8,0.9-1.9,1-2.8,1.2c-1,0.1-1.9,0-2.9-0.1c-1.9-0.4-3.8-1.3-4.8-3
			c-0.5-0.9-0.8-1.9-0.8-2.8c0-1,0.3-2,1-2.7c0.7-0.7,1.6-1.1,2.5-1.4C189.4,179.1,190.3,179,191.2,179.1z"/>
	</g>
</g>
<g>
	<circle class="st8" cx="64.3" cy="180.1" r="30.9"/>
	<circle class="st6" cx="61.1" cy="176.9" r="21.3"/>
	<g>
		<path class="st12" d="M47.1,155.1c-4.6,5.1-7.3,11.8-7.3,18.6c0,3.4,0.6,6.8,1.7,10c1.1,3.2,2.8,6.2,5.1,8.6
			c2.3,2.4,5.2,4.3,8.4,5.3c3.2,1.1,6.6,1.4,9.9,0.8c1.6-0.3,3.3-0.8,4.7-1.5c0.7-0.4,1.4-0.8,2-1.4c0.7-0.5,1.3-1.1,1.9-1.7
			c2.5-2.3,4.8-4.8,6.2-7.9c1.5-3,1.8-6.4,1.1-9.7c-0.7-3.2-2.5-6.2-4.8-8.7c-2.2-2.5-5-4.6-8.2-5.4c-1.6-0.4-3.3-0.5-4.9-0.2
			c-1.6,0.3-3.1,1.1-4.4,2.1c-2.7,2-4.6,4.9-6.1,7.9c-0.8,1.5-1.4,3.1-1.7,4.7c-0.3,1.6-0.2,3.4,0.6,4.8c0.8,1.4,2.3,2.4,3.8,3
			c1.6,0.6,3.3,0.7,5,0.7c1.7-0.1,3.4-0.4,4.9-1.1c0.8-0.4,1.5-0.8,2-1.5c0.6-0.6,0.8-1.6,0.4-2.4c0.4,0.8,0.2,1.8-0.4,2.4
			c-0.5,0.7-1.3,1.2-2,1.6c-1.6,0.8-3.3,1.1-5,1.3c-1.7,0.1-3.5,0-5.1-0.6c-1.6-0.5-3.2-1.5-4.1-3.1c-0.9-1.6-1-3.4-0.8-5.1
			c0.3-1.7,0.9-3.4,1.6-4.9c1.5-3.1,3.4-6.1,6.2-8.3c1.4-1.1,3-1.9,4.7-2.3c1.7-0.4,3.6-0.3,5.3,0.1c3.4,0.9,6.4,3.1,8.7,5.6
			c2.3,2.6,4.2,5.6,5,9.1c0.4,1.7,0.5,3.5,0.3,5.3c-0.2,1.8-0.7,3.5-1.4,5.1c-1.5,3.2-3.9,5.8-6.5,8.1c-0.6,0.6-1.3,1.1-2,1.7
			c-0.6,0.5-1.4,1.1-2.2,1.5c-1.6,0.8-3.3,1.3-5,1.6c-6.9,1.1-14.3-1.3-19-6.5c-2.4-2.6-4.1-5.7-5.2-9c-1.1-3.3-1.7-6.7-1.6-10.2
			C39.5,166.8,42.4,160.1,47.1,155.1z"/>
	</g>
</g>
<g>
	<g>
		<path class="st9" d="M290.9,151.8c0,0-3.1-6.1-9.3-5.7c-3.2,0.2-5.7-1.4-7.4-3c0.2,5.6,1.5,11,8.6,9.4c-7.2,1.6-8.4-3.9-8.6-9.4
			c-0.2-0.2-0.3-0.3-0.5-0.5c-2.1-10.1-11.1-17.6-21.8-17.6c-12.3,0-22.2,10-22.2,22.2c0,12.3,10,22.2,22.2,22.2
			c4.1,0,8-1.1,11.3-3.1c0,0,0,0,0,0c0.1,0,0.1-0.1,0.2-0.1c1.4-0.8,2.7-1.8,3.8-2.9c2.7-1.1,7.4-1.7,15.9-0.1
			c17.2,3.2,21-11.4,21-11.4C297.9,156.8,290.9,151.8,290.9,151.8z"/>
		<path class="st12" d="M290.9,151.8c-0.8-1.4-1.9-2.7-3.2-3.7c-1.3-1-2.8-1.7-4.5-1.9c-0.8-0.1-1.6,0-2.5,0c-0.8,0-1.7-0.2-2.5-0.4
			c-1.6-0.5-3-1.5-4.2-2.6l0.3-0.1c0.1,1.3,0.2,2.6,0.4,3.8c0.2,1.2,0.6,2.5,1.3,3.5c0.7,1,1.7,1.8,3,2c1.2,0.3,2.5,0.1,3.7-0.1
			l0.1,0.5c-1.3,0.3-2.6,0.4-3.9,0.1c-1.3-0.3-2.5-1.1-3.3-2.3c-0.8-1.1-1.1-2.4-1.4-3.7c-0.2-1.3-0.3-2.6-0.4-3.9l0.1,0.2l-0.5-0.5
			l-0.1-0.1l0-0.1c-1-4.5-3.4-8.6-6.8-11.7c-3.4-3.1-7.8-5-12.4-5.4c-4.6-0.5-9.2,0.5-13.2,2.9c-3.9,2.3-7.1,5.9-9,10.1
			c-1.8,4.2-2.3,8.9-1.3,13.4c1,4.5,3.4,8.6,6.8,11.6c3.4,3,7.8,5,12.4,5.4c4.6,0.5,9.2-0.6,13.2-2.9l0.8-0.5l-0.2,0.9l0,0l-0.6-0.4
			c0,0,0.1,0,0.1-0.1l0,0l0,0c1.3-0.8,2.6-1.8,3.8-2.8l0.1-0.1l0.1,0c1.7-0.7,3.5-0.9,5.3-1c1.8-0.1,3.6,0,5.4,0.2
			c1.8,0.2,3.5,0.4,5.3,0.8c1.7,0.3,3.5,0.5,5.2,0.5c3.5,0,7-1,9.8-3.2c2.8-2.1,4.9-5.1,5.9-8.5l0.2,0.1c-0.9,0.7-2,1.3-3.1,1.7
			c-1.1,0.4-2.3,0.5-3.5,0.5c-1.2-0.1-2.4-0.3-3.5-0.7C293,153,291.9,152.4,290.9,151.8z M290.9,151.8c1,0.7,2.1,1.2,3.2,1.5
			c1.1,0.4,2.3,0.6,3.5,0.6c1.2,0,2.4-0.1,3.5-0.5c1.1-0.4,2.1-1,3-1.7l0.3-0.3l-0.1,0.4c-1,3.4-3.1,6.5-5.9,8.8
			c-2.8,2.2-6.5,3.3-10.1,3.4c-1.8,0-3.6-0.1-5.3-0.5c-1.7-0.3-3.5-0.6-5.2-0.7c-1.8-0.2-3.5-0.2-5.3-0.1c-1.7,0.1-3.5,0.4-5.1,1
			l0.1-0.1c-1.2,1.1-2.5,2.1-3.9,3l0.1,0c-0.1,0.1-0.1,0.1-0.2,0.2l-0.8,0.5l0.2-0.9c0,0,0,0,0,0l0.6,0.4c-4.1,2.5-9,3.6-13.7,3.1
			c-4.7-0.4-9.3-2.4-12.9-5.6c-3.6-3.1-6.1-7.5-7.1-12.1c-1-4.7-0.6-9.6,1.4-14c1.9-4.4,5.3-8.1,9.4-10.5c4.1-2.4,9-3.4,13.7-2.9
			c4.7,0.5,9.3,2.5,12.8,5.7c3.5,3.2,6,7.5,7,12.2l-0.1-0.2l0.5,0.5l0.1,0.1l0,0.1c0,1.3,0.1,2.5,0.4,3.8c0.2,1.2,0.6,2.5,1.3,3.5
			c0.7,1,1.7,1.8,2.9,2c1.2,0.3,2.5,0.2,3.7-0.1l0.1,0.5c-1.3,0.3-2.6,0.4-3.9,0.1c-1.3-0.3-2.5-1.1-3.2-2.3
			c-0.7-1.1-1.1-2.4-1.3-3.7c-0.2-1.3-0.3-2.6-0.3-3.9l0-0.4l0.3,0.3c1.2,1.1,2.5,2.1,4.1,2.6c0.8,0.3,1.6,0.4,2.4,0.4
			c0.8,0,1.7-0.1,2.5,0.1c1.7,0.2,3.2,0.9,4.5,2C289.1,149,290.1,150.3,290.9,151.8z"/>
	</g>
	<g>
		<path class="st9" d="M275.5,149.7c-0.9-1.8-1.2-4.2-1.3-6.6c-0.2-0.2-0.3-0.3-0.5-0.5c-0.1-0.6-0.3-1.1-0.4-1.6
			C272.6,145.2,273.5,147.9,275.5,149.7z"/>
		<path class="st12" d="M275.5,149.7c-0.6-1-1-2.1-1.3-3.2c-0.3-1.1-0.4-2.3-0.4-3.4l0.1,0.3c-0.2-0.2-0.3-0.3-0.5-0.5l-0.1-0.1
			l0-0.1c-0.1-0.5-0.3-1.1-0.4-1.6l1-0.1c-0.3,1.5-0.4,3-0.2,4.5c0.1,0.7,0.3,1.5,0.6,2.2C274.5,148.4,275,149.1,275.5,149.7z
			 M275.5,149.7c-0.7-0.4-1.2-1-1.7-1.7c-0.4-0.7-0.8-1.5-1-2.3c-0.4-1.6-0.3-3.3,0-4.9l0.4-2.1l0.6,2.1c0.2,0.6,0.3,1.1,0.4,1.7
			l-0.1-0.2l0.5,0.5l0.1,0.1l0,0.2c0,1.1,0,2.2,0.1,3.4C275,147.5,275.1,148.6,275.5,149.7z"/>
	</g>
	<g>
		<path class="st9" d="M281.9,152.6c-2.6-0.6-4.8-1.5-6.4-3C276.6,151.9,278.5,153.1,281.9,152.6z"/>
		<path class="st12" d="M281.9,152.6c-1.2-0.1-2.4-0.3-3.6-0.7c-1.2-0.4-2.3-1-3.2-1.9l0.8-0.6c0.5,1.1,1.3,2,2.4,2.5
			C279.4,152.5,280.6,152.6,281.9,152.6z M281.9,152.6c-1.2,0.4-2.6,0.5-3.9,0c-0.7-0.2-1.3-0.6-1.8-1.1c-0.5-0.5-0.9-1.1-1.2-1.7
			l-1.1-2.3l1.9,1.8C277.5,150.9,279.7,151.7,281.9,152.6z"/>
	</g>
	<path class="st6" d="M290.9,151.8c0,0-3.1-6.1-9.3-5.7c-3.2,0.2-5.7-1.4-7.4-3c0.1,2.4,0.4,4.8,1.3,6.6c1.6,1.5,3.9,2.3,6.4,3
		c0.3,0,0.6-0.1,0.9-0.2c-0.3,0.1-0.6,0.1-0.9,0.2c3.6,0.9,7.9,1.2,11.7,2c4.4,1.2,7.6-0.1,10.4-2.4c0.1-0.3,0.1-0.5,0.1-0.5
		C297.9,156.8,290.9,151.8,290.9,151.8z"/>
	<circle class="st6" cx="248.3" cy="142.9" r="11.7"/>
	<g>
		<path class="st12" d="M246.9,141.9l0.1,0.2l0,0.1c-0.1,0,0-0.1-0.1-0.1c0-0.1-0.1-0.3-0.1-0.4c0-0.3-0.1-0.6-0.1-0.9
			c0-0.6,0-1.2,0-1.7c0.1-1.2,0.4-2.3,1.2-3.3c0.7-1,1.9-1.6,3.1-1.8c1.2-0.2,2.4-0.2,3.6,0.1c2.4,0.6,4.2,2.6,5.2,4.7
			c0.5,1.1,0.9,2.2,1,3.5c0.1,1.2,0.1,2.5-0.9,3.6l0.1-0.2c-0.8,2-1.8,3.8-3.1,5.4c-1.3,1.6-3,3-5,3.7c-2,0.7-4.2,0.7-6.2,0.2
			c-2-0.6-3.8-1.6-5.5-2.8c1.8,1,3.6,1.9,5.6,2.3c2,0.4,4,0.4,5.8-0.4c1.8-0.8,3.4-2.1,4.6-3.6c1.2-1.5,2.2-3.3,2.9-5.2l0-0.1
			l0.1-0.1c0.6-0.7,0.7-1.8,0.6-2.9c-0.1-1.1-0.4-2.2-0.8-3.1c-0.9-2-2.5-3.7-4.6-4.3c-2-0.6-4.6-0.5-6,1.3c-0.7,0.8-1.1,1.9-1.3,3
			c-0.1,0.6-0.1,1.1-0.1,1.7c0,0.3,0,0.6,0,0.9c0,0.1,0,0.3,0,0.4c0,0,0,0.1,0,0.1l0-0.1L246.9,141.9z"/>
	</g>
</g>
<g>
	
		<ellipse transform="matrix(-0.8169 -0.5767 0.5767 -0.8169 -46.5019 326.3319)" class="st8" cx="28.5" cy="170.5" rx="16.6" ry="16.6"/>
	
		<ellipse transform="matrix(-0.8169 -0.5767 0.5767 -0.8169 -46.5958 319.844)" class="st6" cx="27.5" cy="167.3" rx="10.9" ry="10.9"/>
	<g>
		<path class="st12" d="M26.8,168.3c-1.3-1.1-2.8-2.1-4.4-1.9c-1.6,0.1-2.8,1.6-3.1,3.1c-0.3,1.5,0.2,3.1,1.1,4.5
			c0.4,0.7,1,1.3,1.6,1.8c0.6,0.5,1.3,0.9,1.9,0.9l0.1,0l0.1,0c1.4,0.3,2.9,0.4,4.4,0.3c1.5-0.1,2.9-0.5,4.2-1.2
			c1.3-0.7,2.2-1.9,2.8-3.3c0.6-1.4,0.8-2.9,0.9-4.4c0.1,1.5,0,3.1-0.5,4.6c-0.5,1.5-1.5,2.8-2.9,3.7c-1.3,0.9-2.9,1.3-4.5,1.5
			c-1.6,0.2-3.1,0.1-4.7-0.3l0.1,0c-1.1,0-1.9-0.6-2.6-1.1c-0.7-0.6-1.3-1.3-1.8-2c-0.9-1.5-1.6-3.3-1.1-5.2
			c0.2-0.9,0.7-1.7,1.4-2.3c0.6-0.6,1.5-1.1,2.5-1.1c0.9,0,1.8,0.3,2.5,0.8C25.6,167.1,26.2,167.7,26.8,168.3z"/>
	</g>
</g>
<g>
	<circle class="st8" cx="180.3" cy="125" r="27.8"/>
	<circle class="st6" cx="177.7" cy="126.6" r="20.1"/>
	<g>
		<path class="st12" d="M153.1,127.9c2.1,5.8,6.3,10.8,11.6,13.8c2.7,1.5,5.6,2.4,8.6,2.9c3,0.5,6.1,0.4,9-0.4
			c5.9-1.5,10.7-6.2,12.7-11.9c0.5-1.4,0.8-2.9,0.8-4.4c0-0.8-0.1-1.4-0.3-2.2c-0.2-0.7-0.3-1.5-0.5-2.2c-0.7-2.9-1.8-5.9-3.6-8.3
			c-0.9-1.2-1.9-2.3-3.2-3.1c-1.2-0.8-2.6-1.5-4-1.9c-2.9-0.8-6-0.6-8.9,0c-2.9,0.7-5.8,2-7.8,4.2c-1,1.1-1.8,2.4-2.2,3.8
			c-0.4,1.4-0.5,2.9-0.2,4.4c0.5,3,1.9,5.7,3.7,8.2c0.9,1.2,1.9,2.4,3,3.3c1.2,0.9,2.6,1.6,4.1,1.6c1.5,0,2.9-0.7,4-1.7
			c1.1-1,2-2.3,2.7-3.7c0.7-1.4,1.1-2.9,1.2-4.4c0-0.8,0-1.5-0.3-2.3c-0.3-0.7-0.9-1.3-1.7-1.3c0.8,0,1.5,0.6,1.8,1.3
			c0.3,0.7,0.4,1.5,0.4,2.3c-0.1,1.6-0.5,3.1-1.1,4.5c-0.6,1.4-1.5,2.7-2.6,3.8c-1.1,1.1-2.6,1.9-4.2,2c-1.6,0.1-3.2-0.6-4.4-1.6
			c-1.3-1-2.3-2.2-3.2-3.4c-1.8-2.5-3.3-5.3-3.9-8.5c-0.3-1.6-0.2-3.2,0.2-4.8c0.4-1.6,1.3-3,2.4-4.1c2.2-2.3,5.2-3.7,8.2-4.5
			c3-0.7,6.3-1,9.4-0.1c1.5,0.4,3,1.1,4.3,2c1.3,0.9,2.5,2,3.4,3.3c1.9,2.6,2.9,5.6,3.7,8.6c0.2,0.8,0.3,1.5,0.5,2.3
			c0.2,0.7,0.3,1.6,0.3,2.4c0,1.6-0.4,3.2-0.9,4.7c-2.1,6-7.2,10.8-13.4,12.3c-3.1,0.8-6.3,0.8-9.3,0.2c-3.1-0.5-6.1-1.5-8.8-3.1
			C159.1,138.9,155,133.7,153.1,127.9z"/>
	</g>
</g>
<g>
	<circle class="st8" cx="218.1" cy="154.6" r="25.9"/>
	<circle class="st6" cx="215.1" cy="155.6" r="17.2"/>
	<g>
		<path class="st12" d="M192.7,157.3c2,5.4,5.8,10.1,10.9,12.8c2.5,1.4,5.2,2.3,8,2.7c2.8,0.4,5.7,0.4,8.4-0.3
			c5.5-1.4,10-5.7,11.8-11c0.5-1.3,0.7-2.7,0.8-4.1c0-0.7-0.1-1.3-0.2-2c-0.1-0.7-0.3-1.4-0.5-2.1c-0.7-2.7-1.7-5.5-3.3-7.7
			c-1.6-2.3-4-3.9-6.7-4.6c-2.7-0.8-5.6-0.6-8.3,0c-2.7,0.7-5.4,1.9-7.3,3.9c-1,1-1.7,2.2-2.1,3.5c-0.4,1.3-0.4,2.7-0.2,4.1
			c0.4,2.8,1.8,5.3,3.4,7.7c0.8,1.2,1.7,2.2,2.8,3.1c1.1,0.9,2.4,1.5,3.8,1.5c1.4,0,2.7-0.7,3.7-1.6c1-0.9,1.9-2.1,2.5-3.4
			c0.6-1.3,1.1-2.7,1.2-4.1c0-0.7,0-1.4-0.3-2.1c-0.3-0.7-0.9-1.2-1.6-1.3c0.7,0,1.4,0.5,1.7,1.2c0.3,0.7,0.4,1.4,0.3,2.1
			c-0.1,1.5-0.5,2.9-1.1,4.2c-0.6,1.3-1.4,2.6-2.5,3.6c-1,1-2.4,1.8-4,1.8c-1.5,0.1-3-0.6-4.1-1.5c-1.2-0.9-2.1-2-3-3.2
			c-1.7-2.4-3.1-5-3.6-7.9c-0.2-1.5-0.2-3,0.2-4.5c0.4-1.5,1.2-2.8,2.2-3.9c2.1-2.2,4.9-3.5,7.7-4.2c2.8-0.7,5.9-0.9,8.8-0.1
			c1.4,0.4,2.8,1,4,1.9c1.2,0.8,2.3,1.9,3.2,3.1c1.8,2.4,2.8,5.2,3.4,8.1c0.2,0.7,0.3,1.4,0.5,2.1c0.1,0.7,0.3,1.5,0.2,2.2
			c0,1.5-0.3,3-0.8,4.4c-2,5.6-6.7,10.1-12.5,11.5c-2.9,0.7-5.8,0.7-8.7,0.2c-2.9-0.5-5.7-1.4-8.2-2.9
			C198.3,167.6,194.5,162.8,192.7,157.3z"/>
	</g>
</g>
<g>
	<path class="st8" d="M113.6,125.3c0.2-1.2,0.3-2.5,0.3-3.8c0-12.7-10.3-23.1-23.1-23.1c-3.6,0-7.1,0.9-10.1,2.4l-0.1-0.1
		c0,0-15.5,7.6-23,29.5c-4.2-4.4-10.1-7.2-16.7-7.2c-12.7,0-23.1,10.3-23.1,23.1s10.3,23.1,23.1,23.1c2.5,0,4.9-0.4,7.2-1.1l0,0
		c0,0,37.8-11.2,56.3-27.8c3-2.2,5.5-5,7.1-8.3c1.2-2,2.1-4.1,2.5-6.3L113.6,125.3z"/>
	<path class="st6" d="M48.2,136.3c-1.1-7.5-10.8-6.5-16.1-4.3c-8.6,3.2-5.4,17.2,4.3,18.3c14.8,3.5,21.1-10.6,22.5-23.5
		c-0.4,1.1-0.9,2.2-1.3,3.3c-0.8-0.8-1.6-1.6-2.5-2.2C53.8,131.2,51,134.2,48.2,136.3z"/>
	<path class="st6" d="M113.9,125.6l-0.3-0.3c0.2-1.2,0.3-2.5,0.3-3.8c0-5.2-1.8-10-4.7-13.9c-0.9,9.3-4.2,19.2-15.8,12.6
		c0,0-1.1-4.3,2.2-5.4c0,1.1,0,3.2,0,4.3c3.2,2.2,7.5,2.2,8.6-1.1c2.2-5.4-3.2-10.8-8.6-12.9c-7.5-3.2-17.2,1.1-18.3,8.6
		c-2.2,6.5-3.2,14,1.1,17.2c9.4,6.5,23.3,7.7,32.6,1.8c0.2-0.3,0.3-0.6,0.5-0.9C112.7,129.8,113.5,127.7,113.9,125.6z"/>
	<g>
		<path class="st12" d="M82.8,99.9c-3.7,1.3-7,3.6-9.9,6.2c-2.9,2.6-5.4,5.6-7.5,8.9c-2.1,3.3-3.9,6.8-5.4,10.4
			c-1.5,3.6-2.7,7.3-3.6,11.1l0,0c-0.5,2.3-1.3,4.5-2.4,6.6c-1.2,2-2.7,4-4.8,5.2c-2.1,1.3-4.6,1.7-6.9,1.4
			c-2.4-0.3-4.6-1.2-6.6-2.3l0,0l0,0c-0.9-0.8-1.6-1.7-2.1-2.7c-0.4-1.1-0.5-2.3-0.3-3.4c0.3-1.1,0.8-2.1,1.5-3
			c0.7-0.9,1.5-1.7,2.4-2.3c0.9-0.6,2-1.1,3.1-1.2c1.1-0.1,2.3,0.4,3.1,1.2c0.8,0.9,1,2.1,0.7,3.2c-0.2,1.1-0.9,2-1.6,2.8
			c0.7-0.8,1.3-1.8,1.5-2.9c0.2-1-0.1-2.2-0.8-3c-0.7-0.8-1.8-1.1-2.8-1c-1,0.1-2,0.6-2.9,1.2c-0.9,0.6-1.6,1.4-2.2,2.3
			c-0.6,0.9-1.1,1.8-1.3,2.8c-0.5,2,0.6,4.2,2.2,5.4l0,0c2,1,4.1,1.9,6.4,2.2c2.2,0.3,4.5-0.1,6.3-1.3c1.9-1.2,3.3-3,4.4-4.9
			c1.1-2,1.9-4.1,2.3-6.3l0,0l0,0c1-3.8,2.2-7.6,3.8-11.2c1.5-3.6,3.4-7.2,5.6-10.4c2.2-3.3,4.8-6.3,7.8-8.9
			c1.5-1.3,3.1-2.4,4.8-3.4C79.1,101.3,80.9,100.4,82.8,99.9z"/>
	</g>
	<g>
		<path class="st12" d="M97,115.9c-0.8,0.1-1.6,0.4-2.2,1c-0.6,0.6-0.5,1.5-0.2,2.2c0.3,0.7,0.8,1.4,1.3,2c0.5,0.6,1.1,1.2,1.8,1.6
			c1.4,0.8,3.1,1,4.5,0.4c1.4-0.6,2.5-1.9,3-3.4c0.5-1.5,0.6-3.1,0.3-4.7c-0.3-1.6-1-3-2-4.2c-2.1-2.4-5.2-3.8-8.4-3.9
			c-6.5-0.4-12.7,4-15.5,9.7c-1.4,2.9-1.5,6.4-0.5,9.5c0.5,1.6,1.2,3.1,2.1,4.4c0.9,1.4,2.2,2.4,3.4,3.5l-1.9-1.6
			c-0.7-0.5-1.2-1.2-1.7-1.8c-1-1.3-1.8-2.8-2.4-4.4c-1.1-3.2-1.2-6.8,0.2-9.9c0.7-1.6,1.6-3,2.8-4.3c1.1-1.3,2.4-2.4,3.8-3.3
			c2.8-1.9,6.2-3,9.7-2.8c3.4,0.2,6.8,1.7,9.1,4.3c1.1,1.3,1.9,3,2.1,4.7c0.3,1.7,0.2,3.5-0.4,5.1c-0.6,1.6-1.9,3.1-3.5,3.7
			c-1.6,0.7-3.6,0.4-5-0.5c-0.7-0.5-1.3-1.1-1.8-1.8c-0.5-0.7-1-1.4-1.3-2.2c-0.1-0.4-0.2-0.8-0.2-1.3c0-0.4,0.2-0.9,0.5-1.2
			C95.3,116.2,96.2,116,97,115.9z"/>
	</g>
</g>
<g>
	<g>
		<path class="st7" d="M118,93.3c0,0-13.2,3.6-10.4,14.4c0,0,1.8,2.9,3.7,3.9c1.9,1.1-7.6,9-3.7,12.9c0,0,19.2,19,52.1,3.2
			c0.3-0.2,0.6-0.3,0.9-0.5c0,0,2.3-2-3-12.3c0,0,0.7-1.5,3-3.3c0,0,10.5-10.2-6.2-18.8C154.4,92.7,125.3,87,118,93.3z"/>
		<path class="st12" d="M118,93.3c-1.6,0.5-3.1,1.2-4.5,2.1c-1.4,0.9-2.7,1.9-3.7,3.1c-1,1.2-1.8,2.7-2.1,4.3
			c-0.3,1.6-0.2,3.2,0.2,4.7l0-0.1c0.8,1.3,1.8,2.6,3,3.4c0.2,0.1,0.3,0.2,0.5,0.3l0.2,0.1c0,0,0.1,0.1,0.2,0.2
			c0.1,0.1,0.2,0.3,0.2,0.5c0,0.6-0.2,1-0.4,1.4c-0.4,0.7-0.8,1.4-1.3,2.1c-0.9,1.3-1.8,2.6-2.4,4c-0.6,1.4-1.1,3-0.4,4.2
			c0.3,0.6,0.9,1.1,1.5,1.6c0.6,0.5,1.2,1,1.9,1.4c1.3,0.9,2.6,1.7,4,2.5c2.8,1.5,5.8,2.6,8.8,3.4c6.1,1.6,12.6,1.7,18.9,0.6
			c6.3-1.1,12.3-3.4,17.9-6.2l-0.1,0.1c0.1-0.1,0.2-0.3,0.2-0.5c0.1-0.2,0.1-0.5,0.1-0.7c0-0.5,0-1-0.1-1.6c-0.2-1-0.5-2.1-0.8-3.1
			c-0.7-2-1.6-4-2.7-5.9l-0.1-0.2l0.1-0.2c0.2-0.4,0.4-0.7,0.7-1c0.2-0.3,0.5-0.6,0.8-0.9c0.5-0.6,1.1-1.1,1.7-1.6l0,0
			c1.3-1.4,2.3-3.1,2.8-4.9c0.5-1.8,0.3-3.8-0.4-5.5c-0.8-1.7-2.1-3.2-3.6-4.4c-1.5-1.2-3.2-2.3-4.9-3.2l0.1,0
			c-6-1.2-12.2-2.1-18.3-2.5c-3.1-0.2-6.2-0.3-9.2,0c-1.5,0.1-3.1,0.3-4.6,0.7C120.7,91.8,119.3,92.3,118,93.3L118,93.3L118,93.3z
			 M118,93.2c1.2-1,2.7-1.6,4.1-2.1c1.5-0.4,3-0.7,4.6-0.9c3.1-0.3,6.2-0.3,9.3-0.2c3.1,0.1,6.2,0.4,9.3,0.8
			c3.1,0.4,6.2,0.8,9.2,1.4l0.1,0l0.1,0c1.8,0.9,3.5,2,5.1,3.3c1.6,1.3,3,2.9,3.9,4.8c0.9,1.9,1.1,4.2,0.5,6.2
			c-0.6,2-1.6,3.8-3.1,5.4l0,0l0,0c-0.6,0.4-1.1,0.9-1.6,1.4c-0.3,0.3-0.5,0.5-0.7,0.8c-0.2,0.3-0.4,0.6-0.6,0.8l0-0.4
			c1,2,1.9,4,2.6,6.1c0.3,1.1,0.6,2.1,0.8,3.3c0.1,0.6,0.1,1.1,0.1,1.7c0,0.3-0.1,0.6-0.2,0.9c-0.1,0.3-0.2,0.6-0.5,0.9l0,0l-0.1,0
			c-5.7,2.8-11.9,4.9-18.2,5.9c-6.3,1-12.8,1-19-0.5c-3.1-0.7-6.2-1.8-9-3.2c-1.4-0.7-2.8-1.5-4.2-2.4c-0.7-0.5-1.3-0.9-1.9-1.4
			c-0.3-0.3-0.6-0.5-0.9-0.8c-0.3-0.3-0.6-0.6-0.8-1c-0.5-0.8-0.5-1.8-0.4-2.6c0.1-0.9,0.4-1.6,0.8-2.4c0.7-1.5,1.6-2.8,2.5-4.1
			c0.4-0.7,0.9-1.3,1.3-2c0.2-0.3,0.3-0.7,0.3-0.9c0,0,0-0.1,0-0.1c0,0,0,0,0,0l0,0c0,0,0,0,0,0l0,0l-0.1,0
			c-0.2-0.1-0.4-0.2-0.5-0.4c-1.3-1-2.3-2.3-3.2-3.7l0,0l0-0.1c-0.4-1.6-0.5-3.4-0.1-5.1c0.4-1.7,1.2-3.2,2.3-4.5
			c1.1-1.3,2.5-2.3,3.9-3.1C114.9,94.3,116.4,93.7,118,93.2z"/>
	</g>
	<g>
		<path class="st12" d="M127.9,90.4c-0.9,0.1-1.8,0.2-2.7,0.3l3.5,42.9c0.6,0.1,1.2,0.2,1.8,0.2L127.9,90.4z"/>
		<path class="st19" d="M134.3,90.4l1.4,43.6c0.9,0,1.8-0.1,2.7-0.2V90.6C137.1,90.5,135.7,90.4,134.3,90.4z"/>
		<path class="st12" d="M138.4,90.6v43.2c0.9-0.1,1.8-0.2,2.7-0.3l2.3-42.4C141.8,90.9,140.2,90.7,138.4,90.6z"/>
		<path class="st12" d="M130.9,90.3l1.7,43.6c1,0,2,0,3.1,0l-1.4-43.6C133.1,90.3,132,90.3,130.9,90.3z"/>
		<path class="st19" d="M130.9,90.3c-1,0-2.1,0-3,0.1l2.7,43.4c0.7,0.1,1.4,0.1,2.1,0.1L130.9,90.3z"/>
	</g>
	<g>
		<g>
			<circle class="st5" cx="122.5" cy="91.7" r="2.5"/>
			<circle class="st5" cx="122.3" cy="92.6" r="2.6"/>
			<circle class="st5" cx="122" cy="94.9" r="2.7"/>
			<circle class="st5" cx="121.7" cy="98.2" r="2.8"/>
			<circle class="st5" cx="121.8" cy="102.3" r="2.9"/>
			<circle class="st5" cx="122.4" cy="106.7" r="3"/>
			<circle class="st5" cx="123.8" cy="111.1" r="3.1"/>
			<circle class="st5" cx="126.3" cy="115.1" r="3.2"/>
			<circle class="st5" cx="130.1" cy="118.4" r="3.3"/>
			<circle class="st5" cx="135.4" cy="120.5" r="3.4"/>
		</g>
		<g>
			<circle class="st5" cx="147.9" cy="92.1" r="2.4"/>
			<circle class="st5" cx="148.1" cy="92.9" r="2.5"/>
			<circle class="st5" cx="148.4" cy="95.1" r="2.6"/>
			<circle class="st5" cx="148.8" cy="98.4" r="2.7"/>
			<circle class="st5" cx="148.8" cy="102.4" r="2.8"/>
			<circle class="st5" cx="148.3" cy="106.7" r="2.9"/>
			<circle class="st5" cx="146.9" cy="111" r="3.1"/>
			<circle class="st5" cx="144.5" cy="115" r="3.2"/>
			<circle class="st5" cx="140.8" cy="118.2" r="3.3"/>
			<circle class="st5" cx="135.5" cy="120.3" r="3.4"/>
		</g>
	</g>
	<g>
		
			<ellipse transform="matrix(0.9881 -0.1536 0.1536 0.9881 -10.1883 15.6097)" class="st15" cx="95.9" cy="73.8" rx="6.7" ry="7.1"/>
		<path class="st12" d="M102.6,72.7c0.3,1.8,0.1,3.7-0.9,5.3c-0.9,1.7-2.7,2.9-4.6,3.1c-1.9,0.2-3.8-0.5-5.2-1.7
			c-1.4-1.2-2.4-2.8-2.8-4.7c-0.4-1.8-0.1-3.8,1-5.5c1-1.6,2.8-2.9,4.7-3.1c1.9-0.3,4,0.3,5.3,1.7C101.5,69.2,102.3,70.9,102.6,72.7
			z M102.5,72.7c-0.3-1.8-1.4-3.4-2.8-4.3c-1.4-1-3.1-1.4-4.8-1.1c-1.6,0.3-3.1,1.2-4.1,2.6c-1,1.4-1.4,3.1-1.2,4.9
			c0.2,1.7,1,3.4,2.4,4.5c1.4,1.1,3.2,1.5,4.9,1.1c1.7-0.3,3.1-1.3,4.2-2.6C102.2,76.4,102.8,74.5,102.5,72.7z"/>
	</g>
	<path class="st13" d="M102.5,72.7c-0.6-3.9-4-6.5-7.7-6c-1.7,0.3-3.1,1.2-4.1,2.4c3.1,1.9,4.6,7.1,2.9,11.1c1,0.4,2.2,0.6,3.4,0.4
		C100.7,80.2,103.1,76.6,102.5,72.7z"/>
	<g>
		<ellipse transform="matrix(0.9272 0.3746 -0.3746 0.9272 40.1552 -59.0784)" class="st15" cx="172" cy="73.8" rx="6.7" ry="7.1"/>
		<path class="st12" d="M178.3,76.3c-0.7,1.7-1.8,3.2-3.5,4.1c-1.6,1-3.8,1.1-5.5,0.3c-1.8-0.8-3-2.4-3.6-4.1
			c-0.6-1.7-0.6-3.7,0-5.4c0.6-1.8,1.9-3.3,3.6-4.2c1.7-0.9,3.8-1,5.6-0.3c1.8,0.7,3.2,2.3,3.7,4.2
			C179.2,72.7,178.9,74.6,178.3,76.3z M178.2,76.2c0.7-1.7,0.6-3.6-0.2-5.1c-0.7-1.6-2-2.8-3.5-3.4c-1.5-0.6-3.3-0.6-4.8,0.1
			c-1.5,0.7-2.8,2-3.5,3.5c-0.7,1.6-0.9,3.5-0.2,5.1c0.6,1.6,2,2.9,3.6,3.5c1.6,0.6,3.3,0.5,4.9-0.1
			C176.1,79.2,177.5,77.9,178.2,76.2z"/>
	</g>
	<path class="st14" d="M155.1,93.1c-0.2-0.1-0.4-0.2-0.7-0.4c0,0-29.1-5.8-36.4,0.5C130.2,97,143.4,97.9,155.1,93.1z"/>
	<path class="st13" d="M177.7,69.7c-0.7-1.1-1.7-2-3-2.5c-3.4-1.4-7.4,0.4-8.8,4.1c-1.5,3.6,0.1,7.7,3.5,9.1
		c0.3,0.1,0.7,0.2,1.1,0.3c0.6-0.4,1.1-0.9,1.5-1.3C173.8,75.7,174.9,72.1,177.7,69.7z"/>
	<g>
		<path class="st15" d="M173.8,59.8c0,21.8-7,34.9-40.1,34.9c-30.2,0-39.4-12.4-39.4-34.2s14.9-41.2,39.7-41.2
			S173.8,38.1,173.8,59.8z"/>
		<path class="st12" d="M173.8,59.8c0,5.2-0.3,10.5-1.8,15.5c-0.7,2.5-1.8,4.9-3.2,7.1c-1.4,2.2-3.3,4.1-5.4,5.7
			c-4.3,3.2-9.4,4.8-14.5,5.8c-5.2,1-10.4,1.2-15.6,1.2c-5.2-0.1-10.5-0.5-15.6-1.7c-5.1-1.2-10.1-3.2-14.1-6.6
			c-4-3.4-6.6-8.2-8-13.3C94.3,68.5,94,63.2,94.1,58c0.2-5.2,1.4-10.4,3.4-15.3c2-4.8,5-9.3,8.7-13c3.8-3.7,8.3-6.6,13.3-8.4
			c5-1.8,10.3-2.5,15.5-2.4c5.3,0.1,10.5,1.1,15.4,3.1c4.9,2,9.3,5.1,12.8,9c3.5,3.9,6.2,8.5,8,13.4C173,49.4,173.9,54.6,173.8,59.8
			z M173.7,59.8c0-5.2-0.9-10.4-2.7-15.3c-1.8-4.9-4.6-9.4-8.2-13.1c-3.6-3.7-7.9-6.7-12.7-8.6c-4.8-1.9-9.9-2.9-15-3
			c-5.2-0.1-10.3,0.6-15.2,2.4c-4.8,1.7-9.3,4.5-13,8.1c-3.7,3.6-6.6,7.9-8.7,12.6c-2.1,4.7-3.2,9.8-3.5,15
			c-0.2,5.2,0,10.4,1.3,15.4c0.7,2.5,1.6,4.9,2.9,7.2c1.3,2.2,3,4.2,5,5.9c4,3.4,8.9,5.3,14,6.4c5.1,1.1,10.3,1.4,15.5,1.4
			c5.2,0,10.4-0.3,15.5-1.2c5.1-0.9,10.1-2.5,14.3-5.4c2.1-1.5,4-3.3,5.4-5.4c1.5-2.1,2.6-4.5,3.3-7C173.3,70.3,173.7,65,173.7,59.8
			z"/>
	</g>
	<path class="st13" d="M174.8,57.1c-0.4-0.2-0.8-0.3-1.1-0.5c-0.5-7.7-2.9-14.8-6.9-20.8c0.4,5.8,1,12.1,1,18.3
		c-24.7-9.6-52-12-74,3.4c-0.6,4.4,0.3,9.1,1.6,13.5c0.6-0.1,1.2-0.3,1.8-0.6c0.3-0.1,0.5-0.3,0.8-0.5c0.1,0,0.1-0.1,0.2-0.1
		c0.2-0.1,0.4-0.3,0.6-0.5c0,0,0.1-0.1,0.1-0.1c1.8-1.7,2.6-4.2,2.1-6.8c0.6,0.6,1.3,1.1,2,1.5c0,0,0,0,0,0c0,0,0,0,0.1,0
		c0.3,0.1,0.6,0.3,0.9,0.4c0,0,0,0,0,0c0.3,0.1,0.6,0.2,0.9,0.2c0.1,0,0.1,0,0.2,0c0.2,0,0.5,0.1,0.7,0.1c0.1,0,0.2,0,0.2,0
		c0.3,0,0.6,0,0.9-0.1c0.2,0,0.5-0.1,0.7-0.2c0.2-0.1,0.4-0.1,0.6-0.2c0,0,0.1,0,0.1,0c2.5-1.1,4.2-3.9,4.4-7.2
		c1.1,1.6,2.7,2.7,4.4,3.3c0,0,0,0,0,0c0.3,0.1,0.5,0.2,0.8,0.2c0,0,0.1,0,0.1,0c0.2,0.1,0.5,0.1,0.7,0.1c0.1,0,0.1,0,0.2,0
		c0.2,0,0.5,0,0.7,0c0.1,0,0.2,0,0.2,0c0.3,0,0.6,0,0.9-0.1c0.4-0.1,0.7-0.2,1-0.3c0.1,0,0.2-0.1,0.2-0.1c0.3-0.1,0.6-0.2,0.8-0.3
		c0,0,0.1,0,0.1-0.1c1.4-0.7,2.6-1.9,3.4-3.3c0,0,0.1,0.1,0.1,0.1c0.1,0.1,0.2,0.2,0.3,0.3c0.1,0.1,0.3,0.2,0.4,0.3
		c0.1,0.1,0.2,0.2,0.3,0.2c0.2,0.1,0.3,0.2,0.5,0.3c0.1,0.1,0.2,0.1,0.3,0.2c0.3,0.1,0.5,0.3,0.8,0.4c0.1,0,0.2,0.1,0.3,0.1
		c0.2,0.1,0.4,0.2,0.6,0.2c0.1,0,0.2,0.1,0.3,0.1c0.2,0.1,0.4,0.1,0.6,0.2c0.1,0,0.2,0.1,0.3,0.1c0.2,0,0.4,0.1,0.6,0.1
		c0.1,0,0.2,0,0.3,0c0.3,0,0.6,0,1,0c0.4,0,0.7,0,1.1-0.1c0.1,0,0.2,0,0.3,0c0.3,0,0.5-0.1,0.8-0.1c0.1,0,0.2,0,0.2-0.1
		c0.3-0.1,0.5-0.1,0.8-0.2c0.1,0,0.1,0,0.2-0.1c0.3-0.1,0.6-0.2,0.8-0.3c0,0,0.1,0,0.1-0.1c0.3-0.1,0.6-0.3,0.8-0.4c0,0,0,0,0.1,0
		c0.3-0.2,0.6-0.3,0.8-0.5c0,0,0,0,0,0c0.6-0.4,1.1-0.9,1.6-1.4c0,0,0,0,0,0c0.2-0.2,0.3-0.4,0.5-0.6c1,3.1,3.4,5.5,6.6,6
		c3.2,0.5,6.2-1,8.2-3.6c0.2,3.9,2.5,7,5.8,7.6c1.9,0.3,3.8-0.3,5.3-1.7c-0.9,8.3-3.4,16.1-9.4,22c-9.7,9-23.6,9.1-37.4,8
		c3.8,0.6,8.2,1,13.1,1c26.5,0,36.3-8.5,39.1-23.1c0,0,0.1,0,0.1,0C174,67,174.3,62.1,174.8,57.1z M98.3,57.4
		C98.4,57.4,98.4,57.4,98.3,57.4C98.4,57.4,98.4,57.4,98.3,57.4C98.4,57.4,98.4,57.4,98.3,57.4z"/>
	<circle class="st11" cx="134.1" cy="64.6" r="3.2"/>
	<g>
		<path class="st12" d="M128.4,87.2c1.2,0.4,2.4,0.6,3.6,0.7c1.2,0.1,2.4,0.2,3.7,0.2c2.5,0,4.9-0.5,7.4-0.9
			c-2.2,1.2-4.8,1.8-7.3,1.9c-1.3,0-2.6-0.1-3.8-0.4C130.7,88.4,129.5,87.9,128.4,87.2z"/>
	</g>
	<g>
		<path d="M152.6,76.7c1.1-0.9,2.4-1.6,3.7-2.3c1.3-0.6,2.7-1.1,4.2-1.3c1.4-0.3,3-0.5,4.5-0.2c1.5,0.4,2.9,1,3.9,2.2l-0.1,0.2
			c-1.5-0.1-2.8-0.3-4.1-0.4c-1.3,0-2.6-0.3-4-0.2c-1.3,0.1-2.7,0.3-4,0.7c-1.3,0.4-2.7,0.9-3.9,1.5L152.6,76.7z"/>
	</g>
	<g>
		<path d="M118,76.9c-1.3-0.6-2.6-1.1-3.9-1.5c-1.3-0.4-2.7-0.6-4-0.7c-1.4-0.1-2.7,0.2-4,0.2c-1.3,0.1-2.6,0.2-4.1,0.4l-0.1-0.2
			c1-1.1,2.5-1.8,3.9-2.2c1.5-0.4,3-0.1,4.5,0.2c1.5,0.3,2.8,0.8,4.2,1.3c1.3,0.6,2.6,1.3,3.7,2.3L118,76.9z"/>
	</g>
	<g>
		<g>
			<path class="st10" d="M170.1,30.2c2.6,4.3,1.9,9.2-1.7,10.9l0,0c-3.5,1.7-8.5-0.4-11.1-4.7l-0.4-0.7c-2.6-4.3-1.9-9.2,1.7-10.9
				l0,0c3.5-1.7,8.5,0.4,11.1,4.7L170.1,30.2z"/>
			<path class="st12" d="M170.2,30.2c1.1,1.9,1.9,4.1,1.8,6.4c-0.1,1.1-0.5,2.3-1.2,3.2c-0.7,1-1.8,1.7-2.9,2
				c-2.3,0.7-4.7-0.1-6.5-1.2c-1.9-1.1-3.5-2.8-4.6-4.7c-1.2-1.9-2-4.2-1.7-6.5c0.1-1.2,0.6-2.3,1.3-3.3c0.7-1,1.8-1.7,2.9-2
				c2.3-0.7,4.8-0.1,6.7,1.2C167.7,26.4,169.1,28.3,170.2,30.2z M170.1,30.2c-1.1-1.9-2.7-3.5-4.6-4.5c-1.9-0.9-4.1-1.4-6-0.7
				c-1.9,0.6-3.3,2.4-3.6,4.4c-0.3,2,0.2,4.2,1.3,6.1c1,1.9,2.4,3.7,4.3,4.7c1.9,1.1,4.2,1.4,6.1,0.7c1-0.3,1.8-0.9,2.4-1.7
				c0.6-0.8,1.1-1.8,1.3-2.8C171.7,34.4,171.2,32.1,170.1,30.2z"/>
		</g>
		<g>
			<path class="st10" d="M158.2,25c1.7,5.1-0.6,10.2-5.2,11.4l0,0c-4.6,1.2-9.7-2-11.4-7.1l-0.3-0.9c-1.7-5.1,0.6-10.2,5.2-11.4l0,0
				c4.6-1.2,9.7,2,11.4,7.1L158.2,25z"/>
			<path class="st12" d="M158.2,25c0.8,2.3,1,5,0,7.4c-0.5,1.2-1.3,2.3-2.3,3.1c-1,0.8-2.3,1.3-3.6,1.5c-2.6,0.3-5.2-0.7-7.1-2.3
				c-2-1.6-3.4-3.8-4.1-6.2c-0.9-2.4-1-5.1,0.1-7.5c0.5-1.2,1.4-2.3,2.4-3.1c1-0.8,2.3-1.3,3.6-1.5c2.7-0.4,5.3,0.6,7.2,2.3
				C156.3,20.3,157.5,22.6,158.2,25z M158.1,25c-1.3-4.8-6.2-8.4-10.8-7.7c-2.3,0.3-4.3,1.9-5.4,4c-1,2.1-1.1,4.7-0.4,7
				c0.6,2.4,1.9,4.6,3.8,6.1c1.9,1.5,4.5,2.2,6.8,1.7c2.3-0.4,4.4-1.9,5.5-4C158.7,30,158.9,27.3,158.1,25z"/>
		</g>
		<g>
			<path class="st10" d="M97.9,30.5c-2.4,4.4-1.5,9.2,2.1,10.8l0,0c3.6,1.6,8.5-0.7,10.9-5.1l0.4-0.8c2.4-4.4,1.5-9.2-2.1-10.8l0,0
				c-3.6-1.6-8.5,0.7-10.9,5.1L97.9,30.5z"/>
			<path class="st12" d="M98,30.5c-1.1,1.9-1.4,4.2-0.9,6.3c0.2,1,0.7,2,1.4,2.7c0.7,0.8,1.5,1.3,2.5,1.6c2,0.6,4.3,0.2,6.1-0.9
				c1.9-1.1,3.2-2.9,4.1-4.9c0.9-1.9,1.4-4.1,1-6.1c-0.4-2-1.8-3.8-3.8-4.3c-1.9-0.6-4.1,0-6,1C100.5,26.8,98.9,28.5,98,30.5z
				 M97.9,30.4c1-2,2.3-3.8,4.2-5.2c1.8-1.3,4.3-2.1,6.6-1.4c1.2,0.3,2.2,1,3,1.9c0.8,0.9,1.2,2.1,1.4,3.2c0.4,2.3-0.3,4.7-1.4,6.6
				c-1.1,1.9-2.6,3.7-4.4,4.9c-1.8,1.2-4.2,2-6.5,1.5c-1.1-0.3-2.2-0.9-3-1.9c-0.8-0.9-1.2-2.1-1.3-3.2
				C96.1,34.6,96.8,32.4,97.9,30.4z"/>
		</g>
		<g>
			<path class="st10" d="M111,23.4c-2.3,4.9-0.6,10.2,3.9,11.9l0,0c4.4,1.6,9.9-1,12.2-6l0.4-0.8c2.3-4.9,0.6-10.2-3.9-11.9l0,0
				c-4.4-1.6-9.9,1-12.2,6L111,23.4z"/>
			<path class="st12" d="M111,23.4c-1.1,2.2-1.2,4.9-0.3,7.1c0.9,2.2,2.7,4,5,4.6c2.3,0.6,4.9,0.2,6.9-1.1c2.1-1.3,3.6-3.4,4.5-5.7
				c0.9-2.2,1.1-4.8,0.4-7c-0.8-2.2-2.7-4-4.9-4.5C118.1,15.8,112.8,18.8,111,23.4z M110.9,23.4c0.9-2.3,2.4-4.5,4.5-6
				c2.1-1.5,4.8-2.2,7.4-1.6c1.3,0.3,2.5,1,3.5,1.9c1,0.9,1.7,2.1,2.1,3.3c0.8,2.5,0.4,5.3-0.8,7.5c-1,2.3-2.7,4.4-4.8,5.7
				c-2.1,1.4-4.7,2.2-7.3,1.6c-1.3-0.3-2.5-0.9-3.5-1.8c-1-0.9-1.6-2.1-2-3.3C109.4,28.3,109.9,25.7,110.9,23.4z"/>
		</g>
		<g>
			<path class="st10" d="M143.8,24.1c0,5.7-4.7,10.4-10.4,10.4l0,0c-5.7,0-10.4-4.7-10.4-10.4v-1c0-5.7,4.7-10.4,10.4-10.4l0,0
				c5.7,0,10.4,4.7,10.4,10.4V24.1z"/>
			<path class="st12" d="M143.9,24.1c0,2.8-1,5.7-3.1,7.8c-1,1-2.2,1.9-3.6,2.4c-1.4,0.5-2.9,0.7-4.3,0.6c-3-0.2-5.6-1.7-7.5-3.9
				c-0.9-1.1-1.6-2.3-2.1-3.7c-0.2-0.7-0.4-1.4-0.5-2.1c-0.1-0.7-0.1-1.4-0.1-2.1c-0.1-2.9,1.1-5.8,3.2-7.9c2.1-2.1,5.1-3.2,8-3.1
				c3,0.1,5.8,1.6,7.6,3.9c0.9,1.1,1.6,2.4,1.9,3.8C143.9,21.3,143.9,22.7,143.9,24.1z M143.8,24.1c0-0.7,0-1.4-0.1-2.1
				c-0.1-0.7-0.2-1.4-0.5-2c-0.5-1.3-1.2-2.5-2.2-3.5c-1.9-2-4.5-3.2-7.1-3.3c-2.7-0.1-5.4,0.8-7.3,2.7c-2,1.8-3.2,4.4-3.3,7.2
				c-0.1,1.4-0.1,2.8,0.4,4.1c0.4,1.3,1.1,2.6,2,3.6c1.8,2.1,4.6,3.2,7.2,3.3c2.7,0.1,5.4-0.9,7.4-2.7
				C142.4,29.7,143.8,26.9,143.8,24.1z"/>
		</g>
		<path class="st1" d="M158.3,25c0,0-0.1,0-0.1,0.1c0,0,0,0,0-0.1l-0.3-0.9c-0.2-0.6-0.5-1.2-0.8-1.8c-2.6,5-9.7,1.3-15.2,3.2
			c0-2.2-3.2-2.2-3.2-2.2c-9.7-4.3-23.7,0-28,9.7c-3.2-3.2-7.5,1.1-10.8,0c-1.6-1.1-1.6-2.4-1.2-3.8c-0.1,0.2-0.2,0.3-0.3,0.5
			l-0.4,0.8c-2.4,4.4-1.5,9.2,2.1,10.8c3.6,1.6,8.5-0.7,10.9-5.1l0.4-0.8c0.3-0.6,0.6-1.2,0.8-1.9c0.7,0.7,1.6,1.3,2.7,1.7
			c3.8,1.4,8.4-0.4,11-4c1.9,2,4.6,3.3,7.6,3.3c3.5,0,6.6-1.7,8.5-4.4c2,4.6,6.8,7.4,11.1,6.2c1.3-0.3,2.4-1,3.3-1.9
			c0.2,0.4,0.4,0.8,0.6,1.2l0.4,0.7c2.6,4.3,7.6,6.4,11.1,4.7c3.4-1.6,4.2-6.2,2-10.3c-0.2,0.1-0.4,0.1-0.6,0.1
			C165.2,32.7,159.7,30.5,158.3,25z"/>
		<g>
			<path class="st10" d="M180.3,48.6c0.3,4.8-2.7,8.7-6.7,8.7l0,0c-4,0-7.6-3.9-7.9-8.7l-0.1-0.8c-0.3-4.8,2.7-8.7,6.7-8.7l0,0
				c4,0,7.6,3.9,7.9,8.7L180.3,48.6z"/>
			<path class="st12" d="M180.3,48.6c0.1,2.2-0.2,4.5-1.5,6.3c-0.6,0.9-1.5,1.7-2.6,2.2c-1.1,0.5-2.3,0.7-3.4,0.5
				c-2.3-0.3-4.2-1.9-5.5-3.7c-1.3-1.8-2-4-2.1-6.2c-0.3-2.2,0.2-4.6,1.6-6.5c0.7-0.9,1.6-1.7,2.7-2.2c1.1-0.5,2.3-0.7,3.5-0.6
				c2.4,0.3,4.4,1.8,5.6,3.7C179.8,44.2,180.3,46.4,180.3,48.6z M180.2,48.6c0-4.4-3.3-8.5-7.3-9c-2-0.2-4,0.7-5.3,2.3
				c-1.3,1.6-1.9,3.7-1.8,5.8c0,2.2,0.5,4.3,1.8,6c1.3,1.7,3.2,2.9,5.3,3c2,0.2,4-0.7,5.4-2.3C179.7,53,180.4,50.8,180.2,48.6z"/>
		</g>
		<g>
			<path class="st10" d="M170.8,41.7c0.9,4.9-1.6,9.2-5.6,9.7l0,0c-4,0.5-7.8-3-8.7-7.9l-0.1-0.8c-0.9-4.9,1.6-9.2,5.6-9.7l0,0
				c4-0.5,7.8,3,8.7,7.9L170.8,41.7z"/>
			<path class="st12" d="M170.8,41.7c0.4,2.1,0.3,4.5-0.7,6.5c-0.5,1-1.2,2-2.2,2.6c-1,0.7-2.2,1-3.3,1c-2.4,0-4.4-1.4-5.8-3.1
				c-1.4-1.7-2.3-3.8-2.7-6c-0.5-2.2-0.3-4.6,0.8-6.6c0.5-1,1.3-1.9,2.3-2.6c1-0.7,2.2-1,3.4-1.1c2.4,0,4.6,1.3,6,3.1
				C169.9,37.4,170.5,39.6,170.8,41.7z M170.7,41.7c-0.3-2.2-1.2-4.2-2.7-5.8c-1.5-1.5-3.4-2.6-5.4-2.5c-2,0-3.9,1.3-4.9,3.1
				c-1,1.8-1.4,4-1.1,6.1c0.2,2.2,0.9,4.3,2.4,5.9c1.4,1.6,3.5,2.6,5.6,2.5c2.1-0.1,3.9-1.3,5-3.1C170.7,46.2,171.1,43.9,170.7,41.7
				z"/>
		</g>
		<g>
			<path class="st10" d="M158.3,36.9c0.9,5.3-2.2,10-7,10.6l0,0c-4.7,0.5-9.3-3.3-10.1-8.6l-0.2-0.9c-0.9-5.3,2.2-10,7-10.6l0,0
				c4.7-0.5,9.3,3.3,10.1,8.6L158.3,36.9z"/>
			<path class="st12" d="M158.4,36.9c0.4,2.4,0.1,5.1-1.2,7.3c-0.7,1.1-1.6,2.1-2.7,2.7c-1.1,0.7-2.5,1-3.8,1
				c-2.7,0-5.1-1.4-6.8-3.2c-1.7-1.8-2.8-4.3-3.2-6.7c-0.5-2.5-0.1-5.2,1.3-7.4c0.7-1.1,1.7-2,2.8-2.7c1.1-0.7,2.5-1,3.8-1.1
				c2.7-0.1,5.2,1.2,6.9,3.2C157.3,32,158.1,34.4,158.4,36.9z M158.3,36.9c-0.5-5-4.9-9.2-9.5-9c-2.3,0-4.5,1.3-5.9,3.2
				c-1.3,1.9-1.8,4.4-1.5,6.8c0.2,2.5,1.1,4.8,2.8,6.6c1.7,1.8,4.1,2.7,6.5,2.6c2.4-0.1,4.6-1.3,6-3.3
				C158.1,41.9,158.7,39.3,158.3,36.9z"/>
		</g>
		<g>
			<path class="st10" d="M89.3,44.2c-1.3,4.4,1,8.9,5.1,10l0,0c4.1,1.1,8.4-1.5,9.7-5.9l0.2-0.8c1.3-4.4-1-8.9-5.1-10l0,0
				c-4.1-1.1-8.4,1.5-9.7,5.9L89.3,44.2z"/>
			<path class="st12" d="M89.4,44.2c-0.6,2.1-0.3,4.3,0.8,6.1c1.1,1.8,2.8,3.1,4.8,3.5c1.9,0.5,4.2,0.1,5.9-1.2
				c1.7-1.3,2.8-3.2,3.2-5.3c0.5-2,0.3-4.2-0.7-6c-1-1.8-2.7-3.1-4.7-3.5c-1.9-0.4-4,0.1-5.8,1.2C91.1,40.3,89.8,42.1,89.4,44.2z
				 M89.3,44.2c0.5-2.1,1.5-4.2,3.2-5.6c1.7-1.5,4.1-2.2,6.4-1.7c2.3,0.4,4.3,2.1,5.2,4.1c1,2,1.1,4.5,0.4,6.6
				c-0.6,2.1-1.8,4.1-3.5,5.4c-1.7,1.3-4,2.1-6.3,1.7c-2.2-0.4-4.3-2-5.1-4.1C88.7,48.6,88.7,46.3,89.3,44.2z"/>
		</g>
		<g>
			<path class="st10" d="M98.2,40.6c-1.1,4.8,1.1,9.3,5,10l0,0c3.9,0.7,8-2.7,9.1-7.5l0.2-0.8c1.1-4.8-1.1-9.3-5-9.9l0,0
				c-3.9-0.7-8,2.7-9.1,7.5L98.2,40.6z"/>
			<path class="st12" d="M98.2,40.7c-0.5,2.1-0.2,4.4,0.8,6.3c1,1.8,2.8,3.2,4.9,3.3c2,0.2,4.2-0.7,5.7-2.2c1.5-1.5,2.4-3.6,2.7-5.8
				c0.4-2.1,0.2-4.3-0.7-6.1c-0.9-1.9-2.7-3.2-4.7-3.3c-2-0.2-4,0.8-5.6,2.2C99.7,36.5,98.6,38.5,98.2,40.7z M98.1,40.6
				c0.4-2.1,1.2-4.3,2.7-6c1.4-1.7,3.7-3,6.1-2.9c1.2,0.1,2.4,0.5,3.3,1.2c1,0.7,1.7,1.7,2.2,2.7c1,2.1,1,4.5,0.4,6.7
				c-0.5,2.1-1.5,4.2-3,5.9c-1.5,1.6-3.6,2.9-6,2.9c-1.2,0-2.3-0.4-3.3-1.2c-1-0.7-1.7-1.7-2.1-2.7C97.6,45.1,97.7,42.8,98.1,40.6z"
				/>
		</g>
		<g>
			<path class="st10" d="M110.6,36.2c-0.9,5.3,2.2,10,7,10.6l0,0c4.7,0.6,9.3-3.3,10.2-8.6l0.2-0.9c0.9-5.3-2.2-10-7-10.6l0,0
				c-4.7-0.6-9.3,3.3-10.2,8.6L110.6,36.2z"/>
			<path class="st12" d="M110.6,36.2c-0.4,2.4,0.2,5,1.6,6.9c1.4,1.9,3.6,3.2,6,3.3c2.3,0.2,4.8-0.8,6.5-2.6
				c1.7-1.8,2.7-4.1,2.9-6.6c0.3-2.4-0.2-4.9-1.5-6.8c-1.3-2-3.5-3.2-5.9-3.2C115.5,27,111.1,31.2,110.6,36.2z M110.5,36.2
				c0.3-2.5,1.1-4.9,2.8-6.9c1.7-1.9,4.2-3.3,6.9-3.2c1.3,0,2.6,0.4,3.8,1.1c1.1,0.7,2.1,1.6,2.8,2.7c1.4,2.2,1.8,5,1.3,7.4
				c-0.4,2.5-1.4,4.9-3.2,6.7c-1.7,1.8-4.1,3.2-6.8,3.2c-1.3,0-2.6-0.3-3.7-1c-1.1-0.7-2.1-1.6-2.7-2.7
				C110.4,41.2,110.1,38.6,110.5,36.2z"/>
		</g>
		<g>
			<path class="st10" d="M143.8,34.9c0,5.7-4.7,10.4-10.4,10.4l0,0c-5.7,0-10.4-4.7-10.4-10.4v-1c0-5.7,4.7-10.4,10.4-10.4l0,0
				c5.7,0,10.4,4.7,10.4,10.4V34.9z"/>
			<path class="st12" d="M143.9,34.9c0,2.8-1,5.7-3.1,7.8c-1,1-2.2,1.9-3.6,2.4c-1.4,0.5-2.9,0.7-4.3,0.6c-3-0.2-5.6-1.7-7.5-3.9
				c-0.9-1.1-1.6-2.3-2.1-3.7c-0.2-0.7-0.4-1.4-0.5-2.1c-0.1-0.7-0.1-1.4-0.1-2.1c-0.1-2.9,1.1-5.8,3.2-7.9c2.1-2.1,5.1-3.2,8-3.1
				c3,0.1,5.8,1.6,7.6,3.9c0.9,1.1,1.6,2.4,1.9,3.8C143.9,32.1,143.9,33.5,143.9,34.9z M143.8,34.9c0-0.7,0-1.4-0.1-2.1
				c-0.1-0.7-0.2-1.4-0.5-2c-0.5-1.3-1.2-2.5-2.2-3.5c-1.9-2-4.5-3.2-7.1-3.3c-2.7-0.1-5.4,0.8-7.3,2.7c-2,1.8-3.2,4.4-3.3,7.2
				c-0.1,1.4-0.1,2.8,0.4,4.1c0.4,1.3,1.1,2.6,2,3.6c1.8,2.1,4.6,3.2,7.2,3.3c2.7,0.1,5.4-0.9,7.4-2.7
				C142.4,40.4,143.8,37.7,143.8,34.9z"/>
		</g>
		<path class="st1" d="M180.3,48.6l-0.1-0.8c-0.1-1.9-0.8-3.6-1.7-5c-0.4,4-2.2,7.5-6.5,7.5c0-3.7,0-7.4,0-11.1
			c-0.6,0-1.2,0.2-1.7,0.4c-0.5-1.6-1.3-3-2.4-4.1c0,2.7-0.3,5.2-2.3,5.2c-2.7,0-5.9-0.3-9.1-1.1c-6.2-1.5-11.8-4.9-11-11.3
			c-0.4,0.2-0.7,0.4-1.1,0.6c-1.2,0.9-2.1,2.1-2.7,3.5c-4.7,1.7-10.9-2-13.8,2.2c0,0,0,0,0,0c0,0,0,0,0,0c-0.1,0.1-0.1,0.2-0.2,0.3
			c0,0.1-0.1,0.2-0.1,0.2c-0.1,0.1-0.1,0.3-0.2,0.4c0,0.1-0.1,0.2-0.1,0.3c-0.1,0.1-0.1,0.3-0.2,0.5c0,0.1-0.1,0.2-0.1,0.3
			c-0.1,0.3-0.2,0.5-0.2,0.8c-0.5-0.2-1.1-0.3-1.6-0.5c-0.1,0-0.2-0.1-0.4-0.1c-0.6-0.2-1.1-0.3-1.7-0.5c0,0,0,0,0,0v0
			c-4-1-8.1-1.3-10.5,1.4c0,0,0,0,0,0c0,0,0,0,0,0c0,0-0.1,0.1-0.1,0.1c-0.2,0.3-0.4,0.5-0.6,0.8c0,0,0,0.1-0.1,0.1
			c-0.2,0.3-0.4,0.7-0.5,1.1c0,0,0,0,0,0c-0.3,0.8-0.5,1.8-0.7,2.9c-4.5-4.5-8.2,2.2-11.8,4.6c0,0,0,0,0,0c-0.7,0.5-1.5,0.8-2.2,0.8
			c-5.3,0.9-6.2-5.4-3.5-9.5c-1.7,1.1-3,2.8-3.6,4.9l-0.2,0.8c-1.3,4.4,1,8.9,5.1,10c3.3,0.9,6.8-0.7,8.6-3.6c0.1,0,0.1,0,0.2,0
			c3.8,0.7,7.7-2.4,9-7c1.3,1.7,3.1,2.9,5.3,3.1c3.4,0.4,6.7-1.5,8.6-4.5c1.9,1.9,4.5,3,7.3,3c3.5,0,6.5-1.7,8.4-4.3
			c1.6,4.2,5.5,6.9,9.6,6.5c2.2-0.3,4-1.4,5.3-3.1c1.2,4.4,4.8,7.5,8.5,7c0.3,0,0.7-0.1,1-0.2c1.2,3.6,4.1,6.1,7.4,6.1
			C177.6,57.3,180.6,53.4,180.3,48.6z"/>
		<g>
			<path class="st10" d="M181.6,64.1c-1.9,3.9-6.3,5.6-9.9,3.9l0,0c-3.6-1.7-5-6.3-3.1-10.1l0.3-0.7c1.9-3.9,6.3-5.6,9.9-3.9l0,0
				c3.6,1.7,5,6.3,3.1,10.1L181.6,64.1z"/>
			<path class="st12" d="M181.6,64.1c-0.9,1.8-2.3,3.4-4.3,4.3c-1.9,0.9-4.3,0.8-6.2-0.3c-1.9-1.1-3-3.1-3.4-5.1c-0.4-2,0-4.2,0.9-6
				c0.8-1.9,2.4-3.6,4.4-4.4c2-0.8,4.4-0.8,6.3,0.3c1.9,1.1,3.2,3.1,3.5,5.2C183.2,60.3,182.6,62.4,181.6,64.1z M181.5,64.1
				c1-1.8,1.3-3.9,0.7-5.8c-0.5-1.9-1.7-3.5-3.4-4.4c-1.7-0.9-3.7-1-5.5-0.4c-1.8,0.7-3.3,2-4.3,3.7c-1,1.7-1.5,3.8-1.1,5.7
				c0.4,1.9,1.8,3.6,3.5,4.4c1.7,0.9,3.7,1,5.6,0.4C179,67.3,180.6,65.9,181.5,64.1z"/>
		</g>
		<g>
			<path class="st10" d="M170.6,54.6c-0.8,4.9-4.6,8.3-8.6,7.6l0,0c-3.9-0.6-6.5-5.1-5.7-10l0.1-0.8c0.8-4.9,4.6-8.3,8.6-7.6l0,0
				c3.9,0.6,6.5,5.1,5.7,10L170.6,54.6z"/>
			<path class="st12" d="M170.6,54.6c-0.4,2.1-1.2,4.3-2.8,6c-0.8,0.8-1.8,1.5-2.9,1.9c-1.1,0.4-2.3,0.4-3.5,0.1
				c-1.2-0.3-2.2-1-2.9-1.8c-0.8-0.8-1.4-1.8-1.8-2.8c-0.8-2.1-0.9-4.4-0.6-6.6c0.3-2.2,1.2-4.4,2.9-6c0.8-0.8,1.8-1.5,3-1.8
				c1.1-0.4,2.4-0.4,3.5-0.2c2.4,0.6,4.1,2.5,4.8,4.7C171.2,50.1,171.1,52.4,170.6,54.6z M170.5,54.5c0.5-2.1,0.2-4.4-0.7-6.3
				c-0.9-1.9-2.5-3.5-4.5-3.9c-2-0.5-4.1,0.2-5.6,1.6c-1.5,1.4-2.6,3.4-3,5.4c-0.5,2.1-0.5,4.3,0.3,6.3c0.8,2,2.6,3.6,4.6,3.9
				c2,0.4,4.1-0.3,5.7-1.6C169,58.7,170.2,56.7,170.5,54.5z"/>
		</g>
		<g>
			<path class="st10" d="M158.1,50.1c-0.9,5.3-5.4,9-10.1,8.2l0,0c-4.7-0.8-7.8-5.7-6.9-11l0.2-0.9c0.9-5.3,5.4-9,10.1-8.2l0,0
				c4.7,0.8,7.8,5.7,6.9,11L158.1,50.1z"/>
			<path class="st12" d="M158.2,50.1c-0.4,2.4-1.5,4.8-3.4,6.6c-1.9,1.8-4.7,2.6-7.2,1.9c-2.6-0.7-4.6-2.6-5.6-4.9
				c-1.1-2.3-1.3-4.9-0.9-7.4c0.3-2.5,1.5-5,3.5-6.7c1-0.8,2.2-1.5,3.4-1.8c1.3-0.4,2.7-0.4,3.9-0.1c2.6,0.6,4.8,2.6,5.8,4.9
				C158.7,45,158.7,47.7,158.2,50.1z M158.1,50c0.5-2.4,0.2-5-1-7.1c-1.2-2.1-3.1-3.7-5.4-4.2c-2.3-0.5-4.7,0.1-6.6,1.6
				c-1.8,1.5-3.1,3.7-3.6,6c-0.6,2.4-0.5,4.9,0.6,7.1c1.1,2.2,3.2,3.8,5.5,4.2c2.3,0.5,4.7-0.2,6.7-1.6
				C156.3,54.7,157.7,52.5,158.1,50z"/>
		</g>
		<g>
			<path class="st10" d="M87.3,63.4c1.9,3.9,6.3,5.6,9.9,3.9l0,0c3.6-1.7,5-6.3,3.1-10.1l-0.3-0.7c-1.9-3.9-6.3-5.6-9.9-3.9l0,0
				c-3.6,1.7-5,6.3-3.1,10.1L87.3,63.4z"/>
			<path class="st12" d="M87.4,63.4c0.9,1.8,2.5,3.2,4.4,3.8c1.9,0.6,3.8,0.5,5.6-0.4c1.7-0.8,3-2.5,3.5-4.4c0.4-2,0-4-1.1-5.7
				c-0.9-1.7-2.5-3.1-4.3-3.7c-1.8-0.7-3.8-0.5-5.5,0.4c-1.6,0.9-2.8,2.5-3.4,4.4C86.1,59.5,86.4,61.6,87.4,63.4z M87.3,63.4
				c-1-1.8-1.6-3.8-1.3-6c0.3-2.1,1.6-4.1,3.5-5.2c1.9-1.1,4.3-1.1,6.3-0.3c2,0.8,3.6,2.4,4.4,4.4c0.9,1.8,1.3,4,0.9,6
				c-0.4,2-1.5,4-3.4,5.1c-1.8,1.1-4.3,1.2-6.2,0.3C89.6,66.9,88.2,65.2,87.3,63.4z"/>
		</g>
		<g>
			<path class="st10" d="M98.3,53.8c0.8,4.9,4.6,8.3,8.6,7.6l0,0c3.9-0.6,6.5-5.1,5.7-10l-0.1-0.8c-0.8-4.9-4.6-8.3-8.6-7.6l0,0
				c-3.9,0.6-6.5,5.1-5.7,10L98.3,53.8z"/>
			<path class="st12" d="M98.4,53.8c0.3,2.2,1.5,4.2,3.1,5.5c1.6,1.4,3.7,2.1,5.7,1.6c2-0.4,3.8-2,4.6-3.9c0.9-2,0.9-4.2,0.3-6.3
				c-0.4-2.1-1.5-4-3-5.4c-1.5-1.4-3.6-2.1-5.6-1.6c-1.9,0.4-3.5,2-4.5,3.9C98.1,49.4,97.9,51.7,98.4,53.8z M98.3,53.8
				c-0.4-2.1-0.6-4.4,0.2-6.6c0.7-2.1,2.5-4.1,4.8-4.7c1.1-0.3,2.4-0.2,3.5,0.2c1.1,0.4,2.1,1,3,1.8c1.7,1.6,2.6,3.8,2.9,6
				c0.4,2.2,0.3,4.5-0.6,6.6c-0.4,1-1,2-1.8,2.8c-0.8,0.8-1.8,1.5-2.9,1.8c-1.1,0.3-2.4,0.3-3.5-0.1c-1.1-0.4-2.1-1.1-2.9-1.9
				C99.5,58.1,98.7,56,98.3,53.8z"/>
		</g>
		<g>
			<path class="st10" d="M110.8,49.3c0.9,5.3,5.4,9,10.1,8.2l0,0c4.7-0.8,7.8-5.7,6.9-11l-0.2-0.9c-0.9-5.3-5.4-9-10.1-8.2l0,0
				c-4.7,0.8-7.8,5.7-6.9,11L110.8,49.3z"/>
			<path class="st12" d="M110.8,49.3c0.4,2.4,1.8,4.7,3.7,6.1c1.9,1.4,4.3,2.1,6.7,1.6c2.3-0.4,4.4-2,5.5-4.2
				c1.1-2.2,1.2-4.8,0.6-7.1c-0.5-2.4-1.8-4.5-3.6-6c-1.8-1.5-4.3-2.1-6.6-1.6c-2.2,0.5-4.2,2.1-5.4,4.2
				C110.6,44.3,110.3,46.9,110.8,49.3z M110.7,49.3c-0.5-2.4-0.5-5,0.5-7.4c1-2.4,3.1-4.3,5.8-4.9c1.3-0.3,2.7-0.3,3.9,0.1
				c1.3,0.4,2.5,1,3.4,1.8c2,1.7,3.2,4.1,3.5,6.7c0.5,2.5,0.2,5.1-0.9,7.4c-1.1,2.3-3,4.2-5.6,4.9c-2.5,0.7-5.4-0.2-7.2-1.9
				C112.2,54.2,111.1,51.8,110.7,49.3z"/>
		</g>
		<g>
			<path class="st10" d="M143.8,45.7c0,5.7-4.7,10.4-10.4,10.4l0,0c-5.7,0-10.4-4.7-10.4-10.4v-1c0-5.7,4.7-10.4,10.4-10.4l0,0
				c5.7,0,10.4,4.7,10.4,10.4V45.7z"/>
			<path class="st12" d="M143.9,45.7c0,2.8-1,5.7-3.1,7.8c-1,1-2.2,1.9-3.6,2.4c-1.4,0.5-2.9,0.7-4.3,0.6c-3-0.2-5.6-1.7-7.5-3.9
				c-0.9-1.1-1.6-2.3-2.1-3.7c-0.2-0.7-0.4-1.4-0.5-2.1c-0.1-0.7-0.1-1.4-0.1-2.1c-0.1-2.9,1.1-5.8,3.2-7.9c2.1-2.1,5.1-3.2,8-3.1
				c3,0.1,5.8,1.6,7.6,3.9c0.9,1.1,1.6,2.4,1.9,3.8C143.9,42.8,143.9,44.3,143.9,45.7z M143.8,45.7c0-0.7,0-1.4-0.1-2.1
				c-0.1-0.7-0.2-1.4-0.5-2c-0.5-1.3-1.2-2.5-2.2-3.5c-1.9-2-4.5-3.2-7.1-3.3c-2.7-0.1-5.4,0.8-7.3,2.7c-2,1.8-3.2,4.4-3.3,7.2
				c-0.1,1.4-0.1,2.8,0.4,4.1c0.4,1.3,1.1,2.6,2,3.6c1.8,2.1,4.6,3.2,7.2,3.3c2.7,0.1,5.4-0.9,7.4-2.7
				C142.4,51.2,143.8,48.5,143.8,45.7z"/>
		</g>
		<path class="st2" d="M131.1,54.5c-3.1-1.2-5.9-3.2-7.6-5.9c1.3,4.3,5.3,7.4,10,7.4c3,0,5.7-1.3,7.6-3.3
			C138.1,54.5,135,55.4,131.1,54.5z"/>
		<g class="st2">
			<path d="M181.4,55.5c0.6,3.2,0.9,6.3-1.8,7.6c-2.9,1.9-8.2,3-11.7-0.5c0.3,2.3,1.7,4.3,3.8,5.4c3.6,1.7,8,0,9.9-3.9l0.3-0.7
				C183.2,60.7,182.9,57.7,181.4,55.5z"/>
			<path d="M156.9,49.2c2-0.5,2.4-1.9,2.5-3.5c-0.4,0.3-0.7,0.7-1,1.1c-0.2-4.3-3-8-7-8.7c-0.8-0.1-1.6-0.1-2.3,0
				C153.3,40.3,156,43.5,156.9,49.2z"/>
			<path d="M93.4,59.9c-1.8-0.9-3.6-4.2-2.2-7.8c-0.4,0.1-0.8,0.2-1.1,0.4c-3.6,1.7-5,6.3-3.1,10.1l0.3,0.7c1.9,3.9,6.3,5.6,9.9,3.9
				c2.4-1.2,3.8-3.6,3.9-6.3C98.5,61.1,95.9,60.7,93.4,59.9z"/>
			<path d="M106.9,61.5c1.9-0.3,3.5-1.6,4.5-3.3c-2.7,1.4-5.6,2.3-8.4,2.7C104.2,61.4,105.5,61.7,106.9,61.5z"/>
			<path d="M112.8,53.5c0,0.6,0.6,1.1,1,1.7c1.9,1.8,4.4,2.8,7.1,2.4c1.6-0.3,3-1,4.1-2C120.6,56.6,116.3,56.1,112.8,53.5z"/>
		</g>
		<g class="st3">
			<ellipse transform="matrix(0.8658 -0.5004 0.5004 0.8658 0.7434 62.3254)" class="st21" cx="116.6" cy="29.8" rx="2.7" ry="1"/>
			<ellipse transform="matrix(0.917 -0.399 0.399 0.917 4.4817 53.1107)" class="st21" cx="129.8" cy="15.8" rx="2.7" ry="1"/>
			<ellipse transform="matrix(0.7714 -0.6364 0.6364 0.7714 11.3074 87.8325)" class="st21" cx="127.9" cy="28.2" rx="2.7" ry="1"/>
			
				<ellipse transform="matrix(0.8546 -0.5192 0.5192 0.8546 -9.0266 59.9613)" class="st21" cx="102.6" cy="46.1" rx="2.3" ry="0.8"/>
			<g class="st4">
				<path class="st16" d="M131.8,36.3c-1.2,1.4-2.5,2.4-3.7,3.5c-0.6,0.5-1.1,1-1.6,1.6c-0.5,0.6-0.9,1.2-1.2,2.1
					c-0.5-0.8-0.5-1.9-0.1-2.8c0.4-0.9,1-1.7,1.7-2.3c0.7-0.6,1.5-1.1,2.3-1.4C129.9,36.6,130.8,36.3,131.8,36.3z"/>
			</g>
			<g class="st4">
				<path class="st16" d="M116.2,19.4c-0.5,0.8-1,1.3-1.6,1.9c-0.6,0.5-1.1,1.1-1.9,1.5c0.1-0.9,0.6-1.7,1.2-2.3
					c0.3-0.3,0.7-0.6,1-0.8C115.3,19.6,115.7,19.4,116.2,19.4z"/>
			</g>
			<path class="st21" d="M117.7,39.1c0,0-3.4,0.8-4.4,3.1"/>
			<path class="st21" d="M94.8,53.9c0,0-3.3-0.9-5.3,0.6"/>
			<g class="st4">
				<path class="st16" d="M106.8,26c-1.3,0.2-2.4,0.5-3.5,1.1c-1.1,0.5-2,1.2-3.2,1.9c0.5-1.2,1.5-2.2,2.7-2.8
					c0.6-0.3,1.3-0.5,2-0.5C105.5,25.6,106.2,25.6,106.8,26z"/>
			</g>
			<g class="st4">
				<path class="st16" d="M103.5,34.5c-0.6,0.5-1.2,1-1.7,1.6c-0.5,0.6-0.9,1.1-1.2,1.9c-0.1-0.4,0-0.8,0.2-1.2
					c0.2-0.4,0.4-0.7,0.7-1C102,35.2,102.7,34.7,103.5,34.5z"/>
			</g>
			<g class="st4">
				<path class="st16" d="M96.6,39.2c-1.1,0-2.1,0.3-3,0.7c-0.9,0.4-1.7,1.1-2.4,2c0.2-0.5,0.5-1,0.9-1.4c0.4-0.4,0.8-0.8,1.3-1
					C94.3,39,95.5,38.9,96.6,39.2z"/>
			</g>
		</g>
		<g>
			<ellipse transform="matrix(0.8658 -0.5004 0.5004 0.8658 0.7434 62.3254)" class="st21" cx="116.6" cy="29.8" rx="2.7" ry="1"/>
			<ellipse transform="matrix(0.917 -0.399 0.399 0.917 4.4817 53.1107)" class="st21" cx="129.8" cy="15.8" rx="2.7" ry="1"/>
			<ellipse transform="matrix(0.7714 -0.6364 0.6364 0.7714 11.3074 87.8325)" class="st21" cx="127.9" cy="28.2" rx="2.7" ry="1"/>
			
				<ellipse transform="matrix(0.8546 -0.5192 0.5192 0.8546 -9.0266 59.9613)" class="st21" cx="102.6" cy="46.1" rx="2.3" ry="0.8"/>
			<g class="st4">
				<path class="st16" d="M131.8,36.3c-1.2,1.4-2.5,2.4-3.7,3.5c-0.6,0.5-1.1,1-1.6,1.6c-0.5,0.6-0.9,1.2-1.2,2.1
					c-0.5-0.8-0.5-1.9-0.1-2.8c0.4-0.9,1-1.7,1.7-2.3c0.7-0.6,1.5-1.1,2.3-1.4C129.9,36.6,130.8,36.3,131.8,36.3z"/>
			</g>
			<g class="st4">
				<path class="st16" d="M116.2,19.4c-0.5,0.8-1,1.3-1.6,1.9c-0.6,0.5-1.1,1.1-1.9,1.5c0.1-0.9,0.6-1.7,1.2-2.3
					c0.3-0.3,0.7-0.6,1-0.8C115.3,19.6,115.7,19.4,116.2,19.4z"/>
			</g>
			<path class="st21" d="M117.7,39.1c0,0-3.4,0.8-4.4,3.1"/>
			<path class="st21" d="M94.8,53.9c0,0-3.3-0.9-5.3,0.6"/>
			<g class="st4">
				<path class="st16" d="M106.8,26c-1.3,0.2-2.4,0.5-3.5,1.1c-1.1,0.5-2,1.2-3.2,1.9c0.5-1.2,1.5-2.2,2.7-2.8
					c0.6-0.3,1.3-0.5,2-0.5C105.5,25.6,106.2,25.6,106.8,26z"/>
			</g>
			<g class="st4">
				<path class="st16" d="M103.5,34.5c-0.6,0.5-1.2,1-1.7,1.6c-0.5,0.6-0.9,1.1-1.2,1.9c-0.1-0.4,0-0.8,0.2-1.2
					c0.2-0.4,0.4-0.7,0.7-1C102,35.2,102.7,34.7,103.5,34.5z"/>
			</g>
			<g class="st4">
				<path class="st16" d="M96.6,39.2c-1.1,0-2.1,0.3-3,0.7c-0.9,0.4-1.7,1.1-2.4,2c0.2-0.5,0.5-1,0.9-1.4c0.4-0.4,0.8-0.8,1.3-1
					C94.3,39,95.5,38.9,96.6,39.2z"/>
			</g>
		</g>
	</g>
	<g>
		<path class="st15" d="M135.7,100.5c0,6.1,0.4,11-0.8,11c-4.7,0-3.6-4.9-3.6-11s2.4-11,3.6-11C136.1,89.5,135.7,94.5,135.7,100.5z"
			/>
		<path class="st12" d="M135.8,100.5c0,2,0.2,4,0.3,6c0.1,1,0.1,2,0,3c0,0.5-0.1,1-0.3,1.6c-0.1,0.3-0.2,0.6-0.8,0.8
			c-0.3,0.1-0.4,0-0.5,0c-0.1,0-0.3,0-0.4,0c-0.5-0.1-1.1-0.3-1.6-0.6c-0.5-0.3-0.8-0.8-1.1-1.3c-0.4-1-0.5-2-0.6-3c-0.1-2,0-4,0-6
			c-0.1-2,0-4.1,0.4-6c0.2-1,0.5-2,0.9-2.9c0.2-0.5,0.4-1,0.7-1.4c0.3-0.5,0.5-0.9,1-1.3c0.1-0.1,0.3-0.2,0.4-0.3
			c0.1,0,0.2-0.1,0.3-0.1c0.1,0,0.1,0,0.2,0l0.1,0c0.4,0.1,0.5,0.3,0.6,0.4c0.1,0.2,0.2,0.3,0.2,0.5c0.2,0.6,0.2,1.1,0.3,1.6
			c0.1,1,0,2-0.1,3C136,96.6,135.8,98.5,135.8,100.5z M135.7,100.5c0-2-0.1-4-0.2-6c-0.1-1-0.1-2-0.2-2.9c-0.1-0.5-0.1-1-0.3-1.3
			c0-0.1-0.1-0.2-0.1-0.2c0,0-0.1,0,0.1,0l-0.1,0c0.1,0,0,0,0,0c0,0,0,0,0,0c0,0-0.1,0.1-0.2,0.1c-0.6,0.5-1,1.5-1.4,2.3
			c-0.4,0.9-0.7,1.8-0.9,2.8c-0.5,1.9-0.7,3.8-0.8,5.8c-0.1,2-0.3,4-0.2,6c0.1,1,0.2,2,0.7,2.8c0.5,0.8,1.3,1.2,2.2,1.2
			c0.1,0,0.2,0,0.3,0c0.1,0,0.3,0,0.2,0c0,0,0.1-0.1,0.1-0.3c0.1-0.4,0.2-0.9,0.2-1.4c0.1-1,0.1-2,0.2-3
			C135.6,104.5,135.7,102.5,135.7,100.5z"/>
	</g>
	<g>
		<path class="st7" d="M115.3,100.1c0,0,1.6-0.4,4.1-1.1c2.5-0.7,12.5-2.5,12.5-2.5s2.8,12,0,20.1c0,0-17,1.4-21.9-7.7"/>
		<path class="st12" d="M115.3,100.1c1.4-0.4,2.7-0.8,4.1-1.2c1.4-0.4,2.7-0.7,4.1-1c2.8-0.6,5.5-1.2,8.3-1.7l0.4-0.1l0.1,0.4
			c0.4,1.7,0.7,3.4,0.9,5c0.2,1.7,0.4,3.4,0.4,5.1c0,1.7,0,3.4-0.2,5.1c-0.2,1.7-0.5,3.4-1.1,5.1l-0.1,0.3l-0.3,0
			c-2.1,0.1-4.1,0.1-6.2-0.1c-2-0.2-4.1-0.5-6.1-1.1c-2-0.6-3.9-1.3-5.6-2.5c-1.7-1.1-3.2-2.7-4.1-4.5c1,1.8,2.6,3.2,4.3,4.2
			c1.7,1,3.6,1.7,5.6,2.2c2,0.5,4,0.7,6,0.9c2,0.1,4,0.2,6,0l-0.4,0.3c0.5-1.6,0.8-3.2,1-4.9c0.2-1.7,0.2-3.3,0.2-5
			c-0.1-3.3-0.5-6.7-1.1-10l0.5,0.3c-2.8,0.5-5.6,0.9-8.4,1.4c-1.4,0.3-2.8,0.5-4.2,0.8C118.1,99.5,116.7,99.8,115.3,100.1z"/>
	</g>
	<g>
		<path class="st7" d="M156.1,100.2c0,0-1.6-0.4-4.1-1.1s-12.5-2.5-12.5-2.5s-2.8,12,0,20.1c0,0,17.7,1.4,22.6-7.8"/>
		<path class="st12" d="M156.1,100.2c-1.4-0.3-2.8-0.6-4.1-0.9c-1.4-0.3-2.8-0.6-4.2-0.8c-2.8-0.5-5.6-1-8.4-1.4l0.5-0.3
			c-0.7,3.3-1.1,6.6-1.1,10c0,1.7,0,3.3,0.2,5c0.2,1.7,0.5,3.3,1,4.9l-0.4-0.3c2,0.1,4.1,0.1,6.2,0c2.1-0.2,4.1-0.4,6.1-0.9
			c2-0.5,4-1.2,5.8-2.2c1.8-1,3.4-2.4,4.4-4.2c-0.9,1.9-2.5,3.4-4.2,4.6c-1.8,1.2-3.8,1.9-5.8,2.5c-2,0.6-4.1,0.9-6.2,1.1
			c-2.1,0.2-4.2,0.2-6.3,0.1l-0.3,0l-0.1-0.3c-0.6-1.6-0.9-3.3-1.1-5.1c-0.2-1.7-0.2-3.4-0.2-5.1c0.1-1.7,0.2-3.4,0.4-5.1
			c0.2-1.7,0.5-3.4,0.9-5l0.1-0.4l0.4,0.1c2.8,0.6,5.5,1.1,8.3,1.7c1.4,0.3,2.8,0.6,4.1,1C153.4,99.5,154.7,99.9,156.1,100.2z"/>
	</g>
	<path class="st19" d="M131.9,96.5c0,0-1.3,0.2-3.1,0.6c1.8,6.4,2,13.2,0.5,19.6c1.6,0,2.6-0.1,2.6-0.1
		C134.7,108.5,131.9,96.5,131.9,96.5z"/>
	<path class="st14" d="M160.7,111.6c0,0,7.7-7.6-0.8-15.2c5.4,11-7.2,17.5-18.1,19.5c4.3,5.4,10.8,0,15.1-1.1
		c-1.1,2.2-1.1,6.5-1.1,6.5c-14,10.8-31.2,6.5-42-2.2c-3.2-3.2,9.7,3.2,15.1-3.2c-8.1-3.6-16.9-7.2-20.8-15.1
		c-0.9,1.9-1.2,4.1-0.5,6.9c0,0,1.8,2.9,3.7,3.9c1.9,1.1-7.6,9-3.7,12.9c0,0,19.2,19,52.1,3.2c0.3-0.2,0.6-0.3,0.9-0.5
		c0,0,2.3-2-3-12.3C157.6,114.9,158.3,113.4,160.7,111.6z"/>
	<g>
		<path class="st15" d="M135.7,100.7c0,6.1-0.4,11,0.8,11c4.7,0,3.6-4.9,3.6-11c0-6.1-2.4-11-3.6-11
			C135.3,89.7,135.7,94.6,135.7,100.7z"/>
		<path class="st12" d="M135.7,100.7c0,2,0.1,4,0.2,6c0.1,1,0.1,2,0.2,3c0.1,0.5,0.1,1,0.2,1.4c0.1,0.2,0.2,0.3,0.2,0.3
			c-0.1,0,0.1,0,0.2,0c0.1,0,0.2,0,0.3,0c0.9,0,1.8-0.4,2.2-1.2c0.5-0.8,0.6-1.8,0.7-2.8c0.1-2-0.1-4-0.2-6c-0.1-2-0.3-3.9-0.8-5.8
			c-0.2-0.9-0.5-1.9-0.9-2.8c-0.4-0.9-0.8-1.8-1.4-2.3c-0.1-0.1-0.1-0.1-0.2-0.1c0,0,0,0,0,0c0,0,0,0,0,0l-0.1,0c0.2,0,0.1,0,0.1,0
			c0,0-0.1,0.1-0.1,0.2c-0.1,0.4-0.2,0.9-0.3,1.3c-0.1,1-0.2,2-0.2,2.9C135.8,96.7,135.7,98.7,135.7,100.7z M135.6,100.7
			c0-2-0.2-4-0.3-6c-0.1-1-0.1-2-0.1-3c0-0.5,0.1-1,0.3-1.6c0-0.1,0.1-0.3,0.2-0.5c0.1-0.2,0.2-0.3,0.6-0.4l0.1,0c0.2,0,0.2,0,0.2,0
			c0.1,0,0.2,0.1,0.3,0.1c0.2,0.1,0.3,0.2,0.4,0.3c0.5,0.4,0.7,0.9,1,1.3c0.3,0.5,0.5,0.9,0.7,1.4c0.4,1,0.7,1.9,0.9,2.9
			c0.4,2,0.6,4,0.4,6c-0.1,2,0,4,0,6c0,1-0.1,2-0.6,3c-0.2,0.5-0.6,0.9-1.1,1.3c-0.5,0.3-1,0.5-1.6,0.6c-0.1,0-0.3,0-0.4,0
			c-0.1,0-0.2,0-0.5,0c-0.5-0.2-0.6-0.6-0.8-0.8c-0.2-0.6-0.2-1.1-0.3-1.6c-0.1-1,0-2,0-3C135.4,104.7,135.6,102.7,135.6,100.7z"/>
	</g>
	<path class="st19" d="M142.7,97.3c-1.9-0.3-3.2-0.6-3.2-0.6s-2.8,12,0,20.1c0,0,1.3,0.1,3.4,0.1
		C141.7,110.4,142.1,103.7,142.7,97.3z"/>
	<g>
		<path class="st7" d="M137.3,132c0,0-0.1,0-0.2,0c-5.8,4.7-12.5,8.7-19.8,9.8c25.3,11.4,43.6-3.4,45.8-6.2
			C163.1,135.6,172.7,117.9,137.3,132z"/>
		<path class="st12" d="M137.3,132.1l-0.2,0l0,0c-2.8,2.5-5.9,4.7-9.2,6.5c-1.7,0.9-3.4,1.7-5.2,2.3c-1.8,0.6-3.6,1.1-5.5,1.4
			l0.1-0.8c3.7,1.7,7.6,3,11.6,3.8c4,0.8,8.1,0.9,12.2,0.4c4-0.5,8-1.8,11.6-3.5c1.8-0.9,3.6-1.9,5.3-3c1.7-1.1,3.3-2.4,4.6-3.8
			l0,0.1c0.6-1.2,1-2.6,1.1-4c0.1-1.3-0.4-2.6-1.5-3.4c-1.1-0.7-2.5-1-3.9-1c-1.4,0-2.9,0.1-4.3,0.3c-2.9,0.4-5.7,1.2-8.5,2
			C142.8,130.2,140.1,131.1,137.3,132.1L137.3,132.1z M137.3,132c2.7-1.2,5.4-2.3,8.1-3.2c2.8-1,5.6-1.8,8.5-2.3
			c1.5-0.3,2.9-0.4,4.4-0.4c1.5,0.1,3.1,0.3,4.5,1.2c0.7,0.4,1.3,1.1,1.6,1.9c0.3,0.8,0.4,1.6,0.4,2.4c-0.1,1.6-0.6,3-1.3,4.4l0,0
			l0,0c-1.5,1.6-3.1,2.8-4.9,4c-1.7,1.1-3.6,2.1-5.5,2.9c-3.8,1.6-7.8,2.7-11.9,3.1c-4.1,0.5-8.2,0.4-12.3-0.2
			c-4.1-0.6-8.1-1.8-11.8-3.5l-1.3-0.6l1.4-0.2c1.8-0.3,3.6-0.7,5.3-1.3c1.7-0.6,3.4-1.3,5.1-2.2c3.3-1.6,6.4-3.7,9.4-5.9l0,0l0,0
			L137.3,132z"/>
	</g>
	<g>
		<path class="st7" d="M125.4,126c-6.1-3.9-41.5-7.8-13.7,12c2.1,1.5,4.2,2.7,6.2,3.8c7.1-1.3,16.8-5.9,22.5-11.3
			C139.5,130.4,131,129.6,125.4,126z"/>
		<path class="st12" d="M125.4,126.1c-1.8-1-3.8-1.5-5.8-1.9c-2-0.4-4.1-0.6-6.1-0.8c-2-0.1-4.1-0.2-6.1,0c-1,0.1-2,0.2-3,0.5
			c-0.9,0.3-1.9,0.7-2.4,1.4c-0.6,0.7-0.5,1.7-0.2,2.6c0.4,0.9,0.9,1.8,1.6,2.6c1.3,1.6,2.8,3,4.4,4.3c3.2,2.6,6.7,4.9,10.3,6.7
			l-0.2,0c2.1-0.4,4.1-1,6-1.8c2-0.7,3.9-1.6,5.8-2.5c1.9-1,3.7-2,5.5-3.1c1.8-1.2,3.4-2.4,5-3.8l0.3,0.8c-1.3-0.2-2.6-0.4-3.9-0.7
			c-1.3-0.3-2.6-0.6-3.8-1c-1.3-0.4-2.5-0.9-3.7-1.4C127.7,127.4,126.5,126.8,125.4,126.1z M125.4,126c1.1,0.7,2.3,1.3,3.5,1.7
			c1.2,0.5,2.5,0.8,3.7,1.2c2.5,0.6,5.1,1,7.7,1.2l0.9,0.1l-0.7,0.7c-1.5,1.5-3.2,2.8-5,4c-1.8,1.2-3.6,2.3-5.6,3.2
			c-3.8,1.9-7.9,3.4-12.1,4.1l-0.1,0l-0.1-0.1c-3.6-2-7-4.5-10.2-7.1c-1.6-1.3-3.2-2.7-4.5-4.3c-0.7-0.8-1.3-1.6-1.8-2.6
			c-0.2-0.5-0.4-1-0.4-1.6c0-0.6,0.1-1.2,0.5-1.7c0.7-1,1.8-1.5,2.8-1.8c1-0.3,2.1-0.5,3.1-0.6c2.1-0.2,4.2-0.1,6.3,0.2
			c2.1,0.3,4.1,0.7,6.1,1.2C121.6,124.4,123.6,124.9,125.4,126z"/>
	</g>
	<ellipse class="st17" cx="161.8" cy="78.8" rx="7.6" ry="2"/>
	<ellipse class="st17" cx="106.6" cy="78.9" rx="7.9" ry="2.1"/>
	<ellipse class="st16" cx="168" cy="77.4" rx="2.1" ry="0.6"/>
	<ellipse class="st16" cx="101.4" cy="77.4" rx="2.1" ry="0.6"/>
	<path class="st18" d="M117.3,141.8c0.2,0.1,0.3,0.1,0.5,0.2c-0.1-0.1-0.2-0.2-0.2-0.3C117.5,141.8,117.4,141.8,117.3,141.8z"/>
	<path class="st14" d="M107.5,122.9c-7.3,0.6-10.9,4.3,4.2,15.1c1.9,1.4,3.8,2.5,5.6,3.5c-4-4.5-7-9.7-9.9-14.8
		C106.5,125.3,106.7,124,107.5,122.9z"/>
	<path class="st14" d="M139.8,131.1c0.2-0.2,0.4-0.3,0.6-0.5c-0.1,0-0.4-0.1-0.8-0.1c-7.4,3.6-14.8,7-21.6,11.6
		c1.4,0.6,2.8,1.2,4.2,1.6c11.2-1.1,21-6.7,31.6-10.6c3.2-1.3,6.4-4.1,9.6-4.8C161.2,125.9,155.2,125.2,139.8,131.1z"/>
</g>
<path class="st8" d="M91.3,144.7c0,0-9,6.5,0,9c9,2.5,15.2-10.8,3.9-15.6c-11.3-4.8-33.9,21.8-5.8,27c28.1,5.2,29.6-42.3-2-38.6
	c-31.6,3.7-38,45.3-5.7,52.8s39.9-12.7,43.3-22.1c3.4-9.3,10.7-7.2,10.7-7.2l1.3-8.3c0,0-9.6-10-25.1-9.4c-3.2,0.1-10-3.2-10-3.2"/>
<g>
	<path class="st9" d="M91.3,144.7c0,0-9,6.5,0,9c9,2.5,15.2-10.8,3.9-15.6c-11.3-4.8-33.9,21.8-5.8,27c28.1,5.2,29.6-42.3-2-38.6
		c-31.6,3.7-38,45.3-5.7,52.8s39.9-12.7,43.3-22.1c3.4-9.3,10.7-7.2,10.7-7.2l1.3-8.3c0,0-9.6-10-25.1-9.4c-3.2,0.1-10-3.2-10-3.2"
		/>
	<path class="st12" d="M91.3,144.7c-1.2,1-2.4,2-3.2,3.4c-0.4,0.7-0.7,1.4-0.7,2.2c0,0.8,0.4,1.5,1,2c2.5,1.8,6.1,2.3,8.8,0.7
		c2.7-1.5,4.3-4.7,3.9-7.8c-0.2-1.5-0.9-3-1.9-4.1c-1-1.1-2.3-2-3.8-2.6c-1.4-0.7-3-0.8-4.5-0.6c-1.5,0.2-3,0.8-4.4,1.5
		c-2.7,1.4-5.1,3.5-7,5.9c-1.9,2.4-3.3,5.3-3.4,8.4c0,1.5,0.3,3,1,4.4c0.7,1.3,1.8,2.4,3.1,3.3c2.5,1.8,5.5,2.7,8.6,3.3
		c3,0.6,6.2,0.7,9.2,0c3-0.8,5.7-2.4,7.7-4.7c2-2.3,3.4-5.2,4.1-8.1c1.4-6,0.4-12.6-3.3-17.6c-1.8-2.5-4.2-4.5-7.1-5.7
		c-2.8-1.2-5.9-1.7-9-1.7c-6.2,0.1-12.3,2-17.4,5.5c-5.1,3.5-9,8.6-10.9,14.5c-1.9,5.8-1.8,12.4,0.7,18c1.3,2.8,3.1,5.3,5.4,7.4
		c2.3,2.1,4.9,3.7,7.7,5c2.8,1.2,5.9,2,8.9,2.6c3.1,0.6,6.2,0.9,9.3,1c6.2,0.1,12.5-1.2,17.7-4.7c2.6-1.7,4.8-3.9,6.6-6.4
		c1.8-2.5,3.3-5.3,4.5-8.1c0.6-1.4,1.1-2.9,1.7-4.4c0.6-1.5,1.3-2.9,2.3-4.2c1-1.2,2.4-2.2,3.9-2.8c1.5-0.5,3.2-0.6,4.8-0.3
		l-0.3,0.2l1.3-8.3l0.1,0.2c-2.2-2.2-4.9-4-7.7-5.5c-2.8-1.5-5.8-2.6-8.9-3.3c-1.5-0.3-3.1-0.6-4.7-0.7c-0.8-0.1-1.6-0.1-2.4-0.1
		c-0.8,0-1.6,0.1-2.4,0c-1.6-0.2-3.1-0.7-4.6-1.3c-1.5-0.6-2.9-1.2-4.4-1.9c1.4,0.7,2.9,1.3,4.4,1.8c1.5,0.5,3,1,4.6,1.2
		c0.8,0.1,1.6,0,2.4,0c0.8,0,1.6,0,2.4,0.1c1.6,0.1,3.2,0.3,4.7,0.6c3.1,0.6,6.1,1.7,9,3.2c2.8,1.5,5.5,3.2,7.8,5.5l0.1,0.1l0,0.1
		l-1.2,8.4l0,0.3l-0.3-0.1c-1.4-0.3-3-0.2-4.5,0.3c-1.4,0.5-2.7,1.4-3.7,2.6c-2,2.3-2.6,5.5-3.9,8.4c-1.2,2.9-2.7,5.7-4.6,8.3
		c-1.9,2.5-4.1,4.8-6.8,6.6c-2.6,1.8-5.6,3.1-8.7,3.8c-3.1,0.8-6.2,1.1-9.4,1c-3.2,0-6.3-0.4-9.4-1c-3.1-0.6-6.2-1.3-9.1-2.6
		c-2.9-1.2-5.7-2.9-8-5.1c-2.3-2.2-4.3-4.8-5.6-7.7c-2.7-5.8-2.8-12.6-0.8-18.7c2-6.1,6-11.4,11.3-15c5.3-3.6,11.6-5.4,18-5.6
		c3.2,0,6.4,0.5,9.3,1.8c2.9,1.3,5.5,3.4,7.4,6c3.8,5.2,4.8,12.1,3.3,18.3c-0.7,3.1-2.2,6.1-4.3,8.4c-2.1,2.4-5,4.1-8.1,4.9
		c-3.1,0.8-6.4,0.7-9.5,0c-3.1-0.6-6.2-1.6-8.8-3.5c-1.3-0.9-2.5-2.1-3.2-3.5c-0.8-1.4-1.1-3.1-1.1-4.7c0.1-3.2,1.6-6.2,3.5-8.7
		c2-2.5,4.4-4.6,7.2-6.1c1.4-0.7,2.9-1.3,4.5-1.5c1.6-0.2,3.3,0,4.7,0.7c1.4,0.7,2.8,1.6,3.9,2.8c1.1,1.2,1.8,2.7,2,4.3
		c0.4,3.2-1.4,6.5-4.1,8c-1.4,0.8-3,1.1-4.6,0.9c-0.8-0.1-1.6-0.3-2.3-0.6c-0.7-0.3-1.5-0.6-2.1-1.1c-0.6-0.5-1.1-1.3-1-2.1
		c0-0.8,0.3-1.6,0.8-2.2C88.9,146.7,90.1,145.7,91.3,144.7z"/>
</g>
<path class="st0" d="M171.3,98.6c-2.2,0.8-4.3,1.8-6.3,3.1c-2,7.6-9.2,12.8-3.8,21.7c-8.6,1.1-14,11.8-20.5,12.9
	c-0.2,0.1-0.4,0.1-0.7,0.2c-0.8,1.2-1.6,2.4-2.3,3.7c-0.6,0.2-1.3,0.3-2,0.5c-0.8-0.7-2.1-1.7-3.7-2.7c-8.3-6.8-21.1-3.1-31.2-8.1
	c0-1.1,0-3.2,0-4.3c5.4-3.2,9.7-8.6,9.7-14c0.1-0.5,0.2-1.1,0.2-1.6c-0.5-0.8-1-1.7-1.6-2.4c0,0,0,0,0,0c-3.1-4-7.4-7-12.4-8.4
	c4.7,9.8-1.9,21.2-9.9,27.4c9.7,12.9,22.6,8.6,36.6,14c3.2,2.2,10.8,5.4,12.9,3.2c5.4-7.5,16.1-8.6,22.6-12.9
	c2.2-2.2,2.2-7.5,6.5-7.5c-6.5-8.6,0-14,5.4-21.5C171.4,101,171.4,99.8,171.3,98.6z"/>
<ellipse class="st6" cx="92.1" cy="149.3" rx="18" ry="17"/>
<g>
	<circle class="st8" cx="165.1" cy="154.6" r="30.9"/>
	<ellipse class="st6" cx="169.8" cy="152.8" rx="22.9" ry="21.1"/>
	<g>
		<path class="st12" d="M194.4,146.6c-3.3-6-8.7-10.8-15.1-13.1c-3.2-1.2-6.6-1.7-10-1.7c-3.4,0-6.8,0.6-9.8,2
			c-3.1,1.4-5.8,3.5-7.8,6.2c-2,2.6-3.5,5.8-4.1,9.1c-0.3,1.6-0.4,3.3-0.1,5c0.1,0.8,0.3,1.6,0.7,2.4c0.3,0.8,0.6,1.6,0.9,2.4
			c1.3,3.1,3,6.1,5.4,8.5c2.3,2.4,5.5,3.9,8.8,4.2c3.3,0.4,6.7-0.4,9.8-1.6c3.1-1.3,6-3.2,7.9-6c0.9-1.4,1.6-2.9,1.8-4.6
			c0.2-1.6,0-3.3-0.5-4.9c-1-3.2-3.1-6-5.5-8.4c-1.2-1.2-2.5-2.3-3.9-3.1c-1.4-0.8-3.1-1.3-4.8-1c-1.6,0.3-3.1,1.3-4.1,2.6
			c-1.1,1.3-1.8,2.9-2.3,4.5c-0.5,1.6-0.7,3.3-0.6,5c0.1,0.8,0.3,1.7,0.7,2.4c0.4,0.7,1.3,1.2,2.1,1.2c-0.9,0.1-1.7-0.4-2.2-1.1
			c-0.5-0.7-0.7-1.6-0.8-2.4c-0.2-1.7,0-3.5,0.5-5.1c0.5-1.7,1.2-3.3,2.2-4.7c1-1.4,2.5-2.5,4.3-2.9c1.8-0.4,3.6,0.2,5.1,1
			c1.5,0.8,2.9,2,4.1,3.2c2.4,2.5,4.6,5.3,5.7,8.6c0.6,1.7,0.8,3.5,0.6,5.2c-0.2,1.8-0.9,3.5-1.9,4.9c-2,2.9-5,5-8.2,6.3
			c-3.2,1.3-6.7,2.1-10.2,1.7c-1.7-0.2-3.5-0.7-5.1-1.4c-1.6-0.8-3.1-1.8-4.3-3c-2.5-2.5-4.2-5.6-5.5-8.8c-0.3-0.8-0.6-1.6-0.9-2.4
			c-0.3-0.8-0.6-1.7-0.7-2.6c-0.3-1.8-0.2-3.5,0.2-5.3c1.3-6.9,6-13.1,12.5-15.8c3.2-1.4,6.7-1.9,10.2-1.9c3.5,0,6.9,0.6,10.1,1.9
			C185.9,135.6,191.3,140.5,194.4,146.6z"/>
	</g>
</g>
<path class="st0" d="M88,192.3c-5.4,0-7.5,6.5-11.8,8.6c-11.8,6.5-25.8-2.2-32.3-12.9c-3.2-7.5,0-15.1,6.5-20.5
	c-7.5,0-18.3-2.2-19.4-7.5c-3.2-11.8,3.2-35.5,19.4-33.4c-3.2-4.3-11.8-5.4-8.6-12.9c1.3-3.8,2.9-7.5,5.5-10.5
	c-8.3,1-14.7,8-14.7,16.5c0,1.6,0.2,3.1,0.7,4.6c-9,3.2-15.4,11.7-15.4,21.7c0,3.6,0.9,7.1,2.4,10.1c-2,1.2-3.8,2.7-5.2,4.8
	c-5.3,7.5-3.5,17.8,4,23.1c4.6,3.2,10.2,3.8,15.1,2.1c0.3,1.4,0.7,2.8,1.1,4.1c5.7,16.1,23.3,24.5,39.3,18.9
	c9.3-3.3,16-10.5,19-19.2C92,188.7,89.7,191.5,88,192.3z"/>
<path class="st0" d="M101.6,195.7c0.2,0.5,0.4,1.1,0.6,1.7c3.3,9.8,20.4,16.2,38,9.9C125.7,209.1,111.6,206.4,101.6,195.7z"/>
<linearGradient id="SVGID_1_" gradientUnits="userSpaceOnUse" x1="137.126" y1="156.1641" x2="304.2051" y2="156.1641">
	<stop  offset="1.212120e-002" style="stop-color:#FF99D4;stop-opacity:0"/>
	<stop  offset="1" style="stop-color:#FF99D4"/>
</linearGradient>
<path class="st20" d="M263.5,166.2c1.4-0.8,2.7-1.8,3.8-2.9c2.7-1.1,7.4-1.7,15.9-0.1c17.2,3.2,21-11.4,21-11.4
	c-6.3,5-13.3,0-13.3,0s-3.1-6.1-9.3-5.7c-3.2,0.2-5.7-1.4-7.4-3c-0.2-0.2-0.3-0.3-0.5-0.5c-2.1-10.1-11.1-17.6-21.8-17.6
	c-7.4,0-13.9,3.6-18,9.2c-3.4-2.6-7.4-4.5-11.9-5.2c-5.2-0.8-10.2-0.1-14.6,1.9c0.1-0.5,0.2-1,0.3-1.5c2.4-15.2-7.9-29.4-23.1-31.8
	c-2.2-0.4-4.4-0.4-6.6-0.3c9.8,9.7,5.7,24.4,4.6,37c0,3.2,3.2,5.4,4.3,6.5c12.9,9.7,28,1.1,40.9,6.5c4.3,2.2,8.6,6.5,5.4,11.8
	c-7.5,9.7-26.9,6.5-24.8,17.2c0,4.3,20.5,7.5,15.1,11.8c-24.8,16.1-57-4.3-82.9,5.4c-7,3.1-2.8,8.5,3,12.4c2.8-1.3,5.5-2.9,8.2-4.8
	c3.9,7.1,11.1,12.4,20,13.9c8.7,1.4,17.1-1.3,22.9-6.7c1.1,2.3,4.2,7.1,7.2,1.3c3.8-7.3,13.2-0.6,14.6,0s10.2,4.9,19.9-4.5
	c0,0-11.8,7.5-20.1,1.3c0,0-1.2-0.6-1.1-5.8c3.5,1.4,7.4,2.1,11.5,2.1c11.5,0,21.3-6,25.2-14.5c0,0,0,0,0-0.1
	c0.4-0.2,0.8-0.3,1.2-0.4c0,0,0,0,0,0c1.5-0.4,3.2-0.7,4.9-0.7c0.1,0,0.1,0,0.2,0c0.2,0,0.5,0,0.7,0c0.1,0,0.2,0,0.3,0
	c0.2,0,0.5,0,0.7,0.1c0.1,0,0.3,0,0.4,0.1c0.2,0,0.4,0.1,0.6,0.1c0.2,0,0.3,0.1,0.5,0.1c0.2,0,0.4,0.1,0.6,0.1
	c0.2,0,0.3,0.1,0.5,0.1c0.2,0.1,0.4,0.1,0.5,0.2c0.2,0.1,0.3,0.1,0.5,0.2c0.2,0.1,0.3,0.1,0.5,0.2c0.2,0.1,0.4,0.2,0.5,0.2
	c0.2,0.1,0.3,0.1,0.5,0.2c0.2,0.1,0.4,0.2,0.5,0.3c0.1,0.1,0.3,0.2,0.4,0.2c0.2,0.1,0.4,0.2,0.6,0.4c0.1,0.1,0.3,0.2,0.4,0.3
	c0.2,0.1,0.4,0.3,0.6,0.5c0.1,0.1,0.2,0.2,0.3,0.2c0.3,0.3,0.6,0.5,0.9,0.8c7.7,7.8,13.1,2.4,13.1,2.4c4.8-11.3,16.1-8.3,16.1-8.3
	c-0.1-0.2-0.3-0.4-0.5-0.6c-4.5-5.6-11.6-2.2-11.6-2.2s-11.1,4.7-21.2-8.1c-2-2.6-4.2-4.6-6.3-6.1c1.6-0.5,3.1-1.2,4.5-2
	c0,0,0,0,0,0C263.4,166.3,263.4,166.3,263.5,166.2z"/>
</svg>
