<?xml version="1.0" encoding="utf-8"?>
<!-- Generator: Adobe Illustrator 15.1.0, SVG Export Plug-In . SVG Version: 6.00 Build 0)  -->
<!DOCTYPE svg PUBLIC "-//W3C//DTD SVG 1.1//EN" "http://www.w3.org/Graphics/SVG/1.1/DTD/svg11.dtd">
<svg version="1.1" id="bird" xmlns="http://www.w3.org/2000/svg" xmlns:xlink="http://www.w3.org/1999/xlink" x="0px" y="0px"
	 width="131.4px" height="143px" viewBox="0 0 131.4 143" style="enable-background:new 0 0 131.4 143;" xml:space="preserve">
<style type="text/css">
<![CDATA[
	.st0{display:inline;fill:none;stroke:#000000;stroke-miterlimit:10;}
	.st1{display:inline;opacity:0.44;fill:#FFD13E;}
	.st2{display:inline;opacity:0.51;fill:#FF9C9C;}
	.st3{display:inline;fill:#FFFFFF;}
	.st4{fill:none;stroke:#000000;stroke-miterlimit:10;}
	.st5{fill:#FFF599;}
	.st6{fill:#FFFFFF;}
	.st7{display:inline;}
	.st8{opacity:0.44;fill:#FFD13E;}
	.st9{display:none;}
	.st10{opacity:0.51;fill:#FF9C9C;}
]]>
</style>
<g>
	<g>
		<path class="st5" d="M46.3,71.1c0,0-1.7-4.3-4.3-5.6c-2.6-1.4-12.7-9.9-12.7-9.9S13.5,45.7,11.8,45s3.2-12.7,18.6,1.8
			c0,0-2.9-12.1,13,3.7c0,0-8.7-12.7,10.1-0.6c0,0,7-9.4,12.1,12.3C65.5,62.2,55.5,73.8,46.3,71.1z"/>
		<path d="M46.3,71.1c-0.8-1.8-1.8-3.5-3.2-4.8c-0.4-0.3-0.7-0.6-1.2-0.8c-0.4-0.2-0.8-0.5-1.2-0.8c-0.8-0.5-1.6-1.1-2.4-1.7
			c-3.1-2.3-6.1-4.8-9.1-7.3l0,0L19.7,50l-4.8-2.8l-2.4-1.4l-0.6-0.3l-0.1-0.1l-0.1-0.1c0,0-0.1,0-0.1-0.1c-0.2-0.2-0.3-0.4-0.3-0.5
			c-0.1-0.6,0-1.1,0.2-1.6c0.7-1.9,2.5-3.3,4.4-3.7c2-0.4,4,0,5.7,0.7c3.6,1.4,6.6,3.9,9.3,6.4L30,46.9c-0.2-0.9-0.3-1.7-0.2-2.6
			c0-0.4,0.1-0.9,0.4-1.4c0.2-0.4,0.7-0.9,1.2-1c1-0.3,1.9,0.1,2.7,0.4c0.8,0.4,1.5,0.8,2.2,1.3c2.7,1.9,5.1,4.2,7.5,6.5L43,50.7
			c-0.5-0.7-0.9-1.4-1.2-2.1c-0.4-0.7-0.7-1.5-0.8-2.4c0-0.4-0.1-1,0.4-1.5c0.4-0.5,1-0.5,1.5-0.5c0.9,0,1.7,0.3,2.5,0.6
			c1.5,0.6,3,1.4,4.4,2.2c1.4,0.8,2.8,1.6,4.1,2.5l-0.6,0.1c0.6-0.8,1.4-1.4,2.3-1.8c0.9-0.4,2-0.5,3-0.1c1,0.4,1.7,1,2.3,1.7
			c0.6,0.7,1.1,1.5,1.6,2.3c0.9,1.6,1.5,3.4,2.1,5.1c0.6,1.7,1,3.5,1.4,5.3l0,0.1l-0.1,0.1c-1.3,1.4-2.6,2.6-4.1,3.8
			c-1.5,1.2-3,2.2-4.6,3.1c-1.6,0.9-3.4,1.6-5.2,2C50,71.7,48.1,71.6,46.3,71.1z M46.3,71.1c1.8,0.5,3.7,0.5,5.5,0.1
			c1.8-0.4,3.5-1.2,5.1-2.1c1.6-0.9,3.1-2,4.5-3.2c1.4-1.2,2.7-2.5,4-3.8l-0.1,0.2c-0.4-1.8-0.9-3.5-1.5-5.2c-0.6-1.7-1.2-3.4-2.1-5
			c-0.9-1.5-2-3.1-3.5-3.6c-1.6-0.6-3.3,0.4-4.3,1.7l-0.2,0.3l-0.3-0.2c-1.3-0.9-2.7-1.7-4.1-2.5c-1.4-0.8-2.8-1.5-4.2-2.1
			c-1.3-0.5-3.4-1.1-3.1,0.4c0.2,1.4,1.1,2.8,1.9,4.1l2.3,3.6l-3-3c-2.3-2.3-4.7-4.5-7.3-6.3c-0.7-0.4-1.3-0.9-2-1.2
			c-0.7-0.3-1.5-0.5-2-0.4c-0.5,0.1-0.8,0.8-0.9,1.5c-0.1,0.7,0,1.5,0.2,2.3l0.3,1.5l-1.1-1c-2.7-2.5-5.6-4.9-9-6.2
			c-1.7-0.7-3.5-1-5.2-0.7c-1.7,0.3-3.2,1.5-3.8,3.1c-0.1,0.4-0.2,0.8-0.2,1.1c-0.1,0.1,0.5,0.3,0.9,0.5l2.4,1.4l4.8,2.9l9.5,5.9
			l0,0l0,0c3,2.5,5.9,5,8.9,7.5c0.8,0.6,1.5,1.2,2.3,1.8c0.4,0.3,0.8,0.6,1.2,0.8c0.4,0.2,0.8,0.5,1.2,0.9
			C44.6,67.5,45.6,69.3,46.3,71.1z"/>
	</g>
	<path class="st8" d="M53.5,49.9c-1.4-0.9-2.7-1.7-3.8-2.3c1,2.7,1.1,5.7,0.3,7.8c-2.3,5.3-8.4,5.3-14.9,4.9c2.8,2.2,5.7,4.5,7,5.2
		c2.6,1.4,4.3,5.6,4.3,5.6c9.2,2.7,19.2-8.9,19.2-8.9C60.5,40.5,53.5,49.9,53.5,49.9z"/>
	<g>
		<path class="st5" d="M26,69.7c0,0-8.9,2.3-7.6,16.8l-0.1,2.3l-1.9,3.7c0,0,2.1,3.5,9.6,1.1c0,0,3.2,0.2,12.7,5.3
			c9.5,5.2,42.6,8.5,60.7-26.2l9.2-17.6c0,0,11.6-4.3,13.6-15.3c0,0,0.8-3.1-6.7,2.6c0,0,4.9-7,4.3-11c0,0-1.5-0.6-2.8,2.2
			c-0.1,0.1-0.1,0.3-0.2,0.4c-1.4,3.2,0.6-7.6-0.2-11.1s-3.8,11.1-11.6,14.7S59.1,54.6,44.2,69.4c0,0-3.7,1.4-4.9,0.9
			C38.1,69.9,30.1,66.9,26,69.7z"/>
		<path d="M26,69.8c-1.6,0.5-2.9,1.5-4,2.8c-1.1,1.2-1.9,2.7-2.4,4.2c-1.1,3.1-1.2,6.5-0.9,9.7l0,0l0,0l-0.1,2.3l0,0.1l0,0.1
			l-1.8,3.7l0-0.3c0.4,0.6,1.2,1.1,1.9,1.3c0.8,0.3,1.6,0.4,2.4,0.4c1.7,0,3.3-0.4,4.9-0.9l0.1,0l0.1,0c1.2,0.2,2.2,0.5,3.3,0.9
			c1.1,0.4,2.1,0.8,3.1,1.3c2,0.9,4,1.9,6,3c1.9,1.1,4,1.8,6.1,2.3c2.1,0.5,4.3,0.8,6.5,1c8.8,0.7,17.7-1.2,25.5-5.3
			c7.8-4.1,14.4-10.4,19.2-17.8c2.5-3.7,4.4-7.7,6.4-11.6l6.1-11.8l0-0.1l0.1,0c2.2-0.9,4.4-2.2,6.3-3.7c1.9-1.5,3.6-3.3,4.8-5.4
			c0.6-1,1.2-2.1,1.5-3.3c0.2-0.6,0.4-1.2,0.5-1.7c0.1-0.3,0.1-0.6,0.2-0.9c0.1-0.3,0-0.4-0.1-0.4c-0.1-0.1-0.4,0-0.7,0
			c-0.3,0.1-0.5,0.2-0.8,0.3c-0.5,0.3-1.1,0.6-1.6,0.9c-1,0.6-2,1.4-3,2.1l-1.8,1.4l1.2-1.9c1.1-1.6,2.1-3.4,2.9-5.2
			c0.4-0.9,0.8-1.8,1-2.8c0.2-0.9,0.4-1.9,0.3-2.8l0.3,0.4c-0.3-0.1-0.8,0.1-1.1,0.3c-0.4,0.3-0.7,0.7-0.9,1.1
			c-0.1,0.2-0.2,0.4-0.4,0.7c-0.1,0.2-0.2,0.5-0.5,0.9c0,0-0.1,0.1-0.1,0.1c-0.1,0.1-0.2,0.1-0.4,0c-0.3-0.1-0.3-0.3-0.3-0.4
			c-0.1-0.1-0.1-0.2-0.1-0.3c0-0.2,0-0.3,0-0.5c0-0.3,0-0.6,0-0.9c0.1-2.2,0.4-4.4,0.5-6.6c0-1.1,0.1-2.2-0.1-3.2
			c0-0.2-0.1-0.6-0.1-0.5c0,0,0.2,0.1,0.3,0.1c0.1,0,0.1,0,0,0c0,0-0.1,0.1-0.2,0.2c-0.3,0.4-0.5,0.9-0.7,1.4c-0.9,2-1.9,4-3,5.9
			c-1.1,1.9-2.4,3.8-4.1,5.4c-0.8,0.8-1.8,1.5-2.8,2c-1,0.5-2,0.9-3.1,1.3l-12.2,5c-8.1,3.4-16.2,6.9-24,11c-3.9,2-7.8,4.2-11.5,6.5
			c-3.7,2.4-7.3,4.9-10.4,8l0,0l0,0c-0.7,0.3-1.5,0.5-2.3,0.7c-0.8,0.2-1.5,0.4-2.4,0.3c-0.5-0.1-0.8-0.3-1.2-0.4
			c-0.4-0.1-0.7-0.3-1.1-0.4c-0.7-0.2-1.5-0.4-2.2-0.6c-1.5-0.4-3.1-0.6-4.6-0.6C28.9,68.6,27.4,68.9,26,69.8L26,69.8L26,69.8z
			 M26,69.7c1.3-0.9,2.9-1.2,4.5-1.2c1.6,0,3.1,0.2,4.7,0.5c0.8,0.2,1.5,0.4,2.3,0.6c0.4,0.1,0.8,0.2,1.1,0.4
			c0.4,0.1,0.8,0.3,1.1,0.3c0.7,0.1,1.5-0.1,2.2-0.3c0.7-0.2,1.5-0.4,2.2-0.7L44,69.2c3.1-3.1,6.7-5.8,10.4-8.2
			c3.7-2.4,7.5-4.6,11.4-6.7c7.8-4.1,15.8-7.8,24-11.2l12.2-5c1-0.4,2.1-0.8,3-1.3c0.9-0.5,1.8-1.1,2.5-1.8c1.5-1.5,2.8-3.3,3.9-5.1
			c1.1-1.9,2-3.9,3-5.9c0.2-0.5,0.5-1,0.8-1.5c0.1-0.1,0.2-0.3,0.3-0.4c0.1-0.1,0.2-0.2,0.4-0.2c0.2-0.1,0.6,0.1,0.7,0.2
			c0.2,0.3,0.2,0.4,0.3,0.6c0,0.2,0.1,0.3,0.1,0.4c0.2,1.2,0.1,2.3,0.1,3.4c-0.1,2.2-0.3,4.4-0.5,6.6c0,0.3,0,0.5,0,0.8
			c0,0.1,0,0.3,0,0.4c0,0,0,0.1,0,0.1c0,0,0-0.1-0.2-0.2c-0.2,0-0.2,0-0.3,0c0,0-0.1,0-0.1,0c0,0,0.2-0.3,0.3-0.6
			c0.1-0.2,0.3-0.5,0.4-0.8c0.3-0.5,0.7-1,1.2-1.4c0.5-0.4,1.2-0.7,2-0.5l0.2,0.1l0,0.3c0.2,1.1,0,2.2-0.3,3.1
			c-0.3,1-0.7,1.9-1.1,2.9c-0.9,1.8-1.9,3.6-3,5.3l-0.5-0.5c1-0.7,2-1.5,3.1-2.1c0.5-0.3,1.1-0.6,1.7-0.9c0.3-0.1,0.6-0.3,0.9-0.3
			c0.3-0.1,0.7-0.2,1.1,0c0.2,0.1,0.4,0.3,0.5,0.6c0.1,0.2,0,0.4,0,0.6c-0.1,0.3-0.1,0.6-0.2,0.9c-0.1,0.6-0.3,1.2-0.5,1.8
			c-0.4,1.2-1,2.3-1.6,3.4c-1.3,2.1-3.1,4-5,5.5c-2,1.5-4.1,2.8-6.4,3.8l0.1-0.1l-6.2,11.8c-2.1,3.9-4,7.9-6.5,11.7
			c-4.8,7.5-11.3,14-19.2,18.2c-7.9,4.3-17,6.2-25.9,5.6c-2.2-0.2-4.5-0.5-6.6-1c-2.2-0.5-4.3-1.3-6.3-2.4c-1.9-1.1-3.9-2.1-5.9-3
			c-1-0.5-2-0.9-3.1-1.3c-1-0.4-2.1-0.7-3.1-0.9l0.1,0c-1.7,0.5-3.4,0.9-5.2,0.8c-0.9,0-1.8-0.2-2.6-0.5c-0.8-0.3-1.6-0.8-2.2-1.6
			L16,92.5l0.1-0.2l1.9-3.6l0,0.1l0.1-2.3l0,0c-0.3-3.3-0.1-6.7,1.1-9.9c0.6-1.6,1.5-3,2.6-4.3C23,71.2,24.4,70.2,26,69.7z"/>
	</g>
	<path class="st8" d="M115.4,42.4c0,0,0.5-0.7,1.1-1.7c-1.3,1.8-2.6,3.6-3.4,5.5c0.9-0.9,2.7-2.7,4.6-2.7c-2.3,4.7-6.1,7.9-9.1,11.6
		c0.3-0.1,11.6-4.4,13.6-15.3C122.2,39.8,122.9,36.7,115.4,42.4z"/>
	<path class="st8" d="M114.1,39.8c0.8-3.1,2.8-5.5,5.6-6.7c0.1-0.6,0.1-1.2,0-1.7c0,0-1.5-0.6-2.8,2.2c-0.1,0.1-0.1,0.3-0.2,0.4
		c-1.4,3.2,0.6-7.6-0.2-11.1c0-0.1,0-0.1,0-0.2C116.5,28.6,110.9,33.5,114.1,39.8z"/>
	<path class="st8" d="M99.4,72.6l4.2-8.1c-4.4,3.6-8.9,7.4-13.5,11c-3.9-4.7-10-6.5-17.3-1.8c4.7,1,7.5,4.2,9.7,7.7
		c-15.3,11.3-31.6,19.5-50.8,14c1.8,0.8,4.1,1.9,6.9,3.5c8.1,4.4,33.2,7.5,51.7-13.1c0,0,0,0,0-0.1C93.7,82.1,96.7,77.8,99.4,72.6z"
		/>
	<path class="st4" d="M47.8,47.6"/>
	<circle cx="29.4" cy="84.8" r="1.7"/>
	<g>
		<path class="st5" d="M52.4,80.9c0,0,26.6,28.5,22.6,49.3c0,0,7.5,7.3,10.1-18.6c0,0,9.3,6.9,3.5-16.9c0,0,6.9,2.9,0.2-12.7
			c-6.7-15.6-16.7-8.1-16.7-8.1"/>
		<path d="M52.4,80.9c3.2,3.4,6.1,7,8.9,10.8c2.8,3.7,5.3,7.7,7.6,11.7c2.2,4.1,4.2,8.4,5.5,12.9c1.3,4.5,1.9,9.3,1.1,14l-0.1-0.4
			c0.6,0.6,1.6,0.9,2.4,0.8c0.9-0.2,1.6-0.8,2.2-1.5c1.2-1.6,1.9-3.5,2.5-5.5c1.1-3.9,1.7-8,2.1-12.1l0.1-0.8l0.7,0.5
			c0.7,0.5,1.5,0.8,2.3,0.8c0.8,0,1.4-0.5,1.7-1.2c0.7-1.5,0.7-3.4,0.6-5.2c-0.2-3.6-1-7.3-1.8-10.8L88,93.9l0.7,0.3
			c0.6,0.2,1.4,0.3,1.8-0.1c0.5-0.3,0.7-1.1,0.7-1.8c0.1-1.5-0.3-3-0.7-4.5c-0.4-1.5-1-2.9-1.5-4.4c-0.6-1.4-1.2-2.9-1.9-4.2
			c-1.5-2.7-3.4-5.3-6.3-6.5c-2.8-1.3-6.2-0.7-8.8,1c1.3-0.9,2.7-1.5,4.3-1.8c1.5-0.3,3.2-0.1,4.6,0.5c3,1.2,5.1,3.8,6.6,6.5
			c0.8,1.4,1.4,2.8,2,4.2c0.6,1.4,1.2,2.9,1.6,4.4c0.4,1.5,0.8,3,0.8,4.7c0,0.8-0.2,1.8-1,2.4c-0.4,0.3-0.9,0.4-1.3,0.4
			c-0.5,0-0.9-0.1-1.3-0.2l0.5-0.5c0.5,1.8,0.9,3.6,1.2,5.4s0.6,3.7,0.7,5.5c0.1,0.9,0.1,1.9,0,2.8c-0.1,0.9-0.2,1.9-0.7,2.8
			c-0.2,0.5-0.5,0.9-1,1.2c-0.4,0.3-1,0.5-1.6,0.5c-1.1,0-2-0.4-2.9-1l0.8-0.3c-0.2,2.1-0.5,4.1-0.8,6.2c-0.3,2.1-0.7,4.1-1.3,6.1
			c-0.6,2-1.3,4-2.7,5.8c-0.7,0.8-1.6,1.7-2.8,1.9c-1.2,0.2-2.4-0.2-3.3-1l-0.2-0.2l0-0.3c0.9-4.5,0.3-9.2-1-13.6
			c-1.2-4.4-3.1-8.7-5.3-12.8c-2.2-4.1-4.7-8-7.3-11.8C58.3,88,55.5,84.4,52.4,80.9z"/>
	</g>
	<path class="st8" d="M88.7,81.9c-3.3-7.6-7.3-9.7-10.6-9.9c5.8,4.4,8.5,12,8.5,19c-0.9-1.8-0.9-3.7-2.7-4.6
		c2.7,5.5,3.7,11.9,1.8,17.4c0,0-1.8,1.8-2.7,0.9c0-0.9-0.9-1.8-0.9-2.7c0,9.4,1.1,21.6-4.6,29c2.4,0,6-3.1,7.7-19.6
		c0,0,9.3,6.9,3.5-16.9C88.6,94.6,95.5,97.5,88.7,81.9z"/>
	<ellipse transform="matrix(0.8178 -0.5755 0.5755 0.8178 -43.591 35.2966)" class="st10" cx="34" cy="86.5" rx="4.6" ry="1.5"/>
	<ellipse transform="matrix(0.8179 -0.5754 0.5754 0.8179 -42.0262 35.6763)" class="st6" cx="35.3" cy="84.2" rx="1.7" ry="0.5"/>
</g>
<g class="st9">
	<g class="st7">
		<path class="st5" d="M77.3,333.4c0,0,1-2.8,0.4-4.5c-0.7-1.8-1.8-10.1-1.8-10.1s-3.4-11.4-3.9-12.5c-0.5-1.1,6.9-4.7,8.1,8.8
			c0,0,3.8-7,4.6,7.3c0,0,1.3-9.7,5.1,4c0,0,7.3-1.5,0.5,11C90.3,337.4,80.5,338.6,77.3,333.4z"/>
		<path d="M77.3,333.4c0.4-1.2,0.6-2.4,0.5-3.6c-0.1-0.6-0.4-1.2-0.5-1.8c-0.2-0.6-0.3-1.2-0.4-1.8c-0.5-2.4-0.9-4.9-1.3-7.3l0,0
			l-2.1-6.8l-1.1-3.4l-0.6-1.7l-0.1-0.4l0-0.1l0-0.1c0,0,0,0,0-0.1c0-0.2,0-0.3,0.1-0.5c0.2-0.4,0.5-0.6,0.8-0.8
			c1.2-0.6,2.7-0.5,3.8,0.1c1.2,0.7,1.9,1.7,2.5,2.8c1.1,2.2,1.5,4.7,1.7,7.1l-0.9-0.2c0.3-0.5,0.6-1,1-1.4c0.2-0.2,0.5-0.4,0.8-0.5
			c0.3-0.1,0.8-0.1,1.1,0.1c0.7,0.4,0.9,0.9,1.2,1.4c0.2,0.5,0.4,1,0.5,1.6c0.5,2.1,0.7,4.2,0.8,6.3l-0.9,0c0.2-1.1,0.3-2.1,1-3.1
			c0.2-0.2,0.4-0.6,0.9-0.6c0.5,0,0.8,0.2,1,0.4c0.4,0.4,0.7,0.9,0.9,1.4c0.9,1.9,1.5,3.9,2,5.9l-0.5-0.3c0.7-0.1,1.3-0.1,1.9,0.1
			c0.6,0.2,1.2,0.7,1.5,1.3c0.6,1.2,0.4,2.5,0.1,3.7c-0.6,2.3-1.7,4.4-2.8,6.5l-0.1,0.1l-0.1,0c-2.4,0.2-4.8,0.1-7.1-0.5
			c-1.2-0.3-2.3-0.7-3.3-1.3C78.8,335.3,77.9,334.4,77.3,333.4z M77.3,333.4c0.6,1,1.6,1.8,2.6,2.3c1,0.6,2.2,0.9,3.3,1.2
			c1.1,0.2,2.3,0.3,3.5,0.4c1.2,0,2.4,0,3.5-0.2l-0.2,0.1c1.1-2,2.1-4.2,2.6-6.4c0.2-1.1,0.3-2.3-0.1-3.2c-0.4-0.9-1.6-1.1-2.6-0.9
			l-0.4,0.1l-0.1-0.4c-0.6-1.9-1.1-3.9-2-5.7c-0.2-0.4-0.5-0.9-0.8-1.1c-0.1-0.1-0.3-0.2-0.3-0.2c0,0-0.2,0.1-0.3,0.2
			c-0.4,0.7-0.7,1.8-0.8,2.7l-0.6,4.2l-0.3-4.3c-0.1-2.1-0.3-4.1-0.8-6.1c-0.1-0.5-0.3-1-0.5-1.4c-0.2-0.4-0.5-0.8-0.7-1
			c-0.2-0.1-0.5,0-0.9,0.3c-0.3,0.3-0.6,0.7-0.9,1.1l-0.8,1.3l-0.1-1.5c-0.2-2.3-0.6-4.7-1.6-6.7c-0.5-1-1.2-1.9-2.1-2.5
			c-0.9-0.5-2.1-0.6-3-0.1c-0.2,0.1-0.4,0.3-0.5,0.4c-0.1-0.2,0.1,0.3,0.2,0.5l0.5,1.7l1,3.4l2,6.9l0,0l0,0c0.3,2.5,0.6,4.9,1,7.4
			c0.1,0.6,0.2,1.2,0.3,1.8c0.1,0.6,0.4,1.2,0.4,1.8C78.1,331,77.8,332.2,77.3,333.4z"/>
	</g>
	<path class="st1" d="M89.8,326.4c-0.3-1-0.6-1.9-0.8-2.7c-0.7,1.7-1.9,3.2-3.2,3.8c-3.4,1.5-6.3-1.1-9.2-4c0.4,2.2,0.8,4.6,1.1,5.4
		c0.6,1.8-0.4,4.5-0.4,4.5c3.2,5.2,12.9,4,12.9,4C97.1,324.9,89.8,326.4,89.8,326.4z"/>
	<g class="st7">
		<path class="st5" d="M68.3,324.1c0,0-5.2-2.7-10.8,4.7l-1,1l-2.4,0.9c0,0-0.5,2.6,4.1,4.6c0,0,1.5,1.4,3.8,7.9
			c2.3,6.5,16.6,22.2,40.1,13.4l11.8-4.5c0,0,7.3,2.9,13-1.5c0,0,1.7-1.1-4.3-1.6c0,0,5.3-1.3,6.7-3.4c0,0-0.5-0.9-2.3-0.2
			c-0.1,0-0.2,0.1-0.3,0.1c-2,0.9,3.5-3.4,4.7-5.4s-6.6,3.7-11.8,2c-5.2-1.6-29.1-11.4-42.5-10.7c0,0-2.3-0.9-2.7-1.6
			C73.9,329.3,71.4,324.5,68.3,324.1z"/>
		<path d="M68.2,324.1c-1-0.4-2-0.5-3.1-0.4c-1,0.1-2,0.5-2.9,1c-1.8,1-3.3,2.6-4.5,4.2l0,0l0,0l-1,1.1l0,0l-0.1,0l-2.4,1l0.2-0.2
			c0,0.4,0.1,0.9,0.3,1.4c0.2,0.4,0.6,0.8,0.9,1.2c0.8,0.7,1.7,1.2,2.7,1.6l0.1,0l0,0c0.5,0.6,0.9,1.2,1.2,1.9
			c0.3,0.6,0.7,1.3,1,1.9c0.6,1.3,1.1,2.6,1.6,4c0.9,2.6,2.7,4.9,4.6,6.9c3.9,4,8.9,7,14.3,8.4c5.4,1.4,11.3,1.2,16.7-0.2
			c2.7-0.7,5.4-1.8,8-2.8l7.9-3l0.1,0l0.1,0c1.5,0.5,3,0.8,4.6,0.9c1.5,0.1,3.1-0.1,4.6-0.5c0.7-0.2,1.4-0.5,2.1-0.9
			c0.3-0.2,0.7-0.4,1-0.6c0.2-0.1,0.3-0.2,0.5-0.3c0.1-0.1,0.1-0.1,0.1-0.1c0-0.1-0.5-0.3-0.8-0.4c-0.4-0.1-0.7-0.2-1.1-0.2
			c-0.8-0.1-1.5-0.2-2.3-0.3l-2.2-0.2l2.2-0.6c1.2-0.3,2.4-0.7,3.5-1.2c0.6-0.3,1.1-0.5,1.6-0.9c0.5-0.3,1-0.7,1.3-1.2l0,0.5
			c0-0.1-0.3-0.2-0.5-0.2c-0.3,0-0.6,0-0.9,0.1c-0.2,0.1-0.3,0.1-0.4,0.2c-0.2,0.1-0.2,0.2-0.7,0.2c0,0-0.1,0-0.2,0
			c-0.1,0-0.2-0.1-0.3-0.2c-0.1-0.3,0-0.4,0-0.5c0.1-0.1,0.1-0.2,0.1-0.2c0.1-0.1,0.1-0.2,0.2-0.2l0.4-0.4c1-1,2.1-1.9,3-2.9
			c0.5-0.5,0.9-1,1.3-1.5c0.1-0.1,0.2-0.4,0.1-0.2c0,0,0.1,0.3,0.2,0.3c0.1,0,0.1,0,0.1,0c0,0-0.1,0-0.2,0c-0.3,0.1-0.6,0.2-0.9,0.3
			c-1.3,0.5-2.6,1.1-4,1.6c-1.4,0.4-2.8,0.8-4.3,0.8c-0.7,0-1.5,0-2.2-0.2c-0.7-0.2-1.4-0.4-2-0.7l-7.9-2.8
			c-5.3-1.8-10.6-3.6-16.1-5c-2.7-0.7-5.5-1.3-8.2-1.8c-2.8-0.5-5.6-0.8-8.3-0.7l-0.1,0l0,0c-0.9-0.4-1.9-0.8-2.7-1.6
			c-0.5-0.9-1-1.8-1.5-2.6c-0.6-0.8-1.2-1.6-1.9-2.3C70.1,324.9,69.2,324.3,68.2,324.1L68.2,324.1L68.2,324.1z M68.3,324.1
			c1,0.1,1.9,0.7,2.7,1.3c0.8,0.7,1.4,1.4,2,2.2c0.6,0.8,1.1,1.7,1.6,2.5c0.7,0.6,1.6,1,2.5,1.4l-0.1,0c2.8-0.2,5.7,0.1,8.5,0.5
			c2.8,0.4,5.6,1,8.3,1.7c5.5,1.3,10.9,3,16.2,4.9l8,2.8c0.7,0.2,1.3,0.5,2,0.7c0.6,0.2,1.3,0.2,1.9,0.2c1.3,0,2.7-0.3,4-0.8
			c1.3-0.4,2.6-1,3.9-1.5c0.3-0.1,0.7-0.3,1.1-0.4c0.1,0,0.2-0.1,0.4-0.1c0.1,0,0.2,0,0.4,0.1c0.2,0.1,0.4,0.4,0.3,0.5
			c0,0.3-0.1,0.4-0.1,0.5c-0.1,0.1-0.1,0.2-0.2,0.3c-0.4,0.6-0.9,1.2-1.4,1.7c-1,1-2.1,2-3.1,2.9l-0.4,0.4c-0.1,0.1-0.1,0.1-0.1,0.2
			c0,0,0,0.1,0,0c0,0,0.1-0.1,0-0.3c-0.1-0.1-0.2-0.2-0.3-0.2c0,0-0.1,0-0.1,0c-0.1,0,0.2-0.1,0.3-0.1c0.2-0.1,0.4-0.1,0.5-0.2
			c0.4-0.1,0.8-0.2,1.2-0.2c0.4,0.1,0.9,0.2,1.3,0.7l0.1,0.2l-0.2,0.2c-0.4,0.6-1,1-1.5,1.4c-0.6,0.4-1.2,0.7-1.8,0.9
			c-1.2,0.5-2.4,0.9-3.7,1.2l-0.1-0.7c0.8,0.1,1.6,0.2,2.4,0.3c0.4,0.1,0.8,0.2,1.2,0.3c0.2,0.1,0.4,0.1,0.6,0.2
			c0.2,0.1,0.4,0.2,0.6,0.5c0.1,0.2,0.1,0.4,0,0.6c-0.1,0.2-0.2,0.3-0.3,0.3c-0.2,0.1-0.3,0.2-0.5,0.4c-0.3,0.2-0.7,0.4-1,0.6
			c-0.7,0.4-1.5,0.7-2.2,0.9c-1.6,0.4-3.2,0.6-4.8,0.5c-1.6-0.1-3.2-0.4-4.7-1l0.1,0l-8,3c-2.7,1-5.3,2.1-8,2.8
			c-5.5,1.5-11.4,1.9-17,0.6c-5.6-1.3-10.8-4.3-14.8-8.4c-1-1-1.9-2.2-2.7-3.3c-0.8-1.2-1.5-2.5-2-3.9c-0.5-1.3-1-2.6-1.5-3.9
			c-0.6-1.3-1.2-2.6-2-3.6l0.1,0.1c-1-0.5-2-1-2.9-1.8c-0.4-0.4-0.8-0.9-1.1-1.4c-0.3-0.5-0.4-1.1-0.4-1.8l0-0.2l0.2-0.1l2.5-0.9
			l-0.1,0.1l1-1l0,0c1.3-1.7,2.9-3.2,4.8-4.2c1-0.5,2-0.8,3.1-0.9C66.2,323.5,67.3,323.6,68.3,324.1z"/>
	</g>
	<path class="st1" d="M122.5,349.2c0,0,0.5-0.1,1.2-0.3c-1.4,0.3-2.8,0.6-3.9,1.2c0.8,0,2.5-0.1,3.3,0.6c-3.1,1.2-6.3,1.2-9.3,1.6
		c0.2,0.1,7.4,2.8,13-1.5C126.8,350.8,128.4,349.7,122.5,349.2z"/>
	<path class="st1" d="M122.9,347.4c1.7-1.1,3.7-1.4,5.5-0.8c0.3-0.2,0.5-0.5,0.7-0.8c0,0-0.5-0.9-2.3-0.2c-0.1,0-0.2,0.1-0.3,0.1
		c-2,0.9,3.5-3.4,4.7-5.4c0,0,0-0.1,0-0.1C128.9,343.1,124.1,343.1,122.9,347.4z"/>
	<path class="st1" d="M102,356.8l5.5-2.1c-3.6-0.2-7.4-0.3-11.1-0.5c0.1-3.9-2-7.4-7.5-8.2c1.8,2.5,1.8,5.2,1.3,7.8
		c-12.1-1.1-23.4-4.2-30.2-15c0.5,1.1,1.1,2.6,1.8,4.6c2,5.5,12.6,17.7,30.2,15.8c0,0,0,0,0,0C95.2,358.8,98.5,358.1,102,356.8z"/>
	<path class="st0" d="M88.1,322.9"/>
	<circle class="st7" cx="63.4" cy="332.7" r="1.1"/>
	<g class="st7">
		<path class="st5" d="M76.1,340.7c0,0,0.5,24.9-10.3,33.1c0,0,0.4,6.7,12.7-4.6c0,0,1.5,7.2,8.9-6.6c0,0,2,4.3,5.5-6
			c3.4-10.3-4.5-11-4.5-11"/>
		<path d="M76.1,340.7c0.1,3,0,5.9-0.3,8.9c-0.3,3-0.7,5.9-1.4,8.8c-0.7,2.9-1.5,5.8-2.8,8.5c-1.3,2.7-3.1,5.3-5.5,7.2l0.2-0.4
			c0.1,0.5,0.3,1,0.8,1.3c0.4,0.3,1,0.3,1.6,0.2c1.2-0.2,2.3-0.8,3.4-1.5c2.2-1.4,4.2-3.1,6.2-4.8l0.6-0.5l0.2,0.8
			c0.1,0.5,0.4,1,0.7,1.3c0.3,0.3,0.7,0.3,1.2,0.1c0.9-0.4,1.7-1.3,2.5-2.2c1.4-1.8,2.6-3.9,3.8-5.9l0.4-0.7l0.3,0.7
			c0.2,0.3,0.5,0.7,0.8,0.7c0.3,0,0.7-0.2,1-0.5c0.6-0.6,1.1-1.5,1.6-2.4c0.8-1.8,1.6-3.6,2-5.5c0.5-1.9,0.6-3.9-0.2-5.7
			c-0.8-1.8-2.6-3-4.6-3.3c2,0.2,3.9,1.3,4.8,3.2c0.9,1.8,0.8,4,0.4,6c-0.5,2-1.1,3.8-1.9,5.7c-0.4,0.9-0.9,1.8-1.6,2.6
			c-0.4,0.4-0.9,0.8-1.6,0.8c-0.3,0-0.7-0.2-0.9-0.4c-0.2-0.2-0.4-0.4-0.6-0.7l0.7,0c-1.1,2.1-2.3,4.2-3.8,6.1
			c-0.8,0.9-1.6,1.9-2.8,2.5c-0.3,0.1-0.7,0.2-1.1,0.2c-0.4,0-0.8-0.2-1.1-0.5c-0.6-0.5-0.8-1.1-1-1.8l0.8,0.3c-2,1.8-4,3.5-6.3,5
			c-1.2,0.7-2.4,1.4-3.8,1.6c-0.7,0.1-1.5,0.1-2.3-0.3c-0.7-0.5-1.1-1.2-1.2-2l0-0.2l0.2-0.2c2.3-1.7,4-4.2,5.3-6.8
			c1.3-2.6,2.3-5.4,3-8.3c0.7-2.9,1.2-5.8,1.6-8.7C75.8,346.6,76,343.6,76.1,340.7z"/>
	</g>
	<path class="st1" d="M92.9,356.6c1.7-5,0.6-7.7-0.8-9.2c0.9,4.6-1.1,9.3-4.1,12.7c0.3-1.3,1.1-2.1,0.6-3.3c-1,3.8-3.3,7.2-6.5,9.1
		c0,0-1.7,0.1-1.7-0.7c0.4-0.4,0.3-1.3,0.7-1.7c-4,4.5-8.7,10.8-14.6,11.8c1.2,1,4.2,1.1,12-6c0,0,1.5,7.2,8.9-6.6
		C87.4,362.6,89.5,366.9,92.9,356.6z"/>
	<ellipse transform="matrix(0.9931 0.1169 -0.1169 0.9931 39.6743 -5.2868)" class="st2" cx="64.9" cy="335.5" rx="2.9" ry="0.9"/>
	<ellipse transform="matrix(0.9931 0.1171 -0.1171 0.9931 39.6684 -5.4839)" class="st3" cx="66.5" cy="335" rx="1.1" ry="0.3"/>
</g>
</svg>
