<?xml version="1.0" encoding="utf-8"?>
<!-- Generator: Adobe Illustrator 15.1.0, SVG Export Plug-In . SVG Version: 6.00 Build 0)  -->
<!DOCTYPE svg PUBLIC "-//W3C//DTD SVG 1.1//EN" "http://www.w3.org/Graphics/SVG/1.1/DTD/svg11.dtd">
<svg version="1.1" id="Layer_10" xmlns="http://www.w3.org/2000/svg" xmlns:xlink="http://www.w3.org/1999/xlink" x="0px" y="0px"
	 width="372px" height="265px" viewBox="0 0 372 265" style="enable-background:new 0 0 372 265;" xml:space="preserve">
<style type="text/css">
<![CDATA[
	.st0{opacity:0.48;}
	.st1{fill:#219E36;}
	.st2{fill:#24772E;}
	.st3{opacity:0.48;fill:#04470F;}
	.st4{fill:#63D66B;}
	.st5{fill:#036D17;stroke:#000000;stroke-miterlimit:10;}
	.st6{fill:#036D17;}
	.st7{fill:#04470F;}
	.st8{fill:#050404;}
]]>
</style>
<g>
	<path class="st4" d="M8.3,268h27.6L8.3,236.3c0,0,24,0.9,34,28l-17.3-62.4c0,0,31.9,41,28.5,66.1c0,0-10-58.8,3.3-78.9
		c13.2-20.1,8.9,83.9,8.2,85.3c-0.7,1.5,0.7-1.5,0.7-1.5s0.8-50.4,23.8-71c23-20.6-12.7,66.1-12.7,66.1s22.4-53.3,38.6-55.6
		c13.8-2-14.2,44.4-22.7,58.1c-1.5,2.4-2.4,3.7-2.4,3.7l52.6-51.5L117.5,268c0,0,15.2-30.6,46.6-27.7L136,268H173"/>
	<path class="st8" d="M8.3,268l27.6-0.1l-0.1,0.3L8.1,236.5L7.6,236l0.6,0c3.9,0.3,7.7,1.4,11.3,2.9c3.6,1.5,6.9,3.6,9.9,6.1
		c3,2.5,5.6,5.5,7.8,8.7c2.2,3.2,3.9,6.8,5.3,10.4l-0.6,0.2L24.5,202l-0.6-2.1l1.3,1.8c3.7,4.9,7.2,9.9,10.5,15.1
		c3.3,5.2,6.3,10.5,9,16c2.7,5.5,5.2,11.2,6.9,17c1.7,5.9,2.9,12.1,2.1,18.2l-0.3,2.5l-0.4-2.5c-1.2-7.3-2-14.6-2.6-21.9
		c-0.6-7.3-1-14.7-0.9-22c0.1-7.4,0.5-14.7,2-22c0.8-3.6,1.8-7.2,3.4-10.5c0.4-0.8,0.9-1.6,1.4-2.4c0.5-0.8,1-1.6,1.8-2.2
		c0.4-0.3,0.8-0.6,1.3-0.7c0.5-0.1,1.1,0,1.5,0.3c0.8,0.6,1.2,1.5,1.6,2.3c0.7,1.7,1.1,3.5,1.5,5.3c0.3,1.8,0.6,3.6,0.8,5.5
		c0.4,3.7,0.7,7.3,0.9,11c0.4,7.3,0.5,14.7,0.5,22c0,7.3-0.1,14.7-0.3,22c-0.1,3.7-0.2,7.3-0.4,11l-0.3,5.5
		c-0.1,0.9-0.1,1.8-0.2,2.8l0,0.2c0,0,0,0.1,0,0.1l0,0.1l-0.1,0.3c0.1,0.1-0.7-0.3-0.3-0.2l0,0l0-0.1l0.1-0.2l0.1-0.3l0.6-1.3l0,0.1
		c0.2-6.5,0.8-13.1,1.8-19.5c1-6.5,2.3-12.9,4.1-19.2c1.8-6.3,4.1-12.5,7.2-18.3c3.1-5.8,7-11.2,12.1-15.4c0.7-0.5,1.3-1,2.1-1.4
		c0.7-0.4,1.6-0.8,2.5-0.7c0.5,0,0.9,0.3,1.3,0.6c0.3,0.3,0.5,0.8,0.7,1.2c0.3,0.8,0.4,1.7,0.4,2.5c0,3.3-0.6,6.6-1.3,9.8
		c-1.4,6.4-3.4,12.7-5.4,18.9c-4.1,12.4-8.7,24.7-13.6,36.8l-0.8-0.3c2.3-5.4,4.8-10.7,7.4-16c2.6-5.3,5.4-10.4,8.4-15.5
		c3-5.1,6.2-10,10-14.6c1.9-2.3,3.9-4.5,6.2-6.4c1.2-0.9,2.4-1.8,3.8-2.5c1.4-0.6,2.9-1.2,4.5-1.1c0.8,0.1,1.7,0.4,2.2,1.1
		c0.5,0.7,0.7,1.5,0.8,2.3c0.1,1.6-0.2,3.1-0.5,4.5c-0.7,2.9-1.7,5.7-2.9,8.4c-2.3,5.4-4.9,10.7-7.7,15.9
		c-5.6,10.4-11.6,20.5-17.9,30.4l-0.7-0.6l52.6-51.5l2.4-2.3l-1.6,2.9l-25.5,45.2l-0.7-0.4c2.3-4.3,5.2-8.2,8.4-11.8
		c3.2-3.6,6.9-6.8,11-9.4c4.1-2.6,8.5-4.6,13.2-5.7c4.7-1.2,9.6-1.5,14.4-1l0.6,0.1l-0.4,0.4l-28.2,27.7l-0.1-0.3L173,268v0.1
		l-36.9,0.1l-0.4,0l0.3-0.3l28-27.8l0.2,0.5c-4.7-0.4-9.6-0.1-14.2,1.1c-4.6,1.1-9,3.1-13,5.7c-4,2.6-7.6,5.7-10.8,9.3
		c-3.2,3.5-6,7.4-8.2,11.6l-0.7-0.4l25.3-45.3l0.8,0.6l-52.6,51.5l-3,2.9l2.2-3.5c6.3-9.9,12.3-20,17.8-30.3
		c2.8-5.2,5.4-10.4,7.6-15.8c1.1-2.7,2.1-5.4,2.8-8.3c0.3-1.4,0.6-2.8,0.5-4.2c-0.1-0.7-0.2-1.3-0.6-1.8c-0.4-0.5-0.9-0.7-1.6-0.8
		c-1.3-0.1-2.7,0.4-4,1c-1.3,0.6-2.5,1.4-3.6,2.3c-2.2,1.8-4.2,4-6.1,6.2c-3.7,4.5-6.9,9.4-9.9,14.5c-6,10.1-11.1,20.6-15.8,31.4
		l-0.8-0.3c4.9-12.1,9.6-24.3,13.7-36.7c2-6.2,4-12.4,5.5-18.8c0.7-3.2,1.4-6.4,1.3-9.6c0-0.8-0.1-1.6-0.3-2.3
		c-0.2-0.7-0.7-1.3-1.4-1.4c-0.7-0.1-1.5,0.2-2.1,0.6c-0.7,0.4-1.3,0.8-2,1.3c-5,4.1-8.9,9.5-12,15.2c-3.1,5.7-5.4,11.9-7.2,18.1
		c-1.8,6.3-3.1,12.7-4.1,19.1c-1,6.5-1.6,13-1.8,19.5l0,0l0,0l-0.6,1.3l-0.1,0.3l-0.1,0.2l0,0.1l0,0c0.3,0.2-0.4-0.2-0.4-0.2
		l0.1-0.3l0-0.1c0,0,0,0,0,0l0-0.2c0.1-0.9,0.2-1.8,0.2-2.7l0.3-5.5c0.2-3.7,0.3-7.3,0.4-11c0.2-7.3,0.3-14.7,0.3-22
		c0-7.3-0.2-14.7-0.6-22c-0.2-3.7-0.5-7.3-0.9-11c-0.2-1.8-0.5-3.6-0.8-5.4c-0.4-1.8-0.8-3.6-1.5-5.3c-0.4-0.8-0.8-1.6-1.5-2.1
		c-0.3-0.2-0.7-0.3-1.1-0.3c-0.4,0.1-0.8,0.3-1.1,0.6c-0.7,0.6-1.2,1.3-1.7,2.1c-0.5,0.8-0.9,1.6-1.3,2.4c-1.6,3.3-2.6,6.8-3.3,10.4
		c-1.5,7.2-1.9,14.5-1.9,21.9c0,7.3,0.3,14.7,1,22c0.6,7.3,1.5,14.6,2.7,21.8l-0.7,0c0.8-6-0.4-12.1-2.1-17.9
		c-1.8-5.8-4.2-11.4-6.9-16.9c-2.7-5.5-5.8-10.7-9-15.9c-3.3-5.2-6.7-10.2-10.4-15.1l0.7-0.4l17.2,62.5l-0.6,0.2
		c-1.3-3.6-3-7.1-5.2-10.3c-2.1-3.2-4.7-6.1-7.6-8.6c-2.9-2.5-6.2-4.5-9.8-6.1c-3.5-1.5-7.3-2.6-11.1-2.9l0.2-0.4L36,267.9l0.2,0.3
		h-0.3L8.3,268L8.3,268z"/>
</g>
<g>
	<path class="st1" d="M91.2,267h34.9l-34.9-36.9c0,0,30.3,1,42.9,32.7L112.3,190c0,0,40.3,47.7,36,77c0,0-12.6-68.5,4.1-92
		s11.2,97.7,10.4,99.4c-0.8,1.7,0.8-1.7,0.8-1.7s1-58.7,30.1-82.7c29.1-24-16,77-16,77s28.3-62.1,48.8-64.8
		c17.5-2.3-17.9,51.8-28.7,67.7c-1.9,2.7-3,4.4-3,4.4l66.5-60L229.3,267c0,0,19.2-35.6,59-32.3L252.7,267h46.7"/>
	<path d="M91.2,266.9l34.9-0.1l-0.1,0.3l-35-36.8l-0.5-0.5l0.7,0c4.8,0.3,9.4,1.5,13.9,3.2c4.4,1.7,8.7,4,12.5,6.9
		c3.8,2.9,7.2,6.3,10,10.2c2.8,3.8,5.1,8.1,6.9,12.5l-0.6,0.2l-21.9-72.7l-0.6-2l1.4,1.6c4.6,5.6,9,11.4,13.1,17.4
		c4.1,6,7.9,12.1,11.4,18.5c3.5,6.4,6.6,13,8.8,19.9c1.1,3.5,2,7,2.6,10.6c0.5,3.6,0.7,7.3,0.2,10.9l-0.3,2.3l-0.4-2.3
		c-1.5-8.5-2.5-17-3.3-25.6c-0.8-8.6-1.2-17.2-1.2-25.8c0.1-8.6,0.7-17.2,2.6-25.7c1-4.2,2.3-8.3,4.3-12.2c0.5-1,1.1-1.9,1.7-2.8
		c0.6-0.9,1.3-1.8,2.2-2.5c0.4-0.3,0.9-0.6,1.5-0.8c0.6-0.1,1.2,0,1.7,0.2c1,0.6,1.6,1.6,2.1,2.6c0.9,2,1.5,4.1,1.9,6.2
		c0.5,2.1,0.8,4.2,1.1,6.4c0.6,4.3,0.9,8.6,1.2,12.8c0.5,8.6,0.7,17.2,0.7,25.8c0,8.6-0.1,17.2-0.3,25.8c-0.1,4.3-0.3,8.6-0.5,12.9
		c-0.1,2.1-0.2,4.3-0.4,6.4c-0.1,1.1-0.1,2.1-0.3,3.2c0,0.1,0,0.1,0,0.2c0,0.1-0.1,0.2-0.1,0.2l-0.1,0.2l0,0.1l0,0
		c-0.2-0.1,0.3,0.2-0.4-0.1l0.4-0.7l0.7-1.5l0,0.1c0.3-7.7,1.1-15.4,2.3-23c1.3-7.6,3-15.2,5.3-22.5c2.3-7.4,5.3-14.6,9.2-21.2
		c3.9-6.7,8.8-12.8,15.1-17.5c0.8-0.6,1.6-1.1,2.5-1.6c0.9-0.4,1.8-0.8,2.9-0.9c0.5,0,1.1,0.1,1.5,0.4c0.5,0.3,0.8,0.8,1,1.2
		c0.4,0.9,0.6,1.9,0.6,2.9c0.1,2-0.1,3.9-0.4,5.8c-0.3,1.9-0.7,3.8-1.2,5.7c-1.8,7.5-4.3,14.8-6.9,22.1
		c-5.2,14.5-11.1,28.8-17.3,42.9l-0.8-0.4c3-6.4,6.1-12.6,9.5-18.8c3.3-6.2,6.9-12.2,10.7-18.1c3.8-5.9,7.9-11.6,12.6-16.9
		c2.4-2.6,4.9-5.1,7.7-7.2c1.4-1.1,2.9-2,4.6-2.8c1.6-0.7,3.4-1.3,5.2-1.3c0.9,0,2,0.2,2.8,0.9c0.8,0.7,1.2,1.7,1.3,2.6
		c0.3,1.9,0,3.7-0.4,5.4c-0.8,3.5-2.2,6.7-3.6,9.9c-2.9,6.4-6.3,12.6-9.8,18.7c-7,12.1-14.7,23.9-22.6,35.5l-0.7-0.6l66.5-60
		l2.5-2.2l-1.7,2.9l-32.2,52.7l-0.7-0.4c3-5.2,6.8-9.8,11-14c4.2-4.2,8.9-7.9,14.1-10.9c5.2-3,10.8-5.2,16.6-6.4
		c5.8-1.3,11.8-1.6,17.7-1.1l0.6,0.1l-0.5,0.4l-35.6,32.2l-0.1-0.3l46.7,0.1v0.1l-46.7,0.1l-0.5,0l0.4-0.3l35.5-32.4l0.2,0.5
		c-5.9-0.5-11.8-0.1-17.5,1.1c-5.7,1.3-11.3,3.5-16.4,6.4c-5.1,2.9-9.8,6.6-13.9,10.8c-4.1,4.2-7.9,8.8-10.8,13.9l-0.7-0.4l32-52.8
		l0.7,0.6l-66.5,60l-3,2.8l2.3-3.4c7.9-11.5,15.5-23.3,22.6-35.4c3.5-6.1,6.9-12.2,9.7-18.6c1.4-3.2,2.7-6.4,3.5-9.8
		c0.4-1.7,0.7-3.4,0.4-5c-0.1-0.8-0.4-1.5-1-2c-0.6-0.5-1.4-0.6-2.2-0.6c-1.6,0-3.3,0.5-4.9,1.2c-1.6,0.7-3,1.6-4.4,2.7
		c-2.8,2.1-5.3,4.5-7.6,7.1c-4.6,5.2-8.7,10.9-12.5,16.8c-7.6,11.8-14.2,24.1-20.1,36.8l-0.8-0.4c6.2-14.1,12.1-28.4,17.4-42.8
		c2.6-7.3,5.1-14.6,6.9-22c0.5-1.9,0.9-3.7,1.2-5.6c0.3-1.9,0.5-3.8,0.4-5.7c-0.1-0.9-0.2-1.9-0.6-2.7c-0.4-0.8-1.1-1.4-2-1.3
		c-0.9,0-1.8,0.4-2.6,0.8c-0.8,0.4-1.6,1-2.4,1.5c-6.2,4.6-11.1,10.7-15,17.3c-3.9,6.6-6.8,13.8-9.2,21.1c-2.3,7.3-4,14.9-5.3,22.5
		c-1.2,7.6-2.1,15.3-2.4,23l0,0l0,0l-0.7,1.4l-0.4,0.7c-0.7-0.3-0.2-0.1-0.3-0.2l0,0l0-0.1l0.1-0.2c0-0.1,0.1-0.1,0.1-0.1l0-0.2
		c0.1-1,0.2-2.1,0.3-3.2c0.1-2.1,0.3-4.3,0.4-6.4c0.2-4.3,0.4-8.6,0.5-12.9c0.3-8.6,0.4-17.2,0.3-25.8c0-8.6-0.2-17.2-0.8-25.8
		c-0.3-4.3-0.6-8.6-1.2-12.8c-0.3-2.1-0.6-4.2-1.1-6.3c-0.5-2.1-1-4.2-1.9-6.1c-0.5-0.9-1-1.9-1.9-2.4c-0.9-0.5-1.9-0.2-2.7,0.5
		c-0.8,0.6-1.5,1.5-2.1,2.4c-0.6,0.9-1.2,1.8-1.7,2.7c-2,3.8-3.3,7.9-4.3,12c-1.9,8.4-2.4,17-2.5,25.6c-0.1,8.6,0.4,17.2,1.2,25.7
		c0.8,8.5,1.9,17.1,3.4,25.5l-0.7,0c0.5-3.5,0.3-7.2-0.2-10.7c-0.5-3.6-1.5-7-2.6-10.5c-2.3-6.8-5.4-13.4-8.8-19.7
		c-3.5-6.3-7.3-12.5-11.4-18.4c-4.1-5.9-8.4-11.8-13-17.3l0.7-0.4l21.8,72.8l-0.6,0.2c-1.7-4.4-4-8.6-6.8-12.4
		c-2.8-3.8-6.1-7.2-9.9-10.1c-3.7-2.9-7.9-5.2-12.3-6.9c-4.4-1.7-9-2.9-13.7-3.2l0.2-0.5l34.8,37l0.3,0.3l-0.4,0L91.2,266.9
		L91.2,266.9z"/>
</g>
<g>
	<path class="st4" d="M91.2,268.1h27.6l-27.6-31.7c0,0,24,0.9,34,28L107.9,202c0,0,31.9,41,28.5,66.1c0,0-10-58.8,3.3-78.9
		c13.2-20.1,8.9,83.9,8.2,85.3c-0.7,1.5,0.7-1.5,0.7-1.5s0.8-50.4,23.8-71c23-20.6-12.7,66.1-12.7,66.1s22.4-53.3,38.6-55.6
		c13.8-2-14.2,44.4-22.7,58.1c-1.5,2.4-2.4,3.7-2.4,3.7l52.6-51.5l-25.4,45.3c0,0,15.2-30.6,46.6-27.7l-28.1,27.7h36.9"/>
	<path class="st8" d="M91.2,268.1l27.6-0.1l-0.1,0.3L91,236.6l-0.4-0.5l0.6,0c3.9,0.3,7.7,1.4,11.3,2.9c3.6,1.5,6.9,3.6,9.9,6.1
		c3,2.5,5.6,5.5,7.8,8.7c2.2,3.2,3.9,6.8,5.3,10.4l-0.6,0.2l-17.4-62.4l-0.6-2.1l1.3,1.8c3.7,4.9,7.2,9.9,10.5,15.1
		c3.3,5.2,6.3,10.5,9,16c2.7,5.5,5.2,11.1,6.9,17c1.7,5.9,2.9,12.1,2.1,18.2l-0.3,2.5l-0.4-2.5c-1.2-7.3-2-14.6-2.6-21.9
		c-0.6-7.3-1-14.7-0.9-22c0.1-7.4,0.5-14.7,2-22c0.8-3.6,1.8-7.2,3.4-10.5c0.4-0.8,0.9-1.6,1.4-2.4c0.5-0.8,1-1.6,1.8-2.2
		c0.4-0.3,0.8-0.6,1.3-0.7c0.5-0.1,1.1,0,1.5,0.3c0.8,0.6,1.2,1.5,1.6,2.4c0.7,1.7,1.1,3.5,1.5,5.3c0.3,1.8,0.6,3.6,0.8,5.5
		c0.4,3.7,0.7,7.3,0.9,11c0.4,7.3,0.5,14.7,0.5,22c0,7.4-0.1,14.7-0.3,22c-0.1,3.7-0.2,7.3-0.4,11l-0.3,5.5
		c-0.1,0.9-0.1,1.8-0.2,2.8l0,0.2c0,0,0,0.1,0,0.1l0,0.1l-0.1,0.3c0.1,0.1-0.7-0.3-0.3-0.2l0,0l0-0.1l0.1-0.2l0.1-0.3l0.6-1.3l0,0.1
		c0.2-6.5,0.8-13.1,1.8-19.5c1-6.5,2.3-12.9,4.1-19.2c1.8-6.3,4.1-12.5,7.2-18.3c3.1-5.8,7-11.2,12.1-15.4c0.7-0.5,1.3-1,2.1-1.4
		c0.7-0.4,1.6-0.8,2.5-0.7c0.5,0,0.9,0.3,1.3,0.6c0.3,0.3,0.5,0.8,0.7,1.2c0.3,0.8,0.4,1.7,0.4,2.5c0,3.3-0.6,6.6-1.3,9.8
		c-1.4,6.4-3.4,12.7-5.4,18.9c-4.1,12.4-8.7,24.7-13.6,36.8l-0.8-0.3c2.3-5.4,4.8-10.7,7.4-16c2.6-5.3,5.4-10.4,8.4-15.5
		c3-5.1,6.2-10,10-14.6c1.9-2.3,3.9-4.5,6.2-6.4c1.2-0.9,2.4-1.8,3.8-2.5c1.4-0.6,2.9-1.2,4.5-1.1c0.8,0.1,1.7,0.4,2.2,1.1
		c0.5,0.7,0.7,1.5,0.8,2.3c0.1,1.6-0.2,3.1-0.5,4.5c-0.7,2.9-1.7,5.7-2.9,8.4c-2.3,5.4-4.9,10.7-7.7,15.9
		c-5.6,10.4-11.6,20.5-17.9,30.4l-0.7-0.6l52.6-51.5l2.4-2.3l-1.6,2.9l-25.5,45.2l-0.7-0.4c2.3-4.3,5.2-8.2,8.4-11.8
		c3.2-3.6,6.9-6.8,11-9.3c4.1-2.6,8.5-4.6,13.2-5.7c4.7-1.2,9.6-1.5,14.4-1l0.6,0.1l-0.4,0.4l-28.2,27.7l-0.1-0.3l36.9,0.1v0.1
		l-36.9,0.1h-0.4l0.3-0.3l28-27.8l0.2,0.5c-4.7-0.4-9.6-0.1-14.2,1.1c-4.6,1.1-9,3.1-13,5.7c-4,2.6-7.6,5.7-10.8,9.3
		c-3.2,3.5-6,7.4-8.2,11.6l-0.7-0.4l25.3-45.3l0.8,0.6l-52.6,51.5l-3,2.9l2.2-3.5c6.3-9.9,12.3-20,17.8-30.3
		c2.8-5.2,5.4-10.4,7.6-15.8c1.1-2.7,2.1-5.4,2.8-8.3c0.3-1.4,0.6-2.8,0.5-4.2c-0.1-0.7-0.2-1.3-0.6-1.8c-0.4-0.5-0.9-0.7-1.6-0.8
		c-1.3-0.1-2.7,0.4-4,1c-1.3,0.6-2.5,1.4-3.6,2.3c-2.2,1.8-4.2,4-6.1,6.2c-3.7,4.5-6.9,9.4-9.9,14.5c-6,10.1-11.1,20.6-15.8,31.4
		l-0.8-0.3c4.9-12.1,9.6-24.3,13.7-36.7c2-6.2,4-12.4,5.5-18.8c0.7-3.2,1.4-6.4,1.3-9.6c0-0.8-0.1-1.6-0.3-2.3
		c-0.2-0.7-0.7-1.3-1.4-1.4c-0.7-0.1-1.5,0.2-2.1,0.6c-0.7,0.4-1.3,0.8-2,1.3c-5,4.1-8.9,9.5-12,15.2c-3.1,5.7-5.4,11.9-7.2,18.1
		c-1.8,6.3-3.1,12.7-4.1,19.1c-1,6.5-1.6,13-1.8,19.5l0,0l0,0l-0.6,1.3l-0.1,0.3l-0.1,0.2l0,0.1l0,0c0.3,0.2-0.4-0.2-0.4-0.1
		l0.1-0.3l0-0.1c0,0,0,0,0,0l0-0.2c0.1-0.9,0.2-1.8,0.2-2.7l0.3-5.5c0.2-3.7,0.3-7.3,0.4-11c0.2-7.3,0.3-14.7,0.3-22
		c0-7.3-0.2-14.7-0.6-22c-0.2-3.7-0.5-7.3-0.9-11c-0.2-1.8-0.5-3.6-0.8-5.4c-0.4-1.8-0.8-3.6-1.5-5.3c-0.4-0.8-0.8-1.6-1.5-2.1
		c-0.3-0.2-0.7-0.3-1.1-0.3c-0.4,0.1-0.8,0.3-1.1,0.6c-0.7,0.6-1.2,1.3-1.7,2.1c-0.5,0.8-0.9,1.6-1.3,2.4c-1.6,3.3-2.6,6.8-3.3,10.4
		c-1.5,7.2-1.9,14.5-1.9,21.9c0,7.3,0.3,14.7,1,22c0.6,7.3,1.5,14.6,2.7,21.8l-0.7,0c0.8-6-0.4-12.1-2.1-17.9
		c-1.8-5.8-4.2-11.4-6.9-16.9c-2.7-5.4-5.8-10.7-9-15.9c-3.3-5.2-6.7-10.2-10.4-15.1l0.7-0.4l17.2,62.5l-0.6,0.2
		c-1.3-3.6-3-7.1-5.2-10.3c-2.1-3.2-4.7-6.1-7.6-8.6c-2.9-2.5-6.2-4.5-9.8-6.1c-3.5-1.5-7.3-2.6-11.1-2.9l0.2-0.4l27.5,31.8l0.2,0.3
		l-0.3,0L91.2,268.1L91.2,268.1z"/>
</g>
<g>
	<path class="st6" d="M136.6,262.6c-0.2-4.3-1.1-8.8-2.6-13.4c0.5,5.4,1.1,10.1,1.6,13.4C135.9,262.6,136.2,262.6,136.6,262.6z"/>
	<path d="M136.5,262.6l-0.6-3.3c-0.2-1.1-0.4-2.2-0.6-3.3c-0.2-1.1-0.3-2.3-0.5-3.4c-0.2-1.1-0.6-2.2-1-3.3l0.5-0.1
		c0.2,1.1,0.4,2.2,0.5,3.3c0.1,1.1,0.3,2.2,0.5,3.3c0.3,2.2,0.4,4.5,0.5,6.7l-0.2-0.2C135.9,262.5,136.2,262.5,136.5,262.6z
		 M136.6,262.7c-0.3,0.1-0.7,0.1-1,0.1l-0.1,0l0-0.2c-0.5-2.2-0.9-4.4-1.2-6.7c-0.1-1.1-0.2-2.2-0.3-3.4c-0.1-1.1-0.1-2.3-0.1-3.4
		l0-2.4l0.5,2.3c0.3,1.1,0.5,2.2,0.9,3.3c0.3,1.1,0.7,2.2,1,3.3c0.3,1.1,0.4,2.3,0.5,3.4C136.7,260.3,136.7,261.5,136.6,262.7
		L136.6,262.7L136.6,262.7z"/>
</g>
<g>
	<path class="st6" d="M147.8,274.5C147.8,274.5,147.8,274.5,147.8,274.5C147.6,275,147.5,275.2,147.8,274.5z"/>
	<path d="M147.8,274.5L147.8,274.5l0.1,0c0.3,0.2,0.3,0.3,0.2,0.3c-0.1,0-0.2,0-0.3,0c0,0,0,0,0,0.1c0,0,0,0,0,0l0,0l0,0l0,0l0,0
		c0,0,0,0,0,0l0,0l-0.4-0.4l-0.2,0.1l0,0c-0.2-0.1-0.2-0.2-0.1-0.3C147.3,274.5,147.5,274.4,147.8,274.5L147.8,274.5z M147.9,274.5
		c0.3,0.2,0.3,0.3,0.3,0.4c0,0.1-0.1,0.1-0.3,0.1l0,0l-0.2,0.1l-0.4-0.4l0,0c0,0,0,0,0,0l0,0h0l0,0l0,0c0,0,0,0,0.1,0c0,0,0,0,0,0
		c0,0-0.1-0.1-0.2-0.2c0-0.1,0.1-0.1,0.4-0.1l0.2,0L147.9,274.5L147.9,274.5L147.9,274.5z"/>
</g>
<g>
	<path class="st6" d="M175.6,270.6c-1.5,2.4-2.4,3.7-2.4,3.7l6.4-6.2h-2.5C176.5,269,176,269.9,175.6,270.6z"/>
	<path d="M175.6,270.6c-0.2,0.3-0.4,0.6-0.5,1c-0.2,0.3-0.3,0.7-0.4,1c-0.3,0.7-0.6,1.3-1.1,1.9l-0.7-0.5c0.6-0.5,1.2-0.9,1.8-1.4
		c0.6-0.5,1.1-1,1.6-1.6c0.5-0.6,0.9-1.2,1.4-1.7c0.5-0.5,1-1.1,1.5-1.6l0.4,0.9c-0.8,0-1.6,0-2.5-0.1l0.4-0.2
		C176.8,269.1,176.1,269.8,175.6,270.6z M175.5,270.6c0.5-0.8,0.8-1.8,1.2-2.7l0.1-0.2l0.3,0c0.8-0.1,1.6-0.1,2.5-0.1l1.3,0l-1,0.9
		c-0.5,0.5-1.1,1-1.7,1.5c-0.6,0.5-1.2,0.9-1.7,1.4c-0.6,0.5-1.1,1-1.6,1.5c-0.5,0.6-0.9,1.2-1.4,1.7l-2.6,3l2-3.5
		c0.4-0.6,0.8-1.2,1.3-1.8c0.2-0.3,0.5-0.6,0.7-0.8C175.1,271.2,175.3,270.9,175.5,270.6z"/>
</g>
<g>
	<path class="st6" d="M147.8,274.5c0.2-0.6,0.7-1.5,0.7-1.5s0-1.8,0.2-4.9h-0.4C148.1,271.9,147.9,274.3,147.8,274.5z"/>
	<path d="M147.8,274.5c0.2-0.5,0.3-1,0.4-1.6l0,0.1c-0.2-0.8-0.1-1.7,0.1-2.5c0.1-0.4,0.2-0.8,0.2-1.2c0-0.4,0-0.8,0-1.2l0.3,0.3
		l-0.4,0.1l0.3-0.3c0.1,0.5,0.1,1.1,0.1,1.6c0,0.5,0,1.1-0.1,1.6c0,0.5-0.1,1.1-0.3,1.6C148.1,273.5,148,274,147.8,274.5
		L147.8,274.5z M147.8,274.5c0.1-0.5,0-1.1-0.1-1.6c-0.1-0.5-0.1-1.1-0.1-1.6c0-0.5,0.1-1.1,0.1-1.6c0.1-0.5,0.1-1.1,0.2-1.6
		l0.1-0.3l0.2,0l0.4,0.1l0.3,0l-0.1,0.2c-0.1,0.4-0.2,0.8-0.2,1.2c0,0.4,0,0.8,0.1,1.2c0.1,0.8,0.1,1.6-0.1,2.5l0,0.1l0,0
		C148.4,273.6,148.1,274,147.8,274.5L147.8,274.5z"/>
</g>
<g>
	<path class="st6" d="M201.6,266l-1.2,2.1h18.5l28.1-27.7C220.6,238,205.7,259.2,201.6,266z"/>
	<path d="M201.6,266l-1.2,2.1l-0.1-0.1c3.1,0,6.2-0.1,9.3-0.2c3.1-0.1,6.2-0.2,9.3-0.2l-0.3,0.1c2.3-2.3,4.7-4.6,7.1-6.9l7.2-6.8
		c2.4-2.3,4.7-4.6,7-6.9c2.3-2.3,4.6-4.7,6.9-7l0.2,0.6c-4.5-0.3-9.1,0-13.6,1c-4.4,1.1-8.6,2.8-12.5,5.2c-3.9,2.4-7.5,5.2-10.7,8.4
		C206.9,258.5,204,262.1,201.6,266z M201.6,266c1.2-2,2.5-3.9,3.8-5.7c1.4-1.9,2.8-3.6,4.4-5.4c3.1-3.4,6.7-6.4,10.7-8.9
		c2-1.2,4.1-2.3,6.2-3.2c2.2-0.9,4.4-1.6,6.6-2.1c4.5-1,9.2-1.3,13.8-0.7l0.7,0.1l-0.5,0.5c-2.4,2.3-4.8,4.5-7.1,6.8
		c-2.4,2.3-4.7,4.6-7,6.9l-6.9,7.1c-2.3,2.3-4.6,4.7-7,7l-0.1,0.1h-0.2c-3.1,0-6.2-0.1-9.3-0.2c-3.1-0.1-6.2-0.2-9.3-0.2h-0.1
		l0.1-0.1L201.6,266z"/>
</g>
<g>
	<path class="st6" d="M136.6,262.6c-0.3,0-0.7,0-1,0c0.5,3.4,0.8,5.5,0.8,5.5C136.6,266.4,136.7,264.5,136.6,262.6z"/>
	<path d="M136.5,262.7c-0.3,0.1-0.6,0.2-1,0.3l0.3-0.4c0.1,0.4,0.2,0.9,0.3,1.4c0.1,0.5,0,0.9,0,1.4c0,0.5,0,0.9,0.1,1.4
		c0.1,0.5,0.3,0.9,0.4,1.3l-0.7,0c0-0.5,0-0.9,0-1.4c0-0.5,0-0.9,0.1-1.3c0-0.4,0.1-0.9,0.2-1.3
		C136.3,263.6,136.4,263.1,136.5,262.7z M136.6,262.6c0.3,0.9,0.5,1.8,0.5,2.8c0,0.9-0.1,1.9-0.4,2.8L136,271l0-2.8
		c0-0.5,0-0.9,0-1.4c0-0.5-0.1-0.9-0.3-1.4c-0.2-0.4-0.3-0.9-0.4-1.3c0-0.5-0.1-0.9-0.1-1.4l0-0.4l0.3,0.1
		C135.9,262.4,136.2,262.5,136.6,262.6L136.6,262.6L136.6,262.6z"/>
</g>
<g>
	<path class="st6" d="M200.4,268.1l1.2-2.1C200.8,267.3,200.4,268.1,200.4,268.1z"/>
	<path d="M200.4,268.2L200.4,268.2c-0.1-0.3-0.1-0.6,0-0.8c0.1-0.2,0.1-0.4,0.3-0.5c0.2-0.1,0.4-0.2,0.5-0.4
		c0.1-0.2,0.2-0.4,0.2-0.6l0.5,0.3c0,0.4-0.2,0.8-0.4,1.2C201.2,267.6,200.9,267.9,200.4,268.2L200.4,268.2z M200.4,268.1
		c-0.1-0.5,0-0.9,0.2-1.3c0.2-0.4,0.5-0.7,0.8-0.9l0.5,0.3c-0.2,0.1-0.3,0.3-0.4,0.5c-0.1,0.2,0,0.4-0.1,0.6c0,0.2-0.2,0.4-0.3,0.5
		C200.9,267.9,200.7,268.1,200.4,268.1L200.4,268.1L200.4,268.1z"/>
</g>
<g class="st0">
	<path class="st7" d="M124.5,262.3l0.6,2.2c-0.3-0.8-0.6-1.5-0.9-2.2c-3.7-0.2-7.4-0.4-11.1-0.6l5.6,6.5h17.6c0,0-0.3-2-0.8-5.5
		C131.9,262.6,128.2,262.5,124.5,262.3z"/>
	<path class="st7" d="M198.3,212.5c-7.8,1.1-17,13.9-24.4,27c1.4,4.7,2.5,9.5,2.7,14.4c-4.2,2.4-8.6,4.1-13,5.4
		c-2.5,5.2-3.9,8.8-3.9,8.8h17.5C187,252.1,211.4,210.6,198.3,212.5z"/>
	<path class="st7" d="M225.8,222.8l-46.3,45.3h20.9c0,0,0.4-0.8,1.2-2.1L225.8,222.8z"/>
	<path class="st7" d="M149.2,262.1c-0.2,2.3-0.4,4.4-0.5,6h10.9c0,0,1.4-3.4,3.4-8.6C158.5,260.8,153.9,261.6,149.2,262.1z"/>
	<path class="st7" d="M172.3,202c-3.1,2.8-5.8,6-8.1,9.7c2,7.8,5.3,15.3,8,22.9C179.6,212.8,185.3,190.4,172.3,202z"/>
	<path class="st7" d="M136.6,262.6c0.1,1.9,0,3.7-0.2,5.5h11.9c0.1-1.7,0.2-3.7,0.3-6C144.6,262.5,140.6,262.7,136.6,262.6z"/>
</g>
<path class="st5" d="M315.5,282.3"/>
<g>
	<path class="st2" d="M262.1,260.2c0,0,5.5-100.1,33-159.1s0-49,0-49s46.5-36,28.5,49s4.1,159.1,4.1,159.1S272.6,285.2,262.1,260.2z
		"/>
	<path d="M262,260.2c0.5-9.3,1.3-18.6,2.2-27.9c1-9.3,2.1-18.5,3.4-27.8c2.7-18.5,6-36.8,10.5-54.9c4.6-18.1,10.4-35.9,18.5-52.7
		c1.9-4.2,3.7-8.5,5.3-12.9c1.6-4.4,3-8.8,4-13.3c0.5-2.3,0.9-4.6,1-6.9c0.1-2.3,0-4.7-0.7-6.8c-0.4-1.1-0.9-2.1-1.7-3
		c-0.8-0.8-1.7-1.5-2.8-1.9c-2.2-0.7-4.6-0.5-6.8,0.2l-0.9,0.3l0.8-0.6c2.1-1.5,4.2-2.9,6.5-4.1c2.3-1.2,4.6-2.2,7.1-2.9
		c2.5-0.7,5.1-1,7.7-0.5c2.6,0.4,5,1.8,6.6,3.8c1.7,2,2.8,4.4,3.5,6.9c0.7,2.5,1.1,5,1.4,7.6c0.5,5.1,0.3,10.3-0.2,15.3
		c-0.5,5.1-1.2,10.2-2.1,15.2c-0.9,5-2,10-2.9,15c-1.8,10-3.2,20.1-4.1,30.3c-1.8,20.3-1.9,40.8-0.2,61.1c0.8,10.2,2,20.3,3.6,30.4
		c1.6,10.1,3.6,20.1,6.3,29.9l0.1,0.3l-0.3,0.1c-5.5,2.4-11.1,4.4-16.8,6.2c-5.7,1.7-11.5,3.2-17.5,4.1c-5.9,0.8-12,1.2-17.9-0.1
		c-2.9-0.6-5.8-1.7-8.2-3.5C265,265.4,263.2,263,262,260.2L262,260.2L262,260.2z M262.1,260.2c1.2,2.7,3.1,5.2,5.5,6.8
		c2.4,1.7,5.3,2.8,8.2,3.3c5.8,1.2,11.9,0.7,17.7-0.1c5.9-0.9,11.7-2.4,17.3-4.2c5.7-1.8,11.3-3.9,16.7-6.3l-0.2,0.4
		c-2.8-9.9-4.8-19.9-6.5-30c-1.7-10.1-2.8-20.3-3.7-30.4c-1.6-20.4-1.6-40.9,0.3-61.3c0.9-10.2,2.3-20.3,4.2-30.4c0.9-5,2.1-10,3-15
		c0.9-5,1.7-10.1,2.2-15.1c0.5-5.1,0.7-10.2,0.3-15.2c-0.2-2.5-0.6-5-1.3-7.5c-0.7-2.4-1.7-4.8-3.4-6.7c-1.6-1.9-3.9-3.3-6.3-3.7
		c-2.5-0.5-5-0.2-7.5,0.5c-2.5,0.6-4.8,1.6-7.1,2.8c-2.3,1.2-4.4,2.5-6.5,4l-0.2-0.3c2.2-0.7,4.7-0.9,7-0.1c1.1,0.4,2.2,1,3,1.9
		c0.8,0.9,1.4,2,1.7,3.1c0.8,2.3,0.9,4.6,0.7,7c-0.1,2.3-0.5,4.7-1,6.9c-1,4.6-2.4,9-4,13.4c-1.6,4.4-3.4,8.7-5.3,13
		c-8.1,16.8-13.7,34.6-18.2,52.7c-4.5,18.1-8,36.4-10.7,54.8c-1.4,9.2-2.6,18.5-3.6,27.7C263.7,241.6,262.8,250.9,262.1,260.2z"/>
</g>
<g>
	<path class="st1" d="M220.4,362.9c0,0-18.6-98.5-6-162.3c12.6-63.8-11.7-47.6-11.7-47.6s36.5-46.1,39.4,40.8
		c2.9,86.9,42,153.5,42,153.5S236.6,384.6,220.4,362.9z"/>
	<path d="M220.3,362.9c-1.7-9.2-3.2-18.4-4.5-27.6c-1.3-9.2-2.4-18.5-3.3-27.8c-1.8-18.6-3-37.2-2.9-55.9
		c0.1-18.6,1.5-37.4,5.4-55.6c0.8-4.6,1.6-9.2,2.1-13.8c0.5-4.6,0.9-9.3,0.7-13.9c-0.1-2.3-0.3-4.6-0.7-6.9
		c-0.4-2.3-1.1-4.5-2.3-6.5c-0.6-1-1.4-1.8-2.3-2.5c-0.9-0.6-2-1-3.2-1.1c-2.3-0.2-4.6,0.6-6.5,1.8l-0.8,0.5l0.6-0.8
		c1.6-2,3.4-3.8,5.3-5.5c1.9-1.7,4-3.2,6.2-4.5c2.2-1.2,4.7-2.2,7.3-2.3c2.6-0.2,5.3,0.6,7.3,2.2c2.1,1.5,3.7,3.6,5,5.8
		c1.3,2.2,2.3,4.6,3.1,7c1.7,4.9,2.7,9.9,3.5,14.9c0.8,5.1,1.3,10.2,1.6,15.3c0.4,5.1,0.4,10.2,0.8,15.3c0.6,10.2,1.7,20.3,3.2,30.4
		c3.1,20.2,7.9,40,14.4,59.4c3.2,9.7,6.8,19.2,10.8,28.6c4,9.4,8.3,18.7,13.2,27.5l0.2,0.3l-0.3,0.2c-4.8,3.6-9.7,6.9-14.9,10
		c-5.1,3.1-10.4,5.8-16,8.1c-5.5,2.2-11.4,4-17.4,4.2c-3,0.1-6-0.3-8.8-1.4C224.5,367.3,222.1,365.3,220.3,362.9L220.3,362.9
		L220.3,362.9z M220.4,362.8c1.8,2.4,4.2,4.3,7,5.3c2.8,1.1,5.8,1.4,8.7,1.3c5.9-0.3,11.7-2.1,17.2-4.4c5.5-2.3,10.8-5.1,15.8-8.2
		c5.1-3.1,10-6.4,14.7-10.1l-0.1,0.5c-5.1-8.9-9.4-18.2-13.5-27.5c-4-9.4-7.6-19-10.8-28.7c-6.4-19.4-11.3-39.3-14.3-59.6
		c-1.5-10.1-2.6-20.3-3.2-30.5c-0.3-5.1-0.3-10.2-0.7-15.3c-0.3-5.1-0.8-10.2-1.5-15.2c-0.8-5-1.7-10-3.4-14.9
		c-0.8-2.4-1.8-4.8-3.1-7c-1.3-2.2-2.8-4.2-4.9-5.7c-2-1.5-4.5-2.3-7-2.1c-2.5,0.1-4.9,1-7.2,2.2c-2.2,1.2-4.3,2.7-6.2,4.4
		c-1.9,1.7-3.7,3.5-5.3,5.4l-0.2-0.2c2-1.2,4.4-2,6.7-1.8c1.2,0.1,2.3,0.5,3.3,1.2c1,0.7,1.8,1.6,2.4,2.6c1.3,2,1.9,4.3,2.4,6.6
		c0.4,2.3,0.6,4.6,0.7,7c0.2,4.7-0.2,9.3-0.7,14c-0.5,4.6-1.2,9.3-2,13.9c-3.8,18.3-5,36.9-5.1,55.5c-0.1,18.6,0.9,37.3,2.7,55.8
		c0.9,9.3,1.9,18.5,3.2,27.8C217.5,344.4,218.8,353.7,220.4,362.8z"/>
</g>
<g>
	<path class="st4" d="M265.5,378.6c0,0-21.6-97.9-58.2-151.7c-36.7-53.7-7.9-48.4-7.9-48.4s-51.7-28.1-20.2,53
		c31.5,81,21.6,157.7,21.6,157.7S259.1,405,265.5,378.6z"/>
	<g>
		<path class="st8" d="M265.4,378.6c-2.1-9.1-4.5-18.1-7.1-27c-2.5-9-5.2-17.9-8-26.8c-5.7-17.7-12-35.3-19.4-52.4
			c-7.3-17.1-15.8-33.8-26.5-49.1c-2.6-3.9-5-7.9-7.3-11.9c-2.3-4.1-4.4-8.2-6.1-12.6c-0.8-2.2-1.6-4.4-2.1-6.7
			c-0.5-2.3-0.8-4.7-0.4-7c0.2-1.2,0.6-2.3,1.2-3.3c0.6-1,1.6-1.8,2.6-2.4c2.1-1.1,4.6-1.3,6.9-1l-0.1,0.3c-2.3-1.2-4.6-2.1-7-2.9
			c-2.4-0.8-4.9-1.4-7.4-1.6c-2.5-0.2-5.1-0.1-7.5,0.8c-2.4,0.8-4.4,2.5-5.7,4.7c-1.3,2.2-1.9,4.7-2.2,7.2c-0.3,2.5-0.3,5.1-0.1,7.6
			c0.4,5.1,1.5,10.1,2.7,15c1.3,4.9,2.9,9.8,4.6,14.6c1.7,4.8,3.7,9.5,5.4,14.3c3.5,9.6,6.5,19.4,9.1,29.3
			c5.1,19.8,8.5,40,10.2,60.4c0.8,10.2,1.3,20.4,1.3,30.6c0,10.2-0.4,20.4-1.6,30.6l-0.3-0.4c5.7,1.5,11.6,2.6,17.5,3.5
			c5.9,0.8,11.8,1.4,17.8,1.3c5.9-0.1,11.9-0.7,17.5-2.7c2.8-1.1,5.4-2.5,7.5-4.6C263.2,384.2,264.7,381.5,265.4,378.6z
			 M265.5,378.7c-0.7,2.9-2.1,5.7-4.3,7.8c-2.1,2.1-4.8,3.7-7.6,4.8c-5.6,2.2-11.7,2.8-17.6,2.9c-6,0.1-12-0.4-17.9-1.2
			c-5.9-0.8-11.8-1.9-17.6-3.4l-0.3-0.1l0-0.3c1.1-10.1,1.4-20.3,1.4-30.5c-0.1-10.2-0.5-20.4-1.3-30.6c-1.7-20.3-5-40.5-10.1-60.3
			c-2.5-9.9-5.6-19.6-9-29.2c-1.7-4.8-3.6-9.5-5.3-14.4c-1.7-4.8-3.2-9.7-4.5-14.7c-1.3-5-2.3-10-2.7-15.1c-0.2-2.6-0.2-5.1,0.1-7.7
			c0.3-2.5,1-5.1,2.3-7.3c1.3-2.2,3.5-4,5.9-4.9c2.5-0.9,5.1-1,7.7-0.7c2.6,0.3,5.1,0.9,7.5,1.7c2.4,0.8,4.8,1.8,7.1,3l0.9,0.5
			l-1-0.1c-2.2-0.3-4.7-0.1-6.7,0.9c-1,0.5-1.9,1.3-2.5,2.3c-0.6,1-1,2.1-1.2,3.2c-0.4,2.3-0.1,4.6,0.4,6.9c0.5,2.3,1.2,4.5,2.1,6.6
			c1.7,4.3,3.8,8.5,6.1,12.5c2.3,4,4.8,8,7.3,11.9c10.8,15.2,19.3,32,26.8,49.1c7.4,17.1,13.6,34.8,19.2,52.5
			c2.8,8.9,5.4,17.8,7.9,26.8C261.2,360.5,263.5,369.5,265.5,378.7L265.5,378.7L265.5,378.7z"/>
	</g>
</g>
<path class="st3" d="M207.2,227c-36.7-53.7-7.9-48.4-7.9-48.4s-1.4-0.8-3.6-1.7c-4.8,0.7-9.7,3.3-11.2,7c-2,4-3,10,0,15
	c34.8,59.3,71.4,128.4,42.2,194.7c16.5,1.3,35.3-0.6,38.7-14.9C265.5,378.6,243.9,280.7,207.2,227z"/>
<g>
	<path class="st4" d="M258.4,328.8c0,0-23.4-89.8-12.4-136c10.9-46.2-29.2-76.5-29.2-76.5s-10.5-7.7-10.3,3.4s6.2,9.6,9.3,5.8
		c3-3.8-1.6-6-3.1-5.5c0,0,12.8-4.5,3.9,11.1c-8.9,15.6-21.7,0.2-19.3-13.3c2.4-13.6,6-18.7,20.8-14.5c14.8,4.2,57.2,22.5,58.2,71.7
		c1.1,49.2,31.4,119.6,38.9,130.2C315.2,305.2,276.7,354.7,258.4,328.8z"/>
	<g>
		<path class="st8" d="M258.4,328.8c-5.4-21.3-9.7-42.9-12.6-64.8c-1.4-10.9-2.5-21.9-2.9-32.9c-0.4-11-0.2-22.1,1.6-33
			c0.2-1.4,0.5-2.7,0.8-4.1c0.3-1.4,0.6-2.7,0.9-4c0.5-2.7,0.9-5.4,1.1-8.1c0.4-5.4,0.2-10.9-0.7-16.3c-1.8-10.8-6.4-21-12.5-30.1
			c-3.1-4.5-6.6-8.8-10.4-12.7c-1.9-2-3.9-3.8-6-5.6c-1-0.9-2.2-1.6-3.4-2.2c-1.2-0.6-2.5-1.1-3.8-1.1c-0.7,0-1.3,0.1-1.9,0.5
			c-0.5,0.3-0.9,0.9-1.2,1.5c-0.5,1.2-0.6,2.6-0.6,4c0,1.4,0.1,2.7,0.5,4.1c0.3,1.3,0.8,2.6,1.8,3.5c1,0.9,2.5,1,3.7,0.4
			c1.2-0.5,2.3-1.4,3.1-2.5c0.4-0.5,0.7-1.1,0.8-1.8c0.1-0.6-0.1-1.3-0.4-1.8c-0.4-0.5-0.9-0.9-1.5-1.2c-0.6-0.3-1.3-0.4-1.9-0.3
			l-0.1-0.3c1.6-0.5,3.3-0.8,5-0.4c0.8,0.2,1.6,0.8,2,1.7c0.3,0.8,0.3,1.7,0.2,2.6c-0.3,1.7-0.9,3.3-1.6,4.8c-0.7,1.5-1.5,3-2.5,4.4
			c-1,1.4-2.1,2.7-3.5,3.7c-1.4,1-3.2,1.5-4.9,1.3c-1.7-0.2-3.3-1-4.6-2.1c-1.3-1.1-2.3-2.5-3.2-3.9c-1.7-2.9-2.6-6.3-2.8-9.7
			c-0.1-1.7,0.1-3.4,0.4-5.1c0.3-1.7,0.6-3.3,1.1-4.9c0.4-1.6,1-3.2,1.7-4.8c0.8-1.5,1.8-2.9,3.2-4c1.4-1,3.1-1.6,4.8-1.7
			c1.7-0.2,3.4,0,5.1,0.2c3.3,0.5,6.6,1.5,9.8,2.6c3.2,1.1,6.3,2.4,9.3,3.9c6.1,2.9,11.8,6.5,17.1,10.7c5.3,4.2,10,9.1,14,14.5
			c4,5.4,7.2,11.5,9.4,17.8c2.2,6.4,3.5,13.1,4,19.8c0.1,1.7,0.2,3.4,0.2,5c0.1,1.7,0.1,3.3,0.3,5c0.2,3.3,0.6,6.7,1,10
			c1.7,13.3,4.7,26.4,8.3,39.2c1.8,6.4,3.8,12.8,5.9,19.2c2.1,6.4,4.3,12.7,6.7,18.9c2.4,6.3,4.9,12.5,7.6,18.6
			c1.3,3.1,2.7,6.1,4.2,9.1c1.5,3,3,6,4.8,8.7l0.1,0.2l-0.1,0.2c-3.7,4.6-7.7,9-11.9,13.1c-4.2,4.1-8.7,8-13.7,11.3
			c-2.5,1.6-5,3.1-7.8,4.3c-2.7,1.2-5.6,2.1-8.6,2.3c-3,0.3-6-0.2-8.6-1.6C262.2,333.4,260.1,331.2,258.4,328.8L258.4,328.8
			L258.4,328.8z M258.5,328.8c1.7,2.4,3.9,4.5,6.5,5.8c2.6,1.3,5.6,1.8,8.5,1.5c2.9-0.3,5.7-1.2,8.4-2.4c2.7-1.2,5.2-2.7,7.7-4.3
			c4.9-3.3,9.3-7.2,13.5-11.3c4.2-4.1,8.2-8.5,11.8-13.1l0,0.4c-1.9-2.8-3.4-5.8-4.9-8.8c-1.5-3-2.9-6.1-4.3-9.1
			c-2.7-6.1-5.3-12.3-7.7-18.6c-4.8-12.5-9.1-25.3-12.7-38.2c-3.6-12.9-6.6-26.1-8.3-39.4c-0.4-3.3-0.8-6.7-1-10
			c-0.1-1.7-0.2-3.4-0.3-5c0-1.7-0.1-3.3-0.2-5c-0.4-6.6-1.7-13.2-3.9-19.5c-2.2-6.3-5.3-12.2-9.3-17.6s-8.6-10.2-13.8-14.4
			c-5.2-4.2-10.9-7.8-16.9-10.7c-3-1.5-6.1-2.8-9.2-3.9c-3.1-1.1-6.3-2.1-9.6-2.7c-1.6-0.3-3.3-0.4-4.9-0.2
			c-1.6,0.2-3.2,0.7-4.5,1.6c-1.3,0.9-2.3,2.3-3.1,3.7c-0.8,1.5-1.3,3-1.7,4.7c-0.4,1.6-0.8,3.2-1.1,4.9c-0.3,1.6-0.5,3.3-0.4,4.9
			c0.1,3.3,1,6.6,2.7,9.5c0.8,1.4,1.8,2.8,3.1,3.8c1.2,1.1,2.7,1.9,4.4,2.1c1.6,0.2,3.3-0.3,4.6-1.2c1.4-0.9,2.5-2.2,3.4-3.5
			c0.9-1.4,1.7-2.8,2.5-4.3c0.7-1.5,1.4-3.1,1.6-4.7c0.1-0.8,0.1-1.6-0.2-2.4c-0.3-0.7-1-1.3-1.7-1.5c-1.6-0.4-3.3-0.1-4.9,0.4
			l-0.1-0.3c0.8-0.2,1.5,0,2.1,0.3c0.6,0.3,1.2,0.7,1.7,1.3c0.4,0.6,0.6,1.3,0.5,2.1c-0.1,0.7-0.5,1.4-0.9,1.9
			c-0.8,1.1-1.9,2.1-3.2,2.6c-0.7,0.3-1.4,0.4-2.1,0.4c-0.7-0.1-1.4-0.4-2-0.8c-1.1-1-1.6-2.4-1.9-3.7c-0.3-1.4-0.4-2.7-0.5-4.1
			c0-1.4,0-2.8,0.6-4.1c0.3-0.7,0.7-1.3,1.4-1.7c0.6-0.4,1.4-0.5,2.1-0.5c1.4,0,2.8,0.5,4,1.1c1.2,0.6,2.5,1.4,3.5,2.3
			c2.1,1.8,4.1,3.6,6.1,5.6c3.9,3.9,7.4,8.2,10.5,12.7c6.3,9.1,10.9,19.4,12.8,30.3c1,5.4,1.2,11,0.8,16.5c-0.2,2.8-0.6,5.5-1.1,8.2
			c-0.3,1.4-0.6,2.7-0.9,4c-0.3,1.3-0.5,2.7-0.8,4c-1.8,10.8-2.1,21.8-1.7,32.8c0.4,11,1.4,21.9,2.8,32.8
			c1.4,10.9,3.2,21.8,5.2,32.6C253.6,307.3,255.8,318.1,258.5,328.8z"/>
	</g>
</g>
<path class="st3" d="M276.7,182.7c-4.3-3.5-9.2-4.9-15.1-2.7c-0.4,0.2-0.7,0.4-1,0.6c-1.9-15.8-6.4-31.5-16-46.6c-8-11-18-24-33-21
	c-0.4,0-0.9,0.3-1.5,0.8c3-0.1,6.7,2.6,6.7,2.6s40.2,30.3,29.2,76.5c-1.4,5.9-2.2,12.5-2.6,19.6c-2.7,48.1,15,116.4,15,116.4
	c5.2,7.4,12.1,8.7,19.3,6.7c17.9-5,37.5-30.2,37.5-30.2C308,295.2,280.4,231.2,276.7,182.7z"/>
<g>
	<path class="st2" d="M261.9,270.5c0,0,18-100.8,52.1-142c34.2-41.2,5.2-90.3,5.2-90.3s-7.7-12.6-12.8-1.4
		c-5.1,11.2,2.1,12.6,7.2,10.2c5.1-2.4,1.2-6.8-0.7-7c0,0,16.1,1.5-1.2,12.9c-17.2,11.4-23.6-9.8-14.5-22.3
		c9.1-12.5,15.5-16,29.6-4.9c14.1,11.1,51.1,49.1,28.6,98.9s-23.7,134.4-20.6,148.6C334.8,273.3,269.2,305,261.9,270.5z"/>
	<path d="M261.9,270.5c4.5-24.1,10.3-48,17.8-71.4c3.8-11.7,8-23.2,12.9-34.5c5-11.2,10.6-22.2,17.8-32.2c1.8-2.5,3.9-4.8,5.7-7.2
		c1.8-2.4,3.5-5,5-7.6c3-5.3,5.4-11,6.9-16.9c3.1-11.8,3-24.4,0.4-36.3c-1.3-6-3.1-11.9-5.4-17.5c-1.2-2.8-2.4-5.6-3.9-8.3
		c-0.8-1.3-1.7-2.5-2.8-3.6c-1.1-1.1-2.3-2-3.7-2.4c-0.7-0.2-1.5-0.2-2.1,0c-0.7,0.2-1.3,0.6-1.8,1.2c-1,1.1-1.7,2.4-2.3,3.8
		c-0.6,1.4-1.1,2.8-1.3,4.3c-0.2,1.5-0.2,3.1,0.7,4.3c0.9,1.2,2.5,1.7,3.9,1.6c1.5,0,3-0.5,4.3-1.2c0.7-0.4,1.3-0.8,1.7-1.4
		c0.4-0.6,0.5-1.4,0.3-2.1c-0.2-0.7-0.6-1.4-1.1-1.9c-0.5-0.5-1.2-1-1.9-1.1l0-0.3c1.9,0.2,3.8,0.7,5.4,1.7c0.8,0.5,1.5,1.4,1.6,2.4
		c0.1,1-0.3,1.9-0.9,2.7c-1.1,1.6-2.5,2.9-4,4.1c-1.5,1.2-3,2.3-4.7,3.2c-1.6,0.9-3.4,1.7-5.3,2.1c-1.9,0.4-3.9,0.4-5.7-0.3
		c-1.8-0.7-3.3-2.1-4.3-3.7c-1-1.6-1.7-3.5-2-5.3c-0.7-3.8-0.2-7.7,1.1-11.2c0.7-1.8,1.5-3.5,2.7-5c1.1-1.5,2.2-3,3.5-4.5
		c1.2-1.4,2.5-2.8,4-4c1.5-1.2,3.1-2.3,5-2.8c1.8-0.6,3.8-0.6,5.7-0.2c1.9,0.4,3.7,1.1,5.3,2c3.3,1.8,6.3,4.1,9.2,6.6
		c2.9,2.5,5.6,5.1,8.2,7.8c5.2,5.5,9.8,11.5,13.6,18c3.9,6.5,7,13.4,9,20.8c2,7.3,2.9,14.9,2.5,22.5c-0.4,7.6-2,15-4.6,22.1
		c-1.3,3.6-2.9,7-4.4,10.4c-1.4,3.5-2.7,7-3.9,10.5c-4.8,14.2-8,28.9-10.4,43.8c-2.4,14.8-4,29.8-4.9,44.8c-0.5,7.5-0.7,15-0.8,22.5
		c0,3.8,0,7.5,0.2,11.3c0.2,3.7,0.3,7.5,1,11.2l0.1,0.3l-0.2,0.1c-6.3,2.9-12.7,5.4-19.3,7.6c-6.6,2.1-13.3,3.9-20.1,4.9
		c-3.4,0.5-6.9,0.8-10.3,0.7c-3.5-0.1-6.9-0.5-10.2-1.5c-3.3-1.1-6.4-2.9-8.7-5.5C264,277.2,262.6,273.9,261.9,270.5L261.9,270.5
		L261.9,270.5z M262,270.5c0.7,3.3,2.2,6.6,4.5,9.1c2.3,2.6,5.4,4.3,8.7,5.3c3.3,1,6.7,1.4,10.2,1.4c3.4,0,6.9-0.3,10.3-0.8
		c6.8-1,13.5-2.8,20-5c6.5-2.2,13-4.7,19.2-7.6l-0.2,0.4c-0.7-3.7-0.9-7.5-1.1-11.3c-0.2-3.8-0.2-7.5-0.2-11.3
		c0-7.5,0.3-15,0.7-22.6c0.8-15,2.4-30,4.8-44.9c2.4-14.8,5.7-29.6,10.5-43.9c1.2-3.6,2.5-7.1,4-10.6c1.4-3.5,3.1-6.9,4.3-10.4
		c2.6-7,4.2-14.4,4.5-21.9c0.4-7.5-0.5-15-2.4-22.2c-2-7.2-5-14.1-8.8-20.6c-3.8-6.4-8.4-12.4-13.5-17.9c-2.6-2.7-5.2-5.4-8.1-7.8
		c-2.8-2.4-5.8-4.8-9.1-6.5c-1.6-0.9-3.4-1.6-5.2-2c-1.8-0.4-3.7-0.3-5.4,0.2c-1.8,0.5-3.4,1.5-4.8,2.7c-1.4,1.2-2.7,2.5-3.9,4
		c-2.4,2.9-4.8,5.8-6.1,9.3c-1.3,3.5-1.8,7.3-1.1,11c0.3,1.8,0.9,3.6,1.9,5.2c1,1.6,2.4,2.9,4.1,3.5c1.7,0.7,3.6,0.7,5.4,0.3
		c1.8-0.4,3.5-1.2,5.2-2.1c1.6-0.9,3.1-2,4.6-3.2c1.5-1.2,2.9-2.4,3.9-4c0.5-0.8,0.9-1.6,0.8-2.5c-0.1-0.9-0.7-1.7-1.4-2.2
		c-1.5-1-3.4-1.5-5.2-1.7l0-0.3c0.8,0.1,1.5,0.6,2,1.2c0.6,0.6,1,1.2,1.2,2c0.2,0.8,0.1,1.7-0.3,2.3c-0.4,0.7-1.1,1.2-1.8,1.5
		c-1.4,0.7-2.9,1.2-4.5,1.2c-1.5,0.1-3.3-0.4-4.2-1.8c-1-1.3-1-3-0.8-4.6c0.2-1.5,0.7-3,1.3-4.4c0.6-1.4,1.3-2.8,2.4-4
		c0.5-0.6,1.2-1,2-1.3c0.8-0.3,1.6-0.2,2.4,0c1.6,0.4,2.8,1.5,3.9,2.5c1.1,1.1,2.1,2.3,2.9,3.7c1.5,2.7,2.8,5.5,4,8.3
		c2.4,5.7,4.2,11.6,5.5,17.6c2.6,12,2.8,24.7-0.3,36.6c-1.5,6-3.9,11.7-6.9,17.1c-1.5,2.7-3.2,5.3-5.1,7.7c-1.9,2.5-3.9,4.8-5.7,7.2
		c-7.2,9.9-12.9,20.8-17.9,32c-5,11.2-9.2,22.7-13,34.4c-3.8,11.7-7.1,23.5-10.2,35.3C267,246.5,264.3,258.5,262,270.5z"/>
</g>
<path class="st4" d="M343.5,117.9c4-23-2-45-12-64c-1.2-1.8-4.2-3.2-7.2-4.7c6.4,16.8,14,50-10.3,79.3
	c-16.3,19.7-28.9,52.9-37.6,82.3c2-2.3,4-4.5,6.1-6.8C305.5,175.9,338.5,155.9,343.5,117.9z"/>
<g>
	<path class="st4" d="M302.4,297.1c0,0,68.8-17,26.2-99.9c-42.6-82.9-43-101-29-118.5c14-17.5,34.3,23.4,22.1,33.2
		c-12.1,9.8,37.9-15.3,11.5-49.7c-26.5-34.4-133.1-39.4-67.5,88.4c65.6,127.8,45.2,102.8,29.8,148.5L302.4,297.1z"/>
	<g>
		<path class="st8" d="M302.4,297c3.6-1,7.1-2.5,10.5-4.2c3.3-1.7,6.5-3.7,9.5-6c6-4.6,11-10.4,14.4-17.1c3.4-6.7,5.2-14.2,5.4-21.7
			c0.3-7.5-0.8-15-2.7-22.3c-1.9-7.3-4.6-14.3-7.7-21.1c-1.6-3.4-3.3-6.8-5-10.1l-5.1-10.1c-3.4-6.7-6.7-13.5-9.9-20.3
			c-3.2-6.8-6.3-13.7-9.2-20.7c-2.9-7-5.6-14-7.8-21.2c-2.1-7.2-3.9-14.7-3.8-22.3c0.1-3.8,0.7-7.6,2.1-11.1
			c1.4-3.6,3.4-6.8,5.7-9.8c1.1-1.5,2.5-2.9,4.2-3.9c1.7-1,3.7-1.4,5.6-1c1.9,0.3,3.6,1.3,5.2,2.4c1.5,1.2,2.8,2.5,4,4
			c2.3,3,4.1,6.4,5.5,9.9c1.3,3.5,2.2,7.3,2.3,11.1c0,1.9-0.1,3.8-0.7,5.6c-0.6,1.8-1.6,3.5-3.1,4.7c-0.4,0.3-0.7,0.6-1.1,0.9
			c-0.2,0.2-0.3,0.3-0.5,0.5c-0.1,0.1-0.1,0.2-0.2,0.3c-0.1,0.1-0.1,0.2-0.1,0.1c-0.1-0.1,0.1,0,0.1,0c0.1,0,0.2-0.1,0.3-0.1
			c0.2-0.1,0.4-0.2,0.6-0.3c0.4-0.2,0.8-0.4,1.2-0.7c1.6-1,3.1-2.1,4.5-3.3c5.7-4.9,10.4-11,12.7-18.2c1.1-3.6,1.6-7.3,1.2-11.1
			c-0.4-3.7-1.5-7.3-3.2-10.7c-1.7-3.3-3.8-6.5-6.3-9.3c-2.5-2.8-5.4-5.2-8.5-7.3c-6.2-4.2-13.2-7.2-20.4-9.1
			c-7.2-1.9-14.8-2.7-22.2-1.9c-7.4,0.7-14.8,3-20.8,7.5c-3,2.2-5.6,5-7.6,8.1c-2.1,3.1-3.6,6.5-4.6,10.1
			c-2.1,7.2-2.3,14.8-1.5,22.2c0.7,7.5,2.4,14.8,4.6,22c2.2,7.2,4.8,14.2,7.8,21.1c3,6.9,6.3,13.7,9.8,20.3
			c3.4,6.7,6.9,13.4,10.2,20.1c6.7,13.5,13.4,27,19.5,40.7c3.1,6.9,6,13.8,8.6,20.9c1.3,3.5,2.5,7.1,3.4,10.8
			c0.9,3.7,1.7,7.4,1.8,11.2c0.1,3.8-0.4,7.6-1.7,11.2c-1.3,3.6-3.1,6.9-4.8,10.2c-1.8,3.3-3.5,6.7-5,10.1
			c-1.5,3.4-2.9,6.9-4.1,10.5l-0.1-0.1L302.4,297z M302.4,297.1l-6.9,1.9l-0.1,0l0-0.1c1.2-3.6,2.5-7.1,4.1-10.5
			c1.5-3.4,3.2-6.8,5-10.2c1.7-3.3,3.5-6.7,4.8-10.2c1.3-3.5,1.8-7.3,1.7-11c-0.1-3.7-0.9-7.4-1.8-11.1c-1-3.6-2.2-7.2-3.5-10.7
			c-2.6-7.1-5.6-14-8.7-20.8c-6.3-13.7-13-27.2-19.8-40.6l-10.2-20.1c-3.5-6.7-6.8-13.5-9.8-20.4c-3-6.9-5.7-14-7.8-21.2
			c-2.2-7.2-3.8-14.6-4.6-22.2c-0.7-7.5-0.5-15.2,1.6-22.6c1.1-3.7,2.6-7.2,4.7-10.4c2.1-3.2,4.8-6,7.8-8.3
			c6.1-4.6,13.7-6.9,21.2-7.6c7.6-0.7,15.2,0.1,22.5,2.1c7.3,2,14.3,5,20.6,9.3c3.1,2.1,6,4.6,8.6,7.4c2.5,2.8,4.6,6,6.3,9.4
			c1.7,3.4,2.8,7.1,3.2,10.9c0.4,3.8-0.1,7.6-1.2,11.2c-2.3,7.3-7.1,13.5-12.9,18.4c-1.4,1.2-3,2.4-4.6,3.3
			c-0.4,0.2-0.8,0.5-1.3,0.7c-0.2,0.1-0.4,0.2-0.7,0.3c-0.1,0-0.2,0.1-0.4,0.1c-0.1,0-0.3,0.1-0.5-0.1c-0.1-0.3,0-0.4,0.1-0.5
			c0.1-0.1,0.1-0.2,0.2-0.3c0.2-0.2,0.3-0.4,0.5-0.5c0.3-0.3,0.7-0.6,1.1-0.9c1.5-1.2,2.4-2.8,3-4.6c0.6-1.8,0.7-3.7,0.7-5.5
			c-0.1-3.7-1-7.4-2.3-10.9c-1.3-3.5-3.1-6.8-5.5-9.8c-1.2-1.5-2.5-2.8-4-3.9c-1.5-1.1-3.2-2-5-2.3c-1.8-0.3-3.7,0-5.3,1
			c-1.6,0.9-2.9,2.3-4,3.8c-2.3,3-4.3,6.2-5.6,9.7c-1.3,3.5-1.9,7.2-2,11c-0.1,7.5,1.7,14.9,3.8,22.1c2.2,7.2,4.9,14.2,7.8,21.1
			c5.8,13.9,12.5,27.4,19.1,40.9l5.1,10.1c1.7,3.3,3.4,6.7,5,10.2c3.1,6.9,5.8,14,7.6,21.3c1.8,7.3,2.9,14.9,2.6,22.4
			c-0.3,7.5-2.1,15.1-5.6,21.8c-3.5,6.7-8.6,12.5-14.6,17.1c-3,2.3-6.2,4.3-9.6,6C309.6,294.7,306.1,296.1,302.4,297.1z"/>
	</g>
</g>
<path class="st3" d="M328.6,197.2c-42.6-82.9-43-101-29-118.5c14-17.5,34.3,23.4,22.1,33.2c-8.9,7.2,15.7-4.4,19-24.7
	c-0.8-7.9-4.3-15.3-11.2-20.2c-12-9-27-15-40-8c-16,8-22,30-16,47c14,40,41,72,54,112c8.4,23.6,6.1,48.1-4.6,68.6
	C339,273.9,354.7,247.9,328.6,197.2z"/>
<g>
	<path class="st4" d="M323.7,283c0,0-28.1-50.6-24.1-97.1c4-46.5-33.5-59-53.4-56.9c-20,2.2-53.4,15.4-37.6,72.2
		c15.8,56.8,73.9,28.6,56.6-6.2c0,0-8.4,4.6-3.7-5.3c4.7-9.9,14.3,15,9.9,36.4c-4.4,21.4,27.3,64.8,36.4,67.9
		C317,297.1,323.7,283,323.7,283z"/>
	<g>
		<path class="st8" d="M323.7,283c-7.7-14.4-13.8-29.6-18.3-45.3c-4.4-15.7-7.2-32.1-6.4-48.5c0.1-2,0.3-4.1,0.4-6.1
			c0.1-2,0.1-4.1,0.1-6.1c-0.1-4.1-0.6-8.1-1.5-12c-1.8-7.9-5.7-15.3-11.3-21.1c-5.6-5.8-12.9-10-20.6-12.4
			c-7.7-2.4-16.1-3.1-24.1-1.6c-8,1.4-15.8,4.4-22.2,9.4c-3.2,2.5-6,5.6-8.1,9c-2.2,3.4-3.8,7.2-4.9,11.1
			c-2.2,7.9-2.3,16.1-1.3,24.2c0.5,4,1.2,8,2.2,12c0.9,4,2,7.9,3.5,11.7c1.4,3.8,3.2,7.5,5.4,10.9c2.2,3.4,4.9,6.5,8.1,9
			c3.2,2.5,6.8,4.4,10.7,5.3c3.9,1,8,1,11.9,0.2c7.8-1.7,14.9-7,18.4-14.2c1.8-3.6,2.6-7.6,2.4-11.6c-0.2-4-1.3-7.9-3.1-11.5
			l0.7,0.2c-0.8,0.4-1.5,0.7-2.4,0.9c-0.4,0.1-0.9,0.2-1.3,0.2c-0.5,0-1-0.1-1.4-0.5c-0.4-0.4-0.6-0.9-0.7-1.4c0-0.5,0-0.9,0.1-1.4
			c0.2-0.9,0.4-1.7,0.8-2.4c0.3-0.8,0.6-1.5,1.1-2.3c0.5-0.7,1.2-1.5,2.3-1.6c1.1-0.1,1.9,0.6,2.5,1.2c0.6,0.6,1.1,1.3,1.5,2.1
			c1.7,2.9,2.7,6.1,3.4,9.3c0.8,3.2,1.3,6.5,1.5,9.8c0.3,3.3,0.3,6.6,0,9.9c-0.1,1.6-0.3,3.3-0.6,4.9c-0.1,0.8-0.3,1.6-0.5,2.4
			c-0.2,0.8-0.3,1.6-0.3,2.4c-0.2,3.2,0.2,6.4,0.9,9.6c0.7,3.2,1.7,6.3,2.9,9.3c2.3,6.1,5.3,11.9,8.6,17.5c3.3,5.6,7,11,11,16.1
			c2,2.6,4.1,5,6.4,7.4c1.1,1.2,2.3,2.3,3.6,3.3c1.3,1,2.6,1.9,4.3,2.1c1.6,0.3,3.2,0,4.7-0.6c1.5-0.6,2.8-1.6,4-2.7
			C320.3,288.6,322.2,285.9,323.7,283z M323.8,283c-1.5,2.9-3.3,5.7-5.7,8c-1.2,1.1-2.5,2.1-4,2.8c-1.5,0.7-3.2,1-4.9,0.7
			c-0.8-0.1-1.6-0.4-2.4-0.8c-0.7-0.4-1.4-0.9-2.1-1.4c-1.3-1-2.5-2.1-3.7-3.3c-2.3-2.3-4.5-4.8-6.5-7.4
			c-4.1-5.1-7.8-10.5-11.2-16.1c-3.4-5.6-6.4-11.4-8.8-17.6c-1.2-3.1-2.2-6.2-3-9.4c-0.7-3.2-1.2-6.5-1-9.9c0.1-0.8,0.2-1.7,0.3-2.5
			c0.2-0.8,0.3-1.6,0.4-2.4c0.3-1.6,0.4-3.2,0.5-4.8c0.2-3.2,0.2-6.5,0-9.7c-0.3-3.2-0.7-6.5-1.5-9.6c-0.8-3.1-1.7-6.3-3.3-9
			c-0.4-0.7-0.9-1.3-1.4-1.9c-0.5-0.5-1.2-1-1.8-0.9c-0.6,0-1.1,0.6-1.5,1.2c-0.4,0.6-0.7,1.4-1,2.1c-0.3,0.7-0.6,1.5-0.7,2.2
			c-0.1,0.7-0.1,1.5,0.3,1.9c0.4,0.3,1.2,0.3,1.9,0.1c0.7-0.2,1.5-0.5,2.2-0.8l0.4-0.2l0.2,0.4c1.8,3.7,3,7.8,3.2,11.9
			c0.2,4.2-0.7,8.4-2.5,12.1c-3.6,7.5-11,13-19.1,14.7c-4.1,0.9-8.3,0.8-12.3-0.2c-4-1-7.8-3-11-5.5c-3.2-2.6-6-5.8-8.2-9.2
			c-2.2-3.5-4-7.2-5.4-11c-1.4-3.8-2.5-7.8-3.4-11.8c-0.9-4-1.6-8-2.1-12.1c-0.9-8.1-0.8-16.5,1.4-24.4c1.1-3.9,2.8-7.7,5-11.2
			c2.2-3.4,5-6.5,8.3-9c6.4-5.1,14.3-8.2,22.3-9.6c8.1-1.6,16.5-0.9,24.3,1.5c7.8,2.4,15.2,6.6,21,12.5c5.8,5.9,9.7,13.4,11.6,21.4
			c1,4,1.5,8.1,1.6,12.2c0.1,2.1,0,4.1-0.1,6.2c-0.1,2.1-0.3,4.1-0.4,6.1c-0.9,16.3,1.8,32.6,6.1,48.3c2.2,7.9,4.8,15.6,7.8,23.2
			C316.7,268.3,320,275.8,323.8,283L323.8,283L323.8,283z"/>
	</g>
</g>
<path class="st3" d="M314.1,280.9c-29.6-19.1-36.7-54.9-39.1-88.4c-0.8-15.8-16.7-28.5-27.1-14.5c-7.9,10.8-2.8,22.5,6.7,25
	c4.5,0.9,9.3-2.2,10-7.7c-1.8,0.8-7.1,2.7-3.1-5.6c4.7-9.9,14.3,15,9.9,36.4c-4.4,21.4,27.3,64.8,36.4,67.9
	c7.1,2.4,12.7-5.5,14.9-9.2C319.8,283.8,316.9,282.5,314.1,280.9z"/>
</svg>
