<?xml version="1.0" encoding="utf-8"?>
<!-- Generator: Adobe Illustrator 15.1.0, SVG Export Plug-In . SVG Version: 6.00 Build 0)  -->
<!DOCTYPE svg PUBLIC "-//W3C//DTD SVG 1.1//EN" "http://www.w3.org/Graphics/SVG/1.1/DTD/svg11.dtd">
<svg version="1.1" id="animals" xmlns="http://www.w3.org/2000/svg" xmlns:xlink="http://www.w3.org/1999/xlink" x="0px" y="0px"
	 width="99px" height="141px" viewBox="0 0 99 141" style="enable-background:new 0 0 99 141;" xml:space="preserve">
<style type="text/css">
<![CDATA[
	.st0{opacity:0.4;fill:#703D18;}
	.st1{opacity:0.19;}
	.st2{opacity:0.43;}
	.st3{fill:#BA7032;}
	.st4{fill:#5E1B06;}
	.st5{fill:#F9D3AA;}
	.st6{opacity:0.25;fill:#050404;}
	.st7{fill:#FFE3CC;}
	.st8{fill:#FFFFFF;}
	.st9{opacity:0.47;fill:#FF9797;}
	.st10{fill:#703D18;}
]]>
</style>
<g>
	<ellipse class="st2" cx="54.2" cy="135.4" rx="28" ry="4.4"/>
	<g>
		<ellipse class="st3" cx="34.9" cy="15.4" rx="8.8" ry="6.9"/>
		<g>
			<path d="M43.8,15.4c0,2.1-1.1,4.1-2.8,5.4c-1.7,1.3-3.9,1.9-6,1.9c-2.1-0.1-4.2-0.8-5.9-2c-1.7-1.2-3.1-3.1-3.2-5.3
				c0-1.1,0.2-2.2,0.8-3.1c0.5-1,1.3-1.8,2.2-2.4c1.8-1.3,4-1.9,6.1-1.9c2.1,0,4.3,0.6,6,2C42.6,11.3,43.8,13.3,43.8,15.4z
				 M43.7,15.4c0-1-0.3-2-0.9-2.9c-0.6-0.8-1.3-1.5-2.2-2c-1.7-1-3.7-1.5-5.7-1.5c-2,0-3.9,0.5-5.6,1.6c-1.6,1.1-2.9,2.8-3,4.8
				c-0.1,2,1.1,3.9,2.8,5c1.7,1.1,3.8,1.5,5.8,1.4c2-0.1,3.9-0.6,5.7-1.6c0.9-0.5,1.6-1.2,2.2-2C43.3,17.4,43.7,16.4,43.7,15.4z"/>
		</g>
	</g>
	<path class="st0" d="M36.3,8.6c-2.5,3.8-6.2,6-10,8.4c0.9,3,4.4,5.2,8.6,5.2c4.9,0,8.8-3.1,8.8-6.9C43.7,12,40.5,9.1,36.3,8.6z"/>
	<g>
		<path class="st3" d="M51.2,40.1c-11.3-3.1-25.6-0.2-33.3-8.6c-1.9,4.8,3.8,9.4,5.3,14.4c4.8,16.8,2.2,20.5,22.6,27.9
			c1.3-8.7,8.1-17,8.6-26.2C55.4,45.5,53.3,40.1,51.2,40.1z"/>
		<g>
			<path d="M51.1,40.2c-2.8-0.7-5.8-1-8.7-1.2c-2.9-0.3-5.8-0.4-8.8-0.7c-2.9-0.3-5.9-0.8-8.7-1.7c-2.8-1-5.5-2.5-7.5-4.8l0.7-0.1
				c-0.4,1-0.5,2.1-0.3,3.1c0.2,1.1,0.7,2.1,1.2,3.1c1,2,2.4,3.9,3.4,5.9c0.5,1,0.8,2.2,1.1,3.3l0.9,3.3c0.6,2.2,1.1,4.4,1.8,6.6
				c0.6,2.2,1.4,4.3,2.6,6.2c1.2,1.9,2.9,3.4,4.7,4.6c3.8,2.4,8.1,4,12.3,5.6l-0.7,0.4c0.4-2.3,1.1-4.6,2-6.8
				c0.8-2.2,1.9-4.3,2.8-6.4c1-2.1,1.9-4.2,2.6-6.4c0.8-2.2,1.3-4.4,1.5-6.7l0-0.1l0,0c0.3-0.6,0.3-1.3,0.3-2
				c-0.1-0.7-0.2-1.4-0.5-2.1c-0.2-0.7-0.6-1.4-1-1.9C52.5,40.8,51.9,40.2,51.1,40.2L51.1,40.2L51.1,40.2z M51.2,40.1
				c0.8,0,1.4,0.6,1.9,1.2c0.5,0.6,0.8,1.3,1.1,2c0.3,0.7,0.5,1.4,0.6,2.2c0.1,0.8,0.1,1.6-0.2,2.3l0-0.1c-0.1,2.3-0.6,4.7-1.3,6.9
				c-0.7,2.2-1.6,4.4-2.5,6.5c-0.9,2.1-1.9,4.2-2.7,6.4c-0.8,2.1-1.5,4.3-1.9,6.5l-0.1,0.6l-0.6-0.2c-2.1-0.8-4.3-1.6-6.4-2.5
				c-2.1-0.9-4.2-2-6.1-3.3c-1.9-1.3-3.7-2.9-4.9-4.9c-1.2-2-1.9-4.2-2.5-6.4c-0.6-2.2-1-4.4-1.6-6.6c-0.3-1.1-0.6-2.2-0.9-3.3
				C23,46.1,22.7,45,22.1,44c-1-2-2.4-3.8-3.5-5.8c-0.6-1-1.1-2.1-1.4-3.2c-0.3-1.2-0.3-2.4,0.2-3.6l0.2-0.6l0.4,0.5
				c2,2.1,4.5,3.5,7.2,4.5c2.7,1,5.6,1.4,8.5,1.8l8.7,0.9C45.4,38.7,48.4,39.2,51.2,40.1z"/>
		</g>
	</g>
	<path class="st10" d="M52.2,40.1c-11.3-3.1-25.6-0.2-33.3-8.6c-1.9,4.8,3.8,9.4,5.3,14.4c4.8,16.8,2.2,20.5,22.6,27.9
		c1.3-8.7,8.1-17,8.6-26.2C56.5,45.5,54.4,40.1,52.2,40.1z"/>
	<g>
		<path class="st3" d="M39.3,111.8c0,0-5.3,45.8,10.6,7"/>
		<path d="M39.3,111.8c0,3.5-0.2,7-0.4,10.5c-0.1,1.7-0.3,3.5-0.3,5.2c0,1.7,0.2,3.5,0.8,5.1c0.3,0.8,0.8,1.6,1.3,1.4
			c0.6-0.2,1.2-0.9,1.7-1.5c1-1.4,1.8-2.9,2.6-4.4c1.6-3.1,3.1-6.2,4.7-9.3l0.1,0c-1,3.4-2.3,6.6-3.9,9.8c-0.8,1.6-1.7,3.1-2.8,4.5
			c-0.3,0.3-0.6,0.7-1,1c-0.4,0.3-0.8,0.6-1.4,0.7c-0.3,0.1-0.6,0-0.9-0.1c-0.3-0.1-0.4-0.4-0.6-0.6c-0.3-0.4-0.4-0.9-0.5-1.3
			c-0.4-1.8-0.5-3.5-0.6-5.3c-0.1-1.8-0.2-3.5-0.2-5.3C38.1,118.8,38.5,115.3,39.3,111.8L39.3,111.8z"/>
	</g>
	<g>
		<path class="st3" d="M49.8,118.8l-10.6-7c0,0-0.1,0.5-0.1,1.3c4.2,0.9,7.4,3.6,10.5,6C49.7,119,49.8,118.9,49.8,118.8z"/>
		<path d="M49.7,118.8c-1-0.4-1.9-0.9-2.8-1.4c-0.9-0.5-1.8-1.1-2.7-1.7c-0.9-0.6-1.7-1.3-2.5-1.9c-0.8-0.6-1.7-1.2-2.7-1.7l0.4-0.2
			l0,1.3l-0.3-0.4c1,0.1,2.1,0.4,3,0.8c1,0.4,1.9,0.9,2.8,1.4c1.7,1.1,3.3,2.5,4.7,4l-0.2,0L49.7,118.8z M49.9,118.8l-0.1,0.4l0,0.1
			l-0.1-0.1c-1.8-1.1-3.4-2.2-5.2-3.3c-0.9-0.5-1.7-1-2.6-1.4c-0.9-0.4-1.8-0.8-2.8-1.1l-0.3-0.1l0-0.3l0.2-1.3l0.1-0.4l0.3,0.2
			c0.8,0.7,1.7,1.2,2.6,1.8c0.9,0.5,1.9,1,2.8,1.5c0.9,0.5,1.8,1.2,2.6,1.8C48.2,117.4,49.1,118,49.9,118.8L49.9,118.8z"/>
	</g>
	<path class="st0" d="M39.1,113.1c-0.1,0.6-0.1,1.3-0.2,2.2c4.8,5.4,5.5,12.8,0.6,18.4c1.4,2.2,4.3-0.4,10.2-14.6
		C46.6,116.7,43.3,114,39.1,113.1z"/>
	<g>
		<path class="st5" d="M85.8,47.6c0,13.5,0,25.6-33.5,24.5C21.9,71,19.2,62.1,26.1,47.6c5.8-12.4,7.7-24.5,26.2-24.5
			C70.8,23.1,85.8,34.1,85.8,47.6z"/>
		<g>
			<path d="M85.9,47.6c0,3.8,0.1,7.6-0.8,11.3c-0.4,1.9-1.1,3.7-2.2,5.3c-1.1,1.6-2.5,2.9-4.1,4c-3.3,2.1-7.1,3.1-10.8,3.7
				c-3.8,0.6-7.6,0.7-11.4,0.7c-3.8,0-7.6-0.3-11.4-0.7c-3.8-0.4-7.5-1-11.2-2c-1.8-0.5-3.6-1.2-5.3-2.1c-1.7-0.9-3.2-2.1-4.3-3.7
				c-1.1-1.6-1.6-3.5-1.6-5.5c0-1.9,0.4-3.8,0.9-5.7c0.6-1.8,1.3-3.6,2.1-5.3c0.8-1.7,1.5-3.5,2.2-5.2c1.5-3.5,2.8-7,4.9-10.3
				c1-1.6,2.2-3.1,3.7-4.5c1.4-1.3,3.1-2.4,4.9-3.2c3.6-1.6,7.5-2,11.3-1.9c7.6,0.1,15.3,2,21.7,6.3c3.2,2.1,6,4.8,8.1,8
				C84.7,40,85.9,43.8,85.9,47.6z M85.8,47.6c0-3.8-1.3-7.5-3.4-10.6c-2.1-3.1-5-5.6-8.2-7.6c-6.4-3.9-13.9-5.7-21.4-5.8
				c-3.7,0-7.5,0.4-10.9,1.9c-3.4,1.4-6.2,4-8.2,7.2c-2,3.1-3.5,6.6-5,10.1c-0.8,1.7-1.5,3.5-2.4,5.2c-0.8,1.7-1.6,3.4-2.1,5.2
				c-0.6,1.8-1,3.6-1,5.5c0,1.9,0.4,3.7,1.5,5.3c1,1.6,2.5,2.7,4.2,3.6c1.6,0.9,3.4,1.5,5.2,2c3.6,1,7.4,1.5,11.1,1.8
				c3.8,0.3,7.5,0.4,11.3,0.4c3.8,0,7.5-0.2,11.2-0.8c3.7-0.5,7.4-1.5,10.6-3.4c1.6-1,3-2.2,4.1-3.7c1.1-1.5,1.9-3.2,2.3-5.1
				C85.8,55.2,85.7,51.3,85.8,47.6z"/>
		</g>
	</g>
	<path class="st1" d="M52.4,25.2c-18.1,0-20.8,11-26.2,22.8c2.8,1.3,5.9,1.8,9.1,2.1c0.6-0.8,1.9-1.7,1.9-2.5c0,1.2,0,2,0.2,2.7
		c4.2,0.3,8.5,0.6,12.6,2.2c0-1,0-2.1,0-2.8c0,1.3,0.4,2.2,1,3.2c1.2,0.6,2.3,1.2,3.5,2.1c9.2,6.5,22.3,4.3,32.3-1.8
		c0-1.2,0-2.4,0-3.6C86.9,36.2,71.5,25.2,52.4,25.2z"/>
	<g>
		<path class="st3" d="M61.6,76c0,0,32.3,43.2-8.3,10.2"/>
		<path d="M61.6,75.9c2.7,3.1,5.2,6.5,7.4,10.1c1,1.8,2,3.7,2.9,5.5c0.5,0.9,0.9,1.9,1.3,2.8c0.4,1,0.8,1.9,0.8,3.1
			c0,0.3-0.1,0.6-0.3,0.9c-0.2,0.3-0.5,0.4-0.8,0.5c-0.6,0.1-1.2,0-1.7-0.1c-1.1-0.3-2-0.7-3-1.2c-1.9-1-3.6-2.1-5.3-3.3
			c-3.4-2.5-6.6-5.1-9.6-8l0.1-0.1c3.4,2.4,6.8,4.8,10.2,7.2c1.7,1.2,3.4,2.4,5.2,3.4c0.9,0.5,1.8,1,2.7,1.3
			c0.5,0.2,0.9,0.3,1.4,0.2c0.4,0,0.7-0.3,0.7-0.8c0.1-0.9-0.2-2-0.6-2.9c-0.4-1-0.8-1.9-1.3-2.8c-1-1.8-2.2-3.5-3.3-5.2
			C66,83,63.7,79.5,61.6,75.9L61.6,75.9z"/>
	</g>
	<path class="st0" d="M61.6,76c0,0,32.3,43.2-8.3,10.2"/>
	<g>
		<path class="st4" d="M51.4,23.1c-18.1,0-20.8,11-26.2,22.8c2.8,1.3,5.9,1.8,9.1,2.1c0.6-0.8,1.9-1.7,1.9-2.5c0,1.2,0,2,0.2,2.7
			c4.2,0.3,8.5,0.6,12.6,2.2c0-1,0-2.1,0-2.8c0,1.3,0.4,2.2,1,3.2c1.2,0.6,2.3,1.2,3.5,2.1c9.2,6.5,22.3,4.3,32.3-1.8
			c0-1.2,0-2.4,0-3.6C85.8,34.1,70.4,23.1,51.4,23.1z"/>
		<g>
			<path d="M51.4,23.1c-3.1,0-6.3,0.4-9.3,1.4c-3,1-5.7,2.7-7.7,5.1c-2.1,2.3-3.6,5.1-4.9,7.9c-1.3,2.8-2.5,5.7-3.9,8.6l-0.2-0.6
				c2.8,1.3,5.9,1.9,8.9,2.2L34,47.8c0.3-0.5,0.8-0.8,1.1-1.2c0.4-0.4,0.7-0.8,0.7-1.1h0.6c0,0.9,0,1.8,0.1,2.7l-0.2-0.2
				c2.1,0.2,4.3,0.4,6.4,0.7c2.1,0.3,4.2,0.9,6.3,1.7l-0.2,0.1l0-2.8h0.3c0,0.6,0.1,1.1,0.3,1.6c0.2,0.5,0.4,1,0.7,1.5l-0.1-0.1
				c0.7,0.3,1.4,0.7,2.1,1.1c0.7,0.4,1.3,0.9,2,1.3c1.3,0.8,2.8,1.5,4.2,2.1c3,1.1,6.2,1.4,9.3,1.3c3.1-0.2,6.3-0.8,9.2-1.8
				c3-1,5.9-2.4,8.5-4l-0.3,0.4l0-3.1c0-1,0-2-0.2-3c-0.3-2-1-4-1.9-5.8c-1.9-3.6-4.9-6.6-8.2-9c-3.4-2.4-7.2-4.1-11.2-5.3
				C59.7,23.7,55.5,23.2,51.4,23.1z M51.4,23c4.2,0,8.4,0.5,12.5,1.5c4.1,1,8,2.6,11.6,5c3.5,2.3,6.7,5.4,8.7,9.2c1,1.9,1.7,4,2,6.1
				c0.2,1.1,0.2,2.2,0.2,3.2c0,1,0,2.1,0,3.1l0,0.3l-0.2,0.1c-2.8,1.7-5.7,3-8.8,4c-3.1,1-6.3,1.6-9.5,1.7c-3.2,0.1-6.5-0.4-9.5-1.5
				c-1.5-0.6-3-1.3-4.3-2.2c-1.3-1-2.6-1.9-4-2.5l-0.1,0l0-0.1c-0.3-0.5-0.5-1-0.7-1.6c-0.2-0.6-0.3-1.2-0.3-1.7h0.3l0,2.8l0,0.2
				L49,50.6c-2-0.8-4.1-1.3-6.2-1.6c-2.1-0.3-4.3-0.4-6.4-0.6l-0.2,0l0-0.2c-0.2-0.9-0.2-1.9-0.2-2.8h0.6c0,0.4-0.2,0.7-0.3,0.9
				c-0.2,0.2-0.4,0.5-0.5,0.7c-0.4,0.4-0.8,0.8-1,1.2l-0.1,0.2l-0.2,0c-3.1-0.2-6.3-0.7-9.3-2.1l-0.4-0.2l0.2-0.4
				c1.3-2.9,2.5-5.8,3.9-8.6c1.4-2.8,3-5.6,5.2-7.9c2.2-2.3,5-4,8.1-4.9C45,23.3,48.2,23,51.4,23z"/>
		</g>
	</g>
	<path class="st1" d="M50.2,23.1c-15.7,0-20.9,8.5-25.3,18.7c8.4,3.1,21.1,1.8,23.1,4.7C54.6,56.9,48.5,67.8,38,71
		c3.4,0.5,7.5,0.9,12.2,1c33.5,1.2,33.5-11,33.5-24.5S68.7,23.1,50.2,23.1z"/>
	<g>
		<path class="st3" d="M57,7.8c-19,0-34.3,10.7-39.2,23.5c7.7,8.4,21.1,7.6,32.5,10.7c2.1,0,1.7,11,1.4,11.6
			C51.2,62,47.6,64.8,46,72.2l0,0c0,0-3.9,13.8-6,15.7s-11.2,17.3,6,32.2c0,0,23.3,37.9,18.4-1.7c0,0,0.5-0.4,1.3-1
			c-1.9,1-2.9,2.1-3.9,4.1c1-2,2-3.1,3.9-4.1c3.7-3.2,13.3-13.4,1.3-27c0,0-4.2-9.2,1.7-17.6c-3.4,1-6.1,2.1-7.9,4.9
			c1.8-2.8,4.5-3.9,7.9-4.9c0.1-0.1,0.2-0.3,0.3-0.4c13.8-3.4,19.1-12.3,23.4-29.5C95.2,31,79.9,7.8,57,7.8z"/>
		<path d="M57,7.8c-4,0-8.1,0.5-12,1.5c-3.9,1-7.7,2.5-11.2,4.5c-3.5,2-6.7,4.5-9.4,7.4c-2.7,2.9-5,6.3-6.4,10.1L18,31
			c1.9,2.1,4.4,3.7,7,4.8c2.6,1.1,5.4,1.9,8.2,2.4c5.6,1.2,11.5,1.6,17.1,3.2l-0.1,0c0.5,0,0.8,0.3,1,0.6c0.2,0.3,0.3,0.5,0.4,0.8
			c0.2,0.5,0.3,1,0.4,1.5c0.2,1,0.2,2,0.3,3.1c0,1,0,2,0,3.1c0,0.5,0,1-0.1,1.5l-0.1,0.8c0,0.3,0,0.5-0.1,0.8l0-0.1
			c-0.1,1.7-0.3,3.3-0.7,4.9c-0.4,1.6-1,3.2-1.6,4.7c-0.7,1.5-1.4,3-2,4.5c-0.6,1.5-1.1,3.1-1.4,4.6l-0.1,0.3l-0.3,0l0,0l0.4-0.2
			c-1.3,4.3-2.6,8.5-4.3,12.6c-0.5,1-0.9,2.1-1.6,3c-0.8,0.8-1.4,1.7-1.9,2.7c-1,1.9-1.8,4-2.2,6.2c-0.8,4.3-0.2,8.9,1.7,12.9
			c1.9,4,4.8,7.4,8.2,10.3l0,0l0,0c1.9,3,3.9,5.9,6.2,8.7c1.1,1.4,2.3,2.7,3.5,4c1.3,1.2,2.6,2.4,4.2,3.1c0.8,0.3,1.7,0.5,2.4,0.2
			c0.7-0.3,1.2-1.1,1.5-1.9c0.6-1.6,0.8-3.4,0.8-5.2c0.1-3.5-0.2-7.1-0.7-10.6l0-0.2l0.2-0.1c0.4-0.3,0.9-0.7,1.3-1l0.4,0.6
			c-0.8,0.4-1.6,1-2.2,1.6c-0.6,0.7-1.1,1.5-1.5,2.3l-0.7-0.3c0.4-0.9,0.9-1.7,1.6-2.5c0.7-0.7,1.5-1.3,2.4-1.8l-0.1,0
			c1.9-1.6,3.6-3.6,4.8-5.8c1.2-2.2,2-4.6,2.1-7.1c0.1-2.5-0.5-5-1.6-7.2c-1.1-2.3-2.5-4.4-4.2-6.3l-0.1-0.1l0-0.1
			c-0.6-1.5-1-3-1.3-4.6c-0.2-1.6-0.3-3.1-0.2-4.7c0.2-3.2,1.3-6.3,3.2-8.8l0.6,0.8c-1.5,0.4-3,0.9-4.3,1.7c-1.3,0.7-2.5,1.8-3.3,3
			l-0.9-0.6c0.9-1.4,2.2-2.5,3.6-3.3c1.4-0.8,3-1.3,4.5-1.8l-0.3,0.2l0.3-0.4l0.1-0.1l0.2,0c3.8-0.9,7.5-2.4,10.6-4.8
			c3.1-2.4,5.5-5.6,7.3-9.1c1.8-3.5,3.1-7.3,4.2-11.1c0.3-1,0.5-1.9,0.8-2.9c0.3-1,0.5-1.9,0.6-2.9c0.2-1.9,0-3.9-0.4-5.8
			c-0.9-3.8-2.7-7.4-4.9-10.7c-2.2-3.3-4.9-6.2-8-8.7C72.8,10.9,65,7.8,57,7.8z M57,7.7c4,0,8,0.7,11.7,2.1
			c3.7,1.4,7.2,3.4,10.4,5.9c3.1,2.5,5.9,5.4,8.2,8.7c2.3,3.3,4.1,6.9,5.1,10.8c0.5,2,0.7,4,0.5,6c-0.1,1-0.4,2-0.6,3
			c-0.2,1-0.5,1.9-0.8,2.9c-1.1,3.8-2.3,7.7-4.1,11.3c-1.8,3.6-4.2,7-7.5,9.5c-3.2,2.5-7,4.1-10.9,5l0.3-0.2l-0.3,0.4L69,73.1
			l-0.2,0c-1.5,0.4-3,0.9-4.3,1.7c-1.3,0.7-2.5,1.8-3.3,3l-0.9-0.6c0.9-1.4,2.2-2.6,3.6-3.3c1.4-0.8,3-1.3,4.5-1.8l1.4-0.4l-0.9,1.2
			c-1.7,2.4-2.8,5.3-3,8.3c-0.1,1.5-0.1,3,0.2,4.5c0.2,1.5,0.6,3,1.2,4.3l-0.1-0.1c1.7,2,3.2,4.1,4.3,6.5c1.1,2.4,1.7,5,1.6,7.7
			c-0.1,2.7-0.9,5.2-2.2,7.5c-1.3,2.3-3.1,4.3-5.1,6l0,0l0,0c-0.8,0.4-1.6,0.9-2.2,1.6c-0.6,0.7-1.1,1.4-1.5,2.3l-0.7-0.3
			c0.4-0.9,1-1.7,1.7-2.5c0.7-0.7,1.5-1.3,2.4-1.8l3-1.6l-2.6,2.2c-0.4,0.4-0.9,0.7-1.4,1l0.2-0.3c0.4,3.5,0.7,7.1,0.6,10.7
			c-0.1,1.8-0.2,3.6-0.9,5.3c-0.3,0.8-0.9,1.7-1.8,2.1c-0.9,0.4-2,0.2-2.8-0.2c-1.7-0.8-3-2-4.3-3.3c-1.3-1.3-2.4-2.6-3.5-4
			c-2.2-2.8-4.2-5.7-6.1-8.8l0,0c-3.4-2.9-6.3-6.4-8.2-10.5c-1.9-4-2.6-8.7-1.8-13.1c0.4-2.2,1.1-4.4,2.2-6.3c0.5-1,1.1-2,1.9-2.8
			c0.6-0.8,1.1-1.9,1.5-2.9c1.7-4.1,2.9-8.3,4.2-12.6l0.1-0.3l0.3,0l0,0l-0.4,0.3c0.3-1.6,0.8-3.2,1.4-4.8c0.6-1.5,1.3-3,1.9-4.5
			c0.6-1.5,1.2-3,1.6-4.6c0.4-1.6,0.6-3.2,0.7-4.8v0l0-0.1c0-0.1,0.1-0.4,0.1-0.6l0-0.7l0-1.5c0-1,0-2,0-3c0-1-0.1-2-0.3-3
			c-0.1-0.5-0.2-1-0.3-1.4c-0.1-0.4-0.4-0.8-0.6-0.8l0,0l-0.1,0c-5.6-1.5-11.3-2.1-17-3.3c-2.8-0.6-5.7-1.4-8.4-2.6
			c-2.7-1.2-5.2-2.9-7.2-5.1l-0.1-0.1l0.1-0.2c1.5-3.8,3.8-7.2,6.6-10.2c2.8-2.9,6.1-5.4,9.6-7.4c3.5-2,7.3-3.5,11.3-4.4
			C48.9,8.2,53,7.7,57,7.7z"/>
	</g>
	<path class="st0" d="M57,7.8c-1.6,0-3.1,0.1-4.6,0.2c8.4,1.6,16.1,5.4,19,12.9c1.1,1.1-7.5,1.1-4.3,3.2c6.4,5.3,8.5,18.2,17.1,6.4
		c5,20-13.3,28.7-21.9,42.9c-3.7,0.2-7.5-0.1-11.3-0.1c3.2,1.1,6.4,2.1,9.8,2.9c0,0.1-0.1,0.2-0.1,0.3c-3.2,6.4,2.1,15,2.1,21.4
		c0,12.8-5.4,24.9-4.4,37.4c4.5,3.1,8.1,1,5.9-16.9c0,0,0.5-0.4,1.3-1c3.7-3.2,13.3-13.4,1.3-27c0,0-3.2-6.9-0.2-14.3
		c0.1-0.2,0.2-0.4,0.2-0.5c0.1-0.3,0.3-0.6,0.5-1c0.1-0.2,0.2-0.3,0.3-0.5c0.3-0.5,0.6-0.9,0.9-1.4c0.1-0.1,0.2-0.3,0.3-0.4
		c13.8-3.4,19.1-12.3,23.4-29.5C95.2,31,79.9,7.8,57,7.8z"/>
	<g>
		<path class="st7" d="M46.9,77.5c0-0.7-0.5-2-1.5-2.7c-1.2,4.9-3.8,11.6-5.3,13c-1.4,1.3-5.8,8.4-3.7,17.3
			C45,99.6,46.9,87.4,46.9,77.5z"/>
		<g>
			<path d="M46.8,77.5c0-0.5-0.2-1-0.5-1.5c-0.3-0.5-0.6-0.8-1.1-1.1l0.1-0.1c-0.6,2.7-1.3,5.3-2.2,7.9c-0.5,1.3-1,2.5-1.7,3.7
				c-0.4,0.6-0.7,1.2-1.3,1.7c-0.5,0.4-0.8,1-1.2,1.5c-1.5,2.2-2.5,4.8-2.9,7.5c-0.4,2.7-0.2,5.4,0.4,8l-0.5-0.2
				c2.1-1.4,3.8-3.3,5.2-5.4c1.4-2.1,2.3-4.5,3.1-6.9c0.8-2.4,1.3-4.9,1.7-7.4C46.6,82.7,46.8,80.1,46.8,77.5z M46.9,77.5
				c0,2.6,0,5.2-0.2,7.8c-0.2,2.6-0.6,5.2-1.3,7.7c-0.7,2.5-1.8,4.9-3.3,7.1c-1.5,2.2-3.4,4.1-5.7,5.4l-0.4,0.3l-0.1-0.5
				c-0.5-2.7-0.5-5.5-0.1-8.2c0.5-2.7,1.3-5.3,2.6-7.8c0.4-0.6,0.7-1.2,1.2-1.7c0.4-0.4,0.8-1,1.1-1.6c0.6-1.2,1.2-2.4,1.7-3.6
				c1.1-2.5,2.1-5,2.8-7.6l0-0.1l0.1,0.1c0.4,0.3,0.8,0.7,1.1,1.2C46.7,76.5,46.9,77,46.9,77.5z"/>
		</g>
	</g>
	<g>
		<path class="st7" d="M23.9,25c-5.6,0.7-9.4,2.9-10,5.6c-0.7,3.4,2,7.1,10,9.8C21.3,35.9,21.2,30,23.9,25z"/>
		<path d="M23.8,25.1c-2.2,0.5-4.3,1.1-6.2,2.2c-1.9,1-3.7,2.6-3.5,4.9c0.1,1.1,0.5,2.1,1.2,3c0.7,0.9,1.6,1.6,2.6,2.2
			c1.9,1.2,4.1,1.9,6.2,2.6l-0.6,0.7c-0.7-1.2-1.3-2.5-1.7-3.8c-0.4-1.3-0.5-2.7-0.4-4.1c0.1-1.4,0.3-2.7,0.7-4
			C22.5,27.4,23.1,26.2,23.8,25.1z M24,25c-0.5,1.2-0.9,2.5-1.2,3.8c-0.3,1.3-0.4,2.6-0.4,3.9c0,1.3,0.2,2.6,0.5,3.8
			c0.3,1.2,0.8,2.5,1.4,3.6l0.7,1.1l-1.2-0.4c-2.2-0.8-4.3-1.8-6.1-3.2c-0.9-0.7-1.8-1.4-2.5-2.3c-0.7-0.9-1.3-1.9-1.5-3.1
			c-0.1-0.6-0.1-1.2,0-1.8c0.1-0.6,0.4-1.2,0.8-1.7c0.7-1,1.8-1.7,2.8-2.2C19.3,25.5,21.6,25,24,25L24,25L24,25z"/>
	</g>
	<g>
		<path class="st7" d="M36.9,25.8c-4.8-1.1-9.3-1.2-13-0.8c-2.7,5-2.7,10.9,0,15.4c1.5,0.5,3.3,1,5.2,1.5c12,2.7,26.1,3.9,27.3-1.5
			S48.9,28.5,36.9,25.8z"/>
		<path d="M36.9,25.8c-2.1-0.5-4.3-0.8-6.5-0.8c-2.2-0.1-4.3,0.1-6.5,0.4l0.3-0.2c-0.6,1.2-1.1,2.4-1.4,3.7
			c-0.3,1.3-0.5,2.6-0.5,3.9c0,2.6,0.5,5.2,1.8,7.5L24,40.1c2.4,0.9,4.8,1.5,7.3,2c2.5,0.5,5,0.9,7.5,1.2c2.5,0.3,5,0.4,7.5,0.4
			c2.5-0.1,5-0.2,7.3-1.1c1.1-0.4,2.1-1.2,2.4-2.2c0.3-1,0.1-2.2-0.4-3.3c-1-2.1-3-3.8-5-5.3C46.5,29,41.8,26.9,36.9,25.8z
			 M36.9,25.7c2.5,0.5,4.9,1.3,7.3,2.1c2.4,0.9,4.7,1.9,6.9,3.3c2.1,1.4,4.2,3.1,5.4,5.6c0.6,1.2,0.9,2.7,0.5,4.1
			c-0.2,0.7-0.7,1.3-1.2,1.8c-0.5,0.5-1.2,0.8-1.8,1c-2.5,0.9-5.1,1-7.7,1c-2.5-0.1-5.1-0.3-7.6-0.7c-2.5-0.4-5-0.9-7.5-1.4
			c-2.5-0.5-4.9-1.1-7.4-1.8l-0.1,0l-0.1-0.1c-1.5-2.3-2.3-5-2.2-7.8c0-1.4,0.2-2.8,0.5-4.1c0.4-1.3,0.9-2.6,1.6-3.8l0.1-0.2l0.2,0
			c2.2-0.2,4.4-0.2,6.6,0C32.6,24.9,34.8,25.2,36.9,25.7z"/>
	</g>
	<path class="st1" d="M13.9,30.7c-0.6,3.4,2.2,7,10,9.6c-0.7-1.1-1.1-2.2-1.5-3.5C19.2,35.7,16.3,33.8,13.9,30.7z"/>
	<path class="st1" d="M22.5,36.9c0.3,1.2,0.8,2.4,1.5,3.5c1.5,0.5,3.3,1,5.2,1.5c9,2.1,19.2,3.2,24.3,1.4c-1.1-1-2.3-1.7-3.3-2
		C42.3,38.1,31.2,40,22.5,36.9z"/>
	<path d="M26.6,26.8c-0.6,1.4-3,2.9-4.8,2.1c-1.8-0.8-2.4-2.6-1.8-4c0.6-1.4,1.5-1.4,4.2-1.3C26.1,23.7,27.2,25.5,26.6,26.8z"/>
	<g>
		<path d="M45.8,24.5c-0.9,1.5-2,2.6-3.6,1.7c-1.5-0.9-2-3-1.1-4.5c0.9-1.5,3-2,4.5-1.1C47.2,21.5,46.8,22.9,45.8,24.5z"/>
		<ellipse class="st8" cx="42.3" cy="22.2" rx="0.6" ry="0.6"/>
	</g>
	<g>
		<path d="M25,21.7c-0.8,1-1.6,1.7-2,1.1c-0.4-0.6-0.1-1.9,0.7-3c0.8-1,1.8-1.4,2.3-0.7C26.4,19.7,25.8,20.7,25,21.7z"/>
		<path class="st8" d="M24.2,20.3c-0.1,0.2-0.3,0.4-0.4,0.4c-0.1,0-0.2-0.2-0.1-0.4c0.1-0.2,0.3-0.4,0.4-0.4
			C24.3,19.9,24.3,20,24.2,20.3z"/>
	</g>
	<g>
		<path class="st3" d="M85.4,24.3c3-7.3-3.9-14.7-9.5-14.9c-5.5-0.2-10.3,6.1-10.6,14.2c0,0.1,0,0.2,0,0.2c5.7,1.8,7.9,2.1,10.9,8.8
			C80.1,30.7,83.3,29.2,85.4,24.3z"/>
		<g>
			<path d="M85.3,24.3c0.6-1.5,0.8-3.2,0.5-4.9c-0.3-1.6-1-3.1-1.9-4.5c-1.9-2.6-4.6-4.8-7.8-5.3c-1.6-0.2-3.2,0.2-4.6,1.1
				c-1.4,0.9-2.5,2.1-3.4,3.5c-1.7,2.8-2.4,6.2-2.4,9.4l-0.3-0.4c1.2,0.3,2.4,0.7,3.5,1.1c1.2,0.4,2.4,0.9,3.4,1.7
				c1,0.8,1.9,1.8,2.6,2.9c0.7,1.1,1.2,2.2,1.7,3.3L76,32.1c1.9-0.9,3.9-1.7,5.5-2.9c0.8-0.6,1.6-1.4,2.2-2.2
				C84.4,26.2,84.9,25.2,85.3,24.3z M85.4,24.3c-0.8,2-1.9,3.8-3.6,5.3C80.2,31,78.3,32,76.4,33L76,33.2l-0.2-0.4
				c-1.1-2.2-2.2-4.4-4-5.8c-1.8-1.4-4.3-2-6.6-2.8l-0.3-0.1l0-0.3c0.1-3.4,1.2-6.8,3-9.6c0.9-1.4,2.1-2.7,3.5-3.6
				c1.4-0.9,3.1-1.5,4.9-1.5c1.8,0.1,3.4,0.8,4.8,1.8c1.4,1,2.6,2.3,3.5,3.7c0.9,1.5,1.5,3.1,1.6,4.8C86.3,21,86.1,22.7,85.4,24.3z"
				/>
		</g>
	</g>
	<g>
		<path class="st7" d="M75.9,25.5c1.8-4.8-0.5-10-3-10.4c-2.5-0.4-5.3,3.3-6.1,8.6c0,0.1,0,0.1,0,0.2c2.6,1.1,3.4,1,6.5,4.5
			C73.5,28.4,75.1,27.7,75.9,25.5z"/>
		<g>
			<path d="M75.9,25.5c0.7-1.8,0.6-3.9,0.1-5.7c-0.2-0.9-0.6-1.8-1-2.6c-0.4-0.8-1.1-1.6-1.9-1.8c-0.9-0.3-1.9,0.1-2.5,0.7
				c-0.7,0.6-1.3,1.5-1.7,2.3c-0.8,1.7-1.3,3.6-1.5,5.5l-0.3-0.5c0.6,0.2,1.2,0.4,1.9,0.7c0.6,0.3,1.3,0.6,1.8,1
				c1.1,0.8,2,1.9,2.8,3l-0.2-0.1c0,0,0.2,0,0.3-0.1c0.1-0.1,0.3-0.1,0.4-0.2c0.3-0.2,0.5-0.4,0.8-0.6
				C75.3,26.7,75.6,26.1,75.9,25.5z M76,25.5c-0.2,0.6-0.6,1.3-1,1.8c-0.2,0.3-0.4,0.5-0.7,0.8c-0.1,0.1-0.3,0.2-0.4,0.3
				c-0.2,0.1-0.3,0.2-0.6,0.2l-0.1,0L73,28.6c-1-0.9-2-1.8-3-2.5c-1-0.7-2.2-1.1-3.5-1.7l-0.4-0.2l0.1-0.4c0.3-2,1-3.9,2.1-5.6
				c0.5-0.8,1.2-1.7,1.9-2.3c0.8-0.6,1.8-1.2,2.9-1c1.1,0.2,1.9,1,2.5,1.8c0.6,0.9,1,1.9,1.1,2.9C77.1,21.7,76.6,23.7,76,25.5z"/>
		</g>
	</g>
	<ellipse class="st8" cx="22" cy="24.5" rx="1.2" ry="0.5"/>
	<ellipse cx="38" cy="54.8" rx="2.2" ry="2"/>
	<ellipse transform="matrix(0.9645 0.2642 -0.2642 0.9645 14.8271 -8.567)" cx="39.3" cy="50.8" rx="4" ry="0.9"/>
	<g>
		<path d="M25.4,62.9c-0.1-0.3-0.2-0.6-0.2-0.9c0-0.3,0-0.7,0.4-0.9c0.3-0.2,0.8-0.1,1,0.1c0.3,0.2,0.5,0.5,0.6,0.8
			c0.1,0.3,0.2,0.6,0.2,1c0,0.3-0.2,0.7-0.5,0.9c-0.4,0.1-0.7-0.1-0.9-0.3C25.7,63.4,25.5,63.1,25.4,62.9z M25.4,62.9
			c0.1,0.3,0.3,0.5,0.6,0.7c0.2,0.2,0.6,0.2,0.8,0.1c0.2-0.1,0.2-0.4,0.2-0.7c0-0.3-0.1-0.5-0.2-0.8c-0.1-0.2-0.3-0.5-0.5-0.6
			c-0.2-0.2-0.4-0.3-0.7-0.2c-0.2,0.1-0.4,0.4-0.4,0.7C25.2,62.3,25.3,62.6,25.4,62.9z"/>
	</g>
	<ellipse class="st9" cx="41" cy="59.6" rx="6.3" ry="1.6"/>
	<ellipse class="st8" cx="43.5" cy="58.1" rx="1.2" ry="0.8"/>
	<ellipse class="st9" cx="44.7" cy="28.7" rx="6.3" ry="1.6"/>
	<ellipse class="st8" cx="47.2" cy="27.3" rx="1.2" ry="0.8"/>
	<g>
		<path class="st3" d="M74.4,98.3c-2,0-3.7,1-4.8,2.6c0.4,2.4,1.3,4.7,0,6.8c1,1.6,2.8,2.7,4.8,2.7c3.2,0,5.8-2.7,5.8-6
			C80.2,101,77.6,98.3,74.4,98.3z"/>
		<path d="M74.4,98.4c-0.9,0-1.9,0.3-2.6,0.8c-0.8,0.5-1.4,1.2-1.8,2l0.1-0.3c0.2,1.1,0.6,2.2,0.6,3.4c0.1,1.2-0.1,2.5-0.9,3.5v-0.2
			c1,1.7,3,2.8,5,2.5c1.9-0.2,3.6-1.5,4.4-3.2c0.8-1.7,0.8-3.7-0.1-5.4C78.2,99.8,76.4,98.4,74.4,98.4z M74.4,98.3
			c2,0,4.2,0.9,5.4,2.8c1.2,1.8,1.3,4.3,0.2,6.3c-1,2-3.1,3.3-5.3,3.3c-2.1,0-4.1-1.1-5.4-2.8l-0.1-0.1l0.1-0.1
			c0.6-1,0.6-2.1,0.4-3.2c-0.2-1.1-0.5-2.2-0.6-3.4l0-0.2l0.1-0.1c0.6-0.8,1.4-1.4,2.3-1.8C72.5,98.5,73.4,98.3,74.4,98.3z"/>
	</g>
	<path class="st0" d="M76.8,106.4c-3.9,2-5.1-3.3-6.1-6.6c-0.4,0.4-0.8,0.8-1.1,1.2c0.4,2.4,1.3,4.7,0,6.8c1,1.6,2.8,2.7,4.8,2.7
		c3.2,0,5.8-2.7,5.8-6c0-0.5-0.1-0.9-0.2-1.4C79.2,104.3,78.1,105.4,76.8,106.4z"/>
	<path class="st0" d="M49.1,80.8c0,0-25.3,47.9,9,8"/>
	<g>
		<path class="st3" d="M50.6,78.9c0,0-31.4,44.2,7.9,9.1"/>
		<path d="M50.7,78.9c-2.1,3.6-4.3,7.1-6.5,10.6c-1.1,1.7-2.3,3.5-3.3,5.3c-0.5,0.9-0.9,1.9-1.3,2.8c-0.4,0.9-0.7,2-0.6,2.9
			c0.1,1,1.2,0.7,2.1,0.3c0.9-0.4,1.8-1,2.6-1.5c1.7-1.1,3.3-2.4,5-3.7c3.3-2.5,6.5-5.2,9.8-7.7l0.1,0.1c-2.9,3-5.9,5.8-9.2,8.4
			c-1.6,1.3-3.3,2.5-5.1,3.6c-0.9,0.6-1.8,1.1-2.8,1.5c-0.5,0.2-1,0.4-1.7,0.3c-0.3,0-0.7-0.1-0.9-0.4c-0.2-0.3-0.3-0.6-0.3-0.9
			c0-1.2,0.4-2.1,0.8-3.1c0.4-1,0.9-1.9,1.3-2.8c0.9-1.9,1.8-3.7,2.8-5.6C45.5,85.5,47.9,82,50.7,78.9L50.7,78.9z"/>
	</g>
	<path class="st6" d="M66.5,74.9c0.1-0.3,0.3-0.6,0.5-1c0.1-0.2,0.2-0.3,0.3-0.5c0.3-0.5,0.6-0.9,0.9-1.4c0.1-0.1,0.2-0.3,0.3-0.4
		C81.7,68.5,87.1,60,91.3,44.1c-21.4-11.5-42.8-20.6-65.7-29c0,1,0.4,2,0.9,2.9c-0.3,0.3-0.7,0.6-1,0.9c0-0.1-0.1-0.2-0.1-0.2
		c-0.4-0.6-1.5-0.3-2.3,0.7c-0.8,1-1.1,2.2-0.7,2.8c-0.3,0.3-0.5,0.6-0.8,0.9c-1.2,0.1-1.8,0.4-2.2,1.3c-0.1,0.3-0.2,0.6-0.2,1
		c-3.3,1.1-5.4,2.7-5.8,4.6c0,0.1,0,0.1,0,0.2v0c-0.1,0.4-0.1,0.8-0.1,1.3c0,0,0,0,0,0c0,0.2,0,0.4,0.1,0.6c0,0,0,0,0,0
		c0,0.2,0.1,0.4,0.2,0.6c0,0,0,0,0,0c0.1,0.2,0.2,0.4,0.3,0.6c0,0,0,0,0,0.1c0.1,0.2,0.2,0.4,0.3,0.6c0,0,0,0.1,0.1,0.1
		c0.1,0.2,0.3,0.4,0.4,0.5c0,0,0.1,0.1,0.1,0.1c0.1,0.2,0.3,0.3,0.5,0.5c0,0,0.1,0.1,0.1,0.1c0.2,0.2,0.3,0.3,0.5,0.5
		c0.1,0.1,0.1,0.1,0.2,0.2c0.2,0.1,0.4,0.3,0.6,0.4c0.1,0.1,0.2,0.1,0.3,0.2c0.2,0.1,0.4,0.3,0.6,0.4c0.1,0.1,0.2,0.1,0.4,0.2
		c0.2,0.1,0.4,0.2,0.6,0.4c1.4,2.5,3.4,5.1,4.1,7.7c0.6,2,1,3.8,1.4,5.4c-3.6,9.8-1.5,16.4,13.3,19.3c0.2,0.1,0.4,0.2,0.6,0.3
		c-0.1,0-0.3,0.1-0.4,0.1c0.3,0,0.6,0.1,1,0.1c1.9,0.8,4,1.7,6.6,2.6c-1,3.5-3.6,11.8-5.3,13.9c-0.1,0.1-0.1,0.2-0.2,0.2
		c-0.1,0.1-0.2,0.2-0.3,0.3c0,0-0.1,0.1-0.1,0.1C39,87.8,39,87.9,38.9,88c0,0-0.1,0.1-0.1,0.1c-0.1,0.1-0.2,0.3-0.3,0.4
		c0,0,0,0,0,0.1c-0.1,0.2-0.2,0.4-0.4,0.6c0,0.1-0.1,0.1-0.1,0.2c-0.1,0.2-0.2,0.4-0.3,0.5c0,0.1-0.1,0.1-0.1,0.2
		c-0.1,0.2-0.2,0.5-0.4,0.7c0,0,0,0.1,0,0.1c-0.1,0.3-0.3,0.6-0.4,0.9c0,0.1,0,0.1-0.1,0.2c-0.1,0.3-0.2,0.6-0.3,0.8
		c0,0.1-0.1,0.2-0.1,0.2c-0.1,0.3-0.2,0.6-0.3,1c0,0,0,0.1,0,0.1c-0.1,0.4-0.2,0.8-0.3,1.2c0,0,0,0.1,0,0.1
		c-0.1,0.4-0.1,0.7-0.2,1.1c0,0.1,0,0.2,0,0.3c-0.1,0.4-0.1,0.8-0.1,1.2c0,0,0,0.1,0,0.1c0,0.5-0.1,0.9-0.1,1.4c0,0,0,0,0,0.1
		c0,0.4,0,0.9,0,1.4c0,0.1,0,0.2,0,0.3c0,0.4,0.1,0.9,0.1,1.3c0,0.1,0,0.1,0,0.2c0.4,2.7,1.4,5.6,3.2,8.6c0,0,0,0,0,0
		c0,0,0,0.1,0,0.1c0,0.1,0,0.2,0,0.3c0,0.3-0.1,0.8-0.1,1.3c0,0.4-0.1,0.9-0.1,1.4c-0.4,4.5-0.9,12.2-0.1,16.4
		c-7.6,0.8-12.7,2.2-12.7,3.7c0,2.5,12.5,4.4,28,4.4c15.5,0,28-2,28-4.4c0-1.9-7.1-3.4-17.3-4.1c0-0.2,0-0.3,0.1-0.5
		c0,0,0-0.1,0-0.1c0-0.3,0-0.5,0.1-0.8c0-0.1,0-0.2,0-0.4c0-0.2,0-0.4,0-0.7c0-0.1,0-0.3,0-0.4c0-0.2,0-0.4,0-0.7c0-0.2,0-0.3,0-0.5
		c0-0.2,0-0.5,0-0.7c0-0.2,0-0.4,0-0.5c0-0.3,0-0.5,0-0.8c0-0.2,0-0.4,0-0.6c0-0.3,0-0.6-0.1-0.8c0-0.2,0-0.4,0-0.6
		c0-0.3,0-0.6-0.1-0.9c0-0.2,0-0.4-0.1-0.6c0-0.4-0.1-0.7-0.1-1.1c0-0.2,0-0.3-0.1-0.5c-0.1-0.6-0.1-1.1-0.2-1.7c0,0,0.5-0.4,1.3-1
		c1.6-1.4,4.2-4,5.8-7.6c0.8,0.5,1.8,0.8,2.8,0.8c3.2,0,5.8-2.7,5.8-6c0-0.2,0-0.5,0-0.7c0,0,0,0,0,0c-0.3-3-2.8-5.3-5.8-5.3
		c-0.8,0-1.6,0.2-2.3,0.5c0-0.1-0.1-0.2-0.1-0.3c5,0.8-1.7-10-6.4-16.9c0.1-1.8,0.5-3.7,1.3-5.6C66.4,75.3,66.5,75.1,66.5,74.9z
		 M43.3,130.7C43.3,130.7,43.4,130.7,43.3,130.7c0.1-0.1,0.1-0.2,0.1-0.2c0.2-0.3,0.4-0.7,0.6-1c0-0.1,0.1-0.1,0.1-0.2
		c0.1-0.2,0.2-0.4,0.3-0.6c0-0.1,0.1-0.1,0.1-0.2c0.3-0.6,0.7-1.3,1.1-2.1c0-0.1,0.1-0.2,0.1-0.2c0.1-0.2,0.2-0.5,0.4-0.8
		c0-0.1,0.1-0.2,0.1-0.3c0.4-0.8,0.8-1.7,1.2-2.6c1.5,2.2,3.7,5.2,6,7.8C49.9,130.4,46.5,130.5,43.3,130.7z"/>
</g>
</svg>
