<?xml version="1.0" encoding="utf-8"?>
<!-- Generator: Adobe Illustrator 15.1.0, SVG Export Plug-In . SVG Version: 6.00 Build 0)  -->
<!DOCTYPE svg PUBLIC "-//W3C//DTD SVG 1.1//EN" "http://www.w3.org/Graphics/SVG/1.1/DTD/svg11.dtd">
<svg version="1.1" id="animals" xmlns="http://www.w3.org/2000/svg" xmlns:xlink="http://www.w3.org/1999/xlink" x="0px" y="0px"
	 width="266px" height="204px" viewBox="0 0 266 204" style="enable-background:new 0 0 266 204;" xml:space="preserve">
<style type="text/css">
<![CDATA[
	.st0{fill:#7AD7EE;}
	.st1{opacity:0.4;fill:#44362E;}
	.st2{opacity:0.33;}
	.st3{fill:#886E5F;}
	.st4{fill:#1E0C03;}
	.st5{fill:#231F20;}
	.st6{clip-path:url(#SVGID_2_);}
	.st7{fill:#FBDCCA;}
	.st8{fill:#FCC581;}
	.st9{opacity:0.25;fill:#078D9E;}
	.st10{fill:#44362E;stroke:#000000;stroke-miterlimit:10;}
	.st11{fill:#FFFFFF;}
	.st12{fill:#3A1D0B;}
	.st13{opacity:0.54;fill:#FFA6B7;}
	.st14{opacity:0.25;fill:#825E37;}
]]>
</style>
<g>
	<ellipse class="st2" cx="195.9" cy="183.8" rx="36.9" ry="5.2"/>
	<path class="st10" d="M203.8,111.8c0,0,18.2,7.7,3.9,30.2L203.8,111.8z"/>
	<g>
		<path class="st3" d="M154.6,49.9c0,0-8.1,18.1,4.6,48.2l1.5,1.6l21-24.4L154.6,49.9z"/>
		<g>
			<path d="M154.6,50c-0.7,1.9-1.1,3.9-1.4,5.9c-0.3,2-0.5,4.1-0.6,6.1c-0.2,4.1,0,8.2,0.5,12.3c0.2,2,0.6,4.1,1,6.1
				c0.4,2,0.8,4,1.4,6c1,4,2.4,7.9,4,11.7l0,0l1.6,1.6l-0.3,0c3.5-4.1,6.9-8.2,10.3-12.4L181.3,75l0,0.7l-6.8-6.4
				c-2.3-2.1-4.5-4.3-6.7-6.4C163.4,58.7,159,54.4,154.6,50z M154.6,49.9c4.7,4.1,9.3,8.2,13.8,12.4c2.3,2.1,4.6,4.2,6.8,6.3
				l6.8,6.3l0.4,0.3l-0.3,0.4l-10.6,12.1c-3.5,4-7.1,8-10.6,12.1l-0.1,0.1l-0.1-0.1l-1.5-1.7l0,0l0,0c-1.6-3.8-3-7.7-4.3-11.6
				c-0.6-2-1.1-4-1.6-6c-0.4-2-0.8-4.1-1.1-6.1c-0.5-4.1-0.7-8.3-0.3-12.4C152.2,57.9,152.9,53.7,154.6,49.9L154.6,49.9L154.6,49.9z
				"/>
		</g>
	</g>
	<path class="st12" d="M157.2,48c0,0-9,17.7,2.2,48.3l1.5,1.7L183,74.7L157.2,48z"/>
	<g>
		<path class="st8" d="M193.5,85.3c-6.1,11.1-8.4,21.6-35.7,6.5c-21.1-11.6-20.1-23.6-8.5-30.4c10.2-5.9,16.9-17.3,30.6-9.8
			C193.5,59.2,199.6,74.2,193.5,85.3z"/>
		<path class="st5" d="M193.6,85.4c-1.6,2.9-3,6-4.9,8.8c-1,1.4-2.1,2.7-3.5,3.6c-1.4,1-3.1,1.6-4.8,1.8c-3.4,0.4-6.8-0.4-10-1.4
			c-3.2-1-6.2-2.5-9.2-4c-5.9-3.1-11.8-6.6-16.2-11.7c-1.1-1.3-2.1-2.7-2.8-4.2c-0.7-1.5-1.2-3.2-1.3-4.9c-0.1-1.7,0.3-3.4,1-4.9
			c0.7-1.5,1.8-2.9,3-4.1c1.2-1.2,2.6-2.2,4-3.1c1.4-0.8,2.8-1.8,4.1-2.8c2.7-2,5.2-4.2,8-6.1c2.8-1.9,6-3.5,9.5-3.7
			c3.5-0.2,6.9,1,9.8,2.6c5.9,3.3,10.9,8.4,13.6,14.6c1.3,3.1,2.1,6.4,2.1,9.8C196,79.1,195.2,82.4,193.6,85.4z M193.5,85.3
			c1.6-2.9,2.4-6.3,2.3-9.6c-0.1-3.3-1-6.6-2.4-9.5c-2.9-5.9-7.8-10.8-13.5-14c-2.8-1.6-6-2.7-9.3-2.5c-3.2,0.2-6.3,1.6-9,3.4
			c-2.7,1.8-5.3,4-8,5.9c-1.4,1-2.8,1.9-4.2,2.7c-1.4,0.8-2.8,1.8-4,2.9c-1.2,1.1-2.3,2.4-3,3.9c-0.7,1.5-1.1,3.1-1,4.8
			c0.1,1.6,0.5,3.3,1.2,4.7c0.7,1.5,1.7,2.8,2.8,4.1c2.2,2.5,4.8,4.6,7.6,6.4c2.8,1.8,5.7,3.4,8.7,4.8c3,1.5,6,2.8,9.1,3.9
			c3.1,1.1,6.4,1.9,9.6,1.6c1.6-0.1,3.2-0.7,4.6-1.5c1.4-0.9,2.5-2.1,3.5-3.4C190.5,91.3,191.8,88.2,193.5,85.3z"/>
	</g>
	<g>
		<path class="st8" d="M166,67.4c0,0.6,0,1.2,0.1,1.7C166.4,68.5,166.6,67.9,166,67.4z"/>
		<path class="st5" d="M166,67.3L166,67.3c0.3,0.2,0.4,0.3,0.4,0.5c0.1,0.1,0.1,0.3,0.1,0.4c0,0.1-0.2,0.3-0.2,0.4
			c0,0.1,0,0.3,0.1,0.4l-0.4-0.1c0-0.2,0-0.3,0-0.5c0-0.1,0-0.2,0-0.3C165.9,68,166,67.9,166,67.3L166,67.3z M166.1,67.3
			c0.5,0,0.9,0.4,0.9,0.9c0,0.2-0.1,0.5-0.2,0.6c-0.1,0.2-0.3,0.3-0.4,0.4l-0.7,0.4l0.3-0.5c0.1-0.2,0.1-0.3,0-0.4
			c-0.1-0.1-0.2-0.3-0.3-0.4c0-0.1,0-0.3,0-0.4C165.7,67.7,165.8,67.5,166.1,67.3L166.1,67.3L166.1,67.3z"/>
	</g>
	
		<ellipse transform="matrix(0.7383 0.6745 -0.6745 0.7383 94.0203 -85.5447)" class="st13" cx="157.2" cy="78.4" rx="4.4" ry="1.9"/>
	<ellipse transform="matrix(0.7384 0.6744 -0.6744 0.7384 95.1798 -87.2927)" class="st11" cx="160.1" cy="79" rx="1.9" ry="0.8"/>
	<path class="st14" d="M179.9,51.7c-1.2-0.6-2.3-1.1-3.3-1.5c-0.2,1.3-0.4,2.5-0.7,3.8c-7.9-2.8-14.7-0.7-20.5,3.4
		c0.5,3.8,2.1,6.9,5.2,10.1c0-1.4,0.4-1,0.4-2.3c1.4,4.1,3.7,6.4,3.7,10.5c0-0.8,0.9-1.6,1.4-2.4c0.1,1.1,0.3,2.1,0.5,3.1
		c-1.4,2.2-3,4.2-4.6,6.2c-4,6-10.3,3.2-16.6,0.2c2.7,3.1,6.8,6.2,12.4,9.3c20.1,11,26.6,8.3,31.1,1.8c0.7,0.1,1.5,0.3,2.2,0.4
		c0.8-1.5,1.6-3,2.4-4.6c2-3.6,2.6-7.5,2.2-11.5C196.7,68.2,190.6,57.6,179.9,51.7z"/>
	<g>
		<path class="st12" d="M166.1,69.1c1,13.1,12.9,19,25,20.8c0.8-1.5,1.6-3,2.4-4.6c6.1-11.1,0-26.2-13.7-33.7
			c-9.6-5.3-17.8-3.2-24.5,1.5c0.5,3.8,2.1,6.9,5.2,10.1c0-1.4,0.4-1,0.4-2.3c1.4,4.1,3.7,6.4,3.7,10.5
			C164.7,70.7,165.6,69.9,166.1,69.1"/>
		<path d="M166.1,69.1c0.3,2.9,1.2,5.8,2.7,8.3c1.5,2.5,3.6,4.6,6,6.2c2.4,1.7,5.1,2.9,7.8,3.8c2.8,0.9,5.6,1.6,8.5,2.1l-0.4,0.2
			l2.2-3.9c0.8-1.3,1.4-2.6,1.8-4c0.9-2.8,1.2-5.8,0.8-8.7c-0.8-5.9-3.9-11.3-8.2-15.4c-2.1-2.1-4.5-3.8-7.1-5.3
			c-2.6-1.4-5.3-2.6-8.2-3c-2.9-0.5-5.8-0.3-8.6,0.5c-2.8,0.8-5.4,2.1-7.8,3.8l0.2-0.5c0.3,1.9,0.8,3.7,1.7,5.3
			c0.9,1.7,2,3.2,3.3,4.5l-0.7,0.3c0-0.2,0-0.4,0.1-0.7c0-0.2,0.1-0.5,0.2-0.7c0.1-0.2,0.1-0.3,0.2-0.5c0-0.2,0-0.4,0-0.5l0.1-2.3
			l0.7,2.2c0.5,1.8,1.4,3.4,2.2,5.1c0.4,0.9,0.7,1.8,1,2.7c0.2,0.9,0.3,1.9,0.3,2.8h-0.2c0-0.5,0.3-0.9,0.6-1.3
			C165.5,69.8,165.8,69.4,166.1,69.1L166.1,69.1c-0.3,0.4-0.6,0.8-0.8,1.2c-0.3,0.4-0.5,0.8-0.5,1.2h-0.2c0-1.9-0.7-3.6-1.5-5.3
			c-0.8-1.7-1.8-3.3-2.4-5.1l0.7-0.1c0,0.2,0,0.4,0,0.7c0,0.2-0.1,0.5-0.2,0.7c-0.1,0.2-0.1,0.3-0.1,0.5c0,0.2,0,0.4,0,0.5l0,1
			l-0.7-0.7c-1.4-1.4-2.7-2.9-3.6-4.7c-1-1.7-1.5-3.7-1.8-5.6l0-0.3l0.3-0.2c2.5-1.7,5.2-3.2,8.1-4c2.9-0.8,6.1-0.9,9.1-0.4
			c3,0.6,5.8,1.7,8.4,3.3c2.6,1.5,5,3.4,7.1,5.6c4.2,4.3,7.2,9.8,8.1,15.8c0.4,3,0.2,6-0.6,8.9c-0.4,1.4-1.1,2.9-1.8,4.2l-2,4
			l-0.1,0.3l-0.3,0c-2.9-0.4-5.9-1.1-8.7-2.1c-2.8-1-5.5-2.3-8-4.1c-2.4-1.7-4.5-4-6-6.6C166.9,75,166.2,72,166.1,69.1L166.1,69.1z"
			/>
	</g>
	<g>
		<path class="st3" d="M224.5,38.7c0,0,17.7-8.9,23.9-5.8c0,0,3.1,18.4-7.2,25.6L224.5,38.7z"/>
		<g>
			<path d="M224.5,38.7c1.8-1,3.7-2,5.6-2.8c1.9-0.9,3.9-1.6,5.9-2.3c2-0.7,4-1.2,6.2-1.5c1.1-0.2,2.1-0.2,3.2-0.2
				c1.1,0.1,2.2,0.2,3.2,0.8l0.1,0.1l0,0.1c0.3,2.3,0.4,4.7,0.3,7c0,2.3-0.2,4.7-0.6,7c-0.4,2.3-1.1,4.6-2.2,6.7
				c-1.1,2.1-2.7,4-4.6,5.4l-0.4,0.3l-0.3-0.4c-1.4-1.6-2.8-3.3-4.2-4.9c-1.4-1.7-2.8-3.3-4.1-5C229.8,45.6,227.1,42.2,224.5,38.7
				L224.5,38.7L224.5,38.7z M224.6,38.7c2.9,3.2,5.8,6.4,8.6,9.6c1.4,1.6,2.8,3.3,4.2,4.9c1.4,1.6,2.8,3.3,4.2,5l-0.7-0.1
				c1.9-1.3,3.3-3,4.5-5c1.1-2,1.9-4.2,2.4-6.4c0.5-2.2,0.8-4.6,0.8-6.9c0-2.3-0.1-4.6-0.5-6.9l0.1,0.2c-1.8-0.8-4-0.5-6-0.2
				c-1,0.2-2,0.4-3,0.6c-1,0.2-2,0.5-3,0.8C232.3,35.6,228.4,37.1,224.6,38.7z"/>
		</g>
	</g>
	<path class="st1" d="M247.4,32.6c-5.8,5.8-12.8,8.3-20.3,9.2l14.1,16.7c10.2-7.2,7.2-25.6,7.2-25.6
		C248.1,32.8,247.8,32.7,247.4,32.6z"/>
	<g>
		<path class="st5" d="M143.1,69.5c-0.1,0.2-0.2,0.3-0.2,0.5c0,0.1,0,0.2,0,0.2c0,0,0.1,0.1,0.1,0.1c0.3,0,0.7-0.2,1-0.3l0.3-0.1
			l0,0.4c-0.2,1.4,0.1,3,1.1,4c0.9,1.1,2.4,1.6,3.9,2c-0.8,0-1.6,0-2.3-0.3c-0.8-0.2-1.5-0.7-2.1-1.3c-0.6-0.6-1-1.4-1.1-2.2
			c-0.1-0.8-0.1-1.6,0.1-2.4l0.3,0.3c-0.4,0.1-0.8,0.2-1.2,0.1c-0.1,0-0.3-0.1-0.3-0.3c0-0.1,0-0.2,0.1-0.3
			C142.8,69.7,143,69.6,143.1,69.5z"/>
	</g>
	<g>
		<path class="st5" d="M153,67.7c1.7,0.4,3.3,1.2,4.7,2.4c0.7,0.6,1.4,1.2,1.8,2c0.4,0.8,0.7,1.7,0.6,2.6l-0.1,0
			c-0.5-0.8-0.9-1.5-1.4-2.1c-0.5-0.7-0.9-1.4-1.5-2c-0.6-0.6-1.2-1.1-2-1.6C154.5,68.6,153.7,68.1,153,67.7L153,67.7z"/>
	</g>
	<g>
		<g>
			<path class="st3" d="M203.6,24.8c-35.4-10.5-59.8,9.1-55.2,19.9c4.6,10.8,10.1,9.6,14.7,13.7c4.6,4.1,5.1,8.8,6.1,13
				c2.8,8.5-3.9,7.8-8.5,27.9c3.3,2.6,7.3,4.7,12.4,6.5c0,0.6,0,1.3,0,2c-6.3-3.3-20.7-10.6-21.9-8.1c-1.5,3,18.3,24.1,20.5,26.5
				c1.3-4,2.4-9,2.4-12.8c0,3.8-1.2,8.8-2.4,12.8c0,0,0,0,0,0c-0.7,4.5-1.7,9.4-3.1,14.7c-6.3,22.8,4.5,29.6,4.5,29.6
				s13.1,30.7,9.9,1.4c0,0,13.7,6.1,18.3,1.1c0,0,5.1,29.1,8.8,0.7c0,0,11.2-10.8,1.8-34.9c0,0-4.8-15.7-5.9-26.5
				c-3.3-0.4-6.3-1.6-10-1.6c3.7,0,6.7,1.2,10,1.6c0-0.1,0-0.1,0-0.2c19.2,0.2,22.6-10.9,34.7-30.1C255.8,58,231.6,33.1,203.6,24.8z
				 M171.5,105.1c4.7,0.8,6.8,5.5,8.2,9.6C178.3,110.6,176.4,105.9,171.5,105.1z"/>
		</g>
		<g>
			<path d="M203.6,24.9c-8.2-2.4-16.8-3.5-25.4-2.6c-4.2,0.4-8.5,1.3-12.5,2.8c-4,1.5-7.8,3.4-11.1,6.1c-1.6,1.4-3.1,2.9-4.3,4.6
				c-1.2,1.7-2.1,3.7-2.2,5.8c0,1,0.1,2.1,0.5,3c0.4,1,0.9,1.9,1.4,2.9c1,1.8,2.3,3.6,3.9,4.9c1.6,1.4,3.5,2.3,5.4,3.2
				c1,0.5,1.9,1,2.8,1.6c0.9,0.6,1.7,1.4,2.5,2.2c1.5,1.6,2.6,3.6,3.3,5.6c0.7,2.1,1.1,4.2,1.6,6.2l0,0c0.4,1.2,0.7,2.5,0.7,3.8
				c0,1.3-0.4,2.6-0.9,3.8c-1.1,2.3-2.4,4.4-3.5,6.6c-2.2,4.4-3.7,9.2-4.8,14L161,99c3.6,2.9,7.9,4.9,12.2,6.5l0.2,0.1l0,0.2l0,2
				l0,0.6L173,108c-4.2-2.2-8.5-4.4-12.9-6.3c-2.2-0.9-4.5-1.8-6.8-2.2c-0.6-0.1-1.2-0.1-1.6,0.1c-0.1,0-0.2,0.1-0.2,0.2
				c-0.1,0.2-0.1,0.2-0.1,0.3c0,0.2,0.1,0.5,0.2,0.8c0.4,1.1,1,2.1,1.7,3.1c2.7,4,5.8,7.6,8.9,11.3c3.1,3.6,6.4,7.2,9.6,10.7
				l-0.4,0.1c0.7-2.1,1.2-4.2,1.7-6.3c0.4-2.1,0.8-4.3,0.8-6.4h0.3c0,2.2-0.4,4.4-0.8,6.5c-0.5,2.1-1,4.2-1.7,6.3l0-0.2
				c0,0,0,0,0.1,0.1l0,0.1l0,0.1c-0.6,3.9-1.3,7.7-2.3,11.5c-0.4,1.9-1,3.8-1.4,5.6c-0.4,1.9-0.8,3.8-1,5.7
				c-0.5,3.8-0.5,7.8,0.4,11.5c0.4,1.9,1.1,3.7,2,5.4c0.9,1.7,2.1,3.2,3.6,4.3l0.1,0.1l0,0.1c1,2.3,2.1,4.6,3.3,6.8
				c1.2,2.2,2.4,4.5,4.1,6.2c0.4,0.4,0.9,0.8,1.4,0.8c0.4,0,0.7-0.6,0.8-1.2c0.3-1.2,0.3-2.4,0.3-3.7c0-2.5-0.2-5-0.5-7.5l-0.1-0.6
				l0.6,0.2c2.9,1.2,6,2.2,9.1,2.7c1.6,0.3,3.1,0.4,4.7,0.2c1.5-0.2,3.1-0.7,4.1-1.8l0.6-0.6l0.2,0.8c0.4,2.3,0.9,4.5,1.6,6.8
				c0.3,1.1,0.7,2.2,1.1,3.3c0.2,0.5,0.4,1,0.7,1.5c0.3,0.5,0.6,1,0.9,1.2c0.2,0.1,0.3,0.1,0.4,0c0.1-0.1,0.3-0.2,0.5-0.4
				c0.3-0.4,0.5-0.9,0.7-1.5c0.4-1.1,0.7-2.2,0.9-3.3c0.5-2.3,0.8-4.5,1.1-6.8l0-0.1l0.1-0.1c2-2.1,3.3-5,4.2-7.8
				c0.9-2.9,1.2-5.9,1.2-8.9c0-6-1.5-12-3.7-17.7l0,0l0,0c-1.3-4.4-2.5-8.8-3.5-13.2c-1-4.4-1.9-8.9-2.4-13.4l0.4,0.4
				c-1.7-0.2-3.4-0.6-5-1c-1.6-0.4-3.3-0.6-4.9-0.6v-1c1.7,0,3.5,0.3,5.1,0.6c1.7,0.4,3.3,0.8,4.9,1l-0.5,0.5l0-0.2l-0.1-0.5l0.6,0
				c2.6,0,5.3-0.2,7.8-0.7c2.6-0.6,5-1.5,7.2-3c4.4-2.8,7.6-7.3,10.4-11.7c2.9-4.5,5.5-9.1,8.4-13.6c2.9-4.4,4.9-9.5,5.1-14.8
				c0.2-5.3-1.2-10.6-3.8-15.2c-2.5-4.7-6-8.8-10-12.4C223.4,33.1,213.8,27.9,203.6,24.9z M203.6,24.8c10.2,3,19.9,8.1,28,15.2
				c4,3.6,7.5,7.7,10.1,12.4c2.6,4.7,4.2,10,4,15.5c-0.2,5.4-2.1,10.7-5.1,15.1c-2.8,4.5-5.4,9.2-8.3,13.7c-1.4,2.3-2.9,4.5-4.6,6.6
				c-1.7,2.1-3.7,4-6,5.5c-2.3,1.5-4.9,2.5-7.5,3.1c-2.7,0.6-5.4,0.8-8.1,0.7l0.5-0.5l0,0.1l0.1,0.6l-0.6-0.1c-1.7-0.2-3.4-0.6-5-1
				c-1.6-0.4-3.3-0.6-4.9-0.6v-1c1.7,0,3.5,0.3,5.1,0.7c1.7,0.4,3.3,0.8,4.9,1l0.4,0l0,0.4c0.5,4.5,1.4,8.9,2.4,13.3
				c1,4.4,2.2,8.8,3.5,13.1l0,0c2.2,5.7,3.7,11.8,3.7,18c0,3.1-0.4,6.2-1.3,9.2c-0.9,3-2.2,5.8-4.4,8.2l0.1-0.3
				c-0.3,2.3-0.6,4.6-1.1,6.9c-0.3,1.1-0.5,2.3-1,3.4c-0.2,0.6-0.5,1.1-0.8,1.7c-0.2,0.3-0.4,0.5-0.8,0.7c-0.4,0.2-0.9,0.1-1.3-0.1
				c-0.7-0.4-1-1-1.3-1.5c-0.3-0.5-0.5-1.1-0.8-1.6c-0.4-1.1-0.8-2.2-1.1-3.4c-0.6-2.3-1.1-4.5-1.5-6.8l0.7,0.2
				c-1.2,1.3-2.9,1.8-4.6,2c-1.7,0.2-3.3,0-4.9-0.2c-1.6-0.3-3.2-0.7-4.7-1.2c-1.5-0.5-3.1-1-4.6-1.7l0.5-0.4c0.3,2.5,0.5,5,0.5,7.6
				c0,1.3,0,2.6-0.4,3.8c-0.1,0.3-0.2,0.6-0.4,1c-0.2,0.3-0.5,0.6-1,0.7c-0.4,0-0.8-0.2-1.1-0.3c-0.3-0.2-0.5-0.4-0.8-0.7
				c-0.9-0.9-1.6-2-2.3-3.1c-0.7-1.1-1.3-2.2-1.9-3.3c-1.2-2.2-2.2-4.5-3.2-6.9l0.1,0.1c-1.7-1.2-2.8-2.8-3.8-4.5
				c-1-1.7-1.6-3.6-2.1-5.5c-0.9-3.8-0.9-7.8-0.4-11.7c0.2-1.9,0.6-3.9,1.1-5.8c0.4-1.9,1-3.8,1.5-5.6c0.9-3.8,1.7-7.6,2.3-11.4
				l0,0.1l0,0l-0.1-0.1l0-0.1c0.7-2.1,1.2-4.2,1.7-6.3c0.4-2.1,0.8-4.3,0.8-6.4h0.3c0,2.2-0.3,4.4-0.8,6.5c-0.4,2.1-1,4.2-1.7,6.3
				l-0.1,0.3l-0.2-0.3c-3.3-3.5-6.6-7.1-9.7-10.7c-3.1-3.6-6.3-7.3-9-11.3c-0.7-1-1.3-2-1.8-3.2c-0.1-0.3-0.2-0.6-0.2-1
				c0-0.2,0-0.5,0.1-0.5c0.1-0.3,0.3-0.4,0.4-0.5c0.7-0.3,1.4-0.2,2-0.2c2.4,0.4,4.7,1.3,6.9,2.3c4.5,1.9,8.8,4,13,6.3l-0.5,0.3
				l-0.1-1.9l0.2,0.3c-4.4-1.6-8.7-3.6-12.5-6.5l-0.2-0.2l0.1-0.3c1.1-4.9,2.6-9.7,4.8-14.2c0.5-1.1,1.1-2.2,1.7-3.3
				c0.6-1.1,1.2-2.2,1.8-3.3c0.5-1.1,0.9-2.2,0.9-3.4c0-1.2-0.3-2.4-0.6-3.5l0,0l0,0c-0.5-2.1-0.9-4.2-1.6-6.2
				c-0.7-2-1.7-3.8-3.1-5.4c-0.7-0.8-1.5-1.5-2.3-2.1c-0.9-0.6-1.8-1.1-2.7-1.6c-1.9-0.9-3.9-1.9-5.5-3.4c-1.7-1.4-3-3.2-4-5.1
				c-0.5-0.9-1-1.9-1.4-2.9c-0.4-1-0.6-2.2-0.6-3.3c0.1-2.2,1.1-4.3,2.3-6.1c1.2-1.8,2.8-3.3,4.4-4.7c3.4-2.7,7.2-4.7,11.3-6.1
				c4.1-1.4,8.3-2.3,12.6-2.7C186.7,21.2,195.4,22.3,203.6,24.8z"/>
			<path d="M171.5,105.1c1.1,0.2,2.2,0.5,3.2,1c1,0.5,1.9,1.4,2.5,2.4c0.6,1,1,2,1.4,3.1l1.3,3.1l-0.5,0.2c-0.9-2-1.7-4.1-3-5.8
				c-0.6-0.9-1.3-1.7-2.1-2.4C173.6,105.9,172.6,105.4,171.5,105.1L171.5,105.1z M171.5,105.1c1.1,0.2,2.2,0.4,3.2,1
				c1.1,0.5,1.9,1.4,2.6,2.3c0.7,0.9,1.2,2,1.6,3c0.4,1,0.7,2.1,1,3.2l-0.5,0.2c-0.3-1.1-0.6-2.1-1.1-3.1c-0.5-1-1.1-1.9-1.8-2.7
				c-0.7-0.8-1.4-1.6-2.2-2.3C173.6,105.9,172.6,105.3,171.5,105.1L171.5,105.1z"/>
		</g>
	</g>
	<path class="st1" d="M157.4,109.8c5.6,6.9,13,14.8,14.4,16.3c0.8-2.7,1.6-5.8,2.1-8.7C168.2,115.2,162.4,113.1,157.4,109.8z"/>
	<g>
		<path class="st3" d="M171.5,105.1c4.7,0.8,6.8,5.5,8.2,9.6C178.3,110.6,176.4,105.9,171.5,105.1z"/>
		<g>
			<path d="M171.5,105.1c1.1,0.2,2.2,0.5,3.2,1c1,0.5,1.9,1.4,2.5,2.4c0.6,1,1,2,1.4,3.1l1.3,3.1l-0.5,0.2c-0.9-2-1.7-4.1-3-5.8
				c-0.6-0.9-1.3-1.7-2.1-2.4C173.6,105.9,172.6,105.4,171.5,105.1L171.5,105.1z M171.5,105.1c1.1,0.2,2.2,0.4,3.2,1
				c1.1,0.5,1.9,1.4,2.6,2.3c0.7,0.9,1.2,2,1.6,3c0.4,1,0.7,2.1,1,3.2l-0.5,0.2c-0.3-1.1-0.6-2.1-1.1-3.1s-1.1-1.9-1.8-2.7
				c-0.7-0.8-1.4-1.6-2.2-2.3C173.6,105.9,172.6,105.3,171.5,105.1L171.5,105.1z"/>
		</g>
	</g>
	<path class="st1" d="M181,169.8c-0.9,4.7-0.6,8.8-1.2,13.1c2.6,3.3,4.7,2.7,3.2-11c0,0,0.4,0.2,1,0.4
		C182.4,171.2,181,168.8,181,169.8z"/>
	<g>
		<path class="st3" d="M171.5,105.1c4.7,0.8,6.8,5.5,8.2,9.6C178.3,110.6,176.4,105.9,171.5,105.1z"/>
		<g>
			<path d="M171.5,105.1c1.1,0.2,2.2,0.5,3.2,1c1,0.5,1.9,1.4,2.5,2.4c0.6,1,1,2,1.4,3.1l1.3,3.1l-0.5,0.2c-0.9-2-1.7-4.1-3-5.8
				c-0.6-0.9-1.3-1.7-2.1-2.4C173.6,105.9,172.6,105.4,171.5,105.1L171.5,105.1z M171.5,105.1c1.1,0.2,2.2,0.4,3.2,1
				c1.1,0.5,1.9,1.4,2.6,2.3c0.7,0.9,1.2,2,1.6,3c0.4,1,0.7,2.1,1,3.2l-0.5,0.2c-0.3-1.1-0.6-2.1-1.1-3.1s-1.1-1.9-1.8-2.7
				c-0.7-0.8-1.4-1.6-2.2-2.3C173.6,105.9,172.6,105.3,171.5,105.1L171.5,105.1z"/>
		</g>
	</g>
	<path class="st1" d="M203.6,24.8c-1.7-0.5-3.3-0.9-5-1.3c15.6,10.3,33.2,22.3,35.7,42.5c2.7,24.6-20.5,45.1-45.1,42.3
		c17.7,8.2,12.3,31.4,12.3,49.2c0,9.2-5.9,13.6-12.6,16.4c4.3,1.2,9.9,2,12.5-0.9c0,0,5.1,29.1,8.8,0.7c0,0,11.2-10.8,1.8-34.9
		c0,0-4.8-15.7-5.9-26.5c-3.3-0.4-6.3-1.6-10-1.6c3.7,0,6.7,1.2,10,1.6c0-0.1,0-0.1,0-0.2c19.2,0.2,22.6-10.9,34.7-30.1
		C255.8,58,231.6,33.1,203.6,24.8z"/>
	<path class="st7" d="M151.1,34.5c-2.7,3.5-3.6,7.1-2.4,10c4.6,10.8,10.1,9.6,14.7,13.7c2.2,1.9,3.5,4,4.3,6.2
		C172.5,52.2,163.4,38,151.1,34.5z"/>
	<path class="st1" d="M174.8,43.2c0,0-6.5-19.5-1.2-31.6c0,0,23,14,27.8,16.6C201.4,28.2,194.6,51.2,174.8,43.2z"/>
	<g>
		<path class="st3" d="M174.8,41.8c0,0-6.5-19.5-1.2-31.6c0,0,23,14,27.8,16.6C201.4,26.8,194.6,49.9,174.8,41.8z"/>
		<g>
			<path d="M174.7,41.9c-0.9-2.5-1.6-5.1-2.2-7.8c-0.6-2.6-1-5.3-1.2-8c-0.3-2.7-0.3-5.4,0-8.1c0.3-2.7,0.9-5.4,2.1-7.8l0.1-0.3
				l0.2,0.2c2.3,1.5,4.6,2.9,6.9,4.3c2.3,1.4,4.6,2.8,7,4.1l7,4c2.3,1.3,4.7,2.7,7,4l0.4,0.2l-0.1,0.4c-0.9,2.9-2.2,5.5-3.9,8
				c-1.7,2.4-3.7,4.7-6.2,6.3c-2.5,1.6-5.5,2.6-8.5,2.6C180.3,43.9,177.4,43.1,174.7,41.9L174.7,41.9L174.7,41.9z M174.8,41.8
				c2.7,1,5.6,1.6,8.5,1.4c2.9-0.2,5.6-1.1,8-2.7s4.3-3.7,5.9-6.1c1.6-2.4,2.9-5,3.8-7.7l0.2,0.6c-2.4-1.3-4.7-2.7-7-4.1
				c-2.3-1.4-4.6-2.9-6.9-4.3c-2.3-1.4-4.6-2.8-6.9-4.3c-2.3-1.4-4.6-2.8-7-4.1l0.4-0.1c-1,2.5-1.5,5.1-1.7,7.7
				c-0.2,2.6-0.2,5.3,0,8c0.2,2.7,0.6,5.3,1,7.9C173.6,36.6,174.1,39.2,174.8,41.8z"/>
		</g>
	</g>
	<path class="st1" d="M173.6,10.3c0,0.1,0,0.1-0.1,0.2c8.1,5.4,18.4,12.1,17.1,21.4c-0.9,6.2-6.4,9-13.2,10.9
		c17.8,5,24-15.9,24-15.9C196.6,24.3,173.6,10.3,173.6,10.3z"/>
	<path class="st12" d="M175.1,40.1c0,0-2.4-13.7-2.5-22.4c0,0,4.7,9.6,5.7,11.3C178.3,29,178.9,45.5,175.1,40.1z"/>
	<ellipse transform="matrix(0.8793 0.4763 -0.4763 0.8793 38.611 -71.2653)" class="st13" cx="159.9" cy="40.5" rx="6.5" ry="3.1"/>
	<path class="st11" d="M166.5,41.1c-0.3,0.5-1.5,0.5-2.7-0.2c-1.2-0.6-1.9-1.6-1.6-2.2c0.3-0.5,1.5-0.5,2.7,0.2
		C166.1,39.6,166.8,40.6,166.5,41.1z"/>
	<g>
		<path d="M172.7,17.2c0.6,0.9,1.1,1.9,1.6,2.8l1.5,2.9c1,1.9,2,3.9,2.9,5.8l0,0.1l0,0.1c0.2,2.2,0.3,4.3,0,6.5
			c-0.1,1.1-0.3,2.1-0.7,3.2c-0.4,1-0.9,2.1-1.9,2.6c0.9-0.7,1.2-1.7,1.5-2.7c0.2-1,0.3-2.1,0.4-3.1c0.1-2.1,0-4.2-0.2-6.3l0,0.2
			c-0.9-2-1.9-3.9-2.7-5.9l-1.3-3C173.5,19.2,173,18.2,172.7,17.2z"/>
	</g>
	<g>
		<path class="st5" d="M153.4,41.4c1-0.5,2.2-0.6,3.4-0.5c1.2,0.1,2.3,0.5,3.3,1c2.1,1,3.8,2.7,5.3,4.5c1.4,1.8,2.6,3.8,3.6,5.9
			c0.5,1,0.9,2.1,1.3,3.2c0.4,1.1,0.7,2.1,1,3.2c-0.5-1-1-2.1-1.5-3.1c-0.5-1-1-2-1.6-3c-1.1-2-2.3-3.9-3.7-5.6
			c-1.4-1.7-3-3.3-4.8-4.4c-0.9-0.6-2-1-3-1.2C155.6,41.2,154.5,41.2,153.4,41.4z"/>
	</g>
	<g>
		<path class="st5" d="M154,41.7c1.2-0.1,2.4,0.2,3.6,0.7c1.1,0.6,2.1,1.4,2.9,2.3c1.7,1.8,2.8,4.1,3.6,6.4c0.8,2.3,1.2,4.7,1.5,7.1
			c0.2,2.4,0.3,4.8,0.2,7.2c-0.1-1.2-0.3-2.4-0.4-3.6c-0.1-1.2-0.3-2.4-0.5-3.6c-0.4-2.3-0.9-4.7-1.7-6.9c-0.7-2.2-1.7-4.4-3.2-6.2
			c-0.7-0.9-1.6-1.7-2.6-2.3C156.4,42.2,155.2,41.8,154,41.7z"/>
	</g>
	<g>
		<path class="st5" d="M154,42.2c1.2,0.4,2.1,1.2,2.9,2.2c0.8,1,1.3,2.1,1.7,3.3c0.7,2.4,0.7,4.9,0.5,7.3c-0.3,2.4-0.9,4.8-1.7,7.1
			c-0.8,2.3-1.8,4.5-3,6.6c0.4-1.1,0.8-2.3,1.2-3.4c0.4-1.1,0.8-2.3,1.1-3.4c0.6-2.3,1.2-4.6,1.5-7c0.3-2.3,0.3-4.7-0.2-7
			c-0.3-1.1-0.7-2.2-1.3-3.2C155.9,43.7,155.1,42.8,154,42.2z"/>
	</g>
	<g>
		<path class="st5" d="M160.1,34.5c-0.8,1.1-1.7,1.6-2.7,0.9c-1.1-0.8-1.3-2.3-0.6-3.3c0.8-1.1,2.2-1.3,3.3-0.5
			C161.2,32.3,160.9,33.5,160.1,34.5z"/>
		<path class="st11" d="M157.7,32.8c-0.1,0.2-0.3,0.3-0.5,0.2c-0.2-0.1-0.2-0.4-0.1-0.6c0.1-0.2,0.4-0.2,0.6-0.1
			S157.9,32.6,157.7,32.8z"/>
	</g>
	<path class="st4" d="M151.9,40c-0.6,1.8-2.9,4-4.5,3.5c-1.6-0.6-2-3.7-1.3-5.5c0.6-1.9,2.3-2,4.1-2.3
		C152.4,35.2,152.5,38.1,151.9,40z"/>
	<ellipse class="st11" cx="147.8" cy="37.6" rx="0.9" ry="0.4"/>
	<g>
		<path class="st3" d="M191.2,158.3c0,0,1.9-26.3,35.3-44.9S249.8,76,249.8,76s0.9-5.5,5.9-1.3c0,0,10.5,22.9-25.9,43.4
			c-36.4,20.5-31.4,40.2-31.4,40.2S195,164.9,191.2,158.3z"/>
		<g>
			<path d="M191.2,158.3c0.5-4.5,1.8-8.8,3.6-12.9c1.8-4.1,4.2-8,6.9-11.6c5.5-7.2,12.3-13.2,20-18c1.9-1.2,3.9-2.3,5.8-3.4
				c1.9-1.1,3.9-2.2,5.7-3.5c3.7-2.5,7.2-5.3,10.2-8.5c3-3.3,5.5-7.1,6.8-11.4c0.6-2.1,0.9-4.4,0.9-6.6c-0.1-2.2-0.5-4.5-1.5-6.4
				l0-0.1l0-0.1c0.1-0.7,0.4-1.3,0.8-1.9c0.4-0.6,1-1.1,1.8-1.1c0.7-0.1,1.4,0.2,2,0.5c0.6,0.3,1.2,0.7,1.7,1.1l0,0l0,0.1
				c1.7,4.3,1.8,9.1,0.9,13.6c-0.9,4.5-2.9,8.8-5.6,12.5c-2.7,3.7-5.9,7-9.5,9.9c-3.5,2.9-7.4,5.4-11.3,7.7
				c-7.9,4.4-15.4,9.6-21.7,16.1c-3.1,3.3-5.8,6.9-7.8,10.9c-1,2-1.7,4.2-2.2,6.3c-0.5,2.2-0.7,4.5-0.3,6.7l0,0.1l0,0.1
				c-0.4,0.7-0.9,1.4-1.5,1.9c-0.6,0.5-1.4,1-2.2,1c-0.9,0-1.6-0.5-2.2-1C192,159.7,191.6,159.1,191.2,158.3L191.2,158.3
				L191.2,158.3z M191.3,158.3c0.4,0.7,0.9,1.3,1.4,1.9c0.6,0.5,1.3,1,2.1,0.9c0.8,0,1.5-0.5,2-1c0.6-0.5,1-1.2,1.4-1.9l0,0.1
				c-0.5-2.3-0.3-4.6,0.1-6.9c0.4-2.3,1.2-4.4,2.1-6.5c1.9-4.2,4.7-7.9,7.8-11.3c6.2-6.7,13.9-11.9,21.8-16.4
				c7.8-4.5,15.2-9.9,20.5-17.2c2.6-3.6,4.7-7.7,5.6-12.1c0.9-4.3,0.9-9-0.7-13.2l0.1,0.1c-0.5-0.4-1-0.8-1.6-1.1
				c-0.6-0.3-1.2-0.5-1.8-0.4c-0.6,0.1-1.1,0.4-1.5,0.9c-0.4,0.5-0.6,1.1-0.7,1.7l0-0.1c1.9,4.2,1.8,9,0.5,13.3
				c-1.3,4.3-3.8,8.2-6.8,11.6c-3,3.4-6.5,6.3-10.2,8.8c-1.8,1.3-3.7,2.5-5.7,3.6c-2,1.1-3.9,2.2-5.8,3.4
				c-7.5,4.8-14.4,10.6-19.8,17.7c-2.7,3.5-5.1,7.3-7,11.3C193.4,149.6,191.8,153.9,191.3,158.3z"/>
		</g>
	</g>
	<path class="st1" d="M255.7,74.7c-1.1-0.9-2-1.4-2.7-1.5c4.7,8.3,0,20.5-6.4,26.9c-15,17.8-36.9,23.2-50.5,43.7
		c-0.3,0.6-0.5,0.8-0.6,0.7c-3.9,8-4.3,13.8-4.3,13.8c3.8,6.6,7.1,0,7.1,0s-5-19.8,31.4-40.2C266.1,97.6,255.7,74.7,255.7,74.7z"/>
</g>
<g>
	<ellipse class="st2" cx="77.1" cy="188.6" rx="36.6" ry="5.1"/>
	<g>
		<path class="st0" d="M77.1,33.3c-26.8,0-51.6,17.1-48.6,41.5c2,16.7,8.3,28.9,21.8,35.2l6.1,20c1.1-4,3.9-7.3,5-10.6
			c-1.1,3.3-4,6.6-5,10.6l0.3,0.9c0,0-0.3,0.7-0.7,1.9c0,0.1,0,0.1,0,0.2c0-0.1,0-0.1,0-0.2c-2.4,7-9.6,31.9,4.1,43.5
			c0,0,5.1,8.8,5.1,12.2c0,3.4,4,3.7,7.1-9.7c-2.3-0.4-4.5-1.1-6.8-2.4c2.3,1.3,4.5,2.1,6.8,2.4c0,0,0,0,0-0.1l2.3,0.3
			c3.8,0.2,7.5-0.6,11.3-1.3c-3.8,0.8-7.5,1.5-11.3,1.3l5.2,0.7c0,0,2.4-0.7,2.4,4.4c0,0,2.7,17.3,9.1-4.1c0,0,8.1-2.7,5.4-23
			c-2.7-20.3,0.6-19.3,0.6-19.3s7.2-9.9,8.6-14.2c1.5-4.5,0-4.7,0-4.7s-3.7-3.4-9.1,4.7l0,0c0,0,0-1-0.2-2.4
			c-0.2,3.2,0.9,6.3,0.2,9.1c0.7-2.8-0.3-5.9-0.2-9.1c-0.2-2.1-0.7-5.1-2-7.6c0.7-0.1,1.5-0.3,2.2-0.5c0-0.1,0-0.3,0-0.4
			c0,0.1,0,0.3,0,0.4c20.3-4.9,26.5-18.5,29.1-38.2C129,50.5,103.9,33.3,77.1,33.3z M47.8,108.6c9.5,5.4,20.3,4.1,29.8,5.4
			C68.1,112.6,57.3,114,47.8,108.6z"/>
		<g>
			<path class="st5" d="M77.1,33.4c-9.6,0-19.3,2.2-27.8,6.7c-4.2,2.3-8.2,5.1-11.5,8.6c-3.3,3.5-6,7.6-7.6,12.1
				c-1.6,4.5-2.1,9.4-1.4,14.1c0.6,4.8,1.6,9.5,3.2,14c1.6,4.5,3.9,8.8,7.1,12.3c3.1,3.6,7.1,6.4,11.4,8.5l0.2,0.1l0.1,0.2l6,20
				l-0.7,0c0.5-2,1.5-3.7,2.4-5.4c1-1.7,2-3.4,2.6-5.2l0.7,0.2c-0.7,1.9-1.7,3.6-2.7,5.3c-1,1.7-1.9,3.4-2.4,5.3l0-0.2l0.3,0.9
				l0,0.1l0,0.1c-0.2,0.6-0.5,1.2-0.7,1.9l0-0.1l0,0.2h-0.6l0-0.2l0.6,0.1c-1.2,3.6-2.2,7.4-2.9,11.1c-0.7,3.8-1.1,7.6-1.1,11.4
				c0,3.8,0.5,7.7,1.7,11.3c1.2,3.6,3.3,7,6.2,9.4l0,0l0,0c1.2,2.1,2.3,4.3,3.3,6.6c0.5,1.1,1,2.3,1.3,3.5c0.2,0.6,0.3,1.2,0.4,1.8
				c0,0.6,0,1.2,0.3,1.7c0.1,0.2,0.3,0.4,0.6,0.5c0.2,0.1,0.5,0,0.8-0.1c0.5-0.3,0.9-0.7,1.3-1.2c0.7-1,1.2-2.1,1.7-3.2
				c0.9-2.3,1.6-4.6,2.1-7l0.2,0.2c-2.4-0.4-4.7-1.2-6.8-2.5l0.2-0.4c2,1.2,4.3,2,6.7,2.4l-0.3,0.2l0-0.1l0-0.2l0.2,0l2.3,0.3l0,0
				c3.8,0.2,7.5-0.6,11.2-1.3l0.1,0.5c-3.7,0.7-7.5,1.5-11.3,1.4l0.1-0.6l5.2,0.7l-0.1,0c0.6-0.1,1.2,0.1,1.6,0.5
				c0.4,0.4,0.6,0.9,0.8,1.3c0.3,1,0.4,1.9,0.4,2.9l0-0.1c0.3,1.6,0.7,3.3,1.4,4.8c0.4,0.7,0.9,1.4,1.5,1.5c0.6,0.1,1.2-0.5,1.7-1.2
				c1-1.3,1.6-2.9,2.2-4.5c0.6-1.6,1.1-3.2,1.6-4.8l0.1-0.2l0.2-0.1c0.7-0.3,1.5-0.9,2-1.6c0.6-0.7,1.1-1.4,1.5-2.2
				c0.8-1.6,1.3-3.4,1.6-5.2c0.6-3.6,0.5-7.4,0.2-11.1c-0.4-3.7-1-7.4-1.2-11.2c-0.1-1.9-0.2-3.8-0.1-5.7c0-0.9,0.1-1.9,0.3-2.9
				c0.1-0.5,0.2-1,0.4-1.4c0.1-0.2,0.2-0.5,0.4-0.7c0.1-0.1,0.2-0.2,0.4-0.3c0.2-0.1,0.3-0.2,0.7-0.1l-0.5,0.2c2.1-2.9,4.1-5.9,6-9
				c0.9-1.5,1.8-3.1,2.4-4.8c0.3-0.8,0.5-1.7,0.7-2.5c0.1-0.4,0.1-0.8,0.1-1.2c0-0.2-0.1-0.4-0.1-0.5c0-0.1-0.2-0.2-0.1-0.2
				l-0.2-0.1l-0.1-0.1c-0.6-0.5-1.5-0.7-2.3-0.5c-0.8,0.1-1.7,0.5-2.4,1.1c-1.5,1.1-2.7,2.6-3.7,4.1l-0.9,1.3l0-1.5
				c0-0.8-0.1-1.6-0.2-2.4l1,0c-0.1,1.5,0.1,3,0.3,4.5c0.1,1.5,0.3,3.1-0.1,4.7l-0.9-0.2c0.3-1.4,0.2-2.9,0.1-4.4
				c-0.1-1.5-0.4-3-0.3-4.6l0,0.1c-0.3-2.6-0.8-5.1-2-7.4l-0.3-0.6l0.6-0.1c0.7-0.1,1.4-0.3,2.2-0.5l-0.4,0.5l0-0.4h1l0,0.4
				l-0.6-0.5c5-1.2,9.8-3.1,13.9-6.1c4.1-3,7.4-7.1,9.6-11.7c2.2-4.6,3.6-9.6,4.5-14.7c0.2-1.3,0.5-2.5,0.6-3.8
				c0.2-1.3,0.4-2.5,0.5-3.8c0.2-2.6,0-5.1-0.5-7.6c-1-5-3.3-9.8-6.6-13.7c-3.3-4-7.3-7.3-11.8-9.9C97.8,36,87.4,33.5,77.1,33.4z
				 M77.1,33.3c10.3,0,20.8,2.4,29.8,7.5c4.5,2.6,8.7,5.8,12,9.9c3.3,4,5.8,8.8,6.8,13.9c0.5,2.6,0.7,5.2,0.6,7.8
				c-0.1,1.3-0.2,2.6-0.4,3.9c-0.2,1.3-0.4,2.6-0.6,3.8c-0.9,5.1-2.2,10.2-4.5,14.9c-2.2,4.7-5.5,9-9.8,12.1
				c-4.3,3.1-9.2,5.1-14.3,6.3l-0.6,0.1l0-0.6l0-0.4h1l0,0.4l0,0.4l-0.4,0.1c-0.7,0.2-1.5,0.3-2.2,0.5l0.3-0.7
				c1.2,2.4,1.8,5.1,2.1,7.7l0,0l0,0c-0.1,1.5,0.1,3,0.3,4.5c0.1,1.5,0.3,3.1-0.1,4.7l-0.9-0.2c0.3-1.4,0.3-2.9,0.1-4.4
				c-0.1-1.5-0.3-3-0.3-4.6l1,0c0.1,0.8,0.1,1.6,0.2,2.5l-0.9-0.3c1.1-1.6,2.3-3.2,3.9-4.4c0.8-0.6,1.8-1.1,2.8-1.2
				c1.1-0.1,2.2,0,3.1,0.8l-0.2-0.1c0.5,0.2,0.7,0.5,0.8,0.7c0.1,0.3,0.2,0.5,0.2,0.8c0.1,0.5,0,1-0.1,1.5c-0.2,0.9-0.4,1.8-0.7,2.7
				c-0.7,1.8-1.6,3.3-2.5,4.9c-1.9,3.1-3.9,6.1-6,9.1l-0.2,0.2l-0.3-0.1c0.1,0,0,0,0,0c0,0-0.1,0.1-0.1,0.1
				c-0.1,0.1-0.2,0.3-0.3,0.5c-0.2,0.4-0.3,0.8-0.4,1.3c-0.2,0.9-0.2,1.8-0.3,2.7c-0.1,1.8,0,3.7,0.1,5.6c0.2,3.7,0.8,7.4,1.2,11.2
				c0.4,3.7,0.4,7.6-0.2,11.3c-0.3,1.9-0.9,3.7-1.8,5.4c-0.4,0.9-1,1.7-1.6,2.4c-0.7,0.7-1.4,1.4-2.4,1.8l0.3-0.3
				c-0.5,1.6-1,3.2-1.7,4.8c-0.6,1.6-1.3,3.2-2.3,4.6c-0.3,0.4-0.6,0.7-0.9,1c-0.4,0.3-0.9,0.5-1.4,0.5c-0.6-0.1-1-0.4-1.3-0.8
				c-0.3-0.4-0.5-0.7-0.7-1.1c-0.8-1.6-1.2-3.3-1.5-5l0,0l0,0c0-0.9-0.1-1.9-0.3-2.7c-0.1-0.4-0.3-0.8-0.6-1.1
				c-0.3-0.3-0.7-0.4-1-0.3l-0.1,0l-0.1,0l-5.2-0.7l0.1-0.6c3.8,0.2,7.5-0.6,11.2-1.3l0.1,0.5c-3.7,0.7-7.5,1.5-11.3,1.3l0,0l0,0
				l-2.3-0.3l0.3-0.2l0,0.1l-0.1,0.2l-0.2,0c-2.4-0.4-4.7-1.2-6.8-2.5l0.2-0.4c2,1.2,4.3,2.1,6.7,2.4l0.2,0l0,0.2
				c-0.6,2.4-1.2,4.8-2.1,7.1c-0.5,1.1-1,2.3-1.8,3.3c-0.4,0.5-0.8,1-1.4,1.3c-0.3,0.1-0.6,0.3-1,0.2c-0.4-0.1-0.6-0.3-0.8-0.6
				c-0.4-0.6-0.3-1.3-0.4-1.9c-0.1-0.6-0.2-1.2-0.4-1.8c-0.4-1.2-0.8-2.3-1.3-3.4c-1-2.2-2.1-4.4-3.4-6.5l0,0
				c-3-2.5-5.1-5.9-6.4-9.6c-1.3-3.7-1.8-7.6-1.8-11.4c0-3.9,0.4-7.7,1.1-11.5c0.7-3.8,1.7-7.6,2.9-11.2l0.7-2.1l-0.1,2.1l0,0.2
				h-0.6l0-0.2l0-0.1l0,0c0.2-0.6,0.4-1.3,0.7-1.9l0,0.2l-0.3-0.9l0-0.1l0-0.1c0.5-1.9,1.4-3.7,2.4-5.4c1-1.7,2-3.4,2.6-5.2l0.7,0.2
				c-0.7,1.9-1.7,3.6-2.7,5.3c-1,1.7-1.8,3.4-2.3,5.3l-0.3,1.3l-0.4-1.3l-6.1-19.9l0.2,0.3c-2.2-1-4.3-2.3-6.3-3.7
				c-2-1.5-3.8-3.1-5.3-5c-3.2-3.7-5.5-8.1-7.1-12.6c-1.6-4.6-2.6-9.4-3.1-14.2c-0.6-4.8-0.1-9.8,1.6-14.4c1.6-4.6,4.4-8.7,7.8-12.2
				c3.4-3.5,7.4-6.3,11.7-8.5C57.7,35.4,67.4,33.3,77.1,33.3z"/>
			<path class="st5" d="M47.8,108.5c2.2,1.3,4.7,2.1,7.1,2.6c2.5,0.5,5,0.9,7.5,1.2c2.5,0.3,5,0.6,7.6,0.8c2.5,0.2,5.1,0.3,7.6,0.6
				l-0.1,0.5c-5-0.5-10.1-0.4-15.2-1c-2.5-0.3-5.1-0.7-7.5-1.5C52.3,110.9,50,109.9,47.8,108.5L47.8,108.5z M47.8,108.5
				c2.2,1.3,4.7,2.1,7.1,2.6c2.5,0.5,5,0.9,7.5,1.1c2.5,0.3,5.1,0.4,7.6,0.6c2.5,0.2,5.1,0.4,7.6,0.9l-0.1,0.5
				c-2.5-0.4-5-0.7-7.6-0.8c-2.5-0.1-5.1-0.1-7.7-0.3c-2.6-0.2-5.1-0.6-7.6-1.4C52.3,110.9,50,109.8,47.8,108.5L47.8,108.5z"/>
		</g>
	</g>
	<path class="st9" d="M76.1,113.8c-6-0.7-12.4-0.5-18.6-1.8c-2.4-0.2-4.8-0.5-7-1.1l6,18.3C61.7,112,66.5,114.1,76.1,113.8z"/>
	<ellipse class="st9" cx="73.5" cy="162.3" rx="3.6" ry="4.1"/>
	<path class="st9" d="M67.9,189.4c0.9-1,1.8-2.7,2.8-5.6c-0.4,0.6-0.9,1.3-1.3,1.9c0.4-0.7,0.8-1.3,1.3-1.9c0.5-1.4,1-3.1,1.4-5.1
		c-1.4-0.2-2.9-0.6-4.3-1.2C67.8,181.5,68.4,185.6,67.9,189.4z"/>
	<path class="st9" d="M77.1,33.3c-3.7,0-7.3,0.3-10.8,0.9c21.1,8.6,47.5,23.2,43.9,48.5c-2.7,12.2-19,16.3-23,27.1
		c-6.8,19,4.1,42-4.1,61c-1.7,2.5-4.9,5-8,8.1c3.6,0.1,7.1-0.6,10.7-1.3c-3.6,0.7-7.1,1.4-10.7,1.3c0,0,0,0-0.1,0.1l4.7,0.6
		c0,0,2.4-0.7,2.4,4.4c0,0,2.7,17.3,9.1-4.1c0,0,8.1-2.7,5.4-23c-2.7-20.3,0.6-19.3,0.6-19.3s7.2-9.9,8.6-14.2c1.5-4.5,0-4.7,0-4.7
		s-3.7-3.4-9.1,4.7c0,0,0-1-0.2-2.4c-0.2,3.2,0.9,6.3,0.2,9.1c0.7-2.8-0.3-5.9-0.2-9.1c-0.2-2.1-0.7-5.1-2-7.6
		c0.7-0.1,1.5-0.3,2.2-0.5c0-0.1,0-0.3,0-0.4c0,0.1,0,0.3,0,0.4c20.3-4.9,26.5-18.5,29.1-38.2C129,50.5,103.9,33.3,77.1,33.3z"/>
	<g>
		<path class="st0" d="M74.6,159.4c0,0-15.9-1.3-27.6-31.8s-30.9-11.4-30.9-11.4s18.3-13.1,28.8,14.3c10.5,27.4,24.4,35,29,33.9
			C74,164.3,77.7,162.8,74.6,159.4z"/>
		<g>
			<path class="st5" d="M74.6,159.4c-1.8-0.2-3.4-0.8-5-1.6c-1.6-0.8-3.1-1.7-4.6-2.8c-2.9-2.1-5.4-4.7-7.6-7.5
				c-4.4-5.6-7.7-12-10.3-18.6c-1.2-3.3-2.6-6.6-4.4-9.6c-1.8-3-4.2-5.7-7.3-7.4c-1.5-0.8-3.2-1.4-5-1.5c-1.7-0.2-3.5,0.1-5.2,0.6
				c-3.4,1-6.4,2.9-9,5.3l-0.3-0.4c3-2,6.5-3.2,10.1-3.3c3.6-0.1,7.2,1.3,10,3.5c2.8,2.3,5,5.3,6.7,8.4c0.9,1.6,1.6,3.2,2.3,4.8
				c0.7,1.7,1.3,3.3,2,4.9c2.7,6.5,6.1,12.7,10.3,18.3c2.1,2.8,4.5,5.4,7.2,7.6c1.4,1.1,2.8,2.1,4.4,2.8c0.8,0.4,1.6,0.7,2.4,0.9
				c0.8,0.2,1.7,0.3,2.5,0.2l0,0c0.9-0.4,1.7-1.1,1.8-2.1C75.8,161.1,75.3,160.2,74.6,159.4z M74.7,159.3c0.3,0.4,0.7,0.8,0.9,1.2
				c0.2,0.5,0.4,1,0.3,1.5c0,0.5-0.3,1-0.6,1.4c-0.4,0.4-0.8,0.7-1.3,1l0,0l0,0c-1.8,0.4-3.6-0.2-5.3-0.9c-1.6-0.8-3.1-1.7-4.5-2.8
				c-2.8-2.2-5.3-4.8-7.5-7.6c-4.4-5.6-7.8-11.9-10.6-18.4c-1.4-3.3-2.5-6.6-4.2-9.7c-1.6-3.1-3.7-6-6.3-8.2c-2.6-2.2-6-3.6-9.5-3.5
				c-3.5,0-6.9,1.1-9.8,3l-0.3-0.4c1.3-1.2,2.8-2.3,4.3-3.2c1.5-0.9,3.2-1.6,4.9-2.1c3.4-1,7.3-0.8,10.4,0.9
				c3.2,1.7,5.7,4.4,7.6,7.4c2,3,3.4,6.3,4.7,9.6c2.6,6.5,5.8,12.9,10.1,18.5c2.1,2.8,4.5,5.4,7.3,7.6c1.4,1.1,2.8,2.1,4.4,2.9
				C71.3,158.3,72.9,159,74.7,159.3L74.7,159.3L74.7,159.3z"/>
		</g>
	</g>
	<path class="st9" d="M74.6,159.4c0,0-2-0.2-5.1-1.7c-4,0.5-7.9-2.3-11-4.4c-8.1-12.2-10.8-25.7-20.3-37.9c-4.6-4.6-10.2-5.3-15.1-2
		c6.3-1.2,15.4,0.6,21.8,17.2c10.5,27.4,24.4,35,29,33.9C74,164.3,77.7,162.8,74.6,159.4z"/>
	<g>
		<path class="st0" d="M122,24.8c-11.7,0-21.3,9.5-21.3,21.2c8.8,3.7,13.7,12.1,17.1,21.1c1.4,0.3,2.8,0.4,4.3,0.4
			c11.8,0,21.3-9.6,21.3-21.3C143.3,34.3,133.7,24.8,122,24.8z"/>
		<path class="st5" d="M122,24.8c-2.8,0-5.5,0.6-8.1,1.7c-2.5,1.1-4.8,2.7-6.7,4.7c-1.9,2-3.4,4.3-4.5,6.8c-1,2.5-1.6,5.2-1.6,8
			l-0.3-0.4c2.2,0.9,4.2,2.2,6,3.8c1.8,1.5,3.3,3.3,4.7,5.2c1.4,1.9,2.5,3.9,3.6,6c1.1,2.1,2,4.2,2.8,6.4l-0.1-0.1
			c5.8,1.1,12-0.3,16.6-3.9c2.3-1.7,4.3-4,5.7-6.5c1.4-2.5,2.3-5.4,2.6-8.2c0.6-5.8-1.3-11.8-5.1-16.2c-1.9-2.2-4.3-4-7-5.3
			C127.9,25.5,124.9,24.8,122,24.8z M122,24.7c6-0.1,11.9,2.4,16.1,6.8c2.1,2.2,3.7,4.9,4.7,7.7c1,2.9,1.3,6,1,9
			c-0.5,6.1-3.9,11.8-8.8,15.3c-2.5,1.8-5.3,3-8.3,3.6c-3,0.6-6,0.6-9-0.1l-0.1,0l0-0.1c-0.8-2.2-1.7-4.3-2.7-6.4
			c-1-2.1-2.2-4.1-3.6-5.9c-2.8-3.7-6.4-6.8-10.7-8.4l-0.3-0.1l0-0.3c0-2.8,0.5-5.7,1.7-8.3c1.1-2.6,2.8-5,4.8-6.9
			C110.8,26.8,116.4,24.7,122,24.7z"/>
	</g>
	<g>
		<path class="st0" d="M49.4,46.5c0-0.1,0-0.2,0-0.4c0-11.8-9.6-21.3-21.3-21.3c-11.8,0-21.3,9.6-21.3,21.3
			c0,11.8,9.6,21.3,21.3,21.3c2.2,0,4.4-0.3,6.4-1C36,57.4,40.9,48.9,49.4,46.5z"/>
		<path class="st5" d="M49.4,46.4c0-4.5-1.5-8.8-4.1-12.4c-2.6-3.6-6.3-6.3-10.4-7.7c-2.1-0.7-4.3-1.1-6.4-1.2
			c-2.2-0.1-4.4,0.2-6.5,0.8c-2.1,0.6-4.1,1.6-6,2.8c-1.8,1.3-3.4,2.8-4.8,4.6c-1.3,1.8-2.4,3.8-3.1,5.9c-0.7,2.1-1,4.3-1,6.5
			c0,4.4,1.4,8.8,4,12.3c2.6,3.6,6.2,6.3,10.4,7.7c4.1,1.4,8.7,1.5,12.9,0.2L34,66.4c0.8-4.4,2.3-8.7,4.8-12.3
			c1.3-1.8,2.8-3.5,4.6-4.8C45.3,48,47.3,47,49.4,46.4z M49.5,46.5c-4.2,1.3-7.7,4.3-10,7.9c-2.4,3.6-3.8,7.8-4.4,12.1l0,0.3
			L34.6,67c-4.4,1.4-9.2,1.3-13.5-0.1c-4.3-1.5-8.2-4.4-10.8-8.1c-2.6-3.7-4-8.3-3.8-12.9c0.1-4.5,1.7-9,4.4-12.6
			c2.7-3.6,6.5-6.4,10.8-7.8c2.2-0.7,4.4-1.1,6.7-1.1c2.3,0,4.6,0.4,6.7,1.1c4.3,1.5,8.1,4.4,10.7,8.2C48.4,37.4,49.8,42,49.5,46.5
			L49.5,46.5L49.5,46.5z"/>
	</g>
	<path class="st9" d="M137.1,31c1.6,11.6,0,25-12,22c-8-2-15.3-8.5-24-10.6c-0.2,1.2-0.3,2.3-0.3,3.6c8.8,3.7,13.7,12.1,17.1,21.1
		c1.4,0.3,2.8,0.4,4.3,0.4c11.8,0,21.3-9.6,21.3-21.3C143.3,40.2,140.9,34.9,137.1,31z"/>
	<path class="st9" d="M33.2,25c4,3.1,6.2,8.7,4.6,14.3c-3.4,9-11.5,18.1-10.9,27.9c0.7,0.1,1.4,0.1,2.1,0.1c2.2,0,4.4-0.3,6.4-1
		c1.5-9.1,6.4-17.6,14.9-20c0-0.1,0-0.2,0-0.4C50.4,35.6,43,26.9,33.2,25z"/>
	<g>
		<defs>
			<path id="SVGID_1_" d="M74.6,159.4c0,0-15.9-1.3-27.6-31.8s-30.9-11.4-30.9-11.4s18.3-13.1,28.8,14.3c10.5,27.4,24.4,35,29,33.9
				C74,164.3,77.7,162.8,74.6,159.4z"/>
		</defs>
		<clipPath id="SVGID_2_">
			<use xlink:href="#SVGID_1_"  style="overflow:visible;"/>
		</clipPath>
		<g class="st6">
			<g>
				<path class="st5" d="M74.2,158.9c0.6,1.3,0.6,2.9,0.3,4.3c-0.4,1.4-1.2,2.7-2.3,3.6c0.7-1.3,1.2-2.5,1.6-3.8
					c0.2-0.7,0.3-1.3,0.4-2C74.1,160.3,74.2,159.6,74.2,158.9z"/>
			</g>
			<g>
				<path class="st5" d="M70.4,157.4c0.6,1.3,0.6,2.9,0.3,4.3c-0.4,1.4-1.2,2.7-2.3,3.6c0.7-1.3,1.2-2.5,1.6-3.8
					c0.2-0.7,0.3-1.3,0.4-2C70.4,158.9,70.5,158.2,70.4,157.4z"/>
			</g>
			<g>
				<path class="st5" d="M66,153.9c0.4,1.4,0.2,2.9-0.4,4.3c-0.6,1.3-1.6,2.5-2.9,3.2c0.9-1.2,1.6-2.3,2.2-3.5
					c0.3-0.6,0.5-1.3,0.7-1.9C65.7,155.2,65.9,154.6,66,153.9z"/>
			</g>
			<g>
				<path class="st5" d="M62.7,151.2c0,1.5-0.6,2.9-1.5,4c-0.9,1.1-2.2,2-3.6,2.4c1.1-0.9,2.2-1.8,3-2.8c0.4-0.5,0.8-1.1,1.2-1.7
					C62.1,152.4,62.4,151.8,62.7,151.2z"/>
			</g>
			<g>
				<path class="st5" d="M60.1,146.7c-0.1,1.5-0.8,2.8-1.8,3.9c-1,1.1-2.3,1.9-3.7,2.1c1.2-0.8,2.3-1.6,3.2-2.6
					c0.5-0.5,0.9-1,1.3-1.6C59.5,148,59.8,147.4,60.1,146.7z"/>
			</g>
			<g>
				<path class="st5" d="M56.2,143.8c-0.3,1.4-1.2,2.7-2.3,3.6c-1.1,0.9-2.6,1.5-4,1.6c1.3-0.6,2.5-1.3,3.5-2.2
					c0.5-0.4,1-0.9,1.5-1.4C55.3,144.9,55.8,144.4,56.2,143.8z"/>
			</g>
			<g>
				<path class="st5" d="M54.2,139.3c-0.3,1.4-1.2,2.7-2.3,3.6c-1.1,0.9-2.6,1.5-4,1.6c1.3-0.6,2.5-1.3,3.5-2.2
					c0.5-0.4,1-0.9,1.5-1.4C53.4,140.4,53.8,139.8,54.2,139.3z"/>
			</g>
			<g>
				<path class="st5" d="M52.3,134.7c-0.3,1.4-1.2,2.7-2.3,3.6c-1.1,0.9-2.6,1.5-4,1.6c1.3-0.6,2.5-1.3,3.5-2.2
					c0.5-0.4,1-0.9,1.5-1.4C51.4,135.9,51.9,135.3,52.3,134.7z"/>
			</g>
			<g>
				<path class="st5" d="M50.3,130.2c-0.3,1.4-1.2,2.7-2.3,3.6c-1.1,0.9-2.6,1.5-4,1.6c1.3-0.6,2.5-1.3,3.5-2.2
					c0.5-0.4,1-0.9,1.5-1.4C49.5,131.3,49.9,130.8,50.3,130.2z"/>
			</g>
			<g>
				<path class="st5" d="M48.4,125.7c-0.3,1.4-1.2,2.7-2.3,3.6c-1.1,0.9-2.6,1.5-4,1.6c1.3-0.6,2.5-1.3,3.5-2.2
					c0.5-0.4,1-0.9,1.5-1.4C47.5,126.8,48,126.3,48.4,125.7z"/>
			</g>
			<g>
				<path class="st5" d="M46.4,121.2c-0.3,1.4-1.2,2.7-2.3,3.6c-1.1,0.9-2.6,1.5-4,1.6c1.3-0.6,2.5-1.3,3.5-2.2
					c0.5-0.4,1-0.9,1.5-1.4C45.6,122.3,46,121.8,46.4,121.2z"/>
			</g>
			<g>
				<path class="st5" d="M43.3,117c-0.3,1.4-1.2,2.7-2.3,3.6c-1.1,0.9-2.6,1.5-4,1.6c1.3-0.6,2.5-1.3,3.5-2.2c0.5-0.4,1-0.9,1.5-1.4
					C42.4,118.1,42.9,117.6,43.3,117z"/>
			</g>
			<g>
				<path class="st5" d="M38.1,110.5c0.4,1.4,0.2,2.9-0.3,4.3c-0.6,1.4-1.5,2.6-2.8,3.3c0.8-1.2,1.6-2.3,2.1-3.6
					c0.3-0.6,0.5-1.3,0.6-1.9C37.9,111.9,38,111.3,38.1,110.5z"/>
			</g>
			<g>
				<path class="st5" d="M33.3,108.2c0.5,1.4,0.4,2.9-0.1,4.3c-0.5,1.4-1.4,2.6-2.6,3.4c0.8-1.2,1.4-2.4,1.9-3.7
					c0.2-0.6,0.4-1.3,0.5-2C33.2,109.6,33.3,108.9,33.3,108.2z"/>
			</g>
			<g>
				<path class="st5" d="M27.3,108.6c0.8,1.2,1,2.8,0.8,4.2c-0.2,1.5-0.8,2.9-1.8,3.9c0.5-1.3,0.9-2.6,1.1-4c0.1-0.7,0.1-1.4,0.1-2
					C27.4,110,27.4,109.3,27.3,108.6z"/>
			</g>
		</g>
	</g>
</g>
</svg>
