<?xml version="1.0" encoding="utf-8"?>
<!-- Generator: Adobe Illustrator 15.1.0, SVG Export Plug-In . SVG Version: 6.00 Build 0)  -->
<!DOCTYPE svg PUBLIC "-//W3C//DTD SVG 1.1//EN" "http://www.w3.org/Graphics/SVG/1.1/DTD/svg11.dtd">
<svg version="1.1" id="cloud" xmlns="http://www.w3.org/2000/svg" xmlns:xlink="http://www.w3.org/1999/xlink" x="0px" y="0px"
	 width="178px" height="77.3px" viewBox="0 0 178 77.3" style="enable-background:new 0 0 178 77.3;" xml:space="preserve">
<style type="text/css">
<![CDATA[
	.st0{opacity:0.54;fill:#A9FFFF;}
	.st1{fill:#EBFEFF;}
	.st2{fill:#231F20;}
]]>
</style>
<g>
	<g>
		<g>
			<path class="st1" d="M141.3,6c-11.4,0-21.5,5.7-27.6,14.5c-1.7-0.5-3.5-0.8-5.3-0.8c-9.3,0-17.3,7-20.3,16.8
				c-2.8-3-6.4-4.8-10.4-4.8c-8.6,0-15.5,8.4-15.6,18.7c-3.2,2.8-8.3,5.4-14.8,2c-11-5.8-19.5,1.6-19.5,1.6S13.7,57.1,8,56.4
				c6.7,3.2,28.2,13.7,47.1,10.3c0,0,6.9-2.7,12.1-2.3c2.8,3,6.5,4.9,10.5,5.1c14.5,0.5,21-0.3,23.3-1.9c2.3,1,4.8,1.7,7.4,2.1
				c7.2,1.1,12,0.4,15.3-1.6c5.1,3.2,11.1,5,17.6,5c18.5,0,33.5-15,33.5-33.5S159.8,6,141.3,6z"/>
			<path d="M141.3,6c-5.4,0-10.8,1.3-15.5,3.9c-4.8,2.5-8.9,6.2-11.9,10.7l-0.1,0.1l-0.1,0c-2.7-0.8-5.5-0.9-8.2-0.5
				c-2.7,0.5-5.3,1.6-7.6,3.1c-4.6,3.1-7.7,8-9.4,13.3l-0.2,0.7l-0.5-0.5c-2.1-2.3-5-4-8.1-4.5c-3.1-0.5-6.3,0.2-9,1.9
				c-2.7,1.7-4.8,4.2-6.1,7c-1.4,2.8-2.1,6-2.1,9.2l0,0.2l-0.1,0.1c-2.3,2-5.3,3.5-8.5,3.7c-1.6,0.1-3.2-0.2-4.6-0.7
				c-1.5-0.5-2.8-1.4-4.2-1.9c-2.8-1.1-5.9-1.5-8.9-1c-3,0.5-5.9,1.7-8.2,3.5l-0.1,0l0,0c-3.3,0.7-6.6,1.3-9.9,1.7
				c-1.7,0.2-3.3,0.4-5,0.5c-1.7,0.1-3.4,0.2-5,0l0.1-0.3c7.3,3.6,14.9,6.6,22.8,8.6c3.9,1,8,1.7,12,2c4,0.3,8.1,0.2,12.1-0.5
				l-0.1,0c2-0.7,4-1.3,6-1.8c2-0.4,4.1-0.7,6.2-0.6l0.1,0l0.1,0.1c2,2.1,4.5,3.8,7.3,4.5c1.4,0.4,2.8,0.4,4.3,0.5l4.4,0.1
				c3,0,5.9,0,8.9-0.2c1.5-0.1,2.9-0.2,4.4-0.5c1.4-0.3,2.9-0.6,4-1.3L101,67l0.2,0.1c1.8,0.7,3.6,1.3,5.5,1.7
				c1.9,0.4,3.8,0.6,5.7,0.8c1.9,0.1,3.8,0.1,5.7-0.2c1.9-0.3,3.7-0.8,5.3-1.8l0.3-0.2l0.3,0.2c4.3,2.7,9.3,4.3,14.3,4.8
				c5.1,0.5,10.2-0.2,15-2.1c4.7-1.8,9-4.8,12.5-8.5c3.4-3.7,6-8.3,7.4-13.2s1.7-10.1,0.8-15.2c-0.9-5-3-9.9-6.1-14
				c-3.1-4.1-7.1-7.5-11.7-9.8C151.5,7.3,146.4,6,141.3,6z M141.3,5.9c5.2,0,10.3,1.2,15,3.5c4.6,2.3,8.7,5.7,11.9,9.8
				c3.2,4.1,5.4,9,6.3,14.1c1,5.1,0.8,10.4-0.6,15.5c-1.4,5-4,9.7-7.5,13.6c-3.5,3.9-7.9,6.9-12.8,8.8c-4.9,1.9-10.2,2.6-15.4,2.2
				c-5.2-0.5-10.3-2.2-14.8-4.9l0.6,0c-1.7,1.1-3.7,1.7-5.7,2c-2,0.3-4,0.3-5.9,0.2c-2-0.1-3.9-0.4-5.8-0.8c-1.9-0.4-3.8-1-5.6-1.8
				l0.5-0.1c-1.4,0.9-2.9,1.2-4.4,1.5c-1.5,0.3-3,0.4-4.5,0.5c-3,0.2-6,0.2-8.9,0.2l-4.5-0.1c-1.5,0-3-0.1-4.5-0.5
				c-3-0.8-5.6-2.5-7.6-4.8l0.2,0.1c-2-0.1-4.1,0.1-6.1,0.5c-2,0.4-4,1-5.9,1.7l0,0l0,0c-4.1,0.7-8.2,0.8-12.3,0.4
				c-4.1-0.3-8.1-1.1-12.1-2.1c-4-1-7.8-2.3-11.6-3.8c-3.8-1.5-7.5-3.2-11.2-5l-0.8-0.4l0.9,0.1c1.6,0.2,3.3,0.1,5,0
				c1.7-0.1,3.3-0.3,5-0.6c3.3-0.5,6.6-1.1,9.8-1.8l-0.1,0.1c2.4-1.9,5.4-3.2,8.4-3.7c3.1-0.5,6.3-0.1,9.2,1
				c1.5,0.5,2.8,1.4,4.2,1.8c1.4,0.5,2.9,0.7,4.4,0.7c3-0.1,5.8-1.6,8-3.5l-0.1,0.3c0-3.3,0.7-6.6,2.1-9.5c1.4-3,3.6-5.6,6.4-7.4
				c1.4-0.9,3-1.6,4.6-1.9c1.6-0.3,3.3-0.4,5-0.1c3.3,0.5,6.3,2.3,8.5,4.8l-0.7,0.2c1.7-5.4,5.1-10.4,9.8-13.5
				c2.4-1.6,5-2.7,7.8-3.1c2.8-0.4,5.7-0.2,8.4,0.6l-0.2,0.1c3.1-4.4,7.3-8.1,12.1-10.6C130.4,7.2,135.9,5.9,141.3,5.9z"/>
		</g>
		<g>
			<path class="st1" d="M6.1,55.7c0.4,0.3,1,0.6,1.9,0.7C6.3,55.5,5.5,55.2,6.1,55.7z"/>
			<path d="M6.1,55.7c0.1,0.1,0.3,0.1,0.5,0.1c0.2,0,0.4-0.1,0.5,0c0.1,0.1,0.3,0.2,0.4,0.3c0.1,0.1,0.3,0.2,0.5,0.1L8,56.5
				c-0.2,0-0.5,0-0.7-0.1c-0.2,0-0.4-0.1-0.6-0.2c-0.2-0.1-0.4-0.2-0.5-0.4c0-0.1-0.2-0.2-0.1-0.3c0.1,0,0.1-0.1,0.1-0.1
				c0-0.1,0,0,0,0c0,0,0,0,0,0.1C6.1,55.6,6.1,55.6,6.1,55.7z M6.1,55.7c0,0-0.1-0.1-0.1-0.1c0,0-0.1,0-0.1-0.1c0,0,0,0-0.1-0.1
				c0-0.1,0-0.1,0.1-0.2c0.2-0.1,0.3-0.1,0.5-0.1c0.3,0,0.5,0,0.7,0.1c0.2,0.1,0.4,0.2,0.6,0.4c0.2,0.1,0.3,0.4,0.5,0.5l0.8,0.7
				L8,56.5c-0.2-0.1-0.3-0.1-0.5,0c-0.2,0-0.4,0.1-0.6,0.1c-0.2,0-0.4-0.2-0.5-0.4C6.3,56,6.2,55.8,6.1,55.7z"/>
		</g>
	</g>
	<ellipse class="st0" cx="141.6" cy="34.7" rx="25.7" ry="23.6"/>
	<g>
		<path class="st2" d="M154.3,8.5c-3.9-2-8.3-2.9-12.7-2.6c-4.3,0.3-8.5,2.1-12,4.7c-3.5,2.6-6.4,5.9-8.8,9.5
			c-2.4,3.6-4.1,7.7-4.2,12c-0.1,4.3,1.4,8.5,3.8,12.1c2.4,3.6,5.7,6.5,9.4,8.7c0.9,0.5,1.9,1,2.9,1.4c1,0.4,2.1,0.6,3.1,0.9
			c2.1,0.6,4.2,1.1,6.4,1.4c4.3,0.7,8.7,1,12.8,0c2.1-0.5,4.1-1.4,5.7-2.7c1.7-1.3,3-3,3.8-5c0.9-1.9,1.4-4,1.6-6.2
			c0.2-2.1,0.3-4.3,0-6.4c-0.4-4.3-2.2-8.4-5.3-11.4c-3.1-3-7.3-4.6-11.6-5c-4.3-0.4-8.7,0.5-12.5,2.5c-1.9,1-3.7,2.3-5.1,3.9
			c-1.5,1.6-2.7,3.4-3,5.5c-0.4,2.1,0.1,4.3,1.4,6.1c1.2,1.7,3.1,3,5.1,3.8c2,0.7,4.3,0.8,6.4,0.2c2.1-0.6,3.9-2,5.2-3.8
			c-1.2,1.8-3,3.2-5.1,3.9c-2.1,0.7-4.4,0.6-6.5-0.1c-2.1-0.7-4-2-5.4-3.8c-1.3-1.8-2-4.1-1.6-6.4c0.4-2.2,1.6-4.2,3.1-5.8
			c1.5-1.6,3.3-3,5.2-4.1c3.9-2.1,8.4-3.1,12.9-2.7c4.4,0.3,8.9,2,12.1,5.1c3.3,3.1,5.1,7.5,5.6,11.9c0.3,2.2,0.2,4.4,0,6.7
			c-0.2,2.2-0.7,4.4-1.7,6.5c-0.9,2.1-2.3,3.9-4.1,5.3c-1.8,1.4-3.9,2.3-6.1,2.9c-4.4,1-8.9,0.7-13.2-0.1c-2.2-0.4-4.3-0.9-6.4-1.5
			c-1.1-0.3-2.1-0.6-3.2-1c-1.1-0.4-2.1-0.9-3-1.4c-3.9-2.2-7.2-5.3-9.7-9c-2.5-3.7-4-8.1-3.8-12.6c0.1-4.5,1.9-8.8,4.5-12.4
			c2.5-3.6,5.4-7,9-9.6c3.6-2.6,7.8-4.3,12.2-4.5C146,5.4,150.5,6.3,154.3,8.5z"/>
	</g>
</g>
</svg>
