<?xml version="1.0" encoding="utf-8"?>
<!-- Generator: Adobe Illustrator 15.1.0, SVG Export Plug-In . SVG Version: 6.00 Build 0)  -->
<!DOCTYPE svg PUBLIC "-//W3C//DTD SVG 1.1//EN" "http://www.w3.org/Graphics/SVG/1.1/DTD/svg11.dtd">
<svg version="1.1" id="cloud" xmlns="http://www.w3.org/2000/svg" xmlns:xlink="http://www.w3.org/1999/xlink" x="0px" y="0px"
	 width="279px" height="139px" viewBox="0 0 279 139" style="enable-background:new 0 0 279 139;" xml:space="preserve">
<style type="text/css">
<![CDATA[
	.st0{opacity:0.54;fill:#A9FFFF;}
	.st1{fill:#EBFEFF;}
	.st2{fill:#231F20;}
]]>
</style>
<g>
	<g>
		<g>
			<path class="st1" d="M263.2,103.3c-17.4-4.9-16.8-17.1-29-24.6c-7.3-4.5-13.7-1-17.6,2.5c-4.5-14.4-18.3-25-34.7-25
				c-2.9,0-5.8,0.3-8.5,1c1.8-4.2,2.8-8.8,2.8-13.6c0-19.4-16.2-35.1-36.2-35.1c-16,0-29.5,10-34.3,23.9c-4.3-1.7-9-2.7-14-2.7
				c-13,0-24.5,6.7-30.8,16.7c-1.8-0.3-3.5-0.4-5.4-0.4c-20,0-36.2,15.7-36.2,35.1s16.2,35.1,36.2,35.1c13,0,24.5-6.7,30.8-16.7
				c1.1,0.2,2.1,0.3,3.2,0.3c6.8,12.4,22.5,21.1,40.7,21.1c9.2,0,17.8-2.2,24.9-6c6.6,7.1,16.2,11.5,26.8,11.5
				c3.4,0,6.7-0.5,9.8-1.3c7.8,1.7,17.9,0.5,29.4-8.9c18.9-15.5,42.3-12.5,46.3-11.7C266.7,104.2,265.3,103.8,263.2,103.3z"/>
			<path d="M263.2,103.3c-4.7-1.3-9.1-3.5-12.6-6.9c-3.5-3.4-6-7.6-9.1-11.3c-1.6-1.8-3.3-3.5-5.2-5c-1.9-1.4-4-2.7-6.4-3.2
				c-2.3-0.5-4.8-0.3-7,0.5c-2.2,0.8-4.3,2.2-6,3.8l-0.3,0.2l-0.1-0.3c-1.3-4.3-3.6-8.3-6.4-11.8c-2.9-3.5-6.4-6.3-10.4-8.5
				c-3.9-2.1-8.3-3.5-12.7-4.1c-4.5-0.6-9-0.3-13.4,0.7l-0.8,0.2L173,57c3.7-8.7,3.6-18.9-0.3-27.5c-3.9-8.6-11.5-15.4-20.4-18.5
				c-8.9-3.2-19.1-2.8-27.7,1.2C116,16,109,23.5,105.9,32.4l-0.1,0.2l-0.2-0.1c-7.8-3.2-16.7-3.6-24.8-1.1
				c-8.1,2.5-15.2,7.9-19.7,15L61,46.6l-0.1,0c-6.3-0.9-12.9-0.2-18.8,2.2C36.1,51.1,30.8,55,26.9,60c-3.9,5-6.4,11.1-7.1,17.4
				c-0.7,6.3,0.5,12.8,3.3,18.5c2.8,5.7,7.2,10.6,12.6,14c5.3,3.4,11.6,5.4,17.9,5.7c6.3,0.3,12.7-1,18.4-3.9
				c5.7-2.8,10.5-7.2,13.9-12.6l0.2-0.3l0.3,0c1,0.1,2.1,0.3,3.2,0.3l0.3,0l0.1,0.2c2.9,5.3,7.4,9.7,12.5,13
				c5.1,3.3,10.9,5.5,16.9,6.7c6,1.2,12.2,1.4,18.2,0.6c6-0.8,12-2.6,17.3-5.5l0.3-0.2l0.3,0.3c4.5,4.8,10.3,8.3,16.6,10.1
				c6.3,1.8,13.1,1.8,19.5,0.1l0.1,0l0.1,0c3.3,0.7,6.6,0.9,10,0.4c3.3-0.4,6.5-1.5,9.6-2.9c3-1.4,5.9-3.3,8.5-5.3
				c2.6-2.1,5.4-4.1,8.3-5.8c5.9-3.4,12.4-5.5,19.1-6.6c6.7-1.1,13.5-1.2,20.2-0.1l0,0.1C266,104.1,264.6,103.7,263.2,103.3z
				 M263.2,103.2c1.4,0.4,2.8,0.8,4.2,1.1l0,0.1c-6.7-1-13.5-0.9-20.1,0.2c-6.6,1.1-13.1,3.3-18.9,6.7c-2.9,1.7-5.6,3.7-8.2,5.8
				c-2.7,2.1-5.5,4-8.6,5.4c-3.1,1.5-6.3,2.5-9.7,3c-3.4,0.5-6.8,0.4-10.2-0.3l0.2,0c-6.5,1.8-13.4,1.8-19.9,0
				c-6.5-1.7-12.5-5.3-17.1-10.2l0.6,0.1c-5.5,2.9-11.5,4.8-17.7,5.6c-6.2,0.8-12.4,0.6-18.5-0.6c-6.1-1.2-12-3.5-17.2-6.9
				c-5.2-3.4-9.8-7.9-12.8-13.4l0.4,0.2c-1.1-0.1-2.2-0.2-3.2-0.3l0.5-0.2c-3.5,5.5-8.5,10-14.3,12.9c-5.8,2.9-12.4,4.3-18.9,4
				c-6.5-0.3-12.9-2.3-18.3-5.9c-5.5-3.5-9.9-8.5-12.8-14.4c-2.9-5.8-4-12.5-3.3-18.9c0.7-6.4,3.3-12.6,7.3-17.7
				c4-5.1,9.4-9,15.4-11.4c6-2.3,12.6-3.1,19-2.1l-0.2,0.1c2.3-3.6,5.3-6.8,8.7-9.3c3.4-2.6,7.3-4.5,11.3-5.8
				c8.1-2.5,17.1-2.2,25.1,1l-0.3,0.1c3.1-9.1,10.2-16.7,18.9-20.7c8.7-4.1,19.1-4.5,28.1-1.3c9.1,3.2,16.9,10.1,20.9,18.9
				c2,4.4,3.1,9.2,3.2,14c0,4.8-0.9,9.7-2.9,14.1l-0.5-0.6c4.5-1,9.1-1.2,13.6-0.6c4.5,0.6,8.9,2.1,12.9,4.3c4,2.2,7.6,5.2,10.5,8.7
				c2.9,3.5,5.1,7.6,6.5,12l-0.4-0.1c1.8-1.6,3.9-3,6.2-3.8c2.3-0.8,4.9-1.1,7.2-0.5c2.4,0.5,4.6,1.8,6.5,3.3
				c1.9,1.5,3.7,3.2,5.2,5.1c3.1,3.7,5.6,8,9.1,11.3C254.1,99.6,258.6,101.9,263.2,103.2z"/>
		</g>
		<g>
			<path class="st1" d="M267.4,104.3C268.2,104.5,268.2,104.5,267.4,104.3L267.4,104.3z"/>
			<path d="M267.4,104.3L267.4,104.3c0.2-0.4,0.3-0.4,0.4-0.3c0,0.1,0.1,0.2,0.1,0.3c0,0,0,0,0.1,0c0,0,0,0,0,0c0,0,0,0,0,0l0,0
				c0,0,0,0-0.1,0c0,0-0.1,0-0.2,0.1c-0.1,0.1-0.1,0.2,0,0.2c0,0.1,0.1,0.1,0.1,0.1c0.1,0.1,0.1,0.1,0.1,0.1c0,0,0,0,0,0.1
				c0,0-0.1,0-0.1,0.1c-0.1,0-0.1,0-0.2,0C267.5,104.9,267.4,104.7,267.4,104.3L267.4,104.3z M267.4,104.3c0.2-0.3,0.3-0.4,0.4-0.4
				c0.1,0,0.1,0,0.1,0.1c0,0,0,0,0.1,0.1c0,0,0,0,0,0.1c0,0,0,0,0.1,0.1c0,0,0,0,0.1,0.1c0,0,0,0.2,0,0.2c-0.1,0.1-0.1,0.1-0.2,0.1
				c-0.1,0-0.1,0-0.1,0l0,0c0,0,0,0,0,0c0,0,0,0,0-0.1c0,0,0,0-0.1,0c-0.1,0-0.1,0.2-0.2,0.2C267.5,104.9,267.4,104.7,267.4,104.3
				L267.4,104.3L267.4,104.3z"/>
		</g>
	</g>
	<ellipse class="st0" cx="51.9" cy="79.2" rx="25.2" ry="25.2"/>
	<ellipse class="st0" cx="187.3" cy="86.4" rx="25.3" ry="23.2"/>
	<g>
		<path class="st2" d="M45.6,47.1c-3.3,2.3-6.2,5.1-8.8,8.1c-2.6,3-4.8,6.4-6.5,10c-0.8,1.8-1.6,3.7-2.1,5.6c-0.6,1.9-1,3.9-1.1,5.8
			c-0.3,3.9,0.4,7.9,2,11.5c1.6,3.6,4,6.8,7.1,9.3c3.1,2.5,6.8,4.1,10.6,4.7c1.9,0.3,3.9,0.3,5.9,0c2-0.3,3.9-0.7,5.8-1.2
			c3.8-1.1,7.4-2.8,10.5-5.3c3.1-2.4,5.6-5.6,6.8-9.4c1.3-3.7,1.3-7.8,0.3-11.6c-0.5-1.9-1.4-3.6-2.6-5.1c-1.3-1.5-2.8-2.7-4.6-3.5
			c-3.5-1.7-7.5-2.3-11.5-2c-3.9,0.4-7.8,1.7-10.8,4.3c-1.5,1.3-2.7,2.9-3.4,4.7c-0.8,1.8-1.1,3.8-0.6,5.7c0.4,1.9,1.8,3.5,3.4,4.5
			c1.7,1,3.6,1.6,5.6,1.8c2,0.2,4-0.1,5.8-0.9c0.9-0.4,1.7-1,2.4-1.8c0.6-0.8,1.1-1.7,1.2-2.7c-0.1,1-0.5,1.9-1.2,2.7
			c-0.6,0.8-1.5,1.4-2.3,1.9c-1.8,0.9-3.9,1.2-5.9,1.1c-2-0.1-4-0.7-5.8-1.7c-1.7-1-3.2-2.7-3.7-4.7c-0.5-2-0.2-4.2,0.6-6
			c0.8-1.9,2-3.6,3.5-4.9c3.1-2.7,7.1-4.2,11.1-4.6c4-0.4,8.2,0.1,11.9,1.9c1.8,0.9,3.5,2.2,4.9,3.7c1.4,1.6,2.3,3.5,2.8,5.5
			c1,4,1,8.2-0.3,12.1c-1.3,3.9-3.9,7.3-7.1,9.8c-3.2,2.5-7,4.3-10.8,5.4c-1.9,0.6-3.9,1-5.9,1.2c-2,0.3-4.1,0.3-6.1,0
			c-8.2-1.2-15.2-7.1-18.3-14.5c-1.6-3.7-2.2-7.9-1.9-11.9c0.2-2,0.6-4,1.2-5.9c0.6-1.9,1.3-3.8,2.2-5.6c1.8-3.6,4.1-7,6.7-10
			C39.3,52,42.3,49.3,45.6,47.1z"/>
	</g>
	<g>
		<path class="st2" d="M204.1,63.5c2.1,3,3.8,6.2,5.3,9.5c1.5,3.3,2.6,6.9,3.1,10.5c0.5,3.6,0.4,7.4-0.9,10.9
			c-1.2,3.5-3.6,6.6-6.5,8.8c-2.9,2.3-6.3,3.8-9.8,5c-3.5,1.1-7.2,1.7-10.9,1.4c-3.7-0.3-7.3-1.7-10.4-3.8c-3-2.1-5.5-5-7.4-8.2
			c-1.8-3.2-3.1-6.7-3.6-10.4c-0.2-1.8-0.3-3.7,0.2-5.6c0.1-0.5,0.3-0.9,0.5-1.4c0.2-0.4,0.4-0.8,0.7-1.2c0.5-0.8,0.9-1.6,1.5-2.4
			c2.1-3,4.6-5.8,7.9-7.7c1.6-1,3.4-1.7,5.2-2c1.8-0.4,3.7-0.4,5.6,0c3.7,0.7,7,2.5,9.9,4.7c1.5,1.1,2.8,2.4,4,3.9
			c1.1,1.5,2,3.2,2.4,5c0.4,1.8,0.1,3.8-0.6,5.5c-0.7,1.7-1.9,3.2-3.4,4.3c-1.4,1.1-3.1,2-4.9,2.4c-1.8,0.4-3.7,0.3-5.3-0.5
			c1.6,0.8,3.6,0.8,5.3,0.4c1.8-0.4,3.4-1.3,4.8-2.5c1.4-1.2,2.5-2.6,3.2-4.3c0.7-1.7,0.9-3.5,0.5-5.2c-0.4-1.7-1.2-3.4-2.3-4.7
			c-1.1-1.4-2.5-2.6-3.9-3.7c-2.9-2.1-6.1-3.9-9.7-4.5c-3.5-0.6-7.2,0.2-10.2,2c-3.1,1.8-5.5,4.5-7.5,7.5c-0.5,0.7-1,1.5-1.4,2.3
			c-0.2,0.4-0.4,0.8-0.6,1.2c-0.2,0.4-0.3,0.8-0.5,1.2c-0.4,1.7-0.4,3.5-0.2,5.2c0.5,3.5,1.8,7,3.5,10.1c1.8,3.1,4.2,5.9,7.1,7.9
			c2.9,2.1,6.3,3.4,9.9,3.7c3.6,0.3,7.2-0.2,10.6-1.3c3.4-1.1,6.8-2.6,9.6-4.8c2.9-2.1,5.2-5,6.4-8.4c1.3-3.4,1.4-7.1,1-10.6
			c-0.4-3.6-1.5-7.1-2.9-10.5C207.8,69.8,206.2,66.6,204.1,63.5z"/>
	</g>
</g>
</svg>
