<?xml version="1.0" encoding="utf-8"?>
<!-- Generator: Adobe Illustrator 15.1.0, SVG Export Plug-In . SVG Version: 6.00 Build 0)  -->
<!DOCTYPE svg PUBLIC "-//W3C//DTD SVG 1.1//EN" "http://www.w3.org/Graphics/SVG/1.1/DTD/svg11.dtd">
<svg version="1.1" id="animals" xmlns="http://www.w3.org/2000/svg" xmlns:xlink="http://www.w3.org/1999/xlink" x="0px" y="0px"
	 width="264px" height="268px" viewBox="0 0 264 268" style="enable-background:new 0 0 264 268;" xml:space="preserve">
<style type="text/css">
<![CDATA[
	.st0{opacity:0.45;fill:#B73220;}
	.st1{opacity:0.33;}
	.st2{opacity:0.45;}
	.st3{opacity:0.62;fill:#B73220;}
	.st4{fill:#EFA075;}
	.st5{opacity:0.45;fill:#FFE33B;}
	.st6{clip-path:url(#SVGID_2_);}
	.st7{clip-path:url(#SVGID_4_);}
	.st8{fill:#C42612;}
	.st9{fill:#FF5033;}
	.st10{fill:#FFE33B;}
	.st11{opacity:0.48;fill:#AA931F;}
	.st12{opacity:0.62;fill:#A05737;}
]]>
</style>
<g>
	<g>
		<path class="st9" d="M168.9,57.6c0,0,11.6,5.2,25.9-6c14.3-11.3,23.8-13.9,23.8-13.9s5.1,9.5-7.1,14.1c0,0,13.5,6-4.6,12.1
			c0,0,9.9,5.1-4.9,9.3c-14.8,4.2-22.3-2-22.3-2L168.9,57.6z"/>
		<g>
			<path d="M168.9,57.5c2.2,0.8,4.5,1.1,6.8,1c2.3,0,4.6-0.4,6.8-1c4.4-1.2,8.5-3.5,12.1-6.4c3.6-2.9,7.5-5.5,11.5-7.9
				c4-2.3,8.2-4.4,12.6-5.9l0.1,0l0.1,0.1c0.7,1.4,1,2.9,1,4.5c0,1.5-0.3,3.1-1.1,4.4c-0.7,1.4-1.8,2.5-3.1,3.4
				c-1.2,0.9-2.6,1.6-4,2.2l0-0.5c1.5,0.7,3,1.6,4.1,2.9c0.5,0.7,1,1.5,1,2.5c0,0.9-0.4,1.8-1,2.5c-1.1,1.4-2.6,2.2-4.1,3
				c-1.5,0.8-3,1.4-4.6,1.9l0.1-0.9c0.8,0.4,1.4,0.9,2.1,1.5c0.6,0.6,1.2,1.3,1.4,2.3c0.2,1-0.2,2-0.8,2.7c-0.6,0.7-1.3,1.2-2,1.6
				c-1.5,0.8-3,1.4-4.6,1.9c-1.6,0.5-3.1,0.9-4.7,1.2c-3.2,0.6-6.5,0.8-9.8,0.4c-3.2-0.5-6.5-1.4-9.2-3.4l0,0l0,0l-5.4-6.9l-5.4-7.1
				L168.9,57.5z M169.1,57.7l5.5,6.5l5.6,6.7l-0.1-0.1c2.5,1.8,5.7,2.7,8.8,3.1c3.1,0.4,6.3,0.2,9.5-0.4c1.6-0.3,3.1-0.7,4.6-1.2
				c1.5-0.5,3-1,4.4-1.8c0.7-0.4,1.3-0.8,1.8-1.4s0.7-1.2,0.6-1.8c-0.3-1.3-1.7-2.4-2.9-3.1l-0.9-0.5l1-0.3c1.5-0.5,3.1-1.1,4.5-1.8
				c1.4-0.7,2.9-1.5,3.9-2.7c0.5-0.6,0.8-1.3,0.8-2c0-0.7-0.3-1.4-0.8-2.1c-1-1.2-2.4-2.2-3.8-2.9l-0.6-0.3l0.6-0.2
				c1.4-0.5,2.8-1.2,4-2c1.2-0.8,2.3-1.9,3-3.2c0.7-1.3,1.1-2.8,1.1-4.3c0-1.5-0.4-3-1.1-4.3l0.2,0.1c-2.2,0.7-4.3,1.7-6.3,2.7
				c-2.1,1.1-4.1,2.2-6,3.4c-3.9,2.5-7.7,5.1-11.3,8c-3.7,2.8-7.9,5.2-12.4,6.3C178.2,59.3,173.4,59.4,169.1,57.7z"/>
		</g>
	</g>
	<path class="st0" d="M178.5,58.7c-5.8,0.6-9.5-1.1-9.5-1.1l10.9,13.6c0,0,7.5,6.2,22.3,2c14.8-4.2,4.9-9.3,4.9-9.3
		c7.7-2.6,9.7-5.3,9.4-7.4C204.9,64.7,188.3,72,178.5,58.7z"/>
	<g>
		<path class="st9" d="M100.9,55.6c0,0-11.6,5.2-25.9-6C60.6,38.4,51.2,35.7,51.2,35.7s-5.1,9.5,7.1,14.1c0,0-13.5,6,4.6,12.1
			c0,0-9.9,5.1,4.9,9.3c14.8,4.2,22.3-2,22.3-2L100.9,55.6z"/>
		<g>
			<path d="M100.8,55.7c-4.3,1.7-9.1,1.7-13.6,0.5c-4.6-1.1-8.7-3.5-12.4-6.3c-3.6-2.8-7.4-5.5-11.3-8c-2-1.2-4-2.4-6-3.4
				c-2-1-4.2-2-6.3-2.7l0.2-0.1c-0.6,1.3-1,2.8-1.1,4.3c0,1.5,0.3,3,1.1,4.3c0.7,1.3,1.8,2.4,3,3.2c1.2,0.9,2.6,1.5,4,2l0.6,0.2
				l-0.6,0.3c-1.4,0.7-2.8,1.6-3.8,2.9c-0.5,0.6-0.8,1.3-0.8,2.1c0,0.7,0.3,1.4,0.8,2c1,1.2,2.4,2,3.9,2.7c1.5,0.7,3,1.3,4.5,1.8
				l1,0.3l-0.9,0.5c-1.3,0.7-2.7,1.8-2.9,3.1c-0.1,0.6,0.1,1.3,0.6,1.8c0.5,0.5,1.1,1,1.8,1.4c1.3,0.8,2.8,1.3,4.4,1.8
				c1.5,0.5,3.1,0.9,4.6,1.2c3.1,0.6,6.3,0.8,9.5,0.4c3.1-0.4,6.3-1.3,8.8-3.1L89.7,69l5.6-6.7L100.8,55.7z M101.1,55.5l-5.4,7.1
				l-5.4,6.9l0,0l0,0c-2.7,2-5.9,3-9.2,3.4c-3.3,0.5-6.6,0.2-9.8-0.4c-1.6-0.3-3.2-0.7-4.7-1.2c-1.6-0.5-3.1-1-4.6-1.9
				c-0.7-0.4-1.4-0.9-2-1.6c-0.6-0.7-1-1.7-0.8-2.7c0.2-1,0.8-1.7,1.4-2.3c0.6-0.6,1.3-1.1,2.1-1.5l0.1,0.9
				c-1.6-0.5-3.1-1.2-4.6-1.9c-1.5-0.8-3-1.6-4.1-3c-0.5-0.7-1-1.5-1-2.5c0-0.9,0.4-1.8,1-2.5c1.1-1.3,2.6-2.2,4.1-2.9l0,0.5
				c-1.4-0.6-2.8-1.3-4-2.2c-1.2-0.9-2.3-2-3.1-3.4c-0.7-1.3-1.1-2.9-1.1-4.4c0-1.5,0.4-3.1,1-4.5l0.1-0.1l0.1,0
				c4.4,1.4,8.6,3.5,12.6,5.9c4,2.3,7.8,5,11.5,7.9c3.6,2.9,7.7,5.1,12.1,6.4c2.2,0.6,4.5,1,6.8,1c2.3,0,4.6-0.3,6.8-1L101.1,55.5z"
				/>
		</g>
	</g>
	<path class="st0" d="M95.1,56.8C82,63.9,67.7,58.3,54.9,52c-2.4,2.3-3.4,6.1,7.9,9.9c0,0-9.9,5.1,4.9,9.3c14.8,4.2,22.3-2,22.3-2
		l10.9-13.6C100.9,55.6,98.7,56.6,95.1,56.8z"/>
	<g>
		<path class="st10" d="M117.8,56.7l-5.8-15.2l5.7-17.2c0.5-1.5-0.3-3.1-1.8-3.6c-1.5-0.5-3.1,0.3-3.6,1.8l-3.5,10.6l-6.8-17.8
			c-0.8-2.1-3.2-3.2-5.3-2.4c-2.1,0.8-3.2,3.2-2.4,5.3l15.7,41.4c0.8,2.1,3.2,3.2,5.3,2.4S118.6,58.8,117.8,56.7z"/>
		<g>
			<path d="M117.8,56.7l-2.9-7.6l-3-7.6l0-0.1l0-0.1c0.9-3,1.9-6.1,2.8-9.1c0.5-1.5,1-3,1.5-4.5l0.8-2.3c0.2-0.7,0.6-1.5,0.6-2.1
				c0-0.7-0.3-1.3-0.8-1.8c-0.5-0.5-1.2-0.7-1.9-0.6c-0.7,0.1-1.3,0.5-1.7,1c-0.2,0.3-0.3,0.6-0.5,1l-0.4,1.1c-1,3-2.1,6-3.1,9
				l-0.2,0.5l-0.2-0.5c-1.3-3.5-2.6-6.9-4-10.4l-2-5.2c-0.3-0.8-0.7-1.8-1-2.6c-0.4-0.8-1.1-1.4-1.9-1.7c-1.6-0.7-3.6-0.1-4.5,1.2
				c-0.5,0.7-0.7,1.5-0.7,2.4c0,0.4,0.1,0.8,0.3,1.2l0.5,1.3l4,10.4c2.6,7,5.3,13.9,7.8,20.9l1.9,5.3l0.9,2.6
				c0.2,0.4,0.3,0.9,0.5,1.3c0.2,0.4,0.4,0.8,0.7,1.1c0.6,0.6,1.5,1.1,2.4,1.2c0.9,0.1,1.8-0.1,2.6-0.6
				C117.7,60.5,118.5,58.4,117.8,56.7z M117.9,56.7c0.7,1.8,0,4-1.6,5c-1.6,1.1-3.9,0.9-5.3-0.5c-0.4-0.3-0.6-0.7-0.9-1.2
				c-0.2-0.4-0.4-0.9-0.5-1.3l-1-2.6l-2.1-5.2c-2.8-6.9-5.4-13.9-8-20.8l-3.9-10.4L94,18.4c-0.2-0.5-0.3-1-0.3-1.5
				c0-1,0.3-2.1,0.9-2.9c1.2-1.7,3.6-2.3,5.5-1.4c0.9,0.4,1.7,1.2,2.1,2.1c0.4,0.9,0.7,1.8,1,2.6l1.9,5.2c1.3,3.5,2.6,7,3.9,10.4
				l-0.3,0c1-3,1.9-6,2.9-9.1l0.4-1.1c0.1-0.4,0.2-0.8,0.5-1.2c0.5-0.7,1.3-1.3,2.2-1.4c0.9-0.1,1.8,0.1,2.5,0.7
				c0.7,0.6,1.1,1.5,1.1,2.4c0,0.2,0,0.5-0.1,0.7c0,0.1,0,0.2-0.1,0.3l-0.1,0.3l-0.4,1.1l-0.7,2.3c-0.5,1.5-1,3-1.5,4.5
				c-1,3-2,6-3.1,9l0-0.2l2.7,7.7L117.9,56.7z"/>
		</g>
	</g>
	<path class="st11" d="M112.3,22.7l-3.4,10.4l-6.8-17.8c-0.5-1.4-1.7-2.3-3-2.6c4.4,7.4,6.7,15.9,7.9,24.3
		C111.4,33.7,112.2,27.7,112.3,22.7z"/>
	<path class="st11" d="M117.8,56.7l-4.8-12.6c-1.5,2.7-3.5,5-6.4,6.3l3.5,9.2c0.8,2.1,3.2,3.2,5.3,2.4S118.6,58.8,117.8,56.7z"/>
	<g>
		<defs>
			<path id="SVGID_1_" d="M117.8,56.7l-5.8-15.2l5.7-17.2c0.5-1.5-0.3-3.1-1.8-3.6c-1.5-0.5-3.1,0.3-3.6,1.8l-3.5,10.6l-6.8-17.8
				c-0.8-2.1-3.2-3.2-5.3-2.4c-2.1,0.8-3.2,3.2-2.4,5.3l15.7,41.4c0.8,2.1,3.2,3.2,5.3,2.4S118.6,58.8,117.8,56.7z"/>
		</defs>
		<clipPath id="SVGID_2_">
			<use xlink:href="#SVGID_1_"  style="overflow:visible;"/>
		</clipPath>
		<g class="st6">
			<g>
				<path d="M91.6,21.9c1.2,0.1,2.4,0,3.6-0.1c1.2-0.2,2.4-0.5,3.5-0.9c2.3-0.8,4.3-2.2,6.1-3.8c-1.4,2.1-3.5,3.7-5.8,4.5
					C96.6,22.4,94,22.6,91.6,21.9z"/>
			</g>
			<g>
				<path d="M89.6,17.5c1.2,0.1,2.4,0,3.6-0.1c1.2-0.2,2.4-0.5,3.5-0.9c2.3-0.8,4.3-2.2,6.1-3.8c-1.4,2.1-3.5,3.7-5.8,4.5
					C94.6,18,91.9,18.2,89.6,17.5z"/>
			</g>
			<g>
				<path d="M93.5,26.9c1.2,0.1,2.4,0,3.6-0.1c1.2-0.2,2.4-0.5,3.5-0.9c2.3-0.8,4.3-2.2,6.1-3.8c-1.4,2.1-3.5,3.7-5.8,4.5
					C98.5,27.5,95.9,27.7,93.5,26.9z"/>
			</g>
			<g>
				<path d="M98.2,38.9c1.9-0.4,3.7-1,5.5-1.6c1.8-0.6,3.6-1.3,5.3-2.2c1.7-0.8,3.3-1.8,4.9-2.9c1.6-1.1,3-2.3,4.4-3.7
					c-1.1,1.6-2.5,2.9-4,4.1c-1.5,1.2-3.2,2.2-4.9,3.1c-1.7,0.8-3.5,1.6-5.4,2.1C102.1,38.4,100.2,38.7,98.2,38.9z"/>
			</g>
			<g>
				<path d="M95,34.2c2.2-0.5,4.3-1.1,6.3-1.8c2.1-0.7,4.1-1.5,6.1-2.4c2-0.9,3.9-1.9,5.8-3.1c1.9-1.2,3.6-2.5,5.3-3.9
					c-1.4,1.7-3.1,3.1-4.9,4.4c-1.8,1.3-3.8,2.3-5.8,3.3c-2,0.9-4.1,1.7-6.3,2.3C99.4,33.5,97.2,34,95,34.2z"/>
			</g>
			<g>
				<path d="M100.1,42.8c1.2,0.1,2.4,0,3.6-0.1c1.2-0.2,2.4-0.5,3.5-0.9c2.3-0.8,4.3-2.2,6.1-3.8c-1.4,2.1-3.5,3.7-5.8,4.5
					C105.1,43.4,102.5,43.6,100.1,42.8z"/>
			</g>
			<g>
				<path d="M101.6,47.9c1.2,0.1,2.4,0,3.6-0.1c1.2-0.2,2.4-0.5,3.5-0.9c2.3-0.8,4.3-2.2,6.1-3.8c-1.4,2.1-3.5,3.7-5.8,4.5
					C106.7,48.4,104,48.6,101.6,47.9z"/>
			</g>
			<g>
				<path d="M103.7,53c1.2,0.1,2.4,0,3.6-0.1c1.2-0.2,2.4-0.5,3.5-0.9c2.3-0.8,4.3-2.2,6.1-3.8c-1.4,2.1-3.5,3.7-5.8,4.5
					C108.7,53.5,106,53.7,103.7,53z"/>
			</g>
		</g>
	</g>
	<g>
		<path class="st10" d="M147.2,56.7l5.8-15.2l-5.6-17.2c-0.5-1.5,0.3-3.1,1.8-3.6c1.5-0.5,3.1,0.3,3.6,1.8l3.5,10.6l6.8-17.8
			c0.8-2.1,3.2-3.2,5.3-2.4c2.1,0.8,3.2,3.2,2.4,5.3l-15.7,41.4c-0.8,2.1-3.2,3.2-5.3,2.4C147.5,61.2,146.4,58.8,147.2,56.7z"/>
		<g>
			<path d="M147.2,56.7L150,49l2.7-7.7l0,0.2c-1.1-3-2.1-6-3.1-9c-0.5-1.5-1-3-1.5-4.5l-0.7-2.3l-0.4-1.1l-0.1-0.3
				c0-0.1-0.1-0.2-0.1-0.3c0-0.2-0.1-0.5-0.1-0.7c0-0.9,0.4-1.8,1.1-2.4c0.7-0.6,1.6-0.8,2.5-0.7c0.9,0.1,1.7,0.6,2.2,1.4
				c0.2,0.4,0.4,0.8,0.5,1.2l0.4,1.1c0.9,3,1.9,6,2.9,9.1l-0.3,0c1.4-3.5,2.6-7,3.9-10.4l1.9-5.2c0.3-0.9,0.6-1.7,1-2.6
				c0.4-0.9,1.2-1.6,2.1-2.1c1.8-0.9,4.2-0.3,5.5,1.4c0.6,0.8,0.9,1.8,0.9,2.9c0,0.5-0.1,1-0.3,1.5l-0.5,1.3l-3.9,10.4
				c-2.6,6.9-5.2,13.9-8,20.8l-2.1,5.2l-1,2.6c-0.2,0.4-0.3,0.9-0.5,1.3c-0.2,0.4-0.5,0.8-0.9,1.2c-1.4,1.4-3.7,1.5-5.3,0.5
				C147.2,60.6,146.5,58.4,147.2,56.7z M147.3,56.7c-0.7,1.7,0,3.8,1.6,4.8c0.8,0.5,1.7,0.7,2.6,0.6c0.9-0.1,1.7-0.5,2.4-1.2
				c0.3-0.3,0.6-0.7,0.7-1.1c0.2-0.4,0.3-0.9,0.5-1.3l0.9-2.6l1.9-5.3c2.5-7,5.2-13.9,7.8-20.9l4-10.4l0.5-1.3
				c0.2-0.4,0.3-0.8,0.3-1.2c0-0.8-0.2-1.7-0.7-2.4c-1-1.4-2.9-1.9-4.5-1.2c-0.8,0.3-1.5,0.9-1.9,1.7c-0.4,0.8-0.7,1.7-1,2.6l-2,5.2
				c-1.3,3.5-2.7,6.9-4,10.4l-0.2,0.5l-0.2-0.5c-1-3-2-6-3.1-9l-0.4-1.1c-0.1-0.4-0.2-0.7-0.5-1c-0.4-0.6-1.1-1-1.7-1
				c-0.7-0.1-1.4,0.1-1.9,0.6c-0.5,0.5-0.8,1.1-0.8,1.8c0,0.6,0.4,1.4,0.6,2.1l0.8,2.3c0.5,1.5,1,3,1.5,4.5c1,3,1.9,6,2.8,9.1l0,0.1
				l0,0.1l-3,7.6L147.3,56.7z"/>
		</g>
	</g>
	<path class="st11" d="M157.4,35.7c7.4-2.5,2.2-17.4,10.9-22.8c0,0,0,0,0,0c-2.1-0.8-4.5,0.3-5.3,2.4l-6.8,17.8l-3.5-10.6
		c-0.5-1.4-1.9-2.2-3.2-1.9C155.9,24.4,150.2,38,157.4,35.7z"/>
	<path class="st11" d="M147.2,56.7c-0.8,2.1,0.3,4.5,2.4,5.3c2.1,0.8,4.5-0.3,5.3-2.4l4.5-11.9c-2.4-1.4-4.7-3.1-6.8-5.3L147.2,56.7
		z"/>
	<g>
		<defs>
			<path id="SVGID_3_" d="M147.2,56.7l5.8-15.2l-5.6-17.2c-0.5-1.5,0.3-3.1,1.8-3.6c1.5-0.5,3.1,0.3,3.6,1.8l3.5,10.6l6.8-17.8
				c0.8-2.1,3.2-3.2,5.3-2.4c2.1,0.8,3.2,3.2,2.4,5.3l-15.7,41.4c-0.8,2.1-3.2,3.2-5.3,2.4C147.5,61.2,146.4,58.8,147.2,56.7z"/>
		</defs>
		<clipPath id="SVGID_4_">
			<use xlink:href="#SVGID_3_"  style="overflow:visible;"/>
		</clipPath>
		<g class="st7">
			<g>
				<path d="M173.4,21.9c-2.4,0.7-5,0.5-7.4-0.3c-2.4-0.9-4.5-2.5-5.8-4.5c1.8,1.7,3.8,3,6.1,3.8c1.1,0.4,2.3,0.7,3.5,0.9
					C171,21.9,172.2,22,173.4,21.9z"/>
			</g>
			<g>
				<path d="M175.5,17.5c-2.4,0.7-5,0.5-7.4-0.3c-2.4-0.9-4.5-2.5-5.8-4.5c1.8,1.7,3.8,3,6.1,3.8c1.1,0.4,2.3,0.7,3.5,0.9
					C173.1,17.5,174.3,17.6,175.5,17.5z"/>
			</g>
			<g>
				<path d="M171.6,26.9c-2.4,0.7-5,0.5-7.4-0.3c-2.4-0.9-4.5-2.5-5.8-4.5c1.8,1.7,3.8,3,6.1,3.8c1.1,0.4,2.3,0.7,3.5,0.9
					C169.1,27,170.3,27,171.6,26.9z"/>
			</g>
			<g>
				<path d="M166.8,38.9c-1.9-0.1-3.8-0.5-5.7-1c-1.9-0.5-3.7-1.2-5.4-2.1c-1.7-0.9-3.4-1.9-4.9-3.1c-1.5-1.2-2.9-2.6-4-4.1
					c1.4,1.3,2.8,2.6,4.4,3.7c1.6,1.1,3.2,2,4.9,2.9c1.7,0.8,3.5,1.6,5.3,2.2C163.1,37.9,165,38.4,166.8,38.9z"/>
			</g>
			<g>
				<path d="M170.1,34.2c-2.2-0.2-4.4-0.7-6.5-1.2c-2.1-0.6-4.2-1.4-6.3-2.3c-2-0.9-4-2-5.8-3.3c-1.8-1.3-3.5-2.7-4.9-4.4
					c1.7,1.5,3.4,2.8,5.3,3.9s3.8,2.2,5.8,3.1c2,0.9,4,1.7,6.1,2.4C165.8,33.1,167.9,33.7,170.1,34.2z"/>
			</g>
			<g>
				<path d="M165,42.8c-2.4,0.7-5,0.5-7.4-0.3c-2.4-0.9-4.5-2.5-5.8-4.5c1.8,1.7,3.8,3,6.1,3.8c1.1,0.4,2.3,0.7,3.5,0.9
					C162.5,42.8,163.7,42.9,165,42.8z"/>
			</g>
			<g>
				<path d="M163.4,47.9c-2.4,0.7-5,0.5-7.4-0.3c-2.4-0.9-4.5-2.5-5.8-4.5c1.8,1.7,3.8,3,6.1,3.8c1.1,0.4,2.3,0.7,3.5,0.9
					C161,47.9,162.2,48,163.4,47.9z"/>
			</g>
			<g>
				<path d="M161.4,53c-2.4,0.7-5,0.5-7.4-0.3c-2.4-0.9-4.5-2.5-5.8-4.5c1.8,1.7,3.8,3,6.1,3.8c1.1,0.4,2.3,0.7,3.5,0.9
					C159,53,160.2,53.1,161.4,53z"/>
			</g>
		</g>
	</g>
	<g>
		<g>
			<path class="st9" d="M132.5,46.3c-28.4,0-57.7,23.6-49.1,45.9c7,18.1,12.2,27.5,36.3,29.6c-0.1,0.6-0.3,1.3-0.5,2.2
				c0,0-1.7,0.4-4.4,3.6s-17.9,10.3-17.9,10.3s-7.1,8.3,14.3,2.8c-0.1,0.2-0.3,0.5-0.4,0.7c2-0.9,3.3-3.9,5.6-5.1
				c-2.3,1.1-3.6,4.2-5.6,5.1c-9.6,15.5-23,24.4-17.6,37.6c0,0.1,0.1,0.2,0.1,0.2c0,0.1,0.1,0.2,0.1,0.3c0,0-0.9-0.6-2.5-1.7
				c-2.6-1.8-6.8-5-11.4-9.3c-7.2-6.8-15-16.5-17.9-27.9c0,0-0.8,18.8,5.8,36.5c6.1,16.5,18.6,31.9,44.1,30c0,0,21.4,0.9,29.8-15.2
				c0,0,18.3-4.5,16.8-28.8c-0.4-5.7-0.7-11.1-1.1-16.2c0,0,0,0,0,0c-0.5-2.7-1.4-5.3-2.3-8c0.9,2.7,1.8,5.3,2.3,8
				c19.6,9.5,13.6,7.9,7.5-6.9c-3.4-8.2-6.8-12.7-9.2-15.1c-0.1-1.4-0.2-2.7-0.3-3.6c0-0.1,0-0.3,0-0.4c0.7-0.1,1.3-0.2,2-0.3
				c0.4-0.1,0.8-0.1,1.2-0.2c-4.6,0-9.3,0-13.9,0c4.7,0,9.3,0,13.9,0c18-3.2,25.9-11.1,30.6-27.8C195.1,69.9,160.9,46.3,132.5,46.3z
				 M89.8,177.3c10.6,10.6,25.2,4,31.8-6.6C115,181.3,100.4,187.9,89.8,177.3z"/>
		</g>
		<g>
			<path d="M132.5,46.3c-10.7,0.1-21.2,3.3-30.3,8.8c-4.5,2.8-8.7,6.1-12.2,10.1c-3.5,4-6.2,8.7-7.4,13.9c-0.6,2.6-0.7,5.3-0.3,7.9
				c0.2,1.3,0.5,2.6,0.9,3.8c0.4,1.2,0.9,2.5,1.4,3.7c2,4.9,4.1,9.9,7.2,14.1c1.6,2.1,3.4,4.1,5.5,5.7c2.1,1.6,4.4,2.8,6.9,3.8
				c4.9,1.9,10.2,2.7,15.5,3.2l0.5,0l-0.1,0.4c-0.1,0.8-0.3,1.5-0.5,2.2l-0.1,0.2l-0.3,0.1c-0.4,0.1-0.9,0.4-1.3,0.7
				c-0.4,0.3-0.8,0.7-1.2,1c-0.4,0.4-0.8,0.8-1.1,1.2c-0.3,0.4-0.7,0.9-1.1,1.3c-1.7,1.5-3.7,2.6-5.6,3.7c-3.9,2.2-7.8,4.1-11.8,6
				l0.1-0.1c-0.5,0.6-0.9,1.3-1,1.9c-0.1,0.7,0.1,1.3,0.8,1.6c0.6,0.3,1.4,0.4,2.2,0.5c0.8,0,1.6,0,2.4,0c3.2-0.3,6.4-1,9.5-1.8
				l0.9-0.2l-0.5,0.8l-0.4,0.7l-0.5-0.5c1-0.5,1.8-1.5,2.6-2.4c0.8-1,1.7-2,2.9-2.6l0.3,0.6c-1.1,0.5-1.9,1.5-2.7,2.4
				c-0.4,0.5-0.8,1-1.3,1.4c-0.5,0.5-1,0.9-1.6,1.2l0.2-0.1c-2,3.1-4.1,6.1-6.4,9c-2.2,2.9-4.6,5.8-6.7,8.7c-2.1,3-4.1,6.1-5.1,9.6
				c-0.5,1.7-0.7,3.6-0.6,5.4c0.1,1.8,0.7,3.6,1.4,5.2l0.3,0.7l-0.7-0.4c-3.6-2.3-7-4.9-10.3-7.7c-3.2-2.8-6.3-5.8-9.1-9
				c-2.8-3.2-5.4-6.7-7.5-10.4c-2.1-3.7-3.9-7.7-4.9-11.8l0.3,0c-0.1,7.9,0.7,15.8,2.2,23.6c1.6,7.7,4.1,15.3,8,22.2
				c2,3.4,4.3,6.6,7.1,9.4c2.8,2.8,6,5.2,9.5,6.9c7,3.6,15.1,4.6,22.9,4l0,0h0c2.9,0,5.8-0.3,8.6-0.9c2.8-0.6,5.6-1.4,8.3-2.7
				c2.6-1.2,5.1-2.8,7.2-4.7c2.1-1.9,3.9-4.3,5.2-6.8l0.1-0.2l0.2-0.1c4-1.2,7.7-3.8,10.5-7c2.8-3.3,4.5-7.3,5.4-11.5
				c0.4-2.1,0.6-4.3,0.6-6.4c0-2.2-0.2-4.3-0.3-6.5l-0.9-13.1l-0.1-0.8l0.7,0.3l0.1,0l-0.7,0.5c-0.5-2.7-1.4-5.3-2.2-7.9l0.9-0.3
				c0.9,2.6,1.8,5.3,2.3,8.1l-0.3-0.3c3.5,1.7,7,3.5,10.5,5.1c0.4,0.2,0.9,0.4,1.3,0.5c0.2,0.1,0.4,0.2,0.6,0.2
				c0.2,0.1,0.5,0.1,0.4,0.1c-0.1,0-0.1,0.1-0.1,0.1c0,0,0-0.1,0-0.2c0-0.2-0.1-0.4-0.2-0.6c-0.2-0.4-0.4-0.8-0.6-1.3
				c-0.9-1.7-1.9-3.4-2.7-5.2c-1.8-3.5-3.1-7.2-4.9-10.5c-1.8-3.4-3.9-6.7-6.5-9.4l-0.1-0.1l0-0.2l-0.3-4l0-0.5l0.5-0.1l1.6-0.3
				c0.5-0.1,1-0.2,1.6-0.3l0.1,1l-13.9,0v-1l13.9,0l-0.1,0c5.1-0.9,10.2-2.3,14.8-4.8c2.3-1.3,4.4-2.8,6.2-4.7
				c1.8-1.8,3.4-3.9,4.7-6.2c1.3-2.3,2.4-4.6,3.3-7.1c0.4-1.2,0.9-2.5,1.2-3.7c0.4-1.3,0.7-2.5,0.9-3.8c0.7-5.2-0.7-10.4-3.2-15
				c-2.5-4.6-6.1-8.5-10.1-11.9c-4-3.4-8.4-6.3-13.1-8.7C153.4,49.4,143,46.4,132.5,46.3z M132.5,46.2c10.5,0,20.9,3,30.3,7.7
				c4.7,2.4,9.1,5.2,13.2,8.6c4,3.4,7.6,7.4,10.2,12c2.6,4.6,4.1,10,3.4,15.3c-0.2,1.3-0.5,2.6-0.9,3.9c-0.4,1.3-0.8,2.5-1.2,3.8
				c-0.9,2.5-1.9,4.9-3.3,7.2c-1.3,2.3-2.9,4.5-4.8,6.4c-1.9,1.9-4,3.5-6.3,4.8c-4.6,2.6-9.8,4.1-15,5l0,0h0l-13.9,0v-1l13.9,0
				l0.1,1c-0.5,0.1-1.1,0.2-1.6,0.3l-1.6,0.3l0.4-0.5l0.3,4l-0.1-0.3c2.8,2.8,4.9,6.2,6.7,9.7c1.9,3.5,3.1,7.1,4.9,10.6
				c0.9,1.7,1.8,3.4,2.7,5.1c0.2,0.4,0.5,0.9,0.7,1.3c0.1,0.2,0.2,0.5,0.3,0.8c0,0.1,0.1,0.3,0.1,0.5c0,0.2-0.2,0.6-0.5,0.7
				c-0.5,0.2-0.8,0-1,0c-0.3-0.1-0.5-0.1-0.7-0.2c-0.5-0.2-0.9-0.4-1.4-0.6c-3.5-1.6-7-3.4-10.5-5.1l-0.2-0.1l0-0.2
				c-0.5-2.7-1.4-5.3-2.2-7.9l0.9-0.3c0.9,2.6,1.8,5.3,2.3,8.1l0.2,1l-0.8-0.5l0,0l0.6-0.5l0.9,13.1c0.1,2.2,0.3,4.4,0.3,6.6
				c0,2.2-0.2,4.4-0.7,6.6c-0.8,4.3-2.7,8.5-5.6,11.9c-2.9,3.4-6.7,6-11,7.3l0.3-0.2c-1.4,2.6-3.2,5-5.5,7c-2.2,2-4.8,3.6-7.5,4.8
				c-2.7,1.2-5.6,2.1-8.5,2.7c-2.9,0.6-5.8,0.9-8.8,0.8l0,0c-7.9,0.6-16.1-0.5-23.3-4.2c-7.2-3.6-12.8-9.7-16.7-16.6
				c-3.9-6.9-6.4-14.6-8-22.3c-1.5-7.8-2.3-15.7-2.1-23.6l0-1.3l0.3,1.2c1,4.1,2.7,8.1,4.9,11.8c2.1,3.7,4.7,7.1,7.5,10.3
				c2.8,3.2,5.9,6.2,9.1,8.9c3.2,2.8,6.6,5.4,10.2,7.6l-0.4,0.3c-0.7-1.7-1.3-3.5-1.4-5.4c-0.2-1.9,0-3.8,0.5-5.5
				c1-3.6,3.1-6.8,5.2-9.8c2.2-3,4.5-5.8,6.7-8.8c2.2-2.9,4.4-5.9,6.3-9l0.1-0.1l0.1,0c1-0.5,1.8-1.5,2.6-2.5c0.8-1,1.7-2,2.9-2.6
				l0.3,0.6c-1,0.5-1.9,1.5-2.7,2.4c-0.4,0.5-0.8,1-1.3,1.4c-0.5,0.5-1,0.9-1.6,1.2l-1.1,0.5l0.6-1l0.4-0.7l0.4,0.6
				c-3.2,0.8-6.3,1.5-9.6,1.8c-0.8,0.1-1.6,0.1-2.5,0.1c-0.8-0.1-1.7-0.2-2.5-0.6c-0.4-0.2-0.8-0.5-1.1-1c-0.2-0.5-0.3-1-0.2-1.4
				c0.2-0.9,0.6-1.7,1.2-2.3l0-0.1l0.1,0c4-1.9,7.9-3.9,11.7-6c1.9-1.1,3.8-2.2,5.4-3.6c0.4-0.3,0.7-0.7,1.1-1.2
				c0.4-0.4,0.8-0.8,1.2-1.2c0.4-0.4,0.8-0.8,1.3-1.1c0.5-0.3,0.9-0.6,1.6-0.8l-0.3,0.3c0.2-0.7,0.4-1.4,0.5-2.1l0.4,0.5
				c-5.3-0.5-10.7-1.4-15.7-3.3c-2.5-1-4.9-2.3-7-3.9c-2.1-1.6-4-3.6-5.6-5.8c-3.1-4.4-5.2-9.4-7.2-14.3c-0.5-1.2-1-2.5-1.4-3.8
				c-0.4-1.3-0.7-2.6-0.9-3.9c-0.4-2.7-0.2-5.4,0.4-8c1.2-5.3,4-10,7.5-14c3.5-4,7.8-7.4,12.3-10.1
				C111.2,49.4,121.8,46.2,132.5,46.2z"/>
			<path d="M89.9,177.3c2.2,2.2,5,3.8,8,4.5c3,0.7,6.1,0.6,9.1-0.2c3-0.8,5.8-2.1,8.3-4.1c2.5-1.9,4.5-4.3,6.1-7l0.5,0.3
				c-1.6,2.7-3.7,5.2-6.2,7.2c-2.5,2-5.3,3.6-8.4,4.4c-3.1,0.9-6.5,0.9-9.5-0.1C94.6,181.5,92,179.6,89.9,177.3L89.9,177.3z
				 M89.9,177.3c2.2,2.2,5,3.8,8,4.5c3,0.7,6.1,0.5,9.1-0.3c2.9-0.9,5.7-2.3,8.1-4.2c2.4-1.9,4.6-4.2,6.3-6.7l0.5,0.3
				c-1.8,2.6-3.9,5-6.4,7c-2.5,2-5.2,3.7-8.3,4.6c-3.1,0.9-6.4,1-9.5,0C94.6,181.5,92,179.6,89.9,177.3L89.9,177.3z"/>
		</g>
	</g>
	<path class="st0" d="M122.3,123.6c-2.3-5.8-9.3-3.1-17.2-4.7c3.9,1.4,8.7,2.3,14.5,2.9c-0.1,0.6-0.3,1.3-0.5,2.2
		c0,0-1.7,0.4-4.4,3.6s-17.9,10.3-17.9,10.3s-7.1,8.3,14.3,2.8c-0.1,0.2-0.3,0.5-0.4,0.7c2-0.9,3.3-3.9,5.6-5.1
		c-2.3,1.1-3.6,4.2-5.6,5.1c-1.5,2.5-3.2,4.8-4.8,7C114.3,133.6,122.6,133.6,122.3,123.6z"/>
	<path class="st0" d="M120.5,172.4c-7.6,2.3-15.1,2.1-21.4-1.7c-3.1-2.2-4.1-4.8-4.1-7.6c-3,5.1-4.3,10.1-1.9,15.9
		c0,0.1,0.1,0.2,0.1,0.2c0,0.1,0.1,0.2,0.1,0.3c0,0-0.6-0.4-1.6-1c0.2,0.4,0.4,0.7,0.6,1C102.1,186.4,114,181.2,120.5,172.4z"/>
	<path class="st0" d="M100.4,197.2c-20.4-6-32.1-22.9-38.1-41.9c0.8,6.4,2.2,14.2,5,21.8c6.1,16.5,18.6,31.9,44.1,30
		c0,0,16.4,0.7,26.1-9.9C125.7,201.3,113.1,201.7,100.4,197.2z"/>
	<path class="st0" d="M132.5,46.3c-4.2,0-8.4,0.5-12.5,1.5c17.9,0.9,36.1,5.8,47.9,22.4c5.3,9.3,6.6,18.5,2.6,27.8
		c-4,9.9-12.4,19.8-23,22.5c3.5,0,7,0,10.5,0c18-3.2,25.9-11.1,30.6-27.8C195.1,69.9,160.9,46.3,132.5,46.3z"/>
	<path class="st0" d="M139,120.9c15.7,17.4,18.5,43.2,4.8,66.2c-1.2,2.1-2.9,4.2-3.4,6.3c0.3-0.5,0.6-1,0.9-1.6
		c0,0,18.3-4.5,16.8-28.8c-0.4-5.7-0.7-11.1-1.1-16.2c19.6,9.5,13.7,7.9,7.5-6.9c-3.4-8.2-6.8-12.7-9.2-15.1
		c-0.1-1.4-0.2-2.7-0.3-3.6c0-0.1,0-0.3,0-0.4c0.7-0.1,1.3-0.2,2-0.3c0.4-0.1,0.8-0.1,1.2-0.2c-3.5,0-7,0-10.5,0
		C144.1,120.4,143,120.7,139,120.9z"/>
	<g>
		<g>
			<path class="st9" d="M111.4,137.1c-16.8-12.2-24,0-24,0c-21.5-23.5-38.6,16.3-38.6,16.3c-1-39-36.5-16.9-36.5-16.9l7.4-13
				c28.6-39.4,32.2-28.1,32.2-28.1c13.9,23.1,67,30.3,67,30.3s3-0.1,2.3,5.9"/>
			<path d="M111.4,137.1c-1.8-1.3-3.8-2.5-5.8-3.4c-2-0.9-4.2-1.6-6.4-1.8c-2.2-0.2-4.5,0.1-6.5,1.1c-2,0.9-3.8,2.4-4.9,4.2
				l-0.2,0.4l-0.3-0.3c-2.9-3.1-6.4-5.9-10.6-6.9c-2.1-0.5-4.2-0.5-6.3,0.1c-2,0.5-4,1.5-5.7,2.7c-3.5,2.4-6.4,5.7-8.9,9.2
				c-2.5,3.5-4.7,7.2-6.5,11.2l-0.6,1.3l0-1.5c-0.1-4.4-0.6-8.8-2.1-13c-0.8-2-1.9-4-3.4-5.6c-1.5-1.6-3.4-2.8-5.4-3.5
				c-4.2-1.4-8.8-0.9-13,0.2c-4.2,1.2-8.3,3-12.1,5.2l-0.8,0.5l0.5-0.8l7.4-13l0,0l0,0c4.5-6.2,9-12.3,14.1-18.1
				c2.6-2.8,5.2-5.6,8.2-8.1c1.5-1.2,3.1-2.4,4.9-3.2c0.9-0.4,1.9-0.7,3-0.7c1.1,0,2.3,0.7,2.7,1.9l-0.1-0.1
				c3.2,5.3,8.1,9.4,13.4,12.7c5.3,3.3,11,5.9,16.8,8.2c5.8,2.2,11.9,4.1,17.9,5.7c6.1,1.6,12.2,2.9,18.4,3.9l0,0
				c0.7,0,1.2,0.4,1.6,0.9c0.4,0.5,0.6,1.1,0.7,1.7c0.2,1.2,0.2,2.4,0,3.5l-0.1,0c0.1-1.2,0.1-2.3-0.1-3.5c-0.1-0.6-0.3-1.1-0.7-1.5
				c-0.3-0.4-0.9-0.8-1.4-0.8h0h0c-6.2-0.8-12.4-2.1-18.5-3.6c-6.1-1.5-12.2-3.3-18.1-5.5c-5.9-2.2-11.7-4.8-17.1-8.1
				c-5.3-3.4-10.4-7.5-13.8-13l0,0l0-0.1c-0.1-0.3-0.4-0.6-0.7-0.8c-0.3-0.2-0.7-0.3-1.1-0.3c-0.8,0-1.7,0.2-2.5,0.6
				c-1.7,0.7-3.2,1.8-4.7,3c-2.9,2.4-5.6,5.1-8.1,7.9c-5.1,5.7-9.8,11.7-14.3,17.8l0,0l-7.5,12.9l-0.3-0.3c3.9-2.2,8-4,12.3-5.2
				c4.3-1.1,8.9-1.6,13.2-0.2c2.1,0.7,4.1,2,5.6,3.6c1.5,1.6,2.7,3.6,3.5,5.7c1.7,4.2,2.2,8.7,2.4,13.1l-0.6-0.1
				c1.8-4,3.9-7.8,6.5-11.4c2.5-3.5,5.5-6.9,9.1-9.4c1.8-1.2,3.9-2.2,6-2.8c2.2-0.5,4.5-0.6,6.6,0c4.4,1.1,8,4,10.9,7.2l-0.5,0.1
				c1.3-2,3.2-3.5,5.3-4.4c2.1-0.9,4.5-1.2,6.8-1c2.3,0.3,4.5,1,6.5,2C107.7,134.4,109.6,135.7,111.4,137.1L111.4,137.1z"/>
		</g>
		<path class="st5" d="M69,125.2c7.5-3.9,15,1.7,15.9,9.4c-12.9-11.4-24-0.7-30.4,8.6C57.8,135.2,61.6,128,69,125.2z"/>
		<path class="st5" d="M47.6,125.5c5.2,5.6,5.8,13.1,4.8,20.9c-2.3,3.9-3.6,6.9-3.6,6.9c-1-39-36.5-16.9-36.5-16.9l3.2-5.6
			C25.8,122.5,37.6,116.1,47.6,125.5z"/>
		<path class="st5" d="M106,133.8c-8.9-4.3-14.4-1.2-16.9,1.2C93.6,129,101.1,125.5,106,133.8z"/>
		<g>
			<path class="st10" d="M15.1,134.9c-1.8,0.9-2.8,1.6-2.8,1.6l7.4-13c26.9-37.2,31.7-29.3,32.2-28.2
				C35.2,104.6,24.6,119.6,15.1,134.9z"/>
			<g>
				<path d="M15.1,135c-0.9,0.5-1.9,1.1-2.8,1.6l-0.5,0.3l0.3-0.5c1.2-2.2,2.4-4.4,3.6-6.6c1.2-2.2,2.4-4.4,3.6-6.5l0,0l0,0
					c1.1-1.6,2.2-3.1,3.4-4.6c1.2-1.5,2.3-3,3.5-4.5c2.4-3,4.9-5.9,7.5-8.7c1.3-1.4,2.6-2.8,4-4.1c1.4-1.3,2.7-2.7,4.2-3.9
					c1.5-1.2,3-2.4,4.8-3.2c0.9-0.4,1.8-0.7,2.9-0.7c1,0,2.2,0.5,2.6,1.6l0.1,0.3l-0.3,0.2c-3.9,2.3-7.6,4.9-11.1,7.8
					c-3.4,3-6.7,6.2-9.6,9.6c-3,3.4-5.8,7-8.4,10.7C20.2,127.4,17.7,131.1,15.1,135L15.1,135L15.1,135z M15.1,134.9
					c2.3-3.9,4.7-7.8,7.2-11.6c2.6-3.8,5.3-7.5,8.3-10.9c3-3.5,6.2-6.7,9.8-9.7c3.5-2.9,7.3-5.5,11.4-7.7l-0.2,0.5
					c-0.3-0.7-1.1-1.2-2-1.2c-0.9,0-1.8,0.2-2.6,0.6c-1.7,0.7-3.3,1.8-4.8,3c-3,2.4-5.6,5.1-8.1,8c-2.5,2.9-4.8,5.9-7.1,8.9
					c-1.2,1.5-2.3,3-3.4,4.5l-3.4,4.6l0,0c-1.3,2.2-2.5,4.3-3.8,6.4c-1.3,2.1-2.6,4.3-3.9,6.4l-0.2-0.2
					C13.1,135.8,14.1,135.3,15.1,134.9z"/>
			</g>
		</g>
		<g>
			<path class="st10" d="M48.6,149.4L64,107.2c0.5,0.3,1,0.6,1.5,1l-13.2,38.5c-2.2,3.8-3.5,6.6-3.5,6.6
				C48.8,152,48.7,150.7,48.6,149.4z"/>
			<g>
				<path d="M48.5,149.4c1.1-3.6,2.3-7.1,3.5-10.7c1.3-3.5,2.5-7.1,3.8-10.6c1.3-3.5,2.7-7,4.1-10.5l2-5.3l1.9-5.3l0.1-0.2l0.2,0.1
					l1.5,0.9l0.1,0.1l-0.1,0.2l-3.1,9.7l-3.2,9.7c-1.1,3.2-2.2,6.4-3.3,9.6c-1.1,3.2-2.3,6.4-3.4,9.6l0,0l0,0
					c-1.3,2.1-2.5,4.3-3.6,6.5l-0.4,0.7l0-0.8C48.6,152,48.6,150.7,48.5,149.4L48.5,149.4L48.5,149.4z M48.6,149.4
					c0.2,1.3,0.3,2.6,0.4,3.9l-0.4-0.1c1-2.3,2.1-4.6,3.3-6.8l0,0.1c1.1-3.2,2.1-6.5,3.2-9.7c1.1-3.2,2.2-6.4,3.3-9.6l3.4-9.6
					l3.5-9.6l0.1,0.3l-1.5-1l0.3-0.1l-2,5.3l-1.9,5.3c-1.2,3.5-2.4,7.1-3.6,10.6c-1.2,3.5-2.6,7-3.9,10.5
					C51.4,142.5,50.1,146,48.6,149.4z"/>
			</g>
		</g>
		<g>
			<path class="st10" d="M89.6,118.9l-1.3,16.9c-0.7,0.7-1,1.3-1,1.3c-0.2-0.2-0.4-0.5-0.7-0.7l1.5-18
				C88.7,118.5,89.2,118.7,89.6,118.9z"/>
			<g>
				<path d="M89.7,118.9c0.1,1.4,0,2.8,0,4.3c0,1.4-0.1,2.8-0.2,4.2c-0.1,1.4-0.3,2.8-0.5,4.2c-0.2,1.4-0.3,2.8-0.4,4.2l0,0.1l0,0
					c-0.3,0.4-0.7,0.8-0.9,1.3l-0.1,0.2l-0.2-0.2l-0.7-0.7l-0.1-0.1l0-0.1c0-1.5,0.1-3,0.2-4.5c0.1-1.5,0.2-3,0.3-4.5
					c0.3-3,0.6-6,1.1-9l0-0.3l0.2,0.1C88.7,118.4,89.2,118.6,89.7,118.9L89.7,118.9L89.7,118.9z M89.6,118.9c-0.5-0.1-1-0.2-1.5-0.3
					l0.2-0.2c0,3-0.2,6-0.4,9c-0.1,1.5-0.3,3-0.4,4.5c-0.2,1.5-0.3,3-0.6,4.5l-0.1-0.2l0.6,0.7l-0.4,0c0.3-0.5,0.7-0.9,1-1.3l0,0.1
					c0.1-1.4,0.2-2.8,0.2-4.2c0-1.4,0-2.8,0.1-4.2c0.1-1.4,0.2-2.8,0.4-4.2C89.1,121.7,89.3,120.3,89.6,118.9z"/>
			</g>
		</g>
		<g>
			<path class="st8" d="M42.2,97.5c8.3-6.7,9.7-2.1,9.7-2.1c13.9,23.1,67,30.3,67,30.3s1.8,0,2.3,2.9
				C91.9,126.1,62.3,119.6,42.2,97.5z"/>
			<g>
				<path d="M42.2,97.5c1.5-1.2,3-2.3,4.8-3.1c0.9-0.4,1.8-0.7,2.8-0.6c1,0,2,0.6,2.3,1.6l0,0c3.3,5.4,8.3,9.4,13.6,12.7
					c5.3,3.3,11,5.9,16.9,8.2c5.9,2.2,11.9,4.1,18,5.6c6.1,1.6,12.3,2.8,18.5,3.7l0,0c0.7,0,1.3,0.5,1.7,1.1
					c0.4,0.6,0.6,1.2,0.7,1.9l0,0.2l-0.2,0c-7.2-0.6-14.5-1.4-21.6-2.6c-7.1-1.3-14.2-3-21.1-5.3c-6.9-2.3-13.5-5.4-19.7-9.3
					C52.7,107.6,47,102.9,42.2,97.5L42.2,97.5L42.2,97.5z M42.2,97.5c4.9,5.3,10.6,9.9,16.8,13.7c6.2,3.8,12.8,6.7,19.7,9.1
					c6.8,2.4,13.9,4.1,21,5.3c7.1,1.3,14.3,2.2,21.5,2.8l-0.2,0.2c-0.1-0.6-0.3-1.3-0.6-1.8c-0.2-0.3-0.4-0.5-0.6-0.7
					c-0.3-0.2-0.6-0.3-0.8-0.3h0h0c-6.2-0.9-12.4-2.3-18.5-3.8c-6.1-1.5-12.1-3.3-18-5.5c-5.9-2.2-11.7-4.8-17-8.2
					c-5.3-3.4-10.3-7.5-13.6-13l0,0l0,0c-0.3-0.8-1.2-1.4-2.1-1.4c-0.9-0.1-1.8,0.2-2.7,0.6C45.3,95.3,43.7,96.4,42.2,97.5z"/>
			</g>
		</g>
	</g>
	<g>
		<path class="st10" d="M61.6,140.7c2.8,11.4,10.7,21,17.9,27.9c1-2.5,1.1-4.5,1.1-4.5c2.6-15.7-6.2-26-6.2-26l-1.3,6.6
			c-11.9-22-24.3-16.6-24.3-16.6s5.1,2.2,4.6,10.1c-0.4,7.9,6.2,24.8,6.2,24.8c-6-14.2-8.6-10.6-8.6-10.6l1.8,7.7
			c2,14.4,11.7,17.2,11.7,17.2c1,0,2-0.1,2.9-0.2C60.8,159.5,61.6,140.7,61.6,140.7z"/>
		<g>
			<path d="M61.6,140.7c1.4,5.4,4,10.4,7.2,15c3.2,4.6,6.9,8.8,10.9,12.6l-0.7,0.1c0.3-0.7,0.5-1.4,0.7-2.1c0.2-0.7,0.3-1.5,0.3-2.2
				l0,0l0,0c0.7-4.5,0.6-9.1-0.4-13.5c-0.5-2.2-1.3-4.4-2.2-6.4c-0.9-2.1-2-4.1-3.4-5.8l0.6-0.2l-1.4,6.6l-0.1,0.7l-0.3-0.6
				c-2.5-4.7-5.5-9.1-9.5-12.6c-2-1.7-4.3-3.1-6.8-3.9c-2.5-0.8-5.3-0.9-7.7,0l0-0.4c2.9,1.5,4.5,4.7,4.8,7.9
				c0.1,0.8,0.1,1.6,0.1,2.4c0,0.8,0,1.5,0.1,2.3c0.1,1.5,0.4,3.1,0.7,4.6c0.6,3,1.5,6,2.4,9c1,3,2,5.9,3.1,8.8l-0.9,0.4
				c-1-2.3-2-4.5-3.3-6.6c-0.6-1-1.3-2.1-2.1-2.9c-0.4-0.4-0.8-0.8-1.3-1c-0.5-0.2-0.9-0.2-1.1,0l0.1-0.4l1.8,7.7l0,0l0,0
				c0.5,3.5,1.5,7,3.4,10.1c0.9,1.5,2.1,2.9,3.4,4c1.3,1.2,2.9,2.2,4.5,2.7l-0.1,0c1,0,1.9,0,2.9-0.1l-0.4,0.6
				c-2.1-5.9-3.5-11.9-4.4-18.1c-0.4-3.1-0.8-6.2-0.9-9.3C61.5,146.9,61.4,143.8,61.6,140.7l-0.1-0.3L61.6,140.7z M61.6,141.1
				c0,3,0.1,5.9,0.4,8.9c0.3,3.1,0.6,6.1,1.1,9.2c1,6.1,2.5,12.1,4.6,17.9l0.2,0.5l-0.5,0.1c-1,0.1-2,0.2-3,0.2h-0.1l-0.1,0
				c-1.9-0.6-3.4-1.6-4.9-2.9c-1.4-1.2-2.6-2.7-3.6-4.3c-2-3.2-3.1-6.8-3.6-10.5l0,0l-1.8-7.7l-0.1-0.3l0.1-0.2
				c0.7-0.8,1.7-0.7,2.4-0.4c0.7,0.3,1.2,0.8,1.6,1.3c0.9,1,1.6,2,2.2,3.1c1.3,2.2,2.3,4.5,3.3,6.8l-0.9,0.4c-1.1-2.9-2.1-5.9-3-8.9
				c-0.9-3-1.7-6-2.3-9.1c-0.3-1.5-0.5-3.1-0.6-4.7c-0.1-0.8-0.1-1.6,0-2.4c0-0.8,0-1.5,0-2.3c-0.1-1.5-0.5-3-1.3-4.4
				c-0.7-1.3-1.8-2.5-3.1-3.2l-0.4-0.2l0.4-0.1c2.6-0.9,5.4-0.7,7.9,0.1c2.6,0.8,4.9,2.3,6.9,4c2,1.7,3.8,3.7,5.4,5.9
				c1.6,2.1,3,4.4,4.3,6.7l-0.5,0.1l1.3-6.7l0.1-0.7l0.4,0.5c1.5,1.8,2.6,3.8,3.6,5.9c1,2.1,1.7,4.3,2.3,6.6
				c1.1,4.5,1.2,9.3,0.4,13.8l0-0.1c-0.1,0.8-0.2,1.6-0.4,2.4c-0.2,0.8-0.4,1.5-0.7,2.3l-0.2,0.5l-0.4-0.4
				c-4.1-3.9-7.8-8.1-10.9-12.8C65.3,151.5,62.9,146.4,61.6,141.1z"/>
		</g>
	</g>
	<path class="st11" d="M62,137.6c-1.3,4,0,7.9-2.6,10.6c-2.5-6.2-2.6-12.4,0.6-18.5c-6.4-3.6-11.2-1.5-11.2-1.5s5.1,2.2,4.6,10.1
		c-0.4,7.9,6.2,24.8,6.2,24.8c-6-14.2-8.6-10.6-8.6-10.6l1.8,7.7c2,14.4,11.7,17.2,11.7,17.2c1,0,2-0.1,2.9-0.2
		c-6.6-17.6-5.8-36.5-5.8-36.5c2.8,11.4,10.7,21,17.9,27.9c1-2.5,1.1-4.5,1.1-4.5c0.1-0.7,0.2-1.3,0.3-2
		C70.6,157.3,62,149.8,62,137.6z"/>
	<g class="st2">
		<path class="st3" d="M136.9,64.2c0,0,0-0.1,0-0.1c0-0.2,0-0.3,0-0.5c0-0.3,0-0.5,0-0.8c0-0.1,0-0.1,0-0.2c0-0.2,0-0.5,0.1-0.7
			c0-0.1,0-0.1,0-0.2c0-0.2,0.1-0.4,0.1-0.5c0-0.2,0.1-0.4,0.1-0.5c0,0,0-0.1,0-0.1c0-0.2,0-0.3,0-0.5c0,0,0,0,0,0
			c0-0.1,0-0.3-0.1-0.4c0,0,0,0,0-0.1c0-0.1-0.1-0.2-0.2-0.3c0,0,0,0-0.1-0.1c-0.3-0.3-0.8-0.4-1.7-0.4c-3.2,0-5.8,4-5.8,6.9
			c0,2.9,2.6,2.4,5.8,2.4c2.8,0,2.1-1.2,1.8-3.4c0,0,0-0.1,0-0.1C137,64.5,136.9,64.4,136.9,64.2z"/>
		<path class="st3" d="M135.3,84.3c0-0.3,0-0.6,0-0.9c0-0.3,0-0.5,0-0.7c0-0.1,0-0.1,0-0.2c0-0.2,0-0.4,0.1-0.6
			c0.3-2,0.7-3.2-1.9-3.2c-3.2,0-5.8,4-5.8,6.9c0,2.9,2.6,2.4,5.8,2.4c0.7,0,1.2-0.1,1.5-0.2c0,0,0,0,0,0c0.8-0.4,0.6-1.3,0.4-2.6
			c0-0.2-0.1-0.4-0.1-0.7C135.3,84.4,135.3,84.3,135.3,84.3z"/>
		<path class="st3" d="M132.9,108.5c3.2,0,1.7-1.6,1.7-4.5c0-0.2,0-0.4,0-0.5c0,0,0-0.1,0-0.1c0-0.1,0-0.2,0-0.4c0,0,0-0.1,0-0.1
			c0-0.1,0-0.3,0-0.4c0,0,0,0,0,0c0.1-0.5,0.2-1,0.2-1.4v0c0-0.1,0-0.2,0-0.3c0,0,0,0,0,0c0-0.1,0-0.2,0-0.3c0,0,0,0,0,0
			c0-0.1,0-0.2,0-0.2c0,0,0,0,0,0c0-0.1,0-0.1-0.1-0.2c0,0,0,0,0,0c-0.2-0.3-0.6-0.6-1.3-0.6c0,0,0,0,0,0l0,0c-0.2,0-0.4,0-0.6,0
			c-3.2,0-5.8,4-5.8,6.9C127.2,109,129.8,108.5,132.9,108.5z"/>
		<path class="st3" d="M121.1,172.8c0-0.1,0.1-0.1,0.1-0.2c0.1-0.2,0.1-0.4,0.2-0.6c0,0,0-0.1,0-0.1c0.1-0.2,0.1-0.5,0.1-0.7l0,0
			l0,0c0-0.5-0.3-0.9-0.9-1.2c-1.6-0.8-5.1-0.6-6.1,1.4s0.7,5,2.3,5.9c1.6,0.8,2.5-0.8,3.6-2.8c0.2-0.3,0.3-0.6,0.4-0.8
			c0-0.1,0.1-0.1,0.1-0.2C121,173.2,121.1,173,121.1,172.8z"/>
		<path class="st3" d="M92.3,174.2c-1.6-1.2-4.4-0.3-5.7,1c-0.2,0.1-0.3,0.3-0.4,0.4c-0.1,0.1-0.1,0.2-0.2,0.3
			c2.3,1.5,4.7,2.8,7.2,3.8c0,0,0,0,0,0C93.9,178,93.8,175.4,92.3,174.2z"/>
		<path class="st3" d="M73.6,163.9C73.5,163.9,73.5,164,73.6,163.9C73.5,164,73.5,164,73.6,163.9c-1.2,1.3,0,2.6,1.5,4.2
			c1.5,1.5,2.7,2.7,3.9,1.8c-1.9-1.9-3.6-4.1-5.2-6.3C73.7,163.8,73.6,163.9,73.6,163.9z"/>
		<path class="st3" d="M65.3,148.7c-1.6,0.9-0.7,2.5,0.3,4.5c0.2,0.3,0.3,0.6,0.5,0.9c0,0,0,0.1,0.1,0.1c0.2,0.3,0.3,0.5,0.5,0.8
			c0,0,0,0,0,0c0.4,0.5,0.7,0.9,1.1,1.1v0c0.4,0.2,0.7,0.2,1.2,0c-1.3-2.4-2.5-4.9-3.5-7.4C65.4,148.7,65.4,148.7,65.3,148.7z"/>
		<path class="st3" d="M140.1,46.8c0-0.1,0-0.3-0.1-0.4C140,46.3,140.1,46.8,140.1,46.8c0,0,0,0.2,0,0.2c-2.7,0.7-5.7-1-8.5-1.7
			c-0.3,0.8-0.5,1.5-0.5,2.2c0,2.4,2,2.5,4.5,2.5c0.7,0,1.4,0,2-0.1c0.1,0,0.3,0,0.4-0.1c0.1,0,0.2,0,0.3-0.1c0.1,0,0.3-0.1,0.4-0.1
			c0.1,0,0.2,0,0.2-0.1c0.2-0.1,0.3-0.2,0.5-0.3c0,0,0.1-0.1,0.1-0.1c0.1-0.1,0.2-0.2,0.3-0.3c0-0.1,0.1-0.1,0.1-0.2
			c0.1-0.1,0.1-0.2,0.2-0.4c0-0.1,0-0.1,0.1-0.2c0-0.2,0.1-0.5,0.1-0.7c0-0.2,0-0.4,0-0.5C140.1,46.9,140.1,46.8,140.1,46.8z"/>
		<path class="st3" d="M133.4,119.2c-0.6-0.3-1.1-0.6-1.6-0.9l0,0l0,0c-1.1-0.5-2.1-0.5-2.9,0.8c-1.2,1.9-1.4,5.5,0.5,6.7
			c0.5,0.3,1,0.4,1.6,0.3l0,0l0,0c0,0,0,0,0.1,0c0.2,0,0.5-0.1,0.7-0.1c0.1,0,0.2-0.1,0.3-0.1c0.2-0.1,0.4-0.1,0.6-0.2
			c0.1,0,0.2-0.1,0.3-0.1c0.3-0.1,0.5-0.3,0.7-0.4c0,0,0,0,0.1,0c0.2-0.2,0.5-0.3,0.7-0.5c0.1-0.1,0.1-0.1,0.2-0.2
			c0.2-0.1,0.3-0.3,0.4-0.4c0.1-0.1,0.1-0.1,0.2-0.2c0.2-0.2,0.3-0.4,0.5-0.6C136.7,121.3,135.2,120.3,133.4,119.2z"/>
		<path class="st3" d="M130.1,132.6c-1.8,0-4.8,2.4-4.8,5.4c0,2.6,2.2,4.7,3.9,5.2c0,0,0,0,0,0c0.3,0.1,0.5,0.1,0.8,0.1
			c1.8,0,1.8-2.4,1.8-5.4C132,135,131.9,132.6,130.1,132.6z"/>
		<path class="st3" d="M128.5,152.3c-0.2-0.1-0.5-0.1-0.8-0.1c0,0,0,0,0,0c-1.8,0-4.6,1.3-5.4,3.7c-0.9,2.5,0.6,5.4,2.2,6.4l0,0
			c0.2,0.1,0.4,0.2,0.6,0.3c1.7,0.6,2.5-1.7,3.5-4.5C129.4,155.2,130.2,152.9,128.5,152.3z"/>
		<path class="st3" d="M108.3,181c0-0.1,0-0.1,0-0.2c0-0.1,0-0.2,0-0.3c-0.1-1.8-1.7-4.5-3.9-4.6c-2.3-0.1-4.2,2.8-4.3,4.6
			c0,0.4,0.1,0.6,0.2,0.9c0,0,0,0,0,0C102.8,181.6,105.5,181.5,108.3,181z"/>
		<path class="st3" d="M100.3,181.3C100.3,181.4,100.3,181.4,100.3,181.3c0.1,0.2,0.2,0.3,0.3,0.3c0,0,0,0,0.1,0
			c0.1,0.1,0.2,0.2,0.3,0.2c0,0,0.1,0,0.1,0c0.1,0.1,0.3,0.1,0.4,0.2c0,0,0.1,0,0.1,0c0.1,0,0.3,0.1,0.4,0.1c0.1,0,0.1,0,0.2,0
			c0.2,0,0.3,0,0.5,0.1c0.1,0,0.2,0,0.3,0c0.1,0,0.3,0,0.4,0c0.2,0,0.5,0,0.8,0c2.2,0.1,4,0.1,4.2-1.5
			C105.5,181.5,102.8,181.6,100.3,181.3z"/>
		<path class="st3" d="M88.4,179.5c1.8,1.3,3.3,2.4,4.4,0.9c0.2-0.2,0.3-0.5,0.4-0.7c0,0,0,0,0,0c-2.5-0.9-4.9-2.2-7.2-3.8
			C85.3,177.3,86.7,178.3,88.4,179.5z"/>
	</g>
	<g>
		<g>
			<path class="st9" d="M149.4,138.4c18.1-10.2,23.9,2.7,23.9,2.7c23.9-20.9,36.5,20.4,36.5,20.4c5.3-38.7,38.2-12.7,38.2-12.7
				l-6-13.7c-24.1-42.4-28.9-31.5-28.9-31.5c-16.3,21.4-69.9,22.7-69.9,22.7s-2.9-0.4-2.9,5.7"/>
			<path d="M149.4,138.4c2-1.1,4-2.1,6.1-2.9c2.1-0.7,4.4-1.2,6.7-1.2c2.3,0,4.6,0.6,6.6,1.7c2,1.2,3.7,2.9,4.8,5l-0.5-0.1
				c3.2-2.9,7.1-5.4,11.6-6c2.2-0.3,4.5,0,6.6,0.8c2.1,0.8,4,2,5.7,3.4c3.4,2.9,5.9,6.6,8,10.4c2.1,3.8,3.8,7.9,5.2,12l-0.7,0.1
				c0.7-4.4,1.7-8.8,3.8-12.8c1.1-2,2.4-3.8,4.1-5.3c1.7-1.5,3.8-2.5,6-3c4.4-0.9,9,0,13.1,1.6c4.2,1.6,8,3.8,11.6,6.5l-0.4,0.3
				l-6-13.7l0,0c-3.8-6.6-7.8-13.1-12.2-19.3c-2.2-3.1-4.6-6.1-7.2-8.8c-1.3-1.3-2.7-2.6-4.3-3.5c-0.8-0.4-1.6-0.8-2.5-0.8
				c-0.4,0-0.8,0-1.1,0.2c-0.3,0.1-0.6,0.5-0.8,0.7l0,0.1l0,0c-3.9,5.1-9.4,8.7-15.1,11.4c-5.7,2.8-11.8,4.7-17.9,6.2
				c-6.1,1.5-12.3,2.6-18.6,3.4c-6.2,0.8-12.5,1.4-18.8,1.5h0l0,0c-0.5,0-1.1,0.2-1.5,0.6c-0.4,0.4-0.7,0.9-0.9,1.5
				c-0.4,1.1-0.5,2.3-0.5,3.4h-0.1c0-1.2,0.1-2.4,0.4-3.5c0.2-0.6,0.5-1.1,0.9-1.6c0.4-0.4,1-0.8,1.7-0.7h0
				c6.3-0.3,12.5-0.9,18.7-1.8c6.2-0.9,12.4-2.1,18.4-3.7c6.1-1.6,12-3.6,17.6-6.3c5.6-2.7,10.9-6.2,14.7-11.1l-0.1,0.1
				c0.6-1.1,1.8-1.6,2.9-1.5c1.1,0.1,2,0.5,2.9,1c1.7,1,3.2,2.3,4.5,3.7c2.7,2.8,5,5.8,7.3,8.9c4.4,6.3,8.3,12.9,12.1,19.5l0,0l0,0
				l5.9,13.7l0.4,0.9l-0.8-0.6c-3.5-2.7-7.4-4.9-11.5-6.5c-4.1-1.6-8.6-2.6-12.9-1.6c-2.1,0.5-4.1,1.5-5.8,2.9c-1.7,1.4-3,3.2-4,5.2
				c-2,3.9-3,8.3-3.6,12.6l-0.2,1.4l-0.5-1.4c-1.4-4.1-3.2-8-5.3-11.8c-2.1-3.7-4.6-7.3-7.9-10.1c-1.6-1.4-3.4-2.6-5.4-3.3
				c-2-0.7-4.1-1-6.2-0.8c-4.2,0.5-8,2.9-11.3,5.7l-0.3,0.3l-0.2-0.4c-1-1.9-2.6-3.6-4.4-4.8c-1.9-1.2-4.1-1.7-6.3-1.8
				c-2.2-0.1-4.5,0.4-6.6,1C153.5,136.5,151.4,137.4,149.4,138.4L149.4,138.4z"/>
		</g>
		<path class="st5" d="M192.9,131.4c-7-4.7-15.1,0-16.9,7.6c14.1-9.9,23.9,1.9,29.2,11.9C202.9,142.6,199.9,134.9,192.9,131.4z"/>
		<path class="st5" d="M214,134c-5.8,5-7.2,12.4-7.1,20.2c1.9,4.1,2.9,7.3,2.9,7.3c5.3-38.7,38.2-12.7,38.2-12.7l-2.6-5.9
			C236.1,133.4,225.1,125.7,214,134z"/>
		<path class="st5" d="M155.1,135.8c9.3-3.3,14.4,0.4,16.7,3.1C168,132.4,160.9,128.1,155.1,135.8z"/>
		<g>
			<path class="st10" d="M245.3,147c1.7,1.1,2.6,1.9,2.6,1.9l-6-13.7c-22.7-39.9-28.3-32.6-28.9-31.6
				C228.7,114.6,237.6,130.7,245.3,147z"/>
			<g>
				<path d="M245.4,146.9c0.9,0.6,1.8,1.1,2.7,1.8l-0.2,0.2c-1.1-2.3-2.1-4.5-3.1-6.8c-1-2.3-2-4.5-3.1-6.8l0,0l-2.9-4.9
					c-1-1.6-1.9-3.3-2.9-4.9c-2-3.3-4-6.5-6.1-9.6c-2.2-3.1-4.5-6.2-7.2-8.8c-1.3-1.3-2.8-2.6-4.4-3.5c-0.8-0.4-1.7-0.8-2.6-0.9
					c-0.9-0.1-1.7,0.3-2.1,1l-0.1-0.5c3.8,2.6,7.3,5.6,10.4,8.9c3.2,3.3,6.1,6.9,8.6,10.7c2.6,3.8,4.9,7.7,7,11.8
					C241.6,138.6,243.5,142.8,245.4,146.9z M245.3,147c-2.1-4.1-4.2-8.1-6.4-12c-2.2-4-4.6-7.8-7.2-11.6c-2.6-3.7-5.4-7.3-8.5-10.6
					c-3.1-3.3-6.5-6.3-10.1-9l-0.3-0.2l0.2-0.3c0.6-1,1.8-1.4,2.8-1.3c1,0.1,1.9,0.5,2.8,1c1.7,1,3.1,2.3,4.4,3.7
					c1.3,1.4,2.6,2.8,3.8,4.3c1.2,1.5,2.4,3,3.5,4.5c2.3,3.1,4.4,6.2,6.5,9.4c1,1.6,2,3.2,3,4.9c1,1.6,1.9,3.3,2.8,5l0,0l0,0
					c1,2.3,2,4.6,2.9,6.9c1,2.3,1.9,4.6,2.8,6.9l0.2,0.6l-0.5-0.4C247,148.3,246.2,147.6,245.3,147L245.3,147L245.3,147z"/>
			</g>
		</g>
		<g>
			<path class="st10" d="M210.5,157.7L199.8,114c-0.5,0.3-1,0.5-1.6,0.8l8.8,39.8c1.8,4,2.7,7,2.7,7
				C210,160.2,210.2,158.9,210.5,157.7z"/>
			<g>
				<path d="M210.4,157.7c-1.1-3.6-2-7.2-3-10.8c-0.9-3.6-1.9-7.2-2.7-10.9c-0.9-3.6-1.6-7.3-2.4-11l-1.3-5.5l-1.4-5.4l0.3,0.1
					l-1.6,0.8l0.1-0.2l2.4,9.9l2.3,9.9c0.8,3.3,1.5,6.6,2.2,9.9c0.7,3.3,1.4,6.6,2.1,10l0-0.1c1,2.3,1.9,4.7,2.6,7.1l-0.4,0
					C209.8,160.2,210.1,159,210.4,157.7z M210.5,157.7c-0.2,1.3-0.4,2.6-0.5,3.9l-0.1,0.8l-0.3-0.8c-0.8-2.3-1.8-4.6-2.9-6.9l0,0
					l0,0c-0.8-3.3-1.6-6.6-2.3-9.9c-0.7-3.3-1.5-6.6-2.2-9.9l-2.1-10l-2-10l0-0.2l0.2-0.1l1.6-0.7l0.2-0.1l0.1,0.2l1.3,5.5l1.4,5.4
					c1,3.6,2,7.2,2.9,10.9c0.9,3.6,1.7,7.3,2.6,10.9C209,150.3,209.8,154,210.5,157.7L210.5,157.7L210.5,157.7z"/>
			</g>
		</g>
		<g>
			<path class="st10" d="M173,122.8l-0.6,17c0.6,0.8,0.8,1.4,0.8,1.4c0.3-0.2,0.5-0.4,0.7-0.6l0.5-18
				C174,122.6,173.5,122.7,173,122.8z"/>
			<g>
				<path d="M173.1,122.8c0.1,1.4,0.1,2.8,0.2,4.2c0,1.4,0,2.8-0.1,4.2c-0.1,1.4-0.2,2.8-0.3,4.2c-0.1,1.4-0.2,2.8-0.2,4.2l0-0.1
					c0.3,0.4,0.6,0.9,0.9,1.4l-0.4-0.1l0.7-0.7l-0.1,0.2c0-1.5-0.1-3-0.1-4.5c0-1.5,0-3,0.1-4.5c0.1-3,0.3-6,0.6-9l0.2,0.2
					C174.1,122.7,173.6,122.8,173.1,122.8z M173,122.7c0.5-0.2,1-0.3,1.5-0.4l0.2-0.1l0,0.3c0.1,3,0.2,6,0.1,9c0,1.5-0.1,3-0.2,4.5
					c-0.1,1.5-0.2,3-0.3,4.5l0,0.1l-0.1,0.1l-0.8,0.6l-0.2,0.2l-0.1-0.3c-0.2-0.5-0.5-0.9-0.8-1.4l0-0.1l0-0.1
					c0.1-1.4,0.1-2.8,0.1-4.2c0-1.4-0.1-2.8,0-4.3s0.1-2.8,0.2-4.2C172.6,125.6,172.8,124.2,173,122.7L173,122.7L173,122.7z"/>
			</g>
		</g>
		<g>
			<path class="st8" d="M222.5,106.8c-7.5-7.5-9.5-3.2-9.5-3.2c-16.3,21.4-69.9,22.7-69.9,22.7s-1.8-0.2-2.6,2.6
				C170,129.7,200.1,126.5,222.5,106.8z"/>
			<g>
				<path d="M222.5,106.8c-1.3-1.3-2.8-2.6-4.4-3.5c-0.8-0.4-1.7-0.8-2.6-0.8c-0.9-0.1-1.9,0.4-2.3,1.2l0,0l0,0
					c-3.9,5.1-9.3,8.6-14.9,11.4c-5.7,2.8-11.7,4.7-17.8,6.2c-6.1,1.5-12.3,2.6-18.5,3.5c-6.2,0.8-12.5,1.5-18.8,1.7h0l0,0
					c-0.3,0-0.6,0.1-0.9,0.2c-0.3,0.1-0.5,0.3-0.7,0.6c-0.4,0.5-0.7,1.1-0.8,1.7l-0.1-0.2c7.2,0.2,14.5,0.1,21.7-0.4
					c7.2-0.5,14.4-1.4,21.5-3c7.1-1.6,14-3.8,20.5-6.9C210.9,115.4,217,111.5,222.5,106.8z M222.6,106.8c-5.4,4.9-11.5,8.9-18.1,12
					c-6.5,3.2-13.5,5.5-20.6,7c-7.1,1.6-14.3,2.5-21.6,3c-7.2,0.5-14.5,0.5-21.8,0.2l-0.2,0l0-0.2c0.2-0.6,0.4-1.3,0.9-1.8
					c0.4-0.5,1.1-0.9,1.8-0.9h0c6.3-0.2,12.5-0.8,18.8-1.6c6.2-0.9,12.4-2,18.5-3.6c6.1-1.6,12-3.6,17.7-6.3
					c5.6-2.7,11-6.2,14.9-11.2l0,0c0.5-0.9,1.5-1.4,2.5-1.3c1,0.1,1.9,0.5,2.7,0.9C219.8,104.1,221.2,105.4,222.6,106.8L222.6,106.8
					L222.6,106.8z"/>
			</g>
		</g>
	</g>
	<g>
		<g>
			<g>
				<path class="st4" d="M138.8,46.2c0,2.4-2,2.5-4.5,2.5s-4.5-0.1-4.5-2.5s2-5.9,4.5-5.9S138.8,43.8,138.8,46.2z"/>
				<path d="M138.9,46.2c0,0.6-0.1,1.2-0.5,1.7c-0.4,0.5-1,0.8-1.6,1c-1.2,0.3-2.4,0.3-3.6,0.2c-0.6-0.1-1.2-0.2-1.8-0.4
					c-0.6-0.2-1.2-0.6-1.5-1.1c-0.3-0.6-0.4-1.2-0.3-1.8c0-0.6,0.1-1.2,0.3-1.8c0.3-1.2,0.9-2.3,1.9-3.2c0.5-0.4,1-0.8,1.7-1
					c0.3-0.1,0.7-0.1,1-0.1c0.4,0,0.7,0.1,1,0.2c1.3,0.5,2.1,1.6,2.6,2.7C138.6,43.8,138.8,45,138.9,46.2z M138.8,46.2
					c0-1.2-0.6-2.3-1.2-3.2c-0.7-0.9-1.5-1.7-2.4-2c-0.9-0.4-1.9-0.1-2.7,0.6c-0.8,0.7-1.5,1.6-2,2.6c-0.2,0.5-0.4,1.1-0.5,1.6
					c-0.1,0.6,0,1.1,0.3,1.6c0.3,0.5,0.8,0.7,1.3,0.8c0.5,0.1,1.1,0.1,1.7,0.1c1.1,0,2.3,0,3.4,0c0.5,0,1.1-0.2,1.5-0.5
					C138.6,47.3,138.8,46.7,138.8,46.2z"/>
			</g>
			<g>
				<path class="st4" d="M127.6,117.8c1.2-1.9,2.7-1.1,4.5,0.1c1.8,1.1,3.3,2.1,2.1,4c-1.2,1.9-4.3,3.7-6.2,2.6
					C126.2,123.3,126.4,119.7,127.6,117.8z"/>
				<path d="M127.5,117.8c0.3-0.4,0.6-0.9,1.1-1.1c0.5-0.2,1.1-0.2,1.7-0.1c1.1,0.3,2,0.9,2.8,1.5c0.4,0.3,0.8,0.7,1.2,1.2
					c0.3,0.5,0.5,1.1,0.4,1.6c-0.1,0.6-0.4,1-0.7,1.5c-0.3,0.4-0.7,0.9-1,1.2c-0.8,0.8-1.7,1.4-2.8,1.6c-0.6,0.1-1.2,0.2-1.8,0
					c-0.2,0-0.3-0.1-0.4-0.2c-0.1,0-0.1-0.1-0.2-0.1l-0.2-0.1c-0.3-0.2-0.5-0.4-0.7-0.7c-0.7-1.1-0.7-2.3-0.5-3.3
					C126.6,119.6,127,118.7,127.5,117.8z M127.6,117.8c-0.5,0.9-0.7,2-0.6,3c0.1,1,0.3,2,0.7,2.7c0.1,0.2,0.3,0.3,0.4,0.4l0.2,0.1
					l0.1,0.1c0.1,0,0.2,0.1,0.3,0.1c0.4,0.1,0.8,0.2,1.3,0.1c0.9-0.2,1.8-0.6,2.7-1.1c0.8-0.6,1.6-1.4,1.7-2.3
					c0.1-0.5-0.2-0.9-0.5-1.2c-0.3-0.3-0.8-0.6-1.2-0.8c-0.9-0.5-1.7-1.1-2.6-1.6c-0.4-0.2-0.9-0.4-1.4-0.3
					C128.2,117,127.9,117.4,127.6,117.8z"/>
			</g>
			<g>
				<path class="st4" d="M135.6,62.3c0,2.9,1.4,4.5-1.7,4.5c-3.2,0-5.8,0.6-5.8-2.4s2.6-6.9,5.8-6.9C137,57.5,135.6,59.3,135.6,62.3
					z"/>
				<path d="M135.6,62.3c0,0.6,0.1,1.2,0.2,1.8c0.1,0.6,0.4,1.2,0.3,1.9c0,0.4-0.4,0.8-0.7,1c-0.3,0.2-0.7,0.2-1,0.3
					c-0.7,0.1-1.2,0-1.9,0c-1.2-0.1-2.5,0-3.7-0.7c-0.6-0.3-0.9-1-1-1.7c-0.1-0.6-0.1-1.3,0-1.9c0.2-1.3,0.7-2.5,1.5-3.5
					c0.8-1,1.8-2,3.2-2.3c0.3-0.1,0.7-0.1,1-0.1c0.2,0,0.3,0,0.5,0c0.2,0,0.3,0,0.5,0.1c0.3,0.1,0.7,0.2,1,0.4
					c0.4,0.2,0.5,0.7,0.5,1.1c0,0.7-0.2,1.3-0.3,1.9C135.7,61,135.7,61.6,135.6,62.3z M135.5,62.3c0-0.6,0-1.2,0.1-1.8
					c0-0.6,0.1-1.3,0-1.8c-0.1-0.3-0.2-0.4-0.4-0.5c-0.2-0.1-0.4-0.1-0.7-0.2l-0.4,0c-0.2,0-0.3,0-0.4,0c-0.3,0-0.5,0.1-0.8,0.1
					c-1,0.3-2,1-2.7,1.9c-0.7,0.9-1.3,1.9-1.7,3c-0.2,0.6-0.3,1.2-0.2,1.7c0,0.6,0.3,1.1,0.8,1.4c0.5,0.3,1.1,0.3,1.7,0.3
					c0.6,0,1.2-0.1,1.8-0.1c0.6-0.1,1.3-0.1,1.8-0.1c0.6-0.1,1.1-0.1,1.2-0.5c0.2-0.5,0.1-1.1,0.1-1.7
					C135.6,63.5,135.5,62.9,135.5,62.3z"/>
			</g>
			<g>
				<path class="st4" d="M134,82.1c0,2.9,1.4,4.5-1.7,4.5c-3.2,0-5.8,0.6-5.8-2.4s2.6-6.9,5.8-6.9C135.4,77.3,134,79.1,134,82.1z"/>
				<path d="M134,82.1c0,0.6,0.1,1.2,0.2,1.8c0.1,0.6,0.4,1.2,0.3,1.9c0,0.4-0.4,0.8-0.7,1c-0.3,0.2-0.7,0.2-1,0.3
					c-0.7,0.1-1.2,0-1.9,0c-1.2-0.1-2.5,0-3.7-0.7c-0.6-0.3-0.9-1-1-1.7c-0.1-0.6-0.1-1.3,0-1.9c0.2-1.3,0.7-2.5,1.5-3.5
					c0.8-1,1.8-2,3.2-2.3c0.3-0.1,0.7-0.1,1-0.1c0.2,0,0.3,0,0.5,0c0.2,0,0.3,0,0.5,0.1c0.3,0.1,0.7,0.2,1,0.4
					c0.4,0.2,0.5,0.7,0.5,1.1c0,0.7-0.2,1.3-0.3,1.9C134.1,80.9,134,81.5,134,82.1z M133.9,82.1c0-0.6,0-1.2,0.1-1.8
					c0-0.6,0.1-1.3,0-1.8c-0.1-0.3-0.2-0.4-0.4-0.5c-0.2-0.1-0.4-0.1-0.7-0.2l-0.4,0c-0.2,0-0.3,0-0.4,0c-0.3,0-0.5,0.1-0.8,0.1
					c-1,0.3-2,1-2.7,1.9c-0.7,0.9-1.3,1.9-1.7,3c-0.2,0.6-0.3,1.2-0.2,1.7c0,0.6,0.3,1.1,0.8,1.4c0.5,0.3,1.1,0.3,1.7,0.3
					c0.6,0,1.2-0.1,1.8-0.1c0.6-0.1,1.3-0.1,1.8-0.1c0.6,0,1.1-0.1,1.2-0.5c0.2-0.5,0.1-1.1,0.1-1.7C134,83.3,133.9,82.7,133.9,82.1
					z"/>
			</g>
			<g>
				<path class="st4" d="M133.4,102.6c0,2.9,1.4,4.5-1.7,4.5c-3.2,0-5.8,0.6-5.8-2.4s2.6-6.9,5.8-6.9
					C134.8,97.9,133.4,99.7,133.4,102.6z"/>
				<path d="M133.4,102.6c0,0.6,0.1,1.2,0.2,1.8c0.1,0.6,0.4,1.2,0.3,1.9c0,0.4-0.4,0.8-0.7,1c-0.3,0.2-0.7,0.2-1,0.3
					c-0.7,0.1-1.2,0-1.9,0c-1.2-0.1-2.5,0-3.7-0.7c-0.6-0.3-0.9-1-1-1.7c-0.1-0.6-0.1-1.3,0-1.9c0.2-1.3,0.7-2.5,1.5-3.5
					c0.8-1,1.8-2,3.2-2.3c0.3-0.1,0.7-0.1,1-0.1c0.2,0,0.3,0,0.5,0c0.2,0,0.3,0,0.5,0.1c0.3,0.1,0.7,0.2,1,0.4
					c0.4,0.2,0.5,0.7,0.5,1.1c0,0.7-0.2,1.3-0.3,1.9C133.5,101.4,133.4,102,133.4,102.6z M133.3,102.6c0-0.6,0-1.2,0.1-1.8
					c0-0.6,0.1-1.3,0-1.8c-0.1-0.3-0.2-0.4-0.4-0.5c-0.2-0.1-0.4-0.1-0.7-0.2l-0.4,0c-0.2,0-0.3,0-0.4,0c-0.3,0-0.5,0.1-0.8,0.1
					c-1,0.3-2,1-2.7,1.9c-0.7,0.9-1.3,1.9-1.7,3c-0.2,0.6-0.3,1.2-0.2,1.7c0,0.6,0.3,1.1,0.8,1.4c0.5,0.3,1.1,0.3,1.7,0.3
					c0.6,0,1.2-0.1,1.8-0.1c0.6-0.1,1.3-0.1,1.8-0.1c0.6-0.1,1.1-0.1,1.2-0.5c0.2-0.5,0.1-1.1,0.1-1.7
					C133.4,103.8,133.3,103.2,133.3,102.6z"/>
			</g>
			<g>
				<path class="st4" d="M130.6,136.6c0,3,0,5.4-1.8,5.4c-1.8,0-4.8-2.4-4.8-5.4c0-3,3-5.4,4.8-5.4
					C130.6,131.2,130.6,133.7,130.6,136.6z"/>
				<path d="M130.7,136.6c0,1.2,0.2,2.3,0.1,3.6c-0.1,0.6-0.2,1.3-0.8,1.8c-0.3,0.3-0.7,0.4-1.1,0.4c-0.4,0-0.7-0.1-1-0.2
					c-1.2-0.5-2.1-1.4-2.8-2.3c-0.7-1-1.3-2.1-1.3-3.3c-0.1-1.2,0.4-2.5,1.1-3.5c0.8-1,1.7-1.9,3-2.3c0.3-0.1,0.7-0.1,1-0.1
					c0.4,0,0.8,0.2,1.1,0.5c0.6,0.6,0.7,1.3,0.7,1.9C130.8,134.3,130.7,135.5,130.7,136.6z M130.6,136.6c0-1.2-0.1-2.4-0.5-3.5
					c-0.2-0.5-0.4-1-0.7-1.3c-0.1-0.1-0.3-0.2-0.5-0.2c-0.2,0-0.5,0-0.7,0.1c-1.9,0.7-3.7,2.6-3.9,4.8c-0.1,1.1,0.3,2.3,1.1,3.1
					c0.7,0.9,1.8,1.5,2.8,1.7c0.5,0.1,1,0.1,1.3-0.1c0.3-0.2,0.5-0.8,0.7-1.3C130.4,139,130.6,137.8,130.6,136.6z"/>
			</g>
			<g>
				<path class="st4" d="M127.2,156.7c-1,2.8-1.8,5.1-3.5,4.5c-1.7-0.6-3.7-3.8-2.8-6.6c1-2.8,4.5-4.1,6.3-3.6
					C128.9,151.6,128.1,153.9,127.2,156.7z"/>
				<path d="M127.2,156.7c-0.4,1.1-0.6,2.3-1.1,3.4c-0.3,0.5-0.6,1.2-1.3,1.5c-0.4,0.2-0.8,0.2-1.1,0c-0.3-0.1-0.7-0.3-0.9-0.5
					c-1-0.8-1.5-2-1.9-3.1c-0.4-1.1-0.5-2.4-0.2-3.6c0.3-1.2,1.2-2.3,2.2-3c1-0.7,2.3-1.2,3.6-1.1c0.3,0,0.7,0.1,1,0.2
					c0.4,0.2,0.7,0.4,0.9,0.8c0.4,0.7,0.2,1.4,0.1,2C128.1,154.6,127.6,155.6,127.2,156.7z M127.1,156.7c0.4-1.1,0.6-2.3,0.7-3.4
					c0-0.6,0-1.1-0.3-1.4c-0.1-0.1-0.3-0.3-0.4-0.3c-0.2-0.1-0.4-0.1-0.7-0.1c-2,0-4.3,1.2-5.2,3.2c-0.4,1-0.4,2.2,0,3.3
					c0.4,1.1,1.2,2,2.1,2.5c0.4,0.3,0.9,0.4,1.3,0.3c0.4-0.1,0.8-0.5,1.1-1C126.2,158.9,126.7,157.8,127.1,156.7z"/>
			</g>
			<g>
				<path class="st4" d="M119,173.1c-1.1,2-2,3.6-3.6,2.8c-1.6-0.8-3.3-3.9-2.3-5.9c1.1-2,4.5-2.2,6.1-1.4
					C120.9,169.5,120.1,171.1,119,173.1z"/>
				<path d="M119.1,173.1c-0.5,0.9-0.8,1.8-1.4,2.7c-0.3,0.4-1,0.8-1.6,0.7c-0.6-0.1-1.1-0.5-1.5-0.8c-0.7-0.8-1.2-1.8-1.5-2.7
					c-0.3-1-0.5-2,0-3.1c0.4-1,1.5-1.7,2.5-2c1-0.3,2.1-0.4,3.2-0.1c0.5,0.2,1.1,0.3,1.5,0.9c0.5,0.5,0.5,1.3,0.3,1.8
					C120.1,171.5,119.5,172.2,119.1,173.1z M119,173.1c0.5-0.9,0.8-1.8,0.9-2.8c0-0.5-0.1-0.8-0.4-1c-0.2-0.2-0.7-0.4-1.1-0.5
					c-1.7-0.4-3.9-0.2-5,1.3c-0.5,0.7-0.5,1.8-0.1,2.7c0.4,0.9,1,1.7,1.7,2.2c0.3,0.3,0.7,0.5,1.1,0.6c0.3,0.1,0.7,0,1.1-0.3
					C117.9,174.8,118.5,173.9,119,173.1z"/>
			</g>
			<g>
				<path class="st4" d="M102.8,181.1c-2.3-0.1-4.1-0.2-4-2c0.1-1.8,2-4.7,4.3-4.6c2.3,0.1,4,3.1,3.9,4.9S105.1,181.2,102.8,181.1z"
					/>
				<path d="M102.8,181.2c-1-0.1-2,0.1-3.1-0.1c-0.5-0.1-1.2-0.5-1.3-1.2c-0.2-0.6-0.1-1.2,0.1-1.7c0.4-1,1.1-1.8,1.8-2.5
					c0.7-0.7,1.6-1.3,2.8-1.4c1.1,0,2.2,0.6,2.9,1.4c0.7,0.8,1.2,1.8,1.5,2.8c0.1,0.6,0.1,1.1-0.1,1.7c-0.2,0.6-0.9,1-1.5,1.1
					C104.8,181.5,103.8,181.2,102.8,181.2z M102.8,181.1c1,0,2,0,2.9-0.4c0.4-0.2,0.7-0.5,0.7-0.8c0.1-0.3,0.1-0.8,0-1.2
					c-0.4-1.7-1.5-3.6-3.3-3.9c-0.9-0.1-1.9,0.3-2.5,1c-0.7,0.7-1,1.6-1.2,2.5c-0.1,0.4-0.1,0.9-0.1,1.2c0.1,0.3,0.3,0.6,0.7,0.8
					C100.8,180.9,101.8,181.1,102.8,181.1z"/>
			</g>
			<g>
				<path class="st4" d="M87,178.2c-1.8-1.3-3.3-2.5-2.2-3.9c1.1-1.5,4.3-2.8,6.1-1.4c1.8,1.3,1.6,4.8,0.5,6.3
					C90.4,180.6,88.9,179.6,87,178.2z"/>
				<path d="M87,178.3c-0.8-0.6-1.7-1-2.5-1.8c-0.4-0.4-0.7-1.1-0.5-1.7c0.2-0.6,0.6-1,1-1.4c0.9-0.6,1.9-0.9,2.9-1.1
					c1-0.2,2.1-0.2,3.1,0.4c0.9,0.6,1.5,1.7,1.6,2.7c0.1,1.1,0.1,2.2-0.4,3.2c-0.2,0.5-0.5,1-1.1,1.4c-0.6,0.4-1.3,0.3-1.8,0.1
					C88.5,179.6,87.8,178.8,87,178.3z M87.1,178.2c0.8,0.6,1.7,1.1,2.6,1.3c0.5,0.1,0.8,0,1-0.2c0.2-0.2,0.5-0.6,0.6-1
					c0.6-1.6,0.7-3.8-0.6-5.1c-0.7-0.6-1.7-0.8-2.7-0.5c-0.9,0.2-1.8,0.8-2.4,1.4c-0.3,0.3-0.6,0.7-0.7,1c-0.1,0.3-0.1,0.7,0.1,1.1
					C85.5,176.9,86.3,177.6,87.1,178.2z"/>
			</g>
			<g>
				<path class="st4" d="M73.8,166.8c-1.6-1.6-2.8-3-1.5-4.2c1.3-1.3,4.7-2,6.3-0.4c1.6,1.6,0.7,5-0.5,6.3
					C76.7,169.7,75.4,168.5,73.8,166.8z"/>
				<path d="M73.7,166.9c-0.7-0.7-1.5-1.3-2.1-2.2c-0.3-0.4-0.5-1.2-0.2-1.8c0.3-0.6,0.8-0.9,1.3-1.2c1-0.5,2-0.6,3-0.6
					c1,0,2.1,0.2,3,0.9c0.8,0.7,1.2,1.9,1.1,3c0,1.1-0.3,2.1-0.9,3.1c-0.3,0.5-0.7,0.9-1.3,1.2c-0.6,0.3-1.4,0.1-1.8-0.2
					C75,168.4,74.4,167.6,73.7,166.9z M73.8,166.8c0.7,0.7,1.5,1.4,2.4,1.7c0.4,0.2,0.8,0.1,1.1-0.1c0.3-0.2,0.6-0.5,0.8-0.9
					c0.9-1.5,1.3-3.6,0.3-5.1c-0.5-0.7-1.6-1-2.5-0.9c-1,0.1-1.9,0.5-2.6,1c-0.4,0.3-0.7,0.5-0.9,0.9c-0.2,0.3-0.2,0.7-0.1,1.1
					C72.5,165.3,73.1,166.1,73.8,166.8z"/>
			</g>
			<g>
				<path class="st4" d="M64.3,151.9c-1.1-2-1.9-3.6-0.3-4.5c1.6-0.9,5.1-0.6,6.1,1.3c1.1,2-0.6,5-2.2,5.9
					C66.3,155.5,65.4,153.9,64.3,151.9z"/>
				<path d="M64.3,151.9c-0.4-0.9-1.1-1.6-1.4-2.7c-0.2-0.5-0.1-1.3,0.3-1.7c0.4-0.5,1-0.7,1.5-0.8c1.1-0.2,2.1,0,3.1,0.3
					c1,0.3,2,0.7,2.6,1.7c0.6,0.9,0.6,2.2,0.3,3.2c-0.3,1-0.9,2-1.7,2.7c-0.4,0.4-0.9,0.7-1.6,0.8c-0.7,0.1-1.3-0.3-1.7-0.7
					C65.1,153.7,64.8,152.8,64.3,151.9z M64.4,151.9c0.5,0.9,1.1,1.7,1.8,2.3c0.4,0.3,0.7,0.3,1,0.2c0.3-0.1,0.7-0.3,1-0.6
					c1.2-1.2,2.3-3.1,1.6-4.9c-0.3-0.8-1.2-1.4-2.2-1.6c-0.9-0.2-1.9-0.1-2.8,0.2c-0.4,0.1-0.8,0.3-1.1,0.6c-0.2,0.2-0.4,0.6-0.4,1
					C63.5,150,63.9,151,64.4,151.9z"/>
			</g>
		</g>
		<path class="st12" d="M138.8,46.2c0-1.6-0.8-3.5-2.1-4.8c-0.3,2.4-0.5,4.8-0.7,7.2C137.6,48.5,138.8,48,138.8,46.2z"/>
		<path class="st12" d="M132.1,117.8c-0.6-0.3-1.1-0.6-1.6-0.9c-0.3,2.6-0.6,5.2-0.9,7.8c1.7-0.1,3.7-1.5,4.6-2.9
			C135.3,120,133.9,119,132.1,117.8z"/>
		<path class="st12" d="M135.2,57.7c-0.2,3-0.5,6-0.7,9c2.3-0.2,1.1-1.8,1.1-4.5C135.6,59.9,136.5,58.2,135.2,57.7z"/>
		<path class="st12" d="M133.7,77.6c-0.2,3-0.4,6-0.6,8.9c2-0.3,0.9-1.8,0.9-4.5C134,79.8,134.8,78.2,133.7,77.6z"/>
		<path class="st12" d="M132.2,97.9c-0.2,3.1-0.5,6.2-0.8,9.2c0.1,0,0.1,0,0.2,0c3.2,0,1.7-1.6,1.7-4.5
			C133.4,99.9,134.6,98.1,132.2,97.9z"/>
		<path class="st12" d="M128.8,131.2C128.8,131.2,128.7,131.3,128.8,131.2c-0.5,3.4-1.1,6.8-1.7,10.3c0.6,0.3,1.2,0.5,1.7,0.5
			c1.8,0,1.8-2.4,1.8-5.4C130.6,133.7,130.6,131.2,128.8,131.2z"/>
		<path class="st12" d="M127.2,151c-0.5-0.2-1.1-0.2-1.8,0c-0.7,3.3-1.4,6.6-2.2,9.9c0.2,0.1,0.4,0.2,0.6,0.3
			c1.7,0.6,2.5-1.7,3.5-4.5C128.1,153.9,128.9,151.6,127.2,151z"/>
		<path class="st12" d="M115,175.5c0.2,0.1,0.3,0.3,0.5,0.4c1.6,0.8,2.5-0.8,3.6-2.8c0.7-1.3,1.2-2.4,1.2-3.3
			C118.9,172.1,117.1,174,115,175.5z"/>
		<path class="st12" d="M98.8,179.6c0.3,1.3,1.9,1.5,4,1.5c2.3,0.1,4.1,0.1,4.2-1.7c0-0.1,0-0.2,0-0.3
			C104.3,179.8,101.5,180,98.8,179.6z"/>
		<path class="st12" d="M85.7,173.5c-0.4,0.3-0.7,0.5-0.9,0.8c-1.1,1.5,0.4,2.6,2.2,3.9c1.8,1.3,3.3,2.4,4.4,0.9
			c0.3-0.4,0.5-1,0.7-1.7c-0.8-0.4-1.6-0.9-2.3-1.5C88.5,175.2,87.1,174.3,85.7,173.5z"/>
		<path class="st12" d="M72.2,162.6c-1.2,1.2,0,2.6,1.6,4.2c1.6,1.6,2.9,2.9,4.2,1.7c0.1-0.1,0.2-0.2,0.3-0.3
			C76.1,166.4,74,164.6,72.2,162.6z"/>
		<path class="st12" d="M64.3,151.9c0.7,1.3,1.4,2.5,2.2,2.8c-1.2-2.3-2.1-4.7-2.6-7.3C62.5,148.3,63.3,149.9,64.3,151.9z"/>
	</g>
	<ellipse class="st1" cx="119.1" cy="247.5" rx="52.6" ry="6.7"/>
</g>
</svg>
