<?xml version="1.0" encoding="utf-8"?>
<!-- Generator: Adobe Illustrator 15.1.0, SVG Export Plug-In . SVG Version: 6.00 Build 0)  -->
<!DOCTYPE svg PUBLIC "-//W3C//DTD SVG 1.1//EN" "http://www.w3.org/Graphics/SVG/1.1/DTD/svg11.dtd">
<svg version="1.1" id="animals" xmlns="http://www.w3.org/2000/svg" xmlns:xlink="http://www.w3.org/1999/xlink" x="0px" y="0px"
	 width="148px" height="158.3px" viewBox="0 0 148 158.3" style="enable-background:new 0 0 148 158.3;" xml:space="preserve">
<style type="text/css">
<![CDATA[
	.st0{fill:#C17E34;}
	.st1{opacity:0.52;fill:#6D4319;}
]]>
</style>
<g>
	<g>
		<path class="st0" d="M71.4,7.8c-38.2,0-57,31.6-51.4,61.4c4.5,24.1,15.2,32.2,35.2,34.5c-2,8.2-6.9,31-6.1,52.4
			c1,26.6,91.7,96.7,44.2-51.7c23.1-0.5,30.7-4.4,34.7-32C133.6,33.9,114.9,7.8,71.4,7.8z"/>
		<path d="M71.4,7.9c-6.1,0-12.2,0.8-18,2.7c-5.8,1.8-11.3,4.7-16,8.6c-4.7,3.8-8.6,8.6-11.6,13.9c-2.9,5.3-4.9,11.2-5.8,17.2
			c-0.9,6-0.9,12.1,0.2,18.1c1.1,6,2.7,11.9,5.4,17.3c1.4,2.7,3,5.2,5.1,7.4c2,2.2,4.5,4,7.1,5.5c5.3,2.9,11.4,4.2,17.4,4.9l0.4,0
			l-0.1,0.4c-2.1,8.7-3.8,17.6-4.9,26.5c-1.1,8.9-1.7,17.9-1.3,26.9c0.6,4.4,2.8,8.5,5.2,12.3c2.5,3.7,5.4,7.2,8.5,10.4
			c3.2,3.2,6.6,6.1,10.3,8.7c3.7,2.5,7.6,4.8,11.9,6.1c2.1,0.7,4.3,1.1,6.5,1.1c2.2,0,4.4-0.4,6.4-1.5c1.9-1.1,3.5-2.7,4.7-4.6
			c1.2-1.9,2-4,2.5-6.1c1.1-4.3,1.4-8.8,1.4-13.3c-0.1-4.5-0.5-9-1-13.4c-1.2-8.9-3.1-17.7-5.3-26.4c-2.2-8.7-4.8-17.3-7.5-25.9
			l-0.2-0.6l0.6,0c3.2-0.1,6.5-0.2,9.6-0.6c3.2-0.4,6.4-0.9,9.3-2.1c3-1.1,5.6-3,7.6-5.5c2-2.5,3.3-5.4,4.4-8.4c1-3,1.8-6.2,2.4-9.3
			c0.6-3.2,1.1-6.4,1.5-9.6c0.7-6.4,0.8-12.9-0.1-19.3c-0.9-6.4-2.9-12.6-6.2-18.2c-3.2-5.6-7.8-10.3-13.2-13.8
			c-5.4-3.5-11.5-5.9-17.8-7.4C84.3,8.5,77.8,7.9,71.4,7.9z M71.4,7.8c6.5,0,13,0.5,19.3,1.9c6.3,1.4,12.5,3.8,17.9,7.3
			c5.5,3.5,10.1,8.3,13.5,13.9c3.4,5.6,5.4,11.9,6.4,18.3c1,6.4,1,13,0.3,19.5c-0.3,3.2-0.8,6.4-1.4,9.6c-0.6,3.2-1.4,6.4-2.4,9.5
			c-1.1,3.1-2.5,6.1-4.5,8.7c-2.1,2.6-4.9,4.6-8,5.8c-3.1,1.2-6.3,1.8-9.6,2.2c-3.2,0.4-6.5,0.5-9.7,0.5l0.4-0.6
			c2.7,8.6,5.3,17.2,7.5,26c2.2,8.7,4.1,17.6,5.3,26.5c0.6,4.5,0.9,9,1,13.5c0,4.5-0.3,9.1-1.5,13.5c-0.6,2.2-1.4,4.3-2.6,6.3
			c-1.2,1.9-2.9,3.6-4.9,4.7c-2,1.1-4.4,1.6-6.7,1.5c-2.3,0-4.5-0.5-6.7-1.2c-4.3-1.4-8.3-3.7-12-6.3c-3.7-2.6-7.1-5.6-10.3-8.8
			c-3.1-3.2-6-6.7-8.5-10.5c-1.2-1.9-2.4-3.9-3.3-5.9c-0.9-2.1-1.7-4.2-2-6.5c-0.5-9,0.1-18,1.1-27c1.1-8.9,2.7-17.8,4.7-26.6
			l0.3,0.4c-6.1-0.7-12.2-1.9-17.7-4.9c-2.7-1.5-5.2-3.3-7.4-5.6c-2.1-2.3-3.9-4.8-5.3-7.6c-2.8-5.5-4.3-11.5-5.4-17.6
			c-1-6.1-1-12.3,0-18.3c1-6.1,3-11.9,6-17.3c3-5.3,7-10.1,11.8-13.9c4.8-3.8,10.3-6.7,16.1-8.5C59.2,8.6,65.3,7.8,71.4,7.8z"/>
	</g>
	<path class="st1" d="M43.4,66.3l-2.5-51.2c0,0-3,1.8-9.7,3.6C24.5,20.4,3,35.1,17.5,77.5c2.8,8.2,5.8,14.6,8.8,19.2
		c5.7,1.7,11.5,2.3,17.1,3.4C45.8,93.8,46.3,82.5,43.4,66.3z"/>
	<path class="st1" d="M103.8,70.9l2.5-51.2c0,0,3,1.8,9.7,3.6c6.7,1.8,28.2,16.5,13.7,58.8c-2.8,8.2-5.8,14.6-8.8,19.2
		c-5.7,1.7-11.5,2.3-17.1,3.4C101.4,98.4,101,87,103.8,70.9z"/>
	<g>
		<path class="st0" d="M49.8,11.8c0,0-3.7,1.4-11.6,2.2c-7.9,0.8-34.7,12.8-25.5,59.3c9.2,46.5,32.8,42.6,31.3-7.6"/>
		<path d="M49.8,11.8c-3.3,1.2-6.8,1.8-10.3,2.3c-3.5,0.2-6.8,1.6-9.8,3.3c-6,3.5-10.8,8.9-13.9,15.1c-3.1,6.2-4.6,13.2-4.9,20.2
			c-0.3,7,0.6,14,2,20.9c1.5,6.8,3.4,13.6,6.3,19.9c1.5,3.1,3.3,6.2,5.6,8.6c1.2,1.2,2.6,2.3,4.1,2.8c1.5,0.6,3.2,0.5,4.7-0.3
			c1.5-0.8,2.6-2,3.6-3.4c1-1.4,1.7-3,2.4-4.6c1.3-3.2,2.1-6.6,2.7-10.1c0.6-3.4,0.9-6.9,1.1-10.4c0.2-3.5,0.3-7,0.3-10.5l0.1,0
			c0.4,7,0.3,14.1-0.8,21.1c-0.5,3.5-1.3,7-2.6,10.3c-0.6,1.7-1.4,3.3-2.4,4.8c-1,1.5-2.3,2.9-4,3.8c-1.7,0.9-3.7,1-5.5,0.4
			c-1.8-0.6-3.3-1.8-4.5-3.1c-2.5-2.6-4.3-5.8-5.8-9c-2.9-6.5-4.7-13.3-6-20.2c-1.3-6.9-2-13.9-1.8-21c0.2-7,1.4-14.1,4.5-20.6
			c1.5-3.2,3.5-6.2,5.9-8.8c2.4-2.6,5.2-4.9,8.3-6.6c3.1-1.7,6.5-3,10.1-3.2C43,13.2,46.5,12.7,49.8,11.8L49.8,11.8z"/>
	</g>
	<g>
		<path class="st0" d="M96,11.8c0,0,3.7,1.4,11.6,2.2c7.9,0.8,34.7,12.8,25.5,59.3c-9.2,46.5-32.8,42.6-31.3-7.6"/>
		<path d="M96,11.7c3.4,1,6.8,1.5,10.3,1.9c3.5,0.2,7,1.4,10.1,3.2c3.1,1.7,5.9,4,8.3,6.6c2.4,2.6,4.4,5.6,5.9,8.8
			c3.1,6.4,4.2,13.5,4.5,20.6c0.2,7-0.5,14.1-1.8,21c-1.3,6.9-3.1,13.8-6,20.2c-1.5,3.2-3.3,6.3-5.8,9c-1.3,1.3-2.7,2.5-4.5,3.1
			c-1.8,0.7-3.9,0.5-5.5-0.4c-1.7-0.9-2.9-2.3-4-3.8c-1-1.5-1.8-3.1-2.4-4.8c-1.3-3.3-2-6.8-2.6-10.3c-1-7-1.2-14.1-0.8-21.1l0.1,0
			c0,3.5,0.1,7,0.3,10.5c0.2,3.5,0.6,7,1.1,10.4c0.6,3.4,1.4,6.8,2.7,10.1c0.7,1.6,1.4,3.2,2.4,4.6c1,1.4,2.1,2.7,3.6,3.4
			c1.4,0.8,3.1,0.9,4.7,0.3c1.6-0.5,2.9-1.6,4.1-2.8c2.4-2.5,4.2-5.5,5.6-8.6c2.9-6.3,4.9-13.1,6.3-19.9c1.5-6.8,2.3-13.9,2-20.9
			c-0.3-7-1.8-14-4.9-20.2c-3.1-6.2-7.8-11.7-13.9-15.1c-3-1.7-6.3-3.1-9.8-3.3C102.8,13.6,99.3,13,96,11.7L96,11.7z"/>
	</g>
	<path class="st1" d="M130.4,32.8c-0.7,5.4-2.5,10.2-5.9,13.6c-12,9.6-20.4,2.4-31.3,16.8c-7.2,12-30.1,8.4-44.5,2.4
		c-2.4-1.2-6-8.4-2.4-14.4c-9.6,2.4-19.2,1.2-26.5-4.8c-2.7-2.3-5.1-4.7-7-7.4c-2.5,8.5-3.2,19.7-0.3,34.3
		C19,104.8,31.8,113.2,39,99.6c5.6,2.7,12.4,4,20.7,4.6c-1.6,8.6-5.3,30.9-4.7,52c0.8,26.6,71.1,96.7,34.3-51.6
		c8.2-0.1,14.6-0.4,19.7-1.7c7.4,8.4,18.4-1.1,24.1-29.6C136.7,54.9,134.7,41.8,130.4,32.8z"/>
	<g>
		<path class="st0" d="M40.7,63.1c0,0-20.8-2.5-9.2,6.9c11.6,9.4,30.2,15.1,26.6,39.5c-3.6,24.4,12.5,48.7,12.5,48.7l13.3-5.9
			c0,0-20.4-9.2-13.7-49.3C70.2,103,69.1,75,40.7,63.1z"/>
		<path d="M40.7,63.2c-2.5-0.2-5.1-0.3-7.6-0.1c-1.3,0.1-2.5,0.3-3.6,0.8c-0.5,0.3-1,0.6-1.2,1.2c-0.2,0.5,0.1,1.1,0.4,1.6
			c0.6,1,1.6,1.9,2.5,2.7c1,0.8,2,1.6,3,2.3c2.1,1.5,4.2,2.8,6.3,4.3c4.2,2.8,8.5,5.8,11.9,9.7c3.4,3.9,5.7,8.8,6.3,14
			c0.3,2.6,0.3,5.2,0,7.7c-0.1,1.3-0.4,2.5-0.5,3.8c-0.2,1.3-0.3,2.5-0.3,3.8c-0.2,5.1,0.3,10.2,1.3,15.1c1,5,2.6,9.8,4.6,14.5
			c2,4.7,4.3,9.2,7,13.5l-0.3-0.1l13.3-6l0,0.7c-2.1-1.1-3.9-2.6-5.5-4.2c-1.6-1.7-3-3.5-4.1-5.5c-2.3-4-3.8-8.4-4.7-12.8
			c-0.9-4.5-1.2-9.1-1.1-13.6c0.1-4.6,0.6-9.1,1.4-13.6l0,0.1c-0.3-4.2-1.3-8.5-2.8-12.5c-1.5-4-3.5-7.9-6-11.4
			C55.8,72.1,48.7,66.6,40.7,63.2z M40.8,63.1c4,1.6,7.9,3.7,11.4,6.3c3.5,2.6,6.6,5.8,9.2,9.3c2.6,3.5,4.7,7.4,6.3,11.5
			c1.6,4.1,2.7,8.3,3,12.8l0,0l0,0.1c-0.7,4.4-1.2,8.9-1.3,13.4c-0.1,4.5,0.2,9,1,13.4c0.8,4.4,2.3,8.7,4.5,12.6
			c1.1,1.9,2.4,3.7,3.9,5.4c1.5,1.6,3.3,3.1,5.2,4.1l0.7,0.4l-0.7,0.3l-13.3,5.8l-0.2,0.1l-0.1-0.2c-2.7-4.4-4.9-9-6.9-13.7
			c-1.9-4.7-3.5-9.6-4.6-14.6c-1.1-5-1.7-10.1-1.5-15.2c0-1.3,0.1-2.6,0.3-3.8c0.1-1.3,0.3-2.5,0.4-3.8c0.2-2.5,0.2-5.1-0.1-7.5
			c-0.3-2.5-1-4.9-2-7.2c-1-2.3-2.4-4.4-4.1-6.3c-3.3-3.8-7.5-6.8-11.7-9.6c-2.1-1.4-4.2-2.8-6.3-4.4c-1-0.8-2-1.5-3-2.4
			c-1-0.9-1.9-1.8-2.6-2.9c-0.3-0.6-0.6-1.3-0.4-2c0.2-0.7,0.9-1.2,1.5-1.4c1.2-0.5,2.5-0.7,3.8-0.7C35.6,62.6,38.2,62.8,40.8,63.1
			L40.8,63.1L40.8,63.1z"/>
	</g>
	<path class="st1" d="M61.9,96.7c0.9-15.9-18.3-24.7-33.8-30.6c0.3,1,1.3,2.3,3.4,4c11.6,9.4,30.2,15.1,26.6,39.5
		c-3.6,24.4,12.5,48.7,12.5,48.7l4.8-2.1C62.8,141.6,61.2,117.4,61.9,96.7z"/>
</g>
</svg>
