<?xml version="1.0" encoding="utf-8"?>
<!-- Generator: Adobe Illustrator 15.1.0, SVG Export Plug-In . SVG Version: 6.00 Build 0)  -->
<!DOCTYPE svg PUBLIC "-//W3C//DTD SVG 1.1//EN" "http://www.w3.org/Graphics/SVG/1.1/DTD/svg11.dtd">
<svg version="1.1" id="animals" xmlns="http://www.w3.org/2000/svg" xmlns:xlink="http://www.w3.org/1999/xlink" x="0px" y="0px"
	 width="119px" height="141px" viewBox="0 0 119 141" style="enable-background:new 0 0 119 141;" xml:space="preserve">
<style type="text/css">
<![CDATA[
	.st0{opacity:0.43;}
	.st1{fill:#8482AF;}
	.st2{fill:#EDBB8A;}
	.st3{opacity:0.28;fill:#393972;}
	.st4{fill:#F7E8C9;}
	.st5{opacity:0.25;fill:#351905;}
	.st6{opacity:0.5;fill:#CEBB99;}
	.st7{opacity:0.25;fill:#050404;}
	.st8{fill:#FFFFFF;}
	.st9{fill:#595987;stroke:#000000;stroke-miterlimit:10;}
	.st10{fill:#494982;stroke:#000000;stroke-miterlimit:10;}
	.st11{opacity:0.46;fill:#B78558;}
	.st12{fill:#020202;}
	.st13{fill:#A34F04;}
	.st14{opacity:0.51;fill:#FFA9A9;}
]]>
</style>
<g>
	<g>
		<path class="st4" d="M42.6,31.4c0,0-8.5,6.8-21.2,5.6c0,0,13,8.6,24.9,0.3C46.3,37.3,47.9,32.2,42.6,31.4z"/>
		<path d="M42.6,31.5c-1.4,1.2-3,2.2-4.7,3.1c-1.7,0.8-3.5,1.5-5.3,2c-1.8,0.5-3.7,0.7-5.6,0.8c-1.9,0.1-3.8,0-5.6-0.2l0.1-0.3
			c1.8,1.1,3.9,2,6,2.5c2.1,0.6,4.2,0.9,6.4,1c2.1,0.1,4.3-0.2,6.3-0.8c2.1-0.6,4-1.5,5.8-2.7l-0.2,0.2c0.2-0.6,0.3-1.2,0.2-1.8
			c0-0.6-0.1-1.2-0.4-1.8C45.1,32.4,43.9,31.7,42.6,31.5z M42.6,31.3c0.7,0.1,1.3,0.2,2,0.5c0.6,0.3,1.2,0.8,1.6,1.4
			c0.4,0.6,0.6,1.3,0.7,2c0.1,0.7,0,1.4-0.2,2.1l0,0.1l-0.1,0.1c-1.8,1.3-3.8,2.4-6,3c-2.2,0.6-4.4,0.8-6.7,0.7
			c-2.2-0.1-4.4-0.6-6.5-1.4c-1-0.4-2.1-0.8-3.1-1.3c-1-0.5-2-1-2.9-1.6l-0.5-0.3l0.6,0.1c3.7,0.4,7.4-0.3,11-1.1
			c1.8-0.4,3.5-1,5.2-1.8C39.3,33.2,41,32.4,42.6,31.3L42.6,31.3L42.6,31.3z"/>
	</g>
	<path class="st6" d="M42.6,31.4c0,0-8.5,6.8-21.2,5.6c0,0,13,8.6,24.9,0.3C46.3,37.3,47.9,32.2,42.6,31.4z"/>
	<path class="st10" d="M48.8,108.2c0,0-21.3,2.6-24.3,6c-3,3.4,25.4,1,25.4,1L48.8,108.2z"/>
	<path class="st9" d="M73.7,57.4c-7-15.1-22-19.8-40.4-19.9c-0.8,3-3.5,7.1-1.3,9.4c33.2,33.9,21.8,26.3,39,32.7
		C74.3,71.4,76.1,62.9,73.7,57.4z"/>
	<g>
		<path class="st1" d="M59.8,19.1c0,0-3.5-3.3-7.4-4.5c-4.8-1.5-16.7-7.4-18.3,26.1c-1.6,33.5,15.8,32.8,28.7-3.5L59.8,19.1z"/>
		<g>
			<path d="M59.7,19.2c-1.8-1.5-3.7-2.8-5.8-3.7c-1-0.5-2.2-0.8-3.3-1.1c-1.1-0.3-2.2-0.6-3.3-0.7c-1.1-0.1-2.2,0-3.3,0.4
				c-1,0.4-2,1-2.8,1.7c-1.6,1.6-2.7,3.6-3.5,5.8c-1.6,4.3-2.4,8.9-3,13.5c-0.3,2.3-0.4,4.6-0.5,6.9c-0.1,2.3-0.1,4.6,0.1,7
				c0.1,2.3,0.4,4.6,1,6.9c0.5,2.2,1.3,4.5,2.6,6.3c0.7,0.9,1.5,1.7,2.4,2.2c1,0.5,2.1,0.6,3.1,0.4c2.1-0.4,4-1.9,5.6-3.5
				c1.6-1.6,3-3.4,4.3-5.4c1.3-1.9,2.4-3.9,3.5-6c2.1-4.1,3.9-8.4,5.5-12.7l0,0.2c-0.5-3-0.9-6-1.3-9.1
				C60.5,25.2,60.2,22.2,59.7,19.2z M59.8,19.1c0.6,3,1.2,6,1.7,9c0.5,3,1.1,6,1.6,9l0,0.1l0,0.1c-1.5,4.4-3.2,8.8-5.4,12.9
				c-2.1,4.2-4.6,8.2-8,11.6c-1.7,1.6-3.7,3.2-6.2,3.6c-1.2,0.2-2.5,0.1-3.7-0.5c-1.1-0.6-2-1.5-2.7-2.5c-1.3-2-2-4.3-2.5-6.6
				c-0.5-2.3-0.7-4.6-0.8-7c-0.2-4.7,0-9.3,0.3-14c0.4-4.6,1-9.3,2.7-13.8c0.8-2.2,2-4.4,3.8-6c0.9-0.8,2-1.5,3.1-1.9
				c1.2-0.4,2.4-0.5,3.6-0.3c1.2,0.1,2.3,0.5,3.5,0.8c1.1,0.4,2.2,0.7,3.3,1.2C56.2,16.1,58.1,17.5,59.8,19.1L59.8,19.1L59.8,19.1z"
				/>
		</g>
	</g>
	<path class="st3" d="M62.7,37.2l-3-18.1c0,0-3.5-3.3-7.4-4.5c-1.4-0.4-3.3-1.2-5.4-1.4C32.7,24.7,33,46.5,39.5,64.2
		C45.4,68.2,54.9,59.3,62.7,37.2z"/>
	<g>
		<path class="st2" d="M104,51.9c0,14.1,0,26.8-35,25.6C37.1,76.4,34.4,67.2,41.5,52C47.6,39,49.6,26.4,69,26.4
			C88.3,26.4,104,37.8,104,51.9z"/>
		<g>
			<path d="M104,51.9c0,3.9,0.1,7.9-0.8,11.8c-0.4,1.9-1.2,3.8-2.3,5.5c-1.1,1.7-2.6,3.1-4.3,4.1c-3.4,2.2-7.4,3.2-11.3,3.9
				c-3.9,0.6-7.9,0.8-11.9,0.8c-4,0-7.9-0.3-11.9-0.7c-3.9-0.4-7.9-1-11.7-2.1c-1.9-0.6-3.8-1.3-5.5-2.2c-1.7-0.9-3.4-2.2-4.5-3.9
				c-1.1-1.7-1.7-3.7-1.7-5.7c0-2,0.4-4,1-5.9c0.6-1.9,1.3-3.8,2.2-5.6c0.8-1.8,1.6-3.6,2.3-5.4c1.5-3.6,3-7.4,5.1-10.8
				c1.1-1.7,2.3-3.3,3.9-4.7c1.5-1.4,3.2-2.5,5.1-3.3c3.7-1.6,7.8-2.1,11.8-2c8,0.1,16,2.1,22.7,6.5c3.3,2.2,6.3,5,8.5,8.3
				C102.8,44,104.1,48,104,51.9z M103.9,51.9c0-4-1.3-7.8-3.6-11.1c-2.2-3.2-5.2-5.9-8.6-7.9c-6.7-4.1-14.6-6-22.4-6.1
				c-3.9,0-7.8,0.4-11.4,1.9c-3.6,1.5-6.5,4.2-8.6,7.5c-2.1,3.3-3.6,6.9-5.2,10.5c-0.8,1.8-1.6,3.6-2.5,5.4
				c-0.8,1.8-1.6,3.6-2.2,5.4c-0.6,1.9-1,3.8-1,5.7c0,1.9,0.5,3.9,1.6,5.5c1.1,1.6,2.7,2.9,4.4,3.8c1.7,1,3.6,1.6,5.5,2.1
				c3.8,1.1,7.7,1.6,11.7,1.9c3.9,0.3,7.9,0.4,11.8,0.4c3.9,0,7.9-0.2,11.8-0.8c3.9-0.6,7.7-1.5,11.1-3.5c1.7-1,3.2-2.3,4.3-3.9
				c1.2-1.6,1.9-3.4,2.4-5.3C104,59.9,103.9,55.9,103.9,51.9z"/>
		</g>
	</g>
	<path class="st11" d="M67.8,26.4c-6.3,0-10.7,1.3-14,3.6c1.8,2.9,4,5.9,6.2,9.1L51,42.4c0,0-8.3,3.4-10.6,9.6c0,0,1.8,0.5,4.8-1.5
		c0,0-2.6,4.6,3.1,2.8c-0.3,0.5-0.7,1-1.4,1.5c-2.7,1.8,3.7-0.7,4.7-4.3c0,0,1.5,1.4,1.5,3.5c0,0,2.9,1.4,1.8-4.2
		c0,0,3.4,1.6,2.9,4.3c0,0,2.8,0,1.5-3.6c0,0,1.2,1.5,0,4.1c-1,2.1,1.4-2,2.3-3.5c-0.1,0.5,0,1.4,1.5,2.6c0,0-0.4-1.8,0.7-3.1
		c0,0,3.8,2.2,3.1,4.9c0,0,1.2,0.1,2.4-0.6C71.5,60,72,65,69.2,69.1c-0.4-0.3-0.8-0.6-1.3-1.2c0,0,0.3,0.8,0.9,1.8
		c-0.8,1.1-1.9,2.1-3.2,3c-4.4,2.9-11,3.6-17.7,2.2c4.7,1.5,11.2,2.4,19.9,2.7c35,1.2,35-11.5,35-25.6S87.1,26.4,67.8,26.4z
		 M48.4,50.5c0,0,0.6,1.3,0,2.6C47.8,53,46.7,52.4,48.4,50.5z"/>
	<g>
		<path class="st13" d="M51,41.2c0,0-9.4,3.6-11.6,9.7c0,0,2.8,0.4,5.8-1.7c0,0-2.7,4.9,3.5,2.7c0,0-2.5-0.1-0.3-2.7
			c0,0,1.2,2.5-1.5,4.3c-2.7,1.8,3.7-0.7,4.7-4.3c0,0,1.5,1.4,1.5,3.5c0,0,2.9,1.4,1.8-4.2c0,0,3.4,1.6,2.9,4.3c0,0,2.8,0,1.5-3.6
			c0,0,1.2,1.5,0,4.1c-1.2,2.6,2.6-4.1,2.6-4.1s-1.3,1.1,1.2,3.1c0,0-0.4-1.8,0.7-3.1c0,0,3.8,2.2,3.1,4.9c0,0,3.2,0.2,4.1-2.7
			c0,0,6.6,5.1,1,10.2c0,0,1.2,0.8,2.7-0.4c0,0-2.2,11-6.9,5.3c0,0,3.5,8.6,7.4,2c0,0,7.5-23.1-12.9-31.8L51,41.2z"/>
		<path d="M51,41.3c-2.4,1-4.7,2.3-6.7,3.8c-2,1.6-3.9,3.5-4.8,5.9l-0.1-0.2c1,0.1,2-0.1,3-0.4c1-0.3,1.9-0.8,2.7-1.3l0.7-0.5
			l-0.4,0.8c-0.3,0.5-0.5,1-0.5,1.6c-0.1,0.5,0.1,1,0.5,1.2c0.5,0.2,1,0.1,1.6,0c0.6-0.1,1.1-0.3,1.7-0.5l0.1,0.6
			c-0.4,0-0.7-0.1-1-0.3c-0.3-0.2-0.5-0.7-0.5-1.1c0-0.4,0.2-0.7,0.4-1c0.2-0.3,0.4-0.5,0.6-0.8l0.3-0.4l0.2,0.5
			c0.5,1.1,0.4,2.5-0.3,3.5c-0.3,0.5-0.8,0.9-1.3,1.2l-0.3,0.2l-0.1,0.1l-0.1,0c0,0,0,0.1,0-0.1c0,0,0-0.2-0.1-0.2
			c0,0-0.1-0.1-0.1-0.1c0,0,0,0,0,0c-0.1,0-0.1,0-0.1,0l0,0c0,0,0.1,0,0.2-0.1c0.1,0,0.2-0.1,0.4-0.2c1-0.5,1.9-1.1,2.7-1.8
			c0.8-0.7,1.5-1.6,1.8-2.6l0.2-0.5l0.4,0.4c0.5,0.5,0.8,1.1,1.1,1.7c0.3,0.6,0.4,1.3,0.4,2l-0.2-0.2c0.4,0.2,0.8,0.2,1.1,0
			c0.3-0.2,0.5-0.7,0.5-1.1c0.1-0.9,0-1.9-0.1-2.8l-0.1-0.5l0.4,0.2c0.9,0.5,1.6,1,2.2,1.8c0.3,0.4,0.5,0.8,0.7,1.3
			c0.1,0.5,0.2,1,0.1,1.5l-0.2-0.2c0.7,0,1.4-0.4,1.6-1.1c0.2-0.7,0-1.5-0.2-2.2l-0.4-1.1l0.7,1c0.5,0.8,0.6,1.7,0.5,2.6
			c-0.1,0.4-0.2,0.9-0.4,1.3c-0.1,0.2-0.2,0.4-0.3,0.6c0,0.1-0.1,0.2-0.1,0.3c0,0,0,0,0,0c0-0.1-0.1-0.1-0.2-0.1c0,0,0,0,0,0l0-0.1
			l0.1-0.1c1-1.4,1.8-2.9,2.7-4.4l0.2,0.2c-0.2,0.2-0.3,0.5-0.3,0.7c0,0.3,0.1,0.6,0.3,0.8c0.3,0.5,0.8,1,1.2,1.3l-0.2,0.1
			c-0.1-0.6-0.1-1.1,0-1.7c0.1-0.6,0.4-1.1,0.7-1.6l0.1-0.1l0.1,0.1c0.9,0.6,1.7,1.2,2.4,2c0.3,0.4,0.6,0.9,0.8,1.4
			c0.2,0.5,0.2,1.1,0.1,1.6L66.9,54c0.8,0,1.7-0.2,2.4-0.6c0.7-0.4,1.2-1.1,1.5-1.9l0.1-0.3l0.3,0.2c0.8,0.7,1.5,1.4,2.1,2.2
			c0.6,0.8,1,1.8,1.2,2.8c0.2,1,0,2.1-0.4,3.1c-0.4,1-1.1,1.8-1.8,2.5l0-0.5c0.1,0.1,0.4,0.2,0.6,0.2c0.2,0,0.4,0,0.6,0
			c0.4-0.1,0.8-0.3,1.2-0.5l0.7-0.5l-0.2,0.9c-0.2,1-0.5,1.9-0.8,2.9C74,65.3,73.6,66.2,73,67c-0.3,0.4-0.6,0.8-1.1,1.2
			c-0.4,0.3-1,0.5-1.6,0.5c-1.2-0.2-2-1-2.7-1.7l0.6-0.4c0.3,0.8,0.8,1.6,1.3,2.3c0.5,0.7,1.1,1.4,1.8,1.7c0.7,0.4,1.5,0.3,2.1-0.2
			c0.6-0.5,1.2-1.2,1.6-1.9l0,0.1c0.9-3,1.3-6.1,1.3-9.2c0-3.1-0.4-6.2-1.4-9.2c-1-2.9-2.6-5.7-4.8-7.9c-2.2-2.2-4.9-4-7.7-5.2
			l0.1,0L51,41.3z M51,41.2l11.4-4.4l0,0l0,0c2.9,1.2,5.7,2.9,7.9,5.1c2.3,2.2,4,5,5.1,8c1.1,3,1.6,6.2,1.5,9.4
			c0,3.2-0.4,6.4-1.3,9.4l0,0l0,0c-0.5,0.8-1,1.6-1.8,2.2c-0.4,0.3-0.9,0.5-1.4,0.6c-0.5,0-1.1-0.1-1.5-0.3c-0.9-0.5-1.5-1.2-2-2
			c-0.5-0.8-1-1.6-1.3-2.4l-1-2.3l1.6,1.9c0.6,0.7,1.3,1.4,2.1,1.5c0.8,0.1,1.6-0.5,2.1-1.3c0.5-0.8,0.9-1.7,1.3-2.6
			c0.3-0.9,0.6-1.8,0.8-2.8l0.5,0.3c-0.4,0.3-0.9,0.6-1.5,0.7c-0.3,0-0.6,0-0.8,0c-0.3-0.1-0.5-0.1-0.8-0.3l-0.3-0.2l0.3-0.3
			c0.7-0.7,1.3-1.4,1.7-2.3c0.4-0.9,0.5-1.8,0.4-2.8c-0.3-1.9-1.6-3.6-3.1-4.8l0.4-0.1c-0.3,0.9-0.9,1.7-1.7,2.2
			c-0.8,0.5-1.7,0.7-2.6,0.7l-0.2,0l0.1-0.2c0.3-0.9-0.2-1.9-0.8-2.7c-0.6-0.8-1.4-1.5-2.3-2l0.2,0c-0.7,0.8-0.9,2-0.7,3l0.1,0.4
			L63,52.5c-0.5-0.4-1-0.9-1.3-1.4c-0.2-0.3-0.3-0.6-0.3-1s0.1-0.7,0.4-0.9l0.6-0.6L62,49.4l-1.3,2.2c-0.5,0.7-0.9,1.5-1.4,2.2
			L59.2,54L59.2,54c0,0,0,0-0.1,0.1c-0.1,0-0.2,0-0.2-0.1c0,0,0,0,0-0.1c0-0.1,0.1-0.2,0.1-0.3c0.1-0.2,0.2-0.4,0.3-0.6
			c0.2-0.4,0.3-0.8,0.3-1.2c0.1-0.8,0-1.7-0.5-2.4l0.3-0.1c0.3,0.7,0.5,1.6,0.3,2.4c-0.1,0.4-0.4,0.8-0.7,1
			c-0.4,0.2-0.8,0.4-1.2,0.4l-0.2,0l0-0.2c0.2-0.9-0.1-1.7-0.7-2.4c-0.5-0.7-1.3-1.2-2.1-1.6l0.3-0.2c0.2,1,0.3,1.9,0.2,3
			c-0.1,0.5-0.2,1.1-0.7,1.5c-0.5,0.4-1.2,0.3-1.7,0.1L52.7,53l0-0.2c0-0.6-0.1-1.2-0.4-1.8c-0.2-0.6-0.6-1.1-1-1.5l0.5-0.1
			c-0.3,1.2-1.1,2.1-1.9,2.9c-0.8,0.8-1.8,1.4-2.8,2c-0.1,0.1-0.3,0.1-0.4,0.2c-0.1,0-0.1,0.1-0.2,0.1c0,0-0.1,0-0.2,0
			c0,0-0.1,0-0.2,0c0,0,0,0-0.1,0c0,0-0.1-0.1-0.1-0.1c-0.1-0.1-0.1-0.3-0.1-0.3c0.1-0.2,0.1-0.2,0.1-0.3l0.1-0.1l0.2-0.1l0.4-0.2
			c0.4-0.3,0.8-0.6,1.1-1c0.6-0.8,0.7-1.9,0.3-2.9l0.5,0.1c-0.4,0.4-0.7,1-0.8,1.4c0,0.2,0,0.4,0.2,0.5c0.2,0.1,0.5,0.2,0.7,0.2
			l1.4,0.1l-1.3,0.5c-0.6,0.2-1.1,0.4-1.7,0.5c-0.6,0.1-1.2,0.2-1.9-0.1c-0.3-0.1-0.6-0.4-0.7-0.8c-0.1-0.3-0.1-0.7-0.1-1
			c0.1-0.6,0.3-1.2,0.6-1.7l0.3,0.3c-0.9,0.6-1.8,1-2.8,1.3c-1,0.3-2.1,0.4-3.1,0.3l-0.2,0l0.1-0.2c0.5-1.2,1.2-2.3,2.1-3.3
			c0.9-1,1.9-1.8,2.9-2.6C46.3,43.4,48.6,42.2,51,41.2z"/>
	</g>
	<path class="st0" d="M100.8,121.9c0.7-0.4,1.1-0.9,1.1-1.4c0-1.2-2.6-2.4-7.2-3.3c-1-0.6-1.6-0.9-1.6-0.9c-3.7-0.8-3.8-0.4-3.1,0.1
		c-7.9-1.2-19.2-1.9-31.7-1.9c-24.1,0-43.6,2.7-43.6,6.1c0,3.4,19.5,6.1,43.6,6.1c18.5,0,34.3-1.6,40.6-3.9c7,8.8-24.4,8-24.4,8
		c-5.7-2.9-9.2,2.7-9.2,2.7c0.5-1,2.4,0,2.4,0c7.8,2.9,6.8-0.5,6.8-0.5C105,132.8,105.3,126.7,100.8,121.9z"/>
	<g>
		<path class="st1" d="M93.2,115.1c0,0,31.4,16.6-18.6,16.6c0,0,1,3.4-6.8,0.5c0,0-1.9-1-2.4,0c0,0,3.6-5.5,9.2-2.7
			c0,0,43,1.1,17.2-13.3C91.8,116.2,86.4,113.6,93.2,115.1z"/>
		<path d="M93.2,115c1.7,0.8,3.3,1.8,4.8,2.9c1.5,1.1,3,2.3,4.1,3.9c0.6,0.8,1,1.7,1.1,2.8c0.1,1.1-0.4,2.1-1.1,2.8
			c-1.5,1.4-3.3,2.1-5.1,2.6c-3.7,1-7.4,1.4-11.2,1.5c-3.7,0.2-7.5,0.2-11.2,0.2l0.1-0.2c0.1,0.4,0.1,0.8-0.1,1.1
			c-0.2,0.3-0.5,0.5-0.9,0.7c-0.7,0.2-1.4,0.2-2.1,0.1c-1.4-0.2-2.7-0.6-3.9-1l0,0l0,0c-0.4-0.2-0.8-0.3-1.2-0.4
			c-0.4-0.1-0.8,0-0.9,0.3l-0.5-0.3c0.5-0.8,1.1-1.4,1.8-2c0.7-0.6,1.5-1.1,2.4-1.4c0.9-0.3,1.8-0.4,2.8-0.3
			c0.9,0.1,1.8,0.4,2.7,0.8l-0.2,0c3.7,0,7.5-0.1,11.2-0.4c1.9-0.2,3.7-0.3,5.5-0.6c1.8-0.3,3.7-0.7,5.3-1.4
			c0.8-0.3,1.6-0.7,2.2-1.3c0.6-0.6,0.8-1.3,0.6-2.1c-0.2-0.8-0.8-1.5-1.4-2.2c-0.6-0.7-1.3-1.2-2.1-1.8c-1.5-1.1-3.1-2.1-4.7-3
			c-0.4-0.2-0.8-0.5-1.2-0.8c-0.1-0.1-0.2-0.2-0.3-0.2c-0.1-0.1-0.2-0.2-0.2-0.5c0.2-0.3,0.3-0.2,0.4-0.2c0.1,0,0.3,0,0.4,0
			C91.4,114.5,92.3,114.8,93.2,115L93.2,115L93.2,115z M93.2,115.1c-0.9-0.2-1.8-0.3-2.8-0.4c-0.1,0-0.2,0-0.3,0
			c-0.1,0-0.2,0.1-0.2,0c0-0.1,0,0.1,0.1,0.1c0.1,0.1,0.2,0.1,0.3,0.2c0.4,0.2,0.8,0.5,1.2,0.7c1.7,0.8,3.3,1.8,4.9,2.9
			c0.8,0.5,1.5,1.1,2.2,1.8c0.7,0.7,1.3,1.4,1.7,2.4c0.2,0.5,0.2,1.1,0.1,1.6c-0.1,0.6-0.4,1-0.8,1.4c-0.7,0.8-1.6,1.2-2.5,1.6
			c-1.8,0.7-3.7,1.1-5.5,1.5c-1.9,0.3-3.8,0.5-5.6,0.7c-3.8,0.3-7.5,0.3-11.3,0.2l-0.1,0l-0.1,0c-1.5-0.8-3.2-1.1-4.8-0.6
			c-1.6,0.5-3,1.6-4,3l-0.5-0.3c0.1-0.3,0.4-0.5,0.7-0.5c0.3-0.1,0.5-0.1,0.8,0c0.5,0.1,0.9,0.3,1.3,0.5l0,0
			c1.2,0.5,2.5,0.9,3.8,1.1c0.6,0.1,1.3,0.1,1.9,0c0.3-0.1,0.6-0.3,0.7-0.5c0.2-0.2,0.2-0.6,0.1-0.9l0-0.2h0.2
			c3.7,0,7.5-0.1,11.2-0.5c1.9-0.2,3.7-0.4,5.5-0.7c1.8-0.3,3.7-0.6,5.4-1.1c1.7-0.5,3.5-1.1,4.8-2.3c0.6-0.6,1-1.4,0.9-2.2
			c0-0.8-0.4-1.7-0.9-2.4c-1-1.5-2.4-2.8-3.9-3.9C96.3,117.1,94.8,116.1,93.2,115.1z"/>
	</g>
	<path class="st3" d="M95.4,118.4c17.6,12.1-20.8,11.1-20.8,11.1c-4-2-7,0.2-8.4,1.6c11-0.3,22.5-1.5,33.3-3.4
		C102.9,126.6,99.8,119,95.4,118.4z"/>
	<path class="st5" d="M66.2,26.5C50.2,27.6,40.1,37.9,40.5,51c0,0.7,1.5-0.7,1.5,0c0.2,1.6-1.8,4-2.3,5.3
		C54.7,55.7,63.2,40.3,66.2,26.5z"/>
	<g>
		<path class="st1" d="M76.4,9.9C62,8.1,49.5,13.4,41.5,22.4c0,0,0,0,0,0c0,0-0.2,0.1-0.4,0.3c-0.3,0.2-0.8,0.6-1.4,1.1
			c3.1,1,4.7,4,4.7,7.9c0-3.8-1.6-6.9-4.7-7.9c-0.9,0.7-2,1.8-3.3,3.3c1.7,1.2,2.5,2.9,3.4,4.6c-0.8-1.7-1.7-3.3-3.4-4.6
			c-0.3,0.3-0.5,0.5-0.8,0.9c-0.5,0.6-1.1,1.3-1.7,2.1c1,1.2,1.7,2.6,2.4,4c-0.7-1.4-1.4-2.8-2.4-4c-0.4,0.5-0.9,1.1-1.3,1.7
			c-0.4,0.6-0.9,1.2-1.4,1.9c2.1,1.2,2.7,3.7,2.7,6.3c0-2.5-0.6-5-2.7-6.3c-0.3,0.4-0.5,0.8-0.8,1.2c-0.1,0.2-0.3,0.3-0.4,0.5
			c-0.8,1-1.7,1.9-2.7,2.6c1.6,0.9,2.3,2.9,3.1,4.3c-0.7-1.5-1.5-3.4-3.1-4.3c-1,0.7-2,1.2-3.1,1.6c-0.5,0.2-1,0.3-1.5,0.5
			c1.1,1.2,1.8,2.7,1.8,4.6c0-1.9-0.7-3.4-1.8-4.6c-1.3,0.4-2.7,0.6-4.1,0.7c0,0,0,0,0,0c1.1,1.8,2.4,3.7,2.4,6.3
			c0-2.6-1.2-4.5-2.4-6.3c-1,0.1-1.9,0.1-2.8,0c0.5,2.1,0.5,4.5,0.5,6.2c0-1.8,0-4.2-0.5-6.2c-0.5,0-1.1,0-1.6-0.1
			c-1-0.1-1.9-0.2-2.8-0.3c0.1,1.1,0.2,2.2,0.2,3.1c0-0.9,0-2.1-0.2-3.1c0,0,0,0,0,0c-2-0.3-3.3-0.7-3.3-0.7s-4.1-5.9-2.9,0
			c1.2,5.9,1.2,9.4,1.2,9.4s1.3,4,2.3-2.5c0,0,22.8,12.5,42.4-6.8c10.1,2.6,18,8,22.6,17.8c2.3,5.4,0.6,13.8-2.6,21.9l-0.5,0
			l-2.6,0.1l0.7,1.4c0,0,0.3,12-8.4,14.7C51.8,98.3,44,109.6,44,109.6c-40.2,9.2-15.2,12.4,18.5,14.6c33.7,2.1,35-9.7,33.2-22
			c-1.6-10.5-6.1-19.7-5.9-23.6c0.1,0,0.1,0,0.2,0c-1.8,0.1-3.2,0.7-3.2,3.5c0-2.8,1.5-3.4,3.2-3.5c12.6-2.8,15.8-11.2,20.2-30.7
			C112.4,37.2,100.6,13.1,76.4,9.9z"/>
		<path d="M76.4,10C70,9.2,63.5,9.8,57.4,11.9c-6,2.1-11.5,5.8-15.7,10.6l-0.1,0.1h-0.1h0l0.1,0c-0.6,0.4-1.2,0.9-1.8,1.4l-0.1-0.3
			c1.6,0.5,3,1.7,3.8,3.2c0.8,1.5,1.1,3.2,1.1,4.9h-0.4c0-1.6-0.3-3.2-1-4.7c-0.7-1.4-2-2.5-3.5-3l0.2,0c-1.2,1-2.3,2.1-3.3,3.3
			l0-0.4c0.8,0.6,1.5,1.3,2,2.1c0.6,0.8,1,1.7,1.4,2.5l-0.5,0.3c-0.8-1.7-1.8-3.4-3.3-4.5l0.4,0c-0.9,0.9-1.7,1.9-2.5,2.9l0-0.4
			c1,1.2,1.7,2.6,2.4,4L36,34.1c-0.7-1.4-1.4-2.7-2.3-3.9l0.5,0c-0.9,1.2-1.8,2.3-2.6,3.5l-0.1-0.5c1.1,0.6,1.9,1.8,2.3,2.9
			c0.4,1.2,0.6,2.4,0.6,3.6h-0.8c0-1.2-0.1-2.3-0.5-3.4c-0.4-1.1-1-2-2-2.5l0.5-0.1L30.7,35c-0.1,0.2-0.3,0.4-0.4,0.6
			c-0.1,0.2-0.3,0.4-0.5,0.6c-0.7,0.8-1.4,1.4-2.2,2l0-0.7c0.9,0.5,1.5,1.3,2,2.1c0.5,0.8,0.9,1.6,1.3,2.4L30,42.4
			c-0.4-0.8-0.8-1.6-1.2-2.4c-0.4-0.7-1-1.4-1.7-1.8l0.5,0c-0.7,0.5-1.5,0.9-2.3,1.3c-0.4,0.2-0.8,0.3-1.2,0.5
			c-0.4,0.1-0.8,0.3-1.2,0.4l0.2-0.7c0.6,0.6,1.1,1.4,1.4,2.3c0.3,0.8,0.5,1.7,0.5,2.6h-0.8c0-1.6-0.6-3.2-1.7-4.3l0.4,0.1
			c-0.7,0.2-1.4,0.3-2.1,0.4c-0.3,0.1-0.7,0.1-1,0.1c-0.4,0-0.7,0.1-1.1,0.1l0.3-0.6c0.6,1,1.2,1.9,1.7,3c0.5,1.1,0.7,2.3,0.7,3.5
			h-0.7c0-1.1-0.2-2.2-0.7-3.2c-0.4-1-1-2-1.6-2.9l0.3,0.2c-0.9,0.1-1.9,0.1-2.8,0l0.4-0.4c0.5,2.1,0.5,4.2,0.5,6.3H16
			c0-2.1,0-4.2-0.5-6.2l0.3,0.2c-1.5,0-2.9-0.2-4.4-0.4l0.4-0.3c0.1,1.1,0.2,2.1,0.2,3.2h-0.6c0-1,0-2.1-0.1-3.1l0.2,0.2
			c-0.2,0-0.5-0.1-0.8-0.1l-0.8-0.2c-0.6-0.1-1.1-0.3-1.7-0.4l-0.1,0l-0.1-0.1c-0.4-0.5-0.8-1.1-1.2-1.6c-0.2-0.2-0.4-0.5-0.7-0.7
			c-0.2-0.2-0.6-0.3-0.6-0.3c-0.1,0-0.2,0.4-0.1,0.7c0,0.3,0,0.6,0.1,1l0.4,2c0.5,2.7,0.8,5.3,0.9,8.1l0-0.1c0.1,0.4,0.4,0.9,0.6,1
			c0.1,0.1,0.5-0.4,0.6-0.8c0.3-0.9,0.5-1.8,0.7-2.7L8.6,46l0.3,0.1c3.4,1.7,7.1,2.8,10.8,3.5c3.8,0.6,7.6,0.7,11.4,0.2
			c3.8-0.5,7.4-1.8,10.8-3.6c3.4-1.8,6.4-4.1,9.1-6.8l0.1-0.1l0.1,0c4.2,1.1,8.4,2.8,12,5.2c3.7,2.4,6.8,5.7,9,9.5
			c0.6,0.9,1.1,1.9,1.6,2.9c0.5,1,0.8,2.1,1,3.2c0.4,2.2,0.3,4.4,0.1,6.6c-0.5,4.4-1.8,8.6-3.4,12.7l-0.1,0.2l-0.2,0l-0.4,0l-0.1,0
			l-0.1,0l-0.2,0l-0.8,0l-1.5,0l0.3-0.4l0.7,1.4l0,0.1l0,0.1c0,3.4-0.7,6.8-2.3,9.8c-0.8,1.5-2,2.9-3.4,3.9
			c-0.7,0.5-1.5,0.9-2.3,1.2c-0.8,0.3-1.6,0.5-2.3,0.9c-3,1.4-5.6,3.5-8,5.8c-2.4,2.3-4.6,4.8-6.5,7.5l-0.1,0.1l-0.2,0
			c-5.5,1.3-11,2.6-16.3,4.7c-1.3,0.5-2.6,1.1-3.5,2c-0.2,0.2-0.4,0.5-0.5,0.7c-0.1,0.2,0,0.4,0.1,0.6c0.3,0.4,0.9,0.8,1.5,1
			c2.5,1,5.4,1.5,8.1,2c5.6,0.9,11.2,1.4,16.9,1.9l8.5,0.6c2.8,0.2,5.7,0.4,8.5,0.4c5.6,0.1,11.3-0.1,16.7-1.5
			c2.7-0.7,5.3-1.9,7.4-3.7c2.1-1.8,3.4-4.3,3.8-7c0.5-2.7,0.3-5.5-0.1-8.3c-0.4-2.8-0.9-5.5-1.7-8.3c-0.7-2.7-1.6-5.4-2.4-8.1
			c-0.4-1.4-0.9-2.7-1.2-4.1c-0.4-1.4-0.7-2.8-0.7-4.3l0-0.3l0.3-0.1l0.1,0l0.1,0.9c-0.9,0.1-1.7,0.2-2.2,0.8
			C87.2,80.3,87,81.1,87,82h-0.8c0-0.5,0-1,0.2-1.5c0.1-0.5,0.3-1,0.7-1.4c0.4-0.4,0.8-0.7,1.3-0.8c0.5-0.2,1-0.2,1.4-0.2l-0.1,0
			c3.8-0.8,7.5-2.4,10.2-5.2c2.7-2.8,4.4-6.4,5.7-10.1c1.3-3.7,2.3-7.5,3.2-11.4l0.7-2.9c0.2-1,0.4-1.9,0.5-2.9
			c0.1-1.9-0.2-3.9-0.6-5.8c-0.9-3.8-2.5-7.5-4.6-10.8c-2.1-3.4-4.6-6.4-7.5-9.1c-2.9-2.7-6.2-4.9-9.8-6.6
			C84.1,11.6,80.3,10.5,76.4,10z M76.4,9.9c3.9,0.5,7.8,1.6,11.4,3.3c3.6,1.7,6.9,3.9,9.9,6.6c2.9,2.7,5.5,5.7,7.6,9.1
			c2.1,3.4,3.7,7,4.7,10.9c0.5,1.9,0.7,3.9,0.6,5.9c0,1-0.2,2-0.4,3l-0.7,2.9c-0.9,3.9-1.9,7.7-3.2,11.5c-1.3,3.7-3,7.5-5.8,10.4
			c-1.4,1.5-3.1,2.7-4.9,3.6c-1.8,0.9-3.7,1.5-5.7,2l0,0l0,0c-0.9,0.1-1.7,0.2-2.2,0.8C87.2,80.3,87,81.1,87,82h-0.8
			c0-0.5,0-1,0.2-1.5c0.1-0.5,0.3-1,0.7-1.4c0.4-0.4,0.9-0.7,1.3-0.8c0.5-0.2,1-0.2,1.4-0.3l0.1,0.9l-0.2,0l0.3-0.4
			c0,1.3,0.4,2.7,0.7,4c0.4,1.4,0.8,2.7,1.3,4c0.9,2.7,1.7,5.4,2.5,8.2c0.7,2.8,1.3,5.6,1.7,8.4c0.4,2.8,0.6,5.7,0.1,8.6
			c-0.5,2.9-1.9,5.7-4.2,7.6c-2.2,1.9-5,3.1-7.7,3.9c-5.6,1.5-11.3,1.7-17,1.6c-2.9-0.1-5.7-0.3-8.5-0.5l-8.5-0.6
			c-5.7-0.5-11.3-1-16.9-1.9c-2.8-0.5-5.6-0.9-8.4-2.1c-0.7-0.3-1.4-0.6-1.9-1.3c-0.3-0.3-0.4-0.9-0.2-1.4c0.2-0.5,0.4-0.8,0.7-1.1
			c1.2-1,2.5-1.6,3.8-2.2c2.7-1.1,5.4-1.9,8.1-2.6c2.7-0.8,5.5-1.4,8.3-2l-0.3,0.2c2-2.7,4.2-5.3,6.6-7.6c2.4-2.3,5.1-4.4,8.2-5.9
			c0.8-0.4,1.6-0.6,2.4-0.9c0.8-0.3,1.5-0.7,2.1-1.1c1.3-0.9,2.4-2.2,3.2-3.6c1.6-2.8,2.3-6.2,2.3-9.5l0,0.1l-0.7-1.4l-0.2-0.4
			l0.5,0l1.5,0l0.8,0l0.2,0l0.1,0l0.1,0l0.4,0l-0.3,0.2c1.6-4.1,2.9-8.2,3.4-12.5c0.3-2.1,0.3-4.3,0-6.4c-0.3-2.1-1.4-4-2.5-5.9
			c-2.2-3.7-5.3-6.9-8.8-9.4c-3.6-2.4-7.7-4.1-11.9-5.2l0.2,0c-2.7,2.7-5.8,5-9.3,6.8c-3.4,1.8-7.1,3-10.9,3.6
			c-3.8,0.6-7.7,0.5-11.5-0.1c-3.8-0.6-7.5-1.7-11-3.5L9,46.4c-0.2,0.9-0.3,1.9-0.7,2.8c-0.1,0.2-0.2,0.5-0.3,0.7
			c-0.1,0.1-0.2,0.2-0.3,0.3c-0.1,0.1-0.4,0.1-0.6,0c-0.3-0.2-0.5-0.4-0.6-0.6c-0.1-0.2-0.2-0.4-0.3-0.7l0,0l0,0
			c-0.1-2.7-0.5-5.3-0.9-8l-0.4-2c-0.1-0.3-0.1-0.7-0.1-1c0-0.2,0-0.4,0-0.6c0-0.2,0.1-0.4,0.3-0.6c0.3-0.2,0.6-0.1,0.8,0
			c0.2,0.1,0.3,0.2,0.5,0.3c0.3,0.2,0.5,0.5,0.8,0.7c0.5,0.5,0.9,1,1.3,1.6l-0.2-0.1c0.5,0.2,1.1,0.3,1.6,0.4l0.8,0.2l0.9,0.2l0.2,0
			l0,0.2c0.1,1.1,0.2,2.1,0.2,3.2h-0.6c0-1,0-2.1-0.2-3.1l-0.1-0.4l0.4,0.1c1.4,0.2,2.9,0.4,4.3,0.4l0.2,0l0.1,0.2
			c0.5,2.1,0.5,4.2,0.5,6.3H16c0-2.1,0-4.2-0.5-6.2l-0.1-0.4l0.5,0c0.9,0,1.9,0,2.8,0l0.2,0l0.1,0.2c0.6,1,1.2,1.9,1.7,3
			c0.5,1.1,0.7,2.3,0.7,3.4h-0.7c0-1.1-0.3-2.2-0.7-3.2c-0.4-1-1-2-1.6-2.9L18,40.3l0.7-0.1c0.3,0,0.7-0.1,1-0.1
			c0.3,0,0.7-0.1,1-0.1c0.7-0.1,1.3-0.3,2-0.4l0.2-0.1l0.2,0.2c0.6,0.6,1.1,1.4,1.5,2.2c0.3,0.8,0.5,1.7,0.5,2.6h-0.8
			c0-1.6-0.6-3.2-1.7-4.3l-0.5-0.5l0.7-0.2c0.4-0.1,0.8-0.2,1.2-0.4c0.4-0.1,0.8-0.3,1.1-0.5c0.8-0.3,1.5-0.7,2.1-1.2l0.2-0.2
			l0.2,0.1c0.9,0.5,1.5,1.3,2,2.1c0.5,0.8,0.9,1.6,1.3,2.4L30,42.4c-0.4-0.8-0.8-1.6-1.2-2.4c-0.4-0.7-1-1.4-1.7-1.8l-0.6-0.3
			l0.6-0.4c0.8-0.5,1.5-1.2,2.1-1.9c0.1-0.2,0.3-0.4,0.5-0.5c0.1-0.2,0.3-0.4,0.4-0.6l0.8-1.2l0.2-0.3l0.3,0.2
			c1.1,0.7,1.9,1.8,2.3,3c0.4,1.2,0.5,2.4,0.5,3.6h-0.8c0-1.2-0.1-2.3-0.5-3.4c-0.4-1.1-1-2-2-2.6l-0.3-0.2l0.2-0.3
			c0.9-1.2,1.8-2.4,2.7-3.6l0.3-0.3l0.3,0.3c1,1.2,1.7,2.7,2.4,4L36,34.1c-0.7-1.4-1.4-2.8-2.3-3.9L33.5,30l0.2-0.2
			c0.8-1,1.6-2,2.5-3l0.2-0.2l0.2,0.2c0.8,0.6,1.5,1.3,2,2.2c0.6,0.8,1,1.7,1.4,2.5l-0.5,0.3c-0.8-1.7-1.8-3.4-3.3-4.5L36,27.1
			l0.2-0.2c1.1-1.2,2.2-2.3,3.4-3.3l0.1-0.1l0.1,0c1.6,0.5,3,1.7,3.8,3.2c0.8,1.5,1.1,3.2,1.1,4.9h-0.4c0-1.6-0.3-3.3-1-4.7
			c-0.7-1.4-2-2.6-3.5-3l-0.3-0.1l0.3-0.2c0.6-0.5,1.2-1,1.8-1.4l0,0l0.1,0h0l-0.1,0.1c4.3-4.8,9.8-8.5,15.9-10.6
			C63.4,9.6,70,9,76.4,9.9z"/>
	</g>
	<path class="st3" d="M85.5,12.3c2,2.4,3,5.6,4.6,8.8C96,34,80.8,43.3,84.3,56.2c1.2,7,4.7,17.6,12.9,12.9
		c-4.7,4.7-12.9,4.7-18.7,8.2c-2.3,1.2,3.5,3.5,5.9,4.7c10.5,9.4,7,29.3,0,34c-7.8,5-16.6,7.4-25.9,8c1.3,0.1,2.7,0.2,4.1,0.3
		c33.7,2.1,35-9.7,33.2-22c-1.6-10.5-6.1-19.7-5.9-23.6c0.1,0,0.1,0,0.2,0c-1.8,0.1-3.2,0.7-3.2,3.5c0-2.8,1.5-3.4,3.2-3.5
		c12.6-2.8,15.8-11.2,20.2-30.7C112.1,38.6,103.5,19.4,85.5,12.3z"/>
	<g>
		<path class="st4" d="M65.5,99.6c5.6-4.5,6.9-12.3,4.9-20.2l-2.4,0.1l0.7,1.4c0,0,0.3,12-8.4,14.7c-4.7,1.5-9.1,5.5-12.2,8.8
			C53.5,107.5,61.6,103.5,65.5,99.6z"/>
		<g>
			<path d="M65.5,99.5c1.4-1.1,2.6-2.6,3.5-4.2c0.8-1.6,1.4-3.4,1.7-5.1c0.3-1.8,0.3-3.6,0.3-5.4c-0.1-1.8-0.4-3.6-0.8-5.4l0.3,0.3
				l-2.4,0l0.2-0.4l0.6,1.4l0,0.1l0,0c-0.1,2.8-0.6,5.6-1.7,8.2c-1,2.6-2.8,5-5.4,6.3c-0.6,0.3-1.3,0.6-2,0.8
				c-0.6,0.2-1.2,0.5-1.8,0.8c-1.2,0.6-2.3,1.4-3.4,2.2c-2.2,1.7-4.2,3.5-6.1,5.6l-0.1-0.8c1.3,0.8,2.8,1,4.3,1.1
				c1.5,0,3.1-0.3,4.6-0.8C60.4,103.3,63.2,101.8,65.5,99.5z M65.6,99.6c-1.1,1.1-2.4,2.1-3.7,3c-1.3,0.9-2.8,1.7-4.3,2.3
				c-1.5,0.6-3.1,1-4.8,1.1c-1.7,0.1-3.4-0.3-4.9-1.1l-0.6-0.3l0.4-0.5c1.9-2.1,3.9-4,6.2-5.6c1.1-0.8,2.3-1.6,3.6-2.2
				c0.6-0.3,1.3-0.6,2-0.8c0.7-0.2,1.3-0.4,1.9-0.7c2.5-1.1,4.3-3.3,5.4-5.8c1.1-2.5,1.6-5.3,1.5-8l0,0.1l-0.7-1.4l-0.2-0.4l0.4,0
				l2.4-0.1l0.3,0l0.1,0.3c0.5,1.8,0.8,3.6,1,5.5c0.1,1.9,0,3.7-0.4,5.6c-0.4,1.8-1.1,3.6-2.1,5.1C68.2,97,67,98.5,65.6,99.6z"/>
		</g>
	</g>
	<path class="st6" d="M59.7,101.9c2.8-0.9,4.1-4.7,4.5-8.6c-1,0.9-2.3,1.7-3.8,2.2c-3,1-5.8,2.9-8.3,5
		C54.3,102.7,57,103.7,59.7,101.9z"/>
	<g>
		<path class="st4" d="M50.3,36.2c0,0-7.3,9.7-21.4,11.8c0,0,16.4,5.7,27-6.4C55.8,41.5,56.2,35.6,50.3,36.2z"/>
		<path d="M50.3,36.2c-1.2,1.7-2.7,3.2-4.3,4.6c-1.6,1.4-3.4,2.5-5.2,3.6c-1.8,1-3.8,1.8-5.8,2.4c-2,0.6-4.1,1-6.1,1.3l0-0.3
			c2.3,0.7,4.8,1.1,7.2,1.1c2.4,0.1,4.8-0.1,7.2-0.7c2.3-0.5,4.6-1.4,6.7-2.6c2.1-1.2,3.9-2.7,5.6-4.5l-0.1,0.2
			c0-0.7-0.1-1.4-0.2-2.1c-0.2-0.7-0.5-1.3-1-1.8C53.3,36.5,51.8,36.2,50.3,36.2z M50.3,36.1c0.7-0.1,1.5-0.1,2.3,0
			c0.8,0.1,1.5,0.5,2.1,1.1c0.6,0.5,1,1.3,1.3,2c0.3,0.8,0.4,1.5,0.4,2.3v0.1l-0.1,0.1c-1.6,1.9-3.5,3.6-5.7,4.9
			c-2.2,1.3-4.6,2.1-7,2.6c-2.4,0.5-5,0.6-7.4,0.3c-1.2-0.1-2.5-0.3-3.7-0.5c-1.2-0.2-2.4-0.5-3.6-0.9l-0.6-0.2l0.6-0.1
			c4.1-0.6,8-2.3,11.6-4.2c1.8-1,3.5-2.1,5.2-3.3C47.2,39,48.8,37.7,50.3,36.1L50.3,36.1L50.3,36.1z"/>
	</g>
	<path class="st6" d="M54.5,37.5c0.1,0.9-0.2,1.8-0.7,2.3c-5.1,5.8-11.5,8.5-18.2,9.4c5.7,0.4,14-0.5,20.3-7.7
		C55.8,41.5,56,39.1,54.5,37.5z"/>
	<g>
		<path class="st1" d="M85.3,17.5c0,0,6.2,1.2,10.9-1.8c4.7-2.9,20.2,2.2,19.1,27.7c-1.2,25.5-30.4,34.7-30-7"/>
		<path d="M85.3,17.5c2.4,0.3,4.8,0.1,7.1-0.4c1.1-0.3,2.2-0.7,3.2-1.3c0.5-0.3,1.1-0.7,1.7-0.8c0.6-0.2,1.2-0.2,1.9-0.3
			c2.5,0,4.9,0.9,7,2.3c2.1,1.4,3.7,3.3,5,5.3c2.6,4.2,3.7,9,4.1,13.8c0.3,4.8,0.4,9.7-0.8,14.4c-1.2,4.7-3.6,9.2-7.5,12.3
			c-1.9,1.5-4.3,2.7-6.8,2.9c-2.5,0.3-5.1-0.6-7.1-2.1c-2-1.5-3.5-3.6-4.5-5.8c-1.1-2.2-1.8-4.5-2.3-6.9c-1-4.7-1.2-9.6-1-14.4h0.1
			c0.1,4.8,0.5,9.6,1.7,14.2c0.6,2.3,1.3,4.6,2.4,6.7c1.1,2.1,2.5,4,4.3,5.4c1.8,1.4,4.1,2.1,6.4,1.9c2.3-0.2,4.5-1.2,6.3-2.6
			c3.7-2.9,6.2-7.2,7.5-11.7c0.7-2.3,1.1-4.6,1.2-7c0.1-2.4,0.1-4.8-0.2-7.2c-0.5-4.7-1.8-9.5-4.5-13.4c-1.3-2-2.9-3.7-4.8-5
			c-1.9-1.3-4.2-2.2-6.5-2.3c-0.6,0-1.1,0.1-1.7,0.2c-0.6,0.1-1,0.4-1.6,0.7c-1.1,0.6-2.3,1-3.4,1.3C90.1,18.1,87.6,18.1,85.3,17.5
			L85.3,17.5z"/>
	</g>
	<path class="st3" d="M97.5,15.3c11.3,10.1,14.1,26.6,10.2,40.3c-1.6,7.3-11.9,7.4-18.3,2.8c8,14.3,24.9,4.4,25.8-14.9
		C116.3,20.1,103.3,13.8,97.5,15.3z"/>
	<g>
		<path d="M65.4,28.8c-1,1.9-2.1,3.3-4,2.3c-1.9-1-2.7-3.3-1.7-5.2c1-1.9,3.3-2.7,5.2-1.7C66.8,25.1,66.4,26.9,65.4,28.8z"/>
		<ellipse class="st8" cx="61.1" cy="26.4" rx="0.7" ry="0.6"/>
	</g>
	<g>
		<path d="M43.2,21.7c-1.2,1.1-2.2,1.8-2.1,0.8c0.1-1,1.2-2.7,2.5-3.8c1.2-1.1,2.1-1.2,2-0.2C45.5,19.6,44.5,20.6,43.2,21.7z"/>
		<ellipse transform="matrix(0.7796 0.6263 -0.6263 0.7796 21.7582 -23.0436)" class="st8" cx="43.6" cy="19.4" rx="0.2" ry="0.5"/>
	</g>
	<path class="st3" d="M73.5,89.9c0,0-14.6,13.8-16.6,18.8c-2,5.1,20.8-5.1,26.5-7.9"/>
	<g>
		<path class="st1" d="M74.6,87.5c0,0-14.6,13.8-16.6,18.8c-2,5.1,20.8-5.1,26.5-7.9"/>
		<path d="M74.7,87.6c-3.1,3.4-6.2,6.7-9.3,9.9c-1.6,1.6-3.2,3.2-4.6,5c-0.7,0.9-1.4,1.8-1.9,2.8c-0.3,0.5-0.6,1-0.7,1.5
			c-0.1,0.5,0.3,0.7,0.9,0.7c1.1,0,2.2-0.3,3.2-0.6c1.1-0.3,2.2-0.7,3.2-1c2.1-0.7,4.2-1.6,6.3-2.4c4.2-1.6,8.4-3.4,12.7-5l0,0.1
			c-4,2.3-8.1,4.2-12.3,5.9c-2.1,0.9-4.3,1.6-6.4,2.3c-1.1,0.3-2.2,0.7-3.3,0.9c-1.1,0.2-2.3,0.5-3.5,0.3c-0.3,0-0.6-0.1-0.9-0.3
			c-0.3-0.2-0.4-0.7-0.3-1c0.2-0.6,0.5-1.1,0.8-1.6c0.6-1,1.3-1.9,2-2.8c1.4-1.8,2.8-3.6,4.3-5.3C67.8,93.5,71.1,90.4,74.7,87.6
			L74.7,87.6z"/>
	</g>
	<g>
		<path class="st1" d="M68.8,80.8c0,0-16.4,15.3-16.1,19c0.3,3.5,5.4,0.8,8.4-3.5c0.2-0.3,0.5-0.7,0.7-1c2.9-4.9,4.5-3.3,4.5-3.3
			S69,83.4,68.8,80.8z"/>
		<path d="M68.7,81c-2.4,2.7-4.9,5.2-7.4,7.9c-2.5,2.7-5.2,5.1-7.3,8.1c-0.5,0.8-1,1.6-1.2,2.4c-0.1,0.4,0,0.8,0.2,1.2
			c0.2,0.4,0.5,0.6,0.9,0.6c0.8,0.1,1.6-0.4,2.4-0.8c0.7-0.5,1.4-1,2.1-1.6c1.3-1.2,2.4-2.6,3.3-4.2c0.5-0.8,1.1-1.6,1.8-2.2
			c0.4-0.3,0.8-0.6,1.3-0.8c0.5-0.2,1.2-0.3,1.8,0.2l-0.8,0.2c0.6-1.8,1.2-3.6,1.7-5.5c0.3-0.9,0.5-1.8,0.8-2.8
			C68.5,82.8,68.7,81.9,68.7,81z M68.8,80.8c0.2,1,0,1.9-0.1,2.9c-0.1,1-0.3,1.9-0.5,2.9c-0.4,1.9-0.9,3.7-1.5,5.6l-0.2,0.7
			l-0.6-0.5c-0.1-0.1-0.5-0.1-0.8,0c-0.3,0.1-0.7,0.4-1,0.7c-0.6,0.6-1.1,1.3-1.6,2c-0.9,1.6-2.1,3.1-3.6,4.3
			c-0.7,0.6-1.5,1.2-2.3,1.6c-0.8,0.4-1.8,0.8-2.8,0.7c-0.3,0-0.5-0.1-0.7-0.3c-0.2-0.2-0.4-0.4-0.5-0.6c-0.1-0.2-0.2-0.5-0.2-0.7
			c0-0.2,0-0.5,0.1-0.7c0.3-0.9,0.8-1.7,1.3-2.5c2.1-3,4.3-5.9,6.9-8.6C63.2,85.6,65.9,83.1,68.8,80.8L68.8,80.8L68.8,80.8z"/>
	</g>
	<path class="st3" d="M68.8,80.8c0,0-0.9,0.9-2.3,2.2c-1.7,5.1-8,7.5-9.1,13c1.8,0,2.8,0,4.3-0.5c0-0.1,0.1-0.1,0.1-0.2
		c2.9-4.9,4.5-3.3,4.5-3.3S69,83.4,68.8,80.8z"/>
	<ellipse cx="55.9" cy="59.5" rx="3.3" ry="3.2"/>
	<ellipse class="st8" cx="54.1" cy="58.8" rx="0.7" ry="0.7"/>
	<g>
		<path class="st12" d="M42.3,70.1c-0.2-0.2-0.3-0.5-0.4-0.8c-0.1-0.1-0.1-0.3-0.1-0.5c0-0.2,0-0.4,0.2-0.5c0.4-0.2,0.8,0,1,0.1
			c0.3,0.2,0.5,0.4,0.7,0.7c0.2,0.3,0.3,0.6,0.4,0.9c0.1,0.3,0.1,0.7-0.2,1c-0.4,0.2-0.7-0.1-0.9-0.3C42.7,70.5,42.5,70.3,42.3,70.1
			z M42.3,70.1c0.2,0.2,0.4,0.5,0.6,0.6c0.2,0.2,0.6,0.3,0.7,0.1c0.1-0.1,0.1-0.4,0-0.7c-0.1-0.3-0.2-0.5-0.4-0.7
			c-0.2-0.2-0.3-0.4-0.5-0.6c-0.2-0.2-0.4-0.4-0.6-0.3c-0.2,0.1-0.2,0.5-0.1,0.7C42,69.5,42.1,69.8,42.3,70.1z"/>
	</g>
	<ellipse class="st14" cx="57.7" cy="65.6" rx="6.7" ry="2.1"/>
	<ellipse class="st8" cx="61" cy="63.6" rx="1.7" ry="0.9"/>
	<ellipse class="st14" cx="63.7" cy="34.3" rx="6.7" ry="2.1"/>
	<ellipse class="st8" cx="67" cy="32.3" rx="1.7" ry="0.9"/>
	<ellipse transform="matrix(0.9938 0.1109 -0.1109 0.9938 6.2455 -5.9902)" cx="57" cy="53.2" rx="4" ry="0.8"/>
	<g>
		<path class="st4" d="M87.1,20.5c0,0,5.8,2.6,9.1-0.1c3.3-2.6,2.8,0.7,4.3,5.5c1.5,4.8,3.5,24.3-1.5,29.8
			c-5.1,5.5-12.5-3.6-11.3-23.1L87.1,20.5z"/>
		<g>
			<path d="M87.1,20.5c1.6,0.6,3.2,1,4.9,1c0.8,0,1.7-0.1,2.4-0.3c0.4-0.1,0.8-0.3,1.1-0.5c0.3-0.2,0.6-0.5,1-0.8
				c0.4-0.3,0.7-0.5,1.2-0.6c0.2,0,0.5,0,0.8,0.1c0.2,0.1,0.4,0.3,0.5,0.5c0.4,0.8,0.6,1.6,0.8,2.5c0.2,0.8,0.4,1.6,0.6,2.4
				c0.2,0.8,0.5,1.6,0.7,2.4c0.7,3.3,1.1,6.7,1.3,10.1c0.2,3.4,0.2,6.8-0.2,10.2c-0.2,1.7-0.5,3.4-1.1,5c-0.5,1.6-1.4,3.3-2.9,4.4
				c-0.7,0.5-1.7,0.9-2.6,0.9c-1,0-1.9-0.4-2.6-1c-1.5-1.1-2.4-2.6-3.1-4.2c-1.5-3.1-2.1-6.5-2.5-9.9c-0.3-3.4-0.3-6.8-0.1-10.1l0,0
				C87.3,28.6,87.2,24.6,87.1,20.5z M87.1,20.5c0.3,4.1,0.5,8.1,0.8,12.2v0l0,0c-0.2,3.3-0.1,6.7,0.3,10c0.4,3.3,1.1,6.6,2.5,9.6
				c0.7,1.5,1.6,2.9,2.9,3.8c0.6,0.5,1.3,0.8,2.1,0.8c0.7,0,1.4-0.2,2.1-0.7c1.3-0.9,2-2.4,2.5-3.9c0.5-1.5,0.8-3.2,1.1-4.8
				c0.4-3.3,0.4-6.7,0.3-10c-0.2-3.3-0.5-6.7-1.1-10c-0.2-0.8-0.4-1.6-0.6-2.4c-0.2-0.8-0.4-1.6-0.6-2.5c-0.2-0.8-0.3-1.7-0.7-2.3
				c-0.2-0.3-0.4-0.5-0.8-0.5c-0.3,0-0.7,0.2-1,0.5c-0.3,0.2-0.7,0.5-1,0.7c-0.4,0.2-0.8,0.4-1.2,0.5c-0.8,0.2-1.7,0.3-2.5,0.3
				C90.3,21.7,88.7,21.2,87.1,20.5z"/>
		</g>
	</g>
	<path class="st7" d="M116.8,40.9c0-0.5,0-1,0-1.4c0-0.3,0-0.5,0-0.8c0-0.4,0-0.8-0.1-1.2c0-0.3,0-0.5-0.1-0.8
		c0-0.4-0.1-0.8-0.1-1.1c0-0.3-0.1-0.5-0.1-0.8c0-0.4-0.1-0.7-0.2-1.1c0-0.2-0.1-0.5-0.1-0.7c-0.1-0.3-0.1-0.7-0.2-1
		c0-0.2-0.1-0.5-0.2-0.7c-0.1-0.3-0.2-0.6-0.2-1c-0.1-0.2-0.1-0.4-0.2-0.6c-0.1-0.3-0.2-0.6-0.3-0.9c-0.1-0.2-0.1-0.4-0.2-0.6
		c-0.1-0.3-0.2-0.6-0.3-0.9c-0.1-0.2-0.1-0.3-0.2-0.5c-0.1-0.3-0.3-0.6-0.4-1c-0.1-0.1-0.1-0.2-0.2-0.4c-0.2-0.4-0.4-0.8-0.6-1.2
		c0,0,0,0,0,0c-0.2-0.4-0.4-0.8-0.7-1.1c0-0.1-0.1-0.1-0.1-0.2c-0.2-0.3-0.4-0.6-0.5-0.8c-0.1-0.1-0.2-0.2-0.2-0.3
		c-0.2-0.2-0.3-0.4-0.5-0.6c-0.1-0.1-0.2-0.2-0.3-0.4c-0.1-0.2-0.3-0.3-0.4-0.5c-0.1-0.1-0.2-0.2-0.3-0.3c-0.1-0.2-0.3-0.3-0.4-0.4
		c-0.1-0.1-0.2-0.2-0.4-0.3c-0.1-0.1-0.3-0.3-0.4-0.4c-0.1-0.1-0.3-0.2-0.4-0.3c-0.1-0.1-0.3-0.2-0.4-0.3c-0.1-0.1-0.3-0.2-0.4-0.3
		c-0.1-0.1-0.3-0.2-0.4-0.3c-0.1-0.1-0.3-0.2-0.4-0.3c-0.1-0.1-0.2-0.1-0.3-0.2c-0.2-0.1-0.3-0.2-0.5-0.3c-0.1-0.1-0.2-0.1-0.3-0.1
		c-0.2-0.1-0.4-0.2-0.5-0.3c0,0-0.1,0-0.1,0c-1.2-0.5-2.4-0.8-3.5-0.9c0,0,0,0,0,0c-0.2,0-0.4,0-0.6,0c0,0,0,0,0,0
		c-0.2,0-0.4,0-0.6,0c0,0,0,0,0,0c-0.2,0-0.4,0-0.6,0.1c0,0,0,0,0,0c-0.7,0.1-1.4,0.3-1.9,0.6c-0.7,0.5-1.5,0.8-2.3,1.1
		c-2.5-1.8-5.3-3.4-8.4-4.6c0,0,0,0,0,0h0c-2.8-1.1-5.9-1.9-9.1-2.4c-9.3-1.2-17.7,0.6-24.7,4.4c-0.1,0-0.2-0.1-0.3-0.1c0,0,0,0,0,0
		c-0.8-0.3-1.7-0.6-2.7-0.8c0,0,0,0,0,0c-4.5-0.9-10.4,0.2-13.1,14.7c-0.5,0.6-1,1.2-1.5,1.9c-0.4,0.5-0.9,1.1-1.3,1.7
		c-0.4,0.6-0.9,1.2-1.4,1.9c-0.3,0.4-0.5,0.8-0.8,1.2c-0.1,0.2-0.3,0.3-0.4,0.5c-0.4,0.6-0.9,1.1-1.5,1.6c-2.2,0.3-4.6,0.4-7.1,0.1
		c0,0,1.5,1,4,2c-0.4,0.2-0.8,0.4-1.1,0.5c-0.5,0.2-1,0.3-1.5,0.5c-1.3,0.4-2.7,0.6-4.1,0.7c0,0,0,0,0,0c-1,0.1-1.9,0.1-2.8,0
		c-0.5,0-1.1,0-1.6-0.1c-1-0.1-1.9-0.2-2.8-0.3c0,0,0,0,0,0c-2-0.3-3.3-0.7-3.3-0.7s-4.1-5.9-2.9,0c1.2,5.9,1.2,9.4,1.2,9.4
		s1.3,4,2.3-2.5c0,0,11.6,6.3,25.4,3c0.5,6.8,2,11.4,4.2,13.8C39.7,69.1,43,73.2,52,75.6c-0.9-0.1-1.8-0.2-2.6-0.4
		c4.1,1.3,9.6,2.1,16.7,2.5c1.5,0.5,3.3,1.1,5.7,2l-2.2,0.1l0.7,1.4c0,0-0.1,0.1-0.2,0.2c0,0,0,0,0,0c-0.1,0.1-0.3,0.3-0.5,0.5
		c0,0-0.1,0.1-0.2,0.2c-0.1,0.1-0.1,0.1-0.2,0.2c-0.1,0.1-0.2,0.2-0.3,0.3c0,0,0,0-0.1,0.1c-3.9,3.8-14.9,14.6-14.7,17.7
		c0,0.1,0,0.2,0,0.3c-3.9,3.2-6.9,7.1-8.2,8.7c-6.4,0.9-17.9,2.9-20,5.4c-0.5,0.6-0.1,0.9,0.8,1.2c-0.9,0.5-1.4,1-1.7,1.4
		c-5.5,1-8.7,2.3-8.7,3.6c0,3.4,19.5,6.1,43.6,6.1c18.5,0,34.3-1.6,40.6-3.9c0.5,0.6,0.8,1.2,0.9,1.8c-1.2,4.4-16,5-22.4,5
		c0,0,0,0-0.1,0c-0.1,0-0.3,0-0.4,0c0,0,0,0,0,0c-0.1,0-0.3,0-0.4,0c0,0,0,0,0,0c-0.1,0-0.2,0-0.3,0c0,0-0.1,0-0.1,0
		c-0.1,0-0.2,0-0.3,0c0,0,0,0-0.1,0c-0.1,0-0.2,0-0.3,0c0,0,0,0,0,0c-0.2,0-0.4,0-0.5,0c0,0,0,0,0,0c-0.1,0-0.1,0-0.2,0
		c-0.2,0-0.2,0-0.2,0c-0.3-0.2-0.6-0.3-0.9-0.4c-0.1,0-0.2-0.1-0.3-0.1c-0.2-0.1-0.5-0.1-0.7-0.2c-0.1,0-0.1,0-0.2,0
		c-0.3-0.1-0.6-0.1-0.8-0.1c-0.1,0-0.1,0-0.2,0c-0.2,0-0.4,0-0.6,0c-0.1,0-0.1,0-0.2,0c-0.3,0-0.5,0.1-0.7,0.1c0,0,0,0,0,0
		c-0.2,0.1-0.4,0.1-0.7,0.2c-0.1,0-0.1,0-0.2,0.1c-0.2,0.1-0.4,0.1-0.5,0.2c0,0-0.1,0-0.1,0.1c-0.2,0.1-0.4,0.2-0.6,0.3
		c-0.1,0-0.1,0.1-0.2,0.1c-0.1,0.1-0.2,0.2-0.3,0.2c-0.1,0-0.1,0.1-0.2,0.1c-0.1,0.1-0.2,0.2-0.3,0.3c-0.1,0.1-0.2,0.2-0.3,0.3
		c0,0-0.1,0.1-0.1,0.1c-0.1,0.1-0.2,0.2-0.2,0.2c0,0,0,0,0,0l0,0c-0.6,0.6-0.9,1.1-0.9,1.1c0.2-0.5,0.8-0.5,1.4-0.4
		c-0.9,0.8-1.4,1.6-1.4,1.6c0.5-1,2.4,0,2.4,0c7.8,2.9,6.8-0.5,6.8-0.5c23.3,0,28.9-3.6,28.2-7.4c0.3-1.3-0.4-2.7-1.4-3.9
		c0.3-0.3,0.5-0.6,0.5-0.9c0-1-1.6-1.9-4.4-2.7c-1.2-0.9-2.3-1.6-3.1-2.1c2.1-3.9,1.9-8.7,1.1-13.6c-1.6-10.5-6.1-19.7-5.9-23.6
		c0.1,0,0.1,0,0.2,0c8.7-2,12.9-6.6,16.1-15.6c0,0,0,0,0.1-0.1c0.3-0.2,0.6-0.4,0.9-0.6c0,0,0,0,0.1-0.1c0.3-0.2,0.6-0.5,0.9-0.8
		c0,0,0.1-0.1,0.1-0.1c0.3-0.2,0.5-0.5,0.8-0.8c0,0,0,0,0.1-0.1c0.3-0.3,0.5-0.6,0.8-0.9c0-0.1,0.1-0.1,0.1-0.2
		c0.2-0.3,0.5-0.6,0.7-0.9c0,0,0-0.1,0.1-0.1c0.2-0.3,0.5-0.7,0.7-1c0-0.1,0.1-0.2,0.1-0.2c0.2-0.3,0.4-0.7,0.6-1c0,0,0-0.1,0.1-0.1
		c0.2-0.4,0.4-0.8,0.6-1.2c0-0.1,0.1-0.2,0.1-0.3c0.2-0.4,0.3-0.8,0.5-1.2c0,0,0-0.1,0-0.1c0.2-0.4,0.3-0.9,0.5-1.3
		c0-0.1,0.1-0.2,0.1-0.3c0.1-0.4,0.3-0.8,0.4-1.3c0,0,0-0.1,0-0.1c0.1-0.5,0.2-0.9,0.3-1.4c0-0.1,0-0.2,0.1-0.4
		c0.1-0.5,0.2-0.9,0.3-1.4c0,0,0,0,0-0.1c0.1-0.5,0.1-1,0.2-1.5c0-0.1,0-0.3,0-0.4c0-0.5,0.1-1,0.1-1.6c0-0.8,0.1-1.5,0.1-2.2
		C116.8,41.3,116.8,41.1,116.8,40.9z M73.3,78.1C73.2,78.1,73.2,78.1,73.3,78.1C73.2,78.1,73.2,78.1,73.3,78.1z M72.7,79.6
		C72.7,79.6,72.7,79.6,72.7,79.6L72.7,79.6C72.7,79.6,72.7,79.6,72.7,79.6z M65.7,93.7L65.7,93.7c-0.5,0.5-1.1,0.9-1.7,1.3
		c0,0,0,0-0.1,0c-0.1,0.1-0.2,0.1-0.4,0.2c1.6-2.6,2.8-3.1,3.5-3C66.6,92.7,66.2,93.2,65.7,93.7z M68.6,89.3
		c0.6-2.1,1.3-4.9,1.6-6.8C70.1,84.1,69.7,86.7,68.6,89.3z"/>
</g>
</svg>
