<?xml version="1.0" encoding="utf-8"?>
<!-- Generator: Adobe Illustrator 15.1.0, SVG Export Plug-In . SVG Version: 6.00 Build 0)  -->
<!DOCTYPE svg PUBLIC "-//W3C//DTD SVG 1.1//EN" "http://www.w3.org/Graphics/SVG/1.1/DTD/svg11.dtd">
<svg version="1.1" id="animals" xmlns="http://www.w3.org/2000/svg" xmlns:xlink="http://www.w3.org/1999/xlink" x="0px" y="0px"
	 width="124px" height="153px" viewBox="0 0 124 153" style="enable-background:new 0 0 124 153;" xml:space="preserve">
<style type="text/css">
<![CDATA[
	.st0{fill:#AD0404;}
	.st1{opacity:0.43;}
	.st2{fill:#BC6E20;stroke:#000000;stroke-miterlimit:10;}
	.st3{fill:#F9D3AA;}
	.st4{fill:#936B4D;}
	.st5{fill:#FF8500;}
	.st6{fill:#FFE7C7;}
	.st7{fill:#FFFFFF;}
	.st8{opacity:0.44;fill:#FF9F9F;}
	.st9{opacity:0.4;fill:#9B7B5C;}
	.st10{opacity:0.41;fill:#9B530B;}
	.st11{opacity:0.71;fill:#FF9F9F;}
]]>
</style>
<g>
	<path class="st2" d="M59.3,44.4c-6.9-4.9-16.2-7.2-24-11.7c-1.3,3.3,0.1,9.7,2.1,13c7.7,13.1,2.2,15.7,21,24.3
		C64.7,60.7,68.1,49.8,59.3,44.4z"/>
	<g>
		<path class="st3" d="M90.8,44.3c0,12.8,0,24.3-31.8,23.2c-28.9-1-31.4-9.4-24.9-23.2c5.5-11.8,7.3-23.3,24.9-23.3
			C76.5,21.1,90.8,31.5,90.8,44.3z"/>
		<g>
			<path d="M90.8,44.3c0,3.6,0.1,7.2-0.7,10.7c-0.4,1.8-1.1,3.5-2.1,5c-1,1.5-2.4,2.8-3.9,3.8c-3.1,2-6.7,2.9-10.3,3.5
				C70.2,67.9,66.6,68,63,68c-3.6,0-7.2-0.3-10.8-0.6c-3.6-0.4-7.2-0.9-10.6-1.9c-1.7-0.5-3.4-1.1-5-2c-1.6-0.9-3.1-2-4.1-3.5
				c-1-1.5-1.5-3.4-1.5-5.2c0-1.8,0.3-3.6,0.9-5.4c0.5-1.7,1.2-3.4,1.9-5.1c0.7-1.6,1.4-3.3,2.1-4.9c1.4-3.3,2.7-6.7,4.7-9.8
				c1-1.5,2.1-3,3.5-4.2c1.4-1.2,2.9-2.3,4.6-3c3.4-1.5,7.1-1.9,10.7-1.8c7.2,0.1,14.6,1.9,20.7,6c3,2,5.7,4.5,7.7,7.6
				C89.7,37.1,90.9,40.7,90.8,44.3z M90.7,44.3c0-3.6-1.2-7.1-3.2-10c-2-2.9-4.8-5.3-7.8-7.2c-6.1-3.7-13.2-5.4-20.3-5.5
				c-3.5,0-7.1,0.4-10.3,1.8c-3.2,1.3-5.9,3.8-7.8,6.8c-1.9,3-3.3,6.3-4.8,9.6c-0.7,1.6-1.4,3.3-2.2,4.9c-0.8,1.6-1.5,3.3-2,4.9
				c-0.5,1.7-0.9,3.4-1,5.2c0,1.8,0.4,3.5,1.4,5c1,1.5,2.4,2.6,4,3.4c1.6,0.9,3.3,1.5,5,1.9c3.4,1,7,1.4,10.6,1.7
				c3.6,0.3,7.2,0.4,10.7,0.3c3.6,0,7.1-0.2,10.7-0.7c3.5-0.5,7-1.4,10.1-3.2c1.5-0.9,2.9-2.1,3.9-3.5c1-1.4,1.8-3.1,2.2-4.8
				C90.7,51.5,90.7,47.9,90.7,44.3z"/>
		</g>
	</g>
	<path class="st9" d="M89.3,37.4c-4-9.4-16.1-16.3-30.4-16.3c-1,0-2,0-3,0.1c0.1,0.7,0.2,1.4,0.3,2.1C46,24.4,42.1,30.4,38.8,37.8h0
		l0,0c0,0,0,0.1,0,0.1c-0.6,0.1-1.7,0.6-0.6,4c1.1,3.3,2.1,4.5,2.4,5.4l0.3-4.8c4.3,4.9,9.2,8.8,14.7,12c-0.5,1.8-1.1,3.5-1.8,5.2
		c-2.3,4.2-6.7,5.6-11.8,5.8c4.2,1.1,9.8,1.8,17,2.1c1.3,0,2.6,0.1,3.8,0.1c-0.1,0.7-0.2,1.4-0.5,2c29.5,0.5,29.5-10.8,29.5-23.3
		C91.8,43.2,90.9,40.1,89.3,37.4z M53.8,49.5c1,0.8,1.8,1.6,2.5,2.3c-0.2,0.9-0.4,1.7-0.6,2.6C54.6,53.3,52.8,51.4,53.8,49.5z"/>
	<g>
		<g>
			<path class="st0" d="M59,21.1c-13.2,0-17.5,6.5-21.2,14.7h0l0,0c0,0,0,0.1,0,0.1c-0.6,0.1-1.7,0.6-0.6,4c1.1,3.3,2.1,4.5,2.4,5.4
				l0.3-4.8c4.3,5,9.3,8.9,14.9,12.1c-1-1-3-3-2-5.1c5.1,4.1,6.1,7.7,4,10.9c-1,2.3-3,3.3-4,5.3c3-1,7.1,1,9.1-2c0,1.8,0,4-0.7,5.9
				c29.5,0.5,29.5-10.8,29.5-23.3C90.8,31.5,76.5,21.1,59,21.1z"/>
			<path d="M59,21.1c-2.3,0-4.6,0.2-6.9,0.8c-2.2,0.5-4.4,1.5-6.2,2.8c-1.8,1.4-3.4,3.1-4.6,5.1c-1.2,1.9-2.2,4-3.1,6.1l-0.2,0.5
				L37.5,36h0l0.6-0.4l0,0l0.1,0.2l-0.1,0.2l0,0.1L38,36.2l-0.2,0c-0.6,0-0.8,0.9-0.6,1.7c0.1,0.8,0.4,1.6,0.7,2.4
				c0.3,0.8,0.6,1.6,1,2.4c0.4,0.8,0.9,1.4,1.2,2.4l-0.9,0.1l0.3-4.8l0.1-1.1l0.7,0.8c4.2,4.8,9.2,8.9,14.7,12.1l-0.3,0.4
				c-0.7-0.7-1.4-1.4-1.8-2.3c-0.2-0.4-0.4-0.9-0.5-1.5c-0.1-0.5,0.1-1.1,0.3-1.5l0.1-0.2l0.2,0.1c1.7,1.4,3.3,2.9,4.3,4.9
				c0.5,1,0.8,2.1,0.8,3.2c0,1.1-0.4,2.2-1,3.1l0,0c-0.5,1.1-1.2,1.9-2,2.8c-0.8,0.8-1.5,1.6-2,2.6l-0.2-0.3
				c1.6-0.5,3.3-0.3,4.9-0.3c0.8,0,1.6-0.1,2.3-0.3c0.7-0.2,1.3-0.7,1.7-1.4l0.5-0.8l0,1c0,2,0,4.1-0.6,6l-0.3-0.5
				c3.7,0,7.3-0.1,11-0.6c3.6-0.5,7.2-1.3,10.4-2.9c1.6-0.8,3-1.9,4.1-3.3c1.1-1.4,1.9-3,2.5-4.7c1-3.4,1-7.1,1.1-10.8
				c0.1-3.6-0.9-7.2-2.8-10.2c-1.9-3.1-4.6-5.6-7.6-7.6c-3-2-6.4-3.5-10-4.5C66.3,21.6,62.6,21.2,59,21.1z M59,21
				c3.7,0,7.4,0.4,10.9,1.3c3.6,0.9,7,2.3,10.2,4.3c3.2,1.9,6,4.5,8.1,7.7c1,1.6,1.8,3.3,2.4,5.1c0.5,1.8,0.8,3.8,0.7,5.6
				c0,3.7,0,7.4-1.1,11.1c-0.5,1.8-1.4,3.6-2.7,5c-1.2,1.5-2.8,2.6-4.5,3.5c-3.4,1.7-7.1,2.5-10.7,3c-3.7,0.4-7.4,0.5-11.1,0.4
				l-0.5,0l0.2-0.4c0.6-1.8,0.7-3.8,0.7-5.8l0.5,0.2c-0.5,0.7-1.2,1.3-2,1.6c-0.8,0.3-1.7,0.3-2.5,0.3c-1.6,0-3.3-0.3-4.8,0.2
				L52.4,64l0.2-0.4c0.5-1,1.3-1.9,2.1-2.7c0.8-0.8,1.5-1.6,1.9-2.6l0,0l0,0c0.6-0.9,1-1.9,1-2.9c0.1-1-0.3-2.1-0.7-3
				c-1-1.9-2.6-3.4-4.2-4.7l0.3-0.1c-0.4,0.8-0.3,1.8,0.2,2.6c0.5,0.8,1.1,1.5,1.8,2.2l1.3,1.3l-1.6-0.9c-2.8-1.6-5.5-3.3-8.1-5.3
				c-2.6-2-4.9-4.2-7-6.7l0.8-0.3l-0.2,4.8L40,47.4l-0.8-2.1c-0.3-0.7-0.8-1.5-1.2-2.3c-0.4-0.8-0.7-1.6-1-2.5
				c-0.3-0.8-0.6-1.7-0.7-2.6c0-0.5-0.1-0.9,0.1-1.5c0.1-0.3,0.2-0.5,0.5-0.7c0.2-0.2,0.5-0.3,0.8-0.3l-0.3,0.2l0-0.1l0,0.3l0,0
				l-1-2.1l1.6,1.6h0l-0.6,0.1c1-2.1,2-4.2,3.4-6.1c1.3-1.9,2.9-3.7,4.8-5c1.9-1.3,4.1-2.2,6.4-2.8C54.3,21.2,56.6,21,59,21z"/>
		</g>
	</g>
	<g>
		<path class="st6" d="M61.9,33.3c-11.6-2.9-22.3-4-33.9-5.8c-0.8,0.5-1.4,0.9-1.8,1.1c-3.2,1.8,7,7.7,32.4,15.8
			c2.3-0.8,4.4-2.1,6.3-4C67,37.3,63.9,33.3,61.9,33.3z"/>
		<path d="M61.9,33.3c-2.8-0.7-5.6-1.2-8.4-1.7c-2.8-0.4-5.7-0.8-8.5-1.2c-2.8-0.4-5.7-0.9-8.5-1.3L28,27.6l0.1,0L27,28.2
			c-0.3,0.2-0.8,0.4-1,0.6c-0.3,0.3-0.3,0.6-0.1,1c0.2,0.3,0.5,0.6,0.8,0.9c1.2,1.1,2.7,1.9,4.2,2.6c3,1.5,6,2.7,9.1,3.9
			c3.1,1.2,6.2,2.3,9.4,3.4c3.1,1.1,6.3,2.1,9.4,3.2l-0.3,0c2.3-0.8,4.5-2,6.3-3.7l0,0c0.4-0.6,0.7-1.3,0.7-2c0-0.7-0.1-1.5-0.4-2.1
			c-0.3-0.7-0.7-1.3-1.2-1.8C63.3,33.8,62.6,33.3,61.9,33.3L61.9,33.3L61.9,33.3z M61.9,33.2c0.8,0,1.5,0.5,2,1
			c0.6,0.5,1,1.2,1.3,1.8c0.3,0.7,0.5,1.4,0.5,2.2c0,0.8-0.2,1.6-0.6,2.2l0,0l0,0c-0.9,0.9-1.8,1.8-2.9,2.5
			c-1.1,0.7-2.2,1.3-3.4,1.8l-0.1,0.1l-0.2,0c-3.2-0.9-6.3-2-9.5-3.1c-3.1-1.1-6.3-2.3-9.3-3.6c-3.1-1.3-6.1-2.7-9-4.3
			c-1.4-0.8-2.9-1.7-4.2-2.8c-0.3-0.3-0.6-0.6-0.8-1c-0.1-0.2-0.2-0.4-0.2-0.7c0-0.3,0.1-0.5,0.3-0.7c0.7-0.5,1.4-0.9,2.1-1.4l0.1,0
			l0.1,0c2.8,0.4,5.7,0.8,8.5,1.1c2.8,0.3,5.7,0.7,8.5,1.2c2.8,0.5,5.7,1,8.5,1.7C56.3,31.8,59.1,32.5,61.9,33.2L61.9,33.2z"/>
	</g>
	<g>
		<path class="st5" d="M42.5,103.9c0,0-8.6-7.8-14.2-4.6c-5.6,3.2-9.9,12.4-9.9,12.4s-1.7,7.5,8.3-2.1l2.8-3.1l11.2,8
			C40.6,114.5,46.7,111.5,42.5,103.9z"/>
		<path d="M42.4,104c-1.1-0.8-2.1-1.6-3.3-2.2c-1.1-0.7-2.3-1.3-3.5-1.8c-1.2-0.5-2.5-0.9-3.7-0.9c-1.3-0.1-2.5,0.2-3.6,0.8
			c-2.2,1.3-4,3.2-5.7,5.3c-0.8,1-1.6,2.1-2.3,3.2c-0.7,1.1-1.3,2.3-1.9,3.5l0,0c-0.1,0.5-0.1,1-0.1,1.5c0.1,0.5,0.3,0.9,0.7,1
			c0.4,0.1,0.9,0,1.3-0.2c0.4-0.2,0.9-0.5,1.3-0.7c1.6-1.2,3.1-2.6,4.6-4l0,0l2.7-3.1l0.3-0.3l0.4,0.3c3.8,2.6,7.5,5.3,11.1,8
			l-0.5,0c0.8-0.4,1.6-1.1,2.1-1.8c0.6-0.8,1-1.7,1.1-2.6C43.9,107.8,43.3,105.8,42.4,104z M42.5,103.9c0.5,0.9,1,1.8,1.3,2.8
			c0.3,1,0.5,2,0.4,3.1c-0.1,1.1-0.4,2.1-1.1,3c-0.6,0.9-1.4,1.6-2.4,2.2l-0.2,0.1l-0.2-0.2c-3.8-2.6-7.5-5.2-11.2-7.9l0.7-0.1
			l-2.8,3.1l0,0l0,0c-1.5,1.4-3.1,2.8-4.9,3.8c-0.4,0.3-0.9,0.5-1.4,0.7c-0.5,0.2-1.1,0.4-1.7,0.2c-0.3-0.1-0.6-0.3-0.7-0.6
			c-0.1-0.3-0.2-0.5-0.2-0.8c-0.1-0.5,0-1.1,0.1-1.6l0,0l0,0c1.2-2.4,2.6-4.7,4.1-6.9c1.5-2.2,3.3-4.3,5.6-5.7
			c1.2-0.8,2.7-1,4.1-0.9c1.4,0.1,2.7,0.5,3.9,1.1C38.4,100.5,40.6,102,42.5,103.9L42.5,103.9L42.5,103.9z"/>
	</g>
	<path class="st10" d="M42.5,103.9c0,0-1.5-1.4-3.7-2.7c-1.3,1.2-1.6,3.1-2.2,3.1c-8.7-2.4-13.7,3.3-17.4,10.2
		c1,0.3,3.2-0.7,7.5-4.8l2.8-3.1l11.2,8C40.6,114.5,46.7,111.5,42.5,103.9z"/>
	<g>
		<path class="st5" d="M68,18.4c0,0-12.9-8.3-14-10.7c-1.2-2.4-7.8,5.6,0,11.8C54,19.6,65.8,23.6,68,18.4z"/>
		<g>
			<path d="M67.9,18.4c-2.4-1.3-4.8-2.8-7.1-4.3c-2.3-1.6-4.5-3.3-6.4-5.4c-0.2-0.3-0.5-0.5-0.6-0.9c-0.1-0.3-0.4-0.4-0.7-0.3
				c-0.6,0.1-1.1,0.7-1.5,1.2c-0.8,1.1-1.1,2.5-1.1,3.8c0,2.7,1.6,5.1,3.8,6.7l-0.2-0.1c1.2,0.4,2.4,0.7,3.6,0.9
				c1.2,0.3,2.4,0.5,3.7,0.6c1.2,0.1,2.5,0.1,3.7-0.2C66.2,20.1,67.3,19.5,67.9,18.4z M68,18.4c-0.4,1.3-1.6,2.2-2.8,2.6
				c-1.3,0.4-2.6,0.5-3.9,0.5c-1.3,0-2.6-0.2-3.8-0.4c-1.3-0.2-2.5-0.6-3.7-1l-0.1,0L53.6,20c-1.1-0.9-2.1-2-2.8-3.3
				c-0.7-1.3-1-2.8-0.9-4.2c0.1-1.4,0.6-2.8,1.5-4c0.4-0.6,0.9-1.1,1.7-1.3c0.2,0,0.4,0,0.6,0.1c0.2,0.1,0.4,0.3,0.4,0.4
				c0.2,0.3,0.4,0.5,0.6,0.8c1,0.9,2.1,1.7,3.3,2.5l3.4,2.4C63.6,15,65.8,16.6,68,18.4L68,18.4L68,18.4z"/>
		</g>
	</g>
	<path d="M68,18.4c0,0-12.9-8.3-14-10.7c-1.2-2.4-7.8,5.6,0,11.8C54,19.6,65.8,23.6,68,18.4z"/>
	<path class="st1" d="M119.3,119c0-2-10.2-3.8-25.7-4.9c-0.2,0-0.4-0.1-0.6-0.1c-3.9-0.8-6.9-0.8-9.3-0.4
		c-6.6-0.3-13.8-0.4-21.4-0.4c-31.4,0-56.9,2.6-56.9,5.9c0,3.2,25.5,5.8,56.9,5.8c10.2,0,19.7-0.3,28-0.8c-0.8,2.9-7.3,5.1-7.3,5.1
		s0,0-5,1.5c-5,1.5-4.5,4-4.5,4l3.1-2c-6.8,4.6-0.3,7.7-0.3,7.7c-3.2-4.1,2.1-5.3,2.1-5.3c-3.2,1.6-2,3.3-2,3.3
		c0.3-2.6,3.7-2.1,3.7-2.1c18.2,1,23.4-8.6,23.4-8.6s0.8-2,0.4-4.6C113.5,121.9,119.3,120.5,119.3,119z"/>
	<g>
		<path class="st5" d="M82.9,106.6c0,0,3.6-15.3,22.3-9.6s13.5,26,13.5,26s-6.8,18.3-30.1,16.4c0,0-4.4-0.8-4.7,4.1
			c0,0-1.5-3.2,2.5-6.3c0,0-6.8,2.4-2.7,10.1c0,0-8.8-6.3,1.4-15.6l-4.9,4.7c0,0-0.7-4.7,5.8-7.6c6.4-2.9,6.4-2.9,6.4-2.9
			s13.8-6.9,8.1-14.7c-5.7-7.8-15.6-3.7-17.6-2.5C82.9,108.8,78.3,107.2,82.9,106.6z"/>
		<g>
			<path d="M82.9,106.5c0.6-2.4,1.9-4.7,3.6-6.5c1.7-1.9,3.9-3.3,6.4-4c2.5-0.7,5-0.8,7.6-0.5c2.5,0.3,5,1,7.3,2
				c2.3,1,4.5,2.4,6.4,4.2c1.8,1.8,3.2,4,4.1,6.4c1.8,4.8,1.9,10.1,0.8,15l0,0l0,0c-1.2,2.9-3,5.4-5.2,7.7c-2.1,2.2-4.6,4.1-7.3,5.6
				c-2.7,1.4-5.7,2.4-8.7,2.9c-3,0.5-6.1,0.6-9.2,0.4h0l0,0c-1.1-0.2-2.4,0.1-3.2,0.8c-0.8,0.7-1.2,1.9-1.2,3.1l-0.1,1.1l-0.4-1.1
				c-0.3-0.6-0.3-1.3-0.3-1.9c0-0.6,0.2-1.3,0.5-1.9c0.5-1.2,1.4-2.1,2.4-2.9l0.3,0.6c-0.9,0.3-1.7,0.9-2.3,1.6
				c-0.6,0.7-1.1,1.6-1.3,2.5c-0.4,1.9,0.3,3.8,1.2,5.5l0.9,1.7l-1.6-1.2c-1.3-1-2.3-2.2-3-3.7c-0.7-1.5-0.9-3.1-0.7-4.7
				c0.3-1.6,1-3.1,1.8-4.4c0.9-1.3,1.9-2.5,3.1-3.5l0.7,0.7l-4.9,4.7l-0.8,0.8l-0.1-1.1c-0.2-2.7,1.3-5,3.2-6.5c1-0.8,2-1.3,3.1-1.8
				l3.2-1.4c1-0.5,2.2-0.9,3.2-1.4c1-0.5,2-1.1,2.9-1.8c1.9-1.3,3.6-2.8,4.9-4.7c0.6-0.9,1.1-2,1.2-3c0.2-1.1,0-2.2-0.5-3.2
				c-1-2-2.7-3.7-4.7-4.7c-2-1-4.4-1.3-6.7-1.1c-2.3,0.2-4.6,0.8-6.6,1.9l-0.1,0l-0.1,0c-0.4-0.2-0.8-0.3-1.1-0.5
				c-0.3-0.2-0.8-0.4-0.9-0.9c-0.1-0.3,0.2-0.5,0.3-0.6c0.2-0.1,0.4-0.2,0.6-0.2C82.1,106.6,82.5,106.6,82.9,106.5z M82.9,106.6
				c-0.4,0.1-0.8,0.1-1.2,0.2c-0.2,0.1-0.4,0.1-0.6,0.2c-0.2,0.1-0.3,0.2-0.2,0.4c0.1,0.3,0.5,0.5,0.9,0.7c0.4,0.2,0.7,0.4,1.1,0.5
				l-0.1,0c2.1-1.1,4.3-1.9,6.7-2.2c2.3-0.3,4.8,0,7,1c2.2,1,4,2.8,5.1,4.9c0.5,1.1,0.8,2.4,0.6,3.6c-0.2,1.2-0.7,2.4-1.3,3.4
				c-1.3,2-3.1,3.6-5.1,5c-1,0.7-2,1.3-3,1.9c-1.1,0.5-2.1,1-3.2,1.5l-3.2,1.4c-1.1,0.5-2,1-2.9,1.7c-0.9,0.7-1.6,1.5-2.1,2.5
				c-0.5,0.9-0.8,2.1-0.7,3l-0.9-0.3l4.9-4.7l0.7,0.7c-1.1,1-2.1,2.1-3,3.3c-0.8,1.2-1.5,2.5-1.7,4c-0.2,1.4,0,2.9,0.6,4.2
				c0.6,1.3,1.6,2.5,2.7,3.4l-0.6,0.6c-0.5-0.9-0.9-1.9-1.1-2.9c-0.2-1-0.3-2.1-0.1-3.2c0.2-1.1,0.8-2,1.5-2.8
				c0.7-0.8,1.6-1.4,2.6-1.8l2.3-0.9l-2,1.5c-0.9,0.7-1.8,1.6-2.3,2.6c-0.2,0.5-0.4,1.1-0.4,1.6c0,0.6,0,1.2,0.2,1.7l-0.5,0.1
				c0.1-1.2,0.5-2.5,1.5-3.4c0.5-0.4,1.1-0.7,1.7-0.8c0.6-0.1,1.2-0.1,1.9,0l0,0c3,0.3,6.1,0.2,9.1-0.3c3-0.5,5.9-1.5,8.6-2.9
				c2.7-1.4,5.1-3.3,7.2-5.6c2-2.2,3.8-4.8,4.9-7.6l0,0c0.5-2.4,0.6-4.9,0.5-7.3c-0.1-2.5-0.6-4.9-1.5-7.2c-0.9-2.3-2.2-4.4-3.9-6.1
				c-1.7-1.7-3.8-3.1-6.1-4c-2.3-1-4.7-1.6-7.1-2c-2.4-0.4-4.9-0.3-7.3,0.3c-2.4,0.6-4.6,1.9-6.3,3.7C85,102,83.7,104.2,82.9,106.6
				L82.9,106.6L82.9,106.6z"/>
		</g>
	</g>
	<g>
		<path class="st6" d="M84.2,132.7l0.9-0.9C84.7,132.1,84.4,132.4,84.2,132.7z"/>
		<path d="M84.1,132.7L84.1,132.7c-0.1-0.3-0.1-0.4,0-0.5c0-0.1,0.1-0.2,0.2-0.2c0.1,0,0.3,0,0.4,0c0.1,0,0.1-0.2,0.2-0.3l0.4,0.4
			c0,0.3-0.1,0.5-0.3,0.6C84.8,132.8,84.6,132.8,84.1,132.7L84.1,132.7z M84.1,132.7c-0.1-0.4,0-0.6,0.1-0.8
			c0.2-0.1,0.4-0.3,0.6-0.3l0.4,0.4c-0.1,0-0.3,0-0.3,0.1c-0.1,0.1,0,0.3-0.1,0.4c0,0.1-0.1,0.2-0.2,0.2
			C84.5,132.8,84.4,132.8,84.1,132.7L84.1,132.7L84.1,132.7z"/>
	</g>
	<g>
		<path class="st6" d="M105.5,134.7c0.9-0.9,0.5-2,0.5-2c-1.7,0.1-2.7,1.1-4.6,2c0.6-0.6,0.1-1.2,0.1-1.6c-0.7,0.5-2.1,0.6-2.1,0.6
			l1.4-1.8c0,0-1.4-0.7-2.4-0.2l0.4-2.7l-2.2,0.3l1.6-1.8c-2,1.2-2.9,1.1-2.9,1.1c0-1,1.3-2.3,1.3-2.3s-1.5-0.5-2.2-1.4
			c-1.2,0.8-2.1,1.2-2.1,1.2s0,0-6.4,2.9c-6.4,2.9-5.8,7.6-5.8,7.6l4-3.9c0.3-0.3,0.6-0.6,0.9-0.9l-0.9,0.9
			c-8.7,8.8-0.4,14.7-0.4,14.7c-4.1-7.8,2.7-10.1,2.7-10.1c-4.1,3-2.5,6.3-2.5,6.3c0.3-4.9,4.7-4.1,4.7-4.1c10.2,0.8,17.3-2.3,22-6
			c0-0.6,0-1.2,0-1.8C108.6,132.7,107.6,134.7,105.5,134.7z"/>
		<path d="M105.5,134.7c0.5-0.5,0.7-1.3,0.5-2l0,0c-0.8,0.1-1.6,0.4-2.4,0.8c-0.7,0.4-1.4,0.9-2.2,1.3l-0.6,0.3l0.5-0.5
			c0.2-0.2,0.3-0.4,0.3-0.7c0-0.3-0.2-0.5-0.2-0.8l0.2,0.1c-0.7,0.5-1.4,0.6-2.2,0.6l-0.4,0l0.2-0.3l1.4-1.9l0.1,0.3
			c-0.7-0.3-1.6-0.5-2.2-0.2l-0.4,0.2l0.1-0.5l0.4-2.7l0.3,0.3l-2.2,0.3l-0.8,0.1l0.6-0.6l1.6-1.8l0.4,0.5c-0.5,0.3-0.9,0.5-1.4,0.7
			c-0.2,0.1-0.5,0.2-0.8,0.3c-0.3,0.1-0.5,0.1-0.9,0.1l-0.3,0l0-0.4c0-0.6,0.3-1,0.5-1.5c0.3-0.4,0.5-0.8,0.9-1.1l0.1,0.6
			c-0.5-0.2-0.9-0.4-1.3-0.6c-0.4-0.2-0.8-0.5-1.1-0.9l0.5,0.1c-0.7,0.5-1.4,0.9-2.2,1.3l-2.2,1l-4.5,2c-1.4,0.7-2.8,1.6-3.7,2.8
			c-1,1.2-1.6,2.8-1.4,4.2l-0.8-0.3l4.9-4.8l0.7,0.7c-1.1,1-2.1,2.1-2.9,3.3c-0.8,1.2-1.5,2.6-1.7,4c-0.2,1.4,0,2.9,0.6,4.2
			c0.6,1.3,1.6,2.5,2.7,3.3l-0.7,0.6c-0.5-0.9-0.9-1.9-1.1-2.9c-0.2-1-0.3-2.1-0.1-3.2c0.2-1.1,0.8-2.1,1.5-2.9
			c0.8-0.8,1.6-1.4,2.7-1.8l3-1.2l-2.6,2c-0.9,0.7-1.7,1.5-2.2,2.6c-0.2,0.5-0.4,1-0.4,1.6c0,0.5,0,1.1,0.2,1.6l-0.8,0.1
			c0-0.6,0.2-1.3,0.4-1.9c0.2-0.6,0.6-1.2,1.1-1.6c0.5-0.4,1.1-0.7,1.8-0.9c0.6-0.1,1.3-0.2,1.9,0l0,0c3.8,0.3,7.7,0.2,11.5-0.8
			c3.7-0.9,7.3-2.6,10.4-4.9l0,0.1l0-1.8l0.1,0.1c-0.9,0.4-1.6,1.1-2.4,1.7c-0.4,0.3-0.8,0.6-1.2,0.9
			C106.5,134.6,106,134.7,105.5,134.7z M105.5,134.7c1,0,1.9-0.6,2.6-1.3c0.7-0.7,1.5-1.4,2.4-1.8l0.1-0.1l0,0.2l0,1.8v0.1l0,0
			c-3,2.5-6.6,4.3-10.4,5.3c-3.8,1-7.8,1.2-11.7,1h0l0,0c-0.5-0.1-1.1-0.1-1.6,0.1c-0.5,0.1-1,0.4-1.4,0.7c-0.8,0.7-1.1,1.8-1.2,3
			l-0.1,1.8l-0.7-1.6c-0.3-0.7-0.4-1.3-0.3-2c0-0.7,0.2-1.3,0.5-1.9c0.6-1.2,1.5-2.1,2.5-2.9l0.4,0.8c-0.8,0.3-1.7,0.9-2.3,1.6
			c-0.6,0.7-1.1,1.5-1.3,2.4c-0.4,1.8,0.2,3.8,1.1,5.5l1,1.9l-1.7-1.3c-1.3-1-2.3-2.2-3-3.7c-0.7-1.5-0.9-3.1-0.7-4.7
			c0.3-1.6,1-3.1,1.8-4.4c0.9-1.3,2-2.5,3.1-3.5l0.7,0.7l-4.9,4.7l-0.7,0.7l-0.1-1c-0.1-1.9,0.6-3.5,1.7-4.9c1.1-1.4,2.5-2.3,4.1-3
			l4.5-2l2.2-1c0.7-0.3,1.4-0.8,2.1-1.2l0.3-0.2l0.2,0.3c0.5,0.6,1.3,1,2,1.3l0.5,0.2l-0.4,0.4c-0.3,0.3-0.6,0.6-0.8,1
			c-0.2,0.4-0.4,0.7-0.4,1.1l-0.3-0.4c0.1,0,0.4,0,0.6-0.1c0.2-0.1,0.5-0.1,0.7-0.2c0.5-0.2,0.9-0.4,1.3-0.7l1.9-1.1l-1.5,1.6
			l-1.7,1.8l-0.3-0.5l2.2-0.3l0.4,0l-0.1,0.4l-0.4,2.7l-0.4-0.3c0.4-0.2,0.9-0.2,1.4-0.2c0.4,0.1,0.9,0.2,1.3,0.4l0.2,0.1L101,132
			l-1.4,1.8l-0.1-0.3c0.7,0,1.5-0.1,2-0.5l0.2-0.1l0,0.2c0,0.2,0.2,0.5,0.2,0.8c0,0.3-0.1,0.7-0.3,0.9l-0.1-0.2
			c0.8-0.4,1.5-0.8,2.2-1.2c0.7-0.4,1.6-0.7,2.4-0.7l0,0l0,0C106.3,133.4,106.1,134.2,105.5,134.7z"/>
	</g>
	<g>
		<path class="st5" d="M84.2,132.7l0.9-0.9C84.7,132.1,84.4,132.4,84.2,132.7z"/>
		<g>
			<path d="M84.1,132.7L84.1,132.7c-0.1-0.3-0.1-0.4,0-0.5c0-0.1,0.1-0.2,0.2-0.2c0.1,0,0.3,0,0.4,0c0.1,0,0.1-0.2,0.2-0.3l0.4,0.4
				c0,0.3-0.1,0.5-0.3,0.6C84.8,132.8,84.6,132.8,84.1,132.7L84.1,132.7z M84.1,132.7c-0.1-0.4,0-0.6,0.1-0.8
				c0.2-0.1,0.4-0.3,0.6-0.3l0.4,0.4c-0.1,0-0.3,0-0.3,0.1c-0.1,0.1,0,0.3-0.1,0.4c0,0.1-0.1,0.2-0.2,0.2
				C84.5,132.8,84.4,132.8,84.1,132.7L84.1,132.7L84.1,132.7z"/>
		</g>
	</g>
	<path class="st10" d="M105.5,119.5c8.1-11.2-12.2-17.1-17.1-15.2c-4.9,2-3.5-1.6-3.6-1.9c-1.4,2.2-1.9,4.2-1.9,4.2
		c-4.7,0.6-0.1,2.3-0.1,2.3c2-1.2,11.9-5.2,17.6,2.5c5.7,7.8-8.1,14.7-8.1,14.7s-5.6,2.7-8.2,3.8
		C90.3,127.9,101.7,125.2,105.5,119.5z"/>
	<g>
		<path class="st6" d="M60.5,19.8c0,0-6.9-7.4-7.8-9.7s-2.7,6,1.6,11.7C54.3,21.8,60.2,25.1,60.5,19.8z"/>
		<path d="M60.4,19.8c-1.7-1.4-3.2-2.9-4.6-4.6c-0.7-0.8-1.4-1.7-2-2.6c-0.3-0.5-0.6-0.9-0.9-1.4c-0.1-0.2-0.3-0.5-0.4-0.7
			c-0.1-0.3-0.2-0.6-0.3-0.6c0,0-0.1,0-0.1,0.1c-0.1,0.1-0.1,0.2-0.2,0.3c-0.1,0.2-0.1,0.5-0.2,0.8c-0.1,0.5-0.1,1.1-0.1,1.6
			c0,1.1,0.2,2.1,0.4,3.1c0.5,2.1,1.3,4,2.5,5.7l-0.2-0.1c0.5,0.3,1.2,0.6,1.8,0.8c0.6,0.2,1.3,0.3,1.9,0.3c0.6,0,1.2-0.3,1.5-0.8
			C60.1,21.1,60.3,20.5,60.4,19.8z M60.5,19.8c0,0.7,0,1.4-0.4,2.1c-0.3,0.7-1.1,1.2-1.9,1.3c-0.8,0.1-1.5,0-2.2-0.1
			c-0.7-0.2-1.4-0.4-2-0.8l-0.1,0l-0.1-0.1c-1.4-1.8-2.2-4-2.5-6.1c-0.2-1.1-0.2-2.2-0.1-3.3c0.1-0.5,0.1-1.1,0.2-1.6
			c0.1-0.3,0.1-0.5,0.2-0.8c0.1-0.1,0.1-0.3,0.2-0.4c0.1-0.1,0.2-0.3,0.5-0.3c0.3,0.1,0.3,0.3,0.4,0.4c0.1,0.1,0.1,0.2,0.2,0.4
			c0.1,0.2,0.3,0.4,0.4,0.7c0.3,0.4,0.7,0.8,1,1.2c0.7,0.8,1.4,1.6,2.1,2.4C57.9,16.3,59.3,18,60.5,19.8L60.5,19.8L60.5,19.8z"/>
	</g>
	<g>
		<path class="st5" d="M68.7,14C52.1,12.5,34.3,23.5,28,27.4c11.5,1.9,22.3,2.9,33.9,5.8c2,0,5.1,4.1,3,7.1c-1.9,1.9-4,3.1-6.3,4
			c0.1,0,0.1,0,0.2,0.1c12.3,8.3,3.6,9.1-0.4,23.2h-0.8c0,0-1.2,16.5-10,24.8c-8.8,8.3-8.3,14.9-8.3,14.9
			c-42,7.9-22.7,10.1-22.7,10.1l33.5,2.9c32.8,3.9,35-14.2,31.6-20c-2.6-4.4-4.3-21.3-4.9-29c20.8,0.6,16.6-3.2,25.4-18.7
			C107.9,42.8,98.3,16.7,68.7,14z"/>
		<path d="M68.7,14c-3.6-0.3-7.3,0-10.8,0.6c-3.6,0.7-7,1.7-10.4,3c-6.8,2.6-13.1,6.1-19.2,10l-0.1-0.5c5.7,0.9,11.4,1.6,17,2.4
			c5.7,0.9,11.3,1.9,16.9,3.2l-0.1,0c1,0,1.7,0.6,2.3,1.1c0.6,0.6,1,1.2,1.4,2c0.3,0.7,0.5,1.5,0.5,2.4c0,0.8-0.3,1.7-0.7,2.3l0,0
			l0,0c-1.8,1.8-4.1,3.2-6.5,4.1l0-0.8L59,44l0.1,0l0,0c1.9,1.3,3.8,2.6,5.3,4.5c0.7,0.9,1.3,2.1,1.2,3.4c-0.1,1.2-0.6,2.4-1.1,3.4
			c-1.1,2-2.3,4-3.3,6c-1,2-1.8,4.2-2.4,6.3l-0.1,0.2h-0.2l-0.8,0l0.3-0.3c-0.4,3.7-1.1,7.4-2.2,11c-1.1,3.6-2.6,7.1-4.7,10.2
			c-1.1,1.6-2.3,3-3.7,4.2c-1.3,1.3-2.6,2.7-3.7,4.1c-1.1,1.5-2.1,3.1-2.8,4.8c-0.7,1.7-1.3,3.5-1.2,5.3l0,0.2l-0.1,0
			c-5.8,1.1-11.7,2.3-17.4,3.8c-1.4,0.4-2.9,0.8-4.3,1.3c-1.4,0.5-2.8,1-4.1,1.7c-0.3,0.2-0.6,0.4-0.8,0.6c-0.2,0.2-0.4,0.5-0.3,0.7
			c0.1,0.2,0.4,0.4,0.7,0.6c0.3,0.2,0.6,0.3,1,0.4c0.7,0.2,1.4,0.4,2.1,0.5c0.7,0.1,1.5,0.1,2.2,0.2c11.9,1,23.7,1.9,35.6,2.9
			c5.9,0.4,11.9,0.2,17.4-1.8c2.7-1,5.3-2.4,7.3-4.5c2-2.1,3.3-4.8,3.5-7.7c0.1-1.4,0-2.9-0.4-4.2c-0.1-0.3-0.2-0.7-0.4-1
			c-0.1-0.3-0.3-0.6-0.5-1c-0.3-0.7-0.6-1.4-0.8-2.2c-0.9-2.9-1.4-5.8-1.9-8.8c-0.9-5.9-1.5-11.8-2-17.8l0-0.6l0.6,0
			c3.9,0.1,7.9,0.2,11.6-0.5c1.9-0.4,3.7-1.1,5-2.4c1.3-1.3,2.2-3.1,3.1-4.8c1.7-3.5,3.3-7.2,5.3-10.6c1-1.6,1.4-3.6,1.5-5.5
			c0.1-1.9-0.1-3.9-0.5-5.8c-1.6-7.6-6.4-14.5-12.6-19.2C84.2,17.3,76.5,14.8,68.7,14z M68.7,13.9c7.8,0.7,15.6,3.2,21.9,8
			c6.3,4.7,11.2,11.5,13,19.3c0.4,1.9,0.7,3.9,0.5,5.9c-0.1,2-0.5,4-1.5,5.8c-1.9,3.4-3.5,7-5.1,10.6c-0.8,1.8-1.7,3.6-3.2,5.1
			c-1.5,1.5-3.5,2.3-5.5,2.7c-4,0.8-7.9,0.6-11.9,0.5l0.5-0.6c0.5,5.9,1.1,11.8,2.1,17.7c0.5,2.9,1,5.8,1.8,8.6
			c0.2,0.7,0.5,1.4,0.8,2c0.1,0.3,0.4,0.6,0.5,1c0.2,0.4,0.3,0.7,0.4,1.1c0.5,1.5,0.6,3.1,0.4,4.6c-0.3,3.1-1.7,6-3.8,8.2
			c-2.1,2.2-4.9,3.8-7.7,4.8c-2.9,1-5.9,1.5-8.8,1.8c-3,0.2-6,0.2-9,0c-11.9-1.1-23.7-2.2-35.5-3.2c-0.7-0.1-1.5-0.1-2.2-0.2
			c-0.7-0.1-1.5-0.3-2.2-0.5c-0.4-0.1-0.7-0.2-1.1-0.4c-0.3-0.2-0.7-0.4-0.9-0.9c-0.2-0.5,0.1-1,0.4-1.3c0.3-0.3,0.6-0.5,0.9-0.7
			c1.3-0.8,2.7-1.3,4.2-1.7c1.4-0.5,2.9-0.9,4.3-1.3c5.8-1.5,11.6-2.7,17.5-3.8l-0.1,0.2c0-1.9,0.5-3.8,1.3-5.5
			c0.7-1.7,1.7-3.4,2.8-4.9c1.1-1.5,2.4-2.9,3.7-4.2c1.4-1.3,2.6-2.7,3.6-4.2c2.1-3.1,3.5-6.5,4.6-10.1c1.1-3.6,1.8-7.2,2.1-10.9
			l0-0.3l0.3,0l0.8,0l-0.3,0.2c0.6-2.2,1.4-4.4,2.4-6.5c1-2.1,2.2-4,3.2-6c0.5-1,0.9-2,1-3.1c0-1-0.4-2-1.1-2.9
			c-1.4-1.7-3.3-3-5.1-4.3l0.1,0l-0.2-0.1l-1.1-0.4l1.1-0.4c2.3-0.9,4.4-2.2,6.1-3.9l-0.1,0.1c0.4-0.6,0.6-1.2,0.6-1.9
			c0-0.7-0.2-1.4-0.4-2c-0.3-0.6-0.7-1.2-1.2-1.7c-0.5-0.5-1.1-0.9-1.7-0.9l-0.1,0l0,0c-11.1-2.8-22.5-4.1-33.8-6l-0.7-0.1l0.6-0.4
			c6.2-3.8,12.6-7.3,19.5-9.8c3.4-1.3,6.9-2.3,10.5-2.9C61.4,13.8,65,13.6,68.7,13.9z"/>
	</g>
	<g>
		<path class="st6" d="M49.7,105.3c11.6-8.7,12.1-24.8,8.7-37.7h-0.7c0,0-1.2,16.5-10,24.8c-8.3,7.8-8.3,14.1-8.3,14.8
			C42.8,107.9,46.3,107.6,49.7,105.3z"/>
		<path d="M49.7,105.2c1.4-1,2.6-2.2,3.7-3.5c1.1-1.3,2-2.7,2.8-4.2c1.6-3,2.5-6.3,3.1-9.6c0.6-3.3,0.7-6.7,0.6-10.1
			c-0.2-3.4-0.7-6.8-1.6-10.1l0.2,0.1l-0.7,0l0.2-0.2c-0.3,3.7-1,7.4-2,11c-1,3.6-2.5,7.1-4.6,10.3c-1,1.6-2.3,3.1-3.7,4.3
			c-1.3,1.3-2.6,2.6-3.7,4.1c-1.1,1.5-2.1,3-2.8,4.7c-0.7,1.6-1.3,3.4-1.4,5.2l-0.2-0.3c1.7,0.4,3.5,0.5,5.3,0.3
			C46.5,106.9,48.2,106.2,49.7,105.2z M49.8,105.3c-1.5,1-3.2,1.8-5,2.1c-1.8,0.4-3.6,0.4-5.4,0.1l-0.2,0l0-0.2
			c-0.1-2,0.4-3.8,1.1-5.6c0.7-1.8,1.7-3.4,2.8-4.9c1.1-1.5,2.4-2.9,3.7-4.3c1.4-1.3,2.6-2.6,3.6-4.1c2.1-3,3.6-6.4,4.7-9.9
			c1.1-3.5,2-7.2,2.3-10.8l0-0.2l0.2,0l0.7,0l0.1,0l0,0.1c0.9,3.3,1.5,6.7,1.9,10.1c0.3,3.4,0.3,6.9-0.2,10.3
			c-0.6,3.4-1.7,6.8-3.5,9.7c-0.9,1.5-1.9,2.9-3.1,4.1C52.4,103.2,51.1,104.3,49.8,105.3z"/>
	</g>
	<path class="st10" d="M45.7,101.2c4.1,1,8.1-1,10.1-4.1c1.7-3.5-0.2-7.6-4-10.1c-1.2,2-2.5,3.8-4.2,5.3c-1.8,1.7-3.2,3.3-4.3,4.8
		C43.3,98.9,44.8,100.4,45.7,101.2z"/>
	<path d="M31.1,28c0,1.5-1.5,4-3.3,4c-1.8,0-3.3-2.5-3.3-4c0,0,1.5-1.5,3.3-1.5C29.6,26.5,31.1,26.4,31.1,28z"/>
	<g>
		<path d="M46.7,27.1c0.3-0.5,0.7-0.9,1.2-1.2c0.5-0.3,1-0.6,1.5-0.8c1-0.4,2.1-0.7,3.2-0.9c1.1-0.2,2.2-0.5,3.3-0.4
			c1.1,0.1,2.2,0.4,3.2,1l0,0.2c-1.1,0.5-2.2,0.6-3.2,0.8c-1,0.1-2.1-0.1-3.1,0c-1,0-2.1,0.1-3.1,0.3c-1,0.2-2.1,0.5-2.8,1.2
			L46.7,27.1z"/>
	</g>
	<g>
		<path d="M39.8,51.4c0.3-0.5,0.7-0.9,1.2-1.2c0.5-0.3,1-0.6,1.5-0.8c1-0.4,2.1-0.7,3.2-0.9c1.1-0.2,2.2-0.5,3.3-0.4
			c1.1,0.1,2.2,0.4,3.2,1l0,0.2c-1.1,0.5-2.2,0.7-3.2,0.8c-1,0.1-2.1-0.1-3.1,0c-1,0-2.1,0.1-3.1,0.3c-1,0.2-2.1,0.5-2.8,1.2
			L39.8,51.4z"/>
	</g>
	<g>
		
			<ellipse transform="matrix(-0.9959 9.018873e-002 -9.018873e-002 -0.9959 80.9612 118.3963)" class="st4" cx="37.8" cy="61" rx="1.8" ry="1.1"/>
		<path d="M36,61.2c0-0.4,0.3-0.7,0.6-1c0.3-0.2,0.7-0.4,1.1-0.5c0.4-0.1,0.8-0.1,1.3,0c0.4,0.1,1,0.4,1.1,1.2c0,0.1,0,0.1,0,0.2
			c0,0.1,0,0.2-0.1,0.3c0,0.1-0.1,0.3-0.2,0.4c-0.2,0.2-0.4,0.3-0.6,0.5c-0.4,0.2-0.9,0.2-1.3,0.2c-0.4,0-0.8-0.1-1.2-0.3
			C36.4,61.9,36.1,61.6,36,61.2z M36,61.2c0.1,0.4,0.4,0.6,0.8,0.7c0.4,0.1,0.7,0,1.1-0.1c0.7-0.2,1.3-0.7,1.2-1
			c0,0-0.1-0.3-0.4-0.4c-0.3-0.2-0.6-0.2-0.9-0.3c-0.4,0-0.7,0-1.1,0.1C36.3,60.5,36,60.8,36,61.2z"/>
	</g>
	<g>
		<path class="st7" d="M39.6,60.9c-0.1-0.6-0.9-1-1.9-0.9c-1,0.1-1.7,0.6-1.7,1.2c0,0,0,0.1,0,0.1C37.2,61.1,38.4,61,39.6,60.9
			C39.6,60.9,39.6,60.9,39.6,60.9z"/>
		<path d="M39.6,60.9c-0.1-0.4-0.5-0.6-0.8-0.7C38.4,60,38,60,37.7,60.1c-0.4,0-0.7,0.2-1,0.4c-0.3,0.2-0.5,0.5-0.4,0.8l-0.1-0.1
			C37.2,61,38.4,60.9,39.6,60.9L39.6,60.9L39.6,60.9z M39.6,60.9L39.6,60.9L39.6,60.9L39.6,60.9c-1.2,0.2-2.3,0.4-3.5,0.6l-0.1,0
			l0-0.1c-0.2-0.5,0.2-0.9,0.5-1.1c0.3-0.2,0.8-0.3,1.2-0.4c0.4,0,0.8,0,1.2,0.2C39.2,60.2,39.6,60.5,39.6,60.9z"/>
	</g>
	<g>
		<path class="st5" d="M57.1,72.1c0,0-18.6,19.9-12.5,29.2c0,0,10.7-2.4,5.9-12C50.5,89.2,56.3,80.2,57.1,72.1z"/>
		<path d="M57,72.3c-1.7,2.1-3.3,4.3-4.9,6.5c-1.6,2.2-3.1,4.6-4.6,6.9c-1.4,2.4-2.8,4.8-3.5,7.5c-0.4,1.3-0.6,2.7-0.5,4.1
			c0.1,1.4,0.5,2.7,1.3,3.8l-0.3-0.1c1.2-0.4,2.4-0.9,3.5-1.6c1.1-0.7,2-1.6,2.6-2.7c0.6-1.1,0.8-2.3,0.6-3.6
			c-0.1-1.2-0.6-2.4-1.2-3.6l-0.1-0.3l0.2-0.3c1.6-2.6,3.1-5.3,4.3-8.1c0.6-1.4,1.2-2.8,1.6-4.3C56.4,75.2,56.7,73.7,57,72.3z
			 M57.1,72.1c-0.1,1.5-0.3,3.1-0.7,4.6c-0.4,1.5-0.8,3-1.4,4.5c-0.6,1.5-1.2,2.9-1.9,4.3c-0.7,1.4-1.4,2.8-2.3,4.1l0-0.5
			c0.6,1.2,1.1,2.6,1.2,4c0.1,1.4-0.1,2.9-0.8,4.1c-0.7,1.2-1.8,2.2-2.9,2.9c-1.2,0.7-2.4,1.2-3.8,1.5l-0.2,0l-0.1-0.2
			c-0.8-1.2-1.1-2.7-1.2-4.1c0-1.4,0.2-2.8,0.5-4.2c0.7-2.7,1.8-5.3,3.1-7.8c1.3-2.5,3-4.8,4.7-7C53.2,76.1,55,74,57.1,72.1l0-0.1
			L57.1,72.1z"/>
	</g>
	<path class="st10" d="M50.5,89.2c0,0,5.8-9,6.6-17.2c0,0-1.4,1.5-3.4,3.9c-0.5,4.5-4,8.3-4,12c-0.6,3.3,0.4,6.6,0.6,9.7
		C51.8,95.9,52.4,93.2,50.5,89.2z"/>
	<path class="st10" d="M71.3,14.3c1.5,1,2.5,2.2,2.8,3.7c1,6.1,3,13.2,8.1,15.2c4.1,3,10.1,8.1,15.2,2c6.1,17.2-8.1,35.5-26.4,33.5
		c0.8,3,1.7,6.3,2.4,9.6c-2-5.4-6.8-3.4-6.8-3.4l-1.9,14.7c0,0,0.9,19.5,1.1,26.6c-4.4,2.4-9.4,3.6-14.8,4.1
		c32,3.5,34.2-14.3,30.9-20c-2.6-4.4-4.3-21.3-4.9-29c20.8,0.6,16.6-3.2,25.4-18.7C107.7,43.1,98.8,18.3,71.3,14.3z M71.6,111.8
		l1.5-16.1c1.2-6.2,1.5-10.6,1.2-13.8C76.5,93.2,77.3,104.8,71.6,111.8z"/>
	<g>
		<path class="st5" d="M64.6,75c0,0,11.5-4.9,6.4,20.7l-2,21.8c0,0,3.8-0.5,6.5,1.3s-8.5,6-10.9,3.6c0,0-0.8,1.1-0.9-5.2
			c-0.1-6.3-1.1-27.4-1.1-27.4"/>
		<path d="M64.6,74.9c1-0.4,2.2-0.6,3.3-0.4c1.1,0.2,2.1,0.9,2.8,1.8c0.7,0.9,1.1,2,1.4,3c0.3,1.1,0.5,2.2,0.5,3.3
			c0.3,4.4-0.3,8.8-1.2,13.1l0,0c-0.4,3.6-0.9,7.3-1.2,10.9c-0.4,3.6-0.7,7.3-1,10.9l-0.3-0.2c1.7-0.2,3.4-0.1,5.1,0.4
			c0.4,0.1,0.8,0.3,1.2,0.5c0.2,0.1,0.4,0.2,0.6,0.4c0.2,0.2,0.4,0.5,0.4,0.8c-0.1,0.7-0.5,1-0.8,1.3c-0.3,0.3-0.7,0.5-1.1,0.8
			c-1.5,0.8-3.1,1.4-4.8,1.8c-0.8,0.2-1.7,0.3-2.6,0.3c-0.9,0-1.9-0.1-2.7-0.9l0.8-0.1c-0.1,0.1-0.2,0.2-0.4,0.3
			c-0.2,0.1-0.4,0-0.5-0.1c-0.2-0.2-0.3-0.3-0.3-0.4c-0.1-0.2-0.2-0.4-0.2-0.6c-0.1-0.4-0.1-0.7-0.2-1.1c-0.1-0.7-0.1-1.4-0.1-2.1
			l-0.1-4.1l-0.2-8.2c-0.2-5.5-0.3-11-0.3-16.5l0.1,0c0.5,5.5,0.8,11,1.1,16.5c0.2,2.7,0.3,5.5,0.4,8.3l0.1,4.1c0,0.7,0.1,1.4,0.1,2
			c0,0.3,0.1,0.7,0.1,1c0,0.1,0.1,0.3,0.1,0.4c0,0,0.1,0.1,0,0c0,0-0.2-0.1-0.3,0c-0.1,0-0.1,0.1-0.2,0.1l0.4-0.5l0.4,0.4
			c0.4,0.4,1.2,0.6,2,0.6c0.8,0,1.6-0.1,2.4-0.2c1.6-0.3,3.2-0.8,4.6-1.6c0.4-0.2,0.7-0.4,1-0.6c0.3-0.2,0.6-0.5,0.6-0.7
			c0-0.1,0-0.2-0.1-0.2c-0.1-0.1-0.3-0.2-0.5-0.3c-0.3-0.2-0.7-0.4-1.1-0.5c-1.5-0.6-3.2-0.7-4.8-0.6l-0.3,0l0-0.3
			c0.4-3.6,0.8-7.3,1.1-10.9c0.3-3.6,0.5-7.3,0.8-10.9l0,0l0,0c0.4-2.1,0.7-4.3,1-6.4c0.2-2.1,0.4-4.3,0.3-6.4
			c-0.1-2.1-0.4-4.3-1.6-6c-0.6-0.8-1.5-1.5-2.5-1.8C66.8,74.6,65.6,74.7,64.6,74.9L64.6,74.9z"/>
	</g>
	<g>
		<path class="st5" d="M76.6,23.1c0,0,5-13,6.9-18.4c1.5-4.2,7.4,5.9,7.9,12.7c0.6,6.7,3.8,17.5,3.8,17.5S77.3,29.8,76.6,23.1z"/>
		<g>
			<path d="M76.5,23.1c1.4-4.4,2.9-8.7,4.5-13C81.4,9,81.8,8,82.3,6.9l0.6-1.6l0.3-0.8c0.1-0.3,0.3-0.6,0.6-0.9
				c0.3-0.3,0.8-0.3,1.1-0.2c0.4,0.1,0.6,0.3,0.9,0.5c0.5,0.4,0.9,0.9,1.2,1.3c0.7,0.9,1.2,2,1.8,3c0.5,1,1,2.1,1.4,3.2
				c0.4,1.1,0.8,2.2,1,3.3c0.3,1.1,0.5,2.3,0.6,3.4c0.2,1.1,0.4,2.3,0.6,3.4c0.9,4.5,2.1,8.9,3.4,13.3l0.3,0.9l-0.9-0.3
				c-1.9-0.6-3.7-1.2-5.5-1.9c-1.8-0.7-3.5-1.5-5.2-2.4c-1.7-0.9-3.4-1.9-4.8-3.2c-0.7-0.6-1.4-1.3-2-2.1C77,25,76.6,24.1,76.5,23.1
				L76.5,23.1L76.5,23.1z M76.6,23.1c0.2,0.9,0.6,1.8,1.2,2.5c0.6,0.7,1.3,1.3,2.1,1.9c1.5,1.1,3.2,2,4.9,2.9
				c1.7,0.8,3.5,1.5,5.2,2.2c1.8,0.7,3.6,1.3,5.4,1.8l-0.7,0.7c-1.2-4.4-2.3-8.9-3-13.5c-0.2-1.1-0.3-2.3-0.4-3.4
				c-0.1-1.2-0.2-2.3-0.4-3.4c-0.5-2.2-1.3-4.4-2.4-6.4c-0.5-1-1.2-2-1.9-2.8c-0.4-0.4-0.7-0.8-1.2-1.1C85,4.1,84.5,4,84.3,4.2
				C84,4.4,83.9,5,83.7,5.6l-0.6,1.6c-0.4,1.1-0.8,2.2-1.2,3.2C80.2,14.7,78.5,18.9,76.6,23.1z"/>
		</g>
	</g>
	<path d="M91.5,17.9c0-0.2,0-0.3,0-0.5C90.9,10.6,85,0.5,83.5,4.7c-1.4,3.8-4.2,11.1-5.8,15.3C82.3,20.7,87.2,19.9,91.5,17.9z"/>
	<g>
		<path class="st6" d="M77.9,25.2c0,0,5-13.5,5.8-17.9c1-5.1,4.8,4.8,4.6,11s1.3,14.5,1.3,14.5S79.3,30.5,77.9,25.2z"/>
		<path d="M77.9,25.2c1.1-3.9,2.4-7.7,3.6-11.6c0.6-1.9,1.3-3.8,1.8-5.8c0.1-0.5,0.2-1,0.5-1.5c0.1-0.2,0.3-0.6,0.7-0.7
			c0.4-0.1,0.7,0.2,0.9,0.4c0.7,0.8,1.1,1.8,1.5,2.7c0.7,1.9,1.2,3.9,1.6,5.9c0.2,1,0.3,2,0.3,3.1c0,1,0,2,0.1,3c0.2,4,0.8,8,1.4,12
			l0.1,0.8l-0.8-0.2c-2.4-0.6-4.7-1.5-6.9-2.7c-1.1-0.6-2.1-1.3-3-2.2C78.9,27.5,78.1,26.4,77.9,25.2L77.9,25.2L77.9,25.2z M78,25.2
			c0.4,1.1,1.2,2.1,2.1,2.8c0.9,0.8,1.9,1.4,3,1.9c1.1,0.5,2.2,1,3.3,1.4c1.1,0.4,2.3,0.7,3.4,1l-0.6,0.6c-0.8-4-1.2-8.1-1.2-12.1
			c0-1,0-2.1,0.1-3c0-1,0-2-0.1-3c-0.2-2-0.7-4-1.4-5.8C86.1,7.9,85.7,7,85,6.3c-0.4-0.3-0.6-0.2-0.8,0.2C84.1,7,84.1,7.5,84,8
			c-0.4,2-1,4-1.6,5.9C81.1,17.7,79.7,21.5,78,25.2z"/>
	</g>
	
		<ellipse transform="matrix(0.9993 3.739521e-002 -3.739521e-002 0.9993 2.0811 -1.7596)" class="st8" cx="48.1" cy="54.8" rx="6.2" ry="1.8"/>
	<ellipse class="st7" cx="51" cy="53.6" rx="2" ry="0.8"/>
	<path class="st11" d="M60.5,29.6c0,1-2.8,1.7-6.3,1.6c-3.4-0.1-6.2-1.1-6.1-2.1c0-1,2.9-1.7,6.3-1.6C57.8,27.6,60.5,28.5,60.5,29.6
		z"/>
	<ellipse class="st7" cx="57.2" cy="28.1" rx="2" ry="0.8"/>
	<path class="st1" d="M98.1,60.3c1-2.2,2.2-4.7,3.8-7.6c0.2-0.3,0.3-0.6,0.5-1c0-0.1,0.1-0.2,0.1-0.4c0.1-0.2,0.2-0.4,0.3-0.7
		c0-0.2,0.1-0.3,0.1-0.5c0.1-0.2,0.1-0.4,0.2-0.7c0-0.2,0.1-0.4,0.1-0.5c0-0.2,0.1-0.4,0.1-0.7c0-0.2,0-0.4,0.1-0.6
		c0-0.2,0-0.4,0.1-0.7c0-0.2,0-0.4,0-0.6c0-0.2,0-0.5,0-0.7c0-0.2,0-0.4,0-0.7c0-0.2,0-0.5,0-0.7c0-0.2,0-0.5-0.1-0.7
		c0-0.2-0.1-0.5-0.1-0.7c0-0.2-0.1-0.5-0.1-0.7c0-0.2-0.1-0.5-0.1-0.7c0-0.2-0.1-0.5-0.2-0.7c-0.1-0.2-0.1-0.5-0.2-0.7
		c-0.1-0.3-0.1-0.5-0.2-0.8c-0.1-0.2-0.1-0.5-0.2-0.7c-0.1-0.3-0.2-0.5-0.3-0.8c-0.1-0.2-0.2-0.5-0.3-0.7c-0.1-0.3-0.2-0.5-0.3-0.8
		c-0.1-0.2-0.2-0.5-0.3-0.7c-0.1-0.3-0.2-0.5-0.4-0.8c-0.1-0.2-0.2-0.5-0.3-0.7c-0.1-0.3-0.3-0.5-0.4-0.8c-0.1-0.2-0.3-0.5-0.4-0.7
		c-0.2-0.3-0.3-0.6-0.5-0.8c-0.1-0.2-0.3-0.4-0.4-0.7c-0.2-0.3-0.4-0.6-0.6-0.8c-0.2-0.2-0.3-0.4-0.5-0.7c-0.2-0.3-0.4-0.5-0.6-0.8
		c-0.2-0.2-0.3-0.4-0.5-0.6c-0.2-0.3-0.4-0.5-0.7-0.8c-0.2-0.2-0.4-0.4-0.5-0.6c-0.2-0.3-0.5-0.5-0.7-0.8c-0.2-0.2-0.4-0.4-0.6-0.6
		c-0.3-0.3-0.5-0.5-0.8-0.8c-0.2-0.2-0.4-0.4-0.6-0.6c-0.1-0.1-0.3-0.3-0.4-0.4c-0.4-2.2-0.8-4.3-1-6.2c-0.6-6.8-6.4-16.8-7.9-12.7
		c-1,2.8-2.8,7.5-4.3,11.5c-0.2-0.1-0.4-0.1-0.6-0.2c-0.2-0.1-0.5-0.1-0.7-0.2c-0.5-0.2-1.1-0.3-1.6-0.5c-0.2-0.1-0.4-0.1-0.6-0.1
		c-0.6-0.1-1.2-0.3-1.8-0.4c-0.1,0-0.2,0-0.3-0.1c-1.6-0.3-3.2-0.5-4.9-0.7c-2.4-0.2-4.7-0.2-7.1,0.1c-3.4-2.4-7-5.1-7.6-6.3
		c-1-2-5.7,3.2-2.8,8.5c-9.1,2.8-17.2,7.5-21.7,10.3c-0.5,0-1,0-1.6,0c-1.8,0-3.3,1.5-3.3,1.5c0,1.5,1.5,4,3.3,4c0.1,0,0.1,0,0.2,0
		c1.5,1,3.8,2.2,6.8,3.6c0,1.7,0.2,3.7,0.7,5.5c-0.5,1.1-0.9,2.2-1.5,3.3c-1.7,3.7-2.8,7-2.9,9.9C51.7,60,75.8,63.9,98.1,60.3z"/>
</g>
</svg>
