<?xml version="1.0" encoding="utf-8"?>
<!-- Generator: Adobe Illustrator 15.1.0, SVG Export Plug-In . SVG Version: 6.00 Build 0)  -->
<!DOCTYPE svg PUBLIC "-//W3C//DTD SVG 1.1//EN" "http://www.w3.org/Graphics/SVG/1.1/DTD/svg11.dtd">
<svg version="1.1" id="animals" xmlns="http://www.w3.org/2000/svg" xmlns:xlink="http://www.w3.org/1999/xlink" x="0px" y="0px"
	 width="148px" height="180px" viewBox="0 0 148 180" style="enable-background:new 0 0 148 180;" xml:space="preserve">
<style type="text/css">
<![CDATA[
	.st0{opacity:0.58;fill:#B7AA72;}
	.st1{fill:#FFFFFF;stroke:#000000;stroke-miterlimit:10;}
	.st2{opacity:0.43;}
	.st3{fill:#EFE6B9;}
	.st4{clip-path:url(#SVGID_2_);}
	.st5{clip-path:url(#SVGID_4_);}
	.st6{fill:#FFFFFF;}
	.st7{opacity:0.41;fill:#BCB1A0;}
	.st8{fill:#FFFFFF;stroke:#231F20;stroke-miterlimit:10;}
]]>
</style>
<g>
	<path d="M70.9,157.7c0,7-4,13.2-5.7,13.2s-4.5-7.6-4.5-14.5c0-7,2.8-10.7,4.5-10.7S70.9,150.7,70.9,157.7z"/>
	<path d="M96.7,157.7c0,7-4,13.2-5.7,13.2c-1.8,0-4.5-7.6-4.5-14.5c0-7,2.8-10.7,4.5-10.7C92.8,145.7,96.7,150.7,96.7,157.7z"/>
	<g>
		<path class="st6" d="M51.5,30.3c0,0,4.2-4.8,7.2,1.4c0,0,0.8-9.5,9.4-4.4c0,0,3.1-2.6,4.2,1.4c0,0,4.1-10.8,8.4-3.3
			c0,0,6.1-3.4,7,1.8c0,0,12.8-2.1,12,3.4c0,0,24.3,30.4,16.9,36.2c0,0,5.2,3.1,1.4,5.5c0,0,2.8,9.2-2.3,10.5c0,0,0,8.9-6.3,8.3
			c0,0-3,6.6-6.1,3.4c0,0-2.5,7.3-5.8,5.9c0,0,6.3,4.5,4.8,8.3c0,0,4.8,1.8,1.9,7.6c0,0,4.4,4,1.6,6.9c-0.2,0.2-0.4,0.4-0.7,0.6
			c-4.1,3,0.2,4.1-3.8,3.6c0,0,4.2,0.2,1.4,4.4c0,0,1.6,1.4-1.1,6.1c0,0,5.3,0.5,0.2,5.6c0,0,5.3,5.3,1.8,7.9
			c-0.2,0.1-0.4,0.3-0.7,0.4c-4.8,2.3-2.3,4.5-6.9,4.5c-4.5,0-2-0.2-4.5,0c-2.5,0.2,0,0,0,0s-3.6,7.3-7.7,4.5c0,0-3.1-0.9-3.6-1.4
			s-5.3,5.6-7.5,1.1c-2.2-4.5-5.5,5.5-6.9-0.6c0,0-8.8-1.3-6.1-6.1c0,0-5.2-4.7-2-7.5c0,0-7.4,1.4-5.2-3.3c0,0-3-7.6,2.5-7.5
			c0,0-5.4-3.2-1.4-5.1c0,0-4.1-3.4-1-5.8c0,0-4.7,1.5-0.8-4c0,0-0.9-5,1.7-5c0,0,0-6.6,2.8-5.3c0,0-1.4-2.9,1.9-3.4
			c0,0-1.9-1.9,1.3-3c0,0-4.7,0.3-3.8-7.3c0,0-3.6,6.2-5.5,2c0,0-6.6,0.6-5.2-4.5c0,0-9.9-2.4-6.9-5.4c0,0-5.1-1.5-3.8-5.8
			c0,0-4.7,2-3.2-1.9C31.5,81.1,18.5,31.7,51.5,30.3z"/>
		<path d="M51.5,30.2c0.5-0.6,1.1-1,1.8-1.4c0.7-0.3,1.5-0.5,2.3-0.4c0.8,0.2,1.5,0.6,2,1.2c0.5,0.6,0.9,1.3,1.3,1.9l-0.2,0
			c0.1-1.1,0.4-2.2,0.9-3.2c0.5-1,1.2-2,2.3-2.5c1.1-0.5,2.3-0.5,3.4-0.2c1.1,0.3,2.1,0.8,3.1,1.3l-0.3,0c0.4-0.3,0.8-0.6,1.3-0.7
			c0.5-0.2,1-0.2,1.5-0.1c0.5,0.2,0.9,0.6,1.2,1c0.3,0.4,0.4,0.9,0.6,1.4l-0.5,0c0.4-1,0.9-2,1.4-2.9c0.6-0.9,1.2-1.8,2.1-2.5
			c0.4-0.3,1-0.6,1.5-0.7c0.6-0.1,1.2,0,1.7,0.3c1,0.6,1.7,1.5,2.2,2.4l-0.4-0.1c0.7-0.4,1.4-0.6,2.1-0.9c0.7-0.2,1.5-0.3,2.3-0.3
			c0.8,0.1,1.6,0.4,2.2,1c0.6,0.6,0.8,1.4,1,2.1l-0.4-0.3c2.4-0.3,4.7-0.5,7.1-0.3c1.2,0.1,2.4,0.3,3.5,0.9c0.6,0.3,1.1,0.7,1.5,1.3
			c0.4,0.6,0.4,1.3,0.3,1.9l-0.1-0.3c2.2,2.7,4.3,5.5,6.3,8.4c2,2.8,4,5.8,5.8,8.7c1.8,3,3.5,6.1,4.8,9.3c0.6,1.6,1.2,3.3,1.5,5.1
			c0.1,0.9,0.1,1.8,0,2.7c-0.2,0.9-0.7,1.8-1.5,2.4l0-0.7c0.5,0.3,1,0.7,1.5,1.1c0.5,0.4,0.9,0.9,1.2,1.5c0.3,0.6,0.4,1.4,0.1,2.1
			c-0.3,0.7-0.8,1.1-1.4,1.5l0.2-0.4c0.3,1,0.5,2,0.6,3c0.1,1,0.2,2,0.1,3c-0.1,1-0.3,2.1-0.8,3c-0.5,0.9-1.5,1.7-2.5,1.9l0.3-0.3
			c0,1-0.2,2-0.4,3c-0.2,1-0.6,2-1.1,2.8c-0.5,0.9-1.2,1.7-2.2,2.2c-0.9,0.5-2,0.6-3,0.5l0.3-0.2c-0.3,0.7-0.7,1.3-1.1,1.9
			c-0.4,0.6-0.9,1.2-1.4,1.6c-0.5,0.5-1.2,0.9-2,0.9c-0.8,0-1.6-0.4-2.1-0.9l0.5-0.1c-0.5,1.5-1.2,2.8-2.1,4.1
			c-0.5,0.6-1,1.2-1.7,1.7c-0.7,0.5-1.6,0.6-2.4,0.3l0.2-0.4c1.4,1.1,2.6,2.2,3.7,3.6c0.5,0.7,1,1.5,1.2,2.3c0.3,0.8,0.3,1.8,0,2.7
			l-0.1-0.3c0.7,0.3,1.4,0.8,1.9,1.4c0.5,0.6,0.9,1.3,1,2.1c0.3,1.6-0.2,3.1-0.9,4.4l0-0.2c0.9,0.9,1.7,1.9,2.2,3.1
			c0.2,0.6,0.4,1.2,0.4,1.9c0,0.7-0.3,1.3-0.7,1.8c-0.4,0.5-0.9,0.9-1.4,1.3c-0.5,0.4-0.9,0.8-1.2,1.3c-0.1,0.3-0.2,0.5-0.3,0.8
			c0,0.1,0,0.3,0,0.4c0,0.2,0.1,0.3,0,0.5c-0.2,0.3-0.4,0.2-0.5,0.3c-0.2,0-0.3,0-0.5,0c-0.3,0-0.6-0.1-0.9-0.1l0-0.3
			c0.5,0,1,0.2,1.5,0.4c0.5,0.2,0.9,0.7,1,1.3c0.1,0.6,0,1.1-0.2,1.6c-0.2,0.5-0.5,0.9-0.7,1.4l0-0.2c0.4,0.5,0.5,1.1,0.5,1.7
			c0,0.6-0.1,1.1-0.3,1.7c-0.3,1.1-0.8,2.1-1.3,3l-0.2-0.3c0.7,0.1,1.3,0.3,1.9,0.7c0.3,0.2,0.5,0.5,0.6,0.9c0.1,0.4,0.1,0.7,0,1.1
			c-0.2,0.7-0.5,1.3-0.9,1.8c-0.4,0.5-0.8,1-1.3,1.5v-0.3c0.8,0.8,1.4,1.6,2,2.5c0.6,0.9,1,1.9,1.1,3.1c0,0.6-0.1,1.2-0.4,1.7
			c-0.3,0.5-0.7,0.9-1.2,1.2c-1,0.5-1.9,1-2.6,1.7c-0.4,0.3-0.7,0.7-1,1.2c-0.3,0.4-0.5,0.9-1,1.3c-0.5,0.4-1.1,0.5-1.6,0.6
			c-0.5,0.1-1.1,0.1-1.6,0.1l-1.6,0c-0.5,0-1.1-0.1-1.6,0l-1.6,0.1l-0.4,0l0,0l0,0c-0.1-1.2,0-0.3,0-0.6h0l0,0l0.1,0l0.2,0l0.8-0.1
			l0.5,0l-0.2,0.5c-0.4,0.8-0.8,1.5-1.4,2.2c-0.5,0.7-1.1,1.4-1.7,1.9c-0.7,0.6-1.5,1.1-2.4,1.2c-0.9,0.2-1.9-0.1-2.6-0.7l0.1,0
			c-0.9-0.3-1.8-0.6-2.7-0.9c-0.2-0.1-0.4-0.2-0.7-0.3c-0.1-0.1-0.2-0.1-0.4-0.2c0.1,0.1,0,0,0,0c0,0,0.1,0,0.1,0c0,0,0,0,0,0
			c0,0-0.1,0-0.1,0c-0.3,0.2-0.7,0.5-1.1,0.8c-0.7,0.6-1.5,1.2-2.4,1.6c-0.5,0.2-0.9,0.4-1.5,0.4c-0.5,0-1.1-0.1-1.6-0.4
			c-0.5-0.3-0.8-0.7-1-1.2c-0.2-0.5-0.4-0.8-0.7-1.1c-0.5-0.5-1.3,0-1.9,0.6l-1,1c-0.4,0.3-0.7,0.7-1.4,0.8c-0.3,0.1-0.7,0-1-0.2
			c-0.3-0.2-0.4-0.5-0.6-0.7c-0.2-0.5-0.4-1-0.5-1.4l0.3,0.3c-0.9-0.1-1.7-0.3-2.6-0.6c-0.8-0.3-1.7-0.6-2.4-1.1
			c-0.8-0.5-1.5-1.2-1.8-2.2c-0.3-1,0-2,0.4-2.8l0.1,0.6c-0.6-0.5-1.1-1.1-1.5-1.7c-0.5-0.6-0.9-1.2-1.2-2c-0.3-0.7-0.5-1.5-0.5-2.4
			c0.1-0.8,0.5-1.7,1.1-2.2l0.4,0.8c-0.7,0.1-1.4,0.2-2.1,0.2c-0.7,0-1.4,0-2.2-0.2c-0.4-0.1-0.7-0.3-1.1-0.5
			c-0.3-0.3-0.6-0.7-0.7-1.1c-0.2-0.9,0.1-1.6,0.4-2.3l0,0.4c-0.3-0.8-0.5-1.6-0.7-2.4c-0.1-0.8-0.2-1.7-0.1-2.5
			c0.1-0.8,0.4-1.8,1.2-2.4c0.8-0.6,1.7-0.8,2.6-0.8l-0.2,0.9c-0.5-0.3-1-0.7-1.5-1.1c-0.5-0.4-0.9-0.8-1.2-1.4
			c-0.2-0.3-0.3-0.6-0.4-1c-0.1-0.4,0-0.8,0.2-1.1c0.4-0.7,1-1,1.5-1.3l-0.1,0.8c-0.5-0.4-0.9-0.8-1.2-1.3c-0.4-0.5-0.7-1-0.9-1.6
			c-0.2-0.6-0.3-1.3,0-2c0.2-0.7,0.7-1.2,1.2-1.6l0.4,0.8c-0.6,0.2-1.2,0.3-1.9,0.1c-0.3-0.1-0.8-0.3-1-0.7
			c-0.2-0.4-0.1-0.8-0.1-1.1c0.1-0.6,0.4-1.1,0.7-1.6c0.3-0.5,0.6-1,0.9-1.4l-0.1,0.4c-0.2-1-0.2-2.1-0.1-3.2
			c0.1-0.5,0.2-1.1,0.6-1.6c0.4-0.5,1.1-0.9,1.7-0.8l-0.5,0.5c0-1.2,0.1-2.4,0.4-3.6c0.2-0.6,0.4-1.2,0.9-1.8c0.2-0.3,0.6-0.5,1-0.6
			c0.4-0.1,0.8,0,1.1,0.2l-0.6,0.7c-0.2-0.4-0.3-0.8-0.3-1.3c0-0.5,0-1,0.3-1.4c0.2-0.4,0.6-0.8,1-1c0.4-0.2,0.8-0.3,1.3-0.4
			l-0.3,0.8c-0.3-0.3-0.5-0.7-0.6-1.1c-0.1-0.4-0.1-0.9,0.1-1.4c0.2-0.4,0.6-0.7,0.9-0.9c0.3-0.2,0.7-0.4,1-0.5l0.2,0.9
			c-1,0-1.8-0.3-2.5-0.9c-0.7-0.6-1.2-1.3-1.5-2.1c-0.6-1.6-0.5-3.3-0.3-4.8l0.9,0.3c-0.3,0.6-0.7,1.1-1.1,1.6
			c-0.4,0.5-0.9,1-1.4,1.4c-0.3,0.2-0.6,0.4-1,0.5c-0.4,0.1-0.8,0.2-1.3,0c-0.8-0.3-1.2-1.1-1.5-1.7l0.5,0.3c-0.8,0.1-1.5,0-2.2-0.1
			c-0.7-0.1-1.5-0.3-2.2-0.8c-0.7-0.4-1.2-1.2-1.4-2c-0.2-0.8-0.1-1.6,0.1-2.3l0.3,0.6c-1.7-0.5-3.3-1-4.9-1.8
			c-0.8-0.4-1.6-0.8-2.2-1.6c-0.3-0.4-0.6-0.9-0.6-1.5c0-0.6,0.4-1.1,0.7-1.4l0.2,0.7c-0.7-0.2-1.3-0.5-1.9-0.9
			C36,88,35.4,87.5,35,86.9c-0.4-0.6-0.7-1.2-0.8-2c-0.1-0.7,0-1.4,0.2-2.1l0.5,0.5c-0.5,0.2-0.9,0.3-1.4,0.4c-0.5,0.1-1,0.2-1.6,0
			c-0.3-0.1-0.6-0.2-0.8-0.5c-0.2-0.3-0.3-0.6-0.3-0.9c0-0.6,0.1-1,0.3-1.5l0,0.2c-1.2-5.2-2-10.4-2.3-15.7
			c-0.3-5.3-0.2-10.6,0.9-15.8c0.5-2.6,1.3-5.1,2.5-7.5c1.2-2.4,2.7-4.6,4.7-6.4c1.9-1.8,4.3-3.2,6.8-4.1
			C46.2,30.8,48.8,30.3,51.5,30.2z M51.5,30.3c-2.6,0.1-5.2,0.6-7.7,1.5c-2.5,0.9-4.7,2.3-6.6,4.1c-3.8,3.6-5.9,8.7-6.9,13.8
			c-1,5.1-1.1,10.4-0.8,15.7c0.4,5.2,1.2,10.5,2.4,15.5l0,0.1l0,0.1c-0.2,0.4-0.3,0.8-0.3,1.2c0,0.4,0.2,0.5,0.5,0.6
			c0.3,0.1,0.8,0,1.2-0.1c0.4-0.1,0.9-0.2,1.2-0.4l0.8-0.3l-0.3,0.8c-0.4,1.1-0.2,2.4,0.5,3.3c0.4,0.5,0.8,0.9,1.3,1.2
			c0.5,0.3,1.1,0.6,1.6,0.8l0.7,0.2l-0.5,0.5c-0.6,0.5-0.6,1.1,0,1.7c0.5,0.5,1.2,1,2,1.3c1.5,0.7,3.1,1.3,4.8,1.7l0.5,0.1l-0.1,0.5
			c-0.2,0.6-0.2,1.3-0.1,1.8c0.1,0.6,0.5,1,1,1.4c1,0.6,2.5,0.8,3.8,0.7l0.4,0l0.1,0.3c0.2,0.5,0.6,1,0.9,1.1c0.4,0.1,0.9,0,1.3-0.4
			c0.9-0.7,1.7-1.7,2.3-2.8l1.2-1.9l-0.3,2.2c-0.2,1.5-0.2,3,0.3,4.4c0.2,0.7,0.6,1.3,1.1,1.7c0.5,0.4,1.2,0.7,1.8,0.6l3,0l-2.8,1
			c-0.6,0.2-1.2,0.5-1.4,0.9c-0.1,0.2-0.1,0.4-0.1,0.6c0.1,0.2,0.2,0.5,0.4,0.7l0.6,0.7l-0.9,0.1c-0.7,0.1-1.3,0.4-1.6,0.9
			c-0.1,0.2-0.2,0.5-0.2,0.9c0,0.3,0.1,0.7,0.2,0.9l0.5,1.1l-1.2-0.5c-0.4-0.2-0.8-0.2-1.1,0.2c-0.3,0.3-0.5,0.8-0.7,1.4
			c-0.3,1.1-0.4,2.2-0.4,3.3l0,0.5l-0.5,0c-0.4,0-0.7,0.1-0.9,0.5c-0.2,0.3-0.4,0.7-0.4,1.2c-0.1,0.9-0.1,1.9,0.1,2.8l0,0.2
			l-0.1,0.2c-0.3,0.4-0.6,0.9-0.9,1.3c-0.3,0.5-0.5,0.9-0.6,1.4c0,0.2,0,0.4,0,0.5c0,0.1,0.1,0.2,0.3,0.2c0.4,0.1,0.9,0,1.4-0.1
			l2.5-0.7l-2.1,1.5c-0.4,0.3-0.7,0.7-0.9,1.1c-0.2,0.4-0.1,0.9,0,1.4c0.3,0.9,1.1,1.8,1.8,2.5l0.5,0.5l-0.6,0.3
			c-0.5,0.2-0.9,0.5-1.1,0.9c-0.2,0.3-0.1,0.8,0.1,1.2c0.5,0.9,1.5,1.6,2.4,2.2l1.4,0.9l-1.7,0c-0.7,0-1.5,0.1-2,0.5
			c-0.5,0.4-0.8,1.1-0.8,1.8c-0.1,1.5,0.2,3.1,0.7,4.5l0.1,0.2l-0.1,0.2c-0.3,0.6-0.4,1.2-0.3,1.7c0.1,0.5,0.6,0.8,1.1,1
			c1.2,0.3,2.6,0.2,3.8,0l1.6-0.3l-1.2,1c-0.5,0.4-0.8,1-0.8,1.6c-0.1,0.6,0.1,1.3,0.4,1.9c0.6,1.2,1.5,2.4,2.5,3.3l0.3,0.2
			l-0.2,0.3c-0.4,0.7-0.6,1.5-0.4,2.1c0.2,0.7,0.8,1.3,1.4,1.7c1.4,0.9,3,1.4,4.7,1.6l0.3,0.1l0.1,0.3c0.1,0.4,0.2,0.9,0.4,1.2
			c0.1,0.2,0.2,0.3,0.3,0.4c0.1,0.1,0.2,0.1,0.3,0.1c0.3-0.1,0.7-0.4,1-0.6l1-0.9c0.4-0.3,0.7-0.6,1.3-0.9c0.3-0.1,0.6-0.2,0.9-0.1
			c0.3,0,0.6,0.2,0.8,0.4c0.4,0.4,0.7,0.9,0.9,1.3c0.2,0.4,0.5,0.7,0.8,0.9c0.6,0.5,1.5,0.4,2.3,0c0.8-0.4,1.6-0.9,2.3-1.5
			c0.4-0.3,0.7-0.6,1.2-0.9c0.1,0,0.1-0.1,0.2-0.1c0,0,0.1,0,0.2,0c0,0,0.1,0,0.2,0.1c0.1,0,0,0,0.1,0.1c0,0,0.1,0.1,0.2,0.1
			c0.2,0.1,0.4,0.2,0.6,0.3c0.8,0.3,1.7,0.6,2.6,0.9l0.1,0l0,0c0.6,0.5,1.4,0.7,2.2,0.6c0.8-0.1,1.5-0.5,2.1-1c1.2-1,2.2-2.5,3-3.9
			l0.3,0.4l-0.8,0l-0.2,0l-0.1,0h0l0,0c0-0.3,0,0.6,0-0.6l0,0l0,0l0.4,0l1.6-0.1c0.6,0,1.1,0.1,1.6,0l1.6,0c1,0,2.1,0,2.9-0.5
			c0.4-0.3,0.6-0.7,0.9-1.2c0.3-0.5,0.6-0.9,1.1-1.3c0.8-0.8,1.8-1.3,2.7-1.7c0.9-0.5,1.5-1.4,1.4-2.4c0-1-0.5-2-1-2.8
			c-0.5-0.9-1.2-1.7-1.9-2.5l-0.2-0.2l0.2-0.2c0.5-0.5,0.9-0.9,1.3-1.4c0.4-0.5,0.7-1.1,0.9-1.6c0.2-0.6,0-1.2-0.5-1.6
			c-0.5-0.4-1.1-0.6-1.7-0.6l-0.3,0l0.1-0.3c0.5-0.9,1-1.9,1.3-2.9c0.1-0.5,0.2-1,0.2-1.6c0-0.5-0.1-1.1-0.4-1.4l-0.1-0.1l0.1-0.1
			c0.3-0.4,0.5-0.8,0.7-1.3c0.2-0.5,0.3-0.9,0.2-1.4c-0.1-0.5-0.4-0.8-0.8-1c-0.4-0.2-0.9-0.3-1.4-0.4l0-0.3c0.3,0,0.6,0.1,0.9,0.1
			c0.2,0,0.3,0,0.4,0c0.1,0,0.3,0,0.3-0.1c0-0.2-0.1-0.6,0-0.9c0-0.3,0.1-0.7,0.3-0.9c0.3-0.6,0.8-1,1.3-1.4c0.5-0.4,1-0.7,1.3-1.2
			c0.8-1,0.7-2.3,0.2-3.4c-0.5-1.1-1.3-2.1-2.1-3l-0.1-0.1l0.1-0.1c0.7-1.3,1.1-2.8,0.9-4.2c-0.2-1.4-1.3-2.6-2.6-3.1l-0.2-0.1
			l0.1-0.2c0.3-0.8,0.2-1.6,0-2.4c-0.3-0.8-0.7-1.5-1.2-2.2c-1-1.3-2.3-2.5-3.6-3.5l-1.8-1.4l2.1,0.9c0.6,0.3,1.3,0.2,1.9-0.2
			c0.6-0.4,1.1-1,1.5-1.6c0.8-1.2,1.5-2.6,2-4l0.2-0.4l0.3,0.3c0.5,0.5,1,0.8,1.6,0.8c0.6,0,1.2-0.4,1.7-0.8c1-0.9,1.7-2.1,2.3-3.3
			l0.1-0.2l0.2,0c0.9,0.1,1.9,0,2.7-0.5c0.8-0.4,1.4-1.2,1.9-2c0.9-1.7,1.3-3.6,1.3-5.5l0-0.3l0.3-0.1c0.9-0.2,1.7-0.8,2.1-1.6
			c0.5-0.8,0.6-1.7,0.7-2.7c0.1-1.9-0.2-3.9-0.7-5.8l-0.1-0.3l0.2-0.2c0.5-0.3,0.9-0.7,1.1-1.1c0.2-0.4,0.1-0.9-0.1-1.4
			c-0.5-0.9-1.5-1.7-2.4-2.3l-0.5-0.3l0.5-0.4c1.3-1,1.4-2.8,1.2-4.4c-0.2-1.7-0.8-3.3-1.4-4.9c-1.3-3.2-3-6.2-4.7-9.2
			c-1.8-3-3.7-5.9-5.7-8.7c-2-2.8-4.1-5.7-6.2-8.4l-0.1-0.1l0-0.2c0.1-0.5,0-1-0.2-1.5c-0.3-0.4-0.7-0.8-1.2-1
			c-1-0.5-2.1-0.7-3.3-0.8c-2.3-0.2-4.7,0-7,0.3l-0.3,0l-0.1-0.3c-0.1-0.7-0.4-1.3-0.8-1.8c-0.4-0.5-1.1-0.8-1.7-0.8
			c-1.4-0.1-2.8,0.4-4,1l-0.3,0.1l-0.1-0.2c-0.5-0.9-1.1-1.7-2-2.2c-0.8-0.5-1.9-0.3-2.6,0.3c-0.8,0.6-1.4,1.5-2,2.3
			c-0.5,0.9-1,1.8-1.4,2.8l-0.3,0.7L72,28.8c-0.2-0.9-0.7-1.8-1.4-2c-0.8-0.2-1.7,0.2-2.4,0.7l-0.1,0.1l-0.1-0.1
			C67,27,66,26.5,65,26.2c-1-0.3-2.2-0.3-3.1,0.1c-1,0.4-1.7,1.3-2.2,2.3c-0.5,1-0.8,2-0.9,3.1l-0.1,0.4l-0.2-0.4
			c-0.3-0.7-0.7-1.3-1.2-1.9c-0.5-0.6-1.1-1-1.9-1.2c-0.7-0.2-1.5,0-2.2,0.3C52.7,29.3,52,29.8,51.5,30.3L51.5,30.3L51.5,30.3z"/>
	</g>
	<path class="st1" d="M90.7,156.6C90.7,156.6,90.6,156.6,90.7,156.6C90.6,156.6,90.7,156.6,90.7,156.6z"/>
	<path class="st1" d="M91.7,156.5C91.7,156.5,91.6,156.5,91.7,156.5C91.6,156.5,91.6,156.5,91.7,156.5z"/>
	<path class="st7" d="M64.2,110.2c-1.3-1.3-2.5-3.8-1.3-5c1.3-1.3,2.5-3.8,5-2.5c-3.2-3.2-7.3,0-10.8,0.2c1.1,1.3,2.7,1.2,2.7,1.2
		c-3.1,1.1-1.3,3-1.3,3c-3.3,0.5-1.9,3.4-1.9,3.4c-2.8-1.3-2.8,5.3-2.8,5.3c-2.6,0-1.7,5-1.7,5c-3.9,5.5,0.8,4,0.8,4
		c-1.2,0.9-1.3,2-1,2.9c2.5-5.4,7.3-9.9,7.3-16.4C60.4,111.5,61.7,109,64.2,110.2z"/>
	<path class="st1" d="M91.5,156.5c0,0-0.1,0-0.1,0C91.5,156.5,91.5,156.5,91.5,156.5z"/>
	<path class="st1" d="M101.8,127.6c-0.2,0-0.3,0-0.3,0C101.6,127.6,101.7,127.6,101.8,127.6z"/>
	<path class="st1" d="M91,156.5c-0.1,0-0.1,0-0.2,0C90.9,156.5,90.9,156.5,91,156.5z"/>
	<path class="st1" d="M91.2,156.5c0,0-0.1,0-0.1,0C91.1,156.5,91.2,156.5,91.2,156.5z"/>
	<path class="st1" d="M91.5,156.5c0,0-0.1,0-0.1,0C91.5,156.5,91.5,156.5,91.5,156.5z"/>
	<path class="st7" d="M69.2,156.5c-2.3,1.2-4.9,1.8-7.6,2.1c1.9,1.1,4.5,1.5,4.5,1.5c1.4,6.1,4.7-3.9,6.9,0.6c2.2,4.5,7-1.6,7.5-1.1
		S84,161,84,161c2.8,2,5.4-1,6.8-3C84.7,158.8,75.8,153.6,69.2,156.5z"/>
	<path class="st1" d="M91.7,156.5C91.7,156.5,91.6,156.5,91.7,156.5C91.6,156.5,91.6,156.5,91.7,156.5z"/>
	<path class="st1" d="M101.8,127.6c-0.2,0-0.3,0-0.3,0C101.6,127.6,101.7,127.6,101.8,127.6z"/>
	<path class="st1" d="M90.7,156.6C90.7,156.6,90.6,156.6,90.7,156.6C90.6,156.6,90.7,156.6,90.7,156.6z"/>
	<path class="st1" d="M91,156.5c-0.1,0-0.1,0-0.2,0C90.9,156.5,90.9,156.5,91,156.5z"/>
	<path class="st1" d="M91.2,156.5c0,0-0.1,0-0.1,0C91.1,156.5,91.2,156.5,91.2,156.5z"/>
	<path class="st7" d="M116.7,66.8c0.7-0.6,1.1-1.3,1.3-2.3c8.6-11,10.1-27.3,6.1-41c-4.1-2.8-9.3-4.4-15-4.4c-7.8,0-14.7,3.1-19,7.9
		c-1.3,0.1-2.3,0.3-2.3,0.3c-0.9-5.2-7-1.8-7-1.8c-2.4-4.2-4.8-2.7-6.4-0.5c1.8,1,3,2.3,3.6,4c6.3,10,2.5,20,13.8,27.5
		c0,1.3,0,3.8,0,5c2.5-2.5,6.3-5,8.8-3.8c5,2.5,7.5,7.5,6.3,13.8c3.8-1.3,7.5,1.3,8.8,5c0,1.3,1.3,5,0,6.3c-5,6.3-10,6.3-17.5,7.5
		c0,0,0,3.8-1.3,3.8c-7.5-2.5,0.4,6.2-8.3,4.9c0,2.5-9.7,2.6-9.7,5.1c1.3,0,4.3,0,5.5,0c3.8,8.8,5,15,11.3,23.8
		c1.3,2.5-2.5,5-1.3,6.3c8.8,6.3,5,16.3,1.3,21.3c-0.3,0.5-0.7,0.9-1.1,1.2c0.4,0,1,0,1.8,0c4.5,0,2-2.2,6.9-4.5
		c0.3-0.1,0.5-0.3,0.7-0.4c3.6-2.6-1.8-7.9-1.8-7.9c5.2-5.2-0.2-5.6-0.2-5.6c2.7-4.7,1.1-6.1,1.1-6.1c2.3-3.5-0.2-4.2-1.1-4.3
		c-0.1,0-0.2,0-0.3,0c0,0,0.1,0,0.3,0c3.3,0.4-0.5-0.7,3.4-3.6c0.3-0.2,0.5-0.4,0.7-0.6c2.8-2.9-1.6-6.9-1.6-6.9
		c3-5.8-1.9-7.6-1.9-7.6c1.4-3.9-4.8-8.3-4.8-8.3c3.3,1.4,5.8-5.9,5.8-5.9c3.1,3.1,6.1-3.4,6.1-3.4c6.3,0.6,6.3-8.3,6.3-8.3
		c5.2-1.3,2.3-10.5,2.3-10.5C121.9,69.9,116.7,66.8,116.7,66.8z"/>
	<g>
		<path class="st3" d="M132.5,45C132.5,45,132.5,45,132.5,45c1.1-2.3,1.7-4.7,1.7-7.3c0-10.9-10.7-19.8-23.9-19.8
			c-13.2,0-23.9,8.9-23.9,19.8c0,10.9,10.7,19.8,23.9,19.8c0,0,2.3-6.8,5.5-0.2c1.8,5.7,3,19.7,20.5,10.4
			C136.3,67.7,127.2,64.2,132.5,45z"/>
		<path d="M132.5,44.9L132.5,44.9L132.5,44.9c1-2.1,1.6-4.3,1.6-6.6c0.1-2.3-0.4-4.6-1.2-6.7c-1.7-4.3-5.2-7.6-9.1-9.8
			c-7.9-4.4-18.1-4.7-26.2-0.5c-4.1,2.1-7.6,5.4-9.5,9.6c-1.9,4.2-2,9.1-0.1,13.3c1.8,4.2,5.3,7.5,9.2,9.7c4,2.2,8.6,3.2,13.1,3.2
			l-0.5,0.3c0.3-0.7,0.6-1.4,1-2c0.2-0.3,0.5-0.6,0.8-0.9c0.3-0.3,0.8-0.5,1.3-0.5c0.5,0,1,0.2,1.3,0.4c0.3,0.2,0.6,0.5,0.9,0.8
			c0.5,0.6,0.8,1.3,1.2,1.9l0,0l0,0c0.7,2.4,1.2,4.8,2.1,7c0.9,2.2,2.2,4.3,4.2,5.3c2,1.1,4.5,1,6.8,0.5c2.3-0.5,4.6-1.5,6.7-2.6
			l0,0.7c-2-1-3.3-2.8-4.2-4.8c-0.8-1.9-1.2-4-1.3-6.1c-0.1-2.1,0.1-4.2,0.4-6.2C131.4,49,131.9,46.9,132.5,44.9L132.5,44.9z
			 M132.5,45c-0.5,2-1,4-1.3,6c-0.3,2-0.4,4.1-0.3,6.2c0.2,2,0.6,4.1,1.5,5.9c0.4,0.9,1,1.8,1.6,2.5c0.7,0.7,1.5,1.4,2.3,1.8
			l0.7,0.3l-0.7,0.4c-2.2,1.2-4.4,2.2-6.9,2.8c-2.4,0.6-5.1,0.7-7.5-0.5c-2.4-1.2-3.8-3.6-4.7-5.8c-0.9-2.3-1.4-4.8-2.1-7l0,0.1
			c-0.3-0.6-0.6-1.2-1-1.7c-0.4-0.5-0.9-0.9-1.3-0.9c-0.4,0-0.9,0.4-1.3,1c-0.4,0.5-0.7,1.2-0.9,1.8l-0.1,0.3l-0.3,0
			c-4.7,0-9.4-1.2-13.5-3.5c-4.1-2.3-7.5-5.8-9.3-10.2c-1.8-4.3-1.7-9.4,0.3-13.6c1.9-4.3,5.4-7.7,9.5-9.9c4.1-2.2,8.8-3.4,13.5-3.3
			c2.3,0,4.7,0.3,6.9,0.9c2.3,0.6,4.4,1.5,6.5,2.7c4,2.4,7.4,6,9,10.4c0.8,2.2,1.2,4.5,1.1,6.8C134.2,40.6,133.6,42.9,132.5,45
			L132.5,45z"/>
	</g>
	<ellipse class="st2" cx="78.7" cy="170.9" rx="38.6" ry="3.4"/>
	<path class="st0" d="M119.2,48.9c0-3.8-6.3-7.5-11.3-5c-4.3,2.6-6.8,7-7.2,11.9c2.9,1.1,6.2,1.7,9.6,1.7c0,0,2.3-6.8,5.5-0.2
		c1.7,5.4,2.9,18.3,17.9,11.7C125.8,66.5,119.8,60.2,119.2,48.9z"/>
	<g>
		<defs>
			<path id="SVGID_1_" d="M132.5,45C132.5,45,132.5,45,132.5,45c1.1-2.3,1.7-4.7,1.7-7.3c0-10.9-10.7-19.8-23.9-19.8
				c-13.2,0-23.9,8.9-23.9,19.8c0,10.9,10.7,19.8,23.9,19.8c0,0,2.3-6.8,5.5-0.2c1.8,5.7,3,19.7,20.5,10.4
				C136.3,67.7,127.2,64.2,132.5,45z"/>
		</defs>
		<clipPath id="SVGID_2_">
			<use xlink:href="#SVGID_1_"  style="overflow:visible;"/>
		</clipPath>
		<g class="st4">
			<g>
				<path d="M112.2,56.9c-3.5,0.3-6.9-0.7-10-2.3c-3.1-1.6-5.7-4.1-7.8-6.8c-2.1-2.8-3.8-5.9-5-9.1c-1.3-3.2-2.2-6.6-2.8-10
					c0.8,3.3,1.9,6.6,3.2,9.8c1.3,3.2,3,6.2,5.1,8.9c2.1,2.7,4.6,5.1,7.6,6.8c1.5,0.8,3.1,1.5,4.7,2
					C108.7,56.7,110.4,56.9,112.2,56.9z"/>
			</g>
			<g>
				<path d="M112.7,56c-3.5-0.2-6.8-1.5-9.7-3.5c-2.9-2-5.2-4.7-7-7.7c-1.8-3-3-6.3-3.9-9.6c-0.9-3.4-1.4-6.8-1.6-10.2
					c0.4,3.4,1.1,6.8,2,10.1c1,3.3,2.2,6.5,4,9.5c1.7,2.9,4,5.6,6.8,7.6c1.4,1,2.9,1.9,4.5,2.5C109.3,55.3,111,55.8,112.7,56z"/>
			</g>
			<g>
				<path d="M113.1,55.7c-3.6-0.6-6.8-2.7-9.3-5.2c-2.5-2.6-4.4-5.8-5.6-9.2c-1.2-3.4-2-7-2.3-10.6c-0.3-3.6-0.3-7.2,0-10.8
					c-0.1,3.6,0,7.2,0.4,10.7c0.4,3.6,1.1,7.1,2.4,10.4c1.2,3.3,3,6.5,5.4,9.1c1.2,1.3,2.6,2.5,4.1,3.4
					C109.7,54.5,111.3,55.3,113.1,55.7z"/>
			</g>
			<g>
				<path d="M114.3,55.9c-3.4-1.2-6.3-3.7-8.4-6.6c-2.1-3-3.4-6.4-4.1-10c-0.7-3.6-0.8-7.2-0.6-10.8c0.2-3.6,0.8-7.2,1.7-10.7
					c-0.7,3.5-1.1,7.1-1.3,10.7c-0.2,3.6,0,7.2,0.7,10.7c0.7,3.5,2,6.9,3.9,9.9c1,1.5,2.2,2.8,3.5,4
					C111.2,54.2,112.7,55.3,114.3,55.9z"/>
			</g>
			<g>
				<path d="M115.6,56.2c-3.2-1.6-5.8-4.4-7.5-7.6c-1.7-3.2-2.6-6.8-2.9-10.4c-0.3-3.6,0-7.2,0.7-10.8c0.7-3.5,1.7-7,2.9-10.4
					c-1.1,3.4-2,6.9-2.6,10.4c-0.6,3.5-0.9,7.1-0.6,10.7c0.3,3.6,1.1,7.1,2.7,10.3c0.8,1.6,1.8,3.1,3,4.4
					C112.6,54.2,114,55.4,115.6,56.2z"/>
			</g>
			<g>
				<path d="M116,56.5c-2.9-2.1-4.9-5.4-6.1-8.8c-1.1-3.5-1.4-7.2-1-10.7c0.4-3.6,1.3-7.1,2.6-10.5c1.3-3.4,2.9-6.6,4.7-9.7
					c-1.7,3.2-3.2,6.5-4.4,9.8c-1.2,3.4-2.1,6.9-2.5,10.4c-0.4,3.5-0.2,7.2,0.9,10.6c0.5,1.7,1.3,3.3,2.2,4.9
					C113.4,54,114.5,55.4,116,56.5z"/>
			</g>
			<g>
				<path d="M114.7,56.1c-2.3-2.8-3.4-6.4-3.7-10c-0.3-3.6,0.4-7.3,1.7-10.7c1.3-3.4,3-6.6,5.1-9.5c2.1-3,4.4-5.7,7-8.2
					c-2.4,2.7-4.7,5.5-6.7,8.4c-2,3-3.7,6.1-4.9,9.5c-1.2,3.3-1.9,6.9-1.7,10.5c0.1,1.8,0.4,3.6,0.9,5.3
					C112.8,53,113.6,54.7,114.7,56.1z"/>
			</g>
			<g>
				<path d="M115.3,57.4c-1.9-3.1-2.5-6.8-2.3-10.4c0.3-3.6,1.5-7.1,3.1-10.3c1.7-3.2,3.9-6.1,6.4-8.7c2.5-2.6,5.2-5,8.1-7.2
					c-2.7,2.3-5.4,4.8-7.8,7.4c-2.4,2.7-4.6,5.5-6.2,8.7c-1.7,3.1-2.9,6.6-3.2,10.1c-0.2,1.8-0.1,3.6,0.2,5.3
					C113.9,54.1,114.4,55.9,115.3,57.4z"/>
			</g>
			<g>
				<path d="M115.2,58.3c-1.3-3.4-1.3-7.2-0.5-10.7c0.9-3.5,2.6-6.8,4.8-9.7c2.2-2.9,4.9-5.3,7.8-7.5c2.9-2.2,6-4.1,9.1-5.7
					c-3.1,1.8-6.1,3.8-8.9,6c-2.8,2.2-5.4,4.7-7.6,7.5c-2.2,2.8-3.9,6-4.9,9.4c-0.5,1.7-0.7,3.5-0.7,5.3
					C114.3,54.8,114.6,56.6,115.2,58.3z"/>
			</g>
			<g>
				<path d="M114.7,59.3c-0.8-3.5-0.2-7.3,1.2-10.6c1.4-3.4,3.7-6.3,6.3-8.8c2.7-2.5,5.7-4.5,8.8-6.2c3.2-1.7,6.5-3.1,9.9-4.2
					c-3.3,1.3-6.6,2.8-9.7,4.6c-3.1,1.8-6.1,3.8-8.7,6.3c-2.6,2.4-4.8,5.3-6.3,8.6c-0.7,1.6-1.2,3.3-1.5,5.1
					C114.4,55.7,114.3,57.5,114.7,59.3z"/>
			</g>
			<g>
				<path d="M113.9,60.6c-0.3-3.6,0.8-7.2,2.6-10.3c1.8-3.1,4.5-5.7,7.4-7.8c3-2.1,6.2-3.7,9.6-5c3.4-1.3,6.9-2.2,10.4-2.8
					c-3.5,0.8-6.9,1.9-10.3,3.2c-3.3,1.3-6.5,2.9-9.4,5c-2.9,2-5.5,4.6-7.4,7.6c-0.9,1.5-1.7,3.1-2.2,4.9
					C114.2,57,113.8,58.8,113.9,60.6z"/>
			</g>
			<g>
				<path d="M112.7,62.8c0.1-3.6,1.5-7.1,3.7-10c2.2-2.9,5-5.2,8.2-7c3.2-1.8,6.6-3.1,10.1-4c3.5-0.9,7.1-1.5,10.6-1.8
					c-3.6,0.5-7.1,1.2-10.5,2.1c-3.4,1-6.8,2.2-9.9,4c-3.1,1.7-5.9,4-8.1,6.8c-1.1,1.4-2,3-2.7,4.6C113.3,59.3,112.8,61,112.7,62.8z
					"/>
			</g>
			<g>
				<path d="M112.1,62.5c0.7-3.5,2.8-6.7,5.4-9.2c2.6-2.5,5.9-4.3,9.3-5.5c3.4-1.2,7-1.8,10.6-2.1c3.6-0.3,7.2-0.2,10.8,0.2
					c-3.6-0.2-7.2-0.1-10.8,0.2c-3.6,0.3-7.1,1-10.5,2.2c-3.4,1.2-6.6,2.9-9.2,5.3c-1.3,1.2-2.5,2.6-3.5,4.1
					C113.3,59.1,112.5,60.8,112.1,62.5z"/>
			</g>
			<g>
				<path d="M111.1,63.1c1.2-3.4,3.7-6.3,6.7-8.3c3-2.1,6.5-3.4,10-4.1c3.6-0.7,7.2-0.8,10.8-0.5c3.6,0.3,7.2,0.9,10.6,1.7
					c-3.5-0.7-7.1-1.2-10.7-1.4c-3.6-0.2-7.2-0.1-10.7,0.6c-3.5,0.7-6.9,1.9-9.9,3.9c-1.5,1-2.8,2.2-4,3.5
					C112.8,60,111.8,61.4,111.1,63.1z"/>
			</g>
			<g>
				<path d="M110.5,63.1c1.7-3.2,4.6-5.6,7.8-7.2c3.3-1.6,6.9-2.4,10.5-2.5c3.6-0.1,7.2,0.3,10.8,1.1c3.5,0.8,6.9,1.9,10.3,3.3
					c-3.4-1.2-6.8-2.2-10.3-2.9c-3.5-0.7-7.1-1.1-10.7-1c-3.6,0.1-7.1,0.9-10.3,2.4c-1.6,0.8-3.1,1.7-4.5,2.9
					C112.6,60.2,111.4,61.5,110.5,63.1z"/>
			</g>
			<g>
				<path d="M110.3,64.8c1.9-3,5-5.3,8.4-6.6c3.4-1.4,7-1.9,10.7-1.8c3.6,0.1,7.2,0.8,10.6,1.9c3.5,1,6.8,2.4,10,4.1
					c-3.3-1.4-6.7-2.7-10.1-3.7c-3.4-1-7-1.6-10.6-1.7c-3.6-0.1-7.2,0.3-10.5,1.6c-1.7,0.6-3.3,1.5-4.7,2.5
					C112.7,62.1,111.3,63.3,110.3,64.8z"/>
			</g>
			<g>
				<path d="M111,69.4c1.5-3.3,4.3-5.9,7.4-7.6c3.2-1.8,6.8-2.7,10.3-3.1c3.6-0.3,7.2-0.1,10.8,0.5c3.6,0.6,7,1.6,10.4,2.8
					c-3.4-1-6.9-1.9-10.5-2.4c-3.5-0.5-7.1-0.7-10.7-0.4c-3.5,0.3-7.1,1.2-10.2,2.9c-1.6,0.8-3,1.9-4.3,3.1
					C113,66.4,111.9,67.8,111,69.4z"/>
			</g>
			<g>
				<path d="M112.4,72.6c1.4-3.3,4-6.1,7-8c3.1-2,6.6-3.1,10.2-3.6c3.6-0.5,7.2-0.5,10.8-0.1c3.6,0.4,7.1,1.2,10.6,2.2
					c-3.5-0.8-7-1.5-10.6-1.8c-3.6-0.3-7.2-0.4-10.7,0.2c-3.5,0.5-7,1.6-10,3.5c-1.5,0.9-2.9,2-4.2,3.3
					C114.2,69.5,113.1,70.9,112.4,72.6z"/>
			</g>
			<g>
				<path d="M113.7,76.5c1-3.5,3.4-6.5,6.2-8.7c2.9-2.3,6.3-3.7,9.8-4.6c3.5-0.9,7.1-1.2,10.7-1.1c3.6,0,7.2,0.5,10.7,1.1
					c-3.6-0.5-7.1-0.8-10.7-0.8c-3.6,0-7.2,0.4-10.6,1.2c-3.5,0.9-6.8,2.3-9.6,4.4c-1.4,1.1-2.7,2.3-3.8,3.7
					C115.2,73.3,114.2,74.8,113.7,76.5z"/>
			</g>
			<g>
				<path d="M116.4,80c0.6-3.6,2.6-6.8,5.2-9.3c2.6-2.6,5.8-4.4,9.2-5.7c3.4-1.3,7-2,10.6-2.3c3.6-0.4,7.2-0.3,10.8-0.1
					c-3.6-0.1-7.2,0-10.7,0.5c-3.6,0.4-7.1,1.2-10.4,2.4c-3.3,1.2-6.5,3-9.1,5.5c-1.3,1.2-2.4,2.6-3.4,4.1
					C117.6,76.6,116.8,78.2,116.4,80z"/>
			</g>
			<g>
				<path d="M118.6,81.3c0.6-3.6,2.6-6.8,5.2-9.3c2.6-2.6,5.8-4.4,9.2-5.7c3.4-1.3,7-2,10.5-2.3c3.6-0.4,7.2-0.3,10.8-0.1
					c-3.6-0.1-7.2,0-10.7,0.5c-3.6,0.4-7.1,1.2-10.4,2.4c-3.3,1.2-6.5,3-9.1,5.5c-1.3,1.2-2.4,2.6-3.4,4.1
					C119.7,77.9,118.9,79.6,118.6,81.3z"/>
			</g>
		</g>
	</g>
	<path class="st7" d="M41.4,64.3c12.2-6,18.1-19,13.2-29.2c-1-2-2.4-3.8-4-5.3c-21.8,6.9-24.8,33.8-17.7,52.9c0,0.4,0.3,0.6,0.9,0.6
		c6.1-4,3.2-12.3,2.5-16.7C36.2,59,41.4,64.3,41.4,64.3z"/>
	<g>
		<path class="st3" d="M12.7,62.8C12.7,62.8,12.7,62.8,12.7,62.8c-2-1.6-3.7-3.6-4.9-6C2.9,46.6,8.8,33.6,21,27.6
			c12.2-6,26.2-2.6,31.1,7.5c5,10.1-0.9,23.2-13.2,29.2c0,0-5.2-5.2-5.2,2.3c0.9,6.1,6.2,19.6-14.3,18.9
			C19.5,85.6,26.4,78.1,12.7,62.8z"/>
		<path d="M12.7,62.8L12.7,62.8L12.7,62.8c-1.9-1.5-3.5-3.3-4.7-5.4c-1.1-2.1-1.9-4.4-2.1-6.8c-0.5-4.8,1-9.7,3.7-13.7
			c1.3-2,2.9-3.8,4.8-5.4c1.8-1.6,3.9-2.9,6-4c4.3-2.2,9.2-3.2,14-3c4.8,0.2,9.6,1.8,13.3,4.9c3.7,3,6.1,7.7,6.4,12.5
			c0.3,4.8-1.3,9.7-4,13.6c-2.7,4-6.6,7.2-10.9,9.3l-0.3,0.1l-0.3-0.2c-0.5-0.5-1.1-0.9-1.6-1.2c-0.6-0.3-1.2-0.5-1.7-0.3
			c-0.4,0.2-0.7,0.8-0.8,1.4c-0.1,0.7-0.2,1.4-0.2,2.1l0-0.1c0.4,2.4,1.1,4.9,1.2,7.5c0.1,1.3,0.1,2.6-0.2,3.9
			c-0.3,1.3-0.7,2.6-1.5,3.7c-1.6,2.2-4.2,3.4-6.7,3.9c-2.5,0.5-5.1,0.6-7.6,0.5l-0.8,0l0.5-0.6c0.6-0.7,1.1-1.7,1.3-2.7
			c0.3-1,0.4-2,0.4-3.1c0-2.1-0.6-4.2-1.3-6.1c-0.8-2-1.8-3.8-3-5.6C15.4,66.1,14.1,64.4,12.7,62.8z M12.8,62.7c1.4,1.6,2.8,3.2,4,5
			c1.2,1.8,2.3,3.6,3.2,5.6c0.9,2,1.5,4.1,1.6,6.2c0.1,2.2-0.3,4.4-1.7,6.3l-0.3-0.6c2.5,0,5-0.1,7.4-0.7c2.4-0.6,4.7-1.6,6.1-3.6
			c1.4-1.9,1.7-4.5,1.5-6.9c-0.2-2.5-0.8-4.9-1.2-7.4l0,0v0c0-0.8,0-1.5,0.2-2.3c0.1-0.4,0.2-0.8,0.4-1.2c0.2-0.4,0.5-0.8,1-1
			c0.5-0.2,1-0.2,1.4-0.1c0.4,0.1,0.8,0.3,1.1,0.5c0.7,0.4,1.3,0.9,1.9,1.4l-0.6-0.1c4.2-2,8-5.1,10.7-8.9c2.7-3.8,4.4-8.5,4.2-13.2
			c-0.2-4.7-2.5-9.3-6.1-12.3c-3.7-3-8.4-4.5-13.1-4.6c-9.5-0.2-18.7,4.7-24.1,12.4c-2.6,3.8-4.3,8.5-4,13.3
			c0.1,2.3,0.8,4.7,1.9,6.8C9.3,59.4,10.9,61.2,12.8,62.7L12.8,62.7L12.8,62.7L12.8,62.7z"/>
	</g>
	<path class="st0" d="M52.1,35.1c-2-4.1-5.4-7-9.6-8.7c4.9,9.5,7,21.2,0.4,30c-2.5,3.8-11.3-2.5-12.5,1.3
		c-2.9,7.9,1.8,21.9-4.5,27.5c12.8-2.2,8.7-13.3,7.9-18.6c-0.1-7.6,5.2-2.3,5.2-2.3C51.2,58.3,57.1,45.2,52.1,35.1z"/>
	<g>
		<defs>
			<path id="SVGID_3_" d="M12.7,62.8C12.7,62.8,12.7,62.8,12.7,62.8c-2-1.6-3.7-3.6-4.9-6C2.9,46.6,8.8,33.6,21,27.6
				c12.2-6,26.2-2.6,31.1,7.5c5,10.1-0.9,23.2-13.2,29.2c0,0-5.2-5.2-5.2,2.3c0.9,6.1,6.2,19.6-14.3,18.9
				C19.5,85.6,26.4,78.1,12.7,62.8z"/>
		</defs>
		<clipPath id="SVGID_4_">
			<use xlink:href="#SVGID_3_"  style="overflow:visible;"/>
		</clipPath>
		<g class="st5">
			<g>
				<path d="M37,64.6c1.6-0.7,3.1-1.8,4.4-2.9c1.3-1.2,2.5-2.5,3.5-4c2-2.9,3.3-6.3,4-9.7c0.7-3.5,0.9-7,0.7-10.6
					c-0.2-3.5-0.7-7.1-1.5-10.5c0.9,3.4,1.6,7,1.9,10.5c0.3,3.6,0.1,7.2-0.6,10.7c-0.7,3.5-2.1,6.9-4.2,9.8
					C43.1,60.8,40.3,63.2,37,64.6z"/>
			</g>
			<g>
				<path d="M36.1,64c1.5-0.9,2.9-2.1,4-3.4c1.2-1.3,2.2-2.8,3-4.4c1.6-3.1,2.5-6.6,2.8-10.1c0.3-3.5,0-7.1-0.6-10.6
					c-0.6-3.5-1.6-6.9-2.7-10.3c1.3,3.3,2.4,6.7,3.1,10.2c0.7,3.5,1,7.1,0.7,10.7c-0.3,3.6-1.2,7.1-3,10.3
					C41.7,59.5,39.2,62.2,36.1,64z"/>
			</g>
			<g>
				<path d="M35.6,63.8c1.5-1.1,2.6-2.6,3.6-4.2c1-1.6,1.7-3.3,2.3-5c1.1-3.5,1.3-7.3,0.9-10.9c-0.4-3.7-1.3-7.3-2.5-10.7
					c-1.2-3.5-2.8-6.9-4.5-10.1c1.9,3.2,3.6,6.5,4.9,10c1.3,3.5,2.3,7.1,2.7,10.8c0.4,3.7,0.1,7.5-1.1,11.1
					C40.7,58.3,38.6,61.6,35.6,63.8z"/>
			</g>
			<g>
				<path d="M34.5,64.7c1.3-1.4,2.2-3,2.9-4.7c0.7-1.7,1.2-3.5,1.5-5.3c0.5-3.6,0.2-7.4-0.8-10.9c-0.9-3.6-2.4-7-4.2-10.2
					c-1.8-3.2-3.8-6.3-6-9.3c2.4,2.9,4.5,5.9,6.4,9.1c1.8,3.2,3.4,6.7,4.3,10.3c0.9,3.6,1.3,7.4,0.7,11.1
					C38.7,58.4,37.1,62,34.5,64.7z"/>
			</g>
			<g>
				<path d="M33.5,65.5c1.1-1.5,1.8-3.2,2.3-5c0.5-1.8,0.8-3.6,0.8-5.4c0.1-3.7-0.7-7.3-2.1-10.8c-1.3-3.4-3.2-6.6-5.4-9.6
					c-2.1-3-4.6-5.8-7.1-8.5c2.7,2.6,5.2,5.3,7.4,8.3c2.2,3,4.1,6.2,5.5,9.7c1.4,3.5,2.2,7.2,2,10.9C36.9,58.8,35.8,62.5,33.5,65.5z
					"/>
			</g>
			<g>
				<path d="M33.3,65.9c0.8-1.7,1.2-3.5,1.4-5.3c0.2-1.8,0.1-3.7-0.2-5.5c-0.6-3.6-2-7.1-4-10.2c-1.9-3.1-4.4-6-7-8.5
					c-2.6-2.6-5.5-4.9-8.5-7.1c3.1,2,6.1,4.3,8.8,6.8c2.7,2.5,5.2,5.4,7.2,8.5c1.9,3.2,3.4,6.7,3.9,10.4
					C35.4,58.7,35,62.6,33.3,65.9z"/>
			</g>
			<g>
				<path d="M34.3,65c0.4-1.8,0.3-3.7,0-5.5c-0.3-1.8-0.8-3.6-1.5-5.3c-1.5-3.4-3.7-6.4-6.4-8.9c-2.6-2.6-5.7-4.7-8.9-6.5
					c-3.2-1.8-6.6-3.4-10-4.8c3.5,1.2,6.9,2.7,10.2,4.5c3.3,1.8,6.3,3.9,9,6.5c2.7,2.6,5,5.7,6.4,9.1C34.6,57.5,35.1,61.4,34.3,65z"
					/>
			</g>
			<g>
				<path d="M34.4,66.5c0.1-1.9-0.2-3.7-0.7-5.5c-0.5-1.8-1.3-3.5-2.2-5c-1.9-3.1-4.6-5.8-7.5-7.9c-3-2.2-6.3-3.9-9.7-5.2
					c-3.4-1.4-7-2.5-10.6-3.4c3.6,0.7,7.2,1.7,10.7,3c3.5,1.3,6.8,3,9.9,5.2c3,2.2,5.7,4.9,7.6,8.1C33.6,59,34.7,62.8,34.4,66.5z"/>
			</g>
			<g>
				<path d="M34.8,67.3c-0.2-1.8-0.8-3.6-1.6-5.3c-0.8-1.7-1.8-3.2-3-4.6c-2.4-2.8-5.5-5-8.8-6.6c-3.3-1.6-6.9-2.7-10.5-3.5
					c-3.6-0.8-7.3-1.3-11-1.5c3.7,0.1,7.4,0.4,11.1,1.2c3.6,0.7,7.2,1.8,10.6,3.5c3.3,1.7,6.5,3.9,8.8,6.8
					C32.8,60,34.5,63.5,34.8,67.3z"/>
			</g>
			<g>
				<path d="M35.7,67.9c-0.5-1.8-1.4-3.4-2.4-4.9c-1.1-1.5-2.3-2.9-3.7-4.1c-2.8-2.4-6.2-4-9.7-5.1c-3.5-1.1-7.2-1.6-10.9-1.9
					c-3.7-0.2-7.4-0.1-11.1,0.2c3.7-0.5,7.4-0.7,11.1-0.6c3.7,0.1,7.4,0.7,11,1.8c3.6,1.1,7,2.8,9.8,5.3
					C32.6,61.1,34.9,64.3,35.7,67.9z"/>
			</g>
			<g>
				<path d="M37,68.8c-0.7-1.7-1.8-3.2-3.1-4.6c-1.2-1.4-2.7-2.5-4.2-3.5c-3.1-2-6.7-3.2-10.3-3.7c-3.6-0.6-7.4-0.6-11-0.4
					c-3.7,0.3-7.3,0.9-11,1.7c3.6-1,7.2-1.7,10.9-2.1c3.7-0.4,7.5-0.3,11.1,0.2c3.7,0.6,7.3,1.8,10.4,3.9C33,62.5,35.7,65.3,37,68.8
					z"/>
			</g>
			<g>
				<path d="M39.2,70.3c-0.9-1.6-2.2-3-3.5-4.2c-1.4-1.2-2.9-2.2-4.6-3.1c-3.3-1.6-7-2.5-10.6-2.7c-3.7-0.2-7.4,0.1-11,0.8
					c-3.6,0.7-7.2,1.6-10.7,2.8c3.5-1.3,7-2.5,10.7-3.2c3.6-0.7,7.4-1.1,11.1-0.9c3.7,0.2,7.4,1.1,10.8,2.8
					C34.5,64.4,37.5,67,39.2,70.3z"/>
			</g>
			<g>
				<path d="M39.6,69.8c-1.2-1.4-2.7-2.6-4.2-3.5c-1.6-1-3.3-1.7-5-2.2c-3.5-1-7.3-1.2-10.9-0.7c-3.7,0.4-7.2,1.4-10.7,2.7
					c-3.5,1.3-6.8,2.9-10.1,4.7c3.2-1.9,6.5-3.7,9.9-5c3.5-1.4,7.1-2.4,10.8-2.9c3.7-0.4,7.5-0.3,11.1,0.9
					C33.9,64.8,37.3,66.8,39.6,69.8z"/>
			</g>
			<g>
				<path d="M40.8,69.9c-1.4-1.3-3-2.2-4.7-2.9c-1.7-0.7-3.5-1.2-5.3-1.4c-3.6-0.5-7.4-0.1-10.9,0.9c-3.6,0.9-7,2.5-10.2,4.2
					c-3.2,1.8-6.3,3.9-9.3,6.1c2.8-2.4,5.9-4.6,9.1-6.4c3.2-1.9,6.6-3.4,10.2-4.4c3.6-1,7.4-1.3,11.1-0.8
					C34.5,65.8,38.1,67.3,40.8,69.9z"/>
			</g>
			<g>
				<path d="M41.3,69.5c-1.5-1-3.3-1.7-5.1-2.1c-1.8-0.5-3.6-0.7-5.5-0.6c-3.7,0.1-7.3,1-10.7,2.5c-3.4,1.5-6.5,3.5-9.4,5.7
					c-2.9,2.3-5.7,4.8-8.3,7.4c2.5-2.8,5.1-5.4,8-7.7c2.9-2.3,6.1-4.4,9.5-5.9c3.4-1.5,7.1-2.4,10.9-2.4
					C34.5,66.4,38.3,67.4,41.3,69.5z"/>
			</g>
			<g>
				<path d="M42.3,71.1c-1.6-0.9-3.4-1.5-5.2-1.8c-1.8-0.3-3.7-0.4-5.5-0.2c-3.7,0.3-7.2,1.5-10.5,3.3c-3.3,1.7-6.2,3.9-9,6.4
					c-2.8,2.5-5.3,5.2-7.7,8c2.2-2.9,4.7-5.8,7.4-8.3c2.7-2.5,5.7-4.8,9-6.6c3.3-1.7,6.9-3,10.7-3.2C35.2,68.5,39.1,69.2,42.3,71.1z
					"/>
			</g>
			<g>
				<path d="M43.7,75.6c-1.5-1.1-3.2-1.9-5-2.4c-1.8-0.5-3.6-0.8-5.4-0.9c-3.7-0.1-7.4,0.6-10.8,1.9c-3.5,1.3-6.7,3.1-9.7,5.2
					c-3,2.1-5.9,4.5-8.6,7c2.6-2.6,5.4-5.1,8.4-7.3c3-2.2,6.3-4,9.8-5.4c3.5-1.3,7.2-2.1,11-1.8C37,72.2,40.8,73.3,43.7,75.6z"/>
			</g>
			<g>
				<path d="M43.9,79.2c-1.4-1.2-3.1-2-4.8-2.7c-1.7-0.6-3.5-1-5.4-1.2c-3.7-0.3-7.4,0.2-10.9,1.3c-3.5,1.1-6.8,2.8-10,4.7
					c-3.2,1.9-6.1,4.1-9,6.5c2.7-2.5,5.7-4.8,8.8-6.8c3.1-2,6.5-3.7,10-4.8c3.6-1.1,7.3-1.7,11.1-1.2C37.4,75.4,41.1,76.7,43.9,79.2
					z"/>
			</g>
			<g>
				<path d="M44.5,83.4c-1.3-1.3-2.9-2.3-4.5-3.1c-1.7-0.8-3.4-1.4-5.2-1.7c-3.6-0.7-7.4-0.5-11,0.3c-3.6,0.7-7.1,2.1-10.4,3.7
					C10,84.1,6.8,86,3.8,88.1c3-2.2,6.1-4.2,9.4-5.9c3.3-1.7,6.8-3,10.5-3.8c3.6-0.8,7.5-0.9,11.1-0.1C38.4,79,42,80.7,44.5,83.4z"
					/>
			</g>
			<g>
				<path d="M43.5,87.9c-1.1-1.5-2.6-2.6-4.2-3.6c-1.6-1-3.2-1.8-5-2.3c-3.5-1.1-7.3-1.4-10.9-1c-3.7,0.3-7.3,1.3-10.8,2.5
					c-3.5,1.2-6.9,2.8-10.2,4.5c3.2-1.9,6.5-3.5,10-4.8c3.5-1.3,7.1-2.2,10.8-2.6c3.7-0.3,7.5-0.1,11.1,1.1
					C38,82.8,41.3,84.9,43.5,87.9z"/>
			</g>
			<g>
				<path d="M42.1,90.1c-1.1-1.5-2.6-2.6-4.2-3.6c-1.6-1-3.2-1.8-5-2.3c-3.5-1.1-7.3-1.4-10.9-1c-3.7,0.3-7.3,1.3-10.8,2.5
					c-3.5,1.2-6.9,2.7-10.2,4.5c3.2-1.9,6.5-3.5,10-4.8c3.5-1.3,7.1-2.2,10.8-2.6c3.7-0.3,7.5-0.1,11.1,1.1
					C36.6,85,39.9,87.1,42.1,90.1z"/>
			</g>
		</g>
	</g>
	<rect x="68.7" y="172.8" class="st8" width="0" height="0"/>
	<g>
		<path d="M98.1,100.3c-0.1,0.9-0.4,1.8-1,2.5c-0.3,0.4-0.8,0.6-1.3,0.7c-0.5,0.1-1,0-1.5-0.2l0.4-0.6c0.1,0.2,0.3,0.4,0.4,0.6
			c0,0.1,0.1,0.3,0,0.5c0,0.2-0.2,0.4-0.4,0.5c-0.6,0.2-1,0.1-1.4,0c-0.8-0.2-1.5-0.4-2.2-0.7c-0.7-0.3-1.3-0.3-1.9-0.2
			c-0.6,0.2-1.2,0.6-1.8,1c-0.6,0.4-1.3,0.9-2,1.3c-0.8,0.3-1.6,0.4-2.4,0.3c-1.6-0.3-3-1.1-4.2-2.1c1.4,0.7,2.8,1.3,4.2,1.4
			c1.5,0.1,2.7-0.7,3.8-1.7c0.6-0.5,1.3-1,2.1-1.2c0.9-0.3,1.8-0.1,2.6,0.2c0.7,0.3,1.4,0.6,2.1,0.8c0.3,0.1,0.7,0.1,0.9,0.1
			c0,0,0,0,0,0.1c0,0,0,0,0-0.1c0-0.1-0.1-0.3-0.2-0.4l-0.7-1.1l1.2,0.6c0.4,0.2,0.7,0.3,1.1,0.3c0.4,0,0.7-0.2,1-0.4
			C97.4,101.9,97.8,101.1,98.1,100.3z"/>
	</g>
	<g>
		<path d="M52.9,124.9c0.7-1.3,1.6-2.4,2.6-3.5c1-1.1,2.2-2.1,3.6-2.7l0,0.9c-0.3-0.1-0.6-0.2-0.9-0.4c-0.3-0.2-0.6-0.4-0.9-0.7
			c-0.1-0.2-0.3-0.4-0.3-0.7c0-0.3,0.2-0.6,0.3-0.8c0.3-0.3,0.7-0.5,1-0.6l-0.2,0.7c-0.2-0.3-0.4-0.7-0.6-1.1
			c-0.1-0.4-0.3-0.8-0.2-1.3c0-0.5,0.3-1,0.7-1.2c0.4-0.3,0.8-0.4,1.2-0.4l-0.3,0.5c-0.1-1.1,0-2.1,0.3-3.2c0.2-0.5,0.4-1,0.8-1.4
			c0.4-0.4,0.9-0.6,1.5-0.6c-0.5,0.1-1,0.4-1.2,0.8c-0.3,0.4-0.4,0.9-0.5,1.3c-0.2,1-0.1,2,0,2.9l0.1,0.4l-0.4,0.1
			c-0.3,0.1-0.6,0.2-0.8,0.3c-0.2,0.2-0.3,0.3-0.3,0.6c0,0.5,0.3,1.2,0.6,1.7l0.4,0.5l-0.6,0.2c-0.3,0.1-0.5,0.3-0.6,0.4
			c-0.1,0.1-0.1,0.1-0.1,0.1c0,0,0,0.1,0.1,0.1c0.1,0.2,0.4,0.3,0.6,0.5s0.5,0.3,0.8,0.4l1.1,0.5l-1.1,0.4c-1.3,0.5-2.4,1.3-3.5,2.3
			C54.9,122.8,53.9,123.8,52.9,124.9z"/>
	</g>
	<g>
		<path d="M95.7,109c0.5,0.2,1,0.5,1.5,0.9c0.5,0.3,0.9,0.7,1.3,1.2c0.4,0.5,0.7,1,0.9,1.6c0.2,0.6,0.1,1.3-0.2,1.9l-0.1-0.5
			c0.7,0.5,1.4,1.1,2,1.8c0.3,0.4,0.5,0.7,0.7,1.2c0.2,0.5,0.3,1,0.1,1.6c-0.1,0.5-0.6,0.9-0.8,1.2l0,0.1c0,0,0,0,0,0
			c0,0,0.1-0.2-0.1-0.4c-0.2-0.1-0.2-0.1-0.2-0.1c0,0,0,0,0,0l0.1,0c0.2,0,0.4-0.1,0.7-0.1c0.1,0,0.3,0,0.6,0.1
			c0.2,0.1,0.3,0.4,0.4,0.6c0,0.4,0,0.6-0.1,0.8c-0.1,0.5-0.3,0.8-0.5,1.2l-0.2-0.5c0.6,0.4,0.8,0.9,1.1,1.5
			c0.2,0.5,0.2,1.1,0.2,1.7c-0.1,1.1-0.4,2.1-0.9,3.1c0.3-1,0.5-2.1,0.4-3.1c0-0.5-0.1-1-0.3-1.4c-0.2-0.4-0.5-0.8-0.8-1l-0.3-0.2
			l0.1-0.3c0.2-0.4,0.3-0.8,0.4-1.1c0-0.2,0.1-0.4,0-0.4c0,0,0,0,0,0.1c0,0,0,0,0,0c-0.1,0-0.3,0.1-0.5,0.1l-0.2,0c0,0-0.1,0-0.2,0
			c-0.1,0-0.2,0-0.4-0.1c-0.2-0.2-0.2-0.5-0.2-0.5c0-0.1,0-0.1,0.1-0.2c0-0.1,0.1-0.1,0.1-0.2c0.3-0.4,0.5-0.6,0.6-0.9
			c0.2-0.6-0.1-1.3-0.6-1.9c-0.5-0.6-1.1-1.2-1.7-1.7l-0.3-0.2l0.2-0.3c0.2-0.4,0.3-0.9,0.2-1.4c-0.1-0.5-0.3-1-0.6-1.4
			C97.5,110.5,96.7,109.7,95.7,109z"/>
	</g>
</g>
</svg>
