<?xml version="1.0" encoding="utf-8"?>
<!-- Generator: Adobe Illustrator 15.1.0, SVG Export Plug-In . SVG Version: 6.00 Build 0)  -->
<!DOCTYPE svg PUBLIC "-//W3C//DTD SVG 1.1//EN" "http://www.w3.org/Graphics/SVG/1.1/DTD/svg11.dtd">
<svg version="1.1" id="animals" xmlns="http://www.w3.org/2000/svg" xmlns:xlink="http://www.w3.org/1999/xlink" x="0px" y="0px"
	 width="148px" height="187px" viewBox="0 0 148 187" style="enable-background:new 0 0 148 187;" xml:space="preserve">
<style type="text/css">
<![CDATA[
	.st0{fill:#7F563B;}
	.st1{opacity:0.48;fill:#BC9A79;}
	.st2{opacity:0.43;}
	.st3{fill:#EFBA6C;}
	.st4{fill:#F9D3AA;}
	.st5{fill:#934600;}
	.st6{fill:#FFCE00;}
	.st7{fill:#FFFFFF;}
	.st8{fill:#63340A;}
	.st9{opacity:0.23;fill:#4C2706;}
	.st10{opacity:0.47;fill:#FFA6A6;}
	.st11{fill:#3A1E01;}
	.st12{fill:#A05408;}
	.st13{opacity:0.48;fill:#4C2706;}
]]>
</style>
<g>
	<ellipse class="st2" cx="82" cy="176.5" rx="51.3" ry="4.2"/>
	<g>
		<path class="st12" d="M63.2,21.2C60,14.2,54.6,9,51.1,9.6s-3.7,6.7-0.5,13.7c2.2,4.8,5.4,8.7,8.4,10.6c2.3,0.3,4.2,0,5.9-0.6
			C66.1,30.9,65.6,26.3,63.2,21.2z"/>
		<path d="M63.2,21.3c-1.6-3.5-4.1-6.6-7-9.1c-0.7-0.6-1.5-1.2-2.3-1.6c-0.8-0.4-1.7-0.7-2.6-0.7c-0.9,0-1.6,0.5-2.1,1.3
			c-0.5,0.8-0.7,1.7-0.7,2.7c-0.1,1.9,0.3,3.8,0.9,5.7c0.6,1.8,1.4,3.6,2.4,5.3c1,1.7,2.1,3.3,3.3,4.7c1.2,1.5,2.6,2.8,4.2,3.8
			L59,33.3c1,0.1,1.9,0.2,2.9,0.1c1-0.1,1.9-0.3,2.8-0.6L64.4,33c0.4-0.8,0.6-1.8,0.7-2.8c0.1-1,0-2-0.1-3c-0.2-1-0.4-2-0.7-3
			C64,23.2,63.6,22.2,63.2,21.3z M63.3,21.2c0.9,1.9,1.6,3.8,2.1,5.9c0.2,1,0.4,2.1,0.5,3.1c0,1.1-0.1,2.2-0.6,3.2l-0.1,0.2L65,33.7
			c-1.9,0.7-4.1,1-6.2,0.6l-0.1,0l-0.1-0.1c-1.7-1.1-3.1-2.6-4.3-4.1c-1.2-1.5-2.3-3.2-3.2-5c-0.9-1.8-1.6-3.6-2.1-5.5
			c-0.3-0.9-0.5-1.9-0.7-2.9c-0.2-1-0.3-1.9-0.2-2.9c0-1,0.2-2,0.6-2.9c0.2-0.5,0.6-0.9,1-1.2c0.4-0.3,1-0.5,1.5-0.6
			c1.1-0.1,2.1,0.2,3,0.7c0.9,0.5,1.7,1,2.5,1.7C59.7,14.2,61.6,17.7,63.3,21.2z"/>
	</g>
	<path class="st13" d="M63.2,21.2C60,14.2,54.6,9,51.1,9.6s-3.7,6.7-0.5,13.7c2.2,4.8,5.4,8.7,8.4,10.6c2.3,0.3,4.2,0,5.9-0.6
		C66.1,30.9,65.6,26.3,63.2,21.2z"/>
	<g>
		<path class="st8" d="M75.4,72c-2.2-6.6-18.8-8.9-18.8-19.9C47.3,56.2,39,62.2,30.8,66.5c20.9,12.5-0.6,25,33.7,33.2
			c0.7,0.2,3.4,1.3,4,1.3C69,91.6,78,80.4,75.4,72z"/>
		<path d="M75.3,72c-0.4-1.1-1.2-2.1-2-2.9c-0.9-0.8-1.9-1.5-2.9-2.1c-2-1.3-4.1-2.4-6.2-3.6c-2-1.3-4-2.7-5.6-4.5
			c-1.6-1.9-2.6-4.3-2.6-6.8l0.6,0.4c-4.5,2-8.8,4.4-13,6.9L37.3,63c-2.1,1.3-4.3,2.5-6.5,3.6l0-0.3c2,1.2,3.9,2.5,5.5,4.1
			c1.7,1.6,3.1,3.5,4,5.6c2,4.2,1.9,9.1,4.4,12.9c1.2,1.9,2.9,3.4,4.8,4.6c1.9,1.2,4,2.1,6.1,2.9c2.1,0.8,4.3,1.5,6.5,2l1.7,0.4
			l0.8,0.2c0.3,0.1,0.6,0.2,0.9,0.3l1.6,0.6l0.8,0.3c0.2,0.1,0.6,0.2,0.7,0.2l-0.5,0.5c0.2-2.6,0.9-5.1,1.8-7.5
			c0.9-2.4,1.9-4.7,2.9-7c1-2.3,1.9-4.7,2.5-7.1C75.8,77,76,74.4,75.3,72z M75.4,72c0.8,2.4,0.6,5.1,0,7.5c-0.6,2.5-1.4,4.9-2.3,7.2
			c-0.9,2.4-1.8,4.7-2.6,7.1c-0.8,2.4-1.4,4.8-1.5,7.3l0,0.5l-0.5,0c-0.4,0-0.7-0.1-1-0.2l-0.8-0.3l-1.6-0.6
			c-0.3-0.1-0.5-0.2-0.8-0.2l-0.8-0.2l-1.7-0.4c-2.2-0.6-4.4-1.2-6.6-2.1c-2.2-0.8-4.3-1.8-6.2-3.1c-1.9-1.3-3.8-2.9-5-4.9
			c-1.2-2-1.8-4.3-2.3-6.6c-0.5-2.2-0.9-4.5-1.8-6.6c-0.9-2.1-2.2-4-3.8-5.6s-3.5-2.9-5.4-4.1l-0.2-0.1l0.2-0.1
			c4.3-2.3,8.5-5,12.7-7.6c4.2-2.6,8.5-5.1,13-7.1l0.6-0.3l0,0.7c0,2.3,0.8,4.5,2.3,6.3c1.4,1.8,3.3,3.3,5.3,4.6c2,1.3,4,2.5,6,3.8
			c1,0.7,2,1.4,2.8,2.2C74.2,69.9,75,70.8,75.4,72z"/>
	</g>
	<g>
		<path class="st4" d="M98.6,71.7c0,14,0,26.6-34.7,25.4C32.3,96,29.6,86.8,36.7,71.8c6-12.8,8-25.4,27.2-25.4
			C83,46.4,98.6,57.7,98.6,71.7z"/>
		<g>
			<path d="M98.6,71.7c0,3.9,0.1,7.9-0.8,11.7c-0.4,1.9-1.2,3.8-2.3,5.4c-1.1,1.6-2.6,3-4.3,4.1c-3.4,2.2-7.3,3.2-11.2,3.8
				c-3.9,0.6-7.9,0.8-11.8,0.8c-3.9,0-7.9-0.3-11.8-0.7c-3.9-0.4-7.8-1-11.6-2.1c-1.9-0.5-3.7-1.2-5.5-2.2c-1.7-0.9-3.4-2.2-4.5-3.8
				c-1.1-1.7-1.7-3.7-1.7-5.7c0-2,0.4-4,0.9-5.9c0.6-1.9,1.3-3.7,2.1-5.5c0.8-1.8,1.6-3.6,2.3-5.4c1.5-3.6,3-7.3,5.1-10.7
				c1.1-1.7,2.3-3.3,3.8-4.6c1.5-1.4,3.2-2.5,5.1-3.3c3.7-1.6,7.8-2,11.7-2c7.9,0.1,15.9,2.1,22.5,6.5c3.3,2.2,6.2,4.9,8.4,8.3
				C97.4,63.9,98.7,67.8,98.6,71.7z M98.5,71.7c0-3.9-1.3-7.8-3.5-11c-2.2-3.2-5.2-5.8-8.5-7.9c-6.6-4-14.5-5.9-22.2-6
				c-3.9,0-7.8,0.4-11.3,1.9c-3.5,1.5-6.4,4.2-8.5,7.4c-2.1,3.2-3.6,6.9-5.2,10.4c-0.8,1.8-1.6,3.6-2.4,5.4
				c-0.8,1.8-1.6,3.6-2.2,5.4c-0.6,1.8-1,3.8-1,5.7c0,1.9,0.5,3.9,1.5,5.5c1.1,1.6,2.6,2.8,4.3,3.8c1.7,0.9,3.6,1.6,5.4,2.1
				c3.8,1,7.7,1.5,11.6,1.9c3.9,0.3,7.8,0.4,11.7,0.4c3.9,0,7.8-0.2,11.7-0.8c3.8-0.6,7.7-1.5,11-3.5c1.6-1,3.1-2.3,4.3-3.8
				c1.1-1.6,1.9-3.4,2.4-5.2C98.6,79.6,98.5,75.6,98.5,71.7z"/>
		</g>
	</g>
	<path class="st1" d="M98.6,71.7c0-6.3-3.2-12.1-8.4-16.5l0.4-0.9l-1.6,0c-4-3-9-5.4-14.6-6.7c0.1,2.1,0.2,4.2,0.1,6.4l-17.2-0.4
		c1.4-2.4,2.8-4.8,4.3-7.1c-7.6,0.4-12.2,3-15.6,6.8l-1.3,0l-1,3.3c-2.7,4.4-4.6,9.8-7.1,15.3c-2.4,5.1-3.7,9.6-3.1,13.3
		c5-3.1,8.9-7.5,12.4-12.5c1.1,0.4,4.5,1.4,5.6-3l-0.8,6.1c0,0,11.5-4.1,6.2-8.9c0,0,5.4,4.3,4.5,8.2c0,0,0.5-4.4,2.2-5.7
		c0,0,1.8,7.5-2.6,8.2c0,0,6.9,0.3,7.3-4.4c0,0,2.7,1.5,1.6,4.4c0,0,0.2,0,0.5-0.1c-3.9,10.4-10.9,18.1-21.9,18.2
		c4.1,0.8,9.2,1.3,15.3,1.6c3,0.1,5.8,0.1,8.3,0c0.6,0.2,1.1,0.2,1.6-0.1C98.6,95.6,98.6,84.2,98.6,71.7z"/>
	<g>
		<path class="st3" d="M96.7,144.5c0,0-2.5-13.3,23.8-25.6c26.3-12.3,8.4-27.7,8.4-27.7s26.2,6.7,11,35.8
			c-15.2,29.1-25.3,29.9-43.3,23S96.7,144.5,96.7,144.5z"/>
		<path d="M96.6,144.5c-0.2-1.5,0-3,0.4-4.5c0.4-1.5,1-2.9,1.8-4.2c1.5-2.7,3.6-5,5.8-7.1c4.5-4.2,9.9-7.3,15.4-9.9
			c2.7-1.3,5.4-2.7,7.8-4.5c2.4-1.8,4.5-4,5.8-6.7c1.3-2.7,1.3-5.9,0.3-8.7c-1-2.8-2.9-5.3-5-7.4l-0.5-0.5l0.7,0.2
			c4.7,1.5,9.1,4.2,12.2,8.1c1.5,2,2.6,4.3,3.2,6.7c0.6,2.4,0.7,5,0.5,7.4c-0.5,5-2.3,9.7-4.6,14.1c-2.3,4.4-4.7,8.7-7.5,12.8
			c-2.8,4-6.1,7.9-10.3,10.7c-2.1,1.4-4.5,2.4-7,2.8c-2.5,0.5-5,0.4-7.5,0c-4.9-0.8-9.6-2.7-14.1-4.6c-1.1-0.5-2.3-1-3.3-1.7
			c-0.5-0.3-1.1-0.7-1.5-1.1c-0.2-0.2-0.5-0.5-0.4-1c0.1-0.5,0.5-0.6,0.8-0.7c1.2-0.4,2.5-0.4,3.7-0.4
			C94.2,144.3,95.4,144.4,96.6,144.5z M96.7,144.6c-1.2-0.1-2.5-0.1-3.7,0c-1.2,0.1-2.5,0.1-3.6,0.5c-0.3,0.1-0.5,0.3-0.5,0.5
			c0,0.2,0.1,0.4,0.3,0.6c0.4,0.4,0.9,0.7,1.5,1c1.1,0.6,2.2,1.1,3.3,1.6c4.5,1.8,9.2,3.5,14,4.3c2.4,0.3,4.8,0.4,7.2-0.1
			c2.4-0.5,4.6-1.4,6.6-2.7c4-2.7,7.2-6.5,10-10.5c2.8-4,5.3-8.3,7.6-12.6c2.3-4.3,4.2-8.9,4.8-13.7c0.3-2.4,0.2-4.9-0.3-7.2
			c-0.5-2.4-1.6-4.6-3-6.6c-1.5-2-3.3-3.6-5.3-5c-2-1.3-4.3-2.4-6.6-3.1l0.1-0.3c2.3,2.1,4.1,4.6,5.3,7.5c0.6,1.4,0.9,3,0.9,4.5
			c0,1.6-0.3,3.1-0.9,4.6c-1.2,2.9-3.4,5.2-5.9,7.1c-2.5,1.9-5.2,3.4-7.9,4.7c-5.5,2.6-10.8,5.6-15.3,9.6c-2.3,2-4.3,4.3-5.9,6.8
			c-0.8,1.3-1.4,2.7-1.9,4.1C96.9,141.5,96.6,143,96.7,144.6L96.7,144.6L96.7,144.6z"/>
	</g>
	<g>
		<path class="st3" d="M112.6,149.7c-0.6-0.1-1.2-0.1-1.8-0.2C111.4,149.7,112,149.8,112.6,149.7z"/>
		<path d="M112.6,149.7L112.6,149.7c-0.2,0.2-0.4,0.3-0.5,0.3c-0.2,0-0.3,0.1-0.5,0c-0.1-0.1-0.3-0.3-0.4-0.3c-0.1-0.1-0.3,0-0.5,0
			l0.1-0.5c0.3-0.1,0.6-0.1,0.9-0.1C112,149.3,112.2,149.4,112.6,149.7L112.6,149.7z M112.6,149.8c-0.3,0.3-0.6,0.5-1,0.5
			c-0.3,0-0.7-0.2-0.9-0.5l-1.5-1.9l1.6,1.3c0.1,0.1,0.3,0.2,0.4,0.2c0.2,0,0.3-0.2,0.5-0.2s0.3,0,0.4,0.1
			C112.3,149.4,112.4,149.5,112.6,149.8L112.6,149.8L112.6,149.8z"/>
	</g>
	<path class="st9" d="M112.6,149.7c-0.6,0.1-1.1,0-1.8-0.2C111.4,149.6,112,149.7,112.6,149.7c2.4-0.2,4.4-2.4,7.1-2.4
		c-4.4,0-7.8-2.2-12.2-1.1c2.2-1.1,3.3-2.2,5.5-3.3c-2.2,0-5.5,0-7.8,1.1c1.1-2.2,3.3-3.3,4.4-5.5c-2.2,0-3.3,3.3-6.6,3.3
		c2.2-4.4,4.4-11.1,8.9-13.3c8.9-3.3,17.7-6.6,22.2-13.3c4-6,3.5-14.8-1.6-19.6c3.4,5.4,5.8,15.1-11.9,23.4
		c-26.3,12.3-23.8,25.6-23.8,25.6s-18-1.4-0.1,5.5c12,4.6,20.4,5.8,29.3-2.6C121.8,149.2,117.3,150.1,112.6,149.7z"/>
	<g>
		<g>
			<path class="st11" d="M96.7,143.7c2.7-5.6,6.6-10.8,11.2-15c4.6-4.3,10.4-7.4,16.5-9c2.9-0.9,5.8-2.3,8-4.4
				c2.3-2.1,3.8-4.9,4.3-7.9c0.5-3,0-6.2-1.3-9c-1.3-2.8-3.3-5.4-5.8-7.3c2.6,1.8,4.7,4.3,6.1,7.1c1.4,2.8,2,6.1,1.6,9.3
				c-0.4,3.2-2.1,6.2-4.4,8.3c-2.3,2.2-5.3,3.7-8.3,4.6c-3,0.8-5.9,1.8-8.7,3.3c-2.7,1.5-5.3,3.3-7.6,5.3c-2.3,2-4.5,4.3-6.4,6.8
				C100,138.3,98.2,140.9,96.7,143.7z"/>
		</g>
		<g>
			<path class="st11" d="M96.7,144.2c3.5-5,7.9-9.4,13-12.9c2.5-1.8,5.3-3.2,8.2-4.3c1.5-0.5,2.9-1,4.5-1.3c1.5-0.3,3.1-0.4,4.6-0.6
				c3-0.4,5.9-1.5,8.2-3.4c2.3-1.9,4-4.5,5-7.3c1-2.9,1.2-5.9,0.8-8.9c-0.4-3-1.4-5.9-3.2-8.5c3.7,4.9,4.8,11.7,2.9,17.6
				c-0.9,3-2.7,5.7-5.1,7.7c-2.4,2-5.4,3.2-8.5,3.6c-1.6,0.2-3,0.3-4.5,0.6c-1.5,0.3-2.9,0.7-4.4,1.2c-2.9,1-5.5,2.5-8.1,4.1
				c-2.5,1.7-4.9,3.6-7.1,5.7C100.7,139.6,98.6,141.8,96.7,144.2z"/>
		</g>
		<g>
			<path class="st11" d="M129,91.1c2.9,2.2,5.7,4.5,8.1,7.2c2.4,2.7,4.6,5.7,5.7,9.2c0.6,1.7,0.8,3.6,0.8,5.4
				c-0.1,1.8-0.5,3.7-1.2,5.3c-1.5,3.4-3.9,6.2-6.6,8.6c-5.5,4.8-12,8.2-18.6,11.1c-6.7,2.9-13.6,5.2-20.6,7l-0.1-0.7
				c4.6-0.3,9.1-1,13.6-2c4.5-1,8.9-2.4,13.1-4.2c4.2-1.8,8.2-4.1,11.7-7.1c3.5-3,6.4-6.6,8.2-10.9c-1.7,4.3-4.6,8.1-8,11.1
				c-3.5,3.1-7.5,5.4-11.7,7.3c-4.2,1.9-8.6,3.3-13.1,4.4c-4.5,1-9.1,1.8-13.7,2.1l-0.1-0.7c7-1.8,13.8-4.2,20.5-7
				c6.6-2.9,13.1-6.2,18.5-10.9c2.7-2.4,5.1-5.1,6.5-8.4c0.7-1.6,1.2-3.4,1.3-5.2c0.1-1.8-0.2-3.6-0.7-5.3c-1.1-3.4-3.1-6.5-5.5-9.2
				C134.5,95.7,131.8,93.3,129,91.1z"/>
		</g>
		<g>
			<path class="st11" d="M141.1,111.1c0,2.4-0.8,4.7-1.9,6.8c-1.2,2.1-2.7,3.9-4.3,5.6c-3.3,3.4-7.2,6.2-11.2,8.7
				c-4,2.5-8.2,4.8-12.5,6.8c-4.3,2-8.6,3.9-13.1,5.6l0.1-0.7c1.6,0.8,3.5,1.3,5.4,1.6c1.9,0.3,3.8,0.3,5.7,0.1
				c3.8-0.3,7.5-1.4,11-2.9c3.5-1.5,6.8-3.5,10-5.7c3.1-2.2,6.1-4.7,8.9-7.3c-5.5,5.4-11.6,10.3-18.7,13.4
				c-3.5,1.6-7.3,2.7-11.2,3.1c-1.9,0.2-3.9,0.2-5.8-0.1c-1.9-0.3-3.8-0.7-5.6-1.7l-0.7-0.4l0.8-0.3c4.4-1.7,8.7-3.5,13-5.5
				c4.3-2,8.4-4.2,12.4-6.7c4-2.5,7.9-5.2,11.2-8.5c1.7-1.7,3.2-3.4,4.4-5.5C140.2,115.7,141,113.5,141.1,111.1z"/>
		</g>
		<g>
			<path class="st11" d="M97.6,143.1c2.9-1.8,5.8-3.5,8.8-5.2c2.9-1.7,5.9-3.3,8.9-5c3-1.6,5.9-3.3,8.9-4.8c3-1.6,6-3.2,9-4.7
				c-2.9,1.8-5.8,3.5-8.8,5.2c-2.9,1.7-5.9,3.3-8.9,5c-3,1.6-5.9,3.3-8.9,4.8C103.6,140,100.6,141.6,97.6,143.1z"/>
		</g>
		<g>
			<path class="st11" d="M129,125.1c-5.9,2.1-11.6,4.7-17,7.8c-2.7,1.5-5.4,3.2-7.9,5c-2.5,1.8-4.9,3.8-7.1,6l-2.1,2.1l1.5-2.5
				c3.4-5.4,7.7-10.1,12.7-13.9c2.5-1.9,5.3-3.5,8.2-4.8c2.9-1.3,6-2.1,9.1-2.6c3-0.6,6-1.8,8.4-3.7c2.5-1.9,4.3-4.5,5-7.5
				c0.8-3,0.5-6.2-0.5-9.1c-1-2.9-2.8-5.6-5.2-7.7c2.4,2,4.3,4.7,5.4,7.6c1.1,2.9,1.5,6.2,0.7,9.3c-0.7,3.1-2.6,5.9-5.1,7.9
				c-2.5,2-5.5,3.2-8.6,3.9c-3.1,0.5-6.1,1.4-8.9,2.6c-2.8,1.3-5.5,2.9-8,4.7c-5,3.7-9.3,8.4-12.6,13.6l-0.5-0.4
				c4.5-4.4,9.8-7.9,15.3-10.9c2.7-1.5,5.6-2.8,8.4-4.1C123.1,127.2,126,126,129,125.1z"/>
		</g>
		<g>
			<path class="st11" d="M96.4,147c2.2,0.9,4.6,1.5,7,1.8c2.4,0.3,4.8,0.4,7.2,0.1c4.8-0.5,9.4-2.2,13.4-4.8c4.1-2.6,7.5-6,10.5-9.8
				c3-3.8,5.5-7.9,7.8-12.2c-2,4.4-4.4,8.7-7.3,12.6c-2.9,3.9-6.4,7.4-10.6,10.1c-4.1,2.6-8.9,4.4-13.8,4.8
				C105.8,149.9,100.8,149.1,96.4,147z"/>
		</g>
		<g>
			<path class="st11" d="M95.9,149.4c2.5,0.6,5.1,1,7.6,1.3c2.6,0.3,5.1,0.4,7.7,0.1c2.5-0.2,5.1-0.7,7.4-1.8c2.3-1,4.4-2.7,5.9-4.8
				c-0.6,1.1-1.5,2.2-2.4,3.1c-1,0.9-2.1,1.6-3.2,2.2c-2.4,1.2-5,1.8-7.6,2c-2.6,0.2-5.2,0.1-7.8-0.3
				C100.9,150.9,98.4,150.3,95.9,149.4z"/>
		</g>
	</g>
	<g>
		<path class="st5" d="M64.8,95c0,0-58.9,57.4,6.6,15.6"/>
		<path d="M64.8,95c-4.2,4.6-8.4,9.1-12.6,13.6c-2.1,2.2-4.3,4.5-6.2,6.9c-1,1.2-1.9,2.4-2.8,3.7c-0.9,1.3-1.7,2.6-2.2,4
			c-0.2,0.7-0.4,1.5-0.1,1.9c0.3,0.4,1.1,0.4,1.8,0.3c1.4-0.3,2.9-0.9,4.3-1.5c2.8-1.2,5.5-2.7,8.2-4.2c5.4-3,10.7-6.1,16.1-9.2
			l0.1,0.1c-5,3.6-10.2,7-15.6,10c-2.7,1.5-5.5,2.9-8.3,4.1c-1.4,0.6-2.9,1.1-4.5,1.4c-0.4,0.1-0.8,0.1-1.3,0
			c-0.4-0.1-0.9-0.2-1.2-0.7c-0.3-0.4-0.3-0.9-0.2-1.4c0.1-0.4,0.2-0.8,0.4-1.2c1.3-2.9,3.4-5.2,5.2-7.7c1.9-2.4,3.8-4.9,5.9-7.2
			C55.7,103.4,60.1,99,64.8,95L64.8,95z"/>
	</g>
	<path class="st13" d="M64.8,95c0,0-5,4.9-10.4,10.7c-0.5,8.5-5.4,14.5-11.7,20.1c3.7-0.5,12.2-4.7,28.7-15.2L64.8,95z"/>
	<g>
		<path class="st6" d="M36.2,64.4c0,0-0.6,4.6,2.8,4c0,0-2.4-0.6,0.6-3c0,0,4.1,1.4,1.7,4.8c0,0,4.6,2.4,6-2.9l-0.8,6.1
			c0,0,11.5-4.1,6.2-8.9c0,0,5.4,4.3,4.5,8.2c0,0,0.5-4.4,2.2-5.7c0,0,1.8,7.5-2.6,8.2c0,0,6.9,0.3,7.3-4.4c0,0,2.7,1.5,1.6,4.4
			c0,0,4.6-0.7,4-3.4c0,0,2.6,11-4.6,9.2c0,0,6.8,5.7,9.6-2.2c0,0-8.7,12.2-12.5,10.7c0,0,5.3,8.3,8.2,4.6l15.9-41.9l-45.8-1
			L36.2,64.4z"/>
		<path d="M36.3,64.5c-0.1,1,0,2,0.4,2.8c0.2,0.4,0.6,0.8,1,1c0.4,0.2,0.9,0.2,1.4,0.1l0,0.1c-0.3-0.1-0.7-0.3-0.9-0.6
			c-0.2-0.3-0.1-0.7,0-1c0.3-0.6,0.8-1.1,1.4-1.5l0,0l0,0c0.5,0.2,0.9,0.4,1.4,0.8c0.4,0.3,0.8,0.7,1,1.2c0.2,0.5,0.2,1.1,0.1,1.6
			c-0.1,0.5-0.4,1-0.7,1.4l0-0.2c1.1,0.5,2.5,0.7,3.6,0.2c1.1-0.5,1.7-1.8,2-3l0.4,0.1l-0.8,6.1l-0.4-0.3c2-0.8,4.1-1.8,5.7-3.2
			c0.8-0.7,1.5-1.6,1.6-2.5c0.1-1-0.5-1.9-1.3-2.6l0.5-0.6c0.7,0.5,1.3,1.1,1.8,1.7c0.6,0.6,1.1,1.3,1.6,2c0.5,0.7,0.9,1.5,1.1,2.3
			c0.3,0.8,0.4,1.8,0.2,2.6l-0.9-0.1c0.1-1.1,0.4-2.1,0.7-3.1c0.2-0.5,0.4-1,0.6-1.5c0.3-0.5,0.6-1,1-1.4l0.5-0.5l0.1,0.7
			c0.2,0.8,0.3,1.6,0.3,2.5c0,0.8,0,1.7-0.1,2.5c-0.1,0.8-0.4,1.7-1,2.4c-0.5,0.7-1.4,1.2-2.3,1.3l0-0.7c1.5,0,3.1-0.2,4.5-0.8
			c0.7-0.3,1.3-0.7,1.8-1.3c0.5-0.6,0.7-1.3,0.8-2l0-0.4l0.4,0.2c0.4,0.2,0.7,0.5,1,0.9c0.3,0.3,0.5,0.7,0.7,1.2
			c0.3,0.9,0.2,1.8-0.1,2.7L65.5,75c0.9-0.2,1.9-0.4,2.7-0.9c0.4-0.2,0.8-0.6,1-0.9c0.2-0.4,0.3-0.8,0.2-1.3l0.4-0.1
			c0.2,1.1,0.4,2.1,0.4,3.2c0,1.1,0,2.2-0.2,3.2c-0.2,1-0.7,2.2-1.8,2.7c-1,0.6-2.2,0.5-3.2,0.2l0.1-0.3c0.8,0.6,1.6,1.1,2.6,1.5
			c0.9,0.4,1.9,0.6,2.9,0.4c1-0.1,1.8-0.7,2.4-1.4c0.6-0.7,1.1-1.7,1.4-2.6l0.4,0.2c-1.7,2.3-3.4,4.6-5.4,6.6c-1,1-2,2-3.2,2.9
			c-0.6,0.4-1.2,0.8-1.9,1.1c-0.7,0.3-1.5,0.5-2.3,0.2l0.4-0.5c1,1.5,2.1,2.9,3.5,4c0.7,0.6,1.4,1.1,2.2,1.2c0.8,0.2,1.5-0.1,2-0.8
			l-0.1,0.1l7.8-21c2.6-7,5.3-14,7.9-21l0.5,0.7c-7.6-0.2-15.3-0.4-22.9-0.6l-22.9-0.8l0.1-0.1L36.3,64.5z M36.2,64.4L40.3,51l0-0.1
			h0.1l22.9,0.2c7.6,0.1,15.3,0.2,22.9,0.4l0.7,0l-0.3,0.7c-2.6,7-5.3,14-7.9,21l-8,20.9l0,0.1l0,0c-0.3,0.4-0.7,0.8-1.2,0.9
			c-0.5,0.2-1.1,0.2-1.6,0.1c-1-0.3-1.8-0.8-2.5-1.4c-1.4-1.2-2.5-2.7-3.6-4.2l-0.6-0.9l1,0.4c0.5,0.2,1.2,0.1,1.8-0.2
			c0.6-0.3,1.2-0.6,1.8-1c1.1-0.8,2.2-1.8,3.1-2.8c2-2,3.8-4.2,5.4-6.5l0.8-1.1l-0.5,1.3c-0.3,1-0.8,1.9-1.5,2.7
			c-0.7,0.8-1.6,1.4-2.7,1.5c-1,0.2-2.1-0.1-3-0.4c-1-0.4-1.8-0.9-2.6-1.5l-0.6-0.5l0.7,0.2c1,0.3,2.1,0.3,3-0.2
			c0.9-0.5,1.4-1.5,1.6-2.5c0.2-1,0.2-2.1,0.2-3.1c-0.1-1.1-0.2-2.1-0.4-3.1l0.4-0.1c0.1,0.5,0,1.1-0.2,1.6
			c-0.3,0.5-0.7,0.8-1.1,1.1c-0.9,0.5-1.8,0.8-2.8,1l-0.4,0.1l0.1-0.4c0.3-0.8,0.3-1.6,0-2.4c-0.3-0.7-0.9-1.4-1.6-1.8l0.4-0.2
			c0,0.8-0.3,1.7-0.8,2.3c-0.5,0.7-1.2,1.2-2,1.5c-0.7,0.3-1.5,0.6-2.3,0.7c-0.8,0.1-1.6,0.2-2.4,0.2l0-0.7c0.7-0.1,1.4-0.5,1.8-1.1
			c0.4-0.6,0.7-1.3,0.8-2.1c0.2-1.5,0.1-3.1-0.3-4.6l0.7,0.2c-0.7,0.6-1.1,1.6-1.4,2.5c-0.3,1-0.5,2-0.6,3l-0.9-0.1
			c0.3-1.4-0.3-3-1.2-4.3c-0.9-1.3-2-2.5-3.2-3.5l0.5-0.6c0.4,0.4,0.8,0.9,1.1,1.4c0.3,0.5,0.5,1.2,0.4,1.9c-0.2,1.3-1,2.3-1.9,3
			c-0.9,0.8-1.9,1.4-2.9,1.9c-1,0.5-2,1-3.1,1.4L46,73.8l0.1-0.5l0.9-6l0.4,0.1c-0.2,0.6-0.4,1.3-0.8,1.9c-0.4,0.6-0.9,1.1-1.5,1.4
			c-0.6,0.3-1.3,0.4-2,0.3c-0.7-0.1-1.3-0.3-1.9-0.6l-0.1-0.1l0.1-0.1c0.3-0.4,0.5-0.8,0.7-1.3c0.1-0.5,0.1-1-0.1-1.4
			c-0.4-0.9-1.3-1.5-2.2-1.9l0.1,0c-0.5,0.4-1,0.9-1.3,1.5c-0.1,0.3-0.2,0.6,0,0.9c0.2,0.3,0.5,0.4,0.8,0.5l0.3,0.1l-0.3,0
			c-0.5,0.1-1,0.1-1.5-0.1c-0.5-0.2-0.8-0.6-1.1-1C36.1,66.4,36.1,65.4,36.2,64.4L36.2,64.4z"/>
	</g>
	<path class="st1" d="M86.2,52.1l-45.8-1l-4.2,13.4c0,0-0.6,4.6,2.8,4c0,0-2.4-0.6,0.6-3c0,0,4.1,1.4,1.7,4.8c0,0,4.6,2.4,6-2.9
		l-0.2,1.4c6.2-10.7,13.6-3.8,22.5,3.2c0-0.1,0-0.1,0-0.2c0,0,0,0.1,0,0.2c2.3,1.8,4.6,3.6,7.1,5.1L86.2,52.1z"/>
	<g>
		<path class="st6" d="M74.5,78.7c0,0-1.2,1.7-3,3.8C72.7,82,73.8,80.9,74.5,78.7z"/>
		<path d="M74.6,78.6l0,0.2c-0.1,0.4-0.3,0.8-0.4,1.2c-0.2,0.4-0.4,0.7-0.7,1c-0.3,0.3-0.7,0.5-0.9,0.8c-0.3,0.3-0.5,0.6-0.7,1
			l-0.3-0.4c0.6-0.5,1.1-1,1.5-1.7c0.5-0.6,0.9-1.2,1.5-1.9L74.6,78.6z M74.6,78.8c0,0.9-0.2,1.7-0.7,2.5c-0.3,0.4-0.6,0.7-0.9,1
			c-0.4,0.3-0.8,0.5-1.2,0.6L70.5,83l0.9-0.7c0.3-0.3,0.6-0.5,0.8-0.9c0.2-0.3,0.3-0.8,0.5-1.1c0.2-0.3,0.5-0.6,0.8-0.9
			C73.8,79.2,74.1,78.9,74.6,78.8L74.6,78.8L74.6,78.8z"/>
	</g>
	<g>
		<path class="st5" d="M80.5,13.3c-3.1,0-6.1,0.2-9.1,0.7l0,0l-0.1,0c-8,1.2-15.3,3.9-21.7,7.7l-6.2,2.2c0,0-1.3-0.1-2.4,2.6
			l-0.3,0.4L37,32.3c-0.7,0.9-1.4,1.7-2.1,2.7c0,0,0,0,0,0c0,0,0,0,0,0c-0.8,1-1.5,2.1-2.1,3.2c-0.3,0.5-0.6,1-0.8,1.5l-0.1,0.2l0,0
			c-0.2,0.3-0.3,0.6-0.5,0.8c-1.9,2.5-5,3.5-7.9,6.2C18,51.8,12,54,8,58.9c-2.8,3.4,4.3,11.5,4.3,11.5l6.9,1.6c0,0,1.6,3.7,5.5,0
			l28.9-15.8c0,0,0.1-0.4,0.2-1.1C56.4,63.6,70,66,72,72c2.6,8.5-1.1,26.3-14.4,26.3c-3.1,2.8-0.3,14.7-5.6,25.2
			c-5.5,10.9-2,32.1,3.8,37.8c0,0,2.5,32.9,8,1.8l0.5,0c-2.7-0.7-5.2-2.1-6.8-4.8c1.6,2.7,4.1,4.1,6.8,4.8l7.2,0.2c0,0-0.1-0.3,0,0
			c0.4,0,1.6-0.6,1.6-0.6s-1.2,0.6-1.6,0.6c1.5,4.3,11.7,32.5,16.8,0.4c0,0,12.5-12.6,6.8-30.8c-4.1-13.1-3.2-27.3-2.3-34.4
			c13.5-2.6,23.8-9.2,29.7-25.3C131.4,49.4,110.1,13.3,80.5,13.3z"/>
		<path d="M80.5,13.3c-3,0-6.1,0.3-9,0.7l-0.1,0l0-0.1l0,0l0.1,0l-0.1,0l0,0l0,0c-7.6,1.2-15,3.7-21.6,7.7l0,0l0,0L43.5,24l0,0h-0.1
			c-0.2,0-0.5,0.1-0.7,0.3c-0.2,0.2-0.4,0.4-0.6,0.6c-0.4,0.5-0.6,1-0.9,1.6l0,0l0,0l-4,5.9l0,0l0,0c-0.7,0.9-1.4,1.7-2.1,2.6
			l-0.1,0.1l-0.1,0c0,0,0,0-0.1,0l0.2-0.1l0,0l0,0l0,0c-0.5,0.7-1,1.5-1.5,2.3c-0.5,0.8-0.9,1.6-1.4,2.4l0,0l0,0l-0.1,0.2l-0.3-0.4
			l0,0l0.6-0.2l-0.3,0.5l-0.5,0.8l0,0l0,0c-1.1,1.5-2.7,2.5-4.2,3.5c-1.5,1-2.9,2-4.2,3.2c-2.7,2.4-5.8,4.3-8.7,6.3
			c-1.5,1-2.9,2.1-4.2,3.2c-0.7,0.6-1.3,1.2-1.8,1.9c-0.3,0.3-0.5,0.6-0.6,1c-0.1,0.4-0.2,0.8-0.2,1.2c0.1,1.7,0.9,3.3,1.8,4.8
			c0.9,1.5,2,2.9,3.1,4.3L12.3,70l6.9,1.6l0.2,0l0.1,0.2c0.2,0.4,0.5,0.8,0.9,1c0.4,0.3,0.8,0.3,1.3,0.3c0.9-0.1,1.8-0.8,2.6-1.5
			l0,0l0,0l28.9-15.7l-0.2,0.2c0.1-0.3,0.1-0.7,0.2-1l0.2-1.4L54,55c0.7,2.3,2.4,4.2,4.3,5.8c1.9,1.6,4,2.8,6.2,4.1
			c2.1,1.3,4.3,2.5,6.1,4.3c0.9,0.9,1.7,2.1,1.9,3.3c0.3,1.2,0.5,2.5,0.6,3.7c0.1,2.5-0.1,5-0.6,7.5c-0.5,2.5-1.4,4.8-2.6,7
			c-1.2,2.2-2.9,4.2-5,5.6c-2.1,1.4-4.7,2.1-7.2,2.1l0.1,0c-0.5,0.4-0.8,1-1,1.7c-0.2,0.6-0.3,1.3-0.4,2c-0.2,1.3-0.3,2.7-0.4,4.1
			c-0.2,2.7-0.4,5.5-0.9,8.2c-0.5,2.7-1.2,5.4-2.3,7.9c-0.3,0.6-0.6,1.2-0.9,1.9c-0.3,0.6-0.5,1.2-0.8,1.9c-0.5,1.3-0.8,2.6-1,3.9
			c-1,5.4-0.8,10.9,0,16.3c0.4,2.7,1.1,5.4,1.9,7.9c0.9,2.5,2,5.1,3.9,7l0.1,0.1l0,0.1c0.2,2.5,0.5,5,0.9,7.5
			c0.2,1.2,0.4,2.5,0.7,3.7c0.3,1.2,0.6,2.5,1.3,3.4c0.2,0.2,0.4,0.3,0.5,0.3c0.2,0,0.4-0.2,0.6-0.5c0.3-0.5,0.6-1,0.8-1.6
			c0.4-1.2,0.8-2.4,1.1-3.6c0.6-2.4,1.1-4.9,1.5-7.4l0.1-0.3l0.3,0l0.5,0l-0.1,0.7c-1.4-0.4-2.8-0.9-4-1.8c-1.2-0.8-2.3-1.9-3-3.2
			l0.6-0.4c0.7,1.2,1.7,2.2,2.8,3c1.1,0.8,2.4,1.3,3.8,1.6l-0.1,0l7.2,0.1l-0.4,0.6l0-0.1l0,0l0,0l0,0l0,0v0h0l0,0l0,0l0.8-0.3l0,0
			l0.1,0.2l-0.4-0.3c0,0,0.2,0,0.3-0.1c0.1,0,0.2-0.1,0.4-0.1c0.3-0.1,0.5-0.2,0.8-0.3l0.4,0.8c-0.3,0.1-0.5,0.2-0.8,0.3
			c-0.1,0.1-0.3,0.1-0.4,0.2c-0.2,0-0.3,0.1-0.5,0.1l0.4-0.6c1,2.9,2.1,5.7,3.5,8.4c0.7,1.3,1.4,2.7,2.3,3.9
			c0.9,1.2,1.9,2.4,3.1,2.8c0.6,0.2,1.3,0.1,1.8-0.2c0.6-0.3,1-0.9,1.4-1.5c0.8-1.2,1.3-2.6,1.8-4.1c0.9-2.9,1.5-5.9,2-8.9l0-0.1
			l0.1-0.1c3.7-4.1,6.3-9.3,7.5-14.7c1.2-5.5,0.7-11.2-1.1-16.5c-1.6-5.5-2.4-11.1-2.7-16.8c-0.3-5.7-0.1-11.4,0.6-17l0-0.4l0.4-0.1
			c5.1-1,10-2.6,14.4-5.3c4.4-2.7,8.1-6.4,10.8-10.8c1.4-2.2,2.5-4.5,3.5-6.9c1-2.4,1.8-4.8,2.2-7.4c0.9-5.1,0.6-10.3-0.5-15.4
			c-2.2-10.1-7.5-19.5-15-26.8c-3.7-3.6-8-6.6-12.8-8.8C90.9,14.5,85.7,13.4,80.5,13.3z M80.5,13.2c5.2,0,10.4,1.1,15.2,3.2
			c4.8,2.1,9.1,5.1,12.9,8.7c7.5,7.2,12.9,16.7,15.3,26.9c1.1,5.1,1.5,10.4,0.6,15.6c-0.4,2.6-1.2,5.1-2.2,7.6c-1,2.4-2.1,4.8-3.5,7
			c-2.7,4.5-6.5,8.4-11,11.2c-4.5,2.8-9.6,4.5-14.7,5.5l0.4-0.4c-0.7,5.6-0.9,11.2-0.6,16.8c0.3,5.6,1.1,11.2,2.6,16.6
			c1.8,5.4,2.3,11.3,1.1,17c-0.6,2.8-1.6,5.5-2.9,8.1c-1.3,2.6-2.9,4.9-4.9,7.1l0.1-0.3c-0.5,3-1.1,6-2,9c-0.5,1.5-1,2.9-1.9,4.3
			c-0.4,0.7-1,1.3-1.7,1.8c-0.7,0.5-1.8,0.6-2.6,0.3c-0.8-0.3-1.5-0.8-2.1-1.4c-0.6-0.6-1.1-1.2-1.5-1.8c-0.9-1.3-1.7-2.6-2.4-4
			c-1.4-2.8-2.5-5.6-3.5-8.5l-0.2-0.6h0.6c0,0,0.2,0,0.3-0.1c0.1,0,0.2-0.1,0.4-0.1c0.3-0.1,0.5-0.2,0.8-0.3l0.4,0.8
			c-0.3,0.1-0.5,0.2-0.8,0.3c-0.1,0.1-0.3,0.1-0.4,0.1c-0.2,0-0.3,0.1-0.5,0.1l-0.3,0l-0.1-0.3l-0.1-0.2v0l0.8-0.3l0,0l0,0l0,0l0,0
			l0,0l0,0l0,0l0,0l0,0.1l0.2,0.6l-0.6,0l-7.2-0.2h0l0,0c-1.4-0.4-2.8-0.9-4-1.8c-1.2-0.8-2.3-2-3-3.2l0.6-0.4
			c0.7,1.2,1.7,2.2,2.8,3c1.1,0.8,2.4,1.3,3.8,1.7l2.9,0.8l-3-0.1l-0.5,0l0.3-0.3c-0.5,2.5-1,5-1.6,7.4c-0.3,1.2-0.7,2.5-1.1,3.7
			c-0.2,0.6-0.5,1.2-0.9,1.7c-0.2,0.3-0.5,0.6-0.9,0.7c-0.5,0.1-0.9-0.2-1.1-0.5c-0.4-0.6-0.7-1.2-0.9-1.8c-0.2-0.6-0.4-1.2-0.5-1.9
			c-0.3-1.2-0.5-2.5-0.7-3.7c-0.4-2.5-0.7-5-0.9-7.6l0.1,0.2c-1-1-1.7-2.2-2.4-3.4c-0.6-1.2-1.2-2.5-1.6-3.8c-0.9-2.6-1.5-5.3-1.9-8
			c-0.8-5.4-1-11,0.1-16.4c0.3-1.3,0.6-2.7,1.1-4c0.2-0.7,0.5-1.3,0.8-1.9c0.3-0.6,0.6-1.2,0.9-1.8c1.1-2.5,1.8-5.1,2.3-7.8
			c0.5-2.7,0.6-5.4,0.8-8.2c0.1-1.4,0.2-2.7,0.4-4.1c0.1-0.7,0.2-1.4,0.4-2c0.2-0.7,0.5-1.3,1.1-1.8l0.1-0.1h0.1
			c2.5,0,4.9-0.7,6.9-2.1c2-1.4,3.6-3.3,4.8-5.4c2.4-4.3,3.3-9.4,3.1-14.3c-0.2-2.4-0.5-5-2.3-6.7c-1.7-1.7-3.9-2.9-6-4.2
			c-2.1-1.3-4.3-2.5-6.3-4.1c-1.9-1.6-3.7-3.6-4.5-6.1l0.7-0.1c-0.1,0.4-0.1,0.7-0.2,1.1l0,0.2l-0.1,0.1L24.9,72.4l0.1-0.1
			c-0.4,0.4-0.9,0.8-1.4,1.1c-0.5,0.3-1.1,0.6-1.7,0.7c-0.6,0.1-1.3-0.1-1.9-0.4c-0.5-0.4-0.9-0.8-1.2-1.4l0.3,0.3l-6.9-1.6l-0.1,0
			l-0.1-0.1c-1.2-1.4-2.2-2.8-3.1-4.4C7.9,64.7,7,63,6.9,61.1c0-0.5,0-1,0.2-1.5c0.2-0.5,0.5-0.9,0.8-1.2c0.6-0.7,1.2-1.3,1.9-1.9
			c1.3-1.2,2.8-2.3,4.3-3.3c3-2,6-3.9,8.7-6.2c1.3-1.2,2.8-2.3,4.3-3.2c1.5-1,3-1.9,4.1-3.3l0,0l0.5-0.9l0.3,0.4l0,0l-0.7,0.2
			l0.4-0.6l0.1-0.2l0,0c0.4-0.8,0.9-1.6,1.4-2.4c0.5-0.8,1-1.5,1.6-2.3l0,0l0,0l0.1-0.1l0.1,0c0,0,0,0,0,0l-0.1,0.1
			c0.7-0.9,1.4-1.8,2.1-2.7l0,0l4-5.8l0,0c0.2-0.6,0.5-1.1,0.9-1.7c0.2-0.3,0.4-0.5,0.7-0.7c0.3-0.2,0.6-0.4,1-0.4l-0.1,0l6.2-2.2
			l0,0c6.7-4,14.1-6.5,21.8-7.6l0,0l0.1,0l0.1,0l0,0.1l0,0l-0.1-0.1C74.4,13.5,77.4,13.2,80.5,13.2z"/>
	</g>
	<g>
		<path class="st12" d="M71.7,163.4C71.7,163.4,71.6,163.3,71.7,163.4C71.6,163.3,71.7,163.3,71.7,163.4z"/>
		<path d="M71.7,163.4L71.7,163.4l-0.4,0.1c-0.1,0-0.1,0,0,0l0.2-0.1c0,0,0,0-0.1,0l0.5-0.2c0.2-0.1,0.3-0.1,0.3,0
			C72.1,163.2,72,163.2,71.7,163.4L71.7,163.4z M71.6,163.4c-0.3,0.1-0.4,0.1-0.5,0.1c0,0,0,0,0.2-0.1l1.6-0.7l-1.1,0.5
			c-0.1,0-0.1,0.1-0.1,0.1l0.2-0.1c0.1,0,0,0,0,0C72,163.2,71.9,163.3,71.6,163.4L71.6,163.4L71.6,163.4z"/>
	</g>
	<path class="st13" d="M18.8,71.9l0.3,0.1c0,0,1.6,3.7,5.5,0l28.9-15.8c0,0,0.1-0.4,0.2-1.1c1.3,3.9,4.8,6.5,8.4,8.7
		c-3.2-3.8-6.1-7.8-6.7-12.9C42.1,56.1,31.7,66.8,18.8,71.9z"/>
	<path class="st13" d="M72.8,114.8c4.7-7.5-5.7-12-11.5-17.5c-1.2,0.6-2.6,0.9-4.1,0.9c-1.1,1.1-1.3,3.8-1.5,7.4
		C61.7,111.4,66.6,123.8,72.8,114.8z"/>
	<g>
		<path class="st12" d="M71.7,163.4C71.7,163.4,71.6,163.3,71.7,163.4C71.6,163.3,71.7,163.3,71.7,163.4z"/>
		<path d="M71.7,163.4L71.7,163.4l-0.4,0.1c-0.1,0-0.1,0,0,0l0.2-0.1c0,0,0,0-0.1,0l0.5-0.2c0.2-0.1,0.3-0.1,0.3,0
			C72.1,163.2,72,163.2,71.7,163.4L71.7,163.4z M71.6,163.4c-0.3,0.1-0.4,0.1-0.5,0.1c0,0,0,0,0.2-0.1l1.6-0.7l-1.1,0.5
			c-0.1,0-0.1,0.1-0.1,0.1l0.2-0.1c0.1,0,0,0,0,0C72,163.2,71.9,163.3,71.6,163.4L71.6,163.4L71.6,163.4z"/>
	</g>
	<g>
		<path class="st12" d="M71.7,163.4C71.7,163.4,71.6,163.3,71.7,163.4C71.6,163.3,71.7,163.3,71.7,163.4z"/>
		<path d="M71.7,163.4L71.7,163.4l-0.4,0.1c-0.1,0-0.1,0,0,0l0.2-0.1c0,0,0,0-0.1,0l0.5-0.2c0.2-0.1,0.3-0.1,0.3,0
			C72.1,163.2,72,163.2,71.7,163.4L71.7,163.4z M71.6,163.4c-0.3,0.1-0.4,0.1-0.5,0.1c0,0,0,0,0.2-0.1l1.6-0.7l-1.1,0.5
			c-0.1,0-0.1,0.1-0.1,0.1l0.2-0.1c0.1,0,0,0,0,0C72,163.2,71.9,163.3,71.6,163.4L71.6,163.4L71.6,163.4z"/>
	</g>
	<g>
		<path class="st12" d="M71.7,163.4C71.7,163.4,71.6,163.3,71.7,163.4C71.6,163.3,71.7,163.3,71.7,163.4z"/>
		<path d="M71.7,163.4L71.7,163.4l-0.4,0.1c-0.1,0-0.1,0,0,0l0.2-0.1c0,0,0,0-0.1,0l0.5-0.2c0.2-0.1,0.3-0.1,0.3,0
			C72.1,163.2,72,163.2,71.7,163.4L71.7,163.4z M71.6,163.4c-0.3,0.1-0.4,0.1-0.5,0.1c0,0,0,0,0.2-0.1l1.6-0.7l-1.1,0.5
			c-0.1,0-0.1,0.1-0.1,0.1l0.2-0.1c0.1,0,0,0,0,0C72,163.2,71.9,163.3,71.6,163.4L71.6,163.4L71.6,163.4z"/>
	</g>
	<path class="st13" d="M58.8,160c-0.9,4.1-1.1,8.2-1.4,12.3c1.3,5.6,3.4,8.2,6.5-9.1l0.5,0C62.3,162.6,60.4,161.7,58.8,160z"/>
	<path d="M60.7,41.9c-0.7,1.7-1.4,3-3.3,2.2s-2.7-2.8-2-4.4c0.7-1.7,2.8-2.4,4.6-1.6C61.9,38.9,61.4,40.3,60.7,41.9z"/>
	<path d="M15.7,63.8c0.8,1.6,1.6,2.9,0.2,3.6c-1.5,0.7-1.8-0.8-2.6-2.4c-0.8-1.6-1.1-1.6,0.3-2.4C15.1,61.9,14.9,62.1,15.7,63.8z"/>
	<g>
		<path d="M54.4,38.6c0.5-0.6,1.2-1,1.9-1.3s1.5-0.5,2.4-0.4c0.4,0.1,0.9,0.2,1.2,0.4c0.4,0.3,0.7,0.6,0.9,1
			c0.4,0.7,0.5,1.5,0.4,2.3c-0.3-0.7-0.6-1.4-1.1-1.9c-0.4-0.5-1-0.8-1.6-0.8c-0.6-0.1-1.3,0-2,0.2C55.8,38.2,55.1,38.4,54.4,38.6z"
			/>
	</g>
	<ellipse transform="matrix(0.9752 0.2214 -0.2214 0.9752 10.328 -11.4946)" class="st7" cx="56.4" cy="40.3" rx="0.4" ry="0.8"/>
	<path class="st13" d="M128.7,41.1c0,0-4.6,1.5-9-0.2C113.8,28.6,103,18,89.8,14.5c-0.3,1.2-0.5,2.4-0.7,3.6
		c-2.5-1.3-4.3-2.3-4.3-2.3c-11.6-7.4-24.9-0.3-25,1.1c-0.1,1.4-5.7,2.1-5.7,2.1c-9.8,0.3-13.8,10.8-13.8,10.8
		c-1,3.9-10.1,11.5-10.1,11.5c5.1,1.8,16.7-9.1,14.8-5.6c-1.9,3.5-0.9,12.4-0.7,8.7c0.2-3.7,4.1-6.1,4.1-6.1c9-4.7,7-11.3,7-11.3
		c5.2-1.5,10,5.9,10,5.9l-0.8-5.9c3.6,0.6,8.2,10.3,8.2,10.3c2.4-4.9,1.3-10.3,1.3-10.3c4.9,1.6,6.7,12.1,6.7,12.1
		c3-5.2-3-13.2-3-13.2l7.9,6.6c-0.2-2.1-0.4-3.4-0.7-4.2c2.3,2.3,5.5,5.8,8.6,9.5c1.8,2.8,4.2,5.5,6.9,8.3c1,1.2,1.8,2.3,2.6,3.2
		c4.7,9.4-4.5,26.9-8.7,40.6c-0.5,1.2-1.1,2.5-1.8,3.8c-1,0.7-1.7,1-1.7,1c0.4-0.1,0.9-0.2,1.3-0.3c-0.8,1.5-1.6,3.1-2.5,4.8
		c-4.8,0.6-9.7,0.8-14.2-0.4c4.1,1.1,8.4,2.3,12.7,3.4c-1.1,2.2-2,4.3-2.8,6.5c-5.5,18.8,16.6,42.1,0,57.6c-1.4,1.4-0.2,5.2,0.1,9.3
		c1.1-2.4,2.2-6.1,3-11.7c0,0,12.5-12.6,6.8-30.8c-3.4-10.8-3.3-22.4-2.7-30.2c0-0.1,0-0.2,0-0.3c0-0.5,0.1-0.9,0.1-1.3
		c0-0.1,0-0.1,0-0.2c0-0.5,0.1-1,0.1-1.4c0.1,0.3,0.1,0.6,0.2,0.9c0-1.1-0.1-1.3-0.1-2c5.6,0.5,10.4-2.1,14.6-4.6
		c0.4-0.5,0.8-1,1.1-1.6c0.6-0.4,1.3-0.9,1.9-1.4c-0.1,0.4-0.1,0.7-0.1,1.1c0.8-0.6,1.6-1.2,2.4-1.8c0.3-0.7,0.6-1.5,1-2.3
		c3.5-3.7,6.5-8.5,8.8-14.8c1.7-4.7,2.2-9.8,1.8-15.1c0.4-9.4-1.2-11.9-2.2-12.6C125.1,46.1,128.7,41.1,128.7,41.1z"/>
	<g>
		<path class="st3" d="M56.4,22.4c0,0,2.1,6.9-7.3,11.9c0,0-4.1,2.6-4.2,6.5c-0.2,3.9-1.3-5.5,0.7-9.2c2-3.7-10.2,7.8-15.5,5.9
			c0,0,9.6-7.9,10.6-12.1c0,0,4.2-11,14.4-11.4c0,0,4.7-1.5,6-2.2c2.4-1.2,13-6.1,26.2-1.1c0,0,14,9.4,19.2,8.6l-3,0.8
			c0,0,10,2.7,14.6,11.8c4.6,9.1,15.1,5.6,15.1,5.6s-4.4,6.1-7.4,4.2c0,0,3.8-0.2,2.9,14.8c0,0-4,10.5-3.1,17.6
			c0,0-0.9-5.9-1.1-11.7c-0.2-5.8,1.1,12.2-4.1,19.8c-5.2,7.6-5.4,13.5-5.4,13.5s-2.5-2.3,0.2-9.4c0,0-4.1,8.6-8.9,11.4
			c-4.8,2.8-4.4,7.5-4.4,7.5s-4.1-3.5-0.2-8.3c0,0-5.2,2.7-4.2,6.2c0,0-4.2-4.9-0.4-8.3l5.4-5.4c0,0-4.1,3.6-9,4.4
			c0,0,16.6-9.2,15.9-22.1c0,0,0.4,3.5-4.1,6.3c0,0,1.8-8.9,5.5-19l-3,1.7c0,0,7-8.5,0-16.8l0.7,5.2c0,0-16.4-21.2-22.9-26.7
			c0,0,1.7-1.3,2.2,5.8l-8.3-6.9c0,0,6.3,8.4,3.1,13.9c0,0-1.8-11.1-7-12.8c0,0,1.1,5.8-1.4,10.9c0,0-4.8-10.3-8.6-10.9l0.9,6.3
			C66.9,28.7,61.9,20.8,56.4,22.4z"/>
		<path d="M56.5,22.5c0.3,1.2,0.3,2.5,0,3.7c-0.3,1.2-0.8,2.4-1.5,3.4c-1.4,2.1-3.5,3.7-5.7,4.9l0,0c-1.3,0.9-2.4,2-3.2,3.3
			c-0.4,0.7-0.7,1.4-0.8,2.1c-0.1,0.4-0.1,0.7-0.1,1.1c0,0.2,0,0.4-0.1,0.6c0,0.1,0,0.1-0.1,0.2c0,0-0.1,0.1-0.2,0.1
			c-0.1,0-0.1-0.1-0.1-0.1c0-0.1,0-0.1-0.1-0.1c0-0.1-0.1-0.2-0.1-0.3c-0.2-1.6-0.2-3.2-0.2-4.7c0.1-1.6,0.3-3.2,0.9-4.7
			c0.1-0.4,0.4-0.8,0.4-1c0,0,0,0,0,0.1c0,0,0.1,0,0,0c0,0-0.1,0-0.2,0.1c-0.2,0.1-0.3,0.2-0.5,0.2c-0.7,0.4-1.3,0.8-2,1.2
			c-1.3,0.9-2.6,1.7-4,2.5c-1.4,0.8-2.8,1.5-4.2,2.1c-1.5,0.5-3.1,1-4.8,0.5l-0.5-0.2l0.4-0.4c2.1-1.7,4-3.6,5.9-5.5
			c0.9-1,1.8-2,2.6-3c0.8-1.1,1.6-2.2,1.9-3.4l0,0l0,0c0.6-1.5,1.4-3,2.4-4.3c0.9-1.3,2-2.6,3.3-3.7c1.3-1.1,2.7-2,4.2-2.6
			c1.5-0.6,3.2-1,4.8-1l-0.1,0c1.3-0.4,2.6-0.9,3.9-1.4c0.6-0.2,1.3-0.5,1.9-0.8c0.6-0.3,1.3-0.6,1.9-0.9c2.6-1.1,5.3-1.8,8.1-2.2
			C73.7,8,76.5,8,79.3,8.3c2.8,0.3,5.6,1,8.2,2l0,0l0,0c2.9,1.9,6,3.8,9.1,5.4c1.6,0.8,3.2,1.6,4.8,2.2c1.6,0.6,3.4,1.2,5,1l0.2,0.7
			l-3,0.8l0-0.7c3,1,5.8,2.4,8.2,4.3c2.5,1.9,4.6,4.2,6.1,7c0.7,1.4,1.4,2.7,2.5,3.7c1.1,1.1,2.3,1.9,3.8,2.4c2.8,1,6,0.9,8.9,0.1
			l0.8-0.2l-0.5,0.6c-0.9,1.2-2,2.4-3.2,3.3c-0.6,0.5-1.3,0.9-2.1,1.2c-0.8,0.3-1.7,0.3-2.4-0.2l-0.8-0.5l0.9,0.1
			c0.9,0.1,1.3,0.7,1.7,1.3c0.4,0.6,0.6,1.2,0.8,1.9c0.4,1.3,0.6,2.6,0.7,3.9c0.2,2.6,0.1,5.3,0,7.9l0,0l0,0c-1,2.8-1.9,5.7-2.5,8.6
			c-0.6,2.9-1,5.9-0.6,8.9l-0.3,0c-0.6-4.1-1-8.1-1.1-12.3l0-0.4l0-0.2l0-0.1c-0.2,0,0.5-0.2,0.4,0l0,0l0,0l0,0.1l0,0.8l0,1.5
			c0,1-0.1,2.1-0.1,3.1c-0.1,2.1-0.4,4.1-0.7,6.1c-0.4,2-0.8,4-1.5,6c-0.4,1-0.8,1.9-1.3,2.8c-0.6,0.9-1.1,1.7-1.6,2.6
			c-1,1.8-1.9,3.6-2.6,5.5c-0.7,1.9-1.2,3.9-1.4,5.9l0,0.6l-0.4-0.4c-0.6-0.7-0.9-1.5-1-2.4c-0.1-0.8-0.1-1.7-0.1-2.5
			c0.2-1.7,0.6-3.3,1.2-4.8l0.5,0.2c-0.9,1.8-1.9,3.5-3,5.2c-1.1,1.7-2.3,3.3-3.8,4.6c-0.7,0.7-1.6,1.3-2.4,1.8
			c-0.8,0.5-1.6,1.1-2.2,1.8c-1.2,1.4-1.9,3.4-1.9,5.2l0,0.9l-0.6-0.6c-0.6-0.6-1.1-1.2-1.4-2c-0.4-0.7-0.6-1.6-0.6-2.4
			c0-1.7,0.8-3.2,1.7-4.4l0.5,0.6c-1.1,0.6-2.2,1.4-3,2.4c-0.4,0.5-0.7,1-0.9,1.6c-0.2,0.6-0.2,1.2-0.1,1.8l0.5,1.8l-1.2-1.5
			c-0.5-0.6-0.9-1.3-1.3-2c-0.4-0.7-0.6-1.5-0.8-2.3c-0.1-0.8-0.1-1.7,0.2-2.5c0.3-0.8,0.8-1.5,1.5-2l0,0l5.3-5.4l0.6,0.7
			c-0.7,0.6-1.4,1.1-2.1,1.5c-0.7,0.5-1.5,0.9-2.2,1.3c-1.5,0.8-3.2,1.4-4.9,1.6l-2.5,0.4l2.2-1.3c2-1.2,4-2.5,5.8-4
			c1.8-1.5,3.5-3.1,5-4.9c1.5-1.8,2.8-3.8,3.7-5.9c0.9-2.1,1.3-4.5,1.2-6.8l0.9-0.1c0,0.8-0.1,1.4-0.3,2.1c-0.2,0.7-0.6,1.3-1,1.8
			c-0.8,1.1-1.9,2-3,2.8l-1,0.6L105,78c0.7-3.3,1.6-6.4,2.5-9.6c0.9-3.2,1.9-6.3,3.1-9.5l0.7,0.6l-3,1.7l-2.1,1.2l1.5-1.9
			c0.9-1.1,1.6-2.5,2.1-3.9c0.5-1.4,0.8-2.8,0.9-4.3c0-1.5-0.2-2.9-0.7-4.3c-0.5-1.4-1.3-2.6-2.3-3.8l0.9-0.4l0.7,5.2l0.3,1.8
			l-1.1-1.5c-3.6-4.6-7.3-9.2-11-13.7c-1.9-2.3-3.8-4.5-5.7-6.7c-1.9-2.2-3.9-4.4-6.1-6.3l-0.4-0.4l0.4-0.3c0.5-0.4,1.1-0.1,1.3,0.1
			c0.3,0.3,0.4,0.6,0.6,0.8c0.3,0.6,0.4,1.1,0.5,1.7c0.2,1.1,0.4,2.3,0.4,3.4l0.1,1l-0.7-0.6l-8.3-7l0.5-0.5c0.7,1,1.4,2.1,2,3.3
			c0.6,1.1,1.1,2.3,1.5,3.5c0.4,1.2,0.6,2.5,0.6,3.8c0,1.3-0.3,2.6-0.9,3.8l-0.4,0.8l-0.2-0.9c-0.5-2.4-1.1-4.9-2.1-7.2
			c-0.5-1.1-1.1-2.2-1.8-3.2c-0.7-1-1.7-1.8-2.8-2.2l0.4-0.3c0.3,1.9,0.3,3.8,0.1,5.6c-0.2,1.9-0.7,3.7-1.5,5.4l-0.2,0.4l-0.2-0.4
			c-1-2.1-2.2-4.2-3.4-6.1c-0.7-1-1.3-1.9-2.1-2.8c-0.8-0.8-1.7-1.7-2.8-1.9l0.2-0.2l0.8,6.3l0.1,0.6l-0.3-0.5
			c-1.2-1.8-2.6-3.4-4.3-4.7c-0.9-0.6-1.8-1.2-2.8-1.5C58.6,22.2,57.5,22.2,56.5,22.5z M56.4,22.4c1-0.3,2.2-0.3,3.2,0
			c1,0.3,2,0.8,2.9,1.5c1.7,1.3,3.2,2.9,4.4,4.7l-0.2,0.1l-0.9-6.3l0-0.2l0.2,0c1.3,0.2,2.2,1.1,3,2c0.8,0.9,1.5,1.8,2.2,2.8
			c1.3,2,2.5,4,3.5,6.2l-0.4,0c0.8-1.6,1.3-3.4,1.5-5.3c0.2-1.8,0.2-3.7-0.1-5.5L75.6,22l0.4,0.1c1.3,0.4,2.3,1.4,3.1,2.4
			c0.8,1,1.4,2.2,1.9,3.3c1,2.3,1.7,4.8,2.2,7.3L82.6,35c0.6-1,0.8-2.2,0.8-3.4c0-1.2-0.3-2.4-0.6-3.6c-0.8-2.3-1.9-4.5-3.4-6.5
			l-1.6-2.3L80,21l8.3,6.9l-0.7,0.3c-0.1-1.1-0.2-2.2-0.5-3.3c-0.1-0.5-0.3-1.1-0.5-1.5c-0.1-0.2-0.2-0.4-0.4-0.6
			c-0.1-0.1-0.2-0.1-0.2-0.1l0-0.7c2.2,2,4.2,4.2,6.2,6.3c2,2.2,3.9,4.4,5.8,6.7c3.8,4.5,7.4,9.1,11.1,13.7l-0.9,0.4l-0.7-5.2
			l-0.2-1.7l1.1,1.3c1,1.2,1.9,2.6,2.4,4c0.6,1.5,0.8,3.1,0.8,4.7c0,1.6-0.4,3.2-0.9,4.6c-0.6,1.5-1.3,2.8-2.3,4.1l-0.6-0.7l3-1.7
			l1.1-0.7l-0.5,1.2c-1.1,3.1-2.1,6.2-3.1,9.4c-0.9,3.2-1.8,6.4-2.5,9.6l-0.7-0.5c1.1-0.7,2-1.5,2.7-2.5c0.4-0.5,0.6-1,0.8-1.6
			c0.2-0.6,0.3-1.2,0.3-1.7l0.9-0.1c0.1,2.5-0.3,4.9-1.3,7.2c-0.9,2.3-2.3,4.3-3.8,6.2c-1.5,1.9-3.3,3.5-5.1,5.1
			c-1.9,1.5-3.8,2.9-5.9,4.1l-0.3-0.9c1.6-0.3,3.2-0.8,4.7-1.6c1.5-0.7,2.9-1.7,4.2-2.7l0.6,0.7l-5.4,5.3l0,0l0,0
			c-0.5,0.5-1,1-1.2,1.7c-0.3,0.6-0.3,1.4-0.2,2.1c0.1,0.7,0.3,1.4,0.7,2.1c0.3,0.7,0.7,1.3,1.2,1.9l-0.7,0.4
			c-0.2-0.7-0.1-1.5,0.1-2.2c0.2-0.7,0.6-1.3,1.1-1.9c0.5-0.5,1-1,1.5-1.4c0.6-0.4,1.1-0.8,1.7-1.2l1.8-1l-1.3,1.6
			c-0.9,1.1-1.6,2.5-1.6,3.9c0,0.7,0.2,1.4,0.5,2.1c0.3,0.6,0.7,1.3,1.2,1.7l-0.6,0.3c0-2.1,0.7-4.1,2.1-5.7c0.7-0.8,1.5-1.4,2.3-2
			c0.9-0.5,1.6-1.1,2.3-1.7c1.4-1.3,2.6-2.9,3.7-4.5c1.1-1.6,2.1-3.3,3-5.1l0.5,0.2c-0.6,1.5-1,3.1-1.2,4.6c-0.1,0.8-0.1,1.6,0,2.4
			c0.1,0.8,0.4,1.6,0.9,2.1l-0.4,0.2c0.2-2.1,0.7-4.1,1.4-6c0.7-1.9,1.6-3.8,2.7-5.6c0.5-0.9,1.1-1.7,1.7-2.6
			c0.5-0.9,0.9-1.8,1.3-2.7c0.7-1.9,1.2-3.9,1.6-5.9c0.4-2,0.6-4,0.7-6.1c0.1-1,0.1-2,0.1-3.1l0-1.5l0-0.8l0-0.1c0,0,0,0,0,0l0,0
			c-0.1,0.1,0.6,0,0.4,0l0,0l0,0.2l0,0.4c0.1,4.1,0.5,8.2,1.1,12.2l-0.3,0c-0.2-1.5-0.2-3,0-4.5c0.1-1.5,0.4-3,0.7-4.5
			c0.6-3,1.4-5.9,2.5-8.7l0,0.1c0.1-2.6,0.2-5.3,0-7.9c-0.1-1.3-0.3-2.6-0.7-3.8c-0.2-0.6-0.4-1.2-0.7-1.8c-0.3-0.5-0.8-1-1.3-1.1
			l0.1-0.4c0.6,0.4,1.3,0.4,2,0.2c0.7-0.2,1.3-0.6,1.9-1.1c1.2-0.9,2.2-2.1,3.1-3.3l0.3,0.4c-3,0.9-6.3,1-9.3,0
			c-1.5-0.5-2.9-1.4-4-2.5c-1.1-1.1-2-2.5-2.6-3.9c-1.5-2.6-3.6-4.9-6-6.7c-2.4-1.8-5.2-3.3-8-4.2l-1.2-0.4l1.2-0.3l2.9-0.8l0.2,0.7
			c-1,0.1-1.9,0-2.8-0.2c-0.9-0.2-1.7-0.5-2.6-0.8c-1.7-0.6-3.3-1.4-4.9-2.2c-3.2-1.6-6.2-3.4-9.2-5.4l0.1,0
			C82.1,9.2,76.5,8.5,71,9.3c-2.7,0.4-5.4,1.1-7.9,2.1c-0.6,0.3-1.2,0.5-1.9,0.9c-0.7,0.3-1.3,0.5-2,0.8c-1.3,0.5-2.6,0.9-4,1.4
			l-0.1,0l-0.1,0c-1.6,0.1-3.1,0.4-4.6,1c-1.5,0.6-2.8,1.4-4,2.5c-1.2,1-2.3,2.2-3.2,3.5c-0.9,1.3-1.7,2.7-2.3,4.1l0,0
			c-0.4,1.4-1.2,2.5-2.1,3.6c-0.8,1.1-1.8,2.1-2.7,3.1c-1.9,2-3.9,3.8-6,5.5l-0.1-0.5c1.4,0.4,3,0,4.4-0.5c1.4-0.5,2.8-1.3,4.2-2
			c1.3-0.8,2.7-1.6,4-2.5c0.7-0.4,1.3-0.9,2-1.2c0.2-0.1,0.4-0.2,0.6-0.3c0.1,0,0.2-0.1,0.4-0.1c0.1,0,0.2,0,0.3,0.1
			c0.1,0.1,0.1,0.3,0.1,0.3c-0.1,0.6-0.4,0.8-0.5,1.2c-0.6,1.4-0.8,3-0.9,4.5c-0.1,1.5-0.1,3.1,0.1,4.6c0,0.1,0,0.2,0.1,0.2
			c0,0,0,0,0,0c0,0,0,0-0.1-0.1c-0.1,0-0.2,0-0.2,0.1c0,0,0,0,0-0.1c0-0.2,0.1-0.4,0.1-0.6c0-0.4,0.1-0.8,0.2-1.2
			c0.2-0.8,0.5-1.5,0.9-2.2c0.8-1.4,2-2.5,3.3-3.4l0,0l0,0c2.2-1.2,4.3-2.7,5.7-4.7c0.7-1,1.3-2.2,1.6-3.4
			C56.6,24.9,56.7,23.6,56.4,22.4L56.4,22.4L56.4,22.4z"/>
	</g>
	<g>
		<path class="st3" d="M85.9,22.4c0.4,0.4,0.9,0.8,1.5,1.4C86.7,21.8,85.9,22.4,85.9,22.4z"/>
		<path d="M85.7,22.4l0.2,0c0.2,0,0.4,0,0.6,0.1c0.2,0.1,0.3,0.2,0.4,0.3c0.1,0.1,0.1,0.4,0.2,0.5c0.1,0.2,0.2,0.3,0.4,0.3l-0.3,0.2
			c-0.1-0.2-0.3-0.3-0.4-0.4c-0.1-0.1-0.2-0.3-0.3-0.4c-0.1-0.1-0.1-0.2-0.2-0.3c0-0.1-0.1-0.2-0.4-0.3L85.7,22.4z M85.8,22.4
			c0.1-0.3,0.4-0.4,0.7-0.4c0.3,0.1,0.5,0.2,0.7,0.4c0.2,0.2,0.2,0.4,0.3,0.6c0.1,0.2,0,0.4,0,0.7l0,1l-0.3-0.8
			c-0.1-0.2-0.2-0.3-0.3-0.4c-0.2-0.1-0.4-0.1-0.5-0.2c-0.1-0.1-0.2-0.2-0.3-0.4C85.9,22.9,85.9,22.7,85.8,22.4L85.8,22.4L85.8,22.4
			z"/>
	</g>
	<g>
		<path class="st3" d="M123.2,58.9c-0.1,1.4-0.1,2.8-0.3,4.2C123.5,61.7,123.5,60.3,123.2,58.9z"/>
		<path d="M123.2,58.8l0.1,0.1c0.2,0.4,0.2,0.7,0.3,1.1c0,0.4,0,0.7,0,1.1c-0.1,0.3-0.3,0.7-0.3,1c-0.1,0.3,0,0.7,0,1.1l-0.5-0.1
			c0-0.7,0.1-1.4,0.1-2c0.1-0.7,0.2-1.3,0.3-2.1L123.2,58.8z M123.3,58.9c0.5,0.6,0.6,1.4,0.6,2.2c-0.1,0.8-0.3,1.5-0.7,2.1
			l-1.1,1.7l0.6-1.8c0.1-0.3,0.2-0.7,0.2-1c0-0.4-0.1-0.7-0.2-1.1c0-0.4,0-0.7,0.1-1C122.9,59.6,123,59.3,123.3,58.9L123.3,58.9
			L123.3,58.9z"/>
	</g>
	<g>
		<path class="st3" d="M109.5,71.8c0,0.1,0,0.2,0,0.3C109.5,72,109.5,71.8,109.5,71.8z"/>
		<path d="M109.5,71.8L109.5,71.8c0.2,0,0.3,0.1,0.4,0.1c0.1,0,0.1,0.1,0,0.1c-0.1,0-0.2,0.1-0.3,0.1c0,0,0,0.1,0.1,0.1h-0.5
			c-0.2-0.1-0.3-0.1-0.3-0.1C109,72,109.1,71.9,109.5,71.8L109.5,71.8z M109.6,71.8c0.3,0,0.4,0.1,0.5,0.2c0,0.1-0.1,0.1-0.3,0.2
			l-1.9,0.5l1.4-0.5c0.1,0,0.1-0.1,0.1-0.1c0,0-0.2,0-0.3-0.1c-0.1,0,0-0.1,0-0.1C109.2,71.9,109.3,71.9,109.6,71.8L109.6,71.8
			L109.6,71.8z"/>
	</g>
	<path class="st9" d="M133.3,37.5c0,0-10.5,3.5-15.1-5.6c-4.6-9.1-14.6-11.8-14.6-11.8l3-0.8c-5.2,0.8-19.2-8.6-19.2-8.6
		c-1.3-0.5-2.6-0.9-3.9-1.2C89.2,15.5,98,16,103,21c3.3,3.3-6.6,10-4.4,13.3c3.3,4.4,8.9-6.6,12.2-4.4c10.9,5.9,12.9,17.2,12.4,29
		c0.3,1.3,0.2,2.8-0.3,4.2c0.1-1.4,0.2-2.8,0.3-4.2c-0.3-1.8-1.2-3.4-2.5-4.6c-1.1,10-1.1,19.9-5.5,29.9c0-1.1,1.1-3.3-1.1-4.4
		c-1.1,8.5-8.3,14-13.7,20.3c-0.7,3.1,1.7,5.2,1.7,5.2s-0.4-4.7,4.4-7.5c4.8-2.8,8.9-11.4,8.9-11.4c-2.7,7.1-0.2,9.4-0.2,9.4
		s0.2-5.9,5.4-13.5c3.5-5.1,4.1-15,4.1-19.1c0-0.2,0-0.4,0-0.7c-0.1-1.9,0-1.3,0,0.7c0.2,5.6,1.1,11,1.1,11
		c-0.9-7.1,3.1-17.6,3.1-17.6c0.7-10.9-1.2-13.7-2.2-14.5c-0.2-0.1-0.5-0.1-0.7-0.3c0,0,0.3,0,0.7,0.3
		C129.5,42.7,133.3,37.5,133.3,37.5z"/>
	<g>
		<path class="st3" d="M125.9,41.8c0.2,0.1,0.5,0.2,0.7,0.3C126.2,41.7,125.9,41.8,125.9,41.8z"/>
		<path d="M125.9,41.7L125.9,41.7c0.2-0.2,0.3-0.2,0.4-0.2c0.1,0,0.1,0,0.1,0c0,0.1,0,0.2,0.1,0.3c0,0.1,0.1,0,0.2-0.1l-0.2,0.5
			c-0.2,0.1-0.3,0.1-0.4,0.1C126,42.3,126,42.1,125.9,41.7L125.9,41.7z M125.9,41.7c0.2-0.3,0.4-0.4,0.6-0.4
			c0.2,0.1,0.3,0.2,0.3,0.5l0,1l-0.2-0.5c0-0.1-0.1-0.2-0.2-0.2c-0.1,0-0.2,0.1-0.3,0.2c-0.1,0-0.2,0-0.2-0.1
			C125.9,42.1,125.9,42,125.9,41.7L125.9,41.7L125.9,41.7z"/>
	</g>
	<g>
		<path class="st3" d="M124.7,62.4c0,0.2,0,0.4,0,0.7C124.7,61.2,124.6,60.5,124.7,62.4z"/>
		<path d="M124.7,62.4c0,0.2,0.4,0.4,0.4,0.7l-0.9,0c-0.1-0.2,0.3-0.5,0.3-0.7c0-0.2-0.2-0.5-0.3-0.7l-0.1-0.2l0-0.1c0,0,0,0,0,0
			l0,0l0,0l0,0l0,0c0,0,0,0.1,0.1,0.2c0,0.1,0.2,0.2,0.4,0.2c0.2,0,0.3-0.1,0.4-0.2c0.1-0.1,0.1-0.1,0.1-0.1l0,0c0,0,0-0.1,0-0.1
			c0,0,0,0,0,0c0,0.1,0,0.2,0,0.3C125.1,61.9,124.7,62.2,124.7,62.4z M124.6,62.4c0-0.2-0.4-0.5-0.5-0.7c0-0.1,0-0.2,0-0.4l0-0.1
			c0,0,0-0.1,0-0.1l0,0c0,0,0,0,0.1-0.1c0,0,0.2-0.2,0.4-0.2c0.2,0,0.4,0.1,0.4,0.2c0.1,0.1,0.1,0.1,0.1,0.2l0,0l0,0l0,0l0,0
			c0,0.1,0,0.1,0,0.1c0,0,0,0.1,0,0.1l0,0.2c-0.1,0.3-0.3,0.5-0.3,0.8c0,0.2,0.4,0.5,0.3,0.7l-0.9,0
			C124.3,62.9,124.6,62.7,124.6,62.4z"/>
	</g>
	<g>
		<path class="st5" d="M104.9,27.2c4-7.2,4-14.7-0.1-16.9c-4.1-2.1-10.6,2-14.6,9.1c-2.7,4.9-3.6,10-2.5,13.4c1.9,1.9,4.2,3,6.5,3.9
			C97.8,35.9,102,32.4,104.9,27.2z"/>
		<g>
			<path d="M104.9,27.2c1-1.9,1.8-3.9,2.2-5.9c0.4-2.1,0.6-4.2,0.2-6.2c-0.2-1-0.5-2-1.1-2.8c-0.5-0.8-1.3-1.5-2.2-1.8
				c-1.9-0.7-4.1-0.1-5.9,0.8c-3.7,2-6.4,5.6-8.2,9.4c-0.9,1.9-1.6,3.9-1.9,6c-0.4,2-0.4,4.2,0.2,6.1L88,32.5c1.8,1.7,4,2.9,6.3,3.8
				l-0.3,0c1.1-0.2,2.2-0.7,3.3-1.3c1-0.6,2-1.3,2.9-2.1c0.9-0.8,1.8-1.7,2.5-2.6C103.6,29.2,104.3,28.2,104.9,27.2z M105,27.2
				c-0.6,1.1-1.3,2.1-2,3.1c-0.7,1-1.5,2-2.4,2.9c-1.7,1.8-3.8,3.4-6.3,4l-0.1,0l-0.1,0c-2.5-0.8-4.8-2.1-6.7-4l-0.1-0.1l0-0.1
				c-0.6-2.2-0.5-4.4-0.1-6.6c0.5-2.1,1.2-4.2,2.3-6.1c2.1-3.8,4.9-7.2,8.6-9.5c0.9-0.6,1.9-1,3-1.3c1.1-0.3,2.2-0.3,3.3,0.1
				c1.1,0.3,2.1,1.1,2.7,2.1c0.7,0.9,1,2,1.2,3.1c0.3,2.2-0.1,4.4-0.6,6.5C106.9,23.4,106,25.3,105,27.2z"/>
		</g>
	</g>
	<path class="st13" d="M105.3,10.6c2.7,8.4,0.1,18.5-7.8,21.5c-3,1.2-6.4,0.8-9.9,0.3c0,0.1,0.1,0.3,0.1,0.4c1.9,1.9,4.2,3,6.5,3.9
		c3.6-0.8,7.9-4.3,10.7-9.5C108.8,20.3,108.9,13.1,105.3,10.6z"/>
	<g>
		<path class="st3" d="M98.2,29.9c2.7-5.2,3.5-10.9,1.7-12.8c-1.8-1.9-5.5,0.8-8.2,6c-1.9,3.5-2.8,7.3-2.6,10
			c0.8,1.5,1.8,2.6,2.8,3.4C93.8,36,96.3,33.6,98.2,29.9z"/>
		<path d="M98.2,29.9c1.4-2.6,2-5.5,2.2-8.4c0.1-1.4,0-2.9-0.6-4l-0.1-0.2c-0.1-0.1-0.1-0.1-0.2-0.2c-0.1-0.1-0.2-0.2-0.4-0.2
			c-0.3-0.1-0.6-0.2-0.9-0.1c-0.7,0.1-1.3,0.4-1.9,0.8c-2.4,1.7-3.8,4.4-4.9,7.1c-1.1,2.7-1.9,5.5-1.7,8.3l-0.1-0.2
			c0.3,0.6,0.7,1.2,1.1,1.8c0.4,0.5,1,1,1.5,1.4l-0.4-0.1c0.6-0.1,1.3-0.4,1.9-0.9c0.6-0.4,1.2-0.9,1.7-1.5
			C96.5,32.5,97.5,31.2,98.2,29.9z M98.3,29.9c-0.7,1.4-1.5,2.7-2.4,4c-0.5,0.6-1,1.2-1.6,1.8c-0.6,0.5-1.3,1-2.2,1.2l-0.2,0
			l-0.2-0.1c-1.3-0.9-2.4-2.1-3-3.5l0-0.1l0-0.1c-0.1-1.6,0.2-3.1,0.6-4.5c0.4-1.5,0.9-2.9,1.6-4.2c0.7-1.3,1.4-2.6,2.3-3.8
			c0.9-1.2,1.8-2.3,3-3.3c0.6-0.4,1.2-0.9,2-1c0.4-0.1,0.8-0.1,1.2,0.1c0.2,0.1,0.4,0.2,0.6,0.3c0.1,0.1,0.1,0.1,0.2,0.2
			c0.1,0.1,0.2,0.2,0.2,0.2c0.5,0.7,0.8,1.5,0.9,2.2c0.1,0.8,0.1,1.5,0,2.3C100.9,24.6,99.6,27.3,98.3,29.9z"/>
	</g>
	<path d="M57.7,77.9c0.1,0.9-1.1,2.4-2.8,2.6c-1.6,0.2-3.3-0.8-3.4-1.7c-0.1-0.7,1.2-2.3,2.8-2.5C55.9,76.1,57.6,77.2,57.7,77.9z"/>
	<g>
		<path class="st0" d="M34.8,82.3c0.5-2.7,3-3,6.7-2.3c3.7,0.7,7,2.1,6.5,4.7c-0.5,2.7-4.7,5.8-8.4,5.1C36,89.2,34.3,85,34.8,82.3z"
			/>
		<path d="M34.8,82.3c0.1-0.8,0.5-1.5,1.2-2c0.6-0.5,1.4-0.6,2.2-0.7c1.6-0.1,3.2,0.1,4.7,0.4c1.5,0.3,3.1,0.7,4.5,1.8
			c0.7,0.5,1.2,1.4,1.2,2.4c0,0.2,0,0.4-0.1,0.7c0,0.2-0.1,0.4-0.2,0.6c-0.2,0.4-0.4,0.8-0.6,1.1c-1,1.4-2.3,2.4-3.8,3
			c-1.5,0.6-3.2,0.8-4.8,0.3c-1.6-0.5-2.8-1.7-3.5-3.1C34.9,85.5,34.5,83.9,34.8,82.3z M34.8,82.3c-0.2,1.5,0.1,3.1,0.9,4.5
			c0.8,1.3,2.1,2.4,3.5,2.7c1.5,0.4,3,0,4.3-0.6c1.3-0.7,2.5-1.6,3.3-2.8c0.2-0.3,0.4-0.6,0.5-0.9c0.1-0.2,0.1-0.3,0.1-0.5
			c0-0.1,0-0.3,0-0.5c0-0.6-0.3-1.2-0.8-1.7c-1.1-0.9-2.5-1.5-4-1.9c-1.5-0.4-3-0.8-4.5-0.8c-0.8,0-1.6,0.1-2.2,0.6
			C35.3,80.8,34.9,81.6,34.8,82.3z"/>
	</g>
	<g>
		<path class="st7" d="M47.1,82.2c-1.2-1.1-3.4-1.8-5.6-2.2c-3.7-0.7-6.2-0.4-6.7,2.3c-0.1,0.3-0.1,0.6-0.1,1
			C38.7,83.7,43,82.7,47.1,82.2z"/>
		<path d="M47.1,82.2c-1-0.8-2.2-1.3-3.4-1.6c-1.2-0.3-2.4-0.6-3.7-0.7c-1.2-0.1-2.5-0.2-3.7,0.3c-0.5,0.3-1,0.7-1.2,1.3
			s-0.3,1.2-0.3,1.8l-0.1-0.1c2.1,0.2,4.1,0.1,6.2-0.2C43,82.8,45,82.4,47.1,82.2z M47.1,82.2c-2.1,0.3-4.1,0.7-6.2,0.9
			c-2.1,0.3-4.2,0.4-6.2,0.2l-0.1,0v-0.1c0-0.6,0.1-1.3,0.4-1.9c0.3-0.6,0.8-1.1,1.4-1.4c1.2-0.5,2.5-0.4,3.8-0.3
			c1.3,0.2,2.5,0.4,3.7,0.8C45,80.9,46.2,81.4,47.1,82.2z"/>
	</g>
	<ellipse class="st7" cx="52.6" cy="78.4" rx="0.5" ry="0.3"/>
	<ellipse class="st10" cx="55.9" cy="83.4" rx="6.8" ry="1.9"/>
	<ellipse class="st7" cx="59.3" cy="81.8" rx="1.6" ry="0.9"/>
	<ellipse class="st10" cx="60.9" cy="46.6" rx="6.8" ry="1.9"/>
	<ellipse class="st7" cx="64.4" cy="45.1" rx="1.6" ry="0.9"/>
	<g>
		<path class="st5" d="M79.6,105.5c0,0-64.4-46.6-9.2,12.6"/>
		<path d="M79.6,105.5c-2.6-1.7-5.1-3.4-7.7-5.1c-2.6-1.7-5.2-3.3-7.8-4.9c-2.6-1.6-5.3-3.2-8-4.5c-1.4-0.7-2.7-1.3-4.2-1.8
			c-0.7-0.2-1.4-0.5-2.1-0.5c-0.3,0-0.7,0-0.9,0.1c-0.2,0.1-0.3,0.2-0.3,0.5c0,0.6,0.2,1.3,0.5,2c0.3,0.7,0.7,1.3,1.1,2
			c0.8,1.3,1.7,2.6,2.6,3.8c1.8,2.5,3.8,4.8,5.7,7.2c2,2.4,4,4.7,6,7l6.1,7c-4.3-4.4-8.6-8.9-12.6-13.5c-2-2.3-4-4.7-5.8-7.2
			c-0.9-1.2-1.8-2.5-2.6-3.8c-0.4-0.7-0.8-1.4-1.1-2.1c-0.3-0.7-0.7-1.5-0.6-2.5c0-0.2,0.1-0.5,0.3-0.8c0.2-0.2,0.4-0.4,0.7-0.5
			c0.5-0.2,1-0.2,1.4-0.1c0.8,0.1,1.6,0.3,2.3,0.6c1.5,0.5,2.9,1.2,4.3,1.9c2.7,1.4,5.4,3,8,4.7C69.7,98.2,74.7,101.8,79.6,105.5z"
			/>
	</g>
</g>
</svg>
