<?xml version="1.0" encoding="utf-8"?>
<!-- Generator: Adobe Illustrator 15.1.0, SVG Export Plug-In . SVG Version: 6.00 Build 0)  -->
<!DOCTYPE svg PUBLIC "-//W3C//DTD SVG 1.1//EN" "http://www.w3.org/Graphics/SVG/1.1/DTD/svg11.dtd">
<svg version="1.1" id="animals" xmlns="http://www.w3.org/2000/svg" xmlns:xlink="http://www.w3.org/1999/xlink" x="0px" y="0px"
	 width="102px" height="176px" viewBox="0 0 102 176" style="enable-background:new 0 0 102 176;" xml:space="preserve">
<style type="text/css">
<![CDATA[
	.st0{opacity:0.43;fill:#FF8D8D;}
	.st1{fill:#FFAA00;stroke:#000000;stroke-miterlimit:10;}
	.st2{opacity:0.48;}
	.st3{fill:#B77500;}
	.st4{opacity:0.59;fill:#3A1F06;}
	.st5{fill:#231F20;}
	.st6{opacity:0.54;fill:#B28452;}
	.st7{fill:#5E2F00;}
	.st8{opacity:0.54;fill:#B77500;}
	.st9{fill:#FCC581;}
	.st10{fill:none;stroke:#000000;stroke-miterlimit:10;}
	.st11{fill:#FFAA00;}
	.st12{fill:#FFD997;}
	.st13{fill:#FFFFFF;}
	.st14{fill:none;stroke:#000000;stroke-width:0.5;stroke-miterlimit:10;}
	.st15{fill:#FFD997;stroke:#000000;stroke-miterlimit:10;}
	.st16{opacity:0.57;fill:#FF8D8D;}
	.st17{opacity:0.42;fill:#3A1F06;}
]]>
</style>
<g>
	<path class="st2" d="M61.9,120.2c0,0,19.9,5.3,20.4,12c0.5,6.7-6.3,9.5-16.5,21.1l-1.6,1.8l-2.3-1.8c0,0,8.3-9.7,13.2-13.4
		c4.9-3.7,5.9-8,0.9-12.3c-5-4.3-14.1-5.1-14.1-5.1V120.2z"/>
	<path class="st1" d="M64,120.2c0,0,19.9,5.3,20.4,12c0.5,6.7-6.3,9.5-16.5,21.1l-1.6,1.8l-2.3-1.8c0,0,8.3-9.7,13.2-13.4
		c4.9-3.7,5.9-8,0.9-12.3S64,122.4,64,122.4V120.2z"/>
	<path class="st8" d="M81.8,131.6c0.9-6.2-7.8-5-11.3-9.4c-3.6-1.3-6.4-2.1-6.4-2.1v2.3c0,0,9.1,0.8,14.1,5.1s4,8.6-0.9,12.3
		c-2.6,1.9-6.1,5.5-8.9,8.5C75.8,145.7,81.8,140.5,81.8,131.6z"/>
	<path class="st2" d="M24.6,126.3c0,0-13,2.6-12.5,13.9c0.5,11.3-1.1,16-1.1,16s2.1,5.8,11.8-14.1C22.8,142.1,34.3,126,24.6,126.3z"
		/>
	<g>
		<path class="st11" d="M22.5,126.3c0,0-13,2.6-12.5,13.9c0.5,11.3-1.1,16-1.1,16s2.1,5.8,11.8-14.1C20.7,142.1,32.2,126,22.5,126.3
			z"/>
		<path d="M22.5,126.4c-2.9,0.7-5.7,2.1-7.9,4.1c-2.2,2-3.7,4.7-4.1,7.6c-0.2,1.4-0.1,3-0.1,4.5c0,1.5-0.1,3.1-0.1,4.6
			c-0.2,3-0.4,6.1-1.1,9.1l0-0.2c0.1,0.3,0.4,0.6,0.8,0.6c0.3,0,0.7-0.1,1-0.3c0.7-0.4,1.2-1,1.8-1.6c1.1-1.3,2-2.7,2.8-4.1
			c1.7-2.8,3.2-5.9,4.7-8.8l0,0l0,0c0.9-1.3,1.8-2.7,2.6-4.1c0.8-1.4,1.6-2.9,2.2-4.3c0.6-1.5,1.2-3.1,1-4.7
			c-0.1-0.8-0.6-1.5-1.3-1.9C24.1,126.4,23.3,126.3,22.5,126.4z M22.5,126.3c0.8,0,1.7,0,2.5,0.4c0.8,0.3,1.3,1.1,1.5,2
			c0.3,1.7-0.1,3.4-0.6,5c-0.5,1.6-1.3,3.1-2,4.6c-0.8,1.5-1.7,2.9-2.6,4.3l0-0.1c-1.4,3-3.1,6-4.9,8.9c-0.9,1.4-1.9,2.8-3.1,4.1
			c-0.6,0.6-1.2,1.2-2,1.6c-0.4,0.2-0.9,0.4-1.4,0.3c-0.5-0.1-0.9-0.5-1.1-0.9l0-0.1l0-0.1c0.5-1.4,0.7-2.9,0.9-4.4
			c0.2-1.5,0.2-3,0.3-4.5s0-3-0.1-4.5l-0.1-2.3c-0.1-0.8-0.1-1.6,0-2.3c0.2-1.6,0.6-3.1,1.4-4.5c0.8-1.4,1.9-2.5,3.1-3.5
			C16.6,128.2,19.5,127,22.5,126.3L22.5,126.3L22.5,126.3z"/>
	</g>
	<path class="st8" d="M22.5,126.3c0,0-6.9,1.4-10.4,6.5c0.4,7.9,3.7,17.6-0.9,23.8c1.7-1,4.7-4.5,9.5-14.5
		C20.7,142.1,32.2,126,22.5,126.3z"/>
	<path class="st2" d="M50.8,123c-8.6,0-16.1,1-20.5,2.6c-1-0.8-2-1.6-3-2.5c-1.6,0.6-3.8,1.5-7.1,2.9c-9.9,4,0,21.8,0,21.8
		c7.5,24.5,7.6-6,7.6-6l10-8.4c3.7,0.5,8.2,0.9,12.9,0.9c13.5,0,24.4-2.5,24.4-5.6C75.2,125.5,64.3,123,50.8,123z"/>
	<g>
		<path class="st11" d="M52.7,76.7c0,0,1.7,19.9,7.4,27.1c5.7,7.2,15.2,31.3-21.7,26.4l-12.6,10.6c0,0-0.1,30.4-7.6,6
			c0,0-9.9-17.8,0-21.8c9.9-4,10.5-4.2,10.5-4.2s-0.1-8.1,4.3-16.5c4.4-8.4,1.5-19.8,1.5-19.8S38.5,74.8,52.7,76.7z"/>
		<path d="M52.8,76.7c0.4,3.2,0.9,6.5,1.5,9.6c0.6,3.2,1.4,6.4,2.4,9.4c1,3.1,2.3,6.1,4.4,8.6c1.9,2.7,3.3,5.7,4.3,8.9
			c0.9,3.2,1.2,6.7-0.1,9.9c-0.6,1.6-1.7,3-3,4.1c-1.3,1.1-2.8,1.9-4.4,2.4c-3.1,1.1-6.5,1.4-9.7,1.4c-3.3,0-6.5-0.3-9.8-0.7l0.1,0
			l-6.3,5.2l-6.3,5.3l0.1-0.1c0,2.3-0.1,4.5-0.2,6.8c-0.2,2.3-0.4,4.5-1,6.8c-0.2,0.6-0.4,1.1-0.7,1.6c-0.2,0.2-0.5,0.5-0.9,0.6
			c-0.4,0.1-0.8-0.1-1-0.3c-1-0.8-1.4-1.9-1.9-2.9c-1-2.1-1.7-4.2-2.4-6.4l0,0.1c-1.4-2.7-2.6-5.4-3.5-8.3c-0.8-2.9-1.4-6-0.7-9
			c0.4-1.5,1.2-3,2.5-4c0.6-0.5,1.3-0.9,2.1-1.2l2.1-0.9c2.8-1.1,5.5-2.2,8.3-3.3l-0.4,0.5c0.1-3.2,0.6-6.3,1.5-9.4
			c0.4-1.5,0.9-3,1.6-4.5c0.3-0.7,0.6-1.5,1-2.2c0.4-0.7,0.7-1.4,1-2.1c1.2-2.8,1.7-5.9,1.8-9c0.1-3.1-0.2-6.2-0.8-9.2l0-0.1l0-0.1
			c0.8-1.7,2-3,3.4-4.2c1.4-1.1,3-2,4.6-2.6C45.6,76.2,49.2,76.1,52.8,76.7L52.8,76.7L52.8,76.7z M52.7,76.7
			c-3.5-0.4-7.1-0.2-10.3,1c-1.6,0.6-3.1,1.5-4.4,2.6c-1.3,1.1-2.4,2.5-3.1,4l0-0.2c0.7,3.1,1,6.2,1,9.4c-0.1,3.2-0.5,6.3-1.7,9.3
			c-0.3,0.7-0.7,1.5-1,2.1c-0.3,0.7-0.6,1.4-0.9,2.1c-0.6,1.4-1.1,2.9-1.5,4.4c-0.8,3-1.3,6.1-1.4,9.1l0,0.4l-0.4,0.1
			c-2.7,1-5.5,2.2-8.2,3.3l-2.1,0.8c-0.7,0.3-1.3,0.6-1.8,1c-1.1,0.8-1.8,2.1-2.1,3.5c-0.7,2.8-0.1,5.8,0.7,8.6
			c0.8,2.8,1.9,5.6,3.3,8.2l0,0l0,0c0.7,2.2,1.3,4.3,2.2,6.4c0.5,1,1,2.1,1.7,2.7c0.8,0.8,1.4-0.6,1.7-1.6c0.6-2.1,0.9-4.4,1.1-6.6
			c0.2-2.2,0.3-4.5,0.3-6.8v-0.1l0.1-0.1l6.3-5.3l6.3-5.3l0.1-0.1l0.1,0c3.2,0.4,6.5,0.6,9.7,0.6c3.2-0.1,6.5-0.5,9.5-1.6
			c3-1.1,5.7-3.2,6.8-6.1c1.1-2.9,0.9-6.3,0.1-9.3c-0.8-3.1-2.2-6.1-4.1-8.7c-0.4-0.6-1-1.3-1.4-2c-0.4-0.7-0.8-1.4-1.2-2.2
			c-0.7-1.5-1.2-3.1-1.7-4.6C54.1,89.7,53.2,83.2,52.7,76.7z"/>
	</g>
	<path class="st8" d="M60.1,103.8c-5.7-7.2-7.4-27.1-7.4-27.1c-1.9-0.3-3.7-0.3-5.3-0.2c1.2,5.7-0.8,11.4-3.7,17.1
		c2.1,1.1,3.2-2.1,4.2-1.1c6.3,10.6,8.4,24.3,3.2,31.7c-6.3,8.4-26.4,1.1-27.4,13.7c0,5.7-0.9,11.6-1.9,17.5c3.9,4.9,4-14.7,4-14.7
		l12.6-10.6C75.3,135.1,65.8,111,60.1,103.8z"/>
	<g>
		<defs>
			<path id="XMLID_2_" d="M69.7,159.3c-1.2,3.6-9.2,8.7-9.2,8.7c-1.3-6.8-3.5-8.4-2.3-12.1c1.2-3.6,3.7-6.6,7.2-5.4
				C69,151.8,70.9,155.7,69.7,159.3z"/>
		</defs>
		<use xlink:href="#XMLID_2_"  style="overflow:visible;fill:#5E2F00;"/>
		<clipPath id="XMLID_4_">
			<use xlink:href="#XMLID_2_"  style="overflow:visible;"/>
		</clipPath>
		<use xlink:href="#XMLID_2_"  style="overflow:visible;fill:none;stroke:#000000;stroke-miterlimit:10;"/>
	</g>
	<g>
		<defs>
			<path id="XMLID_1_" d="M69.7,159.3c-1.2,3.6-9.2,8.7-9.2,8.7c-1.3-6.8-3.5-8.4-2.3-12.1c1.2-3.6,3.7-6.6,7.2-5.4
				C69,151.8,70.9,155.7,69.7,159.3z"/>
		</defs>
		<use xlink:href="#XMLID_1_"  style="overflow:visible;fill:#5E2F00;"/>
		<clipPath id="XMLID_5_">
			<use xlink:href="#XMLID_1_"  style="overflow:visible;"/>
		</clipPath>
		<use xlink:href="#XMLID_1_"  style="overflow:visible;fill:none;stroke:#000000;stroke-miterlimit:10;"/>
	</g>
	<g>
		<path class="st12" d="M35.3,117.9c3-12.9,1.3-25.9,3.7-38.8c-3.5,2.3-4.8,5.3-4.8,5.3s2.8,11.4-1.5,19.8
			c-4.3,8.4-4.2,16.5-4.2,16.5s-0.1,0-0.4,0.2C31.4,121.1,34.2,120.8,35.3,117.9z"/>
		<path d="M35.3,117.9c0.7-3.2,1.1-6.4,1.3-9.7c0.2-3.2,0.3-6.5,0.4-9.7c0.1-3.3,0.3-6.5,0.6-9.8c0.3-3.2,0.7-6.5,1.3-9.7l0.3,0.2
			c-1,0.7-1.9,1.4-2.7,2.3c-0.4,0.4-0.8,0.9-1.1,1.4c-0.3,0.5-0.6,1-0.9,1.5l0-0.2c0.8,3.1,1.1,6.2,1.1,9.4
			c-0.1,3.2-0.5,6.4-1.7,9.3c-0.3,0.7-0.7,1.5-1,2.1c-0.3,0.7-0.7,1.4-0.9,2.1c-0.6,1.4-1.1,2.9-1.5,4.4c-0.4,1.5-0.8,3-1.1,4.5
			c-0.3,1.5-0.5,3.1-0.6,4.6l0,0.2l-0.2,0.1l-0.4,0.1l-0.1-0.4c1.4,0.1,2.8,0.3,4.2-0.1c0.7-0.2,1.3-0.5,1.8-1
			C34.6,119.1,35,118.5,35.3,117.9z M35.4,117.9c-0.3,0.7-0.6,1.3-1.2,1.8c-0.5,0.5-1.2,0.8-1.9,1c-1.4,0.4-2.8,0.4-4.3,0.4l-1,0
			l0.9-0.4l0.4-0.2l-0.2,0.2c-0.1-3.2,0.4-6.3,1.2-9.4c0.4-1.5,0.9-3,1.5-4.5c0.3-0.7,0.6-1.5,1-2.2c0.4-0.7,0.7-1.4,1-2.1
			c1.2-2.8,1.7-5.9,1.8-9c0.1-3.1-0.1-6.2-0.7-9.2l0-0.1l0-0.1c0.3-0.6,0.6-1.1,1-1.6c0.4-0.5,0.8-1,1.2-1.4
			c0.8-0.9,1.8-1.7,2.8-2.3l0.3-0.2l-0.1,0.4c-0.6,3.2-0.9,6.4-1.1,9.7C38,92,38,95.2,37.8,98.5c-0.1,3.3-0.3,6.5-0.8,9.8
			C36.7,111.5,36.1,114.7,35.4,117.9L35.4,117.9L35.4,117.9z"/>
	</g>
	<path class="st1" d="M43.4,94.3c0,0,5.6-6.7,9,0c3.4,6.7,2.5,35,2.5,35l5.7,2.3c0,0,3.8,3.3-8.7,1.1l-2.3-0.7l-4.9-28.2"/>
	<path class="st8" d="M60.6,131.6l-5.7-2.3c0,0,1-28.4-2.5-35c-1.2-2.2-2.5-3-3.9-3c3.6,12.6,8.5,30.6,0.8,39.5l0.2,1.1l2.3,0.7
		C64.4,134.9,60.6,131.6,60.6,131.6z"/>
	<path class="st17" d="M38.6,73.5c-4.5,2.4-4.4,8.4-4.1,14.4l0.2-0.4l1.1,3.5c2.5-1.8,3.3-8.3,3.3-8.3c-0.1,0.9,0.3,1.9,0.9,2.9
		c0.4-0.7,0.7-1.4,1.1-2.2c-0.3,0.7-0.7,1.5-1.1,2.2c1.5,2.3,4.3,4.3,4.3,4.3l0.8-6.2c-0.2,2.5,4.1,6.2,4.1,6.2
		c-1.5-3.3,2.9-8.1,2.9-8.1l0.2,7.2c1-0.9,1.8-1.6,2.4-2.2C52.3,77.5,48.5,69,38.6,73.5z M41.2,83.4c0.3-0.6,0.6-1.3,0.8-1.9
		C41.8,82.1,41.5,82.8,41.2,83.4z M42.5,80.5c0.1-0.3,0.2-0.6,0.3-0.9C42.7,79.9,42.6,80.2,42.5,80.5z"/>
	<g>
		<path class="st7" d="M44.8,48.5c-5.1-7-23-8.3-27.8-17.8l-4.9,11.8c-2.8,1.2-3.2,12.3-3.2,12.3l1.9-1.9c2.6,6.9,0.5,12.5,0.5,12.5
			l2.1-3.4l10.6,15.7c0,0,0,0,0-0.1c0-0.1,0-0.1,0-0.1c-0.1-0.2-0.1-0.5-0.2-0.7c0-0.1,0-0.1-0.1-0.2c0-0.1,0-0.2,0,0
			c0,0,0,0.1,0.1,0.2c0,0.1,0.1,0.4,0.2,0.7c0,0.1,0,0.1,0,0.1c0,0,0,0,0,0.1c0.7,2.6,7.2,13,7.2,13l3-5.1l1.2,3.5
			c2.6-1.8,3.5-8.3,3.5-8.3c-0.1,0.9,0.3,1.9,1,2.9C46.6,71.8,50.4,56.1,44.8,48.5z"/>
		<g>
			<path d="M44.8,48.5c-1.7-2.2-4.3-3.6-6.8-4.8c-2.5-1.2-5.2-2.1-7.8-3.2c-2.6-1.1-5.2-2.2-7.6-3.6c-2.4-1.5-4.7-3.4-6-6l0.8,0
				c-0.8,2-1.6,3.9-2.4,5.9l-2.5,5.9l-0.1,0.2l-0.1,0.1c-0.4,0.2-0.7,0.5-0.9,1c-0.3,0.4-0.5,0.9-0.6,1.4c-0.3,1-0.6,2-0.8,3.1
				c-0.4,2.1-0.6,4.3-0.7,6.4l-0.4-0.2l2-1.8l0.2-0.2l0.1,0.3c0.8,2,1.2,4.1,1.3,6.3c0.1,1.1,0,2.1-0.1,3.2
				c-0.1,1.1-0.3,2.1-0.7,3.1l-0.3-0.1l2.1-3.4l0.1-0.2l0.2,0.2l10.8,15.6l-0.7,0.3l-0.3-1l0-0.1l0,0c0,0,0,0,0,0
				c-0.2,0.1,1.4-0.4,0.7-0.2l0,0l0,0l0,0.1l0.1,0.3l0.2,0.5c0.2,0.7,0.5,1.3,0.8,1.9c0.6,1.3,1.3,2.5,2.1,3.8
				c1.4,2.5,2.9,5,4.4,7.4l-0.8,0l3-5.1l0.6-1l0.4,1.1l1.2,3.5l-0.8-0.3c0.5-0.4,1-0.9,1.3-1.5c0.4-0.6,0.7-1.3,0.9-2
				c0.5-1.4,0.8-2.9,1.1-4.3l1,0.1c-0.1,0.8,0.4,1.7,0.9,2.5l-0.9,0c1.5-2.7,2.8-5.4,4-8.3c1.1-2.8,2.1-5.8,2.8-8.8
				c0.7-3,1.1-6.1,1-9.1C47.2,54.2,46.6,51,44.8,48.5z M44.9,48.4c1.8,2.5,2.6,5.7,2.7,8.8c0.2,3.1-0.1,6.2-0.7,9.3
				c-0.6,3-1.4,6-2.5,8.9c-1.1,2.9-2.4,5.8-3.9,8.5l-0.4,0.7l-0.5-0.7c-0.3-0.4-0.6-0.9-0.8-1.5c-0.2-0.5-0.4-1.1-0.3-1.8l1,0.1
				c-0.2,1.6-0.6,3.1-1.1,4.6c-0.3,0.7-0.6,1.5-1,2.2c-0.4,0.7-0.9,1.4-1.7,1.9l-0.6,0.4L35,89.2l-1.2-3.5l0.9,0.1l-3,5.1l-0.4,0.7
				l-0.4-0.7c-1.5-2.5-3-5-4.4-7.5c-0.7-1.3-1.4-2.5-2-3.9c-0.3-0.7-0.6-1.3-0.8-2.1l-0.1-0.5l-0.1-0.3l0-0.1l0,0l0,0
				c-0.7,0.2,0.9-0.3,0.7-0.2l0,0l0,0l0,0.1l0.3,1.1l0.6,2.2l-1.2-1.9L13.3,62l0.3,0l-2.1,3.4l-0.8,1.3l0.5-1.4c0.3-1,0.5-2,0.7-3.1
				c0.1-1,0.2-2.1,0.1-3.1c-0.1-2.1-0.6-4.2-1.3-6.1L11,53l-1.9,1.9l-0.4,0.4l0-0.6c0.1-2.2,0.2-4.4,0.6-6.5
				c0.2-1.1,0.4-2.2,0.7-3.2c0.2-0.5,0.4-1.1,0.7-1.6c0.3-0.5,0.6-1,1.3-1.3l-0.2,0.2l2.4-5.9c0.8-2,1.6-3.9,2.5-5.9l0.4-0.9
				l0.4,0.8c1.2,2.4,3.3,4.3,5.6,5.8c2.3,1.5,4.9,2.7,7.4,3.8c2.6,1.1,5.2,2.2,7.7,3.4c1.3,0.6,2.5,1.3,3.7,2.1
				C42.9,46.4,44,47.3,44.9,48.4z"/>
		</g>
	</g>
	<path class="st4" d="M48.9,43.2c-5.3-7-23.8-8.3-28.8-17.8l-5.1,11.8c-2.9,1.2-3.3,12.3-3.3,12.3l2-1.9c2.7,6.9,0.5,12.5,0.5,12.5
		l2.1-3.4l11,15.7c0,0,0,0,0-0.1c0-0.1,0-0.1,0-0.1c-0.1-0.2-0.1-0.5-0.2-0.7c0-0.1,0-0.1-0.1-0.2c0-0.1,0-0.2,0,0
		c0,0,0,0.1,0.1,0.2c0,0.1,0.1,0.4,0.2,0.7c0,0.1,0,0.1,0,0.1c0,0,0,0,0,0.1c0.8,2.6,7.4,13,7.4,13l3.1-5.1l1.3,3.5
		c2.7-1.8,3.6-8.3,3.6-8.3c-0.1,0.9,0.4,1.9,1,2.9C50.8,66.5,54.7,50.8,48.9,43.2z"/>
	<g>
		<path class="st9" d="M75.6,51.9c0,15.2,0,28.8-33.1,27.4C12.4,78.2,9.8,68.3,16.6,52c5.8-13.9,7.6-27.5,25.9-27.5
			S75.6,36.8,75.6,51.9z"/>
		<g>
			<path d="M75.6,51.9c0,3.9,0.1,7.9-0.6,11.8c-0.3,2-0.9,3.9-1.8,5.7c-0.9,1.8-2.2,3.4-3.7,4.7c-3.1,2.6-7,4-10.9,4.7
				c-3.9,0.8-7.9,1-11.9,1c-4,0-7.9-0.3-11.9-0.8c-3.9-0.5-7.9-1.2-11.6-2.5c-1.9-0.7-3.7-1.6-5.3-2.8c-1.6-1.2-3-2.7-3.8-4.6
				c-0.8-1.8-1-3.9-1-5.9c0.1-2,0.5-4,1-5.9c0.5-1.9,1.2-3.8,2-5.6c0.7-1.8,1.4-3.7,2.1-5.5c1.4-3.7,2.7-7.5,4.5-11
				c1.9-3.5,4.5-6.8,8.1-8.8c3.6-2,7.7-2.6,11.7-2.5c8,0,16,2.5,22.3,7.5c3.1,2.5,5.8,5.5,7.7,9C74.6,44,75.7,48,75.6,51.9z
				 M75.5,51.9c0-3.9-1.1-7.9-3-11.3c-1.9-3.4-4.7-6.3-7.8-8.7c-6.3-4.6-14.2-6.9-21.9-7c-3.9,0-7.8,0.6-11.2,2.4
				c-3.4,1.8-5.9,4.9-7.8,8.3c-1.9,3.4-3.2,7.1-4.6,10.8c-0.7,1.8-1.4,3.7-2.2,5.5c-0.8,1.8-1.5,3.6-2,5.5c-0.6,1.9-1,3.8-1.1,5.7
				c-0.1,1.9,0.1,3.9,0.9,5.7c0.8,1.8,2.1,3.3,3.6,4.5c1.6,1.2,3.4,2,5.2,2.7c3.7,1.3,7.6,1.9,11.5,2.3c3.9,0.4,7.9,0.5,11.8,0.5
				c3.9,0,7.9-0.3,11.7-1c3.8-0.7,7.6-2,10.7-4.4c1.5-1.2,2.8-2.7,3.7-4.4c0.9-1.7,1.5-3.6,1.9-5.5C75.5,59.8,75.5,55.9,75.5,51.9z"
				/>
		</g>
	</g>
	<g>
		<path class="st5" d="M30.1,13.2c0,0,0-0.1,0-0.3c0-0.1,0-0.2,0-0.1l0,0.3c0,0,0,0,0-0.1l0,0.5c0,0.2,0,0.3-0.1,0.3
			c0,0,0-0.1,0-0.2C30.1,13.5,30.1,13.3,30.1,13.2L30.1,13.2z M30.1,13.2c0,0,0-0.1,0-0.3c0-0.2,0-0.2,0-0.2c0,0,0,0.1,0,0.3l0,0.5
			c0-0.1,0-0.1,0-0.1l0,0.3c0,0.1,0,0,0-0.1C30.1,13.5,30.1,13.3,30.1,13.2L30.1,13.2z"/>
	</g>
	<ellipse class="st0" cx="32.5" cy="64.7" rx="5.5" ry="1.7"/>
	<ellipse class="st13" cx="36" cy="63.4" rx="1.8" ry="0.9"/>
	<path class="st6" d="M40.1,62.1l0,0.6C40.1,62.5,40.1,62.4,40.1,62.1z"/>
	<path class="st6" d="M17.5,48.8c0.2-1,0.5-2,0.8-2.9C18.2,46.5,17.8,47.6,17.5,48.8z"/>
	<path class="st6" d="M42.5,24.5c-1.5,0-2.9,0.1-4.2,0.3c-0.1,3.5,0.2,7.1,0.8,10.6c-4.3-0.7-9.8-0.1-16.9,2.6
		c-1.6,2.4-2.8,4.9-3.7,7.5c0,0,0,0,0,0c0,0-0.1,0.2-0.2,0.4c-0.3,1-0.6,1.9-0.8,2.9c-0.3,1.8-0.3,3.9,1.2,5.1c0,0,3.2-7.8,4.4-7.5
		c0,0,5.9,8.9,11.9,10l-3.2-8.7c0,0,8.1,9.5,8.3,14.5l0-7.9c0,0,5.3,8.7-0.5,14.1c0,0,0.6,0.2,1.4,0.2c-0.4,1-0.8,1.9-1.4,2.9
		C35.6,77,29,77.3,21.9,75.8c4.6,2,11.3,3.2,20.6,3.6c33.1,1.3,33.1-12.3,33.1-27.4S60.8,24.5,42.5,24.5z"/>
	<path d="M18.6,36.9c0,0-8.2,7.9-4.4,14.9c0,0,1.3-7.7,3.3-8.4c0,0-2.8,6.2,0.1,8.4c0,0,3.2-7.8,4.4-7.5c0,0,5.9,8.9,11.9,10
		l-3.2-8.7c0,0,8.7,10.3,8.3,15l0-8.5c0,0,5.3,8.7-0.5,14.1c0,0,4.5,1.2,6.3-3.3c0,0,0.1,5-1.8,5.9c0,0,7.1-0.4,8.8-4.9
		C51.8,64,58.8,19.8,18.6,36.9z"/>
	<g>
		<path d="M23.3,62.1c1.7-0.8,3.5-1.4,5.4-1.7c0.9-0.2,1.9-0.4,2.9-0.3c1,0.1,2,0.4,2.7,1.1l0,0.1c-0.9-0.2-1.8-0.2-2.7-0.2
			c-0.9,0-1.8,0-2.7,0.1c-0.9,0.1-1.8,0.2-2.7,0.4C25.1,61.8,24.2,62,23.3,62.1L23.3,62.1z"/>
	</g>
	<g>
		<path class="st7" d="M88.1,42.6l5.1,4.2c0,0-2.5-4.1-4-11.5c-0.8-4.1-3.1-6.8-5-8.4L81.2,25c0,0,1.3,0.6,2.9,1.9l6.6,4.4
			C80.3,15.7,69.8,15,69.8,15l3.5-1.3c-9.1-4.8-14.1-2.1-14.1-2.1l2.1-5l-9.9,4.3c0.4-3.9,3.1-4.2,3.1-4.2
			c-7.9-0.5-10.2,4.2-10.2,4.2c-0.4-3.3-8.8-4.2-8.8-4.2c4.9,2.3,1.8,5.6,1.8,5.6l-6-2.8l-1.6,3.8c0,0,0.2,0,0.4,0c0,0,0.1,0,0.1,0
			c0.1,0,0.2,0,0.3,0c0.1,0,0.1,0,0.1,0c0.1,0,0.1,0,0,0c0,0-0.1,0-0.1,0c-0.1,0-0.2,0-0.3,0c0,0-0.1,0-0.1,0c-0.1,0-0.3,0-0.4,0
			c-2.3-0.1-1.6-3-1.6-3c-3.2,1.1-3.2,5.8-3.2,5.8c-4.9-1.4-6,1-6,1l1.9,1.4c-3.3,1-6,5.8-6,5.8L21,21l-4,9.6
			c4.8,9.5,17.6,13.6,24.7,18.6c9,6.3,5,22.5-1.6,34.4c1.6,2.3,4.6,4.3,4.6,4.3l0.9-6.2c-0.2,2.5,4.4,6.2,4.4,6.2
			c-1.6-3.3,3.2-8.1,3.2-8.1l0.2,7.2c3.5-2.9,4-3.8,4-3.8l4.4,3.8l0.4-6.8c-0.1-0.6-0.1-1.1,0.1-1.6l-0.1,1.6
			c0.6,2.9,4.3,6.8,4.3,6.8c-1.8-4.8,2.8-12.1,2.8-12.1l0.5,8.8c6.2-3.7,7-12.7,7-12.7l1.4,9.7c4.2-3.3,2.5-8.8,2.5-8.8l3,3.9
			c-1.4-7.9,2.6-11.4,2.6-11.4l1.6,9.3c4.9-3.9,2.8-22,2.8-22l3.5,8.5C96.4,55.3,88.1,42.6,88.1,42.6z"/>
		<path d="M87.9,42.4l5.4,4.4l-0.2,0.1c-0.9-1.6-1.7-3.3-2.3-5.1c-0.6-1.7-1.2-3.5-1.6-5.3c-0.2-0.9-0.4-1.8-0.7-2.7
			c-0.3-0.9-0.7-1.7-1.1-2.5c-0.9-1.6-2.1-3-3.5-4.2l0,0l-2.9-1.9l0.3-0.5c1.1,0.5,2,1.2,2.9,1.9l0,0l6.6,4.3l-0.4,0.4
			c-2.5-3.7-5.4-7.2-8.9-10.1c-1.7-1.4-3.6-2.7-5.6-3.8c-2-1-4.1-1.9-6.3-2.2l-1.6-0.2l1.5-0.5l3.5-1.3l0,0.7
			c-2.1-1.1-4.4-2-6.8-2.5c-1.2-0.2-2.4-0.3-3.5-0.3c-1.2,0-2.4,0.2-3.4,0.7l-1.1,0.5l0.4-1.1l2.1-5l0.6,0.6l-10,4.2l-0.7,0.3
			l0.1-0.7c0.1-1,0.4-2,0.9-2.8c0.3-0.4,0.6-0.8,1.1-1.1c0.4-0.3,0.9-0.5,1.4-0.6l0,0.8c-1.9-0.1-3.8,0-5.6,0.7
			c-0.9,0.3-1.7,0.8-2.5,1.3c-0.7,0.6-1.4,1.3-1.8,2l-0.6,1L43.9,11c-0.1-0.7-0.6-1.3-1.3-1.8c-0.7-0.5-1.4-0.8-2.2-1.1
			c-1.6-0.5-3.3-0.9-4.9-1.1l0.2-0.6c0.6,0.3,1.1,0.6,1.6,1c0.5,0.4,0.9,0.9,1.2,1.5c0.2,0.6,0.2,1.3,0,2c-0.2,0.6-0.5,1.2-1,1.7
			l-0.1,0.2l-0.2-0.1l-6-2.9l0.4-0.1l-1.6,3.8L29.7,13l0.8,0l0.2,0l0,0l0,0l0,0h0l0,0c0,1.1,0,0.3,0,0.5l0,0l-0.1,0l-0.4,0
			c-0.2,0-0.5,0-0.8-0.1c-0.3,0-0.6-0.1-0.8-0.3c-0.5-0.3-0.8-0.9-0.8-1.4c-0.1-0.5,0-1.1,0.1-1.6l0.3,0.3c-0.5,0.2-1,0.5-1.4,0.9
			c-0.4,0.4-0.7,0.9-0.9,1.4c-0.5,1-0.7,2.2-0.7,3.3l0,0.3l-0.3-0.1c-1-0.3-2.1-0.5-3.1-0.4c-0.5,0-1,0.1-1.5,0.4
			c-0.5,0.2-0.9,0.6-1.1,0.9l-0.1-0.2l1.9,1.4l0.3,0.2L21,18.7c-1.3,0.4-2.4,1.3-3.4,2.3c-1,1-1.8,2.2-2.5,3.4l-0.2-0.2l6.1-3.3
			l0.4-0.2l-0.2,0.4l-4,9.7l0-0.2c1.3,2.5,3.2,4.7,5.3,6.5c2.2,1.9,4.5,3.4,7,4.9c2.5,1.4,5,2.8,7.5,4.1c1.3,0.7,2.5,1.4,3.7,2.2
			c1.2,0.8,2.4,1.6,3.3,2.8c1.9,2.3,2.8,5.2,3,8.1c0.3,2.9,0,5.8-0.6,8.6c-1.2,5.6-3.3,11-6.1,16.1l0-0.4c1.2,1.6,2.8,3,4.5,4.2
			l-0.7,0.3l0.9-6.2l0.9,0.1c0,0.5,0.2,1.1,0.5,1.6c0.3,0.5,0.7,1,1.1,1.5c0.8,1,1.7,1.9,2.7,2.7l-0.7,0.5c-0.4-0.8-0.4-1.7-0.3-2.5
			c0.1-0.8,0.4-1.6,0.8-2.3c0.7-1.4,1.7-2.7,2.8-3.8l0.8-0.8l0,1.1l0.2,7.2L53,86.7c0.7-0.6,1.4-1.2,2.1-1.8c0.3-0.3,0.7-0.6,1-0.9
			c0.3-0.3,0.7-0.7,0.8-0.9l0.3-0.5l0.4,0.3l4.4,3.8L61.2,87l0.4-6.8l0,0.1c-0.1-0.6-0.1-1.2,0.1-1.9l1.1-2.5l-0.2,2.7l-0.1,1.6
			l0-0.1c0.3,1.2,0.9,2.4,1.7,3.5c0.8,1.1,1.6,2.1,2.5,3.1L66,87.2c-0.4-1.1-0.5-2.2-0.4-3.3c0.1-1.1,0.3-2.2,0.6-3.2
			c0.3-1,0.7-2.1,1.1-3c0.4-1,0.9-1.9,1.5-2.9l0.8-1.3l0.1,1.6l0.5,8.8l-0.7-0.4c2.1-1.2,3.6-3.2,4.7-5.3c0.5-1.1,1-2.2,1.3-3.4
			c0.3-1.2,0.6-2.4,0.8-3.6l0.5-3.8l0.5,3.8l1.4,9.7l-0.8-0.3c1.2-0.9,2.1-2.3,2.4-3.7c0.2-0.7,0.3-1.5,0.2-2.3
			c0-0.8-0.1-1.6-0.3-2.3l-0.6-2.2l1.4,1.8l3,3.9l-0.7,0.3c-0.3-2-0.4-4.2,0-6.2c0.2-1,0.5-2,1-3c0.5-0.9,1-1.8,1.8-2.6l0.5-0.5
			l0.1,0.7l1.5,9.3l-0.5-0.2c1.4-1.1,2-3,2.4-4.8c0.4-1.8,0.6-3.7,0.7-5.6c0.2-3.8,0-7.6-0.3-11.3L90.3,50l0.6,1.6l3.5,8.6l-0.4,0
			c0.6-1.4,0.3-3.1,0-4.6c-0.4-1.5-0.9-3-1.5-4.5c-1.3-2.9-2.8-5.7-4.5-8.4L87.9,42.4z M88.3,42.8c1.7,2.6,3.2,5.3,4.4,8.1
			c0.6,1.5,1.2,3,1.6,4.5c0.4,1.5,0.7,3.2,0.1,4.8l-0.2,0.4l-0.2-0.4l-3.6-8.5l0.5-0.1c0.4,3.8,0.6,7.6,0.4,11.4
			c-0.1,1.9-0.3,3.8-0.7,5.7c-0.2,0.9-0.5,1.9-0.9,2.8c-0.4,0.9-0.9,1.8-1.7,2.4l-0.4,0.4l-0.1-0.6L86,64.5l0.6,0.2
			c-0.7,0.6-1.2,1.5-1.6,2.4c-0.4,0.9-0.7,1.8-0.9,2.8c-0.4,1.9-0.3,4,0.1,5.9l0.3,1.7l-1-1.3l-3-3.9l0.8-0.4
			c0.2,0.8,0.4,1.7,0.4,2.5c0,0.8,0,1.7-0.3,2.5c-0.4,1.7-1.4,3.2-2.7,4.3l-0.6,0.5l-0.1-0.8l-1.4-9.7l1,0c-0.2,1.3-0.4,2.5-0.8,3.7
			c-0.4,1.2-0.8,2.4-1.4,3.6c-1.1,2.3-2.8,4.4-5.1,5.7l-0.7,0.4l0-0.8L68.8,75l0.9,0.2c-1.1,1.8-2,3.7-2.5,5.7c-0.6,2-0.9,4.1-0.2,6
			l0.8,2.1l-1.6-1.6c-1-1-1.8-2.1-2.6-3.2c-0.8-1.1-1.5-2.4-1.8-3.8l0-0.1l0-0.1l0.1-1.6l0.9,0.2c-0.2,0.4-0.2,0.8-0.1,1.3l0,0.1
			l0,0.1l-0.4,6.8L62.1,88l-0.7-0.6L57,83.6l0.7-0.1c-0.3,0.5-0.6,0.8-1,1.2c-0.3,0.3-0.7,0.7-1,1c-0.7,0.6-1.4,1.2-2.1,1.8L52.8,88
			l0-0.9l-0.2-7.2l0.8,0.3c-1,1.1-1.9,2.3-2.6,3.6c-0.7,1.3-1.1,2.8-0.5,4l0.9,1.9l-1.6-1.3c-1-0.9-2-1.8-2.8-2.8
			c-0.4-0.5-0.8-1.1-1.2-1.7c-0.3-0.6-0.6-1.3-0.6-2.1l0.9,0.1L45.1,88L45,88.7l-0.6-0.4c-0.9-0.6-1.7-1.3-2.5-2
			c-0.8-0.7-1.5-1.5-2.2-2.4l-0.1-0.2l0.1-0.2c2.8-5,5-10.3,6.1-15.8c0.6-2.8,0.9-5.6,0.7-8.4c-0.2-2.8-1.1-5.6-2.9-7.8
			c-0.9-1.1-2-1.9-3.2-2.7c-1.2-0.8-2.4-1.5-3.7-2.2c-2.5-1.4-5-2.7-7.5-4.2c-2.5-1.5-4.9-3-7-4.9c-2.2-1.9-4.1-4.1-5.4-6.7l0-0.1
			l0-0.1l4-9.6l0.2,0.2L15,24.4l-0.5,0.3l0.3-0.5c0.7-1.2,1.6-2.4,2.5-3.4c1-1,2.1-2,3.5-2.5l-0.1,0.3l-1.9-1.4l-0.1-0.1l0.1-0.1
			c0.3-0.6,0.8-0.9,1.3-1.2c0.5-0.2,1.1-0.4,1.6-0.4c1.1-0.1,2.2,0.1,3.3,0.4L24.7,16c0-1.2,0.3-2.4,0.7-3.5c0.2-0.6,0.6-1.1,1-1.5
			c0.4-0.5,1-0.8,1.6-1l0.4-0.1l-0.1,0.4c-0.2,0.9-0.2,2,0.6,2.5c0.2,0.1,0.4,0.2,0.6,0.2c0.2,0,0.5,0,0.7,0.1l0.4,0l0.1,0l0,0
			c0,0.2,0-0.5,0,0.5l0,0l0,0c0,0,0,0,0,0l0,0l0,0l-0.2,0l-0.8,0l-0.4,0l0.1-0.4L31,9.4l0.1-0.3l0.3,0.1l6,2.8L37,12.1
			c0.7-0.8,1.2-2,0.8-3c-0.4-1-1.4-1.7-2.4-2.1l-1.9-0.9l2.1,0.2c1.7,0.2,3.4,0.5,5.1,1.1c0.8,0.3,1.6,0.6,2.4,1.1
			c0.7,0.5,1.5,1.2,1.6,2.3L44,10.8c0.5-0.9,1.2-1.7,2-2.3c0.8-0.6,1.7-1.1,2.6-1.4c1.9-0.7,3.9-0.9,5.9-0.7l3.1,0.2l-3.1,0.6
			c-0.3,0.1-0.8,0.3-1.1,0.5c-0.3,0.2-0.6,0.6-0.9,0.9c-0.5,0.7-0.7,1.6-0.8,2.5l-0.6-0.4l9.9-4.3l1-0.4l-0.4,1l-2.1,5L59,11.2
			c1.3-0.6,2.5-0.7,3.8-0.8c1.3,0,2.5,0.1,3.7,0.3c2.5,0.5,4.8,1.4,7,2.6l0.8,0.4l-0.8,0.3l-3.5,1.2l-0.1-0.7
			c2.4,0.3,4.5,1.2,6.5,2.3c2,1.1,3.9,2.4,5.7,3.9c3.5,3,6.4,6.5,8.9,10.3l0.8,1.2l-1.2-0.8l-6.6-4.4l0,0l0,0
			c-0.9-0.7-1.8-1.4-2.8-1.9l0.3-0.5l2.9,1.9l0,0l0,0c1.4,1.2,2.7,2.7,3.6,4.3c0.4,0.8,0.8,1.7,1.1,2.6c0.3,0.9,0.4,1.8,0.6,2.7
			c0.4,1.8,0.9,3.6,1.5,5.3c0.6,1.7,1.3,3.5,2.2,5.1l0.3,0.5l-0.4-0.4L88.3,42.8z"/>
	</g>
	<g>
		<path class="st7" d="M29.7,13.2c0.1,0,0.2,0,0.4,0C30,13.3,29.9,13.3,29.7,13.2z"/>
		<path d="M29.7,13.2c0,0,0.1-0.1,0.1-0.3c0-0.1,0.1-0.2,0.1-0.1c0,0.1,0.1,0.2,0.1,0.3c0,0,0.1,0,0.1-0.1l0,0.5
			c-0.1,0.2-0.1,0.2-0.2,0.2c0,0-0.1-0.1-0.1-0.2C29.8,13.4,29.8,13.3,29.7,13.2L29.7,13.2z M29.7,13.2c0,0,0.1-0.1,0.1-0.3
			c0-0.2,0.1-0.2,0.1-0.2c0.1,0,0.1,0.1,0.2,0.3l0,0.5c0-0.1-0.1-0.2-0.1-0.1c0,0-0.1,0.2-0.1,0.2c0,0.1-0.1,0-0.1-0.1
			C29.8,13.4,29.8,13.3,29.7,13.2L29.7,13.2z"/>
	</g>
	<path class="st17" d="M88.1,42.6l5.1,4.2c0,0-2.5-4.1-4-11.5c-0.8-4.1-3.1-6.8-5-8.4L81.2,25c0,0,1.3,0.6,2.9,1.9l6.6,4.4
		C80.3,15.7,69.8,15,69.8,15l3.5-1.3c-9.1-4.8-14.1-2.1-14.1-2.1l2.1-5l-9.9,4.3c0.4-3.9,3.1-4.2,3.1-4.2c-4.2-0.3-6.8,0.9-8.4,2.1
		c-0.3,2.3-0.3,4.7-0.3,6.7c3.2-1.1,5.3-3.2,8.4-3.2c-1.1,2.1-1.1,4.2-2.1,6.3c2.1-1.1,4.2-1.1,6.3-1.1c-8.4,9.5-2.1,19,5.3,25.3
		c3.2,3.2,8.4-2.1,10.6-1.1c5.3,3.2,7.4,10.6,8.4,16.9c-1.1-3.2-4.2-5.3-4.2-8.4c0,6.3,1.1,11.6-3.2,16.9c0-3.2,0-5.3-2.1-7.4
		c1.1,5.3-1.1,9.5-5.3,12.7c0-2.1,0-3.2,0-5.3c-3.8,3.8-8.8,12.2-8,18.4l1.6,1.4l0.4-6.8c-0.1-0.6-0.1-1.1,0.1-1.6l-0.1,1.6
		c0.6,2.9,4.3,6.8,4.3,6.8c-1.8-4.8,2.8-12.1,2.8-12.1l0.5,8.8c6.2-3.7,7-12.7,7-12.7l1.4,9.7c4.2-3.3,2.5-8.8,2.5-8.8l3,3.9
		c-1.4-7.9,2.6-11.4,2.6-11.4l1.6,9.3c4.9-3.9,2.8-22,2.8-22l3.5,8.5C96.4,55.3,88.1,42.6,88.1,42.6z"/>
	<g>
		<path class="st5" d="M84.2,26.9l-0.1,0c-0.3,0-0.6-0.1-0.9-0.3c-0.3-0.1-0.5-0.3-0.7-0.5c-0.2-0.2-0.4-0.5-0.6-0.7
			c-0.2-0.2-0.5-0.3-0.8-0.3l0.3-0.5c0.6,0.1,1.1,0.4,1.6,0.7C83.4,25.8,83.8,26.3,84.2,26.9L84.2,26.9z M84.1,26.9
			c-0.7,0-1.2-0.3-1.7-0.5c-0.5-0.3-0.9-0.7-1.3-1.2l-1.6-2.1l1.9,1.6c0.2,0.2,0.5,0.4,0.7,0.5c0.3,0.1,0.6,0.1,0.9,0.3
			c0.3,0.1,0.5,0.3,0.7,0.5C83.9,26.3,84,26.5,84.1,26.9L84.1,26.9L84.1,26.9z"/>
	</g>
	<g>
		<path class="st5" d="M24,77.5c0,0-0.1,0-0.3,0c-0.1,0-0.2,0-0.1,0c0.1,0,0.2-0.1,0.2-0.1c0,0,0,0-0.1,0l0.5-0.1c0.2,0,0.3,0,0.3,0
			c0,0,0,0-0.2,0.1C24.2,77.4,24.1,77.5,24,77.5L24,77.5z M24,77.5c0,0-0.1,0-0.3,0c-0.2,0-0.2,0-0.2,0c0,0,0-0.1,0.2-0.1l0.5-0.1
			c-0.1,0-0.1,0.1-0.1,0.1c0,0,0.2,0,0.3,0c0.1,0,0,0-0.1,0.1C24.2,77.4,24.1,77.5,24,77.5L24,77.5z"/>
	</g>
	<g>
		<path class="st5" d="M30.5,13.2c0,0,0-0.1,0.1-0.3c0-0.1,0-0.2,0-0.1c0,0.1,0,0.2,0,0.3c0,0,0,0,0-0.1l0,0.5
			c0,0.2-0.1,0.3-0.1,0.3c0,0,0-0.1,0-0.2C30.5,13.5,30.5,13.3,30.5,13.2L30.5,13.2z M30.5,13.2c0,0,0-0.1,0.1-0.3
			c0-0.2,0-0.2,0-0.2c0,0,0,0.1,0.1,0.3l0,0.5c0-0.1,0-0.2,0-0.1c0,0,0,0.2-0.1,0.3c0,0.1,0,0,0-0.1C30.5,13.5,30.5,13.3,30.5,13.2
			L30.5,13.2z"/>
	</g>
	<g>
		<path class="st5" d="M23.8,76.7c0,0-0.1,0-0.3,0c-0.1,0-0.2,0-0.1,0c0.1,0,0.2-0.1,0.2-0.1c0,0,0,0-0.1,0l0.5-0.1
			c0.2,0,0.3,0,0.3,0c0,0,0,0-0.2,0.1C24,76.6,23.9,76.7,23.8,76.7L23.8,76.7z M23.8,76.7c0,0-0.1,0-0.3,0c-0.2,0-0.2,0-0.2,0
			c0,0,0-0.1,0.2-0.2l0.5-0.1c-0.1,0-0.1,0.1-0.1,0.1c0,0,0.2,0,0.3,0c0.1,0,0,0-0.1,0.1C24,76.6,23.9,76.7,23.8,76.7L23.8,76.7z"/>
	</g>
	<g>
		<path class="st5" d="M62.1,80.3L62.1,80.3c-0.2-0.2-0.3-0.3-0.4-0.5c0-0.1-0.1-0.3,0-0.4c0.1-0.1,0.2-0.3,0.3-0.4
			c0-0.1,0-0.3-0.1-0.4l0.5,0.1c0.1,0.3,0.1,0.5,0.1,0.7C62.5,79.7,62.4,79.9,62.1,80.3L62.1,80.3z M62.1,80.3
			c-0.4-0.2-0.5-0.5-0.6-0.8c0-0.3,0.1-0.7,0.5-0.9l1.2-0.8l-0.7,0.9c-0.1,0.1-0.2,0.3-0.1,0.4c0,0.1,0.2,0.3,0.2,0.4
			c0,0.1,0,0.3-0.1,0.4C62.5,80,62.4,80.1,62.1,80.3L62.1,80.3L62.1,80.3z"/>
	</g>
	<g>
		<path class="st11" d="M41.6,31.3c1.1-2.1,1.1-5.3,1.1-7.4c0,1.1-2.1,2.1-2.1,3.2c0-2.1-0.9-8.3-2.1-6.3c2-3.2-2.1,2.1-1.1,4.2
			c-1.1-2.1-3.2-4.2-5.3-5.3c0,1.1,0,2.1,0,3.2c-2.1,0-4.2-3.2-6.3-3.2c0,1.1,0,3.2,0,4.2c-1.7-0.9-2.8-2.5-3.7-4.2
			c-7.8,4.8-9.2,15-9.2,15c-1.2,5.5,5.6,0.7,5.6,0.7c4.5,9.1,18.5,7.3,25-1.2c0.8-1.1,1.5-2.2,2-3.4C44.2,31.1,42.9,31.3,41.6,31.3z
			"/>
		<g>
			<path d="M41.6,31.3c0.5-1.1,0.7-2.4,0.8-3.6c0.1-1.2,0.1-2.5,0-3.7H43c0,0.4-0.2,0.8-0.4,1c-0.2,0.3-0.4,0.5-0.7,0.7
				c-0.2,0.2-0.4,0.5-0.6,0.7c-0.2,0.2-0.3,0.5-0.3,0.7h-0.7c0-1.3-0.2-2.5-0.5-3.8c-0.1-0.6-0.3-1.2-0.5-1.8
				c-0.1-0.3-0.2-0.6-0.4-0.7c0,0,0,0,0,0c0,0,0.1,0,0.1,0c0,0-0.1,0.1-0.2,0.2l-0.7-0.4c0.1-0.2,0.3-0.5,0.4-0.7l0.1-0.2
				c0,0,0,0,0,0c0,0,0,0.1,0,0.1c0,0,0.1,0.3,0.3,0.4c0.1,0,0.2,0,0.2,0c0.2-0.1,0.1,0,0.1-0.1l0,0c0,0,0,0,0,0
				c-0.1,0.1-0.1,0.2-0.2,0.3c-0.3,0.5-0.5,0.9-0.8,1.4c-0.2,0.5-0.4,1-0.5,1.5c-0.1,0.5-0.1,1,0,1.4L37,25.2
				c-0.5-1.1-1.3-2.1-2.1-2.9C34,21.4,33.1,20.6,32,20l0.5-0.3l-0.1,3.2l0,0.3l-0.3,0c-0.7,0-1.3-0.3-1.8-0.6
				c-0.5-0.3-1-0.7-1.5-1.1c-0.5-0.4-0.9-0.7-1.4-1c-0.5-0.3-1-0.5-1.6-0.5l0.2-0.2c0,1.4,0,2.8,0,4.2l0,0.3l-0.2-0.1
				c-0.9-0.4-1.6-1.1-2.2-1.8c-0.6-0.7-1.1-1.6-1.5-2.4l0.3,0.1c-2.5,1.6-4.5,3.9-5.9,6.5c-0.7,1.3-1.3,2.7-1.8,4.1
				c-0.5,1.4-0.9,2.9-1.1,4.3l0,0l0,0c-0.1,0.6-0.2,1.3,0,1.7c0.1,0.4,0.7,0.4,1.3,0.2c1.2-0.3,2.4-1.1,3.5-1.8l0.5-0.3l0.3,0.5
				c1.2,2.4,3.3,4.3,5.9,5.1c2.5,0.9,5.4,0.8,8,0.3c2.7-0.6,5.2-1.8,7.4-3.5c2.2-1.7,4-3.9,5.2-6.4l0.2,0.2
				C44.3,31.3,43,31.4,41.6,31.3L41.6,31.3L41.6,31.3z M41.7,31.3c1.3,0,2.5-0.3,3.8-0.6l0.3-0.1l-0.1,0.3c-1,2.6-2.8,5-5,6.8
				c-2.2,1.8-4.8,3.1-7.6,3.8c-2.8,0.7-5.8,0.7-8.6-0.2c-2.8-0.9-5.2-3-6.5-5.6l0.8,0.2c-0.6,0.4-1.2,0.8-1.8,1.1
				c-0.6,0.3-1.3,0.6-2,0.8c-0.4,0.1-0.8,0.1-1.2,0.1c-0.4,0-1-0.4-1.2-0.8c-0.4-0.9-0.2-1.6-0.1-2.4l0,0c0.3-1.5,0.7-3,1.2-4.4
				c0.5-1.4,1.2-2.8,2-4.1c1.6-2.6,3.7-4.9,6.3-6.5l0.2-0.1l0.1,0.2c0.4,0.8,0.9,1.6,1.5,2.4c0.6,0.7,1.3,1.3,2.1,1.8l-0.2,0.1
				c0-1.4,0-2.8,0-4.2l0-0.2l0.2,0c0.7,0,1.3,0.3,1.8,0.6c0.5,0.3,1,0.7,1.5,1c0.5,0.3,1,0.7,1.5,1c0.5,0.3,1,0.5,1.6,0.5l-0.3,0.3
				l-0.1-3.2l0-0.5l0.5,0.2c1.2,0.6,2.2,1.4,3.2,2.3c0.9,0.9,1.7,2,2.3,3.1L37,25.2c-0.3-0.7-0.2-1.4-0.1-2c0.1-0.6,0.3-1.2,0.6-1.7
				c0.2-0.5,0.5-1,0.8-1.5c0.1-0.1,0.2-0.2,0.3-0.4c0,0,0-0.1,0.1-0.1l0,0c0,0,0,0,0.2-0.1c0.1,0,0.1,0,0.3,0c0.2,0,0.3,0.3,0.3,0.4
				c0,0,0,0.1,0,0.1c0,0.1,0,0.1,0,0.1c0,0.1-0.1,0.2-0.1,0.2c-0.1,0.3-0.3,0.5-0.5,0.7l-0.7-0.4c0.1-0.2,0.2-0.3,0.5-0.5
				c0.1-0.1,0.4-0.1,0.5-0.1c0.2,0.1,0.3,0.1,0.4,0.2c0.3,0.4,0.4,0.7,0.6,1c0.2,0.7,0.4,1.3,0.5,1.9c0.2,1.3,0.4,2.6,0.4,3.9h-0.7
				c0-0.5,0.3-0.8,0.5-1.1c0.2-0.3,0.5-0.5,0.7-0.7c0.2-0.2,0.5-0.4,0.7-0.7c0.2-0.2,0.3-0.5,0.3-0.7H43c0,1.3-0.1,2.5-0.2,3.8
				C42.6,28.9,42.3,30.2,41.7,31.3z"/>
		</g>
	</g>
	<path class="st8" d="M41.6,31.3c1.1-2.1,1.1-5.3,1.1-7.4c0,1.1-2.1,2.1-2.1,3.2c0-2.1-0.9-8.3-2.1-6.3c2-3.2-2.1,2.1-1.1,4.2
		c-1.1-2.1-3.2-4.2-5.3-5.3c0,1.1,0,2.1,0,3.2c-2.1,0-4.2-3.2-6.3-3.2c0,1.1,0,3.2,0,4.2c-1.7-0.9-2.8-2.5-3.7-4.2
		c-1.2,0.8-2.3,1.7-3.3,2.7c1,2.8,3.4,4.9,5.9,5.7c0-2.1,3.2-3.2,3.2-5.3c0,2.1,3.2,1.1,3.2,3.2c3.2-3.2,4.2,2.1,8.4,0
		c1.1,4.2,0,8.4-4.2,11.6c-3.6,1.8-7.6,2.6-11.7,2.7c6.1,2.8,15.1,0.2,19.9-6.2c0.8-1.1,1.5-2.2,2-3.4
		C44.2,31.1,42.9,31.3,41.6,31.3z"/>
	<g>
		<path d="M34.4,30.7c-0.6,1.2-1.4,2.1-2.6,1.4s-1.8-2.1-1.2-3.4c0.6-1.2,2.1-1.7,3.4-1C35.2,28.3,35,29.5,34.4,30.7z"/>
		<path class="st13" d="M31.4,29.5c-0.1,0.2-0.2,0.4-0.5,0.3c-0.2-0.1-0.3-0.4-0.2-0.6c0.1-0.2,0.4-0.3,0.6-0.2
			C31.5,29.1,31.5,29.3,31.4,29.5z"/>
	</g>
	<g>
		<path class="st11" d="M73.9,30.8c-0.6-5.2-5.8-8.8-11.5-8.1c-4.7,0.6-8.4,4-9.1,8.1c3.6,2.2,5.6,6,6.9,10.3
			c1.4,0.4,2.9,0.6,4.5,0.4C70.4,40.7,74.5,35.9,73.9,30.8z"/>
		<path d="M73.8,30.8c-0.3-2.4-1.7-4.5-3.6-5.8c-1.9-1.3-4.2-1.9-6.5-2c-2.3,0-4.6,0.6-6.5,2c-1.9,1.4-3.3,3.5-3.6,5.8l-0.1-0.2
			c1.8,1.1,3.4,2.6,4.6,4.5c1.2,1.8,2,3.8,2.7,5.8l-0.3-0.3c1.6,0.4,3.2,0.5,4.8,0.3c1.6-0.2,3.1-0.8,4.5-1.7
			c1.3-0.9,2.5-2.1,3.3-3.5C73.7,34.1,74,32.4,73.8,30.8z M73.9,30.8c0.2,1.7,0,3.4-0.7,5c-0.7,1.6-1.8,3-3.2,4.1
			c-1.4,1.1-3,1.8-4.8,2.1c-1.7,0.3-3.5,0.2-5.2-0.3l-0.3-0.1l-0.1-0.3c-0.6-2-1.3-3.9-2.4-5.7c-1-1.8-2.4-3.4-4.1-4.5l-0.1-0.1
			l0-0.1c0.5-2.4,1.9-4.5,3.8-6c1.9-1.5,4.3-2.5,6.8-2.5c2.5-0.1,5,0.8,6.9,2.4C72.4,26.1,73.6,28.4,73.9,30.8z"/>
	</g>
	<path class="st8" d="M73.9,30.8c-0.2-2-1.1-3.7-2.5-5.1c0.4,3.3,0,6.8-1.3,9.8c-2.7,3.6-6.1,4.9-10.3,4.6c0.1,0.3,0.2,0.6,0.3,0.9
		c1.4,0.4,2.9,0.6,4.5,0.4C70.4,40.7,74.5,35.9,73.9,30.8z"/>
	<ellipse transform="matrix(0.9576 0.288 -0.288 0.9576 12.0839 -6.3763)" class="st15" cx="27.7" cy="37.9" rx="9.9" ry="5.3"/>
	<ellipse transform="matrix(0.9576 0.288 -0.288 0.9576 10.7803 -2.8047)" class="st15" cx="14.9" cy="35.2" rx="3.4" ry="4.4"/>
	<path class="st6" d="M20,39.6c1.4,1.4,3.6,2.7,6.2,3.4c5.2,1.6,10.1,0.6,11-2.3c0.4-1.3-0.2-2.8-1.4-4.1C32.1,40.6,25.5,42,20,39.6
		z"/>
	<path class="st15" d="M18.3,35c0,0.1,0,0.1,0,0.2c0.2-0.4,0.4-0.8,0.6-1.2C18.6,34.3,18.4,34.7,18.3,35z"/>
	<path class="st6" d="M12.4,38.6c0.3,0.4,0.8,0.7,1.3,0.8c1.8,0.5,3.8-0.9,4.5-3.3c0.1-0.4,0.2-0.8,0.2-1.2
		C17.2,37,15.1,38.3,12.4,38.6z"/>
	<ellipse class="st16" cx="34" cy="34.3" rx="5.5" ry="1.7"/>
	<ellipse class="st13" cx="37.5" cy="32.9" rx="1.8" ry="0.9"/>
	<g>
		<path class="st3" d="M68,32c-0.4-3.3-3.7-5.6-7.4-5.2c-3.1,0.4-5.4,2.5-5.9,5.2c2.3,1.4,3.6,3.9,4.4,6.6c0.9,0.3,1.9,0.4,2.9,0.2
			C65.8,38.3,68.5,35.3,68,32z"/>
		<g>
			<path d="M68,32c-0.2-1.5-1.2-2.8-2.4-3.6c-1.3-0.8-2.7-1.1-4.1-1.2c-1.5,0-2.9,0.3-4.2,1.1C56,29.2,55.2,30.6,55,32l-0.1-0.2
				c1.2,0.7,2.3,1.7,3.1,2.8c0.8,1.2,1.3,2.5,1.8,3.8l-0.3-0.3c2,0.5,4.1,0.2,5.8-0.9c0.9-0.5,1.7-1.2,2.2-2.1
				C67.9,34.2,68.1,33.1,68,32z M68.1,32c0.3,2.2-0.6,4.5-2.5,5.9c-1.8,1.4-4.4,1.8-6.6,1.1L58.8,39l-0.1-0.3
				c-0.4-1.3-0.8-2.5-1.5-3.6c-0.7-1.1-1.5-2.2-2.6-2.9l-0.1-0.1l0-0.1c0.3-1.6,1.3-2.9,2.5-3.9c1.2-1,2.8-1.6,4.4-1.7
				c1.6-0.1,3.3,0.5,4.5,1.6C67.2,29,67.9,30.5,68.1,32z"/>
		</g>
	</g>
	<path class="st10" d="M30,27.8c0,0,1.8,0.7,5.2-0.9"/>
	<path class="st10" d="M15.3,26.3c0,0-0.2,1.4,1.2,1.8"/>
	<g>
		<path d="M27.3,36.4c1.6-0.7,3.2-1.3,4.9-1.8c1.7-0.5,3.4-0.8,5.1-1c1.7-0.2,3.5-0.3,5.2-0.1c1.7,0.2,3.5,0.6,5,1.5
			c-1.6-0.6-3.3-0.8-5-0.9c-1.7-0.1-3.4,0-5.1,0.2c-1.7,0.2-3.4,0.5-5.1,0.8C30.6,35.6,28.9,36,27.3,36.4z"/>
	</g>
	<g>
		<path d="M30.7,37.7c1.9-0.4,3.9-0.6,5.9-0.7c2-0.1,4-0.1,5.9,0c2,0.2,3.9,0.4,5.9,1c1.9,0.5,3.8,1.3,5.4,2.5
			c-1.7-0.9-3.6-1.5-5.5-1.9c-1.9-0.4-3.8-0.7-5.8-0.8c-1.9-0.2-3.9-0.2-5.9-0.2C34.6,37.5,32.6,37.6,30.7,37.7z"/>
	</g>
	<g>
		<path d="M27.2,38.8c1.7-0.1,3.5,0,5.2,0.2c1.7,0.2,3.4,0.5,5.1,1c1.7,0.5,3.3,1.1,4.9,1.9c1.5,0.8,3,1.9,4.1,3.2
			c-1.3-1.1-2.8-2-4.3-2.7c-1.6-0.7-3.2-1.3-4.8-1.7c-1.6-0.5-3.3-0.8-5-1.1C30.6,39.3,28.9,39.1,27.2,38.8z"/>
	</g>
	<g>
		<g>
			<path d="M15.5,33.4c-0.6-0.4-1.3-0.8-1.9-1.1c-0.6-0.3-1.3-0.7-1.9-0.9c-0.7-0.2-1.3-0.3-2-0.2c-0.7,0.1-1.3,0.4-1.9,0.9
				c0.3-0.7,1-1.2,1.8-1.5c0.8-0.2,1.6-0.1,2.4,0.1C13.4,31.2,14.7,32.1,15.5,33.4z"/>
		</g>
		<g>
			<path d="M14.3,34.6c-0.8-0.1-1.7-0.2-2.5-0.2c-0.8,0-1.6,0.1-2.4,0.3c-1.5,0.4-2.8,1.4-3.9,2.6c0.3-0.8,0.8-1.5,1.4-2.1
				c0.6-0.6,1.5-1,2.3-1.2C10.9,33.6,12.8,33.8,14.3,34.6z"/>
		</g>
		<g>
			<path d="M15.6,35.8c-0.8,0.2-1.6,0.6-2.3,1c-0.7,0.4-1.4,0.9-2,1.4c-1.2,1.1-2.2,2.5-3,4c0.3-1.7,1.2-3.3,2.5-4.5
				C12.1,36.4,13.8,35.7,15.6,35.8z"/>
		</g>
	</g>
	<g>
		<g>
			<path d="M27.3,36.4c1.6-0.7,3.2-1.3,4.9-1.8c1.7-0.5,3.4-0.8,5.1-1c1.7-0.2,3.5-0.3,5.2-0.1c1.7,0.2,3.5,0.6,5,1.5
				c-1.6-0.6-3.3-0.8-5-0.9c-1.7-0.1-3.4,0-5.1,0.2c-1.7,0.2-3.4,0.5-5.1,0.8C30.6,35.6,28.9,36,27.3,36.4z"/>
		</g>
		<g>
			<path d="M30.7,37.7c1.9-0.4,3.9-0.6,5.9-0.7c2-0.1,4-0.1,5.9,0c2,0.2,3.9,0.4,5.9,1c1.9,0.5,3.8,1.3,5.4,2.5
				c-1.7-0.9-3.6-1.5-5.5-1.9c-1.9-0.4-3.8-0.7-5.8-0.8c-1.9-0.2-3.9-0.2-5.9-0.2C34.6,37.5,32.6,37.6,30.7,37.7z"/>
		</g>
		<g>
			<path d="M27.2,38.8c1.7-0.1,3.5,0,5.2,0.2c1.7,0.2,3.4,0.5,5.1,1c1.7,0.5,3.3,1.1,4.9,1.9c1.5,0.8,3,1.9,4.1,3.2
				c-1.3-1.1-2.8-2-4.3-2.7c-1.6-0.7-3.2-1.3-4.8-1.7c-1.6-0.5-3.3-0.8-5-1.1C30.6,39.3,28.9,39.1,27.2,38.8z"/>
		</g>
	</g>
	<g>
		<path d="M15.3,29.1c-0.5,0.9-0.9,1.6-1.4,1.3c-0.5-0.3-0.5-1.2-0.1-2.1c0.5-0.9,1.2-1.4,1.7-1.2S15.8,28.2,15.3,29.1z"/>
		<path class="st13" d="M14.1,28.7C14,28.9,13.9,29,13.8,29c-0.1,0-0.1-0.2,0-0.4c0.1-0.2,0.2-0.3,0.3-0.2
			C14.2,28.4,14.2,28.6,14.1,28.7z"/>
	</g>
	<path d="M21.1,33.1c-0.3,1-1.9,2.7-3.3,2.3c-1.4-0.4-1.9-2.7-1.6-3.7c0.3-1,1.4-0.9,2.8-0.5C20.3,31.7,21.4,32.2,21.1,33.1z"/>
	<path class="st14" d="M60.6,153.4"/>
	<g>
		<g>
			<path d="M60.5,168.4c0.1-1.8,0-3.5-0.1-5.3c-0.1-1.8-0.3-3.5-0.5-5.3c-0.1-1.8,0.3-3.8,1.6-5.1c1.3-1.3,3.1-1.9,4.9-2
				c-1.7,0.3-3.5,1-4.6,2.3c-1.2,1.3-1.6,3.1-1.4,4.8c0.2,1.8,0.4,3.5,0.4,5.3C60.8,164.8,60.8,166.6,60.5,168.4z"/>
		</g>
		<g>
			<path d="M67.1,151c-1.7,0.3-3.5,1-4.6,2.3c-1.2,1.3-1.6,3.1-1.4,4.8c0.2,1.7,0.4,3.5,0.4,5.3c0,1.8,0,3.6-0.3,5.3
				c0.1-1.8,0-3.6-0.1-5.3c-0.1-1.8-0.3-3.5-0.5-5.3c-0.1-1.8,0.3-3.8,1.6-5.1C63.5,151.8,65.3,151.1,67.1,151z"/>
		</g>
		<g>
			<path d="M66.4,151.1c-0.9,0.5-1.7,1.1-2.3,1.9c-0.7,0.7-1.2,1.6-1.6,2.5c-0.8,1.8-1.2,3.8-1.4,5.8c-0.2-2,0.1-4.1,0.9-6
				c0.4-0.9,1-1.8,1.8-2.5C64.6,152,65.5,151.4,66.4,151.1z"/>
		</g>
		<g>
			<path d="M61.9,165.4c-0.3-1.3-0.4-2.6-0.4-4c0.1-1.3,0.4-2.7,0.8-4c0.5-1.3,1.1-2.5,1.9-3.5c0.8-1.1,1.7-2.1,2.8-2.8
				c-1,0.9-1.8,2-2.5,3c-0.7,1.1-1.3,2.3-1.8,3.5C61.9,160.1,61.7,162.8,61.9,165.4z"/>
		</g>
		<g>
			<path d="M67.3,151c-0.9,2.9-2,5.7-3,8.5c-1.1,2.8-2.2,5.6-3.5,8.4c0.9-2.9,2-5.7,3-8.5C64.9,156.6,66,153.8,67.3,151z"/>
		</g>
		<g>
			<path d="M67.6,151c-0.3,1.5-0.6,3-1.1,4.5c-0.4,1.5-0.9,2.9-1.4,4.4c-0.6,1.4-1.2,2.9-1.9,4.2c-0.7,1.4-1.5,2.7-2.6,3.8
				c0.9-1.2,1.6-2.6,2.3-4c0.6-1.4,1.2-2.8,1.8-4.2c0.6-1.4,1-2.9,1.5-4.3C66.6,154,67.1,152.5,67.6,151z"/>
		</g>
		<g>
			<path d="M67.3,150.6c-0.8,1.3-1.6,2.6-2.2,4c-0.6,1.4-1.2,2.8-1.7,4.2c-1,2.9-1.6,5.9-2,8.9c0-1.5,0.1-3.1,0.4-4.6
				c0.3-1.5,0.6-3,1.1-4.5c0.5-1.5,1.1-2.9,1.8-4.2C65.5,153.1,66.3,151.8,67.3,150.6z"/>
		</g>
		<g>
			<path d="M68.6,152.4c0.9,1.3,1.2,3,1.1,4.6c-0.2,1.6-0.8,3.2-1.7,4.5c-0.9,1.4-1.9,2.6-3.1,3.7c-1.2,1.1-2.5,2.1-3.8,2.9
				c1.2-1,2.4-2.1,3.5-3.2c1.1-1.1,2.1-2.3,3-3.7c0.8-1.3,1.5-2.8,1.7-4.3C69.5,155.4,69.4,153.8,68.6,152.4z"/>
		</g>
		<g>
			<path d="M68.2,152c0.8,1.4,0.9,3.1,0.6,4.6c-0.2,1.6-0.9,3.1-1.6,4.5c-0.8,1.4-1.7,2.7-2.7,3.9c-1,1.2-2.2,2.3-3.4,3.3
				c2.1-2.3,4.2-4.6,5.7-7.4c0.8-1.3,1.3-2.8,1.7-4.3C68.7,155,68.8,153.4,68.2,152z"/>
		</g>
		<g>
			<path d="M67.7,152.1c0.7,1.3,0.6,2.9,0.4,4.3c-0.2,1.5-0.8,2.8-1.4,4.2c-0.7,1.3-1.4,2.5-2.3,3.7c-0.9,1.2-1.8,2.3-2.9,3.3
				c1.7-2.3,3.5-4.6,4.7-7.2c0.6-1.3,1.2-2.6,1.5-4c0.2-0.7,0.3-1.4,0.3-2.1C68,153.5,68,152.8,67.7,152.1z"/>
		</g>
		<g>
			<path d="M66.9,151.6c0.7,1.3,0.6,2.9,0.4,4.3c-0.2,1.5-0.8,2.8-1.4,4.2c-0.7,1.3-1.4,2.5-2.3,3.7c-0.9,1.2-1.8,2.3-2.9,3.3
				c1.7-2.3,3.5-4.6,4.7-7.2c0.6-1.3,1.2-2.6,1.5-4c0.2-0.7,0.3-1.4,0.3-2.1C67.2,153,67.2,152.3,66.9,151.6z"/>
		</g>
		<g>
			<path d="M60.8,154.1c-0.6,0.7-0.8,1.5-1,2.3c-0.2,0.8-0.2,1.7-0.2,2.5c0,1.7,0.3,3.4,0.6,5.1c-0.3-0.8-0.6-1.6-0.8-2.5
				c-0.2-0.9-0.3-1.7-0.3-2.6c0-0.9,0.1-1.8,0.4-2.6C59.7,155.5,60.1,154.6,60.8,154.1z"/>
		</g>
	</g>
</g>
</svg>
