<?xml version="1.0" encoding="utf-8"?>
<!-- Generator: Adobe Illustrator 15.1.0, SVG Export Plug-In . SVG Version: 6.00 Build 0)  -->
<!DOCTYPE svg PUBLIC "-//W3C//DTD SVG 1.1//EN" "http://www.w3.org/Graphics/SVG/1.1/DTD/svg11.dtd">
<svg version="1.1" id="small_mountain" xmlns="http://www.w3.org/2000/svg" xmlns:xlink="http://www.w3.org/1999/xlink" x="0px"
	 y="0px" width="359px" height="167px" viewBox="0 0 359 167" style="enable-background:new 0 0 359 167;" xml:space="preserve">
<style type="text/css">
<![CDATA[
	.st0{opacity:0.65;fill:#E3E3E5;}
	.st1{opacity:0.57;fill:#797784;}
	.st2{opacity:0.49;fill:#797784;}
	.st3{opacity:0.43;fill:#06590C;}
	.st4{fill:#308E37;stroke:#050404;stroke-miterlimit:10;}
	.st5{fill:#C2C0CE;}
	.st6{fill:#308E37;}
	.st7{fill:#050404;}
	.st8{fill:#40A34A;stroke:#050404;stroke-miterlimit:10;}
]]>
</style>
<g>
	<path class="st4" d="M-78,34.9v137.9l411.5,3.3l-3.3-1.4c0.5,0,1,0,1.5-0.1c0,0,1.5-6.8,5.3-7.9c-2.1,0.2-5.4,1.1-6.8,3.9
		c0,0-0.7-4.7,2.8-4.8c-2.4-0.1-8.2,0.1-10.1,3.7l3.6-8.4c0,0-4.9,3.6-5.2,6.7v-5.4c0,0-1.8,3.2-1.8,5.8c0,0,0.2-4.3-1.2-10.5
		c0,0-0.3,6.8-1.9,8.9v-13.1c0,0-3.6,5-3.6,10.6c0,0-3.8-9.8-1.5-13.4c-1.7,1.7-4.8,5.1-5.7,8.5c0-3.7-0.2-10.1-1.9-12.2
		c0,0,1.8,9.4-1.6,13.1l-0.8-13.8c0,0-0.8,12.2-3.4,12.7l1.5-11.1c0,0-3,5.4-4.8,8.2c0.6-2.3,2.5-9.7,0.5-12.9
		c0,0,0.4,12.1-6.3,11.6l-2.4-10.2l-3.9,7.3l0,0c0.5-1.3,1.3-4.7-1.3-8.9c0,0,0.5,5-2.4,6.8c0,0,0.9-1.5-1.8-7.8
		c0,0,1.2,4.5-1.7,6.7l-0.2-0.1v-3.9c0,0-0.4,3-2.3,2.4l0.1-1c0.9-1.9,3-5.6,5.9-6c-2.1,0-5.5,0.3-7.2,2.9c0,0,0-4.7,3.5-4.4
		c-2.4-0.4-8.2-1.1-10.5,2.3l4.7-7.8c0,0-5.4,2.9-6,5.9l0.8-5.3c0,0-2.3,2.9-2.6,5.5c0,0,0.8-4.3,0.3-10.6c0,0-1.3,6.7-3.2,8.5
		l1.8-13c0,0-4.3,4.5-5.1,10c0,0-2.3-10.2,0.4-13.5c-1.9,1.4-5.5,4.4-6.8,7.6c0.6-3.7,1.2-10-0.2-12.4c0,0,0.4,9.6-3.4,12.8
		l1.1-13.8c0,0-2.5,11.9-5.1,12.1l3-10.8c0,0-3.8,5-5.9,7.5c1-2.2,3.8-9.2,2.3-12.7c0,0-1.3,12-7.8,10.7l-1-10.5l-5.2,7.1
		c0.2-0.3,2.7-3.9,0.2-9.5c0,0-0.2,5-3.3,6.4c0,0,1.1-1.3-0.7-8c0,0,0.6,4.8-2.9,6.5l0.6-4.1c0,0-0.8,2.9-2.6,2l0.8-3.1
		c0.8-1.3,1.8-2.5,3.1-2.9c-2.1,0.3-5.4,1.2-6.8,4.3c0,0-0.7-5.2,2.8-5.4c-2.4-0.1-8.2,0.1-10.1,4.1l3.6-9.4c0,0-5,4.1-5.2,7.5v-6
		c0,0-1.8,3.6-1.8,6.5c0,0,0.2-4.9-1.2-11.8c0,0-0.3,7.6-1.9,10V90.5c0,0-3.6,5.6-3.6,11.8c0,0-3.8-11-1.5-15
		c-1.7,1.8-4.8,5.7-5.7,9.5c0-4.2-0.2-11.3-1.9-13.7c0,0,1.8,10.5-1.6,14.7l-0.8-15.5c0,0-0.8,13.6-3.4,14.3l1.5-12.5
		c0,0-3,6.1-4.8,9.2c0.6-2.6,2.5-10.8,0.5-14.5c0,0,0.4,13.5-6.3,13l-2.4-11.5l-4.1,8.6l0,0c0.3-0.8,1.9-5-1.2-10.5
		c0,0,0.5,5.6-2.4,7.6c0,0,0.9-1.7-1.8-8.7c0,0,1.3,5.2-1.9,7.6v-4.7c0,0-0.4,3.3-2.3,2.7L158,82c0.9-2.1,3-6.3,5.9-6.8
		c-2.1,0-5.5,0.4-7.2,3.2c0,0,0-5.3,3.5-4.9c-2.4-0.5-8.2-1.2-10.5,2.5l4.7-8.7c0,0-5.4,3.3-6,6.6l0.8-6c0,0-2.3,3.2-2.6,6.2
		c0,0,0.8-4.8,0.3-11.9c0,0-1.3,7.5-3.2,9.6l1.8-14.6c0,0-4.3,5-5.1,11.2c0,0-2.3-11.5,0.4-15.1c-1.9,1.6-5.5,4.9-6.8,8.5
		c0.6-4.1,1.2-11.2-0.2-13.9c0,0,0.4,10.7-3.4,14.3l1.1-15.4c0,0-2.5,13.4-5.1,13.6l3-12.1c0,0-3.8,5.6-5.9,8.4
		c1-2.5,3.8-10.4,2.3-14.3c0,0-1.3,13.4-7.8,11.9l-1-11.7l-5.2,8c0.2-0.3,2.7-4.4,0.2-10.7c0,0-0.2,5.6-3.3,7.2c0,0,1.1-1.5-0.7-8.9
		c0,0,0.6,5.4-2.9,7.3l0.6-4.6c0,0-0.8,3.2-2.6,2.3l1.4-5.9l-3.2,4.9c0,0-6.9-5.9-12.6-7l-0.5-6.4L86.6,35c-2.1-0.2-1.2-3.7-1.2-3.7
		l-1.7,4.4c0,0-0.1,0-0.1,0c-2.1-3.8,1-8.2,1-8.2c-5.3,5.6-5,7.6-5,7.6c-2.1-3.4,0.5-8.5,0.5-8.5c-5.3,4.1-5.1,9.3-5,9.8L74.3,26
		l-6.6,10c-6.7-2.7-1.3-15.6-1.3-15.6c-3.2,2.6-4.5,11.5-4.9,14.3c-0.5-3.8-1.2-11.2-1.2-11.2l-3.2,12.8c-2.3-1.8,2-15.5,2-15.5
		l-6.6,14.6c-1.7-5.6,3.9-15,3.9-15c-2.6,1.5-5.5,8.3-7,12.4c0.6-4.1-1-9.3-2-11.9c0.7,5-7.1,13.9-7.1,13.9c2.3-6,0.8-13.2,0.8-13.2
		L35.7,36c-0.7-3,1.8-10.6,1.8-10.6C33.6,31.4,32,36.3,32,36.3c1.1-2.9,0.6-7.2,0.6-7.2l-2.3,5.9c1.1-3.4-2.3-9.7-2.3-9.7l0,10.8
		c-0.3-4.8-6-7.8-8.4-8.8c3.4,1.8,0.7,6.6,0.7,6.6c-0.2-3.7-3.1-6.2-5-7.4c2.4,2.2,2.2,7.3,2,9.7l-0.4,1.1c-2-0.6-0.8-3.8-0.8-3.8
		l-2.1,3.8l-0.4,0c-1.3-4,2.1-7.7,2.1-7.7c-5.9,4.7-5.9,6.8-5.9,6.8c-1.7-3.7,1.6-8.4,1.6-8.4c-5.8,3.3-6.2,8.4-6.2,8.9L6,26.3
		l-7.8,8.8c-6.3-3.7,0.7-15.6,0.7-15.6c-3.6,2.1-5.9,10.7-6.6,13.4c-0.1-3.9,0.2-11.3,0.2-11.3l-4.8,12.2c-2-2.2,3.9-15,3.9-15
		l-8.3,13.5c-1-5.8,5.8-14.2,5.8-14.2c-2.8,1.1-6.5,7.4-8.5,11.2c1.1-4,0.1-9.4-0.5-12.1c0.1,5.1-8.8,12.6-8.8,12.6
		c3-5.6,2.5-12.9,2.5-12.9l-7.2,13.3c-0.3-3.1,3.1-10.2,3.1-10.2c-4.7,5.4-6.9,9.9-6.9,9.9c1.5-2.7,1.5-7,1.5-7l-3,5.5
		c1.5-3.2-1-10-1-10L-41,29c0.3-4.8-5-8.6-7.2-10c3.1,2.3-0.1,6.6-0.1,6.6c0.3-3.7-2.3-6.6-4-8.1c2.8,3.5,0.5,11.3,0.5,11.3
		c4.5,3.6,10.1,6.2,16.1,7.9l-2.6,0L-78,34.9z M-7.6,35.3c0,0,0-0.1,0-0.2C-7.7,35.2-7.6,35.3-7.6,35.3z M157.3,83.7L156,83
		c0.2,0,0.4,0.1,0.6,0.1C156.8,83.3,157.1,83.5,157.3,83.7z M178.6,95.1c-0.1,0.1-0.1,0.2-0.2,0.2C178.4,95.2,178.5,95.2,178.6,95.1
		z M218.7,113.1l-1.7-0.4c0.1-0.3,0.2-0.7,0.3-1.1C217.8,112.1,218.2,112.6,218.7,113.1z M272.3,147.5l-1.7-0.6
		c0.4,0,0.7,0.1,1.1,0.1C271.8,147.1,272,147.3,272.3,147.5z M293.5,157.6c-0.1,0.1-0.1,0.1-0.2,0.2
		C293.4,157.8,293.5,157.7,293.5,157.6z"/>
	<path class="st8" d="M312.3,149.7c0,0-0.4,0.4-1.1,1C311.5,150.3,311.8,149.9,312.3,149.7z"/>
	<path class="st8" d="M333,165.9c0.3,0,0.7,0,1,0.1C334.1,165.9,333.7,165.9,333,165.9z"/>
	<path class="st8" d="M338.7,166.7c0,0-0.7,0-1.7,0.1C337.5,166.6,338.1,166.6,338.7,166.7z"/>
	<path class="st8" d="M280.6,140.1c0,0-0.7-0.1-1.7-0.1C279.4,139.8,280,139.9,280.6,140.1z"/>
	<path class="st8" d="M275.1,138.4c0.3,0,0.6,0.1,1,0.2C276.1,138.6,275.7,138.5,275.1,138.4z"/>
	<path class="st8" d="M256.8,119.5c0,0-0.5,0.3-1.2,0.8C255.9,120,256.3,119.7,256.8,119.5z"/>
	<path class="st8" d="M197.3,88.4c0,0-0.4,0.4-1.1,1C196.5,88.9,196.9,88.6,197.3,88.4z"/>
	<path class="st8" d="M219.1,104.6c0,0-0.4,0-1-0.1C218.4,104.5,218.7,104.5,219.1,104.6z"/>
	<path class="st8" d="M222,105.5c0.5-0.2,1.1-0.2,1.7-0.1C223.7,105.4,223,105.3,222,105.5z"/>
	<path class="st8" d="M-21,19.1c-0.3-1-0.5-1.6-0.5-1.6C-21.2,18-21,18.5-21,19.1z"/>
	<path class="st8" d="M-48.3,19.2c-0.6-0.4-1-0.6-1-0.6C-48.9,18.8-48.6,19-48.3,19.2z"/>
	<path class="st8" d="M-52.4,17.7c-0.9-0.8-1.5-1.2-1.5-1.2C-53.3,16.8-52.8,17.2-52.4,17.7z"/>
	<g>
		<g>
			<path class="st5" d="M55.7,32.9l8.7-8.8l7-2.5c0,0,3.6,0.9,6.1,2.4c2.5,1.5,6.8,4.3,7.8,5c1,0.7,7.8,6.5,7.8,6.5s1.5,4.6,2,5.4
				c0.5,0.8,0.7,3.2,0.7,3.2s-10.5,4.1-21.3,0.3C74.5,44.4,57.6,43.6,55.7,32.9z"/>
			<path class="st7" d="M55.7,32.9c1.4-1.5,2.8-3,4.2-4.5c1.4-1.5,2.8-3,4.3-4.5l0.1-0.1l0.1,0l7-2.6l0.1,0l0.1,0
				c2.1,0.6,4.2,1.3,6.1,2.5c1.9,1.2,3.6,2.4,5.4,3.6c0.9,0.6,1.8,1.2,2.7,1.9c0.9,0.7,1.7,1.4,2.5,2.1l5,4.2l0,0l0,0.1
				c0.5,1.4,1,2.8,1.6,4.2c0.1,0.3,0.3,0.7,0.5,1c0.2,0.3,0.4,0.8,0.5,1.1c0.2,0.8,0.3,1.5,0.4,2.3l0,0.3L96,44.5
				c-1.7,0.7-3.5,1.1-5.3,1.5c-1.8,0.3-3.6,0.5-5.5,0.6c-3.7,0.1-7.4-0.4-10.9-1.7l0.1,0c-2-0.1-4-0.5-5.9-1c-1.9-0.5-3.8-1.1-5.6-2
				c-1.8-0.9-3.5-2.1-4.8-3.6C56.8,36.8,55.9,34.9,55.7,32.9L55.7,32.9L55.7,32.9z M55.8,32.9c0.4,1.9,1.4,3.7,2.7,5
				c1.3,1.4,3,2.4,4.8,3.2c1.8,0.8,3.6,1.4,5.5,1.8c1.9,0.4,3.8,0.7,5.7,0.8l0.1,0l0.1,0c3.4,1.2,6.9,1.7,10.5,1.6
				c1.8,0,3.6-0.2,5.3-0.5c1.8-0.3,3.5-0.7,5.2-1.3l-0.2,0.4c0-0.7-0.1-1.5-0.3-2.2c-0.1-0.4-0.2-0.7-0.4-1
				c-0.2-0.4-0.3-0.7-0.5-1.1c-0.5-1.4-1-2.9-1.4-4.3l0.1,0.1c-1.6-1.4-3.3-2.9-4.9-4.2c-0.8-0.7-1.7-1.4-2.5-2
				c-0.9-0.6-1.8-1.2-2.7-1.7c-1.8-1.1-3.7-2.3-5.6-3.3c-1.9-1-3.9-1.7-6-2.3l0.3,0l-7,2.4l0.1-0.1c-1.5,1.5-3,2.9-4.4,4.3
				C58.8,30.1,57.3,31.6,55.8,32.9z"/>
		</g>
		<path class="st2" d="M95.2,40.9c-0.5-0.8-2-5.4-2-5.4s-6.7-5.8-7.8-6.5c-0.8-0.6-3.9-2.6-6.3-4.1c-0.2,1.4-1.3,2.6-1.3,3.5
			c1.3,2.2,5.1,3.7,3.8,7c-6.2-2.5-12.2,0.1-17.6-1.5c-1.7-0.7-3.5-2.4-4.9-4.5l-3.4,3.4c1.9,10.7,18.8,11.4,18.8,11.4
			c10.9,3.9,21.3-0.3,21.3-0.3S95.7,41.7,95.2,40.9z"/>
		<path class="st1" d="M95.2,40.9c-0.5-0.8-2-5.4-2-5.4s-6.7-5.8-7.8-6.5c-0.7-0.5-3.1-2.1-5.3-3.5c0.3,0.9,0.4,1.8,0,2.7
			c5,1.4,13.1,7.4,6.6,9.8c-2.9,1.6-9.9-0.1-14.4,1.5c-4.4,1.5-9.5-2-14.4-2c5.1,6.2,16.6,6.8,16.6,6.8c10.9,3.9,21.3-0.3,21.3-0.3
			S95.7,41.7,95.2,40.9z"/>
		<path class="st0" d="M70.8,23c-0.6,0.2-3.9,2.1-3.9,2.1s-2.7,0.8-1.3,1.2c1.4,0.5,3.2,1.6,3.3,1.3c0.1-0.3,4-1.8,4-1.8l-0.6-2.3
			L70.8,23z"/>
	</g>
	<g>
		<path class="st6" d="M50.6,43.8h5.2l-5.2-5.9c0,0,4.5,0.2,6.3,5.2l-3.2-11.6c0,0,5.9,7.6,5.3,12.3c0,0-1.9-11,0.6-14.7
			c2.5-3.8,1.7,15.6,1.5,15.9c-0.1,0.3,0.1-0.3,0.1-0.3s0.2-9.4,4.4-13.3s-2.4,12.3-2.4,12.3s4.2-9.9,7.2-10.4
			c2.6-0.4-2.6,8.3-4.2,10.8c-0.3,0.4-0.4,0.7-0.4,0.7l9.8-9.6L71,43.8c0,0,2.8-5.7,8.7-5.2l-5.2,5.2h6.9"/>
		<path class="st7" d="M50.6,43.7l5.2-0.1l-0.1,0.3c-1.8-1.9-3.5-3.9-5.2-5.8L50,37.5l0.7,0c0.8,0.1,1.5,0.3,2.2,0.5
			c0.7,0.3,1.4,0.7,1.9,1.2c1.2,1,2,2.3,2.5,3.7l-0.7,0.2l-3.3-11.6l-0.6-2.2l1.4,1.8c1.4,1.8,2.6,3.8,3.7,5.9c0.5,1,1,2.1,1.3,3.2
			c0.3,1.1,0.6,2.3,0.4,3.5l-0.4,2.9l-0.4-2.8c-0.4-2.7-0.6-5.5-0.6-8.3c0-1.4,0.1-2.8,0.4-4.1c0.2-0.7,0.4-1.4,0.7-2
			c0.2-0.3,0.3-0.6,0.6-0.9c0.1-0.1,0.2-0.1,0.3-0.2c0.1,0,0.3,0,0.4,0.1c0.2,0.2,0.3,0.3,0.4,0.5c0.5,1.4,0.5,2.7,0.6,4.1
			c0.1,1.4,0.1,2.7,0.1,4.1l0,4.1l-0.1,2.1l0,1c0,0.2,0,0.3,0,0.5c0,0,0,0.1,0,0.1l0,0.1c0.3,0.1-0.4-0.1-0.3-0.1l0,0l0,0l0,0l0-0.1
			l0.1-0.2l0,0.1c0.1-2.5,0.4-4.9,1.1-7.3c0.7-2.3,1.7-4.8,3.6-6.4c0.3-0.2,0.5-0.4,1-0.5c0.3,0,0.5,0.3,0.6,0.5
			c0.1,0.2,0.1,0.4,0.1,0.5c0,0.7-0.1,1.3-0.2,1.9c-0.3,1.2-0.6,2.4-1,3.6c-0.8,2.3-1.6,4.6-2.5,6.9L63,43.6c0.9-2,1.8-4,2.9-5.9
			c0.6-1,1.2-1.9,1.9-2.8c0.4-0.4,0.7-0.9,1.2-1.2c0.5-0.4,1-0.8,1.8-0.8c0.2,0,0.5,0.1,0.7,0.4c0.2,0.2,0.2,0.5,0.2,0.6
			c0,0.4,0,0.7-0.1,1c-0.1,0.6-0.3,1.1-0.5,1.6c-0.4,1-0.9,2-1.4,3c-1,1.9-2.2,3.8-3.4,5.7l-0.8-0.7c3.3-3.2,6.5-6.4,9.8-9.6
			l2.4-2.3l-1.7,2.9L71.4,44l-0.7-0.4c0.5-0.8,1-1.6,1.6-2.2c0.6-0.7,1.3-1.3,2.1-1.8c1.6-1,3.5-1.5,5.3-1.3l0.6,0.1l-0.4,0.4
			c-1.8,1.7-3.5,3.4-5.3,5.1l-0.1-0.3l6.9,0.1v0.1L74.5,44l-0.4,0l0.3-0.3c1.7-1.8,3.4-3.5,5.2-5.2l0.2,0.5
			c-1.7-0.1-3.5,0.3-4.9,1.3c-0.7,0.5-1.4,1.1-1.9,1.7c-0.6,0.6-1.1,1.4-1.5,2.1l-0.7-0.4l4.7-8.5l0.8,0.6c-3.2,3.2-6.5,6.4-9.8,9.6
			l-3.2,3.2l2.4-3.8c1.2-1.8,2.3-3.7,3.3-5.6c0.5-1,1-1.9,1.4-2.9c0.2-0.5,0.4-1,0.5-1.5c0.1-0.2,0.1-0.5,0.1-0.7c0-0.1,0-0.1,0-0.1
			c0,0,0.1,0,0,0c-0.3,0-0.8,0.2-1.1,0.5c-0.4,0.3-0.7,0.7-1.1,1.1c-0.7,0.8-1.3,1.7-1.8,2.6c-1.1,1.9-2.1,3.8-3,5.8L63,43.6
			c0.9-2.2,1.8-4.5,2.6-6.8c0.4-1.1,0.8-2.3,1-3.5c0.1-0.6,0.3-1.2,0.3-1.7c0-0.1,0-0.3,0-0.4c0-0.1,0-0.1-0.1-0.1
			c-0.1,0-0.4,0.1-0.6,0.3c-1.8,1.5-2.9,3.8-3.6,6.1c-0.7,2.3-1.1,4.7-1.2,7.2l0,0l0,0L61.4,45l0,0.1l0,0l0,0l0,0
			c0.1,0-0.6-0.3-0.3-0.1l0-0.1c0,0,0,0,0,0c0-0.2,0-0.3,0-0.5l0.1-1l0.1-2.1c0-1.4,0.1-2.7,0.1-4.1c0-1.4,0-2.7-0.1-4.1
			c-0.1-1.3-0.2-2.8-0.6-4c-0.1-0.1-0.1-0.3-0.2-0.3c-0.1,0-0.1,0-0.2,0.1c-0.2,0.2-0.4,0.5-0.5,0.8c-0.3,0.6-0.5,1.2-0.6,1.9
			c-0.3,1.3-0.3,2.7-0.3,4c0,2.7,0.3,5.4,0.8,8.1l-0.8,0c0.1-1-0.1-2.1-0.4-3.2c-0.3-1.1-0.8-2.1-1.3-3.1c-1-2-2.3-3.9-3.6-5.7
			l0.8-0.4L57.3,43l-0.7,0.2c-0.5-1.3-1.2-2.5-2.3-3.4c-0.5-0.5-1.1-0.8-1.7-1.1c-0.6-0.3-1.3-0.5-2-0.5l0.2-0.5c1.7,2,3.4,4,5.1,6
			l0.2,0.3l-0.3,0L50.6,43.7L50.6,43.7z"/>
	</g>
	<g>
		<g>
			<path class="st5" d="M67.7,41.9l8.7-8.8l7-2.5c0,0,3.6,0.9,6.1,2.4c2.5,1.5,6.8,4.3,7.8,5c1,0.7,7.8,6.5,7.8,6.5s1.5,4.6,2,5.4
				c0.5,0.8,0.7,3.2,0.7,3.2s-10.5,4.1-21.3,0.3C86.5,53.4,69.6,52.6,67.7,41.9z"/>
			<path class="st7" d="M67.7,41.9c1.4-1.5,2.8-3,4.2-4.5c1.4-1.5,2.8-3,4.3-4.5l0.1-0.1l0.1,0l7-2.6l0.1,0l0.1,0
				c2.1,0.6,4.2,1.3,6.1,2.5c1.9,1.2,3.6,2.4,5.4,3.6c0.9,0.6,1.8,1.2,2.7,1.9c0.9,0.7,1.7,1.4,2.5,2.1l5,4.2l0,0l0,0.1
				c0.5,1.4,1,2.8,1.6,4.2c0.1,0.3,0.3,0.7,0.5,1c0.2,0.3,0.4,0.8,0.5,1.1c0.2,0.8,0.3,1.5,0.4,2.3l0,0.3l-0.3,0.1
				c-1.7,0.7-3.5,1.1-5.3,1.5c-1.8,0.3-3.6,0.5-5.5,0.6c-3.7,0.1-7.4-0.4-10.9-1.7l0.1,0c-2-0.1-4-0.5-5.9-1c-1.9-0.5-3.8-1.1-5.6-2
				c-1.8-0.9-3.5-2.1-4.8-3.6C68.8,45.8,67.9,43.9,67.7,41.9L67.7,41.9L67.7,41.9z M67.8,41.9c0.4,1.9,1.4,3.7,2.7,5
				c1.3,1.4,3,2.4,4.8,3.2c1.8,0.8,3.6,1.4,5.5,1.8c1.9,0.4,3.8,0.7,5.7,0.8l0.1,0l0.1,0c3.4,1.2,6.9,1.7,10.5,1.6
				c1.8,0,3.6-0.2,5.3-0.5c1.8-0.3,3.5-0.7,5.2-1.3l-0.2,0.4c0-0.7-0.1-1.5-0.3-2.2c-0.1-0.4-0.2-0.7-0.4-1
				c-0.2-0.4-0.3-0.7-0.5-1.1c-0.5-1.4-1-2.9-1.4-4.3l0.1,0.1c-1.6-1.4-3.3-2.9-4.9-4.2c-0.8-0.7-1.7-1.4-2.5-2
				c-0.9-0.6-1.8-1.2-2.7-1.7c-1.8-1.1-3.7-2.3-5.6-3.3c-1.9-1-3.9-1.7-6-2.3l0.3,0l-7,2.4l0.1-0.1c-1.5,1.5-3,2.9-4.4,4.3
				C70.8,39.1,69.3,40.6,67.8,41.9z"/>
		</g>
		<path class="st2" d="M107.2,49.9c-0.5-0.8-2-5.4-2-5.4s-6.7-5.8-7.8-6.5c-0.8-0.6-3.9-2.6-6.3-4.1c-0.2,1.4-1.3,2.6-1.3,3.5
			c1.3,2.2,5.1,3.7,3.8,7c-6.2-2.5-12.2,0.1-17.6-1.5c-1.7-0.7-3.5-2.4-4.9-4.5l-3.4,3.4c1.9,10.7,18.8,11.4,18.8,11.4
			c10.9,3.9,21.3-0.3,21.3-0.3S107.7,50.7,107.2,49.9z"/>
		<path class="st1" d="M107.2,49.9c-0.5-0.8-2-5.4-2-5.4s-6.7-5.8-7.8-6.5c-0.7-0.5-3.1-2.1-5.3-3.5c0.3,0.9,0.4,1.8,0,2.7
			c5,1.4,13.1,7.4,6.6,9.8c-2.9,1.6-9.9-0.1-14.4,1.5c-4.4,1.5-9.5-2-14.4-2c5.1,6.2,16.6,6.8,16.6,6.8c10.9,3.9,21.3-0.3,21.3-0.3
			S107.7,50.7,107.2,49.9z"/>
		<path class="st0" d="M82.8,32c-0.6,0.2-3.9,2.1-3.9,2.1s-2.7,0.8-1.3,1.2c1.4,0.5,3.2,1.6,3.3,1.3c0.1-0.3,4-1.8,4-1.8l-0.6-2.3
			L82.8,32z"/>
	</g>
	<g>
		<path class="st6" d="M83,56h6.2L83,48.9c0,0,5.4,0.2,7.6,6.3l-3.9-14c0,0,7.1,9.2,6.4,14.8c0,0-2.2-13.2,0.7-17.7
			c3-4.5,2,18.8,1.8,19.1s0.1-0.3,0.1-0.3s0.2-11.3,5.3-15.9c5.2-4.6-2.8,14.8-2.8,14.8s5-12,8.7-12.5c3.1-0.4-3.2,10-5.1,13
			c-0.3,0.5-0.5,0.8-0.5,0.8l11.8-11.6L107.5,56c0,0,3.4-6.9,10.5-6.2l-6.3,6.2h8.3"/>
		<path class="st7" d="M83,55.9l6.2-0.1l-0.1,0.3c-2.1-2.3-4.2-4.7-6.3-7l-0.5-0.5l0.7,0c0.9,0.1,1.8,0.3,2.6,0.7
			c0.8,0.4,1.6,0.8,2.3,1.4c1.4,1.2,2.4,2.7,3,4.4l-0.7,0.2l-3.9-14l-0.6-2.2l1.4,1.8c1.7,2.2,3.2,4.5,4.4,7
			c0.6,1.2,1.2,2.5,1.6,3.9c0.4,1.3,0.7,2.8,0.5,4.2l-0.4,2.9l-0.4-2.8c-0.5-3.3-0.8-6.6-0.7-9.9c0-1.7,0.1-3.3,0.5-5
			c0.2-0.8,0.4-1.6,0.8-2.4c0.2-0.4,0.4-0.8,0.8-1.1c0.1-0.1,0.2-0.2,0.4-0.2c0.2,0,0.3,0,0.5,0.1c0.2,0.2,0.3,0.4,0.4,0.6
			c0.3,0.8,0.4,1.6,0.5,2.5c0.1,0.8,0.2,1.7,0.2,2.5c0.1,1.7,0.1,3.3,0.1,5c0,1.7,0,3.3-0.1,5L96,55.5l-0.1,1.2c0,0.2,0,0.4,0,0.6
			l0,0.1c0,0,0,0,0,0.1l0,0l0,0.1c0.3,0.1-0.4-0.2-0.3-0.1l0,0l0,0l0,0l0-0.1l0.1-0.3l0,0.1c0.1-2.9,0.5-5.9,1.3-8.7
			c0.8-2.8,2-5.7,4.3-7.7c0.3-0.2,0.6-0.5,1.2-0.5c0.3,0,0.6,0.3,0.6,0.6c0.1,0.2,0.1,0.4,0.1,0.6c0,0.8-0.1,1.5-0.3,2.3
			c-0.3,1.5-0.7,2.9-1.2,4.3c-0.9,2.8-1.9,5.6-3,8.3l-0.8-0.3c1-2.4,2.2-4.8,3.5-7.1c0.7-1.1,1.4-2.3,2.3-3.3c0.4-0.5,0.9-1,1.4-1.5
			c0.6-0.4,1.2-0.9,2.1-0.9c0.3,0,0.6,0.2,0.8,0.4c0.2,0.3,0.2,0.5,0.3,0.7c0,0.4,0,0.8-0.1,1.1c-0.2,0.7-0.4,1.3-0.7,2
			c-0.5,1.2-1.1,2.4-1.7,3.6c-1.3,2.3-2.6,4.6-4,6.8L101,57l11.8-11.5l2.4-2.4l-1.7,3l-5.8,10.1l-0.7-0.4c0.5-1,1.2-1.9,1.9-2.7
			c0.7-0.8,1.6-1.5,2.5-2.1c1.9-1.2,4.2-1.7,6.3-1.5l0.6,0.1l-0.4,0.4l-6.4,6.2l-0.1-0.3l8.3,0.1V56l-8.3,0.1l-0.4,0l0.3-0.3
			l6.2-6.3l0.2,0.5c-2.1-0.2-4.2,0.4-5.9,1.5c-0.9,0.6-1.7,1.3-2.4,2.1c-0.7,0.8-1.3,1.7-1.8,2.6l-0.7-0.4l5.6-10.2l0.8,0.6
			l-11.8,11.6l-3.2,3.2l2.4-3.8c1.4-2.2,2.7-4.5,4-6.8c0.6-1.2,1.2-2.3,1.7-3.5c0.2-0.6,0.5-1.2,0.6-1.8c0.1-0.3,0.1-0.6,0.1-0.8
			c0-0.1,0-0.2,0-0.2c0,0,0,0-0.1,0c-0.4,0-1,0.3-1.4,0.7c-0.5,0.4-0.9,0.8-1.3,1.3c-0.8,1-1.5,2.1-2.2,3.2c-1.3,2.2-2.5,4.6-3.5,7
			l-0.8-0.3c1.1-2.7,2.2-5.4,3.1-8.2c0.5-1.4,0.9-2.8,1.2-4.2c0.2-0.7,0.3-1.4,0.3-2.1c0-0.2,0-0.3-0.1-0.4
			c-0.1-0.1-0.1-0.1-0.1-0.1c-0.2,0-0.5,0.2-0.8,0.4c-2.2,1.8-3.5,4.6-4.3,7.3c-0.8,2.8-1.3,5.7-1.4,8.6l0,0l0,0l-0.1,0.3l0,0.1l0,0
			l0,0l0,0c0.1,0-0.6-0.3-0.3-0.1l0-0.1l0,0c0,0,0,0,0,0l0,0c0-0.2,0-0.4,0-0.6l0.1-1.2l0.1-2.5c0-1.6,0.1-3.3,0.1-4.9
			c0-1.6-0.1-3.3-0.1-4.9c0-0.8-0.1-1.6-0.2-2.5c-0.1-0.8-0.2-1.6-0.5-2.4c-0.1-0.2-0.2-0.3-0.3-0.4c-0.1-0.1-0.2,0-0.3,0.1
			c-0.3,0.2-0.5,0.6-0.6,1c-0.3,0.7-0.6,1.5-0.7,2.3c-0.3,1.6-0.4,3.2-0.4,4.9c0,3.3,0.4,6.6,0.9,9.8l-0.8,0
			c0.1-1.3-0.1-2.6-0.5-3.9c-0.4-1.3-0.9-2.5-1.5-3.7c-1.2-2.4-2.7-4.7-4.3-6.9l0.8-0.4l3.8,14l-0.7,0.2c-0.6-1.6-1.5-3.1-2.8-4.1
			c-0.6-0.6-1.4-1-2.1-1.3c-0.8-0.3-1.6-0.6-2.4-0.7l0.2-0.5c2,2.4,4.1,4.8,6.1,7.2l0.2,0.3l-0.3,0L83,55.9L83,55.9z"/>
	</g>
	<g>
		<path class="st6" d="M-3.9,118.9h10l-10-11.5c0,0,8.7,0.3,12.3,10.2L2.1,94.9c0,0,11.6,14.9,10.3,24c0,0-3.6-21.4,1.2-28.7
			c4.8-7.3,3.2,30.4,3,31c-0.2,0.5,0.2-0.5,0.2-0.5s0.3-18.3,8.7-25.8s-4.6,24-4.6,24s8.1-19.4,14-20.2c5-0.7-5.1,16.1-8.2,21.1
			c-0.5,0.9-0.9,1.4-0.9,1.4L45,102.5l-9.2,16.4c0,0,5.5-11.1,16.9-10.1l-10.2,10.1h13.4"/>
		<path class="st7" d="M-3.9,118.9l10-0.1L6,119c-3.4-3.8-6.8-7.6-10.1-11.4l-0.4-0.5l0.6,0c1.5,0.1,2.8,0.5,4.2,1.1
			c1.3,0.6,2.6,1.3,3.7,2.2c2.2,1.8,3.8,4.3,4.8,7l-0.6,0.2L1.7,95.1l-0.6-2.1l1.4,1.8c2.7,3.6,5.1,7.3,7.1,11.3
			c1,2,1.9,4.1,2.5,6.2c0.6,2.2,1.1,4.4,0.8,6.7l-0.3,2.6l-0.4-2.6c-0.8-5.3-1.3-10.6-1.2-16c0-2.7,0.2-5.4,0.8-8
			c0.3-1.3,0.7-2.6,1.3-3.9c0.3-0.6,0.6-1.2,1.2-1.7c0.1-0.1,0.3-0.2,0.5-0.3c0.2-0.1,0.5,0,0.7,0.1c0.3,0.3,0.5,0.6,0.6,0.9
			c0.5,1.3,0.7,2.6,0.8,4c0.2,1.3,0.2,2.7,0.3,4c0.1,2.7,0.2,5.3,0.2,8c0,2.7,0,5.3-0.1,8l-0.1,4l-0.1,2c0,0.3,0,0.7-0.1,1l0,0.1
			c0,0,0,0,0,0.1l0,0l-0.1,0.1c0.3,0.1-0.4-0.2-0.3-0.2l0,0l0,0l0-0.1l0.1-0.1l0.2-0.5l0,0.1c0.2-4.8,0.8-9.5,2.1-14.1
			c0.7-2.3,1.5-4.5,2.6-6.7c1.1-2.1,2.5-4.1,4.4-5.7c0.2-0.2,0.5-0.4,0.8-0.5c0.3-0.1,0.6-0.3,1-0.3c0.5,0,0.8,0.5,0.9,0.8
			c0.1,0.3,0.1,0.7,0.2,1c0,1.3-0.2,2.4-0.5,3.6c-0.5,2.3-1.2,4.6-1.9,6.9c-1.5,4.5-3.1,9-4.9,13.4l-0.8-0.3
			c1.7-3.9,3.6-7.8,5.7-11.5c1.1-1.8,2.3-3.7,3.6-5.3c0.7-0.8,1.4-1.6,2.3-2.4c0.9-0.7,1.9-1.4,3.2-1.4c0.4,0,0.8,0.2,1.1,0.5
			c0.3,0.3,0.3,0.7,0.3,1c0,0.6-0.1,1.2-0.2,1.7c-0.3,1.1-0.6,2.1-1,3.1c-0.8,2-1.8,3.9-2.8,5.8c-2,3.8-4.2,7.4-6.5,11l-0.8-0.7
			l19.1-18.7l2.4-2.4l-1.7,2.9l-9.3,16.4l-0.7-0.4c0.9-1.6,1.9-3,3.1-4.3c1.2-1.3,2.5-2.5,4-3.4c1.5-0.9,3.1-1.7,4.9-2.1
			c1.7-0.4,3.5-0.5,5.3-0.4l0.6,0.1l-0.4,0.4l-10.3,10l-0.1-0.3l13.4,0.1v0.1l-13.4,0.1l-0.4,0l0.3-0.3l10.1-10.1l0.2,0.5
			c-1.7-0.1-3.4,0-5.1,0.4c-1.7,0.4-3.2,1.1-4.7,2.1c-1.4,0.9-2.7,2.1-3.9,3.3c-1.1,1.3-2.2,2.7-2.9,4.2l-0.7-0.4l9.1-16.5l0.8,0.6
			l-19.1,18.7l-3.2,3.1l2.4-3.8c2.3-3.6,4.4-7.2,6.4-11c1-1.9,2-3.8,2.8-5.7c0.4-1,0.8-2,1-2.9c0.2-0.9,0.3-2.1-0.3-2.1
			c-0.8,0-1.8,0.5-2.5,1.1c-0.8,0.6-1.5,1.4-2.2,2.2c-1.3,1.6-2.5,3.4-3.6,5.2c-2.2,3.6-4,7.5-5.7,11.3l-0.8-0.3
			c1.8-4.4,3.5-8.8,5-13.3c0.7-2.2,1.5-4.5,2-6.8c0.3-1.1,0.5-2.3,0.5-3.4c0-0.5-0.1-1.2-0.5-1.1c-0.4,0-0.9,0.3-1.4,0.7
			c-1.8,1.5-3.2,3.4-4.3,5.4c-1.1,2.1-1.9,4.3-2.6,6.5c-1.3,4.5-2,9.3-2.2,14l0,0l0,0l-0.2,0.5l-0.1,0.1l0,0.1l0,0l0,0
			c0.1,0-0.7-0.3-0.4-0.2l0-0.1l0,0c0,0,0,0,0,0l0,0c0-0.3,0.1-0.7,0.1-1l0.1-2l0.2-4c0.1-2.7,0.1-5.3,0.1-8c0-2.7-0.1-5.3-0.2-8
			c-0.1-1.3-0.2-2.7-0.4-4c-0.2-1.3-0.4-2.6-0.8-3.8c-0.1-0.3-0.3-0.6-0.5-0.7c-0.2-0.1-0.4-0.1-0.6,0.1c-0.4,0.4-0.8,1-1,1.6
			c-0.6,1.2-0.9,2.4-1.2,3.7c-0.5,2.6-0.7,5.3-0.7,7.9c0,5.3,0.5,10.6,1.4,15.9l-0.7,0c0.3-2.1-0.2-4.3-0.8-6.4
			c-0.6-2.1-1.5-4.1-2.5-6.1c-1-2-2.1-3.9-3.3-5.7c-1.2-1.9-2.4-3.7-3.7-5.5l0.7-0.4l6.2,22.7l-0.6,0.2c-0.9-2.6-2.5-5-4.6-6.8
			c-1-0.9-2.2-1.6-3.5-2.2c-1.3-0.5-2.6-0.9-4-1l0.2-0.4c3.3,3.8,6.6,7.7,9.9,11.6l0.2,0.3l-0.3,0L-3.9,118.9L-3.9,118.9z"/>
	</g>
	<g>
		<path class="st6" d="M107.6,94.8h8.1l-8.1-9.4c0,0,7.1,0.3,10,8.3l-5.1-18.4c0,0,9.4,12.1,8.4,19.5c0,0-2.9-17.4,1-23.3
			c3.9-5.9,2.6,24.8,2.4,25.2c-0.2,0.4,0.2-0.4,0.2-0.4s0.2-14.9,7-21c6.8-6.1-3.7,19.5-3.7,19.5s6.6-15.7,11.4-16.4
			c4.1-0.6-4.2,13.1-6.7,17.2c-0.4,0.7-0.7,1.1-0.7,1.1l15.5-15.2l-7.5,13.4c0,0,4.5-9,13.8-8.2l-8.3,8.2h10.9"/>
		<path class="st7" d="M107.6,94.7l8.1-0.1l-0.1,0.3l-8.2-9.3l-0.5-0.5l0.7,0c1.2,0.1,2.3,0.4,3.4,0.9c1.1,0.5,2.1,1.1,3,1.8
			c1.8,1.5,3.1,3.6,3.9,5.7l-0.7,0.2l-5.2-18.4l-0.6-2.2l1.4,1.8c2.2,2.9,4.2,6,5.8,9.2c0.8,1.6,1.5,3.3,2.1,5.1
			c0.5,1.8,0.9,3.6,0.6,5.5l-0.4,2.8l-0.4-2.8c-0.6-4.3-1-8.7-1-13c0-2.2,0.2-4.4,0.6-6.5c0.2-1.1,0.5-2.1,1-3.1
			c0.3-0.5,0.5-1,1-1.4c0.1-0.1,0.3-0.2,0.4-0.2c0.2,0,0.4,0,0.5,0.1c0.3,0.2,0.4,0.5,0.5,0.8c0.4,1.1,0.5,2.1,0.7,3.2
			c0.1,1.1,0.2,2.2,0.3,3.3c0.1,2.2,0.1,4.3,0.2,6.5c0,2.2,0,4.3-0.1,6.5l-0.1,3.3l-0.1,1.6c0,0.3,0,0.5-0.1,0.8l0,0.1
			c0,0,0,0,0,0.1l0,0l0,0.1c0.3,0.1-0.4-0.2-0.3-0.2l0,0l0,0l0,0l0-0.1l0.2-0.4l0,0.1c0.1-3.9,0.7-7.7,1.7-11.5
			c0.5-1.9,1.2-3.7,2.1-5.4c0.9-1.7,2.1-3.4,3.6-4.6c0.4-0.3,0.8-0.7,1.5-0.7c0.4,0,0.7,0.4,0.8,0.7c0.1,0.3,0.1,0.5,0.1,0.8
			c0,1-0.2,2-0.4,2.9c-0.4,1.9-1,3.8-1.6,5.6c-1.2,3.7-2.5,7.3-4,10.9l-0.8-0.3c1.4-3.2,2.9-6.3,4.7-9.3c0.9-1.5,1.8-3,3-4.4
			c0.6-0.7,1.2-1.3,1.9-1.9c0.7-0.6,1.5-1.1,2.7-1.1c0.3,0,0.7,0.2,0.9,0.5c0.2,0.3,0.3,0.6,0.3,0.9c0,0.5,0,1-0.1,1.4
			c-0.2,0.9-0.5,1.7-0.9,2.5c-0.7,1.6-1.5,3.2-2.3,4.7c-1.7,3.1-3.4,6-5.3,9l-0.8-0.7L147,81.1l2.4-2.4l-1.7,2.9L140.2,95l-0.7-0.4
			c0.7-1.3,1.6-2.4,2.5-3.5c1-1.1,2.1-2,3.3-2.8c1.2-0.8,2.6-1.4,4-1.7c1.4-0.3,2.9-0.4,4.3-0.3l0.6,0.1l-0.4,0.4l-8.4,8.1l-0.1-0.3
			l10.9,0.1v0.1L145.3,95l-0.4,0l0.3-0.3l8.2-8.3l0.2,0.5c-1.4-0.1-2.8,0-4.1,0.3c-1.3,0.3-2.6,0.9-3.8,1.7
			c-1.2,0.8-2.2,1.7-3.1,2.7c-0.9,1-1.8,2.2-2.4,3.4l-0.7-0.4l7.4-13.4l0.8,0.6L132.2,97l-3.2,3.2l2.4-3.8c1.8-2.9,3.6-5.9,5.2-8.9
			c0.8-1.5,1.6-3.1,2.3-4.6c0.3-0.8,0.6-1.6,0.8-2.4c0.1-0.4,0.2-0.8,0.1-1.1c0-0.2-0.1-0.3-0.1-0.3c0,0-0.1-0.1-0.2-0.1
			c-0.6,0-1.4,0.4-2,0.9c-0.6,0.5-1.2,1.1-1.7,1.8c-1.1,1.3-2,2.7-2.9,4.2c-1.8,3-3.3,6.1-4.7,9.2l-0.8-0.3
			c1.5-3.6,2.9-7.2,4.1-10.8c0.6-1.8,1.2-3.7,1.6-5.5c0.2-0.9,0.4-1.9,0.4-2.8c0-0.4-0.1-0.9-0.3-0.9c-0.3,0-0.7,0.3-1.1,0.5
			c-1.5,1.2-2.6,2.7-3.5,4.4c-0.9,1.7-1.6,3.5-2.1,5.3c-1.1,3.7-1.6,7.5-1.8,11.3l0,0l0,0l-0.2,0.4l0,0.1l0,0l0,0l0,0
			c0.1,0-0.7-0.3-0.4-0.2l0-0.1l0,0c0,0,0,0,0,0l0,0c0-0.3,0-0.5,0.1-0.8l0.1-1.6l0.1-3.2c0.1-2.2,0.1-4.3,0.1-6.5
			c0-2.2-0.1-4.3-0.2-6.5c-0.1-1.1-0.1-2.2-0.3-3.2c-0.1-1.1-0.3-2.2-0.7-3.1c-0.1-0.2-0.2-0.5-0.4-0.6c-0.1-0.1-0.3-0.1-0.5,0.1
			c-0.3,0.3-0.6,0.8-0.8,1.3c-0.5,1-0.7,2-1,3c-0.4,2.1-0.5,4.3-0.5,6.4c0,4.3,0.5,8.6,1.2,12.9l-0.8,0c0.2-1.7-0.1-3.5-0.6-5.2
			c-0.5-1.7-1.2-3.3-2-4.9c-0.8-1.6-1.7-3.1-2.7-4.7c-1-1.5-2-3-3-4.4l0.8-0.4l5,18.4l-0.7,0.2c-0.8-2.1-2-4-3.7-5.5
			c-0.8-0.7-1.8-1.3-2.8-1.8c-1-0.4-2.1-0.8-3.2-0.9l0.2-0.5l8,9.4l0.2,0.3l-0.3,0L107.6,94.7L107.6,94.7z"/>
	</g>
	<g>
		<path class="st6" d="M-51.4,60.8h8.1l-8.1-9.2c0,0,7,0.3,9.9,8.2l-5-18.2c0,0,9.3,11.9,8.3,19.3c0,0-2.9-17.2,1-23
			s2.6,24.5,2.4,24.9c-0.2,0.4,0.2-0.4,0.2-0.4s0.2-14.7,7-20.7s-3.7,19.3-3.7,19.3s6.5-15.6,11.3-16.2c4-0.6-4.1,13-6.6,17
			c-0.4,0.7-0.7,1.1-0.7,1.1l15.3-15l-7.4,13.2c0,0,4.4-8.9,13.6-8.1l-8.2,8.1h10.8"/>
		<path class="st7" d="M-51.4,60.7l8.1-0.1l-0.1,0.3l-8.1-9.2l-0.5-0.5l0.7,0c1.2,0.1,2.3,0.4,3.4,0.8c1.1,0.5,2.1,1.1,3,1.8
			c1.8,1.5,3.1,3.5,3.9,5.7l-0.7,0.2l-5.1-18.2l-0.6-2.2l1.4,1.8c2.2,2.9,4.1,5.9,5.7,9.1c0.8,1.6,1.5,3.3,2,5
			c0.5,1.7,0.9,3.6,0.6,5.5l-0.4,2.9l-0.4-2.8c-0.6-4.3-1-8.6-1-12.9c0-2.2,0.2-4.3,0.6-6.4c0.2-1.1,0.5-2.1,1-3.1
			c0.3-0.5,0.5-1,1-1.4c0.1-0.1,0.3-0.2,0.4-0.2c0.2,0,0.4,0,0.5,0.1c0.3,0.2,0.4,0.5,0.5,0.7c0.4,1,0.5,2.1,0.7,3.2
			c0.1,1.1,0.2,2.1,0.3,3.2c0.1,2.1,0.1,4.3,0.1,6.4c0,2.1,0,4.3-0.1,6.4l-0.1,3.2l-0.1,1.6c0,0.3,0,0.5-0.1,0.8l0,0.1
			c0,0,0,0,0,0.1l0,0l0,0.1c0.3,0.1-0.4-0.2-0.4-0.2l0,0l0,0l0,0l0-0.1l0.2-0.4l0,0.1c0.1-3.8,0.7-7.6,1.7-11.3
			c0.5-1.8,1.2-3.7,2.1-5.4c0.9-1.7,2-3.3,3.6-4.6c0.4-0.3,0.8-0.7,1.5-0.7c0.4,0,0.7,0.4,0.8,0.7c0.1,0.3,0.1,0.5,0.1,0.8
			c0,1-0.2,2-0.4,2.9c-0.4,1.9-1,3.7-1.6,5.5c-1.2,3.6-2.5,7.2-3.9,10.8l-0.8-0.3c1.4-3.2,2.9-6.3,4.6-9.2c0.9-1.5,1.8-2.9,2.9-4.3
			c0.6-0.7,1.2-1.3,1.9-1.9c0.7-0.6,1.5-1.1,2.7-1.1c0.3,0,0.7,0.2,0.9,0.5c0.2,0.3,0.3,0.6,0.3,0.9c0,0.5,0,1-0.1,1.4
			c-0.2,0.9-0.5,1.7-0.8,2.5c-0.7,1.6-1.4,3.2-2.2,4.7c-1.6,3-3.4,6-5.2,8.9l-0.8-0.7l15.4-15l2.4-2.4l-1.7,2.9L-19.2,61l-0.7-0.4
			c0.7-1.3,1.5-2.4,2.5-3.5c1-1,2.1-2,3.3-2.8c1.2-0.8,2.5-1.3,3.9-1.7c1.4-0.3,2.8-0.4,4.3-0.3l0.6,0.1l-0.4,0.4l-8.3,8l-0.1-0.3
			l10.8,0.1v0.1L-14.1,61l-0.4,0l0.3-0.3l8.1-8.2l0.2,0.5c-1.4-0.1-2.7,0-4.1,0.3c-1.3,0.3-2.6,0.9-3.7,1.6
			c-1.1,0.7-2.2,1.7-3.1,2.7c-0.9,1-1.7,2.2-2.3,3.3l-0.7-0.4l7.3-13.3l0.8,0.6L-27.1,63l-3.2,3.1l2.4-3.8c1.8-2.9,3.6-5.8,5.2-8.8
			c0.8-1.5,1.6-3,2.2-4.6c0.3-0.8,0.6-1.6,0.8-2.3c0.1-0.4,0.2-0.8,0.1-1.1c0-0.2-0.1-0.3-0.1-0.3c0,0-0.1-0.1-0.2-0.1
			c-0.6,0-1.4,0.4-2,0.9c-0.6,0.5-1.2,1.1-1.7,1.8c-1.1,1.3-2,2.7-2.9,4.2c-1.7,2.9-3.2,6-4.6,9.1l-0.8-0.3c1.4-3.5,2.8-7.1,4-10.7
			c0.6-1.8,1.2-3.6,1.6-5.4c0.2-0.9,0.4-1.9,0.4-2.7c0-0.4-0.1-0.9-0.3-0.9c-0.3,0-0.7,0.3-1.1,0.5c-1.4,1.2-2.6,2.7-3.5,4.4
			c-0.9,1.7-1.6,3.4-2.1,5.3c-1,3.6-1.6,7.4-1.8,11.2l0,0l0,0l-0.2,0.4l0,0.1l0,0l0,0l0,0c0.1,0-0.7-0.3-0.4-0.2l0-0.1l0,0
			c0,0,0,0,0,0l0,0c0-0.2,0-0.5,0.1-0.8l0.1-1.6l0.1-3.2c0.1-2.1,0.1-4.3,0.1-6.4c0-2.1-0.1-4.3-0.2-6.4c-0.1-1.1-0.1-2.1-0.3-3.2
			c-0.1-1-0.3-2.1-0.7-3.1c-0.1-0.2-0.2-0.5-0.4-0.6c-0.1-0.1-0.3-0.1-0.5,0.1c-0.3,0.3-0.6,0.8-0.8,1.3c-0.5,0.9-0.7,2-0.9,3
			c-0.4,2.1-0.5,4.2-0.5,6.3c0,4.3,0.5,8.5,1.1,12.7l-0.8,0c0.2-1.7-0.1-3.4-0.6-5.1c-0.5-1.7-1.2-3.3-2-4.9
			c-0.8-1.6-1.7-3.1-2.6-4.6c-0.9-1.5-1.9-3-3-4.4l0.8-0.4l5,18.2l-0.7,0.2c-0.8-2.1-1.9-4-3.6-5.4c-0.8-0.7-1.8-1.3-2.8-1.8
			c-1-0.4-2.1-0.8-3.2-0.8l0.2-0.5l8,9.3l0.2,0.3l-0.3,0L-51.4,60.7L-51.4,60.7z"/>
	</g>
</g>
<g>
	<path class="st8" d="M186.3,82.4c0,0,0,0.5-0.1,1.2c0-0.1,0.1-0.1,0.1-0.2L186.3,82.4z"/>
	<path class="st8" d="M184.4,84.2c0,0-1.5,2.9-2.9,5.8c0.9-1.1,1.8-2.2,2.6-3.4L184.4,84.2z"/>
	<path class="st3" d="M337,166.8c-2.1,0.2-5.4,1.1-6.8,3.9c0,0-0.7-4.7,2.8-4.8c-2.4-0.1-8.2,0.1-10.1,3.7l3.6-8.4
		c0,0-4.9,3.6-5.2,6.7v-5.4c0,0-1.8,3.2-1.8,5.8c0,0,0.2-4.3-1.2-10.5c0,0-0.3,6.8-1.9,8.9v-13.1c0,0-3.6,5-3.6,10.6
		c0,0-3.8-9.8-1.5-13.4c-1.7,1.7-4.8,5.1-5.7,8.5c0-3.7-0.2-10.1-1.9-12.2c0,0,1.8,9.4-1.6,13.1l-0.8-13.8c0,0-0.8,12.2-3.4,12.7
		l1.5-11.1c0,0-3,5.4-4.8,8.2c0.6-2.3,2.5-9.7,0.5-12.9c0,0,0.4,12.1-6.3,11.6l-2.4-10.2l-3.9,7.3l0,0c0.5-1.3,1.3-4.7-1.3-8.9
		c0,0,0.5,5-2.4,6.8c0,0,0.9-1.5-1.8-7.8c0,0,1.2,4.5-1.7,6.7l-0.2-0.1v-3.9c0,0-0.4,3-2.3,2.4l0.1-1c0.9-1.9,3-5.6,5.9-6
		c-2.1,0-5.5,0.3-7.2,2.9c0,0,0-4.7,3.5-4.4c-2.4-0.4-8.2-1.1-10.5,2.3l4.7-7.8c0,0-5.4,2.9-6,5.9l0.8-5.3c0,0-2.3,2.9-2.6,5.5
		c0,0,0.8-4.3,0.3-10.6c0,0-1.3,6.7-3.2,8.5l1.8-13c0,0-4.3,4.5-5.1,10c0,0-2.3-10.2,0.4-13.5c-1.9,1.4-5.5,4.4-6.8,7.6
		c0.6-3.7,1.2-10-0.2-12.4c0,0,0.4,9.6-3.4,12.8l1.1-13.8c0,0-2.5,11.9-5.1,12.1l3-10.8c0,0-3.8,5-5.9,7.5c1-2.2,3.8-9.2,2.3-12.7
		c0,0-1.3,12-7.8,10.7l-1-10.5l-5.2,7.1c0.2-0.3,2.7-3.9,0.2-9.5c0,0-0.2,5-3.3,6.4c0,0,1.1-1.3-0.7-8c0,0,0.6,4.8-2.9,6.5l0.6-4.1
		c0,0-0.8,2.9-2.6,2l0.8-3.1c0.8-1.3,1.8-2.5,3.1-2.9c-2.1,0.3-5.4,1.2-6.8,4.3c0,0-0.7-5.2,2.8-5.4c-2.4-0.1-8.2,0.1-10.1,4.1
		l3.6-9.4c0,0-5,4.1-5.2,7.5v-6c0,0-1.8,3.6-1.8,6.5c0,0,0.2-4.9-1.2-11.8c0,0-0.3,7.6-1.9,10V90.5c0,0-3.6,5.6-3.6,11.8
		c0,0-3.8-11-1.5-15c-1.7,1.8-4.8,5.7-5.7,9.5c0-4.2-0.2-11.3-1.9-13.7c0,0,1.8,10.5-1.6,14.7l-0.8-14.5c0,0.1-0.1,0.1-0.1,0.2
		c-0.3,3.3-1.2,12.6-3.3,13.1l1.2-10.1c-0.9,1.1-1.7,2.3-2.6,3.4c-0.7,1.3-1.3,2.5-1.8,3.5c0.1-0.4,0.3-1.1,0.4-1.8
		c-12.1,13.8-28.4,23.3-44.7,28c-70.3,20-142,20.3-213.4,18.1v35.2l411.5,3.3l-3.3-1.4c0.5,0,1,0,1.5-0.1
		C331.7,174.7,333.2,167.9,337,166.8z M178.4,95.3c0,0,0.1-0.1,0.2-0.2C178.5,95.2,178.4,95.2,178.4,95.3z M217.1,112.8
		c0.1-0.3,0.2-0.7,0.3-1.1c0.4,0.4,0.8,0.9,1.3,1.5L217.1,112.8z M270.5,146.8c0.4,0,0.7,0.1,1.1,0.1c0.2,0.1,0.4,0.3,0.6,0.5
		L270.5,146.8z M293.4,157.8c0,0,0.1-0.1,0.2-0.2C293.5,157.7,293.4,157.8,293.4,157.8z"/>
	<path class="st8" d="M312.3,149.7c0,0-0.4,0.4-1.1,1C311.5,150.3,311.8,149.9,312.3,149.7z"/>
	<path class="st8" d="M333,165.9c0.3,0,0.7,0,1,0.1C334.1,165.9,333.7,165.9,333,165.9z"/>
	<path class="st8" d="M338.7,166.7c0,0-0.7,0-1.7,0.1C337.5,166.6,338.1,166.6,338.7,166.7z"/>
	<path class="st8" d="M280.6,140.1c0,0-0.7-0.1-1.7-0.1C279.4,139.8,280,139.9,280.6,140.1z"/>
	<path class="st8" d="M275.1,138.4c0.3,0,0.6,0.1,1,0.2C276.1,138.6,275.7,138.5,275.1,138.4z"/>
	<path class="st8" d="M256.8,119.5c0,0-0.5,0.3-1.2,0.8C255.9,120,256.3,119.7,256.8,119.5z"/>
	<path class="st8" d="M197.3,88.4c0,0-0.4,0.4-1.1,1C196.5,88.9,196.9,88.6,197.3,88.4z"/>
	<path class="st8" d="M219.1,104.6c0,0-0.4,0-1-0.1C218.4,104.5,218.7,104.5,219.1,104.6z"/>
	<path class="st8" d="M222,105.5c0.5-0.2,1.1-0.2,1.7-0.1C223.7,105.4,223,105.3,222,105.5z"/>
	<path class="st8" d="M-21,19.1c-0.3-1-0.5-1.6-0.5-1.6C-21.2,18-21,18.5-21,19.1z"/>
	<path class="st8" d="M-48.3,19.2c-0.6-0.4-1-0.6-1-0.6C-48.9,18.8-48.6,19-48.3,19.2z"/>
	<path class="st8" d="M-52.4,17.7c-0.9-0.8-1.5-1.2-1.5-1.2C-53.3,16.8-52.8,17.2-52.4,17.7z"/>
</g>
</svg>
