<?xml version="1.0" encoding="utf-8"?>
<!-- Generator: Adobe Illustrator 15.1.0, SVG Export Plug-In . SVG Version: 6.00 Build 0)  -->
<!DOCTYPE svg PUBLIC "-//W3C//DTD SVG 1.1//EN" "http://www.w3.org/Graphics/SVG/1.1/DTD/svg11.dtd">
<svg version="1.1" id="animals" xmlns="http://www.w3.org/2000/svg" xmlns:xlink="http://www.w3.org/1999/xlink" x="0px" y="0px"
	 width="141px" height="137px" viewBox="0 0 141 137" style="enable-background:new 0 0 141 137;" xml:space="preserve">
<style type="text/css">
<![CDATA[
	.st0{opacity:0.21;}
	.st1{opacity:0.51;}
	.st2{opacity:0.57;}
	.st3{opacity:0.54;fill:#442916;}
	.st4{fill:#BC8B57;}
	.st5{fill:#231F20;}
	.st6{fill:#F9D8AC;}
	.st7{fill:#C69060;}
	.st8{fill:#FCC581;}
	.st9{fill:none;stroke:#000000;stroke-miterlimit:10;}
	.st10{fill:#FFE000;}
	.st11{fill:#FFFFFF;}
	.st12{opacity:0.48;fill:#442916;}
	.st13{opacity:0.44;fill:#FFA6B7;}
	.st14{opacity:0.54;fill:#FFA6B7;}
	.st15{fill:#754220;}
	.st16{opacity:0.25;fill:#825E37;}
	.st17{fill:#442916;}
	.st18{fill:#FFFFFF;stroke:#231F20;stroke-width:0.25;stroke-miterlimit:10;}
]]>
</style>
<g>
	<path class="st1" d="M75.5,127.1c-0.5,4-16,5.3-34.5,2.8c-18.5-2.4-33.1-7.7-32.6-11.7c0.5-4,15-0.3,33.6,2.1
		C60.5,122.8,76,123.1,75.5,127.1z"/>
	<g>
		<path class="st15" d="M67.5,117.9c0,0,16.9,5.3,27.7-22.9c10.8-28.2,8.8-45.7,28.5-43.7c19.7,2,9.7,34.1-3,31.6
			c-12.7-2.5-11.9-9.5-11.9-9.5s-0.3-4.6,3.6-2.4c0,0,0.3,7.2,8.8,8.3c8.5,1.1,11-17.8,8.6-21.1c-2.4-3.3-14.4-4.7-16.6-0.9
			c-2.2,3.8-9.1,21.6-11.3,30.7c-2.2,9.1-14.1,40.7-35.8,31.8c-21.7-8.9,0,0,0,0S64.8,117.5,67.5,117.9z"/>
		<path d="M67.5,117.9c3.2,0.8,6.6,0.3,9.7-0.8c3.1-1.2,5.8-3.2,8.1-5.5c4.6-4.8,7.6-10.8,9.8-16.9c2.3-6.2,4.2-12.5,6-18.8
			c0.9-3.2,1.8-6.3,2.9-9.5c1.1-3.1,2.3-6.3,4.1-9.1c0.9-1.4,2.1-2.7,3.4-3.7c1.4-1,2.9-1.7,4.6-2.2c1.6-0.4,3.3-0.5,5-0.5
			c1.7,0.1,3.3,0.2,5,0.6c1.6,0.4,3.2,1.1,4.5,2.2c1.3,1.1,2.4,2.4,3.1,4c1.4,3.1,1.6,6.5,1.1,9.8c-0.5,3.3-1.6,6.5-3.3,9.3
			c-0.9,1.4-1.9,2.7-3.1,3.9c-1.2,1.1-2.7,2-4.3,2.5c-0.8,0.2-1.7,0.3-2.5,0.2c-0.8-0.1-1.6-0.3-2.5-0.5c-1.6-0.4-3.2-0.9-4.7-1.7
			c-1.5-0.7-2.9-1.7-4-3c-1.1-1.3-1.9-2.9-1.8-4.7l0,0c0-0.5,0-1,0.1-1.5c0.1-0.5,0.3-1,0.8-1.4c0.5-0.4,1.1-0.4,1.6-0.3
			c0.5,0.1,1,0.3,1.4,0.6l0.1,0.1l0,0.2c0.2,1.6,0.8,3.3,1.8,4.6c1,1.3,2.5,2.3,4,2.8c0.8,0.3,1.6,0.5,2.4,0.6
			c0.8,0.1,1.6,0.1,2.4-0.2c1.5-0.5,2.7-1.8,3.6-3.2c1.7-2.9,2.6-6.2,3-9.6c0.2-1.7,0.3-3.4,0.1-5c-0.1-0.8-0.2-1.7-0.6-2.3
			c-0.4-0.6-1-1.1-1.8-1.5c-1.5-0.7-3.1-1.2-4.8-1.4c-1.7-0.3-3.4-0.3-5-0.1c-0.8,0.1-1.6,0.3-2.4,0.5c-0.7,0.3-1.4,0.7-1.8,1.3
			c-0.8,1.4-1.5,3-2.2,4.6c-2.6,6.3-5,12.8-7.2,19.3c-0.5,1.6-1,3.3-1.5,4.9c-0.5,1.6-0.8,3.3-1.4,5c-1,3.3-2.3,6.5-3.8,9.6
			c-1.5,3.1-3.2,6.1-5.2,9c-2,2.8-4.3,5.5-7.1,7.6c-2.7,2.1-6,3.7-9.5,4.2c-3.5,0.5-7-0.2-10.2-1.6l-4.7-2l-2.4-1l-1.2-0.5l-0.6-0.2
			l-0.3-0.1l-0.1-0.1l0,0c0.1-0.4,0.1-0.1,0.1-0.2l0.1,0l9.5,3.9l-0.1,0.1c-0.1-0.3-0.2-0.5-0.3-0.8c-0.1-0.3-0.1-0.6,0.1-0.9
			c0.2-0.3,0.5-0.4,0.8-0.4C66.9,117.8,67.2,117.8,67.5,117.9L67.5,117.9L67.5,117.9z M67.5,118L67.5,118c-0.3,0-0.6-0.1-0.8,0
			c-0.3,0-0.5,0.1-0.7,0.4c-0.1,0.2-0.1,0.5-0.1,0.8c0.1,0.3,0.2,0.5,0.3,0.8l0.1,0.2l-0.2-0.1l-9.5-3.9l-0.1,0
			c0-0.1-0.1,0.2,0.1-0.2l0,0l0.1,0.1l0.3,0.1l0.6,0.2l1.2,0.5l2.4,1l4.8,1.9c3.1,1.3,6.6,1.9,10,1.4c3.4-0.5,6.5-2.1,9.1-4.2
			c2.6-2.1,4.9-4.7,6.8-7.5c1.9-2.8,3.6-5.8,5-8.9c1.4-3.1,2.7-6.3,3.7-9.5c0.5-1.6,0.9-3.3,1.3-5c0.5-1.7,1-3.3,1.5-5
			c2.1-6.6,4.5-13,7.2-19.4c0.3-0.8,0.7-1.6,1.1-2.4c0.4-0.8,0.7-1.5,1.2-2.4c0.6-0.8,1.5-1.3,2.3-1.6c0.9-0.3,1.7-0.5,2.6-0.6
			c1.8-0.2,3.5-0.1,5.3,0.2c1.7,0.3,3.4,0.7,5.1,1.6c0.8,0.4,1.6,0.9,2.1,1.8c0.5,0.9,0.6,1.8,0.7,2.7c0.2,1.8,0.1,3.5-0.2,5.2
			c-0.5,3.4-1.4,6.9-3.2,9.9c-0.9,1.5-2.2,2.9-4,3.5c-0.9,0.3-1.9,0.3-2.7,0.2c-0.9-0.1-1.7-0.3-2.6-0.6c-1.7-0.6-3.2-1.6-4.3-3.1
			c-1.1-1.4-1.8-3.1-1.9-4.9l0.1,0.2c-0.4-0.2-0.8-0.4-1.3-0.5c-0.4-0.1-0.9-0.1-1.2,0.2c-0.3,0.2-0.5,0.7-0.6,1.1
			c-0.1,0.4-0.2,0.9-0.1,1.4l0,0l0,0c-0.1,1.5,0.6,3.1,1.7,4.3c1,1.2,2.4,2.2,3.8,2.9c1.5,0.7,3,1.3,4.6,1.7
			c0.8,0.2,1.6,0.4,2.4,0.5c0.8,0.1,1.6,0,2.4-0.2c1.6-0.4,3-1.3,4.2-2.4c1.2-1.1,2.2-2.4,3.1-3.8c1.7-2.8,2.8-6,3.2-9.2
			c0.4-3.2,0.2-6.6-1.2-9.5c-0.7-1.5-1.7-2.7-3-3.7c-1.3-1-2.8-1.6-4.3-2c-1.6-0.4-3.2-0.5-4.8-0.5c-1.6,0-3.2,0.1-4.8,0.6
			c-1.5,0.4-3,1.1-4.3,2.1c-1.3,1-2.3,2.2-3.2,3.5c-1.8,2.7-2.9,5.8-4,8.9c-1,3.1-2,6.3-2.9,9.4c-1.9,6.3-3.8,12.6-6.3,18.8
			c-2.4,6.1-5.5,12.1-10.2,16.9c-2.3,2.3-5.1,4.3-8.2,5.5C74.1,118.4,70.7,118.8,67.5,118z"/>
	</g>
	<g>
		<path class="st15" d="M64.1,119.1c-0.3-0.1-0.5-0.2-0.8-0.3C63.6,118.9,63.9,119,64.1,119.1z"/>
		<path d="M64.1,119.1c-0.1,0-0.2,0.1-0.3,0.2c-0.1,0.1-0.2,0.1-0.2,0c0-0.1,0-0.3-0.1-0.3c0-0.1-0.1,0-0.2,0l0.2-0.5
			c0.2-0.1,0.4-0.1,0.5-0.1c0.1,0,0.1,0.1,0.1,0.3C64.1,118.9,64.1,119,64.1,119.1L64.1,119.1z M64.1,119.1c-0.1,0-0.2,0.1-0.3,0.2
			c-0.1,0.1-0.2,0.1-0.3,0.1c-0.1-0.1-0.2-0.2-0.3-0.4l0.2-0.5c0,0.1,0.1,0.2,0.1,0.2c0.1,0,0.2-0.1,0.3-0.2c0.1,0,0.1,0,0.2,0.2
			C64.1,118.9,64.1,119,64.1,119.1L64.1,119.1z"/>
	</g>
	<g>
		<path class="st15" d="M63.4,118.8c-0.1,0-0.2-0.1-0.3-0.1C63.1,118.7,63.2,118.7,63.4,118.8z"/>
		<path d="M63.3,118.8c0,0-0.1,0.1-0.2,0.2c-0.1,0.1-0.1,0.1-0.1,0.1c0-0.1,0-0.2,0-0.3c0,0-0.1,0-0.1,0.1l0.2-0.5
			c0.1-0.2,0.2-0.2,0.3-0.2c0,0,0,0.1,0,0.2C63.4,118.6,63.3,118.7,63.3,118.8L63.3,118.8z M63.3,118.8c0,0-0.1,0.1-0.2,0.2
			c-0.1,0.1-0.1,0.1-0.2,0.2c-0.1,0-0.1-0.1-0.1-0.3l0.2-0.5c0,0.1,0,0.2,0,0.1c0,0,0.1-0.2,0.2-0.2c0.1,0,0.1,0,0,0.1
			C63.4,118.6,63.3,118.7,63.3,118.8L63.3,118.8z"/>
	</g>
	<g>
		<path class="st15" d="M62.3,118.3c-0.1,0-0.2-0.1-0.3-0.1C62.1,118.3,62.2,118.3,62.3,118.3z"/>
		<path d="M62.3,118.4c0,0-0.1,0.1-0.2,0.2c-0.1,0.1-0.1,0.1-0.1,0.1c0-0.1,0-0.2,0-0.3c0,0-0.1,0-0.1,0.1l0.2-0.5
			c0.1-0.2,0.2-0.2,0.3-0.2c0,0,0,0.1,0,0.2C62.3,118.1,62.3,118.3,62.3,118.4L62.3,118.4z M62.3,118.4c0,0-0.1,0.1-0.2,0.2
			c-0.1,0.1-0.1,0.1-0.2,0.2c-0.1,0-0.1-0.1-0.1-0.3l0.2-0.5c0,0.1,0,0.2,0,0.1c0,0,0.1-0.2,0.2-0.2c0.1,0,0.1,0,0,0.1
			C62.3,118.2,62.3,118.3,62.3,118.4L62.3,118.4z"/>
	</g>
	<g>
		<path class="st15" d="M61.9,118.2c-0.5-0.2-0.9-0.4-1.3-0.5C61.1,117.9,61.5,118,61.9,118.2z"/>
		<path d="M61.9,118.3c-0.1-0.1-0.3,0-0.4,0.1c-0.2,0.1-0.3,0.1-0.4,0c-0.1-0.1-0.1-0.3-0.2-0.4c-0.1-0.1-0.2-0.1-0.4,0l0.2-0.5
			c0.3-0.1,0.5-0.1,0.7,0c0.1,0.1,0.2,0.1,0.2,0.3C61.8,117.9,61.9,118.1,61.9,118.3L61.9,118.3z M61.9,118.3c-0.1,0-0.3,0-0.4,0.1
			c-0.2,0.1-0.3,0.1-0.4,0.1c-0.2-0.1-0.4-0.2-0.5-0.5l0.2-0.5c0.1,0.1,0.2,0.2,0.3,0.2c0.1,0,0.3-0.1,0.4-0.1
			c0.1,0,0.2,0.1,0.3,0.2C61.8,118,61.9,118.1,61.9,118.3L61.9,118.3z"/>
	</g>
	<g>
		<path class="st15" d="M64.9,119.4c-0.2-0.1-0.5-0.2-0.8-0.3C64.4,119.2,64.6,119.3,64.9,119.4z"/>
		<path d="M64.9,119.5c-0.1,0-0.2,0.1-0.3,0.2c-0.1,0.1-0.2,0.1-0.2,0c0-0.1,0-0.3-0.1-0.3c-0.1-0.1-0.1,0-0.2,0l0.2-0.5
			c0.2-0.1,0.4-0.1,0.5-0.1c0.1,0,0.1,0.1,0.1,0.3C64.9,119.2,64.9,119.4,64.9,119.5L64.9,119.5z M64.9,119.5
			c-0.1,0-0.2,0.1-0.3,0.2c-0.1,0.1-0.2,0.1-0.3,0.1c-0.1-0.1-0.2-0.2-0.3-0.4l0.2-0.5c0,0.1,0.1,0.2,0.2,0.2c0.1,0,0.2-0.1,0.3-0.2
			c0.1,0,0.1,0,0.2,0.2C64.9,119.2,64.9,119.4,64.9,119.5L64.9,119.5z"/>
	</g>
	<g>
		<path class="st15" d="M63,118.6c-0.3-0.1-0.5-0.2-0.7-0.3C62.5,118.4,62.8,118.6,63,118.6z"/>
		<path d="M63,118.7c-0.1,0-0.2,0.1-0.3,0.2c-0.1,0.1-0.2,0.1-0.2,0c0-0.1,0-0.3-0.1-0.3c0-0.1-0.1,0-0.2,0l0.2-0.5
			c0.2-0.1,0.3-0.1,0.5-0.1c0.1,0,0.1,0.1,0.1,0.3C63,118.4,63,118.6,63,118.7L63,118.7z M63,118.7c-0.1,0-0.2,0.1-0.3,0.2
			c-0.1,0.1-0.2,0.1-0.3,0.1c-0.1-0.1-0.2-0.2-0.3-0.4l0.2-0.5c0,0.1,0.1,0.2,0.1,0.2c0.1,0,0.2-0.1,0.3-0.2c0.1,0,0.1,0,0.1,0.2
			C63,118.4,63,118.6,63,118.7L63,118.7z"/>
	</g>
	<g>
		<path class="st15" d="M66.2,119.9c0,0-0.1,0-0.1,0C66.1,119.9,66.2,119.9,66.2,119.9z"/>
		<path d="M66.1,120c-0.1,0.2-0.1,0.2-0.2,0.3c0,0-0.1,0.1,0,0c0-0.1,0.1-0.2,0.1-0.2c0,0,0,0-0.1,0.1l0.2-0.5
			c0.1-0.2,0.1-0.2,0.2-0.2C66.3,119.5,66.3,119.6,66.1,120L66.1,120z M66.1,120c-0.1,0.3-0.2,0.4-0.2,0.4c0,0,0-0.1,0-0.3l0.2-0.5
			c0,0.1,0,0.1,0,0.1c0,0,0.1-0.2,0.1-0.2c0,0,0,0,0,0C66.3,119.6,66.2,119.7,66.1,120L66.1,120z"/>
	</g>
	<g>
		<path class="st15" d="M65.1,119.5c-0.1,0-0.1-0.1-0.2-0.1C65,119.5,65.1,119.5,65.1,119.5z"/>
		<path d="M65.1,119.6c0,0-0.1,0.1-0.2,0.2c-0.1,0.1-0.1,0.1-0.1,0.1c0-0.1,0-0.2,0-0.3c0,0,0,0-0.1,0.1l0.2-0.5
			c0.1-0.2,0.2-0.2,0.2-0.2c0,0,0,0.1,0,0.2C65.2,119.3,65.1,119.5,65.1,119.6L65.1,119.6z M65.1,119.6c0,0-0.1,0.1-0.2,0.2
			c-0.1,0.1-0.1,0.2-0.1,0.2c0,0,0-0.1,0-0.3l0.2-0.5c0,0.1,0,0.2,0,0.1c0,0,0.1-0.2,0.2-0.2c0-0.1,0,0,0,0.1
			C65.2,119.3,65.1,119.5,65.1,119.6L65.1,119.6z"/>
	</g>
	<g>
		<path class="st15" d="M66,119.9c0,0-0.1,0-0.2-0.1C65.9,119.8,66,119.9,66,119.9z"/>
		<path d="M66,119.9c0,0-0.1,0.1-0.1,0.2c-0.1,0.1-0.1,0.1-0.1,0.1c0-0.1,0.1-0.2,0.1-0.3c0,0,0,0-0.1,0.1l0.2-0.5
			c0.1-0.2,0.1-0.2,0.2-0.2c0,0,0,0.1,0,0.2C66.1,119.7,66,119.8,66,119.9L66,119.9z M66,119.9c0,0-0.1,0.1-0.1,0.2
			c-0.1,0.1-0.1,0.2-0.1,0.2c0,0,0-0.1,0-0.3l0.2-0.5c0,0.1,0,0.1,0,0.1c0,0,0.1-0.2,0.1-0.2c0-0.1,0,0,0,0.1
			C66.1,119.7,66,119.8,66,119.9L66,119.9z"/>
	</g>
	<g>
		<path class="st15" d="M65.9,119.8c-0.1,0-0.2-0.1-0.3-0.1C65.7,119.8,65.8,119.8,65.9,119.8z"/>
		<path d="M65.9,119.9c0,0-0.1,0.1-0.2,0.2c-0.1,0.1-0.1,0.1-0.1,0.1c0-0.1,0-0.2,0-0.3c0,0-0.1,0-0.1,0.1l0.2-0.5
			c0.1-0.2,0.2-0.2,0.2-0.2c0,0,0,0.1,0,0.2C65.9,119.6,65.9,119.8,65.9,119.9L65.9,119.9z M65.9,119.9c0,0-0.1,0.1-0.2,0.2
			c-0.1,0.1-0.1,0.1-0.1,0.2c0,0-0.1-0.1,0-0.3l0.2-0.5c0,0.1,0,0.2,0,0.1c0,0,0.1-0.2,0.2-0.2c0-0.1,0.1,0,0,0.1
			C65.9,119.6,65.9,119.8,65.9,119.9L65.9,119.9z"/>
	</g>
	<g>
		<path class="st15" d="M65.6,119.7c-0.1-0.1-0.3-0.1-0.5-0.2C65.3,119.6,65.4,119.6,65.6,119.7z"/>
		<path d="M65.6,119.8c0,0-0.1,0.1-0.2,0.2c-0.1,0.1-0.1,0.1-0.2,0c0-0.1,0-0.2,0-0.3c0-0.1-0.1,0-0.2,0.1l0.2-0.5
			c0.2-0.2,0.3-0.2,0.3-0.1c0,0,0.1,0.1,0,0.2C65.6,119.5,65.6,119.6,65.6,119.8L65.6,119.8z M65.6,119.8c0,0-0.1,0.1-0.2,0.2
			c-0.1,0.1-0.1,0.1-0.2,0.1c-0.1,0-0.1-0.1-0.1-0.3l0.2-0.5c0,0.1,0,0.2,0.1,0.2c0.1,0,0.2-0.1,0.2-0.2c0.1,0,0.1,0,0.1,0.1
			C65.6,119.5,65.6,119.7,65.6,119.8L65.6,119.8z"/>
	</g>
	<path class="st3" d="M117.6,81c9.4,2.8,12.2-7.5,15-14.1c1.9-5.6-2.8-9.4-6.6-11.3c-6.6-1.9-14.1-0.9-17.9,5.6
		c-9.4,20.7-11.3,56.4-38.5,58.3c0-0.4,0-0.8,0-1.2c-1.4-0.1-2.2-0.4-2.2-0.4c-2.7-0.4-1.3,2-1.3,2c21.7,8.9,33.6-22.7,35.8-31.8
		c2.2-9.1,9.1-26.9,11.3-30.7c2.2-3.8,14.2-2.4,16.6,0.9c2.3,3.3-0.2,22.2-8.6,21.1c-8.5-1.1-8.8-8.3-8.8-8.3
		c-0.2-0.1-0.4-0.2-0.6-0.3C111.3,75,113.8,79.5,117.6,81z"/>
	<g>
		<path class="st15" d="M60.7,117.7c-0.6-0.2-1.2-0.5-1.7-0.7C59.5,117.2,60,117.4,60.7,117.7z"/>
		<path d="M60.7,117.7c-0.1-0.1-0.3,0-0.5,0.1c-0.2,0.1-0.3,0-0.5-0.1c-0.1-0.1-0.2-0.3-0.3-0.4c-0.1-0.1-0.3-0.1-0.5-0.1l0.2-0.5
			c0.4-0.1,0.7,0,1,0.1c0.1,0.1,0.3,0.2,0.4,0.4C60.5,117.4,60.6,117.6,60.7,117.7L60.7,117.7z M60.7,117.7c-0.1-0.1-0.3,0-0.5,0.1
			c-0.2,0.1-0.4,0.1-0.5,0c-0.3-0.1-0.6-0.3-0.8-0.6l0.2-0.5c0.1,0.1,0.2,0.3,0.4,0.3c0.2,0,0.4-0.1,0.5-0.1c0.2,0,0.3,0.1,0.4,0.3
			C60.5,117.4,60.6,117.6,60.7,117.7L60.7,117.7z"/>
	</g>
	<g>
		<path class="st15" d="M56.8,116.1L56.8,116.1L56.8,116.1z"/>
	</g>
	<g>
		<path class="st15" d="M56.8,116.1c-0.1,0-0.2-0.1-0.2-0.1C56.6,116,56.7,116.1,56.8,116.1z"/>
		<path d="M56.8,116.2c0,0-0.1,0.1-0.2,0.2c-0.1,0.1-0.1,0.1-0.1,0.1c0-0.1,0-0.2,0-0.3c0,0,0,0-0.1,0.1l0.2-0.5
			c0.1-0.2,0.2-0.2,0.2-0.2c0,0,0,0.1,0,0.2C56.9,115.9,56.8,116.1,56.8,116.2L56.8,116.2z M56.8,116.2c0,0-0.1,0.1-0.2,0.2
			c-0.1,0.1-0.1,0.2-0.1,0.2c0,0,0-0.1,0-0.3l0.2-0.5c0,0.1,0,0.2,0,0.1c0,0,0.1-0.2,0.2-0.2c0-0.1,0,0,0,0.1
			C56.9,115.9,56.8,116.1,56.8,116.2L56.8,116.2z"/>
	</g>
	<g>
		<path class="st15" d="M56.6,116C56.5,116,56.5,116,56.6,116L56.6,116z"/>
		<path d="M56.6,116.1c-0.1,0.3-0.2,0.4-0.2,0.3l0.1-0.2c0,0,0,0-0.1,0.1c0,0,0,0,0,0c0,0,0,0,0,0l-0.1,0l0.2-0.5c0.1,0,0.1,0,0.1,0
			c0,0,0,0,0,0l0-0.1l0-0.1c0,0,0-0.1,0,0C56.8,115.6,56.7,115.7,56.6,116.1L56.6,116.1z M56.6,116.1c-0.1,0.3-0.2,0.4-0.2,0.4
			c0,0,0,0,0-0.1l0-0.1l0-0.1c0,0,0,0,0,0c0,0,0,0,0.1,0l0.2-0.5l-0.1,0c0,0,0,0,0,0c0,0,0,0,0,0c0,0.1,0,0.1,0,0.1l0.1-0.2
			C56.8,115.5,56.7,115.6,56.6,116.1L56.6,116.1z"/>
	</g>
	<g>
		<path class="st15" d="M56.8,116.1C56.8,116.1,56.8,116.1,56.8,116.1C56.8,116.1,56.8,116.1,56.8,116.1z"/>
		<path d="M56.8,116.2l-0.1,0.4C56.7,116.4,56.8,116.3,56.8,116.2l-0.1,0.4l0.2-0.9l0,0C56.9,115.8,56.9,115.9,56.8,116.2
			L56.8,116.2z M56.8,116.2c-0.1,0.1-0.1,0.3-0.1,0.4l0,0l0,0l0.2-0.8l-0.1,0.3c0-0.1,0.1-0.2,0.1-0.3L56.8,116.2L56.8,116.2z"/>
	</g>
	<g>
		<path class="st15" d="M57.3,116.3c-0.2-0.1-0.4-0.2-0.5-0.2C57,116.2,57.1,116.2,57.3,116.3z"/>
		<path d="M57.3,116.4c0,0-0.1,0.1-0.2,0.2c-0.1,0.1-0.1,0.1-0.2,0c0-0.1,0-0.2,0-0.3c0-0.1-0.1,0-0.2,0.1l0.2-0.5
			c0.2-0.1,0.3-0.2,0.4-0.1c0,0,0.1,0.1,0,0.2C57.3,116.1,57.3,116.3,57.3,116.4L57.3,116.4z M57.3,116.4c0,0-0.1,0.1-0.2,0.2
			c-0.1,0.1-0.2,0.1-0.2,0.1c-0.1,0-0.1-0.1-0.2-0.3l0.2-0.5c0,0.1,0,0.2,0.1,0.2c0.1,0,0.2-0.1,0.2-0.2c0.1,0,0.1,0,0.1,0.1
			C57.3,116.1,57.3,116.3,57.3,116.4L57.3,116.4z"/>
	</g>
	<g>
		<path class="st15" d="M57.8,116.5C57.8,116.5,57.8,116.5,57.8,116.5C57.8,116.5,57.8,116.5,57.8,116.5z"/>
		<path d="M57.8,116.5l-0.2,0.4c0-0.1,0.1-0.2,0.1-0.3l-0.1,0.3l0.3-0.8c0,0,0,0,0.1,0C58,116.2,57.9,116.3,57.8,116.5L57.8,116.5z
			 M57.8,116.5L57.8,116.5c-0.1,0.2-0.2,0.3-0.2,0.4c0,0,0,0,0.1,0l0,0l0.3-0.8l-0.1,0.3c0-0.1,0.1-0.2,0.1-0.3L57.8,116.5
			L57.8,116.5z"/>
	</g>
	<g>
		<path class="st15" d="M59,117c-0.5-0.2-0.9-0.4-1.2-0.5C58.1,116.6,58.5,116.8,59,117z"/>
		<path d="M58.9,117c-0.1-0.1-0.2,0-0.4,0.1c-0.1,0.1-0.3,0.1-0.3,0c-0.1-0.1-0.1-0.3-0.2-0.4c-0.1-0.1-0.2-0.1-0.3,0l0.2-0.5
			c0.3-0.1,0.5-0.1,0.7,0c0.1,0.1,0.2,0.1,0.2,0.3C58.8,116.7,58.9,116.9,58.9,117L58.9,117z M58.9,117c-0.1,0-0.3,0.1-0.4,0.1
			c-0.2,0.1-0.3,0.1-0.4,0.1c-0.2-0.1-0.4-0.2-0.5-0.5l0.2-0.5c0.1,0.1,0.1,0.2,0.3,0.2c0.1,0,0.3-0.1,0.4-0.1c0.1,0,0.2,0,0.3,0.2
			C58.8,116.7,58.9,116.9,58.9,117L58.9,117z"/>
	</g>
	<g>
		<path class="st15" d="M57.8,116.5c-0.2-0.1-0.3-0.1-0.4-0.2C57.5,116.4,57.6,116.4,57.8,116.5z"/>
		<path d="M57.7,116.5c0,0-0.1,0.1-0.2,0.2c-0.1,0.1-0.1,0.1-0.1,0c0-0.1,0-0.2,0-0.3c0,0-0.1,0-0.2,0.1l0.2-0.5
			c0.1-0.2,0.2-0.2,0.3-0.2c0,0,0.1,0.1,0,0.2C57.8,116.3,57.8,116.4,57.7,116.5L57.7,116.5z M57.7,116.5c0,0-0.1,0.1-0.2,0.2
			c-0.1,0.1-0.1,0.1-0.2,0.1c-0.1,0-0.1-0.1-0.1-0.3l0.2-0.5c0,0.1,0,0.2,0.1,0.1c0,0,0.1-0.1,0.2-0.2c0.1,0,0.1,0,0.1,0.1
			C57.8,116.3,57.7,116.4,57.7,116.5L57.7,116.5z"/>
	</g>
	<g>
		<path class="st15" d="M49.7,113.1l-21.6-3.3c0,0-1.6-0.9-7.5,3.9c-5.9,4.9-6.4,6-6.4,6s-2.4,4.2,11.5-2.5l20.9,5.6L49.7,113.1z"/>
		<path d="M49.6,113.2c-1.8-0.2-3.6-0.4-5.4-0.6c-1.8-0.2-3.6-0.4-5.4-0.7l-5.4-0.8l-5.4-0.9l-1.3-0.2l1.2,0.2c0,0-0.2,0-0.3,0
			c-0.2,0-0.3,0-0.5,0.1c-0.3,0.1-0.7,0.2-1,0.3c-0.7,0.3-1.3,0.6-1.9,0.9c-1.2,0.7-2.4,1.6-3.5,2.5c-1.1,0.9-2.3,1.8-3.3,2.8
			c-0.5,0.5-1.1,1-1.6,1.5c-0.5,0.5-1,1.1-1.4,1.6l0,0l0,0c-0.1,0.2-0.1,0.5-0.1,0.6c0.1,0.2,0.2,0.3,0.5,0.3c0.5,0.1,1,0,1.5-0.1
			c1.1-0.2,2.1-0.6,3.1-1c2-0.8,4-1.8,6-2.8l0.2-0.1l0.2,0l5.2,1.4c1.8,0.4,3.5,0.9,5.2,1.4c1.7,0.5,3.5,0.9,5.2,1.4l5.2,1.5
			l-0.5,0.3l1.6-4.8L49.6,113.2z M49.7,113.1l-1.3,5L47,123l-0.1,0.4l-0.4-0.1l-5.3-1.3c-1.8-0.4-3.5-0.9-5.2-1.4
			c-1.7-0.5-3.5-0.9-5.2-1.4l-5.2-1.5l0.3,0c-2,1-4.1,1.9-6.2,2.6c-1.1,0.4-2.1,0.7-3.3,0.9c-0.6,0.1-1.1,0.2-1.8,0.1
			c-0.3-0.1-0.7-0.2-0.8-0.6c-0.1-0.4,0-0.7,0.1-1l0,0c0.5-0.7,1-1.1,1.5-1.7c0.5-0.5,1.1-1,1.6-1.5l3.3-2.9
			c1.1-0.9,2.2-1.9,3.5-2.7c0.6-0.4,1.2-0.8,1.9-1.1c0.3-0.2,0.7-0.3,1.1-0.4c0.2,0,0.4-0.1,0.6-0.1c0.2,0,0.4,0,0.8,0.1l-0.1,0
			l5.4,0.8l5.4,0.9c1.8,0.3,3.6,0.6,5.4,0.9C46.1,112.4,47.9,112.7,49.7,113.1L49.7,113.1z"/>
	</g>
	<path class="st3" d="M27.4,113.9c-2.7-0.7-4.9,2.5-7,5.7c1.4-0.6,3.2-1.3,5.3-2.4l20.9,5.6l1.3-4.1
		C40.8,117.5,33.9,116.2,27.4,113.9z"/>
	<g>
		<path class="st15" d="M52.6,75.4c0,0-0.2-0.3-4.8,3.5c-3.6,3-5,6.1-5,6.1l-6.2,9.1c0,0-4.9,6.6,0.5,6.5c0,0,6.7,1,5.1-2.7
			l-0.8-3.6l4.7-6.9l5.6-4.1L52.6,75.4z"/>
		<path d="M52.5,75.5c-0.4,0.2-0.9,0.6-1.3,1c-0.4,0.4-0.9,0.7-1.3,1.1c-0.9,0.8-1.8,1.5-2.6,2.3c-0.8,0.8-1.6,1.6-2.3,2.5
			c-0.7,0.9-1.3,1.9-1.8,2.8l0,0l0,0c-0.9,1.4-1.9,2.7-2.8,4l-2.9,4c-0.9,1.4-2,2.7-2.4,4.2c-0.2,0.7-0.4,1.6,0.1,2.2
			c0.4,0.6,1.3,0.7,2.1,0.7h0l0,0c1.2,0.1,2.4,0.1,3.5-0.1c0.5-0.1,1.1-0.4,1.2-0.7c0.2-0.3,0.1-0.9-0.1-1.3l0,0l0-0.1l-0.9-3.6
			l0-0.2l0.1-0.2c1.5-2.3,3.1-4.6,4.7-6.9l0.1-0.1l0.1,0c1.9-1.4,3.8-2.7,5.7-4l-0.2,0.3l0.6-4C52.1,78.1,52.3,76.8,52.5,75.5z
			 M52.6,75.5c-0.1,1.3-0.2,2.7-0.3,4l-0.3,4l0,0.2l-0.1,0.1c-1.8,1.4-3.7,2.8-5.5,4.2l0.1-0.1c-1.5,2.3-3.1,4.6-4.7,6.9l0.1-0.4
			l0.8,3.7l0-0.1c0.2,0.6,0.5,1.4,0,2.1c-0.5,0.7-1.2,0.9-1.8,1c-1.3,0.2-2.5,0.1-3.7-0.1l0,0c-0.4,0-0.9-0.1-1.3-0.2
			c-0.4-0.1-0.8-0.4-1.1-0.8c-0.5-0.8-0.3-1.8,0-2.5c0.6-1.6,1.5-3,2.4-4.3l2.6-4.2c0.9-1.4,1.8-2.8,2.7-4.1l0,0.1
			c0.5-1.1,1.2-2,2-3c0.8-0.9,1.6-1.8,2.5-2.5c0.9-0.8,1.8-1.4,2.8-2.2c0.5-0.3,0.9-0.7,1.4-1c0.2-0.2,0.5-0.3,0.7-0.5l0.4-0.2
			C52.3,75.5,52.3,75.4,52.6,75.5L52.6,75.5L52.6,75.5z"/>
	</g>
	<path class="st3" d="M49.8,77.3c-1.6,9.5-12.1,13.4-13.9,23.3c0.3,0.1,0.7,0.1,1.2,0.1c0,0,6.7,1,5.1-2.7l-0.8-3.6l4.7-6.9l5.6-4.1
		l0.9-8C52.6,75.4,52.4,75.3,49.8,77.3z"/>
	<g>
		<path class="st15" d="M61.9,44.3c-10.3-8.5-22.6-8.5-35.7-6.6c-0.8,0.4-1.5,0.1-2.1-0.5c-0.1,2.1,1.9,4.7,3.4,6.3
			c21.8,22.7,17.2,34.2,35.3,34.2c0.5,0,1,0,1.5,0C71.3,66.7,71.2,52.8,61.9,44.3z"/>
		<g>
			<path d="M61.8,44.4c-2.4-1.9-5.1-3.6-8-4.7c-2.9-1.1-5.9-1.8-9-2.2c-3.1-0.3-6.2-0.4-9.3-0.2c-3.1,0.1-6.2,0.5-9.3,0.9l0.1,0
				c-0.4,0.2-0.9,0.3-1.4,0.1c-0.5-0.2-0.8-0.5-1.1-0.8l0.6-0.2c-0.1,1.1,0.5,2.3,1.1,3.3c0.6,1,1.4,2,2.3,2.9
				c1.7,1.8,3.4,3.7,5,5.6c3.3,3.8,6.3,7.9,9.1,12c1.4,2.1,2.7,4.2,4.1,6.3c1.4,2.1,2.8,4.1,4.6,5.8c1.8,1.7,4,2.8,6.4,3.3
				c2.4,0.5,4.9,0.6,7.4,0.6l-0.4,0.2c1.6-2.5,2.9-5.2,3.8-8.1c0.9-2.8,1.3-5.8,1.3-8.8c0-3-0.6-6-1.8-8.8
				C65.9,48.9,64.1,46.4,61.8,44.4z M61.9,44.3c2.3,2,4.1,4.5,5.4,7.3c1.3,2.8,2.1,5.8,2.3,8.9c0.2,3.1-0.2,6.2-1,9.1
				c-0.9,3-2.2,5.8-3.8,8.4l-0.1,0.2l-0.3,0c-2.5,0.1-5.1,0-7.6-0.6c-2.5-0.6-4.9-1.8-6.8-3.6c-1.9-1.8-3.3-3.9-4.6-6.1l-3.9-6.4
				c-1.3-2.1-2.7-4.2-4.2-6.2c-1.5-2-3-4-4.6-5.9c-1.6-1.9-3.3-3.7-5.1-5.5c-0.9-0.9-1.7-1.9-2.4-2.9c-0.7-1.1-1.3-2.3-1.3-3.7
				l0-0.8l0.6,0.5c0.3,0.3,0.5,0.5,0.8,0.5c0.3,0.1,0.6,0,0.9-0.1l0,0l0.1,0c3.1-0.5,6.2-0.9,9.4-1c3.1-0.1,6.3,0,9.4,0.4
				c3.1,0.5,6.2,1.3,9,2.6C56.8,40.6,59.5,42.3,61.9,44.3z"/>
		</g>
	</g>
	<path class="st17" d="M63.7,44.3c-10.3-8.5-22.5-8.5-35.7-6.6c-0.8,0.4-1.5,0.1-2.1-0.5c-0.1,2.1,1.9,4.7,3.4,6.3
		c21.8,22.7,17.2,34.2,35.3,34.2c0.5,0,1,0,1.5,0C73.2,66.7,73.1,52.8,63.7,44.3z"/>
	<g>
		<path class="st7" d="M54.8,72.8c0,0,3.4,2.6,2.8,4.9c-0.6,2.2,5-3.4,5-3.4l1.3-4.2L54.8,72.8z"/>
		<path d="M54.9,72.9c0.9,0.5,1.7,1.2,2.3,2.1c0.3,0.5,0.6,1,0.7,1.6c0.1,0.3,0.1,0.6,0,0.9c0,0.2-0.1,0.3-0.1,0.4l0,0.1
			c0,0,0,0-0.1-0.1c-0.3-0.1-0.1,0,0-0.1c0.1,0,0.2-0.1,0.3-0.1c0.2-0.1,0.4-0.2,0.7-0.4c0.4-0.3,0.9-0.6,1.3-0.9
			c0.8-0.7,1.6-1.4,2.3-2.2l-0.1,0.1c0.3-1.4,0.6-2.9,1.1-4.3l0.6,0.6c-1.5,0.5-3,1-4.5,1.3c-0.8,0.2-1.5,0.4-2.3,0.5
			C56.4,72.6,55.7,72.8,54.9,72.9z M54.8,72.8c0.7-0.3,1.4-0.6,2.2-0.9c0.7-0.3,1.5-0.6,2.2-0.8c1.5-0.5,3-1,4.5-1.4l0.9-0.2
			l-0.3,0.8c-0.5,1.4-1,2.8-1.5,4.1l0,0.1l0,0c-0.8,0.7-1.6,1.4-2.4,2.2c-0.4,0.4-0.8,0.8-1.2,1.1c-0.2,0.2-0.4,0.4-0.6,0.5
			c-0.1,0.1-0.2,0.2-0.4,0.2c-0.1,0-0.2,0.1-0.3,0.1c-0.1,0-0.3,0-0.5-0.1c-0.2-0.2-0.2-0.4-0.2-0.5c0-0.1,0-0.2,0-0.3
			c0-0.1,0.1-0.2,0.1-0.3c0-0.2,0-0.4,0-0.6c-0.1-0.4-0.3-0.9-0.5-1.3C56.1,74.5,55.5,73.7,54.8,72.8L54.8,72.8L54.8,72.8z"/>
	</g>
	<g>
		<path class="st8" d="M80.5,49c0,13.5,0,25.6-31,24.4C21.4,72.4,18.9,63.6,25.3,49c5.4-12.4,7.2-24.5,24.3-24.5
			C66.7,24.6,80.5,35.5,80.5,49z"/>
		<g>
			<path d="M80.6,49c0,3.6,0.1,7.3-0.6,10.8c-0.3,1.8-0.9,3.5-1.8,5.1c-0.9,1.6-2.2,3-3.6,4.1c-3,2.3-6.6,3.3-10.2,4
				c-3.6,0.7-7.3,0.8-10.9,0.8c-3.6,0-7.3-0.3-10.9-0.7c-3.6-0.4-7.2-1-10.7-2.2c-1.7-0.6-3.4-1.3-4.9-2.3c-1.5-1-2.9-2.3-3.7-4
				c-0.9-1.6-1.2-3.5-1.1-5.3c0-1.8,0.4-3.6,0.9-5.4c0.5-1.8,1.2-3.5,1.9-5.1c0.7-1.7,1.4-3.3,2-5c1.3-3.4,2.5-6.8,4.4-10
				c1.8-3.2,4.4-6.1,7.8-7.8c3.4-1.7,7.1-2.2,10.8-2.1c7.3,0,14.7,2.2,20.6,6.5c2.9,2.2,5.5,4.9,7.3,8C79.6,41.7,80.6,45.4,80.6,49z
				 M80.5,49c0-3.6-1.1-7.2-3-10.2c-1.9-3.1-4.5-5.6-7.4-7.6c-5.9-4-13.1-6-20.2-6c-3.6,0-7.2,0.5-10.3,2c-3.2,1.5-5.6,4.2-7.4,7.3
				c-1.8,3.1-3.1,6.5-4.5,9.8c-0.7,1.7-1.4,3.4-2.1,5c-0.7,1.6-1.4,3.3-1.9,5c-0.5,1.7-0.9,3.5-1,5.3c-0.1,1.8,0.2,3.6,1,5.2
				c0.8,1.6,2.1,2.9,3.6,3.9c1.5,1,3.2,1.7,4.9,2.2c3.4,1.1,7,1.6,10.6,1.9c3.6,0.3,7.2,0.4,10.8,0.4c3.6,0,7.2-0.2,10.7-0.8
				c3.5-0.6,7-1.6,9.9-3.7c1.4-1,2.7-2.3,3.6-3.9c0.9-1.5,1.5-3.2,1.9-5C80.5,56.2,80.4,52.6,80.5,49z"/>
		</g>
	</g>
	<path class="st16" d="M52.1,24.6c0.7,1.6,1.3,3.2,2,4.8c-5.6-0.3-10.2,0.8-10.2,0.8s-12.7,0.3-18.1,17.3L25,48.8l2.5-1.2l1.4,1.5
		l1.3-0.8l1,0.8l0.7-2.6l2.2,0.5l1.2-2.3l0.7,1.4l1.4-3.4l0.8,3.2l1.2-2.6l1.4,2l1.3-1.3l0.9,1.3l0.9-0.9l1.4,1.5l0.8-1.5l1.4,1.5
		l1.1-1.2l0.3,2.3l2-1.7v2.7l2.1-1v2.1l2.9-0.7l-0.7,0.7h2.3l-1.6,1.8h2.3l-0.7,1.8h1.7c0,0.2,0,0.3-0.1,0.5l-0.4,0.2l0.3,0.2
		c-0.6,4.2-2.5,8.2-6.4,11.5c-5.5,4.5-12.5,5.8-19.8,6.2c4.1,1.2,9.5,2,16.6,2.2c31,1.2,31-10.9,31-24.4
		C80.5,36.2,68,25.7,52.1,24.6z"/>
	<g>
		<path class="st10" d="M26.6,45.7l1.4,1.5l1.3-0.8l1,0.8l0.7-2.6l2.2,0.5l1.2-2.3l0.7,1.4l1.4-3.4l0.8,3.2l1.2-2.6l1.4,2l1.3-1.3
			l0.9,1.3l0.9-0.9l1.4,1.5l0.8-1.5l1.4,1.5l1.1-1.2l0.3,2.3l2-1.7v2.7l2.1-1v2.1l2.9-0.7l-0.7,0.7h2.4L55,49h2.3l-0.7,1.8h2.8
			l-1.5,0.6l2.9,1.6l-0.5,1.2l2.8,0.6V56h1.3c0,0,14.8,0.7,8.3-16.2c-6.5-16.9-29.8-11.5-29.8-11.5s-12.7,0.3-18.1,17.3l-0.7,1.2
			L26.6,45.7z"/>
		<path d="M26.6,45.7l1.4,1.5l-0.1,0l1.2-0.8l0.1,0l0.1,0.1l1,0.7l-0.2,0.1l0.6-2.6l0-0.2l0.2,0l2.2,0.5l-0.3,0.1l1.1-2.3l0.3-0.5
			l0.3,0.5l0.7,1.4l-0.6,0l1.4-3.4l0.4-1l0.3,1l0.8,3.2l-0.7-0.1l1.2-2.6l0.3-0.6l0.4,0.6l1.4,2l-0.6-0.1l1.3-1.3l0.3-0.3l0.3,0.4
			l0.9,1.3l-0.7,0l0.8-0.9l0.3-0.4l0.3,0.4l1.4,1.5l-0.7,0.1l0.8-1.5l0.3-0.5l0.4,0.5l1.4,1.5l-0.6,0l1.1-1.2L48,42l0.1,0.9l0.3,2.3
			l-0.7-0.3l2-1.7l0.7-0.6l0,0.9l0,2.7l-0.5-0.3l2.1-1l0.5-0.2l0,0.5l0,2.1L52,47l2.9-0.7l0.9-0.2l-0.7,0.6l-0.7,0.7L54.3,47l2.4,0
			l0.5,0l-0.3,0.3l-1.7,1.8L55,48.8l2.3,0l0.3,0l-0.1,0.2l-0.7,1.8l-0.2-0.2l2.8,0l0.8,0l-0.7,0.3L58,51.5l0-0.3l2.9,1.6l0.1,0.1
			L61,53.1l-0.5,1.2l-0.1-0.2l2.8,0.5l0.1,0l0,0.2l0,1.3l-0.2-0.2c1.2,0,2.4,0,3.6-0.2c1.2-0.2,2.3-0.6,3.4-1.1c1-0.6,2-1.4,2.6-2.3
			c0.7-1,1-2.1,1.2-3.3c0.3-2.4-0.2-4.8-1-7.1c-0.7-2.3-1.7-4.5-3.2-6.4c-1.5-1.9-3.4-3.4-5.5-4.5c-2.1-1.1-4.4-1.8-6.8-2.3
			c-4.7-0.9-9.7-0.7-14.4,0.2l0,0l0,0c-2.1,0.1-4.2,0.8-6.2,1.8c-1.9,1-3.7,2.3-5.2,3.8c-3.1,3.1-5.2,7.1-6.6,11.3l0,0l0,0L24.2,47
			L24,46.8L26.6,45.7z M26.6,45.8L24.1,47l-0.3,0.2l0.2-0.3l0.7-1.2l0,0c1.2-4.3,3.3-8.4,6.4-11.6c1.5-1.6,3.3-3,5.3-4.1
			c2-1,4.2-1.8,6.5-2l-0.1,0c2.5-0.6,4.9-0.8,7.4-0.9c2.5-0.1,5,0.1,7.4,0.5c2.5,0.4,4.9,1.2,7.1,2.4c2.2,1.2,4.2,2.8,5.7,4.8
			c1.5,2,2.6,4.3,3.3,6.7c0.7,2.4,1.2,4.9,0.8,7.4c-0.2,1.3-0.6,2.5-1.4,3.5c-0.7,1.1-1.7,1.9-2.9,2.5c-2.3,1.2-4.9,1.4-7.3,1.3
			l-0.2,0l0-0.2l0-1.3l0.2,0.2l-2.8-0.6l-0.2,0l0.1-0.2l0.5-1.2l0.1,0.2l-2.9-1.6l-0.3-0.2l0.3-0.1l1.5-0.6l0.1,0.3l-2.8,0l-0.2,0
			l0.1-0.2l0.7-1.8l0.2,0.2l-2.3,0l-0.4,0l0.3-0.3l1.6-1.8l0.2,0.4l-2.4,0l-0.6,0l0.4-0.4l0.7-0.7l0.2,0.4l-2.9,0.7l-0.4,0.1l0-0.4
			l0-2.1l0.5,0.3l-2.1,1.1l-0.5,0.3l0-0.6l0-2.7l0.7,0.3l-2,1.7L47.6,46l-0.1-0.8L47.3,43l0.7,0.2l-1.1,1.2l-0.3,0.3l-0.3-0.3
			l-1.4-1.5l0.7-0.1l-0.8,1.5l-0.3,0.5L44,44.4l-1.4-1.5l0.6,0l-0.9,0.9L42,44.2l-0.3-0.4l-0.9-1.3l0.6,0l-1.3,1.3l-0.3,0.3
			l-0.3-0.4l-1.4-2l0.7-0.1l-1.2,2.6l-0.5,1l-0.3-1.1L36.1,41l0.7,0.1l-1.5,3.4L35,45.1l-0.3-0.6L34.1,43l0.5,0l-1.2,2.2l-0.1,0.2
			l-0.2,0l-2.2-0.5l0.3-0.2l-0.8,2.6l-0.1,0.2l-0.2-0.1l-1-0.8l0.1,0L28,47.3l-0.1,0l0-0.1L26.6,45.8z"/>
	</g>
	<path class="st16" d="M64.4,56c0,0,14.8,0.7,8.3-16.2c-6.5-16.9-29.8-11.5-29.8-11.5S32,30.9,26,42.6c3.1,0.7,7.3-1.5,10.4-1.6
		l0-0.1l0,0.1c6.6-0.2,13.2-0.8,19.1,3.3c2.5,2,3.4,5.3,4.7,8.4l0.5,0.3l-0.2,0.5c0.1,0.3,0.3,0.6,0.4,0.9l2.1,0.4V56H64.4z"/>
	<g>
		<g>
			<path class="st15" d="M52.6,75.4c0,0,0.1,0,0.1-0.1C52.7,75.3,52.6,75.4,52.6,75.4z"/>
			<path d="M52.6,75.3c0,0-0.1-0.1-0.1-0.2c-0.1-0.1-0.1-0.1,0-0.1c0,0,0.1,0.2,0.2,0.2c0,0,0,0,0-0.1l0.3,0.5
				c0.1,0.2,0.1,0.2,0.1,0.3c0,0,0,0-0.1-0.2C52.7,75.5,52.6,75.4,52.6,75.3L52.6,75.3z M52.6,75.3c0,0-0.1-0.1-0.1-0.3
				c-0.1-0.1-0.1-0.2-0.1-0.2c0,0,0.1,0,0.2,0.2l1.5,2l-1.2-1.6c-0.1-0.1-0.1-0.1-0.1-0.1c0,0,0.1,0.2,0.1,0.2c0,0.1,0,0-0.1-0.1
				C52.7,75.5,52.6,75.4,52.6,75.3L52.6,75.3z"/>
		</g>
		<g>
			<path class="st15" d="M52.6,75.4C52.6,75.4,52.6,75.4,52.6,75.4C52.6,75.4,52.6,75.4,52.6,75.4z"/>
			<path d="M52.5,75.4l-0.1-0.3c0-0.1,0-0.1,0,0l0.1,0.2c0,0,0,0,0-0.1l0.3,0.5c0.1,0.2,0.1,0.2,0.1,0.2
				C52.8,75.8,52.7,75.7,52.5,75.4L52.5,75.4z M52.5,75.4l-0.2-0.4c0,0,0.1,0,0.2,0.2l0.6,1.1l-0.4-0.6c0-0.1-0.1-0.1-0.1-0.1
				l0.1,0.2c0,0.1,0,0,0,0L52.5,75.4L52.5,75.4z"/>
		</g>
		<g>
			<path class="st15" d="M58,76.2c0,0-0.3,0-0.6,0c0,0,0,0,0,0C57.6,76.2,57.8,76.2,58,76.2z"/>
			<path d="M58,76.2c0,0.2-0.1,0.3-0.1,0.3c0,0.1-0.1,0.1-0.1,0c0-0.1-0.1-0.2-0.1-0.3c0,0-0.1,0-0.1,0.1l0.2-0.1l0,0l-0.3-0.4
				c0.1-0.2,0.2-0.3,0.3-0.3C57.8,75.7,57.9,75.8,58,76.2L58,76.2L58,76.2z M58,76.2L58,76.2c-0.1,0.4-0.2,0.5-0.3,0.5
				c-0.1,0-0.2-0.1-0.3-0.2l-0.2-0.4l0,0l0,0l0.3,0l-0.1-0.1c0,0.1,0.1,0.1,0.1,0.1c0,0,0.1-0.2,0.1-0.3c0-0.1,0.1,0,0.1,0
				C57.9,75.9,57.9,75.9,58,76.2L58,76.2z"/>
		</g>
		<g>
			<path class="st15" d="M61.2,8.9c-19,0-39.2,12.8-40,27.9c0.1,3.1,7,2,7.9,1.6c10.7,3.2,19.6-2.9,29.9,5.5
				c4,10.8,6.2,13.8-1.7,32.3c0.3,0,0.6,0,0.6,0c-0.2,0-0.4,0-0.6,0c0,0,0,0,0,0c-0.2,0-0.4,0-0.4,0c-4,0.2-4.7-1.2-4.7-1.2
				c-1.5,0.8-2.3,7.8-2.3,7.8s-0.9,3.9-1.7,5.8c-0.8,1.9-5.8,6.7-5.8,6.7c-15.2,13.4,3.6,36.8,21,26.5c17.4-10.2,5.1-34.5,3.8-39.6
				c-0.5-2,1.7-3.9,4.6-5.5c-2.3,0.2-4.7,0.3-6,2.4c1.4-2.1,3.8-2.1,6-2.4c0.2-0.1,0.3-0.2,0.5-0.3c16-2.4,20.9-10.3,26.2-26.2
				C105.1,30.7,82.9,8.9,61.2,8.9z"/>
			<path d="M61.2,8.9c-4.4,0-8.8,0.7-13,1.9c-4.2,1.2-8.3,3-12,5.3c-3.7,2.3-7.1,5.2-9.8,8.7c-2.7,3.4-4.5,7.6-4.7,11.9l0,0
				c0,0.6,0.4,1.1,1.1,1.3c0.6,0.3,1.3,0.4,2,0.4c0.7,0,1.4,0,2.2-0.1c0.7-0.1,1.5-0.2,2-0.4l0.2-0.1l0.1,0c2.4,0.7,5,1,7.6,1
				c2.6,0,5.2-0.2,7.8-0.2c2.6,0,5.3,0.2,7.8,1c2.5,0.8,4.9,2.2,6.9,3.9l0.1,0.1l0,0.1c0.9,2.6,2,5.2,2.8,8c0.8,2.7,1,5.7,0.6,8.5
				c-0.4,2.8-1.2,5.5-2.1,8.2c-0.9,2.7-2,5.3-3.1,7.9l-0.2-0.3l0.6,0l0,0.5l-0.6,0l-0.4,0l0.1-0.4l0,0l0.2,0.4l-1.4,0
				c-0.5,0-0.9,0-1.4-0.1c-0.5-0.1-0.9-0.2-1.4-0.4c-0.4-0.2-0.9-0.4-1.2-0.9l0.3,0.1c-0.5,0.3-0.7,1-1,1.6c-0.2,0.6-0.4,1.3-0.5,2
				c-0.3,1.3-0.5,2.7-0.7,4l0,0l0,0c-0.3,1.2-0.6,2.3-1,3.5c-0.4,1.1-0.7,2.4-1.5,3.4c-1.5,1.9-3.2,3.7-4.9,5.4
				c-1.8,1.6-3.4,3.5-4.4,5.6c-1,2.2-1.5,4.6-1.3,7c0.3,4.8,2.9,9.3,6.6,12.3c3.7,3,8.6,4.6,13.3,3.8c2.3-0.4,4.6-1.3,6.6-2.5
				c2-1.2,3.8-2.9,5.2-4.8c1.4-1.9,2.3-4.1,2.8-6.5c0.5-2.3,0.6-4.7,0.5-7.1c-0.3-4.8-1.5-9.5-3.1-14l-1.2-3.4l-0.6-1.7
				c-0.2-0.6-0.4-1.1-0.5-1.9c-0.1-0.7,0.2-1.5,0.5-2c0.4-0.6,0.8-1.1,1.3-1.5c1-0.8,2-1.5,3.1-2.1l0.3,1c-1.1,0.1-2.2,0.2-3.2,0.5
				c-1,0.3-1.9,0.8-2.4,1.7l-0.9-0.6c0.3-0.5,0.8-1,1.3-1.3c0.5-0.4,1.1-0.6,1.7-0.8c1.2-0.3,2.3-0.4,3.4-0.5l-0.2,0.1l0.5-0.3
				l0.1,0l0.1,0c4.2-0.6,8.4-1.7,12-3.9c3.6-2.2,6.5-5.5,8.5-9.2c2.1-3.7,3.6-7.7,5-11.8c1.5-4,1.9-8.3,1.1-12.5
				c-0.8-4.2-2.6-8.1-5.1-11.7c-2.4-3.5-5.5-6.6-8.8-9.3c-3.4-2.6-7.2-4.8-11.2-6.3C69.8,9.8,65.6,9,61.2,8.9z M61.2,8.8
				c8.7,0,17.1,3.4,24,8.5c3.5,2.6,6.6,5.7,9.1,9.2c2.5,3.5,4.4,7.5,5.3,11.8c0.9,4.3,0.6,8.8-0.9,12.9c-1.4,4.1-2.8,8.2-5,12
				c-2.1,3.8-5,7.3-8.8,9.6c-3.8,2.3-8.1,3.4-12.4,4.1l0.2-0.1l-0.5,0.3l-0.1,0l-0.1,0c-1.1,0.1-2.2,0.2-3.2,0.5
				c-1,0.3-1.9,0.8-2.4,1.7l-0.9-0.6c0.3-0.5,0.8-1,1.3-1.3c0.5-0.4,1.1-0.6,1.7-0.7c1.2-0.3,2.3-0.4,3.4-0.5l2.7-0.3l-2.4,1.3
				c-1,0.6-2.1,1.2-2.9,1.9c-0.8,0.7-1.6,1.7-1.5,2.7c0.1,0.5,0.3,1.1,0.5,1.6l0.6,1.7l1.2,3.4c1.5,4.6,2.8,9.4,3.1,14.3
				c0.1,2.4,0,4.9-0.6,7.3c-0.6,2.4-1.6,4.7-3,6.7c-1.5,2-3.4,3.7-5.5,4.9c-2.1,1.3-4.4,2.2-6.9,2.6c-4.9,0.8-10-0.9-13.8-4
				c-3.8-3.1-6.4-7.7-6.7-12.7c-0.1-2.5,0.3-4.9,1.4-7.2c1-2.2,2.7-4.1,4.5-5.7c1.7-1.7,3.4-3.4,4.9-5.3c0.7-0.9,1-2.1,1.4-3.3
				c0.3-1.2,0.7-2.3,0.9-3.5l0,0c0.2-1.4,0.4-2.7,0.7-4.1c0.1-0.7,0.3-1.4,0.5-2c0.1-0.3,0.2-0.7,0.4-1c0.2-0.3,0.4-0.6,0.7-0.9
				l0.2-0.1l0.1,0.2c0.2,0.3,0.6,0.5,1,0.7c0.4,0.2,0.8,0.3,1.3,0.3c0.4,0.1,0.9,0.1,1.3,0.1l1.4,0l0.3,0l-0.1,0.4l0,0L57.4,76
				l0.6,0l0,0.5l-0.6,0l-0.4,0l0.1-0.3c1.1-2.6,2.1-5.2,3-7.8c0.9-2.6,1.7-5.3,2-8.1c0.4-2.8,0.1-5.5-0.7-8.2
				c-0.8-2.7-1.9-5.3-2.8-7.9l0.1,0.2c-2-1.6-4.2-2.9-6.6-3.7c-2.4-0.8-5-1-7.6-0.9c-2.6,0-5.2,0.2-7.8,0.2c-2.6,0-5.3-0.3-7.8-1.1
				l0.3,0c-0.9,0.3-1.5,0.4-2.3,0.5c-0.8,0.1-1.5,0.1-2.3,0.1c-0.8,0-1.6-0.1-2.3-0.5c-0.4-0.2-0.8-0.4-1-0.8
				c-0.3-0.3-0.4-0.8-0.5-1.2v0l0,0c0.3-4.5,2.3-8.8,5-12.2c2.8-3.5,6.3-6.3,10.1-8.6c3.8-2.3,7.9-4,12.1-5.2
				C52.4,9.5,56.8,8.8,61.2,8.8z"/>
		</g>
		<g>
			<path class="st6" d="M53.7,78.1c0-0.7-1-1.8-2.2-2.1c-1,2.2-1.5,6.7-1.5,6.7s-0.9,3.9-1.7,5.8c-0.8,1.9-5.8,6.7-5.8,6.7
				c-5.9,5.2-6.6,12-4.3,17.7C42,100.7,55.5,91.6,53.7,78.1z"/>
			<g>
				<path d="M53.7,78.2c0-0.5-0.4-1-0.8-1.3c-0.4-0.3-0.9-0.6-1.4-0.7l0.1,0c-0.4,1.1-0.6,2.2-0.8,3.3c-0.2,1.1-0.3,2.3-0.4,3.4l0,0
					l0,0c-0.3,1.4-0.6,2.8-1,4.2c-0.2,0.7-0.4,1.4-0.8,2.1c-0.4,0.7-0.9,1.2-1.3,1.8c-0.9,1.1-1.9,2.2-3,3.2c-0.5,0.5-1,1-1.6,1.5
					C42,96,41.5,96.5,41,97c-1.9,2.1-3.3,4.7-3.7,7.5c-0.4,2.8,0.1,5.7,1.2,8.3l-0.7,0c0.9-3.2,2.4-6.1,4.2-8.9
					c1.7-2.8,3.6-5.4,5.4-8.1c1.8-2.7,3.5-5.4,4.7-8.3C53.5,84.6,54.1,81.4,53.7,78.2z M53.8,78.1c0.4,3.2,0.1,6.5-1,9.6
					c-0.5,1.6-1.2,3.1-1.9,4.5c-0.8,1.5-1.6,2.8-2.5,4.2c-1.8,2.7-3.7,5.3-5.4,8c-1.7,2.7-3.3,5.5-4.3,8.5l-0.3,0.9l-0.3-0.9
					c-1.1-2.7-1.4-5.7-0.9-8.6c0.2-1.4,0.7-2.8,1.3-4.1c0.6-1.3,1.5-2.5,2.4-3.6c0.5-0.5,1-1.1,1.5-1.6c0.5-0.5,1-1,1.5-1.5
					c1-1.1,1.9-2.1,2.8-3.2c0.4-0.5,0.9-1.1,1.2-1.7c0.3-0.5,0.5-1.3,0.8-1.9c0.5-1.3,0.9-2.7,1.3-4.1l0,0c0.2-1.1,0.4-2.3,0.6-3.4
					c0.3-1.1,0.6-2.2,1-3.3l0-0.1l0.1,0c0.5,0.1,1,0.4,1.4,0.8c0.2,0.2,0.4,0.4,0.5,0.6C53.6,77.6,53.7,77.9,53.8,78.1z"/>
			</g>
		</g>
	</g>
	<g class="st0">
		<path class="st17" d="M52.6,75.4c0,0,0.1,0,0.1-0.1C52.7,75.3,52.6,75.4,52.6,75.4z"/>
		<path class="st17" d="M52.6,75.4C52.6,75.4,52.6,75.4,52.6,75.4C52.6,75.4,52.6,75.4,52.6,75.4z"/>
		<path class="st17" d="M58,76.2c0,0-0.3,0-0.6,0c0,0,0,0,0,0C57.6,76.2,57.8,76.2,58,76.2z"/>
		<path class="st17" d="M52.8,75.5c-0.4-0.3-0.5-0.5-0.5-0.5c-1.5,0.8-2.3,7.8-2.3,7.8s-0.9,3.9-1.7,5.8c-0.8,1.9-5.8,6.7-5.8,6.7
			c-6.7,5.9-6.8,13.8-3.2,19.9C44.8,102,53.3,90.3,52.8,75.5z"/>
	</g>
	<g class="st2">
		<path class="st17" d="M52.6,75.4c0,0,0.1,0,0.1-0.1C52.7,75.3,52.6,75.4,52.6,75.4z"/>
		<path class="st17" d="M52.6,75.4C52.6,75.4,52.6,75.4,52.6,75.4C52.6,75.4,52.6,75.4,52.6,75.4z"/>
		<path class="st17" d="M57.4,76.2C57.4,76.2,57.4,76.2,57.4,76.2c0.2,0,0.4,0,0.6,0C58,76.2,57.7,76.2,57.4,76.2z"/>
		<path class="st17" d="M71.2,10.4c16.3,7.9,14.8,25.6,4.3,41c2.2,5.8,9.2,0.4,13.9-1.4c-1.9,4.7-0.9,10.3-3.8,15
			c-5.6,8.5-23.5,5.6-22.5,16.9c1.4,13.8,7.8,31,0.1,40c0.1-0.1,0.2-0.1,0.4-0.2c17.4-10.2,5.1-34.5,3.8-39.6
			c-0.5-2,1.7-3.9,4.6-5.5c-2.3,0.2-4.7,0.3-6,2.4c1.4-2.1,3.8-2.1,6-2.4c0.2-0.1,0.3-0.2,0.5-0.3c16-2.4,20.9-10.3,26.2-26.2
			C104.1,33.8,89.1,15.6,71.2,10.4z"/>
	</g>
	<ellipse class="st14" cx="46.1" cy="60.2" rx="7.2" ry="1.9"/>
	<path class="st17" d="M63.3,100.6l-0.8-13.8c-4.1-6.9-6,0-6,0s1.8,31.6,0.6,35.3c-0.2,0.6-0.4,1.2-0.4,1.6c2.1-0.5,4.2-1.5,6.4-2.1
		L63.3,100.6z"/>
	<g>
		<path class="st15" d="M62.3,100.9L62.1,124l4.9,0.9c0,0,3.9,2.6-10.9,1.1c0,0-1.3,0.1,0-3.6c1.3-3.7-0.6-35.3-0.6-35.3
			s1.9-6.9,6,0"/>
		<path d="M62.4,100.9c0.1,1.9,0.1,3.9,0.2,5.8c0,1.9,0.1,3.9,0.1,5.8l0,5.8l-0.1,5.8l-0.3-0.4l4.9,1.1l0.1,0l0,0
			c0.2,0.2,0.5,0.4,0.6,0.8c0,0.2-0.1,0.4-0.2,0.6c-0.1,0.1-0.3,0.2-0.4,0.3c-0.5,0.2-1.1,0.3-1.6,0.3c-1.1,0.1-2.1,0.1-3.2,0
			c-2.1-0.1-4.2-0.2-6.3-0.4l0,0c-0.4,0-0.6-0.3-0.6-0.5c-0.1-0.2-0.1-0.5-0.1-0.7c0-0.4,0-0.9,0.1-1.3c0.1-0.4,0.2-0.8,0.3-1.2
			c0.1-0.4,0.2-0.7,0.2-1.2c0.2-1.6,0.1-3.2,0.1-4.9c0-3.3-0.1-6.5-0.2-9.8l-0.7-19.6l0-0.1l0,0c0.2-0.8,0.6-1.5,1.1-2.1
			c0.2-0.3,0.5-0.6,0.9-0.8c0.4-0.2,0.8-0.3,1.2-0.2c0.8,0.2,1.4,0.8,1.9,1.3c0.5,0.6,0.9,1.2,1.2,1.9l-0.1,0.1
			c-0.4-0.6-0.8-1.2-1.4-1.8c-0.5-0.5-1.1-1-1.8-1.1c-0.7-0.1-1.2,0.4-1.6,1c-0.4,0.6-0.7,1.3-0.8,1.9l0-0.1
			c0.3,3.3,0.5,6.5,0.6,9.8c0.1,3.3,0.3,6.5,0.4,9.8s0.1,6.6,0,9.8c0,1.6-0.1,3.3-0.3,4.9c-0.1,0.4-0.2,0.9-0.3,1.2
			c-0.1,0.4-0.3,0.8-0.3,1.2c-0.1,0.4-0.2,0.8-0.2,1.2c0,0.4,0.1,0.8,0.3,0.8l0,0h0c2.1,0.2,4.1,0.4,6.2,0.5c1,0,2.1,0,3.1-0.1
			c0.9-0.1,2.5-0.5,1.4-1.1l0.1,0l-5-0.8l-0.3-0.1V124l0-5.8l0.1-5.8c0-1.9,0.1-3.8,0.2-5.8C62.1,104.7,62.2,102.8,62.4,100.9
			L62.4,100.9z"/>
	</g>
	<ellipse class="st11" cx="51.4" cy="58.3" rx="2.9" ry="0.9"/>
	<g>
		<path class="st15" d="M49.2,107.6c0,0,1.3-15.8-12.8-11.9c-14.1,3.9-8,17.2-3.7,20c4.2,2.8,3.7,4.5,3.7,4.5s-7.1-2.5-12.4,0
			c-5.3,2.5,8.3,4.9,23.9,4c0,0,5.1,0.4,3.5-3.2"/>
		<path d="M49.2,107.6c0-2.2-0.3-4.5-1-6.5c-0.7-2.1-2.1-3.9-4-4.8c-1.9-0.9-4.2-0.9-6.3-0.4c-2.1,0.4-4.2,1.2-6,2.4
			c-1.8,1.2-3.2,3-3.7,5.1c-0.5,2.1-0.2,4.4,0.6,6.5c0.8,2,2,4,3.7,5.4c0.9,0.6,1.9,1.2,2.7,2c0.4,0.4,0.8,0.8,1.2,1.3
			c0.2,0.2,0.3,0.5,0.4,0.8c0.1,0.3,0.2,0.6,0.1,1l-0.1,0.4l-0.4-0.1c-3.1-0.9-6.5-1.3-9.7-0.7c-0.8,0.2-1.6,0.4-2.3,0.8
			c-0.4,0.2-0.7,0.4-0.9,0.6c-0.1,0.1-0.1,0.2-0.1,0.1c0,0,0,0.1,0.2,0.2c0.5,0.4,1.3,0.7,2.1,0.9c0.8,0.2,1.6,0.4,2.4,0.5
			c3.3,0.6,6.6,0.8,9.9,1c3.3,0.1,6.7,0.2,10,0.1l0,0l0,0c1,0.1,2,0,2.9-0.4c0.4-0.2,0.8-0.6,0.8-1.1c0.1-0.5-0.1-1-0.3-1.4l0.1,0
			c0.2,0.5,0.4,1,0.4,1.5c0,0.6-0.4,1.1-0.9,1.3c-0.5,0.3-1,0.4-1.5,0.5c-0.5,0.1-1,0.1-1.6,0.1h0c-3.3,0.3-6.7,0.4-10,0.3
			c-3.4,0-6.7-0.3-10-0.8c-0.8-0.1-1.7-0.3-2.5-0.5c-0.8-0.2-1.7-0.5-2.5-1.1c-0.2-0.2-0.4-0.4-0.5-0.8c-0.1-0.4,0.2-0.8,0.4-1
			c0.4-0.4,0.8-0.6,1.2-0.8c0.8-0.4,1.6-0.6,2.5-0.8c1.7-0.3,3.4-0.4,5.1-0.2c1.7,0.2,3.3,0.5,5,1.1l-0.5,0.2c0-0.1,0-0.4-0.1-0.6
			c-0.1-0.2-0.2-0.5-0.3-0.7c-0.3-0.4-0.6-0.9-1-1.2c-0.8-0.8-1.7-1.4-2.6-2.1c-1.7-1.5-2.9-3.5-3.7-5.6c-0.8-2.1-1.2-4.4-0.7-6.7
			c0.4-2.3,1.8-4.3,3.7-5.7c1.9-1.4,4.1-2.1,6.3-2.6c2.2-0.4,4.7-0.5,6.8,0.6c1.1,0.5,2,1.3,2.7,2.3c0.7,0.9,1.2,2,1.5,3.1
			C49.3,103.1,49.5,105.4,49.2,107.6L49.2,107.6z"/>
	</g>
	<path class="st3" d="M29.3,119.2c4.7,1.2,9.4,2.8,14,1.3c-7.8-1.7-14.1-7.5-15.7-15.1c0,4.4,2.8,8.9,5,10.4
		c4.2,2.8,3.7,4.5,3.7,4.5S33.1,119.1,29.3,119.2z"/>
	<path class="st3" d="M52.4,121.1l-0.9-5.5c-1.1,4-4.3,7.1-8.5,8.9c1.9,0,3.9-0.1,5.9-0.2C48.9,124.3,54.1,124.7,52.4,121.1z"/>
	<g>
		<ellipse transform="matrix(-0.9804 -0.197 0.197 -0.9804 47.1999 133.2228)" class="st4" cx="30.2" cy="64.3" rx="4.8" ry="3.1"/>
		<g>
			<path class="st5" d="M25.5,63.3c0.2-1.1,1.2-1.8,2.2-2.1c1-0.3,2.1-0.4,3.2-0.3c1.1,0.2,2.2,0.5,3.1,1.2c0.9,0.7,1.7,1.8,1.5,3.2
				c-0.1,0.6-0.5,1.2-1,1.6c-0.5,0.4-1,0.6-1.6,0.8c-1.1,0.3-2.2,0.2-3.3-0.1c-1-0.3-2-0.8-2.8-1.5C25.9,65.4,25.3,64.4,25.5,63.3z
				 M25.5,63.3c-0.2,1.1,0.5,2.1,1.3,2.7c0.8,0.6,1.8,1,2.9,1.1c1,0.1,2,0.1,3-0.3c0.9-0.3,1.7-0.9,1.9-1.7c0.2-0.8-0.3-1.7-1.1-2.3
				c-0.7-0.7-1.6-1.1-2.6-1.4c-1-0.3-2-0.3-3.1-0.1C26.7,61.6,25.7,62.2,25.5,63.3z"/>
		</g>
	</g>
	<path class="st18" d="M30.8,61.2c-2.5-0.5-4.8,0.4-5.3,1.9c3.1,0,5.8,0,8.8,0C33.6,62.2,32.4,61.5,30.8,61.2z"/>
	<g>
		<path class="st15" d="M33.9,96.2c0,0,0.3-2.4,5-3c4.7-0.6,4.8,1.9,4.8,1.9S40.2,100.7,33.9,96.2"/>
		<path d="M33.8,96.1c0-1.1,0.9-2,1.8-2.5c0.9-0.5,1.9-0.8,3-0.9c1-0.1,2.1,0,3,0.3c0.5,0.1,1,0.3,1.4,0.6c0.4,0.3,0.8,0.7,0.9,1.4
			l0,0.1l-0.1,0.1c-0.5,0.9-1.2,1.6-2,2.2c-0.8,0.6-1.8,1-2.8,1c-1,0.1-2-0.2-2.9-0.6C35.3,97.4,34.5,96.9,33.8,96.1L33.8,96.1
			c1.8,0.8,3.5,1.4,5.2,1.2c0.8-0.1,1.7-0.3,2.4-0.8c0.7-0.4,1.4-1,2-1.7l0,0.2c0-0.4-0.2-0.8-0.5-1.1c-0.3-0.3-0.8-0.5-1.3-0.6
			c-1-0.2-1.9,0-2.9,0.2c-0.9,0.2-1.9,0.4-2.7,0.8C35.2,94.8,34.3,95.3,33.8,96.1L33.8,96.1z"/>
	</g>
	<path class="st3" d="M43.7,95.1c0,0-0.1-2.5-4.8-1.9c-1.5,0.2-2.5,0.5-3.3,1c2.6,0.2,5.4,1.2,5.8,3.1
		C42.9,96.4,43.7,95.1,43.7,95.1z"/>
	<g>
		<path d="M47.5,57.2c-1-0.6-1.9-1.3-2.9-1.9l0.2,0.1l-2.1,0.3c-0.7,0.1-1.4,0.2-2.1,0.3c-0.7,0.1-1.4,0.1-2.1,0.1
			c-0.7,0-1.4,0-2.1-0.1l0-0.1c0.7-0.3,1.4-0.4,2-0.6c0.7-0.1,1.4-0.3,2.1-0.3c0.7-0.1,1.4-0.1,2.1-0.1l2.1-0.1l0.1,0l0.1,0.1
			C45.8,55.6,46.7,56.4,47.5,57.2L47.5,57.2z"/>
	</g>
	<g>
		<path class="st15" d="M88.6,32.6c2.2,8.2-2.2,16.5-9.8,18.5c-7.6,2-3.4-6.2-5.6-14.4s-9.9-13.3-2.3-15.3
			C78.5,19.3,86.4,24.4,88.6,32.6z"/>
		<g>
			<path d="M88.6,32.6c0.9,3.4,0.9,7-0.4,10.4c-1.2,3.3-3.8,6.3-7,7.7c-0.8,0.4-1.7,0.6-2.5,0.8c-0.9,0.2-1.8,0.3-2.7,0.1
				c-0.5-0.1-0.9-0.3-1.2-0.7c-0.3-0.4-0.5-0.8-0.6-1.2c-0.2-0.9-0.3-1.8-0.3-2.6c0-3.5,0.2-7-0.8-10.3c-1-3.3-2.9-6.2-4.7-9.2
				c-0.4-0.8-0.8-1.6-1.1-2.5c-0.1-0.5-0.2-1,0-1.5c0.1-0.5,0.4-1,0.8-1.3c0.8-0.7,1.7-1,2.5-1.2c0.9-0.2,1.8-0.4,2.7-0.5
				c3.6-0.3,7.3,1,10,3.3C85.9,26,87.8,29.2,88.6,32.6z M88.6,32.6c-0.9-3.4-3-6.3-5.7-8.3c-2.8-2-6.1-3.1-9.5-2.8
				c-0.8,0.1-1.6,0.2-2.5,0.4c-0.8,0.2-1.6,0.5-2.1,1c-0.5,0.5-0.7,1.1-0.5,1.9c0.2,0.8,0.5,1.5,0.9,2.3c1.6,3,3.6,6.1,4.4,9.5
				c0.4,1.7,0.6,3.5,0.6,5.2c0.1,1.7,0,3.5,0,5.2c0,0.9,0.1,1.7,0.3,2.5c0.2,0.8,0.8,1.4,1.6,1.5c0.8,0.1,1.6,0,2.4-0.3
				c0.8-0.2,1.6-0.5,2.4-0.9c3-1.5,5.4-4.1,6.8-7.2C89.1,39.6,89.5,35.9,88.6,32.6z"/>
		</g>
	</g>
	<path class="st12" d="M88.6,32.6c-1.2-4.5-4.1-8-7.7-9.9c4.6,5.3,7.4,12.1,2.8,18.9c-1.7,3.4-5,6.8-9.8,6c0.1,3,0.9,4.6,4.8,3.6
		C86.4,49.1,90.8,40.8,88.6,32.6z"/>
	<g>
		<path class="st17" d="M80.6,34.2c1.3,5-0.6,9.8-4.3,10.8c-3.7,1-1.9-3.8-3.2-8.8c-1.3-5-5.3-8.3-1.6-9.2S79.3,29.3,80.6,34.2z"/>
		<g>
			<path d="M80.6,34.2c0.5,1.9,0.7,3.9,0.3,5.9c-0.4,2-1.6,4-3.5,4.9c-0.5,0.2-1,0.4-1.5,0.4c-0.5,0.1-1.2,0-1.6-0.4
				c-0.5-0.4-0.6-1-0.6-1.5c-0.1-0.5-0.1-1-0.1-1.5c-0.1-2-0.2-3.9-0.7-5.8c-0.6-1.9-1.6-3.5-2.5-5.3c-0.2-0.4-0.5-0.9-0.6-1.4
				c-0.2-0.5-0.4-1.1-0.1-1.8c0.2-0.7,0.9-1.1,1.4-1.2c0.3-0.1,0.5-0.2,0.8-0.2c0.3-0.1,0.6-0.1,0.8-0.1c2.2-0.1,4.2,1,5.5,2.6
				C79.3,30.5,80.1,32.3,80.6,34.2z M80.6,34.3c-0.5-1.9-1.6-3.6-3-4.9c-1.4-1.2-3.2-2.1-5-2c-0.8,0-1.9,0.4-2.1,0.9
				c-0.1,0.3,0,0.7,0.1,1.1c0.1,0.4,0.3,0.9,0.5,1.3c0.9,1.7,1.8,3.6,2.2,5.5c0.4,2,0.4,4,0.5,5.9c0,0.5,0.1,1,0.2,1.4
				c0.1,0.5,0.3,0.9,0.6,1.1c0.6,0.4,1.7,0,2.4-0.4c1.6-0.9,2.7-2.5,3.3-4.3C81,38.2,81.1,36.2,80.6,34.3z"/>
		</g>
	</g>
	<g>
		<path class="st6" d="M71.7,54.7c4.7-11.3-5.8-17.9-15.2-24.5c-1.9-1.9,0-6.6-0.9-10.3c-2.6-5.2-11.9-2.5-15.9-5.8
			C28.2,19,22.1,27.2,21.6,37.2c0.1,3.1,7,2,7.9,1.6C40.1,42,49,35.9,59.3,44.3c2.5,6.9,2.9,10.1,3,17
			C65.2,60.1,70.7,57.3,71.7,54.7z"/>
		<path d="M71.7,54.7c1-2.4,1.4-5.1,0.9-7.7c-0.6-2.6-2.1-4.8-3.8-6.7c-1.8-1.9-3.8-3.6-5.9-5.1c-2.1-1.6-4.3-3-6.5-4.5l0,0l0,0
			c-0.8-0.8-0.9-1.8-1-2.7c0-0.9,0-1.8,0.1-2.7c0.1-1.8,0.3-3.5-0.1-5.1l0,0.1c-0.6-1.2-1.7-2.1-3-2.6c-1.3-0.5-2.8-0.7-4.2-0.9
			c-1.4-0.2-2.9-0.4-4.3-0.6c-1.4-0.3-2.9-0.7-4.1-1.7l0.2,0c-4.7,2-9.2,4.9-12.5,8.9c-1.6,2-2.9,4.2-3.9,6.6
			c-0.9,2.4-1.4,4.9-1.5,7.5v0c0,0.6,0.4,1,1,1.3c0.6,0.3,1.3,0.3,2,0.4c0.7,0,1.4,0,2.2-0.1c0.4,0,0.7-0.1,1.1-0.2
			c0.3-0.1,0.7-0.2,1-0.2l0.2-0.1l0.2,0c2.4,0.7,5,1,7.6,1c2.6,0,5.1-0.2,7.8-0.2c2.6,0,5.3,0.2,7.8,1c2.5,0.8,4.9,2.2,6.9,3.9
			l0.1,0.1l0,0.1c1,2.7,1.8,5.5,2.3,8.4c0.4,2.9,0.5,5.8,0.5,8.7l-0.2-0.1c1.8-0.7,3.5-1.6,5.2-2.6c0.8-0.5,1.6-1,2.4-1.7
			C70.6,56.3,71.3,55.6,71.7,54.7z M71.8,54.8c-0.4,0.9-1.1,1.6-1.8,2.3c-0.7,0.6-1.5,1.2-2.4,1.7c-1.7,1-3.4,1.9-5.2,2.7l-0.2,0.1
			l0-0.2c-0.1-2.9-0.2-5.8-0.8-8.6c-0.5-2.8-1.5-5.5-2.5-8.2l0.1,0.2c-2-1.6-4.2-2.9-6.6-3.6c-2.4-0.8-5-1-7.5-1
			c-2.6,0-5.2,0.3-7.8,0.2c-2.6,0-5.3-0.3-7.8-1.1l0.3,0c-0.5,0.2-0.8,0.2-1.2,0.3c-0.4,0.1-0.8,0.1-1.1,0.2
			c-0.8,0.1-1.5,0.1-2.3,0.1c-0.8,0-1.6-0.2-2.3-0.5c-0.4-0.2-0.8-0.4-1.1-0.8c-0.3-0.4-0.5-0.8-0.5-1.3v0v0
			c0.2-2.6,0.7-5.2,1.7-7.7c1-2.4,2.4-4.7,4.1-6.7c1.7-2,3.7-3.7,5.8-5.2c2.2-1.5,4.5-2.7,6.8-3.7l0.1,0l0.1,0.1
			c1.1,0.9,2.5,1.3,3.9,1.6c1.4,0.3,2.9,0.4,4.3,0.5c1.4,0.2,2.9,0.4,4.3,0.9c1.4,0.5,2.8,1.4,3.5,2.9l0,0l0,0
			c0.5,1.8,0.3,3.6,0.2,5.4c-0.1,0.9-0.1,1.7-0.1,2.6c0,0.8,0.2,1.6,0.7,2.1l-0.1,0c2.2,1.5,4.3,3,6.4,4.7c2.1,1.6,4.1,3.4,5.9,5.4
			c1.7,2,3.2,4.4,3.7,7C73.3,49.6,72.8,52.3,71.8,54.8z"/>
	</g>
	<ellipse transform="matrix(0.9486 0.3165 -0.3165 0.9486 12.5554 -13.4886)" class="st13" cx="47.8" cy="31.9" rx="7.2" ry="1.9"/>
	<ellipse transform="matrix(0.9486 0.3165 -0.3165 0.9486 12.8077 -15.2784)" class="st11" cx="53.4" cy="31.8" rx="2.9" ry="0.9"/>
	<g>
		<path d="M45.2,32.8c0.6,0.6,0.9,1.2,1.3,1.7c0.2,0.3,0.4,0.5,0.6,0.7c0.2,0.2,0.5,0.4,0.8,0.6c-0.4,0.2-0.9,0.2-1.3,0
			c-0.4-0.2-0.7-0.5-1-0.8c-0.2-0.3-0.4-0.7-0.5-1.1C45.1,33.6,45.1,33.2,45.2,32.8z"/>
	</g>
	<g>
		<path class="st6" d="M28.5,28.5c0,0-5.1-5.2-4.4,0.7"/>
		<path d="M28.5,28.5c-0.6-0.3-1.1-0.6-1.6-0.9c-0.5-0.3-1.1-0.6-1.5-0.7c-0.2-0.1-0.4,0-0.5,0c-0.1,0.1-0.2,0.3-0.3,0.5
			c-0.2,0.5-0.2,1.1-0.4,1.8c-0.3-0.6-0.4-1.2-0.4-1.9c0-0.4,0.1-0.8,0.5-1.1c0.4-0.3,0.9-0.3,1.3-0.3c0.8,0.2,1.3,0.6,1.8,1
			C27.8,27.5,28.2,28,28.5,28.5z"/>
	</g>
	<path class="st9" d="M21.6,34.4c0,0,8.1,6.4,24.2,0.6"/>
	<path d="M47.6,27.2c-0.3,1.2-0.9,2.1-2,1.8c-1.2-0.3-1.9-1.5-1.6-2.7c0.3-1.2,1.5-1.9,2.7-1.6C47.7,25,47.9,26,47.6,27.2z"/>
	<path class="st11" d="M45.1,26.7c-0.1,0.3-0.2,0.4-0.4,0.4c-0.3-0.1-0.4-0.3-0.4-0.6c0.1-0.3,0.3-0.4,0.6-0.4
		C45.2,26.2,45.2,26.4,45.1,26.7z"/>
	<path d="M29.7,21.7c-0.5,0.4-0.9,0.7-1.2,0.3c-0.3-0.3-0.2-1,0.2-1.4c0.5-0.4,1.1-0.5,1.4-0.2C30.4,20.8,30.1,21.3,29.7,21.7z"/>
	<ellipse transform="matrix(0.8792 -0.4765 0.4765 0.8792 -10.4863 15.436)" cx="25.2" cy="28.4" rx="0.3" ry="0.6"/>
</g>
</svg>
