<?xml version="1.0" encoding="utf-8"?>
<!-- Generator: Adobe Illustrator 15.1.0, SVG Export Plug-In . SVG Version: 6.00 Build 0)  -->
<!DOCTYPE svg PUBLIC "-//W3C//DTD SVG 1.1//EN" "http://www.w3.org/Graphics/SVG/1.1/DTD/svg11.dtd">
<svg version="1.1" id="animals" xmlns="http://www.w3.org/2000/svg" xmlns:xlink="http://www.w3.org/1999/xlink" x="0px" y="0px"
	 width="108px" height="159px" viewBox="0 0 108 159" style="enable-background:new 0 0 108 159;" xml:space="preserve">
<style type="text/css">
<![CDATA[
	.st0{opacity:0.26;fill:#CE6A06;}
	.st1{opacity:0.52;fill:#B29A7B;}
	.st2{opacity:0.43;}
	.st3{opacity:0.35;fill:#966D44;}
	.st4{fill:#8E4904;}
	.st5{fill:#F9D3AA;}
	.st6{clip-path:url(#SVGID_2_);}
	.st7{clip-path:url(#SVGID_4_);}
	.st8{opacity:0.25;fill:#050404;}
	.st9{fill:#C99C6B;}
	.st10{fill:#FFD04D;}
	.st11{fill:#FFEFD7;}
	.st12{fill:#FFFFFF;}
	.st13{opacity:0.7;fill:#CE6A06;}
	.st14{opacity:0.44;fill:#FF8D8D;}
	.st15{fill:#DBA214;}
	.st16{fill:#FFD04D;stroke:#000000;stroke-miterlimit:10;}
]]>
</style>
<g>
	<path class="st16" d="M57.2,53.1c-11.4-11.4-23.9-25-39.8-18.2c-1.2,0.6-3.2,0.2-4.7-1c-1.5,5.2,4.1,8.1,5.3,13.8
		C21.9,67.5,27.2,72,43.8,80c0.9-1.4,2-2.3,2-3C45.9,67.9,49.3,57.7,57.2,53.1z"/>
	<path class="st13" d="M58.4,52C47,40.6,34.5,27,18.5,33.8c-1.2,0.6-3.2,0.2-4.7-1c-1.5,5.2,4.1,8.1,5.3,13.8
		c3.9,19.7,9.2,24.3,25.9,32.3c0.9-1.4,2-2.3,2-3C47,66.8,50.4,56.6,58.4,52z"/>
	<g>
		<path class="st5" d="M39.4,74.5c0,0,5.1,1.9,2.8,6.9c-2.3,5,7.8-2.8,7.8-2.8v-6.1L39.4,74.5z"/>
		<path d="M39.6,74.5c1.5,0.5,2.9,1.6,3.5,3.2c0.3,0.9,0.2,1.8,0,2.6c-0.1,0.4-0.3,0.8-0.4,1.2c-0.2,0.3-0.3,0.7-0.3,1
			c0,0.1,0,0.1,0,0.2c0.1,0,0.3,0,0.4,0c0.4-0.1,0.7-0.2,1.1-0.3c0.7-0.3,1.4-0.7,2.1-1.1c1.4-0.9,2.6-1.9,3.8-2.9l-0.1,0.3
			c-0.1-2-0.1-4.1-0.2-6.1l0.6,0.5c-1.8,0.4-3.5,0.6-5.3,0.9C43.1,74.2,41.4,74.3,39.6,74.5z M39.4,74.4c1.7-0.5,3.5-1,5.2-1.4
			c1.8-0.4,3.5-0.8,5.3-1.1l0.6-0.1l0,0.6c0,2-0.1,4.1-0.2,6.1l0,0.2l-0.1,0.1c-1.4,0.9-2.7,1.8-4.1,2.6c-0.7,0.4-1.4,0.9-2.1,1.3
			c-0.4,0.2-0.7,0.4-1.2,0.5c-0.2,0.1-0.5,0.1-0.8,0c-0.2,0-0.3-0.2-0.4-0.3c-0.1-0.2-0.1-0.3-0.1-0.5c0-0.5,0.2-1,0.3-1.3
			c0.1-0.4,0.3-0.7,0.4-1.1c0.2-0.7,0.2-1.5,0.1-2.2C42,76.5,40.8,75.3,39.4,74.4l-0.1,0L39.4,74.4z"/>
	</g>
	<path class="st3" d="M39.4,74.5c0,0,5.1,1.9,2.8,6.9c-2.3,5,7.8-2.8,7.8-2.8v-6.1L39.4,74.5z"/>
	<path class="st2" d="M80.6,145.3c-0.2,0-0.4-0.1-0.5-0.3c1.5-0.7,2.3-1.5,2.3-2.4c0-1.2-1.7-2.3-4.6-3.3
		c-2.1-7.8-3.7-20.4-3.7-20.4c0.2,9.6,1.1,15.8,2.2,19.9c-6-1.6-15.7-2.7-26.7-2.7c-18.2,0-32.9,2.9-32.9,6.4s14.7,6.4,32.9,6.4
		c0.2,0,0.5,0,0.7,0c-2.6,1.2-5.1,0.1-5.1,0.1s3.4,6.4,7.6,6.4c3.6,0,6.6-1.3,7.4-3C96.5,156.4,83.7,145.4,80.6,145.3z M60.2,150.9
		c-0.2-0.8-0.6-1.5-1.2-2.1c8.8-0.5,16-1.7,20-3.3c0.9,1.1,1.6,1.3,1.6,1.3C91.5,152.2,67.4,151.3,60.2,150.9z"/>
	<g>
		<path class="st10" d="M74,115.5c0,0,3.4,27,6.6,27.1s16.3,11.9-22.3,7.3v-1.7c0,0,35,2.5,22.3-4.2C80.6,144.1,74.6,142.9,74,115.5
			z"/>
		<path d="M74.1,115.5c0.9,5.2,1.8,10.5,2.9,15.7c0.5,2.6,1.1,5.2,1.9,7.7c0.2,0.6,0.4,1.2,0.7,1.8c0.2,0.6,0.6,1.2,0.9,1.5
			c0,0,0.1,0,0.1,0.1c0,0,0,0,0,0l0.1,0c0.2,0,0.4,0.1,0.6,0.1c0.3,0.1,0.7,0.3,1,0.4c0.6,0.3,1.2,0.8,1.7,1.2c0.5,0.5,1,1,1.3,1.7
			c0.3,0.6,0.5,1.4,0.3,2.2c-0.3,0.8-0.9,1.3-1.4,1.6c-0.6,0.4-1.3,0.6-1.9,0.8c-2.6,0.7-5.3,0.8-8,0.8c-5.3,0-10.6-0.4-15.9-0.9
			l-0.3,0l0-0.3l0-1.7l0-0.3l0.4,0c4.9,0.2,9.8,0.4,14.8,0.3c2.4-0.1,4.9-0.2,7.3-0.6c0.6-0.1,1.2-0.2,1.7-0.4
			c0.3-0.1,0.5-0.2,0.7-0.4c0.2-0.2,0.2-0.2,0.2-0.3c-0.1-0.3-0.5-0.7-1-1.1c-0.5-0.3-1-0.6-1.5-0.9l0.1,0c-0.5-0.2-0.7-0.4-1-0.6
			c-0.3-0.2-0.5-0.5-0.7-0.7c-0.4-0.5-0.8-1.1-1.1-1.7c-0.6-1.2-1-2.4-1.4-3.6c-0.7-2.4-1.2-4.9-1.5-7.4
			C74.1,125.6,73.9,120.5,74.1,115.5L74.1,115.5z M74.1,115.5c0.3,5,0.6,10,1.4,14.9c0.4,2.5,0.9,4.9,1.7,7.3
			c0.4,1.2,0.8,2.3,1.4,3.4c0.3,0.5,0.6,1,1,1.5c0.2,0.2,0.4,0.4,0.6,0.6c0.2,0.2,0.5,0.3,0.6,0.4l0.1,0l0,0c0.6,0.3,1.1,0.6,1.6,1
			c0.3,0.2,0.5,0.4,0.8,0.6c0.2,0.3,0.5,0.5,0.6,1c0.1,0.2,0,0.5-0.1,0.8c-0.1,0.2-0.3,0.4-0.4,0.5c-0.3,0.3-0.6,0.4-0.9,0.5
			c-0.6,0.3-1.3,0.4-1.9,0.5c-2.5,0.4-5,0.5-7.5,0.5c-5,0-9.9-0.2-14.8-0.6l0.3-0.3l0,1.7l-0.3-0.3c5.3,0.7,10.6,1.3,15.9,1.2
			c2.6-0.1,5.3-0.2,7.8-1c0.6-0.2,1.2-0.5,1.7-0.8c0.5-0.3,1-0.8,1.1-1.3c0.3-1.1-0.5-2.3-1.5-3.1c-0.5-0.4-1-0.8-1.5-1.1
			c-0.3-0.1-0.6-0.3-0.8-0.4c-0.1,0-0.3-0.1-0.4-0.1l-0.1,0c-0.1,0-0.1,0-0.2,0c-0.1,0-0.3-0.1-0.3-0.2c-0.7-0.6-0.9-1.2-1.3-1.8
			c-0.3-0.6-0.5-1.3-0.7-1.9c-0.8-2.6-1.3-5.2-1.8-7.8C75.2,126.1,74.5,120.8,74.1,115.5L74.1,115.5z"/>
	</g>
	<path class="st0" d="M80.6,142.6c-3.1-0.2-6.6-27.1-6.6-27.1c0.3,14.7,2.2,21.8,3.8,25.3c2.6,1.7,5.2,3.7,6.7,6.8
		c-8.4,1.9-16,3-23.5,0.8c-1.7-0.1-2.8-0.2-2.8-0.2v1.7C96.9,154.5,83.7,142.8,80.6,142.6z"/>
	<g>
		<path class="st11" d="M47.1,11.5c0,0-19.7,2.4-21.9-4.8c0,0-3.1,8.1,8.5,12C33.6,18.6,46,16.8,47.1,11.5z"/>
		<path d="M47,11.5c-1.9,0.4-3.9,0.5-5.8,0.7c-2,0.1-4,0.1-6-0.1c-2-0.2-4-0.6-5.8-1.4c-0.9-0.4-1.8-0.9-2.6-1.5
			c-0.8-0.6-1.4-1.5-1.8-2.5l0.3,0c-0.4,1.3-0.4,2.7-0.1,4c0.3,1.3,1,2.5,1.8,3.5c0.9,1,1.9,1.8,3.1,2.4c1.2,0.7,2.4,1.2,3.7,1.6
			l-0.2,0c1.3-0.2,2.6-0.5,3.8-0.8c1.3-0.3,2.5-0.7,3.8-1.1c1.2-0.5,2.4-1,3.5-1.7C45.7,13.7,46.6,12.8,47,11.5z M47.1,11.5
			C46.9,12.8,46,14,45,14.9c-1.1,0.9-2.3,1.5-3.5,2.1c-2.5,1.1-5.1,1.8-7.8,2.2l-0.1,0l-0.1,0c-1.3-0.4-2.6-1-3.8-1.8
			c-1.2-0.7-2.3-1.6-3.2-2.8c-0.9-1.1-1.5-2.5-1.7-3.9c-0.2-1.4-0.1-2.8,0.3-4.2l0.2-0.5l0.1,0.5c0.3,0.9,0.9,1.7,1.6,2.3
			c0.8,0.6,1.7,1,2.6,1.3c1.9,0.6,3.8,0.8,5.7,1c1.9,0.2,3.9,0.3,5.9,0.3C43.1,11.5,45.1,11.5,47.1,11.5L47.1,11.5L47.1,11.5z"/>
	</g>
	<path class="st1" d="M47.1,11.5c0,0-19.7,2.4-21.9-4.8c0,0-3.1,8.1,8.5,12C33.6,18.6,46,16.8,47.1,11.5z"/>
	<g>
		<path class="st5" d="M83.5,49.4c0,14.4,0,27.3-35.7,26.1c-32.4-1.1-35.2-10.5-27.9-26c6.2-13.2,8.2-26.1,27.9-26.1
			C67.5,23.3,83.5,35,83.5,49.4z"/>
		<g>
			<path d="M83.6,49.4c0,4,0.1,8.1-0.8,12c-0.5,2-1.2,3.9-2.4,5.6c-1.2,1.7-2.7,3.1-4.4,4.2c-3.5,2.2-7.5,3.3-11.5,3.9
				c-4,0.6-8.1,0.8-12.1,0.8c-4,0-8.1-0.3-12.1-0.7c-4-0.4-8-1-11.9-2.1c-1.9-0.6-3.8-1.3-5.6-2.2c-1.8-1-3.4-2.2-4.6-3.9
				c-1.2-1.7-1.7-3.8-1.7-5.8c0-2.1,0.4-4.1,1-6c0.6-1.9,1.4-3.8,2.2-5.7c0.8-1.8,1.6-3.7,2.4-5.5c1.5-3.7,3-7.5,5.2-11
				c1.1-1.7,2.4-3.3,3.9-4.7c1.5-1.4,3.3-2.5,5.2-3.4c3.8-1.7,8-2.1,12-2.1c8.1,0.1,16.3,2.2,23.2,6.6c3.4,2.2,6.4,5.1,8.6,8.5
				C82.3,41.4,83.6,45.4,83.6,49.4z M83.5,49.4c0-4-1.4-8-3.6-11.3c-2.3-3.3-5.3-6-8.7-8.1c-6.8-4.2-14.9-6.1-22.8-6.2
				c-4,0-8,0.4-11.6,2c-3.6,1.5-6.6,4.3-8.7,7.6c-2.2,3.3-3.7,7.1-5.3,10.7c-0.8,1.8-1.6,3.7-2.5,5.5c-0.9,1.8-1.7,3.7-2.3,5.6
				c-0.6,1.9-1,3.9-1.1,5.8c0,2,0.5,4,1.6,5.6c1.1,1.7,2.7,2.9,4.5,3.9c1.8,1,3.7,1.6,5.6,2.2c3.9,1.1,7.9,1.6,11.9,1.9
				c4,0.3,8,0.4,12,0.4c4,0,8-0.2,12-0.8c3.9-0.6,7.9-1.6,11.3-3.6c1.7-1,3.2-2.3,4.4-3.9c1.2-1.6,2-3.5,2.5-5.4
				C83.5,57.5,83.4,53.4,83.5,49.4z"/>
		</g>
	</g>
	<g>
		<defs>
			<path id="SVGID_1_" d="M47.1,11.5c0,0-19.7,2.4-21.9-4.8c0,0-3.1,8.1,8.5,12C33.6,18.6,46,16.8,47.1,11.5z"/>
		</defs>
		<clipPath id="SVGID_2_">
			<use xlink:href="#SVGID_1_"  style="overflow:visible;"/>
		</clipPath>
		<g class="st6">
			<g>
				<path d="M21.4,9.8c0.9,0,1.7-0.1,2.5-0.3c0.4-0.1,0.9-0.1,1.3-0.2c0.4-0.1,0.8-0.3,1.2-0.5c1.5-0.9,2.9-1.8,4.5-2.6l0,0
					c-1.2,1.3-2.7,2.3-4.4,2.8c-0.4,0.1-0.8,0.3-1.2,0.5c-0.4,0.2-0.8,0.4-1.2,0.5C23.2,10.1,22.2,10.2,21.4,9.8L21.4,9.8z"/>
			</g>
			<g>
				<path d="M22.6,11.8c0.9,0,1.7-0.1,2.5-0.3c0.4-0.1,0.9-0.1,1.3-0.2c0.4-0.1,0.8-0.3,1.2-0.5c1.5-0.9,2.9-1.8,4.5-2.6l0,0
					c-1.2,1.3-2.7,2.3-4.4,2.8c-0.4,0.1-0.8,0.3-1.2,0.4c-0.4,0.2-0.8,0.4-1.2,0.5C24.3,12.2,23.4,12.3,22.6,11.8L22.6,11.8z"/>
			</g>
			<g>
				<path d="M25.5,14.4c0.9,0,1.7-0.1,2.5-0.3c0.4-0.1,0.9-0.1,1.3-0.2c0.4-0.1,0.8-0.3,1.2-0.5c1.5-0.9,2.9-1.8,4.5-2.6l0,0
					c-1.2,1.3-2.7,2.3-4.4,2.8c-0.4,0.1-0.8,0.3-1.2,0.5c-0.4,0.2-0.8,0.4-1.2,0.5C27.3,14.8,26.3,14.8,25.5,14.4L25.5,14.4z"/>
			</g>
		</g>
	</g>
	<path class="st3" d="M83.5,49.4c0-14.4-16-26.1-35.7-26.1c-1.5,0-2.8,0.1-4.1,0.2c0.1,0.7,0.2,1.5,0.3,2.2
		c-14.3,1.3-18.2,9.8-22.8,20.4c-0.9,2.3,3,7.3,5.3,10.3c-0.4-0.5-1.1-2.3-1.1-3.4c1.1,2.3,4.6,4.6,5.7,6.8c0-3.4-2.3-5.7-1.1-9.1
		c1.1,1.1,2.3,2.3,3.4,3.4c-1.1-1.1-1.1-2.3-1.1-4.6c0,3.4,4.6,3.4,5.7,3.4c2.5,0.5,5,0.8,7.5,1c-0.6,6.1-2.2,11.7-5.2,16.1
		c-2,2.4-5.6,3.3-10,3.3c4.5,1.1,10.3,1.7,17.6,2c32.3,1.1,35.4-9.4,35.7-22c0,0,0,0,0,0c0-0.6,0-1.2,0-1.7c0-0.1,0-0.1,0-0.2
		C83.5,50.8,83.5,50.1,83.5,49.4z"/>
	<g>
		<path class="st4" d="M25.4,50.9c1.1,2.3,4.6,4.6,5.7,6.8c0-3.4-2.3-5.7-1.1-9.1c1.1,1.1,2.3,2.3,3.4,3.4c-1.1-1.1-1.1-2.3-1.1-4.6
			c0,3.4,4.6,3.4,5.7,3.4c15,3.2,30.6-0.8,45.6,0.3c0-0.6,0-1.2,0-1.7c0-14.4-16-26.1-35.7-26.1c-17.4,0-21.7,9.1-26.6,20.6
			c-0.9,2.3,3,7.3,5.3,10.3C26.2,53.8,25.4,52,25.4,50.9z"/>
		<g>
			<path d="M25.4,50.8c0.7,1.3,1.8,2.3,2.9,3.3c1.1,1,2.2,2,3,3.4l-0.4,0.1c0-1.5-0.6-3-1-4.5c-0.2-0.7-0.4-1.5-0.5-2.3
				c-0.1-0.8,0-1.6,0.3-2.4l0.2-0.5l0.4,0.4l3.4,3.4l-0.5,0.5c-0.6-0.6-1.1-1.5-1.2-2.3c-0.1-0.9-0.1-1.7-0.1-2.5h0.8
				c0,0.6,0.1,1.1,0.5,1.5c0.3,0.4,0.8,0.7,1.3,0.9c1.1,0.4,2.3,0.5,3.5,0.5h0l0,0c3.7,0.8,7.5,1.1,11.3,1.3c3.8,0.1,7.6,0,11.4-0.2
				c3.8-0.2,7.6-0.4,11.4-0.6c3.8-0.1,7.6-0.2,11.4,0l-0.2,0.2c0-1,0-2.1-0.1-3.1c-0.1-1-0.2-2-0.5-3c-0.5-2-1.3-3.9-2.3-5.6
				c-2.1-3.5-5.1-6.4-8.4-8.7c-6.8-4.5-15-6.7-23.1-6.9c-4.1-0.1-8.2,0.3-12,1.6c-1.9,0.7-3.7,1.7-5.3,2.9c-1.6,1.2-3,2.7-4.2,4.4
				c-2.4,3.3-4.1,7.1-5.7,10.8c-0.2,0.5-0.3,0.9-0.3,1.4c0,0.5,0.2,1,0.4,1.4c0.4,0.9,0.8,1.8,1.4,2.7c1,1.8,2.3,3.4,3.5,5.1
				l-0.2,0.1c-0.3-0.5-0.6-1.1-0.8-1.7C25.5,52.1,25.3,51.5,25.4,50.8l-0.1-0.2L25.4,50.8z M25.5,51.1c0.1,0.5,0.2,1,0.4,1.5
				c0.2,0.6,0.5,1.1,0.8,1.6l-0.2,0.1c-1.3-1.6-2.5-3.3-3.7-5c-0.5-0.9-1.1-1.8-1.5-2.8c-0.2-0.5-0.4-1-0.4-1.6c0-0.3,0-0.5,0-0.9
				c0-0.1,0-0.1,0.1-0.2l0-0.1l0-0.1l0.1-0.4c1.6-3.8,3.2-7.6,5.6-11.1c2.4-3.4,5.8-6.3,9.8-7.7c4-1.5,8.2-1.8,12.4-1.8
				c4.2,0.1,8.3,0.7,12.3,1.9c4,1.2,7.8,2.9,11.3,5.3c3.4,2.4,6.4,5.4,8.5,9.1c1,1.8,1.8,3.8,2.3,5.8c0.2,1,0.4,2.1,0.4,3.1
				c0.1,1,0,2.1,0,3.1l0,0.2l-0.2,0c-3.8-0.3-7.6-0.3-11.4-0.1c-3.8,0.2-7.6,0.5-11.4,0.8c-3.8,0.3-7.6,0.5-11.5,0.4
				c-3.8-0.1-7.7-0.4-11.4-1.2l0.1,0c-1.3,0-2.6-0.1-3.8-0.6c-0.6-0.3-1.2-0.7-1.7-1.2c-0.4-0.6-0.6-1.3-0.6-2h0.8
				c0,0.8,0,1.6,0.1,2.4c0.1,0.8,0.4,1.4,0.9,1.9l-0.5,0.5l-3.4-3.4l0.6-0.1c-0.2,0.7-0.4,1.4-0.3,2.2c0,0.7,0.2,1.5,0.4,2.2
				c0.4,1.5,1,3,0.9,4.6l0,0.9l-0.4-0.8c-0.6-1.3-1.7-2.3-2.7-3.4C27.2,53.4,26.1,52.3,25.5,51.1z"/>
		</g>
	</g>
	<path class="st16" d="M76.1,14.1c-2.9-2-7.5-3.8-12.9-4.9c-6.4-1.2-12.3-1.1-16,0.2c-0.2,0-0.3,0-0.5,0c-2.1-0.8-5-1.3-8.2-1.3
		c-6.4,0-11.5,1.9-11.5,4.3c0,0.6,0.3,1.1,0.8,1.6C18.7,18.5,12.6,25.6,10,33.9c1.6,1.2,3.7,1.7,5,1C32,33.1,44.2,46.7,49.9,51.3
		c-5.3,6.8-4.1,16.7-4.1,25.8c0,0.3-0.3,0.7-0.6,1.2l-2.1,2l-2.6-1.6c0,0-2,10.2-4.1,14c-2.1,3.8-6.9,19.5-4.1,29.7l1.8,2.8
		c0,0,1.9,33,7.3,1.4c0,0,0.2,0,0.6,0c-1.8-0.8-3.6-1.7-5.4-2.5c1.8,0.8,3.6,1.7,5.4,2.5c1.4,0.1,9.3,3.3,11.8,2.7
		c0,0,11.3,39.5,15,0.3c0,0,9.4-3.1,4.1-17.5s-6.3-26.7-6.3-26.7L66,79.1c19.4-1.3,26.5-6.1,30.6-24.5
		C100.2,39.1,94.4,22.2,76.1,14.1z"/>
	<path class="st0" d="M46.7,9.5c-1.2-0.5-2.6-0.8-4.2-1c2.1,2.1,4.1,4.1,5.6,2.6c1.8-1.1,3.6-1.9,5.4-2.6c-2.5,0.1-4.7,0.4-6.4,1
		C47.1,9.5,46.9,9.5,46.7,9.5z"/>
	<path class="st0" d="M35.5,136.7c1.1,5.1,3,6.6,5.8-10c-1.1-0.4-2-1.1-3.4-1.8C37.9,129.1,37,133,35.5,136.7z"/>
	<path class="st0" d="M43.1,80.2l-2.6-1.6c0,0-2,10.2-4.1,14c-0.5,0.8-1.1,2.3-1.7,4.1c3.7-5.3,7.6-10.5,8.7-16.8L43.1,80.2z"/>
	<path class="st0" d="M76.1,14.1c-2.6-1.8-6.5-3.4-11.1-4.5c2.1,6.7,17.9,9.5-5.8,20.8c-1.5,0.7,3.8,12.5,10.6,17.1
		c0,0,1.1,3.4,2.3,4.6c10.2,4.6,12.5-9.1,11.4-17.1C88,54.3,74.3,74.8,55,77c12.5,8,8,33,11.4,47.8c1.1,1.1-4.6,2.3-3.4,4.6
		c1.1,5.7,1.5,11.3,1.6,17c1.8-1.4,3.3-6.2,4.3-16.9c0,0,9.4-3.1,4.1-17.5s-6.3-26.7-6.3-26.7L66,79.1c19.4-1.3,26.5-6.1,30.6-24.5
		C100.2,39.1,94.4,22.2,76.1,14.1z"/>
	<g>
		<path class="st10" d="M58.3,28.4c0,0,5.9,14.9,15.5,15.7c0,0,1.3,0.6,1.5,3.4c0,0,5.6,2.3,6.5-6.8c0.9-9.1,3-14.6-14-17.9"/>
		<path d="M58.3,28.4c0.9,1.7,1.8,3.4,2.8,5c1,1.6,2.1,3.2,3.4,4.6c1.3,1.4,2.6,2.8,4.1,3.8c1.5,1.1,3.3,1.9,5.2,2.1l0,0l0,0
			c0.3,0.2,0.5,0.4,0.7,0.7c0.2,0.3,0.3,0.6,0.4,0.9c0.2,0.6,0.3,1.3,0.4,1.9l-0.1-0.1c0.7,0.2,1.5,0.3,2.3,0.1
			c0.7-0.2,1.4-0.6,1.9-1.1c1-1.1,1.4-2.7,1.7-4.2c0.1-0.8,0.2-1.5,0.2-2.3l0.2-2.4c0.1-1.6,0.3-3.1,0.1-4.7c-0.1-1.5-0.6-3-1.5-4.1
			c-0.9-1.2-2.2-2.1-3.6-2.8c-2.8-1.4-5.8-2.3-8.9-3.1l0-0.1c3.1,0.5,6.3,1.1,9.3,2.4c1.5,0.7,2.9,1.6,4,2.9c1.1,1.3,1.6,3,1.8,4.7
			c0.1,1.7-0.1,3.3-0.3,4.8c-0.2,1.6-0.3,3.1-0.6,4.8c-0.3,1.6-0.9,3.2-2.1,4.4c-1.2,1.2-3.1,1.5-4.6,1l-0.1,0l0-0.1
			c0-0.6-0.1-1.2-0.4-1.8c-0.1-0.3-0.2-0.6-0.4-0.8c-0.2-0.2-0.4-0.5-0.6-0.6l0.1,0c-2-0.1-3.9-0.8-5.6-1.8
			c-1.7-1.1-3.1-2.4-4.4-3.9c-1.2-1.5-2.3-3.1-3.3-4.8C59.7,32,58.9,30.3,58.3,28.4L58.3,28.4z"/>
	</g>
	<g>
		<path class="st11" d="M60.5,12.8c0,0,21.3,5,35.1-5.6c0,0,2.1,18.9-14.2,21.2C81.3,28.4,66.2,29.9,60.5,12.8z"/>
		<path d="M60.5,12.8c3,0.5,6,0.7,9.1,0.8c3,0.1,6.1,0,9.1-0.4c3-0.4,6-1,8.8-1.9c1.4-0.5,2.8-1.1,4.2-1.7C93,8.8,94.3,8,95.5,7.1
			l0.2-0.2l0,0.3c0.2,2.4,0.1,4.7-0.3,7.1c-0.4,2.3-1.1,4.7-2.2,6.8c-1.2,2.1-2.8,4-4.8,5.3c-2,1.3-4.4,2.1-6.8,2.5
			c-1.3,0.1-2.5,0-3.7-0.1c-1.2-0.2-2.4-0.4-3.5-0.8c-2.3-0.7-4.5-1.8-6.4-3.3C64.2,21.7,61.7,17.3,60.5,12.8L60.5,12.8L60.5,12.8z
			 M60.6,12.9c0.8,2.2,1.9,4.2,3.2,6.1c1.3,1.9,3,3.6,4.8,5c1.9,1.4,4,2.4,6.2,3c2.2,0.6,4.6,1,6.7,0.8c2.3-0.3,4.5-1,6.4-2.3
			c1.9-1.2,3.5-2.9,4.7-4.9c2.4-4,3.2-8.8,2.8-13.5l0.3,0.1c-2.4,1.9-5.1,3.4-8,4.5c-2.9,1.1-5.9,1.8-8.9,2.2
			c-3.1,0.3-6.1,0.4-9.2,0.2C66.5,14.1,63.5,13.7,60.6,12.9z"/>
	</g>
	<path class="st1" d="M84.6,21.3c-6.7,2.9-15.8,1.7-21.9-3.4c6.7,11.7,18.7,10.6,18.7,10.6c13-1.9,14.3-14.3,14.3-19.2
		C93.2,14.8,90.5,19.6,84.6,21.3z"/>
	<g>
		<path class="st11" d="M47,47.9c-0.9,1.1-5.7,0.3-19.3-2.2C14.1,43.1,9,36.8,9.9,31.9c0.9-4.9,8.7-8.5,20.5-1.6
			C42.5,37.3,51.4,42.7,47,47.9z"/>
		<path d="M47.1,47.9c-0.4,0.4-0.9,0.4-1.4,0.5c-0.5,0-1,0-1.5,0c-1,0-2-0.2-3-0.3c-2-0.2-3.9-0.5-5.9-0.8c-2-0.3-3.9-0.6-5.9-1
			c-1.9-0.3-3.9-0.7-5.8-1.3c-3.8-1.1-7.5-2.8-10.5-5.5c-1.5-1.3-2.8-3-3.3-4.9c-0.3-1-0.3-2-0.1-3c0.2-1,0.7-2,1.4-2.7
			c1.4-1.6,3.4-2.4,5.4-2.8c2-0.3,4.1-0.2,6,0.3c2,0.4,3.9,1.1,5.7,2c1.8,0.9,3.5,1.9,5.2,2.9c3.4,2,6.8,4.1,9.9,6.6
			c1.5,1.3,3,2.6,4.1,4.3c0.5,0.9,0.9,1.8,0.9,2.9C48.2,46.2,47.7,47.1,47.1,47.9z M47,47.8c0.6-0.7,1.1-1.7,1.1-2.6
			c0-1-0.4-1.9-0.9-2.7c-1.1-1.6-2.7-2.8-4.3-4c-3.2-2.3-6.6-4.2-10-6.2c-1.7-1-3.4-2-5.1-2.9c-1.7-0.9-3.6-1.6-5.4-2
			c-1.9-0.4-3.8-0.7-5.7-0.4c-1.9,0.2-3.8,0.9-5.1,2.3c-1.3,1.4-1.8,3.4-1.3,5.3c0.5,1.9,1.7,3.5,3.2,4.8c1.5,1.3,3.2,2.3,5,3.1
			c1.8,0.8,3.7,1.4,5.6,1.9c1.9,0.5,3.8,0.8,5.8,1.2c1.9,0.4,3.9,0.8,5.8,1.2c1.9,0.4,3.9,0.8,5.8,1.1c1,0.2,2,0.3,2.9,0.4
			c0.5,0,1,0,1.5,0C46.1,48.2,46.7,48.2,47,47.8z"/>
	</g>
	<path class="st1" d="M23.1,33.8c-1.1,0-2.3-2.3-3.4-1.1c0,1.1,1.1,4.6,0,5.7c-2.1,1.1-5.2,0.2-8.3-0.9c2.4,3.4,7.6,6.5,16.4,8.2
		c12,2.3,17.1,3.1,18.8,2.5c-6.8-5-16.1-4.7-24.6-7.6C23.1,38.3,24.2,36.1,23.1,33.8z"/>
	<g>
		<path d="M46.1,24.5c-1.1,2-2.4,3.4-4.4,2.3c-2-1.1-2.7-3.6-1.6-5.6c1.1-2,3.6-2.7,5.6-1.6C47.7,20.8,47.2,22.6,46.1,24.5z"/>
		<circle class="st12" cx="41.4" cy="22.7" r="1"/>
	</g>
	<g>
		<path d="M17.8,22.7c-1.3,0.9-2.3,1.5-2.2,0.2c0.2-1.3,1.4-3.1,2.7-4.1c1.3-1,2.2-0.7,2,0.6C20.2,20.7,19.1,21.8,17.8,22.7z"/>
		<path class="st12" d="M18,20.4c-0.3,0.4-0.6,0.5-0.7,0.3c-0.1-0.2,0-0.6,0.3-0.9c0.3-0.4,0.6-0.5,0.7-0.3
			C18.5,19.6,18.3,20.1,18,20.4z"/>
	</g>
	<ellipse cx="19.8" cy="33.2" rx="1.1" ry="2.2"/>
	<ellipse cx="12.2" cy="31.7" rx="0.5" ry="1.1"/>
	<g>
		<path class="st15" d="M12.4,31.7c0,0-6.6,8.6-1,9.7c5.6,1.1,10-1.5,8.4-8.3l1.1-0.3c0,0,3.5,13.7-9.4,9.8
			C11.4,42.7,4.7,40.9,12.4,31.7z"/>
		<g>
			<path d="M12.5,31.8c-0.6,0.9-1.1,1.9-1.6,2.9c-0.5,1-0.9,2-1.1,3c-0.2,1-0.2,2.1,0.4,2.7c0.3,0.3,0.8,0.5,1.3,0.6
				c0.5,0.1,1.1,0.2,1.6,0.2c1.1,0.1,2.1,0.1,3.2-0.2c1-0.3,2-0.8,2.7-1.6c0.7-0.8,1-1.9,1.1-3c0.1-1.1-0.1-2.2-0.3-3.2l0-0.2
				l0.2-0.1l1.1-0.4l0.2-0.1l0.1,0.2c0.3,1.3,0.5,2.6,0.6,3.9c0,1.3-0.1,2.7-0.7,4c-0.6,1.3-1.7,2.4-3.1,2.8
				C16.5,44,15,44,13.7,43.8c-0.7-0.1-1.3-0.3-2-0.4l-0.5-0.1c-0.2-0.1-0.4-0.1-0.5-0.2c-0.3-0.2-0.6-0.3-0.9-0.6
				c-0.6-0.5-1-1.1-1.3-1.8c-0.2-0.7-0.3-1.4-0.2-2.1c0.2-1.4,0.9-2.6,1.6-3.7C10.6,33.6,11.5,32.6,12.5,31.8l0.3-0.4L12.5,31.8z
				 M12.5,31.8c-0.8,1.1-1.5,2.1-2.1,3.3c-0.6,1.1-1.1,2.3-1.2,3.5c-0.1,1.2,0.3,2.4,1.3,3c0.2,0.2,0.5,0.3,0.7,0.4
				c0.1,0.1,0.3,0.1,0.4,0.1l0.5,0.1c0.6,0.2,1.2,0.3,1.9,0.4c1.2,0.2,2.5,0.2,3.6-0.1c1.1-0.3,2.1-1.1,2.6-2.2
				c0.5-1.1,0.8-2.4,0.8-3.6c0.1-1.3,0-2.6-0.3-3.8l0.3,0.2l-1.1,0.3l0.1-0.2c0.2,1.1,0.4,2.2,0.3,3.4c-0.1,1.1-0.4,2.3-1.1,3.2
				c-0.7,1-1.7,1.6-2.8,2c-1.1,0.4-2.3,0.5-3.4,0.4c-0.6,0-1.1-0.1-1.7-0.3c-0.6-0.1-1.2-0.4-1.7-0.9c-0.5-0.5-0.7-1.1-0.8-1.8
				c0-0.6,0.1-1.2,0.2-1.8C9.7,35.3,10.9,33.4,12.5,31.8L12.5,31.8z"/>
		</g>
	</g>
	<path class="st0" d="M47.6,90.8c0,0-1.8,56.1,13.4-1.2"/>
	<g>
		<path class="st10" d="M47.1,88.7c0,0-10.1,55.2,13.4,0.8"/>
		<path d="M47.1,88.7c-0.4,4.5-1,8.9-1.5,13.3c-0.3,2.2-0.6,4.4-0.6,6.7c0,1.1,0.1,2.2,0.4,3.3c0.1,0.5,0.4,1.1,0.8,1.2
			c0.4,0.2,0.9-0.1,1.3-0.4c0.8-0.7,1.4-1.6,2-2.5c0.6-0.9,1.2-1.9,1.7-2.8c1.1-1.9,2.1-3.9,3.1-5.9c2-4,4-8,6-12l0.1,0
			c-1.5,4.2-3.2,8.4-5.2,12.4c-1,2-2.1,4-3.2,5.9c-0.6,1-1.2,1.9-1.9,2.8c-0.7,0.9-1.4,1.8-2.4,2.5c-0.2,0.2-0.5,0.3-0.8,0.4
			c-0.3,0.1-0.7,0.1-1-0.1c-0.6-0.4-0.8-1-1-1.5c-0.3-1.1-0.3-2.2-0.4-3.4c-0.1-2.2-0.1-4.5,0.1-6.7C45.2,97.5,45.9,93.1,47.1,88.7
			L47.1,88.7z"/>
	</g>
	<path class="st16" d="M60.3,149.2c0,2.2-3.4,4-7.6,4c-4.2,0-7.6-4-7.6-4s6.4-3.6,9.1-4.2C58.2,144.2,60.3,146.9,60.3,149.2z"/>
	<path class="st0" d="M58.6,145.8c0.3,1.1-0.2,2.2-0.2,3c-3.8,3.8-8.2,3-12.3,1.4c1.3,1.2,3.8,3,6.6,3c4.2,0,7.6-1.8,7.6-4
		C60.3,148,59.7,146.7,58.6,145.8z"/>
	<g>
		<g>
			<path d="M45.1,149.2c1.1-0.6,2.3-1.2,3.4-1.6s2.4-0.8,3.6-1.1c1.3-0.2,2.5-0.4,3.8-0.3c1.3,0.1,2.6,0.4,3.6,1.2
				c-1.1-0.6-2.4-0.8-3.6-0.9c-1.2,0-2.5,0.1-3.7,0.4c-1.2,0.2-2.4,0.6-3.6,1C47.4,148.3,46.2,148.7,45.1,149.2z"/>
		</g>
		<g>
			<path d="M60.2,149.9c-0.9,0.9-2,1.5-3.2,1.9c-1.2,0.4-2.5,0.6-3.8,0.5c-1.3-0.1-2.5-0.3-3.7-0.8c-1.2-0.4-2.3-1-3.4-1.7
				c1.1,0.5,2.3,1,3.5,1.3c1.2,0.3,2.4,0.6,3.6,0.6c1.2,0.1,2.4,0,3.6-0.4C58,151.2,59.2,150.6,60.2,149.9z"/>
		</g>
		<g>
			<path d="M60.3,149.2c-2.5,0.1-5,0.1-7.5,0.1c-2.5,0-5,0-7.5,0l-1.4,0l1.3-0.5c1.3-0.5,2.5-0.8,3.8-1.1c1.3-0.3,2.6-0.6,3.9-0.7
				c1.3-0.1,2.7-0.1,4,0.2C58.3,147.4,59.6,148.1,60.3,149.2z M60.3,149.2c-0.8-1-2.1-1.6-3.4-1.7c-1.3-0.2-2.6-0.2-3.9,0
				c-2.6,0.3-5.1,1-7.6,1.9l-0.1-0.5c2.5,0,5,0.1,7.5,0.1C55.3,149,57.8,149,60.3,149.2z"/>
		</g>
		<g>
			<path d="M47.1,149c1-0.4,1.9-0.6,3-0.8c1-0.2,2-0.3,3-0.4c1,0,2.1,0,3.1,0.1c1,0.2,2,0.5,2.9,1.1c-0.9-0.4-1.9-0.6-2.9-0.7
				c-1-0.1-2-0.1-3,0C51.1,148.4,49.1,148.7,47.1,149z"/>
		</g>
		<g>
			<path d="M45.6,149.7c2.3,0,4.5,0,6.7,0.1c2.2,0,4.5,0.1,6.7-0.1c-1.1,0.3-2.2,0.4-3.4,0.5c-1.1,0.1-2.3,0.1-3.4,0.1
				C50.1,150.2,47.8,150.1,45.6,149.7z"/>
		</g>
		<g>
			<path d="M47.5,150.1c1.9,0.4,3.9,0.7,5.8,0.7c1,0,1.9-0.1,2.9-0.2c1-0.1,1.9-0.3,2.9-0.5c-1.8,0.8-3.8,1.2-5.8,1.2
				c-1,0-2-0.1-3-0.3C49.3,150.7,48.4,150.5,47.5,150.1z"/>
		</g>
	</g>
	<g>
		<defs>
			<path id="SVGID_3_" d="M60.6,12.8c0,0,21.3,5,35.1-5.6c0,0,2.1,18.9-14.2,21.2C81.5,28.4,66.3,29.9,60.6,12.8z"/>
		</defs>
		<clipPath id="SVGID_4_">
			<use xlink:href="#SVGID_3_"  style="overflow:visible;"/>
		</clipPath>
		<g class="st7">
			<g>
				<path d="M63.7,12.6c0.8,2,1.7,3.9,2.8,5.8c1,1.9,2.3,3.7,3.9,5.1c1.6,1.4,3.5,2.5,5.4,3.3c2,0.8,4.1,1.3,6.2,1.4v0.1
					c-2.2,0.1-4.4-0.2-6.4-1c-2-0.8-3.9-2.1-5.4-3.6c-1.5-1.6-2.9-3.2-4.1-5C65,16.8,64.1,14.8,63.7,12.6L63.7,12.6z"/>
			</g>
			<g>
				<path d="M66.4,12.6c0.8,2,1.7,3.9,2.8,5.8c1,1.9,2.3,3.7,3.9,5.1c1.6,1.4,3.5,2.5,5.4,3.3c2,0.8,4.1,1.3,6.2,1.4v0.1
					c-2.2,0.1-4.4-0.2-6.4-1c-2-0.8-3.9-2.1-5.4-3.6c-1.5-1.6-2.9-3.2-4.1-5C67.7,16.8,66.8,14.8,66.4,12.6L66.4,12.6z"/>
			</g>
			<g>
				<path d="M69,12.6c0.8,2,1.7,3.9,2.8,5.8c1,1.9,2.3,3.7,3.9,5.1c1.6,1.4,3.5,2.5,5.4,3.3c2,0.8,4.1,1.3,6.2,1.4v0.1
					c-2.2,0.1-4.4-0.2-6.4-1c-2-0.8-3.9-2.1-5.4-3.6c-1.5-1.6-2.9-3.2-4.1-5C70.3,16.8,69.4,14.8,69,12.6L69,12.6z"/>
			</g>
			<g>
				<path d="M70.4,10.8c0.8,2,1.7,3.9,2.8,5.8c1,1.9,2.3,3.7,3.9,5.1c1.6,1.4,3.5,2.5,5.4,3.3c2,0.8,4.1,1.3,6.2,1.4v0.1
					c-2.2,0.1-4.4-0.2-6.4-1c-2-0.8-3.9-2.1-5.4-3.6c-1.5-1.6-2.9-3.2-4.1-5C71.6,15,70.8,13,70.4,10.8L70.4,10.8z"/>
			</g>
			<g>
				<path d="M72.9,9.4c0.8,2,1.7,3.9,2.8,5.8c1,1.9,2.3,3.7,3.9,5.1c1.6,1.4,3.5,2.5,5.4,3.3c2,0.8,4.1,1.3,6.2,1.4v0.1
					c-2.2,0.1-4.4-0.2-6.4-1c-2-0.8-3.9-2.1-5.4-3.6c-1.5-1.6-2.9-3.2-4.1-5C74.2,13.5,73.3,11.5,72.9,9.4L72.9,9.4z"/>
			</g>
			<g>
				<path d="M75.6,7.6c0.8,2,1.7,3.9,2.8,5.8c1,1.9,2.3,3.7,3.9,5.1c1.6,1.4,3.5,2.5,5.4,3.3c2,0.8,4.1,1.3,6.2,1.4v0.1
					c-2.2,0.1-4.4-0.2-6.4-1c-2-0.8-3.9-2.1-5.4-3.6c-1.5-1.6-2.9-3.2-4.1-5C76.9,11.7,76,9.7,75.6,7.6L75.6,7.6z"/>
			</g>
			<g>
				<path d="M78.2,6c0.8,2,1.7,3.9,2.8,5.8c1,1.9,2.3,3.7,3.9,5.1c1.6,1.4,3.5,2.5,5.4,3.3c2,0.8,4.1,1.3,6.2,1.4v0.1
					c-2.2,0.1-4.4-0.2-6.4-1c-2-0.8-3.9-2.1-5.4-3.6c-1.5-1.6-2.9-3.2-4.1-5C79.5,10.1,78.6,8.1,78.2,6L78.2,6z"/>
			</g>
			<g>
				<path d="M81.5,3c0.8,2,1.7,3.9,2.8,5.8c1,1.9,2.3,3.7,3.9,5.1c1.6,1.4,3.5,2.5,5.4,3.3c2,0.8,4.1,1.3,6.2,1.4v0.1
					c-2.2,0.1-4.4-0.2-6.4-1c-2-0.8-3.9-2.1-5.4-3.6c-1.5-1.6-2.9-3.2-4.1-5C82.7,7.2,81.9,5.1,81.5,3L81.5,3z"/>
			</g>
			<g>
				<path d="M84.8,0.3c0.8,2,1.7,3.9,2.8,5.8c1,1.9,2.3,3.7,3.9,5.1c1.6,1.4,3.5,2.5,5.4,3.3c2,0.8,4.1,1.3,6.2,1.4V16
					c-2.2,0.1-4.4-0.2-6.4-1c-2-0.8-3.9-2.1-5.4-3.6c-1.5-1.6-2.9-3.2-4.1-5C86,4.5,85.2,2.5,84.8,0.3L84.8,0.3z"/>
			</g>
			<g>
				<path d="M86.5-2.4c0.8,2,1.7,3.9,2.8,5.8c1,1.9,2.3,3.7,3.9,5.1c1.6,1.4,3.5,2.5,5.4,3.3c2,0.8,4.1,1.3,6.2,1.4v0.1
					c-2.2,0.1-4.4-0.2-6.4-1c-2-0.8-3.9-2.1-5.4-3.6c-1.5-1.6-2.9-3.2-4.1-5C87.8,1.7,86.9-0.3,86.5-2.4L86.5-2.4z"/>
			</g>
		</g>
	</g>
	<g>
		<path d="M28.5,59.9c1.2-1.2,2.8-2,4.6-2c0.9,0,1.8,0,2.6,0.4c0.8,0.4,1.5,0.9,2,1.6L37.7,60l-2.3-0.8c-0.8-0.2-1.5-0.5-2.3-0.6
			c-0.8-0.1-1.6,0-2.4,0.2C30,59.1,29.2,59.5,28.5,59.9L28.5,59.9z"/>
	</g>
	<g>
		<path class="st9" d="M18.1,63c0.4-1.6,1-2.9,4.9-1.9c2.3,0.6,4.3,2.6,3.3,4c-1.3,1.9-2.7,3.5-5,2.9S17.7,64.7,18.1,63z"/>
		<g>
			<path d="M18.1,63c0.1-0.5,0.3-1,0.6-1.4c0.3-0.4,0.8-0.7,1.3-0.8c1-0.2,2.1-0.1,3.1,0.1c1.1,0.2,2.1,0.7,2.9,1.4
				c0.4,0.4,0.8,0.9,1,1.5c0.1,0.3,0.1,0.7,0,1c-0.1,0.3-0.3,0.7-0.4,0.8c-0.6,0.9-1.3,1.7-2.3,2.3c-1,0.6-2.3,0.6-3.3,0.2
				c-1-0.4-1.8-1.2-2.3-2.1C18.2,65.1,17.9,64.1,18.1,63z M18.1,63c-0.2,1,0.2,2.1,0.7,2.9c0.6,0.8,1.4,1.5,2.3,1.8
				c1,0.3,1.9,0.1,2.7-0.5c0.8-0.5,1.3-1.4,1.9-2.2c0.2-0.2,0.3-0.4,0.3-0.5c0-0.2,0-0.3,0-0.5c-0.1-0.4-0.3-0.8-0.7-1.1
				c-0.6-0.7-1.5-1.3-2.4-1.6c-1-0.3-2-0.6-3-0.5c-0.5,0.1-1,0.3-1.3,0.7C18.4,62,18.2,62.6,18.1,63z"/>
		</g>
	</g>
	<g>
		<path class="st12" d="M23,61.1c-3.5-0.9-4.3,0.1-4.7,1.5c2.8,0.3,5.6,1.2,8.3,1.7C26.6,63.1,24.8,61.6,23,61.1z"/>
		<g>
			<path d="M23,61.1c-0.9-0.2-1.9-0.4-2.8-0.3c-0.5,0.1-0.9,0.2-1.2,0.6c-0.3,0.3-0.5,0.8-0.6,1.2l-0.1-0.1c2.9,0.2,5.6,1.1,8.3,1.8
				l-0.1,0.1c0-0.8-0.6-1.6-1.2-2.1C24.6,61.7,23.8,61.3,23,61.1z M23,61.1c0.8,0.2,1.6,0.6,2.3,1.1c0.3,0.3,0.7,0.6,0.9,0.9
				c0.2,0.4,0.4,0.8,0.5,1.2l0,0.1l-0.1,0c-2.8-0.5-5.5-1.4-8.3-1.7l-0.1,0l0-0.1c0.1-0.5,0.3-0.9,0.7-1.3c0.4-0.3,0.8-0.5,1.3-0.6
				C21.1,60.7,22,60.9,23,61.1z"/>
		</g>
	</g>
	<ellipse class="st14" cx="36.4" cy="62.6" rx="6.1" ry="1.5"/>
	<ellipse class="st12" cx="39.3" cy="61.3" rx="1.1" ry="0.5"/>
	<ellipse class="st14" cx="44.4" cy="30.4" rx="7.6" ry="1.8"/>
	<ellipse class="st12" cx="48" cy="28.8" rx="1.4" ry="0.7"/>
	<path class="st8" d="M72.9,112c-5.3-14.5-6.3-26.7-6.3-26.7L66,79.1c19.4-1.3,26.5-6.1,30.6-24.5C99,44.1,97.2,33,90.1,24.4
		c0.4-0.3,0.7-0.7,1.1-1.1c0.1-0.1,0.1-0.1,0.1-0.2c0.2-0.2,0.3-0.4,0.5-0.6c0.1-0.1,0.1-0.1,0.2-0.2c0.2-0.2,0.3-0.4,0.5-0.7
		c0,0,0.1-0.1,0.1-0.1c0.4-0.6,0.7-1.1,1-1.7c0-0.1,0.1-0.1,0.1-0.2c0.1-0.2,0.2-0.5,0.3-0.7c0-0.1,0.1-0.1,0.1-0.2
		c0.1-0.2,0.2-0.5,0.3-0.7c0,0,0-0.1,0.1-0.1c0.2-0.6,0.4-1.2,0.5-1.8c0-0.1,0-0.1,0.1-0.2c0.1-0.2,0.1-0.4,0.2-0.6
		c0-0.1,0-0.2,0.1-0.3c0-0.2,0.1-0.4,0.1-0.6c0-0.1,0-0.1,0-0.2c0-0.3,0.1-0.5,0.1-0.8c0-0.1,0-0.1,0-0.2c0-0.2,0.1-0.4,0.1-0.6
		c0-0.1,0-0.2,0-0.3c0-0.1,0-0.3,0-0.4c0-0.1,0-0.2,0-0.4c0-0.1,0-0.2,0-0.3c0.2-2.4,0-4,0-4c-6,4.6-13.4,6.3-19.9,6.7
		c-0.2-0.2-0.5-0.3-0.7-0.5c-0.1-0.1-0.3-0.2-0.5-0.3c-0.3-0.1-0.5-0.3-0.8-0.4c-0.2-0.1-0.4-0.2-0.6-0.3c-0.2-0.1-0.5-0.2-0.7-0.3
		c-0.2-0.1-0.5-0.2-0.8-0.3c-0.2-0.1-0.4-0.2-0.7-0.3c-0.3-0.1-0.6-0.2-0.9-0.3c-0.2-0.1-0.4-0.2-0.6-0.2c-0.3-0.1-0.7-0.2-1-0.3
		c-0.2-0.1-0.4-0.1-0.6-0.2c-0.4-0.1-0.8-0.2-1.1-0.3c-0.1,0-0.3-0.1-0.4-0.1c-1-0.3-2-0.5-3.1-0.7c-4.9-0.9-9.6-1.1-13.1-0.5
		c-0.1,0-0.2,0-0.2,0C49.4,8.9,49,9,48.6,9c-0.5,0.1-1,0.3-1.4,0.4c-0.2,0-0.3,0-0.5,0c-0.3-0.1-0.6-0.2-0.9-0.3
		c-0.1,0-0.1,0-0.2-0.1C45.4,9,45.1,9,44.8,8.9c0,0-0.1,0-0.1,0c-0.3-0.1-0.7-0.2-1-0.2c0,0,0,0,0,0c-1.6-0.3-3.3-0.5-5.2-0.5
		c-4.1,0-7.6,0.8-9.7,2c-1.8-0.8-3.2-1.9-3.7-3.5c0,0-1.6,4.2,1.8,8c-2.4,1.2-4.6,2.7-6.5,4.3c-0.2-0.8-1-0.8-2-0.1
		c-1.3,0.9-2.5,2.8-2.7,4.1c0,0.3,0,0.5,0.1,0.6c-1.2,1.4-2.2,2.9-3.1,4.5c-1.5,1-2.4,2.4-2.7,3.9c-0.2,1-0.1,2,0.2,3.1
		c-3.8,6.4,1.3,7.7,1.3,7.7c1.9,0.6,3.5,0.8,4.8,0.7c0.8,1.3,1.5,2.7,1.8,4.4c0.3,1.4,0.6,2.7,0.9,4c-4.7,11.1-3.1,18.8,12.9,22.1
		c0.1,0,0.2,0,0.3,0.1c0.2,0,0.5,0.1,0.7,0.1c2.8,1.8,6.1,3.6,10,5.5c0,0.2-0.1,0.3-0.1,0.5l-2.3-1.4c0,0-2,10.2-4.1,14
		c-0.1,0.2-0.2,0.4-0.4,0.7c0,0,0,0,0,0.1c-0.1,0.3-0.3,0.6-0.4,0.9c0,0,0,0,0,0.1c-0.1,0.3-0.3,0.7-0.4,1.1c0,0,0,0,0,0
		c-2.3,6.1-5.2,18.4-2.8,26.9l1.8,2.8c0,0,0.1,1.2,0.2,3c2.1,0.9,4.2,1.8,6.3,2.6c0.1-0.3,0.1-0.5,0.2-0.8c0-0.1,0-0.2,0.1-0.3
		c0.1-0.3,0.1-0.7,0.2-1.1c0-0.1,0-0.2,0.1-0.3c0.1-0.4,0.1-0.8,0.2-1.2c0-0.1,0-0.2,0-0.2c0-0.1,0-0.2,0-0.3c0,0,0.2,0,0.6,0
		c1.4,0.1,9.3,3.3,11.8,2.7c0,0,0.8,2.7,2,6c5.8,1.4,11.8,2.4,17.8,3.1c-1.7-0.4-3.7-0.7-5.8-1c0-0.1,0-0.3,0.1-0.4
		c0-0.2,0.1-0.4,0.1-0.6c0-0.3,0.1-0.5,0.1-0.8c0-0.2,0.1-0.4,0.1-0.7c0-0.3,0.1-0.6,0.1-0.9c0-0.2,0.1-0.5,0.1-0.7
		c0-0.3,0.1-0.7,0.1-1.1c0-0.2,0.1-0.4,0.1-0.7c0.1-0.6,0.1-1.2,0.2-1.8c0,0,4-1.3,5.3-6.2c0.3,6.9,1.1,11.8,2,15.3
		c0.8,0.1,1.5,0.2,2.3,0.2c-1.6-5.1-3.1-14.2-3.8-19.3C74.5,117.3,74,114.9,72.9,112z M11.4,41.5c-3.2-0.6-2.4-3.7-1.2-6.2
		c0.3,0.9,0.9,1.8,1.6,2.8c0,0.1,0.1,0.1,0.1,0.2c0.3,0.3,0.6,0.6,0.9,1c0.1,0.1,0.1,0.1,0.2,0.2c0.2,0.2,0.4,0.3,0.6,0.5
		c0.1,0.1,0.3,0.2,0.4,0.3c0,0,0.1,0,0.1,0.1c0.3,0.5,0.6,0.9,0.9,1.4C13.9,41.8,12.7,41.7,11.4,41.5z"/>
</g>
</svg>
