<?xml version="1.0" encoding="utf-8"?>
<!-- Generator: Adobe Illustrator 15.1.0, SVG Export Plug-In . SVG Version: 6.00 Build 0)  -->
<!DOCTYPE svg PUBLIC "-//W3C//DTD SVG 1.1//EN" "http://www.w3.org/Graphics/SVG/1.1/DTD/svg11.dtd">
<svg version="1.1" id="animals" xmlns="http://www.w3.org/2000/svg" xmlns:xlink="http://www.w3.org/1999/xlink" x="0px" y="0px"
	 width="108px" height="153px" viewBox="0 0 108 153" style="enable-background:new 0 0 108 153;" xml:space="preserve">
<style type="text/css">
<![CDATA[
	.st0{opacity:0.43;}
	.st1{fill:#D8A66F;stroke:#000000;stroke-miterlimit:10;}
	.st2{opacity:0.34;fill:#B28A5D;}
	.st3{fill:#F3FCFF;}
	.st4{fill:#F9D3AA;}
	.st5{fill:#FC8B96;}
	.st6{fill:#FCC581;}
	.st7{opacity:0.52;fill:#FF9999;}
	.st8{fill:#C99C6B;}
	.st9{opacity:0.2;}
	.st10{fill:#FFFFFF;}
	.st11{opacity:0.49;fill:#92DBFF;}
]]>
</style>
<g>
	<ellipse class="st0" cx="45.2" cy="139.8" rx="30.9" ry="6.8"/>
	<g>
		<path class="st3" d="M47.2,64.7c1-12-10-21.4-22.4-21.4c-0.5,0-0.8-0.9-0.9-2c-4.1,5.3-2.1,10.2,1.3,16.5
			c4.7,8.9,5,22.1,13.5,24.4C45.8,80.5,46.5,72.2,47.2,64.7z"/>
		<path d="M47.1,64.7c0.2-3.1-0.4-6.2-1.8-8.9c-1.4-2.7-3.4-5.1-5.8-7c-2.4-1.9-5.1-3.3-8-4.2c-1.4-0.5-2.9-0.8-4.5-1
			c-0.8-0.1-1.5-0.1-2.3-0.2c-0.1,0-0.1,0-0.2,0c-0.1,0-0.2-0.1-0.2-0.1c-0.1-0.1-0.2-0.2-0.3-0.3c-0.1-0.2-0.2-0.4-0.2-0.6
			c-0.1-0.4-0.2-0.8-0.2-1.2l0.3,0.1c-1.2,1.5-2.1,3.3-2.2,5.2c-0.2,1.9,0.3,3.8,1,5.6c0.7,1.8,1.6,3.5,2.6,5.2
			c1,1.7,1.7,3.5,2.4,5.3c1.4,3.7,2.3,7.4,3.8,11c0.7,1.8,1.6,3.5,2.8,4.9c1.2,1.5,2.7,2.6,4.5,3.1h0l-0.3,0
			c1.6-0.3,3.2-1.1,4.3-2.3c1.2-1.2,1.9-2.8,2.5-4.4c0.6-1.6,0.9-3.4,1.1-5.1C46.8,68.2,46.9,66.4,47.1,64.7z M47.2,64.7
			c-0.3,3.5-0.6,7-1.5,10.3c-0.5,1.7-1.2,3.3-2.4,4.7c-1.1,1.4-2.8,2.4-4.5,2.9l-0.1,0l-0.1,0l0,0c-2-0.5-3.8-1.8-5-3.4
			c-1.3-1.6-2.1-3.4-2.9-5.2c-1.4-3.7-2.4-7.4-3.7-11.1c-0.6-1.8-1.3-3.6-2.2-5.3c-0.9-1.7-1.7-3.5-2.4-5.3
			c-0.6-1.8-1.1-3.8-0.9-5.8c0.2-2,1.1-3.8,2.3-5.4l0.3-0.4l0.1,0.5c0,0.4,0.1,0.8,0.2,1.1c0.1,0.3,0.3,0.7,0.5,0.6
			c0.8,0,1.6,0,2.3,0.1c1.6,0.1,3.1,0.4,4.6,0.8c1.5,0.4,3,1,4.4,1.7c1.4,0.7,2.7,1.6,3.9,2.6c2.4,2,4.4,4.6,5.6,7.4
			C47,58.5,47.5,61.6,47.2,64.7z"/>
	</g>
	<path class="st5" d="M49.1,63.8c1-12-10-21.4-22.4-21.4c-0.5,0-0.8-0.9-0.9-2c-4.1,5.3-2.1,10.2,1.3,16.5c4.7,8.9,5,22.1,13.5,24.4
		C47.7,79.5,48.4,71.3,49.1,63.8z"/>
	<path class="st1" d="M37.2,74.2c0,0,5.3,4.2,5.1,7.4c-0.2,3.1,7.8-1.5,7.8-1.5l3-7.8L37.2,74.2z"/>
	<g>
		<path class="st4" d="M76,55c0,12.1,0,22.9-29.9,21.8C18.9,75.9,16.6,68,22.7,55c5.2-11.1,6.9-21.9,23.4-21.9S76,42.9,76,55z"/>
		<g>
			<path d="M76,55c0,3.4,0.1,6.8-0.7,10.1c-0.4,1.7-1,3.3-2,4.7c-1,1.4-2.3,2.6-3.7,3.6c-2.9,1.9-6.3,2.8-9.7,3.3
				c-3.4,0.5-6.8,0.7-10.2,0.6c-3.4,0-6.8-0.2-10.1-0.6c-3.4-0.4-6.7-0.9-10-1.8c-1.6-0.5-3.2-1.1-4.7-1.9c-1.5-0.8-2.9-1.9-3.9-3.3
				c-1-1.4-1.4-3.2-1.5-4.9c0-1.7,0.3-3.4,0.8-5.1c0.5-1.6,1.1-3.2,1.8-4.8c0.7-1.5,1.4-3.1,2-4.6c1.3-3.1,2.5-6.3,4.4-9.2
				c0.9-1.4,2-2.8,3.3-4c1.3-1.2,2.8-2.1,4.4-2.8c3.2-1.4,6.7-1.8,10.1-1.7c6.8,0.1,13.7,1.8,19.4,5.6c2.8,1.9,5.4,4.3,7.2,7.1
				C75,48.2,76.1,51.6,76,55z M75.9,55c0-3.4-1.1-6.7-3.1-9.4c-1.9-2.8-4.5-5-7.3-6.7c-5.7-3.5-12.4-5.1-19.1-5.1
				c-3.3,0-6.7,0.4-9.7,1.7c-3,1.3-5.5,3.6-7.3,6.4c-1.8,2.8-3.1,5.9-4.5,9c-1.3,3.1-3,6.1-4,9.3c-0.5,1.6-0.9,3.2-0.9,4.9
				c0,1.7,0.4,3.3,1.3,4.7c0.9,1.4,2.3,2.4,3.7,3.2c1.5,0.8,3.1,1.4,4.7,1.8c3.2,0.9,6.6,1.3,9.9,1.6c3.4,0.3,6.7,0.3,10.1,0.3
				c3.4,0,6.7-0.2,10-0.7c3.3-0.5,6.6-1.3,9.5-3c1.4-0.8,2.7-1.9,3.7-3.3c1-1.3,1.7-2.9,2.1-4.5C75.9,61.8,75.9,58.4,75.9,55z"/>
		</g>
	</g>
	<g>
		<path class="st6" d="M37.3,58.6c-0.1-0.5-0.3-1-0.7-1.7C36.9,57.5,37.1,58,37.3,58.6z"/>
		<g>
			<path d="M37.4,58.6L37.4,58.6c-0.3-0.1-0.4-0.2-0.5-0.3c-0.1-0.1-0.2-0.2-0.2-0.4c0-0.2,0.1-0.4,0.1-0.5c0-0.2-0.1-0.3-0.3-0.4
				l0.5-0.2c0.1,0.1,0.3,0.2,0.3,0.3c0.1,0.1,0.2,0.2,0.2,0.4C37.5,57.8,37.6,58.1,37.4,58.6L37.4,58.6z M37.3,58.6
				c-0.4-0.1-0.6-0.4-0.8-0.7c-0.1-0.3-0.2-0.6-0.1-1l0.6-2.5l-0.1,2.3c0,0.2,0,0.3,0.1,0.5c0.1,0.1,0.3,0.2,0.4,0.3
				c0.1,0.1,0.1,0.3,0.1,0.5C37.6,58.2,37.5,58.3,37.3,58.6L37.3,58.6L37.3,58.6z"/>
		</g>
	</g>
	<path class="st2" d="M76,55c0-12.1-13.4-21.8-29.9-21.8c-4.9,0-8.5,1-11.3,2.6c0.1,0.2,0.3,0.5,0.4,0.8c-5.3,3-8.3,8.3-10.6,13.3
		c1.7,6.6,11.2,5.6,12.1,12.8c0-1.3,0-2.1-0.3-3.1c-0.2-0.5-0.5-1.1-0.7-1.7c0.3,0.6,0.5,1.2,0.7,1.7c1.1,2.4,2.7,4.5,4.4,6.3
		c-0.8,2.3-2.2,4.5-4.2,6.3c-3.1,2.6-7.1,2.1-11.3,0.9c4.1,2.1,10.7,3.4,20.7,3.8c0.8,0,1.5,0,2.3,0.1c0,0.3,0,0.6,0,1
		c12.9,0.1,19.5-2.3,23-6.1C76,67.6,76,61.5,76,55z"/>
	<path d="M76,55c0-12.1-13.4-21.8-29.9-21.8c-12.2,0-17.2,8.2-20.6,15.7c1.7,6.6,11.2,5.6,12.1,12.8c0-1.3,0-2.1-0.3-3.1
		c-0.2-0.5-0.5-1.1-0.7-1.7c0.3,0.6,0.5,1.2,0.7,1.7c2.2,4.8,6.4,8.2,9.8,11.7c0.8,1.7,2.4,4.1,2.1,6.7C76,77.1,76,66.6,76,55z"/>
	<g>
		<path class="st3" d="M43.6,39.6c0,0-18.8-22.4-7.5-29.7c11.3-7.3,13.2,28.6,13.2,28.6S47.8,41.5,43.6,39.6z"/>
		<path d="M43.5,39.6c-3.9-4.3-7.3-9.2-9.6-14.7c-0.6-1.4-1-2.8-1.3-4.2c-0.3-1.4-0.5-2.9-0.4-4.4c0.1-1.5,0.5-3,1.3-4.2
			c0.8-1.3,2-2.2,3.3-2.9c0.7-0.3,1.4-0.5,2.2-0.5c0.8,0,1.6,0.3,2.2,0.7c1.3,0.8,2.2,2.1,3,3.4c1.5,2.6,2.3,5.5,3,8.3
			c1.4,5.7,2,11.6,2.2,17.4l0,0.1l0,0.1c-0.3,0.5-0.7,0.9-1.2,1.2c-0.5,0.3-1.1,0.5-1.6,0.5C45.6,40.5,44.5,40.1,43.5,39.6
			L43.5,39.6L43.5,39.6z M43.6,39.6c1,0.4,2.1,0.6,3.1,0.5c0.5-0.1,1-0.3,1.4-0.6c0.4-0.3,0.8-0.7,1-1.1l0,0.2
			c-0.3-2.9-0.6-5.8-1.1-8.7c-0.4-2.9-0.9-5.7-1.6-8.6c-0.6-2.8-1.5-5.6-2.8-8.2c-0.7-1.3-1.5-2.5-2.6-3.3C39.9,9,38.4,9,37.1,9.6
			c-1.3,0.6-2.5,1.5-3.3,2.7c-0.8,1.2-1.1,2.6-1.2,4.1c0,2.9,1,5.7,2.1,8.3c1.2,2.6,2.5,5.2,4,7.7C40.3,34.8,41.9,37.2,43.6,39.6z"
			/>
	</g>
	<path class="st11" d="M36.1,9.9c-0.9,0.6-1.6,1.3-2.1,2c2.5-1.1,5.2-1.2,6.6,0.1c3.8,3.8,2.9,10.5,3.8,15.3
		c-3.2-2.4-5.7-0.8-8.6,0.3c3.3,6.4,7.9,12,7.9,12c4.2,1.9,5.7-1.1,5.7-1.1S47.4,2.6,36.1,9.9z"/>
	<g>
		<path class="st10" d="M26.5,44.9c-0.8-2-3.8-0.3-3.8-0.3c0,0-0.1,0-0.2,0c-0.4,2.1-0.5,4.5,0,6.8c1.8,0.5,3.9,0.2,3.9,0.2
			S27.3,46.9,26.5,44.9z"/>
		<path d="M26.4,44.9c-0.1-0.3-0.4-0.6-0.7-0.7c-0.3-0.1-0.7-0.1-1,0c-0.3,0.1-0.6,0.2-0.9,0.4c-0.3,0.1-0.6,0.3-0.9,0.5l-0.3,0.2
			l-0.2-0.2c0,0,0,0,0.1,0l-0.1,0l0.6-0.3c-0.2,1.1-0.5,2.2-0.6,3.3c-0.1,1.1,0.1,2.3,0.5,3.3L22.7,51c0.6,0.1,1.2,0.1,1.9,0.1
			c0.6,0,1.3,0,1.9-0.1L26,51.4c0.2-1.1,0.3-2.2,0.4-3.3C26.6,47.1,26.8,45.9,26.4,44.9z M26.5,44.8c0.2,0.5,0.3,1.1,0.4,1.7
			c0.1,0.6,0.2,1.1,0.3,1.7c0.1,1.2,0,2.3-0.2,3.4L26.9,52l-0.4,0c-0.7,0-1.4,0-2,0c-0.7-0.1-1.3-0.2-2-0.4l-0.2-0.1l0-0.2
			c-0.1-1.2-0.1-2.3-0.2-3.5c-0.1-1.1-0.2-2.3,0.1-3.5l0.1-0.3l0.5,0c0,0,0,0,0,0c0.1,0,0.1,0,0.2,0.1l-0.4,0
			c0.4-0.2,0.7-0.3,1.1-0.4c0.4-0.1,0.8-0.1,1.2-0.1c0.4,0,0.8,0.1,1.1,0.3C26.2,44.2,26.4,44.5,26.5,44.8z"/>
	</g>
	<g>
		<path class="st10" d="M22.6,44.5c-0.9-0.3-2.4,1.1-2.3,4.4c0,1.4,1.1,2.1,2.3,2.4C22.1,49,22.2,46.6,22.6,44.5z"/>
		<path d="M22.5,44.6c-0.3,0-0.6,0.2-0.8,0.5c-0.2,0.3-0.4,0.6-0.5,0.9c-0.3,0.6-0.4,1.3-0.6,2c-0.1,0.4-0.2,0.7-0.2,1.1
			c0,0.3,0.1,0.7,0.3,1c0.5,0.6,1.2,0.8,1.9,0.9l-0.5,0.5c-0.3-1.1-0.5-2.3-0.5-3.5c0-0.6,0.1-1.2,0.2-1.7
			C22.1,45.6,22.3,45.1,22.5,44.6z M22.6,44.5l0.1,3.4c0.1,1.1,0.1,2.2,0.3,3.3l0.1,0.7l-0.6-0.2c-0.8-0.3-1.5-0.8-1.9-1.5
			c-0.2-0.3-0.4-0.7-0.4-1.1C20,48.7,20,48.3,20,47.9c-0.1-0.8,0.1-1.6,0.5-2.4c0.2-0.4,0.5-0.7,0.9-0.9
			C21.7,44.4,22.2,44.2,22.6,44.5L22.6,44.5z"/>
	</g>
	<path class="st9" d="M26.5,44.9c-0.8-2-3.8-0.3-3.8-0.3c0,0-0.1,0-0.2,0c-0.1,0.5-0.2,1.1-0.2,1.7c1.8,1.1,2.5,3.2,1.7,5.4
		c1.3,0.1,2.5,0,2.5,0S27.3,46.9,26.5,44.9z"/>
	<g>
		<path class="st3" d="M39.6,85.3c0,0-10.1,15.1-14.5,15.6c-4.4,0.5,2.7,6.8,16.1,0L39.6,85.3z"/>
		<path d="M39.6,85.5c-1.7,3-3.7,5.8-5.9,8.5c-1.1,1.4-2.3,2.7-3.6,3.9c-1.3,1.2-2.7,2.4-4.4,3c-0.4,0.2-0.9,0.1-1.3,0.3
			c-0.4,0.1-0.7,0.4-0.5,0.8c0.4,0.7,1.3,1.1,2.1,1.3c1.7,0.5,3.4,0.5,5.1,0.3c3.4-0.4,6.7-1.6,9.8-3.2l-0.3,0.5
			c-0.3-2.6-0.5-5.2-0.6-7.8C39.8,90.6,39.6,88,39.6,85.5z M39.6,85.3c0.4,2.6,0.8,5.2,1.1,7.8s0.6,5.2,0.9,7.8l0,0.4l-0.3,0.2
			c-3.2,1.6-6.6,2.8-10.2,3c-1.8,0.1-3.6-0.1-5.3-0.7c-0.4-0.2-0.8-0.3-1.2-0.6c-0.4-0.2-0.8-0.5-1-1c-0.1-0.2-0.1-0.5,0-0.8
			c0.2-0.2,0.4-0.4,0.6-0.4c0.5-0.2,0.9-0.1,1.3-0.3c0.8-0.3,1.5-0.8,2.1-1.4c0.6-0.6,1.3-1.2,1.8-1.8c1.2-1.3,2.3-2.6,3.4-3.9
			C35.2,90.8,37.4,88,39.6,85.3l0-0.1L39.6,85.3z"/>
	</g>
	<path class="st11" d="M41.1,100.9l-1.6-15.6c0,0-3.2,4.7-6.7,9c-0.4,4.3-3.5,7.4-7.4,9C28,104.4,33.6,104.7,41.1,100.9z"/>
	<path class="st9" d="M20.9,45.6c0.5,0.1,1,0.3,1.4,0.6c0.1-0.6,0.1-1.1,0.2-1.7C22.1,44.3,21.4,44.7,20.9,45.6z"/>
	<g>
		<path class="st3" d="M49.6,28.5C35,27.8,27.4,34.2,22.2,40.1c-0.8,0-1.7,0.8-2.1,2c-0.5,1.4-0.1,2.8,0.8,3.1
			c0.8,0.3,1.7-0.3,2.3-1.2c0.7,1.6,3.1,3.1,6.2,3.5c1.7,0.2,3.3,0.1,4.6-0.3c5.8,4.4,7.2,4.3,11.6,18.4c1.8,5.7-5,14.2-5.9,14.4
			c0,0-2.2,1.3-0.9,2.4c-0.5,2.6-2.5,7.7-3.6,10.4c-1.9,4.8-6.8,15.1-3.1,28.3c0,0-7.8,31.5,10.7,7c0.1-0.2,0.3-0.4,0.4-0.6l4.2,1
			c0,0,17.2,34.6,12.9,0.5c0,0,9.7-7.3,5.5-21.7c-2.5-8.7-3.7-15.4-4.2-19.3c0,0,0.1,0,0.1,0c-1.3-0.2-2.6,0.2-3.9,1.5
			c1.3-1.3,2.6-1.7,3.9-1.5c15-1.5,17.2-9.3,21.7-24C86.3,53.8,77,29.8,49.6,28.5z M34.8,121.7c2.9,5.7,9.5,4.8,14.3,6.7
			C44.3,126.5,37.6,127.5,34.8,121.7z"/>
		<g>
			<path d="M49.6,28.6C44.4,28.3,39.2,29,34.5,31c-2.4,1-4.6,2.3-6.6,3.9c-2,1.6-3.8,3.4-5.5,5.3l-0.1,0.1l-0.1,0
				c-0.7,0.1-1.3,0.6-1.6,1.2c-0.3,0.6-0.5,1.4-0.4,2.1c0.1,0.7,0.5,1.4,1.2,1.3c0.6,0,1.2-0.6,1.6-1.2l0.3-0.5l0.2,0.5
				c0.4,0.8,1.1,1.5,2,2c0.8,0.5,1.8,0.8,2.7,1c0.9,0.2,1.9,0.3,2.9,0.3c1,0,1.9-0.2,2.8-0.4l0.2-0.1l0.2,0.1c1.3,1,2.6,1.9,3.9,2.9
				c1.3,1,2.4,2.3,3.2,3.7c1.7,2.8,2.7,5.9,3.7,9l0.7,2.3c0.3,0.7,0.5,1.6,0.5,2.5c0,1.7-0.4,3.3-1,4.9c-0.6,1.5-1.4,3-2.2,4.4
				c-0.4,0.7-0.9,1.4-1.4,2c-0.3,0.3-0.5,0.6-0.8,0.9c-0.1,0.2-0.3,0.3-0.5,0.4c-0.2,0.1-0.3,0.3-0.7,0.4l0.1-0.1
				c-0.4,0.2-0.8,0.6-1,0.9c-0.2,0.4-0.2,0.6,0.1,0.9l0.2,0.1l0,0.2c-0.3,1.7-0.9,3.3-1.5,4.9c-0.6,1.6-1.2,3.1-1.8,4.7
				c-1.3,3.1-2.6,6.1-3.5,9.4c-0.9,3.2-1.4,6.5-1.5,9.8c0,3.3,0.4,6.7,1.3,9.9l0,0l0,0c-0.6,2.6-1.1,5.2-1.4,7.9
				c-0.1,1.3-0.2,2.7-0.2,4c0,0.7,0.1,1.3,0.2,2c0.1,0.6,0.3,1.3,0.7,1.7c0.4,0.5,1.1,0.6,1.7,0.4c0.6-0.2,1.2-0.5,1.7-0.9
				c1.1-0.8,2-1.7,3-2.7c1.8-1.9,3.5-4.1,5.1-6.2l0.1-0.1l0.2,0l4.2,0.9l0.1,0l0.1,0.1c1.3,2.6,2.8,5.2,4.4,7.7
				c0.8,1.3,1.6,2.5,2.5,3.7c0.9,1.2,1.8,2.3,2.9,3.2c0.5,0.4,1.2,0.8,1.7,0.6c0.5-0.1,0.9-0.8,1-1.5c0.4-1.4,0.4-2.9,0.4-4.3
				c0-2.9-0.4-5.9-0.7-8.8l0-0.2l0.2-0.2c2.6-2.3,4.6-5.4,5.6-8.8c1-3.4,1-7.1,0.2-10.5c-0.4-1.7-1-3.5-1.4-5.2
				c-0.5-1.8-0.9-3.5-1.3-5.3c-0.8-3.5-1.5-7.1-2-10.7l-0.1-0.5l0.5-0.1l0.1,0l0,1c-0.6-0.1-1.3,0-1.9,0.3c-0.6,0.2-1.1,0.7-1.6,1.1
				l-0.7-0.7c0.5-0.5,1.2-1,1.9-1.3c0.7-0.3,1.6-0.4,2.4-0.3l-0.1,0c3.7-0.4,7.4-1.2,10.5-3.2c3.1-1.9,5.2-5.1,6.7-8.5
				c1.5-3.4,2.6-7,3.7-10.6c1.3-3.5,1.1-7.3,0.3-10.9c-1.7-7.2-6.2-13.8-12.1-18.3C64.6,31.2,57.1,28.9,49.6,28.6z M49.6,28.5
				c3.8,0.2,7.5,0.8,11.1,2c3.6,1.2,7,2.9,10.1,5.1c6.1,4.5,10.7,11,12.6,18.4c0.5,1.8,0.8,3.7,0.8,5.7c0,1-0.1,1.9-0.2,2.9
				c-0.2,1-0.5,1.9-0.7,2.8c-1.1,3.6-2.1,7.2-3.7,10.7c-0.8,1.7-1.7,3.5-2.8,5c-1.2,1.6-2.6,2.9-4.2,4c-3.3,2.1-7.2,2.9-10.9,3.3
				l-0.1,0l-0.1,0c-0.6-0.1-1.3,0-1.9,0.3c-0.6,0.2-1.1,0.7-1.6,1.1l-0.7-0.7c0.5-0.5,1.2-1,1.9-1.4c0.7-0.3,1.6-0.4,2.4-0.3l4,0.5
				l-4,0.5l-0.1,0l0.5-0.6c0.5,3.6,1.2,7.1,2,10.6c0.4,1.8,0.8,3.5,1.3,5.3c0.4,1.8,1,3.5,1.4,5.3c0.8,3.6,0.8,7.4-0.3,11
				c-1.1,3.6-3,6.8-5.9,9.3l0.2-0.4c0.4,3,0.6,5.9,0.6,8.9c0,1.5-0.1,3-0.5,4.5c-0.1,0.4-0.3,0.8-0.5,1.1c-0.2,0.4-0.6,0.7-1.1,0.8
				c-0.5,0.1-0.9,0-1.3-0.2c-0.4-0.2-0.7-0.4-1-0.6c-1.2-1-2.1-2.2-3-3.4c-0.9-1.2-1.7-2.5-2.5-3.7c-1.6-2.5-3-5.2-4.3-7.8l0.2,0.1
				l-4.2-1l0.2-0.1c-1.6,2.1-3.3,4.3-5.2,6.2c-0.9,1-1.9,1.9-3,2.7c-0.6,0.4-1.2,0.7-1.9,0.9c-0.7,0.2-1.6,0.1-2-0.5
				c-0.5-0.6-0.7-1.3-0.8-1.9c-0.1-0.7-0.2-1.4-0.2-2c0-1.4,0.1-2.7,0.2-4c0.3-2.7,0.8-5.3,1.4-7.9l0,0.1c-0.9-3.2-1.4-6.6-1.4-10
				c0-3.4,0.5-6.7,1.4-10c0.8-3.3,2.2-6.4,3.4-9.5c0.6-1.6,1.2-3.1,1.8-4.7c0.5-1.6,1.1-3.2,1.4-4.7l0.1,0.4
				c-0.2-0.2-0.5-0.5-0.5-0.9c-0.1-0.4,0.1-0.7,0.2-1c0.3-0.5,0.8-0.9,1.2-1.2l-0.1,0l0.2-0.1c0,0,0.2-0.1,0.3-0.2
				c0.1-0.1,0.3-0.3,0.4-0.4c0.3-0.3,0.5-0.6,0.8-0.9c0.5-0.6,0.9-1.3,1.4-1.9c0.8-1.3,1.6-2.7,2.1-4.2c0.6-1.5,0.9-3,0.9-4.5
				c0-0.8-0.2-1.5-0.5-2.2l-0.7-2.3c-1-3-2-6.1-3.6-8.8c-0.8-1.4-1.8-2.5-3-3.6c-1.2-1-2.5-1.9-3.8-2.9l0.3,0.1
				c-1,0.3-2,0.4-3.1,0.4c-1,0-2-0.1-3.1-0.4c-1-0.3-2-0.6-2.9-1.2c-0.9-0.5-1.7-1.2-2.2-2.3l0.5,0c-0.4,0.7-1.1,1.4-2,1.4
				c-0.5,0-0.9-0.2-1.2-0.6c-0.3-0.4-0.4-0.8-0.5-1.2c-0.1-0.8,0.1-1.7,0.5-2.4c0.4-0.7,1.1-1.4,2-1.4L22,39.9
				c1.7-1.9,3.6-3.7,5.7-5.3c2.1-1.6,4.3-2.9,6.7-3.9C39.2,28.8,44.4,28.2,49.6,28.5z"/>
			<path d="M34.8,121.7c0.6,1.2,1.6,2.2,2.8,2.9c1.2,0.6,2.4,1.1,3.7,1.5c1.3,0.4,2.6,0.8,3.9,1.1c1.3,0.3,2.7,0.5,4,1l-0.2,0.5
				c-2.6-0.8-5.3-0.9-8-1.7c-1.3-0.4-2.7-1-3.8-1.9C36.1,124.2,35.3,123,34.8,121.7L34.8,121.7z M34.8,121.7
				c0.6,1.2,1.6,2.2,2.8,2.8c1.2,0.6,2.4,1.1,3.7,1.4c1.3,0.3,2.6,0.6,4,0.9c1.3,0.3,2.7,0.7,4,1.3l-0.2,0.5
				c-1.2-0.6-2.5-0.9-3.9-1.2c-1.3-0.2-2.7-0.3-4.1-0.6c-1.4-0.3-2.7-0.9-3.8-1.8C36.1,124.2,35.3,123,34.8,121.7L34.8,121.7z"/>
		</g>
	</g>
	<path class="st11" d="M38.6,125.5C38.6,125.5,38.6,125.5,38.6,125.5c-2.9,3.8-1.9,9.6-6.7,11.5c-0.1,0-0.1,0-0.2,0
		c1.6,0.9,4.9-1.2,10.9-9.1c0.1-0.1,0.5-0.8,0.6-0.9c-1.3-0.2-2.8-0.4-3.6-1C39.3,125.9,38.9,125.7,38.6,125.5z"/>
	<path class="st11" d="M49.6,28.5c-2.6-0.1-5,0-7.1,0.3c4.8,1.4,8.9,4.3,12.3,7.1c1.9,1-1,5.7,1,8.6c4.8,4.8,11.4,6.7,18.1,3.8
		c6.7,16.2-1.9,30.5-16.2,39.1c-5.7,2.9,7.6,12.4,0,15.3c-2.9,1-5.9-3.6-8.7-7.5c-1.9,12.4,12.5,17,10.6,28.4c0,1-2.9,2.9-5.7,3.8
		c4.3,3.6,4.8,10.4,1.2,13.6c3.9,4.7,7.3,5.2,5.1-12.2c0,0,9.7-7.3,5.5-21.7c-2.5-8.7-3.7-15.4-4.2-19.3c0,0,0.1,0,0.1,0
		c-1.3-0.2-2.6,0.2-3.9,1.5c1.3-1.3,2.6-1.7,3.9-1.5c15-1.5,17.2-9.3,21.7-24C86.3,53.8,77,29.8,49.6,28.5z"/>
	<g>
		<path class="st5" d="M38.6,113.2c2.7-9.1,3.7-19.9-0.3-29.2c-0.8,2.7-2.3,6.5-3.2,8.7c-1.7,4.1-5.6,12.5-4.2,23.1
			C34.3,117,37.6,116.6,38.6,113.2z"/>
		<g>
			<path d="M38.5,113.1c1.5-4.8,1.9-9.8,2-14.7c0-2.5-0.1-4.9-0.4-7.4c-0.3-2.4-1-4.8-2-7.1l0.3,0c-0.8,2.7-1.7,5.3-2.7,7.8
				c-1,2.6-2,5.1-2.8,7.7c-1.6,5.2-2.2,10.7-1.7,16.1l-0.2-0.3c1.4,0.6,2.9,0.9,4.4,0.7c0.7-0.1,1.5-0.5,2-1
				C37.9,114.6,38.3,113.9,38.5,113.1z M38.6,113.2c-0.2,0.8-0.6,1.5-1.1,2.1c-0.5,0.6-1.3,1-2,1.2c-1.6,0.4-3.2,0.1-4.7-0.3
				l-0.2-0.1l0-0.2c-0.5-2.7-0.6-5.6-0.3-8.3c0.3-2.8,0.9-5.5,1.8-8.2c1.7-5.3,4.5-10.1,6.1-15.4l0.1-0.4l0.2,0.4
				c1,2.3,1.7,4.7,2.3,7.1s0.8,5,0.7,7.5c0,2.5-0.4,5-0.9,7.4C40,108.4,39.3,110.8,38.6,113.2z"/>
		</g>
	</g>
	<g>
		<path class="st3" d="M58.1,41.7c0,0,14.9-38.1,30-30.3c15.1,7.8-9.1,32.8-17.6,35.3C70.4,46.7,61.8,50.2,58.1,41.7z"/>
		<path d="M58,41.6c2.7-7.3,6.2-14.3,10.7-20.7c2.3-3.2,4.9-6.1,8.2-8.3c1.6-1.1,3.4-2,5.4-2.3c2-0.3,4,0,5.8,0.9
			c1.7,0.9,3.4,2.2,4.3,4c0.9,1.8,1,3.9,0.7,5.9c-0.7,3.9-2.7,7.5-4.9,10.7c-2.3,3.2-4.9,6.1-7.8,8.8c-1.4,1.3-3,2.6-4.6,3.7
			c-1.6,1.1-3.3,2.2-5.3,2.8l0,0c-1.2,0.4-2.5,0.7-3.8,0.7c-1.3,0-2.6-0.2-3.8-0.6c-1.2-0.5-2.3-1.2-3.1-2.2
			C59.1,44,58.5,42.8,58,41.6L58,41.6L58,41.6z M58.1,41.7c0.5,1.1,1.2,2.2,2.1,3c0.9,0.9,1.9,1.5,3,1.9c1.1,0.4,2.3,0.5,3.5,0.4
			c1.2-0.1,2.4-0.3,3.5-0.8l0,0l0,0c1.8-0.6,3.4-1.7,4.9-2.8c1.5-1.1,3-2.4,4.4-3.7c1.4-1.3,2.8-2.7,4-4.1c1.3-1.4,2.5-2.9,3.6-4.5
			c1.1-1.6,2.2-3.2,3-4.9c0.9-1.7,1.6-3.5,2-5.3c0.4-1.8,0.4-3.8-0.4-5.5c-0.8-1.7-2.3-3.1-4-3.9c-1.7-0.9-3.7-1.3-5.5-0.9
			c-1.9,0.3-3.6,1.2-5.2,2.4c-3.1,2.3-5.5,5.3-7.8,8.4c-2.2,3.1-4.3,6.4-6.1,9.8C61.5,34.7,59.7,38.1,58.1,41.7z"/>
	</g>
	<path class="st11" d="M88.1,11.4c-3.1-1.6-6.2-1.3-9.1,0.3c3.1,0.2,5.9,1.7,6.4,4.2c1.8,13.8-12.3,30.3-27,26.3
		c3.8,8,12.1,4.5,12.1,4.5C78.9,44.1,103.1,19.2,88.1,11.4z"/>
	<g>
		<path class="st5" d="M58.4,42.3c0,0,18.9-30,23.6-22.2c4.7,7.8-14.1,25.5-18.9,26.6C63.1,46.6,59.2,46.4,58.4,42.3z"/>
		<path d="M58.3,42.2c2.9-5.1,6.2-9.9,9.8-14.5c1.9-2.3,3.9-4.4,6.1-6.3c1.1-0.9,2.3-1.8,3.7-2.5c0.7-0.3,1.4-0.5,2.2-0.4
			c0.8,0.1,1.5,0.6,1.9,1.2c0.8,1.3,1,2.9,0.8,4.3c-0.2,1.5-0.7,2.9-1.3,4.3c-1.3,2.7-3,5.1-4.8,7.4c-1.9,2.3-3.9,4.4-6.1,6.3
			c-1.1,1-2.2,1.9-3.4,2.8c-1.2,0.8-2.4,1.7-4,2.1l-0.1,0L63,47c-0.6-0.1-1.2-0.3-1.7-0.6c-0.5-0.3-1-0.6-1.5-1
			C59,44.6,58.5,43.4,58.3,42.2L58.3,42.2L58.3,42.2z M58.4,42.3c0.3,1.1,0.9,2.1,1.7,2.8c0.4,0.4,0.9,0.6,1.4,0.8
			c0.5,0.2,1.1,0.3,1.5,0.4l-0.1,0c1.3-0.4,2.5-1.3,3.6-2.1c1.1-0.9,2.2-1.8,3.3-2.8c2.1-1.9,4.1-4,6-6.2c1.9-2.2,3.6-4.5,4.9-7.1
			c0.7-1.3,1.2-2.6,1.5-4c0.3-1.4,0.2-2.9-0.6-4.1c-0.4-0.6-0.9-1-1.6-1.1c-0.7-0.1-1.4,0.1-2,0.4c-1.3,0.6-2.4,1.5-3.5,2.5
			c-2.1,2-3.9,4.2-5.8,6.5C65.2,32.8,61.8,37.6,58.4,42.3z"/>
	</g>
	<path d="M25.2,40.8c0,1.3-0.9,3.3-2.1,3.3S21,42.1,21,40.8c0-1.3,0.9-1.3,2.1-1.3S25.2,39.5,25.2,40.8z"/>
	<g>
		<path d="M37.1,38.7c-0.4,1-1,1.9-1.9,1.5s-1.5-1.5-1.1-2.4s1.5-1.5,2.4-1.1C37.5,37,37.5,37.7,37.1,38.7z"/>
		<path class="st10" d="M35,38.1c-0.1,0.2-0.2,0.3-0.4,0.3c-0.2-0.1-0.3-0.3-0.2-0.5s0.3-0.3,0.5-0.2C35.1,37.7,35.1,37.9,35,38.1z"
			/>
	</g>
	<g>
		<path d="M25,37.9c-0.5,0.6-1,1.1-1.3,0.8s-0.2-0.9,0.3-1.5c0.5-0.6,1.1-0.8,1.4-0.5C25.7,36.9,25.4,37.3,25,37.9z"/>
		<path class="st10" d="M24.3,37.4c-0.1,0.1-0.2,0.2-0.3,0.2c-0.1,0,0-0.2,0.1-0.3c0.1-0.1,0.2-0.1,0.3-0.1S24.3,37.3,24.3,37.4z"/>
	</g>
	<ellipse class="st10" cx="21.9" cy="40.3" rx="0.6" ry="0.3"/>
	<g>
		<path class="st5" d="M67.5,114.2c-1.1,0-2.1,0.3-3,0.8c0.3,2.6-0.2,4.8-1.7,6.6c1,1.4,2.7,2.3,4.7,2.3c3.1,0,5.5-2.2,5.5-4.8
			C73,116.4,70.6,114.2,67.5,114.2z"/>
		<path d="M67.5,114.3c-0.5,0-1,0.1-1.5,0.2c-0.5,0.2-0.9,0.4-1.4,0.7l0.1-0.2c0.3,1.2,0.4,2.4,0.1,3.6c-0.3,1.2-0.9,2.3-1.8,3.2
			l0-0.3c0.9,1.5,2.8,2.3,4.5,2.1c1.7-0.1,3.4-1,4.3-2.3c0.4-0.7,0.7-1.5,0.7-2.2c0-0.8-0.2-1.6-0.7-2.3
			C71,115.4,69.3,114.3,67.5,114.3z M67.5,114.2c1.8,0,3.8,0.5,5.1,2.1c0.6,0.8,1,1.8,1,2.8c0,1-0.3,2-0.9,2.8
			c-1.2,1.6-3.2,2.4-5.1,2.3c-1.9-0.1-3.7-0.9-4.9-2.3l-0.1-0.1l0.1-0.2c0.7-0.9,1-2,1.3-3.1c0.2-1.1,0.4-2.2,0.3-3.4l0-0.2l0.1-0.1
			c0.5-0.2,1-0.4,1.5-0.5C66.4,114.2,67,114.2,67.5,114.2z"/>
	</g>
	<path class="st9" d="M72,121.7c-6,4.3-5.1-3.6-5.5-7.4c-0.7,0.1-1.4,0.3-2,0.7c0.3,2.6-0.2,4.8-1.7,6.6c1,1.4,2.7,2.3,4.7,2.3
		c2.2,0,4.1-1.1,5-2.7C72.3,121.4,72.1,121.6,72,121.7z"/>
	<g>
		<path class="st3" d="M57.7,92.1c0,0,17.2,38.8-9.1,2.7"/>
		<path d="M57.7,92.1c1.5,3,2.9,6.1,4.1,9.3c0.6,1.6,1.1,3.2,1.5,4.8c0.2,0.8,0.4,1.7,0.4,2.6c0,0.5,0,1-0.4,1.5
			c-0.3,0.3-0.7,0.4-1,0.3c-0.3,0-0.5-0.1-0.8-0.2c-0.9-0.4-1.5-1-2.1-1.6c-0.6-0.6-1.2-1.2-1.8-1.8c-1.1-1.3-2.2-2.6-3.2-3.9
			c-2-2.7-4-5.4-5.8-8.3l3.2,3.9c1.1,1.3,2.1,2.6,3.2,3.9c1.1,1.3,2.2,2.6,3.3,3.8c0.6,0.6,1.1,1.2,1.7,1.8c0.6,0.5,1.2,1.1,1.9,1.4
			c0.2,0.1,0.3,0.1,0.4,0.2c0.1,0,0.1,0,0.2,0c0.1-0.1,0.2-0.5,0.2-0.8c0-0.8-0.2-1.6-0.3-2.4c-0.3-1.6-0.9-3.2-1.3-4.8
			c-0.5-1.6-1.1-3.2-1.6-4.8C58.9,95.3,58.3,93.7,57.7,92.1z"/>
	</g>
	<path d="M34,64.6c-0.2,0.8-0.7,0.8-1.7,0.5c-1-0.3-2.1-0.9-1.8-1.7c0.2-0.8,1.2-1.2,2.2-0.8C33.6,63,34.2,63.9,34,64.6z"/>
	<g>
		<path class="st8" d="M20.7,65.9c0.4-1.4,0.8-2.4,4.1-1.6c1.9,0.5,3.6,2.2,2.8,3.4c-1.1,1.6-2.3,2.9-4.2,2.4
			C21.5,69.6,20.3,67.3,20.7,65.9z"/>
		<g>
			<path d="M20.7,65.9c0.1-0.4,0.2-0.8,0.5-1.2c0.2-0.4,0.6-0.6,1.1-0.7c0.9-0.2,1.8-0.1,2.6,0.1c0.9,0.2,1.8,0.6,2.5,1.2
				c0.3,0.3,0.7,0.7,0.8,1.3c0.1,0.3,0.1,0.6,0,0.9c-0.1,0.3-0.3,0.6-0.4,0.7c-0.5,0.7-1.1,1.5-1.9,2c-0.9,0.5-2,0.5-2.8,0.1
				c-0.9-0.4-1.5-1.1-1.9-1.8C20.7,67.6,20.5,66.7,20.7,65.9z M20.7,65.9c-0.3,1.7,1.1,3.5,2.6,3.9c0.8,0.2,1.6,0.1,2.2-0.4
				c0.6-0.5,1.1-1.1,1.6-1.8c0.1-0.2,0.2-0.3,0.2-0.4c0-0.1,0-0.3,0-0.4c-0.1-0.3-0.3-0.6-0.5-0.9c-0.5-0.6-1.2-1.1-2-1.3
				c-0.8-0.3-1.6-0.5-2.5-0.4c-0.4,0.1-0.8,0.2-1.1,0.6C20.9,65.1,20.8,65.5,20.7,65.9z"/>
		</g>
	</g>
	<g>
		<path class="st10" d="M24.7,64.3c-3-0.7-3.6,0.1-4,1.3c2.3,0.2,4.7,1,7,1.5C27.7,65.9,26.3,64.7,24.7,64.3z"/>
		<g>
			<path d="M24.7,64.3c-0.8-0.2-1.6-0.3-2.4-0.2c-0.4,0.1-0.8,0.2-1,0.5c-0.3,0.3-0.4,0.7-0.5,1l-0.1-0.1c2.4,0.2,4.7,0.9,7,1.5
				L27.7,67c0-0.7-0.5-1.3-1-1.8C26.1,64.8,25.4,64.4,24.7,64.3z M24.7,64.3c0.7,0.2,1.4,0.5,1.9,0.9c0.6,0.4,1.1,1,1.1,1.8l0,0.1
				l-0.1,0c-2.4-0.4-4.6-1.2-7-1.5l-0.1,0l0-0.1c0.1-0.4,0.3-0.8,0.6-1.1c0.3-0.3,0.7-0.4,1.1-0.5C23.2,63.9,24,64.1,24.7,64.3z"/>
		</g>
	</g>
	<ellipse transform="matrix(0.5405 0.8414 -0.8414 0.5405 67.5884 2.6891)" class="st10" cx="31.3" cy="63.2" rx="0.3" ry="0.4"/>
	<path class="st7" d="M37.8,68.7c-0.2,0.7-2.2,0.8-4.4,0.2c-2.2-0.6-3.8-1.8-3.6-2.5c0.2-0.7,2.2-0.8,4.4-0.2S38,67.9,37.8,68.7z"/>
	<ellipse transform="matrix(0.9607 0.2774 -0.2774 0.9607 20.1326 -7.5513)" class="st10" cx="36.8" cy="67.4" rx="1.3" ry="0.4"/>
	<ellipse transform="matrix(0.9607 0.2777 -0.2777 0.9607 13.0946 -8.1566)" class="st7" cx="35.3" cy="42.1" rx="4.2" ry="1.4"/>
	<ellipse transform="matrix(0.9607 0.2774 -0.2774 0.9607 13.1613 -8.9823)" class="st10" cx="38.3" cy="42" rx="1.3" ry="0.4"/>
</g>
</svg>
