<?xml version="1.0" encoding="utf-8"?>
<!-- Generator: Adobe Illustrator 15.1.0, SVG Export Plug-In . SVG Version: 6.00 Build 0)  -->
<!DOCTYPE svg PUBLIC "-//W3C//DTD SVG 1.1//EN" "http://www.w3.org/Graphics/SVG/1.1/DTD/svg11.dtd">
<svg version="1.1" id="animals" xmlns="http://www.w3.org/2000/svg" xmlns:xlink="http://www.w3.org/1999/xlink" x="0px" y="0px"
	 width="92px" height="141px" viewBox="0 0 92 141" style="enable-background:new 0 0 92 141;" xml:space="preserve">
<style type="text/css">
<![CDATA[
	.st0{fill:#AA8561;}
	.st1{opacity:0.27;}
	.st2{opacity:0.43;}
	.st3{opacity:0.51;}
	.st4{fill:#F9D3AA;}
	.st5{fill:#C6C6C6;stroke:#000000;stroke-miterlimit:10;}
	.st6{fill:#FF2424;}
	.st7{fill:#FFFFFF;}
	.st8{opacity:0.37;fill:#997858;}
	.st9{opacity:0.34;fill:#C19F9F;}
	.st10{opacity:0.47;fill:#FFA6A6;}
	.st11{fill:#3A1E03;}
	.st12{fill:#751717;}
	.st13{opacity:0.27;fill:#751717;}
]]>
</style>
<g>
	<ellipse class="st2" cx="46.9" cy="131.1" rx="30.9" ry="4.4"/>
	<g>
		<g>
			<path class="st6" d="M58.8,107.8c0,0,3.5-6.5,3-13s9.8-13.3,15.4-7.5c0,0-7-2.3-7.6,3.7c0,0.2,0,0.3,0,0.5
				c-0.3,6.6-3.8,18.9-10.7,18.4"/>
			<path d="M58.7,107.8c1.1-2.7,2-5.4,2.4-8.3c0.2-1.4,0.3-2.8,0.2-4.2c-0.2-1.5,0.2-3.1,0.9-4.4c1.5-2.7,4-4.5,6.8-5.4
				c1.4-0.4,2.9-0.6,4.4-0.4c1.5,0.3,2.9,1,3.9,2l0.8,0.7L77,87.6c-1.3-0.3-2.7-0.4-4-0.2c-1.3,0.3-2.3,1.1-2.7,2.3
				c-0.2,0.6-0.3,1.2-0.3,1.9c0,0.7-0.1,1.4-0.2,2.1c-0.2,1.4-0.4,2.8-0.8,4.2c-0.7,2.7-1.7,5.4-3.3,7.8c-0.8,1.2-1.8,2.3-2.9,3.1
				c-1.2,0.8-2.7,1.2-4.1,1.1l0-0.1c1.4,0,2.7-0.5,3.8-1.4c1.1-0.8,1.9-2,2.6-3.1c1.4-2.4,2.3-5,2.9-7.7c0.3-1.3,0.6-2.7,0.8-4.1
				c0.1-0.7,0.2-1.4,0.2-2.1c0-0.7,0.2-1.5,0.4-2.2c0.3-0.7,0.7-1.4,1.4-1.9c0.6-0.5,1.4-0.8,2.1-0.9c1.5-0.3,2.9,0,4.3,0.4
				l-0.3,0.5c-0.9-1-2.2-1.8-3.6-2.1c-1.4-0.3-2.9-0.2-4.2,0.3c-2.7,0.9-5,3-6.2,5.5c-0.6,1.3-0.9,2.6-0.7,4c0.1,1.5-0.1,3-0.3,4.4
				C61.3,102.5,60.3,105.3,58.7,107.8L58.7,107.8z"/>
		</g>
		<g>
			<path class="st6" d="M56.4,105.4c0,0,5.4-3.2,7.9-8.2c2.5-5,12.9-5.4,14.5,1.3c0,0-4.1-4.7-7.2-0.6c-0.1,0.1-0.2,0.2-0.2,0.4
				c-3.1,4.7-11.1,12.1-15.9,8.7"/>
			<path d="M56.4,105.3c2-1.5,3.8-3.1,5.3-5c0.8-0.9,1.5-1.9,2-3c0.2-0.5,0.6-1.2,1.1-1.6c0.4-0.5,1-0.9,1.5-1.2
				c2.3-1.3,4.9-1.5,7.4-0.9c1.2,0.3,2.4,0.8,3.4,1.6c1,0.8,1.7,2,2,3.2l0.3,1l-0.8-0.8c-0.8-0.8-1.8-1.5-2.8-1.8
				c-1-0.4-2.1-0.2-2.9,0.5c-0.4,0.3-0.7,0.8-1.1,1.2c-0.3,0.5-0.7,1-1,1.5c-0.7,1-1.5,1.9-2.4,2.7c-1.7,1.7-3.7,3.2-5.9,4.3
				c-1.1,0.5-2.3,0.9-3.5,1c-1.2,0.1-2.5-0.3-3.4-1l0.1-0.1c1,0.6,2.2,0.8,3.3,0.6c1.1-0.2,2.2-0.6,3.2-1.2c2-1.1,3.8-2.7,5.5-4.3
				c0.8-0.8,1.6-1.7,2.3-2.6c0.4-0.5,0.7-0.9,1-1.4c0.3-0.5,0.8-1,1.3-1.4c0.5-0.4,1.2-0.7,1.9-0.8c0.7-0.1,1.4,0.1,2,0.3
				c1.2,0.5,2.2,1.3,3,2.2l-0.5,0.3c-0.2-1.2-0.8-2.3-1.7-3.1c-0.9-0.8-2-1.4-3.2-1.6c-2.4-0.5-4.9,0-6.9,1.3
				c-1,0.7-1.7,1.5-2.3,2.6c-0.6,1.1-1.4,2.1-2.2,3.1C60.6,102.7,58.6,104.3,56.4,105.3L56.4,105.3z"/>
		</g>
		<g>
			<path class="st6" d="M58.3,108.8c0,0,4.9-5.5,6-11.9c1.1-6.4,12.6-10.5,16.7-3.6c0,0-6.2-3.9-8.3,1.8c-0.1,0.2-0.1,0.3-0.2,0.5
				c-1.8,6.4-8.2,17.4-14.8,15.3"/>
			<path d="M58.3,108.8c1.7-2.3,3.2-4.8,4.3-7.5c0.5-1.3,1-2.7,1.2-4.1c0.2-1.5,0.9-3,1.9-4.1c2.1-2.2,5-3.4,7.9-3.6
				c1.5-0.1,3,0.1,4.3,0.7c1.4,0.6,2.5,1.6,3.3,2.9l0.6,0.9l-1-0.5c-1.2-0.6-2.5-1.1-3.8-1.1c-1.3-0.1-2.5,0.5-3.2,1.6
				c-0.4,0.5-0.6,1.1-0.8,1.8c-0.2,0.7-0.4,1.4-0.7,2c-0.5,1.3-1.1,2.6-1.8,3.9c-1.3,2.5-3,4.9-5.1,6.8c-1.1,1-2.3,1.8-3.6,2.3
				c-1.3,0.5-2.9,0.6-4.2,0.1l0-0.1c1.3,0.4,2.8,0.2,4-0.4c1.2-0.6,2.3-1.5,3.3-2.4c1.9-2,3.4-4.3,4.7-6.8c0.6-1.2,1.2-2.5,1.7-3.8
				c0.3-0.6,0.5-1.3,0.7-1.9c0.2-0.7,0.5-1.4,0.9-2c0.4-0.6,1.1-1.2,1.8-1.5c0.7-0.3,1.5-0.4,2.3-0.4c1.5,0.1,2.9,0.7,4.1,1.4
				l-0.4,0.4c-0.7-1.2-1.7-2.3-3-2.9c-1.3-0.6-2.7-0.8-4.2-0.7c-2.8,0.2-5.6,1.7-7.3,3.8c-0.9,1.1-1.5,2.3-1.7,3.7
				c-0.3,1.5-0.8,2.9-1.4,4.2C62.1,104.3,60.4,106.7,58.3,108.8L58.3,108.8z"/>
		</g>
		<g>
			<path class="st6" d="M59,109.2c0,0,5.3-3,7.7-7.8c2.4-4.7,12.6-5,14.1,1.5c0,0-4-4.6-7-0.7c-0.1,0.1-0.2,0.2-0.2,0.3
				c-3,4.5-10.8,11.5-15.5,8.1"/>
			<path d="M59,109.2c1.9-1.4,3.7-3,5.2-4.8c0.8-0.9,1.4-1.8,2-2.9c0.2-0.5,0.6-1.1,1.1-1.6c0.4-0.5,1-0.8,1.5-1.1
				c2.2-1.2,4.8-1.3,7.2-0.7c1.2,0.3,2.3,0.8,3.2,1.7c0.9,0.8,1.6,1.9,1.9,3.1l0.3,1l-0.8-0.8c-0.8-0.8-1.7-1.4-2.7-1.8
				c-1-0.4-2.1-0.3-2.8,0.4c-0.4,0.3-0.7,0.7-1,1.2c-0.3,0.5-0.7,1-1,1.4c-0.7,0.9-1.5,1.8-2.4,2.6c-1.7,1.6-3.6,3-5.8,4
				c-1.1,0.5-2.2,0.8-3.4,0.9c-1.2,0-2.4-0.3-3.3-1.1l0.1-0.1c1,0.6,2.1,0.8,3.2,0.7c1.1-0.1,2.2-0.6,3.1-1.1c2-1,3.7-2.5,5.4-4.1
				c0.8-0.8,1.6-1.6,2.3-2.5c0.4-0.4,0.7-0.9,1-1.3c0.3-0.5,0.8-1,1.3-1.4c0.5-0.4,1.2-0.6,1.8-0.7c0.7,0,1.3,0.1,1.9,0.3
				c1.2,0.5,2.1,1.3,2.9,2.2l-0.5,0.3c-0.2-1.1-0.8-2.2-1.6-3c-0.8-0.8-1.9-1.3-3.1-1.6c-2.3-0.5-4.8-0.1-6.7,1.1
				c-1,0.6-1.7,1.4-2.2,2.4c-0.6,1.1-1.3,2.1-2.2,3C63.1,106.7,61.2,108.2,59,109.2L59,109.2z"/>
		</g>
		<g>
			<path class="st6" d="M57.9,108.2c0,0,1.7-5.8,0.2-10.9c-1.5-5.1,5.6-12.3,11.2-8.7c0,0-6.1-0.6-5.5,4.3c0,0.1,0,0.3,0.1,0.4
				c0.9,5.3,0.1,15.8-5.6,16.6"/>
			<path d="M57.8,108.2c0.4-2.3,0.6-4.7,0.5-7.1c-0.1-1.2-0.3-2.3-0.6-3.4c-0.2-0.5-0.3-1.2-0.3-1.9c0-0.6,0.1-1.3,0.3-1.9
				c0.8-2.4,2.6-4.3,4.7-5.5c1.1-0.6,2.2-1,3.5-1c1.2-0.1,2.5,0.3,3.6,0.9l0.9,0.6l-1.1,0c-1.1,0-2.2,0.1-3.2,0.6
				c-1,0.4-1.7,1.2-1.8,2.2c-0.1,0.5,0,1,0.1,1.6c0.1,0.6,0.2,1.2,0.3,1.7c0.1,1.2,0.1,2.3,0.1,3.5c-0.1,2.3-0.5,4.7-1.4,6.9
				c-0.4,1.1-1.1,2.1-1.9,3c-0.8,0.9-2,1.4-3.1,1.5l0-0.1c1.1-0.2,2.1-0.9,2.8-1.8c0.7-0.9,1.2-1.9,1.5-2.9c0.7-2.1,1-4.4,1-6.7
				c0-1.1,0-2.3-0.1-3.4c0-0.6-0.1-1.1-0.2-1.7c-0.1-0.6-0.1-1.2,0-1.9c0.1-0.6,0.4-1.3,0.8-1.8c0.4-0.5,1-0.8,1.6-1.1
				c1.2-0.4,2.4-0.5,3.6-0.4l-0.2,0.5c-0.9-0.7-2.1-1-3.2-1c-1.2,0-2.3,0.4-3.3,1c-2,1.2-3.5,3.2-4.1,5.4c-0.3,1.1-0.3,2.2,0.1,3.3
				c0.3,1.2,0.5,2.4,0.5,3.6C59.1,103.6,58.7,106,57.8,108.2L57.8,108.2z"/>
		</g>
	</g>
	<path class="st5" d="M49.8,65.5c0-7-6-14-11-16c-5-1-11,7-17,5c-1.4-0.7-3.4-2-5.1-3.3c-0.3,1.6,7,8.4,8.1,9.7
		c7.6,8.4,2.6,13.9,20.8,21.5C48.6,77.3,51.2,71.9,49.8,65.5z"/>
	<g>
		<path class="st4" d="M77.8,58.3c0,12.1,0,22.9-29.9,21.8c-27.2-1-29.5-8.8-23.4-21.8c5.2-11.1,6.9-21.9,23.4-21.9
			C64.4,36.5,77.8,46.3,77.8,58.3z"/>
		<g>
			<path d="M77.8,58.3c0,3.4,0.1,6.8-0.7,10.1c-0.4,1.7-1,3.3-2,4.7c-1,1.4-2.3,2.6-3.7,3.6c-2.9,1.9-6.3,2.8-9.7,3.3
				c-3.4,0.5-6.8,0.7-10.2,0.6c-3.4,0-6.8-0.2-10.1-0.6c-3.4-0.4-6.7-0.9-10-1.8c-1.6-0.5-3.2-1.1-4.7-1.9c-1.5-0.8-2.9-1.9-3.9-3.3
				c-1-1.4-1.4-3.2-1.5-4.9c0-1.7,0.3-3.4,0.8-5.1c0.5-1.6,1.1-3.2,1.8-4.8c0.7-1.5,1.3-3.1,2-4.6c1.3-3.1,2.5-6.3,4.4-9.2
				c0.9-1.4,2-2.8,3.3-4c1.3-1.2,2.8-2.1,4.4-2.8c3.2-1.4,6.7-1.8,10.1-1.7c6.8,0.1,13.7,1.8,19.4,5.6c2.8,1.9,5.4,4.3,7.2,7.1
				C76.8,51.6,77.9,54.9,77.8,58.3z M77.7,58.3c0-3.4-1.1-6.7-3.1-9.4c-1.9-2.8-4.5-5-7.3-6.7c-5.7-3.5-12.4-5.1-19.1-5.1
				c-3.3,0-6.7,0.4-9.7,1.7c-3,1.3-5.5,3.6-7.3,6.4c-1.8,2.8-3.1,5.9-4.5,9c-1.3,3.1-3,6.1-4,9.3c-0.5,1.6-0.9,3.2-0.9,4.9
				c0,1.7,0.4,3.3,1.3,4.7c0.9,1.4,2.3,2.4,3.7,3.2c1.5,0.8,3.1,1.4,4.7,1.8c3.2,0.9,6.6,1.3,9.9,1.6c3.4,0.3,6.7,0.3,10.1,0.3
				c3.4,0,6.7-0.2,10-0.7c3.3-0.5,6.6-1.3,9.5-3c1.4-0.8,2.7-1.9,3.7-3.3c1-1.3,1.7-2.9,2.1-4.5C77.7,65.1,77.7,61.7,77.7,58.3z"/>
		</g>
	</g>
	<path class="st13" d="M80.1,101.2c-5.8-2.4-12.8,1.5-18.3,6.3c0-3.9-1-7.9-3.9-10.8c0,0.2,0.1,0.4,0.1,0.6c0.7,2.2,0.7,4.5,0.6,6.5
		c-1.3,1-2.2,1.6-2.2,1.6l-0.9,1.5c0.8,0.5,1.6,0.8,2.5,0.8c-0.1,0.3-0.1,0.5-0.1,0.5l0.3,1.3l-0.3,1.3c0.3,0.1,0.5,0.1,0.8,0.2
		c4.7,2.5,12-4.1,14.9-8.4c0.1-0.1,0.2-0.2,0.2-0.3c3-3.9,7,0.7,7,0.7C80.6,102.3,80.4,101.7,80.1,101.2z"/>
	<path class="st13" d="M72.4,97c2.9-2.4,6.3,1.5,6.3,1.5c-0.6-2.7-2.8-4.2-5.2-4.8c0.1-0.1,0.2-0.2,0.3-0.3
		C72.7,94.2,72.3,95.5,72.4,97z"/>
	<path class="st13" d="M77.1,87.3c-3.2-3.3-7.9-2.5-11.2-0.1c1,0.4,2.1,0.6,2.8,1.3c-5,0-5,5-5,9c1.4-3.5,3.2-6,5.9-7.2
		C70.7,85.3,77.1,87.3,77.1,87.3z"/>
	<g>
		<path class="st7" d="M36.9,81.8c0,0-1.4,0-3.5,2.7c-2.1,2.7-6.2,3.9-6.2,3.9S15.5,90.7,13,88.9c-2.5-1.8-1.9,5.2,6.8,6
			c0,0-2.1,5.3,8,0c0,0-2.5,6,7.4,1.4C35.2,96.3,43.9,84.1,36.9,81.8z"/>
		<path d="M36.9,81.8c-0.9,0.2-1.7,0.9-2.4,1.6c-0.3,0.4-0.6,0.7-0.9,1.1c-0.3,0.4-0.7,0.8-1,1.1c-0.8,0.7-1.6,1.3-2.5,1.8
			c-0.9,0.5-1.8,0.9-2.8,1.2l0,0l0,0c-1.1,0.2-2.2,0.4-3.3,0.6c-1.1,0.2-2.2,0.3-3.3,0.4c-1.1,0.1-2.2,0.1-3.4,0.1
			c-1.1,0-2.3-0.1-3.4-0.4c-0.3-0.1-0.6-0.2-0.8-0.4c-0.2-0.2-0.4-0.3-0.7-0.4c-0.4-0.1-0.5,0.6-0.4,1c0.2,1,1,1.9,1.8,2.6
			c1.7,1.4,3.9,2,6.1,2.1l0.4,0L20.1,95c-0.1,0.4-0.2,0.8-0.1,1.1c0.1,0.3,0.3,0.6,0.6,0.7c0.7,0.2,1.5,0,2.3-0.2
			c1.6-0.5,3.2-1.3,4.7-2.1l1.1-0.6l-0.5,1.2c-0.3,0.7-0.3,1.6,0,2c0.3,0.4,1.2,0.5,1.9,0.4c1.6-0.2,3.2-0.9,4.8-1.6L34.8,96
			c1.5-2.2,3-4.7,3.9-7.2c0.5-1.3,0.8-2.6,0.6-4c-0.1-0.7-0.3-1.3-0.8-1.8C38.2,82.5,37.6,82.1,36.9,81.8z M36.9,81.7
			c0.7,0.2,1.3,0.5,1.9,1c0.5,0.5,0.9,1.2,1,1.9c0.3,1.5,0,2.9-0.4,4.3c-0.4,1.4-1,2.7-1.6,3.9c-0.6,1.3-1.3,2.5-2.2,3.7l-0.1,0.1
			l-0.1,0.1c-1.6,0.7-3.2,1.4-5.1,1.7c-0.5,0.1-0.9,0.1-1.5,0c-0.5-0.1-1.1-0.3-1.4-0.8c-0.4-0.5-0.4-1.1-0.4-1.6
			c0-0.5,0.1-1,0.3-1.4l0.7,0.6c-1.6,0.8-3.2,1.6-4.9,2c-0.9,0.2-1.8,0.5-2.8,0.1c-0.5-0.2-0.9-0.7-1-1.2c-0.1-0.5,0-1,0.2-1.4
			l0.2,0.4c-2.2-0.3-4.5-1-6.3-2.5c-0.9-0.7-1.6-1.7-1.9-2.8c-0.1-0.3-0.1-0.6,0-0.9c0-0.2,0.1-0.3,0.3-0.5c0.2-0.1,0.4-0.2,0.5-0.1
			c0.3,0,0.6,0.3,0.8,0.4c0.2,0.1,0.5,0.2,0.7,0.3c2.1,0.4,4.4,0.1,6.6-0.1c1.1-0.1,2.2-0.3,3.3-0.5c1.1-0.2,2.2-0.3,3.3-0.5l0,0
			c0.9-0.3,1.8-0.7,2.7-1.1c0.9-0.4,1.7-1,2.4-1.6c0.4-0.3,0.7-0.6,1-1c0.3-0.4,0.7-0.8,1.1-1.1C35,82.5,35.9,81.8,36.9,81.7
			L36.9,81.7L36.9,81.7z"/>
	</g>
	<path class="st9" d="M36.9,81.8c0,0-1.4,0-3.5,2.7c-1.2,1.5-3.1,2.6-4.5,3.2c-0.4,1.3-0.6,2.6-0.1,3.8c0,0,1.1,1.1,2.1,1.3
		c0.3-0.1,0.6-0.2,0.9-0.3c-0.3,0.3-0.6,0.3-0.9,0.3c-3.8,1.2-7.7,1.6-11.5,2c0.2,0,0.3,0.1,0.5,0.1c0,0-2.1,5.3,8,0
		c0,0-2.5,6,7.4,1.4C35.2,96.3,43.9,84.1,36.9,81.8z"/>
	<path class="st8" d="M47.9,36.5c-1.9,0-3.6,0.2-5.2,0.4c0.1,5.7,2,12,3.2,18c-7.6-6.5-23.5-17.8-20.8,5.5l1-1.3l0.6,1.3l0.9-1.3
		l1.1,0.6l0.6-1l2.2,0.3l0.6-1.3l0.3,1.3l0.6,1.3l0.8-1.3l1.2,1.3l0.8-2l1.9,2l0.5-2.2l1.5,1.5l0.6-1l1.1,1.7l0.9-1.3l0.8,1.9l1-0.9
		l1.2,1.3l1.6-1c0.6,6.2-0.4,12-5.9,16.2c-2.8,2.1-8,0.3-13.3,0c4.1,2,10.7,3.3,20.4,3.6c29.9,1.1,29.9-9.8,29.9-21.8
		C77.8,46.3,64.4,36.5,47.9,36.5z"/>
	<g>
		<path class="st11" d="M24.1,59.4l1-1.3l0.6,1.3l0.9-1.3l1.1,0.6l0.6-1l2.2,0.3l0.6-1.3l0.3,1.3l0.6,1.3l0.8-1.3l1.2,1.3l0.8-2
			l1.9,2l0.5-2.2l1.5,1.5l0.6-1l1.1,1.7l0.9-1.3l0.8,1.9l1-0.9l1.2,1.3l4.6-2.8C48.7,57.5,20.5,29,24.1,59.4z"/>
		<path d="M24.1,59.2L25,58l0.1-0.2l0.1,0.2l0.6,1.2l-0.3,0l0.8-1.3l0.1-0.2l0.2,0.1l1.1,0.6l-0.4,0.1l0.6-1.1l0.1-0.2l0.2,0
			l2.2,0.3L30,57.9l0.6-1.3l0.4-1l0.3,1l0.3,1.3l0-0.1l0.6,1.3l-0.7-0.1l0.8-1.3l0.3-0.5l0.4,0.4l1.2,1.3l-0.7,0.1l0.9-2l0.3-0.6
			l0.4,0.5c0.6,0.7,1.3,1.3,1.9,2l-0.7,0.2l0.6-2.2l0.2-0.6l0.4,0.4l1.5,1.5l-0.4,0.1l0.6-1l0.2-0.3l0.2,0.3c0.3,0.6,0.7,1.1,1,1.7
			l-0.3,0L41,58l0.2-0.3l0.1,0.3l0.7,1.9l-0.2-0.1l1-0.9l0.1-0.1l0.1,0.1l1.2,1.2l-0.2,0c1.5-0.9,3.1-2,4.6-2.9l-0.1,0.4
			c-2.4-2.3-5-4.4-7.7-6.4c-1.3-1-2.7-1.9-4.1-2.8c-1.4-0.8-2.9-1.6-4.4-2.1c-1.5-0.5-3.2-0.8-4.6-0.3c-1.4,0.5-2.4,1.9-2.9,3.4
			c-0.5,1.5-0.7,3.2-0.8,4.9C24,56,24,57.6,24.1,59.2z M24,59.4c-0.5-3.3-0.9-6.7,0-10.1c0.2-0.8,0.6-1.7,1.1-2.4
			c0.5-0.7,1.3-1.3,2.2-1.7c1.8-0.7,3.6-0.3,5.3,0.2c3.3,1.1,6.1,3.1,8.8,5.1c2.7,2.1,5.2,4.3,7.5,6.8l0.3,0.3l-0.3,0.2
			c-1.6,0.9-3.1,1.8-4.7,2.7l-0.1,0.1L44,60.4l-1.2-1.3l0.2,0l-1,0.9l-0.2,0.1L41.8,60L41,58.1l0.3,0l-0.9,1.3l-0.2,0.2l-0.2-0.2
			c-0.4-0.6-0.7-1.1-1.1-1.6l0.4,0l-0.6,1l-0.2,0.3l-0.3-0.2l-1.5-1.5l0.5-0.2l-0.5,2.2l-0.1,0.7l-0.5-0.5c-0.7-0.6-1.3-1.3-1.9-2
			l0.7-0.1l-0.8,2L34,60.2l-0.5-0.5l-1.2-1.3l0.7-0.1l-0.8,1.3l-0.4,0.7l-0.3-0.7l-0.6-1.3l0,0l0,0l-0.3-1.3l0.7,0.1l-0.6,1.2
			l-0.1,0.3l-0.3,0L28.1,58l0.3-0.2l-0.6,1l-0.1,0.3L27.4,59l-1.1-0.7l0.3-0.1l-0.9,1.2l-0.2,0.3l-0.1-0.3L25,58.2l0.2,0l-1.1,1.3
			L24,59.4z"/>
	</g>
	<g>
		<path class="st7" d="M49.1,28c-17,0-29.8,10-32.4,23.2c1.7,1.4,3.7,2.6,5.1,3.3c6,2,12.1-1.7,17.1-0.7c5,2,10.4,6.1,10.4,13.1
			c-1.9,5.7-1,9.4-2.9,13.7l-1.9,1.2l-4.3-2.1l-4-0.7l0.5,2c0,0-3.4,12-6.7,23.8c-3.3,11.8,2.2,16.4,2.2,16.4
			c3.7,20.2,7.1,3.3,7.6,0.7c-1.7-0.6-3.3-1.4-4.9-2.5c1.6,1.1,3.2,1.8,4.9,2.5l0,0c3.2,1.1,7.2-0.1,7.2-0.1c5.1,23.7,9.9,0,9.9,0
			c5.4-3.8,0.4-20.3-0.6-29.8c-0.7-6.3,1.2-9.1,2.5-10.2c0.9-0.1,1.7-0.2,2.6-0.4c-3,0.1-7.6,1.2-7.6,5c0-3.8,4.5-4.9,7.6-5
			c12.2-2,15-8,20.4-21.4C87.5,45.9,68.6,28,49.1,28z"/>
		<path d="M49.1,28.1c-7.2,0-14.4,1.9-20.4,5.9c-3,2-5.6,4.5-7.6,7.5c-2,2.9-3.5,6.3-4.1,9.8L16.8,51c1.6,1.2,3.3,2.4,5.1,3.3l0,0
			c2.7,0.9,5.6,0.6,8.4,0c1.4-0.3,2.8-0.6,4.3-0.8c1.4-0.2,2.9-0.3,4.4,0l0,0l0,0c2.8,1.1,5.5,2.7,7.5,5.1c1,1.2,1.8,2.5,2.4,3.9
			c0.5,1.4,0.8,3,0.8,4.5v0.1l0,0.1c-0.8,2.2-1.2,4.5-1.4,6.8c-0.3,2.3-0.6,4.7-1.6,6.9l0,0.1L46.6,81l-1.9,1.2l-0.2,0.1l-0.2-0.1
			L40,80.1l0.1,0l-4-0.8l0.4-0.4l0.4,2l0,0.1l0,0.1l-5.8,20.2c-0.5,1.7-1,3.4-1.4,5.1c-0.4,1.7-0.6,3.4-0.7,5.2
			c0,1.7,0.1,3.5,0.6,5.1c0.5,1.6,1.3,3.3,2.5,4.4l0,0l0,0.1c0.3,1.7,0.7,3.4,1.2,5.1c0.2,0.8,0.5,1.7,0.8,2.5
			c0.2,0.4,0.4,0.8,0.6,1.1c0.2,0.3,0.5,0.7,0.8,0.8c0.3,0.1,0.7-0.1,0.9-0.4c0.3-0.3,0.5-0.7,0.7-1c0.4-0.8,0.7-1.6,0.9-2.4
			c0.5-1.7,0.9-3.4,1.2-5.1l0.2,0.3c-1.8-0.6-3.4-1.5-5-2.5l0.3-0.4c0.9,0.6,1.8,1.1,2.8,1.6c1,0.4,1.9,0.9,2.9,1.1
			c1,0.2,2.1,0.3,3.1,0.2c1-0.1,2.1-0.3,3.1-0.5l0.3-0.1l0.1,0.3c0.4,2,0.9,3.9,1.6,5.8c0.3,0.9,0.7,1.9,1.2,2.7
			c0.2,0.4,0.5,0.8,0.8,1.2c0.3,0.3,0.7,0.6,1,0.5c0.3,0,0.7-0.3,1-0.6c0.3-0.3,0.6-0.7,0.8-1.2c0.5-0.8,0.9-1.8,1.2-2.7
			c0.7-1.9,1.2-3.8,1.6-5.8l0-0.2l0.1-0.1c1.3-0.9,1.8-2.6,2.1-4.2c0.2-1.7,0.2-3.4,0.1-5.1c-0.2-3.4-0.8-6.8-1.4-10.3
			c-0.6-3.4-1.3-6.8-1.6-10.3c-0.2-1.8-0.2-3.6,0.2-5.3c0.4-1.8,1.1-3.6,2.5-4.8l0.1-0.1l0.2,0c0.8-0.1,1.7-0.2,2.5-0.3l0.1,1
			c-1.6,0.1-3.3,0.3-4.7,1c-0.7,0.3-1.3,0.8-1.8,1.4c-0.4,0.6-0.6,1.3-0.6,2.1h-1c0-0.9,0.3-1.9,0.8-2.7c0.6-0.8,1.3-1.3,2.1-1.7
			c1.6-0.8,3.4-1.1,5.1-1.1l-0.1,0c3.4-0.6,6.8-1.5,9.5-3.5c2.8-2,4.8-4.9,6.4-7.9c1.6-3.1,2.9-6.3,4.3-9.6
			c1.3-3.2,1.3-6.8,0.4-10.1c-1-3.3-2.8-6.3-5.1-9c-2.3-2.6-4.9-4.9-7.9-6.8C63,30.4,56.1,28.1,49.1,28.1z M49.1,28
			c7,0,14,2.2,19.9,6c3,1.9,5.7,4.1,8.1,6.8c2.3,2.6,4.3,5.7,5.3,9.1c1.1,3.4,1.1,7.2-0.2,10.5c-1.3,3.3-2.6,6.5-4.2,9.7
			c-1.6,3.1-3.6,6.2-6.6,8.3c-2.9,2.1-6.5,3.2-10,3.7l0,0h0c-1.6,0.1-3.3,0.3-4.7,1c-0.7,0.3-1.3,0.8-1.8,1.4
			c-0.4,0.6-0.6,1.3-0.6,2.1h-1c0-0.9,0.3-1.9,0.8-2.7c0.6-0.8,1.3-1.3,2.1-1.7c1.6-0.8,3.4-1.1,5.1-1.1l0.1,1
			c-0.9,0.1-1.7,0.3-2.6,0.4l0.3-0.1c-1.2,1-1.9,2.6-2.2,4.2c-0.3,1.6-0.3,3.3-0.2,5c0.3,3.4,1,6.8,1.6,10.3
			c0.6,3.4,1.2,6.9,1.4,10.4c0.1,1.8,0.1,3.5-0.1,5.3c-0.1,0.9-0.4,1.8-0.7,2.6c-0.4,0.8-0.9,1.6-1.7,2.2l0.2-0.3
			c-0.4,2-1,3.9-1.7,5.9c-0.4,1-0.8,1.9-1.3,2.8c-0.3,0.5-0.6,0.9-0.9,1.3c-0.4,0.4-0.9,0.8-1.6,0.8c-0.7,0-1.2-0.4-1.6-0.8
			c-0.4-0.4-0.7-0.9-0.9-1.3c-0.5-0.9-0.9-1.9-1.2-2.8c-0.6-1.9-1.1-3.9-1.5-5.9l0.4,0.2c-1.1,0.3-2.1,0.5-3.2,0.5
			c-1.1,0.1-2.2,0-3.3-0.2c-1.1-0.3-2.1-0.7-3.1-1.2c-1-0.5-1.9-1-2.8-1.6l0.3-0.4c1.5,1,3.2,1.8,4.9,2.5l0.2,0.1l0,0.2
			c-0.3,1.7-0.7,3.5-1.3,5.1c-0.3,0.8-0.6,1.7-1,2.5c-0.2,0.4-0.4,0.8-0.8,1.1c-0.2,0.2-0.4,0.3-0.6,0.4c-0.2,0.1-0.6,0.1-0.8,0
			c-0.5-0.2-0.8-0.6-1-1c-0.2-0.4-0.4-0.8-0.6-1.2c-0.3-0.8-0.6-1.7-0.8-2.5c-0.5-1.7-0.8-3.4-1.1-5.2l0.1,0.1
			c-1.3-1.3-2.1-2.9-2.6-4.6c-0.5-1.7-0.7-3.5-0.7-5.2c0-1.8,0.3-3.5,0.6-5.2c0.4-1.7,0.9-3.4,1.3-5.1L36.3,81l0,0.1l-0.5-2
			l-0.1-0.5l0.5,0.1l4,0.7l0,0l0,0l4.3,2l-0.3,0l1.9-1.2l-0.1,0.2c0.9-2.1,1.2-4.4,1.5-6.7c0.2-2.3,0.6-4.7,1.4-6.9l0,0.1
			c0-1.4-0.3-2.9-0.8-4.2c-0.5-1.3-1.3-2.6-2.2-3.7c-1.9-2.2-4.5-3.8-7.2-4.9l0.1,0c-1.3-0.3-2.8-0.2-4.2,0
			c-1.4,0.2-2.8,0.5-4.2,0.7c-1.4,0.3-2.9,0.5-4.4,0.5c-1.5,0-3-0.2-4.4-0.7l0,0l0,0c-1.8-1-3.5-2.1-5.2-3.4l-0.1-0.1l0-0.2
			c0.7-3.6,2.3-7,4.4-9.9c2.1-3,4.8-5.5,7.8-7.4c3-2,6.4-3.5,9.8-4.4C41.9,28.4,45.5,28,49.1,28z"/>
	</g>
	<path class="st9" d="M49.1,28c-3.6,0-7.1,0.5-10.3,1.3c0.1,1.2,0.3,2.2,1,2.2c8,1,16,0,23,5c1,1,3,0,5-1c6,13,15,31-2,41
		c-5,3-13,2-14,8c-3,15,6,29,1,43c-0.5,1.6-1.9,2.3-3.5,2.4c4.1,8.8,7.5-8,7.5-8c5.4-3.8,0.4-20.3-0.6-29.8
		c-0.7-6.3,1.2-9.1,2.5-10.2c0.9-0.1,1.7-0.2,2.6-0.4c-3,0.1-7.6,1.2-7.6,5c0-3.8,4.5-4.9,7.6-5c12.2-2,15-8,20.4-21.4
		C87.5,45.9,68.6,28,49.1,28z"/>
	<path class="st9" d="M43.8,90.5c0.7-4.4-1.8-7.7-3.9-10.7l-3.7-0.7l0.5,2c0,0-1.4,5.1-3.4,11.9c0.8,0.8,1.7,1.7,2.5,2.5
		C39.8,96.5,42.8,93.5,43.8,90.5z"/>
	<g>
		<path class="st7" d="M36.8,120.5c0,0.1,0,0.1,0,0.2c0.2,0.1,0.4,0.2,0.6,0.3C37.1,120.8,36.9,120.7,36.8,120.5z"/>
		<path d="M36.7,120.5L36.7,120.5c0.2,0.1,0.3,0.2,0.3,0.3l-0.2-0.4c0.1,0,0.1,0,0.2,0c0,0,0,0.1,0,0.2c0,0.2,0.2,0.2,0.3,0.1
			l-0.4,0.6c-0.1,0-0.2,0-0.2,0c-0.1,0-0.1,0-0.2-0.1C36.6,121,36.6,120.9,36.7,120.5L36.7,120.5z M36.8,120.5
			c0.3-0.1,0.4-0.2,0.6-0.1c0.1,0,0.1,0.1,0.1,0.1c0,0.1,0,0.1,0,0.2l-0.2,1.8l-0.2-1.3c0-0.2-0.1-0.4-0.2-0.2
			c-0.1,0-0.2,0.1-0.2,0.1c0,0-0.1-0.1-0.1-0.1l-0.1-0.4l-0.1,0C36.4,120.6,36.5,120.5,36.8,120.5L36.8,120.5L36.8,120.5z"/>
	</g>
	<path class="st9" d="M36.7,120.7c-0.6,2.8,0.1,7.4-1.4,10.3c2.2,1.5,3.9-6.4,4.3-8.7c-0.8-0.3-1.7-0.8-2.4-1.3
		C37.1,120.9,36.9,120.8,36.7,120.7z"/>
	<g>
		<path class="st7" d="M39.6,122.3c0-0.1,0-0.2,0-0.3c-0.8-0.3-1.6-0.7-2.4-1C38,121.5,38.9,122,39.6,122.3z"/>
		<path d="M39.5,122.1C39.5,122,39.5,122,39.5,122.1l0.1,0.2c-0.2,0-0.5,0-0.7-0.1c-0.2-0.1-0.4-0.1-0.6-0.3
			c-0.2-0.2-0.3-0.4-0.5-0.5c-0.2-0.1-0.4-0.1-0.7-0.1l0.3-0.5c0.2,0.1,0.4,0.1,0.6,0.2c0.2,0.1,0.4,0.2,0.6,0.3
			C39,121.5,39.2,121.7,39.5,122.1z M39.6,122.3c-0.5,0.1-1,0-1.5-0.1c-0.2-0.1-0.4-0.2-0.6-0.4c-0.2-0.2-0.4-0.3-0.5-0.6l-1.2-2.1
			l1.5,1.5c0.2,0.2,0.3,0.3,0.5,0.4c0.2,0.1,0.4,0.1,0.7,0.1c0.2,0,0.4,0.1,0.6,0.2c0.2,0.1,0.4,0.2,0.5,0.4L40,122l0,0
			C39.9,122.1,39.8,122.2,39.6,122.3L39.6,122.3L39.6,122.3z"/>
	</g>
	<g>
		<path class="st6" d="M28.2,50.5c0.1-0.2,0.1-0.3,0.1-0.3S27,41.7,22,40.8C11.7,39,9,49,8.1,50.2C15.9,55.5,20.1,53.4,28.2,50.5z"
			/>
		<path d="M28.1,50.5l0.1-0.3l0,0c-0.6-2.4-1.5-4.9-3-6.8c-0.7-0.9-1.7-1.8-2.8-2.1c-1.1-0.3-2.4-0.4-3.6-0.4
			c-1.2,0-2.5,0.3-3.6,0.7c-1.1,0.5-2.2,1.2-3,2.2c-0.9,0.9-1.6,2-2.1,3.1c-0.3,0.6-0.5,1.1-0.8,1.7c-0.3,0.6-0.4,1.1-0.9,1.8
			l-0.1-0.6c1.5,0.9,3,1.8,4.6,2.3c1.6,0.6,3.3,0.8,5,0.7c1.7-0.1,3.4-0.5,5.1-0.9C24.7,51.5,26.4,50.9,28.1,50.5z M28.2,50.6
			c-1.6,0.7-3.3,1.4-4.9,2c-1.7,0.6-3.4,1.1-5.3,1.3c-1.8,0.2-3.7-0.1-5.4-0.8c-1.7-0.7-3.3-1.6-4.7-2.6l-0.3-0.3l0.3-0.4
			c0.3-0.4,0.6-1.1,0.9-1.6c0.3-0.6,0.6-1.1,1-1.7c0.7-1.1,1.5-2.1,2.4-3c1.8-1.8,4.2-3.1,6.8-3.4c1.3-0.1,2.6-0.1,3.9,0.3
			c1.3,0.4,2.4,1.4,3.2,2.5c0.8,1.1,1.3,2.3,1.7,3.5c0.4,1.2,0.7,2.5,0.8,3.8l0,0l0,0L28.2,50.6L28.2,50.6z"/>
	</g>
	<g>
		<path class="st6" d="M61.7,33.4c5.2-1.5,9-3.8,8.5-5.1c-0.4-1.1-3.9-1.2-8.2-0.2c3.6-2.9,5.4-6,4.1-7.6c-1-1.3-3.6-1.3-6.7-0.3
			c2.6-4.8,2.9-9.1,0.5-10.6c-3.1-2-9.7,1.6-14.8,8c-3.7,4.7-5.5,9.6-5,12.7C47.5,29.6,54.8,31,61.7,33.4z"/>
		<path d="M61.7,33.3c1.5-0.5,3-1.1,4.4-1.8c0.7-0.3,1.4-0.7,2-1.1c0.6-0.4,1.3-0.9,1.7-1.5c0.2-0.3,0.2-0.5,0.1-0.7
			c-0.2-0.2-0.5-0.3-0.9-0.4c-0.7-0.1-1.5-0.1-2.3-0.1c-1.5,0.1-3.1,0.4-4.6,0.7L60.2,29l1.4-1.2c1-0.9,2-1.8,2.9-2.8
			c0.8-1,1.6-2.2,1.6-3.4c0-0.3-0.1-0.6-0.2-0.8l-0.1-0.1c0,0,0-0.1-0.1-0.1c-0.1-0.1-0.1-0.1-0.2-0.2c-0.1-0.1-0.2-0.2-0.3-0.2
			c-0.5-0.3-1.2-0.4-1.8-0.4c-1.3,0-2.7,0.2-4,0.6L59,20.5l0.2-0.4c0.8-1.6,1.6-3.2,1.9-5c0.2-0.9,0.3-1.8,0.2-2.6
			c-0.1-0.9-0.4-1.7-1-2.3c-0.6-0.6-1.5-0.9-2.3-0.9c-0.9,0-1.7,0.2-2.5,0.5c-1.6,0.6-3.2,1.6-4.6,2.7c-2.8,2.2-5.2,4.9-7.1,7.9
			c-0.9,1.5-1.8,3.1-2.4,4.7c-0.6,1.6-1,3.4-0.8,5l-0.5-0.4c3.7-0.3,7.4,0,11,0.6C54.8,31,58.3,32,61.7,33.3z M61.6,33.4
			c-3.5-1.1-7-1.9-10.6-2.4c-3.6-0.5-7.2-0.6-10.8-0.3l-0.5,0l-0.1-0.5c-0.3-2,0.2-3.8,0.8-5.6c0.6-1.8,1.5-3.4,2.5-4.9
			c2-3.1,4.5-5.8,7.5-8c1.5-1.1,3.1-2,4.9-2.6c0.9-0.3,1.8-0.5,2.8-0.4c0.9,0,1.9,0.4,2.6,1.1c0.7,0.7,1,1.7,1.1,2.6
			c0.1,0.9,0,1.8-0.2,2.7c-0.4,1.8-1.1,3.5-1.9,5.1L59.4,20c1.3-0.4,2.7-0.8,4.1-0.8c0.7,0,1.4,0.1,2.1,0.4c0.2,0.1,0.3,0.2,0.5,0.3
			c0.1,0.1,0.1,0.1,0.2,0.2c0,0,0,0,0.1,0.1l0.1,0.1c0.2,0.3,0.4,0.7,0.4,1.1c0.1,1.6-0.8,2.9-1.6,4c-0.9,1.1-1.9,2.1-3,2.9
			l-0.4-0.8c1.6-0.3,3.2-0.6,4.8-0.7c0.8,0,1.6,0,2.5,0.2c0.4,0.1,0.9,0.2,1.2,0.6c0,0,0.1,0.1,0.1,0.2c0,0.1,0,0.1,0.1,0.2
			c0,0.1,0.1,0.3,0,0.4c0,0.3-0.2,0.5-0.3,0.7c-0.5,0.7-1.2,1.2-1.9,1.6c-0.7,0.4-1.4,0.8-2.2,1.1C64.7,32.6,63.2,33.1,61.6,33.4
			L61.6,33.4L61.6,33.4z"/>
	</g>
	<path class="st13" d="M59.4,20.2c1.5-2.8,2.2-5.4,2.1-7.4c-0.6,3.2-3.9,6.2-5.8,8.8c2.6,0,4.7-1.1,6.8-2
		C61.6,19.6,60.6,19.8,59.4,20.2z"/>
	<path class="st13" d="M70.2,28.3c-0.4-1.1-3.9-1.2-8.2-0.2c3.6-2.9,5.4-6,4.1-7.6c-0.1-0.1-0.2-0.2-0.3-0.3c0,0.1,0,0.3,0,0.4
		c-2,3-5,6-9,7c1,0,3,0,4,0c-6.4,4.5-13.6,2.4-20.6,1.6c0,0.4,0,0.7,0.1,1.1c7.3-0.6,14.6,0.8,21.5,3.2
		C66.9,31.9,70.7,29.6,70.2,28.3z"/>
	<g>
		<path class="st6" d="M8.1,50.2C8,50.3,8,50.3,8,50.3s2.6,5.2,12.3,8c4.4,1.3,7.4-6.3,7.9-7.8C20.1,53.4,15.9,55.5,8.1,50.2z"/>
		<path d="M8.1,50.2L8,50.4L8.1,50.2c1.3,1.9,3,3.2,4.9,4.4c1.9,1.1,3.9,2.2,6,3c0.5,0.2,1.1,0.4,1.6,0.6c0.5,0.1,1.1,0.1,1.6,0
			c1.1-0.3,1.9-1.1,2.6-1.9c1.4-1.7,2.3-3.8,3-5.9l0.5,0.5c-1.6,0.6-3.3,1.3-5,1.9c-1.7,0.6-3.5,1.1-5.3,1.1
			c-1.8,0.1-3.7-0.2-5.4-0.9C11,52.3,9.5,51.3,8.1,50.2z M8.1,50.1c1.5,0.9,3.1,1.7,4.8,2.2c1.6,0.5,3.4,0.7,5.1,0.6
			c1.7-0.1,3.4-0.6,5.1-1.1c1.7-0.5,3.3-1.1,5-1.6l0.8-0.3l-0.3,0.8c-0.9,2.1-2,4.2-3.5,5.9c-0.8,0.9-1.7,1.6-2.8,2
			c-0.6,0.2-1.2,0.2-1.8,0.1c-0.6-0.1-1.1-0.3-1.7-0.4c-2.2-0.6-4.4-1.5-6.3-2.8c-1-0.6-1.8-1.4-2.6-2.2c-0.8-0.8-1.5-1.7-2-2.8l0,0
			l0,0L8.1,50.1L8.1,50.1z"/>
	</g>
	<g>
		<path d="M39.8,44.5c-0.5,1.2-1.2,2.2-2.4,1.6s-1.8-2-1.3-3.2c0.5-1.2,2-1.8,3.2-1.3C40.6,42.1,40.3,43.2,39.8,44.5z"/>
		<ellipse class="st7" cx="37.1" cy="43.3" rx="0.5" ry="0.5"/>
	</g>
	<g>
		<path d="M22.3,40.6c-0.5,0.6-0.9,1.1-1.3,0.6s-0.3-1.4,0.1-2c0.5-0.6,1.1-0.8,1.5-0.3C23,39.3,22.7,39.9,22.3,40.6z"/>
		<ellipse transform="matrix(0.9479 0.3185 -0.3185 0.9479 13.7135 -4.7625)" class="st7" cx="21.4" cy="39.5" rx="0.2" ry="0.3"/>
	</g>
	<circle cx="35.2" cy="66.6" r="2.1"/>
	<g>
		
			<ellipse transform="matrix(-0.9999 -1.548363e-002 1.548363e-002 -0.9999 48.9053 141.9021)" class="st0" cx="25" cy="70.8" rx="1.6" ry="1.9"/>
		<g>
			<path d="M23.4,70.7c0-0.5,0.1-0.9,0.4-1.3c0.3-0.4,0.7-0.7,1.3-0.8c0.5-0.1,1.1,0.2,1.5,0.6c0.4,0.4,0.6,1,0.6,1.6
				c0,0.6-0.2,1.1-0.6,1.6c-0.4,0.4-1,0.7-1.6,0.6c-0.5-0.1-1-0.4-1.2-0.8C23.5,71.7,23.3,71.2,23.4,70.7z M23.4,70.7
				c0,0.5,0.2,0.9,0.5,1.3c0.3,0.3,0.7,0.5,1.2,0.4c0.8-0.2,1.1-0.9,1.2-1.6c0-0.7-0.3-1.5-1.1-1.7c-0.4-0.1-0.8,0.1-1.1,0.4
				C23.6,69.8,23.4,70.3,23.4,70.7z"/>
		</g>
	</g>
	<g>
		<path class="st7" d="M25,68.8c-0.6,0-1.2,0.4-1.5,1c0.9,0.3,2,0.5,3.1,0.6C26.5,69.5,25.8,68.9,25,68.8z"/>
		<path d="M25,68.8c-0.7,0-1.2,0.5-1.4,1.1l0-0.1c1,0.3,2,0.4,3,0.5l-0.1,0.1c0-0.4-0.2-0.8-0.4-1.1C25.8,69.1,25.4,68.9,25,68.8z
			 M25,68.8c0.8,0,1.5,0.8,1.7,1.6l0,0.1l-0.1,0c-1,0-2.1-0.2-3.1-0.6l-0.1,0l0-0.1C23.8,69.3,24.4,68.8,25,68.8z"/>
	</g>
	<ellipse transform="matrix(0.9943 0.1063 -0.1063 0.9943 7.1981 -3.2517)" class="st7" cx="34.1" cy="65.9" rx="0.4" ry="0.7"/>
	<ellipse transform="matrix(0.983 0.1835 -0.1835 0.983 13.6719 -5.421)" class="st10" cx="36.1" cy="71.2" rx="4.9" ry="1.5"/>
	<ellipse transform="matrix(0.9588 0.2842 -0.2842 0.9588 21.6195 -8.1414)" class="st7" cx="38.9" cy="70.4" rx="1.3" ry="0.7"/>
	
		<ellipse transform="matrix(0.9997 -2.604327e-002 2.604327e-002 0.9997 -1.2294 1.0285)" class="st10" cx="38.9" cy="47.7" rx="4.9" ry="1.5"/>
	
		<ellipse transform="matrix(0.9969 7.817701e-002 -7.817701e-002 0.9969 3.7568 -3.0945)" class="st7" cx="41.4" cy="46.4" rx="1.3" ry="0.7"/>
	<g>
		<path class="st6" d="M39.8,83.4l-2.1-4l-1,0c-0.6,1.3-1.6,2.8-2.8,4c-1.6,1.4-2.4,1.6-3.5,3.4c-1,1.6,0.3,3.6,2,4.3
			c0.8,0.3,2.1,0,2.5-0.7c0.1,0.9,0.9,2.2,1.7,2.6c1.7,0.9,3.8-0.1,4.2-2.4C41.5,87,40.6,85.8,39.8,83.4z"/>
		<g>
			<path d="M39.8,83.5c-0.3-0.7-0.7-1.4-1.1-2l-1.1-1.8l0.2,0.1l-1,0.1l0.3-0.2c-0.7,1.6-1.7,3.1-2.9,4.2c-0.6,0.5-1.3,1-1.9,1.4
				c-0.6,0.4-1.1,0.9-1.5,1.5c-0.2,0.3-0.4,0.6-0.5,0.9c-0.1,0.3-0.1,0.6-0.1,0.9c0.1,0.6,0.5,1.3,1,1.7c0.5,0.5,1.2,0.9,1.8,0.9
				c0.6,0,1.3-0.3,1.6-0.7l0.5-0.9l0.2,1.1c0.1,0.5,0.4,1.1,0.7,1.6c0.2,0.2,0.4,0.4,0.6,0.6c0.2,0.1,0.5,0.2,0.7,0.3
				c1.1,0.2,2.2-0.3,2.7-1.3c0.1-0.3,0.3-0.5,0.3-0.9c0.1-0.3,0.2-0.7,0.2-1c0.1-0.7,0.2-1.4,0.2-2.1C40.8,86.1,40.2,84.8,39.8,83.5
				z M39.8,83.4c0.4,1.3,1.1,2.6,1.4,4.1c0.1,0.8,0.1,1.6,0.1,2.3c0,0.4-0.1,0.8-0.1,1.2c-0.1,0.4-0.2,0.8-0.4,1.1
				c-0.7,1.4-2,2.1-3.5,1.7c-0.4-0.1-0.7-0.2-1.1-0.4c-0.4-0.3-0.6-0.6-0.8-0.9c-0.4-0.6-0.8-1.3-0.9-2l0.7,0.2
				c-0.3,0.4-0.6,0.6-1,0.8c-0.4,0.1-0.8,0.2-1.2,0.1c-0.4,0-0.9-0.2-1.2-0.5c-0.3-0.2-0.7-0.5-0.9-0.8c-0.5-0.6-0.9-1.3-0.9-2
				c-0.1-0.7,0.2-1.4,0.6-2c0.4-0.6,0.9-1.2,1.5-1.7c0.6-0.5,1.2-1,1.7-1.5c1.1-1.1,2-2.5,2.8-3.9l0.1-0.2l0.2,0l1,0.1l0.1,0l0,0.1
				l0.9,2C39.2,82,39.5,82.7,39.8,83.4L39.8,83.4L39.8,83.4z"/>
		</g>
	</g>
	<g class="st1">
		<path class="st12" d="M39.7,83.5l-1.1-2.1c0.7,2.9,2.2,5.8-1.1,8.1c0.8-0.9-0.8-1.8-0.8-2.7c-0.7,3.9-2.7,4.1-5.5,3.9
			c0.3,0.3,0.7,0.5,1.1,0.7c0.8,0.3,2.1,0,2.5-0.7c0.1,0.8,0.9,2.2,1.7,2.6c1.7,0.9,3.8-0.1,4.2-2.5C41.4,87,40.5,85.8,39.7,83.5z"
			/>
	</g>
	<path class="st9" d="M50.1,102c0.1,0.2,0.1,0.4,0.2,0.6c1.9,7.3-2,4.9-2,4.9c-2.5,14.6-5.2,2.9-5.2,2.9c-1,5.6-2.8,6.3-2.8,6.3
		C33.3,125,44.9,88,44.9,88s1-2.4,2.3,0"/>
	<g>
		<path class="st7" d="M50.1,100c0.1,0.2,0.1,0.4,0.2,0.6c1.9,7.3-2,4.9-2,4.9c-2.5,14.6-5.2,2.9-5.2,2.9c-1,5.6-2.8,6.3-2.8,6.3
			C33.3,123,44.9,86,44.9,86s1-2.4,2.3,0"/>
		<path d="M50.2,99.9c0.2,0.6,0.4,1.3,0.6,1.9c0.2,0.7,0.3,1.3,0.3,2c0,0.3,0,0.7-0.1,1.1c-0.1,0.4-0.3,0.8-0.6,1
			c-0.4,0.3-0.8,0.3-1.2,0.2c-0.4-0.1-0.7-0.2-1.1-0.4l0.6-0.3c-0.2,1.1-0.4,2.2-0.6,3.3c-0.3,1.1-0.5,2.2-1.1,3.3
			c-0.2,0.3-0.3,0.5-0.6,0.8c-0.2,0.2-0.8,0.5-1.2,0.3c-0.4-0.2-0.6-0.4-0.8-0.7c-0.2-0.3-0.3-0.5-0.4-0.8c-0.5-1.1-0.8-2.1-1-3.3
			l0.5,0c-0.3,1.2-0.6,2.3-1,3.4c-0.2,0.6-0.4,1.1-0.7,1.6c-0.3,0.5-0.6,1-1.2,1.4l0.1,0c-0.2,0.3-0.5,0.5-0.7,0.8
			c-0.3,0.2-0.5,0.5-1,0.6c-0.2,0-0.5-0.1-0.6-0.3c-0.1-0.2-0.2-0.4-0.2-0.6c-0.1-0.4-0.1-0.7-0.1-1.1c0-1.4,0.1-2.8,0.3-4.2
			c0.4-2.8,1.1-5.5,1.7-8.1c0.7-2.7,1.4-5.4,2.2-8c0.8-2.6,1.7-5.3,2.6-7.9l0,0v0c0.1-0.3,0.3-0.5,0.5-0.7c0.2-0.2,0.5-0.4,0.8-0.4
			c0.3,0,0.6,0.3,0.8,0.5c0.2,0.2,0.3,0.5,0.4,0.7l-0.1,0c-0.1-0.2-0.3-0.5-0.5-0.6c-0.2-0.2-0.4-0.3-0.6-0.3c-0.4,0-0.7,0.6-0.9,1
			l0,0l-4.3,16c-0.7,2.7-1.4,5.3-1.9,8c-0.3,1.3-0.5,2.7-0.6,4c0,0.3,0,0.7,0.1,1c0.1,0.3,0.2,0.6,0.4,0.6c0.2,0,0.5-0.2,0.8-0.4
			c0.3-0.2,0.5-0.5,0.7-0.7l0,0l0,0c0.4-0.2,0.8-0.8,1.1-1.2c0.3-0.5,0.5-1,0.7-1.6c0.4-1.1,0.6-2.2,0.8-3.4l0.2-1.1l0.3,1.1
			c0.3,1,0.7,2.1,1.2,3c0.2,0.4,0.6,0.9,0.9,1c0.2,0.1,0.5-0.2,0.7-0.7c0.5-0.9,0.8-2,1.1-3c0.3-1.1,0.5-2.1,0.7-3.2l0.1-0.5
			l0.5,0.3c0.5,0.3,1.1,0.5,1.5,0.3c0.4-0.2,0.5-0.9,0.6-1.5C50.6,102.6,50.4,101.3,50.2,99.9L50.2,99.9z"/>
	</g>
	<path class="st13" d="M22,40.8c-2-0.3-3.9-0.3-5.6,0c4.3,1.2,9.2,5,5.4,8.8c-4.3,6-5.8,5.6-11.2,1.5c0.8,1.5,0,3.7,9.7,7.3
		c4.3,1.6,7.4-6.3,7.9-7.8c0.1-0.2,0.1-0.3,0.1-0.3S27,41.7,22,40.8z"/>
	<g class="st3">
		<path class="st7" d="M16.3,42.1c-0.7,0.7-1.4,1.2-2,1.8c-0.3,0.3-0.6,0.5-0.9,0.8c-0.3,0.3-0.6,0.6-0.8,1c-0.2-0.5,0-1,0.2-1.5
			c0.2-0.5,0.6-0.8,0.9-1.1c0.4-0.3,0.8-0.5,1.2-0.7C15.3,42.2,15.8,42.1,16.3,42.1z"/>
	</g>
	<path class="st2" d="M58.5,81.8c0.9-0.1,1.7-0.2,2.6-0.4c12.2-2,15-8,20.4-21.4c4.1-10.1-4.2-22-16.4-28.1c3.2-1.3,5.1-2.8,4.8-3.8
		C69.5,27,66,27,61.7,28c3.6-2.9,5.4-6,4.1-7.6c-0.1-0.1-0.2-0.2-0.3-0.3c0,0,0,0,0,0c-0.9-0.7-2.5-0.9-4.5-0.5
		c-0.1,0-0.2,0-0.3,0.1c-0.5,0.1-1,0.2-1.5,0.4c0.2-0.3,0.3-0.7,0.5-1c0-0.1,0.1-0.2,0.1-0.3c0.1-0.2,0.2-0.4,0.3-0.7
		c0-0.1,0.1-0.2,0.1-0.3c0.1-0.2,0.2-0.4,0.2-0.7c0-0.1,0.1-0.2,0.1-0.3c0.1-0.2,0.2-0.5,0.2-0.7c0-0.1,0-0.1,0.1-0.2
		c0.1-0.3,0.2-0.6,0.2-0.8c0,0,0,0,0,0c0.6-2.6,0.2-4.7-1.3-5.7c-3.1-2-9.7,1.6-14.8,8c-3.3,4.1-5.1,8.4-5.1,11.5
		c-0.4,0.1-0.9,0.2-1.3,0.3c0,0,0,0,0,0l0,0c-6.6,1.8-12.1,5.2-16,9.6c0,0,0-0.1-0.1-0.1c-0.4-0.5-1.1-0.3-1.5,0.3
		c-0.3,0.5-0.4,1-0.3,1.5c0,0,0,0,0,0c-1.6-0.2-3.1-0.1-4.4,0.1c0.2,0,0.3,0.1,0.5,0.2c-6.1,1.6-8,8.3-8.8,9.2
		c-0.1,0.1-0.1,0.2-0.1,0.2s2.6,5.2,12.3,8c0.7,0.3,1.4,0.2,2,0.1c0.6,0.6,1.1,1.1,1.5,1.5c-3.3,7.6-3.2,13.3,3.7,16.7h0
		c0,0,0,0,0,0c0.8,0.4,1.6,0.7,2.5,1c0,0,0,0,0,0c0.3,0.1,0.6,0.2,0.9,0.3c0.1,0,0.1,0,0.2,0.1c0.9,0.3,1.8,0.5,2.9,0.7
		c0.2,0,0.4,0.1,0.6,0.1c0.3,0.1,0.5,0.1,0.8,0.2c-0.8,1.2-1.8,2.5-3.1,3.6c-1.9,1.6-3,1.7-4.3,4.1c-0.3,0.5-0.4,1-0.4,1.5
		c-0.2,0.1-0.4,0.1-0.4,0.1s-11.7,2.3-14.2,0.5c-2.5-1.8-1.9,4.9,6.4,5.9h0c0.2,0,0.3,0.1,0.5,0.1c0,0-2.1,5.3,8,0
		c0,0-1.9,4.5,4.1,2.7c-0.7,2.4-1.4,4.9-2,7.4c-3.3,11.8,2.2,16.4,2.2,16.4c0.5,2.5,0.9,4.4,1.3,5.8c-10.3,0.7-17.3,2.2-17.3,4
		c0,2.4,13.8,4.4,30.9,4.4c17,0,30.9-2,30.9-4.4c0-2-9.4-3.7-22.3-4.2c0,0,0-0.1,0-0.1c0,0,0,0,0,0c0.1-0.2,0.1-0.4,0.2-0.6
		c0,0,0,0,0-0.1c0.1-0.2,0.1-0.4,0.2-0.6c0,0,0,0,0,0c0.1-0.2,0.1-0.4,0.2-0.5c0,0,0,0,0,0c0-0.2,0.1-0.3,0.1-0.5c0,0,0,0,0-0.1
		c0-0.2,0.1-0.3,0.1-0.5c0,0,0,0,0,0c0.1-0.3,0.1-0.6,0.2-0.8c0,0,0,0,0,0c0-0.1,0.1-0.2,0.1-0.3c0,0,0,0,0,0c0-0.2,0.1-0.4,0.1-0.5
		c0,0,0,0,0,0c0,0,0-0.1,0-0.1c0,0,0,0,0,0c0,0,0,0,0,0c2.4-1.7,2.7-5.8,2.3-10.7c1.7,0.6,3.6,0.3,5.5-0.7c0,0,0,0,0,0
		c0.3-0.2,0.7-0.4,1-0.6c0,0,0,0,0,0c0.3-0.2,0.7-0.4,1-0.6c0,0,0,0,0.1,0c0.3-0.2,0.7-0.5,1-0.7c0,0,0,0,0.1-0.1
		c0.3-0.2,0.6-0.5,0.9-0.7c0,0,0.1,0,0.1-0.1c0.3-0.3,0.6-0.5,0.9-0.8c0,0,0.1-0.1,0.1-0.1c0.3-0.3,0.6-0.5,0.8-0.8
		c0,0,0.1-0.1,0.1-0.1c0.3-0.3,0.5-0.5,0.8-0.8c0,0,0-0.1,0.1-0.1c0.2-0.3,0.5-0.5,0.7-0.8c0,0,0,0,0.1-0.1c0.2-0.3,0.4-0.5,0.6-0.8
		c0,0,0,0,0,0c0.2-0.3,0.4-0.5,0.6-0.8c0.1-0.1,0.2-0.2,0.2-0.3c3-3.9,7,0.7,7,0.7c-0.1-0.4-0.2-0.7-0.3-1c-0.1-0.2-0.2-0.3-0.2-0.5
		c0-0.1-0.1-0.2-0.1-0.3c0,0,0,0,0,0c-1.6-2.7-5.2-3.6-8.3-3c0.1-0.3,0.2-0.6,0.3-0.9c0.1-0.1,0.2-0.2,0.3-0.3c0,0,0,0,0,0
		c2.9-2.4,6.3,1.5,6.3,1.5c-0.1-0.4-0.2-0.7-0.4-1.1c-0.1-0.1-0.1-0.2-0.2-0.3c-0.1-0.2-0.2-0.4-0.3-0.6c-0.1-0.1-0.2-0.2-0.3-0.4
		c-0.1-0.1-0.2-0.3-0.4-0.4c-0.1-0.1-0.2-0.2-0.4-0.4c-0.1-0.1-0.2-0.2-0.3-0.2c-0.9-0.7-1.9-1.1-3-1.4c0.1-0.1,0.2-0.2,0.3-0.3
		c-0.1,0-0.1,0.1-0.1,0.1c2.5-3.2,7.4-0.2,7.4-0.2c-2.4-4.1-7.5-4.3-11.5-2.5c0-0.2,0-0.3,0.1-0.4c0,0,0,0,0,0
		c1.1-5.1,7.5-3.1,7.5-3.1c-0.2-0.2-0.4-0.4-0.6-0.5c-0.1-0.1-0.1-0.1-0.2-0.1c-0.1-0.1-0.3-0.2-0.4-0.3c-0.1-0.1-0.2-0.1-0.2-0.1
		c-0.1-0.1-0.3-0.2-0.4-0.2c-0.1,0-0.2-0.1-0.2-0.1c-0.1-0.1-0.3-0.1-0.4-0.2c-0.1,0-0.2-0.1-0.2-0.1c-0.1-0.1-0.3-0.1-0.4-0.1
		c-0.1,0-0.2,0-0.2-0.1c-0.2,0-0.3-0.1-0.5-0.1c-0.1,0-0.1,0-0.2,0c-0.2,0-0.5-0.1-0.7-0.1c0,0,0,0,0,0c-0.5,0-1,0-1.5,0.1
		c0,0,0,0-0.1,0c-0.2,0-0.4,0.1-0.7,0.1c0,0-0.1,0-0.1,0c-0.2,0-0.4,0.1-0.6,0.2c0,0-0.1,0-0.1,0c-0.2,0.1-0.4,0.1-0.6,0.2
		c0,0,0,0,0,0c-1.2,0.5-2.3,1.1-3.3,1.9c-4.5,0.5-8.5,5.7-7.3,9.6c0.2,0.5,0.3,1,0.4,1.5c0,0.1,0,0.2,0,0.2c0.1,0.5,0.1,1,0.2,1.5
		c0,0.1,0,0.2,0,0.3c0,0.5,0,1,0,1.4c0,0,0,0.1,0,0.1c0,0.5,0,1-0.1,1.4c-0.1,0.1-0.3,0.2-0.4,0.3c-0.7-4.3-1.6-8.6-2-12
		C55.3,85.7,57.2,82.9,58.5,81.8z M37.2,79.2c0.4,0.1,0.7,0.1,1.1,0.2c0.2,0,0.5,0.1,0.7,0.1c0.2,0,0.3,0,0.5,0.1
		c0.2,0.1,0.4,0.2,0.5,0.3l-0.1,0L37,79.2l0,0C37.1,79.2,37.1,79.2,37.2,79.2z M44.2,81.8l-0.1-0.1C44.1,81.7,44.2,81.8,44.2,81.8
		L44.2,81.8z M38.3,126.8c0.1-0.4,0.2-0.8,0.4-1.2c0,0,0-0.1,0-0.1c0.1-0.2,0.1-0.4,0.2-0.6c0,0,0-0.1,0-0.1
		c0.1-0.2,0.1-0.5,0.2-0.7c0,0,0-0.1,0-0.1c0-0.2,0.1-0.4,0.1-0.5c0-0.1,0-0.1,0-0.2c0-0.1,0.1-0.2,0.1-0.4c0-0.1,0-0.1,0-0.2
		c0-0.1,0.1-0.3,0.1-0.4c0,0,0,0,0,0c0-0.1,0-0.2,0-0.3c3.2,1.1,7.2-0.1,7.2-0.1c0.4,1.9,0.8,3.5,1.2,4.8c-0.4,0-0.8,0-1.2,0
		C43.8,126.6,40.9,126.7,38.3,126.8z"/>
</g>
</svg>
