<?xml version="1.0" encoding="utf-8"?>
<!-- Generator: Adobe Illustrator 15.1.0, SVG Export Plug-In . SVG Version: 6.00 Build 0)  -->
<!DOCTYPE svg PUBLIC "-//W3C//DTD SVG 1.1//EN" "http://www.w3.org/Graphics/SVG/1.1/DTD/svg11.dtd">
<svg version="1.1" id="animals" xmlns="http://www.w3.org/2000/svg" xmlns:xlink="http://www.w3.org/1999/xlink" x="0px" y="0px"
	 width="93px" height="126px" viewBox="0 0 93 126" style="enable-background:new 0 0 93 126;" xml:space="preserve">
<style type="text/css">
<![CDATA[
	.st0{fill:#7F371D;}
	.st1{opacity:8.000000e-002;}
	.st2{opacity:0.58;fill:#230C04;}
	.st3{opacity:0.25;}
	.st4{opacity:0.31;}
	.st5{opacity:0.51;}
	.st6{opacity:0.52;fill:#511C10;}
	.st7{opacity:0.6;fill:#D39A4F;}
	.st8{fill:#230C04;}
	.st9{opacity:0.5;fill:#FF9F9F;}
	.st10{fill:#C49460;}
	.st11{fill:#602F1A;}
	.st12{opacity:0.2;}
	.st13{fill:#FF5B00;}
	.st14{fill:#FFD19F;}
	.st15{fill:#FFE9D9;}
	.st16{fill:#FFFFFF;}
	.st17{opacity:0.38;fill:#A06E32;}
	.st18{opacity:0.24;fill:#C69560;}
	.st19{fill:#D39A4F;}
	.st20{fill:#A06E32;}
	.st21{fill:#753E03;}
]]>
</style>
<g>
	<g>
		<path class="st19" d="M56.8,37.5c1-21.1-21-7.3-33.4-17.5c-1.4,3.4,0.7,8.4,2.4,12c7.7,16.3,3.2,11.8,16.7,22.4
			C47.1,50.5,56.1,43.5,56.8,37.5z"/>
		<g>
			<path d="M56.7,37.5c0.1-1.8,0-3.6-0.4-5.3c-0.4-1.7-1.2-3.4-2.5-4.5c-1.3-1.2-3-1.8-4.7-2.1c-1.7-0.4-3.5-0.5-5.3-0.5l-5.4-0.2
				c-1.8-0.1-3.6-0.3-5.4-0.6c-3.5-0.6-7.1-1.8-9.9-4.2l0.2-0.1c-0.6,1.6-0.5,3.3-0.1,5c0.4,1.7,1,3.2,1.7,4.8
				c0.7,1.5,1.5,3.1,2.3,4.6c0.7,1.6,1.5,3.1,2.2,4.7c0.7,1.6,1.4,3.2,2.1,4.7c0.8,1.5,1.8,2.7,3.1,3.8c2.6,2.2,5.3,4.3,8,6.4
				l-0.6,0l4.4-3.6c1.4-1.2,2.9-2.4,4.2-3.7c1.4-1.3,2.6-2.7,3.8-4.2C55.5,41.1,56.5,39.4,56.7,37.5z M56.8,37.5
				c-0.2,1.9-1.1,3.6-2.2,5.2c-1,1.6-2.3,3-3.6,4.4c-1.3,1.4-2.6,2.7-4,4c-1.4,1.3-2.8,2.5-4.3,3.7l-0.3,0.3l-0.3-0.3
				c-2.7-2.1-5.5-4.2-8.1-6.4c-1.3-1.1-2.5-2.6-3.3-4.2c-0.8-1.6-1.4-3.2-2.1-4.8c-1.3-3.2-2.7-6.3-4.1-9.5
				c-0.7-1.6-1.2-3.2-1.6-4.9c-0.3-1.7-0.5-3.5,0.2-5.2l0.1-0.2l0.2,0.1c1.4,1.1,2.9,2,4.6,2.6c1.7,0.6,3.4,1,5.2,1.2
				c1.8,0.2,3.5,0.3,5.3,0.3l5.4,0.1c1.8,0.1,3.6,0.3,5.4,0.7c1.8,0.4,3.5,1.2,4.9,2.5c1.3,1.3,2.1,3.1,2.4,4.8
				C56.9,33.9,56.9,35.8,56.8,37.5z"/>
		</g>
	</g>
	<path class="st20" d="M57.8,37.5c1-21.1-21-7.3-33.4-17.5c-1.4,3.4,0.7,8.4,2.4,12c7.7,16.3,3.2,11.8,16.7,22.4
		C48.1,50.5,57.1,43.5,57.8,37.5z"/>
	<path class="st5" d="M77.5,86.4c-4.6-1.9-10.2,0.6-12.7,2c-10.7-0.5-21.3-0.3-32,0.5c-0.1,0.1-0.1,0.3-0.1,0.5
		c-0.8,3.9-4,15.6,2.6,9.8c2.8,5,7.2,12.4,6.1-4.3c0,0,24.4,9.4,24.4-4.2c3-0.1,9.1,0.3,8.4,4.2c-1.3,7.5-13.5,3.6-19,14.7
		c-7.5,15.1,7.5,14.1,7.5,14.1c-3.3-3.8,3.3-4.7,3.3-4.7C98.4,115.8,88.8,91.1,77.5,86.4z"/>
	<g>
		<path class="st19" d="M46.9,83c0,0-13.4-0.6-14.3,4.3c-1,4.9-5.2,22.2,8.9,1.4L46.9,83z"/>
		<g>
			<path d="M46.7,83.1c-3.4,0.2-6.8,0.5-10,1.4c-0.8,0.3-1.6,0.5-2.3,1c-0.7,0.4-1.3,1-1.5,1.7c-0.4,1.6-0.9,3.4-1.1,5.1
				c-0.3,1.7-0.5,3.5-0.1,5.1c0.3,2.1,2.1,0.4,3.2-0.7c1.2-1.2,2.2-2.6,3.3-4c1-1.4,2.1-2.8,3.1-4.2l0,0l0,0
				C43,86.6,44.8,84.8,46.7,83.1z M46.9,83c-1.6,2-3.3,4-5.1,6l0-0.1c-1.9,2.9-3.9,5.8-6.4,8.3c-0.6,0.6-1.3,1.2-2.2,1.6
				c-0.2,0.1-0.5,0.2-0.8,0.2c-0.3,0-0.6-0.1-0.9-0.3c-0.5-0.4-0.6-0.9-0.6-1.4c-0.2-1.8,0.2-3.5,0.5-5.3c0.3-1.7,0.6-3.4,0.9-5.2
				c0.2-0.9,0.9-1.7,1.6-2.2c0.8-0.5,1.6-0.9,2.4-1.2c1.7-0.5,3.5-0.7,5.2-0.8C43.4,82.7,45.1,82.7,46.9,83L46.9,83L46.9,83z"/>
		</g>
	</g>
	<path class="st17" d="M46.9,83c0,0-13.4-0.6-14.3,4.3c-1,4.9-5.2,22.2,8.9,1.4L46.9,83z"/>
	<g>
		<path class="st21" d="M62.4,87.1c0,0,8-5.4,14.1-2.8c11.3,4.8,20.9,29.4-11.4,32.5c0,0-6.7,0.9-3.3,4.7c0,0-15,1-7.5-14.1
			c5.5-11.1,17.7-7.2,19-14.7c0.9-5.2-10-4.1-10-4.1S60.3,90.2,62.4,87.1z"/>
		<g>
			<path d="M62.4,87.1c1.3-0.9,2.6-1.6,4-2.2c1.4-0.6,2.9-1.1,4.4-1.3c1.5-0.3,3.1-0.3,4.7,0.1c1.6,0.4,2.9,1.2,4.2,2.1
				c2.5,1.9,4.5,4.3,5.9,7.1c1.4,2.8,2.2,5.9,1.8,9.1c-0.3,3.1-1.8,6.1-4,8.2c-2.2,2.2-5,3.6-7.9,4.6c-2.9,1-5.9,1.6-8.9,2.1
				c-0.8,0.1-1.5,0.1-2.2,0.3c-0.7,0.2-1.4,0.4-2.1,0.8c-0.6,0.4-1.1,0.9-1.2,1.5c0,0.6,0.4,1.2,0.9,1.8l0.5,0.6l-0.8,0
				c-1.3,0.1-2.5,0-3.7-0.3c-1.2-0.3-2.4-0.7-3.5-1.4c-1.1-0.7-2-1.8-2.4-3c-0.5-1.2-0.5-2.6-0.4-3.8c0.3-2.5,1.3-4.8,2.4-7
				c1.2-2.2,3-4.1,5.1-5.5c2.1-1.4,4.5-2.2,6.8-3c1.2-0.4,2.3-0.8,3.4-1.3c1.1-0.5,2-1.2,2.7-2.1c0.3-0.5,0.5-1,0.7-1.5
				c0.1-0.6,0.2-1.1,0.1-1.6c-0.3-1-1.4-1.7-2.5-2c-1.1-0.4-2.3-0.5-3.5-0.6c-1.2-0.1-2.4-0.1-3.6,0l0.1,0c-0.3,0.1-0.6,0.3-0.9,0.3
				c-0.2,0-0.3,0.1-0.5,0c-0.2,0-0.4-0.2-0.4-0.4c0-0.4,0.2-0.6,0.3-0.9C62,87.6,62.2,87.4,62.4,87.1L62.4,87.1L62.4,87.1z
				 M62.5,87.2c-0.2,0.3-0.3,0.5-0.5,0.8c-0.1,0.3-0.3,0.6-0.3,0.8c0,0.2,0.4,0.2,0.6,0.1c0.3-0.1,0.5-0.2,0.8-0.4l0,0l0,0
				c2.4-0.2,4.9-0.3,7.3,0.4c0.6,0.2,1.2,0.4,1.7,0.8c0.5,0.4,1,0.9,1.2,1.6c0.2,0.7,0.1,1.4,0,2c-0.1,0.6-0.4,1.2-0.8,1.8
				c-0.7,1.1-1.8,1.9-2.9,2.4c-1.1,0.6-2.3,1-3.4,1.4c-2.3,0.8-4.6,1.6-6.5,2.9c-2,1.3-3.6,3.1-4.7,5.1c-1.1,2.1-2.1,4.3-2.4,6.6
				c-0.2,1.2-0.1,2.3,0.3,3.4c0.4,1.1,1.1,2,2,2.6c1.9,1.3,4.4,1.7,6.7,1.7l-0.2,0.6c-0.5-0.6-1-1.3-1-2.3c0-0.5,0.2-0.9,0.5-1.2
				c0.3-0.3,0.6-0.6,1-0.8c0.7-0.4,1.5-0.6,2.2-0.8c0.8-0.2,1.6-0.2,2.3-0.3c3-0.3,6-0.9,8.9-1.9c2.8-1,5.6-2.5,7.7-4.7
				c2.1-2.2,3.4-5,3.6-8c0.2-3-0.6-6-1.9-8.6c-1.3-2.7-3.2-5.1-5.6-6.9c-1.2-0.9-2.5-1.7-3.9-2.1c-1.4-0.4-2.9-0.4-4.4-0.2
				C68,84.5,65.1,85.6,62.5,87.2z"/>
		</g>
	</g>
	<path class="st7" d="M63.8,113.5c7-3,16-3,18-10c4.6-12-8.6-18.9-18.6-15.9c2,0.2,4.4,0.7,6.7,1.4c0.6,0.2,1.2,0.4,1.7,0.6
		c5.2,2.1,9.2,5.6,6.2,9.9c-5,8-25,8-20,20c0.4,0.7,0.8,1.3,1.2,1.9c1.6,0.2,2.8,0.2,2.8,0.2c-1.1-1.2-1.1-2.2-0.6-2.9
		C60,116.8,60.4,114.8,63.8,113.5z"/>
	<path class="st4" d="M59.8,119.5c0.6,0.7,1.3,1.4,2,2c0,0,0,0,0,0c-3.3-3.8,3.3-4.7,3.3-4.7c10.2-1,16.3-4.2,19.4-8.2
		c-6.6,4-17.2,1.8-23.7,6.8C60.8,116.5,58.8,118.5,59.8,119.5z"/>
	<path class="st4" d="M76.8,89.5c-3.5-2.6-7.8-3-12.2-1c2.9-0.1,9.3,0.1,8.7,4.2c-1.3,7.4-13.1,3.7-18.7,14.1
		c6.3-3.8,16.1-5.1,22.2-9.3C78.8,95.5,77.8,91.5,76.8,89.5z"/>
	<g>
		<path class="st14" d="M76.5,32.4c0,11.7,0,22.1-26.8,21.1c-24.4-0.9-26.5-8.5-21-21.1c4.7-10.7,6.2-21.2,21-21.2
			S76.5,20.7,76.5,32.4z"/>
		<g>
			<path d="M76.6,32.4c0,3.1,0.1,6.3-0.5,9.4c-0.3,1.5-0.8,3.1-1.6,4.5c-0.8,1.4-1.9,2.6-3.1,3.6c-2.6,2-5.7,2.9-8.8,3.5
				c-3.1,0.6-6.3,0.7-9.4,0.7c-3.1,0-6.3-0.2-9.4-0.6c-3.1-0.4-6.2-0.9-9.2-1.9c-1.5-0.5-2.9-1.1-4.3-2c-1.3-0.9-2.5-2-3.3-3.4
				c-0.7-1.4-1-3-1-4.6c0-1.6,0.4-3.2,0.8-4.7c0.4-1.5,1-3,1.6-4.4c0.6-1.4,1.2-2.9,1.7-4.3c1.1-2.9,2.2-5.9,3.8-8.7
				c1.5-2.8,3.8-5.3,6.7-6.7c2.9-1.5,6.2-1.9,9.4-1.8c6.3,0,12.7,1.9,17.9,5.7c2.5,1.9,4.8,4.2,6.3,7C75.7,26.1,76.6,29.2,76.6,32.4
				z M76.5,32.4c0-3.1-0.9-6.2-2.6-8.9c-1.6-2.6-3.9-4.9-6.5-6.6c-5.1-3.5-11.3-5.1-17.5-5.2c-3.1,0-6.2,0.4-8.9,1.7
				c-2.7,1.3-4.9,3.6-6.4,6.3c-1.5,2.7-2.7,5.6-3.9,8.5c-0.6,1.4-1.2,2.9-1.8,4.3c-0.6,1.4-1.2,2.9-1.7,4.3c-0.5,1.5-0.8,3-0.9,4.5
				c-0.1,1.5,0.2,3.1,0.9,4.5c0.7,1.4,1.8,2.5,3.1,3.3c1.3,0.9,2.7,1.4,4.2,1.9c3,1,6.1,1.4,9.2,1.7c3.1,0.3,6.2,0.4,9.3,0.3
				c3.1,0,6.2-0.2,9.3-0.7c3-0.5,6.1-1.4,8.6-3.1c1.3-0.9,2.3-2,3.1-3.3c0.8-1.3,1.3-2.8,1.7-4.3C76.5,38.7,76.4,35.5,76.5,32.4z"/>
		</g>
	</g>
	<path class="st1" d="M50.5,10.7C34.7,10.7,33,21.9,28,33.4c0,0.1,0,0.1-0.1,0.2c1.6,0.8,3.2,1.6,4.9,2.3c0.4-1.3,1.9-1.6,1.9-3.3
		c0,1.6,0,2.6,0,4c2.9,1,5.9,1.6,9,1.5c0-1.1,0-2.1,0-3.5c0,1.3,0.4,2.4,0.8,3.5c1.9-0.1,3.8-0.5,5.7-1.2c0.4-0.8,0.4-1.7,0.4-3.3
		c0,1.7,0,3.1-0.2,4.6c0,1.7,0,3.4,0,5c8.4-7.5,18.4-6.8,28.6-6.5c0-1.1,0-2.2,0-3.3C79.2,20.9,66.3,10.7,50.5,10.7z"/>
	<g>
		<path class="st13" d="M49.5,8.7C33.7,8.7,32,19.9,27,31.4c0,0.1,0,0.1-0.1,0.2c1.6,0.8,3.2,1.6,4.9,2.3c0.4-1.3,1.9-1.6,1.9-3.3
			c0,1.6,0,2.6,0,4c2.9,1,5.9,1.6,9,1.5c0-1.1,0-2.1,0-3.5c0,1.3,0.4,2.4,0.8,3.5c1.9-0.1,3.8-0.5,5.7-1.2c0.4-0.8,0.4-1.7,0.4-3.3
			c0,1.7,0,3.1-0.2,4.6c0,1.7,0,3.4,0,5c8.4-7.5,18.4-6.8,28.6-6.5c0-1.1,0-2.2,0-3.3C78.2,18.9,65.3,8.7,49.5,8.7z"/>
		<g>
			<path d="M49.5,8.8c-2.9,0-5.8,0.4-8.5,1.6c-2.7,1.2-4.9,3.1-6.5,5.5c-1.6,2.4-2.8,5.1-3.9,7.7c-1.1,2.7-2.1,5.5-3.3,8.1l-0.2-0.6
				c1.6,0.8,3.2,1.6,4.8,2.3l-0.5,0.3c0.2-0.8,0.9-1.3,1.3-1.7c0.4-0.4,0.7-0.9,0.7-1.5h0.7l-0.1,4l-0.2-0.3c2.9,1,5.9,1.7,8.9,1.6
				L42.6,36l0-3.5h0.3c0,0.6,0.1,1.2,0.2,1.7c0.1,0.6,0.4,1.1,0.6,1.7l-0.2-0.1c1.9-0.1,3.9-0.5,5.7-1.2l-0.1,0.1
				c0.5-0.9,0.4-2.1,0.4-3.2H50c0,1.5,0,3.1-0.1,4.6l0,0l0.1,5l-0.5-0.2c1.9-1.7,4-3.2,6.4-4.2c2.3-1.1,4.8-1.8,7.3-2.1
				c5-0.8,10.1-0.6,15.2-0.4l-0.5,0.5c0-1.8,0.1-3.7-0.1-5.4c-0.2-1.8-0.7-3.5-1.4-5.1c-1.4-3.3-3.7-6.1-6.5-8.4
				c-2.8-2.3-6-4-9.4-5.2C56.8,9.4,53.1,8.8,49.5,8.8z M49.5,8.7c3.7,0,7.3,0.5,10.8,1.5c3.5,1.1,6.9,2.7,9.8,4.9
				c2.9,2.3,5.4,5.2,6.9,8.6c0.8,1.7,1.3,3.5,1.5,5.4c0.2,1.9,0.1,3.7,0.1,5.5l0,0.5l-0.5,0c-5-0.1-10.1-0.4-15,0.3
				c-2.5,0.4-4.9,1-7.1,2c-2.3,1-4.4,2.3-6.3,4l-0.6,0.5l0-0.7l0.1-5v0l0,0c0.2-1.5,0.2-3,0.3-4.5H50c0,0.6,0,1.1-0.1,1.7
				c0,0.6-0.2,1.2-0.4,1.7l0,0.1l-0.1,0c-1.9,0.7-3.8,1.1-5.8,1.2l-0.1,0l0-0.1c-0.5-1.1-0.8-2.3-0.8-3.5h0.3l0,3.5l0,0.2l-0.2,0
				c-3.1,0.1-6.2-0.5-9.1-1.4l-0.2-0.1l0-0.2l-0.1-4h0.7c0,0.4-0.1,0.7-0.2,1.1c-0.1,0.4-0.4,0.7-0.6,0.9c-0.5,0.5-0.9,0.9-1,1.4
				l-0.1,0.4l-0.4-0.2c-1.7-0.7-3.3-1.4-5-2.3l-0.4-0.2l0.2-0.4c1.1-2.7,2.2-5.4,3.3-8.1c1.1-2.7,2.4-5.4,4.2-7.8
				c1.7-2.4,4.1-4.3,6.9-5.4C43.6,9,46.6,8.7,49.5,8.7z"/>
		</g>
	</g>
	<path class="st12" d="M49.7,11.3c-13.5,0-17.7,8.4-21.5,18c6.9,1.9,14.6,1.2,21.6-0.8c3.9,12.4-2.4,22.3-12.9,23.5
		c3.3,0.8,7.5,1.3,12.8,1.5c26.8,1,26.8-9.5,26.8-21.1C76.5,20.7,64.5,11.3,49.7,11.3z"/>
	<g>
		<path class="st19" d="M50,5.1c-6.1,0-12.7,0.8-19.6,7.2c-4.1,3.8-7.9,6.1-9.2,8.1c-3.7,5.8,11.8,11.8,29.7,5.4c1-0.4,0,5,1.3,13.7
			c1.2,8.8-5.3,10.8-9.4,15.1c0,0,1.3,0,0,3.2S37,74.4,41.2,82.9l-6.9,5.6c0,0-2.3,2.4-0.2,6.9c0.1,0.1,0.1,0.2,0.2,0.4
			c2.4,4.8,7.3,15.4,6.3-3c0,0,29.7,12.7,20.4-12.5s-4.1-25.2-4.1-25.2l0.2-0.2c17.8-1.2,19.8-8.6,21.6-22.9
			C79.9,21.7,70.5,5.1,50,5.1z"/>
		<path d="M50,5.1c-4.2,0-8.5,0.5-12.3,2.3c-1.9,0.9-3.7,2-5.3,3.4c-0.8,0.7-1.6,1.4-2.4,2.1c-0.8,0.7-1.6,1.4-2.4,2.1
			c-1.6,1.4-3.3,2.6-4.9,4.1c-0.7,0.7-1.5,1.5-1.7,2.5c-0.2,0.9,0.1,1.9,0.8,2.7c1.4,1.5,3.4,2.3,5.3,2.9c2,0.6,4.1,0.9,6.2,1
			c4.2,0.2,8.4-0.3,12.5-1.2c1-0.2,2-0.5,3-0.8c0.5-0.2,1-0.3,1.5-0.5l0.4-0.1l0,0l0,0l0.1,0l0,0c0,0,0,0,0.1,0
			c0.3,0,0.4,0.2,0.5,0.3c0.3,0.4,0.2,0.7,0.3,1c0.1,2.2,0.1,4.3,0.2,6.4c0.1,2.1,0.3,4.2,0.6,6.3c0.3,2.1,0.2,4.4-0.7,6.4
			c-0.8,2-2.4,3.6-4.1,5c-1.6,1.4-3.4,2.6-4.8,4.1l-0.2-0.4c0.5,0.1,0.7,0.5,0.8,0.9c0.1,0.4,0,0.7-0.1,1c-0.1,0.6-0.4,1.2-0.6,1.8
			c-0.5,1.1-0.9,2.3-1.2,3.5c-0.7,2.3-1.3,4.7-1.7,7.1c-0.4,2.4-0.6,4.9-0.4,7.3c0.1,2.4,0.6,4.9,1.7,7l0.1,0.1l-0.1,0.1l-6.9,5.7
			l0,0c-0.7,0.8-1,2-1,3.1c0,1.1,0.3,2.2,0.7,3.3c1,2,2,4.1,3.2,6.1c0.3,0.5,0.6,0.9,1,1.3c0.4,0.4,0.9,0.7,1.1,0.4
			c0.3-0.3,0.5-0.9,0.6-1.4c0.1-0.5,0.2-1.1,0.2-1.7c0.1-2.3,0-4.6-0.1-6.9l0-0.5l0.5,0.2c2.4,1,4.8,1.7,7.3,2.3
			c2.5,0.6,5.1,0.9,7.6,0.7c1.2-0.1,2.5-0.4,3.6-0.9c1.1-0.5,2-1.4,2.5-2.5c1-2.2,0.7-4.9,0.2-7.3c-0.6-2.5-1.6-4.8-2.4-7.3
			c-0.9-2.4-1.7-4.9-2.4-7.4c-0.7-2.5-1.4-5-1.8-7.6c-0.2-1.3-0.3-2.6-0.3-4c0-0.7,0.1-1.4,0.3-2.1c0.1-0.3,0.3-0.7,0.5-1
			c0.3-0.3,0.5-0.7,1.2-0.7l-0.3,0.1l0.2-0.2l0.1-0.1l0.2,0c3.3-0.2,6.6-0.7,9.7-1.7c1.5-0.5,3-1.3,4.3-2.2c1.3-1,2.4-2.2,3.3-3.5
			c1.7-2.7,2.5-6,3.1-9.3c0.3-1.6,0.5-3.3,0.8-4.9c0.3-1.6,0.3-3.2,0.1-4.9c-0.8-6.5-4.5-12.6-9.7-16.7C63.3,7,56.6,5.1,50,5.1z
			 M50,5c3.3,0,6.7,0.4,9.9,1.4c3.2,1,6.2,2.5,8.9,4.5c5.3,4,9.2,10.1,10.2,16.9c0.2,1.7,0.2,3.4,0,5.1c-0.2,1.7-0.4,3.3-0.7,5
			c-0.6,3.3-1.4,6.7-3.2,9.6c-0.9,1.5-2.1,2.8-3.5,3.8c-1.4,1-3,1.8-4.6,2.4c-3.2,1.1-6.6,1.6-10,1.8l0.3-0.1l-0.2,0.2L57,55.6
			l-0.2,0c0.1,0-0.1,0-0.1,0.1c-0.1,0.1-0.2,0.1-0.2,0.2c-0.1,0.2-0.3,0.4-0.3,0.7c-0.2,0.5-0.2,1.2-0.3,1.8c0,1.2,0.1,2.5,0.3,3.8
			c0.4,2.5,1,5,1.7,7.5c0.7,2.5,1.5,4.9,2.4,7.4c0.8,2.4,1.9,4.8,2.4,7.4c0.3,1.3,0.5,2.6,0.5,3.9c0,1.3-0.2,2.7-0.8,4
			c-0.6,1.3-1.6,2.3-2.9,2.9c-1.2,0.6-2.6,0.9-3.9,1c-2.7,0.2-5.3-0.2-7.8-0.8c-2.5-0.6-5-1.4-7.4-2.4l0.5-0.3c0.1,2.3,0.2,4.6,0,7
			c0,0.6-0.1,1.2-0.2,1.7c-0.1,0.6-0.2,1.2-0.7,1.7c-0.3,0.3-0.8,0.3-1.1,0.2c-0.3-0.1-0.6-0.4-0.8-0.6c-0.4-0.4-0.8-0.9-1.1-1.4
			c-1.3-2-2.2-4.1-3.2-6.2C33.3,94.1,33,93,33,91.8c0-1.2,0.3-2.4,1.1-3.4l0,0l0,0l6.9-5.6l0,0.2c-1.1-2.2-1.6-4.7-1.7-7.2
			c-0.1-2.5,0-4.9,0.4-7.4c0.4-2.4,0.9-4.8,1.6-7.2c0.4-1.2,0.7-2.3,1.2-3.5c0.2-0.6,0.4-1.1,0.5-1.7c0.1-0.3,0.1-0.6,0-0.8
			c0-0.3-0.2-0.4-0.3-0.4l-0.5,0l0.4-0.4c1.5-1.6,3.2-2.8,4.8-4.2c1.6-1.3,3.1-2.9,3.8-4.8c0.8-1.9,0.8-4,0.5-6.1
			c-0.3-2.1-0.5-4.2-0.6-6.3c-0.1-2.1-0.1-4.3-0.2-6.3c0-0.2-0.1-0.5-0.1-0.6c0,0,0,0.1,0.2,0.1c0,0,0,0,0,0l0,0l0,0
			c-0.1,0,0.1,0,0,0l0,0l0,0l-0.4,0.1c-0.5,0.2-1,0.3-1.5,0.5c-1,0.3-2,0.6-3.1,0.9c-4.1,1-8.4,1.4-12.7,1.2
			c-2.1-0.1-4.3-0.5-6.3-1.1c-2-0.6-4.1-1.5-5.6-3.2c-0.7-0.8-1.2-2-0.9-3.2c0.3-1.2,1.1-2,1.9-2.7c1.6-1.4,3.3-2.7,5-4
			c0.8-0.7,1.6-1.3,2.4-2c0.8-0.7,1.6-1.4,2.4-2.1c1.7-1.3,3.5-2.5,5.4-3.3C41.4,5.5,45.7,5,50,5z"/>
	</g>
	<path class="st17" d="M45.8,76.5c2,0,5,1,7,0c1-1,0-4-1-5c-9-2-7-8-8-15c0-0.4-0.2-0.8-0.4-1.1c0,0.5-0.1,1.2-0.6,2.2
		c-1.3,3.1-5.8,16.8-1.6,25.3l-4.6,3.7C42.4,86.6,45.8,82,45.8,76.5z"/>
	<path class="st17" d="M54.9,5.4c3.5,1.7,6.7,3.9,3.8,8.1c14,5,22,17,13,32c-4,7-13,7-21,8c2,14,13,28,6,39c-3,4-14-8-19,0
		c-1.4,2.1,0.7,5.2,2.7,8.3c0.2-1.6,0.3-4.2,0-8c0,0,29.7,12.7,20.4-12.5s-4.1-25.2-4.1-25.2l0.2-0.2c17.8-1.2,19.8-8.6,21.6-22.9
		C79.8,22.6,72,7.8,54.9,5.4z"/>
	<g>
		<path class="st15" d="M43.4,55.7c0,0.5-0.2,1.1-0.6,1.9c-1.3,3-5.6,15.9-2,24.4C47,76.2,47.4,64.3,43.4,55.7z"/>
		<g>
			<path d="M43.4,56C43.3,57,42.8,58,42.6,59c-0.3,1.1-0.6,2.2-0.9,3.2c-0.6,2.2-1,4.4-1.4,6.6c-0.4,2.2-0.7,4.4-0.6,6.7
				c0.1,2.2,0.5,4.5,1.4,6.5l-0.4-0.1c1.6-1.7,2.7-3.7,3.5-5.8c0.8-2.2,1.1-4.4,1.3-6.7C45.7,64.8,45,60.3,43.4,56z M43.4,55.7
				c1.2,2,2,4.3,2.5,6.6c0.5,2.3,0.7,4.7,0.6,7.1c-0.1,2.4-0.6,4.7-1.5,7c-0.9,2.2-2.2,4.3-4,5.9l-0.3,0.3l-0.1-0.3
				c-0.8-2.2-1.1-4.4-1.3-6.7c-0.2-2.3-0.1-4.5,0.1-6.8c0.3-2.3,0.8-4.5,1.5-6.6c0.3-1.1,0.7-2.1,1.2-3.2
				C42.5,57.8,43.1,56.8,43.4,55.7l-0.1-0.1L43.4,55.7z"/>
		</g>
	</g>
	<g>
		<path d="M46.4,16.3c1,1.3,0.2,2.4-1.1,3.4c-1.3,1-2.5,1.5-3.6,0.2c-1-1.3-0.8-3.2,0.5-4.2S45.4,15,46.4,16.3z"/>
		<ellipse class="st16" cx="42.4" cy="17.5" rx="0.4" ry="0.5"/>
	</g>
	<g>
		<path d="M28.9,13.3c0.1,0.6-0.6,1.4-1.4,2.3c-0.9,0.9-1.6,1.5-1.7,0.9c-0.1-0.6,0.5-1.8,1.4-2.7C28,12.9,28.8,12.7,28.9,13.3z"/>
		<path class="st16" d="M26.9,14.7c-0.1,0.2-0.2,0.3-0.3,0.4c-0.1,0-0.1-0.1,0-0.2c0.1-0.2,0.2-0.3,0.3-0.4
			C27,14.5,27,14.6,26.9,14.7z"/>
	</g>
	<g>
		<path class="st19" d="M42.7,12c0-1.3-1-2.8-2.2-3.9c-2.5-2.5-5.5-4.2-6.2-3.3c-0.8,1.1-1.2,3.7-0.7,7c0.2,1.6,0.9,2.8,2,3.4
			C37.8,13.3,40.1,12.3,42.7,12z"/>
		<g>
			<path d="M42.7,12c-0.1-0.9-0.7-1.7-1.3-2.4c-0.6-0.7-1.3-1.4-2-2c-0.7-0.6-1.5-1.2-2.2-1.8C36.8,5.5,36.4,5.3,36,5
				c-0.4-0.2-0.9-0.4-1.3-0.3c-0.1,0-0.2,0.1-0.2,0.1c-0.1,0.1-0.1,0.2-0.2,0.3c-0.1,0.2-0.2,0.4-0.3,0.6c-0.1,0.5-0.2,0.9-0.2,1.4
				c-0.1,1,0,1.9,0.1,2.8c0.1,0.9,0.2,1.9,0.5,2.7c0.3,0.8,0.8,1.5,1.5,1.9l-0.6,0.1C37.4,13,40,11.9,42.7,12z M42.7,12.1
				c-1.3,0.3-2.5,0.7-3.6,1.3c-1.1,0.6-2.1,1.3-3,2.2l-0.3,0.3l-0.3-0.2c-1-0.5-1.7-1.5-2-2.5c-0.3-1-0.4-2-0.4-3c0-1,0.1-2,0.2-3
				c0.1-0.5,0.2-1,0.4-1.4c0.1-0.2,0.2-0.5,0.3-0.7c0.1-0.1,0.1-0.2,0.2-0.3c0.1-0.1,0.2-0.2,0.4-0.3c0.6-0.2,1.1,0,1.6,0.2
				c0.5,0.2,0.9,0.4,1.4,0.6c0.9,0.5,1.7,1,2.4,1.7c0.7,0.7,1.4,1.4,2,2.2C42.5,10,42.9,11,42.7,12.1L42.7,12.1L42.7,12.1z"/>
		</g>
	</g>
	<path class="st17" d="M42.7,12c0-1.3-1-2.8-2.2-3.9c-2.5-2.5-5.5-4.2-6.2-3.3c-0.8,1.1-1.2,3.7-0.7,7c0.2,1.6,0.9,2.8,2,3.4
		C37.8,13.3,40.1,12.3,42.7,12z"/>
	<g>
		<path class="st15" d="M54.8,23.5c-9.3-5.6-20.3,0.9-30.6-1.3c0,0,0,0,0,0c0,0-0.1,0-0.1,0c0,0,0,0,0,0c0,0,0,0,0,0
			c-1.1,0.2-2.2,0.4-3.3,0.6c0,0.1,0,0.1,0,0.2c-0.3,0.2-0.6,0.4-0.6,0.4c-1,4.4,2.6,2.1,2.6,2.1c0,0,0,0,0,0
			c4.5,3.3,15.7,4.7,28.1,0.3c0.8-0.3,0.3,4.2,0.7,8.6C57.8,33.5,60.4,26.7,54.8,23.5z"/>
		<path d="M54.7,23.6c-2.2-1.3-4.8-2-7.4-2.1c-2.6-0.1-5.1,0.2-7.7,0.6c-2.6,0.4-5.1,0.8-7.7,0.9c-2.6,0.2-5.3,0.1-7.8-0.6l-0.5-0.1
			L24,22l0,0l0.2,0.4l-0.1,0l0-0.5l0,0l-0.1,0.5l0,0l0.1,0c-1.1,0.2-2.2,0.4-3.4,0.5l0.1-0.2l0,0.2l0,0.1l-0.1,0.1
			c-0.2,0.1-0.4,0.3-0.6,0.4l0.1-0.1c-0.1,0.4-0.2,0.8-0.2,1.2c0,0.4,0.1,0.8,0.3,1.1c0.3,0.2,0.7,0.2,1.1,0.1
			c0.4-0.1,0.8-0.3,1.1-0.5l-0.1,0.1l0,0l0-0.3l0.2,0.2c1.3,0.9,2.7,1.5,4.2,1.9c1.5,0.4,3,0.7,4.6,0.8c3.1,0.3,6.2,0.1,9.3-0.3
			c3.1-0.4,6.1-1.2,9.1-2.2l0.6-0.2l0,0l0.1,0l0,0c0,0,0.2,0,0.3,0c0.2,0.1,0.3,0.2,0.4,0.3c0.1,0.2,0.1,0.3,0.2,0.4
			c0.1,0.5,0.1,0.9,0.1,1.3c0,0.8,0,1.6,0,2.4c0,1.6,0,3.1,0.2,4.7L51.6,34c1.2-0.2,2.4-0.6,3.4-1.2c1-0.7,1.9-1.6,2.4-2.8
			c0.5-1.1,0.5-2.5,0-3.6C56.8,25.1,55.8,24.2,54.7,23.6z M54.8,23.5c1.1,0.6,2.1,1.5,2.7,2.7c0.6,1.2,0.7,2.6,0.2,3.9
			c-0.4,1.3-1.3,2.4-2.4,3.2c-1.1,0.8-2.4,1.3-3.7,1.6l-0.4,0.1l-0.1-0.5c-0.2-1.6-0.3-3.2-0.3-4.8c0-0.8,0-1.6,0-2.3
			c0-0.4,0-0.8-0.1-1.1c0-0.1,0-0.1,0-0.1c0,0,0,0.1,0.2,0.1c0.1,0,0.3,0,0.2,0l0,0l0,0c-0.1,0,0.1,0,0.1,0l0,0l-0.6,0.2
			c-3,1.1-6.1,1.8-9.3,2.2c-3.2,0.4-6.4,0.5-9.5,0c-3.1-0.4-6.3-1.2-9-3.1l0.3-0.1l0,0l0,0.1l-0.1,0c-0.4,0.2-0.8,0.4-1.2,0.5
			c-0.4,0.1-1,0.1-1.4-0.2c-0.4-0.4-0.4-0.9-0.4-1.3c0-0.4,0.1-0.9,0.2-1.3l0-0.1l0,0c0.2-0.2,0.4-0.3,0.6-0.4L20.6,23l0-0.2l0-0.2
			l0.2,0c1.1-0.2,2.2-0.4,3.3-0.6l0,0l0,0l0,0l-0.1,0.5l0,0l-1-0.2l1-0.2l0.1,0l0.9-0.2l-0.7,0.6l0,0L24.2,22
			c2.5,0.5,5.1,0.4,7.7,0.2c2.6-0.2,5.1-0.7,7.7-0.9c2.6-0.3,5.2-0.4,7.8-0.2C50,21.4,52.5,22.1,54.8,23.5z"/>
	</g>
	<path class="st18" d="M20.2,25.5c0.6,1.2,2.6,0,2.6,0c0,0,0,0,0,0c4.5,3.2,15.6,4.7,27.8,0.4C41,24,30.6,25.4,20.2,25.5z"/>
	<path class="st18" d="M53.8,26.5c-0.9-0.2-1.7-0.4-2.6-0.6c0.4,0.8,0.1,4.4,0.4,8C54.1,30.4,56.2,26.5,53.8,26.5z"/>
	<g>
		<path class="st21" d="M22.5,21.8c0.5,0.2,1,0.3,1.6,0.4c0,0,0.1,0,0.1,0c13.2-11.1,31-10.9,47.3-8.6C66.7,8.7,59.5,5.1,50,5.1
			c-6.1,0-12.7,0.8-19.6,7.2c-4.1,3.8-7.9,6.1-9.2,8.1c-0.4,0.6-0.6,1.2-0.5,1.8c0,0.2,0,0.4,0.1,0.6c1.1-0.2,2.2-0.4,3.3-0.6
			C23.6,22.1,23.1,22,22.5,21.8z"/>
		<path d="M22.6,21.8c0.5,0.2,1,0.3,1.6,0.4l0,0l0.1,0l0,0c3.2-2.7,6.7-4.9,10.5-6.6c1.9-0.8,3.9-1.5,5.9-2c2-0.5,4.1-0.9,6.1-1.1
			c4.1-0.5,8.3-0.5,12.4-0.2c4.1,0.2,8.2,0.7,12.3,1.2l-0.2,0.3c-3.5-3.5-8-5.9-12.8-7.1C53.8,5.4,48.7,5.3,43.9,6
			c-2.4,0.4-4.8,1.1-7,2.2c-2.2,1.1-4.2,2.6-6,4.2C29,14.2,27,15.7,25,17.2c-1,0.8-2,1.5-2.9,2.4C21.7,20,21.3,20.4,21,21
			c-0.3,0.5-0.3,1.2-0.2,1.8l-0.1-0.1c1.1-0.1,2.2-0.3,3.3-0.5l0,0.1C23.6,22.1,23,22,22.6,21.8L22.6,21.8z M22.6,21.8
			c0.5,0.2,1,0.3,1.6,0.4l0.3,0.1l-0.3,0.1c-1.1,0.2-2.2,0.4-3.3,0.6l-0.1,0l0-0.1c-0.2-0.6-0.1-1.3,0.2-1.9
			c0.2-0.6,0.6-1.1,1.1-1.6c0.9-0.9,1.8-1.7,2.8-2.5c1.9-1.6,3.8-3.2,5.6-4.9c3.6-3.5,8.4-6,13.4-6.8c2.5-0.4,5.1-0.5,7.6-0.4
			c2.5,0.1,5.1,0.5,7.5,1.2c4.9,1.3,9.4,4,12.8,7.7l0.4,0.4l-0.5-0.1c-4.1-0.6-8.2-1-12.3-1.1c-4.1-0.1-8.2,0.1-12.3,0.6
			c-2,0.3-4,0.6-6,1.1c-2,0.5-4,1.1-5.9,1.8c-3.8,1.4-7.5,3.4-10.7,6.1l0,0l0,0l-0.1,0l0,0l0,0C23.6,22.1,23,22,22.6,21.8L22.6,21.8
			z"/>
	</g>
	<g>
		<path class="st19" d="M68,18.9c1.6-0.8,2.4-2.8,2.7-4.9c0.8-4.4,0.2-9-1.4-9.2c-2-0.3-5.3,0.9-8.7,3.4c-1.7,1.2-2.5,2.8-2.3,4.5
			C62.3,13.9,65.5,16.1,68,18.9z"/>
		<g>
			<path d="M68,18.9c1.1-0.7,1.6-1.8,1.9-3c0.3-1.2,0.5-2.4,0.6-3.7c0.1-1.2,0.1-2.5,0.1-3.7c0-0.6-0.1-1.2-0.2-1.8
				c-0.1-0.6-0.3-1.2-0.8-1.5C69.5,5,69.4,5,69.3,5c-0.2,0-0.3,0-0.5,0c-0.3,0-0.6,0-0.9,0.1c-0.6,0.1-1.2,0.3-1.8,0.5
				c-1.2,0.5-2.3,1.1-3.3,1.8c-1,0.7-2.1,1.4-2.9,2.3c-0.8,0.9-1.2,2-1,3.1l-0.4-0.4c1.9,0.6,3.7,1.5,5.3,2.6
				C65.5,15.9,66.9,17.3,68,18.9z M68,19c-1.4-1.3-2.9-2.5-4.6-3.5c-1.6-1-3.4-1.7-5.2-2.3l-0.3-0.1l-0.1-0.3
				c-0.2-1.5,0.4-2.9,1.3-3.9c0.2-0.2,0.5-0.5,0.7-0.7c0.3-0.2,0.5-0.4,0.8-0.6c0.5-0.4,1.1-0.7,1.6-1C63.6,6,64.7,5.5,66,5.1
				c0.6-0.2,1.2-0.3,1.9-0.4c0.3,0,0.6-0.1,1-0.1c0.2,0,0.3,0,0.5,0c0.2,0,0.4,0.1,0.5,0.2c0.6,0.4,0.9,1.1,1.1,1.7
				c0.2,0.6,0.4,1.3,0.5,1.9c0.2,1.3,0.2,2.6,0.1,3.9c-0.1,1.3-0.4,2.6-0.9,3.8C70.1,17.3,69.3,18.5,68,19L68,19L68,19z"/>
		</g>
	</g>
	<path class="st17" d="M69.4,4.8c-0.3,0-0.6,0-0.9,0c2.3,2.4,2,6.3,0.3,8.8c-1.1,1.8-2.5,2.3-4.2,2.3c1.3,0.9,2.4,2,3.4,3.1
		c1.6-0.8,2.4-2.8,2.7-4.9C71.5,9.7,70.9,5.1,69.4,4.8z"/>
	<g>
		<path class="st15" d="M64.3,15.5c0.9-0.8,0.9-1.6,1.4-3.1c1-3.1,2.2-6.3,1.4-6.2c-1,0.1-3.7,1.5-5.8,3.7c-1.1,1.1-1.4,2-1.5,3.2
			C61.6,13.3,63.4,13.9,64.3,15.5z"/>
		<g>
			<path d="M64.3,15.4c0.5-0.7,0.6-1.4,0.7-2.3c0.2-0.9,0.5-1.7,0.7-2.5c0.3-0.8,0.6-1.6,0.9-2.4c0.2-0.4,0.3-0.8,0.4-1.2
				c0-0.2,0.1-0.4,0.1-0.6c0-0.1,0-0.1-0.1-0.1c0,0-0.2,0-0.3,0c-0.8,0.2-1.5,0.7-2.2,1.1c-0.7,0.5-1.3,1-1.9,1.6
				c-0.6,0.6-1.2,1.2-1.6,1.8c-0.4,0.6-0.7,1.3-0.8,2.2l-0.4-0.6c0.9,0.2,1.8,0.4,2.6,0.9C63.3,13.9,63.9,14.6,64.3,15.4z
				 M64.2,15.6c-0.5-0.7-1.3-1.2-2.1-1.5c-0.8-0.3-1.6-0.4-2.5-0.5l-0.5,0l0-0.5c0-0.9,0.3-1.9,0.9-2.6c0.6-0.8,1.2-1.3,1.9-1.9
				c0.7-0.5,1.4-1,2.2-1.4c0.8-0.4,1.6-0.8,2.5-1c0.1,0,0.2-0.1,0.4,0c0.2,0.1,0.3,0.3,0.3,0.4c0,0.3,0,0.5,0,0.7
				c-0.1,0.4-0.1,0.9-0.2,1.3c-0.2,0.9-0.4,1.7-0.6,2.5c-0.3,0.8-0.6,1.6-0.8,2.4c-0.1,0.4-0.3,0.8-0.5,1.2
				C65,15,64.7,15.4,64.2,15.6L64.2,15.6L64.2,15.6z"/>
		</g>
	</g>
	<path d="M26,22.8c-0.5,1.6-1.6,2.3-3.5,2.2c-1.8-0.1-3.2-2.5-3.1-4.2c0.1-1.7,1.6-1.9,3.4-1.8C24.7,19,26.9,19.9,26,22.8z"/>
	<ellipse class="st16" cx="21" cy="20.3" rx="0.8" ry="0.4"/>
	<g>
		<path class="st17" d="M31.9,89.5c2.2,0.4,4.3,0.3,6.2-0.6c4.3-2,6.4-7.6,6.8-13.4C38,76.2,32.7,82.3,31.9,89.5z"/>
		<g>
			<path class="st0" d="M42.1,61.4c3.3,7.2,2.6,21.9-5,25.5c-7.7,3.6-19.4-5.4-22.7-12.6c-3.3-7.2,1.9-12.9,9.5-16.5
				C31.5,54.3,38.8,54.2,42.1,61.4z"/>
			<path d="M42.1,61.4c0.9,1.9,1.4,3.9,1.7,5.9c0.3,2,0.5,4.1,0.4,6.2c-0.1,2.1-0.4,4.2-1,6.2c-0.6,2-1.6,3.9-3.1,5.5
				c-1.5,1.6-3.5,2.6-5.6,2.7c-2.1,0.2-4.2-0.3-6.1-1c-3.9-1.5-7.3-3.9-10.2-6.9c-1.4-1.5-2.8-3.1-3.8-5c-1-1.8-1.6-4-1.4-6.2
				c0.2-2.2,1.3-4.2,2.6-5.8c1.4-1.6,3.1-2.9,4.9-4c1.8-1.1,3.7-2,5.6-2.7c2-0.7,4-1.2,6.1-1.2c2.1-0.1,4.3,0.4,6,1.5
				C40,57.8,41.3,59.5,42.1,61.4z M42.1,61.5c-0.9-1.8-2.2-3.5-4-4.5c-1.8-1-3.9-1.3-5.8-1.1c-2,0.2-4,0.7-5.8,1.5
				c-1.9,0.8-3.7,1.6-5.4,2.7c-1.7,1.1-3.3,2.3-4.6,3.8c-1.3,1.5-2.3,3.3-2.5,5.2C13.6,71,14.1,73,15,74.7c0.9,1.8,2.1,3.4,3.5,5
				c2.7,3,6.1,5.5,10,6.9c1.9,0.7,4,1,6,0.8c2-0.3,3.8-1.3,5.1-2.8c1.4-1.5,2.2-3.3,2.9-5.2c0.7-1.9,1-3.9,1.2-5.9
				C44,69.5,43.7,65.2,42.1,61.5z"/>
		</g>
		<path class="st6" d="M38.6,55.8c-4-1.3-9-0.3-14.1,2.1c-6.2,2.9-10.9,7-11.8,12.1c1.1,3,2.1,5.9,4.1,8.5c4-5.2,8.8-3.7,16.9-6.4
			c-0.4-1,1.3-2.9-0.3-3.4c3.2-1.5,7,3.8,10-1.1c-0.4-1-1.3-2.9-1.8-3.9c0.4-0.2,1-0.1,1.6,0.1C42.4,60.7,41.3,58,38.6,55.8z"/>
		<g>
			<path class="st11" d="M32.7,71.1c-0.4-1,1.3-2.9-0.3-3.4c3.2-1.5,7,3.8,10-1.1c-0.4-1-1.3-2.9-1.8-3.9c1.1-0.5,3,0.9,4.1,0.4
				c0.1-0.1,0.1-0.3,0.1-0.4c-0.2-0.6-0.4-1.2-0.7-1.8c-3.8-8.2-12-8.1-20.7-4.1c-8.7,4-14.6,10.5-10.8,18.7c0.5,1.1,1.2,2.3,2,3.4
				C18.9,71.9,23.9,74,32.7,71.1z"/>
			<g>
				<path d="M32.6,71c-0.1-0.3-0.1-0.6,0-0.9c0.1-0.3,0.2-0.6,0.2-0.9c0.1-0.3,0.1-0.6,0.1-0.9c0-0.3-0.3-0.4-0.5-0.5l-0.5-0.1
					l0.5-0.2c0.9-0.5,1.9-0.4,2.8-0.2c0.9,0.2,1.8,0.6,2.6,0.8c0.9,0.2,1.7,0.3,2.5,0c0.7-0.3,1.3-1,1.7-1.7l0,0.4l-1.8-3.8L40,62.5
					l0.4-0.2c0.5-0.2,0.9-0.2,1.3-0.1c0.4,0.1,0.7,0.2,1.1,0.3c0.6,0.2,1.4,0.4,1.8,0.2L44.3,63l0.1-0.4l0,0.3
					c-0.7-2.1-1.7-4.1-3.3-5.6c-0.8-0.8-1.7-1.4-2.7-1.9c-1-0.5-2.1-0.7-3.2-0.9c-2.2-0.3-4.5,0.1-6.6,0.7c-2.1,0.6-4.2,1.5-6.2,2.6
					c-2,1.1-3.9,2.3-5.5,3.7c-1.7,1.5-3.1,3.1-4,5.1c-0.9,2-1.1,4.2-0.6,6.3c0.5,2.1,1.6,4.1,2.8,5.8l-0.8,0c0.9-1.5,2-2.9,3.5-3.9
					c1.5-1,3.2-1.5,4.9-1.9c1.7-0.3,3.4-0.5,5-0.8C29.4,71.9,31,71.5,32.6,71z M32.7,71.1c-1.6,0.6-3.2,1.1-4.9,1.5
					c-1.7,0.4-3.3,0.7-5,1.1c-1.6,0.4-3.2,0.9-4.5,1.9c-1.3,1-2.3,2.3-3.1,3.7l-0.4,0.7l-0.5-0.6c-1.3-1.8-2.5-3.9-3.1-6.2
					c-0.6-2.3-0.3-4.8,0.8-6.9c1-2.1,2.6-3.9,4.4-5.4c1.8-1.5,3.7-2.6,5.8-3.6c2-1,4.2-1.8,6.4-2.4c2.2-0.6,4.5-0.9,6.8-0.7
					c2.3,0.2,4.5,1.1,6.2,2.7c1.7,1.5,2.9,3.6,3.7,5.8l0,0.1l0,0.2c0,0.1-0.1,0.3-0.2,0.4L45,63.4l-0.2,0.1
					c-0.5,0.2-0.9,0.2-1.3,0.1c-0.4-0.1-0.7-0.2-1.1-0.3c-0.7-0.2-1.4-0.4-1.7-0.2l0.2-0.6l1.8,3.9l0.1,0.2l-0.1,0.2
					c-0.5,0.8-1.2,1.6-2.1,2c-1,0.4-2,0.3-2.9,0c-0.9-0.3-1.7-0.7-2.6-0.9c-0.8-0.3-1.7-0.4-2.5,0l0-0.4c0.3,0.1,0.7,0.4,0.7,0.8
					c0,0.4,0,0.7-0.1,1l-0.3,0.9C32.7,70.5,32.6,70.8,32.7,71.1L32.7,71.1L32.7,71.1z"/>
			</g>
		</g>
		<ellipse transform="matrix(0.9189 -0.3944 0.3944 0.9189 -21.8023 14.4049)" class="st2" cx="24.1" cy="60.2" rx="4.4" ry="1"/>
		<g>
			<path class="st8" d="M25.3,59.5l-3.2-6.9c-0.2-0.4-0.9-0.5-1.6-0.2c-0.7,0.3-1.1,0.9-0.9,1.3l3,6.5
				C23.6,60.1,24.5,59.9,25.3,59.5z"/>
			<path d="M25.2,59.5c-0.9-1.2-1.6-2.6-2.2-3.9c-0.3-0.7-0.5-1.4-0.8-2.1c-0.1-0.2-0.1-0.4-0.2-0.5c-0.1-0.2-0.1-0.3-0.3-0.4
				c-0.3-0.2-0.7-0.1-1,0c-0.3,0.1-0.6,0.4-0.8,0.6c-0.1,0.1-0.1,0.3-0.1,0.4c0,0.1,0,0.1,0.1,0.1l0.1,0.2c0.4,0.7,0.7,1.3,1.1,2
				c0.7,1.3,1.3,2.7,1.8,4.2l-0.4-0.2C23.5,59.8,24.4,59.7,25.2,59.5z M25.4,59.5c-0.8,0.6-1.7,0.9-2.6,1.1l-0.3,0.1l-0.2-0.3
				c-0.8-1.3-1.4-2.7-2-4.1c-0.3-0.7-0.6-1.4-0.8-2.1l-0.1-0.3c0-0.1-0.1-0.3-0.1-0.4c0-0.3,0.2-0.5,0.3-0.7
				c0.3-0.3,0.7-0.5,1.1-0.7c0.4-0.1,0.8-0.2,1.2,0c0.2,0.1,0.4,0.4,0.4,0.5c0.1,0.2,0.2,0.3,0.3,0.5c0.4,0.7,0.8,1.3,1.1,2
				C24.5,56.5,25,58,25.4,59.5L25.4,59.5L25.4,59.5z"/>
		</g>
		<path class="st3" d="M44.1,61c-3.8-8.2-12-8.1-20.7-4.1c-1.3,0.6-2.5,1.2-3.6,1.9c5.9-1.5,12.3-3.6,17.1,0.7
			c-1.5,2.1-4.2,5.3-8.9,5.3c2,3,4.7,3.8,6.7,7.8c1,1,2-2,3-4C43,79,34.6,85.6,25,85.2c4.1,2.3,8.5,3.4,12,1.7
			c7.2-3.3,8.2-16.4,5.6-24c0.7,0.2,1.5,0.4,2,0.2c0.1-0.1,0.1-0.3,0.1-0.4C44.6,62.1,44.4,61.5,44.1,61z"/>
	</g>
	<path class="st12" d="M45.3,63.7c0,0-5.3,6.7-7.2,9.9s-12.2,6.1,2.1,5.1S50.4,73,50.4,73"/>
	<g>
		<path class="st19" d="M46.3,61.7c0,0-5.3,6.7-7.2,9.9s-12.2,6.1,2.1,5.1S51.4,71,51.4,71"/>
		<path d="M46.3,61.7c-1.8,2.9-3.8,5.7-5.8,8.4l-0.8,1c-0.3,0.3-0.5,0.7-0.8,1.1c-0.6,0.7-1.4,1.1-2.1,1.6c-0.7,0.5-1.4,1-2.1,1.5
			c-0.3,0.2-0.7,0.5-0.8,0.8c0,0.2,0,0.1,0.1,0.2c0.1,0.1,0.3,0.1,0.5,0.1c1.6,0.1,3.4-0.1,5-0.2c1.7-0.1,3.4-0.3,5.1-0.5
			c1.7-0.2,3.3-0.5,4.9-1.1c0.7-0.3,1.5-0.7,1.9-1.3c0.4-0.6,0.4-1.5-0.1-2.2l0.1-0.1c0.6,0.6,1,1.7,0.5,2.5c-0.4,0.9-1.2,1.4-2,1.8
			c-1.6,0.8-3.3,1.2-5,1.5c-1.7,0.3-3.4,0.3-5.2,0.4c-1.7,0-3.4,0.1-5.2-0.2c-0.2-0.1-0.4-0.1-0.7-0.2c-0.1-0.1-0.3-0.2-0.3-0.4
			c-0.1-0.2,0-0.4,0.1-0.5c0.3-0.4,0.7-0.6,1-0.9c0.7-0.5,1.4-0.9,2.1-1.4c0.7-0.5,1.3-1.1,1.8-1.7c0.2-0.3,0.4-0.7,0.6-1.1
			c0.2-0.4,0.4-0.7,0.7-1.1C41.7,66.8,43.9,64.1,46.3,61.7L46.3,61.7z"/>
	</g>
	<ellipse cx="40.3" cy="40.1" rx="2.2" ry="2.1"/>
	<g>
		
			<ellipse transform="matrix(-0.9981 -6.216583e-002 6.216583e-002 -0.9981 61.4539 95.3632)" class="st10" cx="32.2" cy="46.7" rx="3.3" ry="1.9"/>
		<path d="M28.9,46.5c0-0.7,0.7-1.2,1.3-1.5c0.6-0.3,1.4-0.4,2.1-0.4c0.7,0,1.4,0.1,2.1,0.5c0.6,0.3,1.3,0.9,1.3,1.8
			c-0.1,0.9-0.9,1.4-1.5,1.6c-0.7,0.2-1.4,0.3-2.1,0.2c-0.7-0.1-1.4-0.3-2-0.6C29.5,47.8,28.9,47.3,28.9,46.5z M28.9,46.5
			c0,0.7,0.6,1.3,1.2,1.6c0.6,0.3,1.3,0.4,2,0.4c0.7,0,1.4-0.1,2-0.4c0.6-0.2,1.2-0.7,1.2-1.3c0-0.6-0.5-1.1-1-1.4
			c-0.6-0.3-1.2-0.5-1.9-0.6c-0.7-0.1-1.4,0-2,0.2C29.7,45.3,29,45.8,28.9,46.5z"/>
	</g>
	<g>
		<path class="st16" d="M32.3,44.8c-1.8-0.1-3.3,0.7-3.4,1.7c0,0,0,0,0,0c2.4,0,4.4,0,6.5,0C35.2,45.6,33.9,44.9,32.3,44.8z"/>
		<path d="M32.3,44.8c-0.7,0-1.4,0-2.1,0.3c-0.3,0.1-0.6,0.3-0.9,0.6c-0.2,0.2-0.4,0.6-0.4,0.9l-0.1-0.1c2.2-0.1,4.4-0.1,6.5,0
			l-0.1,0.1c-0.2-0.6-0.7-1-1.2-1.3C33.6,45,33,44.8,32.3,44.8z M32.3,44.8c0.6,0,1.3,0.2,1.8,0.4c0.6,0.3,1.1,0.7,1.4,1.3l0,0.1
			l-0.1,0c-2.2,0.1-4.4,0.1-6.5,0l-0.1,0l0-0.1c0-0.4,0.2-0.7,0.5-1c0.3-0.2,0.6-0.4,0.9-0.5C30.9,44.8,31.6,44.7,32.3,44.8z"/>
	</g>
	<ellipse class="st16" cx="39.3" cy="39.6" rx="0.5" ry="0.5"/>
	<ellipse class="st9" cx="42.9" cy="44.5" rx="4" ry="1.4"/>
	<ellipse class="st16" cx="44.8" cy="43.2" rx="1.1" ry="0.7"/>
	<ellipse class="st9" cx="45.9" cy="22.3" rx="4.8" ry="1.6"/>
	<ellipse class="st16" cx="48.3" cy="20.7" rx="1.3" ry="0.8"/>
</g>
</svg>
