<?xml version="1.0" encoding="utf-8"?>
<!-- Generator: Adobe Illustrator 15.1.0, SVG Export Plug-In . SVG Version: 6.00 Build 0)  -->
<!DOCTYPE svg PUBLIC "-//W3C//DTD SVG 1.1//EN" "http://www.w3.org/Graphics/SVG/1.1/DTD/svg11.dtd">
<svg version="1.1" id="animals" xmlns="http://www.w3.org/2000/svg" xmlns:xlink="http://www.w3.org/1999/xlink" x="0px" y="0px"
	 width="109px" height="141px" viewBox="0 0 109 141" style="enable-background:new 0 0 109 141;" xml:space="preserve">
<style type="text/css">
<![CDATA[
	.st0{opacity:0.38;fill:#BF7326;}
	.st1{opacity:0.43;}
	.st2{fill:#EDBB8A;}
	.st3{opacity:0.42;fill:#FF9494;}
	.st4{fill:#FF9D33;}
	.st5{fill:#FFE1C5;}
	.st6{fill:#FFFFFF;}
	.st7{opacity:0.46;fill:#B78558;}
	.st8{opacity:0.38;fill:#AA8C71;}
	.st9{fill:#FF9D33;stroke:#000000;stroke-miterlimit:10;}
]]>
</style>
<g>
	<ellipse class="st1" cx="54.5" cy="135.2" rx="39.1" ry="3.8"/>
	<g>
		<path class="st4" d="M16.5,12.6c-1,4.3,1.2,9.6,4.9,11.8c2.8,1.7,6.6,1.8,8.7-0.1c-0.1-2.6,0.3-4.9,1.1-6.9c-1-3.5-3.6-7-6.2-8.5
			C21.3,6.6,17.5,8.3,16.5,12.6z"/>
		<path d="M16.5,12.6c-0.4,1.9-0.2,3.8,0.5,5.5c0.7,1.7,1.7,3.3,3,4.6c1.3,1.3,2.9,2.2,4.8,2.6c1.8,0.4,3.9,0.1,5.2-1.2l-0.1,0.1
			c-0.1-2.4,0-4.8,0.9-7.1l0,0.3c-0.6-1.7-1.4-3.3-2.5-4.7c-1.1-1.4-2.3-2.7-3.7-3.6c-1.5-0.9-3.2-1.3-4.9-0.6
			c-0.8,0.3-1.5,0.9-2.1,1.6C17.1,10.9,16.7,11.7,16.5,12.6z M16.4,12.6c0.4-1.8,1.3-3.5,3.1-4.5c0.8-0.5,1.8-0.7,2.8-0.6
			c1,0,1.9,0.4,2.8,0.8c1.7,0.9,3,2.4,4.1,3.9c1.1,1.5,1.9,3.2,2.4,5l0,0.1l-0.1,0.1c-0.9,2.1-1.3,4.4-1.3,6.8l0,0.1l-0.1,0.1
			c-1.5,1.3-3.6,1.6-5.5,1.4c-1.9-0.2-3.9-1-5.3-2.4c-1.4-1.4-2.4-3.2-2.9-5.1C16,16.4,16,14.5,16.4,12.6z"/>
	</g>
	<path class="st0" d="M25,8.9c-0.9-0.5-1.7-0.8-2.6-0.9c0.5,1,0.8,2.1,0.3,2.6c-2,2.4-4.2,3.8-6.5,4.8c0.2,3.6,2.2,7.3,5.1,9
		c2.8,1.7,6.6,1.8,8.7-0.1c-0.1-2.6,0.3-4.9,1.1-6.9C30.1,13.9,27.6,10.4,25,8.9z"/>
	<g>
		<path class="st4" d="M67.3,105.2c0,0,10.3-4,12.6-19.1c2.3-15.2,18.5-27.8,22.9-24.2s-0.1,4.7-1.4,3.3s-15.6,5.2-18.2,21.9
			s-14.8,24.4-15.9,22.4C67.3,109.5,62.4,110.9,67.3,105.2z"/>
		<path d="M67.3,105.1c2.4-1.2,4.4-2.9,6.1-4.9c1.7-2,3-4.3,4-6.7c1-2.4,1.7-5,2-7.6c0.4-2.7,1.2-5.3,2.4-7.7
			c2.3-4.9,5.7-9.1,9.8-12.6c2-1.7,4.3-3.2,6.8-4.1c1.3-0.4,2.7-0.7,4,0c0.6,0.4,1.1,0.8,1.5,1.3c0.4,0.5,0.9,1.1,0.9,1.9
			c0,0.4-0.3,0.8-0.6,1c-0.3,0.2-0.7,0.3-1.1,0.3c-0.7,0.1-1.5-0.1-2-0.6c-0.1-0.1-0.5-0.1-0.7,0c-0.3,0-0.6,0.1-0.9,0.2
			c-0.6,0.2-1.2,0.5-1.8,0.8c-2.3,1.2-4.4,2.9-6.2,4.8c-3.7,3.8-6.2,8.5-7.4,13.6c-0.3,1.3-0.5,2.6-0.7,3.9c-0.3,1.3-0.6,2.6-1,3.9
			c-0.8,2.6-1.9,5.1-3.3,7.4c-1.4,2.3-3,4.5-4.9,6.4c-1,0.9-2,1.8-3.1,2.5c-0.6,0.4-1.2,0.7-1.8,1c-0.3,0.1-0.7,0.2-1,0.3
			c-0.2,0-0.4,0-0.6,0c-0.2,0-0.4-0.2-0.5-0.4l0.3,0.1c-0.6,0.1-1.2,0.2-1.9,0c-0.3-0.1-0.6-0.5-0.5-0.8c0-0.3,0.1-0.6,0.2-0.9
			C65.8,106.9,66.5,106,67.3,105.1L67.3,105.1L67.3,105.1z M67.4,105.2c-0.7,0.9-1.4,1.8-1.9,2.9c-0.2,0.5-0.3,1.2,0.2,1.3
			c0.5,0.2,1.1,0,1.6-0.1l0.2-0.1l0.1,0.2c0.1,0.2,0.4,0.2,0.7,0.1c0.3,0,0.6-0.2,0.9-0.3c0.6-0.3,1.1-0.6,1.7-1
			c1.1-0.7,2-1.6,3-2.6c1.8-1.9,3.4-4,4.7-6.3c1.3-2.3,2.3-4.7,3.1-7.2c0.4-1.3,0.7-2.5,1-3.8c0.2-1.3,0.4-2.6,0.7-3.9
			c1.2-5.3,4-10.2,7.8-14c1.9-1.9,4.1-3.6,6.5-4.8c0.6-0.3,1.2-0.6,1.9-0.8c0.3-0.1,0.7-0.2,1-0.2c0.4,0,0.7-0.1,1.2,0.2
			c0.4,0.4,1,0.6,1.6,0.5c0.6,0,1.2-0.3,1.3-0.8c0.1-0.5-0.3-1.1-0.7-1.6c-0.4-0.5-0.9-1-1.4-1.3c-1.1-0.6-2.5-0.4-3.7,0
			c-2.5,0.8-4.7,2.4-6.7,4.1c-4,3.5-7.1,7.9-9.3,12.6c-1.1,2.4-1.9,4.9-2.3,7.5c-0.4,2.6-1.1,5.3-2.2,7.7
			C76,98.7,72.3,103.1,67.4,105.2z"/>
	</g>
	<path class="st0" d="M73.8,104.5c-1.3,0.7-3.1,0.4-4.1-0.7c-1.4,0.9-2.3,1.3-2.3,1.3c-4.9,5.8,0,4.3,0,4.3
		c1.1,2,13.2-5.8,15.9-22.4c1.1-7,4.3-12.2,7.7-15.8C81.8,77.2,82.1,94.6,73.8,104.5z"/>
	<path d="M76.2,103.5c0.6-0.7,1.1-1.5,1.7-2.3c-1.4,0.3-2.7,0.3-4.1,0.3C73.8,103.3,74.6,103.5,76.2,103.5z"/>
	<path d="M79.8,88.5c0.8,0,2.1,0,3.2,0c0.1-0.5,0.2-1,0.3-1.5c0-0.3,0.1-0.6,0.2-0.9C82.3,87.5,80.6,87.7,79.8,88.5z"/>
	<path d="M84.8,78.5c-1.3,0.6-1.8,0-2.2-0.7c-0.3,0.6-0.6,1.2-0.8,1.9C82.8,79.9,84,80,84.8,78.5z"/>
	<path d="M95.8,63c-0.9,0.5-1.8,1.2-2.8,1.9c0.8,0.6,1.6,1.1,2.8,1.7C95.8,65.5,95.8,64.2,95.8,63z"/>
	<path d="M102.9,61.9c-0.3-0.2-0.7-0.4-1-0.5c0.1,1.4,0.2,2.8,0.1,4.1C103.5,66.3,106.8,65.2,102.9,61.9z"/>
	<path d="M87.8,70.5c0,1.2,0.3,2.3,0.8,3.5c0.9-1.3,1.9-2.4,2.9-3.4C90.2,71.1,89,71.8,87.8,70.5z"/>
	<path d="M78.1,96.3c0.4,0.2,0.9,0.3,1.6,0.3C79.2,96.4,78.7,96.3,78.1,96.3z"/>
	<path d="M78.1,96.3c-0.5-0.2-0.8-0.5-1.1-0.9c-0.2,0.3-0.3,0.7-0.5,1C77.1,96.3,77.6,96.2,78.1,96.3z"/>
	<path d="M69.8,106.5c0.7-1.4,0.9-2.3,1-3.4c-0.4,0.3-0.8,0.6-1.2,0.8C70,104.7,70.3,105.5,69.8,106.5z"/>
	<path class="st9" d="M37.8,63.5c4-3,4-16,0-20c-6.7-6.7-20.6-4.3-28.8-12.7c-1.5,3.6,1.6,7.6,3,11.5c5,14.4,7.2,20.8,19.9,29
		C33.2,68.6,35.1,65.9,37.8,63.5z"/>
	<g>
		<path class="st2" d="M76.7,44.9c0,14.1,0,26.8-35,25.6C9.8,69.4,7.1,60.2,14.2,45c6.1-12.9,8.1-25.6,27.4-25.6
			C61,19.4,76.7,30.8,76.7,44.9z"/>
		<g>
			<path d="M76.7,44.9c0,3.9,0.1,7.9-0.8,11.8c-0.4,1.9-1.2,3.8-2.3,5.5c-1.1,1.7-2.6,3.1-4.3,4.1c-3.4,2.2-7.4,3.2-11.3,3.9
				C54,70.9,50,71,46.1,71c-4,0-7.9-0.3-11.9-0.7c-3.9-0.4-7.9-1-11.7-2.1c-1.9-0.5-3.8-1.3-5.5-2.2c-1.7-0.9-3.4-2.2-4.5-3.9
				c-1.1-1.7-1.7-3.7-1.7-5.7c0-2,0.4-4,1-5.9c0.6-1.9,1.3-3.8,2.2-5.6c0.8-1.8,1.6-3.6,2.3-5.4c1.5-3.6,3-7.4,5.1-10.8
				c1.1-1.7,2.3-3.3,3.9-4.7c1.5-1.4,3.2-2.5,5.1-3.3c3.7-1.6,7.8-2.1,11.8-2c8,0.1,16,2.1,22.7,6.5c3.3,2.2,6.3,5,8.5,8.3
				C75.5,37,76.8,41,76.7,44.9z M76.6,44.9c0-4-1.3-7.8-3.6-11.1c-2.2-3.2-5.2-5.9-8.6-7.9c-6.7-4.1-14.6-6-22.4-6.1
				c-3.9,0-7.8,0.4-11.4,1.9c-3.6,1.5-6.5,4.2-8.6,7.5c-2.1,3.3-3.6,6.9-5.2,10.5c-0.8,1.8-1.6,3.6-2.5,5.4
				c-0.8,1.8-1.6,3.6-2.2,5.4c-0.6,1.9-1,3.8-1,5.7c0,1.9,0.5,3.9,1.6,5.5c1.1,1.6,2.7,2.9,4.4,3.8c1.7,1,3.6,1.6,5.5,2.1
				c3.8,1.1,7.7,1.6,11.7,1.9c3.9,0.3,7.9,0.4,11.8,0.4c3.9,0,7.9-0.2,11.8-0.8c3.9-0.6,7.7-1.5,11.1-3.5c1.7-1,3.2-2.3,4.3-3.9
				c1.2-1.6,1.9-3.4,2.4-5.3C76.6,52.9,76.6,48.9,76.6,44.9z"/>
		</g>
	</g>
	<path class="st7" d="M41.7,19.4c-6.9,0-11.6,1.6-15.1,4.3c1,2.5,2.3,5.2,3.6,7.9c-6.8,0-13.8,3.1-14.8,10.3l-0.6,2l2.2-1.2l1,1.3
		l0.4-1.3l1,1.3l0.8-1.3l0.7,1.9l1.3-1.4c0,0-0.3,2,0,1.9s2.5-1.6,2.5-1.6V45c0,0,1.4-1.8,1.7-1.6s0.6,2.6,1,2.1s0.7-3,1-2.4
		s1.4,2.5,1.4,2.5l0.6-1.5l0.7,1.8v-1.1l0.7,2.1l0.9-2.2l0.8,1.5l0.6-0.5l0.6,1.8l0.7-1.4l0.8,1.4l0.4-0.6
		c1.5,6.4,0.7,12.3-5.8,16.6c-3.4,2.4-8,3-13,2.8c4.8,2.4,12.5,3.8,23.9,4.2c35,1.2,35-11.5,35-25.6C76.7,30.8,61,19.4,41.7,19.4z"
		/>
	<path d="M17.1,40.6l1,1.3l0.4-1.3l1,1.3l0.8-1.3l0.7,1.9l1.3-1.4c0,0-0.3,2,0,1.9s2.5-1.6,2.5-1.6V43c0,0,1.4-1.8,1.7-1.6
		s0.6,2.6,1,2.1s0.7-3,1-2.4s1.4,2.5,1.4,2.5l0.6-1.5l0.7,1.8v-1.1l0.7,2.1l0.9-2.2l0.8,1.5l0.6-0.5l0.6,1.8l0.7-1.4l0.8,1.4
		l0.9-1.3l0.5,1.3l1.1-1c0,0,8.9,0.7,5.6-8.3S17.4,26,15.5,39.8l-0.6,2L17.1,40.6z"/>
	<g>
		<path class="st4" d="M45.4,9.2C22.5,8.7,15.7,16.4,9.9,28.3c0,0-0.4,0.5-0.6,0.5C8,29,6.7,29.7,5.9,32.1c-0.6,2,0.6,4,2.1,4.3
			c0.9,0.1,1.7-0.3,2.4-1.1c1.4,2.3,4.9,4.2,9.1,4.4c2.7,0.2,5.2-0.3,7.1-1.3c4.4,1.1,8.4,2.3,11.2,5c4,4,4,17,0,20
			c-2.7,2.4-4.6,5-5.9,7.8L31,71.4c0,0,0.5,11.1-2.1,15.6c-2.6,4.5-6.5,23.8-2,32.8c0,0,4.9,30.8,10.7,1.4c0,0,7.8,2.7,10.3,1.4
			c0,0,3.5,31,12.2-0.3c0,0,11.1-8.7,5.8-25.8c-5-16-6.7-21.9-4.8-25.2c-1.9,0.8-3.4,1.8-3.4,4.2c0-2.5,1.5-3.4,3.4-4.2
			c0.1-0.2,0.3-0.5,0.5-0.7l0,0c1.1-0.3,2-0.7,3-1.1l0,0l0,0c7.5-3.2,11.9-9.5,14.7-21.2C82.7,34.7,72.2,9.8,45.4,9.2z M31.8,115.5
			c2,3,4,5,7,6C35.8,120.5,33.8,118.5,31.8,115.5z"/>
		<g>
			<path d="M45.4,9.3c-3.6-0.1-7.2,0-10.8,0.5c-3.6,0.5-7.1,1.3-10.4,2.8c-3.3,1.5-6.2,3.8-8.5,6.6c-2.3,2.8-4,6-5.6,9.2l0,0l0,0
				c-0.2,0.2-0.4,0.5-0.8,0.6c-0.3,0.1-0.5,0.2-0.8,0.3c-0.5,0.2-0.9,0.5-1.3,1c-0.3,0.4-0.6,0.9-0.8,1.4c-0.2,0.5-0.4,1-0.3,1.6
				c0,1.1,0.5,2.1,1.4,2.6c0.9,0.5,2,0,2.6-0.8l0.3-0.4l0.3,0.5c0.7,1.2,1.9,2.1,3.2,2.7c1.3,0.7,2.7,1.1,4.1,1.3
				c1.4,0.2,2.9,0.3,4.3,0.1c1.4-0.2,2.8-0.5,4.1-1.2l0.1-0.1l0.2,0c2.7,0.7,5.5,1.4,8.1,2.8c1.3,0.7,2.5,1.5,3.5,2.6
				c1,1.2,1.6,2.5,2,3.9c0.8,2.8,1,5.7,0.8,8.5c-0.1,1.4-0.4,2.8-0.8,4.2c-0.5,1.4-1.1,2.8-2.3,3.7l0,0c-2.4,2.1-4.4,4.8-5.8,7.7
				l-0.1,0.2l-0.2,0l-0.9,0l0.3-0.3c0.1,2.1,0,4.1-0.1,6.2c-0.1,2.1-0.4,4.1-0.8,6.2c-0.2,1-0.6,2-1,3c-0.5,0.9-0.9,1.8-1.3,2.8
				c-0.7,1.9-1.2,3.9-1.6,5.9c-0.8,4-1.4,8.1-1.4,12.3c0,2.1,0.1,4.1,0.4,6.2c0.3,2,0.8,4,1.7,5.9l0,0l0,0c0.4,2.4,0.9,4.9,1.6,7.3
				c0.3,1.2,0.7,2.4,1.2,3.5c0.2,0.6,0.5,1.1,0.8,1.7c0.3,0.5,0.7,1,1.1,1.3c0.5,0.3,1,0.2,1.4-0.2c0.4-0.4,0.7-0.9,1-1.5
				c0.6-1.1,1-2.3,1.3-3.4c0.7-2.4,1.3-4.8,1.7-7.2l0.1-0.3l0.3,0.1c1.7,0.6,3.4,1,5.1,1.4c0.9,0.2,1.7,0.3,2.6,0.3
				c0.8,0,1.7,0,2.4-0.3l0.4-0.2l0.1,0.5c0.3,2.6,0.8,5.2,1.5,7.7c0.3,1.2,0.7,2.5,1.3,3.6c0.3,0.6,0.6,1.1,1,1.5
				c0.4,0.4,0.9,0.6,1.4,0.4c0.5-0.2,0.9-0.6,1.3-1.1c0.4-0.5,0.7-1,1-1.6c0.6-1.1,1.1-2.3,1.6-3.5c0.9-2.4,1.7-4.9,2.4-7.5l0-0.1
				l0.1-0.1c3.3-2.9,5.5-7,6.5-11.3c1-4.3,0.6-8.9-0.6-13.1c-1.3-4.3-2.7-8.6-3.9-13c-0.6-2.2-1.2-4.4-1.6-6.6
				c-0.2-1.1-0.3-2.3-0.3-3.5c0-1.2,0.2-2.4,0.8-3.5l0.7,0.7c-0.9,0.4-1.7,0.8-2.3,1.4c-0.6,0.6-0.8,1.4-0.8,2.3h-1
				c0-0.5,0.1-1.1,0.2-1.6c0.2-0.5,0.5-1,0.8-1.4c0.8-0.8,1.7-1.3,2.6-1.7L60.7,71c0.2-0.3,0.3-0.5,0.5-0.8l0.1-0.1l0.1,0l0,0l0,0
				l0,0c0.5-0.2,1-0.3,1.5-0.5l0.7-0.3l0.8-0.3l0.2,1l0,0l-3.1,0.3l2.9-1.2c3.2-1.4,6.1-3.5,8.2-6.3c2.2-2.8,3.7-6,4.8-9.4
				c0.6-1.7,1.1-3.4,1.5-5.1c0.4-1.7,0.6-3.5,0.6-5.2c0-3.5-0.6-7.1-1.8-10.4c-2.3-6.7-6.6-12.8-12.4-17c-2.9-2.1-6.1-3.7-9.5-4.7
				C52.5,9.9,49,9.4,45.4,9.3z M45.4,9.2C49,9.2,52.6,9.7,56,10.8c3.4,1,6.7,2.6,9.6,4.7c5.9,4.1,10.3,10.2,12.7,17
				c1.2,3.4,1.9,7,1.9,10.6c0,1.8-0.2,3.6-0.6,5.4c-0.4,1.7-0.9,3.5-1.5,5.2c-1.1,3.4-2.6,6.8-4.8,9.7c-2.2,2.9-5.2,5.2-8.6,6.6
				l-0.2-1l0,0l3.3-0.3L64.8,70l-0.7,0.3l-0.8,0.3c-0.5,0.2-1,0.4-1.6,0.5l0,0l0,0l0.2-0.2c-0.2,0.2-0.3,0.4-0.4,0.6l-0.1,0.1
				l-0.1,0.1c-0.9,0.4-1.7,0.8-2.3,1.4c-0.6,0.6-0.8,1.4-0.8,2.3h-1c0-0.5,0.1-1.1,0.2-1.6c0.2-0.5,0.5-1,0.8-1.4
				c0.8-0.8,1.7-1.3,2.6-1.7l1.5-0.7l-0.8,1.4c-0.5,0.9-0.7,1.9-0.7,3c0,1.1,0.1,2.2,0.3,3.3c0.4,2.2,1,4.4,1.6,6.5
				c1.2,4.3,2.6,8.6,3.9,13c1.2,4.4,1.6,9.1,0.6,13.6c-1,4.5-3.3,8.7-6.9,11.8l0.2-0.2c-0.7,2.5-1.5,5-2.4,7.5
				c-0.5,1.2-1,2.5-1.6,3.6c-0.3,0.6-0.7,1.2-1.1,1.7c-0.4,0.5-0.9,1.1-1.7,1.3c-0.4,0.1-0.8,0.1-1.2,0c-0.4-0.1-0.7-0.4-1-0.6
				c-0.5-0.5-0.8-1.1-1.1-1.7c-0.6-1.2-1-2.5-1.3-3.8c-0.7-2.6-1.1-5.2-1.4-7.8L48,123c-0.9,0.4-1.9,0.4-2.8,0.4
				c-0.9-0.1-1.8-0.2-2.7-0.4c-1.7-0.4-3.4-0.9-5.1-1.4l0.4-0.2c-0.5,2.4-1,4.9-1.8,7.3c-0.4,1.2-0.8,2.4-1.4,3.5
				c-0.3,0.6-0.6,1.1-1.1,1.6c-0.2,0.2-0.6,0.4-0.9,0.5c-0.4,0.1-0.8,0-1.1-0.2c-0.6-0.4-1-0.9-1.3-1.5c-0.3-0.6-0.6-1.1-0.8-1.7
				c-0.5-1.2-0.8-2.4-1.2-3.6c-0.7-2.4-1.2-4.9-1.6-7.3l0,0.1c-0.9-1.9-1.4-3.9-1.7-6c-0.3-2.1-0.4-4.1-0.4-6.2
				c0-4.1,0.5-8.3,1.4-12.3c0.4-2,0.9-4,1.6-6c0.3-1,0.8-2,1.3-2.9c0.4-0.9,0.7-1.9,1-2.9c0.9-4,1-8.2,0.8-12.3l0-0.3l0.3,0l0.9-0.1
				l-0.3,0.2c1.4-3,3.4-5.8,5.9-8l0,0l0,0c1-0.8,1.6-2.1,2-3.4c0.4-1.3,0.6-2.7,0.7-4.1c0.2-2.8,0-5.6-0.8-8.2
				c-0.4-1.3-1-2.6-1.8-3.6c-0.9-1-2.1-1.8-3.3-2.4c-2.4-1.3-5.2-2-7.9-2.7l0.3,0c-1.4,0.7-2.9,1.1-4.4,1.2
				c-1.5,0.2-3.1,0.1-4.6-0.1c-1.5-0.3-3-0.7-4.3-1.4c-1.3-0.7-2.6-1.7-3.4-3.1l0.6,0c-0.4,0.5-0.9,0.9-1.6,1.1
				c-0.3,0.1-0.7,0.2-1,0.1c-0.3,0-0.7-0.1-0.9-0.3c-1.2-0.7-1.7-2-1.7-3.2c0-0.6,0.2-1.3,0.4-1.8c0.2-0.6,0.5-1.1,0.9-1.6
				c0.4-0.5,0.9-0.9,1.5-1.1c0.3-0.1,0.6-0.2,0.9-0.3c0.1,0,0.4-0.2,0.6-0.4l0,0.1c1.6-3.2,3.4-6.4,5.8-9.2c2.4-2.8,5.3-5,8.6-6.5
				c3.3-1.5,6.9-2.3,10.5-2.8C38.2,9.2,41.8,9.1,45.4,9.2z"/>
			<path d="M31.8,115.5c0.4,0.7,1,1.2,1.6,1.7c0.6,0.5,1.1,1.1,1.6,1.6c0.5,0.6,1,1.1,1.7,1.6c0.6,0.4,1.4,0.7,2.1,0.9l-0.2,0.5
				c-1.6-0.3-3.1-1.1-4.3-2.2c-0.6-0.6-1.1-1.2-1.5-1.9C32.5,116.9,32.1,116.2,31.8,115.5L31.8,115.5z M31.8,115.5
				c0.4,0.7,1,1.2,1.6,1.7c0.6,0.5,1.1,1,1.7,1.5c0.6,0.5,1.1,1,1.8,1.4c0.6,0.4,1.3,0.8,2,1.1l-0.2,0.5c-0.7-0.3-1.4-0.7-2.1-1.1
				c-0.7-0.4-1.4-0.7-2.1-1.2c-0.6-0.5-1.2-1.1-1.6-1.8C32.5,116.9,32.2,116.2,31.8,115.5L31.8,115.5z"/>
		</g>
	</g>
	<path class="st0" d="M32.7,116.9c0,5.6-1,11.2-1.2,16.8c1.7,1.3,3.8-1.1,6.1-12.4c0,0,0.2,0.1,0.6,0.2c-0.1-0.1-0.1-0.2-0.2-0.3
		C35.9,120.4,34.3,118.9,32.7,116.9z"/>
	<path class="st0" d="M45.4,9.2c-5.3-0.1-9.8,0.2-13.6,0.9c11.9,0.6,22.9,5.8,26.9,19.4c1,4,8,3,13,0c7,17-6,42-25,42c4,1,8,3,9,6
		c7,19,4,38-1,57c-0.2,0.6-0.5,1.2-0.9,1.6c1.7-0.9,3.7-4.8,6.2-13.8c0,0,11.1-8.7,5.8-25.8c-5-16-6.7-21.9-4.8-25.2
		c-1.9,0.8-3.4,1.8-3.4,4.2c0-2.5,1.5-3.4,3.4-4.2c0.1-0.2,0.3-0.5,0.5-0.7l0,0c1.1-0.3,2-0.7,3-1.1l0,0l0,0
		c7.5-3.2,11.9-9.5,14.7-21.2C82.7,34.7,72.2,9.8,45.4,9.2z"/>
	<path d="M62.1,84c-0.4-1.4-0.7-2.7-1-3.8c-8.2,3.1-17.7,2.5-26.4,3.3C43.5,84.4,53.7,88.3,62.1,84z"/>
	<path d="M37.8,92.5c8.5,4.3,19.2,5.6,27.8,2.8c-0.4-1.3-0.8-2.5-1.1-3.6C55.8,93.8,47.2,94.2,37.8,92.5z"/>
	<path d="M67.2,103.4c-0.1-1-0.2-2.1-0.4-3.2c-3.2,1.7-7.8,0.7-11.1,2.3C59.6,102.5,63.4,103.7,67.2,103.4z"/>
	<path d="M28.8,108.5c-1.6,0-2.6-0.7-3.9-1.4c0,1.2,0,2.4,0,3.6C26.2,110.6,27.6,110.2,28.8,108.5z"/>
	<path d="M37.8,109.5c6.5,6.5,16.4,10.4,25.8,8.9c1.5-2.3,3.1-5.6,3.6-9.9C58.4,113.4,47.2,112.4,37.8,109.5z"/>
	<path d="M27,120.8c0.2,1,0.5,2.8,1,4.7c2.3-0.1,4.7-0.3,6.7-1C33.1,122.1,29.4,122.3,27,120.8z"/>
	<path d="M57.9,129.2c0.3-0.9,0.7-1.9,1-3c-2.1,0.3-4.3,0.3-6.2,0.3C54.1,128.4,56,129,57.9,129.2z"/>
	<g>
		<path class="st5" d="M45.8,41.5c-8.2-11.8-23-12.9-36.2-13c-0.1,0.1-0.2,0.2-0.3,0.2C8,29,6.7,29.7,5.9,32.1c-0.6,2,0.6,4,2.1,4.3
			c0.9,0.1,1.7-0.3,2.4-1.1c1.4,2.3,4.9,4.2,9.1,4.4c2.7,0.2,5.2-0.3,7.1-1.3c4.4,1.1,8.4,2.3,11.2,5c1.8,1.8,2.8,5.5,3,9.2
			C45.7,50.5,49.1,46.2,45.8,41.5z"/>
		<g>
			<path d="M45.7,41.6c-1.9-2.7-4.4-5.1-7.2-6.8c-2.8-1.7-6-2.9-9.1-3.8c-3.2-0.8-6.5-1.4-9.8-1.7c-3.3-0.3-6.6-0.5-10-0.6l0.1,0
				c-0.1,0.1-0.2,0.2-0.4,0.3C9.1,29,9,29,8.9,29c-0.3,0.1-0.5,0.2-0.8,0.3c-0.5,0.3-0.9,0.6-1.2,1.1c-0.3,0.4-0.6,0.9-0.7,1.5
				c-0.2,0.5-0.3,1.1-0.3,1.6c0.1,1.1,0.6,2.1,1.6,2.6c1,0.5,2.1-0.1,2.7-0.9l0.2-0.3l0.2,0.3c0.7,1.2,2,2.1,3.2,2.7
				c1.3,0.6,2.7,1,4.1,1.3c1.4,0.2,2.9,0.2,4.3,0.1c1.4-0.2,2.8-0.5,4.1-1.2l0.2-0.1l0.2,0c1.8,0.4,3.6,0.9,5.4,1.6
				c1.8,0.7,3.5,1.5,5,2.7c0.4,0.3,0.7,0.6,1.1,1c0.4,0.4,0.6,0.8,0.9,1.2c0.5,0.8,0.9,1.7,1.1,2.7c0.5,1.8,0.8,3.7,0.8,5.6
				l-0.5-0.3c2.1-0.9,4.2-2.2,5.5-4.2c0.6-1,1-2.2,0.9-3.4C46.9,43.7,46.4,42.5,45.7,41.6z M45.8,41.5c0.7,1,1.2,2.1,1.4,3.3
				c0.1,1.2-0.2,2.5-0.8,3.5c-0.6,1.1-1.5,2-2.4,2.8c-0.9,0.8-2,1.4-3.1,2l-0.5,0.2l0-0.5c-0.2-1.8-0.4-3.6-1-5.3
				c-0.3-0.9-0.7-1.7-1.1-2.4c-0.4-0.7-1.1-1.3-1.8-1.9c-1.4-1.1-3-1.9-4.7-2.5c-1.7-0.6-3.5-1.1-5.3-1.6l0.3,0
				c-1.4,0.7-2.9,1.1-4.4,1.2c-1.5,0.2-3.1,0.1-4.6-0.2c-1.5-0.3-3-0.7-4.3-1.5c-1.3-0.7-2.6-1.7-3.4-3.1l0.4,0
				c-0.4,0.5-0.9,0.9-1.5,1.1c-0.6,0.2-1.3,0.2-1.8-0.1c-1.1-0.6-1.7-1.8-1.7-2.9c0-0.6,0.1-1.2,0.3-1.7c0.2-0.5,0.5-1.1,0.8-1.5
				C7,29.8,7.4,29.3,8,29.1c0.3-0.1,0.5-0.3,0.8-0.3c0.1,0,0.3-0.1,0.4-0.1c0.1,0,0.2-0.1,0.3-0.2l0.1,0h0.1c3.3,0,6.7,0,10,0.2
				c1.7,0.1,3.3,0.3,5,0.5c1.7,0.3,3.3,0.6,4.9,1.1c3.2,0.9,6.4,2.3,9.2,4.2C41.5,36.3,43.9,38.7,45.8,41.5z"/>
		</g>
	</g>
	<path class="st8" d="M38.8,41.5c-8-9-20,1-28-8c-0.8,0-2.4,2.1-4,2.2c0.4,0.4,0.8,0.6,1.3,0.7c0.9,0.1,1.7-0.3,2.4-1.1
		c1.4,2.3,4.9,4.2,9.1,4.4c2.7,0.2,5.2-0.3,7.1-1.3c4.4,1.1,8.4,2.3,11.2,5c1.3,1.3,2.1,3.4,2.6,5.9C41.2,46.5,40.2,43.8,38.8,41.5z
		"/>
	<g>
		<path class="st5" d="M30.8,107.5c7.9-9.8,6.1-24.5,1.2-36.4c0,0.1-0.1,0.2-0.1,0.2L31,71.4c0,0,0.5,11.1-2.1,15.6
			c-1.7,2.9-4,12.1-4.1,20.7C26.4,109.7,28.5,110.3,30.8,107.5z"/>
		<path d="M30.7,107.5c2-2.5,3.3-5.4,4-8.5c0.7-3.1,1-6.2,0.9-9.3c-0.1-3.1-0.4-6.3-1-9.4c-0.3-1.5-0.7-3.1-1.2-4.6
			c-0.5-1.5-1-3-1.7-4.5l0.4,0l-0.1,0.2l0,0.1l-0.1,0L31,71.7l0.2-0.2c0.2,3.1,0.2,6.2-0.1,9.3c-0.2,1.6-0.4,3.1-0.9,4.6
			c-0.2,0.7-0.6,1.5-1,2.2c-0.3,0.6-0.6,1.4-0.8,2.1c-1,2.9-1.7,5.9-2.2,8.9c-0.5,3-1,6.1-1.1,9.2l0-0.1c0.3,0.5,0.8,0.9,1.2,1.2
			c0.5,0.3,1,0.5,1.6,0.5c0.6,0,1.1-0.2,1.6-0.6C29.9,108.4,30.3,108,30.7,107.5z M30.8,107.6c-0.4,0.5-0.8,0.9-1.3,1.2
			c-0.5,0.3-1.1,0.6-1.7,0.7c-0.6,0.1-1.2-0.1-1.8-0.4c-0.5-0.3-1-0.7-1.4-1.2l0,0l0-0.1c-0.1-3.1,0.1-6.2,0.6-9.3
			c0.5-3.1,1.1-6.1,2.2-9.1c0.3-0.7,0.6-1.5,1-2.2c0.4-0.7,0.7-1.3,0.9-2c0.5-1.4,0.8-2.9,1-4.4c0.4-3,0.6-6.1,0.5-9.2l0-0.2l0.2,0
			l0.9,0l-0.2,0.1l0.1-0.2l0.2-0.4l0.2,0.4c0.6,1.5,1.1,3,1.6,4.5c0.5,1.5,0.9,3,1.3,4.6c0.8,3.1,1.4,6.3,1.5,9.5
			c0.1,3.2-0.3,6.5-1.3,9.5C34.3,102.2,32.8,105.1,30.8,107.6z"/>
	</g>
	<path d="M79,35.8c-0.5-2.3-1.3-4.6-2.4-6.9c-7.3,7.2-18.9,9.8-28.9,10.7C58.6,42.9,69.4,40.6,79,35.8z"/>
	<path d="M39.8,47.2c0.5,1.6,0.8,3.5,0.9,5.4c7-0.8,13.5-4.5,20-7C53.4,46.5,46.9,49,39.8,47.2z"/>
	<path d="M76.5,57c1-2.2,1.8-4.8,2.6-7.6c-7.1,6.4-17.5,7.1-26.3,7.1C60.8,59,68.9,59.2,76.5,57z"/>
	<path d="M62.8,64.5c-8.5,2.8-17.8,2.1-26.4,0.3c-1.3,1.4-2.4,2.8-3.3,4.3C43.3,71.6,53.4,68.8,62.8,64.5z"/>
	<g>
		<path d="M52,9.8c-2.1-0.4-4.3-0.6-6.6-0.6c-2.7,0-5.3,0.2-7.8,0.6c-2.1,0.3-4.1,0.7-6,1.3c-2.6,0.8-5.1,1.7-7.4,2.9c0,0,0,0-0.1,0
			c-1.1,0.6-4.4,1.1-5.4,1.8c0.5,0.2,3.2,0.5,3.8,0.6c-0.7,1.1-1.3,2.2-1.8,3.4c-1.2-0.4-3.7-0.3-4.9-0.6c-0.7,0.6-1.4,1.3-2,1.9
			c1.7,0.3,4.5,0.3,6.1,0.6c-0.5,1.2-0.9,2.5-1.2,3.8c1.2-1.2,2.4-2.3,3.7-3.4c1.7,0.2,3.4,0.4,5.3,0.4c-1.3-0.6-2.5-1.1-3.8-1.6
			c1.3-1,2.7-2,4.1-2.9c2.5,0.9,4.8,2.1,6.7,4.5c-0.9-2.7-2.4-4.5-4.3-5.9c2.2-1.2,4.4-2.3,6.7-3.2c1.3,0.7,2.5,1.4,3.6,2.1
			c-0.3-1-0.6-2.1-1.2-3C43.6,11.1,47.8,10.2,52,9.8z"/>
		<path d="M52,9.8c-2.8-0.4-5.7-0.5-8.5-0.3c-2.8,0.2-5.7,0.6-8.4,1.1c-2.8,0.6-5.5,1.5-8.1,2.6c-0.7,0.3-1.3,0.6-1.9,0.9
			c-0.3,0.1-0.6,0.3-1,0.5c-0.4,0.1-0.7,0.2-1.1,0.3l-2.1,0.6c-0.7,0.2-1.4,0.4-1.9,0.7l-0.1-0.6c0.2,0.1,0.6,0.1,0.9,0.2l0.9,0.1
			l1,0.1c0.3,0.1,0.6,0.1,1,0.2l0.4,0.1l-0.2,0.4c-0.7,1.1-1.3,2.2-1.9,3.3l-0.1,0.2l-0.2-0.1c-0.7-0.2-1.6-0.3-2.4-0.4
			c-0.8-0.1-1.6-0.1-2.5-0.3l0.2,0c-0.7,0.6-1.4,1.2-2,1.9L13.9,21c2,0.4,4,0.3,6.1,0.6l0.2,0l-0.1,0.2c-0.5,1.2-0.9,2.5-1.2,3.8
			l-0.3-0.2c1.2-1.2,2.4-2.3,3.7-3.4l0.1-0.1l0.1,0c1.7,0.2,3.5,0.3,5.3,0.3l-0.2,0.7c-1.2-0.6-2.5-1.1-3.7-1.5l-0.7-0.3l0.6-0.5
			c1.3-1,2.7-2,4.1-2.9l0.2-0.1l0.2,0.1c1.3,0.5,2.6,1,3.8,1.8c1.2,0.8,2.3,1.7,3.1,2.8l-0.9,0.5c-0.7-2.3-2.1-4.3-4.1-5.6l-0.7-0.5
			l0.7-0.4c2.2-1.2,4.5-2.3,6.8-3.2l0.2-0.1l0.2,0.1c1.2,0.7,2.4,1.4,3.6,2.2l-0.6,0.4c-0.2-1-0.6-2-1.1-2.9l-0.2-0.4l0.4-0.1
			C43.5,10.8,47.8,10,52,9.8L52,9.8z M52,9.8c-4.2,0.5-8.3,1.6-12.3,3l0.2-0.5c0.5,1,0.9,2,1.2,3.1l0.3,1l-0.9-0.6
			c-1.1-0.7-2.3-1.4-3.6-2l0.4,0c-2.3,1-4.5,2-6.6,3.2l0-0.9c1.1,0.7,2,1.7,2.7,2.7c0.8,1,1.3,2.2,1.7,3.4l1,2.9l-1.9-2.4
			c-0.8-1-1.8-1.9-2.9-2.6c-1.1-0.7-2.3-1.3-3.5-1.7l0.4,0c-1.4,0.9-2.8,1.8-4.1,2.8l-0.1-0.7c1.3,0.5,2.5,1,3.8,1.7l1.4,0.7l-1.6,0
			c-1.8,0-3.6-0.2-5.3-0.5l0.2-0.1c-1.3,1-2.5,2.1-3.7,3.3l-0.5,0.5l0.2-0.7c0.3-1.3,0.8-2.5,1.2-3.8l0.1,0.2c-1-0.2-2-0.2-3-0.3
			c-1-0.1-2-0.1-3.1-0.3l-0.3-0.1l0.2-0.2c0.6-0.7,1.3-1.3,2-2l0.1-0.1l0.1,0c0.8,0.2,1.6,0.2,2.4,0.3c0.8,0.1,1.6,0.1,2.5,0.3
			l-0.3,0.1c0.5-1.2,1.1-2.3,1.8-3.5l0.2,0.5c-0.3-0.1-0.6-0.1-0.9-0.1l-1-0.1l-1-0.1c-0.3-0.1-0.6-0.1-1-0.2L17.9,16l0.7-0.4
			c0.7-0.4,1.4-0.6,2.1-0.8l2.1-0.6c0.3-0.1,0.7-0.2,1-0.3c0.3-0.1,0.6-0.3,0.9-0.5c0.6-0.3,1.3-0.6,2-0.9c2.6-1.2,5.4-2,8.3-2.5
			C37.7,9.3,40.6,9,43.5,9C46.3,8.9,49.2,9.1,52,9.8l0.3,0L52,9.8z"/>
	</g>
	<g>
		<path class="st4" d="M70.9,14.4c-3-4.4-8.7-5.9-12.5-3.2c-2.9,2-5.1,6.4-4.7,10.3c2.2,1.8,3.9,4.1,5.2,6.5
			c3.5,1.4,7.8,1.1,10.5-0.7C73.3,24.6,73.9,18.8,70.9,14.4z"/>
		<path d="M70.9,14.4c-1.2-1.8-3.1-3.1-5.1-3.8c-2-0.6-4.2-0.6-6.1,0.3c-1.9,0.9-3.4,2.5-4.5,4.3c-1.1,1.8-1.6,4.1-1.3,6.2l-0.1-0.1
			c1.1,0.9,2.1,1.9,3,3c0.9,1.1,1.7,2.3,2.4,3.5L59,27.6c1.9,0.7,4,0.9,6,0.7c2-0.3,3.9-1,5.3-2.5c1.4-1.4,2.1-3.4,2.2-5.5
			C72.6,18.3,72,16.2,70.9,14.4z M70.9,14.4c1.2,1.7,2,3.8,2.1,6c0.2,2.2-0.5,4.4-2,6.1c-0.7,0.8-1.7,1.5-2.7,2
			c-1,0.5-2.1,0.7-3.2,0.8c-2.2,0.2-4.4,0-6.4-0.9l-0.2-0.1l-0.1-0.1c-1.2-2.5-2.8-4.8-5-6.6l-0.1,0l0-0.1c-0.2-2.2,0.3-4.4,1.3-6.4
			c0.5-1,1.1-2,1.8-2.8c0.7-0.9,1.6-1.6,2.7-2.1c2.1-1,4.6-0.9,6.7,0C68,11,69.7,12.6,70.9,14.4z"/>
	</g>
	<path class="st0" d="M70.9,14.4c-0.6-0.9-1.3-1.6-2.1-2.3c1.6,4,1.3,9.6-1.1,11.4c-2.5,2.9-5.4,4.2-8.5,4.6
		c3.4,1.3,7.6,0.9,10.2-0.9C73.3,24.6,73.9,18.8,70.9,14.4z"/>
	<g>
		<path class="st5" d="M62.6,17.5c-1.4-2.4-4-3.2-5.8-1.7c-1.4,1.1-2.4,3.4-2.2,5.5c1,1,1.8,2.2,2.4,3.5c1.6,0.8,3.6,0.6,4.9-0.4
			C63.7,23,64.1,19.9,62.6,17.5z"/>
		<g>
			<path d="M62.6,17.6c-0.5-0.9-1.5-1.6-2.4-1.9c-1-0.3-2-0.2-2.8,0.3c-0.8,0.5-1.5,1.3-2,2.3c-0.5,0.9-0.7,2-0.6,3.1l0-0.1
				c1.1,1,2,2.1,2.7,3.5l-0.2-0.2c0.9,0.4,1.9,0.5,2.8,0.3c0.9-0.2,1.7-0.7,2.3-1.4c0.5-0.8,0.9-1.7,0.9-2.7
				C63.3,19.6,63.1,18.5,62.6,17.6z M62.7,17.5c0.5,0.9,1,1.9,1.1,3c0.2,1.1,0,2.3-0.6,3.3c-0.6,1-1.8,1.7-2.9,1.9
				c-1.1,0.2-2.3,0-3.4-0.5l-0.2-0.1L56.7,25c-0.5-1.3-1.2-2.5-2.2-3.6l0,0l0-0.1c-0.1-1.1,0.1-2.2,0.5-3.3c0.2-0.5,0.4-1.1,0.7-1.5
				c0.2-0.2,0.3-0.5,0.5-0.7c0.1-0.1,0.2-0.2,0.3-0.3c0.1-0.1,0.2-0.2,0.4-0.3c1-0.7,2.5-0.7,3.5-0.1C61.4,15.7,62.1,16.6,62.7,17.5
				z"/>
		</g>
	</g>
	<path d="M14.8,28.7c-0.4,1.7-2.9,4.4-5.2,3.9c-2.2-0.5-3.3-2.3-2.9-4c0.4-1.7,1.6-3,3.9-2.4C12.8,26.6,15.2,27,14.8,28.7z"/>
	<g>
		<path d="M32.1,28.3c-0.8,1.5-1.8,2.6-3.3,1.8c-1.5-0.8-2.1-2.7-1.3-4.2s2.7-2.1,4.2-1.3C33.2,25.3,32.9,26.7,32.1,28.3z"/>
		<ellipse class="st6" cx="28.5" cy="26.6" rx="0.4" ry="0.6"/>
	</g>
	<g>
		<path d="M12.7,24.5c-1,0.9-1.8,1.4-1.9,0.5c-0.1-0.9,0.5-2.3,1.5-3.2c1-0.9,1.8-0.9,2,0C14.4,22.7,13.6,23.6,12.7,24.5z"/>
		<ellipse transform="matrix(0.8333 0.5528 -0.5528 0.8333 14.5398 -3.0137)" class="st6" cx="12.3" cy="22.6" rx="0.1" ry="0.5"/>
	</g>
	<g>
		<line class="st6" x1="24" y1="33.2" x2="31" y2="31.7"/>
		<path d="M24,33.2c1.1-0.6,2.2-1,3.4-1.2c1.2-0.2,2.3-0.4,3.6-0.3c-1.1,0.6-2.2,1-3.4,1.2C26.4,33.1,25.3,33.3,24,33.2z"/>
	</g>
	<g>
		<line class="st6" x1="24" y1="35" x2="34.1" y2="35.7"/>
		<path d="M24,35c1.7-0.3,3.4-0.3,5.1-0.2c1.7,0.1,3.3,0.3,5,0.8c-1.7,0.3-3.4,0.3-5.1,0.2C27.3,35.7,25.7,35.5,24,35z"/>
	</g>
	<g>
		<line class="st6" x1="22.8" y1="36.3" x2="31" y2="39.8"/>
		<path d="M22.8,36.3c1.5,0.2,2.9,0.7,4.3,1.3c1.4,0.6,2.7,1.3,3.9,2.2c-1.5-0.2-2.9-0.7-4.3-1.3C25.3,37.9,24,37.2,22.8,36.3z"/>
	</g>
	<path class="st0" d="M40.7,80.3c0,0-0.5,55.3,14.9,0"/>
	<g>
		<path class="st4" d="M41.2,78.5c0,0-6.8,54.8,14.8,1.7"/>
		<path d="M41.2,78.5l-0.6,13.2c-0.1,2.2-0.3,4.4-0.1,6.6c0.1,1.1,0.3,2.2,0.6,3.2c0.2,0.5,0.4,1,0.8,1.3c0.4,0.3,0.8,0.3,1.3,0.1
			c0.9-0.5,1.5-1.4,2.2-2.3c0.6-0.9,1.2-1.8,1.7-2.8c1.1-1.9,2-3.9,3-5.9l5.7-11.9l0.1,0c-1.4,4.2-3,8.3-4.9,12.4c-1,2-2,4-3.2,5.9
			c-0.6,1-1.2,1.9-1.9,2.8c-0.7,0.9-1.5,1.8-2.6,2.3c-0.3,0.1-0.6,0.2-0.9,0.2c-0.3,0-0.6-0.2-0.9-0.4c-0.4-0.4-0.7-1-0.8-1.5
			c-0.3-1.1-0.5-2.2-0.6-3.3c-0.3-2.2-0.4-4.4-0.4-6.7C39.8,87.3,40.3,82.9,41.2,78.5L41.2,78.5z"/>
	</g>
	<ellipse cx="26.5" cy="53.3" rx="2.5" ry="2.2"/>
	<ellipse transform="matrix(0.9266 -0.376 0.376 0.9266 -16.4974 13.5248)" cx="26.4" cy="49" rx="3.4" ry="0.7"/>
	<ellipse class="st6" cx="25.3" cy="52.9" rx="0.5" ry="0.4"/>
	<g>
		<path d="M13.2,61.8c-0.2-0.3-0.4-0.7-0.5-1c-0.1-0.4-0.2-0.9,0.2-1.2c0.4-0.3,1-0.2,1.4-0.1c0.4,0.2,0.7,0.5,1,0.8
			c0.2,0.3,0.4,0.8,0.5,1.2c0,0.4,0,1-0.5,1.3c-0.4,0.2-0.9,0-1.2-0.2C13.7,62.4,13.4,62.1,13.2,61.8z M13.2,61.8
			c0.2,0.3,0.5,0.6,0.9,0.7c0.3,0.1,0.8,0.2,1-0.1c0.2-0.2,0.2-0.5,0-0.8c-0.1-0.3-0.3-0.6-0.5-0.9c-0.2-0.3-0.4-0.5-0.7-0.7
			c-0.3-0.2-0.6-0.3-0.9-0.2c-0.2,0.1-0.4,0.5-0.3,0.9C12.8,61.1,13,61.5,13.2,61.8z"/>
	</g>
	<ellipse class="st3" cx="29.1" cy="57.9" rx="5.8" ry="1.7"/>
	<ellipse class="st6" cx="32.3" cy="56.7" rx="1.8" ry="1.2"/>
	<ellipse class="st3" cx="31.2" cy="32.8" rx="5.8" ry="1.7"/>
	<ellipse class="st6" cx="34.3" cy="31.6" rx="1.8" ry="1.2"/>
</g>
</svg>
