<?xml version="1.0" encoding="utf-8"?>
<!-- Generator: Adobe Illustrator 15.1.0, SVG Export Plug-In . SVG Version: 6.00 Build 0)  -->
<!DOCTYPE svg PUBLIC "-//W3C//DTD SVG 1.1//EN" "http://www.w3.org/Graphics/SVG/1.1/DTD/svg11.dtd">
<svg version="1.1" id="clock" xmlns="http://www.w3.org/2000/svg" xmlns:xlink="http://www.w3.org/1999/xlink" x="0px" y="0px"
	 width="377px" height="491px" viewBox="0 0 377 491" style="enable-background:new 0 0 377 491;" xml:space="preserve">
<style type="text/css">
<![CDATA[
	.st0{opacity:0.37;stroke:#000000;stroke-miterlimit:10;enable-background:new    ;}
	.st1{fill:#DBB482;stroke:#000000;stroke-miterlimit:10;}
	.st2{fill:#4C3627;}
	.st3{opacity:0.37;}
	.st4{enable-background:new    ;}
	.st5{opacity:0.22;fill:#89673A;enable-background:new    ;}
	.st6{fill:#BA9560;}
	.st7{fill:#F4DA90;}
	.st8{opacity:0.46;fill:#89673A;enable-background:new    ;}
	.st9{fill:#FFDB69;}
	.st10{fill:#FFFFFF;}
	.st11{fill:#FFDB69;stroke:#000000;stroke-miterlimit:10;}
	.st12{opacity:0.39;enable-background:new    ;}
	.st13{fill:none;stroke:#000000;stroke-width:2;stroke-miterlimit:10;}
	.st14{fill:#DBB482;}
]]>
</style>
<g class="st3">
	<g>
		<g class="st4">
			<path d="M181.6,77.8c0.5,0,1,0.2,1.2,0.6c0.3,0.4,0.4,0.8,0.4,1.2c0,0.4,0,0.9-0.1,1.6c0,0.6-0.1,1.3-0.1,2.1
				c0,1.5,0,3.1,0.1,4.8c0.1,1.7,0.2,3.5,0.3,5.3c0.1,1.8,0.2,3.6,0.3,5.4c0.1,1.8,0.1,3.5,0.1,5.2c0,0.5-0.1,0.8-0.4,1
				s-0.6,0.3-1.2,0.3c-0.5,0-0.9-0.2-1-0.7c-0.1-0.4-0.1-1-0.1-1.7c0-1,0-1.8,0-2.5c0-0.7,0-1.4-0.1-2.1c0-0.7,0-1.5-0.1-2.3
				c0-0.8-0.1-1.8-0.1-3c0-1.3-0.2-2.4-0.4-3.4c-0.2-1-0.4-1.8-0.7-2.6c-0.2-0.8-0.4-1.5-0.6-2.2c-0.2-0.7-0.3-1.5-0.3-2.3
				c0-0.5,0-1,0.1-1.5c0.1-0.5,0.2-1,0.4-1.5c0.2-0.5,0.4-0.9,0.8-1.2C180.7,78,181.1,77.8,181.6,77.8z"/>
			<path d="M197.1,79.5c1.4,0,2.5,0.5,3.1,1.6c0.6,1.1,0.9,2.3,0.9,3.8c0,0.8-0.1,1.7-0.3,2.6c-0.2,0.9-0.4,1.8-0.7,2.7
				c-0.3,0.9-0.6,1.7-1.1,2.4c-0.4,0.7-0.8,1.4-1.3,1.9c-0.3,0.3-0.7,0.7-1.2,1.1c-0.5,0.4-1,0.9-1.6,1.4c-0.5,0.5-1.1,1-1.6,1.5
				c-0.5,0.5-0.9,1-1.3,1.4c0.3,0.5,0.9,1,1.6,1.3c0.8,0.3,1.6,0.6,2.6,0.8c0.9,0.2,1.9,0.4,2.9,0.6c1,0.1,1.9,0.3,2.6,0.4
				c0.5,0.1,1.2,0.2,2.1,0.4c0.9,0.2,1.7,0.4,2.6,0.7c0.8,0.3,1.6,0.6,2.2,1c0.6,0.4,0.9,0.8,0.9,1.3c0,0.4,0,0.6-0.1,0.8
				s-0.3,0.3-0.7,0.3c-1.3,0-2.3-0.1-3.2-0.4s-1.9-0.6-3-1.1c-0.5-0.2-1.3-0.4-2.2-0.6c-1-0.2-2-0.5-3.2-0.7
				c-1.2-0.3-2.3-0.6-3.5-0.9s-2.3-0.7-3.3-1.1c-1-0.4-1.8-0.8-2.4-1.3c-0.6-0.5-0.9-1-0.9-1.6c0-0.4,0.3-0.8,0.8-1.3
				c0.5-0.5,1.2-1,2.1-1.7c0.8-0.6,1.7-1.3,2.7-2c1-0.7,1.9-1.6,2.7-2.5c0.8-0.9,1.5-1.9,2.1-2.9c0.5-1,0.8-2.2,0.8-3.4
				c0-1-0.3-1.6-0.8-1.8c-0.6-0.2-1.2-0.4-1.8-0.4c-0.6,0-1.2,0.1-1.6,0.3c-0.4,0.2-0.8,0.4-1.2,0.7c-0.4,0.2-0.7,0.5-1.1,0.7
				c-0.4,0.2-0.8,0.3-1.2,0.3c-0.3,0-0.5,0-0.7-0.1c-0.2,0-0.3-0.2-0.3-0.4c0-0.3,0.1-0.6,0.2-1c0.2-0.4,0.4-0.8,0.6-1.3
				c0.3-0.5,0.6-0.9,0.9-1.3c0.3-0.4,0.6-0.8,0.9-1.1c0.5-0.5,1-0.8,1.7-1C194.5,79.6,195.6,79.5,197.1,79.5z"/>
		</g>
		<g class="st4">
			<path class="st13" d="M181.6,77.8c0.5,0,1,0.2,1.2,0.6c0.3,0.4,0.4,0.8,0.4,1.2c0,0.4,0,0.9-0.1,1.6c0,0.6-0.1,1.3-0.1,2.1
				c0,1.5,0,3.1,0.1,4.8c0.1,1.7,0.2,3.5,0.3,5.3c0.1,1.8,0.2,3.6,0.3,5.4c0.1,1.8,0.1,3.5,0.1,5.2c0,0.5-0.1,0.8-0.4,1
				s-0.6,0.3-1.2,0.3c-0.5,0-0.9-0.2-1-0.7c-0.1-0.4-0.1-1-0.1-1.7c0-1,0-1.8,0-2.5c0-0.7,0-1.4-0.1-2.1c0-0.7,0-1.5-0.1-2.3
				c0-0.8-0.1-1.8-0.1-3c0-1.3-0.2-2.4-0.4-3.4c-0.2-1-0.4-1.8-0.7-2.6c-0.2-0.8-0.4-1.5-0.6-2.2c-0.2-0.7-0.3-1.5-0.3-2.3
				c0-0.5,0-1,0.1-1.5c0.1-0.5,0.2-1,0.4-1.5c0.2-0.5,0.4-0.9,0.8-1.2C180.7,78,181.1,77.8,181.6,77.8z"/>
			<path class="st13" d="M197.1,79.5c1.4,0,2.5,0.5,3.1,1.6c0.6,1.1,0.9,2.3,0.9,3.8c0,0.8-0.1,1.7-0.3,2.6
				c-0.2,0.9-0.4,1.8-0.7,2.7c-0.3,0.9-0.6,1.7-1.1,2.4c-0.4,0.7-0.8,1.4-1.3,1.9c-0.3,0.3-0.7,0.7-1.2,1.1c-0.5,0.4-1,0.9-1.6,1.4
				c-0.5,0.5-1.1,1-1.6,1.5c-0.5,0.5-0.9,1-1.3,1.4c0.3,0.5,0.9,1,1.6,1.3c0.8,0.3,1.6,0.6,2.6,0.8c0.9,0.2,1.9,0.4,2.9,0.6
				c1,0.1,1.9,0.3,2.6,0.4c0.5,0.1,1.2,0.2,2.1,0.4c0.9,0.2,1.7,0.4,2.6,0.7c0.8,0.3,1.6,0.6,2.2,1c0.6,0.4,0.9,0.8,0.9,1.3
				c0,0.4,0,0.6-0.1,0.8s-0.3,0.3-0.7,0.3c-1.3,0-2.3-0.1-3.2-0.4s-1.9-0.6-3-1.1c-0.5-0.2-1.3-0.4-2.2-0.6c-1-0.2-2-0.5-3.2-0.7
				c-1.2-0.3-2.3-0.6-3.5-0.9s-2.3-0.7-3.3-1.1c-1-0.4-1.8-0.8-2.4-1.3c-0.6-0.5-0.9-1-0.9-1.6c0-0.4,0.3-0.8,0.8-1.3
				c0.5-0.5,1.2-1,2.1-1.7c0.8-0.6,1.7-1.3,2.7-2c1-0.7,1.9-1.6,2.7-2.5c0.8-0.9,1.5-1.9,2.1-2.9c0.5-1,0.8-2.2,0.8-3.4
				c0-1-0.3-1.6-0.8-1.8c-0.6-0.2-1.2-0.4-1.8-0.4c-0.6,0-1.2,0.1-1.6,0.3c-0.4,0.2-0.8,0.4-1.2,0.7c-0.4,0.2-0.7,0.5-1.1,0.7
				c-0.4,0.2-0.8,0.3-1.2,0.3c-0.3,0-0.5,0-0.7-0.1c-0.2,0-0.3-0.2-0.3-0.4c0-0.3,0.1-0.6,0.2-1c0.2-0.4,0.4-0.8,0.6-1.3
				c0.3-0.5,0.6-0.9,0.9-1.3c0.3-0.4,0.6-0.8,0.9-1.1c0.5-0.5,1-0.8,1.7-1C194.5,79.6,195.6,79.5,197.1,79.5z"/>
		</g>
		<g class="st4">
			<path d="M204.5,281.7c0.5,0,0.9,0,1.3,0.1c0.4,0.1,0.6,0.4,0.6,0.8c0,0.5-0.3,0.9-0.8,1.3c-0.5,0.4-1.2,0.7-2,1
				c-0.8,0.3-1.5,0.6-2.3,0.9s-1.4,0.6-1.9,1c-1.5,1.1-2.7,2.6-3.5,4.4c-0.8,1.8-1.7,4-2.5,6.6c0.7-0.5,1.6-0.8,2.7-0.8
				c5.4,0,8.1,3.3,8.1,9.8c0,2.7-0.3,4.3-0.9,4.8c-0.5,0.4-1.1,0.8-1.7,1.2s-1.2,0.7-1.8,0.9c-0.6,0.3-1.1,0.4-1.6,0.6
				c-0.5,0.1-0.8,0.2-1.1,0.2c-1.5,0-2.8-0.1-3.9-0.3c-1.1-0.2-2-0.6-2.6-1.3c-0.7-0.7-1.2-1.6-1.5-2.9c-0.3-1.3-0.5-3-0.5-5.1
				c0-0.5,0-1,0.1-1.5c0.1-0.5,0.2-1.1,0.4-1.9c0.2-0.7,0.4-1.6,0.7-2.7c0.3-1.1,0.7-2.3,1.2-3.9c1.4-4.6,2.6-7.4,3.5-8.5
				c0.6-0.7,1.4-1.4,2.2-2c0.8-0.6,1.7-1.1,2.6-1.5c0.9-0.4,1.8-0.7,2.8-0.9C202.7,281.8,203.6,281.7,204.5,281.7z M196.9,300.6
				c-0.4,0-0.7,0.1-1.1,0.3c-0.3,0.2-0.6,0.4-0.9,0.6c-0.3,0.2-0.6,0.5-1,0.8s-0.8,0.6-1.2,0.8c-0.4,0.2-0.7,0.4-0.9,0.6
				s-0.4,0.4-0.6,0.7c-0.1,0.3-0.2,0.7-0.3,1.1c0,0.4-0.1,1-0.1,1.8c0,1.4,0.4,2.5,1.1,3.2s1.6,1.1,2.8,1.1c0.7,0,1.5-0.2,2.3-0.6
				c0.8-0.4,1.5-0.8,2.2-1.4c0.7-0.6,1.2-1.3,1.7-2s0.7-1.5,0.7-2.3c0-0.5-0.2-1-0.5-1.6s-0.7-1-1.2-1.5c-0.5-0.5-1-0.8-1.5-1.1
				S197.3,300.6,196.9,300.6z"/>
		</g>
		<g class="st4">
			<path class="st13" d="M204.5,281.7c0.5,0,0.9,0,1.3,0.1c0.4,0.1,0.6,0.4,0.6,0.8c0,0.5-0.3,0.9-0.8,1.3c-0.5,0.4-1.2,0.7-2,1
				c-0.8,0.3-1.5,0.6-2.3,0.9s-1.4,0.6-1.9,1c-1.5,1.1-2.7,2.6-3.5,4.4c-0.8,1.8-1.7,4-2.5,6.6c0.7-0.5,1.6-0.8,2.7-0.8
				c5.4,0,8.1,3.3,8.1,9.8c0,2.7-0.3,4.3-0.9,4.8c-0.5,0.4-1.1,0.8-1.7,1.2s-1.2,0.7-1.8,0.9c-0.6,0.3-1.1,0.4-1.6,0.6
				c-0.5,0.1-0.8,0.2-1.1,0.2c-1.5,0-2.8-0.1-3.9-0.3c-1.1-0.2-2-0.6-2.6-1.3c-0.7-0.7-1.2-1.6-1.5-2.9c-0.3-1.3-0.5-3-0.5-5.1
				c0-0.5,0-1,0.1-1.5c0.1-0.5,0.2-1.1,0.4-1.9c0.2-0.7,0.4-1.6,0.7-2.7c0.3-1.1,0.7-2.3,1.2-3.9c1.4-4.6,2.6-7.4,3.5-8.5
				c0.6-0.7,1.4-1.4,2.2-2c0.8-0.6,1.7-1.1,2.6-1.5c0.9-0.4,1.8-0.7,2.8-0.9C202.7,281.8,203.6,281.7,204.5,281.7z M196.9,300.6
				c-0.4,0-0.7,0.1-1.1,0.3c-0.3,0.2-0.6,0.4-0.9,0.6c-0.3,0.2-0.6,0.5-1,0.8s-0.8,0.6-1.2,0.8c-0.4,0.2-0.7,0.4-0.9,0.6
				s-0.4,0.4-0.6,0.7c-0.1,0.3-0.2,0.7-0.3,1.1c0,0.4-0.1,1-0.1,1.8c0,1.4,0.4,2.5,1.1,3.2s1.6,1.1,2.8,1.1c0.7,0,1.5-0.2,2.3-0.6
				c0.8-0.4,1.5-0.8,2.2-1.4c0.7-0.6,1.2-1.3,1.7-2s0.7-1.5,0.7-2.3c0-0.5-0.2-1-0.5-1.6s-0.7-1-1.2-1.5c-0.5-0.5-1-0.8-1.5-1.1
				S197.3,300.6,196.9,300.6z"/>
		</g>
		<g class="st4">
			<path d="M137,300.6c0-0.6,0.2-1.3,0.6-2.2c0.4-0.8,0.9-1.7,1.4-2.5c0.5-0.9,1.1-1.7,1.7-2.5c0.6-0.8,1.1-1.6,1.5-2.3
				c0.1-0.2,0.4-0.7,0.7-1.5c0.4-0.8,0.8-1.7,1.2-2.8c0.4-1.1,0.9-2.2,1.4-3.5c0.5-1.2,1-2.4,1.4-3.5c0.4-1.1,0.8-2.1,1-2.9
				c0.3-0.8,0.4-1.4,0.4-1.7c0-0.4,0-0.7-0.1-1.1c-0.1-0.3-0.4-0.5-1-0.6c-0.3,0-0.6,0.1-0.9,0.1c-0.3,0-0.6,0-0.9,0
				c-0.5,0-1.3,0-2.5-0.1c-1.2-0.1-2.4-0.1-3.5-0.3c-1.2-0.1-2.2-0.3-3.2-0.5c-0.9-0.2-1.4-0.4-1.4-0.7c0-0.3,0.2-0.5,0.5-0.6
				c0.4-0.1,0.8-0.1,1.5-0.1c0.5,0,1,0,1.6,0.1c0.6,0.1,1,0.2,1.4,0.4h12.5c0.1,0,0.1,0.1,0.2,0.3c0.1,0.2,0.1,0.4,0.1,0.6
				c0,0.2,0,0.5,0.1,0.7c0,0.2,0,0.4,0,0.4c0,1.2-0.2,2.4-0.5,3.6c-0.4,1.2-0.8,2.4-1.3,3.6c-0.5,1.2-1.1,2.4-1.7,3.6
				c-0.6,1.2-1.2,2.4-1.7,3.5c-0.2,0.4-0.5,1.1-0.9,2c-0.4,0.9-0.8,1.9-1.3,3c-0.5,1.1-1,2.2-1.6,3.4c-0.5,1.2-1.1,2.2-1.6,3.2
				c-0.5,1-1,1.7-1.4,2.3c-0.4,0.6-0.8,0.9-1,0.9c-0.7,0-1.3-0.2-1.8-0.7C137.2,301.9,137,301.3,137,300.6z"/>
		</g>
		<g class="st4">
			<path class="st13" d="M137,300.6c0-0.6,0.2-1.3,0.6-2.2c0.4-0.8,0.9-1.7,1.4-2.5c0.5-0.9,1.1-1.7,1.7-2.5
				c0.6-0.8,1.1-1.6,1.5-2.3c0.1-0.2,0.4-0.7,0.7-1.5c0.4-0.8,0.8-1.7,1.2-2.8c0.4-1.1,0.9-2.2,1.4-3.5c0.5-1.2,1-2.4,1.4-3.5
				c0.4-1.1,0.8-2.1,1-2.9c0.3-0.8,0.4-1.4,0.4-1.7c0-0.4,0-0.7-0.1-1.1c-0.1-0.3-0.4-0.5-1-0.6c-0.3,0-0.6,0.1-0.9,0.1
				c-0.3,0-0.6,0-0.9,0c-0.5,0-1.3,0-2.5-0.1c-1.2-0.1-2.4-0.1-3.5-0.3c-1.2-0.1-2.2-0.3-3.2-0.5c-0.9-0.2-1.4-0.4-1.4-0.7
				c0-0.3,0.2-0.5,0.5-0.6c0.4-0.1,0.8-0.1,1.5-0.1c0.5,0,1,0,1.6,0.1c0.6,0.1,1,0.2,1.4,0.4h12.5c0.1,0,0.1,0.1,0.2,0.3
				c0.1,0.2,0.1,0.4,0.1,0.6c0,0.2,0,0.5,0.1,0.7c0,0.2,0,0.4,0,0.4c0,1.2-0.2,2.4-0.5,3.6c-0.4,1.2-0.8,2.4-1.3,3.6
				c-0.5,1.2-1.1,2.4-1.7,3.6c-0.6,1.2-1.2,2.4-1.7,3.5c-0.2,0.4-0.5,1.1-0.9,2c-0.4,0.9-0.8,1.9-1.3,3c-0.5,1.1-1,2.2-1.6,3.4
				c-0.5,1.2-1.1,2.2-1.6,3.2c-0.5,1-1,1.7-1.4,2.3c-0.4,0.6-0.8,0.9-1,0.9c-0.7,0-1.3-0.2-1.8-0.7C137.2,301.9,137,301.3,137,300.6
				z"/>
		</g>
		<g class="st4">
			<path d="M102.4,261.9c-1.9,0-3.3-0.1-4.4-0.4c-1-0.3-1.8-0.7-2.4-1.2c-0.6-0.5-1-1.1-1.3-1.8c-0.3-0.7-0.6-1.4-1-2.2
				c-0.1-0.2-0.2-0.7-0.4-1.6c-0.2-0.8-0.2-1.9-0.2-3.1c0-0.9,0.2-1.7,0.7-2.4c0.4-0.8,1-1.5,1.6-2.2c0.6-0.7,1.3-1.4,1.9-2.1
				c0.6-0.7,1.2-1.3,1.6-2c-0.4-0.6-0.8-1.2-1.2-1.8c-0.4-0.5-0.8-1.1-1.2-1.6c-0.4-0.5-0.7-1.1-0.9-1.6c-0.2-0.5-0.4-1.1-0.4-1.7
				c0-0.9,0.4-1.7,1.1-2.4c0.7-0.7,1.6-1.2,2.5-1.7s2-0.7,3.1-0.9c1.1-0.2,2-0.3,2.8-0.3c0.4,0,0.9,0.1,1.5,0.2
				c0.7,0.2,1.3,0.4,2,0.6c0.7,0.3,1.3,0.6,1.8,0.9c0.5,0.4,0.8,0.7,0.8,1.1c0,0.6-0.2,1.3-0.7,2.1c-0.4,0.8-1,1.6-1.6,2.4
				c-0.6,0.8-1.3,1.6-2.1,2.3c-0.7,0.7-1.4,1.3-1.9,1.7c0.5,0.9,1.2,1.7,1.9,2.3c0.7,0.6,1.4,1.3,2.1,1.9c0.7,0.6,1.2,1.3,1.7,2
				c0.4,0.7,0.7,1.6,0.7,2.6c0,0.7-0.1,1.4-0.3,2.2c-0.2,0.7-0.4,1.5-0.7,2.2c-0.3,0.7-0.6,1.4-0.8,2c-0.3,0.7-0.6,1.3-0.8,1.9
				c-0.3,0.7-0.9,1.3-1.9,1.8C105.1,261.7,103.9,261.9,102.4,261.9z M95.8,253.8c0,1.6,0.5,3,1.5,4c1,1,2.3,1.5,3.8,1.5
				c1,0,2-0.2,2.7-0.7c0.8-0.5,1.4-1.1,1.9-1.8c0.5-0.7,0.9-1.6,1.1-2.4c0.2-0.9,0.3-1.7,0.3-2.5c0-1.7-0.5-3-1.6-4.1
				c-1.1-1-2.3-1.9-3.8-2.5c-0.5,0.4-1.2,0.9-1.9,1.7c-0.7,0.8-1.3,1.6-2,2.5c-0.6,0.9-1.1,1.7-1.5,2.5
				C96,252.7,95.8,253.3,95.8,253.8z M98.5,236.8c0,0.7,0.1,1.3,0.4,1.9c0.3,0.6,0.8,1.2,1.6,1.7c1.7-1.5,2.9-2.6,3.5-3.4
				c0.6-0.8,0.9-1.5,0.9-2.3c0,0,0-0.1-0.1-0.3c-0.1-0.2-0.2-0.4-0.4-0.6c-0.2-0.2-0.3-0.4-0.6-0.6c-0.2-0.2-0.4-0.3-0.6-0.3
				c-0.4,0-0.8,0.1-1.3,0.4c-0.5,0.3-1.1,0.6-1.6,0.9c-0.5,0.4-1,0.8-1.3,1.2C98.7,236.1,98.5,236.5,98.5,236.8z"/>
		</g>
		<g class="st4">
			<path class="st13" d="M102.4,261.9c-1.9,0-3.3-0.1-4.4-0.4c-1-0.3-1.8-0.7-2.4-1.2c-0.6-0.5-1-1.1-1.3-1.8
				c-0.3-0.7-0.6-1.4-1-2.2c-0.1-0.2-0.2-0.7-0.4-1.6c-0.2-0.8-0.2-1.9-0.2-3.1c0-0.9,0.2-1.7,0.7-2.4c0.4-0.8,1-1.5,1.6-2.2
				c0.6-0.7,1.3-1.4,1.9-2.1c0.6-0.7,1.2-1.3,1.6-2c-0.4-0.6-0.8-1.2-1.2-1.8c-0.4-0.5-0.8-1.1-1.2-1.6c-0.4-0.5-0.7-1.1-0.9-1.6
				c-0.2-0.5-0.4-1.1-0.4-1.7c0-0.9,0.4-1.7,1.1-2.4c0.7-0.7,1.6-1.2,2.5-1.7s2-0.7,3.1-0.9c1.1-0.2,2-0.3,2.8-0.3
				c0.4,0,0.9,0.1,1.5,0.2c0.7,0.2,1.3,0.4,2,0.6c0.7,0.3,1.3,0.6,1.8,0.9c0.5,0.4,0.8,0.7,0.8,1.1c0,0.6-0.2,1.3-0.7,2.1
				c-0.4,0.8-1,1.6-1.6,2.4c-0.6,0.8-1.3,1.6-2.1,2.3c-0.7,0.7-1.4,1.3-1.9,1.7c0.5,0.9,1.2,1.7,1.9,2.3c0.7,0.6,1.4,1.3,2.1,1.9
				c0.7,0.6,1.2,1.3,1.7,2c0.4,0.7,0.7,1.6,0.7,2.6c0,0.7-0.1,1.4-0.3,2.2c-0.2,0.7-0.4,1.5-0.7,2.2c-0.3,0.7-0.6,1.4-0.8,2
				c-0.3,0.7-0.6,1.3-0.8,1.9c-0.3,0.7-0.9,1.3-1.9,1.8C105.1,261.7,103.9,261.9,102.4,261.9z M95.8,253.8c0,1.6,0.5,3,1.5,4
				c1,1,2.3,1.5,3.8,1.5c1,0,2-0.2,2.7-0.7c0.8-0.5,1.4-1.1,1.9-1.8c0.5-0.7,0.9-1.6,1.1-2.4c0.2-0.9,0.3-1.7,0.3-2.5
				c0-1.7-0.5-3-1.6-4.1c-1.1-1-2.3-1.9-3.8-2.5c-0.5,0.4-1.2,0.9-1.9,1.7c-0.7,0.8-1.3,1.6-2,2.5c-0.6,0.9-1.1,1.7-1.5,2.5
				C96,252.7,95.8,253.3,95.8,253.8z M98.5,236.8c0,0.7,0.1,1.3,0.4,1.9c0.3,0.6,0.8,1.2,1.6,1.7c1.7-1.5,2.9-2.6,3.5-3.4
				c0.6-0.8,0.9-1.5,0.9-2.3c0,0,0-0.1-0.1-0.3c-0.1-0.2-0.2-0.4-0.4-0.6c-0.2-0.2-0.3-0.4-0.6-0.6c-0.2-0.2-0.4-0.3-0.6-0.3
				c-0.4,0-0.8,0.1-1.3,0.4c-0.5,0.3-1.1,0.6-1.6,0.9c-0.5,0.4-1,0.8-1.3,1.2C98.7,236.1,98.5,236.5,98.5,236.8z"/>
		</g>
		<g class="st4">
			<path d="M95,132.7c0.5,0,1,0.2,1.2,0.6c0.3,0.4,0.4,0.8,0.4,1.2c0,0.4,0,0.9-0.1,1.6c0,0.6-0.1,1.3-0.1,2.1c0,1.5,0,3.1,0.1,4.8
				c0.1,1.7,0.2,3.5,0.3,5.3c0.1,1.8,0.2,3.6,0.3,5.4c0.1,1.8,0.1,3.5,0.1,5.2c0,0.5-0.1,0.8-0.4,1s-0.6,0.3-1.2,0.3
				c-0.5,0-0.9-0.2-1-0.7c-0.1-0.4-0.1-1-0.1-1.7c0-1,0-1.8,0-2.5c0-0.7,0-1.4-0.1-2.1c0-0.7,0-1.5-0.1-2.3c0-0.8-0.1-1.8-0.1-3
				c0-1.3-0.2-2.4-0.4-3.4c-0.2-1-0.4-1.8-0.7-2.6c-0.2-0.8-0.4-1.5-0.6-2.2c-0.2-0.7-0.3-1.5-0.3-2.3c0-0.5,0-1,0.1-1.5
				c0.1-0.5,0.2-1,0.4-1.5c0.2-0.5,0.4-0.9,0.8-1.2C94.1,132.8,94.5,132.7,95,132.7z"/>
			<path d="M101.6,140.3c0-2.8,0.4-4.9,1.2-6.3c0.8-1.4,2-2.4,3.5-3c1.6-0.7,3-1.3,4-1.8c1-0.5,1.9-0.8,2.8-0.8s1.5,0.3,1.9,1
				c0.5,0.7,0.9,1.5,1.2,2.5c0.2,0.6,0.3,1.1,0.4,1.6c0.1,0.5,0.2,1.1,0.2,1.8c0,0.7,0.1,1.6,0.1,2.8c0,1.1,0,2.7,0,4.6
				c0,1.6-0.1,3.4-0.3,5.2s-0.6,3.5-1.1,5c-0.6,1.5-1.4,2.8-2.6,3.8c-1.1,1-2.7,1.5-4.6,1.5c-1.5,0-2.7-0.5-3.6-1.6
				c-0.9-1-1.5-2.4-2-4.1c-0.4-1.7-0.7-3.6-0.8-5.8C101.6,144.8,101.6,142.6,101.6,140.3z M103.8,139.7c0,1,0,2.3,0.1,3.9
				s0.3,3.2,0.6,4.7c0.4,1.5,0.9,2.9,1.6,4c0.7,1.1,1.8,1.7,3.2,1.7c1.1,0,1.9-0.3,2.5-1s1.1-1.5,1.5-2.5c0.4-1,0.6-2,0.7-3.2
				c0.1-1.2,0.1-2.2,0.1-3.2c0-0.3,0-0.5,0-0.7c0-0.2,0-0.5,0-0.7c0-0.3,0-0.6-0.1-1c0-0.4-0.1-0.9-0.2-1.5
				c-0.3,0.1-0.5,0.2-0.7,0.2c-0.2,0-0.4-0.4-0.5-1.2c-0.1-0.8-0.2-1.6-0.3-2.6c-0.1-0.9-0.2-1.8-0.4-2.7c-0.1-0.8-0.3-1.3-0.6-1.4
				c-0.2,0-0.8,0.1-1.6,0.4c-0.8,0.2-1.6,0.6-2.5,1.2c-0.9,0.5-1.7,1.3-2.4,2.2S103.8,138.3,103.8,139.7z"/>
		</g>
		<g class="st4">
			<path class="st13" d="M95,132.7c0.5,0,1,0.2,1.2,0.6c0.3,0.4,0.4,0.8,0.4,1.2c0,0.4,0,0.9-0.1,1.6c0,0.6-0.1,1.3-0.1,2.1
				c0,1.5,0,3.1,0.1,4.8c0.1,1.7,0.2,3.5,0.3,5.3c0.1,1.8,0.2,3.6,0.3,5.4c0.1,1.8,0.1,3.5,0.1,5.2c0,0.5-0.1,0.8-0.4,1
				s-0.6,0.3-1.2,0.3c-0.5,0-0.9-0.2-1-0.7c-0.1-0.4-0.1-1-0.1-1.7c0-1,0-1.8,0-2.5c0-0.7,0-1.4-0.1-2.1c0-0.7,0-1.5-0.1-2.3
				c0-0.8-0.1-1.8-0.1-3c0-1.3-0.2-2.4-0.4-3.4c-0.2-1-0.4-1.8-0.7-2.6c-0.2-0.8-0.4-1.5-0.6-2.2c-0.2-0.7-0.3-1.5-0.3-2.3
				c0-0.5,0-1,0.1-1.5c0.1-0.5,0.2-1,0.4-1.5c0.2-0.5,0.4-0.9,0.8-1.2C94.1,132.8,94.5,132.7,95,132.7z"/>
			<path class="st13" d="M101.6,140.3c0-2.8,0.4-4.9,1.2-6.3c0.8-1.4,2-2.4,3.5-3c1.6-0.7,3-1.3,4-1.8c1-0.5,1.9-0.8,2.8-0.8
				s1.5,0.3,1.9,1c0.5,0.7,0.9,1.5,1.2,2.5c0.2,0.6,0.3,1.1,0.4,1.6c0.1,0.5,0.2,1.1,0.2,1.8c0,0.7,0.1,1.6,0.1,2.8
				c0,1.1,0,2.7,0,4.6c0,1.6-0.1,3.4-0.3,5.2s-0.6,3.5-1.1,5c-0.6,1.5-1.4,2.8-2.6,3.8c-1.1,1-2.7,1.5-4.6,1.5
				c-1.5,0-2.7-0.5-3.6-1.6c-0.9-1-1.5-2.4-2-4.1c-0.4-1.7-0.7-3.6-0.8-5.8C101.6,144.8,101.6,142.6,101.6,140.3z M103.8,139.7
				c0,1,0,2.3,0.1,3.9s0.3,3.2,0.6,4.7c0.4,1.5,0.9,2.9,1.6,4c0.7,1.1,1.8,1.7,3.2,1.7c1.1,0,1.9-0.3,2.5-1s1.1-1.5,1.5-2.5
				c0.4-1,0.6-2,0.7-3.2c0.1-1.2,0.1-2.2,0.1-3.2c0-0.3,0-0.5,0-0.7c0-0.2,0-0.5,0-0.7c0-0.3,0-0.6-0.1-1c0-0.4-0.1-0.9-0.2-1.5
				c-0.3,0.1-0.5,0.2-0.7,0.2c-0.2,0-0.4-0.4-0.5-1.2c-0.1-0.8-0.2-1.6-0.3-2.6c-0.1-0.9-0.2-1.8-0.4-2.7c-0.1-0.8-0.3-1.3-0.6-1.4
				c-0.2,0-0.8,0.1-1.6,0.4c-0.8,0.2-1.6,0.6-2.5,1.2c-0.9,0.5-1.7,1.3-2.4,2.2S103.8,138.3,103.8,139.7z"/>
		</g>
		<g class="st4">
			<path d="M134.9,89.6c0.5,0,1,0.2,1.2,0.6c0.3,0.4,0.4,0.8,0.4,1.2c0,0.4,0,0.9-0.1,1.6c0,0.6-0.1,1.3-0.1,2.1
				c0,1.5,0,3.1,0.1,4.8c0.1,1.7,0.2,3.5,0.3,5.3c0.1,1.8,0.2,3.6,0.3,5.4c0.1,1.8,0.1,3.5,0.1,5.2c0,0.5-0.1,0.8-0.4,1
				s-0.6,0.3-1.2,0.3c-0.5,0-0.9-0.2-1-0.7c-0.1-0.4-0.1-1-0.1-1.7c0-1,0-1.8,0-2.5c0-0.7,0-1.4-0.1-2.1c0-0.7,0-1.5-0.1-2.3
				c0-0.8-0.1-1.8-0.1-3c0-1.3-0.2-2.4-0.4-3.4c-0.2-1-0.4-1.8-0.7-2.6c-0.2-0.8-0.4-1.5-0.6-2.2c-0.2-0.7-0.3-1.5-0.3-2.3
				c0-0.5,0-1,0.1-1.5c0.1-0.5,0.2-1,0.4-1.5c0.2-0.5,0.4-0.9,0.8-1.2C134.1,89.7,134.5,89.6,134.9,89.6z"/>
			<path d="M143.1,89.6c0.5,0,1,0.2,1.2,0.6c0.3,0.4,0.4,0.8,0.4,1.2c0,0.4,0,0.9-0.1,1.6c0,0.6-0.1,1.3-0.1,2.1
				c0,1.5,0,3.1,0.1,4.8c0.1,1.7,0.2,3.5,0.3,5.3c0.1,1.8,0.2,3.6,0.3,5.4c0.1,1.8,0.1,3.5,0.1,5.2c0,0.5-0.1,0.8-0.4,1
				s-0.6,0.3-1.2,0.3c-0.5,0-0.9-0.2-1-0.7c-0.1-0.4-0.1-1-0.1-1.7c0-1,0-1.8,0-2.5c0-0.7,0-1.4-0.1-2.1c0-0.7,0-1.5-0.1-2.3
				c0-0.8-0.1-1.8-0.1-3c0-1.3-0.2-2.4-0.4-3.4c-0.2-1-0.4-1.8-0.7-2.6c-0.2-0.8-0.4-1.5-0.6-2.2c-0.2-0.7-0.3-1.5-0.3-2.3
				c0-0.5,0-1,0.1-1.5c0.1-0.5,0.2-1,0.4-1.5c0.2-0.5,0.4-0.9,0.8-1.2C142.2,89.7,142.6,89.6,143.1,89.6z"/>
		</g>
		<g class="st4">
			<path class="st13" d="M134.9,89.6c0.5,0,1,0.2,1.2,0.6c0.3,0.4,0.4,0.8,0.4,1.2c0,0.4,0,0.9-0.1,1.6c0,0.6-0.1,1.3-0.1,2.1
				c0,1.5,0,3.1,0.1,4.8c0.1,1.7,0.2,3.5,0.3,5.3c0.1,1.8,0.2,3.6,0.3,5.4c0.1,1.8,0.1,3.5,0.1,5.2c0,0.5-0.1,0.8-0.4,1
				s-0.6,0.3-1.2,0.3c-0.5,0-0.9-0.2-1-0.7c-0.1-0.4-0.1-1-0.1-1.7c0-1,0-1.8,0-2.5c0-0.7,0-1.4-0.1-2.1c0-0.7,0-1.5-0.1-2.3
				c0-0.8-0.1-1.8-0.1-3c0-1.3-0.2-2.4-0.4-3.4c-0.2-1-0.4-1.8-0.7-2.6c-0.2-0.8-0.4-1.5-0.6-2.2c-0.2-0.7-0.3-1.5-0.3-2.3
				c0-0.5,0-1,0.1-1.5c0.1-0.5,0.2-1,0.4-1.5c0.2-0.5,0.4-0.9,0.8-1.2C134.1,89.7,134.5,89.6,134.9,89.6z"/>
			<path class="st13" d="M143.1,89.6c0.5,0,1,0.2,1.2,0.6c0.3,0.4,0.4,0.8,0.4,1.2c0,0.4,0,0.9-0.1,1.6c0,0.6-0.1,1.3-0.1,2.1
				c0,1.5,0,3.1,0.1,4.8c0.1,1.7,0.2,3.5,0.3,5.3c0.1,1.8,0.2,3.6,0.3,5.4c0.1,1.8,0.1,3.5,0.1,5.2c0,0.5-0.1,0.8-0.4,1
				s-0.6,0.3-1.2,0.3c-0.5,0-0.9-0.2-1-0.7c-0.1-0.4-0.1-1-0.1-1.7c0-1,0-1.8,0-2.5c0-0.7,0-1.4-0.1-2.1c0-0.7,0-1.5-0.1-2.3
				c0-0.8-0.1-1.8-0.1-3c0-1.3-0.2-2.4-0.4-3.4c-0.2-1-0.4-1.8-0.7-2.6c-0.2-0.8-0.4-1.5-0.6-2.2c-0.2-0.7-0.3-1.5-0.3-2.3
				c0-0.5,0-1,0.1-1.5c0.1-0.5,0.2-1,0.4-1.5c0.2-0.5,0.4-0.9,0.8-1.2C142.2,89.7,142.6,89.6,143.1,89.6z"/>
		</g>
		<g class="st4">
			<path d="M89,177.6c0.7,0,1.3,0.1,2,0.3c0.7,0.2,1.3,0.4,1.9,0.7c0.6,0.3,1,0.7,1.4,1.2c0.4,0.5,0.5,1,0.5,1.6c0,0.3,0,0.6-0.1,1
				c0,0.4-0.1,0.8-0.2,1.2c-0.1,0.4-0.2,0.9-0.4,1.3c-0.2,0.4-0.4,0.8-0.7,1.1v17c0,0.4,0,0.8-0.1,1.4c0,0.6-0.1,1.2-0.3,1.7
				c-0.2,0.6-0.4,1.1-0.6,1.5c-0.3,0.4-0.6,0.6-1.1,0.6c-0.7,0-1.2-0.2-1.5-0.6c-0.4-0.4-0.5-1-0.5-1.8c0-1,0.2-2.1,0.6-3.3
				c0.4-1.2,0.6-2.5,0.6-3.9c0-1.1,0-2.2-0.1-3.4c0-1.2-0.1-2.3-0.2-3.3c-0.9,0.6-1.6,1.1-2,1.3c-0.4,0.3-0.9,0.4-1.4,0.4
				c-0.6,0-1.4-0.1-2.3-0.4c-0.9-0.2-1.8-0.5-2.8-0.8c-0.7-0.2-1.4-0.5-2.2-0.8c-0.8-0.3-1.5-0.7-2.2-1.1c-0.7-0.4-1.2-0.8-1.6-1.3
				c-0.4-0.5-0.6-1-0.6-1.5c0-1.3,0.5-2.6,1.4-3.8s2.1-2.3,3.5-3.3c1.4-0.9,2.9-1.7,4.5-2.3C86.1,177.8,87.6,177.6,89,177.6z
				 M88.9,180.5c-0.4,0-1.2,0.3-2.2,0.8c-1,0.5-2.1,1.2-3.1,2c-1.1,0.8-2,1.5-2.8,2.3c-0.8,0.8-1.2,1.4-1.2,1.9
				c0,0.3,0.2,0.6,0.5,0.9c0.3,0.3,0.7,0.6,1.2,0.9c0.5,0.3,1,0.5,1.5,0.6c0.5,0.2,1,0.2,1.4,0.2c0.7,0,1.4-0.2,2.1-0.7
				c0.7-0.5,1.4-1.1,2-1.9c0.6-0.8,1.1-1.7,1.5-2.7c0.4-1,0.6-2,0.6-3c0-0.4-0.1-0.8-0.3-1C89.9,180.6,89.5,180.5,88.9,180.5z"/>
		</g>
		<g class="st4">
			<path class="st13" d="M89,177.6c0.7,0,1.3,0.1,2,0.3c0.7,0.2,1.3,0.4,1.9,0.7c0.6,0.3,1,0.7,1.4,1.2c0.4,0.5,0.5,1,0.5,1.6
				c0,0.3,0,0.6-0.1,1c0,0.4-0.1,0.8-0.2,1.2c-0.1,0.4-0.2,0.9-0.4,1.3c-0.2,0.4-0.4,0.8-0.7,1.1v17c0,0.4,0,0.8-0.1,1.4
				c0,0.6-0.1,1.2-0.3,1.7c-0.2,0.6-0.4,1.1-0.6,1.5c-0.3,0.4-0.6,0.6-1.1,0.6c-0.7,0-1.2-0.2-1.5-0.6c-0.4-0.4-0.5-1-0.5-1.8
				c0-1,0.2-2.1,0.6-3.3c0.4-1.2,0.6-2.5,0.6-3.9c0-1.1,0-2.2-0.1-3.4c0-1.2-0.1-2.3-0.2-3.3c-0.9,0.6-1.6,1.1-2,1.3
				c-0.4,0.3-0.9,0.4-1.4,0.4c-0.6,0-1.4-0.1-2.3-0.4c-0.9-0.2-1.8-0.5-2.8-0.8c-0.7-0.2-1.4-0.5-2.2-0.8c-0.8-0.3-1.5-0.7-2.2-1.1
				c-0.7-0.4-1.2-0.8-1.6-1.3c-0.4-0.5-0.6-1-0.6-1.5c0-1.3,0.5-2.6,1.4-3.8s2.1-2.3,3.5-3.3c1.4-0.9,2.9-1.7,4.5-2.3
				C86.1,177.8,87.6,177.6,89,177.6z M88.9,180.5c-0.4,0-1.2,0.3-2.2,0.8c-1,0.5-2.1,1.2-3.1,2c-1.1,0.8-2,1.5-2.8,2.3
				c-0.8,0.8-1.2,1.4-1.2,1.9c0,0.3,0.2,0.6,0.5,0.9c0.3,0.3,0.7,0.6,1.2,0.9c0.5,0.3,1,0.5,1.5,0.6c0.5,0.2,1,0.2,1.4,0.2
				c0.7,0,1.4-0.2,2.1-0.7c0.7-0.5,1.4-1.1,2-1.9c0.6-0.8,1.1-1.7,1.5-2.7c0.4-1,0.6-2,0.6-3c0-0.4-0.1-0.8-0.3-1
				C89.9,180.6,89.5,180.5,88.9,180.5z"/>
		</g>
		<g class="st4">
			<path d="M291.1,176c0.7,0,1.4,0.1,2.1,0.2s1.3,0.3,2,0.4c0.7,0.2,1.4,0.3,2.2,0.5s1.7,0.3,2.7,0.4c0.9,0.1,1.8,0.2,2.7,0.4
				c0.9,0.2,1.6,0.5,2.3,0.8c0.7,0.3,1.2,0.7,1.6,1.2c0.4,0.5,0.6,1.1,0.6,1.8c0,0.3,0,0.6-0.1,0.8c0,0.2-0.1,0.4-0.1,0.5
				c0,0.3,0.1,0.8,0.4,1.5c0.3,0.7,0.5,1.5,0.8,2.3c0.3,0.8,0.6,1.7,0.8,2.5c0.3,0.8,0.4,1.5,0.4,1.9s-0.1,1-0.4,1.6
				c-0.3,0.6-0.7,1.1-1.2,1.6c0.2,0.2,0.4,0.4,0.6,0.7c0.2,0.3,0.3,0.7,0.4,1.1s0.2,0.7,0.2,1.1c0,0.4,0.1,0.6,0.1,0.9
				c0,0.2-0.1,0.4-0.2,0.6c-0.2,0.2-0.4,0.5-0.6,0.8s-0.6,0.7-1,1.1c-0.4,0.4-0.8,1-1.3,1.7c-0.4,0.5-0.8,1-1.1,1.5
				s-0.8,0.8-1.3,1.1c-0.5,0.3-1.1,0.5-1.8,0.6c-0.7,0.1-1.7,0.2-2.9,0.2c-0.6,0-1.5-0.1-2.5-0.2c-1.1-0.2-2.1-0.4-3.1-0.7
				c-1-0.3-1.9-0.8-2.7-1.3c-0.7-0.5-1.1-1.1-1.1-1.8c0-0.4,0.1-0.6,0.4-0.6c0.3-0.1,0.6-0.1,1-0.1c0.7,0,1.4,0.1,2.1,0.4
				s1.3,0.5,2,0.8c0.7,0.3,1.4,0.6,2.1,0.8s1.5,0.4,2.3,0.4c0.6,0,1.3-0.2,1.9-0.7c0.6-0.4,1.2-1,1.8-1.6c0.6-0.6,1.1-1.2,1.5-1.8
				c0.4-0.6,0.7-1.1,0.8-1.5c0-0.8-0.2-1.5-0.7-1.9c-0.5-0.4-1-0.8-1.7-1.1c-0.7-0.3-1.4-0.4-2.3-0.5s-1.6-0.2-2.3-0.3
				c-0.7-0.1-1.3-0.3-1.7-0.4s-0.7-0.5-0.7-0.8c0-0.6,0.3-1.1,0.9-1.6c0.6-0.5,1.2-0.7,1.9-0.7c1.1,0,2.3,0.1,3.4,0.2
				c1.1,0.1,2.2,0.4,3.1,0.7c0-0.3,0.1-0.5,0.1-0.8c0-0.3,0-0.5,0-0.8c0-1.4-0.2-2.8-0.7-4c-0.5-1.2-1.2-2.3-2-3.2
				c-0.9-0.9-2-1.6-3.4-2.1c-1.3-0.5-2.9-0.8-4.7-0.8c-1,0-1.7,0.1-2.1,0.2c-0.4,0.1-0.9,0.2-1.4,0.2c-0.7,0-1.1-0.2-1.2-0.6
				c-0.2-0.4-0.2-1-0.2-1.7c0-0.7,0.1-1.1,0.3-1.3C290.5,176.1,290.7,176,291.1,176z"/>
		</g>
		<g class="st4">
			<path class="st13" d="M291.1,176c0.7,0,1.4,0.1,2.1,0.2s1.3,0.3,2,0.4c0.7,0.2,1.4,0.3,2.2,0.5s1.7,0.3,2.7,0.4
				c0.9,0.1,1.8,0.2,2.7,0.4c0.9,0.2,1.6,0.5,2.3,0.8c0.7,0.3,1.2,0.7,1.6,1.2c0.4,0.5,0.6,1.1,0.6,1.8c0,0.3,0,0.6-0.1,0.8
				c0,0.2-0.1,0.4-0.1,0.5c0,0.3,0.1,0.8,0.4,1.5c0.3,0.7,0.5,1.5,0.8,2.3c0.3,0.8,0.6,1.7,0.8,2.5c0.3,0.8,0.4,1.5,0.4,1.9
				s-0.1,1-0.4,1.6c-0.3,0.6-0.7,1.1-1.2,1.6c0.2,0.2,0.4,0.4,0.6,0.7c0.2,0.3,0.3,0.7,0.4,1.1s0.2,0.7,0.2,1.1
				c0,0.4,0.1,0.6,0.1,0.9c0,0.2-0.1,0.4-0.2,0.6c-0.2,0.2-0.4,0.5-0.6,0.8s-0.6,0.7-1,1.1c-0.4,0.4-0.8,1-1.3,1.7
				c-0.4,0.5-0.8,1-1.1,1.5s-0.8,0.8-1.3,1.1c-0.5,0.3-1.1,0.5-1.8,0.6c-0.7,0.1-1.7,0.2-2.9,0.2c-0.6,0-1.5-0.1-2.5-0.2
				c-1.1-0.2-2.1-0.4-3.1-0.7c-1-0.3-1.9-0.8-2.7-1.3c-0.7-0.5-1.1-1.1-1.1-1.8c0-0.4,0.1-0.6,0.4-0.6c0.3-0.1,0.6-0.1,1-0.1
				c0.7,0,1.4,0.1,2.1,0.4s1.3,0.5,2,0.8c0.7,0.3,1.4,0.6,2.1,0.8s1.5,0.4,2.3,0.4c0.6,0,1.3-0.2,1.9-0.7c0.6-0.4,1.2-1,1.8-1.6
				c0.6-0.6,1.1-1.2,1.5-1.8c0.4-0.6,0.7-1.1,0.8-1.5c0-0.8-0.2-1.5-0.7-1.9c-0.5-0.4-1-0.8-1.7-1.1c-0.7-0.3-1.4-0.4-2.3-0.5
				s-1.6-0.2-2.3-0.3c-0.7-0.1-1.3-0.3-1.7-0.4s-0.7-0.5-0.7-0.8c0-0.6,0.3-1.1,0.9-1.6c0.6-0.5,1.2-0.7,1.9-0.7
				c1.1,0,2.3,0.1,3.4,0.2c1.1,0.1,2.2,0.4,3.1,0.7c0-0.3,0.1-0.5,0.1-0.8c0-0.3,0-0.5,0-0.8c0-1.4-0.2-2.8-0.7-4
				c-0.5-1.2-1.2-2.3-2-3.2c-0.9-0.9-2-1.6-3.4-2.1c-1.3-0.5-2.9-0.8-4.7-0.8c-1,0-1.7,0.1-2.1,0.2c-0.4,0.1-0.9,0.2-1.4,0.2
				c-0.7,0-1.1-0.2-1.2-0.6c-0.2-0.4-0.2-1-0.2-1.7c0-0.7,0.1-1.1,0.3-1.3C290.5,176.1,290.7,176,291.1,176z"/>
		</g>
		<g class="st4">
			<path d="M284.4,258.6c-0.7,0-1.2-0.4-1.5-1.1c-0.2-0.7-0.4-1.6-0.4-2.6c0-0.6,0-1.4,0.1-2.6c0-1.1,0.1-2.3,0.1-3.5
				c0.1-1.2,0.1-2.3,0.2-3.3s0.1-1.7,0.1-2.1c-1.1-0.4-2-0.7-2.8-0.8c-0.8-0.1-1.4-0.3-1.9-0.4c-0.5-0.2-0.8-0.4-1.1-0.6
				s-0.4-0.7-0.4-1.3c0-0.8,0.1-1.6,0.4-2.6c0.3-1,0.4-2,0.4-3.2c0-0.4-0.1-0.8-0.2-1.1c-0.1-0.4-0.2-0.9-0.2-1.7
				c0-0.5,0.1-1.1,0.2-1.6c0.1-0.5,0.5-0.8,1-0.8c0.6,0,1,0.4,1.2,1.1c0.2,0.8,0.3,1.6,0.3,2.7c0,1.2-0.1,2.4-0.2,3.5
				c-0.2,1.2-0.3,2-0.4,2.5c0.4,0.3,1.1,0.5,2,0.8c0.9,0.2,1.9,0.4,3,0.4c0-2.2,0.2-4.2,0.4-5.9s0.5-3.2,0.8-4.6
				c0.3-1.3,0.6-2.5,0.8-3.5c0.2-1,0.4-2,0.4-2.8c0.1-1.2,0.2-2.1,0.3-2.5s0.5-0.7,1.2-0.7c0.3,0,0.5,0.1,0.6,0.2
				c0.1,0.2,0.1,0.3,0.1,0.5c0,1.5-0.1,3-0.2,4.5c-0.2,1.5-0.3,3-0.5,4.6s-0.3,3.2-0.5,4.9c-0.2,1.7-0.2,3.5-0.2,5.4
				c0.2,0.2,0.6,0.4,1.1,0.5c0.5,0.1,1.1,0.3,1.7,0.4s1.1,0.4,1.5,0.7c0.4,0.3,0.7,0.6,0.7,1.1c0,0.5-0.5,0.9-1.4,1.1
				c-0.9,0.2-2.6,0.3-5.1,0.3c0,0.5,0.1,1.2,0.1,2.2c0,0.9,0.1,1.9,0.1,2.9c0,0.8,0,1.7-0.1,2.7c-0.1,1-0.2,2-0.3,2.9
				c-0.2,0.9-0.4,1.7-0.6,2.3C285.1,258.2,284.8,258.6,284.4,258.6z"/>
		</g>
		<g class="st4">
			<path class="st13" d="M284.4,258.6c-0.7,0-1.2-0.4-1.5-1.1c-0.2-0.7-0.4-1.6-0.4-2.6c0-0.6,0-1.4,0.1-2.6c0-1.1,0.1-2.3,0.1-3.5
				c0.1-1.2,0.1-2.3,0.2-3.3s0.1-1.7,0.1-2.1c-1.1-0.4-2-0.7-2.8-0.8c-0.8-0.1-1.4-0.3-1.9-0.4c-0.5-0.2-0.8-0.4-1.1-0.6
				s-0.4-0.7-0.4-1.3c0-0.8,0.1-1.6,0.4-2.6c0.3-1,0.4-2,0.4-3.2c0-0.4-0.1-0.8-0.2-1.1c-0.1-0.4-0.2-0.9-0.2-1.7
				c0-0.5,0.1-1.1,0.2-1.6c0.1-0.5,0.5-0.8,1-0.8c0.6,0,1,0.4,1.2,1.1c0.2,0.8,0.3,1.6,0.3,2.7c0,1.2-0.1,2.4-0.2,3.5
				c-0.2,1.2-0.3,2-0.4,2.5c0.4,0.3,1.1,0.5,2,0.8c0.9,0.2,1.9,0.4,3,0.4c0-2.2,0.2-4.2,0.4-5.9s0.5-3.2,0.8-4.6
				c0.3-1.3,0.6-2.5,0.8-3.5c0.2-1,0.4-2,0.4-2.8c0.1-1.2,0.2-2.1,0.3-2.5s0.5-0.7,1.2-0.7c0.3,0,0.5,0.1,0.6,0.2
				c0.1,0.2,0.1,0.3,0.1,0.5c0,1.5-0.1,3-0.2,4.5c-0.2,1.5-0.3,3-0.5,4.6s-0.3,3.2-0.5,4.9c-0.2,1.7-0.2,3.5-0.2,5.4
				c0.2,0.2,0.6,0.4,1.1,0.5c0.5,0.1,1.1,0.3,1.7,0.4s1.1,0.4,1.5,0.7c0.4,0.3,0.7,0.6,0.7,1.1c0,0.5-0.5,0.9-1.4,1.1
				c-0.9,0.2-2.6,0.3-5.1,0.3c0,0.5,0.1,1.2,0.1,2.2c0,0.9,0.1,1.9,0.1,2.9c0,0.8,0,1.7-0.1,2.7c-0.1,1-0.2,2-0.3,2.9
				c-0.2,0.9-0.4,1.7-0.6,2.3C285.1,258.2,284.8,258.6,284.4,258.6z"/>
		</g>
		<g class="st4">
			<path d="M255.3,295.4c-2.6,0-4.8-0.3-6.8-0.8c-1.9-0.6-3.6-1.3-5-2.2c-1.4-0.9-2.5-1.8-3.4-2.9c-0.9-1.1-1.6-2.1-2.1-3
				c-0.5-1-0.9-1.8-1.1-2.5c-0.2-0.7-0.3-1.2-0.3-1.4c0-0.4,0.1-0.6,0.2-0.7c0.2-0.1,0.4-0.1,0.6-0.1c0.2,0,0.5,0.1,0.9,0.4
				c0.4,0.3,0.7,0.7,1.1,1.2c0.4,0.5,0.8,1.1,1.3,1.8c0.5,0.7,0.9,1.4,1.4,2.1c0.6,0.9,1.1,1.6,1.7,2.2c0.5,0.6,1.2,1,1.9,1.4
				c0.7,0.4,1.6,0.6,2.6,0.7c1,0.1,2.3,0.2,3.8,0.2c1.2,0,2.1-0.3,2.9-0.8c0.8-0.5,1.4-1.2,1.9-2c0.5-0.8,0.8-1.8,1-2.8
				c0.2-1,0.3-2,0.3-3c0-0.7-0.2-1.4-0.6-1.8c-0.4-0.5-0.9-0.9-1.6-1.1c-0.7-0.3-1.4-0.5-2.3-0.6c-0.8-0.1-1.7-0.1-2.5-0.1
				c-0.5,0-1.1,0-1.6,0c-0.5,0-1,0-1.4,0.1c0.1-0.8,0.2-1.8,0.4-2.9c0.1-1.1,0.3-2.2,0.4-3.4c0.2-1.2,0.3-2.3,0.6-3.5
				c0.2-1.1,0.5-2.1,0.7-3s0.6-1.6,0.9-2.1c0.3-0.5,0.7-0.8,1.1-0.8c0.9,0,2,0.1,3.4,0.4c1.4,0.3,2.8,0.6,4.1,0.9
				c1.3,0.4,2.5,0.8,3.5,1.1c1,0.4,1.5,0.7,1.5,1c0,0.4-0.4,0.6-1.1,0.6c-0.9,0-2.1-0.1-3.7-0.4c-1.6-0.3-3.4-0.4-5.3-0.4
				c-0.7,0-1.2,0.2-1.6,0.5c-0.4,0.4-0.7,0.8-0.8,1.3c-0.2,0.5-0.3,1.4-0.4,2.6c-0.1,1.2-0.2,3.1-0.3,5.7c2.2,0,3.9,0.2,5.2,0.5
				s2.1,0.8,2.7,1.4c0.6,0.6,0.9,1.5,1.1,2.5c0.1,1,0.2,2.3,0.2,3.8c0,0.5-0.1,1.3-0.2,2.3c-0.1,1.1-0.4,2.2-0.8,3.4
				c-0.4,1.2-0.9,2.2-1.7,3S256.5,295.4,255.3,295.4z"/>
		</g>
		<g class="st4">
			<path class="st13" d="M255.3,295.4c-2.6,0-4.8-0.3-6.8-0.8c-1.9-0.6-3.6-1.3-5-2.2c-1.4-0.9-2.5-1.8-3.4-2.9
				c-0.9-1.1-1.6-2.1-2.1-3c-0.5-1-0.9-1.8-1.1-2.5c-0.2-0.7-0.3-1.2-0.3-1.4c0-0.4,0.1-0.6,0.2-0.7c0.2-0.1,0.4-0.1,0.6-0.1
				c0.2,0,0.5,0.1,0.9,0.4c0.4,0.3,0.7,0.7,1.1,1.2c0.4,0.5,0.8,1.1,1.3,1.8c0.5,0.7,0.9,1.4,1.4,2.1c0.6,0.9,1.1,1.6,1.7,2.2
				c0.5,0.6,1.2,1,1.9,1.4c0.7,0.4,1.6,0.6,2.6,0.7c1,0.1,2.3,0.2,3.8,0.2c1.2,0,2.1-0.3,2.9-0.8c0.8-0.5,1.4-1.2,1.9-2
				c0.5-0.8,0.8-1.8,1-2.8c0.2-1,0.3-2,0.3-3c0-0.7-0.2-1.4-0.6-1.8c-0.4-0.5-0.9-0.9-1.6-1.1c-0.7-0.3-1.4-0.5-2.3-0.6
				c-0.8-0.1-1.7-0.1-2.5-0.1c-0.5,0-1.1,0-1.6,0c-0.5,0-1,0-1.4,0.1c0.1-0.8,0.2-1.8,0.4-2.9c0.1-1.1,0.3-2.2,0.4-3.4
				c0.2-1.2,0.3-2.3,0.6-3.5c0.2-1.1,0.5-2.1,0.7-3s0.6-1.6,0.9-2.1c0.3-0.5,0.7-0.8,1.1-0.8c0.9,0,2,0.1,3.4,0.4
				c1.4,0.3,2.8,0.6,4.1,0.9c1.3,0.4,2.5,0.8,3.5,1.1c1,0.4,1.5,0.7,1.5,1c0,0.4-0.4,0.6-1.1,0.6c-0.9,0-2.1-0.1-3.7-0.4
				c-1.6-0.3-3.4-0.4-5.3-0.4c-0.7,0-1.2,0.2-1.6,0.5c-0.4,0.4-0.7,0.8-0.8,1.3c-0.2,0.5-0.3,1.4-0.4,2.6c-0.1,1.2-0.2,3.1-0.3,5.7
				c2.2,0,3.9,0.2,5.2,0.5s2.1,0.8,2.7,1.4c0.6,0.6,0.9,1.5,1.1,2.5c0.1,1,0.2,2.3,0.2,3.8c0,0.5-0.1,1.3-0.2,2.3
				c-0.1,1.1-0.4,2.2-0.8,3.4c-0.4,1.2-0.9,2.2-1.7,3S256.5,295.4,255.3,295.4z"/>
		</g>
		<g class="st4">
			<path d="M241.5,89.6c0.5,0,1,0.2,1.2,0.6c0.3,0.4,0.4,0.8,0.4,1.2c0,0.4,0,0.9-0.1,1.6s-0.1,1.3-0.1,2.1c0,1.5,0,3.1,0.1,4.8
				c0.1,1.7,0.2,3.5,0.3,5.3s0.2,3.6,0.3,5.4c0.1,1.8,0.1,3.5,0.1,5.2c0,0.5-0.1,0.8-0.4,1s-0.6,0.3-1.2,0.3c-0.5,0-0.9-0.2-1-0.7
				c-0.1-0.4-0.1-1-0.1-1.7c0-1,0-1.8,0-2.5c0-0.7,0-1.4-0.1-2.1c0-0.7,0-1.5-0.1-2.3c0-0.8-0.1-1.8-0.1-3c0-1.3-0.2-2.4-0.4-3.4
				c-0.2-1-0.4-1.8-0.7-2.6c-0.2-0.8-0.4-1.5-0.6-2.2c-0.2-0.7-0.3-1.5-0.3-2.3c0-0.5,0-1,0.1-1.5c0.1-0.5,0.2-1,0.4-1.5
				c0.2-0.5,0.4-0.9,0.8-1.2C240.6,89.7,241,89.6,241.5,89.6z"/>
		</g>
		<g class="st4">
			<path class="st13" d="M241.5,89.6c0.5,0,1,0.2,1.2,0.6c0.3,0.4,0.4,0.8,0.4,1.2c0,0.4,0,0.9-0.1,1.6s-0.1,1.3-0.1,2.1
				c0,1.5,0,3.1,0.1,4.8c0.1,1.7,0.2,3.5,0.3,5.3s0.2,3.6,0.3,5.4c0.1,1.8,0.1,3.5,0.1,5.2c0,0.5-0.1,0.8-0.4,1s-0.6,0.3-1.2,0.3
				c-0.5,0-0.9-0.2-1-0.7c-0.1-0.4-0.1-1-0.1-1.7c0-1,0-1.8,0-2.5c0-0.7,0-1.4-0.1-2.1c0-0.7,0-1.5-0.1-2.3c0-0.8-0.1-1.8-0.1-3
				c0-1.3-0.2-2.4-0.4-3.4c-0.2-1-0.4-1.8-0.7-2.6c-0.2-0.8-0.4-1.5-0.6-2.2c-0.2-0.7-0.3-1.5-0.3-2.3c0-0.5,0-1,0.1-1.5
				c0.1-0.5,0.2-1,0.4-1.5c0.2-0.5,0.4-0.9,0.8-1.2C240.6,89.7,241,89.6,241.5,89.6z"/>
		</g>
		<g class="st4">
			<path d="M276.7,125.1c1.4,0,2.5,0.5,3.1,1.6c0.6,1.1,0.9,2.3,0.9,3.8c0,0.8-0.1,1.7-0.3,2.6c-0.2,0.9-0.4,1.8-0.7,2.7
				c-0.3,0.9-0.6,1.7-1.1,2.4c-0.4,0.7-0.8,1.4-1.3,1.9c-0.3,0.3-0.7,0.7-1.2,1.1c-0.5,0.4-1,0.9-1.6,1.4c-0.5,0.5-1.1,1-1.6,1.5
				s-0.9,1-1.3,1.4c0.3,0.5,0.9,1,1.6,1.3c0.8,0.3,1.6,0.6,2.6,0.8c0.9,0.2,1.9,0.4,2.9,0.6c1,0.1,1.9,0.3,2.6,0.4
				c0.5,0.1,1.2,0.2,2.1,0.4c0.9,0.2,1.7,0.4,2.6,0.7c0.8,0.3,1.6,0.6,2.2,1c0.6,0.4,0.9,0.8,0.9,1.3c0,0.4,0,0.6-0.1,0.8
				c-0.1,0.2-0.3,0.3-0.7,0.3c-1.3,0-2.3-0.1-3.2-0.4c-0.9-0.3-1.9-0.6-3-1.1c-0.5-0.2-1.3-0.4-2.2-0.6c-1-0.2-2-0.5-3.2-0.7
				c-1.2-0.3-2.3-0.6-3.5-0.9c-1.2-0.3-2.3-0.7-3.3-1.1c-1-0.4-1.8-0.8-2.4-1.3c-0.6-0.5-0.9-1-0.9-1.6c0-0.4,0.3-0.8,0.8-1.3
				c0.5-0.5,1.2-1,2.1-1.7c0.8-0.6,1.7-1.3,2.7-2c1-0.7,1.9-1.6,2.7-2.5c0.8-0.9,1.5-1.9,2.1-2.9c0.5-1,0.8-2.2,0.8-3.4
				c0-1-0.3-1.6-0.8-1.8c-0.6-0.2-1.2-0.4-1.8-0.4c-0.6,0-1.2,0.1-1.6,0.3c-0.4,0.2-0.8,0.4-1.2,0.7s-0.7,0.5-1.1,0.7
				c-0.4,0.2-0.8,0.3-1.2,0.3c-0.3,0-0.5,0-0.7-0.1c-0.2,0-0.3-0.2-0.3-0.4c0-0.3,0.1-0.6,0.2-1s0.4-0.8,0.6-1.3
				c0.3-0.5,0.6-0.9,0.9-1.3c0.3-0.4,0.6-0.8,0.9-1.1c0.5-0.5,1-0.8,1.7-1C274,125.2,275.1,125.1,276.7,125.1z"/>
		</g>
		<g class="st4">
			<path class="st13" d="M276.7,125.1c1.4,0,2.5,0.5,3.1,1.6c0.6,1.1,0.9,2.3,0.9,3.8c0,0.8-0.1,1.7-0.3,2.6
				c-0.2,0.9-0.4,1.8-0.7,2.7c-0.3,0.9-0.6,1.7-1.1,2.4c-0.4,0.7-0.8,1.4-1.3,1.9c-0.3,0.3-0.7,0.7-1.2,1.1c-0.5,0.4-1,0.9-1.6,1.4
				c-0.5,0.5-1.1,1-1.6,1.5s-0.9,1-1.3,1.4c0.3,0.5,0.9,1,1.6,1.3c0.8,0.3,1.6,0.6,2.6,0.8c0.9,0.2,1.9,0.4,2.9,0.6
				c1,0.1,1.9,0.3,2.6,0.4c0.5,0.1,1.2,0.2,2.1,0.4c0.9,0.2,1.7,0.4,2.6,0.7c0.8,0.3,1.6,0.6,2.2,1c0.6,0.4,0.9,0.8,0.9,1.3
				c0,0.4,0,0.6-0.1,0.8c-0.1,0.2-0.3,0.3-0.7,0.3c-1.3,0-2.3-0.1-3.2-0.4c-0.9-0.3-1.9-0.6-3-1.1c-0.5-0.2-1.3-0.4-2.2-0.6
				c-1-0.2-2-0.5-3.2-0.7c-1.2-0.3-2.3-0.6-3.5-0.9c-1.2-0.3-2.3-0.7-3.3-1.1c-1-0.4-1.8-0.8-2.4-1.3c-0.6-0.5-0.9-1-0.9-1.6
				c0-0.4,0.3-0.8,0.8-1.3c0.5-0.5,1.2-1,2.1-1.7c0.8-0.6,1.7-1.3,2.7-2c1-0.7,1.9-1.6,2.7-2.5c0.8-0.9,1.5-1.9,2.1-2.9
				c0.5-1,0.8-2.2,0.8-3.4c0-1-0.3-1.6-0.8-1.8c-0.6-0.2-1.2-0.4-1.8-0.4c-0.6,0-1.2,0.1-1.6,0.3c-0.4,0.2-0.8,0.4-1.2,0.7
				s-0.7,0.5-1.1,0.7c-0.4,0.2-0.8,0.3-1.2,0.3c-0.3,0-0.5,0-0.7-0.1c-0.2,0-0.3-0.2-0.3-0.4c0-0.3,0.1-0.6,0.2-1s0.4-0.8,0.6-1.3
				c0.3-0.5,0.6-0.9,0.9-1.3c0.3-0.4,0.6-0.8,0.9-1.1c0.5-0.5,1-0.8,1.7-1C274,125.2,275.1,125.1,276.7,125.1z"/>
		</g>
	</g>
	<g>
		<g class="st4">
			<path d="M181.6,77.8c0.5,0,1,0.2,1.2,0.6c0.3,0.4,0.4,0.8,0.4,1.2c0,0.4,0,0.9-0.1,1.6c0,0.6-0.1,1.3-0.1,2.1
				c0,1.5,0,3.1,0.1,4.8c0.1,1.7,0.2,3.5,0.3,5.3c0.1,1.8,0.2,3.6,0.3,5.4c0.1,1.8,0.1,3.5,0.1,5.2c0,0.5-0.1,0.8-0.4,1
				s-0.6,0.3-1.2,0.3c-0.5,0-0.9-0.2-1-0.7c-0.1-0.4-0.1-1-0.1-1.7c0-1,0-1.8,0-2.5c0-0.7,0-1.4-0.1-2.1c0-0.7,0-1.5-0.1-2.3
				c0-0.8-0.1-1.8-0.1-3c0-1.3-0.2-2.4-0.4-3.4c-0.2-1-0.4-1.8-0.7-2.6c-0.2-0.8-0.4-1.5-0.6-2.2c-0.2-0.7-0.3-1.5-0.3-2.3
				c0-0.5,0-1,0.1-1.5c0.1-0.5,0.2-1,0.4-1.5c0.2-0.5,0.4-0.9,0.8-1.2C180.7,78,181.1,77.8,181.6,77.8z"/>
			<path d="M197.1,79.5c1.4,0,2.5,0.5,3.1,1.6c0.6,1.1,0.9,2.3,0.9,3.8c0,0.8-0.1,1.7-0.3,2.6c-0.2,0.9-0.4,1.8-0.7,2.7
				c-0.3,0.9-0.6,1.7-1.1,2.4c-0.4,0.7-0.8,1.4-1.3,1.9c-0.3,0.3-0.7,0.7-1.2,1.1c-0.5,0.4-1,0.9-1.6,1.4c-0.5,0.5-1.1,1-1.6,1.5
				c-0.5,0.5-0.9,1-1.3,1.4c0.3,0.5,0.9,1,1.6,1.3c0.8,0.3,1.6,0.6,2.6,0.8c0.9,0.2,1.9,0.4,2.9,0.6c1,0.1,1.9,0.3,2.6,0.4
				c0.5,0.1,1.2,0.2,2.1,0.4c0.9,0.2,1.7,0.4,2.6,0.7c0.8,0.3,1.6,0.6,2.2,1c0.6,0.4,0.9,0.8,0.9,1.3c0,0.4,0,0.6-0.1,0.8
				s-0.3,0.3-0.7,0.3c-1.3,0-2.3-0.1-3.2-0.4s-1.9-0.6-3-1.1c-0.5-0.2-1.3-0.4-2.2-0.6c-1-0.2-2-0.5-3.2-0.7
				c-1.2-0.3-2.3-0.6-3.5-0.9s-2.3-0.7-3.3-1.1c-1-0.4-1.8-0.8-2.4-1.3c-0.6-0.5-0.9-1-0.9-1.6c0-0.4,0.3-0.8,0.8-1.3
				c0.5-0.5,1.2-1,2.1-1.7c0.8-0.6,1.7-1.3,2.7-2c1-0.7,1.9-1.6,2.7-2.5c0.8-0.9,1.5-1.9,2.1-2.9c0.5-1,0.8-2.2,0.8-3.4
				c0-1-0.3-1.6-0.8-1.8c-0.6-0.2-1.2-0.4-1.8-0.4c-0.6,0-1.2,0.1-1.6,0.3c-0.4,0.2-0.8,0.4-1.2,0.7c-0.4,0.2-0.7,0.5-1.1,0.7
				c-0.4,0.2-0.8,0.3-1.2,0.3c-0.3,0-0.5,0-0.7-0.1c-0.2,0-0.3-0.2-0.3-0.4c0-0.3,0.1-0.6,0.2-1c0.2-0.4,0.4-0.8,0.6-1.3
				c0.3-0.5,0.6-0.9,0.9-1.3c0.3-0.4,0.6-0.8,0.9-1.1c0.5-0.5,1-0.8,1.7-1C194.5,79.6,195.6,79.5,197.1,79.5z"/>
		</g>
		<g class="st4">
			<path d="M204.5,281.7c0.5,0,0.9,0,1.3,0.1c0.4,0.1,0.6,0.4,0.6,0.8c0,0.5-0.3,0.9-0.8,1.3c-0.5,0.4-1.2,0.7-2,1
				c-0.8,0.3-1.5,0.6-2.3,0.9s-1.4,0.6-1.9,1c-1.5,1.1-2.7,2.6-3.5,4.4c-0.8,1.8-1.7,4-2.5,6.6c0.7-0.5,1.6-0.8,2.7-0.8
				c5.4,0,8.1,3.3,8.1,9.8c0,2.7-0.3,4.3-0.9,4.8c-0.5,0.4-1.1,0.8-1.7,1.2s-1.2,0.7-1.8,0.9c-0.6,0.3-1.1,0.4-1.6,0.6
				c-0.5,0.1-0.8,0.2-1.1,0.2c-1.5,0-2.8-0.1-3.9-0.3c-1.1-0.2-2-0.6-2.6-1.3c-0.7-0.7-1.2-1.6-1.5-2.9c-0.3-1.3-0.5-3-0.5-5.1
				c0-0.5,0-1,0.1-1.5c0.1-0.5,0.2-1.1,0.4-1.9c0.2-0.7,0.4-1.6,0.7-2.7c0.3-1.1,0.7-2.3,1.2-3.9c1.4-4.6,2.6-7.4,3.5-8.5
				c0.6-0.7,1.4-1.4,2.2-2c0.8-0.6,1.7-1.1,2.6-1.5c0.9-0.4,1.8-0.7,2.8-0.9C202.7,281.8,203.6,281.7,204.5,281.7z M196.9,300.6
				c-0.4,0-0.7,0.1-1.1,0.3c-0.3,0.2-0.6,0.4-0.9,0.6c-0.3,0.2-0.6,0.5-1,0.8s-0.8,0.6-1.2,0.8c-0.4,0.2-0.7,0.4-0.9,0.6
				s-0.4,0.4-0.6,0.7c-0.1,0.3-0.2,0.7-0.3,1.1c0,0.4-0.1,1-0.1,1.8c0,1.4,0.4,2.5,1.1,3.2s1.6,1.1,2.8,1.1c0.7,0,1.5-0.2,2.3-0.6
				c0.8-0.4,1.5-0.8,2.2-1.4c0.7-0.6,1.2-1.3,1.7-2s0.7-1.5,0.7-2.3c0-0.5-0.2-1-0.5-1.6s-0.7-1-1.2-1.5c-0.5-0.5-1-0.8-1.5-1.1
				S197.3,300.6,196.9,300.6z"/>
		</g>
		<g class="st4">
			<path d="M137,300.6c0-0.6,0.2-1.3,0.6-2.2c0.4-0.8,0.9-1.7,1.4-2.5c0.5-0.9,1.1-1.7,1.7-2.5c0.6-0.8,1.1-1.6,1.5-2.3
				c0.1-0.2,0.4-0.7,0.7-1.5c0.4-0.8,0.8-1.7,1.2-2.8c0.4-1.1,0.9-2.2,1.4-3.5c0.5-1.2,1-2.4,1.4-3.5c0.4-1.1,0.8-2.1,1-2.9
				c0.3-0.8,0.4-1.4,0.4-1.7c0-0.4,0-0.7-0.1-1.1c-0.1-0.3-0.4-0.5-1-0.6c-0.3,0-0.6,0.1-0.9,0.1c-0.3,0-0.6,0-0.9,0
				c-0.5,0-1.3,0-2.5-0.1c-1.2-0.1-2.4-0.1-3.5-0.3c-1.2-0.1-2.2-0.3-3.2-0.5c-0.9-0.2-1.4-0.4-1.4-0.7c0-0.3,0.2-0.5,0.5-0.6
				c0.4-0.1,0.8-0.1,1.5-0.1c0.5,0,1,0,1.6,0.1c0.6,0.1,1,0.2,1.4,0.4h12.5c0.1,0,0.1,0.1,0.2,0.3c0.1,0.2,0.1,0.4,0.1,0.6
				c0,0.2,0,0.5,0.1,0.7c0,0.2,0,0.4,0,0.4c0,1.2-0.2,2.4-0.5,3.6c-0.4,1.2-0.8,2.4-1.3,3.6c-0.5,1.2-1.1,2.4-1.7,3.6
				c-0.6,1.2-1.2,2.4-1.7,3.5c-0.2,0.4-0.5,1.1-0.9,2c-0.4,0.9-0.8,1.9-1.3,3c-0.5,1.1-1,2.2-1.6,3.4c-0.5,1.2-1.1,2.2-1.6,3.2
				c-0.5,1-1,1.7-1.4,2.3c-0.4,0.6-0.8,0.9-1,0.9c-0.7,0-1.3-0.2-1.8-0.7C137.2,301.9,137,301.3,137,300.6z"/>
		</g>
		<g class="st4">
			<path d="M102.4,261.9c-1.9,0-3.3-0.1-4.4-0.4c-1-0.3-1.8-0.7-2.4-1.2c-0.6-0.5-1-1.1-1.3-1.8c-0.3-0.7-0.6-1.4-1-2.2
				c-0.1-0.2-0.2-0.7-0.4-1.6c-0.2-0.8-0.2-1.9-0.2-3.1c0-0.9,0.2-1.7,0.7-2.4c0.4-0.8,1-1.5,1.6-2.2c0.6-0.7,1.3-1.4,1.9-2.1
				c0.6-0.7,1.2-1.3,1.6-2c-0.4-0.6-0.8-1.2-1.2-1.8c-0.4-0.5-0.8-1.1-1.2-1.6c-0.4-0.5-0.7-1.1-0.9-1.6c-0.2-0.5-0.4-1.1-0.4-1.7
				c0-0.9,0.4-1.7,1.1-2.4c0.7-0.7,1.6-1.2,2.5-1.7s2-0.7,3.1-0.9c1.1-0.2,2-0.3,2.8-0.3c0.4,0,0.9,0.1,1.5,0.2
				c0.7,0.2,1.3,0.4,2,0.6c0.7,0.3,1.3,0.6,1.8,0.9c0.5,0.4,0.8,0.7,0.8,1.1c0,0.6-0.2,1.3-0.7,2.1c-0.4,0.8-1,1.6-1.6,2.4
				c-0.6,0.8-1.3,1.6-2.1,2.3c-0.7,0.7-1.4,1.3-1.9,1.7c0.5,0.9,1.2,1.7,1.9,2.3c0.7,0.6,1.4,1.3,2.1,1.9c0.7,0.6,1.2,1.3,1.7,2
				c0.4,0.7,0.7,1.6,0.7,2.6c0,0.7-0.1,1.4-0.3,2.2c-0.2,0.7-0.4,1.5-0.7,2.2c-0.3,0.7-0.6,1.4-0.8,2c-0.3,0.7-0.6,1.3-0.8,1.9
				c-0.3,0.7-0.9,1.3-1.9,1.8C105.1,261.7,103.9,261.9,102.4,261.9z M95.8,253.8c0,1.6,0.5,3,1.5,4c1,1,2.3,1.5,3.8,1.5
				c1,0,2-0.2,2.7-0.7c0.8-0.5,1.4-1.1,1.9-1.8c0.5-0.7,0.9-1.6,1.1-2.4c0.2-0.9,0.3-1.7,0.3-2.5c0-1.7-0.5-3-1.6-4.1
				c-1.1-1-2.3-1.9-3.8-2.5c-0.5,0.4-1.2,0.9-1.9,1.7c-0.7,0.8-1.3,1.6-2,2.5c-0.6,0.9-1.1,1.7-1.5,2.5
				C96,252.7,95.8,253.3,95.8,253.8z M98.5,236.8c0,0.7,0.1,1.3,0.4,1.9c0.3,0.6,0.8,1.2,1.6,1.7c1.7-1.5,2.9-2.6,3.5-3.4
				c0.6-0.8,0.9-1.5,0.9-2.3c0,0,0-0.1-0.1-0.3c-0.1-0.2-0.2-0.4-0.4-0.6c-0.2-0.2-0.3-0.4-0.6-0.6c-0.2-0.2-0.4-0.3-0.6-0.3
				c-0.4,0-0.8,0.1-1.3,0.4c-0.5,0.3-1.1,0.6-1.6,0.9c-0.5,0.4-1,0.8-1.3,1.2C98.7,236.1,98.5,236.5,98.5,236.8z"/>
		</g>
		<g class="st4">
			<path d="M95,132.7c0.5,0,1,0.2,1.2,0.6c0.3,0.4,0.4,0.8,0.4,1.2c0,0.4,0,0.9-0.1,1.6c0,0.6-0.1,1.3-0.1,2.1c0,1.5,0,3.1,0.1,4.8
				c0.1,1.7,0.2,3.5,0.3,5.3c0.1,1.8,0.2,3.6,0.3,5.4c0.1,1.8,0.1,3.5,0.1,5.2c0,0.5-0.1,0.8-0.4,1s-0.6,0.3-1.2,0.3
				c-0.5,0-0.9-0.2-1-0.7c-0.1-0.4-0.1-1-0.1-1.7c0-1,0-1.8,0-2.5c0-0.7,0-1.4-0.1-2.1c0-0.7,0-1.5-0.1-2.3c0-0.8-0.1-1.8-0.1-3
				c0-1.3-0.2-2.4-0.4-3.4c-0.2-1-0.4-1.8-0.7-2.6c-0.2-0.8-0.4-1.5-0.6-2.2c-0.2-0.7-0.3-1.5-0.3-2.3c0-0.5,0-1,0.1-1.5
				c0.1-0.5,0.2-1,0.4-1.5c0.2-0.5,0.4-0.9,0.8-1.2C94.1,132.8,94.5,132.7,95,132.7z"/>
			<path d="M101.6,140.3c0-2.8,0.4-4.9,1.2-6.3c0.8-1.4,2-2.4,3.5-3c1.6-0.7,3-1.3,4-1.8c1-0.5,1.9-0.8,2.8-0.8s1.5,0.3,1.9,1
				c0.5,0.7,0.9,1.5,1.2,2.5c0.2,0.6,0.3,1.1,0.4,1.6c0.1,0.5,0.2,1.1,0.2,1.8c0,0.7,0.1,1.6,0.1,2.8c0,1.1,0,2.7,0,4.6
				c0,1.6-0.1,3.4-0.3,5.2s-0.6,3.5-1.1,5c-0.6,1.5-1.4,2.8-2.6,3.8c-1.1,1-2.7,1.5-4.6,1.5c-1.5,0-2.7-0.5-3.6-1.6
				c-0.9-1-1.5-2.4-2-4.1c-0.4-1.7-0.7-3.6-0.8-5.8C101.6,144.8,101.6,142.6,101.6,140.3z M103.8,139.7c0,1,0,2.3,0.1,3.9
				s0.3,3.2,0.6,4.7c0.4,1.5,0.9,2.9,1.6,4c0.7,1.1,1.8,1.7,3.2,1.7c1.1,0,1.9-0.3,2.5-1s1.1-1.5,1.5-2.5c0.4-1,0.6-2,0.7-3.2
				c0.1-1.2,0.1-2.2,0.1-3.2c0-0.3,0-0.5,0-0.7c0-0.2,0-0.5,0-0.7c0-0.3,0-0.6-0.1-1c0-0.4-0.1-0.9-0.2-1.5
				c-0.3,0.1-0.5,0.2-0.7,0.2c-0.2,0-0.4-0.4-0.5-1.2c-0.1-0.8-0.2-1.6-0.3-2.6c-0.1-0.9-0.2-1.8-0.4-2.7c-0.1-0.8-0.3-1.3-0.6-1.4
				c-0.2,0-0.8,0.1-1.6,0.4c-0.8,0.2-1.6,0.6-2.5,1.2c-0.9,0.5-1.7,1.3-2.4,2.2S103.8,138.3,103.8,139.7z"/>
		</g>
		<g class="st4">
			<path d="M134.9,89.6c0.5,0,1,0.2,1.2,0.6c0.3,0.4,0.4,0.8,0.4,1.2c0,0.4,0,0.9-0.1,1.6c0,0.6-0.1,1.3-0.1,2.1
				c0,1.5,0,3.1,0.1,4.8c0.1,1.7,0.2,3.5,0.3,5.3c0.1,1.8,0.2,3.6,0.3,5.4c0.1,1.8,0.1,3.5,0.1,5.2c0,0.5-0.1,0.8-0.4,1
				s-0.6,0.3-1.2,0.3c-0.5,0-0.9-0.2-1-0.7c-0.1-0.4-0.1-1-0.1-1.7c0-1,0-1.8,0-2.5c0-0.7,0-1.4-0.1-2.1c0-0.7,0-1.5-0.1-2.3
				c0-0.8-0.1-1.8-0.1-3c0-1.3-0.2-2.4-0.4-3.4c-0.2-1-0.4-1.8-0.7-2.6c-0.2-0.8-0.4-1.5-0.6-2.2c-0.2-0.7-0.3-1.5-0.3-2.3
				c0-0.5,0-1,0.1-1.5c0.1-0.5,0.2-1,0.4-1.5c0.2-0.5,0.4-0.9,0.8-1.2C134.1,89.7,134.5,89.6,134.9,89.6z"/>
			<path d="M143.1,89.6c0.5,0,1,0.2,1.2,0.6c0.3,0.4,0.4,0.8,0.4,1.2c0,0.4,0,0.9-0.1,1.6c0,0.6-0.1,1.3-0.1,2.1
				c0,1.5,0,3.1,0.1,4.8c0.1,1.7,0.2,3.5,0.3,5.3c0.1,1.8,0.2,3.6,0.3,5.4c0.1,1.8,0.1,3.5,0.1,5.2c0,0.5-0.1,0.8-0.4,1
				s-0.6,0.3-1.2,0.3c-0.5,0-0.9-0.2-1-0.7c-0.1-0.4-0.1-1-0.1-1.7c0-1,0-1.8,0-2.5c0-0.7,0-1.4-0.1-2.1c0-0.7,0-1.5-0.1-2.3
				c0-0.8-0.1-1.8-0.1-3c0-1.3-0.2-2.4-0.4-3.4c-0.2-1-0.4-1.8-0.7-2.6c-0.2-0.8-0.4-1.5-0.6-2.2c-0.2-0.7-0.3-1.5-0.3-2.3
				c0-0.5,0-1,0.1-1.5c0.1-0.5,0.2-1,0.4-1.5c0.2-0.5,0.4-0.9,0.8-1.2C142.2,89.7,142.6,89.6,143.1,89.6z"/>
		</g>
		<g class="st4">
			<path d="M89,177.6c0.7,0,1.3,0.1,2,0.3c0.7,0.2,1.3,0.4,1.9,0.7c0.6,0.3,1,0.7,1.4,1.2c0.4,0.5,0.5,1,0.5,1.6c0,0.3,0,0.6-0.1,1
				c0,0.4-0.1,0.8-0.2,1.2c-0.1,0.4-0.2,0.9-0.4,1.3c-0.2,0.4-0.4,0.8-0.7,1.1v17c0,0.4,0,0.8-0.1,1.4c0,0.6-0.1,1.2-0.3,1.7
				c-0.2,0.6-0.4,1.1-0.6,1.5c-0.3,0.4-0.6,0.6-1.1,0.6c-0.7,0-1.2-0.2-1.5-0.6c-0.4-0.4-0.5-1-0.5-1.8c0-1,0.2-2.1,0.6-3.3
				c0.4-1.2,0.6-2.5,0.6-3.9c0-1.1,0-2.2-0.1-3.4c0-1.2-0.1-2.3-0.2-3.3c-0.9,0.6-1.6,1.1-2,1.3c-0.4,0.3-0.9,0.4-1.4,0.4
				c-0.6,0-1.4-0.1-2.3-0.4c-0.9-0.2-1.8-0.5-2.8-0.8c-0.7-0.2-1.4-0.5-2.2-0.8c-0.8-0.3-1.5-0.7-2.2-1.1c-0.7-0.4-1.2-0.8-1.6-1.3
				c-0.4-0.5-0.6-1-0.6-1.5c0-1.3,0.5-2.6,1.4-3.8s2.1-2.3,3.5-3.3c1.4-0.9,2.9-1.7,4.5-2.3C86.1,177.8,87.6,177.6,89,177.6z
				 M88.9,180.5c-0.4,0-1.2,0.3-2.2,0.8c-1,0.5-2.1,1.2-3.1,2c-1.1,0.8-2,1.5-2.8,2.3c-0.8,0.8-1.2,1.4-1.2,1.9
				c0,0.3,0.2,0.6,0.5,0.9c0.3,0.3,0.7,0.6,1.2,0.9c0.5,0.3,1,0.5,1.5,0.6c0.5,0.2,1,0.2,1.4,0.2c0.7,0,1.4-0.2,2.1-0.7
				c0.7-0.5,1.4-1.1,2-1.9c0.6-0.8,1.1-1.7,1.5-2.7c0.4-1,0.6-2,0.6-3c0-0.4-0.1-0.8-0.3-1C89.9,180.6,89.5,180.5,88.9,180.5z"/>
		</g>
		<g class="st4">
			<path d="M291.1,176c0.7,0,1.4,0.1,2.1,0.2s1.3,0.3,2,0.4c0.7,0.2,1.4,0.3,2.2,0.5s1.7,0.3,2.7,0.4c0.9,0.1,1.8,0.2,2.7,0.4
				c0.9,0.2,1.6,0.5,2.3,0.8c0.7,0.3,1.2,0.7,1.6,1.2c0.4,0.5,0.6,1.1,0.6,1.8c0,0.3,0,0.6-0.1,0.8c0,0.2-0.1,0.4-0.1,0.5
				c0,0.3,0.1,0.8,0.4,1.5c0.3,0.7,0.5,1.5,0.8,2.3c0.3,0.8,0.6,1.7,0.8,2.5c0.3,0.8,0.4,1.5,0.4,1.9s-0.1,1-0.4,1.6
				c-0.3,0.6-0.7,1.1-1.2,1.6c0.2,0.2,0.4,0.4,0.6,0.7c0.2,0.3,0.3,0.7,0.4,1.1s0.2,0.7,0.2,1.1c0,0.4,0.1,0.6,0.1,0.9
				c0,0.2-0.1,0.4-0.2,0.6c-0.2,0.2-0.4,0.5-0.6,0.8s-0.6,0.7-1,1.1c-0.4,0.4-0.8,1-1.3,1.7c-0.4,0.5-0.8,1-1.1,1.5
				s-0.8,0.8-1.3,1.1c-0.5,0.3-1.1,0.5-1.8,0.6c-0.7,0.1-1.7,0.2-2.9,0.2c-0.6,0-1.5-0.1-2.5-0.2c-1.1-0.2-2.1-0.4-3.1-0.7
				c-1-0.3-1.9-0.8-2.7-1.3c-0.7-0.5-1.1-1.1-1.1-1.8c0-0.4,0.1-0.6,0.4-0.6c0.3-0.1,0.6-0.1,1-0.1c0.7,0,1.4,0.1,2.1,0.4
				s1.3,0.5,2,0.8c0.7,0.3,1.4,0.6,2.1,0.8s1.5,0.4,2.3,0.4c0.6,0,1.3-0.2,1.9-0.7c0.6-0.4,1.2-1,1.8-1.6c0.6-0.6,1.1-1.2,1.5-1.8
				c0.4-0.6,0.7-1.1,0.8-1.5c0-0.8-0.2-1.5-0.7-1.9c-0.5-0.4-1-0.8-1.7-1.1c-0.7-0.3-1.4-0.4-2.3-0.5s-1.6-0.2-2.3-0.3
				c-0.7-0.1-1.3-0.3-1.7-0.4s-0.7-0.5-0.7-0.8c0-0.6,0.3-1.1,0.9-1.6c0.6-0.5,1.2-0.7,1.9-0.7c1.1,0,2.3,0.1,3.4,0.2
				c1.1,0.1,2.2,0.4,3.1,0.7c0-0.3,0.1-0.5,0.1-0.8c0-0.3,0-0.5,0-0.8c0-1.4-0.2-2.8-0.7-4c-0.5-1.2-1.2-2.3-2-3.2
				c-0.9-0.9-2-1.6-3.4-2.1c-1.3-0.5-2.9-0.8-4.7-0.8c-1,0-1.7,0.1-2.1,0.2c-0.4,0.1-0.9,0.2-1.4,0.2c-0.7,0-1.1-0.2-1.2-0.6
				c-0.2-0.4-0.2-1-0.2-1.7c0-0.7,0.1-1.1,0.3-1.3C290.5,176.1,290.7,176,291.1,176z"/>
		</g>
		<g class="st4">
			<path d="M284.4,258.6c-0.7,0-1.2-0.4-1.5-1.1c-0.2-0.7-0.4-1.6-0.4-2.6c0-0.6,0-1.4,0.1-2.6c0-1.1,0.1-2.3,0.1-3.5
				c0.1-1.2,0.1-2.3,0.2-3.3s0.1-1.7,0.1-2.1c-1.1-0.4-2-0.7-2.8-0.8c-0.8-0.1-1.4-0.3-1.9-0.4c-0.5-0.2-0.8-0.4-1.1-0.6
				s-0.4-0.7-0.4-1.3c0-0.8,0.1-1.6,0.4-2.6c0.3-1,0.4-2,0.4-3.2c0-0.4-0.1-0.8-0.2-1.1c-0.1-0.4-0.2-0.9-0.2-1.7
				c0-0.5,0.1-1.1,0.2-1.6c0.1-0.5,0.5-0.8,1-0.8c0.6,0,1,0.4,1.2,1.1c0.2,0.8,0.3,1.6,0.3,2.7c0,1.2-0.1,2.4-0.2,3.5
				c-0.2,1.2-0.3,2-0.4,2.5c0.4,0.3,1.1,0.5,2,0.8c0.9,0.2,1.9,0.4,3,0.4c0-2.2,0.2-4.2,0.4-5.9s0.5-3.2,0.8-4.6
				c0.3-1.3,0.6-2.5,0.8-3.5c0.2-1,0.4-2,0.4-2.8c0.1-1.2,0.2-2.1,0.3-2.5s0.5-0.7,1.2-0.7c0.3,0,0.5,0.1,0.6,0.2
				c0.1,0.2,0.1,0.3,0.1,0.5c0,1.5-0.1,3-0.2,4.5c-0.2,1.5-0.3,3-0.5,4.6s-0.3,3.2-0.5,4.9c-0.2,1.7-0.2,3.5-0.2,5.4
				c0.2,0.2,0.6,0.4,1.1,0.5c0.5,0.1,1.1,0.3,1.7,0.4s1.1,0.4,1.5,0.7c0.4,0.3,0.7,0.6,0.7,1.1c0,0.5-0.5,0.9-1.4,1.1
				c-0.9,0.2-2.6,0.3-5.1,0.3c0,0.5,0.1,1.2,0.1,2.2c0,0.9,0.1,1.9,0.1,2.9c0,0.8,0,1.7-0.1,2.7c-0.1,1-0.2,2-0.3,2.9
				c-0.2,0.9-0.4,1.7-0.6,2.3C285.1,258.2,284.8,258.6,284.4,258.6z"/>
		</g>
		<g class="st4">
			<path d="M255.3,295.4c-2.6,0-4.8-0.3-6.8-0.8c-1.9-0.6-3.6-1.3-5-2.2c-1.4-0.9-2.5-1.8-3.4-2.9c-0.9-1.1-1.6-2.1-2.1-3
				c-0.5-1-0.9-1.8-1.1-2.5c-0.2-0.7-0.3-1.2-0.3-1.4c0-0.4,0.1-0.6,0.2-0.7c0.2-0.1,0.4-0.1,0.6-0.1c0.2,0,0.5,0.1,0.9,0.4
				c0.4,0.3,0.7,0.7,1.1,1.2c0.4,0.5,0.8,1.1,1.3,1.8c0.5,0.7,0.9,1.4,1.4,2.1c0.6,0.9,1.1,1.6,1.7,2.2c0.5,0.6,1.2,1,1.9,1.4
				c0.7,0.4,1.6,0.6,2.6,0.7c1,0.1,2.3,0.2,3.8,0.2c1.2,0,2.1-0.3,2.9-0.8c0.8-0.5,1.4-1.2,1.9-2c0.5-0.8,0.8-1.8,1-2.8
				c0.2-1,0.3-2,0.3-3c0-0.7-0.2-1.4-0.6-1.8c-0.4-0.5-0.9-0.9-1.6-1.1c-0.7-0.3-1.4-0.5-2.3-0.6c-0.8-0.1-1.7-0.1-2.5-0.1
				c-0.5,0-1.1,0-1.6,0c-0.5,0-1,0-1.4,0.1c0.1-0.8,0.2-1.8,0.4-2.9c0.1-1.1,0.3-2.2,0.4-3.4c0.2-1.2,0.3-2.3,0.6-3.5
				c0.2-1.1,0.5-2.1,0.7-3s0.6-1.6,0.9-2.1c0.3-0.5,0.7-0.8,1.1-0.8c0.9,0,2,0.1,3.4,0.4c1.4,0.3,2.8,0.6,4.1,0.9
				c1.3,0.4,2.5,0.8,3.5,1.1c1,0.4,1.5,0.7,1.5,1c0,0.4-0.4,0.6-1.1,0.6c-0.9,0-2.1-0.1-3.7-0.4c-1.6-0.3-3.4-0.4-5.3-0.4
				c-0.7,0-1.2,0.2-1.6,0.5c-0.4,0.4-0.7,0.8-0.8,1.3c-0.2,0.5-0.3,1.4-0.4,2.6c-0.1,1.2-0.2,3.1-0.3,5.7c2.2,0,3.9,0.2,5.2,0.5
				s2.1,0.8,2.7,1.4c0.6,0.6,0.9,1.5,1.1,2.5c0.1,1,0.2,2.3,0.2,3.8c0,0.5-0.1,1.3-0.2,2.3c-0.1,1.1-0.4,2.2-0.8,3.4
				c-0.4,1.2-0.9,2.2-1.7,3S256.5,295.4,255.3,295.4z"/>
		</g>
		<g class="st4">
			<path d="M241.5,89.6c0.5,0,1,0.2,1.2,0.6c0.3,0.4,0.4,0.8,0.4,1.2c0,0.4,0,0.9-0.1,1.6s-0.1,1.3-0.1,2.1c0,1.5,0,3.1,0.1,4.8
				c0.1,1.7,0.2,3.5,0.3,5.3s0.2,3.6,0.3,5.4c0.1,1.8,0.1,3.5,0.1,5.2c0,0.5-0.1,0.8-0.4,1s-0.6,0.3-1.2,0.3c-0.5,0-0.9-0.2-1-0.7
				c-0.1-0.4-0.1-1-0.1-1.7c0-1,0-1.8,0-2.5c0-0.7,0-1.4-0.1-2.1c0-0.7,0-1.5-0.1-2.3c0-0.8-0.1-1.8-0.1-3c0-1.3-0.2-2.4-0.4-3.4
				c-0.2-1-0.4-1.8-0.7-2.6c-0.2-0.8-0.4-1.5-0.6-2.2c-0.2-0.7-0.3-1.5-0.3-2.3c0-0.5,0-1,0.1-1.5c0.1-0.5,0.2-1,0.4-1.5
				c0.2-0.5,0.4-0.9,0.8-1.2C240.6,89.7,241,89.6,241.5,89.6z"/>
		</g>
		<g class="st4">
			<path d="M276.7,125.1c1.4,0,2.5,0.5,3.1,1.6c0.6,1.1,0.9,2.3,0.9,3.8c0,0.8-0.1,1.7-0.3,2.6c-0.2,0.9-0.4,1.8-0.7,2.7
				c-0.3,0.9-0.6,1.7-1.1,2.4c-0.4,0.7-0.8,1.4-1.3,1.9c-0.3,0.3-0.7,0.7-1.2,1.1c-0.5,0.4-1,0.9-1.6,1.4c-0.5,0.5-1.1,1-1.6,1.5
				s-0.9,1-1.3,1.4c0.3,0.5,0.9,1,1.6,1.3c0.8,0.3,1.6,0.6,2.6,0.8c0.9,0.2,1.9,0.4,2.9,0.6c1,0.1,1.9,0.3,2.6,0.4
				c0.5,0.1,1.2,0.2,2.1,0.4c0.9,0.2,1.7,0.4,2.6,0.7c0.8,0.3,1.6,0.6,2.2,1c0.6,0.4,0.9,0.8,0.9,1.3c0,0.4,0,0.6-0.1,0.8
				c-0.1,0.2-0.3,0.3-0.7,0.3c-1.3,0-2.3-0.1-3.2-0.4c-0.9-0.3-1.9-0.6-3-1.1c-0.5-0.2-1.3-0.4-2.2-0.6c-1-0.2-2-0.5-3.2-0.7
				c-1.2-0.3-2.3-0.6-3.5-0.9c-1.2-0.3-2.3-0.7-3.3-1.1c-1-0.4-1.8-0.8-2.4-1.3c-0.6-0.5-0.9-1-0.9-1.6c0-0.4,0.3-0.8,0.8-1.3
				c0.5-0.5,1.2-1,2.1-1.7c0.8-0.6,1.7-1.3,2.7-2c1-0.7,1.9-1.6,2.7-2.5c0.8-0.9,1.5-1.9,2.1-2.9c0.5-1,0.8-2.2,0.8-3.4
				c0-1-0.3-1.6-0.8-1.8c-0.6-0.2-1.2-0.4-1.8-0.4c-0.6,0-1.2,0.1-1.6,0.3c-0.4,0.2-0.8,0.4-1.2,0.7s-0.7,0.5-1.1,0.7
				c-0.4,0.2-0.8,0.3-1.2,0.3c-0.3,0-0.5,0-0.7-0.1c-0.2,0-0.3-0.2-0.3-0.4c0-0.3,0.1-0.6,0.2-1s0.4-0.8,0.6-1.3
				c0.3-0.5,0.6-0.9,0.9-1.3c0.3-0.4,0.6-0.8,0.9-1.1c0.5-0.5,1-0.8,1.7-1C274,125.2,275.1,125.1,276.7,125.1z"/>
		</g>
	</g>
</g>
<path class="st0" d="M337.9,130.1c0-0.1,0-0.1-0.1-0.2c-0.2-0.5-0.4-1.1-0.6-1.6c-0.3-0.9-0.7-1.9-1-2.8c-0.2-0.6-0.4-1.1-0.6-1.7
	c-0.4-0.9-0.7-1.8-1.1-2.7c-0.2-0.5-0.4-1-0.7-1.6c-0.5-1.1-0.9-2.1-1.4-3.2c-0.2-0.3-0.3-0.7-0.5-1c-0.6-1.4-1.3-2.7-2-4.1
	c-0.2-0.4-0.4-0.8-0.7-1.2c-0.5-0.9-1-1.9-1.5-2.8c-0.3-0.5-0.6-1-0.9-1.5c-0.5-0.8-1-1.7-1.5-2.5c-0.3-0.5-0.6-1-0.9-1.5
	c-0.5-0.8-1-1.7-1.6-2.5c-0.3-0.5-0.6-0.9-0.9-1.4c-0.7-1-1.4-2-2.1-3c-0.2-0.3-0.3-0.5-0.5-0.8c-0.9-1.2-1.8-2.4-2.7-3.6
	c-0.3-0.4-0.6-0.8-0.9-1.2c-0.6-0.8-1.3-1.6-1.9-2.4c-0.4-0.5-0.8-0.9-1.1-1.4c-0.3-0.4-0.6-0.8-1-1.2l0,0
	c-5.9-6.9-12.5-13.3-19.7-19c2,0.4,3.2,0.6,3.2,0.6c41.4-9.1,39.1-46.8,39.1-46.8c-10.6,29.5-95.4,17.5-111.2,15l0,0
	c-0.5-0.1-1-0.2-1.3-0.2l0,0c-0.2,0-0.3-0.1-0.5-0.1l0,0c-0.1,0-0.2,0-0.3-0.1c0,0,0,0-0.1,0c-0.2,0-0.3,0-0.3,0
	c0.1,0.1,0.1,0.2,0.2,0.2c-9-1.5-18.4-2.3-28-2.3c-9.8,0-19.2,0.7-28.2,2.1l0,0c0,0,0,0-0.1,0c-0.9,0.1-1.8,0.3-2.7,0.4
	c-0.3,0.1-0.7,0.1-1,0.2c-0.1,0-0.1,0-0.2,0c-2.8,0.4-6.9,1-12,1.6l0,0c-29.2,3.5-89,7.6-97.7-16.9c0,0-2.3,37.7,39.1,46.8l0,0
	c-10,8.2-18.6,17.6-25.7,28.1l0,0c-0.1,0.1-0.1,0.2-0.2,0.2c-0.4,0.5-0.7,1.1-1.1,1.6c-0.4,0.7-0.9,1.3-1.3,2
	c-0.4,0.6-0.7,1.1-1.1,1.7c-0.4,0.7-0.9,1.5-1.3,2.2c-0.3,0.5-0.6,1-0.9,1.5c-0.6,1.1-1.3,2.3-1.9,3.5c-0.3,0.5-0.6,1.1-0.8,1.7
	c-0.4,0.7-0.8,1.5-1.1,2.2c-0.3,0.6-0.6,1.2-0.8,1.8c-0.4,0.8-0.7,1.6-1.1,2.4c-0.2,0.5-0.5,1.1-0.7,1.6c-0.5,1.2-1,2.5-1.5,3.7
	c-0.2,0.5-0.4,1.1-0.6,1.6c-0.3,0.8-0.6,1.7-0.9,2.5c-0.2,0.6-0.4,1.2-0.6,1.8c-0.3,0.9-0.6,1.7-0.9,2.6c0,0.1-0.1,0.2-0.1,0.3l0,0
	l0,0l0,0c0,0,0,0-0.1,0.1l-0.1,0.1l0,0l-0.1,0.1c0,0,0,0.1-0.1,0.1c0,0.1-0.1,0.1-0.2,0.2c0,0,0,0-0.1,0.1c-0.1,0.1-0.1,0.2-0.2,0.3
	c0,0,0,0-0.1,0.1s-0.2,0.2-0.2,0.3l-0.1,0.1c-0.1,0.1-0.2,0.2-0.3,0.3l-0.1,0.1c-0.1,0.1-0.2,0.3-0.3,0.4l-0.1,0.1
	c-0.1,0.1-0.2,0.3-0.3,0.4l-0.1,0.1c-0.1,0.2-0.2,0.3-0.4,0.5c0,0,0,0.1-0.1,0.1c-0.1,0.2-0.3,0.4-0.4,0.6c0,0,0,0,0,0.1
	c-1.8,2.5-4.2,6-6.9,10.5c0,0,0,0.1-0.1,0.1c-0.2,0.4-0.4,0.7-0.7,1.1c0,0.1-0.1,0.1-0.1,0.2c-0.2,0.4-0.4,0.7-0.6,1.1
	c0,0.1-0.1,0.1-0.1,0.2c-0.2,0.4-0.4,0.8-0.6,1.1c0,0.1-0.1,0.2-0.1,0.2c-0.2,0.4-0.4,0.8-0.6,1.2c0,0.1-0.1,0.2-0.1,0.3
	c-0.2,0.4-0.4,0.8-0.6,1.2c0,0.1-0.1,0.2-0.1,0.3c-0.2,0.4-0.4,0.8-0.6,1.2c0,0.1-0.1,0.2-0.1,0.2c-0.2,0.4-0.4,0.9-0.7,1.3
	c0,0.1-0.1,0.1-0.1,0.2c-0.2,0.5-0.4,0.9-0.7,1.4c0,0,0,0.1-0.1,0.1c-9.3,19.5-18,48.2-11,80.8C26,263,39,277.4,51.6,284.9l0,0l0,0
	c0.4,0.3,0.9,0.5,1.3,0.8c0.1,0,0.1,0.1,0.2,0.1c0.4,0.2,0.8,0.4,1.2,0.6c0.1,0,0.2,0.1,0.2,0.1c0.4,0.2,0.7,0.4,1.1,0.6
	c0.1,0,0.2,0.1,0.3,0.1c0.4,0.2,0.7,0.4,1.1,0.5c0.1,0,0.2,0.1,0.3,0.1c0.4,0.2,0.7,0.3,1.1,0.5c0.1,0,0.2,0.1,0.2,0.1
	c0.4,0.2,0.8,0.3,1.1,0.5c0.1,0,0.1,0,0.2,0.1c0.4,0.2,0.8,0.3,1.2,0.5h0.1c2.6,1,5.1,1.7,7.3,2.2c0,0,0,0,0.1,0
	c0.3,0.1,0.7,0.2,1,0.2h0.1c0.3,0.1,0.6,0.1,0.9,0.2h0.1c0.3,0.1,0.6,0.1,0.9,0.2h0.1c0.3,0.1,0.6,0.1,0.9,0.1h0.1
	c0.3,0,0.6,0.1,0.9,0.1l0,0c1.5,0.2,2.9,0.3,3.9,0.4l0,0c0.2,0,0.4,0,0.6,0h0.1c0.2,0,0.3,0,0.4,0h0.1c0.1,0,0.2,0,0.4,0h0.1
	c0.1,0,0.2,0,0.3,0h0.1c0.1,0,0.2,0,0.3,0H80c0.1,0,0.1,0,0.2,0c0,0,0,0,0.1,0c0.1,0,0.1,0,0.2,0l0,0c0.1,0,0.2,0,0.2,0l0,0
	c5.7,7.3,11.9,13,18.6,17.6c-4.2,3.8-7.2,8.6-8.3,14.2l39.5,9.2l39.9,7.2c1-4.9,0.5-9.8-1.3-14.4c4.7,0.1,9.6,0.2,14.6,0.2
	L172.4,362c0,0-46.5,53.8-29.7,100.6l7.5-11l0,0l0,0c-1.5,3-2.8,7.9-0.2,14l0,0c0.1,0.1,0.1,0.3,0.2,0.4c0.1,0.2,0.2,0.4,0.3,0.6
	c0.2,0.3,0.3,0.6,0.5,1c0.1,0.2,0.2,0.4,0.4,0.6c0.1,0.2,0.3,0.5,0.4,0.7c0.1,0.2,0.2,0.4,0.4,0.5c0.2,0.2,0.3,0.5,0.5,0.7
	c0.1,0.2,0.3,0.4,0.4,0.5c0.2,0.2,0.4,0.5,0.6,0.7c0.1,0.2,0.3,0.3,0.4,0.5c0.2,0.3,0.5,0.6,0.7,0.8c0.1,0.1,0.3,0.3,0.4,0.4
	c0.4,0.4,0.8,0.9,1.2,1.3c0,0,31.3-51.8,32.9-104.1c0.7-22.2,3.3-35.3,6-43c12.6-0.1,24.1-0.3,34.8-1.3c-1.2,5.3-1,10.8,0.9,15.9
	l35.8-12.2l32.9-13.3l0,0l2.1-0.9c-1.9-5-5.1-9.1-9.2-12.2c4-3.5,7.8-7.5,11.5-12.1l-0.4,2.2l0,0l0,0h0.1c0,0,0,0,0.1,0
	c0.1,0,0.1,0,0.2,0l0,0c0.1,0,0.2,0,0.4,0l0,0c0.1,0,0.2,0,0.4,0h0.1c0.1,0,0.3,0,0.4,0h0.1c0.4,0,0.8,0,1.3-0.1h0.1
	c0.2,0,0.4,0,0.7,0c0,0,0.1,0,0.2,0c0.3,0,0.5,0,0.8-0.1l0,0c0.3,0,0.6-0.1,1-0.1l0,0c0.3,0,0.6-0.1,1-0.1c0.1,0,0.1,0,0.2,0
	c0.3,0,0.6-0.1,0.9-0.1c0.1,0,0.1,0,0.2,0c0.7-0.1,1.5-0.3,2.3-0.4h0.1c0.4-0.1,0.7-0.2,1.1-0.2c0.1,0,0.1,0,0.2,0
	c0.4-0.1,0.8-0.2,1.2-0.3l0,0c0.9-0.2,1.8-0.5,2.7-0.8c0.1,0,0.1,0,0.2-0.1c0.4-0.1,0.8-0.3,1.2-0.4c0.1,0,0.1,0,0.2-0.1
	c1-0.3,2-0.7,3-1.1c0.1,0,0.1,0,0.2-0.1c0.4-0.2,0.9-0.4,1.3-0.6c0.1,0,0.2-0.1,0.3-0.1c0.5-0.2,0.9-0.4,1.4-0.6h0.1
	c1-0.5,2.1-1,3.1-1.6c0.1,0,0.2-0.1,0.3-0.2c0.4-0.2,0.9-0.5,1.3-0.8c0.1-0.1,0.2-0.1,0.3-0.2c1-0.6,2.1-1.3,3.2-2
	c0.1-0.1,0.1-0.1,0.2-0.2c0.4-0.3,0.9-0.6,1.3-1c0.1-0.1,0.2-0.2,0.3-0.2c0.5-0.3,0.9-0.7,1.4-1.1c0.1-0.1,0.1-0.1,0.2-0.2
	c0.5-0.4,1.1-0.9,1.6-1.3l0,0l0,0c9.7-8.5,18.8-22,23.4-43.5C375.8,181.4,344.1,137.9,337.9,130.1z"/>
<g>
	<g>
		<path class="st14" d="M182.2,307.5l-15.9,47.2c0,0-46.5,53.8-29.7,100.6l9.8-14.3c0,0-11.2,11.1,3.9,26.2
			c0,0,31.3-51.8,32.9-104.1c1.6-52.3,13.9-54.2,13.9-54.2L182.2,307.5z"/>
		<path d="M182.3,307.7c-1.2,3.9-2.4,7.9-3.6,11.8c-1.2,4-2.4,7.9-3.7,11.9c-2.5,7.9-5,15.8-7.6,23.7l-0.1,0.2l-0.2,0.2
			c-2.8,3.4-5.5,7.2-8.1,10.9s-5,7.6-7.2,11.5c-4.6,7.8-8.6,15.9-11.8,24.4c-3.2,8.4-5.5,17.2-6.3,26.3c-0.8,9,0.1,18.2,3.3,26.7
			l-0.8-0.1l9.7-14.3l0.9,0.7c-1.5,1.7-2.7,3.9-3.2,6.2c-0.6,2.3-0.6,4.7,0,7c0.5,2.3,1.6,4.5,2.9,6.4c1.3,2,2.9,3.8,4.6,5.5
			l-1.6,0.2C156.3,454.8,162,442,167,429c2.5-6.5,4.7-13.1,6.7-19.8c1.9-6.7,3.7-13.4,5-20.2c1.4-6.8,2.3-13.7,2.9-20.6
			c0.1-1.7,0.2-3.5,0.3-5.2l0.3-5.3c0.2-3.5,0.5-7,0.8-10.5c0.7-7,1.7-14,3.5-20.8c0.9-3.4,2-6.8,3.5-10c0.8-1.6,1.6-3.2,2.7-4.6
			c0.5-0.7,1.2-1.4,1.9-2c0.4-0.3,0.7-0.6,1.1-0.8c0.4-0.3,0.8-0.5,1.4-0.6v1.1C192.2,308.8,187.2,308.3,182.3,307.7z M182.2,307.4
			c5,0.3,10,0.6,15,1l3.3,0.2l-3.2,0.9c-0.2,0.1-0.6,0.3-0.9,0.5c-0.3,0.2-0.6,0.5-0.9,0.8c-0.6,0.6-1.1,1.2-1.6,1.9
			c-1,1.4-1.7,2.9-2.4,4.5c-1.3,3.2-2.3,6.5-3,9.9c-1.5,6.8-2.3,13.7-2.9,20.6c-0.3,3.5-0.5,6.9-0.6,10.4l-0.1,5.2
			c0,1.8-0.1,3.5-0.2,5.3c-0.4,7.1-1.4,14.1-2.7,21c-2.7,13.9-6.9,27.3-12.1,40.4c-2.6,6.5-5.4,13-8.5,19.3
			c-3.1,6.3-6.3,12.5-10,18.6l-0.7,1.1l-0.9-0.9c-1.7-1.8-3.4-3.8-4.7-6c-1.3-2.2-2.4-4.5-2.9-7.1c-0.5-2.5-0.4-5.2,0.3-7.6
			c0.7-2.5,1.9-4.8,3.7-6.7l0.9,0.7l-9.9,14.2l-0.5,0.8l-0.3-0.9c-3.1-8.7-4.2-18-3.7-27.1c0.5-9.2,2.5-18.2,5.5-26.9
			c3-8.7,7-17,11.6-24.9c4.7-7.9,9.9-15.5,15.9-22.5l-0.2,0.4c2.7-7.8,5.5-15.7,8.3-23.5c1.4-3.9,2.8-7.8,4.2-11.7
			c1.4-3.9,2.8-7.8,4.3-11.7L182.2,307.4L182.2,307.4z"/>
	</g>
	<path class="st1" d="M144.2,444.3l2.3-3.3C146.4,441,145.2,442.2,144.2,444.3z"/>
	<path class="st8" d="M175.9,340.4c-2.5,17.8,1.8,35-3.7,52.2c-8,23-16.3,44.5-28.3,65.7c1.2,2.8,3.2,5.8,6.4,8.9
		c0,0,31.3-51.8,32.9-104.1c1.6-52.3,13.9-54.2,13.9-54.2l-10.2-0.9C182,318.3,177.7,329.4,175.9,340.4z"/>
	<g>
		<path class="st6" d="M41.6,121.5c0,0-40.2,46.8-27.3,107c12.9,60.2,60.6,57.6,60.6,57.6L41.6,121.5z"/>
		<path d="M41.5,121.9c-5.1,6.7-9.3,14-13.1,21.5c-3.8,7.6-7,15.5-9.5,23.6c-5,16.2-6.9,33.2-5.4,50.1c0.8,8.4,2.5,16.8,5.2,24.8
			c2.7,8,6.6,15.7,12,22.3c2.7,3.3,5.7,6.3,9,8.9c3.3,2.6,6.9,4.8,10.8,6.7c3.8,1.8,7.8,3.2,11.9,4.1c4.1,0.9,8.3,1.4,12.4,1.3
			l-1.1,1.4l-4.4-20.5L65,245.5c-2.9-13.7-5.7-27.4-8.4-41.2c-1.4-6.9-2.7-13.7-4-20.6l-3.9-20.6l-3.8-20.7
			C43.9,135.5,42.7,128.7,41.5,121.9z M41.7,121.5c1.6,6.8,3.2,13.6,4.7,20.5l4.6,20.5l4.4,20.5c1.5,6.8,2.9,13.7,4.3,20.5
			c2.9,13.7,5.6,27.4,8.3,41.2l4,20.6l4,20.7l0.3,1.3H75c-2.3,0-4.4-0.2-6.6-0.5c-2.2-0.3-4.3-0.7-6.4-1.3
			c-4.2-1.1-8.3-2.6-12.1-4.6c-7.7-3.9-14.5-9.5-19.9-16.2c-5.4-6.7-9.5-14.4-12.5-22.4c-3-8.1-5-16.5-6.2-25
			c-1.1-8.5-1.2-17.2-0.3-25.8c1-8.6,2.8-17,5.5-25.2s6.2-16.1,10.3-23.6c2-3.8,4.3-7.4,6.7-11c2.4-3.5,5-7,7.8-10.2l0.2-0.2
			L41.7,121.5z"/>
	</g>
	<path class="st8" d="M74.9,286.2L41.6,121.5c0,0-8.9,10.4-17,27.7c-0.9,21,1,41.9,2.6,62.8c1.2,17.8,12.9,33.2,17.2,51
		c1.3,5.1,1.7,10.1,1.4,14.9C60.8,286.9,74.9,286.2,74.9,286.2z"/>
	<g>
		<path class="st6" d="M330.9,121.5c0,0,40.2,46.8,27.3,107c-12.9,60.2-60.6,57.6-60.6,57.6L330.9,121.5z"/>
		<path d="M331,121.4c2.9,3.2,5.4,6.7,7.8,10.2c2.4,3.5,4.7,7.2,6.7,11c4.1,7.5,7.6,15.4,10.3,23.6c2.7,8.2,4.6,16.7,5.5,25.2
			c0.9,8.6,0.9,17.3-0.3,25.8c-1.1,8.5-3.1,17-6.2,25c-3,8-7.1,15.7-12.5,22.4c-5.4,6.7-12.2,12.3-19.9,16.2
			c-3.9,2-7.9,3.5-12.1,4.6c-2.1,0.5-4.2,1-6.4,1.3c-2.2,0.3-4.3,0.5-6.6,0.5H296l0.3-1.3l3.9-20.6l4-20.6
			c2.7-13.7,5.4-27.5,8.3-41.2c1.4-6.9,2.9-13.7,4.3-20.5l4.4-20.5L326,142c1.6-6.8,3.1-13.7,4.7-20.5l0.1-0.3L331,121.4z
			 M331,121.9c-1.1,6.8-2.3,13.6-3.5,20.3l-3.8,20.7l-3.9,20.6c-1.3,6.9-2.6,13.8-4,20.6c-2.7,13.7-5.5,27.5-8.4,41.2l-4.3,20.6
			l-4.4,20.5l-1.1-1.4c4.1,0.1,8.3-0.4,12.4-1.3c4.1-0.9,8.1-2.3,11.9-4.1c3.8-1.8,7.4-4,10.7-6.7c3.3-2.6,6.3-5.6,9-8.9
			c5.4-6.6,9.3-14.2,12-22.3c2.7-8,4.4-16.4,5.2-24.8c1.5-16.8-0.4-33.9-5.4-50.1c-2.5-8.1-5.6-16-9.5-23.6
			C340.3,135.9,336,128.6,331,121.9z"/>
	</g>
	<path class="st8" d="M338.1,234.1c1.8-4.9,3.1-9.8,3.7-14.7c1.2-6.1,2.5-12.3,2.5-18.4c0-2.5,2.5-3.7,2.5-6.1
		c1.4-14.9,2-29.7,1.7-44.5c-8.2-18-17.5-28.8-17.5-28.8l-33.3,164.7c0,0,19.7,1.1,37.1-14.1c-0.5-0.8-1.1-1.5-1.5-2.3
		C327,259.3,334.4,245.8,338.1,234.1z"/>
	<g>
		<path class="st6" d="M286.2,58c2,0.4,3.2,0.6,3.2,0.6c41.4-9.1,39.1-46.8,39.1-46.8c-11.7,32.6-113.7,14.6-113.7,14.6
			c0.1,0.1,0.1,0.2,0.2,0.2c-9-1.5-18.4-2.3-28-2.3c-9.8,0-19.2,0.7-28.2,2.1l0,0c0,0,0,0-0.1,0c-0.9,0.1-1.8,0.3-2.7,0.4
			C139.6,29.4,55.6,41.1,45.1,11.7c0,0-2.3,37.7,39.1,46.8l0,0c-40.7,33.5-59,87.9-43.4,146.8C69,312,101.9,320.1,182.7,320.1
			c80.8,0,119.8-5.9,150.5-114.8C349.8,146.3,328.2,91.5,286.2,58z"/>
		<path d="M286.2,57.8c1.1,0.2,2.1,0.4,3.2,0.5h-0.1c5.4-1.2,10.6-3.1,15.4-5.8s9.2-6.2,12.6-10.4c3.5-4.2,6.1-9.1,7.8-14.3
			c0.9-2.6,1.5-5.3,1.9-8s0.7-5.5,0.5-8.1l1.5,0.2c-0.9,2.5-2.3,4.7-4.1,6.6c-1.8,1.9-3.9,3.5-6.1,4.8c-4.4,2.6-9.3,4.3-14.2,5.5
			c-9.9,2.4-20,3.2-30.1,3.4c-10.1,0.2-20.2-0.3-30.2-1.1c-10-0.9-20-2-30-3.7l1.2-2l0.2,0.2l2.3,2.6l-3.5-0.6
			c-9.2-1.5-18.5-2.3-27.9-2.2c-9.3,0-18.7,0.7-27.9,2.1l-4,0.6l2.8-2.8c-0.1,0.1-0.1,0.1-0.2,0.2l1.3,2.1c-10,1.6-20,2.8-30,3.7
			c-10,0.8-20.1,1.3-30.2,1.1c-10.1-0.2-20.2-1-30.1-3.4c-4.9-1.2-9.8-2.9-14.3-5.5c-2.2-1.3-4.3-2.9-6.1-4.8
			c-1.8-1.9-3.2-4.2-4.1-6.7l1.6-0.2c-0.1,2.6,0.1,5.4,0.5,8.1c0.4,2.7,1.1,5.4,1.9,7.9c1.7,5.2,4.3,10.1,7.8,14.3
			s7.8,7.7,12.6,10.3c4.8,2.6,10,4.4,15.4,5.6H84l0,0l2.1-0.4L84.4,59c-12,9.8-22.3,21.6-30.1,35c-7.9,13.3-13.3,28-16.1,43.2
			c-2.9,15.2-3.1,30.8-1,46.1c1,7.7,2.6,15.2,4.6,22.7s4.2,14.9,6.6,22.3c4.8,14.7,10.3,29.2,17.9,42.7c3.8,6.7,8.1,13.1,13.2,18.8
			s11,10.7,17.5,14.6c6.5,3.9,13.7,6.8,21.1,8.8s15,3.2,22.7,4c15.3,1.5,30.9,1.5,46.3,1.5c7.7,0,15.5-0.2,23.2-0.5
			s15.4-0.8,23.1-1.8c7.6-1,15.2-2.5,22.5-4.8c7.3-2.3,14.3-5.5,20.7-9.6c6.4-4.1,12.1-9.2,17.2-15c5.1-5.7,9.4-12.1,13.3-18.7
			c7.7-13.3,13.6-27.7,18.6-42.3c2.5-7.3,4.8-14.7,6.9-22.2c2.1-7.4,3.6-15,4.4-22.6c1.8-15.3,1.1-30.9-2.3-45.9
			c-3.4-15.1-9.4-29.5-17.7-42.6c-8.2-13.1-18.7-24.7-30.8-34.5l-0.4-0.4H286.2z M286.7,58.2c12,9.5,22.6,20.9,31.1,33.8
			c8.6,13,14.8,27.6,18.4,42.8c3.6,15.2,4.5,31,2.9,46.6c-0.8,7.8-2.3,15.5-4.3,23c-2.1,7.5-4.3,15-6.7,22.3
			c-4.9,14.8-10.7,29.3-18.5,43c-3.9,6.8-8.4,13.3-13.6,19.2c-5.2,5.9-11.1,11.2-17.8,15.5c-6.6,4.3-13.9,7.6-21.4,10
			c-7.5,2.4-15.2,3.9-23,4.9c-15.5,2-31.1,2.2-46.7,2.3c-15.5,0-31.1-0.1-46.7-1.7c-7.8-0.8-15.5-2.1-23.1-4.2
			c-7.6-2.1-15-5-21.7-9.2c-6.8-4.1-12.8-9.3-18-15.3c-5.2-5.9-9.6-12.5-13.3-19.3c-7.6-13.7-13-28.4-17.7-43.2
			c-2.3-7.4-4.4-14.9-6.4-22.4s-3.5-15.2-4.4-22.9c-1.9-15.5-1.5-31.2,1.4-46.5c2.9-15.3,8.5-30.1,16.4-43.5
			C61.5,80,71.8,68,83.8,58.1l0.4,0.9l0,0h-0.1H84c-5.5-1.2-10.8-3-15.7-5.7c-4.9-2.7-9.4-6.2-13.1-10.5c-3.7-4.3-6.4-9.3-8.3-14.6
			c-0.9-2.7-1.6-5.4-2.1-8.2s-0.7-5.6-0.7-8.5l0.1-4.3l1.5,4.1c0.8,2.2,2.1,4.3,3.8,6c1.7,1.8,3.6,3.2,5.7,4.4c4.2,2.4,9,4,13.8,5.1
			c9.7,2.2,19.7,2.9,29.7,3s20-0.4,30-1.3c10-0.9,19.9-2.1,29.8-3.8l3.1-0.5l-1.7,2.6c0,0.1-0.1,0.1-0.2,0.2l-1.1-2.3
			c9.4-1.4,18.8-2.1,28.3-2.1c9.5,0,18.9,0.8,28.3,2.4l-1.2,2l-0.2-0.3l-2.3-2.6l3.5,0.6c9.8,1.7,19.8,2.9,29.8,3.8
			c10,0.9,20,1.4,30,1.3s20-0.8,29.7-3c4.8-1.1,9.6-2.7,13.8-5.2c4.2-2.4,7.9-6,9.6-10.5l1.4-3.9l0.1,4.1c0.1,5.7-0.9,11.3-2.8,16.6
			c-1.8,5.3-4.6,10.3-8.3,14.6c-3.6,4.3-8.1,7.8-13.1,10.4c-4.9,2.6-10.3,4.4-15.7,5.5l0,0l0,0C288.5,58.6,287.6,58.4,286.7,58.2z"
			/>
	</g>
	<path class="st8" d="M305.9,77c0.1,0.4,0.2,0.7,0.3,1.1c8,29.5,12.9,58.4,19,89.1c5.5,27.6-4.3,52.2-19.7,74.9
		c-17.8,27-46.7,35.6-74.3,45.5c-37.5,13.5-80.5,19.7-119.2,4.3c-1.8-0.6-5.5-0.6-5.5-4.3c-6.1,0.6-10.4-3.7-13.5-6.8
		c-19.7-19.7-27.6-44.8-33.2-72.5c-8.6-41.2-11.7-79.9-1.8-120.4c0.2-0.3,0.3-0.8,0.5-1.3c-22,32.3-29.5,74.2-17.7,118.8
		C69,312,101.9,320.1,182.7,320.1c80.8,0,119.8-5.9,150.5-114.8C347,156.4,334.5,110.4,305.9,77z"/>
	<path class="st8" d="M205.4,33.2c5.6-1.6,10.8-3.8,16-5.8c-4.2-0.6-6.7-1-6.7-1c0.1,0.1,0.1,0.2,0.2,0.2c-9-1.5-18.4-2.3-28-2.3
		c-9.8,0-19.2,0.7-28.2,2.1l0,0c0,0,0,0-0.1,0c-0.9,0.1-1.8,0.3-2.7,0.4c-2.7,0.4-7.4,1.1-13.2,1.8
		C163.6,35.2,184.9,40.4,205.4,33.2z"/>
	<path class="st14" d="M175.9,77.4c-0.6-4.3-1.2-8.6-3.7-12.3c-6.8-9.8-14.7-17.2-24.6-22.7c-6.8-4.3-16.6-4.3-23.3-1.8
		c-27,9.8-48.5,33.2-53.4,61.4c-4.3,26.4,6.8,50.4,15.4,74.9c9.8,27.6,19,54.1,28.3,82.3c5.6,18.8,5.9,37.9,8.7,56.5
		c8.6,1.9,18,3,28.4,3.6c13.1-29.4,19.9-61.1,24.4-93.3C182.1,175.7,177.1,127.2,175.9,77.4z"/>
	<path class="st14" d="M279.7,193.5c12.3-23.3,34.4-43.6,30.1-71.3c-3.7-19.7-19-33.8-25.8-52.2c-8-23.3-34.4-43-56.5-30.1
		c-15.4,9.2-24.6,28.3-20.9,47.3c6.8,41.2,12.3,79.2,17.2,120.4c4.9,37,11.2,74.1,5.3,110.7c8.7-0.9,16.8-2.4,24.3-4.5
		c2.6-17.8,5.3-35.3,7.2-53.3C262.5,237.2,268.7,214.4,279.7,193.5z"/>
	<g>
		<circle class="st10" cx="118.8" cy="63.8" r="16.1"/>
		<path d="M135,63.8c0,4.2-1.3,8.6-4.2,12c-1.4,1.7-3.3,3.1-5.4,4s-4.4,1.3-6.7,1.2c-2.2-0.1-4.5-0.7-6.4-1.7c-2-1-3.7-2.3-5.2-3.9
			c-3-3.1-4.9-7.3-5.2-11.7c-0.1-2.2,0.1-4.5,0.9-6.6c0.8-2.1,2-4.1,3.6-5.8s3.5-3,5.6-3.9c2.1-0.9,4.4-1.4,6.7-1.4
			c2.3,0.1,4.6,0.5,6.7,1.5c2.1,0.9,3.9,2.4,5.4,4.1C133.8,55.2,135,59.6,135,63.8z M134.7,63.8c0-2.1-0.5-4.2-1.4-6
			c-0.9-1.8-2.3-3.4-3.8-4.7c-3.1-2.5-6.9-3.9-10.7-3.8c-3.8,0-7.6,1.5-10.4,4.1c-2.8,2.6-4.6,6.3-4.9,10.4c-0.3,4,1.2,8.2,4.2,11
			c1.5,1.4,3.3,2.5,5.2,3.1c1.9,0.6,3.9,0.8,5.8,0.7c1.9-0.1,3.8-0.5,5.6-1.2c1.8-0.7,3.5-1.7,5-2.9c1.5-1.3,2.9-2.8,3.8-4.7
			C134.2,67.9,134.7,65.9,134.7,63.8z"/>
	</g>
	<g>
		<circle class="st10" cx="254.5" cy="63.8" r="16.1"/>
		<path d="M270.8,63.8c0,4.2-1.3,8.6-4.2,12c-1.4,1.7-3.3,3.1-5.4,4c-2.1,0.9-4.4,1.3-6.7,1.2c-2.2-0.1-4.5-0.7-6.4-1.7
			c-2-1-3.7-2.3-5.2-3.9c-3-3.1-4.9-7.3-5.2-11.7c-0.1-2.2,0.1-4.5,0.9-6.6c0.8-2.1,2-4.1,3.6-5.8c3.1-3.3,7.7-5.4,12.4-5.3
			c2.3,0.1,4.6,0.5,6.7,1.5c2.1,0.9,3.9,2.4,5.4,4.1C269.5,55.2,270.8,59.6,270.8,63.8z M270.5,63.8c0-2.1-0.5-4.2-1.4-6
			c-0.9-1.8-2.3-3.4-3.8-4.7c-3.1-2.5-6.8-3.9-10.7-3.8c-3.8,0-7.5,1.5-10.3,4.1c-2.8,2.6-4.6,6.3-4.9,10.4c-0.3,4,1.2,8.2,4.2,11
			c1.5,1.4,3.3,2.5,5.2,3.1c1.9,0.6,3.9,0.8,5.8,0.7c1.9-0.1,3.8-0.5,5.6-1.2c1.8-0.7,3.5-1.7,5-2.9c1.5-1.3,2.9-2.8,3.8-4.7
			C270,67.9,270.5,65.9,270.5,63.8z"/>
	</g>
	<circle cx="118.8" cy="63.8" r="12.4"/>
	<circle cx="254.5" cy="63.8" r="12.9"/>
	<g>
		<circle class="st2" cx="186.2" cy="188.9" r="126.3"/>
		<path d="M312.7,188.9c0,16.6-3.2,33.1-9.4,48.5c-6.2,15.4-15.5,29.6-27.1,41.5c-11.6,12-25.7,21.5-41.1,28
			c-7.7,3.3-15.7,5.7-23.9,7.3c-8.2,1.6-16.5,2.4-24.9,2.4c-16.7-0.1-33.4-3.5-48.7-10.1c-7.7-3.3-15-7.3-21.9-12
			c-6.9-4.7-13.3-10-19.2-15.9c-11.7-11.8-21.1-25.8-27.5-41.1c-3.2-7.7-5.6-15.6-7.3-23.8c-1.7-8.1-2.5-16.5-2.6-24.8
			c-0.1-16.6,3-33.4,9.3-48.8c6.3-15.5,15.7-29.7,27.5-41.5c11.8-11.9,25.9-21.4,41.4-27.9c15.4-6.5,32.2-9.7,49-9.7
			c16.7,0,33.5,3.3,48.9,9.8c15.4,6.5,29.5,16.1,41.1,28C299.7,122.7,313,155.8,312.7,188.9z M312.4,188.9
			c-0.1-16.5-3.3-33-9.8-48.2c-6.5-15.2-16-29-27.7-40.4c-11.8-11.4-25.7-20.7-40.8-26.8c-7.6-3.1-15.4-5.4-23.5-7
			c-8-1.6-16.2-2.4-24.4-2.3c-8.2,0-16.3,0.8-24.3,2.4c-8,1.6-15.9,4-23.4,7.1c-15.1,6.2-29,15.4-40.6,27
			c-11.6,11.5-21,25.3-27.3,40.4c-6.3,15.1-9.8,31.5-9.9,47.9c-0.1,16.4,2.9,32.9,9.3,48.2c3.1,7.6,7,14.9,11.6,21.8
			c4.6,6.9,9.9,13.2,15.7,19c5.8,5.8,12.2,11,19.1,15.6c6.9,4.5,14.2,8.4,21.8,11.4c15.2,6.2,31.7,9.2,48,9.1
			c8.2,0,16.4-0.8,24.4-2.4c8-1.6,15.9-4,23.5-7.1c15.2-6.2,29-15.4,40.8-26.9c11.7-11.5,21.2-25.3,27.7-40.5
			c3.3-7.6,5.7-15.5,7.3-23.6C311.6,205.5,312.4,197.2,312.4,188.9z"/>
	</g>
	<path class="st12" d="M186.2,62.6c-69.8,0-126.3,56.6-126.3,126.3c0,69.8,56.6,126.3,126.3,126.3c69.8,0,126.3-56.6,126.3-126.3
		C312.6,119.2,256,62.6,186.2,62.6z M186.2,307.1C121,307.1,68.1,254.2,68.1,189S121,70.9,186.2,70.9S304.3,123.8,304.3,189
		C304.4,254.2,251.5,307.1,186.2,307.1z"/>
	<path class="st11" d="M146.9,210.8l-4.4-7.1l-7.3,17.5l18.9,1.2l-4.5-7.3c8.4-6.8,30.7-23.6,42.6-22.4l-7-11.3
		C185.1,181.4,170.3,199.6,146.9,210.8z"/>
	<g>
		<path class="st9" d="M164.6,334.3l-39.9-7.2l-39.5-9.2c3.5-17,24.1-27.2,46.1-22.7C153.2,299.8,168.1,317.2,164.6,334.3z"/>
		<path d="M164.6,334.4c-6.7-0.8-13.4-1.6-20.1-2.7c-6.7-1-13.4-2.1-20-3.3l-2.5-0.6c-0.8-0.2-1.6-0.4-2.5-0.6
			c-1.6-0.4-3.3-0.8-4.9-1.3l-9.8-2.6c-6.5-1.8-13.1-3.5-19.7-5l-0.4-0.1l0.1-0.5c1-4.7,3.2-9.2,6.4-12.8c3.2-3.6,7.3-6.5,11.7-8.5
			c4.5-2,9.3-3.2,14.1-3.6c4.9-0.4,9.8-0.2,14.6,0.8c9.5,1.9,18.7,6.6,25.3,13.8c3.3,3.6,5.9,7.9,7.4,12.5s1.7,9.7,0.4,14.3v0.1
			L164.6,334.4z M164.5,334.1c0.3-2.3,0.3-4.6,0-6.8c-0.3-2.3-0.9-4.5-1.8-6.7c-1.7-4.3-4.5-8.1-7.7-11.3c-3.3-3.2-7.1-5.9-11.1-8
			c-4.1-2.1-8.5-3.6-13-4.5c-4.5-0.9-9.1-1.4-13.7-1.1c-2.3,0.1-4.6,0.5-6.8,1c-2.2,0.5-4.5,1.1-6.6,2c-4.3,1.7-8.3,4.1-11.6,7.4
			c-1.6,1.6-3.1,3.5-4.2,5.5s-2,4.2-2.4,6.5l-0.4-0.5c6.6,1.6,13.2,3,19.8,4.2l10,2c1.7,0.3,3.3,0.7,5,1c0.8,0.2,1.7,0.4,2.5,0.5
			l2.4,0.6c6.7,1.2,13.3,2.5,19.9,3.9C151.4,331,158,332.5,164.5,334.1z"/>
	</g>
	<path class="st11" d="M295.8,308.4l-35,14.2L225,334.8c-6.1-16.3,4.8-35.4,24.4-42.7C268.9,284.7,289.7,292,295.8,308.4z"/>
	<path class="st5" d="M131.3,295.2c-5-1-9.8-1.3-14.5-0.9c12.2,4,22.8,14.6,27.2,26.4c-14.8-0.8-29.5-0.2-44.1,0.6l24.8,5.8
		l39.9,7.2C168.1,317.2,153.2,299.8,131.3,295.2z"/>
	<g>
		<path class="st9" d="M295.8,308.4l-35,14.2L225,334.8c-6.1-16.3,4.8-35.4,24.4-42.7C268.9,284.7,289.7,292,295.8,308.4z"/>
		<path d="M295.8,308.5c-5.7,2.8-11.4,5.4-17.2,7.9c-2.9,1.3-5.8,2.5-8.7,3.7l-8.7,3.6l-4.5,1.5l-4.5,1.4l-9.1,2.7
			c-6,1.8-12.1,3.6-18,5.7l-0.4,0.1l-0.2-0.4c-1.6-4.3-2.2-9.1-1.7-13.7c0.5-4.6,2.1-9.2,4.5-13.2c4.8-8.1,12.7-14.1,21.4-17.5
			c8.8-3.4,18.7-3.9,27.7-0.9c4.5,1.5,8.7,3.8,12.1,7.1c3.4,3.2,6,7.2,7.3,11.6v0.1V308.5z M295.6,308.3c-1.9-4.1-4.7-7.6-8.1-10.3
			c-3.5-2.7-7.5-4.7-11.7-5.8c-8.5-2.3-17.6-1.6-25.8,1.4c-8.3,2.9-15.7,8.4-20.6,15.8c-2.4,3.7-4.3,7.8-5,12.1
			c-0.8,4.4-0.5,9,1.1,13.2l-0.6-0.3c6-2,11.9-4.2,17.7-6.5l8.8-3.4l4.4-1.6l4.4-1.5l8.8-3.5c2.9-1.1,5.9-2.3,8.8-3.3
			C283.7,312.3,289.6,310.2,295.6,308.3z"/>
	</g>
	<path class="st5" d="M251,291.5c-0.5,0.2-1.1,0.4-1.6,0.6c-19.6,7.3-30.5,26.4-24.4,42.7l35.8-12.2l32.9-13.3
		c-16.3,1.6-32.4,4.5-48.3,9C244.6,308.8,246.6,299.6,251,291.5z"/>
	<g>
		<g class="st4">
			<path class="st13" d="M175.6,70.5c0.5,0,1,0.2,1.2,0.6c0.3,0.4,0.4,0.8,0.4,1.2c0,0.4,0,0.9-0.1,1.6c0,0.6-0.1,1.3-0.1,2.1
				c0,1.5,0,3.1,0.1,4.8c0.1,1.7,0.2,3.5,0.3,5.3c0.1,1.8,0.2,3.6,0.3,5.4c0.1,1.8,0.1,3.5,0.1,5.2c0,0.5-0.1,0.8-0.4,1
				s-0.6,0.3-1.2,0.3c-0.5,0-0.9-0.2-1-0.7c-0.1-0.4-0.1-1-0.1-1.7c0-1,0-1.8,0-2.5c0-0.7,0-1.4-0.1-2.1c0-0.7,0-1.5-0.1-2.3
				c0-0.8-0.1-1.8-0.1-3c0-1.3-0.2-2.4-0.4-3.4c-0.2-1-0.4-1.8-0.7-2.6c-0.2-0.8-0.4-1.5-0.6-2.2c-0.2-0.7-0.3-1.5-0.3-2.3
				c0-0.5,0-1,0.1-1.5c0.1-0.5,0.2-1,0.4-1.5c0.2-0.5,0.4-0.9,0.8-1.2C174.7,70.7,175.1,70.5,175.6,70.5z"/>
			<path class="st13" d="M191.1,72.2c1.4,0,2.5,0.5,3.1,1.6c0.6,1.1,0.9,2.3,0.9,3.8c0,0.8-0.1,1.7-0.3,2.6
				c-0.2,0.9-0.4,1.8-0.7,2.7c-0.3,0.9-0.6,1.7-1.1,2.4c-0.4,0.7-0.8,1.4-1.3,1.9c-0.3,0.3-0.7,0.7-1.2,1.1c-0.5,0.4-1,0.9-1.6,1.4
				c-0.5,0.5-1.1,1-1.6,1.5c-0.5,0.5-0.9,1-1.3,1.4c0.3,0.5,0.9,1,1.6,1.3c0.8,0.3,1.6,0.6,2.6,0.8c0.9,0.2,1.9,0.4,2.9,0.6
				c1,0.1,1.9,0.3,2.6,0.4c0.5,0.1,1.2,0.2,2.1,0.4c0.9,0.2,1.7,0.4,2.6,0.7c0.8,0.3,1.6,0.6,2.2,1c0.6,0.4,0.9,0.8,0.9,1.3
				c0,0.4,0,0.6-0.1,0.8s-0.3,0.3-0.7,0.3c-1.3,0-2.3-0.1-3.2-0.4s-1.9-0.6-3-1.1c-0.5-0.2-1.3-0.4-2.2-0.6c-1-0.2-2-0.5-3.2-0.7
				c-1.2-0.3-2.3-0.6-3.5-0.9c-1.2-0.3-2.3-0.7-3.3-1.1c-1-0.4-1.8-0.8-2.4-1.3c-0.6-0.5-0.9-1-0.9-1.6c0-0.4,0.3-0.8,0.8-1.3
				c0.5-0.5,1.2-1,2.1-1.7c0.8-0.6,1.7-1.3,2.7-2c1-0.7,1.9-1.6,2.7-2.5c0.8-0.9,1.5-1.9,2.1-2.9c0.5-1,0.8-2.2,0.8-3.4
				c0-1-0.3-1.6-0.8-1.8c-0.6-0.2-1.2-0.4-1.8-0.4c-0.6,0-1.2,0.1-1.6,0.3c-0.4,0.2-0.8,0.4-1.2,0.7c-0.4,0.2-0.7,0.5-1.1,0.7
				c-0.4,0.2-0.8,0.3-1.2,0.3c-0.3,0-0.5,0-0.7-0.1c-0.2,0-0.3-0.2-0.3-0.4c0-0.3,0.1-0.6,0.2-1c0.2-0.4,0.4-0.8,0.6-1.3
				c0.3-0.5,0.6-0.9,0.9-1.3c0.3-0.4,0.6-0.8,0.9-1.1c0.5-0.5,1-0.8,1.7-1C188.5,72.3,189.6,72.2,191.1,72.2z"/>
		</g>
		<g class="st4">
			<path class="st13" d="M198.5,274.4c0.5,0,0.9,0,1.3,0.1c0.4,0.1,0.6,0.4,0.6,0.8c0,0.5-0.3,0.9-0.8,1.3c-0.5,0.4-1.2,0.7-2,1
				c-0.8,0.3-1.5,0.6-2.3,0.9s-1.4,0.6-1.9,1c-1.5,1.1-2.7,2.6-3.5,4.4c-0.8,1.8-1.7,4-2.5,6.6c0.7-0.5,1.6-0.8,2.7-0.8
				c5.4,0,8.1,3.3,8.1,9.8c0,2.7-0.3,4.3-0.9,4.8c-0.5,0.4-1.1,0.8-1.7,1.2s-1.2,0.7-1.8,0.9c-0.6,0.3-1.1,0.4-1.6,0.6
				c-0.5,0.1-0.8,0.2-1.1,0.2c-1.5,0-2.8-0.1-3.9-0.3c-1.1-0.2-2-0.6-2.6-1.3c-0.7-0.7-1.2-1.6-1.5-2.9c-0.3-1.3-0.5-3-0.5-5.1
				c0-0.5,0-1,0.1-1.5c0.1-0.5,0.2-1.1,0.4-1.9c0.2-0.7,0.4-1.6,0.7-2.7c0.3-1.1,0.7-2.3,1.2-3.9c1.4-4.6,2.6-7.4,3.5-8.5
				c0.6-0.7,1.4-1.4,2.2-2c0.8-0.6,1.7-1.1,2.6-1.5c0.9-0.4,1.8-0.7,2.8-0.9C196.7,274.5,197.6,274.4,198.5,274.4z M190.9,293.3
				c-0.4,0-0.7,0.1-1.1,0.3c-0.3,0.2-0.6,0.4-0.9,0.6c-0.3,0.2-0.6,0.5-1,0.8c-0.4,0.3-0.8,0.6-1.2,0.8c-0.4,0.2-0.7,0.4-0.9,0.6
				s-0.4,0.4-0.6,0.7c-0.1,0.3-0.2,0.7-0.3,1.1c0,0.4-0.1,1-0.1,1.8c0,1.4,0.4,2.5,1.1,3.2s1.6,1.1,2.8,1.1c0.7,0,1.5-0.2,2.3-0.6
				c0.8-0.4,1.5-0.8,2.2-1.4c0.7-0.6,1.2-1.3,1.7-2s0.7-1.5,0.7-2.3c0-0.5-0.2-1-0.5-1.6s-0.7-1-1.2-1.5c-0.5-0.5-1-0.8-1.5-1.1
				S191.3,293.3,190.9,293.3z"/>
		</g>
		<g class="st4">
			<path class="st13" d="M131,293.3c0-0.6,0.2-1.3,0.6-2.2c0.4-0.8,0.9-1.7,1.4-2.5c0.5-0.9,1.1-1.7,1.7-2.5
				c0.6-0.8,1.1-1.6,1.5-2.3c0.1-0.2,0.4-0.7,0.7-1.5c0.4-0.8,0.8-1.7,1.2-2.8c0.4-1.1,0.9-2.2,1.4-3.5c0.5-1.2,1-2.4,1.4-3.5
				c0.4-1.1,0.8-2.1,1-2.9c0.3-0.8,0.4-1.4,0.4-1.7c0-0.4,0-0.7-0.1-1.1c-0.1-0.3-0.4-0.5-1-0.6c-0.3,0-0.6,0.1-0.9,0.1
				c-0.3,0-0.6,0-0.9,0c-0.5,0-1.3,0-2.5-0.1c-1.2-0.1-2.4-0.1-3.5-0.3c-1.2-0.1-2.2-0.3-3.2-0.5c-0.9-0.2-1.4-0.4-1.4-0.7
				c0-0.3,0.2-0.5,0.5-0.6c0.4-0.1,0.8-0.1,1.5-0.1c0.5,0,1,0,1.6,0.1c0.6,0.1,1,0.2,1.4,0.4h12.5c0.1,0,0.1,0.1,0.2,0.3
				c0.1,0.2,0.1,0.4,0.1,0.6c0,0.2,0,0.5,0.1,0.7c0,0.2,0,0.4,0,0.4c0,1.2-0.2,2.4-0.5,3.6c-0.4,1.2-0.8,2.4-1.3,3.6
				c-0.5,1.2-1.1,2.4-1.7,3.6c-0.6,1.2-1.2,2.4-1.7,3.5c-0.2,0.4-0.5,1.1-0.9,2c-0.4,0.9-0.8,1.9-1.3,3c-0.5,1.1-1,2.2-1.6,3.4
				c-0.5,1.2-1.1,2.2-1.6,3.2c-0.5,1-1,1.7-1.4,2.3c-0.4,0.6-0.8,0.9-1,0.9c-0.7,0-1.3-0.2-1.8-0.7C131.2,294.6,131,294,131,293.3z"
				/>
		</g>
		<g class="st4">
			<path class="st13" d="M96.4,254.6c-1.9,0-3.3-0.1-4.4-0.4c-1-0.3-1.8-0.7-2.4-1.2c-0.6-0.5-1-1.1-1.3-1.8c-0.3-0.7-0.6-1.4-1-2.2
				c-0.1-0.2-0.2-0.7-0.4-1.6c-0.2-0.8-0.2-1.9-0.2-3.1c0-0.9,0.2-1.7,0.7-2.4c0.4-0.8,1-1.5,1.6-2.2c0.6-0.7,1.3-1.4,1.9-2.1
				c0.6-0.7,1.2-1.3,1.6-2c-0.4-0.6-0.8-1.2-1.2-1.8c-0.4-0.5-0.8-1.1-1.2-1.6c-0.4-0.5-0.7-1.1-0.9-1.6c-0.2-0.5-0.4-1.1-0.4-1.7
				c0-0.9,0.4-1.7,1.1-2.4c0.7-0.7,1.6-1.2,2.5-1.7s2-0.7,3.1-0.9c1.1-0.2,2-0.3,2.8-0.3c0.4,0,0.9,0.1,1.5,0.2
				c0.7,0.2,1.3,0.4,2,0.6c0.7,0.3,1.3,0.6,1.8,0.9c0.5,0.4,0.8,0.7,0.8,1.1c0,0.6-0.2,1.3-0.7,2.1c-0.4,0.8-1,1.6-1.6,2.4
				c-0.6,0.8-1.3,1.6-2.1,2.3c-0.7,0.7-1.4,1.3-1.9,1.7c0.5,0.9,1.2,1.7,1.9,2.3c0.7,0.6,1.4,1.3,2.1,1.9c0.7,0.6,1.2,1.3,1.7,2
				c0.4,0.7,0.7,1.6,0.7,2.6c0,0.7-0.1,1.4-0.3,2.2c-0.2,0.7-0.4,1.5-0.7,2.2c-0.3,0.7-0.6,1.4-0.8,2c-0.3,0.7-0.6,1.3-0.8,1.9
				c-0.3,0.7-0.9,1.3-1.9,1.8C99.1,254.4,97.9,254.6,96.4,254.6z M89.8,246.5c0,1.6,0.5,3,1.5,4c1,1,2.3,1.5,3.8,1.5
				c1,0,2-0.2,2.7-0.7c0.8-0.5,1.4-1.1,1.9-1.8c0.5-0.7,0.9-1.6,1.1-2.4c0.2-0.9,0.3-1.7,0.3-2.5c0-1.7-0.5-3-1.6-4.1
				c-1.1-1-2.3-1.9-3.8-2.5c-0.5,0.4-1.2,0.9-1.9,1.7c-0.7,0.8-1.3,1.6-2,2.5c-0.6,0.9-1.1,1.7-1.5,2.5
				C90,245.4,89.8,246,89.8,246.5z M92.5,229.5c0,0.7,0.1,1.3,0.4,1.9c0.3,0.6,0.8,1.2,1.6,1.7c1.7-1.5,2.9-2.6,3.5-3.4
				c0.6-0.8,0.9-1.5,0.9-2.3c0,0,0-0.1-0.1-0.3c-0.1-0.2-0.2-0.4-0.4-0.6c-0.2-0.2-0.3-0.4-0.6-0.6c-0.2-0.2-0.4-0.3-0.6-0.3
				c-0.4,0-0.8,0.1-1.3,0.4c-0.5,0.3-1.1,0.6-1.6,0.9c-0.5,0.4-1,0.8-1.3,1.2C92.7,228.8,92.5,229.2,92.5,229.5z"/>
		</g>
		<g class="st4">
			<path class="st13" d="M89,125.4c0.5,0,1,0.2,1.2,0.6c0.3,0.4,0.4,0.8,0.4,1.2c0,0.4,0,0.9-0.1,1.6c0,0.6-0.1,1.3-0.1,2.1
				c0,1.5,0,3.1,0.1,4.8c0.1,1.7,0.2,3.5,0.3,5.3c0.1,1.8,0.2,3.6,0.3,5.4c0.1,1.8,0.1,3.5,0.1,5.2c0,0.5-0.1,0.8-0.4,1
				s-0.6,0.3-1.2,0.3c-0.5,0-0.9-0.2-1-0.7c-0.1-0.4-0.1-1-0.1-1.7c0-1,0-1.8,0-2.5c0-0.7,0-1.4-0.1-2.1c0-0.7,0-1.5-0.1-2.3
				c0-0.8-0.1-1.8-0.1-3c0-1.3-0.2-2.4-0.4-3.4c-0.2-1-0.4-1.8-0.7-2.6c-0.2-0.8-0.4-1.5-0.6-2.2c-0.2-0.7-0.3-1.5-0.3-2.3
				c0-0.5,0-1,0.1-1.5c0.1-0.5,0.2-1,0.4-1.5c0.2-0.5,0.4-0.9,0.8-1.2C88.1,125.5,88.5,125.4,89,125.4z"/>
			<path class="st13" d="M95.6,133.1c0-2.8,0.4-4.9,1.2-6.3c0.8-1.4,2-2.4,3.5-3c1.6-0.7,3-1.3,4-1.8c1-0.5,1.9-0.8,2.8-0.8
				s1.5,0.3,1.9,1c0.5,0.7,0.9,1.5,1.2,2.5c0.2,0.6,0.3,1.1,0.4,1.6c0.1,0.5,0.2,1.1,0.2,1.8c0,0.7,0.1,1.6,0.1,2.8
				c0,1.1,0,2.7,0,4.6c0,1.6-0.1,3.4-0.3,5.2s-0.6,3.5-1.1,5c-0.6,1.5-1.4,2.8-2.6,3.8c-1.1,1-2.7,1.5-4.6,1.5
				c-1.5,0-2.7-0.5-3.6-1.6c-0.9-1-1.5-2.4-2-4.1c-0.4-1.7-0.7-3.6-0.8-5.8C95.6,137.5,95.6,135.3,95.6,133.1z M97.8,132.4
				c0,1,0,2.3,0.1,3.9s0.3,3.2,0.6,4.7c0.4,1.5,0.9,2.9,1.6,4c0.7,1.1,1.8,1.7,3.2,1.7c1.1,0,1.9-0.3,2.5-1s1.1-1.5,1.5-2.5
				c0.4-1,0.6-2,0.7-3.2c0.1-1.2,0.1-2.2,0.1-3.2c0-0.3,0-0.5,0-0.7c0-0.2,0-0.5,0-0.7c0-0.3,0-0.6-0.1-1c0-0.4-0.1-0.9-0.2-1.5
				c-0.3,0.1-0.5,0.2-0.7,0.2c-0.2,0-0.4-0.4-0.5-1.2c-0.1-0.8-0.2-1.6-0.3-2.6c-0.1-0.9-0.2-1.8-0.4-2.7c-0.1-0.8-0.3-1.3-0.6-1.4
				c-0.2,0-0.8,0.1-1.6,0.4c-0.8,0.2-1.6,0.6-2.5,1.2c-0.9,0.5-1.7,1.3-2.4,2.2S97.8,131,97.8,132.4z"/>
		</g>
		<g class="st4">
			<path class="st13" d="M128.9,82.3c0.5,0,1,0.2,1.2,0.6c0.3,0.4,0.4,0.8,0.4,1.2c0,0.4,0,0.9-0.1,1.6c0,0.6-0.1,1.3-0.1,2.1
				c0,1.5,0,3.1,0.1,4.8c0.1,1.7,0.2,3.5,0.3,5.3c0.1,1.8,0.2,3.6,0.3,5.4c0.1,1.8,0.1,3.5,0.1,5.2c0,0.5-0.1,0.8-0.4,1
				s-0.6,0.3-1.2,0.3c-0.5,0-0.9-0.2-1-0.7c-0.1-0.4-0.1-1-0.1-1.7c0-1,0-1.8,0-2.5c0-0.7,0-1.4-0.1-2.1c0-0.7,0-1.5-0.1-2.3
				c0-0.8-0.1-1.8-0.1-3c0-1.3-0.2-2.4-0.4-3.4c-0.2-1-0.4-1.8-0.7-2.6c-0.2-0.8-0.4-1.5-0.6-2.2c-0.2-0.7-0.3-1.5-0.3-2.3
				c0-0.5,0-1,0.1-1.5c0.1-0.5,0.2-1,0.4-1.5c0.2-0.5,0.4-0.9,0.8-1.2C128.1,82.5,128.5,82.3,128.9,82.3z"/>
			<path class="st13" d="M137.1,82.3c0.5,0,1,0.2,1.2,0.6c0.3,0.4,0.4,0.8,0.4,1.2c0,0.4,0,0.9-0.1,1.6c0,0.6-0.1,1.3-0.1,2.1
				c0,1.5,0,3.1,0.1,4.8c0.1,1.7,0.2,3.5,0.3,5.3c0.1,1.8,0.2,3.6,0.3,5.4c0.1,1.8,0.1,3.5,0.1,5.2c0,0.5-0.1,0.8-0.4,1
				s-0.6,0.3-1.2,0.3c-0.5,0-0.9-0.2-1-0.7c-0.1-0.4-0.1-1-0.1-1.7c0-1,0-1.8,0-2.5c0-0.7,0-1.4-0.1-2.1c0-0.7,0-1.5-0.1-2.3
				c0-0.8-0.1-1.8-0.1-3c0-1.3-0.2-2.4-0.4-3.4c-0.2-1-0.4-1.8-0.7-2.6c-0.2-0.8-0.4-1.5-0.6-2.2c-0.2-0.7-0.3-1.5-0.3-2.3
				c0-0.5,0-1,0.1-1.5c0.1-0.5,0.2-1,0.4-1.5c0.2-0.5,0.4-0.9,0.8-1.2C136.2,82.5,136.6,82.3,137.1,82.3z"/>
		</g>
		<g class="st4">
			<path class="st13" d="M83,170.3c0.7,0,1.3,0.1,2,0.3c0.7,0.2,1.3,0.4,1.9,0.7c0.6,0.3,1,0.7,1.4,1.2c0.4,0.5,0.5,1,0.5,1.6
				c0,0.3,0,0.6-0.1,1c0,0.4-0.1,0.8-0.2,1.2c-0.1,0.4-0.2,0.9-0.4,1.3c-0.2,0.4-0.4,0.8-0.7,1.1v17c0,0.4,0,0.8-0.1,1.4
				c0,0.6-0.1,1.2-0.3,1.7c-0.2,0.6-0.4,1.1-0.6,1.5c-0.3,0.4-0.6,0.6-1.1,0.6c-0.7,0-1.2-0.2-1.5-0.6c-0.4-0.4-0.5-1-0.5-1.8
				c0-1,0.2-2.1,0.6-3.3c0.4-1.2,0.6-2.5,0.6-3.9c0-1.1,0-2.2-0.1-3.4c0-1.2-0.1-2.3-0.2-3.3c-0.9,0.6-1.6,1.1-2,1.3
				c-0.4,0.3-0.9,0.4-1.4,0.4c-0.6,0-1.4-0.1-2.3-0.4c-0.9-0.2-1.8-0.5-2.8-0.8c-0.7-0.2-1.4-0.5-2.2-0.8c-0.8-0.3-1.5-0.7-2.2-1.1
				c-0.7-0.4-1.2-0.8-1.6-1.3c-0.4-0.5-0.6-1-0.6-1.5c0-1.3,0.5-2.6,1.4-3.8s2.1-2.3,3.5-3.3c1.4-0.9,2.9-1.7,4.5-2.3
				C80.1,170.5,81.6,170.3,83,170.3z M82.9,173.2c-0.4,0-1.2,0.3-2.2,0.8c-1,0.5-2.1,1.2-3.1,2c-1.1,0.8-2,1.5-2.8,2.3
				c-0.8,0.8-1.2,1.4-1.2,1.9c0,0.3,0.2,0.6,0.5,0.9c0.3,0.3,0.7,0.6,1.2,0.9c0.5,0.3,1,0.5,1.5,0.6c0.5,0.2,1,0.2,1.4,0.2
				c0.7,0,1.4-0.2,2.1-0.7c0.7-0.5,1.4-1.1,2-1.9c0.6-0.8,1.1-1.7,1.5-2.7c0.4-1,0.6-2,0.6-3c0-0.4-0.1-0.8-0.3-1
				C83.9,173.3,83.5,173.2,82.9,173.2z"/>
		</g>
		<g class="st4">
			<path class="st13" d="M285.1,168.7c0.7,0,1.4,0.1,2.1,0.2s1.3,0.3,2,0.4c0.7,0.2,1.4,0.3,2.2,0.5s1.7,0.3,2.7,0.4
				c0.9,0.1,1.8,0.2,2.7,0.4c0.9,0.2,1.6,0.5,2.3,0.8c0.7,0.3,1.2,0.7,1.6,1.2c0.4,0.5,0.6,1.1,0.6,1.8c0,0.3,0,0.6-0.1,0.8
				c0,0.2-0.1,0.4-0.1,0.5c0,0.3,0.1,0.8,0.4,1.5c0.3,0.7,0.5,1.5,0.8,2.3c0.3,0.8,0.6,1.7,0.8,2.5c0.3,0.8,0.4,1.5,0.4,1.9
				s-0.1,1-0.4,1.6c-0.3,0.6-0.7,1.1-1.2,1.6c0.2,0.2,0.4,0.4,0.6,0.7c0.2,0.3,0.3,0.7,0.4,1.1s0.2,0.7,0.2,1.1
				c0,0.4,0.1,0.6,0.1,0.9c0,0.2-0.1,0.4-0.2,0.6c-0.2,0.2-0.4,0.5-0.6,0.8s-0.6,0.7-1,1.1c-0.4,0.4-0.8,1-1.3,1.7
				c-0.4,0.5-0.8,1-1.1,1.5s-0.8,0.8-1.3,1.1c-0.5,0.3-1.1,0.5-1.8,0.6c-0.7,0.1-1.7,0.2-2.9,0.2c-0.6,0-1.5-0.1-2.5-0.2
				c-1.1-0.2-2.1-0.4-3.1-0.7c-1-0.3-1.9-0.8-2.7-1.3c-0.7-0.5-1.1-1.1-1.1-1.8c0-0.4,0.1-0.6,0.4-0.6c0.3-0.1,0.6-0.1,1-0.1
				c0.7,0,1.4,0.1,2.1,0.4s1.3,0.5,2,0.8c0.7,0.3,1.4,0.6,2.1,0.8s1.5,0.4,2.3,0.4c0.6,0,1.3-0.2,1.9-0.7c0.6-0.4,1.2-1,1.8-1.6
				c0.6-0.6,1.1-1.2,1.5-1.8c0.4-0.6,0.7-1.1,0.8-1.5c0-0.8-0.2-1.5-0.7-1.9c-0.5-0.4-1-0.8-1.7-1.1c-0.7-0.3-1.4-0.4-2.3-0.5
				s-1.6-0.2-2.3-0.3c-0.7-0.1-1.3-0.3-1.7-0.4s-0.7-0.5-0.7-0.8c0-0.6,0.3-1.1,0.9-1.6c0.6-0.5,1.2-0.7,1.9-0.7
				c1.1,0,2.3,0.1,3.4,0.2c1.1,0.1,2.2,0.4,3.1,0.7c0-0.3,0.1-0.5,0.1-0.8c0-0.3,0-0.5,0-0.8c0-1.4-0.2-2.8-0.7-4
				c-0.5-1.2-1.2-2.3-2-3.2c-0.9-0.9-2-1.6-3.4-2.1c-1.3-0.5-2.9-0.8-4.7-0.8c-1,0-1.7,0.1-2.1,0.2c-0.4,0.1-0.9,0.2-1.4,0.2
				c-0.7,0-1.1-0.2-1.2-0.6c-0.2-0.4-0.2-1-0.2-1.7c0-0.7,0.1-1.1,0.3-1.3C284.5,168.8,284.7,168.7,285.1,168.7z"/>
		</g>
		<g class="st4">
			<path class="st13" d="M278.4,251.3c-0.7,0-1.2-0.4-1.5-1.1c-0.2-0.7-0.4-1.6-0.4-2.6c0-0.6,0-1.4,0.1-2.6c0-1.1,0.1-2.3,0.1-3.5
				c0.1-1.2,0.1-2.3,0.2-3.3s0.1-1.7,0.1-2.1c-1.1-0.4-2-0.7-2.8-0.8c-0.8-0.1-1.4-0.3-1.9-0.4c-0.5-0.2-0.8-0.4-1.1-0.6
				s-0.4-0.7-0.4-1.3c0-0.8,0.1-1.6,0.4-2.6c0.3-1,0.4-2,0.4-3.2c0-0.4-0.1-0.8-0.2-1.1c-0.1-0.4-0.2-0.9-0.2-1.7
				c0-0.5,0.1-1.1,0.2-1.6c0.1-0.5,0.5-0.8,1-0.8c0.6,0,1,0.4,1.2,1.1c0.2,0.8,0.3,1.6,0.3,2.7c0,1.2-0.1,2.4-0.2,3.5
				c-0.2,1.2-0.3,2-0.4,2.5c0.4,0.3,1.1,0.5,2,0.8c0.9,0.2,1.9,0.4,3,0.4c0-2.2,0.2-4.2,0.4-5.9s0.5-3.2,0.8-4.6
				c0.3-1.3,0.6-2.5,0.8-3.5c0.2-1,0.4-2,0.4-2.8c0.1-1.2,0.2-2.1,0.3-2.5s0.5-0.7,1.2-0.7c0.3,0,0.5,0.1,0.6,0.2
				c0.1,0.2,0.1,0.3,0.1,0.5c0,1.5-0.1,3-0.2,4.5c-0.2,1.5-0.3,3-0.5,4.6s-0.3,3.2-0.5,4.9c-0.2,1.7-0.2,3.5-0.2,5.4
				c0.2,0.2,0.6,0.4,1.1,0.5c0.5,0.1,1.1,0.3,1.7,0.4s1.1,0.4,1.5,0.7c0.4,0.3,0.7,0.6,0.7,1.1c0,0.5-0.5,0.9-1.4,1.1
				c-0.9,0.2-2.6,0.3-5.1,0.3c0,0.5,0.1,1.2,0.1,2.2c0,0.9,0.1,1.9,0.1,2.9c0,0.8,0,1.7-0.1,2.7c-0.1,1-0.2,2-0.3,2.9
				c-0.2,0.9-0.4,1.7-0.6,2.3C279.1,251,278.8,251.3,278.4,251.3z"/>
		</g>
		<g class="st4">
			<path class="st13" d="M249.3,288.1c-2.6,0-4.8-0.3-6.8-0.8c-1.9-0.6-3.6-1.3-5-2.2c-1.4-0.9-2.5-1.8-3.4-2.9
				c-0.9-1.1-1.6-2.1-2.1-3c-0.5-1-0.9-1.8-1.1-2.5c-0.2-0.7-0.3-1.2-0.3-1.4c0-0.4,0.1-0.6,0.2-0.7c0.2-0.1,0.4-0.1,0.6-0.1
				c0.2,0,0.5,0.1,0.9,0.4c0.4,0.3,0.7,0.7,1.1,1.2c0.4,0.5,0.8,1.1,1.3,1.8c0.5,0.7,0.9,1.4,1.4,2.1c0.6,0.9,1.1,1.6,1.7,2.2
				c0.5,0.6,1.2,1,1.9,1.4c0.7,0.4,1.6,0.6,2.6,0.7c1,0.1,2.3,0.2,3.8,0.2c1.2,0,2.1-0.3,2.9-0.8c0.8-0.5,1.4-1.2,1.9-2
				c0.5-0.8,0.8-1.8,1-2.8c0.2-1,0.3-2,0.3-3c0-0.7-0.2-1.4-0.6-1.8c-0.4-0.5-0.9-0.9-1.6-1.1c-0.7-0.3-1.4-0.5-2.3-0.6
				c-0.8-0.1-1.7-0.1-2.5-0.1c-0.5,0-1.1,0-1.6,0c-0.5,0-1,0-1.4,0.1c0.1-0.8,0.2-1.8,0.4-2.9c0.1-1.1,0.3-2.2,0.4-3.4
				c0.2-1.2,0.3-2.3,0.6-3.5c0.2-1.1,0.5-2.1,0.7-3s0.6-1.6,0.9-2.1c0.3-0.5,0.7-0.8,1.1-0.8c0.9,0,2,0.1,3.4,0.4
				c1.4,0.3,2.8,0.6,4.1,0.9c1.3,0.4,2.5,0.8,3.5,1.1c1,0.4,1.5,0.7,1.5,1c0,0.4-0.4,0.6-1.1,0.6c-0.9,0-2.1-0.1-3.7-0.4
				c-1.6-0.3-3.4-0.4-5.3-0.4c-0.7,0-1.2,0.2-1.6,0.5c-0.4,0.4-0.7,0.8-0.8,1.3c-0.2,0.5-0.3,1.4-0.4,2.6c-0.1,1.2-0.2,3.1-0.3,5.7
				c2.2,0,3.9,0.2,5.2,0.5s2.1,0.8,2.7,1.4c0.6,0.6,0.9,1.5,1.1,2.5c0.1,1,0.2,2.3,0.2,3.8c0,0.5-0.1,1.3-0.2,2.3
				c-0.1,1.1-0.4,2.2-0.8,3.4c-0.4,1.2-0.9,2.2-1.7,3S250.5,288.1,249.3,288.1z"/>
		</g>
		<g class="st4">
			<path class="st13" d="M235.5,82.3c0.5,0,1,0.2,1.2,0.6c0.3,0.4,0.4,0.8,0.4,1.2c0,0.4,0,0.9-0.1,1.6S237,87,237,87.8
				c0,1.5,0,3.1,0.1,4.8c0.1,1.7,0.2,3.5,0.3,5.3s0.2,3.6,0.3,5.4c0.1,1.8,0.1,3.5,0.1,5.2c0,0.5-0.1,0.8-0.4,1s-0.6,0.3-1.2,0.3
				c-0.5,0-0.9-0.2-1-0.7c-0.1-0.4-0.1-1-0.1-1.7c0-1,0-1.8,0-2.5c0-0.7,0-1.4-0.1-2.1c0-0.7,0-1.5-0.1-2.3c0-0.8-0.1-1.8-0.1-3
				c0-1.3-0.2-2.4-0.4-3.4c-0.2-1-0.4-1.8-0.7-2.6c-0.2-0.8-0.4-1.5-0.6-2.2c-0.2-0.7-0.3-1.5-0.3-2.3c0-0.5,0-1,0.1-1.5
				c0.1-0.5,0.2-1,0.4-1.5c0.2-0.5,0.4-0.9,0.8-1.2C234.6,82.5,235,82.3,235.5,82.3z"/>
		</g>
		<g class="st4">
			<path class="st13" d="M270.7,117.8c1.4,0,2.5,0.5,3.1,1.6c0.6,1.1,0.9,2.3,0.9,3.8c0,0.8-0.1,1.7-0.3,2.6
				c-0.2,0.9-0.4,1.8-0.7,2.7c-0.3,0.9-0.6,1.7-1.1,2.4c-0.4,0.7-0.8,1.4-1.3,1.9c-0.3,0.3-0.7,0.7-1.2,1.1c-0.5,0.4-1,0.9-1.6,1.4
				c-0.5,0.5-1.1,1-1.6,1.5s-0.9,1-1.3,1.4c0.3,0.5,0.9,1,1.6,1.3c0.8,0.3,1.6,0.6,2.6,0.8c0.9,0.2,1.9,0.4,2.9,0.6
				c1,0.1,1.9,0.3,2.6,0.4c0.5,0.1,1.2,0.2,2.1,0.4c0.9,0.2,1.7,0.4,2.6,0.7c0.8,0.3,1.6,0.6,2.2,1c0.6,0.4,0.9,0.8,0.9,1.3
				c0,0.4,0,0.6-0.1,0.8c-0.1,0.2-0.3,0.3-0.7,0.3c-1.3,0-2.3-0.1-3.2-0.4c-0.9-0.3-1.9-0.6-3-1.1c-0.5-0.2-1.3-0.4-2.2-0.6
				c-1-0.2-2-0.5-3.2-0.7c-1.2-0.3-2.3-0.6-3.5-0.9c-1.2-0.3-2.3-0.7-3.3-1.1c-1-0.4-1.8-0.8-2.4-1.3c-0.6-0.5-0.9-1-0.9-1.6
				c0-0.4,0.3-0.8,0.8-1.3c0.5-0.5,1.2-1,2.1-1.7c0.8-0.6,1.7-1.3,2.7-2c1-0.7,1.9-1.6,2.7-2.5c0.8-0.9,1.5-1.9,2.1-2.9
				c0.5-1,0.8-2.2,0.8-3.4c0-1-0.3-1.6-0.8-1.8c-0.6-0.2-1.2-0.4-1.8-0.4c-0.6,0-1.2,0.1-1.6,0.3c-0.4,0.2-0.8,0.4-1.2,0.7
				s-0.7,0.5-1.1,0.7c-0.4,0.2-0.8,0.3-1.2,0.3c-0.3,0-0.5,0-0.7-0.1c-0.2,0-0.3-0.2-0.3-0.4c0-0.3,0.1-0.6,0.2-1s0.4-0.8,0.6-1.3
				c0.3-0.5,0.6-0.9,0.9-1.3c0.3-0.4,0.6-0.8,0.9-1.1c0.5-0.5,1-0.8,1.7-1C268,117.9,269.1,117.8,270.7,117.8z"/>
		</g>
	</g>
	<g>
		<g class="st4">
			<path class="st7" d="M175.6,70.5c0.5,0,1,0.2,1.2,0.6c0.3,0.4,0.4,0.8,0.4,1.2c0,0.4,0,0.9-0.1,1.6c0,0.6-0.1,1.3-0.1,2.1
				c0,1.5,0,3.1,0.1,4.8c0.1,1.7,0.2,3.5,0.3,5.3c0.1,1.8,0.2,3.6,0.3,5.4c0.1,1.8,0.1,3.5,0.1,5.2c0,0.5-0.1,0.8-0.4,1
				s-0.6,0.3-1.2,0.3c-0.5,0-0.9-0.2-1-0.7c-0.1-0.4-0.1-1-0.1-1.7c0-1,0-1.8,0-2.5c0-0.7,0-1.4-0.1-2.1c0-0.7,0-1.5-0.1-2.3
				c0-0.8-0.1-1.8-0.1-3c0-1.3-0.2-2.4-0.4-3.4c-0.2-1-0.4-1.8-0.7-2.6c-0.2-0.8-0.4-1.5-0.6-2.2c-0.2-0.7-0.3-1.5-0.3-2.3
				c0-0.5,0-1,0.1-1.5c0.1-0.5,0.2-1,0.4-1.5c0.2-0.5,0.4-0.9,0.8-1.2C174.7,70.7,175.1,70.5,175.6,70.5z"/>
			<path class="st7" d="M191.1,72.2c1.4,0,2.5,0.5,3.1,1.6c0.6,1.1,0.9,2.3,0.9,3.8c0,0.8-0.1,1.7-0.3,2.6c-0.2,0.9-0.4,1.8-0.7,2.7
				c-0.3,0.9-0.6,1.7-1.1,2.4c-0.4,0.7-0.8,1.4-1.3,1.9c-0.3,0.3-0.7,0.7-1.2,1.1c-0.5,0.4-1,0.9-1.6,1.4c-0.5,0.5-1.1,1-1.6,1.5
				c-0.5,0.5-0.9,1-1.3,1.4c0.3,0.5,0.9,1,1.6,1.3c0.8,0.3,1.6,0.6,2.6,0.8c0.9,0.2,1.9,0.4,2.9,0.6c1,0.1,1.9,0.3,2.6,0.4
				c0.5,0.1,1.2,0.2,2.1,0.4c0.9,0.2,1.7,0.4,2.6,0.7c0.8,0.3,1.6,0.6,2.2,1c0.6,0.4,0.9,0.8,0.9,1.3c0,0.4,0,0.6-0.1,0.8
				s-0.3,0.3-0.7,0.3c-1.3,0-2.3-0.1-3.2-0.4s-1.9-0.6-3-1.1c-0.5-0.2-1.3-0.4-2.2-0.6c-1-0.2-2-0.5-3.2-0.7
				c-1.2-0.3-2.3-0.6-3.5-0.9c-1.2-0.3-2.3-0.7-3.3-1.1c-1-0.4-1.8-0.8-2.4-1.3c-0.6-0.5-0.9-1-0.9-1.6c0-0.4,0.3-0.8,0.8-1.3
				c0.5-0.5,1.2-1,2.1-1.7c0.8-0.6,1.7-1.3,2.7-2c1-0.7,1.9-1.6,2.7-2.5c0.8-0.9,1.5-1.9,2.1-2.9c0.5-1,0.8-2.2,0.8-3.4
				c0-1-0.3-1.6-0.8-1.8c-0.6-0.2-1.2-0.4-1.8-0.4c-0.6,0-1.2,0.1-1.6,0.3c-0.4,0.2-0.8,0.4-1.2,0.7c-0.4,0.2-0.7,0.5-1.1,0.7
				c-0.4,0.2-0.8,0.3-1.2,0.3c-0.3,0-0.5,0-0.7-0.1c-0.2,0-0.3-0.2-0.3-0.4c0-0.3,0.1-0.6,0.2-1c0.2-0.4,0.4-0.8,0.6-1.3
				c0.3-0.5,0.6-0.9,0.9-1.3c0.3-0.4,0.6-0.8,0.9-1.1c0.5-0.5,1-0.8,1.7-1C188.5,72.3,189.6,72.2,191.1,72.2z"/>
		</g>
		<g class="st4">
			<path class="st7" d="M198.5,274.4c0.5,0,0.9,0,1.3,0.1c0.4,0.1,0.6,0.4,0.6,0.8c0,0.5-0.3,0.9-0.8,1.3c-0.5,0.4-1.2,0.7-2,1
				c-0.8,0.3-1.5,0.6-2.3,0.9s-1.4,0.6-1.9,1c-1.5,1.1-2.7,2.6-3.5,4.4c-0.8,1.8-1.7,4-2.5,6.6c0.7-0.5,1.6-0.8,2.7-0.8
				c5.4,0,8.1,3.3,8.1,9.8c0,2.7-0.3,4.3-0.9,4.8c-0.5,0.4-1.1,0.8-1.7,1.2s-1.2,0.7-1.8,0.9c-0.6,0.3-1.1,0.4-1.6,0.6
				c-0.5,0.1-0.8,0.2-1.1,0.2c-1.5,0-2.8-0.1-3.9-0.3c-1.1-0.2-2-0.6-2.6-1.3c-0.7-0.7-1.2-1.6-1.5-2.9c-0.3-1.3-0.5-3-0.5-5.1
				c0-0.5,0-1,0.1-1.5c0.1-0.5,0.2-1.1,0.4-1.9c0.2-0.7,0.4-1.6,0.7-2.7c0.3-1.1,0.7-2.3,1.2-3.9c1.4-4.6,2.6-7.4,3.5-8.5
				c0.6-0.7,1.4-1.4,2.2-2c0.8-0.6,1.7-1.1,2.6-1.5c0.9-0.4,1.8-0.7,2.8-0.9C196.7,274.5,197.6,274.4,198.5,274.4z M190.9,293.3
				c-0.4,0-0.7,0.1-1.1,0.3c-0.3,0.2-0.6,0.4-0.9,0.6c-0.3,0.2-0.6,0.5-1,0.8c-0.4,0.3-0.8,0.6-1.2,0.8c-0.4,0.2-0.7,0.4-0.9,0.6
				s-0.4,0.4-0.6,0.7c-0.1,0.3-0.2,0.7-0.3,1.1c0,0.4-0.1,1-0.1,1.8c0,1.4,0.4,2.5,1.1,3.2s1.6,1.1,2.8,1.1c0.7,0,1.5-0.2,2.3-0.6
				c0.8-0.4,1.5-0.8,2.2-1.4c0.7-0.6,1.2-1.3,1.7-2s0.7-1.5,0.7-2.3c0-0.5-0.2-1-0.5-1.6s-0.7-1-1.2-1.5c-0.5-0.5-1-0.8-1.5-1.1
				S191.3,293.3,190.9,293.3z"/>
		</g>
		<g class="st4">
			<path class="st7" d="M131,293.3c0-0.6,0.2-1.3,0.6-2.2c0.4-0.8,0.9-1.7,1.4-2.5c0.5-0.9,1.1-1.7,1.7-2.5c0.6-0.8,1.1-1.6,1.5-2.3
				c0.1-0.2,0.4-0.7,0.7-1.5c0.4-0.8,0.8-1.7,1.2-2.8c0.4-1.1,0.9-2.2,1.4-3.5c0.5-1.2,1-2.4,1.4-3.5c0.4-1.1,0.8-2.1,1-2.9
				c0.3-0.8,0.4-1.4,0.4-1.7c0-0.4,0-0.7-0.1-1.1c-0.1-0.3-0.4-0.5-1-0.6c-0.3,0-0.6,0.1-0.9,0.1c-0.3,0-0.6,0-0.9,0
				c-0.5,0-1.3,0-2.5-0.1c-1.2-0.1-2.4-0.1-3.5-0.3c-1.2-0.1-2.2-0.3-3.2-0.5c-0.9-0.2-1.4-0.4-1.4-0.7c0-0.3,0.2-0.5,0.5-0.6
				c0.4-0.1,0.8-0.1,1.5-0.1c0.5,0,1,0,1.6,0.1c0.6,0.1,1,0.2,1.4,0.4h12.5c0.1,0,0.1,0.1,0.2,0.3c0.1,0.2,0.1,0.4,0.1,0.6
				c0,0.2,0,0.5,0.1,0.7c0,0.2,0,0.4,0,0.4c0,1.2-0.2,2.4-0.5,3.6c-0.4,1.2-0.8,2.4-1.3,3.6c-0.5,1.2-1.1,2.4-1.7,3.6
				c-0.6,1.2-1.2,2.4-1.7,3.5c-0.2,0.4-0.5,1.1-0.9,2c-0.4,0.9-0.8,1.9-1.3,3c-0.5,1.1-1,2.2-1.6,3.4c-0.5,1.2-1.1,2.2-1.6,3.2
				c-0.5,1-1,1.7-1.4,2.3c-0.4,0.6-0.8,0.9-1,0.9c-0.7,0-1.3-0.2-1.8-0.7C131.2,294.6,131,294,131,293.3z"/>
		</g>
		<g class="st4">
			<path class="st7" d="M96.4,254.6c-1.9,0-3.3-0.1-4.4-0.4c-1-0.3-1.8-0.7-2.4-1.2c-0.6-0.5-1-1.1-1.3-1.8c-0.3-0.7-0.6-1.4-1-2.2
				c-0.1-0.2-0.2-0.7-0.4-1.6c-0.2-0.8-0.2-1.9-0.2-3.1c0-0.9,0.2-1.7,0.7-2.4c0.4-0.8,1-1.5,1.6-2.2c0.6-0.7,1.3-1.4,1.9-2.1
				c0.6-0.7,1.2-1.3,1.6-2c-0.4-0.6-0.8-1.2-1.2-1.8c-0.4-0.5-0.8-1.1-1.2-1.6c-0.4-0.5-0.7-1.1-0.9-1.6c-0.2-0.5-0.4-1.1-0.4-1.7
				c0-0.9,0.4-1.7,1.1-2.4c0.7-0.7,1.6-1.2,2.5-1.7s2-0.7,3.1-0.9c1.1-0.2,2-0.3,2.8-0.3c0.4,0,0.9,0.1,1.5,0.2
				c0.7,0.2,1.3,0.4,2,0.6c0.7,0.3,1.3,0.6,1.8,0.9c0.5,0.4,0.8,0.7,0.8,1.1c0,0.6-0.2,1.3-0.7,2.1c-0.4,0.8-1,1.6-1.6,2.4
				c-0.6,0.8-1.3,1.6-2.1,2.3c-0.7,0.7-1.4,1.3-1.9,1.7c0.5,0.9,1.2,1.7,1.9,2.3c0.7,0.6,1.4,1.3,2.1,1.9c0.7,0.6,1.2,1.3,1.7,2
				c0.4,0.7,0.7,1.6,0.7,2.6c0,0.7-0.1,1.4-0.3,2.2c-0.2,0.7-0.4,1.5-0.7,2.2c-0.3,0.7-0.6,1.4-0.8,2c-0.3,0.7-0.6,1.3-0.8,1.9
				c-0.3,0.7-0.9,1.3-1.9,1.8C99.1,254.4,97.9,254.6,96.4,254.6z M89.8,246.5c0,1.6,0.5,3,1.5,4c1,1,2.3,1.5,3.8,1.5
				c1,0,2-0.2,2.7-0.7c0.8-0.5,1.4-1.1,1.9-1.8c0.5-0.7,0.9-1.6,1.1-2.4c0.2-0.9,0.3-1.7,0.3-2.5c0-1.7-0.5-3-1.6-4.1
				c-1.1-1-2.3-1.9-3.8-2.5c-0.5,0.4-1.2,0.9-1.9,1.7c-0.7,0.8-1.3,1.6-2,2.5c-0.6,0.9-1.1,1.7-1.5,2.5
				C90,245.4,89.8,246,89.8,246.5z M92.5,229.5c0,0.7,0.1,1.3,0.4,1.9c0.3,0.6,0.8,1.2,1.6,1.7c1.7-1.5,2.9-2.6,3.5-3.4
				c0.6-0.8,0.9-1.5,0.9-2.3c0,0,0-0.1-0.1-0.3c-0.1-0.2-0.2-0.4-0.4-0.6c-0.2-0.2-0.3-0.4-0.6-0.6c-0.2-0.2-0.4-0.3-0.6-0.3
				c-0.4,0-0.8,0.1-1.3,0.4c-0.5,0.3-1.1,0.6-1.6,0.9c-0.5,0.4-1,0.8-1.3,1.2C92.7,228.8,92.5,229.2,92.5,229.5z"/>
		</g>
		<g class="st4">
			<path class="st7" d="M89,125.4c0.5,0,1,0.2,1.2,0.6c0.3,0.4,0.4,0.8,0.4,1.2c0,0.4,0,0.9-0.1,1.6c0,0.6-0.1,1.3-0.1,2.1
				c0,1.5,0,3.1,0.1,4.8c0.1,1.7,0.2,3.5,0.3,5.3c0.1,1.8,0.2,3.6,0.3,5.4c0.1,1.8,0.1,3.5,0.1,5.2c0,0.5-0.1,0.8-0.4,1
				s-0.6,0.3-1.2,0.3c-0.5,0-0.9-0.2-1-0.7c-0.1-0.4-0.1-1-0.1-1.7c0-1,0-1.8,0-2.5c0-0.7,0-1.4-0.1-2.1c0-0.7,0-1.5-0.1-2.3
				c0-0.8-0.1-1.8-0.1-3c0-1.3-0.2-2.4-0.4-3.4c-0.2-1-0.4-1.8-0.7-2.6c-0.2-0.8-0.4-1.5-0.6-2.2c-0.2-0.7-0.3-1.5-0.3-2.3
				c0-0.5,0-1,0.1-1.5c0.1-0.5,0.2-1,0.4-1.5c0.2-0.5,0.4-0.9,0.8-1.2C88.1,125.5,88.5,125.4,89,125.4z"/>
			<path class="st7" d="M95.6,133.1c0-2.8,0.4-4.9,1.2-6.3c0.8-1.4,2-2.4,3.5-3c1.6-0.7,3-1.3,4-1.8c1-0.5,1.9-0.8,2.8-0.8
				s1.5,0.3,1.9,1c0.5,0.7,0.9,1.5,1.2,2.5c0.2,0.6,0.3,1.1,0.4,1.6c0.1,0.5,0.2,1.1,0.2,1.8c0,0.7,0.1,1.6,0.1,2.8
				c0,1.1,0,2.7,0,4.6c0,1.6-0.1,3.4-0.3,5.2s-0.6,3.5-1.1,5c-0.6,1.5-1.4,2.8-2.6,3.8c-1.1,1-2.7,1.5-4.6,1.5
				c-1.5,0-2.7-0.5-3.6-1.6c-0.9-1-1.5-2.4-2-4.1c-0.4-1.7-0.7-3.6-0.8-5.8C95.6,137.5,95.6,135.3,95.6,133.1z M97.8,132.4
				c0,1,0,2.3,0.1,3.9s0.3,3.2,0.6,4.7c0.4,1.5,0.9,2.9,1.6,4c0.7,1.1,1.8,1.7,3.2,1.7c1.1,0,1.9-0.3,2.5-1s1.1-1.5,1.5-2.5
				c0.4-1,0.6-2,0.7-3.2c0.1-1.2,0.1-2.2,0.1-3.2c0-0.3,0-0.5,0-0.7c0-0.2,0-0.5,0-0.7c0-0.3,0-0.6-0.1-1c0-0.4-0.1-0.9-0.2-1.5
				c-0.3,0.1-0.5,0.2-0.7,0.2c-0.2,0-0.4-0.4-0.5-1.2c-0.1-0.8-0.2-1.6-0.3-2.6c-0.1-0.9-0.2-1.8-0.4-2.7c-0.1-0.8-0.3-1.3-0.6-1.4
				c-0.2,0-0.8,0.1-1.6,0.4c-0.8,0.2-1.6,0.6-2.5,1.2c-0.9,0.5-1.7,1.3-2.4,2.2S97.8,131,97.8,132.4z"/>
		</g>
		<g class="st4">
			<path class="st7" d="M128.9,82.3c0.5,0,1,0.2,1.2,0.6c0.3,0.4,0.4,0.8,0.4,1.2c0,0.4,0,0.9-0.1,1.6c0,0.6-0.1,1.3-0.1,2.1
				c0,1.5,0,3.1,0.1,4.8c0.1,1.7,0.2,3.5,0.3,5.3c0.1,1.8,0.2,3.6,0.3,5.4c0.1,1.8,0.1,3.5,0.1,5.2c0,0.5-0.1,0.8-0.4,1
				s-0.6,0.3-1.2,0.3c-0.5,0-0.9-0.2-1-0.7c-0.1-0.4-0.1-1-0.1-1.7c0-1,0-1.8,0-2.5c0-0.7,0-1.4-0.1-2.1c0-0.7,0-1.5-0.1-2.3
				c0-0.8-0.1-1.8-0.1-3c0-1.3-0.2-2.4-0.4-3.4c-0.2-1-0.4-1.8-0.7-2.6c-0.2-0.8-0.4-1.5-0.6-2.2c-0.2-0.7-0.3-1.5-0.3-2.3
				c0-0.5,0-1,0.1-1.5c0.1-0.5,0.2-1,0.4-1.5c0.2-0.5,0.4-0.9,0.8-1.2C128.1,82.5,128.5,82.3,128.9,82.3z"/>
			<path class="st7" d="M137.1,82.3c0.5,0,1,0.2,1.2,0.6c0.3,0.4,0.4,0.8,0.4,1.2c0,0.4,0,0.9-0.1,1.6c0,0.6-0.1,1.3-0.1,2.1
				c0,1.5,0,3.1,0.1,4.8c0.1,1.7,0.2,3.5,0.3,5.3c0.1,1.8,0.2,3.6,0.3,5.4c0.1,1.8,0.1,3.5,0.1,5.2c0,0.5-0.1,0.8-0.4,1
				s-0.6,0.3-1.2,0.3c-0.5,0-0.9-0.2-1-0.7c-0.1-0.4-0.1-1-0.1-1.7c0-1,0-1.8,0-2.5c0-0.7,0-1.4-0.1-2.1c0-0.7,0-1.5-0.1-2.3
				c0-0.8-0.1-1.8-0.1-3c0-1.3-0.2-2.4-0.4-3.4c-0.2-1-0.4-1.8-0.7-2.6c-0.2-0.8-0.4-1.5-0.6-2.2c-0.2-0.7-0.3-1.5-0.3-2.3
				c0-0.5,0-1,0.1-1.5c0.1-0.5,0.2-1,0.4-1.5c0.2-0.5,0.4-0.9,0.8-1.2C136.2,82.5,136.6,82.3,137.1,82.3z"/>
		</g>
		<g class="st4">
			<path class="st7" d="M83,170.3c0.7,0,1.3,0.1,2,0.3c0.7,0.2,1.3,0.4,1.9,0.7c0.6,0.3,1,0.7,1.4,1.2c0.4,0.5,0.5,1,0.5,1.6
				c0,0.3,0,0.6-0.1,1c0,0.4-0.1,0.8-0.2,1.2c-0.1,0.4-0.2,0.9-0.4,1.3c-0.2,0.4-0.4,0.8-0.7,1.1v17c0,0.4,0,0.8-0.1,1.4
				c0,0.6-0.1,1.2-0.3,1.7c-0.2,0.6-0.4,1.1-0.6,1.5c-0.3,0.4-0.6,0.6-1.1,0.6c-0.7,0-1.2-0.2-1.5-0.6c-0.4-0.4-0.5-1-0.5-1.8
				c0-1,0.2-2.1,0.6-3.3c0.4-1.2,0.6-2.5,0.6-3.9c0-1.1,0-2.2-0.1-3.4c0-1.2-0.1-2.3-0.2-3.3c-0.9,0.6-1.6,1.1-2,1.3
				c-0.4,0.3-0.9,0.4-1.4,0.4c-0.6,0-1.4-0.1-2.3-0.4c-0.9-0.2-1.8-0.5-2.8-0.8c-0.7-0.2-1.4-0.5-2.2-0.8c-0.8-0.3-1.5-0.7-2.2-1.1
				c-0.7-0.4-1.2-0.8-1.6-1.3c-0.4-0.5-0.6-1-0.6-1.5c0-1.3,0.5-2.6,1.4-3.8s2.1-2.3,3.5-3.3c1.4-0.9,2.9-1.7,4.5-2.3
				C80.1,170.5,81.6,170.3,83,170.3z M82.9,173.2c-0.4,0-1.2,0.3-2.2,0.8c-1,0.5-2.1,1.2-3.1,2c-1.1,0.8-2,1.5-2.8,2.3
				c-0.8,0.8-1.2,1.4-1.2,1.9c0,0.3,0.2,0.6,0.5,0.9c0.3,0.3,0.7,0.6,1.2,0.9c0.5,0.3,1,0.5,1.5,0.6c0.5,0.2,1,0.2,1.4,0.2
				c0.7,0,1.4-0.2,2.1-0.7c0.7-0.5,1.4-1.1,2-1.9c0.6-0.8,1.1-1.7,1.5-2.7c0.4-1,0.6-2,0.6-3c0-0.4-0.1-0.8-0.3-1
				C83.9,173.3,83.5,173.2,82.9,173.2z"/>
		</g>
		<g class="st4">
			<path class="st7" d="M285.1,168.7c0.7,0,1.4,0.1,2.1,0.2s1.3,0.3,2,0.4c0.7,0.2,1.4,0.3,2.2,0.5s1.7,0.3,2.7,0.4
				c0.9,0.1,1.8,0.2,2.7,0.4c0.9,0.2,1.6,0.5,2.3,0.8c0.7,0.3,1.2,0.7,1.6,1.2c0.4,0.5,0.6,1.1,0.6,1.8c0,0.3,0,0.6-0.1,0.8
				c0,0.2-0.1,0.4-0.1,0.5c0,0.3,0.1,0.8,0.4,1.5c0.3,0.7,0.5,1.5,0.8,2.3c0.3,0.8,0.6,1.7,0.8,2.5c0.3,0.8,0.4,1.5,0.4,1.9
				s-0.1,1-0.4,1.6c-0.3,0.6-0.7,1.1-1.2,1.6c0.2,0.2,0.4,0.4,0.6,0.7c0.2,0.3,0.3,0.7,0.4,1.1s0.2,0.7,0.2,1.1
				c0,0.4,0.1,0.6,0.1,0.9c0,0.2-0.1,0.4-0.2,0.6c-0.2,0.2-0.4,0.5-0.6,0.8s-0.6,0.7-1,1.1c-0.4,0.4-0.8,1-1.3,1.7
				c-0.4,0.5-0.8,1-1.1,1.5s-0.8,0.8-1.3,1.1c-0.5,0.3-1.1,0.5-1.8,0.6c-0.7,0.1-1.7,0.2-2.9,0.2c-0.6,0-1.5-0.1-2.5-0.2
				c-1.1-0.2-2.1-0.4-3.1-0.7c-1-0.3-1.9-0.8-2.7-1.3c-0.7-0.5-1.1-1.1-1.1-1.8c0-0.4,0.1-0.6,0.4-0.6c0.3-0.1,0.6-0.1,1-0.1
				c0.7,0,1.4,0.1,2.1,0.4s1.3,0.5,2,0.8c0.7,0.3,1.4,0.6,2.1,0.8s1.5,0.4,2.3,0.4c0.6,0,1.3-0.2,1.9-0.7c0.6-0.4,1.2-1,1.8-1.6
				c0.6-0.6,1.1-1.2,1.5-1.8c0.4-0.6,0.7-1.1,0.8-1.5c0-0.8-0.2-1.5-0.7-1.9c-0.5-0.4-1-0.8-1.7-1.1c-0.7-0.3-1.4-0.4-2.3-0.5
				s-1.6-0.2-2.3-0.3c-0.7-0.1-1.3-0.3-1.7-0.4s-0.7-0.5-0.7-0.8c0-0.6,0.3-1.1,0.9-1.6c0.6-0.5,1.2-0.7,1.9-0.7
				c1.1,0,2.3,0.1,3.4,0.2c1.1,0.1,2.2,0.4,3.1,0.7c0-0.3,0.1-0.5,0.1-0.8c0-0.3,0-0.5,0-0.8c0-1.4-0.2-2.8-0.7-4
				c-0.5-1.2-1.2-2.3-2-3.2c-0.9-0.9-2-1.6-3.4-2.1c-1.3-0.5-2.9-0.8-4.7-0.8c-1,0-1.7,0.1-2.1,0.2c-0.4,0.1-0.9,0.2-1.4,0.2
				c-0.7,0-1.1-0.2-1.2-0.6c-0.2-0.4-0.2-1-0.2-1.7c0-0.7,0.1-1.1,0.3-1.3C284.5,168.8,284.7,168.7,285.1,168.7z"/>
		</g>
		<g class="st4">
			<path class="st7" d="M278.4,251.3c-0.7,0-1.2-0.4-1.5-1.1c-0.2-0.7-0.4-1.6-0.4-2.6c0-0.6,0-1.4,0.1-2.6c0-1.1,0.1-2.3,0.1-3.5
				c0.1-1.2,0.1-2.3,0.2-3.3s0.1-1.7,0.1-2.1c-1.1-0.4-2-0.7-2.8-0.8c-0.8-0.1-1.4-0.3-1.9-0.4c-0.5-0.2-0.8-0.4-1.1-0.6
				s-0.4-0.7-0.4-1.3c0-0.8,0.1-1.6,0.4-2.6c0.3-1,0.4-2,0.4-3.2c0-0.4-0.1-0.8-0.2-1.1c-0.1-0.4-0.2-0.9-0.2-1.7
				c0-0.5,0.1-1.1,0.2-1.6c0.1-0.5,0.5-0.8,1-0.8c0.6,0,1,0.4,1.2,1.1c0.2,0.8,0.3,1.6,0.3,2.7c0,1.2-0.1,2.4-0.2,3.5
				c-0.2,1.2-0.3,2-0.4,2.5c0.4,0.3,1.1,0.5,2,0.8c0.9,0.2,1.9,0.4,3,0.4c0-2.2,0.2-4.2,0.4-5.9s0.5-3.2,0.8-4.6
				c0.3-1.3,0.6-2.5,0.8-3.5c0.2-1,0.4-2,0.4-2.8c0.1-1.2,0.2-2.1,0.3-2.5s0.5-0.7,1.2-0.7c0.3,0,0.5,0.1,0.6,0.2
				c0.1,0.2,0.1,0.3,0.1,0.5c0,1.5-0.1,3-0.2,4.5c-0.2,1.5-0.3,3-0.5,4.6s-0.3,3.2-0.5,4.9c-0.2,1.7-0.2,3.5-0.2,5.4
				c0.2,0.2,0.6,0.4,1.1,0.5c0.5,0.1,1.1,0.3,1.7,0.4s1.1,0.4,1.5,0.7c0.4,0.3,0.7,0.6,0.7,1.1c0,0.5-0.5,0.9-1.4,1.1
				c-0.9,0.2-2.6,0.3-5.1,0.3c0,0.5,0.1,1.2,0.1,2.2c0,0.9,0.1,1.9,0.1,2.9c0,0.8,0,1.7-0.1,2.7c-0.1,1-0.2,2-0.3,2.9
				c-0.2,0.9-0.4,1.7-0.6,2.3C279.1,251,278.8,251.3,278.4,251.3z"/>
		</g>
		<g class="st4">
			<path class="st7" d="M249.3,288.1c-2.6,0-4.8-0.3-6.8-0.8c-1.9-0.6-3.6-1.3-5-2.2c-1.4-0.9-2.5-1.8-3.4-2.9
				c-0.9-1.1-1.6-2.1-2.1-3c-0.5-1-0.9-1.8-1.1-2.5c-0.2-0.7-0.3-1.2-0.3-1.4c0-0.4,0.1-0.6,0.2-0.7c0.2-0.1,0.4-0.1,0.6-0.1
				c0.2,0,0.5,0.1,0.9,0.4c0.4,0.3,0.7,0.7,1.1,1.2c0.4,0.5,0.8,1.1,1.3,1.8c0.5,0.7,0.9,1.4,1.4,2.1c0.6,0.9,1.1,1.6,1.7,2.2
				c0.5,0.6,1.2,1,1.9,1.4c0.7,0.4,1.6,0.6,2.6,0.7c1,0.1,2.3,0.2,3.8,0.2c1.2,0,2.1-0.3,2.9-0.8c0.8-0.5,1.4-1.2,1.9-2
				c0.5-0.8,0.8-1.8,1-2.8c0.2-1,0.3-2,0.3-3c0-0.7-0.2-1.4-0.6-1.8c-0.4-0.5-0.9-0.9-1.6-1.1c-0.7-0.3-1.4-0.5-2.3-0.6
				c-0.8-0.1-1.7-0.1-2.5-0.1c-0.5,0-1.1,0-1.6,0c-0.5,0-1,0-1.4,0.1c0.1-0.8,0.2-1.8,0.4-2.9c0.1-1.1,0.3-2.2,0.4-3.4
				c0.2-1.2,0.3-2.3,0.6-3.5c0.2-1.1,0.5-2.1,0.7-3s0.6-1.6,0.9-2.1c0.3-0.5,0.7-0.8,1.1-0.8c0.9,0,2,0.1,3.4,0.4
				c1.4,0.3,2.8,0.6,4.1,0.9c1.3,0.4,2.5,0.8,3.5,1.1c1,0.4,1.5,0.7,1.5,1c0,0.4-0.4,0.6-1.1,0.6c-0.9,0-2.1-0.1-3.7-0.4
				c-1.6-0.3-3.4-0.4-5.3-0.4c-0.7,0-1.2,0.2-1.6,0.5c-0.4,0.4-0.7,0.8-0.8,1.3c-0.2,0.5-0.3,1.4-0.4,2.6c-0.1,1.2-0.2,3.1-0.3,5.7
				c2.2,0,3.9,0.2,5.2,0.5s2.1,0.8,2.7,1.4c0.6,0.6,0.9,1.5,1.1,2.5c0.1,1,0.2,2.3,0.2,3.8c0,0.5-0.1,1.3-0.2,2.3
				c-0.1,1.1-0.4,2.2-0.8,3.4c-0.4,1.2-0.9,2.2-1.7,3S250.5,288.1,249.3,288.1z"/>
		</g>
		<g class="st4">
			<path class="st7" d="M235.5,82.3c0.5,0,1,0.2,1.2,0.6c0.3,0.4,0.4,0.8,0.4,1.2c0,0.4,0,0.9-0.1,1.6S237,87,237,87.8
				c0,1.5,0,3.1,0.1,4.8c0.1,1.7,0.2,3.5,0.3,5.3s0.2,3.6,0.3,5.4c0.1,1.8,0.1,3.5,0.1,5.2c0,0.5-0.1,0.8-0.4,1s-0.6,0.3-1.2,0.3
				c-0.5,0-0.9-0.2-1-0.7c-0.1-0.4-0.1-1-0.1-1.7c0-1,0-1.8,0-2.5c0-0.7,0-1.4-0.1-2.1c0-0.7,0-1.5-0.1-2.3c0-0.8-0.1-1.8-0.1-3
				c0-1.3-0.2-2.4-0.4-3.4c-0.2-1-0.4-1.8-0.7-2.6c-0.2-0.8-0.4-1.5-0.6-2.2c-0.2-0.7-0.3-1.5-0.3-2.3c0-0.5,0-1,0.1-1.5
				c0.1-0.5,0.2-1,0.4-1.5c0.2-0.5,0.4-0.9,0.8-1.2C234.6,82.5,235,82.3,235.5,82.3z"/>
		</g>
		<g class="st4">
			<path class="st7" d="M270.7,117.8c1.4,0,2.5,0.5,3.1,1.6c0.6,1.1,0.9,2.3,0.9,3.8c0,0.8-0.1,1.7-0.3,2.6
				c-0.2,0.9-0.4,1.8-0.7,2.7c-0.3,0.9-0.6,1.7-1.1,2.4c-0.4,0.7-0.8,1.4-1.3,1.9c-0.3,0.3-0.7,0.7-1.2,1.1c-0.5,0.4-1,0.9-1.6,1.4
				c-0.5,0.5-1.1,1-1.6,1.5s-0.9,1-1.3,1.4c0.3,0.5,0.9,1,1.6,1.3c0.8,0.3,1.6,0.6,2.6,0.8c0.9,0.2,1.9,0.4,2.9,0.6
				c1,0.1,1.9,0.3,2.6,0.4c0.5,0.1,1.2,0.2,2.1,0.4c0.9,0.2,1.7,0.4,2.6,0.7c0.8,0.3,1.6,0.6,2.2,1c0.6,0.4,0.9,0.8,0.9,1.3
				c0,0.4,0,0.6-0.1,0.8c-0.1,0.2-0.3,0.3-0.7,0.3c-1.3,0-2.3-0.1-3.2-0.4c-0.9-0.3-1.9-0.6-3-1.1c-0.5-0.2-1.3-0.4-2.2-0.6
				c-1-0.2-2-0.5-3.2-0.7c-1.2-0.3-2.3-0.6-3.5-0.9c-1.2-0.3-2.3-0.7-3.3-1.1c-1-0.4-1.8-0.8-2.4-1.3c-0.6-0.5-0.9-1-0.9-1.6
				c0-0.4,0.3-0.8,0.8-1.3c0.5-0.5,1.2-1,2.1-1.7c0.8-0.6,1.7-1.3,2.7-2c1-0.7,1.9-1.6,2.7-2.5c0.8-0.9,1.5-1.9,2.1-2.9
				c0.5-1,0.8-2.2,0.8-3.4c0-1-0.3-1.6-0.8-1.8c-0.6-0.2-1.2-0.4-1.8-0.4c-0.6,0-1.2,0.1-1.6,0.3c-0.4,0.2-0.8,0.4-1.2,0.7
				s-0.7,0.5-1.1,0.7c-0.4,0.2-0.8,0.3-1.2,0.3c-0.3,0-0.5,0-0.7-0.1c-0.2,0-0.3-0.2-0.3-0.4c0-0.3,0.1-0.6,0.2-1s0.4-0.8,0.6-1.3
				c0.3-0.5,0.6-0.9,0.9-1.3c0.3-0.4,0.6-0.8,0.9-1.1c0.5-0.5,1-0.8,1.7-1C268,117.9,269.1,117.8,270.7,117.8z"/>
		</g>
	</g>
	<g>
		<path class="st9" d="M166.6,57.5c0,0,12.9-12.5,30.1,0C196.7,57.5,185,126.1,166.6,57.5z"/>
		<path d="M166.5,57.4c1.8-2.1,4.2-3.7,6.8-4.9c2.6-1.1,5.5-1.8,8.3-1.8c2.9,0,5.8,0.5,8.4,1.7c2.6,1.1,5,2.7,7.1,4.5l0.4,0.4
			l-0.1,0.4l-2.2,8.6c-0.7,2.9-1.4,5.8-2.2,8.6c-0.8,2.9-1.7,5.7-3.1,8.5c-0.7,1.4-1.6,2.7-2.8,3.9c-0.6,0.6-1.3,1.2-2.1,1.6
			c-0.8,0.4-1.9,0.7-2.9,0.6c-1-0.1-2-0.4-2.7-0.9c-0.8-0.5-1.5-1-2-1.6c-1.2-1.2-2.1-2.5-2.9-3.8c-1.6-2.7-2.7-5.5-3.7-8.3
			c-2-5.7-3.4-11.5-4.2-17.3L166.5,57.4L166.5,57.4z M166.8,57.5c2.2,5.5,4.2,11,6.5,16.3c1.2,2.6,2.4,5.3,3.9,7.7
			c0.7,1.2,1.5,2.3,2.4,3.3c0.9,0.9,1.9,1.6,2.8,1.7c0.9,0.1,1.9-0.3,2.9-1.2c0.9-0.9,1.8-2,2.5-3.2c1.5-2.4,2.8-5,3.9-7.7
			c2.2-5.4,3.7-11.2,4.2-17l0.3,0.8c-2.3-1.4-4.7-2.5-7.1-3.4c-2.4-0.8-5-1.4-7.5-1.5c-2.6-0.1-5.2,0.2-7.7,1
			C171.4,54.9,169,56.1,166.8,57.5z"/>
	</g>
</g>
</svg>
