<?xml version="1.0" encoding="utf-8"?>
<!-- Generator: Adobe Illustrator 15.1.0, SVG Export Plug-In . SVG Version: 6.00 Build 0)  -->
<!DOCTYPE svg PUBLIC "-//W3C//DTD SVG 1.1//EN" "http://www.w3.org/Graphics/SVG/1.1/DTD/svg11.dtd">
<svg version="1.1" id="clock" xmlns="http://www.w3.org/2000/svg" xmlns:xlink="http://www.w3.org/1999/xlink" x="0px" y="0px"
	 width="31px" height="123px" viewBox="0 0 31 123" style="enable-background:new 0 0 31 123;" xml:space="preserve">
<style type="text/css">
<![CDATA[
	.st0{fill:#DBB482;stroke:#000000;stroke-miterlimit:10;}
	.st1{fill:#93FF80;stroke:#000000;stroke-miterlimit:10;}
]]>
</style>
<path class="st1" d="M18.1,30.5h8.4l-11-25.7l-11,25.7h8.6c1.3,17.8,3.9,64.2-3.4,80H23C23,110.5,15.3,73.5,18.1,30.5z"/>
<path class="st0" d="M16.8,97.1c-6,0-10.9,4.9-10.9,10.9c0,6,4.9,10.9,10.9,10.9c6,0,10.9-4.9,10.9-10.9
	C27.8,102,22.9,97.1,16.8,97.1z M16.8,114.2c-3.4,0-6.1-2.8-6.1-6.1c0-3.4,2.8-6.1,6.1-6.1s6.1,2.8,6.1,6.1
	C23,111.5,20.2,114.2,16.8,114.2z"/>
<circle class="st0" cx="16.8" cy="108.1" r="4.7"/>
</svg>
