<?xml version="1.0" encoding="utf-8"?>
<!-- Generator: Adobe Illustrator 15.1.0, SVG Export Plug-In . SVG Version: 6.00 Build 0)  -->
<!DOCTYPE svg PUBLIC "-//W3C//DTD SVG 1.1//EN" "http://www.w3.org/Graphics/SVG/1.1/DTD/svg11.dtd">
<svg version="1.1" id="door_open_copy" xmlns="http://www.w3.org/2000/svg" xmlns:xlink="http://www.w3.org/1999/xlink" x="0px"
	 y="0px" width="226px" height="215px" viewBox="0 0 226 215" style="enable-background:new 0 0 226 215;" xml:space="preserve">
<style type="text/css">
<![CDATA[
	.st0{clip-path:url(#SVGID_6_);fill:#FFFEF0;}
	.st1{fill:#AF7631;}
	.st2{clip-path:url(#SVGID_14_);fill:#DBCCA9;}
	.st3{fill:#87705C;stroke:#000000;stroke-miterlimit:10;}
	.st4{fill:none;stroke:#59422C;stroke-miterlimit:10;}
	.st5{fill:none;stroke:#59422C;stroke-width:0.5;stroke-miterlimit:10;}
	.st6{opacity:0.2;enable-background:new    ;}
	.st7{clip-path:url(#SVGID_2_);}
	.st8{clip-path:url(#SVGID_4_);}
	.st9{clip-path:url(#SVGID_8_);}
	.st10{fill:none;stroke:#59422C;stroke-width:0.25;stroke-miterlimit:10;}
	.st11{fill:#C4AB94;}
	.st12{fill:#CE9557;}
	.st13{fill:#000500;}
	.st14{fill:#000700;}
	.st15{fill:#6FBF73;}
	.st16{clip-path:url(#SVGID_10_);}
	.st17{clip-path:url(#SVGID_12_);}
	.st18{clip-path:url(#SVGID_16_);}
	.st19{clip-path:url(#SVGID_18_);}
	.st20{clip-path:url(#SVGID_20_);}
	.st21{clip-path:url(#SVGID_22_);}
	.st22{clip-path:url(#SVGID_24_);}
	.st23{clip-path:url(#SVGID_26_);}
	.st24{clip-path:url(#SVGID_28_);}
	.st25{clip-path:url(#SVGID_36_);}
	.st26{clip-path:url(#SVGID_38_);}
	.st27{fill:#A59577;}
	.st28{opacity:0.13;enable-background:new    ;}
	.st29{opacity:0.5;fill:#FFFEF0;enable-background:new    ;}
]]>
</style>
<g>
	<g>
		<path class="st1" d="M22.6,23.4c-4.2,0-7.6,5.4-7.6,12v148c0,6.6,3.4,12,7.6,12h84.8v-172H22.6z"/>
		<path d="M22.6,23.4c-1.4,0-2.7,0.6-3.7,1.5s-1.8,2.1-2.4,3.3c-1.2,2.5-1.6,5.3-1.5,8v16.5l0.2,33l0.1,33c0,11,0,22-0.1,33
			c0,11-0.1,22,0,33c0.2,2.7,1,5.4,2.6,7.6c0.8,1.1,1.8,2,3.1,2.5c0.6,0.2,1.3,0.3,1.9,0.3h2.1h16.5c22,0.1,44-0.1,66-0.1l-0.3,0.3
			l-0.1-43v-43v-43V44.8l0.1-21.5l0.4,0.4L22.6,23.4z M22.6,23.3l84.8-0.4h0.4v0.4l0.1,21.5v21.5v43v43l-0.1,43v0.3h-0.3
			c-22,0-44-0.2-66-0.1H25h-2.1c-0.7,0-1.4-0.1-2.1-0.3c-1.4-0.5-2.5-1.5-3.3-2.6c-1.7-2.3-2.5-5.1-2.7-7.8
			c-0.1-5.5-0.1-11-0.1-16.5v-16.5c0-11-0.1-22-0.1-33l0.1-33l0.2-33V36.3c-0.1-2.7,0.3-5.6,1.5-8.1c0.6-1.2,1.4-2.4,2.4-3.3
			C19.9,23.9,21.2,23.3,22.6,23.3z"/>
	</g>
	<g>
		<path class="st12" d="M24.8,26.1c-4,0-7.2,5.2-7.2,11.7v144c0,6.4,3.2,11.7,7.2,11.7h80.1V26.1H24.8z"/>
		<path d="M24.8,26.2c-1.3,0-2.6,0.6-3.5,1.5c-1,0.9-1.7,2-2.2,3.2c-1.1,2.4-1.4,5.1-1.4,7.7v15.9l0.2,31.8l0.1,31.8
			c0,10.6,0,21.2-0.1,31.8l-0.1,31.8c0,2.6,0.5,5.2,1.6,7.6c0.6,1.1,1.4,2.2,2.4,3s2.2,1.2,3.6,1.1h15.9c21.2,0.1,42.4-0.1,63.5-0.1
			l-0.3,0.3l-0.1-41.8V110V68.2V47.3l0.1-20.9l0.4,0.4L24.8,26.2z M24.8,26.1l80.1-0.3h0.4v0.4l0.1,20.9V68v41.8v41.8l-0.1,41.8v0.3
			H105c-21.2,0-42.4-0.2-63.5-0.1H25.6c-0.6,0-1.4,0-2-0.2c-0.7-0.2-1.3-0.5-1.8-0.9c-1.1-0.8-1.9-2-2.5-3.1
			c-1.2-2.4-1.7-5.1-1.7-7.8l-0.1-31.8c0-10.6-0.1-21.2-0.1-31.8l0.1-31.8l0.2-31.8V38.5c-0.1-2.6,0.3-5.3,1.4-7.8
			c0.6-1.2,1.3-2.4,2.3-3.3C22.2,26.7,23.4,26.1,24.8,26.1z"/>
	</g>
	<g>
		<path class="st1" d="M205.8,23.4h-98.4v172h98.4c4.2,0,7.6-5.4,7.6-12v-148C213.5,28.7,210,23.4,205.8,23.4z"/>
		<path d="M205.8,23.4h-24.6l-24.6,0.1l-49.2,0.2l0.4-0.4c0.1,14.3,0,28.7,0,43l-0.1,43c0,14.3-0.1,28.7-0.1,43l0.1,43l-0.3-0.3
			l69.4-0.2h17.3h8.7h2.2c0.4,0,0.7,0,1.1,0c0.3,0,0.6-0.1,1-0.2c1.3-0.4,2.4-1.3,3.2-2.3c1.7-2.2,2.5-5,2.7-7.8
			c0.1-2.8,0-5.8,0-8.6v-17.3v-34.7l0.2-34.7l0.1-34.7l0.1-17.3c0-1.4,0-2.9-0.2-4.3s-0.6-2.8-1.1-4.1c-0.6-1.3-1.3-2.6-2.4-3.5
			C208.6,24.1,207.3,23.4,205.8,23.4z M205.8,23.3c1.5,0,2.9,0.7,3.9,1.7c1.1,1,1.9,2.3,2.4,3.6c0.6,1.3,1,2.8,1.2,4.2
			c0.2,1.4,0.2,2.9,0.2,4.3l0.1,17.3l0.1,34.7l0.2,34.7v34.7v17.3c0,2.9,0,5.8,0,8.7c-0.2,2.9-1,5.9-2.9,8.3
			c-0.9,1.2-2.2,2.2-3.7,2.7c-0.4,0.1-0.8,0.2-1.2,0.2c-0.4,0-0.8,0-1.1,0h-2.2h-8.7h-17.3l-69.4-0.2h-0.3v-0.3l0.1-43
			c0-14.3-0.1-28.7-0.1-43l-0.1-43c0-14.3-0.1-28.7,0-43v-0.4h0.4l49.2,0.2l24.6,0.1L205.8,23.3z"/>
	</g>
	<g>
		<path class="st12" d="M203.3,26.1h-92.8v167.3h92.8c4,0,7.2-5.2,7.2-11.7v-144C210.5,31.4,207.2,26.1,203.3,26.1z"/>
		<g>
			<path d="M203.3,26.2h-23.2l-23.2,0.1l-46.4,0.2l0.4-0.4c0.1,13.9,0,27.9,0,41.8l-0.1,41.8c0,13.9-0.1,27.9-0.1,41.8l0.1,41.8
				l-0.3-0.3l66.7-0.2h16.7h8.3c0.7,0,1.4,0,2-0.1c0.6-0.1,1.2-0.4,1.7-0.8c1.1-0.8,1.9-1.8,2.5-3c1.2-2.4,1.7-5.1,1.6-7.9v-8.3V156
				v-33.4l0.2-33.4l0.1-33.4l0.1-16.7c0-1.4,0-2.8-0.2-4.1c-0.2-1.4-0.5-2.7-1-4s-1.3-2.5-2.2-3.5C205.9,26.9,204.6,26.2,203.3,26.2
				z M203.3,26.1c1.4,0,2.8,0.7,3.8,1.7s1.7,2.2,2.3,3.5c1.1,2.6,1.3,5.4,1.3,8.2l0.1,16.7l0.1,33.4l0.2,33.4v33.4v16.7v8.3
				c0.1,2.8-0.4,5.7-1.7,8.3c-0.7,1.3-1.6,2.5-2.8,3.4c-0.6,0.4-1.3,0.8-2,0.9c-0.8,0.2-1.5,0.1-2.2,0.1h-8.3h-16.7l-66.7-0.2h-0.3
				v-0.3l0.1-41.8c0-13.9-0.1-27.9-0.1-41.8l-0.3-42c0-13.9-0.1-27.9,0-41.8v-0.4h0.4l46.4,0.2l23.2,0.1H203.3z"/>
		</g>
	</g>
	<g>
		<g>
			<defs>
				<path id="SVGID_1_" d="M24.6,26.1c-4,0-7.2,5.2-7.2,11.7v144c0,6.4,3.2,11.7,7.2,11.7h80.1V26.1H24.6z"/>
			</defs>
			<clipPath id="SVGID_2_">
				<use xlink:href="#SVGID_1_"  style="overflow:visible;"/>
			</clipPath>
			<g class="st7">
				<line class="st4" x1="25.1" y1="22.3" x2="25.1" y2="196.4"/>
				<line class="st4" x1="21.8" y1="22.3" x2="21.8" y2="196.4"/>
				<line class="st4" x1="48.7" y1="10" x2="48.7" y2="184"/>
				<line class="st5" x1="60.5" y1="39" x2="60.5" y2="213.1"/>
				<line class="st4" x1="42.9" y1="-3.7" x2="42.9" y2="170.3"/>
				<line class="st4" x1="54.6" y1="25.3" x2="54.6" y2="199.4"/>
				<line class="st4" x1="82.5" y1="22.8" x2="82.5" y2="196.8"/>
				<line class="st4" x1="94.1" y1="22.8" x2="94.1" y2="196.8"/>
				<line class="st10" x1="17.8" y1="17.7" x2="17.8" y2="197.6"/>
				<line class="st10" x1="19.8" y1="17.7" x2="19.8" y2="197.6"/>
				<line class="st10" x1="21.8" y1="17.7" x2="21.8" y2="197.6"/>
				<line class="st10" x1="23.8" y1="17.7" x2="23.8" y2="197.6"/>
				<line class="st10" x1="25.8" y1="17.7" x2="25.8" y2="197.6"/>
				<line class="st10" x1="27.8" y1="17.7" x2="27.8" y2="197.6"/>
				<line class="st10" x1="29.8" y1="17.7" x2="29.8" y2="197.6"/>
				<line class="st10" x1="31.8" y1="17.7" x2="31.8" y2="197.6"/>
				<line class="st10" x1="33.8" y1="17.7" x2="33.8" y2="197.6"/>
				<line class="st10" x1="35.8" y1="17.7" x2="35.8" y2="197.6"/>
				<line class="st10" x1="37.8" y1="17.7" x2="37.8" y2="197.6"/>
				<line class="st10" x1="39.8" y1="17.7" x2="39.8" y2="197.6"/>
				<line class="st10" x1="41.8" y1="17.7" x2="41.8" y2="197.6"/>
				<line class="st10" x1="43.8" y1="17.7" x2="43.8" y2="197.6"/>
				<line class="st10" x1="45.8" y1="17.7" x2="45.8" y2="197.6"/>
				<line class="st10" x1="47.8" y1="17.7" x2="47.8" y2="197.6"/>
				<line class="st10" x1="49.8" y1="17.7" x2="49.8" y2="197.6"/>
				<line class="st10" x1="51.8" y1="17.7" x2="51.8" y2="197.6"/>
				<line class="st10" x1="53.8" y1="17.7" x2="53.8" y2="197.6"/>
				<line class="st10" x1="55.8" y1="17.7" x2="55.8" y2="197.6"/>
				<line class="st10" x1="57.8" y1="17.7" x2="57.8" y2="197.6"/>
				<line class="st10" x1="59.8" y1="17.7" x2="59.8" y2="197.6"/>
				<line class="st10" x1="61.8" y1="17.7" x2="61.8" y2="197.6"/>
				<line class="st10" x1="63.8" y1="17.7" x2="63.8" y2="197.6"/>
				<line class="st10" x1="65.8" y1="17.7" x2="65.8" y2="197.6"/>
				<line class="st10" x1="67.8" y1="17.7" x2="67.8" y2="197.6"/>
				<line class="st10" x1="69.8" y1="17.7" x2="69.8" y2="197.6"/>
				<line class="st10" x1="71.8" y1="17.7" x2="71.8" y2="197.6"/>
				<line class="st10" x1="73.8" y1="17.7" x2="73.8" y2="197.6"/>
				<line class="st10" x1="75.8" y1="17.7" x2="75.8" y2="197.6"/>
				<line class="st10" x1="77.8" y1="17.7" x2="77.8" y2="197.6"/>
				<line class="st10" x1="79.8" y1="17.7" x2="79.8" y2="197.6"/>
				<line class="st10" x1="81.8" y1="17.7" x2="81.8" y2="197.6"/>
				<line class="st10" x1="83.8" y1="17.7" x2="83.8" y2="197.6"/>
				<line class="st10" x1="85.8" y1="17.7" x2="85.8" y2="197.6"/>
				<line class="st10" x1="87.8" y1="17.7" x2="87.8" y2="197.6"/>
				<line class="st10" x1="89.8" y1="17.7" x2="89.8" y2="197.6"/>
				<line class="st10" x1="91.8" y1="17.7" x2="91.8" y2="197.6"/>
				<line class="st10" x1="93.8" y1="17.7" x2="93.8" y2="197.6"/>
				<line class="st10" x1="95.8" y1="17.7" x2="95.8" y2="197.6"/>
				<line class="st10" x1="97.8" y1="17.7" x2="97.8" y2="197.6"/>
				<line class="st10" x1="99.8" y1="17.7" x2="99.8" y2="197.6"/>
				<line class="st10" x1="101.8" y1="17.7" x2="101.8" y2="197.6"/>
				<line class="st10" x1="103.8" y1="17.7" x2="103.8" y2="197.6"/>
				<line class="st10" x1="105.8" y1="17.7" x2="105.8" y2="197.6"/>
				<ellipse class="st5" cx="37.8" cy="66.9" rx="2" ry="9.4"/>
				<ellipse class="st5" cx="37.8" cy="69.5" rx="6" ry="16"/>
				<ellipse class="st5" cx="40.6" cy="71.3" rx="11.1" ry="22.5"/>
				<ellipse class="st10" cx="102.8" cy="93.1" rx="3" ry="10.4"/>
				<ellipse class="st10" cx="101.6" cy="95.1" rx="6.9" ry="21.7"/>
				<ellipse class="st10" cx="101.1" cy="95.3" rx="11.3" ry="34.2"/>
				<ellipse class="st10" cx="33.8" cy="193.4" rx="10" ry="6"/>
				<ellipse class="st10" cx="35.3" cy="192" rx="14.5" ry="10.3"/>
				<ellipse class="st10" cx="34.4" cy="194.4" rx="19.4" ry="15.3"/>
			</g>
		</g>
	</g>
	<g>
		<g>
			<defs>
				<path id="SVGID_3_" d="M203.3,26.1h-92.8v167.3h92.8c4,0,7.2-5.2,7.2-11.7v-144C210.5,31.4,207.2,26.1,203.3,26.1z"/>
			</defs>
			<clipPath id="SVGID_4_">
				<use xlink:href="#SVGID_3_"  style="overflow:visible;"/>
			</clipPath>
			<g class="st8">
				<line class="st4" x1="118.1" y1="20.1" x2="118.1" y2="194.2"/>
				<line class="st4" x1="114.8" y1="20.1" x2="114.8" y2="194.2"/>
				<line class="st4" x1="141.7" y1="7.8" x2="141.7" y2="181.9"/>
				<line class="st5" x1="153.5" y1="36.8" x2="153.5" y2="210.9"/>
				<line class="st4" x1="175.5" y1="20.6" x2="175.5" y2="194.7"/>
				<line class="st4" x1="187.1" y1="20.6" x2="187.1" y2="194.7"/>
				<line class="st4" x1="136.4" y1="17.9" x2="136.4" y2="192"/>
				<line class="st4" x1="133.1" y1="17.9" x2="133.1" y2="192"/>
				<line class="st4" x1="160.1" y1="5.6" x2="160.1" y2="179.7"/>
				<line class="st4" x1="171.8" y1="34.6" x2="171.8" y2="208.7"/>
				<line class="st4" x1="193.8" y1="18.4" x2="193.8" y2="192.5"/>
				<line class="st4" x1="205.4" y1="18.4" x2="205.4" y2="192.5"/>
				<line class="st10" x1="108.8" y1="17.7" x2="108.8" y2="197.6"/>
				<line class="st10" x1="110.8" y1="17.7" x2="110.8" y2="197.6"/>
				<line class="st10" x1="112.8" y1="17.7" x2="112.8" y2="197.6"/>
				<line class="st10" x1="114.8" y1="17.7" x2="114.8" y2="197.6"/>
				<line class="st10" x1="116.8" y1="17.7" x2="116.8" y2="197.6"/>
				<line class="st10" x1="118.8" y1="17.7" x2="118.8" y2="197.6"/>
				<line class="st10" x1="120.8" y1="17.7" x2="120.8" y2="197.6"/>
				<line class="st10" x1="122.8" y1="17.7" x2="122.8" y2="197.6"/>
				<line class="st10" x1="124.8" y1="17.7" x2="124.8" y2="197.6"/>
				<line class="st10" x1="126.8" y1="17.7" x2="126.8" y2="197.6"/>
				<line class="st10" x1="128.8" y1="17.7" x2="128.8" y2="197.6"/>
				<line class="st10" x1="130.8" y1="17.7" x2="130.8" y2="197.6"/>
				<line class="st10" x1="132.8" y1="17.7" x2="132.8" y2="197.6"/>
				<line class="st10" x1="134.8" y1="17.7" x2="134.8" y2="197.6"/>
				<line class="st10" x1="136.8" y1="17.7" x2="136.8" y2="197.6"/>
				<line class="st10" x1="138.8" y1="17.7" x2="138.8" y2="197.6"/>
				<line class="st10" x1="140.8" y1="17.7" x2="140.8" y2="197.6"/>
				<line class="st10" x1="142.8" y1="17.7" x2="142.8" y2="197.6"/>
				<line class="st10" x1="144.8" y1="17.7" x2="144.8" y2="197.6"/>
				<line class="st10" x1="146.8" y1="17.7" x2="146.8" y2="197.6"/>
				<line class="st10" x1="148.8" y1="17.7" x2="148.8" y2="197.6"/>
				<line class="st10" x1="150.8" y1="17.7" x2="150.8" y2="197.6"/>
				<line class="st10" x1="152.8" y1="17.7" x2="152.8" y2="197.6"/>
				<line class="st10" x1="154.8" y1="17.7" x2="154.8" y2="197.6"/>
				<line class="st10" x1="156.8" y1="17.7" x2="156.8" y2="197.6"/>
				<line class="st10" x1="158.8" y1="17.7" x2="158.8" y2="197.6"/>
				<line class="st10" x1="160.8" y1="17.7" x2="160.8" y2="197.6"/>
				<line class="st10" x1="162.8" y1="17.7" x2="162.8" y2="197.6"/>
				<line class="st10" x1="164.8" y1="17.7" x2="164.8" y2="197.6"/>
				<line class="st10" x1="166.8" y1="17.7" x2="166.8" y2="197.6"/>
				<line class="st10" x1="168.8" y1="17.7" x2="168.8" y2="197.6"/>
				<line class="st10" x1="170.8" y1="17.7" x2="170.8" y2="197.6"/>
				<line class="st10" x1="172.8" y1="17.7" x2="172.8" y2="197.6"/>
				<line class="st10" x1="174.8" y1="17.7" x2="174.8" y2="197.6"/>
				<line class="st10" x1="176.8" y1="17.7" x2="176.8" y2="197.6"/>
				<line class="st10" x1="178.8" y1="17.7" x2="178.8" y2="197.6"/>
				<line class="st10" x1="180.8" y1="17.7" x2="180.8" y2="197.6"/>
				<line class="st10" x1="182.8" y1="17.7" x2="182.8" y2="197.6"/>
				<line class="st10" x1="184.8" y1="17.7" x2="184.8" y2="197.6"/>
				<line class="st10" x1="186.8" y1="17.7" x2="186.8" y2="197.6"/>
				<line class="st10" x1="188.8" y1="17.7" x2="188.8" y2="197.6"/>
				<line class="st10" x1="190.8" y1="17.7" x2="190.8" y2="197.6"/>
				<line class="st10" x1="192.8" y1="17.7" x2="192.8" y2="197.6"/>
				<line class="st10" x1="194.8" y1="17.7" x2="194.8" y2="197.6"/>
				<line class="st10" x1="196.8" y1="17.7" x2="196.8" y2="197.6"/>
				<line class="st10" x1="198.8" y1="17.7" x2="198.8" y2="197.6"/>
				<line class="st10" x1="200.8" y1="17.7" x2="200.8" y2="197.6"/>
				<line class="st10" x1="202.8" y1="17.7" x2="202.8" y2="197.6"/>
				<line class="st10" x1="204.8" y1="17.7" x2="204.8" y2="197.6"/>
				<line class="st10" x1="206.8" y1="17.7" x2="206.8" y2="197.6"/>
				<line class="st10" x1="208.8" y1="17.7" x2="208.8" y2="197.6"/>
				<line class="st10" x1="210.8" y1="17.7" x2="210.8" y2="197.6"/>
				<ellipse class="st5" cx="186.6" cy="132.6" rx="2.1" ry="10.9"/>
				<ellipse class="st5" cx="189.8" cy="133.5" rx="9" ry="19.3"/>
				<ellipse class="st5" cx="197.8" cy="152.8" rx="0" ry="1"/>
				<ellipse class="st5" cx="193.8" cy="134.2" rx="17" ry="27"/>
				<ellipse class="st5" cx="111.8" cy="113.4" rx="3" ry="5.7"/>
				<ellipse class="st5" cx="112.8" cy="114.6" rx="6" ry="11.4"/>
				<ellipse class="st5" cx="115.8" cy="116" rx="9" ry="21.2"/>
				<ellipse class="st10" cx="151.1" cy="28.1" rx="2.3" ry="8.7"/>
				<ellipse class="st10" cx="150.6" cy="32.4" rx="5.9" ry="14.7"/>
				<ellipse class="st10" cx="150.8" cy="41.1" rx="10" ry="27.9"/>
				<ellipse class="st10" cx="141.8" cy="198.3" rx="3" ry="7.5"/>
				<ellipse class="st10" cx="142.6" cy="200.7" rx="6.2" ry="20.5"/>
				<ellipse class="st10" cx="144.6" cy="197.3" rx="11.9" ry="30.1"/>
			</g>
		</g>
	</g>
</g>
<g>
	<path class="st6" d="M19.6,22.4c-4.2,0-7.6,5.4-7.6,12v148c0,6.6,3.4,12,7.6,12h84.8h1.5l-1.5-172H19.6z"/>
	<g>
		<path class="st1" d="M22.6,23.4c-4.2,0-7.6,5.4-7.6,12v148c0,6.6,3.4,12,7.6,12h84.8v-172H22.6z"/>
		<path d="M22.6,23.4c-1.4,0-2.7,0.6-3.7,1.5s-1.8,2.1-2.4,3.3c-1.2,2.5-1.6,5.3-1.5,8v16.5l0.2,33l0.1,33c0,11,0,22-0.1,33
			c0,11-0.1,22,0,33c0.2,2.7,1,5.4,2.6,7.6c0.8,1.1,1.8,2,3.1,2.5c0.6,0.2,1.3,0.3,1.9,0.3h2.1h16.5c22,0.1,44-0.1,66-0.1l-0.3,0.3
			l-0.1-43v-43v-43V44.8l0.1-21.5l0.4,0.4L22.6,23.4z M22.6,23.3l84.8-0.4h0.4v0.4l0.1,21.5v21.5v43v43l-0.1,43v0.3h-0.3
			c-22,0-44-0.2-66-0.1H25h-2.1c-0.7,0-1.4-0.1-2.1-0.3c-1.4-0.5-2.5-1.5-3.3-2.6c-1.7-2.3-2.5-5.1-2.7-7.8
			c-0.1-5.5-0.1-11-0.1-16.5v-16.5c0-11-0.1-22-0.1-33l0.1-33l0.2-33V36.3c-0.1-2.7,0.3-5.6,1.5-8.1c0.6-1.2,1.4-2.4,2.4-3.3
			C19.9,23.9,21.2,23.3,22.6,23.3z"/>
	</g>
	<g>
		<path class="st12" d="M24.8,26.1c-4,0-7.2,5.2-7.2,11.7v144c0,6.4,3.2,11.7,7.2,11.7h80.1V26.1H24.8z"/>
		<path d="M24.8,26.2c-1.3,0-2.6,0.6-3.5,1.5c-1,0.9-1.7,2-2.2,3.2c-1.1,2.4-1.4,5.1-1.4,7.7v15.9l0.2,31.8l0.1,31.8
			c0,10.6,0,21.2-0.1,31.8l-0.1,31.8c0,2.6,0.5,5.2,1.6,7.6c0.6,1.1,1.4,2.2,2.4,3s2.2,1.2,3.6,1.1h15.9c21.2,0.1,42.4-0.1,63.5-0.1
			l-0.3,0.3l-0.1-41.8V110V68.2V47.3l0.1-20.9l0.4,0.4L24.8,26.2z M24.8,26.1l80.1-0.3h0.4v0.4l0.1,20.9V68v41.8v41.8l-0.1,41.8v0.3
			H105c-21.2,0-42.4-0.2-63.5-0.1H25.6c-0.6,0-1.4,0-2-0.2c-0.7-0.2-1.3-0.5-1.8-0.9c-1.1-0.8-1.9-2-2.5-3.1
			c-1.2-2.4-1.7-5.1-1.7-7.8l-0.1-31.8c0-10.6-0.1-21.2-0.1-31.8l0.1-31.8l0.2-31.8V38.5c-0.1-2.6,0.3-5.3,1.4-7.8
			c0.6-1.2,1.3-2.4,2.3-3.3C22.2,26.7,23.4,26.1,24.8,26.1z"/>
	</g>
	<g>
		<polygon class="st1" points="107.5,23.4 107.5,26.5 194.6,26.5 194.6,192.2 107.5,192.2 107.5,195.3 199.3,195.3 199.3,23.4 		"/>
		<path d="M107.5,23.4v3.1l-0.1-0.1l43.6-0.2l43.6-0.1h0.3v0.3l0.1,41.4v41.4l-0.2,82.8v0.2h-0.2c-14.5,0-29.1-0.1-43.6,0l-43.6,0.1
			l0.3-0.3v3.2l-0.3-0.3l91.9-0.2l-0.5,0.5v-86v-43l0.1-43l0.4,0.4l-45.9-0.1L107.5,23.4z M107.4,23.3l46-0.2l45.9-0.1h0.4v0.4
			l0.1,43v43v86v0.5h-0.5l-91.9-0.2h-0.3v-0.3v-3.2v-0.3h0.3L151,192c14.5,0,29.1,0,43.6,0l-0.2,0.2l-0.2-82.8V68l0.1-41.4l0.3,0.3
			L151,26.8l-43.6-0.2h-0.1v-0.1L107.4,23.3z"/>
	</g>
	<g>
		<g>
			<defs>
				<rect id="SVGID_5_" x="107.8" y="26.5" width="88.5" height="165.6"/>
			</defs>
			<clipPath id="SVGID_6_">
				<use xlink:href="#SVGID_5_"  style="overflow:visible;"/>
			</clipPath>
			<rect x="106.1" y="26.5" class="st0" width="88.5" height="165.6"/>
		</g>
		<g>
			<defs>
				<rect id="SVGID_7_" x="107.8" y="26.5" width="88.5" height="165.6"/>
			</defs>
			<clipPath id="SVGID_8_">
				<use xlink:href="#SVGID_7_"  style="overflow:visible;"/>
			</clipPath>
			<g transform="matrix(1 0 0 1 4.359981e-007 -1.969472e-007)" class="st9">
				
					<image style="overflow:visible;enable-background:new    ;" width="1024" height="600" xlink:href="../../Nicole/SEM4/Experiential design/interactive book/sky.jpg"  transform="matrix(0.3092 0 0 0.3092 -50.8809 -10.7739)">
				</image>
			</g>
		</g>
		<g>
			<defs>
				<rect id="SVGID_9_" x="107.8" y="26.5" width="88.5" height="165.6"/>
			</defs>
			<clipPath id="SVGID_10_">
				<use xlink:href="#SVGID_9_"  style="overflow:visible;"/>
			</clipPath>
			<g class="st16">
				<ellipse class="st15" cx="156.1" cy="154.5" rx="108.3" ry="49.5"/>
				<path class="st13" d="M264.4,154.5c0,5.4-2,10.6-5,15c-3.1,4.4-7,8.1-11.3,11.3c-8.7,6.3-18.6,10.7-28.7,14.1
					c-20.4,6.7-41.9,9.4-63.2,9.4c-10.7,0-21.4-0.7-32-2.3c-10.6-1.5-21.1-3.8-31.2-7.2c-5.1-1.7-10.1-3.6-14.9-5.9
					c-4.8-2.3-9.5-4.9-13.8-8.1c-4.3-3.2-8.3-6.8-11.4-11.2c-3.1-4.4-5.1-9.6-5.1-15.1c0-5.4,2-10.7,5-15.1
					c3.1-4.4,7.1-8.1,11.4-11.3c8.7-6.3,18.6-10.7,28.8-14.1c10.2-3.3,20.7-5.6,31.3-7.1c10.6-1.5,21.3-2.2,32-2.2
					c21.4,0,42.9,2.7,63.3,9.4c10.1,3.4,20,7.8,28.7,14.1c4.3,3.2,8.3,6.9,11.3,11.3C262.4,143.8,264.4,149.1,264.4,154.5z
					 M264.3,154.5c0-5.4-2-10.6-5.1-14.9c-3.1-4.4-7.1-8-11.4-11.2c-8.7-6.2-18.6-10.6-28.7-13.9c-10.2-3.3-20.6-5.5-31.2-7
					c-10.6-1.4-21.2-2.2-31.9-2.2s-21.3,0.7-31.9,2.2c-10.6,1.5-21,3.8-31.2,7.1c-5.1,1.7-10,3.6-14.9,5.9c-4.8,2.3-9.5,4.9-13.8,8
					c-4.3,3.1-8.3,6.8-11.3,11.1c-3,4.3-5,9.5-5,14.8c0,5.3,1.9,10.5,5,14.9c3,4.4,7,8,11.3,11.2c8.6,6.3,18.5,10.7,28.7,14
					c10.2,3.3,20.6,5.6,31.2,7c10.6,1.5,21.3,2.1,31.9,2.1c10.7,0,21.3-0.8,31.9-2.2c10.6-1.5,21-3.7,31.2-7
					c10.1-3.3,20-7.6,28.7-13.9c4.3-3.1,8.3-6.8,11.4-11.2C262.3,165,264.3,159.8,264.3,154.5z"/>
			</g>
		</g>
		<g>
			<defs>
				<rect id="SVGID_11_" x="107.8" y="26.5" width="88.5" height="165.6"/>
			</defs>
			<clipPath id="SVGID_12_">
				<use xlink:href="#SVGID_11_"  style="overflow:visible;"/>
			</clipPath>
			<g class="st17">
				<path class="st27" d="M189,148c-4-11-19-15-24-25c-3.2-7.2,3.8-13.1,10.3-17.2c-1.9-0.2-3.9-0.3-5.9-0.4
					c-6.3,3-11.8,7.4-16.4,12.6c-3,4-2,9,1,12c8,6,20,15,11,22c-19.5,16.6-53.4,17-60.5,45.9c13.9,3.5,29.7,5.5,46.5,5.9
					C175,195.5,197.5,174.3,189,148z"/>
				<path class="st14" d="M189,148c-0.8-2.2-2.1-4.2-3.7-6c-1.6-1.8-3.4-3.3-5.3-4.8c-3.7-2.9-7.8-5.5-11.2-8.8
					c-1.7-1.7-3.2-3.6-4.2-5.8c-0.4-1.1-0.7-2.4-0.6-3.6s0.4-2.4,0.9-3.6c1-2.2,2.7-4.1,4.5-5.7c1.8-1.6,3.8-3,5.8-4.3l0.2,0.8
					c-2-0.2-3.9-0.3-5.9-0.4h0.2c-3.1,1.5-6.1,3.3-8.8,5.4c-2.7,2.1-5.2,4.5-7.5,7.1l0,0c-1.3,1.7-1.9,3.8-1.7,5.9
					c0.2,2.1,1.1,4.1,2.6,5.6l0,0c3.6,2.7,7.2,5.4,10.2,8.8c1.5,1.7,2.9,3.5,3.6,5.7c0.3,1.1,0.5,2.3,0.2,3.4
					c-0.2,1.1-0.8,2.2-1.6,3c-6.6,6.2-14.9,10.1-23,13.8c-8.2,3.7-16.6,7-23.8,12.2c-3.6,2.6-6.9,5.7-9.5,9.3s-4.4,7.7-5.4,12
					l-0.3-0.6c7.6,1.9,15.3,3.2,23,4.2s15.5,1.5,23.3,1.7h-0.2c5.9-2,11.5-4.7,16.8-8.1c5.2-3.4,10-7.4,14-12.2s7-10.4,8.4-16.5
					C191.3,160.4,190.9,154,189,148z M189,148c2,5.9,2.4,12.4,1.1,18.6c-1.3,6.2-4.3,11.9-8.2,16.8c-3.9,4.9-8.7,9.1-14,12.6
					c-5.2,3.5-11,6.3-16.9,8.3h-0.1h-0.1c-15.7-0.3-31.3-2.1-46.6-5.9l-0.5-0.1l0.1-0.5c1.1-4.4,3-8.6,5.6-12.3
					c2.7-3.7,6-6.8,9.7-9.4c7.4-5.2,15.9-8.5,24.1-12.1c4.1-1.8,8.2-3.7,12.1-5.8c3.9-2.2,7.7-4.7,10.9-7.8c0.7-0.8,1.3-1.8,1.5-2.9
					s0.1-2.2-0.2-3.2c-0.7-2.1-2.1-3.9-3.6-5.5c-3.1-3.2-6.7-5.9-10.3-8.6l0,0l0,0c-1.6-1.6-2.7-3.7-2.9-6c-0.3-2.3,0.4-4.6,1.8-6.5
					l0,0l0,0c2.3-2.6,4.8-5.1,7.6-7.2c2.8-2.2,5.8-4,9-5.5h0.1h0.1c2,0.1,3.9,0.3,5.9,0.4l1.2,0.1l-1,0.7c-2,1.3-3.9,2.6-5.7,4.2
					c-1.8,1.6-3.4,3.3-4.4,5.4c-1,2.1-1.2,4.5-0.4,6.7c0.9,2.1,2.4,4,4,5.7c3.3,3.4,7.3,6,11.1,9c1.9,1.5,3.7,3,5.3,4.8
					C186.9,143.7,188.2,145.7,189,148z"/>
			</g>
		</g>
		<g>
			<defs>
				<rect id="SVGID_13_" x="107.8" y="26.5" width="88.5" height="165.6"/>
			</defs>
			<clipPath id="SVGID_14_">
				<use xlink:href="#SVGID_13_"  style="overflow:visible;"/>
			</clipPath>
			<path class="st2" d="M187,148c-3.6-11-17.1-15-21.6-25c-2.9-7.2,3.4-13.1,9.3-17.2c-1.7-0.2-3.5-0.3-5.3-0.4
				c-5.7,3-10.6,7.4-14.8,12.6c-2.7,4-1.8,9,0.9,12c7.2,6,18,15,9.9,22c-17.6,16.6-48,17-54.5,45.9c12.5,3.5,26.7,5.5,41.8,5.9
				C174.5,195.5,194.6,174.3,187,148z"/>
		</g>
		<g>
			<defs>
				<rect id="SVGID_15_" x="107.8" y="26.5" width="88.5" height="165.6"/>
			</defs>
			<clipPath id="SVGID_16_">
				<use xlink:href="#SVGID_15_"  style="overflow:visible;"/>
			</clipPath>
			<g class="st18">
				<path class="st15" d="M132.2,107.5c0,0,4.6-8.3-2.2-0.6c0,0,1.4-13.7-1.6-1.1c0,0-3.1-15.5-2.1,0.7c0,0-6.1-9.8-3.2,0.4
					c0,0-7.1-5.4-3.2,0l1.4,0.9c0,0-1.6,0.6-3.2,1.7"/>
				<path class="st13" d="M132.2,107.4c0.3-0.7,0.6-1.4,0.9-2.1c0.1-0.4,0.3-0.7,0.4-1.1c0-0.2,0.1-0.4,0.1-0.5c0-0.1,0,0,0,0
					s-0.1,0-0.2,0.1c-0.6,0.4-1.1,1-1.6,1.5s-1,1.1-1.5,1.7l-0.6,0.7l0.1-0.9c0.1-1,0.2-2,0.2-3c0.1-1,0.1-2,0.1-3
					c0-0.1,0-0.1,0-0.1s-0.1-0.1,0,0h0.1h0.1l0,0c0,0,0,0.1-0.1,0.1c-0.1,0.2-0.2,0.4-0.3,0.6c-0.2,0.5-0.3,0.9-0.5,1.4
					c-0.3,1-0.6,1.9-0.8,2.9l-0.2,0.6l-0.1-0.6c-0.2-1.2-0.5-2.4-0.8-3.5c-0.2-0.6-0.3-1.2-0.5-1.7c-0.1-0.3-0.2-0.6-0.3-0.8
					c-0.1-0.1-0.1-0.3-0.2-0.4l-0.1-0.1c0.1,0,0.1,0,0,0c-0.1,0.5-0.1,1.1-0.1,1.7s0,1.2,0.1,1.8c0.1,1.2,0.2,2.4,0.3,3.6l0.1,1.3
					l-0.7-1.1c-0.5-0.7-1-1.4-1.5-2.1c-0.5-0.7-1.1-1.4-1.7-1.8c-0.1,0-0.1-0.1-0.2-0.1h0.1c0,0-0.1,0.2-0.1,0.4
					c0,0.4,0.1,0.8,0.1,1.2c0.2,0.8,0.4,1.7,0.6,2.5l0.3,1.1l-0.9-0.7c-1-0.7-2-1.5-3.1-2.1c-0.3-0.1-0.6-0.3-0.8-0.3l0,0
					c0-0.1,0-0.1,0,0s0,0.2,0.1,0.4c0.2,0.5,0.6,1.1,0.9,1.6l-0.1-0.1l1.4,1l0.3,0.2l-0.3,0.1c-1.1,0.4-2.2,0.9-3.3,1.5v-0.1
					c1-0.7,2.1-1.3,3.2-1.8v0.3l-1.4-0.9l0,0l0,0c-0.4-0.5-0.8-1-1.1-1.6c-0.1-0.2-0.1-0.3-0.2-0.6c0-0.1,0-0.3,0.1-0.5
					c0.2-0.2,0.3-0.2,0.4-0.2c0.4,0,0.7,0.2,1,0.3c1.2,0.6,2.2,1.3,3.3,2.1l-0.6,0.4c-0.2-0.9-0.5-1.7-0.7-2.6
					c-0.1-0.4-0.2-0.9-0.2-1.4c0-0.3,0-0.5,0.2-0.9c0.1-0.2,0.5-0.3,0.7-0.3c0.2,0,0.3,0.1,0.5,0.2c0.8,0.6,1.3,1.3,1.9,2.1
					c0.5,0.7,1,1.5,1.5,2.2l-0.6,0.2c-0.1-1.2-0.1-2.4-0.1-3.6c0-0.6,0-1.2,0-1.8c0-0.6,0-1.2,0.2-1.9c0,0,0-0.1,0.1-0.1
					c0-0.1,0.2-0.1,0.3-0.1c0.2,0.1,0.2,0.2,0.3,0.2c0.1,0.1,0.2,0.3,0.2,0.4c0.1,0.3,0.2,0.6,0.3,0.9c0.2,0.6,0.3,1.2,0.5,1.8
					l0.8,3.5h-0.3c0.2-1,0.4-2,0.7-3c0.1-0.5,0.3-1,0.4-1.5c0.1-0.2,0.2-0.5,0.3-0.7c0-0.1,0.1-0.1,0.1-0.2l0.1-0.1
					c0,0,0.1,0,0.2-0.1c0.1,0,0.2,0,0.2,0.1c0.2,0.2,0.2,0.2,0.2,0.3c0,0.1,0,0.2,0.1,0.2c0.1,1.1,0.1,2.1,0,3.1s-0.2,2-0.3,3
					l-0.5-0.2c0.5-0.6,1-1.1,1.6-1.7c0.6-0.5,1.1-1.1,1.8-1.5c0.1,0,0.2-0.1,0.4-0.1c0.1,0,0.2,0,0.3,0.1c0.1,0.1,0.1,0.2,0.1,0.2
					c0,0.3,0,0.4-0.1,0.6c-0.1,0.4-0.3,0.7-0.5,1.1C133,106.1,132.7,106.8,132.2,107.4L132.2,107.4z"/>
			</g>
		</g>
		<g>
			<defs>
				<rect id="SVGID_17_" x="107.8" y="26.5" width="88.5" height="165.6"/>
			</defs>
			<clipPath id="SVGID_18_">
				<use xlink:href="#SVGID_17_"  style="overflow:visible;"/>
			</clipPath>
			<g class="st19">
				<path class="st15" d="M111.6,110.8c0,0-5.4-5.9,1.7-0.9c0,0-3.8-10.9,1.1-1.2c0,0-0.5-13.3,1.8,0.1c0,0,3.1-9.2,2.7-0.3
					c0,0,4.7-5.8,2.6-0.7l-1,1c0,0,1.5,0.2,3,0.7"/>
				<path class="st13" d="M111.6,110.8c-0.5-0.4-0.9-0.9-1.3-1.4c-0.2-0.2-0.4-0.5-0.6-0.8c-0.1-0.2-0.2-0.3-0.2-0.5
					c0-0.1,0-0.1,0-0.2s0.2-0.2,0.2-0.2c0.2,0,0.2,0,0.3,0c0.7,0.2,1.2,0.5,1.8,0.9c0.6,0.3,1.1,0.7,1.6,1.1l-0.5,0.4
					c-0.3-0.8-0.6-1.6-0.8-2.4c-0.2-0.8-0.5-1.6-0.6-2.6c0-0.1,0-0.1,0-0.2s0-0.2,0.1-0.3c0,0,0.1-0.1,0.2-0.1c0.1,0,0.1,0,0.2,0
					s0.1,0.1,0.2,0.1c0.1,0.1,0.1,0.1,0.2,0.2c0.2,0.2,0.3,0.4,0.4,0.6c0.2,0.4,0.4,0.8,0.6,1.1l1.1,2.3l-0.3,0.1v-3.1
					c0-0.5,0-1,0-1.5c0-0.3,0-0.5,0.1-0.8c0-0.1,0-0.3,0.1-0.4c0-0.1,0-0.2,0.2-0.3c0.1,0,0.2,0,0.3,0l0.1,0.1
					c0.3,0.5,0.4,1,0.6,1.5c0.1,0.5,0.3,1,0.4,1.5c0.2,1,0.4,2,0.6,3h-0.7c0.2-0.7,0.5-1.4,0.8-2.1c0.3-0.7,0.5-1.4,1.1-2.1
					c0.1-0.1,0.2-0.2,0.4-0.3s0.5-0.1,0.7,0.1c0.3,0.3,0.3,0.5,0.4,0.7c0.1,0.4,0.1,0.8,0.1,1.2c0,0.8,0,1.5,0,2.3l-0.7-0.3
					c0.7-0.8,1.4-1.6,2.3-2.4c0.2-0.2,0.4-0.4,0.8-0.5c0.1,0,0.2-0.1,0.4,0s0.2,0.3,0.2,0.4c0,0.2,0,0.4,0,0.5
					c-0.1,0.6-0.4,1.1-0.6,1.6l0,0l0,0l-1,1l-0.1-0.3c1,0.2,2,0.5,3,0.9v0.1c-1-0.3-2-0.5-3-0.6h-0.4l0.2-0.3l0.9-1.1v0.1
					c0.2-0.5,0.4-1,0.4-1.5c0-0.1,0-0.2,0-0.3l0,0c0.1,0,0.1,0,0,0c-0.1,0-0.4,0.2-0.5,0.4c-0.8,0.7-1.4,1.5-2.1,2.3l-0.7,0.8v-1.1
					c0-0.7,0-1.5,0-2.2c0-0.4-0.1-0.7-0.1-1c0-0.1-0.1-0.3-0.1-0.3s0.2,0.1,0.2,0c0,0,0,0-0.1,0.1c-0.4,0.4-0.7,1.2-1,1.8
					c-0.3,0.7-0.6,1.4-0.8,2l-0.5,1.3l-0.2-1.3c-0.2-1-0.3-2-0.5-3c-0.1-0.5-0.2-1-0.3-1.5c-0.1-0.5-0.2-1-0.4-1.4c0-0.1,0,0,0.1,0
					c0,0,0,0,0,0.1s-0.1,0.2-0.1,0.3c0,0.2-0.1,0.5-0.1,0.7c0,0.5-0.1,1-0.1,1.5c0,1,0,2,0.1,3v0.6l-0.3-0.6
					c-0.4-0.8-0.8-1.5-1.3-2.2c-0.2-0.4-0.4-0.7-0.7-1.1c-0.1-0.2-0.2-0.3-0.4-0.5l-0.1-0.1l0,0h0.1c0,0,0.1,0,0.1-0.1
					c0.1-0.1,0-0.1,0,0v0.1c0.1,0.8,0.4,1.6,0.6,2.4l0.8,2.4l0.3,0.9l-0.7-0.5c-0.5-0.4-1-0.7-1.6-1.1c-0.5-0.3-1.1-0.7-1.6-0.9
					c-0.1,0-0.1,0-0.1,0s0.1-0.1,0,0c0,0.1,0.1,0.2,0.1,0.4c0.1,0.3,0.3,0.5,0.5,0.8C110.9,109.8,111.3,110.3,111.6,110.8
					L111.6,110.8z"/>
			</g>
		</g>
		<g>
			<defs>
				<rect id="SVGID_19_" x="107.8" y="26.5" width="88.5" height="165.6"/>
			</defs>
			<clipPath id="SVGID_20_">
				<use xlink:href="#SVGID_19_"  style="overflow:visible;"/>
			</clipPath>
			<g class="st20">
				<path class="st15" d="M133.1,107.4c0,0-5-5.5,1.6-0.9c0,0-3.6-10.2,1-1.1c0,0-0.5-12.4,1.7,0.1c0,0,2.8-8.6,2.5-0.3
					c0,0,4.4-5.4,2.5-0.6l-0.9,0.9c0,0,1.4,0.2,2.8,0.7"/>
				<path class="st13" d="M133.1,107.4c-0.4-0.4-0.9-0.9-1.2-1.3c-0.2-0.2-0.4-0.5-0.6-0.7c-0.1-0.1-0.2-0.3-0.2-0.5
					c0-0.1,0-0.1,0-0.2c0-0.1,0.2-0.2,0.2-0.2c0.1,0,0.2,0,0.3,0c0.7,0.2,1.2,0.5,1.7,0.8c0.5,0.3,1,0.6,1.5,1l-0.5,0.4
					c-0.3-0.8-0.5-1.5-0.8-2.3c-0.2-0.8-0.5-1.5-0.6-2.4c0-0.1,0-0.1,0-0.2c0-0.1,0-0.1,0.1-0.3c0,0,0.1-0.1,0.2-0.1
					c0.1,0,0.1,0,0.2,0c0.1,0,0.1,0.1,0.2,0.1c0.1,0.1,0.1,0.1,0.1,0.1c0.2,0.2,0.3,0.4,0.4,0.5c0.2,0.4,0.4,0.7,0.6,1.1l1.1,2.1
					l-0.3,0.1v-2.9c0-0.5,0-1,0-1.4c0-0.2,0-0.5,0.1-0.7c0-0.1,0-0.2,0.1-0.4c0-0.1,0-0.1,0.2-0.2c0.1,0,0.2,0,0.3,0l0.1,0.1
					c0.3,0.5,0.4,0.9,0.5,1.4c0.1,0.5,0.2,0.9,0.4,1.4c0.2,0.9,0.4,1.9,0.6,2.8h-0.7c0.2-0.7,0.5-1.3,0.7-2c0.3-0.7,0.5-1.3,1.1-1.9
					c0.1-0.1,0.2-0.2,0.3-0.2c0.2-0.1,0.5-0.1,0.7,0.1c0.3,0.3,0.3,0.5,0.3,0.7c0.1,0.4,0.1,0.7,0.1,1.1c0,0.7,0,1.4,0,2.1l-0.7-0.3
					c0.7-0.8,1.3-1.5,2.1-2.2c0.2-0.2,0.4-0.3,0.8-0.5c0.1,0,0.2-0.1,0.4,0c0.2,0.1,0.2,0.3,0.2,0.4c0,0.2,0,0.3,0,0.5
					c-0.1,0.5-0.3,1-0.5,1.5l0,0l0,0l-0.9,0.9l-0.1-0.3c1,0.2,1.9,0.5,2.8,0.8v0.1c-0.9-0.3-1.9-0.4-2.8-0.5h-0.4l0.2-0.3l0.9-1v0.1
					c0.2-0.5,0.3-0.9,0.4-1.4c0-0.1,0-0.2,0-0.3c0,0,0,0,0.1,0.1c0.1,0,0.1,0,0.1,0c-0.1,0-0.3,0.2-0.5,0.4c-0.7,0.6-1.3,1.4-2,2.2
					l-0.7,0.8v-1.1c0-0.7,0-1.4,0-2c0-0.3,0-0.7-0.1-1c0-0.1-0.1-0.3-0.1-0.3s0.2,0.1,0.2,0c0,0,0,0-0.1,0.1
					c-0.4,0.4-0.7,1.1-0.9,1.7c-0.3,0.6-0.5,1.3-0.7,1.9l-0.5,1.3l-0.2-1.3c-0.1-0.9-0.3-1.9-0.5-2.8c-0.1-0.5-0.2-0.9-0.3-1.4
					c-0.1-0.4-0.2-1-0.4-1.3c0,0,0,0,0.1,0l0,0c0,0.1-0.1,0.2-0.1,0.3c0,0.2-0.1,0.5-0.1,0.7c0,0.5-0.1,0.9-0.1,1.4
					c0,0.9,0,1.9,0.1,2.8v0.6l-0.3-0.6c-0.4-0.7-0.8-1.4-1.2-2.1c-0.2-0.3-0.4-0.7-0.6-1c-0.1-0.2-0.2-0.3-0.3-0.4l-0.1-0.1l0,0h0.1
					c0,0,0.1,0,0.1-0.1c0.1-0.1,0-0.1,0,0v0.1c0.1,0.7,0.4,1.5,0.6,2.2l0.7,2.3l0.3,0.9l-0.7-0.5c-0.5-0.3-1-0.7-1.5-1
					c-0.5-0.3-1-0.7-1.5-0.8c-0.1,0-0.1,0-0.1,0s0.1-0.1,0-0.1c0,0.1,0.1,0.2,0.1,0.3c0.1,0.2,0.3,0.5,0.5,0.7
					C132.4,106.4,132.8,106.9,133.1,107.4L133.1,107.4z"/>
			</g>
		</g>
		<g>
			<defs>
				<rect id="SVGID_21_" x="107.8" y="26.5" width="88.5" height="165.6"/>
			</defs>
			<clipPath id="SVGID_22_">
				<use xlink:href="#SVGID_21_"  style="overflow:visible;"/>
			</clipPath>
			<g class="st21">
				<path class="st15" d="M147,129.1c0,0-3.6-3.9,1.1-0.6c0,0-2.6-7.3,0.7-0.8c0,0-0.3-8.9,1.2,0.1c0,0,2-6.2,1.8-0.2
					c0,0,3.2-3.9,1.8-0.5l-0.6,0.7c0,0,1,0.1,2,0.5"/>
				<path class="st13" d="M147,129.1c-0.3-0.3-0.6-0.6-0.9-0.9c-0.1-0.2-0.3-0.3-0.4-0.5c-0.1-0.1-0.1-0.2-0.2-0.4
					c0-0.1,0-0.1,0-0.2c0-0.1,0.1-0.1,0.2-0.2c0.1,0,0.2,0,0.3,0c0.5,0.1,0.8,0.4,1.2,0.6c0.4,0.2,0.7,0.5,1.1,0.7l-0.5,0.4
					c-0.2-0.5-0.4-1.1-0.6-1.6c-0.2-0.6-0.3-1.1-0.4-1.7v-0.1c0-0.1,0-0.1,0.1-0.3c0,0,0.1-0.1,0.2-0.1c0.1,0,0.1,0,0.2,0
					c0.1,0,0.1,0.1,0.1,0.1c0.1,0,0.1,0.1,0.1,0.1c0.1,0.1,0.2,0.3,0.3,0.4c0.1,0.3,0.3,0.5,0.4,0.8l0.7,1.6l-0.3,0.1v-2.1
					c0-0.3,0-0.7,0-1c0-0.2,0-0.3,0-0.5c0-0.1,0-0.2,0.1-0.3c0,0,0-0.1,0.2-0.2c0.1,0,0.2,0,0.2,0l0.1,0.1c0.4,0.7,0.5,1.3,0.7,2
					c0.2,0.7,0.3,1.3,0.4,2h-0.7c0.2-0.5,0.3-1,0.5-1.4c0.2-0.5,0.4-0.9,0.8-1.4c0.1-0.1,0.1-0.1,0.3-0.2c0.1-0.1,0.5,0,0.6,0.1
					c0.2,0.2,0.2,0.4,0.3,0.5c0.1,0.3,0.1,0.5,0.1,0.8c0,0.5,0,1,0,1.5l-0.7-0.3c0.5-0.6,1-1.1,1.6-1.6c0.2-0.1,0.3-0.2,0.6-0.3
					c0.1,0,0.2-0.1,0.4,0c0.2,0.1,0.2,0.3,0.2,0.3c0,0.2,0,0.3,0,0.4c-0.1,0.4-0.3,0.7-0.4,1.1l0,0l0,0l-0.7,0.6l-0.1-0.3
					c0.7,0.1,1.4,0.4,2,0.6v0.1c-0.7-0.2-1.3-0.3-2-0.3h-0.4l0.2-0.3l0.6-0.7v0.1c0.1-0.3,0.2-0.7,0.3-1c0-0.1,0-0.2,0-0.2
					s0,0,0.1,0.1c0.1,0,0.1,0,0.1,0c-0.1,0-0.2,0.1-0.3,0.2c-0.5,0.5-0.9,1-1.4,1.6l-0.7,0.9v-1.1c0-0.5,0-1,0-1.4
					c0-0.2,0-0.5-0.1-0.7c0-0.1-0.1-0.2,0-0.1c0,0.1,0.2,0.1,0.2,0l0,0c-0.2,0.3-0.5,0.7-0.7,1.2c-0.2,0.4-0.4,0.9-0.5,1.4l-0.5,1.3
					l-0.2-1.3l-0.3-2c-0.1-0.6-0.2-1.4-0.4-1.9c0,0,0,0,0.1,0s0,0,0,0c0,0.1,0,0.1-0.1,0.2c0,0.2-0.1,0.3-0.1,0.5c0,0.3,0,0.7,0,1
					c0,0.7,0,1.4,0,2v0.6l-0.3-0.6c-0.3-0.5-0.6-1-0.9-1.5c-0.2-0.2-0.3-0.5-0.5-0.7c-0.1-0.1-0.2-0.2-0.2-0.3l0,0l0,0h0.1
					c0.1,0,0.1-0.1,0.1-0.1c0.1-0.1,0-0.1,0.1-0.1v0.1c0.1,0.5,0.3,1.1,0.4,1.6l0.5,1.6l0.3,0.9l-0.7-0.5c-0.3-0.3-0.7-0.5-1-0.7
					c-0.3-0.2-0.7-0.5-1-0.6h-0.1l0.1-0.1c0,0,0,0.1,0.1,0.2c0.1,0.2,0.2,0.4,0.3,0.5C146.5,128.4,146.8,128.7,147,129.1L147,129.1z
					"/>
			</g>
		</g>
		<g>
			<defs>
				<rect id="SVGID_23_" x="107.8" y="26.5" width="88.5" height="165.6"/>
			</defs>
			<clipPath id="SVGID_24_">
				<use xlink:href="#SVGID_23_"  style="overflow:visible;"/>
			</clipPath>
			<g class="st22">
				<path class="st15" d="M194,110.2c0,0,7.2-6.2-1.9-1.3c0,0,6-12.4-1.2-1.6c0,0,2.4-15.7-2.2-0.1c0,0-2.4-11.3-3.1-0.7
					c0,0-4.8-7.5-3-1.1l1,1.3c0,0-1.8,0-3.6,0.5"/>
				<path class="st13" d="M194,110.2c0.5-0.5,1.1-1.1,1.6-1.6c0.2-0.3,0.5-0.6,0.7-0.9c0.1-0.1,0.2-0.3,0.2-0.4c0-0.1,0,0,0,0
					s-0.1,0-0.2,0c-0.7,0.1-1.4,0.5-2,0.9c-0.7,0.3-1.3,0.7-2,1.1l-0.8,0.5l0.4-0.9c0.4-0.9,0.8-1.8,1.2-2.8
					c0.4-0.9,0.8-1.9,1.1-2.8c0-0.1,0-0.1,0-0.1s0-0.1,0,0l0.1,0.1h0.1l0,0c0,0-0.1,0-0.1,0.1c-0.2,0.1-0.3,0.3-0.5,0.5
					c-0.3,0.4-0.6,0.8-0.9,1.2c-0.6,0.8-1.2,1.6-1.8,2.5l-0.4,0.5l0.1-0.6c0.2-1.2,0.4-2.4,0.5-3.6c0.1-0.6,0.1-1.2,0.1-1.8
					c0-0.3,0-0.6,0-0.9c0-0.1,0-0.3-0.1-0.4c0-0.1-0.1-0.1,0-0.1c0.1,0,0.1,0,0,0c-0.3,0.4-0.5,1-0.7,1.6c-0.2,0.6-0.4,1.1-0.5,1.7
					c-0.4,1.2-0.7,2.3-1,3.5l-0.4,1.3l-0.3-1.3c-0.2-0.8-0.4-1.7-0.7-2.5s-0.5-1.7-1-2.3c0-0.1-0.1-0.1-0.1-0.1h0.1
					c0,0-0.1,0.2-0.2,0.4c-0.1,0.4-0.2,0.8-0.3,1.2c-0.1,0.8-0.2,1.7-0.3,2.6l-0.1,1.1l-0.6-0.9c-0.7-1-1.4-2.1-2.2-3
					c-0.2-0.2-0.4-0.5-0.6-0.5l0,0c0.1,0,0-0.1,0,0s0,0.2,0,0.4c0,0.6,0.2,1.2,0.3,1.8v-0.1l1,1.4l0.2,0.3h-0.4
					c-1.2,0-2.4,0.1-3.6,0.3v-0.1c1.2-0.3,2.4-0.5,3.6-0.6l-0.1,0.3l-1-1.3l0,0l0,0c-0.2-0.6-0.4-1.2-0.5-1.9c0-0.2,0-0.3,0-0.6
					c0-0.1,0.1-0.3,0.3-0.4s0.4,0,0.5,0c0.4,0.2,0.6,0.4,0.9,0.7c0.9,1,1.7,2,2.4,3.1l-0.7,0.2c0.1-0.9,0.1-1.8,0.3-2.7
					c0.1-0.4,0.2-0.9,0.3-1.4c0.1-0.2,0.1-0.5,0.5-0.7c0.2-0.2,0.6-0.2,0.7,0c0.2,0.1,0.3,0.2,0.4,0.3c0.6,0.9,0.8,1.7,1,2.6
					s0.5,1.7,0.6,2.6h-0.7c0.4-1.2,0.7-2.3,1.1-3.5c0.2-0.6,0.4-1.1,0.6-1.7c0.3-0.6,0.4-1.1,0.9-1.7l0.1-0.1c0.1,0,0.2-0.1,0.3,0
					c0.1,0.1,0.1,0.2,0.2,0.3c0,0.2,0,0.3,0,0.5c0,0.3,0,0.6,0,0.9c0,0.6-0.1,1.2-0.2,1.8l-0.4,3.6l-0.3-0.1
					c0.6-0.8,1.1-1.7,1.7-2.6c0.3-0.4,0.6-0.8,0.9-1.3c0.2-0.2,0.3-0.4,0.5-0.6c0.1,0,0.1-0.1,0.2-0.2c0,0,0.1-0.1,0.2-0.1
					c0.1,0,0.1,0,0.2,0c0.1,0,0.2,0.1,0.2,0.1c0.1,0.2,0.1,0.3,0.1,0.4s0,0.2,0,0.2c-0.2,1.1-0.7,2-1,2.9c-0.4,0.9-0.8,1.8-1.3,2.8
					l-0.4-0.4c0.7-0.4,1.4-0.7,2.1-1c0.7-0.3,1.4-0.6,2.2-0.8c0.1,0,0.2,0,0.4,0c0.1,0,0.2,0.1,0.2,0.2c0,0.1,0,0.2,0,0.3
					c-0.1,0.3-0.2,0.4-0.3,0.6c-0.2,0.3-0.5,0.6-0.8,0.9C195.2,109.3,194.6,109.8,194,110.2L194,110.2z"/>
			</g>
		</g>
		<g>
			<defs>
				<rect id="SVGID_25_" x="107.8" y="26.5" width="88.5" height="165.6"/>
			</defs>
			<clipPath id="SVGID_26_">
				<use xlink:href="#SVGID_25_"  style="overflow:visible;"/>
			</clipPath>
			<g class="st23">
				<path class="st15" d="M173.5,106.3c0,0-3.1-7.4,1.9-0.3c0,0,0.1-11.6,1.5-0.8c0,0,4.1-12.7,1.7,0.8c0,0,6-7.6,2.6,0.6
					c0,0,6.4-3.8,2.7,0.3l-1.3,0.6c0,0,1.3,0.7,2.5,1.7"/>
				<path class="st13" d="M173.5,106.3c-0.3-0.6-0.5-1.2-0.8-1.8c-0.1-0.3-0.2-0.6-0.3-0.9c0-0.2-0.1-0.3,0-0.6c0-0.1,0-0.1,0.1-0.2
					c0.1-0.1,0.2-0.1,0.3-0.1c0.2,0,0.2,0.1,0.3,0.1c0.6,0.4,1,0.9,1.4,1.4s0.8,1,1.2,1.5l-0.6,0.2c0-0.9,0-1.7,0.1-2.6
					c0.1-0.9,0.1-1.7,0.3-2.6c0-0.1,0-0.1,0.1-0.2c0-0.1,0-0.1,0.2-0.3c0,0,0.1,0,0.2,0s0.1,0,0.2,0.1c0.1,0,0.1,0.1,0.1,0.1
					c0,0.1,0.1,0.1,0.1,0.2c0.1,0.2,0.1,0.4,0.2,0.7c0.1,0.4,0.1,0.9,0.2,1.3l0.3,2.5h-0.3l1-2.9c0.2-0.5,0.4-1,0.6-1.4
					c0.1-0.2,0.2-0.5,0.3-0.7c0.1-0.1,0.1-0.2,0.2-0.4c0.1-0.1,0.1-0.1,0.3-0.2c0.1,0,0.2,0.1,0.2,0.1l0.1,0.1c0.1,0.6,0,1.1,0,1.6
					s-0.1,1-0.1,1.5c-0.1,1-0.3,2-0.4,3l-0.6-0.3c0.5-0.6,0.9-1.2,1.4-1.7c0.5-0.6,1-1.1,1.8-1.6c0.1-0.1,0.2-0.1,0.4-0.1
					s0.5,0.1,0.6,0.3c0.2,0.4,0.1,0.6,0.1,0.8c-0.1,0.4-0.2,0.8-0.3,1.1c-0.2,0.7-0.5,1.4-0.8,2.1l-0.5-0.5c0.9-0.5,1.9-1,2.9-1.4
					c0.3-0.1,0.5-0.2,0.9-0.2c0.1,0,0.3,0,0.4,0.2c0.1,0.2,0.1,0.3,0.1,0.4c0,0.2-0.1,0.3-0.2,0.5c-0.3,0.5-0.7,0.9-1.1,1.3l0,0l0,0
					l-1.3,0.6V107c0.9,0.5,1.7,1.1,2.5,1.8v0.1c-0.8-0.6-1.7-1.1-2.6-1.6l-0.3-0.2l0.3-0.2l1.2-0.7l-0.1,0.1
					c0.3-0.4,0.7-0.8,0.9-1.2c0.1-0.1,0.1-0.2,0.1-0.3c0,0,0,0,0,0.1s0.1,0,0,0c-0.1,0-0.4,0.1-0.6,0.2c-0.9,0.4-1.9,0.9-2.8,1.5
					l-1,0.6l0.4-1c0.3-0.7,0.5-1.4,0.8-2c0.1-0.3,0.2-0.7,0.2-1c0-0.1,0-0.3,0-0.3l0.1,0.1h-0.1c-0.5,0.3-1.1,0.8-1.6,1.3
					s-1,1.1-1.4,1.6l-0.9,1l0.3-1.3c0.2-1,0.4-2,0.6-3c0.1-0.5,0.2-1,0.2-1.5c0.1-0.5,0.1-1,0.1-1.4c0-0.1,0,0,0.1,0l0,0
					c-0.1,0.1-0.1,0.2-0.2,0.3c-0.1,0.2-0.2,0.4-0.3,0.7c-0.2,0.5-0.4,0.9-0.6,1.4c-0.4,0.9-0.7,1.9-1,2.9l-0.2,0.6l-0.1-0.6
					c-0.1-0.8-0.3-1.7-0.4-2.5c-0.1-0.4-0.2-0.8-0.3-1.2c-0.1-0.2-0.1-0.4-0.2-0.6v-0.1l0,0h0.1h0.1c0.1-0.1,0.1-0.1,0.1,0v0.1
					c-0.2,0.8-0.2,1.6-0.2,2.5l-0.1,2.5v0.9l-0.5-0.8c-0.4-0.5-0.7-1-1.1-1.6c-0.4-0.5-0.8-1-1.2-1.4l-0.1-0.1c0,0,0.1-0.1,0.1,0
					c0,0.1,0,0.3,0,0.4c0,0.3,0.1,0.6,0.2,0.9C173.2,105.1,173.4,105.7,173.5,106.3L173.5,106.3z"/>
			</g>
		</g>
		<g>
			<defs>
				<rect id="SVGID_27_" x="107.8" y="26.5" width="88.5" height="165.6"/>
			</defs>
			<clipPath id="SVGID_28_">
				<use xlink:href="#SVGID_27_"  style="overflow:visible;"/>
			</clipPath>
			<g class="st24">
				<path class="st15" d="M194.9,110.4c0,0-2.9-6.9,1.8-0.3c0,0,0.1-10.8,1.4-0.7c0,0,3.8-11.8,1.6,0.7c0,0,5.6-7.1,2.4,0.6
					c0,0,6-3.6,2.5,0.2l-1.2,0.6c0,0,1.2,0.6,2.4,1.6"/>
				<path class="st13" d="M194.9,110.5c-0.3-0.5-0.5-1.1-0.7-1.7c-0.1-0.3-0.2-0.6-0.3-0.9c0-0.2-0.1-0.3,0-0.5c0-0.1,0-0.1,0.1-0.2
					c0.1-0.1,0.2-0.1,0.3-0.1c0.1,0,0.2,0.1,0.3,0.1c0.6,0.4,0.9,0.9,1.3,1.3c0.4,0.5,0.7,1,1.1,1.4l-0.6,0.2c0-0.8,0-1.6,0-2.4
					c0.1-0.8,0.1-1.6,0.3-2.4c0-0.1,0-0.1,0.1-0.2c0-0.1,0-0.1,0.2-0.3c0,0,0.1,0,0.2,0c0.1,0,0.1,0,0.2,0.1c0.1,0,0.1,0.1,0.1,0.1
					c0,0.1,0.1,0.1,0.1,0.2c0.1,0.2,0.1,0.4,0.2,0.6c0.1,0.4,0.1,0.8,0.2,1.2l0.3,2.4H198l1-2.7c0.2-0.4,0.3-0.9,0.5-1.3
					c0.1-0.2,0.2-0.4,0.3-0.7c0.1-0.1,0.1-0.2,0.2-0.3c0.1,0,0.1-0.1,0.3-0.2c0.1,0,0.2,0.1,0.2,0.1l0.1,0.1c0.1,0.6,0,1,0,1.5
					s-0.1,1-0.1,1.4c-0.1,0.9-0.3,1.9-0.4,2.8l-0.6-0.3c0.4-0.6,0.9-1.1,1.3-1.6c0.5-0.5,0.9-1,1.6-1.5c0.1,0,0.2-0.1,0.4-0.1
					s0.5,0.1,0.6,0.3c0.2,0.4,0.1,0.5,0.1,0.7c-0.1,0.4-0.2,0.7-0.3,1.1c-0.2,0.7-0.5,1.3-0.7,2l-0.5-0.5c0.9-0.5,1.8-1,2.8-1.3
					c0.3-0.1,0.5-0.2,0.9-0.2c0.1,0,0.2,0,0.4,0.2c0.1,0.2,0.1,0.3,0.1,0.4c0,0.2-0.1,0.3-0.2,0.4c-0.3,0.5-0.7,0.8-1,1.2l0,0l0,0
					l-1.2,0.5v-0.3c0.8,0.5,1.6,1.1,2.3,1.7v0.1c-0.8-0.6-1.6-1-2.4-1.4l-0.3-0.2l0.3-0.2l1.1-0.6l-0.1,0.1c0.3-0.4,0.6-0.8,0.9-1.2
					c0.1-0.1,0.1-0.2,0.1-0.2s0,0,0,0.1c0.1,0.1,0.1,0,0,0c-0.1,0-0.4,0.1-0.6,0.2c-0.9,0.4-1.7,0.9-2.6,1.4l-1,0.6l0.4-1
					c0.3-0.6,0.5-1.3,0.7-1.9c0.1-0.3,0.2-0.6,0.2-0.9c0-0.1,0-0.3,0-0.3s0.1,0.1,0.2,0.1c0,0,0,0-0.1,0c-0.5,0.3-1,0.8-1.5,1.2
					c-0.5,0.5-0.9,1-1.3,1.5l-0.9,1l0.3-1.3c0.2-0.9,0.4-1.9,0.5-2.8c0.1-0.5,0.2-0.9,0.2-1.4c0.1-0.5,0.1-1,0.1-1.3
					c0-0.1,0,0,0.1,0c0.1,0,0,0,0,0c-0.1,0.1-0.1,0.2-0.2,0.3c-0.1,0.2-0.2,0.4-0.3,0.6c-0.2,0.4-0.4,0.9-0.5,1.3
					c-0.4,0.9-0.6,1.8-0.9,2.7l-0.2,0.6l-0.1-0.6c-0.1-0.8-0.3-1.6-0.4-2.3c-0.1-0.4-0.2-0.8-0.3-1.1c-0.1-0.2-0.1-0.4-0.2-0.5v-0.1
					l0,0h0.1h0.1c0.1-0.1,0.1-0.1,0.1,0v0.1c-0.1,0.7-0.2,1.5-0.2,2.3l-0.1,2.4v0.9l-0.5-0.8c-0.3-0.5-0.7-1-1-1.5s-0.7-1-1.1-1.3
					l-0.1-0.1c0,0,0.1-0.1,0.1,0c0,0.1,0,0.2,0,0.4c0,0.3,0.1,0.6,0.2,0.9C194.6,109.3,194.7,109.9,194.9,110.5L194.9,110.5z"/>
			</g>
		</g>
		<g>
			<defs>
				<rect id="SVGID_29_" x="107.8" y="26.5" width="88.5" height="165.6"/>
			</defs>
			<clipPath id="SVGID_30_">
				<use xlink:href="#SVGID_29_"  style="overflow:visible;"/>
			</clipPath>
		</g>
		<g>
			<defs>
				<rect id="SVGID_31_" x="107.8" y="26.5" width="88.5" height="165.6"/>
			</defs>
			<clipPath id="SVGID_32_">
				<use xlink:href="#SVGID_31_"  style="overflow:visible;"/>
			</clipPath>
		</g>
		<g>
			<defs>
				<rect id="SVGID_33_" x="107.8" y="26.5" width="88.5" height="165.6"/>
			</defs>
			<clipPath id="SVGID_34_">
				<use xlink:href="#SVGID_33_"  style="overflow:visible;"/>
			</clipPath>
		</g>
	</g>
	<g>
		<path class="st1" d="M208,24.8L137.6,4.9l3.4,206.3l67.3-14.4c2.9-0.6,5.2-6.4,5.2-12.9V38.2C213.4,31.6,211,25.7,208,24.8z"/>
		<path d="M208,24.9L172.8,15l-35.2-9.7l0.3-0.3c0.3,17.2,0.7,34.4,0.9,51.6l0.7,51.5l0.7,51.6l1,51.5l-0.3-0.3l60.1-13l3.8-0.8
			l1.9-0.4l0.9-0.2c0.3-0.1,0.6-0.1,0.9-0.2c1-0.4,1.8-1.5,2.4-2.7c0.6-1.2,1-2.4,1.3-3.7c0.6-2.5,0.7-5,0.7-7.5v-7.5v-30.1v-30.1
			l0.2-30.1l0.1-30.1l0.1-15c0.1-2.5-0.1-5-0.8-7.7c-0.3-1.3-0.8-2.6-1.5-3.9C210.3,26.6,209.3,25.2,208,24.9z M208,24.7
			c1.4,0.4,2.5,1.8,3.2,3c0.7,1.3,1.2,2.6,1.6,3.9c0.7,2.6,0.9,5.2,0.9,7.7l0.1,15.1l0.1,30.1l0.2,30.1v30.1v30.1v7.5
			c0,2.5-0.1,5.1-0.7,7.7c-0.3,1.3-0.8,2.6-1.4,3.9c-0.3,0.6-0.7,1.3-1.2,1.9c-0.5,0.6-1.1,1.1-1.9,1.4c-0.4,0.1-0.7,0.2-1,0.3
			l-0.9,0.2l-1.9,0.4l-3.8,0.8L141,211.5l-0.3,0.1v-0.3l-0.7-51.6l-1-51.6l-1-51.6c-0.4-17.2-0.5-34.4-0.8-51.6V4.5l0.3,0.1
			l35.2,10.2L208,24.7z"/>
	</g>
	<g>
		<path class="st12" d="M206.2,27.6L139.8,8.2l3.2,200.7l63.4-14c2.7-0.6,4.9-6.2,4.9-12.6V40.5C211.4,34.2,209.1,28.4,206.2,27.6z"
			/>
		<g>
			<path d="M206.2,27.6L173,18.1l-33.2-9.5l0.3-0.3c0.3,16.7,0.7,33.5,0.9,50.2l0.7,50.1l0.7,50.2l0.9,50.1l-0.3-0.3l58-12.9
				l3.6-0.8l1.8-0.4c0.5-0.1,0.9-0.4,1.4-0.8c0.8-0.9,1.4-2.1,1.8-3.2c0.4-1.2,0.7-2.4,0.9-3.6c0.2-1.2,0.3-2.4,0.3-3.6s0-2.4,0-3.6
				v-7.3v-29.1v-29.1l0.2-29l0.1-29l0.1-14.5c0.1-2.4-0.1-4.9-0.8-7.4c-0.3-1.3-0.8-2.5-1.4-3.7C208.5,29.3,207.5,28,206.2,27.6z
				 M206.2,27.5c0.7,0.2,1.3,0.7,1.8,1.2s0.9,1.1,1.2,1.8c0.7,1.2,1.1,2.5,1.5,3.8c0.7,2.5,0.9,5,0.8,7.4l0.1,14.5l0.1,29l0.2,29v29
				v29v7.2c0,1.2,0,2.4,0,3.6s-0.2,2.5-0.4,3.7c-0.2,1.3-0.5,2.5-1,3.8s-1.1,2.5-2.1,3.7c-0.3,0.3-0.6,0.5-0.9,0.7
				c-0.3,0.2-0.7,0.4-1.1,0.4l-1.8,0.4l-3.6,0.8l-58,12.6l-0.3,0.1v-0.3l-0.7-50.2l-0.9-50.2l-0.9-50.2c-0.4-16.8-0.5-33.5-0.7-50.2
				V7.7l0.3,0.1l33.2,9.9L206.2,27.5z"/>
		</g>
	</g>
	<g>
		<g>
			<defs>
				<path id="SVGID_35_" d="M24.6,26.1c-4,0-7.2,5.2-7.2,11.7v144c0,6.4,3.2,11.7,7.2,11.7h80.1V26.1H24.6z"/>
			</defs>
			<clipPath id="SVGID_36_">
				<use xlink:href="#SVGID_35_"  style="overflow:visible;"/>
			</clipPath>
			<g class="st25">
				<line class="st4" x1="25.1" y1="22.3" x2="25.1" y2="196.4"/>
				<line class="st4" x1="21.8" y1="22.3" x2="21.8" y2="196.4"/>
				<line class="st4" x1="48.7" y1="10" x2="48.7" y2="184"/>
				<line class="st5" x1="60.5" y1="39" x2="60.5" y2="213.1"/>
				<line class="st4" x1="42.9" y1="-3.7" x2="42.9" y2="170.3"/>
				<line class="st4" x1="54.6" y1="25.3" x2="54.6" y2="199.4"/>
				<line class="st4" x1="82.5" y1="22.8" x2="82.5" y2="196.8"/>
				<line class="st4" x1="94.1" y1="22.8" x2="94.1" y2="196.8"/>
				<line class="st10" x1="17.8" y1="17.7" x2="17.8" y2="197.6"/>
				<line class="st10" x1="19.8" y1="17.7" x2="19.8" y2="197.6"/>
				<line class="st10" x1="21.8" y1="17.7" x2="21.8" y2="197.6"/>
				<line class="st10" x1="23.8" y1="17.7" x2="23.8" y2="197.6"/>
				<line class="st10" x1="25.8" y1="17.7" x2="25.8" y2="197.6"/>
				<line class="st10" x1="27.8" y1="17.7" x2="27.8" y2="197.6"/>
				<line class="st10" x1="29.8" y1="17.7" x2="29.8" y2="197.6"/>
				<line class="st10" x1="31.8" y1="17.7" x2="31.8" y2="197.6"/>
				<line class="st10" x1="33.8" y1="17.7" x2="33.8" y2="197.6"/>
				<line class="st10" x1="35.8" y1="17.7" x2="35.8" y2="197.6"/>
				<line class="st10" x1="37.8" y1="17.7" x2="37.8" y2="197.6"/>
				<line class="st10" x1="39.8" y1="17.7" x2="39.8" y2="197.6"/>
				<line class="st10" x1="41.8" y1="17.7" x2="41.8" y2="197.6"/>
				<line class="st10" x1="43.8" y1="17.7" x2="43.8" y2="197.6"/>
				<line class="st10" x1="45.8" y1="17.7" x2="45.8" y2="197.6"/>
				<line class="st10" x1="47.8" y1="17.7" x2="47.8" y2="197.6"/>
				<line class="st10" x1="49.8" y1="17.7" x2="49.8" y2="197.6"/>
				<line class="st10" x1="51.8" y1="17.7" x2="51.8" y2="197.6"/>
				<line class="st10" x1="53.8" y1="17.7" x2="53.8" y2="197.6"/>
				<line class="st10" x1="55.8" y1="17.7" x2="55.8" y2="197.6"/>
				<line class="st10" x1="57.8" y1="17.7" x2="57.8" y2="197.6"/>
				<line class="st10" x1="59.8" y1="17.7" x2="59.8" y2="197.6"/>
				<line class="st10" x1="61.8" y1="17.7" x2="61.8" y2="197.6"/>
				<line class="st10" x1="63.8" y1="17.7" x2="63.8" y2="197.6"/>
				<line class="st10" x1="65.8" y1="17.7" x2="65.8" y2="197.6"/>
				<line class="st10" x1="67.8" y1="17.7" x2="67.8" y2="197.6"/>
				<line class="st10" x1="69.8" y1="17.7" x2="69.8" y2="197.6"/>
				<line class="st10" x1="71.8" y1="17.7" x2="71.8" y2="197.6"/>
				<line class="st10" x1="73.8" y1="17.7" x2="73.8" y2="197.6"/>
				<line class="st10" x1="75.8" y1="17.7" x2="75.8" y2="197.6"/>
				<line class="st10" x1="77.8" y1="17.7" x2="77.8" y2="197.6"/>
				<line class="st10" x1="79.8" y1="17.7" x2="79.8" y2="197.6"/>
				<line class="st10" x1="81.8" y1="17.7" x2="81.8" y2="197.6"/>
				<line class="st10" x1="83.8" y1="17.7" x2="83.8" y2="197.6"/>
				<line class="st10" x1="85.8" y1="17.7" x2="85.8" y2="197.6"/>
				<line class="st10" x1="87.8" y1="17.7" x2="87.8" y2="197.6"/>
				<line class="st10" x1="89.8" y1="17.7" x2="89.8" y2="197.6"/>
				<line class="st10" x1="91.8" y1="17.7" x2="91.8" y2="197.6"/>
				<line class="st10" x1="93.8" y1="17.7" x2="93.8" y2="197.6"/>
				<line class="st10" x1="95.8" y1="17.7" x2="95.8" y2="197.6"/>
				<line class="st10" x1="97.8" y1="17.7" x2="97.8" y2="197.6"/>
				<line class="st10" x1="99.8" y1="17.7" x2="99.8" y2="197.6"/>
				<line class="st10" x1="101.8" y1="17.7" x2="101.8" y2="197.6"/>
				<line class="st10" x1="103.8" y1="17.7" x2="103.8" y2="197.6"/>
				<line class="st10" x1="105.8" y1="17.7" x2="105.8" y2="197.6"/>
				<ellipse class="st5" cx="37.8" cy="66.9" rx="2" ry="9.4"/>
				<ellipse class="st5" cx="37.8" cy="69.5" rx="6" ry="16"/>
				<ellipse class="st5" cx="40.6" cy="71.3" rx="11.1" ry="22.5"/>
				<ellipse class="st10" cx="102.8" cy="93.1" rx="3" ry="10.4"/>
				<ellipse class="st10" cx="101.6" cy="95.1" rx="6.9" ry="21.7"/>
				<ellipse class="st10" cx="101.1" cy="95.3" rx="11.3" ry="34.2"/>
				<ellipse class="st10" cx="33.8" cy="193.4" rx="10" ry="6"/>
				<ellipse class="st10" cx="35.3" cy="192" rx="14.5" ry="10.3"/>
				<ellipse class="st10" cx="34.4" cy="194.4" rx="19.4" ry="15.3"/>
			</g>
		</g>
	</g>
	<g>
		<g>
			<g>
				<defs>
					<path id="SVGID_37_" d="M206.3,27.5l-66.1-21l2.4,199.7l63.9-11.5c2.7-0.5,5-6,5-12.4V40.6C211.4,34.3,209.1,28.4,206.3,27.5z"
						/>
				</defs>
				<clipPath id="SVGID_38_">
					<use xlink:href="#SVGID_37_"  style="overflow:visible;"/>
				</clipPath>
				<g class="st26">
					<line class="st4" x1="145.5" y1="1.1" x2="147.8" y2="206.1"/>
					<line class="st4" x1="143.1" y1="0.3" x2="145.5" y2="206.5"/>
					<line class="st4" x1="162.2" y1="-7.1" x2="164" y2="189.2"/>
					<line class="st5" x1="170.9" y1="28" x2="172.3" y2="220.1"/>
					<line class="st4" x1="186.4" y1="15.4" x2="187.3" y2="199.4"/>
					<line class="st4" x1="194.7" y1="18.1" x2="195.3" y2="197.9"/>
					<line class="st4" x1="158.6" y1="3" x2="160.4" y2="201.3"/>
					<line class="st4" x1="156.2" y1="2.2" x2="158.1" y2="201.7"/>
					<line class="st4" x1="175.3" y1="-4.7" x2="176.6" y2="185"/>
					<line class="st4" x1="183.9" y1="29.4" x2="184.9" y2="214.8"/>
					<line class="st4" x1="199.5" y1="17.5" x2="199.9" y2="194.9"/>
					<line class="st4" x1="207.8" y1="20.3" x2="208" y2="193.4"/>
					<line class="st10" x1="138.8" y1="-4" x2="141.5" y2="211.3"/>
					<line class="st10" x1="140.2" y1="-3.5" x2="142.8" y2="211.1"/>
					<line class="st10" x1="141.7" y1="-3" x2="144.2" y2="210.8"/>
					<line class="st10" x1="143.1" y1="-2.5" x2="145.6" y2="210.5"/>
					<line class="st10" x1="144.5" y1="-2" x2="147" y2="210.3"/>
					<line class="st10" x1="145.9" y1="-1.5" x2="148.3" y2="210"/>
					<line class="st10" x1="147.4" y1="-1.1" x2="149.7" y2="209.7"/>
					<line class="st10" x1="148.8" y1="-0.6" x2="151.1" y2="209.5"/>
					<line class="st10" x1="150.2" y1="-0.1" x2="152.5" y2="209.2"/>
					<line class="st10" x1="151.7" y1="0.4" x2="153.8" y2="208.9"/>
					<line class="st10" x1="153.1" y1="0.9" x2="155.2" y2="208.7"/>
					<line class="st10" x1="154.5" y1="1.4" x2="156.6" y2="208.4"/>
					<line class="st10" x1="155.9" y1="1.9" x2="158" y2="208.2"/>
					<line class="st10" x1="157.4" y1="2.4" x2="159.3" y2="207.9"/>
					<line class="st10" x1="158.8" y1="2.9" x2="160.7" y2="207.6"/>
					<line class="st10" x1="160.2" y1="3.3" x2="162.1" y2="207.4"/>
					<line class="st10" x1="161.6" y1="3.8" x2="163.5" y2="207.1"/>
					<line class="st10" x1="163.1" y1="4.3" x2="164.9" y2="206.8"/>
					<line class="st10" x1="164.5" y1="4.8" x2="166.2" y2="206.6"/>
					<line class="st10" x1="165.9" y1="5.3" x2="167.6" y2="206.3"/>
					<line class="st10" x1="167.4" y1="5.8" x2="169" y2="206"/>
					<line class="st10" x1="168.8" y1="6.3" x2="170.4" y2="205.8"/>
					<line class="st10" x1="170.2" y1="6.8" x2="171.7" y2="205.5"/>
					<line class="st10" x1="171.6" y1="7.3" x2="173.1" y2="205.2"/>
					<line class="st10" x1="173.1" y1="7.7" x2="174.5" y2="205"/>
					<line class="st10" x1="174.5" y1="8.2" x2="175.9" y2="204.7"/>
					<line class="st10" x1="175.9" y1="8.7" x2="177.2" y2="204.5"/>
					<line class="st10" x1="177.4" y1="9.2" x2="178.6" y2="204.2"/>
					<line class="st10" x1="178.8" y1="9.7" x2="180" y2="203.9"/>
					<line class="st10" x1="180.2" y1="10.2" x2="181.4" y2="203.7"/>
					<line class="st10" x1="181.6" y1="10.7" x2="182.7" y2="203.4"/>
					<line class="st10" x1="183.1" y1="11.2" x2="184.1" y2="203.1"/>
					<line class="st10" x1="184.5" y1="11.7" x2="185.5" y2="202.9"/>
					<line class="st10" x1="185.9" y1="12.1" x2="186.9" y2="202.6"/>
					<line class="st10" x1="187.4" y1="12.6" x2="188.2" y2="202.3"/>
					<line class="st10" x1="188.8" y1="13.1" x2="189.6" y2="202.1"/>
					<line class="st10" x1="190.2" y1="13.6" x2="191" y2="201.8"/>
					<line class="st10" x1="191.6" y1="14.1" x2="192.4" y2="201.6"/>
					<line class="st10" x1="193.1" y1="14.6" x2="193.7" y2="201.3"/>
					<line class="st10" x1="194.5" y1="15.1" x2="195.1" y2="201"/>
					<line class="st10" x1="195.9" y1="15.6" x2="196.5" y2="200.8"/>
					<line class="st10" x1="197.3" y1="16.1" x2="197.9" y2="200.5"/>
					<line class="st10" x1="198.8" y1="16.5" x2="199.2" y2="200.2"/>
					<line class="st10" x1="200.2" y1="17" x2="200.6" y2="200"/>
					<line class="st10" x1="201.6" y1="17.5" x2="202" y2="199.7"/>
					<line class="st10" x1="203.1" y1="18" x2="203.4" y2="199.4"/>
					<line class="st10" x1="204.5" y1="18.5" x2="204.8" y2="199.2"/>
					<line class="st10" x1="205.9" y1="19" x2="206.1" y2="198.9"/>
					<line class="st10" x1="207.3" y1="19.5" x2="207.5" y2="198.6"/>
					<line class="st10" x1="208.8" y1="20" x2="208.9" y2="198.4"/>
					<line class="st10" x1="210.2" y1="20.5" x2="210.3" y2="198.1"/>
					<line class="st10" x1="211.6" y1="21" x2="211.6" y2="197.9"/>
					<path class="st5" d="M196.3,133.8c0,6.2-0.6,11.2-1.5,11.3c-0.8,0-1.5-5-1.5-11.3s0.6-11.3,1.5-11.3
						C195.6,122.6,196.3,127.6,196.3,133.8z"/>
					<path class="st5" d="M203.3,134.8c0,10.8-2.8,19.7-6.2,19.8c-3.5,0.2-6.3-8.7-6.3-19.9s2.7-20.1,6.2-19.8
						C200.4,115.1,203.2,124,203.3,134.8z"/>
					<path class="st5" d="M201.9,154.3c0,0,0.3,0,0.7,0c0.4,0,0.7,0,0.7,0s-0.3,0-0.7,0C202.2,154.3,201.9,154.3,201.9,154.3z"/>
					<path class="st5" d="M211.6,135.4c0,14.7-5.3,27-11.8,27.5s-11.8-11.8-11.9-27.5c-0.1-15.7,5.2-28,11.8-27.5
						C206.3,108.5,211.6,120.8,211.6,135.4z"/>
					<path class="st5" d="M144.4,110.8c0,3.7-0.9,6.7-2,6.7c-1.2-0.1-2.1-3.2-2.2-6.9c0-3.8,0.9-6.8,2-6.7
						C143.4,104,144.4,107.1,144.4,110.8z"/>
					<path class="st5" d="M147.2,112.5c0.1,7.4-1.7,13.4-4,13.3c-2.3-0.1-4.3-6.2-4.4-13.8c-0.1-7.6,1.7-13.5,4-13.3
						C145.2,98.9,147.2,105,147.2,112.5z"/>
					<path class="st5" d="M151.5,114.3c0.1,13.6-2.5,24.6-6,24.7c-3.5,0-6.4-11.3-6.6-25.4c-0.2-14,2.5-25.1,6-24.7
						S151.3,100.7,151.5,114.3z"/>
					<path class="st10" d="M170.8,18.4c0,5.3-0.7,9.4-1.6,9.1c-0.9-0.3-1.7-4.8-1.7-10.2c0-5.4,0.7-9.4,1.6-9.1
						C170,8.6,170.7,13.1,170.8,18.4z"/>
					<path class="st10" d="M173,23.8c0.1,8.9-1.7,15.6-4,15c-2.3-0.6-4.2-8.4-4.3-17.6c-0.1-9.1,1.7-15.8,4-15
						C171,7,172.9,14.9,173,23.8z"/>
					<path class="st10" d="M176.1,34.2c0.1,16.7-3,29.7-6.9,28.9c-3.9-0.8-7.2-15.5-7.4-32.8c-0.2-17.4,2.9-30.3,6.9-28.9
						C172.7,2.7,176,17.4,176.1,34.2z"/>
					<path class="st10" d="M166.2,207.4c0,4.6-0.8,8.6-2,8.9c-1.1,0.2-2.1-3.4-2.1-8.1s0.8-8.7,2-8.9
						C165.3,199.1,166.2,202.7,166.2,207.4z"/>
					<path class="st10" d="M169,209.4c0.1,12.6-1.7,23.3-4,23.9c-2.3,0.6-4.3-9.3-4.4-22.2c-0.1-12.9,1.7-23.6,4-23.9
						C166.9,186.9,168.9,196.8,169,209.4z"/>
					<path class="st10" d="M174.3,204.7c0.1,18.3-3.4,34.1-7.9,35.4c-4.5,1.3-8.3-13.2-8.4-32.3c-0.2-19.1,3.3-34.9,7.9-35.4
						C170.4,172,174.2,186.4,174.3,204.7z"/>
				</g>
			</g>
		</g>
	</g>
	<path class="st28" d="M102.6,23.4L100,185.1c-14.4-1.8-28.6-4.6-42.6-8.6C16,139,23.7,74.5,26.1,23.4h-3.6c-4.2,0-7.6,5.4-7.6,12
		v148c0,6.6,3.4,12,7.6,12h77.3h3.2l0.6-172H102.6L102.6,23.4z"/>
	<g>
		<rect x="212.1" y="47.1" class="st11" width="6.4" height="18.7"/>
		<path d="M218.5,65.9c-2.1,0.2-4.3,0.3-6.4,0.3h-0.4v-0.4c0-1.6-0.1-3.1-0.1-4.7s0.1-3.1,0.2-4.7c0.1-1.6,0.1-3.1,0.1-4.7
			c0-1.6,0-3.1-0.1-4.7v-0.3h0.3c2.1-0.1,4.3-0.2,6.4-0.2h0.5V47c0.1,3.1,0.1,6.2,0,9.4c-0.1,1.6-0.1,3.1-0.2,4.7
			C218.8,62.7,218.7,64.3,218.5,65.9L218.5,65.9L218.5,65.9z M218.5,65.8c-0.1-1.5-0.2-3.1-0.3-4.6c-0.1-1.6-0.1-3.1-0.2-4.7
			c-0.1-3.1-0.1-6.2,0-9.4l0.5,0.5c-2.1,0-4.3-0.1-6.4-0.2l0.3-0.3c-0.1,1.6-0.1,3.1-0.1,4.7c0,1.6,0,3.1,0.1,4.7
			c0.1,1.6,0.2,3.1,0.2,4.7c0,1.6,0,3.1-0.1,4.7l-0.4-0.4C214.2,65.5,216.3,65.6,218.5,65.8z"/>
	</g>
	<circle class="st3" cx="215.1" cy="50.9" r="1.6"/>
	<circle class="st3" cx="215.3" cy="62.7" r="1.6"/>
	<g>
		<rect x="212.1" y="125.3" class="st11" width="6.4" height="18.7"/>
		<path d="M218.5,144.1c-2.1,0.2-4.3,0.3-6.4,0.3h-0.4V144c0-1.6-0.1-3.1-0.1-4.7c0-1.6,0.1-3.1,0.2-4.7c0.1-1.6,0.1-3.1,0.1-4.7
			c0-1.6,0-3.1-0.1-4.7v-0.3h0.3c2.1-0.1,4.3-0.2,6.4-0.2h0.5v0.5c0.1,3.1,0.1,6.2,0,9.4c-0.1,1.6-0.1,3.1-0.2,4.7
			C218.8,140.9,218.7,142.5,218.5,144.1L218.5,144.1L218.5,144.1z M218.5,144c-0.1-1.5-0.2-3.1-0.3-4.6c-0.1-1.6-0.1-3.1-0.2-4.7
			c-0.1-3.1-0.1-6.2,0-9.4l0.5,0.5c-2.1,0-4.3-0.1-6.4-0.2l0.3-0.3c-0.1,1.6-0.1,3.1-0.1,4.7s0,3.1,0.1,4.7c0.1,1.6,0.2,3.1,0.2,4.7
			c0,1.6,0,3.1-0.1,4.7l-0.4-0.4C214.2,143.7,216.3,143.8,218.5,144z"/>
	</g>
	<circle class="st3" cx="215.1" cy="129.1" r="1.6"/>
	<circle class="st3" cx="215.3" cy="141" r="1.6"/>
	<g>
		<rect x="9.7" y="50.4" class="st11" width="6.4" height="18.7"/>
		<path d="M16.1,69.2c-2.1,0.2-4.3,0.3-6.4,0.3H9.3v-0.4c0-1.6-0.1-3.1-0.1-4.7s0.1-3.1,0.2-4.7c0.1-1.6,0.1-3.1,0.1-4.7
			s0-3.1-0.1-4.7V50h0.3c2.1-0.1,4.3-0.2,6.4-0.2h0.5v0.5c0.1,3.1,0.1,6.2,0,9.4c-0.1,1.6-0.1,3.1-0.2,4.7S16.3,67.6,16.1,69.2
			L16.1,69.2L16.1,69.2z M16,69.1c-0.1-1.5-0.2-3.1-0.3-4.6c-0.1-1.6-0.1-3.1-0.2-4.7c-0.1-3.1-0.1-6.2,0-9.4l0.5,0.5
			c-2.1,0-4.3-0.1-6.4-0.2l0.3-0.3c-0.1,1.6-0.1,3.1-0.1,4.7s0,3.1,0.1,4.7c0.1,1.6,0.2,3.1,0.2,4.7s0,3.1-0.1,4.7l-0.4-0.4
			C11.8,68.8,13.9,68.9,16,69.1z"/>
	</g>
	<circle class="st3" cx="12.7" cy="54.2" r="1.6"/>
	<circle class="st3" cx="12.9" cy="66" r="1.6"/>
	<g>
		<rect x="9.7" y="128.7" class="st11" width="6.4" height="18.7"/>
		<path d="M16.1,147.5c-2.1,0.2-4.3,0.3-6.4,0.3H9.3v-0.4c0-1.6-0.1-3.1-0.1-4.7c0-1.6,0.1-3.1,0.2-4.7s0.1-3.1,0.1-4.7
			c0-1.6,0-3.1-0.1-4.7v-0.3h0.3c2.1-0.1,4.3-0.2,6.4-0.2h0.5v0.5c0.1,3.1,0.1,6.2,0,9.4c-0.1,1.6-0.1,3.1-0.2,4.7
			C16.3,144.3,16.3,145.8,16.1,147.5L16.1,147.5L16.1,147.5z M16,147.4c-0.1-1.5-0.2-3.1-0.3-4.6c-0.1-1.6-0.1-3.1-0.2-4.7
			c-0.1-3.1-0.1-6.2,0-9.4l0.5,0.5c-2.1,0-4.3-0.1-6.4-0.2l0.3-0.3c-0.1,1.6-0.1,3.1-0.1,4.7c0,1.6,0,3.1,0.1,4.7
			c0.1,1.6,0.2,3.1,0.2,4.7c0,1.6,0,3.1-0.1,4.7L9.7,147C11.8,147.1,13.9,147.2,16,147.4z"/>
	</g>
	<circle class="st3" cx="12.7" cy="132.4" r="1.6"/>
	<circle class="st3" cx="12.9" cy="144.3" r="1.6"/>
	<g>
		<polygon class="st1" points="134.5,211.5 141,211.5 137.5,5 132.2,5 		"/>
		<path d="M134.6,211.5h6.4l-0.1,0.1c-0.5-17.2-0.8-34.4-1.1-51.6l-0.5-25.8l-0.4-25.8l-0.7-51.6c-0.1-8.6-0.3-17.2-0.5-25.8
			l-0.5-26l0.3,0.3h-5.3l0.3-0.3l0.8,51.6l0.6,51.6l0.4,51.6C134.4,177.1,134.5,194.3,134.6,211.5z M134.5,211.5
			c-0.4-17.2-0.6-34.4-0.9-51.6l-0.7-51.6l-0.5-51.6L131.9,5V4.7h0.3h5.3h0.3V5l0.4,25.8c0.1,8.6,0.2,17.2,0.4,25.8l1.1,51.6
			l0.5,25.8l0.3,25.8c0.2,17.2,0.5,34.4,0.6,51.6v0.1H141H134.5L134.5,211.5z"/>
	</g>
	<polygon class="st29" points="132.2,5 134.5,211.5 136.5,211.5 134.3,5 	"/>
</g>
</svg>
