<?xml version="1.0" encoding="utf-8"?>
<!-- Generator: Adobe Illustrator 15.1.0, SVG Export Plug-In . SVG Version: 6.00 Build 0)  -->
<!DOCTYPE svg PUBLIC "-//W3C//DTD SVG 1.1//EN" "http://www.w3.org/Graphics/SVG/1.1/DTD/svg11.dtd">
<svg version="1.1" id="rat2" xmlns="http://www.w3.org/2000/svg" xmlns:xlink="http://www.w3.org/1999/xlink" x="0px" y="0px"
	 width="247px" height="196px" viewBox="0 0 247 196" style="enable-background:new 0 0 247 196;" xml:space="preserve">
<style type="text/css">
<![CDATA[
	.st0{fill:#7AD7EE;}
	.st1{opacity:0.22;}
	.st2{fill:#231F20;}
	.st3{clip-path:url(#SVGID_2_);}
	.st4{fill:#7AD7EE;stroke:#231F20;stroke-miterlimit:10;}
	.st5{opacity:0.25;fill:#078D9E;}
]]>
</style>
<g class="st1">
	<path class="st2" d="M140.7,186.6c-0.5,0.2-1.1,0.3-1.7,0.5c-0.1,0-0.3,0.1-0.4,0.1c-0.5,0.1-0.9,0.2-1.4,0.4c0,0-0.1,0-0.1,0
		c-0.6,0.1-1.2,0.3-1.9,0.4c0,0,0,0-0.1,0c-3.4,0.7-7.2,1.2-11.3,1.5c0,0,0,0,0,0c-6.5,0.5-13.3,0.4-18.9-0.3c-8.7-1-11.8-3.1-8.7-5
		c-9.6-0.1-19.1-0.6-27.5-1.6c-0.8-0.1-1.7-0.2-2.5-0.3c-0.1,0-0.3,0-0.4-0.1c-0.7-0.1-1.4-0.2-2-0.3c-0.1,0-0.2,0-0.3,0
		c-0.7-0.1-1.4-0.2-2.1-0.3c0,0-0.1,0-0.1,0c-0.7-0.1-1.4-0.2-2.1-0.3c0,0,0,0,0,0c0,0,0,0,0,0c-4.9-0.8-8.8-1.7-11.6-2.7
		c-7.8,1-18.2,1.3-26.8,0.7c0.4,0,0.8,0,1.2,0c-2.2-0.1-4.3-0.3-6.2-0.5c-11.2-1.3-12.8-3.7-3.6-5.3c9.2-1.6,25.6-2.1,36.5-1.1
		c0.1,0,0.2,0,0.3,0c1.6-0.4,3.5-0.8,5.7-1.1c14.7-2.4,29.8-3.9,47-4.2l0.4,0c0.3,0,0.3,0,0.5,0c4.6-0.1,8.7,0,12.6,0.1
		c0.9-0.2,1.6-0.3,2.2-0.5c-0.4-0.6-0.9-2.2,1.7-3.6c-0.5,0.1-1,0.1-1.6,0.2c0,0.2-0.4,0.4-0.4,0.4l-0.4-0.3
		c-1.4,0.2-2.9,0.4-4.3,0.6c0,0.2-0.4,0.4-0.4,0.4l-0.4-0.3c-1.5,0.2-3,0.4-4.4,0.6c0,0.2-0.4,0.4-0.4,0.4l-0.4-0.3
		c-1.9,0.2-3.6,0.4-5.3,0.6c-0.1,0.2-0.4,0.3-0.4,0.3l-0.3-0.2c-2.8,0.3-5.2,0.4-7.4,0.5c-0.9,0.3-1.9,0.4-1.9,0.4l0.9-0.4
		c-1.9,0.1-3.6,0.1-5.1,0.1c-1,0.3-2,0.4-2,0.4l1.1-0.4c-1.8,0-3.3-0.1-4.5-0.2c-0.9,0.1-1.7,0.2-1.7,0.2l1.2-0.3
		c-4.8-0.5-5.5-1.4-5.5-1.4s1,0.4,4.2,0.7l0,0c0.1,0,0.3,0,0.5,0c0,0,0.1,0,0.1,0c0.3,0,0.5,0,0.8,0.1c0.1,0,0.2,0,0.3,0
		c0.2,0,0.4,0,0.6,0c0.1,0,0.3,0,0.4,0c0.1,0,0.2,0,0.3,0l2.5-0.6c-0.2,0.2-0.8,0.4-1.6,0.6c0.1,0,0.2,0,0.3,0c0.2,0,0.4,0,0.6,0
		c0.1,0,0.3,0,0.4,0c0.3,0,0.6,0,0.9,0c0.1,0,0.3,0,0.4,0c0.3,0,0.7,0,1.1,0c0.1,0,0.1,0,0.2,0l0.9-0.3c0.1,0.1,0,0.2-0.1,0.3
		c0.1,0,0.2,0,0.3,0c0.1,0,0.2,0,0.3,0c0.4,0,0.9,0,1.3,0c0.1,0,0.2,0,0.4,0c0.5,0,0.9,0,1.4-0.1c0.1,0,0.1,0,0.2,0
		c0.4,0,0.8,0,1.2-0.1l0.7-0.3c0.1,0.1,0.1,0.2,0.1,0.3c0.5,0,1-0.1,1.5-0.1c0.1,0,0.2,0,0.3,0c0.6,0,1.2-0.1,1.8-0.1
		c0,0,0.1,0,0.1,0c0.6,0,1.2-0.1,1.8-0.1l-0.7-0.4c0.9,0.1,1.4,0.2,1.7,0.3c0.4,0,0.9-0.1,1.3-0.1c0.1,0,0.3,0,0.4,0
		c0.7-0.1,1.4-0.1,2.2-0.2c0,0,0,0,0,0c0.3,0,0.7-0.1,1-0.1l-0.6-0.4c0.7,0.1,1.2,0.2,1.5,0.3c0.1,0,0.2,0,0.3,0c0.1,0,0.3,0,0.4,0
		c0.8-0.1,1.5-0.2,2.3-0.3c0.1,0,0.3,0,0.5-0.1c0.3,0,0.6-0.1,0.9-0.1l-0.6-0.4c0.7,0.1,1.2,0.2,1.6,0.3c0.2,0,0.5-0.1,0.7-0.1
		c1.2-0.2,2.4-0.3,3.5-0.5l-0.6-0.4c0.7,0.1,1.2,0.2,1.5,0.2c1.4-0.2,2.8-0.4,4.2-0.5c0,0,0,0,0.1,0l-0.6-0.4
		c0.5,0.1,0.9,0.1,1.2,0.2c0.6-0.2,1.3-0.3,2-0.4c0.8-0.1,1.4-0.3,2.1-0.3l-0.1-0.1c0.1,0,0.2,0,0.3,0c2.8-0.4,4-0.3,4.4-0.1
		c0,0,0,0,0,0c0.3-0.1,0.7-0.2,1-0.3l-0.6-0.3c0.5,0,0.9,0.1,1.2,0.2c6.6-1.6,16.3-3.6,28.5-4.7c0,0,11.1-1.5,13.7-2.1
		c2.3-0.5,5.5-0.7,1,1c0,0-0.1,0-0.1,0c-0.2,0.1-0.3,0.1-0.5,0.2c0,0-0.1,0-0.1,0.1c-0.2,0.1-0.3,0.1-0.5,0.2c-0.1,0-0.1,0-0.2,0.1
		c-0.2,0.1-0.5,0.2-0.7,0.2c0,0,0,0,0,0l2.2-0.1l0.5,0c0,0,0,0,0,0l4.6-0.1c0,0,1.6,0.1,5.4-0.8c0,0,15.3-3.3,5,0.8
		c0,0,5.2,0.5-12.3,4.6c-17.5,4-13.8,3.9-13.8,3.9s-0.8,2.2-2.8,3.2c-2,1-3.5,1-3.5,1s-5.9,0.5-4.8-1.3c0,0-0.7,0.2-1.9,0.5
		c-1.7,0.4-4.4,1-7.4,1.4c0.6,0.1,1.1,0.1,1.6,0.2c14.9,2,10.6,5.3-1.3,9.8c-1.6,0.6-3.5,1.2-5.6,1.7
		C147.5,181.5,148.3,184.1,140.7,186.6z"/>
</g>
<g>
	<path class="st4" d="M174.4,88.8c0,0-14.9,14.4-13.8,23.6s6.9-0.8,6.9-0.8"/>
	<g>
		<path class="st0" d="M185.6,19.2c-23,0-44.2,14.6-41.7,35.6c1.7,14.3,7.1,24.8,18.7,30.2l0.3,0.1c0.2,0,0.2,0,0.5,0
			c3.2,1.3,6.6,1.9,10,2.2c0.9,4.2-2.9,9.3-5.3,14c-0.1,0.2-0.2,0.5-0.2,0.7l-0.2,0.6c0,0-0.4,0.5-0.7,1.5c-2,6-7.6,27.6,4.1,37.6
			c0,0,4.4,7.6,4.4,10.5c0,2.9,3.5,3.2,6.1-8.4c0,0,0,0,0-0.1l1.9,0.3l4.4,0.6c0,0,2-0.6,2,3.8c0,0,2.3,14.8,7.8-3.5
			c0,0,7-2.3,4.6-19.8c-2.3-17.4,0.5-16.6,0.5-16.6s6.2-8.5,7.4-12.2c1.3-3.9,0-4.1,0-4.1s-3.2-2.9-7.8,4.1c0,0,0-0.8-0.1-2.1
			c-0.2-1.8-0.6-4.4-1.7-6.5c0.6-0.1,1.3-0.3,1.9-0.4c17.4-4.2,22.7-15.9,25-32.7C230.2,33.9,208.7,19.2,185.6,19.2z M171.1,87.1
			c3.2,0,5.4,1.1,7.6,3.2C176.5,88.1,174.3,87.1,171.1,87.1z"/>
		<g>
			<path class="st2" d="M185.6,19.3c-8.3,0-16.6,1.9-23.9,5.8c-3.6,2-7,4.4-9.8,7.4c-2.8,3-5.1,6.5-6.4,10.4
				c-1.3,3.9-1.7,8.1-1.1,12.1c0.5,4.1,1.4,8.1,2.8,12c1.4,3.8,3.4,7.5,6.1,10.6c2.7,3.1,6.1,5.5,9.8,7.2l-0.1,0c0.2,0,0.3,0,0.5,0
				l0.1,0l0.1,0c3.1,1.3,6.5,1.9,9.9,2.3l0.3,0l0.1,0.2c0.3,1.3,0.1,2.7-0.3,3.9c-0.4,1.3-0.9,2.4-1.5,3.6c-1.2,2.3-2.5,4.5-3.7,6.7
				l0,0c-0.1,0.2-0.2,0.5-0.2,0.7l0,0l0,0l-0.2,0.6l0,0l0,0c-0.4,0.7-0.7,1.5-1,2.3c-0.3,0.8-0.5,1.6-0.7,2.5
				c-0.4,1.7-0.8,3.3-1.1,5c-0.6,3.4-1,6.8-1,10.3c0,3.4,0.4,6.9,1.5,10.2c1.1,3.3,3,6.3,5.6,8.5l0,0l0,0c1,1.8,2,3.7,2.9,5.6
				c0.4,1,0.8,2,1.2,3c0.2,0.5,0.3,1,0.3,1.6c0,0.6,0,1,0.3,1.4c0.2,0.4,0.7,0.5,1.1,0.2c0.4-0.2,0.8-0.6,1.1-1
				c0.6-0.8,1.1-1.8,1.4-2.7c0.8-1.9,1.3-4,1.8-6l0.1-0.2l0.2,0l6.4,0.9l-0.1,0c0.5-0.1,1,0.1,1.4,0.4c0.3,0.3,0.5,0.7,0.7,1.1
				c0.3,0.8,0.3,1.7,0.3,2.5l0,0c0.3,1.4,0.6,2.8,1.2,4.1c0.3,0.6,0.7,1.2,1.3,1.3c0.5,0.1,1.1-0.5,1.5-1c0.8-1.1,1.4-2.5,1.9-3.8
				c0.5-1.3,1-2.7,1.4-4.1l0-0.2l0.2-0.1c0.6-0.3,1.2-0.8,1.7-1.4c0.5-0.6,0.9-1.2,1.3-1.9c0.7-1.4,1.1-2.9,1.4-4.5
				c0.5-3.1,0.5-6.3,0.1-9.5c-0.4-3.2-0.8-6.4-1.1-9.6c-0.1-1.6-0.2-3.2-0.1-4.9c0-0.8,0.1-1.6,0.2-2.5c0.1-0.4,0.2-0.8,0.4-1.3
				c0.1-0.2,0.2-0.4,0.4-0.6c0.1-0.1,0.2-0.2,0.4-0.3c0.2-0.1,0.3-0.2,0.7-0.1l-0.5,0.2c1.8-2.5,3.5-5.1,5.1-7.7
				c0.8-1.3,1.5-2.7,2.1-4.1c0.2-0.7,0.5-1.4,0.6-2.1c0.1-0.4,0.1-0.7,0-1c0-0.2-0.1-0.3-0.1-0.4c0,0,0-0.1-0.1-0.1c0,0-0.1,0,0.1,0
				l-0.2,0l-0.1-0.1c-0.5-0.4-1.2-0.5-1.9-0.4c-0.7,0.1-1.4,0.4-2,0.9c-1.2,0.9-2.3,2.2-3.2,3.5l-0.9,1.4l0-1.7
				c0-1.4-0.2-2.9-0.5-4.3c-0.3-1.4-0.7-2.8-1.3-4l-0.3-0.6l0.7-0.1c4.4-0.9,8.7-2.3,12.4-4.7c3.8-2.4,6.8-5.8,8.9-9.7
				c2.1-3.9,3.4-8.3,4.3-12.7c0.4-2.2,0.8-4.4,1.1-6.7c0.2-2.2,0.2-4.5-0.2-6.7c-0.7-4.4-2.6-8.6-5.3-12.1
				c-2.7-3.6-6.3-6.5-10.1-8.8C203.7,21.5,194.6,19.3,185.6,19.3z M185.6,19.2c9,0,18.1,2.2,26,6.7c3.9,2.3,7.5,5.2,10.3,8.7
				c2.8,3.6,4.9,7.8,5.6,12.3c0.4,2.3,0.5,4.6,0.2,6.9c-0.2,2.3-0.6,4.5-1,6.7c-0.9,4.5-2.1,8.9-4.3,13c-2.1,4.1-5.3,7.6-9.2,10.1
				c-3.9,2.5-8.3,4-12.8,4.9l0.4-0.8c0.7,1.4,1.1,2.8,1.4,4.3c0.3,1.5,0.5,3,0.5,4.5l-1-0.3c0.9-1.4,2-2.7,3.4-3.8
				c0.7-0.5,1.5-0.9,2.5-1.1c0.9-0.1,1.9,0,2.8,0.7l-0.3-0.1c0.3,0.1,0.4,0.2,0.5,0.3c0.1,0.1,0.2,0.3,0.3,0.4
				c0.1,0.3,0.2,0.5,0.2,0.7c0,0.5,0,0.9-0.1,1.3c-0.1,0.8-0.4,1.6-0.6,2.3c-0.6,1.5-1.4,2.9-2.2,4.2c-1.6,2.7-3.4,5.3-5.2,7.8
				l-0.2,0.2l-0.4-0.1c0.2,0,0.1,0,0.1,0c0,0-0.1,0-0.1,0.1c-0.1,0.1-0.2,0.2-0.2,0.4c-0.1,0.3-0.2,0.7-0.3,1.1
				c-0.1,0.8-0.2,1.5-0.2,2.3c-0.1,1.6,0,3.2,0.1,4.8c0.2,3.2,0.7,6.3,1,9.6c0.3,3.2,0.3,6.5-0.2,9.7c-0.3,1.6-0.8,3.2-1.5,4.7
				c-0.8,1.5-1.8,2.9-3.5,3.6l0.2-0.2c-0.4,1.4-0.9,2.8-1.4,4.2c-0.5,1.4-1.1,2.7-2,4c-0.2,0.3-0.5,0.6-0.8,0.8
				c-0.3,0.2-0.8,0.5-1.2,0.4c-0.5-0.1-0.8-0.4-1.1-0.7c-0.3-0.3-0.5-0.6-0.6-1c-0.7-1.4-1-2.8-1.2-4.3l0,0v0c0-0.8-0.1-1.6-0.3-2.3
				c-0.1-0.4-0.3-0.7-0.5-0.9c-0.2-0.2-0.6-0.3-0.9-0.3l-0.1,0l0,0l-6.4-0.9l0.3-0.2c-0.5,2.1-1,4.1-1.8,6.1c-0.4,1-0.9,2-1.5,2.8
				c-0.3,0.4-0.7,0.9-1.2,1.1c-0.3,0.1-0.6,0.2-0.9,0.2c-0.3-0.1-0.6-0.3-0.8-0.6c-0.3-0.5-0.3-1.1-0.3-1.6c0-0.5-0.2-1-0.3-1.5
				c-0.3-1-0.7-2-1.1-2.9c-0.9-1.9-1.8-3.8-2.9-5.6l0,0c-2.7-2.3-4.6-5.4-5.7-8.6c-1.1-3.3-1.6-6.8-1.6-10.3c0-3.5,0.3-7,0.9-10.4
				c0.3-1.7,0.7-3.4,1.1-5.1c0.2-0.8,0.5-1.7,0.7-2.5c0.3-0.8,0.5-1.7,1-2.5l0,0.1l0.2-0.6l0,0c0.1-0.3,0.2-0.5,0.2-0.7l0,0l0,0
				c1.1-2.3,2.5-4.5,3.6-6.7c0.6-1.1,1.1-2.3,1.4-3.5c0.3-1.2,0.5-2.4,0.2-3.6l0.3,0.3c-3.4-0.3-6.9-0.9-10.1-2.2l0.1,0
				c-0.1,0-0.4,0-0.5,0l-0.1,0l0,0c-3.9-1.7-7.3-4.2-10.1-7.3c-2.8-3.1-4.9-6.9-6.3-10.8c-1.4-3.9-2.2-8.1-2.7-12.2
				c-0.5-4.2-0.1-8.5,1.3-12.4c1.4-4,3.8-7.5,6.7-10.5c2.9-3,6.4-5.4,10-7.3C169,21,177.3,19.2,185.6,19.2z"/>
			<path class="st2" d="M171.1,87c0.7,0,1.4-0.1,2.2-0.1c0.7,0,1.5,0.2,2.1,0.5c0.7,0.4,1.2,0.9,1.8,1.3c0.6,0.5,1.1,0.9,1.7,1.3
				l-0.4,0.4c-0.6-0.4-1.1-0.8-1.7-1.2c-0.6-0.4-1.2-0.7-1.8-1c-0.6-0.3-1.2-0.5-1.9-0.8C172.5,87.3,171.8,87.1,171.1,87L171.1,87z
				 M171.1,87c0.7,0,1.4-0.1,2.2-0.1c0.7,0,1.5,0.2,2.2,0.4c1.4,0.6,2.5,1.6,3.4,2.8l-0.4,0.4c-0.4-0.6-0.9-1.1-1.5-1.5
				c-0.6-0.4-1.3-0.6-1.9-0.8c-0.6-0.2-1.3-0.4-1.9-0.7C172.5,87.3,171.8,87.1,171.1,87L171.1,87z"/>
		</g>
	</g>
	<ellipse class="st5" cx="182.6" cy="129.8" rx="3.1" ry="3.5"/>
	<path class="st5" d="M177.8,153.1c0.7-0.8,1.6-2.4,2.4-4.8c-0.4,0.5-0.8,1.1-1.1,1.7c0.3-0.6,0.7-1.1,1.1-1.7
		c0.4-1.2,0.8-2.7,1.2-4.4c-1.2-0.2-2.5-0.5-3.7-1.1C177.7,146.3,178.2,149.8,177.8,153.1z"/>
	<path class="st5" d="M185.6,19.2c-3.2,0-6.3,0.3-9.3,0.8c18.1,7.4,40.7,19.9,37.6,41.6c-2.3,10.5-16.3,13.9-19.8,23.2
		c-5.8,16.3,3.5,36-3.5,52.3c-1.4,2.1-4.2,4.3-6.9,7c3.1,0.1,6.1-0.5,9.2-1.1c-3.1,0.6-6.1,1.2-9.2,1.1c0,0,0,0-0.1,0l4,0.5
		c0,0,2-0.6,2,3.8c0,0,2.3,14.8,7.8-3.5c0,0,7-2.3,4.6-19.8c-2.3-17.4,0.5-16.6,0.5-16.6s6.2-8.5,7.4-12.2c1.3-3.9,0-4.1,0-4.1
		s-3.2-2.9-7.8,4.1c0,0,0-0.8-0.1-2.1c-0.1,2.7,0.7,5.4,0.1,7.8c0.6-2.4-0.3-5.1-0.1-7.8c-0.2-1.8-0.6-4.4-1.7-6.5
		c0.6-0.1,1.3-0.3,1.9-0.4c0-0.1,0-0.2,0-0.3c0,0.1,0,0.2,0,0.3c17.4-4.2,22.7-15.9,25-32.7C230.2,33.9,208.7,19.2,185.6,19.2z"/>
	<g>
		<path class="st0" d="M183.5,127.3c0,0-13.7-1.2-23.6-27.3c-10-26.2-26.5-9.8-26.5-9.8s15.7-11.2,24.7,12.3
			c9,23.5,20.9,30,24.9,29.1C183,131.6,186.2,130.2,183.5,127.3z"/>
		<g>
			<path class="st2" d="M183.5,127.4c-1.5-0.2-3-0.7-4.3-1.4c-1.4-0.7-2.7-1.5-3.9-2.4c-2.5-1.8-4.6-4-6.5-6.4
				c-3.8-4.8-6.6-10.3-8.8-16c-1.1-2.8-2.2-5.6-3.8-8.2c-1.6-2.5-3.6-4.9-6.2-6.3c-1.3-0.7-2.8-1.2-4.3-1.3c-1.5-0.1-3,0.1-4.4,0.5
				c-2.9,0.9-5.5,2.5-7.7,4.6l-0.3-0.4c2.6-1.7,5.6-2.8,8.7-2.8c3.1-0.1,6.2,1.1,8.7,3c2.4,2,4.3,4.5,5.7,7.2c0.7,1.4,1.4,2.7,2,4.2
				c0.6,1.4,1.1,2.8,1.7,4.2c2.4,5.5,5.2,10.9,8.8,15.7c1.8,2.4,3.8,4.6,6.2,6.5c1.2,0.9,2.4,1.8,3.7,2.4c0.7,0.3,1.4,0.6,2.1,0.8
				c0.7,0.2,1.5,0.3,2.2,0.1l0,0c0.7-0.3,1.5-1,1.6-1.8C184.6,128.8,184.1,128,183.5,127.4z M183.6,127.3c0.6,0.6,1.2,1.4,1.1,2.4
				c0,0.5-0.2,0.9-0.6,1.2c-0.3,0.3-0.7,0.6-1.1,0.8l0,0l0,0c-1.6,0.4-3.1-0.2-4.5-0.8c-1.4-0.6-2.7-1.5-3.9-2.4
				c-2.4-1.9-4.5-4.1-6.5-6.5c-3.8-4.8-6.7-10.2-9.1-15.8c-1.2-2.8-2.1-5.7-3.6-8.3c-1.4-2.6-3.1-5.1-5.4-7c-2.3-1.9-5.1-3-8.1-3
				c-2.9,0-5.9,0.9-8.4,2.5l-0.3-0.4c1.1-1,2.4-1.9,3.7-2.7c1.3-0.8,2.7-1.4,4.2-1.8c2.9-0.9,6.2-0.7,9,0.8c2.7,1.5,4.9,3.8,6.6,6.4
				c1.7,2.6,3,5.4,4,8.2c2.3,5.6,5,11.1,8.6,15.8c1.8,2.4,3.9,4.6,6.2,6.5C177.9,125,180.6,126.7,183.6,127.3L183.6,127.3
				L183.6,127.3z"/>
		</g>
	</g>
	<path class="st5" d="M183.5,127.3c0,0-1.7-0.1-4.3-1.5c-3.5,0.4-6.8-2-9.4-3.7c-7-10.5-9.3-22.1-17.4-32.5c-4-4-8.8-4.5-13-1.8
		c5.4-1,13.3,0.5,18.7,14.7c9,23.5,20.9,30,24.9,29.1C183,131.6,186.2,130.2,183.5,127.3z"/>
	<g>
		<path class="st0" d="M224.1,11.9c-10.1,0-18.2,8.1-18.3,18.2c7.6,3.2,11.7,10.4,14.6,18.1c1.2,0.2,2.4,0.4,3.7,0.4
			c10.1,0,18.3-8.2,18.3-18.3C242.4,20.1,234.2,11.9,224.1,11.9z"/>
		<path class="st2" d="M224.1,11.9c-2.4,0-4.8,0.5-6.9,1.5c-2.2,1-4.1,2.3-5.7,4c-1.6,1.7-2.9,3.7-3.8,5.8c-0.9,2.2-1.4,4.5-1.4,6.8
			l-0.3-0.4c1.9,0.8,3.6,1.9,5.1,3.2c1.5,1.3,2.8,2.9,4,4.5c1.2,1.6,2.2,3.4,3.1,5.2c0.9,1.8,1.7,3.6,2.4,5.5l-0.1-0.1
			c5,0.9,10.3-0.3,14.2-3.3c2-1.5,3.7-3.4,4.9-5.6c1.2-2.2,2-4.6,2.2-7c0.5-4.9-1.1-10-4.4-13.8c-1.6-1.9-3.7-3.5-5.9-4.6
			C229.2,12.5,226.7,11.9,224.1,11.9z M224.1,11.8c5.1-0.1,10.3,2.1,13.8,5.8c1.8,1.9,3.2,4.2,4,6.7c0.8,2.5,1.1,5.1,0.9,7.8
			c-0.5,5.2-3.4,10.2-7.6,13.2c-2.1,1.5-4.6,2.6-7.1,3.1c-2.5,0.5-5.2,0.5-7.7-0.1l-0.1,0l0-0.1c-0.7-1.9-1.4-3.7-2.3-5.5
			c-0.9-1.8-1.9-3.5-3.1-5.1c-2.4-3.2-5.5-5.8-9.2-7.2l-0.3-0.1l0-0.3c0-2.4,0.5-4.9,1.4-7.1c1-2.2,2.4-4.3,4.2-6
			C214.5,13.6,219.3,11.8,224.1,11.8z"/>
	</g>
	<g>
		<path class="st0" d="M161.9,30.5c0-0.1,0-0.2,0-0.3c0-10.1-8.2-18.3-18.3-18.3c-10.1,0-18.3,8.2-18.3,18.3
			c0,10.1,8.2,18.3,18.3,18.3c1.9,0,3.7-0.3,5.5-0.8C150.4,39.8,154.6,32.6,161.9,30.5z"/>
		<path class="st2" d="M161.9,30.4c-0.1-3.8-1.3-7.6-3.5-10.6c-2.2-3-5.4-5.4-8.9-6.6c-1.8-0.6-3.6-0.9-5.5-1
			c-1.9-0.1-3.8,0.2-5.6,0.7c-1.8,0.5-3.6,1.3-5.1,2.4c-1.6,1.1-3,2.4-4.1,3.9c-1.1,1.5-2,3.2-2.6,5c-0.6,1.8-0.9,3.7-0.9,5.6
			c0,3.8,1.2,7.5,3.5,10.6c2.2,3,5.3,5.4,8.9,6.5c3.5,1.2,7.4,1.3,11,0.2l-0.3,0.4c0.7-3.8,2-7.5,4.2-10.6c1.1-1.6,2.4-3,4-4.1
			C158.3,31.7,160.1,30.9,161.9,30.4z M161.9,30.5c-3.6,1.1-6.6,3.7-8.6,6.8c-2,3.1-3.2,6.7-3.8,10.4l0,0.3l-0.3,0.1
			c-3.8,1.2-7.9,1.2-11.6-0.1c-3.7-1.3-7-3.8-9.3-7c-2.3-3.2-3.4-7.2-3.3-11.1c0.1-3.9,1.5-7.7,3.8-10.8c2.3-3.1,5.6-5.5,9.3-6.7
			c1.9-0.6,3.8-0.9,5.8-0.9c2,0,3.9,0.3,5.8,1c3.7,1.3,7,3.8,9.2,7C161.1,22.7,162.2,26.6,161.9,30.5L161.9,30.5L161.9,30.5z"/>
	</g>
	<path class="st5" d="M237.1,17.2c1.4,9.9,0,21.4-10.3,18.8c-6.9-1.7-13.1-7.3-20.6-9.1c-0.2,1-0.3,2-0.3,3
		c7.6,3.2,11.7,10.4,14.6,18.1c1.2,0.2,2.4,0.4,3.7,0.4c10.1,0,18.3-8.2,18.3-18.3C242.4,25.1,240.4,20.5,237.1,17.2z"/>
	<path class="st5" d="M148,12c3.4,2.7,5.3,7.4,3.9,12.2c-2.9,7.8-9.8,15.5-9.4,23.9c0.6,0.1,1.2,0.1,1.8,0.1c1.9,0,3.7-0.3,5.5-0.8
		c1.2-7.8,5.5-15.1,12.8-17.2c0-0.1,0-0.2,0-0.3C162.7,21.1,156.4,13.7,148,12z"/>
	<g>
		<defs>
			<path id="SVGID_1_" d="M183.5,127.3c0,0-13.7-1.2-23.6-27.3c-10-26.2-26.5-9.8-26.5-9.8s15.7-11.2,24.7,12.3
				c9,23.5,20.9,30,24.9,29.1C183,131.6,186.2,130.2,183.5,127.3z"/>
		</defs>
		<clipPath id="SVGID_2_">
			<use xlink:href="#SVGID_1_"  style="overflow:visible;"/>
		</clipPath>
		<g class="st3">
			<g>
				<path class="st2" d="M183.1,126.9c0.6,1.1,0.6,2.5,0.3,3.7c-0.3,1.2-1,2.4-2,3.1c0.5-1.1,1-2.2,1.3-3.3c0.2-0.6,0.2-1.1,0.3-1.7
					C183.1,128.1,183.1,127.5,183.1,126.9z"/>
			</g>
			<g>
				<path class="st2" d="M179.9,125.7c0.6,1.1,0.6,2.5,0.3,3.7c-0.3,1.2-1,2.4-2,3.1c0.5-1.1,1-2.2,1.3-3.3c0.2-0.6,0.2-1.1,0.3-1.7
					C179.9,126.9,180,126.3,179.9,125.7z"/>
			</g>
			<g>
				<path class="st2" d="M176.1,122.6c0.4,1.2,0.2,2.5-0.3,3.7c-0.5,1.2-1.4,2.2-2.5,2.7c0.7-1,1.4-2,1.8-3c0.2-0.5,0.4-1.1,0.6-1.6
					C175.9,123.8,176,123.2,176.1,122.6z"/>
			</g>
			<g>
				<path class="st2" d="M173.3,120.3c0.1,1.3-0.5,2.5-1.3,3.5c-0.8,1-1.9,1.7-3.1,2c1-0.8,1.8-1.6,2.6-2.5c0.4-0.4,0.7-0.9,1-1.4
					C172.7,121.4,173,120.8,173.3,120.3z"/>
			</g>
			<g>
				<path class="st2" d="M171.1,116.5c0,1.3-0.6,2.5-1.5,3.4c-0.9,0.9-2,1.6-3.3,1.8c1-0.7,1.9-1.4,2.7-2.3c0.4-0.4,0.8-0.9,1.1-1.4
					C170.5,117.5,170.8,117,171.1,116.5z"/>
			</g>
			<g>
				<path class="st2" d="M167.7,113.9c-0.2,1.2-1,2.3-2,3.2c-1,0.8-2.2,1.3-3.5,1.3c1.1-0.6,2.1-1.1,3-1.9c0.5-0.4,0.9-0.8,1.3-1.2
					C167,114.9,167.4,114.4,167.7,113.9z"/>
			</g>
			<g>
				<path class="st2" d="M166,110.1c-0.2,1.2-1,2.3-2,3.2c-1,0.8-2.2,1.3-3.5,1.3c1.1-0.6,2.1-1.1,3-1.9c0.5-0.4,0.9-0.8,1.3-1.2
					C165.3,111,165.7,110.6,166,110.1z"/>
			</g>
			<g>
				<path class="st2" d="M164.4,106.2c-0.2,1.2-1,2.3-2,3.2c-1,0.8-2.2,1.3-3.5,1.3c1.1-0.6,2.1-1.1,3-1.9c0.5-0.4,0.9-0.8,1.3-1.2
					C163.6,107.1,164,106.7,164.4,106.2z"/>
			</g>
			<g>
				<path class="st2" d="M162.7,102.3c-0.2,1.2-1,2.3-2,3.2c-1,0.8-2.2,1.3-3.5,1.3c1.1-0.6,2.1-1.1,3-1.9c0.5-0.4,0.9-0.8,1.3-1.2
					C161.9,103.3,162.3,102.8,162.7,102.3z"/>
			</g>
			<g>
				<path class="st2" d="M161,98.4c-0.2,1.2-1,2.3-2,3.2c-1,0.8-2.2,1.3-3.5,1.3c1.1-0.6,2.1-1.1,3-1.9c0.5-0.4,0.9-0.8,1.3-1.2
					C160.3,99.4,160.7,98.9,161,98.4z"/>
			</g>
			<g>
				<path class="st2" d="M159.3,94.5c-0.2,1.2-1,2.3-2,3.2c-1,0.8-2.2,1.3-3.5,1.3c1.1-0.6,2.1-1.1,3-1.9c0.5-0.4,0.9-0.8,1.3-1.2
					C158.6,95.5,159,95,159.3,94.5z"/>
			</g>
			<g>
				<path class="st2" d="M156.6,91c-0.2,1.2-1,2.3-2,3.2c-1,0.8-2.2,1.3-3.5,1.3c1.1-0.6,2.1-1.1,3-1.9c0.5-0.4,0.9-0.8,1.3-1.2
					C155.9,91.9,156.3,91.5,156.6,91z"/>
			</g>
			<g>
				<path class="st2" d="M152.2,85.4c0.4,1.2,0.2,2.5-0.2,3.7c-0.5,1.2-1.3,2.2-2.4,2.8c0.7-1,1.3-2,1.8-3.1
					c0.2-0.5,0.4-1.1,0.6-1.7C152,86.6,152.1,86,152.2,85.4z"/>
			</g>
			<g>
				<path class="st2" d="M148.1,83.4c0.5,1.2,0.4,2.5,0,3.7c-0.4,1.2-1.2,2.3-2.3,2.9c0.6-1.1,1.2-2.1,1.6-3.2
					c0.2-0.5,0.3-1.1,0.5-1.7C147.9,84.6,148,84,148.1,83.4z"/>
			</g>
			<g>
				<path class="st2" d="M142.9,83.8c0.7,1,0.9,2.4,0.8,3.6c-0.2,1.3-0.7,2.5-1.6,3.3c0.4-1.2,0.7-2.3,0.9-3.4
					c0.1-0.6,0.1-1.2,0.1-1.7C143,85,143,84.4,142.9,83.8z"/>
			</g>
		</g>
	</g>
</g>
</svg>
