<?xml version="1.0" encoding="utf-8"?>
<!-- Generator: Adobe Illustrator 15.1.0, SVG Export Plug-In . SVG Version: 6.00 Build 0)  -->
<!DOCTYPE svg PUBLIC "-//W3C//DTD SVG 1.1//EN" "http://www.w3.org/Graphics/SVG/1.1/DTD/svg11.dtd">
<svg version="1.1" id="rat" xmlns="http://www.w3.org/2000/svg" xmlns:xlink="http://www.w3.org/1999/xlink" x="0px" y="0px"
	 width="808px" height="517px" viewBox="0 0 808 517" style="enable-background:new 0 0 808 517;" xml:space="preserve">
<style type="text/css">
<![CDATA[
	.st0{fill:#FFFFFF;stroke:#000000;stroke-miterlimit:10;}
	.st1{opacity:0.17;}
	.st2{opacity:0.19;}
	.st3{opacity:0.24;}
	.st4{fill:#B79069;}
	.st5{opacity:0.38;fill:url(#SVGID_1_);}
	.st6{opacity:0.38;fill:url(#SVGID_2_);}
	.st7{opacity:0.45;fill:#FDACBD;}
	.st8{fill:#F69D01;}
	.st9{opacity:0.24;fill:#F69D01;}
	.st10{fill:#FCC581;stroke:#000000;stroke-miterlimit:10;}
	.st11{opacity:0.25;fill:#078D9E;}
	.st12{fill:#FFFFFF;}
	.st13{fill:#7AD7EE;stroke:#000000;stroke-miterlimit:10;}
	.st14{fill:#006283;}
]]>
</style>
<g class="st1">
	<path d="M793.4,149.5c0-1.2,0-2.5-0.1-3.7c0-0.4,0-0.7,0-1.1c0-0.9-0.1-1.8-0.2-2.7c0-0.4-0.1-0.7-0.1-1.1c-0.1-1-0.2-2-0.3-3
		c0-0.2,0-0.4-0.1-0.6c-0.1-1.3-0.3-2.5-0.5-3.8c0,0,0-0.1,0-0.1c-0.2-1.2-0.4-2.4-0.6-3.6c0-0.2-0.1-0.4-0.1-0.6
		c-0.2-1.1-0.4-2.2-0.7-3.2c0-0.2-0.1-0.3-0.1-0.5c-0.6-2.5-1.2-5-2-7.5c0,0,0,0,0,0c0,0,0,0,0,0C773.2,67,721.3,29,658.5,25.7l0,0
		c0,0,0,0,0,0c-1.4-0.1-2.8-0.1-4.2-0.2c-0.1,0-0.2,0-0.3,0c-1.5,0-2.9-0.1-4.4-0.1c-67.6,0-124.3,40.3-139.6,94.5
		c-33.1-9.8-69.3-15.2-107.4-15.2c-38.8,0-74.9,5.6-107.1,15.8c-15.1-54-71.4-94-138.5-94c-1.3,0-2.7,0-4,0.1c-0.4,0-0.8,0-1.3,0
		c-0.9,0-1.8,0.1-2.7,0.1c-0.5,0-1,0.1-1.4,0.1c-0.9,0-1.7,0.1-2.6,0.2c-0.5,0-1,0.1-1.4,0.1c-0.9,0.1-1.8,0.2-2.6,0.2
		c-0.4,0-0.9,0.1-1.3,0.1c-1,0.1-2,0.2-3,0.3c-0.3,0-0.6,0.1-0.9,0.1c-2.7,0.3-5.3,0.8-7.9,1.2c-0.1,0-0.2,0-0.4,0.1
		c-1.2,0.2-2.3,0.4-3.5,0.7c-0.2,0-0.5,0.1-0.7,0.1c-1.1,0.2-2.1,0.5-3.2,0.7c-0.2,0.1-0.5,0.1-0.7,0.2c-1.1,0.3-2.2,0.5-3.3,0.8
		c-0.2,0-0.3,0.1-0.5,0.1c-6.4,1.7-12.7,3.7-18.7,6.2c0,0-0.1,0-0.1,0c-48.6,19.6-82.4,62.1-82.4,111.5c0,20.2,5.6,39.2,15.6,56
		c0.1,0.1,0.1,0.2,0.2,0.4c1.3,2.2,2.7,4.3,4.2,6.5c0.1,0.1,0.1,0.2,0.2,0.3c0.7,1,1.4,2,2.1,3c0,0,0.1,0.1,0.1,0.1
		c0.8,1.1,1.6,2.1,2.4,3.2c0,0,0,0,0,0c0.8,1,1.6,2,2.4,2.9c0.1,0.1,0.2,0.2,0.3,0.3c1.7,2,3.4,3.9,5.2,5.8c0.1,0.1,0.2,0.2,0.3,0.3
		c0.8,0.9,1.7,1.7,2.6,2.6c0.1,0.1,0.1,0.1,0.2,0.2c1,0.9,1.9,1.8,2.9,2.7c0,0,0.1,0.1,0.1,0.1c0.9,0.8,1.8,1.6,2.8,2.4
		c0.1,0.1,0.3,0.3,0.4,0.4c2,1.7,4,3.3,6.1,4.9c0.2,0.1,0.3,0.3,0.5,0.4c0.9,0.7,1.9,1.4,2.8,2.1c0.1,0.1,0.2,0.2,0.4,0.3
		c1.1,0.8,2.2,1.5,3.3,2.3c0.1,0.1,0.2,0.1,0.3,0.2c1,0.6,2,1.3,3,1.9c0.2,0.1,0.4,0.3,0.6,0.4c2.2,1.4,4.5,2.7,6.8,4
		c0.2,0.1,0.5,0.3,0.7,0.4c1,0.5,2,1.1,3,1.6c0.2,0.1,0.4,0.2,0.6,0.3c1.2,0.6,2.4,1.2,3.6,1.8c0.2,0.1,0.4,0.2,0.6,0.3
		c1,0.5,2,0.9,3.1,1.4c0.3,0.1,0.6,0.3,0.9,0.4c2.4,1.1,4.9,2.1,7.4,3c0.3,0.1,0.6,0.2,0.9,0.3c1,0.4,2.1,0.7,3.1,1.1
		c0.3,0.1,0.5,0.2,0.8,0.3c1.3,0.4,2.5,0.8,3.8,1.2c0.3,0.1,0.5,0.2,0.8,0.2c1,0.3,2.1,0.6,3.2,0.9c0.3,0.1,0.7,0.2,1,0.3
		c2.6,0.7,5.2,1.4,7.8,2c0.4,0.1,0.7,0.2,1.1,0.2c1.1,0.2,2.1,0.4,3.2,0.7c0.3,0.1,0.6,0.1,0.9,0.2c1.3,0.3,2.7,0.5,4,0.7
		c0.3,0,0.6,0.1,0.9,0.1c1.1,0.2,2.2,0.3,3.3,0.5c0.4,0.1,0.8,0.1,1.1,0.2c1.4,0.2,2.7,0.3,4.1,0.5c-2.3,11-3.6,22.4-3.6,34
		c0,32.4,6.8,60.6,12.2,86c0.2,0.9,0.4,1.9,0.6,2.8c0.1,0.3,0.1,0.6,0.2,0.9c0.1,0.6,0.3,1.2,0.4,1.8c0.1,0.3,0.2,0.7,0.3,1
		c0.1,0.5,0.3,1.1,0.4,1.6c0.1,0.4,0.2,0.7,0.3,1.1c0.1,0.5,0.3,1,0.4,1.5c0.1,0.4,0.2,0.7,0.3,1.1c0.1,0.5,0.3,1,0.4,1.5
		c0.1,0.3,0.2,0.7,0.3,1c0.2,0.5,0.3,1,0.5,1.5c0.1,0.3,0.2,0.6,0.3,1c0.2,0.5,0.4,1,0.6,1.5c0.1,0.3,0.2,0.5,0.3,0.8
		c0.3,0.8,0.6,1.5,0.9,2.2c0.1,0.1,0.1,0.3,0.2,0.4c0.2,0.6,0.5,1.2,0.7,1.8c0.1,0.3,0.3,0.6,0.4,0.8c0.2,0.4,0.4,0.9,0.6,1.3
		c0.1,0.3,0.3,0.6,0.4,0.9c0.2,0.4,0.4,0.8,0.6,1.2c0.2,0.3,0.3,0.6,0.5,0.9c0.2,0.4,0.4,0.7,0.6,1.1c0.2,0.3,0.3,0.6,0.5,0.9
		c0.2,0.4,0.4,0.7,0.6,1.1c0.2,0.3,0.4,0.6,0.5,0.9c0.2,0.3,0.4,0.7,0.7,1c0.2,0.3,0.4,0.6,0.5,0.9c0.2,0.4,0.5,0.7,0.7,1.1
		c0.2,0.3,0.3,0.5,0.5,0.8c0.4,0.5,0.8,1.1,1.2,1.6c0.2,0.3,0.4,0.5,0.6,0.8c0.3,0.3,0.5,0.7,0.8,1c0.2,0.3,0.4,0.5,0.7,0.8
		c0.2,0.3,0.5,0.6,0.8,0.9c0.2,0.3,0.5,0.5,0.7,0.8c0.2,0.3,0.5,0.5,0.8,0.8c0.2,0.3,0.5,0.5,0.8,0.8c0.3,0.3,0.5,0.5,0.8,0.8
		c0.3,0.3,0.5,0.5,0.8,0.8c0.3,0.3,0.5,0.5,0.8,0.8c0.3,0.3,0.5,0.5,0.8,0.8c0.3,0.2,0.6,0.5,0.8,0.7c0.3,0.2,0.6,0.5,0.8,0.7
		c0.3,0.2,0.6,0.5,0.9,0.7c0.3,0.2,0.6,0.5,0.9,0.7c0.4,0.3,0.9,0.7,1.3,1s0.9,0.7,1.3,1c0.3,0.2,0.6,0.4,0.9,0.7
		c0.3,0.2,0.7,0.5,1,0.7c0.3,0.2,0.6,0.4,0.9,0.6c0.3,0.2,0.7,0.4,1.1,0.7c0.3,0.2,0.6,0.4,1,0.6c0.4,0.2,0.7,0.4,1.1,0.7
		c0.3,0.2,0.7,0.4,1,0.6c0.4,0.2,0.8,0.4,1.1,0.6c0.3,0.2,0.7,0.4,1,0.6c0.4,0.2,0.8,0.4,1.2,0.6c0.3,0.2,0.7,0.4,1,0.5
		c0.4,0.2,0.8,0.4,1.2,0.6c0.3,0.2,0.7,0.3,1,0.5c1.6,0.8,3.3,1.5,5,2.2c0.4,0.2,0.7,0.3,1.1,0.5c0.5,0.2,0.9,0.4,1.4,0.6
		c0.4,0.2,0.8,0.3,1.2,0.5c0.5,0.2,1,0.4,1.4,0.6c0.4,0.2,0.8,0.3,1.2,0.5c0.5,0.2,1,0.4,1.5,0.5c0.4,0.2,0.8,0.3,1.3,0.4
		c0.5,0.2,1,0.4,1.5,0.5c0.4,0.1,0.9,0.3,1.3,0.4c0.5,0.2,1,0.4,1.6,0.5c0.4,0.1,0.9,0.3,1.3,0.4c0.5,0.2,1.1,0.3,1.6,0.5
		c0.4,0.1,0.9,0.3,1.3,0.4c1.4,0.4,2.7,0.8,4.1,1.2c0.2,0.1,0.4,0.1,0.5,0.2c0.6,0.2,1.3,0.3,1.9,0.5c0.5,0.1,0.9,0.2,1.3,0.4
		c0.6,0.2,1.2,0.3,1.9,0.5c0.5,0.1,1,0.3,1.5,0.4c0.6,0.2,1.3,0.3,1.9,0.5c0.5,0.1,1,0.3,1.5,0.4c0.6,0.2,1.3,0.3,1.9,0.5
		c0.5,0.1,1,0.2,1.5,0.4c0.7,0.2,1.3,0.3,2,0.5c0.5,0.1,1,0.2,1.6,0.4c0.7,0.2,1.4,0.3,2.1,0.5c0.5,0.1,1.1,0.2,1.6,0.3
		c0.7,0.2,1.4,0.3,2.2,0.5c0.4,0.1,0.9,0.2,1.3,0.3c1.8,0.4,3.6,0.8,5.5,1.2c0.2,0,0.4,0.1,0.7,0.1c0.8,0.2,1.7,0.3,2.5,0.5
		c0.5,0.1,1,0.2,1.5,0.3c0.8,0.2,1.7,0.3,2.5,0.5c0.5,0.1,1.1,0.2,1.6,0.3c0.8,0.2,1.7,0.3,2.5,0.5c0.6,0.1,1.1,0.2,1.7,0.3
		c0.9,0.2,1.7,0.3,2.6,0.5c0.6,0.1,1.1,0.2,1.7,0.3c0.9,0.2,1.8,0.3,2.7,0.5c0.5,0.1,1.1,0.2,1.6,0.3c1,0.2,1.9,0.3,2.9,0.5
		c0.4,0.1,0.9,0.2,1.3,0.2c5.3,0.9,10.9,1.9,16.6,2.8c0.2,0,0.3,0.1,0.5,0.1c0,0,0,0,0,0c12.9,2.1,26.9,4.4,42.2,6.8
		c-3.5,7.9-10,22-12.4,26.1c0,0-97.8,150.4,0,252.1c0,0,31.3,47.2,36.4-12.5l7.1-36.7l7.6,0.2l17.2,0.4l9.7,0.2
		c0,0,25.1,75.9,44.6,69.1c0,0,126.5-89.5,20.1-296.8v-2.9c38.3-3.4,70.9-9.9,98.4-19.1c0.2-0.1,0.4-0.1,0.6-0.2
		c1.1-0.4,2.2-0.8,3.3-1.1c0.4-0.1,0.8-0.3,1.2-0.4c1.1-0.4,2.1-0.8,3.2-1.2c0.3-0.1,0.6-0.2,0.9-0.3c3.5-1.3,6.8-2.6,10.1-4
		c0.3-0.1,0.7-0.3,1-0.4c1-0.4,1.9-0.8,2.9-1.3c0.4-0.2,0.7-0.3,1.1-0.5c1-0.4,2-0.9,2.9-1.3c0,0,0.1,0,0.1,0c2.2-1,4.3-2,6.3-3.1
		c0.2-0.1,0.4-0.2,0.7-0.3c0.9-0.5,1.8-0.9,2.7-1.4c0.4-0.2,0.7-0.4,1.1-0.6c0.9-0.5,1.7-0.9,2.6-1.4c0.3-0.2,0.6-0.3,0.9-0.5
		c2.8-1.6,5.5-3.2,8.1-4.8c0.3-0.2,0.7-0.4,1-0.6c0.8-0.5,1.5-1,2.3-1.5c0.4-0.2,0.7-0.5,1.1-0.7c0.8-0.5,1.5-1,2.2-1.5
		c0.2-0.1,0.4-0.3,0.6-0.4c1.5-1.1,3-2.1,4.5-3.2c0.3-0.2,0.6-0.4,0.9-0.6c0.7-0.5,1.3-1,2-1.5c0.4-0.3,0.7-0.6,1.1-0.9
		c0.6-0.5,1.3-1,1.9-1.5c0.3-0.3,0.7-0.6,1-0.8c2.1-1.8,4.1-3.5,6.1-5.4c0.4-0.3,0.7-0.7,1-1c0.5-0.5,1.1-1,1.6-1.6
		c0.4-0.4,0.7-0.7,1.1-1.1c0.5-0.5,1.1-1,1.6-1.6c0.3-0.3,0.7-0.7,1-1c0.9-1,1.8-1.9,2.7-2.9c0.3-0.4,0.7-0.8,1-1.1
		c0.5-0.5,0.9-1.1,1.4-1.6c0.4-0.4,0.7-0.8,1-1.2c0.4-0.5,0.9-1,1.3-1.6c0.4-0.4,0.7-0.9,1-1.3c0.5-0.6,1-1.2,1.4-1.8
		c0.6-0.8,1.2-1.5,1.7-2.3c0.4-0.5,0.7-1,1.1-1.5c0.3-0.5,0.7-1,1-1.5c0.4-0.5,0.7-1,1.1-1.6c0.3-0.5,0.7-1,1-1.5
		c0.3-0.5,0.7-1,1-1.5c0.4-0.6,0.8-1.2,1.1-1.9c0.4-0.7,0.9-1.5,1.3-2.2c0.4-0.6,0.7-1.2,1.1-1.9c0.3-0.5,0.6-1,0.8-1.5
		c0.3-0.6,0.6-1.1,0.9-1.7c0.3-0.5,0.5-1,0.8-1.5c0.3-0.6,0.6-1.3,0.9-1.9c0.2-0.5,0.5-0.9,0.7-1.4c0.5-1,1-2,1.4-3.1
		c0.2-0.5,0.4-0.9,0.6-1.4c0.3-0.7,0.6-1.3,0.9-2c0.2-0.5,0.4-1,0.6-1.5c0.3-0.7,0.5-1.3,0.8-2c0.2-0.5,0.4-0.9,0.5-1.4
		c0.3-0.9,0.7-1.9,1-2.8c0.1-0.4,0.3-0.8,0.4-1.3c0.3-0.9,0.6-1.8,0.9-2.7c0.1-0.5,0.3-0.9,0.4-1.4c0.2-0.7,0.5-1.5,0.7-2.2
		c0.1-0.5,0.3-0.9,0.4-1.4c0.2-0.8,0.5-1.7,0.7-2.5c0.1-0.4,0.2-0.8,0.3-1.1c0.3-1.2,0.6-2.4,0.9-3.6c0.1-0.4,0.2-0.8,0.3-1.1
		c0.2-0.9,0.4-1.7,0.6-2.6c0.1-0.5,0.2-0.9,0.3-1.4c0.2-0.8,0.3-1.7,0.5-2.5c0.1-0.4,0.2-0.9,0.2-1.3c0.2-1.2,0.4-2.4,0.6-3.6
		c0-0.1,0-0.3,0.1-0.4c0.2-1.2,0.4-2.4,0.5-3.6c0.1-0.4,0.1-0.9,0.2-1.3c0.1-0.9,0.2-1.8,0.3-2.7c0.1-0.5,0.1-0.9,0.1-1.4
		c0.1-1,0.2-2,0.3-3c0-0.3,0.1-0.7,0.1-1c0.1-1.3,0.2-2.6,0.3-4c0-0.3,0-0.7,0.1-1c0.1-1,0.1-2.1,0.2-3.1c0-0.5,0-0.9,0.1-1.4
		c0-1,0.1-1.9,0.1-2.9c0-0.4,0-0.8,0-1.3c0-1.4,0-2.8,0-4.1c0-11.8-1.5-23.4-4.3-34.7C744.5,259,793.4,209.2,793.4,149.5z"/>
	<g>
		<path d="M793.4,149.5c0-10.7-1.6-21.4-4.7-31.6l0,0l0,0l0,0v0v0.1l0-0.1c-4.4-14.3-11.7-27.7-21.1-39.3
			C758.1,66.9,746.6,57,733.9,49c-12.7-7.9-26.6-13.9-41-17.8c-14.4-3.9-29.4-5.8-44.4-5.7c-15,0.1-29.9,2.2-44.3,6.3
			c-14.4,4.1-28.2,10.3-40.7,18.4c-12.5,8.1-23.9,18.2-33.1,30c-9.2,11.8-16.3,25.3-20.3,39.7l0,0.1l-0.1,0
			c-34.8-10.2-71.1-15.2-107.3-15.2c-36.2,0-72.6,4.9-107.1,15.8l-0.2,0.1l-0.1-0.2c-5.2-18.6-15.4-35.6-28.8-49.5
			c-13.4-13.9-29.8-24.8-47.6-32.2c-17.8-7.4-37-11.5-56.2-12.1c-19.3-0.6-38.7,2-56.9,8.1c-18.3,6.1-35.5,15.6-50,28.3
			C41.2,76,29.4,91.9,22.4,109.8c-3.5,9-5.9,18.4-6.9,27.9c-1,9.6-0.8,19.3,0.7,28.8c1.5,9.5,4.4,18.8,8.4,27.5
			c4,8.8,9.1,17,15.1,24.6l0,0c6,7.6,12.9,14.5,20.5,20.5c7.6,6.1,15.8,11.3,24.4,15.8c8.6,4.4,17.7,8,27,10.7
			c9.3,2.7,18.9,4.5,28.5,5.6l0.5,0l-0.1,0.4c-2.6,12.3-3.8,24.8-3.5,37.4c0.2,12.6,1.4,25.1,3.3,37.5c1.9,12.4,4.5,24.7,7.2,37
			c1.3,6.2,2.5,12.3,4.3,18.3c1.7,6,3.9,11.9,6.8,17.5c2.9,5.6,6.5,10.7,10.8,15.2c4.3,4.5,9.3,8.4,14.7,11.6
			c10.7,6.5,22.7,10.7,34.7,14.1c12.1,3.4,24.4,6.1,36.7,8.5c12.3,2.4,24.7,4.6,37.1,6.6l-0.1,1h0l0.1-1c14.1,2.3,28.1,4.6,42.2,6.8
			l0.6,0.1l-0.3,0.6c-2.6,5.7-5.2,11.4-7.9,17.1c-1.4,2.8-2.7,5.7-4.2,8.4c-1.7,2.7-3.3,5.3-4.8,8.1c-6.2,10.9-11.7,22.1-16.6,33.6
			c-9.7,23-17,47.2-20.4,72c-1.7,12.4-2.4,24.9-1.8,37.4c0.6,12.5,2.5,24.9,5.9,36.9c3.4,12,8.3,23.6,14.6,34.4
			c6.3,10.8,13.9,20.8,22.6,29.8l0,0l0,0c3.1,4.4,6.6,8.6,10.6,12.2c2,1.8,4.2,3.3,6.7,4.4c2.4,1,5.2,1.4,7.6,0.3
			c2.4-1.1,4.1-3.3,5.4-5.6c1.3-2.4,2.1-4.9,2.8-7.5c1.4-5.2,2.1-10.6,2.6-16l0,0l0,0l7.1-36.7l0.1-0.3l0.3,0l34.6,0.9l0.2,0
			l0.1,0.2c2.3,6.8,4.8,13.5,7.5,20.2c2.7,6.7,5.6,13.3,8.8,19.7c3.2,6.4,6.7,12.7,10.9,18.5c2.1,2.9,4.5,5.6,7.3,7.8
			c1.4,1.1,2.9,2,4.6,2.6c1.7,0.6,3.5,0.6,5.1,0l-0.1,0c5.3-4,10.2-8.7,14.8-13.6c4.6-4.9,8.8-10.1,12.8-15.5
			c7.9-10.9,14.5-22.6,19.7-35c10.5-24.7,15.3-51.7,15.3-78.5c0-26.9-4.6-53.6-12.2-79.3c-7.6-25.8-18.1-50.6-30.3-74.5l0,0v0l0-2.9
			V482l0.2,0c29-2.6,57.9-7.1,85.9-15.2c14-4.1,27.7-9,40.9-15.3c13.1-6.3,25.7-13.8,37.1-22.9c11.4-9.1,21.5-19.8,29.6-31.9
			c8.2-12.1,14.3-25.5,18.4-39.5c4.1-14,6.2-28.5,6.7-43.1c0.1-3.6,0.2-7.3,0.2-10.9c-0.1-3.6-0.3-7.3-0.6-10.9
			c-0.7-7.3-1.9-14.4-3.6-21.5l0-0.1l0.1,0c14.8-2.7,29.2-7.4,42.7-14.2c13.4-6.8,25.9-15.6,36.5-26.3c10.6-10.6,19.4-23.2,25.5-37
			C790.2,179.6,793.4,164.6,793.4,149.5z M793.4,149.5c0,15.1-3.2,30.1-9.2,43.9c-6,13.8-14.8,26.3-25.5,37
			c-10.6,10.7-23.1,19.5-36.5,26.3c-13.4,6.8-27.9,11.6-42.7,14.3l0-0.1c1.7,7.1,3,14.3,3.7,21.5c0.3,3.6,0.5,7.3,0.6,10.9
			c0,3.6,0,7.3-0.2,10.9c-0.6,14.6-2.6,29.1-6.7,43.1c-4.1,14-10.2,27.4-18.4,39.5c-8.1,12.1-18.3,22.8-29.6,32
			c-11.4,9.1-24,16.7-37.1,23c-13.2,6.3-26.9,11.3-40.9,15.3c-28,8.1-57,12.7-86,15.3l0.2-0.2l0,2.9l0-0.1
			c12.3,23.9,22.8,48.8,30.4,74.6c7.6,25.8,12.3,52.5,12.3,79.5c0,26.9-4.8,53.9-15.3,78.7c-5.2,12.4-11.9,24.2-19.8,35.1
			c-4,5.4-8.2,10.7-12.8,15.6c-4.6,4.9-9.5,9.6-14.9,13.7l0,0l0,0c-1.8,0.6-3.7,0.6-5.5,0c-1.8-0.6-3.3-1.6-4.8-2.7
			c-2.9-2.3-5.2-5.1-7.4-8c-4.3-5.8-7.8-12.2-11-18.6c-3.2-6.5-6.1-13.1-8.8-19.7c-2.7-6.7-5.3-13.4-7.6-20.3l0.3,0.2l-34.6-0.8
			l0.3-0.3l-7.1,36.7l0,0c-0.5,5.4-1.2,10.9-2.6,16.1c-0.7,2.6-1.6,5.3-2.9,7.7c-1.3,2.4-3.1,4.8-5.7,6c-1.3,0.6-2.7,0.8-4.1,0.7
			c-1.4-0.1-2.8-0.5-4.1-1c-2.6-1.1-4.8-2.7-6.9-4.5c-4.1-3.6-7.7-7.8-10.8-12.3l0,0.1c-8.7-9-16.4-19.1-22.7-29.9
			c-6.3-10.9-11.3-22.5-14.7-34.6c-3.4-12.1-5.4-24.6-6-37.1c-0.6-12.5,0.1-25.1,1.7-37.6c3.4-24.9,10.7-49.1,20.5-72.2
			c4.9-11.6,10.4-22.8,16.6-33.8c1.5-2.7,3.2-5.4,4.8-8.1c1.5-2.7,2.9-5.5,4.2-8.4c2.7-5.7,5.3-11.4,7.8-17.1l0.4,0.7
			c-14.1-2.2-28.2-4.5-42.2-6.8l0.1-1h0l-0.1,1c-12.4-2.1-24.8-4.2-37.2-6.6c-12.3-2.4-24.7-5.1-36.8-8.6
			c-12.1-3.5-24.1-7.7-35-14.3c-5.4-3.3-10.5-7.2-14.8-11.8c-4.4-4.6-8-9.8-10.9-15.5c-2.9-5.6-5.1-11.6-6.9-17.6
			c-1.8-6.1-3-12.3-4.3-18.4c-2.6-12.3-5.2-24.6-7.1-37.1c-1.9-12.4-3.1-25-3.3-37.6c-0.2-12.6,0.9-25.2,3.6-37.6l0.4,0.5
			c-9.7-1-19.3-2.9-28.6-5.6c-9.4-2.7-18.4-6.3-27.1-10.8c-8.7-4.5-16.9-9.7-24.5-15.9c-7.6-6.1-14.5-13-20.6-20.7l0.1,0.1l-0.1-0.1
			c-6-7.6-11.1-15.9-15.1-24.7c-4-8.8-6.8-18.2-8.4-27.7s-1.8-19.3-0.7-29c1.1-9.6,3.4-19.1,7-28.1c7.1-18,19-34,33.6-46.7
			c14.6-12.7,31.8-22.3,50.2-28.4c18.4-6.1,37.8-8.8,57.2-8.1C182,27,201.2,31,219.1,38.5c17.8,7.5,34.3,18.4,47.7,32.3
			c13.4,13.9,23.7,31,28.9,49.7l-0.3-0.1c34.6-10.9,71-15.8,107.3-15.8c36.3,0,72.6,5,107.4,15.3l-0.2,0.1
			c4.1-14.4,11.2-28,20.4-39.7c9.2-11.8,20.6-21.9,33.1-30.1c12.6-8.1,26.4-14.3,40.8-18.4c14.4-4.1,29.4-6.2,44.3-6.3
			c15-0.1,30,1.8,44.4,5.8C707.4,35,721.3,41,734,49c12.7,7.9,24.2,17.9,33.6,29.5c9.4,11.6,16.7,25,21.1,39.3l0,0v0v-0.1l0,0.1l0,0
			l0,0l0,0C791.8,128.1,793.4,138.8,793.4,149.5z"/>
	</g>
</g>
<g>
	<path class="st10" d="M559.9,383.4c-4.5-27.3-6.2-25.4-6.5-38.3c-1.9-83.7-84.7-122.8-187-122.8c-102.3,0-175,19.6-183.4,117.5
		c-1.3,15.5,6.8,31.4,6.6,45.4c-0.2,14-6.6,23.7-6.6,35.5c0,39.3,45.5,62.4,193.9,62.4c148.7,0,193.9-23.2,193.9-62.4
		C570.9,406.1,564.4,410.7,559.9,383.4z"/>
	<path class="st9" d="M558.2,373.3c4.3,7.7,9.2,15,15.5,21.3c-2.3-4.2-5.1-9.8-7.5-24c-4.5-27.6-6.3-25.7-6.6-38.7
		c-1.9-84.6-85.9-124.2-189.6-124.2c-59.1,0-108.4,6.5-141.5,30.3c-25,18-40.8,45.9-44.4,88.5c-1,11.7,3.3,23.6,5.5,34.8
		c11.7-20.3,0-46.2,9.3-67c-3.7,10.6,3.7,17.6,3.7,28.2c3.4-29.2,19.2-49.4,33.2-74.4c26.2,32.3,72.7,43.7,113.9,49.8
		c-7.4-10.6-14.7-21.1-25.7-28.2c25.7,14.1,62.5,14.1,84.5,38.8c7.3-7.1,0-17.6,3.7-24.7c22.1,45.8,69.8,28.2,106.6,38.8
		c-3.7-14.1-18.4-17.6-29.4-24.7c27.1,4.6,40.4,19.8,50.3,37.8c4,41.7-22.8,82.7-56.7,97.1c-26.4,11.3-55.8,13.8-83.9,17
		c-65,7.4-148.4,10.7-214.3-40.2c-0.9,3.7-1.6,7.3-1.6,11.2c0,39.3,45.5,62.4,193.9,62.4c148.7,0,193.9-23.2,193.9-62.4
		c0-14.6-6.5-10-11-37.2C559.3,379.5,558.7,376.2,558.2,373.3z"/>
	<path d="M573.7,390.8c-2.3-4.2-5.1-9.8-7.5-24c-4.5-27.6-6.3-25.7-6.6-38.7c-1.9-84.6-85.9-124.2-189.6-124.2
		c-59.1,0-108.4,6.5-141.5,30.3c-25,18-40.8,45.9-44.4,88.5c-1,11.7,3.3,23.6,5.5,34.8c11.7-20.3,0-46.2,9.3-67
		c-3.7,10.6,3.7,17.6,3.7,28.2c3.4-29.2,19.2-49.4,33.2-74.4c26.2,32.3,72.7,43.7,113.9,49.8c-7.4-10.6-14.7-21.1-25.7-28.2
		c25.7,14.1,62.5,14.1,84.5,38.8c7.3-7.1,0-17.6,3.7-24.7c22.1,45.8,69.8,28.2,106.6,38.8c-3.7-14.1-18.4-17.6-29.4-24.7
		C545.8,303.6,542.1,359.4,573.7,390.8z"/>
	<path class="st0" d="M376.8,240.9l3,72.6h25.1c0,0,17-5,19.5-74.1L376.8,240.9z"/>
	<path class="st0" d="M325.6,242.5c0,0,11.9,71,28.3,71h25.8l-3-72.6L325.6,242.5z"/>
	<path class="st2" d="M376.8,240.9l-8.3,0.3l0,0l-42.9,1.4c0,0,2,12.1,5.6,26.3c13.4-0.2,27.1-10.1,39.9-13.1
		c2.8,16.9,5,34,5.2,51.2c-11.2,0.6-23.1-2-34.2-5.5c3.5,7.2,7.5,12.1,11.8,12.1h22.4h3.5h25.1c0,0,17-5,19.5-74.1L376.8,240.9z
		 M396.7,300.9c-5.3,3.3-11.2,5-17.3,5.7l-2.1-51.7c0.5,0,0.9,0,1.4,0c10,1,25,6,29,14C411.7,277.9,404.7,294.9,396.7,300.9z"/>
	<path class="st13" d="M746.9,144.9c0-70.9-59-128.3-131.9-128.3c-62,0-114,41.6-128.1,97.7c-30.4-10.1-63.6-15.7-98.5-15.7
		c-35.6,0-68.7,5.8-98.3,16.3c-13.8-55.8-65.5-97.3-127.1-97.3c-72.2,0-130.7,56.9-130.7,127.2c0,65.1,50.3,118.7,115.1,126.3
		c-2.2,11.4-3.3,23.2-3.3,35.1c0,33.5,6.3,62.7,11.2,88.9c12.3,65.8,46.3,72.1,170.6,94.4c-3.2,8.2-9.1,22.8-11.4,27
		c0,0-89.7,155.5,0,260.7c0,0,28.7,48.8,33.4-12.9l6.5-37.9l7,0.2l15.8,0.4l8.9,0.2c0,0,23,78.5,40.9,71.4c0,0,116-92.5,18.4-306.9
		v-3c143.6-14.4,200.7-81.6,200.7-182.7c0-12.2-1.4-24.2-3.9-35.9C702.1,258.2,746.9,206.7,746.9,144.9z M426.1,479.6
		c0,0-231.3,18.4-221.1-74.5l-6.5-48.7c0,0-1.5-97.2,54.2-112.7c0,0,78.5,51.5,125.7,1.9c0,0,41.9,57.3,127.3-8.6
		c0,0,50.9,43.4,46.4,126.3l1.7,44.8C553.7,407.9,559.7,477.9,426.1,479.6z"/>
	<path class="st11" d="M184.7,30.9c55,10,83.9,38.6,100.9,89.6c64-13,142.1-17,205.1,4c16-56,53-95.7,115-105.7
		c5.8-0.9,11.6-1.6,17.4-2.1c-2.7-0.2-5.4-0.3-8.1-0.3c-62,0-114,41.6-128.1,97.7c-30.4-10.1-63.6-15.7-98.5-15.7
		c-35.6,0-68.7,5.8-98.3,16.3c-13.8-55.8-65.5-97.3-127.1-97.3c-21,0-40.9,4.8-58.4,13.4C131.4,30.2,157.7,25.2,184.7,30.9z"/>
	<path class="st11" d="M172.7,272.9c0-3,1-8,5-10c-27-4-55-6-81-18c-21-10.2-38.3-26.4-51.7-45.6c18.8,38.6,57.1,66.5,102.5,71.8
		c-2.2,11.4-3.3,23.2-3.3,35.1c0,33.5,6.3,62.7,11.2,88.9c11,58.3,38.9,69.9,131.9,87.4c-28-11.9-56.8-22.3-85.5-32.6
		C176.7,395.9,170.7,332.9,172.7,272.9z"/>
	<path class="st11" d="M746.9,144.9c0-11.3-1.5-22.3-4.3-32.7c3.1,43.1-5,87.9-43.8,113.8c-27,19-58,30-91,30c0,28,10,54,5,82
		c-8,50-43,86-74,124c-3.1,3.7-6.5,6.9-10.1,9.9c83-28.7,117.7-86.8,117.7-165.5c0-12.2-1.4-24.2-3.9-35.9
		C702.1,258.2,746.9,206.7,746.9,144.9z"/>
	<path class="st11" d="M252.7,243.6c0,0,78.5,51.5,125.7,1.9c0,0,41.9,57.3,127.3-8.6c0,0,30.5,26,42.2,76.3
		c-2-40.1-18.7-77.2-59.1-94.3c-17,13-35,25-54,32c-24,8-45-9-63-24c-32,34-79,23-116-2c-3-2-6-1-8,0
		c-25.3,19.9-39.4,48.1-42.4,78.2C212.2,277.7,225.7,251.1,252.7,243.6z"/>
	<linearGradient id="SVGID_1_" gradientUnits="userSpaceOnUse" x1="553.6143" y1="79.1177" x2="682.319" y2="207.8224">
		<stop  offset="1.818180e-002" style="stop-color:#078D9E"/>
		<stop  offset="1" style="stop-color:#078D9E;stop-opacity:0"/>
	</linearGradient>
	<path class="st5" d="M627.4,242.5c0,0-81.6-27-99.7-106.7C509.6,56,641.4,45.5,668,82.8c0,0,52.6,37,31.4,97.1
		C684.2,222.7,664.9,225.4,627.4,242.5z"/>
	<g>
		<path class="st14" d="M614.6,234.7c-10.9-4.4-22-11.7-33.2-21.2c4.7,0.1,9.7-1.4,14.2-4.9c9.1-7.1,11.8-18.9,6-26.3
			c-5-6.4-14.6-7.4-23-3.1c4.7-6.8,5.3-15.1,0.9-20.8c-5.8-7.4-17.9-7.6-27-0.5c-4.9,3.8-7.9,9-8.8,14.1
			c-16.1-25-17.9-50.1,7.3-76.4c34.8-36.4,91.9-38.3,127.4-4.2c16.4,15.7,25.3,36.2,26.8,57.4c-1.3-23.4-11.1-46.3-29.3-63.7
			c-38.1-36.5-98.7-35.2-135.2,2.9c-36.5,38.1-18.3,74.5,19.1,111.8c20.1,20.1,40,34.4,59.3,39.6
			C617.6,237.9,616.1,236.3,614.6,234.7z"/>
		<g>
			<path d="M614.6,234.8c-6.1-2.4-11.9-5.6-17.5-9.2c-5.5-3.6-10.8-7.6-15.8-11.9l-0.5-0.4l0.6,0c5.8,0.2,11.5-2.4,15.7-6.3
				c4.2-3.9,7.2-9.5,7.2-15.3c0-2.9-0.7-5.8-2.3-8.2c-1.6-2.4-3.9-4.3-6.6-5.3c-2.7-1.1-5.6-1.4-8.5-1.1c-2.9,0.3-5.7,1.2-8.2,2.5
				l-1.2,0.6l0.8-1.1c1.6-2.3,2.8-5,3.4-7.7c0.6-2.8,0.6-5.7-0.3-8.4c-0.8-2.7-2.5-5.1-4.8-6.8c-2.2-1.7-5-2.7-7.8-3
				c-5.6-0.6-11.4,1.4-15.9,4.8c-4.5,3.4-7.9,8.4-8.9,14l-0.2,1.1l-0.6-1c-3.3-5.1-6.1-10.5-8.3-16.2c-2.1-5.7-3.5-11.7-3.6-17.9
				c-0.2-6.1,0.9-12.2,3-18c2.1-5.7,5.2-11.1,8.8-15.9c7.3-9.7,16.4-18.1,26.9-24.3c10.4-6.3,22.1-10.4,34.1-12.2
				c12-1.8,24.4-1.1,36.1,2c11.7,3.1,22.8,8.6,32.3,16.2c9.5,7.6,17.4,17.1,23,27.9c5.6,10.8,9,22.7,9.8,34.8l-0.6,0
				c-1-17.6-6.9-34.8-17.1-49.2c-10.1-14.4-24.2-26-40.4-32.9c-16.1-7-34.2-9.3-51.6-6.7c-17.4,2.5-34,10-47.4,21.4
				c-3.4,2.8-6.5,5.9-9.4,9.2c-2.9,3.3-5.7,6.7-8.1,10.4c-4.8,7.3-8.3,15.6-9.3,24.3c-1,8.7,0.4,17.6,3.5,25.8
				c3.1,8.2,7.6,15.9,12.7,23c5.1,7.1,10.9,13.8,17,20.2c6.1,6.4,12.4,12.6,19.1,18.3c6.7,5.8,13.7,11.2,21.2,15.8
				c7.5,4.6,15.5,8.5,24,10.9l-0.1,0.1C617.5,237.9,616,236.4,614.6,234.8z M614.7,234.7c1.5,1.6,3,3.1,4.5,4.6l0.2,0.2l-0.3-0.1
				c-8.6-2.3-16.6-6.1-24.2-10.7c-7.6-4.6-14.6-10-21.3-15.7c-6.7-5.8-13.1-11.9-19.2-18.3c-6.1-6.4-11.9-13.1-17.1-20.2
				c-5.2-7.2-9.8-14.8-12.9-23.2c-3.2-8.3-4.7-17.3-3.7-26.2c1-8.9,4.5-17.4,9.4-24.8c2.4-3.7,5.2-7.2,8.2-10.5
				c3-3.3,6.2-6.4,9.5-9.3c13.5-11.5,30.3-19.1,47.9-21.6c17.6-2.6,35.8-0.2,52.1,6.8c16.3,7,30.6,18.7,40.7,33.3
				c10.2,14.5,16.1,32,17,49.7l-0.6,0c-0.8-12-4.1-23.9-9.7-34.6c-5.6-10.7-13.4-20.2-22.8-27.8c-9.4-7.6-20.5-13.1-32.1-16.2
				c-11.7-3.1-24-3.7-36-1.9c-12,1.8-23.5,6-33.9,12.2c-10.3,6.2-19.4,14.6-26.6,24.2c-3.6,4.9-6.6,10.1-8.6,15.8
				c-2.1,5.6-3.1,11.7-2.9,17.7c0.2,6,1.5,12,3.6,17.6c2.1,5.6,5,11,8.2,16.1l-0.8,0.2c1.1-5.8,4.6-11,9.3-14.5
				c4.6-3.5,10.6-5.6,16.5-4.9c2.9,0.3,5.8,1.4,8.2,3.2c2.4,1.8,4.1,4.3,5,7.2c0.9,2.8,0.9,5.9,0.3,8.7c-0.6,2.9-1.9,5.6-3.5,8
				l-0.4-0.5c2.6-1.4,5.5-2.3,8.5-2.6c3-0.3,6,0,8.8,1.2c2.8,1.1,5.2,3.1,6.8,5.6c1.6,2.5,2.4,5.5,2.4,8.5c-0.1,6-3.1,11.6-7.4,15.7
				c-2.2,2-4.7,3.7-7.4,4.8c-2.7,1.1-5.7,1.7-8.7,1.6l0.1-0.4c5,4.3,10.2,8.3,15.7,12C602.7,229,608.5,232.2,614.7,234.7
				L614.7,234.7L614.7,234.7z"/>
		</g>
	</g>
	
		<linearGradient id="SVGID_2_" gradientUnits="userSpaceOnUse" x1="-371.7178" y1="82.7852" x2="-243.0123" y2="211.4906" gradientTransform="matrix(-1 0 0 1 -156.9248 0)">
		<stop  offset="1.818180e-002" style="stop-color:#078D9E"/>
		<stop  offset="1" style="stop-color:#078D9E;stop-opacity:0"/>
	</linearGradient>
	<path class="st6" d="M141,246.2c0,0,81.6-27,99.7-106.7c18.1-79.8-113.7-90.3-140.2-53c0,0-52.6,37-31.4,97.1
		C84.2,226.4,103.5,229,141,246.2z"/>
	<g>
		<path class="st14" d="M153.8,238.4c10.9-4.4,22-11.7,33.2-21.2c-4.7,0.1-9.7-1.4-14.2-4.9c-9.1-7.1-11.8-18.9-6-26.3
			c5-6.4,14.6-7.4,23-3.1c-4.7-6.8-5.3-15.1-0.9-20.8c5.8-7.4,17.9-7.6,27-0.5c4.9,3.8,7.9,9,8.8,14.1c16.1-25,17.9-50.1-7.3-76.4
			C182.5,62.9,125.5,61,90,95c-16.4,15.7-25.3,36.2-26.8,57.4c1.3-23.4,11.1-46.3,29.3-63.7c38.1-36.5,98.7-35.2,135.2,2.9
			c36.5,38.1,18.3,74.5-19.1,111.8c-20.1,20.1-40,34.4-59.3,39.6C150.8,241.5,152.3,240,153.8,238.4z"/>
		<g>
			<path d="M153.8,238.3c6.1-2.5,11.9-5.7,17.4-9.3c5.5-3.6,10.7-7.7,15.7-12l0.1,0.4c-3,0.1-5.9-0.5-8.7-1.6
				c-2.7-1.1-5.3-2.8-7.4-4.8c-4.3-4-7.3-9.6-7.4-15.7c0-3,0.7-6,2.4-8.5c1.6-2.5,4.1-4.5,6.8-5.6c2.8-1.1,5.8-1.5,8.8-1.2
				c3,0.3,5.8,1.2,8.5,2.6l-0.4,0.5c-1.7-2.4-2.9-5.1-3.5-8c-0.6-2.9-0.6-5.9,0.3-8.7c0.9-2.8,2.7-5.4,5-7.2
				c2.4-1.8,5.2-2.8,8.2-3.2c5.9-0.6,11.8,1.4,16.5,4.9c4.7,3.5,8.2,8.7,9.3,14.5l-0.8-0.2c3.3-5.1,6.1-10.4,8.2-16.1
				c2.1-5.6,3.4-11.6,3.6-17.6c0.2-6-0.8-12-2.9-17.7c-2-5.7-5.1-10.9-8.6-15.8c-7.2-9.7-16.3-18-26.6-24.2
				c-10.3-6.3-21.9-10.4-33.9-12.2c-11.9-1.8-24.3-1.2-36,1.9C116.5,76.9,105.5,82.4,96,90c-9.4,7.6-17.3,17.1-22.8,27.8
				c-5.6,10.7-8.9,22.6-9.7,34.6l-0.6,0c0.9-17.7,6.8-35.1,17-49.7c10.1-14.6,24.4-26.2,40.7-33.3c16.3-7.1,34.6-9.4,52.1-6.8
				c17.6,2.5,34.4,10.1,47.9,21.6c3.4,2.9,6.6,6,9.5,9.3c3,3.3,5.7,6.8,8.2,10.5c4.9,7.4,8.4,15.9,9.4,24.8c1,8.9-0.5,17.9-3.7,26.2
				c-3.1,8.3-7.7,16-12.9,23.2c-5.2,7.2-11,13.8-17.1,20.2c-6.1,6.4-12.5,12.5-19.2,18.3c-6.7,5.8-13.8,11.1-21.3,15.7
				c-7.5,4.6-15.6,8.4-24.2,10.7l-0.3,0.1l0.2-0.2C150.8,241.5,152.3,240,153.8,238.3L153.8,238.3L153.8,238.3z M153.8,238.4
				c-1.4,1.6-2.9,3.1-4.5,4.6l-0.1-0.1c8.5-2.3,16.5-6.2,24-10.9c7.5-4.7,14.5-10.1,21.2-15.8c6.7-5.8,13-11.9,19.1-18.3
				c6.1-6.4,11.8-13.1,17-20.2c5.1-7.1,9.7-14.8,12.7-23c3.1-8.2,4.6-17.1,3.5-25.8c-1-8.7-4.4-17-9.3-24.3
				c-2.4-3.7-5.1-7.1-8.1-10.4c-2.9-3.3-6.1-6.3-9.4-9.2c-13.4-11.4-30-18.9-47.4-21.4c-17.4-2.6-35.5-0.3-51.6,6.7
				c-16.2,6.9-30.3,18.5-40.4,32.9c-10.1,14.4-16.1,31.6-17.1,49.2l-0.6,0c0.9-12.1,4.2-24.1,9.8-34.8c5.6-10.8,13.5-20.3,23-27.9
				c9.5-7.6,20.6-13.1,32.3-16.2c11.7-3.1,24.1-3.8,36.1-2c12,1.7,23.7,5.9,34.1,12.2c10.4,6.2,19.6,14.6,26.9,24.3
				c3.6,4.9,6.7,10.2,8.8,15.9c2.1,5.7,3.2,11.8,3,18c-0.1,6.1-1.5,12.2-3.6,17.9c-2.1,5.7-5,11.1-8.3,16.2l-0.6,1l-0.2-1.1
				c-1-5.6-4.4-10.6-8.9-14c-4.5-3.4-10.2-5.4-15.9-4.8c-2.8,0.3-5.5,1.3-7.8,3c-2.2,1.7-3.9,4.1-4.8,6.8c-0.9,2.7-0.9,5.6-0.3,8.4
				c0.6,2.8,1.8,5.4,3.4,7.7l0.8,1.1l-1.2-0.6c-2.6-1.3-5.4-2.2-8.2-2.5c-2.9-0.3-5.8,0-8.5,1.1c-2.7,1.1-5,2.9-6.6,5.3
				c-1.6,2.4-2.3,5.3-2.3,8.2c0.1,5.8,3,11.3,7.2,15.3c4.2,4,9.9,6.5,15.7,6.3l0.6,0l-0.5,0.4c-5,4.3-10.3,8.3-15.8,11.9
				C165.8,232.8,159.9,236,153.8,238.4z"/>
		</g>
	</g>
	<g>
		<path class="st11" d="M498.1,208.6c0,8.3-6.7,15-15,15c-8.3,0-15-6.7-15-15c0-8.3,6.7-15,15-15
			C491.3,193.6,498.1,200.3,498.1,208.6z"/>
		<path d="M498.1,204c0,8.3-6.7,15-15,15c-8.3,0-15-6.7-15-15c0-8.3,6.7-15,15-15C491.3,189,498.1,195.7,498.1,204z"/>
		<path class="st12" d="M485.6,193.9c0,1.4-1.1,2.5-2.5,2.5c-1.4,0-2.5-1.1-2.5-2.5c0-1.4,1.1-2.5,2.5-2.5
			C484.4,191.4,485.6,192.5,485.6,193.9z"/>
	</g>
	<g>
		<path class="st11" d="M275.9,208.6c0,8.3-6.2,15-14,15c-7.7,0-14-6.7-14-15c0-8.3,6.2-15,14-15
			C269.6,193.6,275.9,200.3,275.9,208.6z"/>
		<path d="M275.9,204c0,8.3-6.2,15-14,15c-7.7,0-14-6.7-14-15c0-8.3,6.2-15,14-15C269.6,189,275.9,195.7,275.9,204z"/>
		<ellipse class="st12" cx="261.9" cy="196.4" rx="2.3" ry="2.5"/>
	</g>
	<g>
		<path class="st11" d="M407.1,226.6c0,8-13.6,28.1-30.3,28.1c-16.7,0-30.3-20.2-30.3-28.1c0-8,13.6-14.4,30.3-14.4
			C393.5,212.2,407.1,218.6,407.1,226.6z"/>
		<path d="M405.2,223c0,8-13.6,28.2-30.3,28.2c-16.7,0-30.3-20.2-30.3-28.2c0-8,13.6-14.4,30.3-14.4
			C391.7,208.6,405.2,215.1,405.2,223z"/>
		<path class="st12" d="M383.1,215.2c0,1.3-3.7,2.3-8.2,2.2c-4.5-0.1-8.2-1.3-8.1-2.6c0-1.3,3.7-2.3,8.2-2.2
			C379.5,212.8,383.1,213.9,383.1,215.2z"/>
	</g>
	<path class="st9" d="M522.2,350.4c0.5,2.7-13.3,7.3-30.6,10.3c-17.4,3-31.9,3.3-32.3,0.6s13.3-7.3,30.6-10.3
		C507.3,347.9,521.8,347.7,522.2,350.4z"/>
	<path d="M517.9,348.9c0.5,2.7-13.3,7.3-30.7,10.3c-17.4,3-31.9,3.3-32.3,0.6c-0.5-2.7,13.3-7.3,30.7-10.3
		C503,346.5,517.5,346.2,517.9,348.9z"/>
	<path class="st9" d="M217.4,348.5c-1.1,2.6,11.4,7.9,28,11.8c16.6,3.9,30.9,5,32,2.5c1.1-2.6-11.4-7.9-28-11.8
		C232.8,347.1,218.5,345.9,217.4,348.5z"/>
	<path d="M222,347.3c-1.1,2.6,11.4,7.9,28,11.8c16.6,3.9,30.9,5,32,2.5c1.1-2.6-11.4-7.9-28-11.8C237.5,345.9,223.1,344.8,222,347.3
		z"/>
	<path class="st7" d="M537,380.7c0,8-17.5,14.5-39,14.5c-21.5,0-39-6.5-39-14.5c0-8,17.5-14.5,39-14.5
		C519.6,366.2,537,372.7,537,380.7z"/>
	<path class="st12" d="M537,370.9c0,2.6-5.7,4.8-12.8,4.8c-7.1,0-12.8-2.1-12.8-4.8s5.7-4.8,12.8-4.8
		C531.3,366.2,537,368.3,537,370.9z"/>
	<path class="st7" d="M543.7,226.3c0,4.6-17.5,8.4-39,8.4c-21.5,0-39-3.8-39-8.4c0-4.6,17.5-8.4,39-8.4
		C526.3,217.9,543.7,221.7,543.7,226.3z"/>
	<path class="st12" d="M543.7,220.7c0,1.5-5.7,2.8-12.8,2.8c-7.1,0-12.8-1.2-12.8-2.8s5.7-2.8,12.8-2.8
		C538,217.9,543.7,219.1,543.7,220.7z"/>
	<path class="st7" d="M210.7,226.3c0,4.6,17.5,8.4,39,8.4c21.5,0,39-3.8,39-8.4c0-4.6-17.5-8.4-39-8.4
		C228.2,217.9,210.7,221.7,210.7,226.3z"/>
	<path class="st12" d="M210.7,220.7c0,1.5,5.7,2.8,12.8,2.8c7.1,0,12.8-1.2,12.8-2.8s-5.7-2.8-12.8-2.8
		C216.5,217.9,210.7,219.1,210.7,220.7z"/>
	<path class="st7" d="M201.7,380.7c0,8,17.5,14.5,39,14.5c21.5,0,39-6.5,39-14.5c0-8-17.5-14.5-39-14.5
		C219.1,366.2,201.7,372.7,201.7,380.7z"/>
	<path class="st12" d="M201.7,370.9c0,2.6,5.7,4.8,12.8,4.8c7.1,0,12.8-2.1,12.8-4.8s-5.7-4.8-12.8-4.8
		C207.4,366.2,201.7,368.3,201.7,370.9z"/>
	<g>
		
			<ellipse transform="matrix(-1 -4.068931e-004 4.068931e-004 -1 751.5339 812.7701)" class="st4" cx="375.8" cy="406.3" rx="31.2" ry="15.5"/>
		<path d="M344.6,406.3c0-1.6,0.5-3.1,1.3-4.5c0.8-1.4,1.9-2.5,3.1-3.5c2.4-2,5.3-3.5,8.2-4.6c5.9-2.2,12.2-3.3,18.6-3.4
			c6.3-0.1,12.7,0.6,18.8,2.7c3,1.1,6,2.5,8.6,4.6c1.3,1,2.5,2.3,3.3,3.7c0.9,1.5,1.5,3.2,1.5,5c0,1.7-0.6,3.5-1.5,4.9
			c-0.9,1.5-2.1,2.7-3.4,3.7c-2.6,2.1-5.5,3.5-8.6,4.6c-6.1,2.1-12.5,2.8-18.8,2.7c-6.3-0.1-12.7-1.2-18.6-3.4
			c-2.9-1.1-5.8-2.6-8.2-4.6c-1.2-1-2.3-2.2-3.1-3.5C345.1,409.4,344.6,407.9,344.6,406.3z M344.6,406.3c0,1.6,0.5,3.1,1.3,4.5
			c0.8,1.3,1.9,2.5,3.1,3.5c2.4,2,5.3,3.3,8.3,4.4c5.9,2,12.2,2.8,18.5,2.7c6.2-0.1,12.5-1.1,18.2-3.3c2.9-1.1,5.6-2.5,7.9-4.4
			c2.3-1.9,4.1-4.4,4.1-7.2c0-1.3-0.4-2.7-1.2-3.9c-0.7-1.2-1.8-2.3-2.9-3.3c-2.3-1.9-5.1-3.3-7.9-4.4c-5.8-2.2-12-3.2-18.2-3.3
			c-6.2-0.1-12.5,0.6-18.5,2.6c-2.9,1-5.8,2.4-8.3,4.4c-1.2,1-2.3,2.1-3.1,3.5C345.2,403.2,344.6,404.7,344.6,406.3z"/>
	</g>
	<g>
		<path class="st12" d="M407,405.9c-0.5-8.3-14.2-15-31.2-15c-16.9,0-30.6,6.6-31.2,14.9C365.5,405.8,386.2,406.2,407,405.9z"/>
		<path d="M407,405.9c-0.1-1.6-0.7-3-1.6-4.3c-0.9-1.3-2-2.4-3.2-3.3c-2.4-1.9-5.3-3.2-8.2-4.2c-5.8-2-12-2.8-18.2-2.8
			c-6.2,0-12.3,0.9-18.1,3c-2.9,1-5.7,2.4-8,4.3c-2.3,1.9-4.4,4.4-4.6,7.3l-0.5-0.5c10.4,0.1,20.8,0.1,31.2,0.3
			C386.2,405.7,396.6,405.8,407,405.9z M407,405.9c-10.4,0.3-20.8,0.4-31.2,0.5c-10.4,0.1-20.8-0.1-31.2-0.1l-0.5,0l0-0.5
			c0.1-1.7,0.7-3.2,1.6-4.6c0.9-1.4,2.1-2.5,3.3-3.5c2.5-2,5.4-3.3,8.3-4.4c5.9-2.1,12.2-2.9,18.4-2.9c6.2,0.1,12.5,1,18.4,3.1
			c2.9,1.1,5.7,2.5,8.2,4.5c1.2,1,2.3,2.1,3.1,3.4C406.4,402.8,407,404.3,407,405.9z"/>
	</g>
	<g class="st3">
		<path class="st8" d="M249.7,369c4.6-1.7,9.2-3.2,13.9-4.6c4.7-1.3,9.4-2.5,14.2-3.6c9.5-2.2,19.2-3.9,28.8-5.3
			c19.4-2.7,39-4,58.5-3.9c19.6,0.1,39.2,1.7,58.5,4.7c19.3,3.1,38.4,7.7,56.7,14.5c-19.4-2-38.6-3.9-57.8-5.2
			c-19.2-1.3-38.3-2-57.5-2.1c-19.2-0.1-38.4,0.3-57.6,1.2C288.3,365.8,269.1,367.2,249.7,369z"/>
	</g>
</g>
</svg>
