<?xml version="1.0" encoding="utf-8"?>
<!-- Generator: Adobe Illustrator 15.1.0, SVG Export Plug-In . SVG Version: 6.00 Build 0)  -->
<!DOCTYPE svg PUBLIC "-//W3C//DTD SVG 1.1//EN" "http://www.w3.org/Graphics/SVG/1.1/DTD/svg11.dtd">
<svg version="1.1" id="thinking" xmlns="http://www.w3.org/2000/svg" xmlns:xlink="http://www.w3.org/1999/xlink" x="0px" y="0px"
	 width="1130px" height="583px" viewBox="0 0 1130 583" style="enable-background:new 0 0 1130 583;" xml:space="preserve">
<style type="text/css">
<![CDATA[
	.st0{fill:#7AD7EE;}
	.st1{opacity:0.4;fill:#44362E;}
	.st2{opacity:0.79;}
	.st3{opacity:0.91;}
	.st4{fill:#886E5F;}
	.st5{clip-path:url(#SVGID_1_);}
	.st6{opacity:0.8;}
	.st7{opacity:0.25;fill:#078D9E;}
	.st8{fill:#FFFFFF;}
	.st9{opacity:0.5;fill:#80ADAD;}
]]>
</style>
<g class="st6">
	<g>
		<path class="st8" d="M1122.8,152.4c0-44.5-68.8-80.5-153.7-80.5c-30.2,0-58.4,4.6-82.1,12.5C812.2,37.6,687,7,545.1,7
			C407,7,284.7,36,209.3,80.6c-17.5-5.6-37-8.8-57.4-8.8c-77.1,0-139.6,44.4-139.6,99.2c0,35.7,26.6,67.1,66.5,84.5
			c-0.2,2.2-0.4,4.4-0.4,6.6c0,50.3,60.1,91.1,134.2,91.1c4.9,0,9.8-0.2,14.6-0.5c12.2,38.2,69.9,67.2,139.2,67.2
			c20.1,0,39.3-2.4,56.6-6.8c12.3,20.6,42.7,35.1,78.4,35.1c24.3,0,46.3-6.8,61.6-17.6c31.2,23,76.2,37.5,126.4,37.5
			c62.9,0,117.9-22.8,147.4-56.7c20,5.5,41.8,8.6,64.6,8.6c97.7,0,176.8-55.7,176.8-124.5c0-27.3-12.5-52.5-33.6-73
			C1091.3,208.6,1122.8,182.4,1122.8,152.4z"/>
		<path d="M1122.7,152.4c0-5.7-1.2-11.3-3.3-16.5c-2.1-5.3-5.1-10.1-8.6-14.5c-7.1-8.8-16.2-15.9-25.9-21.7
			c-9.7-5.8-20.1-10.4-30.8-14.2c-10.7-3.7-21.7-6.5-32.8-8.7c-22.3-4.2-45-5.4-67.6-4.2c-22.6,1.2-45.1,5-66.6,12.2l-0.2,0.1
			l-0.2-0.1c-24.9-15.4-51.8-27.2-79.3-36.8c-27.6-9.6-55.9-17.1-84.5-22.9c-28.6-5.8-57.6-10-86.7-12.8
			c-29.1-2.8-58.3-4.2-87.5-4.3c-29.2-0.1-58.5,1.1-87.6,3.6c-29.1,2.5-58.1,6.4-86.8,12c-28.7,5.5-57.1,12.7-84.8,22
			c-27.7,9.3-54.8,20.7-80,35.5l-0.1,0.1l-0.2-0.1c-14.3-4.6-29.2-7.3-44.1-8.3c-15-1-30.1-0.3-44.9,2.1c-14.8,2.4-29.4,6.7-43,12.9
			c-13.7,6.2-26.5,14.4-37.3,24.8c-10.8,10.4-19.5,23.1-23.9,37.5c-4.4,14.3-4.2,30,0.7,44.1c4.8,14.2,13.8,26.7,24.8,36.9
			c11,10.2,24,18.1,37.7,24.1l0.4,0.2l0,0.4c-0.9,8.2-0.1,16.6,2.3,24.5c2.4,7.9,6.2,15.4,11.1,22c4.9,6.7,10.7,12.6,17.2,17.9
			c6.4,5.2,13.4,9.7,20.8,13.6c14.7,7.7,30.7,12.9,47,15.9c16.3,3,33,3.8,49.6,2.6l0.6,0l0.2,0.6c2.8,8.7,7.8,16.5,14,23.2
			c6.2,6.7,13.4,12.4,21.2,17.2c15.5,9.7,33,16.1,50.8,20.2c17.8,4.1,36.2,6,54.5,5.8c18.3-0.2,36.6-2.3,54.4-6.8l0.7-0.2l0.4,0.6
			c3.2,5.4,7.6,10.1,12.5,14.2c4.9,4,10.4,7.3,16.1,10.1c11.5,5.5,24.1,8.6,36.8,9.8c12.7,1.2,25.6,0.5,38.1-2.2
			c12.5-2.7,24.6-7.4,35-14.7l0.6-0.4l0.6,0.5c9.9,7.3,20.6,13.4,31.8,18.4c11.2,5,22.9,8.9,34.9,11.9c23.9,5.9,48.7,8,73.2,6.7
			c24.6-1.4,49-6.2,71.9-15.3c11.4-4.5,22.5-10.1,32.7-16.8c10.3-6.7,19.8-14.6,27.8-23.9l0.4-0.4l0.6,0.2
			c30.9,8.6,63.6,10.6,95.4,6.8c15.9-2,31.7-5.5,46.8-10.7c15.2-5.2,29.8-12.2,43.2-21c13.4-8.8,25.6-19.6,35.2-32.5
			c4.8-6.4,9-13.3,12.2-20.7c3.3-7.3,5.6-15.1,6.9-23c1.3-7.9,1.5-16,0.6-24c-0.9-8-2.9-15.8-5.8-23.3c-5.9-15-15.5-28.3-27-39.5
			l-0.2-0.2l0.3-0.1c8.9-2.6,17.7-5.9,26.1-9.8c8.4-3.9,16.6-8.5,24.1-14.1c7.4-5.6,14.3-12.1,19.4-19.9c2.6-3.9,4.7-8.1,6.1-12.5
			C1121.9,161.6,1122.7,157,1122.7,152.4z M1122.9,152.4c0,4.7-0.8,9.3-2.2,13.8c-1.5,4.4-3.6,8.7-6.1,12.6
			c-5.1,7.8-12,14.4-19.4,20c-7.5,5.6-15.6,10.2-24.1,14.2c-8.5,3.9-17.2,7.2-26.2,9.8l0.1-0.3c11.6,11.2,21.2,24.6,27.2,39.6
			c3,7.5,5,15.4,6,23.4c0.9,8,0.8,16.2-0.5,24.2c-1.2,8-3.6,15.8-6.8,23.2c-3.3,7.4-7.4,14.4-12.2,20.9c-9.7,13-21.9,23.9-35.3,32.9
			c-13.4,9-28.1,16-43.4,21.4c-15.2,5.3-31.1,9-47.1,11c-32,4-64.9,2-96.1-6.5l1-0.3c-8.2,9.4-17.8,17.5-28.2,24.3
			c-10.4,6.8-21.5,12.4-33.1,17c-23.1,9.1-47.8,14-72.5,15.4c-24.8,1.4-49.8-0.7-73.9-6.7c-12-3-23.9-6.9-35.2-12
			c-11.3-5-22.2-11.2-32.3-18.6l1.2,0c-10.7,7.5-23.1,12.3-35.8,15.1c-12.7,2.7-25.8,3.4-38.8,2.2c-12.9-1.2-25.7-4.4-37.5-10
			c-5.9-2.8-11.5-6.2-16.5-10.4c-5-4.1-9.6-9-12.9-14.7l1.1,0.4c-17.9,4.5-36.4,6.7-54.9,6.8c-18.5,0.1-37-1.7-55-6
			c-18-4.2-35.5-10.7-51.3-20.6c-7.8-4.9-15.2-10.7-21.5-17.6c-6.3-6.8-11.4-14.9-14.2-23.8l0.8,0.5c-16.7,1.2-33.5,0.3-50-2.7
			c-16.4-3.1-32.5-8.3-47.3-16.1c-7.4-3.9-14.5-8.5-20.9-13.8c-6.5-5.3-12.4-11.3-17.3-18.1c-4.9-6.8-8.8-14.3-11.2-22.4
			c-2.4-8.1-3.2-16.6-2.3-24.9l0.3,0.5c-13.8-6.1-26.8-14.1-37.9-24.4c-11.1-10.2-20.2-22.9-25-37.3c-4.9-14.3-5.1-30.2-0.6-44.7
			c4.5-14.5,13.3-27.4,24.2-37.8C50.2,101.4,63.1,93.2,76.8,87c13.7-6.2,28.3-10.4,43.2-12.9c14.9-2.5,30-3.2,45.1-2.2
			c15,1,30,3.7,44.3,8.3l-0.3,0c12.6-7.5,25.7-14,39.1-19.9c13.4-5.9,27.1-11.2,40.9-15.9c27.7-9.4,56.2-16.6,84.9-22.3
			C431.5,10.9,490.1,6,548.7,6.2c58.5,0.2,117.1,5.5,174.5,17.2c28.7,5.9,57,13.4,84.7,23.2c27.6,9.8,54.5,21.7,79.4,37.3l-0.4,0
			c21.6-7.1,44.2-10.8,66.8-11.9c22.7-1.1,45.4,0.3,67.7,4.5c11.1,2.1,22.1,5,32.8,8.7c10.7,3.7,21.1,8.4,30.8,14.2
			c9.7,5.9,18.8,12.9,25.9,21.8c3.5,4.4,6.5,9.3,8.7,14.6C1121.7,141,1122.9,146.7,1122.9,152.4z"/>
	</g>
	<g>
		<path class="st8" d="M157.4,222.9c0,0.1,0,0.2,0,0.3c0.2,0,0.4-0.1,0.5-0.1C157.7,223,157.5,223,157.4,222.9z"/>
		<path d="M157.4,222.9l0.1,0c0.3,0.1,0.5,0.2,0.6,0.3c0.1,0.1,0.2,0.1,0.2,0.2l-1-1c0,0,0.1,0.2,0.2,0.3c0.1,0.2,0.1,0.3,0.2,0.2
			c0,0,0.1-0.2,0.1-0.3c0-0.2,0-0.3,0.1-0.3l-0.1,1.8c-0.1,0-0.1,0.1-0.2,0.1c-0.1,0-0.1-0.1-0.1-0.1c-0.1-0.2-0.1-0.4,0.1-0.9
			L157.4,222.9z M157.4,222.8c0.3-0.4,0.4-0.6,0.5-0.7c0.1-0.1,0.1,0,0.1,0.1l0.4,2.1L158,224c-0.1,0-0.1-0.1-0.2-0.3
			c-0.1-0.1-0.1-0.3-0.2-0.3c-0.1,0-0.1,0.1-0.1,0.3c0,0.2,0,0.4-0.1,0.4l-1.4,0.5l0.4-1.6c0,0,0.1-0.1,0.2-0.1c0.1,0,0.3,0,0.6,0
			L157.4,222.8L157.4,222.8z"/>
	</g>
	<g>
		<path class="st8" d="M159.9,222.7c1.2-0.3,2.5-0.6,3.7-1C162,220.9,161,222,159.9,222.7z"/>
		<path d="M159.8,222.7l0.1-0.1c0.2-0.4,0.5-0.7,0.8-0.9c0.3-0.2,0.6-0.3,0.9-0.3c0.3,0,0.7,0.2,1,0.2c0.3,0,0.6-0.2,0.9-0.4
			l-0.1,0.9c-0.3,0-0.6,0.2-0.8,0.2c-0.2,0.1-0.3,0.2-0.5,0.3c-0.2,0.1-0.5,0.1-0.9,0.2c-0.3,0-0.8,0.1-1.2,0L159.8,222.7z
			 M159.8,222.6c0.1-0.5,0.2-0.8,0.5-1.1c0.2-0.3,0.5-0.6,0.9-0.8c0.4-0.2,0.9-0.2,1.4-0.1c0.5,0.1,0.9,0.4,1.2,0.7l0.8,1.1
			l-0.9-0.2c-0.4-0.1-0.7,0-1,0.1c-0.3,0.2-0.5,0.6-0.8,0.8c-0.3,0.2-0.6,0.2-1,0.2c-0.3-0.1-0.7-0.1-1.1-0.4l-0.1-0.1L159.8,222.6z
			"/>
	</g>
	<g>
		<defs>
			<path id="SVGID_3_" d="M1122.8,152.4c0-44.5-68.8-80.5-153.7-80.5c-30.2,0-58.4,4.6-82.1,12.5C812.2,37.6,687,7,545.1,7
				C407,7,284.7,36,209.3,80.6c-17.5-5.6-37-8.8-57.4-8.8c-77.1,0-139.6,44.4-139.6,99.2c0,35.7,26.6,67.1,66.5,84.5
				c-0.2,2.2-0.4,4.4-0.4,6.6c0,50.3,60.1,91.1,134.2,91.1c4.9,0,9.8-0.2,14.6-0.5c12.2,38.2,69.9,67.2,139.2,67.2
				c20.1,0,39.3-2.4,56.6-6.8c12.3,20.6,42.7,35.1,78.4,35.1c24.3,0,46.3-6.8,61.6-17.6c31.2,23,76.2,37.5,126.4,37.5
				c62.9,0,117.9-22.8,147.4-56.7c20,5.5,41.8,8.6,64.6,8.6c97.7,0,176.8-55.7,176.8-124.5c0-27.3-12.5-52.5-33.6-73
				C1091.3,208.6,1122.8,182.4,1122.8,152.4z"/>
		</defs>
		<clipPath id="SVGID_1_">
			<use xlink:href="#SVGID_3_"  style="overflow:visible;"/>
		</clipPath>
		<g class="st5">
			<g>
				<path class="st0" d="M126.6,62.4c0,0,70.6,36.4,81.8,42.9c42.8,24.8,182.6,108.8,311.8,146c0,0,9.4-2.5,48.9,0
					c39.5,2.5,58,19.8,58,19.8l-36.4,109.9c0,0-71.2,1.6-96.3-45.1c0,0-245.6-63-296.3-35.8c0,0-6.8,9.3,4.3,35.8
					c11.1,26.5,14.2,45.1,14.2,45.1l-280.3-26.4l-34.6-233.9L126.6,62.4z"/>
				<path d="M126.6,62.3l48.6,25.2c8.1,4.2,16.2,8.5,24.2,12.7c8.1,4.2,15.9,8.9,23.8,13.5c31.5,18.3,63.4,36.1,95.7,52.9
					c32.4,16.8,65.2,32.6,98.7,47c33.5,14.3,67.7,27.2,102.7,37.3l-0.2,0c2.4-0.5,4.6-0.6,7-0.8c2.3-0.1,4.6-0.2,7-0.3
					c4.6-0.1,9.3,0,13.9,0.1c4.6,0.1,9.3,0.3,13.9,0.5c4.6,0.3,9.3,0.5,13.9,1c9.2,1,18.4,3,27.2,6.1c4.4,1.5,8.7,3.4,12.8,5.6
					c4.1,2.2,8.1,4.6,11.7,7.7l0.2,0.2l-0.1,0.3L590.9,381l-0.1,0.2l-0.2,0c-9.3,0-18.6-1-27.7-2.6c-9.1-1.7-18.2-4.1-26.8-7.6
					c-8.6-3.5-16.9-8-24.1-13.8c-7.3-5.8-13.4-13-17.8-21.2l0.1,0.1c-24.3-6.1-48.8-11.8-73.3-17.1c-24.5-5.2-49.2-10.1-73.9-14.2
					c-24.7-4.2-49.6-7.7-74.6-9.8c-12.5-1-25-1.7-37.6-1.3c-6.3,0.2-12.5,0.6-18.7,1.5c-3.1,0.5-6.2,1.1-9.2,1.9
					c-3,0.8-6,1.9-8.7,3.3l0.1-0.1c-0.9,1.4-1.3,3.1-1.6,4.8c-0.3,1.7-0.4,3.5-0.4,5.2c0.1,3.5,0.6,7,1.4,10.4
					c0.8,3.4,1.8,6.8,3,10.1c1.2,3.3,2.6,6.5,3.9,9.8c2.6,6.5,5,13.2,7.1,19.9c2.1,6.7,3.9,13.5,5.2,20.5l0.1,0.5l-0.5,0L-63.7,355
					l-0.4,0l-0.1-0.4l-34.5-233.9l-0.1-0.4l0.4-0.1L126.6,62.3z M126.6,62.4L-98.1,121l0.3-0.5l34.6,233.9l-0.4-0.4l280.3,26.5
					l-0.4,0.4c-1.3-6.9-3.1-13.7-5.2-20.4c-2.1-6.7-4.4-13.3-7-19.9c-1.3-3.3-2.7-6.5-3.9-9.8c-1.2-3.3-2.2-6.7-3-10.1
					c-0.8-3.4-1.3-7-1.4-10.5c0-1.8,0.1-3.6,0.4-5.3c0.3-1.8,0.7-3.5,1.7-5.1l0-0.1l0.1,0c2.8-1.5,5.8-2.5,8.8-3.4
					c3-0.8,6.1-1.4,9.3-1.9c6.2-0.9,12.5-1.3,18.8-1.5c12.6-0.3,25.1,0.4,37.6,1.4c25,2.1,49.9,5.7,74.6,9.9
					c24.7,4.2,49.4,9.1,73.9,14.3c24.5,5.2,49,10.8,73.4,16.9l0.1,0l0,0.1c4.4,8.2,10.5,15.3,17.8,21.1c7.2,5.8,15.4,10.3,24,13.7
					c8.6,3.4,17.6,5.9,26.7,7.5c9.1,1.6,18.4,2.6,27.6,2.6l-0.3,0.2l36.3-109.9l0.1,0.4c-3.5-3-7.4-5.4-11.5-7.6
					c-4.1-2.1-8.3-4-12.7-5.5c-8.7-3.1-17.8-5-27-6c-4.6-0.5-9.2-0.7-13.8-1c-4.6-0.2-9.2-0.4-13.9-0.6c-4.6-0.1-9.3-0.2-13.9-0.1
					c-2.3,0-4.6,0.1-6.9,0.3c-2.3,0.2-4.6,0.3-6.8,0.8l-0.1,0l-0.1,0c-35.1-10.1-69.2-23.1-102.8-37.4
					c-33.5-14.4-66.4-30.3-98.7-47.1c-32.4-16.8-64.1-34.7-95.6-53.2c-7.9-4.6-15.7-9.3-23.8-13.5c-8-4.3-16.1-8.5-24.2-12.8
					L126.6,62.4z"/>
			</g>
			<path class="st7" d="M525.2,336.5c-24.7-1.2-43.2-16-65.4-23.5c-91.3-30.9-182.7-50.6-280.2-32.1c-12.3,2.5-16,13.6-18.5,24.7
				c-3.1,23.1-5.7,46.3-9.9,69.1l65.5,6.2c0,0-3.1-18.5-14.2-45.1c-11.1-26.5-4.3-35.8-4.3-35.8c50.6-27.2,296.3,35.8,296.3,35.8
				c24.7,33.3,96.3,45.1,96.3,45.1L627.1,271c0,0-2-1.8-6-4.4C582.3,276.8,546.6,302.9,525.2,336.5z"/>
			<g>
				<g>
					<path class="st4" d="M903.6,120.2L701.1,258.7c0,0-23.5,19.8-60.5,5.6s-44.3-8.4-44.3-8.4s14.1,3.9,30.8,15.2
						c0,0-114.3,53.7-94.5,97.3c19.8,43.6,362.4-81.2,362.4-81.2s96.9-46.3,106.2-55.5c0,0,9.9,33.9-6.2,93.2
						c-16,59.3-21.6,117.9-20.4,122.8c1.2,4.9,283.3-20.4,283.3-20.4s-12.3-337-12.3-335.1c0,1.7-151.7-19.7-210.5-25.5
						C1000,63,903.6,120.2,903.6,120.2z"/>
					<path d="M903.7,120.2L701.3,258.9l0,0c-3.6,2.8-7.7,4.9-12,6.6c-4.3,1.7-8.7,2.8-13.2,3.5c-9.1,1.3-18.4,0.6-27.2-1.8
						c-2.2-0.6-4.4-1.3-6.5-2l-6.4-2.4c-4.3-1.5-8.6-3-13-4.2c-4.4-1.2-8.8-2.3-13.3-3c-2.2-0.3-4.5-0.6-6.7-0.6
						c-1.1,0-2.3,0-3.4,0.2c-0.6,0.1-1.1,0.2-1.6,0.3c-0.5,0.1-1.1,0.3-1.4,0.6l-0.1-0.6c2.8,0.8,5.5,1.8,8.1,2.9
						c2.7,1.1,5.3,2.3,7.9,3.6c5.1,2.6,10.1,5.5,14.9,8.7l0.6,0.4l-0.6,0.3c-9.8,4.7-19.4,10-28.8,15.5
						c-9.4,5.5-18.5,11.5-27.3,17.9c-8.8,6.4-17.2,13.4-24.6,21.4c-3.7,4-7.1,8.3-9.9,12.9c-2.8,4.6-5,9.7-5.7,15
						c-0.4,2.7-0.3,5.4,0.1,8c0.2,1.3,0.6,2.6,1,3.9c0.5,1.3,1,2.5,1.7,3.6c1.5,2.2,3.9,3.6,6.3,4.6c2.5,1,5.1,1.6,7.8,2.1
						c5.4,0.8,10.8,1,16.3,0.8c5.4-0.1,10.9-0.6,16.3-1.2c10.8-1.2,21.6-3,32.3-5c10.7-2,21.4-4.4,32-6.9
						c21.2-5,42.3-10.6,63.3-16.6c21-6,41.9-12.3,62.7-18.8c20.8-6.5,41.6-13.3,62.3-20.3c20.7-7,41.3-14.1,61.8-21.5l0,0
						c18-8.7,36-17.5,53.8-26.5c8.9-4.5,17.8-9.1,26.6-13.8c4.4-2.4,8.8-4.7,13.1-7.2c2.2-1.2,4.3-2.5,6.4-3.8
						c2.1-1.3,4.3-2.7,6-4.3l0.3-0.3l0.1,0.4c1.3,5.1,2,10.3,2.4,15.6c0.5,5.2,0.6,10.5,0.6,15.7c-0.1,10.5-1,21-2.6,31.4
						c-1.6,10.4-3.8,20.6-6.5,30.8c-2.7,10.1-5.2,20.3-7.4,30.6c-4.4,20.5-8,41.2-10.6,62c-0.6,5.2-1.2,10.4-1.7,15.6
						c-0.2,2.6-0.4,5.2-0.6,7.8c-0.1,1.3-0.1,2.6-0.1,3.9c0,0.6,0,1.3,0.1,1.9c0,0.2,0,0.3,0,0.5c0,0.1,0.1,0.4,0,0.2
						c0.1,0.1,0.5,0.2,0.8,0.2c2.5,0.3,5.2,0.2,7.8,0.2c2.6,0,5.2-0.1,7.9-0.2c5.2-0.2,10.5-0.5,15.7-0.8
						c20.9-1.2,41.8-2.8,62.8-4.3c20.9-1.6,41.8-3.3,62.7-5c41.8-3.4,83.6-7,125.4-10.8l-0.4,0.5l-6.3-172.6l-3.2-86.3l-1.5-43.1
						l-0.8-21.6l-0.4-10.8l0-0.7c0.3,0-0.8-0.2,0.7,0c-0.4,0.5-0.4,0.2-0.5,0.3c-0.1,0-0.3,0-0.4,0c-0.5,0-0.9,0-1.4,0
						c-0.9-0.1-1.8-0.1-2.7-0.2l-5.4-0.6c-14.3-1.6-28.6-3.5-42.8-5.3l-42.8-5.6c-28.5-3.7-57.1-7.4-85.7-10.8
						c-7.1-0.8-14.3-1.7-21.4-2.5l-5.4-0.6c-1.8-0.2-3.6-0.4-5.4-0.4c-3.6,0-7.2,0.4-10.7,1c-7.1,1.3-14,3.4-20.8,5.7
						c-6.8,2.3-13.5,5-20.1,7.8c-13.2,5.6-26.2,11.9-39,18.5C928.7,106.1,916.1,113,903.7,120.2z M903.6,120.1
						c12.4-7.3,25-14.2,37.8-20.8c12.8-6.6,25.7-12.9,39-18.5c6.6-2.8,13.3-5.5,20.1-7.8c6.8-2.3,13.7-4.4,20.8-5.7
						c3.5-0.6,7.1-1.1,10.8-1.1c1.8,0,3.6,0.2,5.4,0.4l5.4,0.6c7.2,0.8,14.3,1.6,21.5,2.4c28.6,3.4,57.1,7,85.7,10.7l42.8,5.5
						c14.3,1.8,28.5,3.6,42.8,5.2l5.4,0.5c0.9,0.1,1.8,0.2,2.7,0.2c0.4,0,0.9,0.1,1.3,0c0.1,0,0.2,0,0.3,0c0,0.1,0.2-0.2-0.2,0.2
						c1.5,0.2,0.4,0.2,0.8,0.2l0,0.7l0.4,10.8l0.8,21.6l1.6,43.1l3.2,86.3l6.3,172.6l0,0.4l-0.4,0c-41.8,3.7-83.6,7.3-125.4,10.7
						c-20.9,1.7-41.8,3.4-62.7,5c-20.9,1.6-41.8,3.1-62.8,4.3c-5.2,0.3-10.5,0.6-15.7,0.8c-2.6,0.1-5.2,0.2-7.9,0.2
						c-2.6,0-5.2,0.1-7.9-0.2c-0.4-0.1-0.7-0.1-1.1-0.3c0,0-0.2-0.2-0.2-0.2c0,0-0.1-0.2-0.1-0.2l0-0.3c0-0.2,0-0.3-0.1-0.5
						c0-0.7-0.1-1.3-0.1-2c0-1.3,0.1-2.6,0.1-3.9c0.1-2.6,0.4-5.2,0.6-7.9c0.5-5.2,1.1-10.4,1.7-15.6c2.6-20.8,6.3-41.5,10.7-62
						c2.2-10.2,4.7-20.4,7.5-30.6c2.7-10.1,5-20.4,6.6-30.7c1.6-10.4,2.5-20.8,2.6-31.3c0-5.2-0.1-10.5-0.6-15.7
						c-0.5-5.2-1.1-10.4-2.4-15.5l0.4,0.1c-1.9,1.7-4,3-6.1,4.4c-2.1,1.3-4.3,2.6-6.5,3.8c-4.3,2.5-8.7,4.9-13.2,7.2
						c-8.8,4.7-17.7,9.2-26.7,13.7c-17.9,9-35.8,17.8-53.8,26.4l0,0l0,0c-41.1,14.8-82.4,28.8-124.1,41.9
						c-20.8,6.6-41.7,12.9-62.7,18.9c-21,6-42.1,11.7-63.3,16.7c-10.6,2.5-21.3,4.8-32,6.9c-10.7,2-21.5,3.8-32.4,5
						c-5.4,0.6-10.9,1-16.4,1.2c-5.5,0.1-11,0-16.4-0.8c-2.7-0.4-5.4-1.1-8-2.1c-2.5-1-5-2.6-6.7-4.9c-2.9-4.8-3.7-10.6-3-16.1
						c0.7-5.5,3-10.7,5.8-15.4c2.8-4.7,6.3-9,10-13c7.4-8,15.9-15,24.7-21.5c8.8-6.5,18-12.4,27.4-17.9c9.4-5.5,19-10.7,28.9-15.5
						l-0.1,0.7c-4.7-3.2-9.7-6.1-14.8-8.7c-2.6-1.3-5.2-2.5-7.8-3.6c-2.6-1.1-5.3-2.1-8-2.9l-0.7-0.2l0.6-0.4
						c0.6-0.4,1.1-0.5,1.7-0.7c0.6-0.2,1.1-0.3,1.7-0.3c1.2-0.2,2.3-0.2,3.5-0.2c2.3,0,4.6,0.3,6.8,0.6c4.5,0.7,9,1.8,13.4,3
						c4.4,1.3,8.7,2.7,13,4.3l6.4,2.4c2.1,0.8,4.3,1.4,6.5,2c8.8,2.3,18,3.1,26.9,1.8c4.5-0.6,8.9-1.8,13.1-3.4
						c4.2-1.7,8.3-3.8,11.9-6.5l0,0l0,0L903.6,120.1z"/>
				</g>
				<path class="st1" d="M684.5,272.3c8.4-2.6,15-8.6,20.5-16.2l-3.8,2.6c0,0-23.5,19.8-60.5,5.6s-44.3-8.4-44.3-8.4
					s14.1,3.9,30.8,15.2c0,0-0.2,0.1-0.6,0.3C646.5,269.5,666.8,277.5,684.5,272.3z"/>
				<path class="st1" d="M1041.2,248.8c-2.5-11.1-1.2-27.2-13.6-29.6c-32.1-6.2-60.5,6.2-88.9,17.3c-67.9,25.9-134.6,51.8-202.4,79
					c-17.3,6.2-33.3,17.3-50.6,22.2c-22.2,6.2-43.2-4.9-66.7,0c-11.1,2.5-23.5,6.2-29.6,12.3c-14.7,16.5-32.8,24.2-51.8,23.4
					c47,26.8,357.3-86.4,357.3-86.4s96.9-46.3,106.2-55.5c0,0,9.9,33.9-6.2,93.2c-16,59.3-21.6,117.9-20.4,122.8
					c0.4,1.8,37.7-0.4,85.1-3.9C1047,379.5,1053.2,315.1,1041.2,248.8z"/>
				<path class="st1" d="M632.6,325.4c13.4-11.5-4.4-31.9-22.3-45.7c-13.8,7.6-33.8,19.5-50.4,33.3
					C581.3,331.6,612.5,342.1,632.6,325.4z"/>
			</g>
			<g>
				<path class="st0" d="M599.9,270.1c0,0,116.7,99.1-50,28.7"/>
				<path d="M599.9,270.1c5.2,4.2,10.2,8.7,15,13.3c4.8,4.6,9.5,9.4,13.8,14.6c2.1,2.6,4.2,5.2,6,8c0.9,1.4,1.8,2.8,2.6,4.3
					c0.8,1.5,1.5,3,2,4.6c0.5,1.6,0.7,3.4,0.1,5c-0.5,1.7-2.1,2.8-3.6,3.4c-3.2,1.1-6.7,1-10,0.8c-3.3-0.3-6.7-0.9-9.9-1.6
					c-3.3-0.7-6.5-1.5-9.7-2.4c-6.4-1.8-12.8-3.9-19.1-6.2c-6.3-2.2-12.5-4.7-18.7-7.2c-6.2-2.5-12.3-5.1-18.4-7.9l0-0.1
					c6.2,2.4,12.4,4.9,18.7,7.3c6.2,2.4,12.5,4.7,18.8,6.9c6.3,2.2,12.6,4.4,19,6.2c6.4,1.8,12.9,3.6,19.5,4.3
					c1.7,0.2,3.3,0.3,5,0.2c1.7,0,3.3-0.2,4.9-0.8c1.5-0.5,3-1.6,3.5-3.2c0.5-1.5,0.3-3.3-0.2-4.8c-1-3.2-2.8-6-4.7-8.8
					c-1.9-2.7-4-5.3-6.2-7.8C619.4,288.4,609.7,279.2,599.9,270.1L599.9,270.1z"/>
			</g>
			<path class="st7" d="M575.8,297c-6.7-2.2-13,1.4-19.3,4.6c81.2,33.6,90,24,79.6,6.9C616.9,318.8,594.7,302.9,575.8,297z"/>
			<g>
				<path class="st0" d="M590.7,380.9c0,0-4.3-29.6,29-35.8c33.3-6.2,51.1,13,51.1,13S641.8,389.8,590.7,380.9z"/>
				<path d="M590.6,380.9c-0.3-2.2-0.3-4.4-0.2-6.6c0.2-2.2,0.5-4.4,1.1-6.6c1.2-4.3,3.2-8.4,6.2-11.7c2.9-3.4,6.7-6,10.7-7.9
					c4.1-1.9,8.4-3,12.8-3.6c8.8-1.3,17.8-1.1,26.4,1.1c4.3,1.1,8.5,2.6,12.4,4.6c3.9,2,7.7,4.5,10.9,7.6l0.2,0.2l-0.2,0.3
					c-5.1,5.3-11,9.5-17.3,13.1c-6.3,3.6-13.1,6.3-20.1,8.2c-7,1.9-14.2,2.9-21.4,3.1c-3.6,0.1-7.2,0-10.8-0.3
					C597.8,382.1,594.2,381.6,590.6,380.9L590.6,380.9L590.6,380.9z M590.7,380.9c3.5,0.5,7.1,0.9,10.7,1.1
					c3.6,0.2,7.2,0.3,10.8,0.1c7.2-0.3,14.3-1.5,21.2-3.4c6.9-1.9,13.6-4.7,19.8-8.1c3.1-1.7,6.2-3.7,9.1-5.8
					c2.9-2.1,5.7-4.4,8.2-6.9l0,0.5c-3-3.1-6.7-5.6-10.6-7.7c-3.9-2.1-8-3.7-12.3-4.8c-4.3-1.1-8.7-1.6-13.1-1.7
					c-4.4-0.1-8.8,0.3-13.1,1.1c-4.3,0.8-8.6,1.9-12.5,3.7c-4,1.8-7.6,4.3-10.5,7.6C592.6,363,590,372.1,590.7,380.9z"/>
			</g>
			<path class="st7" d="M656.8,348.8c-10.5,19.8-33.9,33.3-52.5,25.9c-6.6-2.6-8.3-10.3-6.5-18.1c-9.1,10.7-7.1,24.3-7.1,24.3
				c51.1,8.9,80.1-22.8,80.1-22.8S666,352.9,656.8,348.8z"/>
		</g>
		<use xlink:href="#SVGID_3_"  style="overflow:visible;fill:none;stroke:#000000;stroke-miterlimit:10;"/>
	</g>
	<path class="st9" d="M424,390.8c-4.9,6.2-11.1,12.3-17.3,12.3c-32.1,3.7-64.2-4.9-91.3-19.8c-23.5-12.3-45.7-39.5-43.2-67.9
		c-30.9,8.6-61.7-2.5-86.4-21c-20.9-16-33.2-44.2-28.4-71.3c-21.7,3.9-44.7-6.6-60.4-21.3c-14.8-16-19.8-38.3-17.3-60.5
		c2.3-24.1,13-47.3,29.3-64.8c-56,12.9-96.5,50.3-96.5,94.3c0,35.7,26.6,67.1,66.5,84.5c-0.2,2.2-0.4,4.4-0.4,6.6
		c0,50.3,60.1,91.1,134.2,91.1c4.9,0,9.8-0.2,14.6-0.5c12.2,38.2,69.9,67.2,139.2,67.2c20.1,0,39.3-2.4,56.6-6.8
		c12.3,20.6,42.7,35.1,78.4,35.1c11.3,0,22.1-1.5,32-4.2C489.4,449.2,443.3,432.5,424,390.8z"/>
	<path class="st9" d="M1035,340.2c-39.5,56.8-124.7,48.1-167.9,0c-13.6,37-35.8,67.9-71.6,86.4c-54.8,28.4-114.9,33.5-174.4,31.9
		c20.9,6.1,44,9.5,68.4,9.5c62.9,0,117.9-22.8,147.4-56.7c20,5.5,41.8,8.6,64.6,8.6c97.7,0,176.8-55.7,176.8-124.5
		c0-18-5.4-35.1-15.2-50.6C1064,278.5,1055.9,311.3,1035,340.2z"/>
	<g class="st3">
		<path class="st8" d="M221.8,405.1c-1.4,0-2.8,0-4.2,0c-11.5-17.5-45.6-30.2-85.8-30.2c-49.7,0-90,19.3-90,43.2
			c0,17.5,21.7,32.6,52.9,39.4c-0.8,1.4-1.2,2.9-1.2,4.4c0,11.8,24.7,21.4,55.1,21.4c18.6,0,35.1-3.6,45.1-9.1
			c8.8,1.1,18.2,1.8,28,1.8c49.7,0,90-15.9,90-35.4C311.8,421,271.5,405.1,221.8,405.1z"/>
		<path d="M221.8,405.2l-4.2,0.1l0,0l0,0c-3.2-4.7-7.5-8.6-12.2-11.7c-4.7-3.2-9.8-5.7-15-7.9c-10.5-4.3-21.6-6.9-32.8-8.5
			c-22.5-3.1-45.5-2.1-67.5,3.3c-5.5,1.4-10.9,3.1-16.2,5.2c-5.2,2.1-10.3,4.6-15,7.8c-4.7,3.1-9.1,6.9-12.3,11.5
			c-1.6,2.3-2.9,4.8-3.7,7.5c-0.8,2.7-1,5.5-0.7,8.3c0.6,5.6,3.6,10.7,7.4,14.9c3.8,4.2,8.5,7.5,13.4,10.3c4.9,2.8,10.1,5.1,15.5,7
			c5.3,1.9,10.8,3.4,16.4,4.6l0.3,0.1l-0.1,0.2c-1.1,2-1.5,4.5-0.8,6.7c0.7,2.2,2.2,4.1,3.9,5.7c3.5,3.2,7.9,5.3,12.3,6.9
			c4.4,1.7,9,2.9,13.7,3.8c4.7,0.9,9.4,1.5,14.1,1.8c9.5,0.7,19,0.4,28.4-0.8c4.7-0.6,9.4-1.5,13.9-2.8c4.6-1.3,9-2.9,13.2-5.1
			l0.1-0.1l0.1,0c9.7,1.2,19.4,1.8,29.2,1.7c9.8-0.1,19.5-0.7,29.2-2.1c9.6-1.4,19.2-3.4,28.4-6.6c4.6-1.6,9.1-3.4,13.4-5.7
			c4.3-2.3,8.4-5,11.7-8.5c1.7-1.7,3.1-3.7,4.2-5.8c1-2.1,1.6-4.5,1.5-6.9c-0.1-2.4-0.8-4.7-2-6.8c-1.2-2.1-2.7-4-4.4-5.7
			c-3.5-3.4-7.6-6-11.9-8.3c-4.3-2.2-8.9-4.1-13.5-5.6c-9.3-3.1-18.9-5.1-28.5-6.5C241.4,405.8,231.6,405.2,221.8,405.2z
			 M221.8,405.1c9.8,0,19.6,0.5,29.3,1.8c9.7,1.3,19.3,3.3,28.6,6.3c4.7,1.5,9.2,3.3,13.6,5.5c4.4,2.2,8.6,4.9,12.2,8.3
			c1.8,1.7,3.4,3.6,4.6,5.8c1.2,2.2,2,4.6,2.1,7.1c0.1,2.5-0.4,5-1.5,7.3c-1.1,2.3-2.6,4.3-4.3,6.1c-3.4,3.6-7.6,6.4-11.9,8.7
			c-4.3,2.3-8.9,4.2-13.6,5.8c-9.3,3.2-18.9,5.2-28.6,6.6c-9.7,1.4-19.5,2-29.3,2.1c-9.8,0-19.6-0.5-29.3-1.8l0.3-0.1
			c-4.2,2.3-8.8,3.9-13.4,5.2c-4.6,1.3-9.3,2.1-14,2.8c-9.5,1.2-19,1.4-28.5,0.7c-9.5-0.8-19-2.4-27.9-5.8
			c-4.4-1.7-8.8-3.8-12.4-7.1c-1.8-1.6-3.3-3.6-4-5.9c-0.7-2.3-0.3-4.9,0.8-7l0.1,0.3c-11.1-2.4-22-6.1-31.9-11.7
			c-4.9-2.8-9.6-6.2-13.5-10.4c-3.9-4.2-6.9-9.3-7.6-15.1c-0.3-2.9-0.1-5.8,0.7-8.5c0.8-2.8,2.1-5.4,3.7-7.7
			c3.3-4.7,7.7-8.5,12.4-11.7c4.7-3.2,9.9-5.7,15.1-7.9c5.3-2.1,10.7-3.9,16.2-5.3c11-2.8,22.4-4.3,33.7-4.7
			c11.4-0.4,22.8,0.1,34,1.8c11.2,1.7,22.4,4.4,32.9,8.8c5.2,2.2,10.3,4.8,15,8c4.7,3.2,9,7.1,12.1,11.8l-0.1,0L221.8,405.1z"/>
	</g>
	<g class="st2">
		<path class="st8" d="M276.3,544.7c0-0.3,0.1-0.7,0.1-1c0-10.4-20.2-18.8-45.2-18.8c-24.9,0-45.2,8.4-45.2,18.8
			c0,10.4,20.2,18.8,45.2,18.8c0.5,0,0.9,0,1.3,0c4,6.1,16.6,10.6,31.7,10.6c18.2,0,33-6.6,33-14.7
			C297.3,552.1,288.6,546.8,276.3,544.7z"/>
		<path d="M276.3,544.6c0.3-1.6-0.1-3.3-0.9-4.8c-0.8-1.5-1.8-2.7-3.1-3.8c-2.5-2.2-5.4-3.8-8.4-5.1c-3-1.3-6.2-2.3-9.4-3.1
			c-3.2-0.8-6.5-1.4-9.8-1.8c-6.6-0.8-13.2-1-19.8-0.6c-6.6,0.4-13.2,1.3-19.6,3.1c-3.2,0.9-6.3,2-9.3,3.5c-2.9,1.5-5.7,3.4-7.7,6
			c-1,1.3-1.7,2.8-2,4.4c-0.2,1.6,0.1,3.3,0.8,4.7c1.5,2.9,4.2,5.1,7,6.8c5.7,3.4,12.2,5.2,18.7,6.4c6.5,1.2,13.2,1.6,19.8,1.5
			l0.2,0l0.1,0.2c1.1,1.7,2.7,3,4.4,4.1c1.7,1.1,3.6,2,5.5,2.7c3.9,1.5,7.9,2.3,12,2.9c8.2,1.1,16.6,0.8,24.7-1.1
			c4-0.9,8-2.3,11.5-4.4c1.7-1.1,3.3-2.4,4.5-4.1c1.2-1.6,1.7-3.7,1.2-5.7c-0.5-1.9-1.8-3.6-3.4-4.9c-1.6-1.3-3.4-2.4-5.2-3.3
			C284.4,546.6,280.4,545.5,276.3,544.6L276.3,544.6L276.3,544.6z M276.4,544.6c4.1,0.7,8.2,1.7,12,3.4c1.9,0.9,3.7,1.9,5.4,3.3
			c1.6,1.4,3.1,3.1,3.6,5.2c0.6,2.1,0.1,4.5-1.2,6.2c-1.2,1.8-2.9,3.2-4.7,4.3c-3.6,2.3-7.6,3.7-11.7,4.7c-4.1,1-8.3,1.5-12.5,1.7
			c-4.2,0.2-8.4,0-12.6-0.5c-4.2-0.5-8.3-1.5-12.2-3c-2-0.8-3.9-1.7-5.7-2.8c-1.8-1.2-3.5-2.6-4.7-4.4l0.4,0.2
			c-6.7,0.1-13.4-0.5-19.9-1.8c-3.3-0.6-6.5-1.5-9.7-2.5c-3.2-1.1-6.3-2.4-9.1-4.1c-2.8-1.8-5.5-4-7.1-7c-0.7-1.5-1.1-3.3-0.8-4.9
			c0.2-1.7,1-3.3,2-4.6c2-2.7,4.9-4.6,7.8-6.2c3-1.6,6.1-2.8,9.3-3.8c6.4-1.9,13-3,19.7-3.4c6.7-0.4,13.4-0.2,20,0.7
			c6.6,0.9,13.2,2.4,19.3,5.1c3,1.4,6,3,8.5,5.4c1.2,1.2,2.3,2.5,3,4C276.3,541.3,276.7,543,276.4,544.6z"/>
	</g>
	<path class="st9" d="M283,414.5c3.9,6.7,5.3,14.1,4,21.5c-1.9,8.7-11.5,16.2-21.1,18.7c-21.1,6.2-59.4,12.5-68.9-6.2
		c-15.3,12.5-30.6,31.2-59.4,23.7c-17.2-3.7-26.8-16.2-23-28.7c-16.7,0.8-35.8,1.6-54.4,0.8c9,5.7,20.9,10.2,34.5,13.2
		c-0.8,1.4-1.2,2.9-1.2,4.4c0,11.8,24.7,21.4,55.1,21.4c18.6,0,35.1-3.6,45.1-9.1c8.8,1.1,18.2,1.8,28,1.8c49.7,0,90-15.9,90-35.4
		C311.8,430.3,300.7,421,283,414.5z"/>
	<path class="st9" d="M276.3,544.7c0-0.3,0.1-0.7,0.1-1c0-5-4.7-9.6-12.4-13c2.2,7.1,2,14.5-6.1,19.7c11.6,0,20.8,13.6,6.9,15.1
		c-18.5,1.5-30.1-10.6-34.7-19.6c0,9-16.2,13.6-25.5,10.6c-6.2-2.7-12.3-5.6-17.7-9.2c4.1,8.7,22.3,15.2,44.3,15.2
		c0.5,0,0.9,0,1.3,0c4,6.1,16.6,10.6,31.7,10.6c18.2,0,33-6.6,33-14.7C297.3,552.1,288.6,546.8,276.3,544.7z"/>
	<path class="st9" d="M1066.3,88.6c21.9,27.8,36.3,61.5,37.9,95.7c9.7-10.6,15.1-22.4,15.1-34.9
		C1119.3,125.2,1098.8,103.4,1066.3,88.6z"/>
</g>
</svg>
