<?xml version="1.0" encoding="utf-8"?>
<!-- Generator: Adobe Illustrator 15.1.0, SVG Export Plug-In . SVG Version: 6.00 Build 0)  -->
<!DOCTYPE svg PUBLIC "-//W3C//DTD SVG 1.1//EN" "http://www.w3.org/Graphics/SVG/1.1/DTD/svg11.dtd">
<svg version="1.1" id="cat" xmlns="http://www.w3.org/2000/svg" xmlns:xlink="http://www.w3.org/1999/xlink" x="0px" y="0px"
	 width="62.5px" height="54px" viewBox="0 0 62.5 54" style="enable-background:new 0 0 62.5 54;" xml:space="preserve">
<style type="text/css">
<![CDATA[
	.st0{opacity:0.54;fill:url(#SVGID_1_);}
	.st1{fill:#231F20;}
]]>
</style>
<g>
	<path class="st1" d="M29.8,5.8c4.2,0,8.4,1.2,12,3.6c3.5,2.3,6.4,5.7,8.1,9.7l0,0c1,1.8,1.9,3.8,2.4,5.8c0.3,1,0.4,2.1,0.5,3.1
		c0.2,1,0.5,1.9,1,2.8c0.9,1.8,2.2,3.4,3.7,4.9c1.5,1.4,3.1,2.7,4.9,3.8l0.1,0l0,0.1c0.2,1,0.3,2,0.3,3l0,0.1l-0.1,0
		c-2.4,0.7-4.8,1.4-7.3,2c-2.4,0.6-4.9,1.2-7.3,1.8c-4.9,1-9.9,1.8-14.9,2l0,0c-2.9,0.5-6,0.4-8.8-0.4c-2.9-0.8-5.6-2.1-7.9-4
		c-4.7-3.7-7.7-9.4-8.1-15.4c-0.5-6,1.8-12,5.9-16.3C18.1,8.2,23.9,5.7,29.8,5.8z M29.8,5.9c-2.9,0-5.8,0.6-8.5,1.8
		c-2.7,1.2-5,3-7,5.1c-1.9,2.1-3.4,4.7-4.4,7.4c-0.9,2.7-1.3,5.6-1.1,8.5c0.4,5.8,3.3,11.2,7.8,14.8c4.5,3.6,10.5,5.3,16.2,4.4l0,0
		h0c5-0.1,10-0.8,14.9-1.8c2.5-0.5,4.9-1.1,7.3-1.7c2.4-0.7,4.8-1.4,7.2-2.1l-0.1,0.2c-0.1-1-0.2-2-0.4-2.9l0.1,0.1
		c-1.8-1.1-3.5-2.3-5-3.8c-1.5-1.4-2.9-3-3.9-4.9c-0.5-0.9-0.8-2-1-3c-0.2-1.1-0.3-2-0.5-3c-0.5-2-1.3-3.9-2.3-5.7l0,0l0,0
		c-1.5-3.8-4.2-7.3-7.7-9.7C39.9,8.4,38,7.4,36,6.8C34,6.2,31.9,5.9,29.8,5.9z"/>
</g>
<radialGradient id="SVGID_1_" cx="-117.3086" cy="27.1787" r="24.3357" gradientTransform="matrix(-1 0 0 1 -81.8379 0)" gradientUnits="userSpaceOnUse">
	<stop  offset="0" style="stop-color:#FFFFFF"/>
	<stop  offset="0.2544" style="stop-color:#FAFFFD"/>
	<stop  offset="0.5544" style="stop-color:#ECFFF7"/>
	<stop  offset="0.8762" style="stop-color:#D4FFEE"/>
	<stop  offset="1" style="stop-color:#C9FFE9"/>
</radialGradient>
<path class="st0" d="M29.8,5.8c8.9,0,16.6,5.5,19.8,13.3c1.3,2.4,2.4,5.1,2.7,8.1c0.6,5.6,6.1,10,9.8,12.4c0.2,1,0.3,2,0.3,3
	C56.7,44.3,43.8,48,33,48.3c-1,0.2-2.1,0.3-3.2,0.3C18,48.5,8.5,39,8.5,27.2C8.5,15.4,18,5.8,29.8,5.8z"/>
</svg>
