<?xml version="1.0" encoding="utf-8"?>
<!-- Generator: Adobe Illustrator 15.1.0, SVG Export Plug-In . SVG Version: 6.00 Build 0)  -->
<!DOCTYPE svg PUBLIC "-//W3C//DTD SVG 1.1//EN" "http://www.w3.org/Graphics/SVG/1.1/DTD/svg11.dtd">
<svg version="1.1" id="big_rock" xmlns="http://www.w3.org/2000/svg" xmlns:xlink="http://www.w3.org/1999/xlink" x="0px" y="0px"
	 width="556.5px" height="189px" viewBox="0 0 556.5 189" style="enable-background:new 0 0 556.5 189;" xml:space="preserve">
<style type="text/css">
<![CDATA[
	.st0{opacity:0.23;}
	.st1{opacity:0.37;}
	.st2{fill:#5BC469;}
	.st3{fill:#C3C1CE;}
	.st4{opacity:0.2;}
	.st5{opacity:0.6;}
	.st6{fill:#050404;}
	.st7{opacity:0.46;fill:#8D8B98;}
	.st8{fill:#D9D8E1;}
	.st9{opacity:0.56;fill:#8D8B98;}
	.st10{fill:#5BC469;stroke:#050404;stroke-miterlimit:10;}
]]>
</style>
<g>
	<path class="st2" d="M5.1,190.6h18l-18-20.6c0,0,15.6,0.6,22.1,18.3L16,147.5c0,0,20.7,26.7,18.6,43c0,0-6.5-38.3,2.1-51.4
		c8.6-13.1,5.8,54.6,5.3,55.6c-0.4,1,0.4-1,0.4-1S43,161,58,147.5c15-13.4-8.3,43-8.3,43s14.6-34.7,25.2-36.2
		c9-1.3-9.2,28.9-14.8,37.8c-1,1.5-1.5,2.4-1.5,2.4l34.3-33.5l-16.5,29.5c0,0,9.9-19.9,30.4-18.1l-18.3,18.1h24"/>
	<path class="st6" d="M5.1,190.5l18-0.1l-0.1,0.3L4.9,170.1l-0.4-0.5l0.6,0c2.6,0.2,5,0.9,7.4,1.9c2.3,1,4.5,2.4,6.5,4
		c3.9,3.3,6.8,7.7,8.5,12.5l-0.6,0.2l-11.3-40.6l-0.6-2.1l1.3,1.8c2.4,3.2,4.7,6.5,6.8,9.9c2.1,3.4,4.1,6.9,5.9,10.4
		c1.8,3.6,3.4,7.3,4.5,11.1c1.1,3.8,1.9,7.9,1.4,11.9l-0.3,2.6l-0.4-2.6c-1.4-9.5-2.3-19-2.3-28.6c0.1-4.8,0.3-9.6,1.3-14.3
		c0.5-2.4,1.2-4.7,2.2-6.9c0.6-1.1,1.1-2.2,2.1-3c0.2-0.2,0.5-0.4,0.9-0.5c0.4-0.1,0.8,0,1,0.2c0.6,0.4,0.8,1,1.1,1.6
		c0.9,2.3,1.2,4.7,1.5,7.1c0.3,2.4,0.5,4.8,0.6,7.2c0.3,4.8,0.3,9.6,0.3,14.4c0,4.8-0.1,9.6-0.2,14.4c-0.1,2.4-0.1,4.8-0.2,7.2
		l-0.2,3.6c0,0.6-0.1,1.2-0.1,1.8l0,0.1c0,0,0,0.1,0,0.1l0,0.1l-0.1,0.2c0.3,0.2-0.4-0.2-0.4-0.2l0,0l0-0.1l0-0.1l0.1-0.2l0.4-0.8
		l0,0.1c0.1-4.3,0.5-8.5,1.2-12.7c0.6-4.2,1.5-8.4,2.7-12.5c1.2-4.1,2.7-8.1,4.7-11.9c2-3.8,4.5-7.3,7.9-10.1
		c0.4-0.3,0.9-0.7,1.4-0.9c0.5-0.3,1-0.5,1.7-0.5c0.3,0,0.7,0.2,0.9,0.4c0.2,0.2,0.4,0.5,0.5,0.8c0.2,0.6,0.2,1.1,0.3,1.7
		c0,2.2-0.4,4.3-0.8,6.4c-0.9,4.2-2.2,8.3-3.5,12.3c-2.7,8.1-5.7,16.1-8.8,24l-0.8-0.3c3-7,6.4-13.9,10.3-20.5
		c2-3.3,4.1-6.5,6.5-9.5c1.2-1.5,2.5-2.9,4.1-4.2c0.8-0.6,1.6-1.2,2.5-1.6c0.9-0.4,1.9-0.8,3-0.7c0.6,0,1.2,0.3,1.6,0.8
		c0.4,0.5,0.5,1.1,0.5,1.6c0.1,1.1-0.1,2-0.3,3c-0.5,1.9-1.1,3.7-1.9,5.5c-1.5,3.6-3.2,7-5,10.4c-3.6,6.8-7.5,13.3-11.6,19.8
		l-0.7-0.6l34.3-33.5l2.4-2.4l-1.7,2.9l-16.6,29.4l-0.7-0.4c1.5-2.8,3.4-5.3,5.5-7.7c2.1-2.3,4.5-4.4,7.2-6.1c2.7-1.7,5.6-3,8.7-3.7
		c3.1-0.8,6.3-0.9,9.4-0.7l0.6,0.1l-0.4,0.4l-18.4,18l-0.1-0.3l24,0.1v0.1l-24,0.1l-0.4,0l0.3-0.3l18.2-18.1l0.2,0.5
		c-3.1-0.3-6.2-0.1-9.2,0.7c-3,0.7-5.8,2-8.4,3.7c-2.6,1.7-4.9,3.7-7,6c-2.1,2.3-3.9,4.8-5.3,7.5l-0.7-0.4l16.5-29.5l0.8,0.6
		L58.9,195l-3,2.9l2.2-3.5c4.1-6.4,8-13,11.6-19.7c1.8-3.4,3.5-6.8,5-10.3c0.7-1.8,1.4-3.5,1.8-5.3c0.2-0.9,0.4-1.8,0.3-2.7
		c0-0.4-0.1-0.8-0.3-1.1c-0.2-0.3-0.5-0.4-0.9-0.4c-0.8,0-1.7,0.2-2.5,0.6c-0.8,0.4-1.6,0.9-2.3,1.5c-1.4,1.2-2.7,2.6-3.9,4
		c-2.4,2.9-4.5,6.1-6.4,9.4c-3.9,6.6-7.2,13.4-10.3,20.4l-0.8-0.3c3.2-7.9,6.3-15.8,9-23.9c1.3-4,2.6-8.1,3.6-12.2
		c0.5-2.1,0.9-4.2,0.9-6.2c0-0.5-0.1-1-0.2-1.5c-0.2-0.5-0.4-0.8-0.8-0.8c-0.4,0-0.9,0.2-1.3,0.4c-0.4,0.2-0.9,0.5-1.3,0.9
		c-3.3,2.6-5.8,6.1-7.8,9.8c-2,3.7-3.5,7.7-4.7,11.8c-2.3,8.2-3.6,16.6-3.9,25.1l0,0l0,0l-0.4,0.8l-0.1,0.2l0,0.1l0,0.1l0,0
		c0.1,0-0.7-0.3-0.4-0.2l0.1-0.2l0,0c0,0,0,0,0,0l0-0.1c0.1-0.6,0.1-1.2,0.1-1.8l0.2-3.6c0.1-2.4,0.2-4.8,0.3-7.2
		c0.1-4.8,0.2-9.6,0.2-14.3c0-4.8-0.1-9.6-0.4-14.3c-0.1-2.4-0.3-4.8-0.6-7.1c-0.3-2.4-0.6-4.8-1.5-6.9c-0.2-0.5-0.5-1.1-0.9-1.4
		c-0.4-0.3-0.9-0.1-1.3,0.2c-0.8,0.8-1.4,1.8-1.9,2.9c-1,2.1-1.7,4.4-2.2,6.8c-0.9,4.7-1.2,9.5-1.2,14.2c0,9.5,0.9,19.1,2.4,28.5
		l-0.7,0c0.5-3.9-0.3-7.8-1.4-11.6c-1.1-3.8-2.7-7.4-4.5-11c-1.8-3.5-3.8-7-5.9-10.3c-2.1-3.4-4.3-6.7-6.7-9.8l0.7-0.4l11.2,40.7
		l-0.6,0.2c-1.7-4.7-4.5-9.1-8.3-12.3c-1.9-1.6-4-2.9-6.3-3.9c-2.3-1-4.7-1.7-7.2-1.9l0.2-0.4l17.9,20.7l0.2,0.3l-0.3,0L5.1,190.5
		L5.1,190.5z"/>
</g>
<g>
	<g>
		<path class="st3" d="M510.8,69.3c0,0-58.5-53-79-51.5c0,0-37-18-90,3s-60,24-60,24s-16.5,14-27,30.3s-29.5,56.3-29.5,56.3
			s-32.5,60.4-31,76.9c0,0,257.5,67.5,351,9C545.3,217.3,545.3,123.8,510.8,69.3z"/>
		<path d="M510.8,69.4c-6-5.3-12.1-10.4-18.2-15.4c-6.2-5-12.5-9.9-18.9-14.5c-6.4-4.7-13-9.1-19.9-13.1c-3.4-2-6.9-3.8-10.6-5.3
			c-1.8-0.8-3.7-1.4-5.6-1.9c-1.9-0.5-3.8-0.8-5.7-0.7l-0.2,0l-0.2-0.1c-2.9-1.3-6-2.3-9.1-3.2c-3.1-0.9-6.3-1.6-9.5-2.1
			c-6.4-1.1-12.9-1.7-19.4-1.7c-13,0-26,2-38.4,5.7c-3.1,0.9-6.2,2-9.2,3.1c-3,1.1-6.1,2.4-9.1,3.6L318.5,31l-36.4,14.5l0.2-0.1
			c-5.9,5.1-11.4,10.6-16.6,16.4c-2.6,2.9-5,5.9-7.3,9.1c-2.3,3.1-4.4,6.4-6.4,9.8c-4,6.7-7.7,13.6-11.3,20.5
			c-3.6,6.9-7.1,13.9-10.6,20.9l-2.6,5.3l-1.3,2.6l-0.6,1.3l-0.7,1.3c-1.8,3.5-3.6,6.9-5.4,10.4c-3.6,7-7,14-10.2,21.1
			c-3.2,7.1-6.4,14.3-9.1,21.6c-1.4,3.7-2.7,7.3-3.7,11.1c-0.5,1.9-1,3.8-1.3,5.7c-0.3,1.9-0.6,3.8-0.4,5.7l-0.3-0.4
			c28.9,7.2,58.1,13.1,87.5,18.2c14.7,2.5,29.4,4.7,44.2,6.7c14.8,2,29.6,3.6,44.4,4.9c14.8,1.2,29.7,2.1,44.6,2.4
			c14.9,0.3,29.8,0.1,44.6-1c14.8-1.1,29.6-3,44-6.4c14.4-3.4,28.6-8.3,41.2-16l-0.4,0.7c-0.1-12.7-1-25.5-2.3-38.2
			c-1.3-12.7-3.2-25.4-5.7-37.9c-2.5-12.5-5.7-24.9-9.8-37C522.6,92.1,517.5,80.3,510.8,69.4z M510.9,69.3
			c6.9,10.8,12.2,22.6,16.5,34.6c4.3,12.1,7.6,24.5,10.2,37.1c2.6,12.6,4.6,25.2,6,38c1.4,12.7,2.4,25.5,2.6,38.4l0,0.5l-0.4,0.3
			c-6.4,4-13.2,7.3-20.2,10c-7,2.7-14.2,4.9-21.5,6.6c-14.6,3.5-29.5,5.4-44.3,6.5c-29.8,2.2-59.8,1-89.5-1.6
			c-29.7-2.6-59.3-6.8-88.7-12c-14.7-2.6-29.3-5.5-43.9-8.6c-14.6-3.1-29.1-6.4-43.6-10.2l-0.3-0.1l0-0.3c-0.2-2,0.1-4,0.5-6
			c0.4-1.9,0.8-3.9,1.4-5.7c1.1-3.8,2.4-7.5,3.8-11.1c2.8-7.3,6-14.5,9.3-21.6c3.3-7.1,6.7-14.1,10.3-21.1c1.8-3.5,3.5-7,5.4-10.4
			l0.7-1.3l0.6-1.3l1.3-2.6l2.6-5.3c3.4-7,6.9-14,10.5-21c3.6-7,7.2-13.9,11.1-20.7c2-3.4,4-6.7,6.4-9.9c2.3-3.2,4.8-6.3,7.3-9.2
			c5.2-5.9,10.7-11.5,16.6-16.7l0.1-0.1l0.1,0c12.1-5.1,24.2-9.8,36.4-14.7l18.2-7.3c3-1.2,6.1-2.4,9.2-3.6c3.1-1.1,6.2-2.2,9.4-3.1
			c12.6-3.7,25.8-5.7,38.9-5.6c6.6,0.1,13.2,0.6,19.6,1.8c3.2,0.6,6.5,1.3,9.6,2.2c3.2,0.9,6.3,2,9.3,3.4l-0.4-0.1
			c2.1-0.1,4.2,0.2,6.1,0.8c2,0.5,3.9,1.2,5.7,2c3.7,1.6,7.2,3.5,10.7,5.5c6.9,4.1,13.4,8.6,19.8,13.4c6.4,4.8,12.6,9.7,18.7,14.8
			C499,58.7,505,63.9,510.9,69.3L510.9,69.3L510.9,69.3z"/>
	</g>
	<path class="st0" d="M541.8,219.5c0.2-0.1,0.4-0.3,0.7-0.4c1-0.6,2-1.2,2.9-1.8c0,0,0-93.5-34.5-148c0,0,0,0,0,0c0,0,0,0,0,0
		c-2-1.8-58.8-52.9-78.9-51.4c0,0-2.8-1.4-8.1-2.9c-16.8,2.2-33.3,7.3-47.9,13.9c-7.5,3.2-14.7,6.9-21.6,11
		c-19.9,1.4-39.9,3-60.3,0.1c-10.1,4.1-12.2,5-12.2,5s-16.5,14-27,30.3c-6.2,9.6-15.3,27.4-21.8,40.4l0,0c0,0,0,0.1-0.1,0.1
		c-0.2,0.5-0.4,0.9-0.7,1.3c-0.1,0.2-0.2,0.3-0.2,0.5c-0.2,0.4-0.4,0.8-0.6,1.2c0,0.1-0.1,0.1-0.1,0.2c-0.2,0.4-0.4,0.8-0.6,1.2
		c-0.1,0.2-0.2,0.3-0.3,0.5c-0.2,0.4-0.4,0.7-0.5,1.1c-0.1,0.1-0.1,0.3-0.2,0.4c-0.2,0.3-0.3,0.6-0.5,1c0,0.1-0.1,0.1-0.1,0.2
		c-0.2,0.4-0.3,0.7-0.5,1c-0.1,0.1-0.1,0.3-0.2,0.4c-0.1,0.3-0.3,0.6-0.4,0.9c-0.1,0.1-0.1,0.3-0.2,0.4c-0.1,0.2-0.2,0.4-0.3,0.6
		c-0.1,0.1-0.1,0.3-0.2,0.4c-0.1,0.2-0.2,0.4-0.3,0.7c-0.1,0.1-0.1,0.2-0.2,0.4c-0.1,0.2-0.2,0.5-0.3,0.7c0,0.1-0.1,0.1-0.1,0.2
		c-0.1,0.2-0.2,0.4-0.3,0.6c0,0,0,0,0,0c-0.1,0.2-0.2,0.4-0.3,0.6c0,0,0,0.1,0,0.1c-0.2,0.3-0.3,0.6-0.4,0.8c0,0,0,0.1,0,0.1
		c-0.1,0.2-0.1,0.3-0.1,0.3s-32.5,60.4-31,76.9c0,0,0,0,0.1,0c0,0,0,0,0,0c0.2,0,0.6,0.2,1.3,0.3c0,0,0.1,0,0.1,0
		c0.5,0.1,1.1,0.3,1.7,0.4c0,0,0,0,0.1,0c9.4,2.3,37.7,9.2,75.1,16c0,0,0,0,0,0c0,0,0.1,0,0.1,0c2,0.4,4.1,0.7,6.2,1.1
		c0,0,0.1,0,0.1,0c2.1,0.4,4.2,0.7,6.4,1.1c0,0,0,0,0.1,0c0.1,0,0.1,0,0.2,0c2.9,0.5,5.8,1,8.7,1.5c0,0,0.1,0,0.1,0
		c0.1,0,0.3,0,0.4,0.1c1.4,0.2,2.8,0.5,4.2,0.7c0.1,0,0.1,0,0.2,0c0.1,0,0.1,0,0.2,0c0.1,0,0.1,0,0.2,0c1.4,0.2,2.9,0.4,4.3,0.7
		c0,0,0.1,0,0.1,0c0.1,0,0.2,0,0.3,0c0,0,0,0,0,0c1.4,0.2,2.8,0.4,4.2,0.6c0.2,0,0.4,0.1,0.6,0.1c0,0,0.1,0,0.1,0
		c2.9,0.4,5.8,0.9,8.8,1.3c0,0,0.1,0,0.1,0c0.3,0,0.6,0.1,0.8,0.1c0,0,0.1,0,0.1,0c1.2,0.2,2.4,0.3,3.6,0.5c0.1,0,0.2,0,0.3,0
		c0.2,0,0.4,0.1,0.6,0.1c0,0,0.1,0,0.1,0c3,0.4,6,0.8,9,1.2c0,0,0,0,0,0c0.1,0,0.1,0,0.2,0c3.3,0.4,6.6,0.8,9.9,1.2c0,0,0,0,0.1,0
		c0.3,0,0.6,0.1,0.9,0.1c1.6,0.2,3.2,0.4,4.8,0.5c0,0,0,0,0.1,0c0,0,0,0,0,0c6.8,0.8,13.6,1.4,20.5,2c0.1,0,0.3,0,0.4,0
		c0,0,0.1,0,0.1,0c1.4,0.1,2.7,0.2,4.1,0.3c0.2,0,0.4,0,0.6,0c0,0,0,0,0.1,0c1.5,0.1,3,0.2,4.5,0.4c0,0,0,0,0,0c0.2,0,0.4,0,0.5,0
		c1.4,0.1,2.7,0.2,4.1,0.3c0,0,0,0,0.1,0c0.4,0,0.8,0.1,1.3,0.1c0,0,0,0,0,0c3.1,0.2,6.1,0.4,9.2,0.6c0,0,0,0,0,0c0.1,0,0.2,0,0.3,0
		c3.5,0.2,7,0.4,10.4,0.5c0.3,0,0.6,0,0.9,0c0,0,0.1,0,0.1,0c1.1,0,2.3,0.1,3.4,0.1c0,0,0.1,0,0.1,0c0.4,0,0.9,0,1.3,0h0
		c4.6,0.1,9.3,0.2,13.9,0.2c0,0,0.1,0,0.1,0c0.4,0,0.7,0,1.1,0c0,0,0,0,0,0c3,0,6,0,8.9-0.1c0,0,0,0,0,0c0.2,0,0.4,0,0.6,0
		c1.7,0,3.5-0.1,5.2-0.1c0,0,0,0,0,0c0.1,0,0.1,0,0.2,0c1.4,0,2.8-0.1,4.1-0.1c0,0,0,0,0,0c0.2,0,0.4,0,0.7,0
		c1.4-0.1,2.9-0.1,4.3-0.2c0.3,0,0.6,0,0.8,0c0,0,0,0,0.1,0c1.4-0.1,2.8-0.1,4.2-0.2c0,0,0,0,0,0c0,0,0.1,0,0.1,0
		c1.4-0.1,2.9-0.2,4.3-0.3c0,0,0,0,0,0c0.3,0,0.6,0,0.9-0.1c1.4-0.1,2.8-0.2,4.3-0.3c0.1,0,0.2,0,0.2,0c0,0,0,0,0,0
		c4.8-0.4,9.5-0.9,14.2-1.5c0.2,0,0.4,0,0.5-0.1c0,0,0,0,0.1,0c1-0.1,2.1-0.3,3.1-0.4c0,0,0,0,0.1,0c0.4-0.1,0.7-0.1,1.1-0.2
		c2.7-0.4,5.4-0.8,8-1.3c0,0,0,0,0,0c0.1,0,0.2,0,0.2,0c2.9-0.5,5.8-1.1,8.6-1.7c0,0,0,0,0,0c0.2,0,0.4-0.1,0.6-0.1
		c1.1-0.2,2.1-0.5,3.2-0.7c0,0,0,0,0.1,0c0.3-0.1,0.6-0.1,0.9-0.2c2.7-0.7,5.4-1.4,8-2.1c0.2,0,0.3-0.1,0.5-0.1c0,0,0,0,0,0
		c0.9-0.3,1.8-0.6,2.8-0.8c0,0,0,0,0,0c0.2-0.1,0.3-0.1,0.5-0.2c2.4-0.8,4.8-1.6,7.1-2.5c0,0,0,0,0,0c0.3-0.1,0.6-0.2,0.9-0.3
		c0,0,0,0,0,0c2.2-0.8,4.4-1.7,6.5-2.7l0,0c0,0,0,0,0,0c1.1-0.5,2.2-1,3.3-1.5c0,0,0,0,0,0c0.2-0.1,0.5-0.2,0.7-0.3c0,0,0,0,0,0
		c1-0.5,2-1,3-1.5c0,0,0,0,0,0c0.2-0.1,0.4-0.2,0.6-0.3c0,0,0,0,0,0C540.2,220.3,541,219.9,541.8,219.5
		C541.7,219.5,541.7,219.5,541.8,219.5z"/>
	<path class="st4" d="M510.8,69.3C510.8,69.3,510.8,69.3,510.8,69.3C510.8,69.3,510.8,69.3,510.8,69.3c-2-1.8-53.1-47.8-75.6-51.3
		c-24.6,20.2-46.1,42.9-79.4,47.8c-5,1-11,9-16,15c-6,7-10,14-15,22c-8,11-12,23-20,35c-2,3-6,5-8,5c-22.7,0.8-48-9.6-64.3-26.3
		c-0.1,0.2-0.2,0.3-0.2,0.5c-0.1,0.2-0.2,0.3-0.2,0.5c-0.2,0.4-0.4,0.8-0.6,1.2c0,0.1-0.1,0.1-0.1,0.2c-0.2,0.4-0.4,0.8-0.6,1.2
		c-0.1,0.2-0.2,0.3-0.3,0.5c-0.2,0.4-0.4,0.7-0.5,1.1c-0.1,0.1-0.1,0.3-0.2,0.4c-0.2,0.3-0.3,0.6-0.5,1c0,0.1-0.1,0.1-0.1,0.2
		c-0.2,0.4-0.3,0.7-0.5,1c-0.1,0.1-0.1,0.3-0.2,0.4c-0.1,0.3-0.3,0.6-0.4,0.9c-0.1,0.1-0.1,0.3-0.2,0.4c-0.1,0.2-0.2,0.4-0.3,0.6
		c-0.1,0.1-0.1,0.3-0.2,0.4c-0.1,0.2-0.2,0.4-0.3,0.7c-0.1,0.1-0.1,0.2-0.2,0.4c-0.1,0.2-0.2,0.5-0.3,0.7c0,0.1-0.1,0.1-0.1,0.2
		c-0.1,0.2-0.2,0.4-0.3,0.6c0,0,0,0,0,0c-0.1,0.2-0.2,0.4-0.3,0.6c0,0,0,0.1,0,0.1c-0.2,0.3-0.3,0.6-0.4,0.8c0,0,0,0.1,0,0.1
		c-0.1,0.2-0.1,0.3-0.1,0.3s-32.5,60.4-31,76.9c0,0,0,0,0.1,0c0,0,0,0,0,0c0.2,0,0.6,0.2,1.3,0.3c0,0,0.1,0,0.1,0
		c0.5,0.1,1.1,0.3,1.7,0.4c0,0,0,0,0.1,0c9.4,2.3,37.7,9.2,75.1,16c0,0,0,0,0,0c0,0,0.1,0,0.1,0c2,0.4,4.1,0.7,6.2,1.1
		c0,0,0.1,0,0.1,0c2.1,0.4,4.2,0.7,6.4,1.1c0,0,0,0,0.1,0c0.1,0,0.1,0,0.2,0c2.9,0.5,5.8,1,8.7,1.5c0,0,0.1,0,0.1,0
		c0.1,0,0.3,0,0.4,0.1c1.4,0.2,2.8,0.5,4.2,0.7c0.1,0,0.1,0,0.2,0c0.1,0,0.1,0,0.2,0c0.1,0,0.1,0,0.2,0c1.4,0.2,2.9,0.4,4.3,0.7
		c0,0,0.1,0,0.1,0c0.1,0,0.2,0,0.3,0c0,0,0,0,0,0c1.4,0.2,2.8,0.4,4.2,0.6c0.2,0,0.4,0.1,0.6,0.1c0,0,0.1,0,0.1,0
		c2.9,0.4,5.8,0.9,8.8,1.3c0,0,0.1,0,0.1,0c0.3,0,0.6,0.1,0.8,0.1c0,0,0.1,0,0.1,0c1.2,0.2,2.4,0.3,3.6,0.5c0.1,0,0.2,0,0.3,0
		c0.2,0,0.4,0.1,0.6,0.1c0,0,0.1,0,0.1,0c3,0.4,6,0.8,9,1.2c0,0,0,0,0,0c0.1,0,0.1,0,0.2,0c3.3,0.4,6.6,0.8,9.9,1.2c0,0,0,0,0.1,0
		c0.3,0,0.6,0.1,0.9,0.1c1.6,0.2,3.2,0.4,4.8,0.5c0,0,0,0,0.1,0c0,0,0,0,0,0c6.8,0.8,13.6,1.4,20.5,2c0.1,0,0.3,0,0.4,0
		c0,0,0.1,0,0.1,0c1.4,0.1,2.7,0.2,4.1,0.3c0.2,0,0.4,0,0.6,0c0,0,0,0,0.1,0c1.5,0.1,3,0.2,4.5,0.4c0,0,0,0,0,0c0.2,0,0.4,0,0.5,0
		c1.4,0.1,2.7,0.2,4.1,0.3c0,0,0,0,0.1,0c0.4,0,0.8,0.1,1.3,0.1c0,0,0,0,0,0c3.1,0.2,6.1,0.4,9.2,0.6c0,0,0,0,0,0c0.1,0,0.2,0,0.3,0
		c3.5,0.2,7,0.4,10.4,0.5c0.3,0,0.6,0,0.9,0c0,0,0.1,0,0.1,0c1.1,0,2.3,0.1,3.4,0.1c0,0,0.1,0,0.1,0c0.4,0,0.9,0,1.3,0h0
		c4.6,0.1,9.3,0.2,13.9,0.2c0,0,0.1,0,0.1,0c0.4,0,0.7,0,1.1,0c0,0,0,0,0,0c3,0,6,0,8.9-0.1c0,0,0,0,0,0c0.2,0,0.4,0,0.6,0
		c1.7,0,3.5-0.1,5.2-0.1c0,0,0,0,0,0c0.1,0,0.1,0,0.2,0c1.4,0,2.8-0.1,4.1-0.1c0,0,0,0,0,0c0.2,0,0.4,0,0.7,0
		c1.4-0.1,2.9-0.1,4.3-0.2c0.3,0,0.6,0,0.8,0c0,0,0,0,0.1,0c1.4-0.1,2.8-0.1,4.2-0.2c0,0,0,0,0,0c0,0,0.1,0,0.1,0
		c1.4-0.1,2.9-0.2,4.3-0.3c0,0,0,0,0,0c0.3,0,0.6,0,0.9-0.1c1.4-0.1,2.8-0.2,4.3-0.3c0.1,0,0.2,0,0.2,0c0,0,0,0,0,0
		c4.8-0.4,9.5-0.9,14.2-1.5c0.2,0,0.4,0,0.5-0.1c0,0,0,0,0.1,0c1-0.1,2.1-0.3,3.1-0.4c0,0,0,0,0.1,0c0.4-0.1,0.7-0.1,1.1-0.2
		c2.7-0.4,5.4-0.8,8-1.3c0,0,0,0,0,0c0.1,0,0.2,0,0.2,0c2.9-0.5,5.8-1.1,8.6-1.7c0,0,0,0,0,0c0.2,0,0.4-0.1,0.6-0.1
		c1.1-0.2,2.1-0.5,3.2-0.7c0,0,0,0,0.1,0c0.3-0.1,0.6-0.1,0.9-0.2c2.7-0.7,5.4-1.4,8-2.1c0.2,0,0.3-0.1,0.5-0.1c0,0,0,0,0,0
		c0.9-0.3,1.8-0.6,2.8-0.8c0,0,0,0,0,0c0.2-0.1,0.3-0.1,0.5-0.2c2.4-0.8,4.8-1.6,7.1-2.5c0,0,0,0,0,0c0.3-0.1,0.6-0.2,0.9-0.3
		c0,0,0,0,0,0c2.2-0.8,4.4-1.7,6.5-2.7c0,0,0,0,0,0c1.1-0.5,2.2-1,3.3-1.5c0,0,0,0,0,0c0.2-0.1,0.5-0.2,0.7-0.3c0,0,0,0,0,0
		c1-0.5,2-1,3-1.5c0,0,0,0,0,0c0.2-0.1,0.4-0.2,0.6-0.3c0,0,0,0,0,0c0.8-0.4,1.5-0.8,2.3-1.3c0,0,0,0,0,0c0.2-0.1,0.4-0.3,0.7-0.4
		c1-0.6,2-1.2,2.9-1.8C545.3,217.3,545.3,123.8,510.8,69.3z"/>
</g>
<g>
	<g>
		<path class="st3" d="M42.8,188.8c0,0,17.2-27,41.5-51.5C99,122.5,103,115.8,103,115.8s9.9-9.5,41.4-5.5s55.5,4.5,55.5,4.5
			s18,11,23,27.5l21,38l6.5,11C250.3,191.3,189.3,240.8,42.8,188.8z"/>
		<path d="M42.8,188.8c4.3-6.6,8.8-13.1,13.6-19.4c4.8-6.3,9.7-12.5,14.9-18.4c2.6-3,5.2-5.9,7.9-8.8c2.7-2.9,5.5-5.7,8.2-8.5
			c2.7-2.9,5.4-5.8,8-8.7c2.5-3,5.1-6,7.2-9.3l0-0.1l0,0c1.7-1.4,3.5-2.3,5.5-3.1c1.9-0.8,3.9-1.4,5.9-1.8c4-0.9,8.1-1.4,12.3-1.5
			c4.1-0.2,8.2,0,12.3,0.3c4.1,0.3,8.2,1,12.2,1.4c8.1,1,16.3,1.8,24.5,2.4c8.2,0.6,16.3,1.2,24.5,1.4l0,0l0,0
			c2.6,1.7,5,3.5,7.3,5.5c2.3,2,4.5,4.1,6.5,6.4c4,4.6,7.5,9.8,9.3,15.7l0,0l13.7,24.6l6.8,12.3c2.3,4,4.8,8.1,7.2,12.1l0.2,0.3
			l-0.3,0.2c-3.6,2.7-7.6,4.9-11.6,6.9c-4,2-8.2,3.6-12.4,5.1c-8.5,3-17.2,5.1-26,6.6c-17.7,3-35.7,3.5-53.5,2.3
			c-17.9-1.2-35.5-4.2-52.9-8.2c-8.7-2-17.3-4.4-25.9-6.9C59.7,194.8,51.2,191.9,42.8,188.8L42.8,188.8L42.8,188.8z M42.9,188.8
			c8.4,2.9,16.9,5.6,25.4,8.1c8.6,2.5,17.2,4.8,25.9,6.7c17.4,3.9,35.1,6.7,52.9,7.9c17.8,1.2,35.7,0.7,53.3-2.2
			c8.8-1.5,17.5-3.6,25.9-6.5c4.2-1.5,8.3-3.1,12.3-5.1c4-1.9,7.9-4.1,11.5-6.7l-0.1,0.5c-2.4-4.1-4.8-8.1-7.1-12.1l-6.8-12.3
			l-13.5-24.6l0,0l0,0c-1.8-5.8-5.1-11-9.1-15.6c-2-2.3-4.2-4.4-6.5-6.4c-2.3-2-4.7-3.8-7.3-5.4l0.1,0c-8.2-0.2-16.4-0.7-24.6-1.3
			c-8.2-0.6-16.3-1.4-24.5-2.3c-4.1-0.4-8.1-1-12.2-1.4c-4.1-0.3-8.2-0.4-12.2-0.3c-4.1,0.2-8.1,0.6-12.1,1.6
			c-2,0.5-3.9,1.1-5.8,1.8c-1.8,0.8-3.7,1.7-5.2,2.9l0.1-0.1c-2.2,3.4-4.8,6.4-7.3,9.4c-2.6,3-5.3,5.9-8,8.7
			c-2.7,2.8-5.6,5.6-8.3,8.5c-2.7,2.9-5.4,5.8-8,8.7c-5.2,5.9-10.2,12.1-15,18.3C51.9,175.9,47.3,182.2,42.9,188.8z"/>
	</g>
	<path class="st7" d="M243.8,180.3l-21-38c-5-16.5-23-27.5-23-27.5s-1.8,0-5-0.2c3.3,1.6,6.4,3.5,9,6.2c3,2-2,9-3,10
		c-31,3-60,26-90,6c-6.4-4.2-8.2-11-10.2-17.7c-2.5,3.3-7.5,9.3-16.3,18.2c-24.2,24.5-41.5,51.5-41.5,51.5
		c146.5,52,207.5,2.5,207.5,2.5L243.8,180.3z"/>
	<path class="st8" d="M187.3,118.3c0,0-25.9-6.8-47.4-3.7s-32.9,1.4-32.9,1.4l13,6.8h18.3h24.2h20.5h2.2
		C185.1,122.8,205.4,122.2,187.3,118.3z"/>
	<path class="st9" d="M243.8,180.3l-21-38c-1.6-5.3-4.6-10.1-7.9-14.1c1.1,8.6-1.8,17.4-10.1,22.6c-6,4-13,6-20,7c-25,5-46,20-72,16
		c-16-3-29.1-11.9-41-23c-17.4,20-29,38-29,38c146.5,52,207.5,2.5,207.5,2.5L243.8,180.3z"/>
	<g class="st5">
		<path d="M103.6,135c4.6,0,9.3,0.1,13.9,0.3c4.6,0.2,9.3,0.3,13.9,0.7c4.6,0.3,9.3,0.6,13.9,0.8c4.6,0.2,9.3,0.2,13.9,0.4l-0.1,0
			l10.4-2.7c1.7-0.5,3.5-0.9,5.2-1.3l5.2-1.3l-0.2,0.1l8.4-5.4c2.8-1.8,5.6-3.5,8.4-5.3l0.1,0.1c-2.7,1.9-5.4,3.9-8.1,5.8l-8.2,5.6
			l-0.1,0l-0.1,0l-5.2,1.3c-1.7,0.4-3.5,0.9-5.2,1.3l-10.4,2.5l-0.1,0l-0.1,0c-4.6-0.3-9.3-0.6-13.9-0.9c-4.6-0.3-9.3-0.4-13.9-0.5
			c-4.6-0.1-9.3-0.3-13.9-0.6C112.9,135.8,108.2,135.5,103.6,135L103.6,135z"/>
	</g>
	<path class="st1" d="M42.4,193.8c0,0,31-25.7,51.4-47.1c12.4-13,15.7-18.8,15.7-18.8s8.3-8.3,34.8-4.8c26.5,3.5,46.7,3.9,46.7,3.9
		s15.1,9.6,19.3,24.1l21.3,27.8l18.7,12.5C250.3,191.3,165.6,239.3,42.4,193.8z"/>
</g>
<g>
	<path class="st2" d="M158.1,197.8h21.8l-21.8-25.1c0,0,19,0.7,26.9,22.2l-13.7-49.4c0,0,25.2,32.4,22.5,52.3c0,0-7.9-46.5,2.6-62.4
		c10.4-15.9,7,66.3,6.5,67.5c-0.5,1.2,0.5-1.2,0.5-1.2s0.6-39.9,18.9-56.2c18.2-16.3-10,52.3-10,52.3s17.7-42.2,30.5-44
		c10.9-1.6-11.2,35.1-18,46c-1.2,1.9-1.9,3-1.9,3l41.6-40.7l-20.1,35.8c0,0,12-24.2,36.9-21.9l-22.2,21.9h29.2"/>
	<path class="st6" d="M158.1,197.8l21.8-0.1l-0.1,0.3l-21.9-25l-0.4-0.5l0.6,0c3.1,0.2,6.1,1.1,9,2.3c2.8,1.2,5.5,2.9,7.9,4.9
		c2.4,2,4.4,4.3,6.2,6.9c1.7,2.6,3.1,5.4,4.2,8.3l-0.6,0.2l-13.8-49.3l-0.6-2.1l1.3,1.8c2.9,3.9,5.7,7.9,8.3,12
		c2.6,4.1,5,8.3,7.2,12.7c2.2,4.3,4.1,8.8,5.5,13.5c1.4,4.6,2.3,9.6,1.7,14.5l-0.3,2.5l-0.4-2.5c-0.9-5.8-1.6-11.5-2.1-17.3
		c-0.5-5.8-0.8-11.6-0.7-17.4c0.1-5.8,0.4-11.7,1.6-17.4c0.6-2.9,1.4-5.7,2.7-8.3c0.3-0.7,0.7-1.3,1.1-1.9c0.4-0.6,0.8-1.2,1.4-1.7
		c0.3-0.2,0.6-0.5,1.1-0.6c0.4-0.1,0.9,0,1.2,0.3c0.7,0.5,1,1.2,1.3,1.9c1.1,2.8,1.4,5.7,1.8,8.6c0.3,2.9,0.6,5.8,0.7,8.7
		c0.3,5.8,0.4,11.6,0.4,17.4c0,5.8-0.1,11.6-0.2,17.4c-0.1,2.9-0.2,5.8-0.3,8.7l-0.2,4.4c0,0.7-0.1,1.4-0.2,2.2l0,0.1
		c0,0,0,0.1,0,0.1l0,0.1l-0.1,0.2c0.3,0.2-0.4-0.2-0.4-0.2l0,0l0-0.1l0.1-0.1l0.1-0.2l0.4-1l0,0.1c0.2-5.2,0.7-10.3,1.4-15.5
		c0.8-5.1,1.8-10.2,3.2-15.2c1.4-5,3.2-9.9,5.7-14.5c2.4-4.6,5.5-8.9,9.6-12.2c0.5-0.4,1.1-0.8,1.6-1.1c0.6-0.3,1.2-0.6,2-0.6
		c0.4,0,0.8,0.2,1,0.5c0.3,0.3,0.4,0.6,0.6,0.9c0.2,0.7,0.3,1.3,0.3,2c0,2.7-0.5,5.2-1,7.7c-1.1,5.1-2.7,10-4.3,14.9
		c-3.2,9.8-6.9,19.5-10.8,29.1l-0.8-0.3c3.7-8.5,7.8-16.9,12.5-24.9c2.4-4,4.9-7.9,7.9-11.5c1.5-1.8,3.1-3.5,4.9-5
		c0.9-0.7,1.9-1.4,3-2c1.1-0.5,2.3-0.9,3.6-0.9c0.7,0,1.4,0.3,1.8,0.9c0.4,0.6,0.6,1.3,0.6,1.9c0.1,1.3-0.1,2.4-0.4,3.6
		c-0.5,2.3-1.4,4.5-2.3,6.7c-1.8,4.3-3.9,8.5-6.1,12.6c-4.4,8.2-9.2,16.2-14.1,24l-0.7-0.6l41.6-40.7l2.4-2.4l-1.7,2.9L244.8,198
		l-0.7-0.4c1.8-3.4,4.1-6.5,6.7-9.3c2.6-2.8,5.5-5.3,8.7-7.4c3.2-2.1,6.8-3.6,10.5-4.5c3.7-0.9,7.6-1.2,11.4-0.8l0.6,0.1l-0.4,0.4
		L259.3,198l-0.1-0.3l29.2,0.1v0.1l-29.2,0.1l-0.4,0l0.3-0.3l22.2-22l0.2,0.5c-3.7-0.3-7.5-0.1-11.2,0.8c-3.6,0.9-7.1,2.5-10.3,4.5
		c-3.2,2-6,4.5-8.5,7.3c-2.5,2.8-4.8,5.9-6.5,9.2l-0.7-0.4l20-35.8l0.8,0.6l-41.6,40.7l-3,2.9l2.2-3.5c5-7.8,9.7-15.8,14.1-24
		c2.2-4.1,4.3-8.2,6-12.5c0.9-2.1,1.7-4.3,2.2-6.5c0.3-1.1,0.4-2.2,0.4-3.3c0-0.5-0.2-1-0.4-1.4c-0.3-0.4-0.7-0.5-1.2-0.6
		c-1-0.1-2.1,0.3-3.1,0.8c-1,0.5-1.9,1.1-2.8,1.8c-1.8,1.4-3.3,3.1-4.8,4.9c-2.9,3.6-5.4,7.5-7.8,11.4c-4.7,8-8.8,16.3-12.5,24.8
		l-0.8-0.3c3.9-9.6,7.6-19.2,10.9-29c1.6-4.9,3.2-9.8,4.3-14.8c0.5-2.5,1.1-5.1,1.1-7.6c0-0.6-0.1-1.3-0.3-1.8c-0.2-0.6-0.5-1-1.1-1
		c-0.5-0.1-1.1,0.2-1.7,0.5c-0.5,0.3-1.1,0.7-1.6,1.1c-4,3.2-7.1,7.5-9.5,12c-2.4,4.5-4.2,9.4-5.7,14.3c-1.4,5-2.5,10-3.3,15.1
		c-0.8,5.1-1.3,10.2-1.5,15.4l0,0l0,0l-0.4,1l-0.1,0.2l-0.1,0.1l0,0.1l0,0c0.1,0.1-0.7-0.3-0.3-0.2l0.1-0.2l0-0.1c0,0,0,0,0,0l0-0.1
		c0.1-0.7,0.1-1.4,0.2-2.2l0.2-4.3c0.1-2.9,0.2-5.8,0.3-8.7c0.2-5.8,0.3-11.6,0.2-17.4c0-5.8-0.2-11.6-0.5-17.4
		c-0.2-2.9-0.4-5.8-0.7-8.7c-0.4-2.9-0.8-5.8-1.8-8.4c-0.3-0.6-0.6-1.3-1.1-1.7c-0.5-0.4-1.2-0.2-1.7,0.3c-1,0.9-1.7,2.3-2.4,3.5
		c-1.3,2.6-2.1,5.4-2.6,8.2c-1.1,5.7-1.5,11.5-1.5,17.3c0,5.8,0.3,11.6,0.8,17.4c0.5,5.8,1.2,11.6,2.1,17.3l-0.7,0
		c0.6-4.7-0.3-9.6-1.7-14.1c-1.4-4.6-3.3-9-5.5-13.3c-2.2-4.3-4.6-8.5-7.2-12.6c-2.6-4.1-5.3-8.1-8.2-11.9l0.7-0.4l13.6,49.4
		l-0.6,0.2c-2.1-5.7-5.4-11-10.1-14.9c-2.3-2-4.9-3.6-7.7-4.8c-2.8-1.2-5.8-2-8.8-2.3l0.2-0.4l21.7,25.1l0.2,0.3l-0.3,0L158.1,197.8
		L158.1,197.8z"/>
</g>
<path class="st10" d="M369.6,195.4c0,0-0.1-57.8-29.9-65.9c0,0,29.4,2.8,45,65.9c0,0-38.7-122.1-19.1-162.9c0,0-11.1,40.6,8.5,81.3
	c19.6,40.7,26.1,81.6,26.1,81.6S379.2,93.2,388.3,74.9c0,0-4.5,13.5,12.1,51.1c16.6,37.6,9,69.4,9,69.4s16.6-73.3-5-99.6
	c0,0,45.8,42,11.1,99.6c0,0,24.1-60,48.7-49.4c0,0-17.1,0.4-35.7,49.4c0,0,15.1-18.8,24.1-19.3L439,198.7h34.7"/>
</svg>
