<?xml version="1.0" encoding="utf-8"?>
<!-- Generator: Adobe Illustrator 15.1.0, SVG Export Plug-In . SVG Version: 6.00 Build 0)  -->
<!DOCTYPE svg PUBLIC "-//W3C//DTD SVG 1.1//EN" "http://www.w3.org/Graphics/SVG/1.1/DTD/svg11.dtd">
<svg version="1.1" id="dog" xmlns="http://www.w3.org/2000/svg" xmlns:xlink="http://www.w3.org/1999/xlink" x="0px" y="0px"
	 width="178.5px" height="192.5px" viewBox="0 0 178.5 192.5" style="enable-background:new 0 0 178.5 192.5;" xml:space="preserve"
	>
<style type="text/css">
<![CDATA[
	.st0{fill:#E59F5A;}
	.st1{opacity:0.23;}
	.st2{opacity:0.52;}
	.st3{fill:#591E01;}
	.st4{fill:#BC9B7A;}
	.st5{fill:#231F20;}
	.st6{fill:#C92727;stroke:#000000;stroke-miterlimit:10;}
	.st7{fill:#F9D3AA;}
	.st8{fill:#C17E34;}
	.st9{fill:#C92727;}
	.st10{fill:#FFFFFF;}
	.st11{opacity:0.37;fill:#997858;}
	.st12{opacity:0.47;fill:#FFA6A6;}
	.st13{opacity:0.52;fill:#6D4319;}
	.st14{opacity:0.5;fill:url(#SVGID_1_);}
	.st15{fill:#C17E34;stroke:#000000;stroke-miterlimit:10;}
	.st16{opacity:0.4;fill:#6D4319;}
]]>
</style>
<g>
	<g>
		<path class="st8" d="M131.9,70c0,0,16.8-2,7.5,5.6c-9.4,7.6-24.4,12.2-21.5,31.9c2.9,19.7-10.1,39.3-10.1,39.3L97,142.1
			c0,0,16.5-7.4,11.1-39.8C108.1,102.2,109,79.6,131.9,70z"/>
		<path d="M131.9,70c2-0.3,4.1-0.4,6.2-0.3c1,0.1,2.1,0.2,3.1,0.6c0.5,0.2,1,0.6,1.2,1.2c0.2,0.6,0,1.2-0.3,1.7
			c-0.6,0.9-1.3,1.7-2.1,2.4c-0.8,0.7-1.6,1.3-2.4,1.9c-1.7,1.2-3.4,2.4-5.1,3.5c-3.4,2.3-6.8,4.7-9.4,7.8c-1.3,1.5-2.4,3.2-3.3,5.1
			c-0.8,1.8-1.4,3.8-1.6,5.8c-0.3,2-0.3,4-0.1,6.1c0.2,2,0.5,4.1,0.5,6.2c0.1,4.1-0.4,8.3-1.3,12.3c-0.9,4-2.2,8-3.7,11.8
			c-1.6,3.8-3.4,7.5-5.5,11.1l-0.1,0.2l-0.2-0.1l-10.8-4.7l-0.7-0.3l0.7-0.4c1.5-0.8,2.9-2,4.1-3.3c1.2-1.3,2.3-2.8,3.2-4.3
			c1.8-3.1,3-6.6,3.6-10.1c0.7-3.6,0.9-7.2,0.8-10.8c-0.1-3.6-0.5-7.2-1.1-10.8l0-0.1l0,0c0.3-3.6,1.2-7,2.5-10.3
			c1.3-3.3,3-6.4,5.1-9.3c2.1-2.8,4.6-5.4,7.5-7.5C125.5,73,128.6,71.3,131.9,70L131.9,70L131.9,70z M131.9,70.1
			c-6.4,2.8-12.1,7.2-16.2,12.9c-2,2.8-3.7,5.9-4.9,9.2c-1.2,3.2-2,6.7-2.3,10.1l0-0.1c0.6,3.6,1,7.3,1.1,11c0.1,3.7-0.1,7.4-0.9,11
			c-0.7,3.6-1.9,7.2-3.8,10.4c-1.9,3.2-4.4,6.1-7.8,7.9l0-0.7l10.7,4.9l-0.3,0.1c2.2-3.4,4.1-7.1,5.7-10.9c1.6-3.8,2.9-7.7,3.7-11.7
			c0.9-4,1.3-8.1,1.1-12.2c-0.1-2.1-0.4-4-0.7-6.1c-0.2-2.1-0.3-4.2,0-6.2c0.5-4.2,2.3-8.2,5.1-11.3c2.8-3.2,6.2-5.6,9.7-7.8
			c1.7-1.1,3.5-2.2,5.1-3.4c1.6-1.2,3.4-2.4,4.5-4c0.2-0.4,0.4-0.9,0.3-1.3c-0.1-0.4-0.5-0.7-0.9-0.9c-0.9-0.4-1.9-0.6-2.9-0.7
			C136,69.8,133.9,69.9,131.9,70.1z"/>
	</g>
	<path class="st13" d="M114.8,97.2c-0.8-12.8,14.8-19.9,27.3-24.7c-0.3,0.8-1.1,1.9-2.7,3.2c-9.4,7.6-24.4,12.2-21.5,31.9
		c2.9,19.7-10.1,39.3-10.1,39.3l-3.8-1.7C114,133.4,115.3,113.8,114.8,97.2z"/>
	<g>
		<path class="st8" d="M67.4,10.1c-7.6-0.8-13.6,0.8-15.9,8.2c-2.3,7.5-0.9,85.9,32.6,82.5C115,97.7,78.8,11.3,67.4,10.1z"/>
		<path d="M67.4,10.1c-2.3-0.2-4.6-0.3-6.9,0.1c-2.3,0.4-4.5,1.4-6.1,3c-1.6,1.7-2.6,3.8-3,6c-0.3,2.3-0.4,4.6-0.4,6.9
			c0,9.2,0.7,18.5,2,27.6c1.3,9.1,3.1,18.2,6.5,26.8c1.7,4.3,3.9,8.4,6.8,12c2.9,3.5,6.7,6.5,11.2,7.6c2.2,0.5,4.5,0.6,6.8,0.3
			c2.3-0.3,4.4-1.1,6.2-2.6c1.7-1.4,2.9-3.4,3.7-5.6c0.8-2.1,1.2-4.4,1.4-6.7c0.4-4.6,0-9.2-0.6-13.7c-0.7-4.5-1.7-9.1-2.9-13.5
			c-1.2-4.5-2.6-8.8-4.2-13.2c-1.5-4.3-3.3-8.6-5.1-12.9c-1.9-4.2-3.9-8.4-6.3-12.4c-1.2-2-2.4-3.9-3.9-5.7
			c-0.7-0.9-1.5-1.8-2.3-2.6C69.5,11.1,68.6,10.3,67.4,10.1z M67.4,10c1.2,0.2,2.1,0.9,3,1.7c0.9,0.8,1.6,1.6,2.4,2.5
			c1.5,1.8,2.7,3.7,4,5.7c2.5,3.9,4.6,8,6.6,12.2c4,8.4,7.2,17.1,9.7,26.1c1.2,4.5,2.2,9,2.9,13.6c0.6,4.6,1,9.3,0.5,14
			c-0.2,2.3-0.7,4.7-1.6,6.9c-0.9,2.2-2.2,4.3-4,5.8c-1.8,1.5-4.2,2.4-6.5,2.6c-2.3,0.3-4.7,0.1-7-0.5c-2.3-0.6-4.4-1.6-6.3-3
			c-1.9-1.4-3.6-3-5-4.8c-2.9-3.6-5.1-7.8-6.9-12c-1.8-4.3-3.2-8.7-4.3-13.2c-1.1-4.5-2-9.1-2.7-13.6c-0.7-4.6-1.2-9.2-1.4-13.8
			c-0.3-4.6-0.4-9.3-0.2-13.9c0.1-2.3,0.2-4.6,0.6-6.9c0.5-2.3,1.6-4.5,3.2-6.1c1.6-1.7,3.9-2.6,6.2-3C62.8,9.7,65.2,9.8,67.4,10z"
			/>
	</g>
	<path class="st16" d="M67,10c-6.9,0.3-12.1,1.8-14.4,9.3c-2.3,7.5-0.9,85.9,32.6,82.5C118.8,98.4,73.9,9.7,67,10z"/>
	<g>
		<path class="st8" d="M60,97c0,0-38.5-0.9-38.8,5.8c-0.4,6.7,25.5,4.7,44.2,7.8"/>
		<path d="M60,97.1c-7.2,0.2-14.4,0.5-21.6,0.9c-3.6,0.2-7.2,0.5-10.7,1.2c-1.7,0.4-3.5,0.9-5,1.8c-0.7,0.5-1.4,1.2-1.3,2
			c0,0.8,0.6,1.5,1.4,2c1.5,0.9,3.3,1.3,5,1.6c1.8,0.3,3.5,0.5,5.3,0.7c3.6,0.3,7.2,0.5,10.8,0.8c7.2,0.5,14.4,1,21.5,2.5l0,0.1
			c-7.2-0.9-14.4-1.1-21.6-1.6c-3.6-0.2-7.2-0.5-10.8-0.9c-1.8-0.2-3.6-0.5-5.4-0.8c-1.8-0.4-3.6-0.9-5.2-1.9
			c-0.8-0.5-1.5-1.4-1.5-2.4c0-0.5,0.2-1,0.5-1.4c0.3-0.4,0.7-0.7,1.1-0.9c1.6-1,3.4-1.4,5.1-1.9c3.5-0.8,7.1-1.3,10.7-1.7
			c3.6-0.3,7.2-0.5,10.8-0.5C52.8,96.7,56.4,96.7,60,97.1L60,97.1z"/>
	</g>
	<path class="st16" d="M60,97c0,0-9.4-0.2-19,0.4c2.4,2.7,4.2,5.3,2.3,6.6c-5.8,3.3-13.7-0.2-21.3,0.7c4.4,4.4,26.8,3.1,43.4,5.9
		L60,97z"/>
	<path class="st15" d="M72.2,89c11-15,6-31-7-36c-14-5.6-28.8-10.3-42.1-17.4c-3.6,6-1.8,17.5,1.1,22C37,77.2,31.4,86.2,56,96.6
		C60.6,95.3,69.2,93.2,72.2,89z"/>
	<path class="st13" d="M73.2,89c11-15,6-31-7-36c-14-5.6-28.8-10.3-42.1-17.4c-3.6,6-1.8,17.5,1.1,22C38,77.2,32.4,86.2,57,96.6
		C61.6,95.3,70.2,93.2,73.2,89z"/>
	<g>
		<path class="st7" d="M93,75.6c-3.3,14.4-6.3,27.2-41.6,17.8C19.4,84.8,18.7,74.8,29.6,61c9.2-11.7,14.2-24.1,33.9-19.6
			C83.1,45.9,96.4,61.3,93,75.6z"/>
		<g>
			<path d="M93.1,75.6c-0.9,4-1.8,8.1-3.6,11.8c-0.9,1.9-2.1,3.6-3.7,5c-1.5,1.4-3.4,2.5-5.4,3.2c-4,1.4-8.2,1.5-12.4,1.3
				c-4.1-0.3-8.2-1.1-12.3-2c-4-1-8-2.1-11.9-3.5c-3.9-1.4-7.8-2.9-11.4-4.9c-1.8-1-3.5-2.2-5.1-3.5c-1.6-1.4-2.9-3-3.7-5
				c-0.8-2-0.8-4.2-0.4-6.2c0.4-2.1,1.3-4,2.4-5.8c1-1.8,2.2-3.5,3.5-5.1c1.3-1.6,2.5-3.3,3.7-5c2.4-3.3,4.8-6.8,7.8-9.7
				c1.5-1.5,3.2-2.8,5-3.8c1.8-1,3.9-1.8,5.9-2.1C55.8,39.5,60,40,64,41c8.1,1.9,15.8,5.9,21.6,12c2.9,3,5.2,6.5,6.6,10.4
				C93.7,67.3,94.1,71.6,93.1,75.6z M93,75.6c0.9-4,0.5-8.3-1-12.1c-1.5-3.8-3.9-7.2-6.8-10.1c-5.9-5.7-13.4-9.5-21.3-11.4
				c-4-1-8.1-1.4-12-0.7c-2,0.4-3.9,1-5.7,2c-1.8,1-3.4,2.2-4.8,3.6c-2.9,2.8-5.3,6.2-7.8,9.5c-1.2,1.7-2.5,3.3-3.8,4.9
				c-1.3,1.6-2.5,3.3-3.5,5c-1,1.8-1.9,3.6-2.4,5.6c-0.5,2-0.5,4.1,0.3,6c0.7,1.9,2,3.5,3.6,4.9c1.5,1.4,3.3,2.5,5.1,3.5
				c3.6,2,7.5,3.4,11.4,4.6C48,92.1,52,93.2,56,94.1c4,0.9,8.1,1.6,12.1,2c4.1,0.3,8.2,0.2,12.1-1c1.9-0.6,3.8-1.6,5.3-2.9
				c1.5-1.3,2.8-3,3.7-4.8C91.1,83.7,92,79.6,93,75.6z"/>
		</g>
	</g>
	<g>
		<path class="st3" d="M68.2,60c0.1,0.6,0.2,1.2,0.2,1.8C68.4,61.2,68.4,60.6,68.2,60z"/>
		<path d="M68.3,60c0,0.2,0.2,0.3,0.3,0.4c0.2,0.1,0.2,0.3,0.2,0.5c0,0.2-0.2,0.3-0.2,0.5c0,0.2,0,0.3,0.1,0.5l-0.5,0
			c-0.1-0.1-0.2-0.3-0.2-0.4c-0.1-0.1-0.1-0.3-0.1-0.4c0-0.1,0-0.3,0.1-0.5C68.1,60.3,68.2,60.2,68.3,60L68.3,60z M68.3,60
			c0,0.2,0.2,0.3,0.4,0.4c0.2,0.1,0.2,0.3,0.3,0.5c0,0.3,0,0.7-0.2,1l-0.5,0c0.1-0.2,0.1-0.3,0.1-0.5c0-0.2-0.2-0.3-0.3-0.4
			c-0.1-0.1-0.1-0.3,0-0.4C68.1,60.3,68.2,60.2,68.3,60L68.3,60z"/>
	</g>
	<path class="st11" d="M91,61c0.1-7.1-3.1-14.3-14.2-18.7c-27.2-10.8-44.1,7.1-46.2,17.5l0.7,0c0,0,3.8,0.1,10.1,1.5
		c0.6-1.4,1.1-2.9,1.2-4.9c-0.1,1.5-0.1,3.3-0.4,5.1c2.9,0.7,6.3,1.6,10.2,3c2-2.7,2.3-6,3.2-8.5c-0.9,2.9-1.2,5.9-2.2,8.8
		c2.9,1.1,6,2.4,9.3,3.9c0.8-1.8,1.5-3.9,1.5-5.4c-0.1,1.6-0.2,3.9-0.8,5.7c2.1,1,4.3,2.2,6.5,3.4c1.7-2.8,3.4-5.6,3.5-8.9
		c0-0.6,0-1.2-0.1-1.8c0.1,0.6,0.1,1.2,0.1,1.8c-0.1,3.2-1.5,6.3-2.6,9.4c1.3,0.8,2.7,1.6,4.1,2.5c-2.2,5.8-5.7,10.4-10.8,12.6
		c-13.4,5.5-26.5-0.9-39.7-8.6c2.9,5.2,11.1,9.8,26.9,14C86.7,102.8,89.7,90,93,75.6C94.2,70.7,93.3,65.6,91,61z"/>
	<g>
		<path class="st3" d="M75.8,40.3c-27.2-10.8-44.1,7.1-46.2,17.5l0.7,0c0,0,3.8,0.1,10.1,1.5c0.6-1.4,1.1-2.9,1.2-4.9
			c-0.1,1.5-0.1,3.3-0.4,5.1c2.9,0.7,6.3,1.6,10.2,3c2-2.7,2.3-6,3.2-8.5c-0.9,2.9-1.2,5.9-2.2,8.8c2.9,1.1,6,2.4,9.3,3.9
			c0.8-1.8,1.5-3.9,1.5-5.4c-0.1,1.6-0.2,3.9-0.8,5.7c2.1,1,4.3,2.2,6.5,3.4c1.7-2.8,3.4-5.6,3.5-8.9c0-0.6,0-1.2-0.1-1.8
			c0.1,0.6,0.1,1.2,0.1,1.8c-0.1,3.2-1.5,6.3-2.6,9.4c1.9,1.1,3.9,2.3,5.9,3.6c0.7-1.9,1.4-3.8,2.2-5.7c-0.1,2.3-1.4,4-1.5,6.1
			c2,1.3,4.1,2.8,6.1,4.3C82.7,79.3,103,51.1,75.8,40.3z"/>
		<path d="M75.8,40.3c-4.3-1.7-8.9-2.9-13.5-3.2c-4.6-0.3-9.3,0.3-13.6,1.8c-4.3,1.6-8.3,4-11.6,7.2c-1.6,1.6-3.1,3.4-4.3,5.3
			c-1.2,1.9-2.2,4-2.7,6.2l-0.4-0.5c0.9,0,1.8,0.1,2.7,0.2c0.9,0.1,1.8,0.2,2.7,0.4c1.8,0.3,3.6,0.6,5.4,1l-0.4,0.2
			c0.7-1.5,1.2-3.1,1.2-4.7l0.6,0c-0.1,1.7-0.2,3.4-0.4,5.1l-0.2-0.3c3.4,0.8,6.8,1.9,10.2,3.1l-0.2,0.1c0.9-1.2,1.5-2.6,1.9-4
			c0.5-1.4,0.7-2.9,1.3-4.4l0.3,0.1c-0.9,2.9-1.2,5.9-2.2,8.9l-0.1-0.2c3.2,1.1,6.3,2.4,9.4,3.9l-0.4,0.1c0.4-0.8,0.7-1.7,1-2.6
			c0.3-0.9,0.5-1.8,0.5-2.7l0.6,0c-0.1,1.9-0.2,3.9-0.8,5.8l-0.2-0.4c2.2,1.1,4.4,2.2,6.6,3.4l-0.6,0.1c1-1.7,2-3.3,2.6-5.1
			c0.7-1.7,0.9-3.6,0.6-5.4l0.9-0.1c0.3,2,0,4.1-0.5,6c-0.5,1.9-1.3,3.7-2,5.5l-0.2-0.6c2,1.2,4,2.4,6,3.7l-0.8,0.3l2.2-5.7l1.1-3
			L78.6,69c0,1.1-0.4,2.2-0.8,3.2c-0.4,1-0.7,1.9-0.8,2.9l-0.2-0.5c2.1,1.4,4.1,2.8,6.2,4.3L82.3,79c2.2-3.2,4-6.7,5.4-10.3
			c1.3-3.6,2.2-7.5,2.1-11.4c-0.2-3.9-1.6-7.7-4.2-10.6C82.9,43.8,79.4,41.8,75.8,40.3z M75.8,40.2c3.6,1.4,7.2,3.4,9.8,6.4
			c2.7,2.9,4.3,6.8,4.5,10.7c0.3,4-0.5,8-1.8,11.7c-1.3,3.7-3.1,7.3-5.3,10.6L82.8,80l-0.4-0.3c-2-1.5-4-2.9-6.1-4.3L76,75.3l0-0.3
			c0.1-1.2,0.5-2.2,0.8-3.2c0.4-1,0.6-1.9,0.7-2.9l1,0.2l-2.2,5.7l-0.2,0.6l-0.5-0.4c-1.9-1.3-3.9-2.5-5.9-3.6l-0.4-0.2l0.2-0.4
			c0.7-1.8,1.4-3.6,2-5.5c0.5-1.8,0.8-3.7,0.5-5.6l0.9-0.1c0.3,2,0,4.1-0.7,5.9c-0.7,1.9-1.8,3.5-2.8,5.2L69.3,71l-0.3-0.2
			c-2.1-1.2-4.3-2.4-6.5-3.5l-0.3-0.1l0.1-0.3c0.6-1.8,0.7-3.7,0.8-5.6l0.6,0c-0.1,1-0.3,1.9-0.6,2.8c-0.3,0.9-0.6,1.8-1,2.7
			L62,67.1l-0.2-0.1c-3-1.5-6.1-2.8-9.3-4l-0.2-0.1l0.1-0.2c1-2.9,1.3-5.9,2.2-8.8l0.3,0.1c-0.5,1.4-0.8,2.9-1.3,4.4
			c-0.4,1.5-1,2.9-1.9,4.2l-0.1,0.1l-0.1,0c-3.3-1.2-6.7-2.2-10.1-2.9l-0.2,0l0-0.2c0.2-1.7,0.2-3.3,0.3-5l0.6,0
			c0,1.7-0.5,3.4-1.2,5l-0.1,0.2l-0.3-0.1c-1.8-0.4-3.6-0.7-5.4-0.9c-0.9-0.1-1.8-0.2-2.7-0.3c-0.9-0.1-1.8-0.1-2.7-0.2l-0.5,0
			l0.1-0.5c0.5-2.4,1.5-4.5,2.7-6.5c1.2-2,2.8-3.8,4.5-5.5c3.4-3.3,7.5-5.8,12-7.2c4.5-1.5,9.2-1.9,13.9-1.5
			C67,37.3,71.5,38.5,75.8,40.2z"/>
	</g>
	<path class="st6" d="M25.8,44.8c0,0-8.9,9.7-1.5,12.8c7.4,3.1,10.5-8,10.5-8s-1.7-5.6-9.7-5"/>
	<path class="st1" d="M25,44.6l0.8,0.2c0,0-1.5,1.6-2.7,3.7c2.1,1,5.4-0.3,7.2,1.4c1,2,1,4-2,6c-2.1,1.6-4,1.2-5.9,0.3
		c0.5,0.5,1.1,0.9,1.9,1.3c7.4,3.1,10.5-8,10.5-8S33.1,44,25,44.6z"/>
	<g class="st2">
		<line class="st9" x1="28.9" y1="46.8" x2="24.7" y2="53.1"/>
		<path d="M28.9,46.8c-0.4,1.3-1,2.4-1.7,3.4c-0.7,1-1.5,2-2.5,2.9c0.4-1.3,1-2.4,1.7-3.4C27.1,48.6,27.8,47.6,28.9,46.8z"/>
	</g>
	<g>
		<path class="st8" d="M72.4,11c-31.9,0-41.2,14.7-49.3,24.6c0,0,0.1,0,0.1,0c-3.3,0.4-5.8,3-5.8,6.2c0,3.5,3,6.3,6.6,6.3
			c1.6,0,3.1-0.6,4.3-1.5c2.9,3.2,9.5,6.1,17.5,7.2c7.1,0.9,13.5,0.2,17.3-1.6c0.7,0.3,1.4,0.5,2.1,0.8c13,5,18,21,7,36
			c-1,1.4-2.7,2.6-4.7,3.6c-1.5,0.6-2.9,1.2-4.1,1.7c-2.7,1-5.5,1.7-7.5,2.3c0.8,0.1,2,0.1,3.3,0.1c-1.9,4.8-16,41.7-3.8,61.9
			c13,21.7,48,0,48,0s9.7-8.5,1.3-27.2c-7.7-17.4-15.1-24.1-14.5-35.6c24.5-2.2,31.9-9.9,35.3-31C129.7,39.5,102.8,11,72.4,11z"/>
		<path d="M72.4,11c-4.8,0-9.6,0.3-14.4,1.2c-4.7,0.9-9.4,2.2-13.7,4.3c-4.3,2.1-8.3,4.9-11.7,8.3c-3.5,3.3-6.3,7.2-9.4,10.9
			l-0.1-0.4l0.1,0l0.8,0.4l-0.9,0.1c-1.9,0.2-3.7,1.3-4.7,2.9c-1,1.6-1.1,3.8-0.3,5.5c0.8,1.7,2.5,3,4.4,3.3
			c1.9,0.4,3.9-0.1,5.4-1.3l0.3-0.2l0.2,0.3c2,2.2,4.8,3.6,7.7,4.6C39,52,42,52.7,45,53.2c3,0.4,6.1,0.6,9.1,0.5
			c3-0.2,6.1-0.6,8.8-1.9l0.2-0.1l0.2,0.1c1,0.4,2,0.8,3,1.2c1,0.4,2,0.9,2.9,1.5c1.8,1.2,3.5,2.6,4.9,4.3c2.8,3.4,4.3,7.6,4.6,11.9
			c0.3,4.3-0.8,8.7-2.6,12.5c-0.9,1.9-2,3.8-3.3,5.5c-1.2,1.8-3.1,3.1-5,4l0,0l0,0c-1.4,0.5-2.7,1.1-4.1,1.7l0,0l0,0
			c-2.5,0.9-5,1.5-7.5,2.2l0-0.4c1.1,0.1,2.2,0.1,3.3,0.1l0.3,0l-0.1,0.3c-3.6,9.1-6.3,18.5-7.7,28.2c-0.7,4.8-1.1,9.7-1,14.6
			c0.2,4.9,0.9,9.7,2.6,14.3c0.9,2.3,2,4.4,3.4,6.4c1.4,1.9,3.2,3.6,5.3,4.9c4.1,2.5,9.1,3.2,13.9,2.8c4.8-0.4,9.6-1.6,14.1-3.3
			c4.5-1.7,9-3.8,13.1-6.3l-0.1,0c1.9-1.9,3.2-4.5,3.9-7.1c0.7-2.7,0.8-5.5,0.5-8.2c-0.3-2.8-1-5.5-1.9-8.1c-1-2.6-2.2-5.2-3.4-7.7
			c-2.5-5.1-5.3-9.9-8-14.9c-1.3-2.5-2.5-5.1-3.4-7.9c-0.8-2.7-1.2-5.7-1-8.5l0-0.4l0.4,0c5.7-0.5,11.3-1.3,16.7-3.3
			c2.6-1,5.2-2.3,7.4-4c2.2-1.7,4.1-3.9,5.5-6.3c2.9-4.8,4.2-10.5,5.3-16c1.1-5.6,0.7-11.3-0.9-16.8c-1.6-5.4-4.3-10.5-7.7-15.1
			c-3.4-4.6-7.5-8.6-12.1-12C95.1,15.2,83.9,11.1,72.4,11z M72.4,10.9c11.5-0.1,22.8,4,32,10.8c4.6,3.4,8.8,7.4,12.3,12
			c3.5,4.6,6.3,9.7,7.9,15.2c1.7,5.5,2.2,11.4,1.1,17.1c-0.5,2.8-1.1,5.6-1.9,8.4c-0.8,2.8-1.9,5.5-3.4,8c-1.5,2.5-3.4,4.8-5.7,6.6
			c-2.3,1.8-4.9,3.1-7.6,4.1c-5.5,2-11.2,2.8-16.9,3.3l0.4-0.5c-0.2,2.8,0.2,5.5,1,8.2c0.8,2.7,2,5.2,3.3,7.7c2.6,5,5.5,9.9,8,15
			c1.2,2.6,2.5,5.1,3.4,7.8c1,2.7,1.7,5.5,2,8.3c0.3,2.9,0.2,5.8-0.6,8.6c-0.8,2.8-2,5.5-4.2,7.6l0,0l0,0c-4.3,2.5-8.7,4.6-13.3,6.3
			c-4.6,1.7-9.4,2.9-14.3,3.3c-4.9,0.3-10-0.4-14.3-3c-2.1-1.3-3.9-3-5.4-5c-1.5-2-2.6-4.2-3.4-6.5c-1.7-4.6-2.4-9.5-2.5-14.4
			c-0.1-4.9,0.3-9.8,1-14.6c0.7-4.8,1.8-9.6,3.1-14.3c1.3-4.7,2.8-9.4,4.6-13.9l0.2,0.3c-1.1,0-2.2,0-3.3-0.1l-1.2-0.1l1.1-0.3
			c2.5-0.7,5-1.4,7.5-2.3l0,0c1.4-0.6,2.7-1.2,4.1-1.7l0,0c1.9-1,3.7-2.1,4.8-3.9c1.2-1.7,2.3-3.5,3.2-5.5c1.8-3.8,2.7-8.1,2.5-12.3
			c-0.3-4.2-1.8-8.3-4.5-11.5c-1.3-1.6-2.9-3-4.7-4.1C67,54,65,53.3,63,52.6l0.3,0c-2.9,1.3-6,1.8-9.1,2c-3.1,0.2-6.2,0-9.3-0.5
			c-3.1-0.5-6.1-1.2-9-2.3c-1.5-0.6-2.9-1.2-4.2-2C30.3,49,29,48,28,46.8l0.5,0c-1.7,1.3-3.9,1.8-6,1.4c-2.1-0.4-3.9-1.8-4.8-3.7
			c-0.9-1.9-0.8-4.3,0.3-6c1.1-1.8,3.1-3,5.2-3.2l-0.1,0.5l-0.1,0l-0.3-0.1l0.2-0.3c3-3.7,6-7.6,9.5-10.9c3.5-3.3,7.5-6.1,11.9-8.2
			c4.4-2.1,9-3.4,13.8-4.3C62.8,11.2,67.6,10.9,72.4,10.9z"/>
	</g>
	<path class="st13" d="M114.3,31c-3.5,6.8-8.5,13.1-13.1,19c-7,9-11,26-7,41c1,2-9,3-15,4c2,4,5,6,9,5c1.9,20,26.5,47.3,7.2,62.8
		c4.8-2.2,8-4.1,8-4.1s9.7-8.5,1.3-27.2c-7.7-17.4-15.1-24.1-14.5-35.6c24.5-2.2,31.9-9.9,35.3-31C127.5,53.2,122.8,40.9,114.3,31z"
		/>
	<g>
		<path class="st0" d="M63.2,44c-13-4.3-26-10.2-39.6-9c-0.2,0.2-0.3,0.4-0.5,0.6c0,0,0.1,0,0.1,0c-3.3,0.4-5.8,3-5.8,6.2
			c0,3.5,3,6.3,6.6,6.3c1.6,0,3.1-0.6,4.3-1.5c2.9,3.2,9.5,6.1,17.5,7.2c7.1,0.9,13.5,0.2,17.3-1.6c0.7,0.3,1.4,0.5,2.1,0.8
			c9.2,3.5,14.4,12.6,12.7,22.9c0.5-0.6,0.9-1.2,1.3-1.9C87.2,61,75.2,48,63.2,44z"/>
		<path d="M63.2,44c-3.2-1.1-6.5-2.2-9.7-3.3c-3.2-1.1-6.5-2.1-9.8-3c-3.3-0.9-6.6-1.6-10-2c-3.4-0.4-6.7-0.6-10.1-0.3l0.3-0.2
			l-0.5,0.6l-0.1-0.6l0.1,0l1.3,0.6L23.3,36c-1.9,0.2-3.7,1.2-4.7,2.8c-1,1.6-1.2,3.7-0.4,5.4c0.8,1.7,2.5,3,4.4,3.4
			c1.9,0.4,4-0.1,5.5-1.3l0.1-0.1l0.1,0.1c2,2.3,4.9,3.7,7.7,4.7C39,52.3,42,53,45,53.4c3,0.4,6.1,0.6,9.1,0.4c3-0.2,6.1-0.7,8.8-2
			l0.2-0.1l0.2,0.1c1.2,0.5,2.4,0.9,3.6,1.4c1.2,0.6,2.3,1.2,3.4,2c2.1,1.5,4,3.5,5.4,5.7c1.4,2.2,2.4,4.7,2.8,7.3
			c0.5,2.6,0.4,5.2,0,7.8l-0.9-0.4c0.5-0.7,1-1.4,1.4-2.1c0.4-0.7,0.8-1.5,1.1-2.3c0.6-1.5,1.1-3.2,1.2-4.9c0.3-3.4-0.6-6.8-2.3-9.7
			c-1.7-3-4-5.6-6.7-7.7C69.6,46.8,66.5,45.2,63.2,44z M63.3,44c3.3,1.1,6.4,2.7,9.2,4.8c2.8,2.1,5.3,4.6,7.1,7.6
			c1.8,3,2.9,6.5,2.7,10.1c-0.1,1.8-0.5,3.5-1.2,5.2c-0.3,0.8-0.8,1.6-1.2,2.4c-0.4,0.7-0.9,1.5-1.4,2.2l-1.2,1.6l0.3-2
			c0.4-2.5,0.4-5,0-7.5c-0.4-2.5-1.3-4.8-2.6-7c-1.3-2.1-3-4-5.1-5.5c-1-0.7-2.1-1.4-3.2-1.9c-1.1-0.5-2.3-1-3.5-1.5l0.3,0
			c-2.9,1.3-6,1.7-9.1,1.9c-3.1,0.1-6.2-0.1-9.3-0.6c-3-0.5-6.1-1.2-9-2.3c-1.4-0.6-2.9-1.2-4.2-2c-1.3-0.8-2.6-1.7-3.7-2.8l0.2,0
			c-1.6,1.3-3.8,1.8-5.8,1.4c-2-0.4-3.9-1.7-4.8-3.6c-1-1.9-0.9-4.3,0.2-6.1c1.1-1.8,3.1-3.1,5.2-3.3L23,36l-0.1,0l-0.5-0.2l0.3-0.4
			l0.5-0.6l0.1-0.1l0.2,0c3.4-0.3,6.9-0.2,10.3,0.4c3.4,0.5,6.7,1.3,10,2.3c3.3,1,6.5,2.1,9.7,3.3C56.8,41.7,60,42.8,63.3,44z"/>
	</g>
	<path class="st16" d="M56.2,110c-2-13,17-12,23-22c7-12,4-29-9-37c-12-7-26,5-37-4c-1-2-4-3-4-6c-3.8,0-7.6,3.6-11.4,3.1
		c1,2.3,3.3,4,6.1,4c1.6,0,3.1-0.6,4.3-1.5c2.9,3.2,9.5,6.1,17.5,7.2c7.1,0.9,13.5,0.2,17.3-1.6c0.7,0.3,1.4,0.5,2.1,0.8
		c13,5,18,21,7,36c-1,1.4-2.7,2.6-4.7,3.6c-1.5,0.6-2.9,1.2-4.1,1.7c-2.7,1-5.5,1.7-7.5,2.3c0.8,0.1,2,0.1,3.3,0.1
		c-1.5,3.8-10.8,28.2-8.3,48.1C50.9,134.1,57.5,120.1,56.2,110z"/>
	<g>
		<path class="st8" d="M106.7,23.6c0,0,2.4,2.2,9.4,9.6s31.3,54.7,4.2,61.8c-27.2,7.2-25.5-19.5-19.8-44.7c0,0,0.2-2.9-0.5-4.6"/>
		<path d="M106.7,23.5c2.3,2.1,4.5,4.2,6.7,6.4l3.2,3.3c1,1.2,2,2.4,2.8,3.7c3.4,5.2,6.2,10.7,8.4,16.5c2.2,5.8,4,11.8,4.8,17.9
			c0.4,3.1,0.5,6.2,0.1,9.3c-0.4,3.1-1.3,6.1-3.2,8.7c-1.8,2.6-4.5,4.4-7.5,5.5c-3,1-6,1.7-9.2,1.8c-3.1,0.1-6.4-0.4-9.1-2.1
			c-1.4-0.9-2.5-2-3.5-3.3c-0.9-1.3-1.6-2.7-2.2-4.2c-1-3-1.5-6.1-1.6-9.2c-0.1-3.1,0.1-6.2,0.4-9.3c0.7-6.2,1.8-12.2,3.3-18.2l0,0
			c0.1-0.8,0.1-1.5,0-2.3c-0.1-0.8-0.1-1.5-0.4-2.3l0.1,0c0.3,0.7,0.4,1.5,0.5,2.3c0.1,0.8,0.1,1.6,0.1,2.3l0,0l0,0
			c-1.2,6-2.3,12.1-2.8,18.2c-0.3,3.1-0.3,6.1-0.2,9.2c0.2,3,0.6,6.1,1.6,8.9c1,2.8,2.7,5.4,5.2,7c2.5,1.6,5.6,2.1,8.6,2
			c3-0.1,6.1-0.7,8.9-1.6c2.9-1,5.5-2.7,7.3-5.1c1.8-2.4,2.8-5.4,3.2-8.4c0.4-3,0.3-6.1-0.2-9.2c-0.9-6.1-2.9-11.9-5.2-17.6
			c-2.4-5.7-5-11.2-8.3-16.4c-0.8-1.3-1.7-2.6-2.7-3.7l-3.1-3.4C110.9,28.1,108.8,25.8,106.7,23.5L106.7,23.5z"/>
	</g>
	<g>
		<path d="M48.4,72.7c1.4-0.5,2.8-0.8,4.3-1.1c1.5-0.2,3-0.3,4.5-0.1c1.5,0.2,3.1,0.4,4.5,1.4c1.3,0.9,2.3,2.3,2.5,3.9L64,76.9
			c-1.2-1-2.2-1.7-3.4-2.3c-1.2-0.5-2.3-1.2-3.7-1.5c-1.3-0.3-2.7-0.5-4.2-0.5c-1.4,0-2.9,0.1-4.3,0.3L48.4,72.7z"/>
	</g>
	<g>
		<path class="st4" d="M25.4,73.5c0.7-3.2,4-2.7,7.8-1.9c3.7,0.8,7.9,2,7.2,5.2c-0.7,3.2-5.5,5.5-9.3,4.7
			C27.3,80.8,24.7,76.7,25.4,73.5z"/>
		<path d="M25.4,73.5c0.2-0.8,0.6-1.7,1.4-2.1c0.8-0.4,1.7-0.5,2.5-0.5c1.7,0,3.4,0.4,5.1,0.7c1.7,0.4,3.4,0.7,5,1.8
			c0.8,0.5,1.4,1.4,1.5,2.4c0,0.3,0,0.5,0,0.7L40.8,77l-0.1,0.3c-0.2,0.5-0.4,0.9-0.6,1.3c-1.1,1.6-2.7,2.5-4.4,3
			c-1.7,0.5-3.6,0.6-5.3,0c-1.7-0.6-3.1-1.8-4-3.3C25.5,77,25,75.2,25.4,73.5z M25.4,73.5c-0.4,1.7,0.2,3.5,1.2,4.8
			c1,1.4,2.4,2.4,4,2.9c1.6,0.4,3.3,0.2,4.9-0.3c1.5-0.6,3-1.5,3.8-2.8c0.2-0.3,0.4-0.7,0.5-1l0.1-0.3l0-0.3c0-0.2,0-0.4,0-0.5
			c0-0.7-0.5-1.3-1.1-1.8c-1.3-1-2.9-1.5-4.5-2c-1.6-0.4-3.3-0.9-5-1.1c-0.8-0.1-1.7,0-2.5,0.4C26,71.9,25.6,72.7,25.4,73.5z"/>
	</g>
	<g>
		<path class="st10" d="M40.2,77.1c0-0.1,0.1-0.2,0.1-0.3c0.7-3.2-3.4-4.4-7.2-5.2c-3.7-0.8-7.1-1.3-7.8,1.9
			c-0.1,0.5-0.1,0.9-0.1,1.4C30.7,74.6,35.5,75.6,40.2,77.1z"/>
		<path d="M40.2,77.1c0.2-0.8,0.1-1.7-0.4-2.4c-0.5-0.7-1.3-1.1-2-1.5c-1.5-0.7-3.2-1-4.9-1.4c-1.7-0.3-3.4-0.7-5-0.5
			c-0.8,0.1-1.5,0.5-1.8,1.2c-0.4,0.6-0.5,1.5-0.5,2.3l-0.4-0.3c2.6-0.1,5.1,0,7.6,0.5C35.4,75.5,37.9,76.3,40.2,77.1z M40.2,77.1
			c-2.5-0.7-4.9-1.2-7.4-1.6c-2.5-0.3-5-0.5-7.5-0.3l-0.4,0l0-0.4c-0.1-0.9,0.1-1.9,0.5-2.7c0.5-0.9,1.5-1.4,2.4-1.5
			c1.8-0.2,3.5,0.2,5.2,0.6c1.7,0.4,3.4,0.8,4.9,1.6c0.8,0.4,1.5,0.9,2,1.7C40.5,75.4,40.6,76.4,40.2,77.1z"/>
	</g>
	<g>
		<path d="M61.6,37.1c-1.2,2.2-2.6,3.7-4.7,2.5c-2.2-1.2-2.9-4-1.7-6.2c1.2-2.2,4-2.9,6.2-1.7C63.6,33,62.9,34.9,61.6,37.1z"/>
		<ellipse transform="matrix(0.9942 0.1075 -0.1075 0.9942 4.0383 -5.9086)" class="st10" cx="56.8" cy="34.5" rx="0.8" ry="0.9"/>
	</g>
	<g>
		<path d="M28.3,30.4c-1,0.9-1.8,1.4-2,0.4c-0.1-1,0.6-2.5,1.6-3.4c1-0.9,1.9-0.8,2.1,0.2C30.1,28.7,29.3,29.5,28.3,30.4z"/>
		<path class="st10" d="M28.1,28.4c-0.2,0.2-0.4,0.3-0.5,0.2c-0.1-0.1,0-0.4,0.1-0.6c0.2-0.2,0.4-0.3,0.5-0.2
			C28.3,27.9,28.3,28.2,28.1,28.4z"/>
	</g>
	<path class="st12" d="M68.8,47c-0.3,1.7-5,2.1-10.4,1s-9.5-3.4-9.1-5.1c0.3-1.7,5-2.1,10.4-1C65,43.1,69.1,45.3,68.8,47z"/>
	<path class="st10" d="M67.2,44.5c-0.3,0.8-1.6,1.1-3.1,0.6c-1.4-0.5-2.4-1.5-2.1-2.3c0.3-0.8,1.6-1.1,3.1-0.6
		C66.5,42.7,67.5,43.7,67.2,44.5z"/>
	<path class="st12" d="M68.5,81.4c-0.3,1.7-5,2.1-10.4,1s-9.5-3.4-9.1-5.1c0.3-1.7,5-2.1,10.4-1C64.7,77.4,68.8,79.7,68.5,81.4z"/>
	<path class="st10" d="M67,78.8c-0.3,0.8-1.6,1.1-3.1,0.6c-1.4-0.5-2.4-1.5-2.1-2.3c0.3-0.8,1.6-1.1,3.1-0.6
		C66.3,77,67.2,78,67,78.8z"/>
	<path d="M33.8,42.8c-0.3,2-3.1,4.4-5.8,3.9c-2.8-0.5-3.6-3.5-3.2-5.5s1.7-2.3,4.5-1.8S34.1,40.9,33.8,42.8z"/>
	<ellipse class="st10" cx="27.5" cy="40.1" rx="1.4" ry="0.3"/>
	<g>
		<path class="st8" d="M77.2,106.7c0,0-34.3-33.2-47.4-26.7S52,92.8,54.6,119.5"/>
		<path d="M77.2,106.7c-6.8-5.9-13.7-11.6-21-16.9c-3.6-2.6-7.3-5.2-11.4-7.2c-2-1-4.1-1.9-6.2-2.5c-2.1-0.6-4.4-0.9-6.6-0.5
			c-1.1,0.2-2.1,0.6-3,1.2c-0.9,0.6-1.8,1.4-1.7,2.3c0,0.9,0.8,1.8,1.5,2.6c0.8,0.8,1.6,1.5,2.5,2.2c3.6,2.7,7.3,5.3,10.7,8.3
			c3.4,3,6.4,6.5,8.7,10.4c2.3,3.9,3.7,8.4,3.9,12.9l-0.1,0c-0.6-4.5-2.2-8.7-4.5-12.5c-2.3-3.8-5.4-7.1-8.7-10.1
			c-3.3-3-7-5.6-10.6-8.4c-0.9-0.7-1.8-1.4-2.6-2.3c-0.4-0.4-0.8-0.9-1.1-1.4c-0.3-0.5-0.6-1.1-0.6-1.8c0-0.7,0.3-1.3,0.8-1.8
			c0.4-0.5,0.9-0.8,1.4-1.1c1-0.6,2.1-1,3.3-1.2c2.3-0.4,4.6,0.1,6.8,0.7c2.2,0.6,4.3,1.6,6.3,2.5c4.1,2,7.9,4.3,11.7,6.8
			c3.7,2.6,7.3,5.4,10.7,8.3C70.8,100.3,74.1,103.4,77.2,106.7L77.2,106.7z"/>
	</g>
</g>
<g>
	<g>
		
			<radialGradient id="SVGID_1_" cx="261.7373" cy="123.7969" r="71.2874" gradientTransform="matrix(2.575285e-002 1.4686 -0.6056 3.372602e-002 153.7334 -276.1824)" gradientUnits="userSpaceOnUse">
			<stop  offset="0" style="stop-color:#2EA3D4"/>
			<stop  offset="0.2056" style="stop-color:#31A7D6;stop-opacity:0.7944"/>
			<stop  offset="0.4156" style="stop-color:#3AB3DC;stop-opacity:0.5844"/>
			<stop  offset="0.6276" style="stop-color:#4AC8E5;stop-opacity:0.3724"/>
			<stop  offset="0.8396" style="stop-color:#5FE4F2;stop-opacity:0.1604"/>
			<stop  offset="1" style="stop-color:#73FFFF;stop-opacity:0"/>
		</radialGradient>
		<path class="st14" d="M164.4,103.2v68.2L8.5,178.9l1-77.5c0,0,4.7-6.8,25,1.9c20.4,8.8,18.6-15.4,53.6-4.5
			c35,10.9,21.7-8.7,44.6-2.9c22.9,5.8,31.6,5.4,31.6,5.4"/>
	</g>
	<g>
		<g>
			<path class="st5" d="M9.5,101.3c1.1-1.3,2.8-1.9,4.4-2.3c1.7-0.3,3.4-0.4,5-0.3c3.4,0.2,6.7,1,9.9,2.1c1.6,0.5,3.2,1.1,4.8,1.8
				c1.6,0.7,3.1,1.3,4.7,1.7c1.6,0.4,3.3,0.7,4.9,0.6c1.6-0.1,3.3-0.4,4.8-1c3.1-1.2,5.9-3.1,8.9-4.7c3-1.6,6.3-2.8,9.6-3.3
				c6.8-1.1,13.7,0.1,20.1,2c3.2,1,6.4,2,9.7,2.7c3.3,0.7,6.6,1.3,9.9,1.2c1.6,0,3.3-0.3,4.8-0.8c1.5-0.5,2.9-1.4,4.3-2.4
				c1.3-1,2.6-2.1,4.2-2.9c1.6-0.8,3.3-1.1,5-1.2c3.5-0.1,6.8,0.7,10,1.6c3.3,0.8,6.5,1.6,9.8,2.3c3.3,0.7,6.6,1.4,9.9,1.9
				c3.3,0.5,6.7,1,10,1.1c-3.4,0-6.7-0.4-10.1-0.8c-3.3-0.5-6.7-1-10-1.7c-3.3-0.7-6.6-1.4-9.9-2.2c-3.3-0.8-6.5-1.6-9.8-1.4
				c-1.6,0.1-3.3,0.4-4.7,1.2c-1.5,0.7-2.7,1.8-4.1,2.8c-1.3,1-2.8,2-4.5,2.5c-1.6,0.6-3.4,0.8-5.1,0.9c-3.4,0.1-6.8-0.4-10.1-1.2
				c-3.3-0.7-6.6-1.7-9.8-2.7c-6.4-1.8-13.1-3.1-19.7-2c-3.3,0.5-6.4,1.6-9.4,3.2c-3,1.5-5.8,3.4-9,4.6c-1.6,0.6-3.3,1-5,1
				c-1.7,0-3.4-0.2-5.1-0.7c-1.6-0.4-3.2-1.1-4.8-1.8c-1.5-0.7-3.1-1.3-4.7-1.8c-3.2-1.1-6.4-2-9.8-2.3c-1.7-0.1-3.4-0.1-5,0.2
				C12.4,99.5,10.7,100,9.5,101.3z"/>
		</g>
	</g>
</g>
</svg>
