<?xml version="1.0" encoding="utf-8"?>
<!-- Generator: Adobe Illustrator 15.1.0, SVG Export Plug-In . SVG Version: 6.00 Build 0)  -->
<!DOCTYPE svg PUBLIC "-//W3C//DTD SVG 1.1//EN" "http://www.w3.org/Graphics/SVG/1.1/DTD/svg11.dtd">
<svg version="1.1" id="goat" xmlns="http://www.w3.org/2000/svg" xmlns:xlink="http://www.w3.org/1999/xlink" x="0px" y="0px"
	 width="238.5px" height="212.3px" viewBox="0 0 238.5 212.3" style="enable-background:new 0 0 238.5 212.3;" xml:space="preserve"
	>
<style type="text/css">
<![CDATA[
	.st0{opacity:0.58;fill:#B7AA72;}
	.st1{opacity:0.25;fill:#91623C;}
	.st2{fill:#EFE6B9;}
	.st3{fill:#231F20;}
	.st4{fill:#F9D3AA;}
	.st5{opacity:0.29;fill:#B7AA72;}
	.st6{fill:#C99C6B;}
	.st7{fill:#FFEBCA;}
	.st8{fill:#FFFFFF;}
	.st9{opacity:0.41;fill:#BCB1A0;}
	.st10{opacity:0.47;fill:#FFA6A6;}
	.st11{opacity:0.57;fill:#FF9797;}
	.st12{opacity:0.5;fill:url(#SVGID_1_);}
]]>
</style>
<g>
	<g>
		<path class="st8" d="M157.8,105.6c0,0-4.6-5.9,0-6.4c0,0-3-3.7,1.6-3.2c0,0,1.3-5.3,5-2.1c0,0,3.3,0,3,3.8c0,0,6-1.8,4.7,1.5
			c0,0,3.2,2.5,0.2,3.8c0,0,2.7,4.8-0.9,3.2c0,0,3,5.3-0.7,4.2c0,0,2.1,3.3-0.5,1.4C170.3,111.9,157.2,116.8,157.8,105.6z"/>
		<path d="M157.7,105.6c-0.4-0.5-0.8-1.1-1.2-1.6c-0.4-0.6-0.7-1.2-0.9-1.9c-0.2-0.7-0.3-1.5,0.1-2.2c0.5-0.7,1.3-1,2-1.1l-0.2,0.6
			c-0.3-0.4-0.6-0.8-0.8-1.3c-0.2-0.5-0.4-1-0.2-1.6c0.1-0.3,0.4-0.6,0.6-0.7c0.3-0.1,0.5-0.2,0.8-0.3c0.5-0.1,1-0.1,1.5,0l-0.5,0.3
			c0.2-0.6,0.4-1.2,0.7-1.7c0.3-0.5,0.8-1.1,1.4-1.4c0.6-0.4,1.4-0.3,2-0.1c0.6,0.2,1.1,0.6,1.6,1l-0.2-0.1c0.5,0,1,0.2,1.4,0.4
			c0.4,0.2,0.8,0.5,1.1,1c0.6,0.8,0.7,1.8,0.6,2.8l-0.2-0.2c1.1-0.3,2.1-0.5,3.2-0.5c0.5,0,1.2,0.1,1.6,0.6c0.4,0.5,0.3,1.2,0.1,1.7
			l-0.1-0.2c0.3,0.3,0.7,0.6,0.9,0.9c0.3,0.3,0.5,0.7,0.6,1.2c0.1,0.5,0,1-0.3,1.4c-0.3,0.4-0.7,0.6-1.1,0.8l0.2-0.5
			c0.2,0.4,0.4,0.8,0.6,1.2c0.2,0.4,0.3,0.9,0.4,1.4c0,0.3,0.1,0.5,0,0.9c-0.1,0.4-0.5,0.7-0.9,0.7c-0.6,0-1.1-0.2-1.5-0.3l0.6-0.6
			c0.5,0.9,0.9,1.8,1.2,2.9c0,0.3,0.1,0.6,0,0.9c0,0.3-0.2,0.7-0.6,1c-0.4,0.2-0.7,0.3-1,0.2c-0.3,0-0.6-0.1-0.9-0.2l0.6-0.8
			c0.2,0.3,0.3,0.5,0.5,0.8c0.1,0.3,0.3,0.6,0.4,0.9c0,0.1,0,0.2,0,0.4c0,0.1,0,0.5-0.4,0.6c-0.3,0.1-0.5,0.1-0.6,0.1
			c-0.1,0-0.2-0.1-0.3-0.1c-0.3-0.2-0.6-0.3-0.8-0.5l0.5,0.1c-1.4,0.5-2.9,0.8-4.4,1c-1.5,0.1-3,0.1-4.5-0.4c-1.5-0.5-2.8-1.6-3.4-3
			C157.6,108.6,157.6,107.1,157.7,105.6z M157.8,105.6c0,1.4,0.2,2.9,0.9,4.2c0.6,1.3,1.8,2.1,3.1,2.5c1.3,0.4,2.8,0.4,4.2,0.2
			c1.4-0.2,2.8-0.5,4.1-1l0.3-0.1l0.2,0.2c0.2,0.2,0.5,0.3,0.7,0.4c0,0,0.1,0,0.1,0c0,0,0,0-0.2,0c-0.2,0.1-0.2,0.3-0.2,0.3
			c0,0,0,0,0-0.1c0-0.2-0.2-0.5-0.3-0.7c-0.1-0.2-0.3-0.5-0.4-0.7l-0.8-1.2l1.4,0.5c0.4,0.1,0.9,0.2,1,0.1c0.1,0,0.2-0.4,0.1-0.9
			c-0.2-0.9-0.6-1.8-1-2.6l-0.6-1.2l1.2,0.6c0.4,0.2,0.8,0.3,1,0.3c0.1,0,0.1,0,0.1-0.1c0-0.1,0-0.3,0-0.5c-0.1-0.8-0.5-1.6-0.8-2.4
			l-0.2-0.4l0.3-0.1c0.4-0.1,0.7-0.3,0.9-0.6c0.2-0.3,0.3-0.6,0.2-0.9c-0.1-0.7-0.7-1.4-1.3-1.9l-0.1-0.1l0.1-0.1
			c0.2-0.5,0.3-1,0-1.3c-0.3-0.3-0.8-0.4-1.3-0.5c-1,0-2.1,0.2-3.1,0.5l-0.2,0.1l0-0.3c0.1-0.9,0-1.8-0.6-2.5
			c-0.3-0.3-0.6-0.6-1-0.7c-0.4-0.2-0.8-0.2-1.2-0.2l-0.1,0l-0.1-0.1c-0.4-0.3-0.9-0.6-1.4-0.8c-0.5-0.2-1-0.1-1.4,0.1
			c-0.8,0.5-1.3,1.6-1.6,2.6l-0.1,0.4l-0.4,0c-0.4,0-0.9-0.1-1.3,0c-0.4,0.1-0.7,0.2-0.8,0.4c-0.1,0.2,0,0.7,0.1,1
			c0.2,0.4,0.4,0.8,0.7,1.1l0.4,0.5l-0.7,0.1c-0.6,0.1-1.2,0.2-1.5,0.7c-0.3,0.4-0.3,1.1-0.2,1.7
			C156.4,103.2,157.1,104.4,157.8,105.6L157.8,105.6L157.8,105.6z"/>
	</g>
	<path class="st9" d="M172.1,99.2c0.2-0.5,0.2-0.9,0.1-1.2c-0.4,1.2-1,2.2-1.6,3.1c-1.8,0.9-4.6,0-5.5-2.8c-2.2,3-5.6,2.9-7.8,0.9
		c-3.8,0.9,0.5,6.3,0.5,6.3c-0.6,11.2,12.5,6.3,12.5,6.3c2.5,1.8,0.5-1.4,0.5-1.4c3.7,1.1,0.7-4.2,0.7-4.2c3.6,1.6,0.9-3.2,0.9-3.2
		C175.4,101.7,172.1,99.2,172.1,99.2z"/>
	<path d="M76.9,113c0,0-61.7,11.8,12.7,6.9C89.6,119.8,91.9,112.6,76.9,113z"/>
	<g>
		<path class="st8" d="M64.9,111.6c0,0-3.7,2.9-1.5,4.9c0,0-1.8,2.2,0.4,2.5c0,0,1.3,2.2,3.6,2c0,0-1.5,4,1.8,2.4c0,0,1.6,1.7,4-1.7
			c0,0,4.9,4.7,5.4,0.8c0,0,4.1,1,4.1-1.5c0,0,4.4,2.4,4.4,0c0,0,6.2,1.8,2.6-4.8C89.7,116.3,91.2,107.4,64.9,111.6z"/>
		<path d="M64.9,111.6c-0.7,0.7-1.3,1.4-1.7,2.3c-0.2,0.4-0.3,0.9-0.2,1.3c0.1,0.4,0.3,0.8,0.6,1.1l0.2,0.2l-0.2,0.2
			c-0.3,0.4-0.6,0.9-0.6,1.3c0,0.2,0.1,0.3,0.2,0.4c0.1,0.1,0.4,0.2,0.6,0.2l0.2,0l0.1,0.2c0.2,0.3,0.4,0.5,0.6,0.7
			c0.2,0.2,0.5,0.4,0.8,0.6c0.6,0.3,1.2,0.5,1.8,0.4l0.6,0l-0.2,0.6c-0.1,0.3-0.2,0.7-0.3,1c0,0.3-0.1,0.7,0,0.9
			c0.1,0.2,0.2,0.2,0.5,0.2c0.3,0,0.6-0.2,1-0.3l0.3-0.1l0.2,0.2c0.2,0.2,0.5,0.3,0.8,0.3c0.3,0,0.7-0.1,1-0.3
			c0.6-0.4,1.2-1,1.7-1.6l0.2-0.3l0.2,0.2c0.8,0.8,1.7,1.6,2.7,2.1c0.5,0.2,1.1,0.4,1.6,0.3c0.5-0.2,0.7-0.7,0.8-1.3l0-0.2l0.2,0
			c0.8,0.2,1.7,0.2,2.4,0.1c0.4-0.1,0.8-0.2,1.1-0.4c0.3-0.2,0.4-0.6,0.4-1l0-0.3l0.3,0.1c0.8,0.4,1.6,0.7,2.4,0.9
			c0.4,0.1,0.8,0.1,1.1,0c0.3-0.1,0.4-0.3,0.4-0.7l0-0.4l0.4,0.1c0.6,0.1,1.3,0.2,1.9,0.1c0.6-0.1,1.1-0.3,1.2-0.8
			c0.1-0.5,0-1.1-0.2-1.7c-0.2-0.6-0.5-1.2-0.8-1.8l-0.1-0.1l0-0.2c0-0.4-0.1-0.9-0.3-1.4c-0.2-0.4-0.5-0.9-0.9-1.2
			c-0.8-0.7-1.8-1.2-2.8-1.6c-2.1-0.7-4.4-1-6.6-1.1c-2.3-0.1-4.5,0-6.8,0.1C69.5,111.2,67.2,111.4,64.9,111.6z M64.9,111.5
			c2.3-0.5,4.5-0.9,6.8-1.1c2.3-0.3,4.6-0.4,6.9-0.4c2.3,0,4.7,0.3,6.9,1.1c1.1,0.4,2.2,0.9,3.2,1.8c0.9,0.9,1.6,2,1.5,3.5l-0.1-0.3
			c0.3,0.6,0.6,1.3,0.9,1.9c0.2,0.7,0.4,1.4,0.2,2.3c-0.1,0.4-0.4,0.8-0.8,1c-0.4,0.2-0.8,0.3-1.1,0.3c-0.8,0.1-1.5-0.1-2.2-0.3
			l0.4-0.3c0,0.3-0.1,0.5-0.2,0.8c-0.2,0.3-0.4,0.4-0.7,0.5c-0.5,0.1-1,0-1.4-0.1c-0.9-0.2-1.7-0.6-2.4-1L83,121
			c0,0.5-0.2,1-0.5,1.3c-0.4,0.3-0.8,0.5-1.2,0.5c-0.9,0.1-1.7,0-2.6-0.2l0.2-0.1c-0.1,0.6-0.3,1.3-0.9,1.6c-0.7,0.2-1.3,0-1.8-0.2
			c-1.1-0.5-2.1-1.2-3-2l0.4,0c-0.5,0.7-1,1.4-1.8,1.9c-0.4,0.3-0.8,0.5-1.4,0.5c-0.5,0-1-0.1-1.4-0.5l0.5,0.1
			c-0.4,0.2-0.8,0.3-1.2,0.4c-0.2,0-0.5,0-0.8-0.1c-0.3-0.1-0.5-0.4-0.6-0.6c-0.2-0.5-0.2-1-0.1-1.4c0.1-0.4,0.2-0.8,0.3-1.2
			l0.4,0.6c-0.8,0-1.6-0.2-2.3-0.6c-0.3-0.2-0.6-0.5-0.9-0.7c-0.3-0.3-0.5-0.6-0.7-0.9l0.3,0.2c-0.3-0.1-0.6-0.1-0.9-0.4
			c-0.3-0.2-0.5-0.7-0.4-1c0-0.4,0.2-0.7,0.3-0.9c0.2-0.3,0.3-0.5,0.5-0.7l0,0.4c-0.4-0.4-0.7-0.9-0.7-1.5c-0.1-0.6,0.1-1.1,0.4-1.5
			C63.3,112.8,64.1,112.1,64.9,111.5L64.9,111.5L64.9,111.5z"/>
	</g>
	<path class="st9" d="M64.9,111.6c0,0-3.7,2.9-1.5,4.9c0,0-1.8,2.2,0.4,2.5c0,0,1.3,2.2,3.6,2c0,0-1.5,4,1.8,2.4c0,0,1.6,1.7,4-1.7
		c0,0,4.9,4.7,5.4,0.8c0,0,4.1,1,4.1-1.5c0,0,4.4,2.4,4.4,0c0,0,6.2,1.8,2.6-4.8C89.7,116.3,91.2,107.4,64.9,111.6z"/>
	<g>
		<g>
			<path class="st2" d="M68.3,51.2c0.1-0.2,0.2-0.3,0.3-0.4c0,0,0,0,0-0.1c0.8-1,1.3-1.9,1.7-2.7c0.8-1.6,1.5-3.2,1.9-5
				c0.5-2,0.6-4.1,0.5-6.2c-0.9-11.7-11.4-20.5-23.6-19.6C37,18,27.8,28.3,28.7,40c0.9,11.7,11.4,20.5,23.6,19.6c0.1,0,0.1,0,0.2,0
				l0,0C74,71.4,79,55.4,79,55.4C74.6,60.8,64.1,56.3,68.3,51.2z"/>
			<g>
				<path d="M68.3,51.1c3-3.9,4.6-8.8,4.3-13.7c-0.3-4.9-2.4-9.5-5.7-13c-1.7-1.7-3.6-3.2-5.7-4.4c-2.1-1.1-4.4-1.9-6.8-2.3
					c-4.8-0.8-9.8-0.1-14.1,2.2c-2.2,1.1-4.1,2.6-5.8,4.4c-1.7,1.8-3,3.9-4,6.1c-1.9,4.5-2.1,9.6-0.6,14.2c1.5,4.6,4.7,8.6,8.8,11.1
					c4.1,2.6,9,3.8,13.8,3.3l1.8-0.2L52.8,60l0,0l-0.1-0.9c2.2,1.2,4.6,2.3,7,3.1c2.4,0.8,4.9,1.3,7.5,1.2c2.5-0.1,5-0.8,7-2.3
					c2-1.4,3.7-3.5,4.6-5.9l0.4,0.2c-1,1.1-2.3,1.9-3.7,2.2c-1.4,0.3-2.9,0.2-4.3-0.2c-1.4-0.4-2.7-1.2-3.5-2.5
					c-0.4-0.6-0.5-1.4-0.4-2.1C67.5,52.3,67.8,51.7,68.3,51.1z M68.4,51.2c-0.4,0.6-0.8,1.2-0.9,1.9c-0.1,0.7,0,1.4,0.4,2
					c0.7,1.2,2.1,1.9,3.4,2.3c1.4,0.4,2.8,0.4,4.2,0s2.6-1.1,3.4-2.2l1-1.2l-0.5,1.5c-0.9,2.5-2.5,4.7-4.6,6.4
					c-2.1,1.6-4.8,2.5-7.5,2.6c-2.7,0.1-5.3-0.4-7.8-1.2c-2.5-0.8-4.9-1.9-7.2-3.1l-0.7-0.4l0.6-0.5l0,0l0.4,0.9
					c-5,0.4-10.1-0.9-14.3-3.6c-4.2-2.7-7.4-6.9-8.9-11.7c-1.5-4.8-1.1-10,0.9-14.6c2-4.5,5.5-8.3,9.9-10.7
					c4.3-2.4,9.5-3.3,14.4-2.6c4.9,0.7,9.7,3.1,13,6.9c3.4,3.7,5.4,8.6,5.5,13.6C73.1,42.4,71.4,47.3,68.4,51.2z"/>
			</g>
		</g>
		<path class="st0" d="M68.3,51.2c0.1-0.2,0.2-0.3,0.3-0.4c0,0,0,0,0-0.1c0.8-1,1.3-1.9,1.7-2.7c0.8-1.6,1.5-3.2,1.9-5
			c0.5-2,0.6-4.1,0.5-6.2c-0.7-9-7-16.2-15.4-18.7c-13.7,3.6-25.8,14.1-27,28.7c3.6,8.2,12.2,13.6,21.9,12.9c0.1,0,0.1,0,0.2,0l0,0
			C74,71.4,79,55.4,79,55.4C74.6,60.8,64.1,56.3,68.3,51.2z"/>
		<g>
			<path d="M31.4,48.4c3.1,4.2,7.1,7.9,11.9,9.9c2.4,1,5,1.6,7.6,1.4c2.6-0.2,5.2-1.1,7.2-2.8c2-1.7,3.4-3.9,4-6.4
				c0.6-2.5,0.3-5.2-1.1-7.2c-0.7-1-1.6-1.9-2.8-2.4c-1-0.6-2.4-0.8-3.6-0.7c-1.2,0.1-2.5,0.5-3.4,1.4c-1,0.8-1.7,1.9-2.2,3.2
				l-0.1,0c0.4-1.3,1-2.5,2-3.5c1-1,2.3-1.6,3.7-1.8c0.7-0.1,1.4-0.1,2.1,0c0.3,0,0.7,0.1,1,0.2c0.4,0.1,0.7,0.2,1,0.4
				c1.3,0.6,2.4,1.5,3.2,2.7c1.6,2.4,1.9,5.4,1.1,8c-0.7,2.7-2.4,5-4.6,6.6c-2.2,1.6-4.8,2.5-7.5,2.7c-2.7,0.3-5.4,0-8-0.9
				c-2.6-0.9-4.8-2.5-6.8-4.3C34.3,52.9,32.5,50.8,31.4,48.4L31.4,48.4z"/>
		</g>
		<g>
			<g>
				<line class="st8" x1="51.8" y1="17.1" x2="53.8" y2="40"/>
				<path d="M51.8,17.1c0.7,3.8,1.1,7.6,1.5,11.4c0.3,3.8,0.6,7.6,0.5,11.5c-0.7-3.8-1.1-7.6-1.5-11.4C51.9,24.8,51.7,21,51.8,17.1z
					"/>
			</g>
			<g>
				<path d="M55.8,17.6c0.2,3.7,0.2,7.5,0,11.2c-0.2,3.7-0.4,7.5-0.9,11.2c-0.2-3.7-0.2-7.5,0-11.2C55,25.1,55.3,21.4,55.8,17.6z"/>
			</g>
			<g>
				<path d="M59,18.6c0,3.6-0.4,7.2-0.8,10.8c-0.5,3.6-1,7.1-1.8,10.6c0-3.6,0.4-7.2,0.8-10.8C57.7,25.7,58.2,22.1,59,18.6z"/>
			</g>
			<g>
				<path d="M63.3,20.8c-0.5,3.3-1.3,6.5-2.2,9.7c-0.9,3.2-1.9,6.3-3.2,9.4c0.5-3.3,1.3-6.5,2.2-9.7C61,27.1,62,23.9,63.3,20.8z"/>
			</g>
			<g>
				<path d="M67.2,24.1c-1,2.9-2.3,5.7-3.6,8.4c-1.4,2.7-2.8,5.4-4.5,8c1-2.9,2.3-5.7,3.6-8.4C64,29.4,65.5,26.7,67.2,24.1z"/>
			</g>
			<g>
				<path d="M69.7,27.5c-1.2,2.6-2.6,4.9-4.1,7.3c-1.5,2.3-3.1,4.6-5,6.8c1.2-2.6,2.6-4.9,4.1-7.3C66.3,31.9,67.9,29.6,69.7,27.5z"
					/>
			</g>
			<g>
				<path d="M71.9,32.3c-1.6,1.8-3.4,3.5-5.3,5c-1.9,1.5-3.8,3-6,4.2c1.6-1.8,3.4-3.5,5.3-5C67.8,35,69.8,33.6,71.9,32.3z"/>
			</g>
			<g>
				<path d="M60.6,41.6c1.9-1.2,3.9-2,5.9-2.8c2-0.8,4.1-1.5,6.2-1.9c-1.9,1.2-3.9,2-5.9,2.8C64.8,40.4,62.8,41.1,60.6,41.6z"/>
			</g>
			<g>
				<path d="M62,43.2c1.7-0.8,3.4-1.4,5.2-1.8c1.8-0.4,3.6-0.8,5.4-0.9c-1.7,0.8-3.4,1.4-5.2,1.8C65.7,42.8,63.9,43.2,62,43.2z"/>
			</g>
			<g>
				<path d="M62.6,44.3c1.6-0.6,3.1-0.9,4.8-1.2c1.6-0.2,3.2-0.4,4.9-0.2c-1.6,0.6-3.1,0.9-4.8,1.2C65.9,44.4,64.3,44.5,62.6,44.3z"
					/>
			</g>
			<g>
				<path d="M62.6,45.5c1.4-0.4,2.8-0.5,4.2-0.5c1.4,0,2.8,0.1,4.2,0.5c-1.4,0.4-2.8,0.5-4.2,0.5C65.4,45.9,64,45.8,62.6,45.5z"/>
			</g>
			<g>
				<path d="M62.6,46.5c1.4-0.2,2.7-0.1,4.1,0c1.3,0.2,2.6,0.4,3.9,1c-1.4,0.2-2.7,0.1-4.1,0C65.2,47.3,63.9,47.1,62.6,46.5z"/>
			</g>
			<g>
				<path d="M63.1,48c1.2-0.2,2.3-0.1,3.4,0.1c1.1,0.2,2.2,0.5,3.2,1.1c-1.2,0.2-2.3,0.1-3.4-0.1C65.2,48.9,64.1,48.6,63.1,48z"/>
			</g>
			<g>
				<path d="M63.2,49.6c0.9-0.3,1.8-0.2,2.7-0.1c0.9,0.1,1.7,0.3,2.5,0.9c-0.9,0.3-1.8,0.2-2.7,0.1C64.8,50.3,64,50.1,63.2,49.6z"/>
			</g>
			<g>
				<path d="M67.7,52.2c-0.9,0.3-1.7,0.3-2.6,0.3c-0.8-0.1-1.7-0.3-2.5-0.7c0.9-0.3,1.7-0.3,2.6-0.3C66,51.5,66.9,51.7,67.7,52.2z"
					/>
			</g>
			<g>
				<path d="M67.2,53.2c-1,0.5-2.1,0.8-3.2,0.9c-1.1,0.1-2.2,0.2-3.3-0.1c1-0.5,2.1-0.8,3.2-0.9C64.9,52.9,66,52.9,67.2,53.2z"/>
			</g>
			<g>
				<path d="M67.2,54.4c-1.7,1-3.4,1.8-5.2,2.4c-1.8,0.6-3.6,1.2-5.6,1.5c1.7-1,3.4-1.8,5.2-2.4C63.4,55.3,65.2,54.7,67.2,54.4z"/>
			</g>
			<g>
				<path d="M67.7,55.8c-2,1.2-4.1,2.1-6.2,3c-2.1,0.8-4.3,1.6-6.6,2.1c2-1.2,4.1-2.1,6.2-3C63.2,57.1,65.4,56.3,67.7,55.8z"/>
			</g>
			<g>
				<path d="M67.9,55.3c-1.2,1.4-2.7,2.6-4.1,3.8c-1.5,1.1-3,2.2-4.7,3c1.2-1.4,2.7-2.6,4.1-3.8C64.6,57.1,66.1,56.1,67.9,55.3z"/>
			</g>
			<g>
				<path d="M67.7,55.8c-0.4,1.4-1.1,2.7-1.9,3.9c-0.8,1.2-1.6,2.4-2.7,3.4c0.4-1.4,1.1-2.7,1.9-3.9C65.7,58,66.6,56.8,67.7,55.8z"
					/>
			</g>
			<g>
				<path d="M68.3,55.8c0.1,1.4-0.1,2.8-0.3,4.2c-0.3,1.4-0.7,2.7-1.3,4c-0.1-1.4,0.1-2.8,0.3-4.2C67.3,58.4,67.7,57.1,68.3,55.8z"
					/>
			</g>
			<g>
				<path d="M68.7,56.4c0.5,1.2,0.6,2.5,0.7,3.7c0.1,1.3,0,2.5-0.3,3.8c-0.5-1.2-0.6-2.5-0.7-3.7C68.4,58.9,68.4,57.7,68.7,56.4z"/>
			</g>
			<g>
				<path d="M69.7,56.9c0.5,1,0.8,2,0.9,3c0.1,1,0.2,2.1-0.1,3.2c-0.5-1-0.8-2-0.9-3C69.5,59,69.5,58,69.7,56.9z"/>
			</g>
			<g>
				<path d="M70.6,57.3c0.7,0.7,1.1,1.6,1.5,2.4c0.3,0.9,0.6,1.8,0.6,2.8c-0.7-0.7-1.1-1.6-1.5-2.4C70.8,59.2,70.6,58.3,70.6,57.3z"
					/>
			</g>
			<g>
				<path d="M72.7,57.8c0.6,0.5,1,1.1,1.2,1.7c0.2,0.6,0.4,1.3,0.3,2.1c-0.6-0.5-1-1.1-1.2-1.7C72.7,59.3,72.5,58.6,72.7,57.8z"/>
			</g>
			<g>
				<path d="M74.2,58.3c0.6,0.2,0.9,0.5,1.1,0.9c0.2,0.4,0.4,0.8,0.2,1.4c-0.6-0.2-0.9-0.5-1.1-0.9C74.2,59.3,74.1,58.9,74.2,58.3z"
					/>
			</g>
			<g>
				<path d="M75.5,57.6c0.5,0.1,0.8,0.4,1,0.7c0.2,0.3,0.3,0.7,0.1,1.2c-0.5-0.1-0.8-0.4-1-0.7C75.5,58.5,75.4,58.1,75.5,57.6z"/>
			</g>
			<g>
				<path d="M76.6,57.3c0.4-0.1,0.7,0,0.8,0.2c0.1,0.2,0.2,0.4,0,0.8c-0.5,0.1-0.7,0-0.8-0.2C76.5,58,76.4,57.7,76.6,57.3z"/>
			</g>
			<g>
				<path d="M52.9,39.9c-1.1-3.6-1.8-7.3-2.5-11c-0.7-3.7-1.2-7.4-1.5-11.2c1.1,3.6,1.8,7.3,2.5,11C52.1,32.4,52.7,36.1,52.9,39.9z"
					/>
			</g>
			<g>
				<path d="M52.9,39.9c-1.8-3.5-3.3-7.1-4.7-10.8c-1.4-3.7-2.7-7.3-3.8-11.1c1.8,3.5,3.3,7.1,4.7,10.8
					C50.6,32.4,51.9,36.1,52.9,39.9z"/>
			</g>
			<g>
				<path d="M51.7,40.5c-2.4-3.2-4.6-6.5-6.7-9.9c-2.1-3.4-4.1-6.8-5.8-10.4c2.4,3.2,4.6,6.5,6.7,9.9C48,33.5,50,36.9,51.7,40.5z"/>
			</g>
			<g>
				<path d="M50.9,41.1c-2.7-2.9-5.3-6-7.7-9.1c-2.4-3.1-4.8-6.3-6.9-9.7c2.7,2.9,5.3,6,7.7,9.1C46.4,34.6,48.8,37.7,50.9,41.1z"/>
			</g>
			<g>
				<path d="M50.2,41.9c-3.3-2.1-6.5-4.4-9.5-6.8c-3.1-2.4-6.1-4.9-8.9-7.6c3.3,2.1,6.5,4.4,9.5,6.8C44.4,36.7,47.4,39.2,50.2,41.9z
					"/>
			</g>
			<g>
				<path d="M50.2,41.9c-3.1-2.5-5.9-5.2-8.7-8c-2.8-2.8-5.5-5.6-8-8.7c3.1,2.5,5.9,5.2,8.7,8C45,36,47.7,38.8,50.2,41.9z"/>
			</g>
			<g>
				<path d="M50.2,41.9c-3.6,0.4-7.1,0.5-10.7,0.5c-3.6,0-7.1-0.1-10.7-0.5c3.6-0.4,7.1-0.5,10.7-0.5C43.1,41.4,46.7,41.5,50.2,41.9
					z"/>
			</g>
			<g>
				<path d="M49.9,42.3c-3.6-0.5-7.2-1.3-10.8-2.2c-3.5-0.9-7.1-1.9-10.5-3.2c3.7,0.5,7.2,1.3,10.8,2.2C42.9,40,46.5,41,49.9,42.3z"
					/>
			</g>
			<g>
				<path d="M49.9,42.3c-3.6-1.3-7-2.9-10.4-4.5c-3.4-1.7-6.7-3.4-10-5.4c3.6,1.3,7,2.9,10.4,4.5C43.4,38.5,46.7,40.3,49.9,42.3z"/>
			</g>
			<g>
				<path d="M49.9,42.3c-3.3,0.9-6.6,1.5-10,2c-3.4,0.5-6.7,0.9-10.2,1c3.3-0.9,6.6-1.5,10-2C43.1,42.8,46.5,42.4,49.9,42.3z"/>
			</g>
			<g>
				<path d="M49.4,43.2c-2.7,1.4-5.5,2.6-8.4,3.6c-2.9,1-5.7,2-8.7,2.7c2.7-1.4,5.5-2.6,8.4-3.6C43.5,44.9,46.4,43.9,49.4,43.2z"/>
			</g>
			<g>
				<path d="M48.9,44.4c-2,1.8-4.2,3.3-6.4,4.8c-2.2,1.5-4.5,2.8-7,4c2-1.8,4.2-3.3,6.4-4.8C44.1,46.9,46.4,45.5,48.9,44.4z"/>
			</g>
			<g>
				<path d="M49.4,43.7c-0.8,2.5-1.8,4.9-2.9,7.3c-1.1,2.4-2.3,4.7-3.8,6.9c0.8-2.5,1.8-4.9,2.9-7.3C46.7,48.2,47.9,45.9,49.4,43.7z
					"/>
			</g>
			<g>
				<path d="M49.4,43.7C47.8,46,46,48,44.2,50.1c-1.9,2-3.8,4-5.9,5.7c1.6-2.3,3.4-4.4,5.2-6.4C45.3,47.4,47.2,45.4,49.4,43.7z"/>
			</g>
			<g>
				<path d="M50.2,41.9c0.3,2.9,0.4,5.9,0.3,8.8c-0.1,2.9-0.2,5.9-0.7,8.8c-0.3-2.9-0.4-5.9-0.3-8.8C49.7,47.7,49.8,44.8,50.2,41.9z
					"/>
			</g>
			<g>
				<path d="M50.2,41.9c1.6,2.4,3,4.9,4.3,7.5c1.3,2.6,2.5,5.2,3.4,7.9c-1.6-2.4-3-4.9-4.3-7.5C52.4,47.2,51.2,44.6,50.2,41.9z"/>
			</g>
			<g>
				<path d="M49.9,42.3c1.1,2.7,1.9,5.5,2.6,8.3c0.7,2.8,1.3,5.7,1.6,8.6c-1.1-2.7-1.9-5.5-2.6-8.3C50.8,48,50.2,45.2,49.9,42.3z"/>
			</g>
			<g>
				<path d="M49.9,43c-0.3,2.8-0.8,5.6-1.5,8.3c-0.7,2.7-1.4,5.4-2.4,8.1c0.3-2.8,0.8-5.6,1.5-8.3C48.2,48.3,48.9,45.6,49.9,43z"/>
			</g>
			<g>
				<path d="M50.4,42.3c2.1,1.6,4,3.4,5.8,5.3c1.8,1.9,3.5,3.8,5.1,6c-2.1-1.6-4-3.4-5.8-5.3C53.7,46.4,52,44.4,50.4,42.3z"/>
			</g>
			<g>
				<path d="M49.9,42.3c2.2,0,4.3,0.2,6.4,0.5c2.1,0.4,4.2,0.8,6.3,1.5c-2.2,0-4.3-0.2-6.4-0.5C54.1,43.5,52,43,49.9,42.3z"/>
			</g>
			<g>
				<path d="M49.9,42.3c0.9-0.8,1.8-1.3,2.8-1.8c1-0.4,2.1-0.8,3.2-0.9c-0.9,0.8-1.8,1.3-2.8,1.8C52.1,41.8,51.1,42.2,49.9,42.3z"/>
			</g>
			<g>
				<path d="M50.4,42.3c1.5-0.6,3.1-0.9,4.6-1.2c1.6-0.2,3.2-0.3,4.8-0.2c-1.5,0.6-3.1,0.9-4.6,1.2C53.7,42.3,52.1,42.5,50.4,42.3z"
					/>
			</g>
			<g>
				<path d="M50.4,42.3c2.3,0.7,4.4,1.7,6.5,2.8c2.1,1.1,4.2,2.2,6.1,3.7C60.8,48,58.7,47,56.5,46C54.4,44.9,52.4,43.7,50.4,42.3z"
					/>
			</g>
		</g>
	</g>
	<g>
		<path class="st8" d="M137.2,69.3c-3.9,24-13.4,28.4-51.2,29.1c-37.1,0.7-25.4-5.8-43.3-28.7C28.1,51.1,60.6,19.8,88.5,19.8
			C116.3,19.8,141,46,137.2,69.3z"/>
		<path d="M137.3,69.3c-0.5,2.9-1,5.8-1.9,8.6c-0.8,2.8-2,5.6-3.6,8c-1.6,2.5-3.8,4.6-6.3,6.2c-2.5,1.6-5.3,2.7-8.1,3.5
			c-5.7,1.6-11.6,2.2-17.4,2.7c-5.9,0.4-11.7,0.5-17.6,0.6c-2.9,0-5.9-0.1-8.8-0.2c-2.9-0.2-5.9-0.5-8.8-1.2
			c-1.4-0.4-2.9-0.8-4.2-1.5c-1.3-0.7-2.5-1.6-3.5-2.7c-2-2.2-3.3-4.9-4.6-7.5c-1.3-2.6-2.7-5.2-4.2-7.7c-1.5-2.5-3.2-4.9-5-7.2
			c-0.9-1.1-1.8-2.3-2.5-3.7c-0.7-1.3-1.2-2.7-1.5-4.2c-0.6-2.9-0.4-6,0.3-8.8c1.5-5.8,4.8-10.9,8.7-15.3c3.9-4.4,8.6-8.2,13.6-11.2
			c5-3.1,10.5-5.5,16.3-6.9c2.9-0.7,5.8-1.2,8.8-1.3c3-0.1,5.9,0.1,8.9,0.6c11.7,1.9,22.6,8.2,30.4,17c3.9,4.4,7.1,9.5,9.1,15
			C137.4,57.4,138.2,63.5,137.3,69.3z M137.2,69.3c0.9-5.8,0-11.8-2.1-17.2c-2.1-5.5-5.4-10.4-9.4-14.7
			c-7.9-8.5-18.6-14.6-30.1-16.4c-2.9-0.5-5.8-0.7-8.7-0.5c-2.9,0.1-5.8,0.6-8.6,1.2c-5.6,1.4-11,3.7-16,6.7c-5,3-9.6,6.7-13.5,11
			c-3.9,4.3-7.2,9.3-8.8,14.9c-0.7,2.8-0.9,5.8-0.4,8.6c0.6,2.9,2,5.5,3.9,7.7c3.6,4.7,6.6,9.8,9.2,15c1.4,2.6,2.7,5.3,4.6,7.4
			c2,2.2,4.7,3.4,7.5,4c2.8,0.7,5.8,0.9,8.7,1c2.9,0.1,5.8,0.1,8.8,0.1c5.9-0.1,11.7-0.3,17.6-0.6c5.8-0.4,11.7-0.9,17.3-2.4
			c2.8-0.8,5.6-1.8,8-3.3c2.5-1.5,4.6-3.5,6.3-6c1.7-2.4,2.8-5.2,3.6-7.9C136.1,75,136.7,72.2,137.2,69.3z"/>
	</g>
	<path class="st9" d="M138.1,68.4c-3.9,24-13.4,28.4-51.2,29.1c-37.1,0.7-25.4-5.8-43.3-28.7C29.1,50.2,61.5,18.9,89.4,18.9
		C117.2,18.9,141.9,45,138.1,68.4z"/>
	<g>
		<path class="st4" d="M110.6,74.6c-1,13.5-1.9,25.6-35.3,21.9C45,93.1,43.1,84.1,51,70.1c6.7-11.9,9.5-23.9,28-22.5
			C97.5,49,111.6,61.1,110.6,74.6z"/>
		<g>
			<path d="M110.6,74.6c-0.3,3.8-0.5,7.6-1.6,11.2c-0.6,1.8-1.4,3.6-2.6,5.1c-1.2,1.5-2.7,2.7-4.4,3.7c-3.4,1.9-7.3,2.5-11.1,2.9
				c-3.8,0.3-7.6,0.2-11.4-0.1c-3.8-0.3-7.5-0.8-11.3-1.5c-3.7-0.7-7.4-1.5-11-2.8c-1.8-0.7-3.5-1.5-5.1-2.5c-1.6-1-3.1-2.3-4-4
				c-1-1.7-1.3-3.7-1.2-5.6c0.1-1.9,0.7-3.8,1.3-5.6c0.7-1.8,1.5-3.5,2.5-5.2c0.9-1.6,1.8-3.3,2.6-5c1.7-3.4,3.4-6.8,5.7-9.9
				c1.2-1.5,2.5-3,4-4.2c1.5-1.2,3.3-2.1,5.1-2.8c3.7-1.3,7.6-1.4,11.4-1.1c7.6,0.6,15.2,3.2,21.2,7.9c3,2.3,5.6,5.2,7.5,8.6
				C110,67,111,70.8,110.6,74.6z M110.5,74.6c0.3-3.8-0.7-7.6-2.6-10.8c-1.9-3.3-4.6-6-7.6-8.2c-6.1-4.4-13.5-6.7-20.9-7.4
				c-3.7-0.3-7.5-0.1-11,1c-3.5,1.2-6.5,3.6-8.7,6.5c-2.3,3-4,6.3-5.7,9.7c-0.9,1.7-1.8,3.3-2.7,5c-0.9,1.6-1.8,3.3-2.5,5
				c-0.7,1.7-1.3,3.5-1.4,5.4c-0.2,1.8,0.2,3.8,1.1,5.4c0.9,1.6,2.3,2.9,3.9,3.9c1.6,1,3.3,1.8,5.1,2.4c3.5,1.3,7.3,2,11,2.6
				c3.7,0.6,7.5,1,11.2,1.2c3.8,0.3,7.5,0.3,11.3,0.1c3.7-0.3,7.5-0.9,10.8-2.6c1.7-0.8,3.2-2,4.4-3.4c1.2-1.4,2.1-3.1,2.7-4.9
				C110,82.2,110.2,78.3,110.5,74.6z"/>
		</g>
	</g>
	<path d="M166.6,115.4c0,0,26,4.5,31.8,10c5.8,5.5-20.5,4-20.5,4S161.4,127.7,166.6,115.4z"/>
	<path class="st1" d="M100.4,49.3c0,0-34.4-9.2-36.7,1.1c0,0-11.1,13-10.5,16.2c0,0,10,5.6,16.7,3.8c0,0,1.7-4.8,2.6-7.9L70.7,71
		c0,0,13,6.3,17.4,4c0,0,0.6-4,0.2-5.4c0,0,1,3.4,0.6,5.4c0,0,6.1,3,8.1,2.3c0,0,0.5-3,0.7-4.3c0-0.2,0.1-0.3,0.1-0.4
		c0.1-0.8,0.4,4-0.2,5.5c0,0,0.2,0.1,0.5,0.3C96.9,83.8,94,88.3,89,91c-11.9,6.3-27.6,3-40.5-4.3c3,4.7,11.1,8,26.9,9.8
		c33.3,3.7,34.2-8.4,35.3-21.9c0.1-1.5,0-3-0.2-4.5C112.3,61.2,111.4,51.8,100.4,49.3z"/>
	<path d="M61.8,48.5c0,0-11.3,12.9-10.7,16.2c0,0,10.2,5.6,17,3.9c0,0,1.7-4.8,2.7-7.9L69,69.1c0,0,13.3,6.3,17.8,4.1
		c0,0,0.6-4,0.2-5.4c0,0,1,3.4,0.6,5.4c0,0,6.2,3,8.2,2.3c0,0,0.5-3,0.7-4.3c0-0.2,0.1-0.3,0.1-0.4c0.2-0.8,0.4,4-0.2,5.5
		c0,0,7,3.2,6,9.5c0,0,19.4-33.3-3.2-38.3C99.3,47.4,64.1,38.2,61.8,48.5z"/>
	<path d="M87.6,95.4c0,0-15,7-41.8,3.2c0,0-22.2,8.9,32,18c0,0,44.4,36.6,82.9,19.9c0,0,18.6-3.6,31.3,6.2c0,0,14,0-10.8-18.9
		c0,0-17.3-26.1-46.3-23.5c0,0-22.9,0.4-29.1-7.7L87.6,95.4z"/>
	<g>
		<path class="st8" d="M70.3,18.9c0,0,2.8-3.5,6.3-1.8c0,0,1.7-3,4.7,1.5c0,0,2.4-4.5,4.9,0c0,0,2.7-5.1,5.3,0.3
			c0,0,1.7-4.1,8.6-1.8c0,0,41.7,30.3,37.9,49.4c0,0,3.1,0.7,0.6,4.4c0,0,1.6,2.9-3,5.6c0,0,4.7,3.7-2.3,6.5c0,0,3,8.2-5.1,7.1
			c0,0,0.4,4.6-1.5,3.5c-1.9-1.1-2.8-0.6-2.8-0.6s1.9,4.6-2.5,3.3c0,0-4.8,3.1-5.8,0.2c0,0,4.3,1.4,5,3.9c0,0,5.3-3.4,6.6-0.5
			c0,0,6.2-2.4,6.7,1.2c0,0,4.9-3.6,5,0c0,0,6.3-5,9.6-1.5c3.3,3.6,2.2-3.1,4.9,1.5c0,0,6,0.4,5.8,3.8c0,0,7.6,1.1,6.3,3.6
			c0,0,1.8-2.2,3.2,0.6s10.5,0.8,7.7,6.6c0,0,5.4,2.8,4.7,6.3c-0.7,3.4,0.1,0.5,0.1,0.5s1.9-0.3,2,2.8c0,0,4.9,1,1,3.7
			c0,0,2.7,0.5-1.8,2.4c0,0,1.4,4.6-2.2,3.9c0,0,1.7,4.4-1.8,3.1c0,0-3.3,2-4-0.4c0-0.1-0.1-0.3-0.1-0.4c-0.5-3-0.5,3.3-3.7,0.8
			c0,0,0.1,2.4-3,1.5s-3.8-3-3.8-3s-0.3,1.3-3.6,2.2s-3.2,0.9-3.2,0.9s-2.3,4.1-5.4,2.1c-3.1-2-2.8,3.5-4.6,0.6c0,0-3.9,2.7-5,0
			c0,0-3.6,2.9-4.5,0c0,0-7.4,3.2-7.7,0c0,0-4.4,2.5-4.9-0.5c0,0-2.3,1.7-2.1-0.5c0,0-1.8,1.8-1.8-1.1c0,0-2.1,2.6-2.4-0.8
			c0,0-8.8,0.1-7.8-2.5c0,0-2.8-0.5-2.6-1.7c0,0-3.1,1.2-2.8-0.6c0,0-2.7-0.1-3-1.7c-0.3-1.7,0-2.2,0-2.2s-4.6,1.5-4.4-0.5
			c0,0-3.9,0.2-3.4-1.7c0,0-2.9-0.9-3.2-3c0,0-5.6-0.3-5-3.1c0,0-3.8,0.1-3.1-1.8c0,0-5.4-1.1-4.3-3.4c0,0-3.6,0.7-3.6-1.5
			c0,0-4,1.9-3.9-0.7c0,0-2.7,2.7-2.7,0c0,0-3.2,0.9-3.2-1.1c0,0-4.4,2.2-4-0.1c0,0-0.8,2.3-2.8,0.1c-2-2.2-3.2,0.3-4.1-1.4
			c0,0-6,2.1-5.5-0.5c0,0-4.1-1.7-1.4-2.6c0,0,0.2-3.6,3.1-4c0,0-2.4-3.3-0.7-3.8c0,0,0.4-4,3.6-3.7c0,0,1.4-3,3.3,0
			c0,0,4-3.1,5.2,0c0,0,4.7-1.5,5.3,1.1c0,0,1.5-3.7,3.1-1.1c0,0,4.5-2.5,5.6-0.4c0,0,2.7-1.5,3.3-0.2c0.6,1.3,4.6-2.7,5.9-0.4
			c0,0,3.3-0.9,3.8,0.8c0,0,1.1-3.8,3-2.5c0,0,1.9-4.2,3.4-3.7c0,0,0.7-4.1,2.5-3.3c0,0,0.5-1.6,1.5-1.5c1,0.1-2.2-2.3,0-3.2
			c2.2-0.9-1.6-6.9,2.4-7.4c0,0-3.3-5.1-1.3-5.8c0,0-2.8-3-0.9-4.2c0,0-2.4,0.9-4.8-0.7c-2.4-1.6-5.8,1-5-1.2c0,0-5.2,2.1-4.5-0.9
			c0,0-8.9-0.9-7-3.2c0,0-6,3.4-5.6,1c0,0-2.7,2.8-5.6,0.7c0,0-1,1.5-2.1,1.7c-1.5,0.3-4.5-0.6-5.1-0.2c-1.9,1.2-4.8,0.9-6.5-0.9
			c0,0-1.4,0.7-3.6,1.2c-2.3,0.5-3.9,1.2-5-0.7c-0.6-1.1-2.1,0.6-3.6,0.7c-1.8,0.1-3-3.6-3.8-3c-1,0.8-3.7-5.1-0.8-5.1
			c0,0-0.1-3,1.1-4.9c0.6-0.9,1.3-1.9,2.1-2.9c0,0-1.2-2.4,1.4-3.1c0,0-0.8-4.5,2.7-4.5c0,0-0.6-4.3,2-4.9c0,0-1.3-4.8,2.9-5
			c4.2-0.3-0.2-4.3,3.6-2.5c0,0,4.3-4.3,6.9-2.4c0,0,3.3-4.9,4.8-3.6c0,0,0.1-3.4,1.6-1c0,0,0.7-0.8,1.6,1c0,0-0.9-2.9,1.9-2
			L70.3,18.9z"/>
		<g>
			<path d="M70.2,18.9c0.8-0.9,1.8-1.6,2.9-2c1.1-0.4,2.4-0.3,3.5,0.2l-0.1,0c0.3-0.4,0.7-0.8,1.2-1c0.5-0.1,1.1,0,1.5,0.3
				c0.9,0.5,1.5,1.4,2.1,2.2l-0.1,0c0.3-0.5,0.6-0.9,1-1.3c0.4-0.4,0.9-0.7,1.5-0.7c0.6,0,1.1,0.3,1.5,0.7c0.4,0.4,0.7,0.9,1,1.4
				l-0.2,0c0.3-0.6,0.7-1.1,1.1-1.5c0.5-0.4,1-0.8,1.7-0.8c0.7,0,1.2,0.5,1.6,0.9c0.4,0.5,0.7,1,1,1.6l-0.2,0c0.7-1.5,2.4-2.4,4-2.5
				c1.6-0.2,3.3,0.2,4.8,0.7l0,0l0,0c4.3,3.2,8.5,6.6,12.6,10.1c4,3.5,8,7.3,11.6,11.2c3.7,3.9,7.1,8.1,9.9,12.8
				c1.4,2.3,2.6,4.8,3.4,7.4c0.8,2.6,1.2,5.4,0.7,8.1l-0.3-0.4c0.5,0.1,0.9,0.4,1.3,0.8c0.4,0.4,0.6,0.9,0.5,1.5c0,1-0.5,1.9-1,2.7
				l0-0.4c0.3,0.6,0.4,1.3,0.3,1.9c-0.1,0.6-0.3,1.2-0.7,1.8c-0.7,1-1.7,1.8-2.7,2.4l0-0.6c0.6,0.5,1.1,1.2,1.5,1.9
				c0.3,0.8,0.3,1.8-0.1,2.5c-0.4,0.8-1.1,1.3-1.7,1.7c-0.7,0.4-1.4,0.8-2.1,1.1l0.2-0.5c0.3,0.9,0.5,1.9,0.6,2.9c0,1-0.1,2-0.6,3
				c-0.5,0.9-1.6,1.5-2.5,1.7c-1,0.2-2,0.2-3,0l0.5-0.5c0.1,0.7,0.1,1.3,0,2c0,0.3-0.1,0.7-0.2,1c-0.1,0.3-0.2,0.7-0.7,1
				c-0.5,0.3-1.1,0-1.3-0.1c-0.3-0.2-0.5-0.3-0.8-0.4c-0.3-0.1-0.5-0.2-0.8-0.2c-0.2,0-0.6,0-0.7,0l0.2-0.5c0.2,0.5,0.3,1,0.4,1.5
				c0.1,0.5,0.1,1.1-0.2,1.7c-0.3,0.6-1,0.9-1.6,0.9c-0.6,0-1.1-0.1-1.6-0.2l0.3-0.1c-1,0.6-2,1.1-3.2,1.4c-0.6,0.1-1.2,0.2-1.8,0
				c-0.7-0.2-1.2-0.8-1.4-1.4l-0.3-0.8l0.8,0.3c1.1,0.4,2.1,0.9,3.1,1.5c0.9,0.6,1.9,1.5,2.2,2.7l-0.6-0.2c1.1-0.7,2.2-1.2,3.5-1.5
				c0.6-0.1,1.3-0.3,2-0.1c0.7,0.1,1.4,0.7,1.6,1.3l-0.5-0.2c1.3-0.4,2.6-0.8,3.9-0.8c0.7,0,1.4,0.1,2.1,0.4
				c0.7,0.4,1.1,1.1,1.2,1.8l-0.6-0.2c0.9-0.6,1.8-1.2,2.9-1.5c0.5-0.1,1.2-0.3,1.8,0.1c0.6,0.4,0.8,1.1,0.8,1.7l-0.6-0.3
				c1.2-0.9,2.4-1.6,3.8-2.2c1.4-0.5,2.9-0.9,4.4-0.4c1.6,0.4,2.4,2.3,3.4,2.1c0.2-0.1,0.4-0.3,0.6-0.6c0.1-0.1,0.2-0.3,0.4-0.5
				c0.2-0.2,0.6-0.3,0.8-0.1c0.5,0.2,0.7,0.6,0.9,0.8c0.2,0.3,0.4,0.6,0.6,0.9l-0.3-0.2c1.3,0.1,2.6,0.4,3.8,1
				c0.6,0.3,1.2,0.7,1.6,1.2c0.5,0.5,0.7,1.3,0.7,2l-0.3-0.3c1.4,0.2,2.7,0.5,4,1c0.6,0.2,1.3,0.5,1.9,1c0.3,0.2,0.6,0.5,0.7,0.9
				c0.2,0.4,0.1,0.9-0.1,1.2l-0.5-0.3c0.3-0.3,0.5-0.5,0.9-0.7c0.3-0.2,0.7-0.3,1.2-0.2c0.8,0.2,1.3,0.9,1.6,1.5
				c0.2,0.5,0.8,0.8,1.4,1.1c0.6,0.2,1.3,0.4,1.9,0.5c1.3,0.3,2.7,0.5,3.9,1.3c0.6,0.4,1.1,1.2,1,1.9c0,0.7-0.3,1.4-0.6,2l-0.1-0.3
				c0.8,0.5,1.6,1,2.3,1.6c0.7,0.6,1.4,1.3,1.9,2.2c0.5,0.8,0.8,1.9,0.5,2.8c-0.1,0.5-0.2,0.9-0.3,1.4l0,0.1l0,0c0,0,0,0.1,0-0.1
				c0-0.1-0.2-0.1-0.2-0.1c0,0,0,0-0.1,0c0,0-0.1,0.1-0.1,0.1l0,0l0,0l0-0.1l0.1-0.3l0.2-0.7l0-0.1l0.1,0c0.8-0.1,1.5,0.4,1.8,1
				c0.3,0.6,0.4,1.3,0.5,1.9l-0.2-0.2c0.5,0.1,1,0.3,1.4,0.5c0.4,0.2,0.9,0.5,1.2,1.1c0.3,0.6,0,1.2-0.4,1.6c-0.3,0.4-0.7,0.7-1.1,1
				l-0.1-0.3c0.2,0,0.4,0.1,0.6,0.2c0.2,0.1,0.4,0.3,0.4,0.6c-0.1,0.5-0.5,0.7-0.8,0.9c-0.6,0.4-1.3,0.7-2,1l0.1-0.2
				c0.2,0.9,0.4,1.9,0.1,2.9c-0.1,0.5-0.5,1-1,1.2c-0.5,0.2-1,0.2-1.5,0.1l0.2-0.2c0.2,0.4,0.3,0.8,0.4,1.3c0.1,0.4,0.1,0.9,0,1.4
				c-0.1,0.2-0.2,0.5-0.4,0.6c-0.2,0.2-0.4,0.2-0.7,0.3c-0.5,0-0.9-0.1-1.3-0.2l0.1,0c-0.8,0.4-1.7,0.8-2.6,0.8
				c-0.5,0-1-0.2-1.3-0.6c-0.3-0.4-0.4-0.9-0.5-1.3c0-0.1,0-0.2-0.1-0.3c0,0,0-0.1,0-0.1c0,0,0,0,0,0c0,0,0.1,0,0.1,0
				c-0.1,0.1-0.2,0.3-0.3,0.5c-0.2,0.4-0.4,0.8-0.7,1.2c-0.3,0.4-0.8,0.6-1.3,0.5c-0.5-0.1-0.9-0.3-1.3-0.6l0.3-0.1
				c0,0.4-0.1,0.8-0.3,1.2c-0.2,0.3-0.6,0.6-1,0.7c-0.8,0.2-1.6-0.1-2.3-0.3c-0.7-0.3-1.4-0.6-2-1.1c-0.6-0.5-1.1-1.1-1.4-1.8l0.3,0
				c-0.3,0.7-0.9,1.1-1.4,1.4c-0.6,0.3-1.2,0.6-1.8,0.8c-1.2,0.4-2.4,0.7-3.7,1.1l0.1-0.1c-0.6,0.9-1.3,1.7-2.2,2.3
				c-0.5,0.3-1,0.4-1.6,0.4c-0.6,0-1.1-0.2-1.6-0.4c-0.5-0.3-0.9-0.6-1.3-0.6c-0.5-0.1-0.8,0.2-1.1,0.6c-0.2,0.2-0.3,0.4-0.4,0.6
				c-0.2,0.2-0.3,0.5-0.6,0.6c-0.2,0.1-0.4,0.1-0.6,0c-0.2-0.1-0.3-0.2-0.4-0.3c-0.2-0.2-0.4-0.4-0.5-0.7l0.3,0.1
				c-0.8,0.5-1.7,1-2.7,1.2c-0.5,0.1-1,0.1-1.6-0.1c-0.5-0.2-0.9-0.7-1.1-1.1l0.4,0.1c-0.7,0.6-1.5,1.1-2.5,1.3
				c-0.5,0.1-1,0.1-1.5-0.2c-0.5-0.3-0.7-0.8-0.9-1.2l0.3,0.1c-1.3,0.6-2.7,1-4.2,1.3c-0.7,0.1-1.5,0.2-2.2,0.1
				c-0.4-0.1-0.8-0.2-1.1-0.5c-0.3-0.3-0.5-0.7-0.5-1.1l0.4,0.2c-0.9,0.5-1.8,0.8-2.9,1c-0.5,0.1-1.1,0-1.6-0.3
				c-0.5-0.3-0.8-0.9-0.9-1.4l0.4,0.2c-0.5,0.3-0.9,0.6-1.5,0.7c-0.2,0-0.3,0-0.5-0.1c-0.2-0.1-0.3-0.3-0.4-0.4
				c-0.1-0.3-0.1-0.6-0.1-0.9l0.5,0.2c-0.2,0.2-0.5,0.4-0.7,0.5c-0.3,0.1-0.7,0.2-1-0.1c-0.3-0.3-0.4-0.6-0.4-0.9
				c-0.1-0.3-0.1-0.6-0.1-0.9l0.5,0.2c-0.2,0.3-0.5,0.5-0.8,0.7c-0.3,0.2-0.7,0.4-1.2,0.3c-0.5-0.2-0.6-0.6-0.7-0.9
				c-0.1-0.3-0.2-0.7-0.2-1l0.3,0.3c-1.5,0-3-0.1-4.6-0.3c-0.8-0.1-1.5-0.3-2.3-0.6c-0.4-0.2-0.7-0.3-1.1-0.7
				c-0.3-0.3-0.4-1-0.2-1.4l0.2,0.4c-0.6-0.1-1.2-0.3-1.7-0.5c-0.3-0.1-0.6-0.3-0.8-0.5c-0.2-0.2-0.5-0.6-0.4-1l0.4,0.3
				c-0.6,0.2-1.1,0.4-1.8,0.4c-0.3,0-0.7,0-1-0.2c-0.2-0.1-0.3-0.3-0.4-0.5c0-0.2,0-0.4,0-0.6l0.3,0.4c-0.5,0-1-0.1-1.5-0.3
				c-0.5-0.2-1-0.4-1.4-0.9c-0.2-0.2-0.3-0.5-0.4-0.8c0-0.3-0.1-0.5-0.1-0.8c0-0.3,0-0.5,0-0.8c0-0.3,0-0.5,0.1-0.9l0.4,0.5
				c-0.8,0.3-1.7,0.5-2.5,0.5c-0.4,0-0.9,0.1-1.4-0.1c-0.2-0.1-0.5-0.2-0.7-0.4c-0.2-0.3-0.2-0.6-0.2-0.9l0.4,0.4
				c-0.8,0-1.5,0-2.3-0.2c-0.4-0.1-0.8-0.3-1.1-0.6c-0.4-0.3-0.5-0.9-0.4-1.4l0.3,0.4c-0.8-0.3-1.5-0.6-2.2-1.2
				c-0.6-0.5-1.2-1.3-1.3-2.1l0.4,0.3c-1.1-0.1-2.2-0.3-3.3-0.7c-0.5-0.2-1.1-0.5-1.5-1c-0.5-0.5-0.6-1.2-0.5-1.9l0.4,0.5
				c-0.7,0-1.5,0-2.2-0.3c-0.4-0.1-0.8-0.3-1.1-0.7c-0.3-0.4-0.3-1-0.2-1.4l0.3,0.5c-1-0.2-2.1-0.5-3-1c-0.5-0.3-1-0.6-1.4-1
				c-0.2-0.2-0.3-0.6-0.4-0.9c0-0.4,0.1-0.7,0.2-1l0.5,0.6c-0.8,0.1-1.6,0.2-2.4,0c-0.4-0.1-0.9-0.2-1.2-0.6
				c-0.4-0.3-0.5-0.9-0.5-1.3l0.6,0.4c-0.8,0.4-1.6,0.6-2.5,0.7c-0.5,0-1,0-1.5-0.4c-0.5-0.4-0.6-1-0.6-1.5l0.8,0.3
				c-0.5,0.5-1,0.9-1.8,1.2c-0.2,0.1-0.4,0.1-0.7,0.1c-0.3,0-0.6-0.2-0.7-0.5c-0.3-0.4-0.3-0.8-0.3-1.2l0.6,0.4
				c-0.7,0.2-1.4,0.3-2.1,0.2c-0.4-0.1-0.8-0.2-1.1-0.5c-0.4-0.3-0.5-0.8-0.5-1.2l0.7,0.4c-0.8,0.4-1.5,0.7-2.4,0.9
				c-0.4,0.1-0.9,0.2-1.4,0.1c-0.3-0.1-0.6-0.3-0.7-0.7c-0.1-0.3-0.1-0.6,0-0.9l0.9,0.2c-0.2,0.4-0.4,0.8-0.7,1
				c-0.4,0.3-1,0.4-1.4,0.2c-0.8-0.3-1.3-1-1.8-1.3c-0.5-0.4-0.9-0.5-1.5-0.4c-0.3,0-0.6,0.2-1.2,0.1c-0.3,0-0.5-0.2-0.7-0.3
				c-0.2-0.2-0.3-0.4-0.4-0.5l0.6,0.2c-1.1,0.4-2.1,0.6-3.3,0.8c-0.6,0.1-1.1,0.1-1.8,0c-0.3-0.1-0.7-0.3-0.9-0.6
				c-0.2-0.4-0.2-0.8-0.2-1.1l0.3,0.5c-0.7-0.3-1.4-0.6-2-1.2c-0.2-0.1-0.3-0.3-0.4-0.5c-0.1-0.2-0.2-0.6-0.1-0.9
				c0.1-0.3,0.4-0.5,0.6-0.6c0.2-0.1,0.4-0.2,0.6-0.3l-0.3,0.4c0-0.5,0.1-1,0.3-1.5c0.2-0.5,0.4-0.9,0.7-1.4
				c0.6-0.9,1.6-1.5,2.6-1.6l-0.3,0.7c-0.4-0.6-0.8-1.3-1.1-2c-0.1-0.4-0.3-0.8-0.3-1.2c0-0.2,0.1-0.5,0.2-0.8
				c0.2-0.3,0.5-0.4,0.7-0.5L50,102c0.1-0.5,0.2-1,0.4-1.5c0.2-0.5,0.4-1,0.8-1.4c0.4-0.4,0.8-0.8,1.3-1c0.5-0.2,1.1-0.2,1.6-0.2
				l-0.5,0.3c0.2-0.4,0.4-0.7,0.8-1c0.3-0.3,0.8-0.6,1.3-0.5c0.5,0,1,0.3,1.3,0.6c0.3,0.3,0.6,0.6,0.8,0.9L57.1,98
				c0.4-0.3,0.9-0.6,1.4-0.8c0.5-0.2,1-0.4,1.6-0.6c0.6-0.1,1.2-0.1,1.8,0.2c0.6,0.3,1,0.9,1.2,1.4l-0.6-0.3c1-0.3,2-0.5,3.1-0.5
				c0.5,0,1.1,0.1,1.7,0.4c0.6,0.3,1,0.9,1.1,1.5l-0.9-0.1c0.2-0.4,0.4-0.7,0.6-1.1c0.2-0.3,0.5-0.7,0.9-0.9
				c0.2-0.1,0.4-0.2,0.7-0.3c0.3,0,0.6,0,0.8,0.2c0.5,0.3,0.7,0.6,0.9,1L70.7,98c1-0.5,1.9-0.9,3-1.2c0.5-0.1,1.1-0.2,1.7-0.1
				c0.6,0.1,1.3,0.4,1.6,1.1l-0.7-0.2c0.8-0.4,1.6-0.8,2.7-0.8c0.3,0,0.6,0.1,0.8,0.2c0.1,0.1,0.3,0.2,0.4,0.3
				c0.1,0.1,0.1,0.1,0.1,0.2c0-0.1,0.1,0.1,0,0c-0.1-0.1,0,0,0.1,0c0.2,0,0.3-0.1,0.5-0.2c0.7-0.3,1.5-0.7,2.4-1
				c0.4-0.1,0.9-0.2,1.5-0.2c0.6,0.1,1.1,0.5,1.4,0.9l-0.5-0.2c0.8-0.2,1.5-0.3,2.3-0.3c0.4,0,0.8,0.1,1.2,0.3
				c0.4,0.2,0.8,0.6,0.9,1.1l-0.9,0c0.2-0.8,0.5-1.5,1.1-2.2c0.3-0.3,0.6-0.7,1.1-0.8c0.5-0.2,1.1,0,1.5,0.3l-0.7,0.2
				c0.4-0.8,0.8-1.6,1.4-2.4c0.3-0.4,0.6-0.8,1-1.1c0.2-0.2,0.4-0.3,0.7-0.4c0.3-0.1,0.6-0.2,1,0l-0.6,0.4c0.2-0.8,0.4-1.6,0.8-2.4
				c0.2-0.4,0.4-0.8,0.8-1.1c0.4-0.4,1.1-0.4,1.6-0.2l-0.7,0.3c0.1-0.4,0.3-0.7,0.5-1c0.2-0.3,0.5-0.6,1-0.8c0.1,0,0.2-0.1,0.4-0.1
				h0.3c0,0-0.1,0-0.1,0c-0.1,0-0.1,0.1-0.2,0.1c-0.1,0.2-0.1,0.3-0.1,0.3c0,0,0,0,0-0.1l-0.5-0.8c-0.2-0.3-0.3-0.6-0.4-1
				c-0.1-0.4,0-1,0.4-1.3c0.3-0.3,0.8-0.5,0.8-0.5c0.1-0.1,0.2-0.3,0.2-0.5c0.1-1.1-0.2-2.3-0.3-3.6c0-0.7,0-1.4,0.5-2.1
				c0.4-0.7,1.2-1,1.9-1.1l-0.3,0.8c-0.6-0.9-1.1-1.9-1.5-2.9c-0.2-0.5-0.4-1.1-0.5-1.7c0-0.3,0-0.6,0.1-1c0.1-0.4,0.5-0.8,0.8-0.9
				l-0.2,0.8c-0.6-0.7-1.1-1.3-1.4-2.2c-0.2-0.4-0.3-0.9-0.2-1.5c0.1-0.6,0.4-1.1,0.9-1.3l0.4,0.9c-1,0.3-2,0.3-3,0.2
				c-0.5-0.1-1-0.2-1.4-0.5c-0.5-0.2-0.9-0.5-1.2-0.7c-0.7-0.3-1.6-0.3-2.4-0.2C92,65.9,91.5,66,91,66c-0.1,0-0.3,0-0.5,0
				c-0.2,0-0.5-0.2-0.6-0.5c-0.1-0.5,0-0.7,0.1-1l0.6,0.6c-1,0.4-1.9,0.7-3,0.7c-0.5,0-1.1,0-1.7-0.4c-0.3-0.2-0.5-0.6-0.5-0.9
				c0-0.3,0-0.6,0.1-0.9l0.4,0.6c-1.5-0.2-2.9-0.4-4.3-0.8c-0.7-0.2-1.4-0.4-2.1-0.8c-0.3-0.2-0.7-0.4-1-0.9
				c-0.1-0.2-0.2-0.6-0.1-0.8c0.1-0.3,0.2-0.5,0.3-0.7l0.5,0.6c-1,0.5-2,1-3,1.4c-0.5,0.2-1.1,0.4-1.7,0.5c-0.3,0-0.7,0.1-1.1-0.2
				c-0.2-0.1-0.4-0.4-0.4-0.6c-0.1-0.2,0-0.4,0-0.6l0.7,0.3c-0.4,0.4-0.9,0.7-1.3,1c-0.5,0.3-1,0.5-1.6,0.5
				c-1.1,0.2-2.3-0.2-3.2-0.8l0.5-0.1c-0.4,0.6-0.8,1-1.4,1.5c-0.3,0.2-0.6,0.4-1,0.4c-0.3,0.1-0.7,0.1-1,0.1
				c-1.3,0-2.6-0.4-3.7-0.4c-0.1,0-0.2,0-0.3,0.1c-0.1,0.1-0.3,0.2-0.4,0.2c-0.3,0.1-0.6,0.3-1,0.3c-0.7,0.2-1.3,0.2-2,0.1
				c-1.3-0.1-2.6-0.7-3.5-1.7l0.4,0.1c-1,0.5-2,0.8-3.1,1c-1.1,0.2-2,0.5-3.1,0.6c-0.5,0.1-1.2,0.1-1.7-0.2
				c-0.6-0.2-0.9-0.9-1.2-1.2c-0.1-0.2-0.7-0.1-1.1,0.2c-0.5,0.2-1,0.5-1.5,0.6c-0.3,0.1-0.6,0.1-0.9,0.1c-0.3,0-0.6-0.1-0.9-0.3
				c-0.5-0.3-0.9-0.7-1.2-1.2c-0.3-0.4-0.6-0.9-0.9-1.3c-0.1-0.2-0.4-0.4-0.4-0.4c0,0,0,0,0,0c-0.1,0-0.1,0.1-0.2,0.1
				c-0.3,0.1-0.4,0-0.6-0.1c-0.5-0.4-0.8-0.9-1-1.3c-0.2-0.5-0.4-1-0.6-1.5c-0.1-0.5-0.2-1.1,0-1.7c0.1-0.3,0.3-0.6,0.6-0.7
				c0.3-0.2,0.6-0.2,0.9-0.2L37,55.8c0-0.8,0.1-1.5,0.2-2.2c0.1-0.7,0.3-1.5,0.6-2.2c0.3-0.7,0.8-1.3,1.2-1.9
				c0.4-0.6,0.9-1.2,1.3-1.8l0,0.2c-0.2-0.3-0.3-0.7-0.3-1c0-0.4,0-0.7,0.1-1.1c0.3-0.7,1-1.1,1.7-1.3l-0.1,0.2
				c-0.1-0.5-0.1-1-0.1-1.6c0-0.5,0.1-1,0.3-1.5c0.2-0.5,0.6-1,1-1.2c0.5-0.3,1-0.4,1.6-0.4l-0.2,0.2c-0.1-1-0.1-2,0.2-2.9
				c0.1-0.5,0.3-1,0.7-1.4c0.3-0.4,0.8-0.7,1.3-0.8l-0.1,0.2c-0.2-1.1-0.3-2.2,0.1-3.2c0.2-0.5,0.5-1,1-1.3c0.4-0.3,1-0.5,1.5-0.6
				c0.6-0.1,1.1-0.1,1.5-0.3c0.5-0.2,0.8-0.6,0.8-1.1c0-0.2,0-0.5-0.1-0.8c0-0.1,0-0.3,0-0.4c0-0.1,0.1-0.4,0.3-0.4
				c0.3-0.1,0.6,0,0.9,0.1c0.3,0.1,0.5,0.2,0.7,0.3l-0.1,0c1-0.9,2-1.7,3.2-2.3c0.6-0.3,1.2-0.5,1.9-0.6c0.7-0.1,1.4,0.1,1.9,0.5
				l-0.1,0c0.6-0.9,1.3-1.7,2-2.5c0.4-0.4,0.8-0.7,1.3-1c0.4-0.3,1.1-0.5,1.6-0.1l-0.1,0.1c0-0.3,0-0.6,0.1-0.9
				c0.1-0.3,0.1-0.6,0.3-0.8c0.1-0.1,0.2-0.3,0.4-0.2c0.2,0,0.3,0.1,0.4,0.2c0.2,0.2,0.4,0.5,0.5,0.7l-0.1,0
				c0.1-0.2,0.4-0.2,0.6-0.2c0.2,0,0.4,0.1,0.5,0.3c0.3,0.3,0.5,0.6,0.6,0.9l-0.1,0c-0.1-0.3-0.1-0.6-0.1-0.9c0-0.3,0.1-0.7,0.3-0.9
				c0.2-0.3,0.6-0.4,0.9-0.4c0.3,0,0.6,0.1,0.9,0.2l-0.1,0L70.2,18.9L70.2,18.9z M70.3,18.9l-0.5,0.9l0,0l0,0
				c-0.3-0.1-0.6-0.2-0.9-0.2c-0.3,0-0.6,0.1-0.8,0.3c-0.2,0.2-0.2,0.6-0.2,0.9c0,0.3,0.1,0.6,0.1,0.9l0.2,0.6l-0.3-0.5
				c-0.2-0.3-0.4-0.6-0.6-0.9c-0.1-0.1-0.3-0.2-0.4-0.2c-0.2,0-0.3,0-0.4,0.1L66.2,21l0-0.1c-0.1-0.2-0.3-0.5-0.5-0.7
				c-0.2-0.2-0.5-0.3-0.6,0c-0.3,0.5-0.3,1.1-0.4,1.6l0,0.2l-0.1-0.1c-0.4-0.3-1-0.2-1.4,0.1c-0.5,0.3-0.8,0.6-1.2,1
				c-0.7,0.8-1.4,1.6-2,2.5l-0.1,0.1l-0.1-0.1c-0.5-0.4-1.2-0.5-1.8-0.4c-0.6,0.1-1.3,0.3-1.8,0.6C55,26.3,54,27.1,53,28L53,28
				l-0.1,0c-0.5-0.2-1-0.5-1.4-0.4c-0.1,0-0.1,0.3-0.1,0.6c0,0.3,0.1,0.5,0.1,0.8c0,0.3-0.1,0.6-0.2,0.8s-0.4,0.4-0.7,0.5
				c-0.5,0.2-1.1,0.2-1.6,0.3c-1,0.1-1.9,0.8-2.2,1.8c-0.3,1-0.3,2.1,0,3l0,0.2l-0.2,0c-0.4,0.1-0.8,0.3-1.1,0.7
				c-0.3,0.3-0.5,0.8-0.6,1.2c-0.2,0.9-0.2,1.9-0.1,2.8l0,0.2l-0.2,0c-0.5,0-1,0.1-1.4,0.3c-0.4,0.2-0.7,0.6-0.9,1.1
				c-0.4,0.9-0.4,1.9-0.3,2.9l0,0.2l-0.2,0c-0.6,0.2-1.2,0.5-1.4,1c-0.2,0.5-0.1,1.2,0.2,1.8l0.1,0.1l-0.1,0.1
				c-0.4,0.6-0.9,1.2-1.3,1.7c-0.4,0.6-0.9,1.2-1.1,1.8c-0.6,1.3-0.7,2.8-0.7,4.2l0,0.2l-0.2,0c-0.5,0-0.9,0.2-1,0.7
				c-0.1,0.4-0.1,0.9,0,1.4c0.1,0.5,0.3,1,0.5,1.4c0.2,0.4,0.5,0.9,0.9,1.1c0.1,0.1,0.2,0.1,0.2,0.1c0,0,0.1,0,0.1-0.1
				c0.1-0.1,0.2-0.1,0.3-0.1c0.5,0.1,0.6,0.4,0.8,0.6c0.4,0.4,0.6,0.9,1,1.3c0.3,0.4,0.7,0.8,1.1,1c0.2,0.1,0.4,0.2,0.6,0.2
				c0.2,0,0.5,0,0.7-0.1c0.5-0.1,0.9-0.4,1.4-0.6c0.2-0.1,0.5-0.2,0.8-0.3c0.3-0.1,0.8,0,1,0.3c0.1,0.2,0.2,0.3,0.2,0.4
				c0.1,0.1,0.1,0.2,0.2,0.3c0.2,0.2,0.3,0.3,0.5,0.4c0.4,0.2,0.9,0.2,1.4,0.1c2-0.4,4.2-0.7,6-1.6l0.2-0.1l0.2,0.2
				c0.8,0.9,1.9,1.4,3.1,1.5c0.6,0.1,1.2,0,1.8-0.1c0.3-0.1,0.6-0.2,0.8-0.3c0.1,0,0.3-0.1,0.4-0.2c0.2-0.1,0.5-0.1,0.6-0.1
				c1.4,0,2.5,0.4,3.8,0.4c0.3,0,0.6,0,0.9-0.1c0.2,0,0.5-0.2,0.7-0.3c0.5-0.3,0.9-0.8,1.2-1.3l0.2-0.3l0.3,0.2
				c0.8,0.6,1.7,0.8,2.6,0.7c0.5-0.1,0.9-0.2,1.3-0.5c0.4-0.2,0.8-0.5,1.1-0.8l0.9-0.8l-0.2,1.2c0,0.2,0,0.3,0.1,0.3
				c0.1,0,0.3,0.1,0.5,0c0.5-0.1,1-0.2,1.5-0.4c1-0.4,2-0.9,2.9-1.4l1.8-1l-1.3,1.7c-0.2,0.2-0.2,0.4-0.1,0.5
				c0.1,0.2,0.4,0.4,0.7,0.5c0.6,0.3,1.3,0.5,1.9,0.7c1.4,0.3,2.8,0.6,4.2,0.7l0.5,0.1l-0.1,0.5c-0.1,0.4-0.1,0.8,0.1,0.9
				c0.2,0.2,0.6,0.2,1.1,0.2c0.9-0.1,1.8-0.4,2.6-0.7l1.1-0.4l-0.5,1c-0.1,0.2-0.1,0.4-0.1,0.3c0-0.1-0.1-0.1-0.1-0.1
				c0,0,0.1,0,0.2,0c0.4,0,0.8-0.1,1.3-0.2c0.9-0.1,2-0.2,3,0.2c0.5,0.3,0.8,0.5,1.2,0.7c0.4,0.2,0.8,0.3,1.2,0.4
				c0.8,0.2,1.7,0.1,2.5-0.1l3-0.9l-2.6,1.8c-0.3,0.2-0.4,0.4-0.4,0.6c0,0.3,0,0.6,0.2,0.9c0.3,0.7,0.7,1.3,1.2,1.9l0.5,0.5
				l-0.7,0.3c-0.1,0.1-0.2,0.1-0.2,0.2c0,0.1-0.1,0.4,0,0.6c0.1,0.5,0.2,0.9,0.4,1.4c0.4,0.9,0.9,1.9,1.4,2.8l0.4,0.6l-0.7,0.1
				c-0.5,0.1-1,0.3-1.2,0.7c-0.2,0.4-0.3,1-0.3,1.5c0,1.2,0.4,2.4,0.2,3.8c-0.1,0.4-0.2,0.8-0.6,1.1c-0.1,0.1-0.2,0.1-0.3,0.2
				l-0.2,0.1c-0.1,0.1-0.2,0.1-0.3,0.2c-0.1,0.1-0.1,0.2-0.1,0.4c0,0.2,0.2,0.5,0.3,0.7l0.5,0.8c0,0.1,0.1,0.2,0.1,0.3
				c0,0,0,0.1,0,0.2c0,0.1,0,0.2-0.1,0.3c-0.1,0.1-0.2,0.2-0.3,0.2c-0.1,0-0.1,0-0.2,0l-0.2,0c0,0-0.1,0-0.1,0
				c-0.3,0.1-0.6,0.6-0.8,1.1l-0.2,0.5l-0.5-0.2C98.2,89,98,89,97.8,89.1c-0.2,0.2-0.4,0.4-0.6,0.8c-0.3,0.6-0.5,1.4-0.7,2.1
				l-0.1,0.6l-0.5-0.2c-0.1-0.1-0.4,0-0.7,0.3c-0.3,0.2-0.6,0.6-0.8,0.9c-0.5,0.7-0.9,1.5-1.3,2.2l-0.2,0.5L92.4,96
				c-0.3-0.2-0.5-0.2-0.7-0.1c-0.2,0.1-0.5,0.3-0.7,0.5c-0.4,0.5-0.7,1.2-0.9,1.9l-0.5,1.5l-0.5-1.5c-0.1-0.2-0.2-0.4-0.4-0.5
				c-0.2-0.1-0.5-0.2-0.8-0.2c-0.6,0-1.3,0.1-2,0.2l-0.4,0.1l-0.2-0.3c-0.2-0.3-0.4-0.4-0.7-0.5c-0.3,0-0.7,0-1,0.1
				c-0.8,0.2-1.5,0.6-2.3,1c-0.2,0.1-0.4,0.2-0.7,0.2c-0.3,0-0.6,0.1-1.1-0.3c-0.1-0.1,0-0.1-0.2-0.2c0,0,0,0,0-0.1
				c0,0-0.1-0.1-0.1-0.1c-0.1-0.1-0.2-0.1-0.4-0.1c-0.7,0-1.5,0.3-2.2,0.7l-0.4,0.2l-0.2-0.4c-0.2-0.3-0.5-0.5-0.9-0.6
				c-0.4-0.1-0.9,0-1.4,0.1c-0.9,0.2-1.9,0.6-2.7,1.1L70.8,99l-0.2-0.4c-0.2-0.3-0.4-0.5-0.6-0.6c-0.2-0.1-0.3-0.1-0.6,0.1
				c-0.5,0.3-0.9,1-1.1,1.6l-0.6,1.3l-0.3-1.4c-0.1-0.4-0.3-0.7-0.6-0.9c-0.3-0.2-0.8-0.3-1.2-0.3c-0.9,0-1.9,0.2-2.8,0.4L62.3,99
				l-0.2-0.4c-0.2-0.4-0.4-0.7-0.7-0.9c-0.3-0.2-0.7-0.2-1.2-0.1c-0.9,0.2-1.8,0.7-2.5,1.2l-0.4,0.3L57,98.6
				c-0.4-0.6-0.9-1.1-1.3-1.1c-0.2,0-0.4,0.1-0.7,0.3c-0.2,0.2-0.4,0.5-0.5,0.7l-0.2,0.3l-0.3,0c-0.8-0.1-1.6,0.2-2.2,0.8
				c-0.3,0.3-0.5,0.7-0.6,1.1c-0.2,0.4-0.3,0.9-0.3,1.3l0,0.3l-0.3,0.1c-0.2,0.1-0.2,0.1-0.3,0.4c0,0.2,0.1,0.6,0.2,0.9
				c0.2,0.6,0.6,1.3,1,1.8l0.4,0.6l-0.7,0.1c-0.8,0.1-1.5,0.6-2,1.2c-0.2,0.3-0.4,0.7-0.5,1.1c-0.1,0.4-0.2,0.8-0.2,1.2l0,0.3
				l-0.3,0.1c-0.3,0.1-0.6,0.3-0.6,0.3c0,0,0,0,0,0.1c0,0.1,0.1,0.2,0.3,0.3c0.5,0.4,1.1,0.8,1.7,1l0.3,0.1l0,0.4
				c-0.1,0.4,0,0.5,0.4,0.7c0.4,0.1,0.9,0.1,1.4,0c1-0.1,2.1-0.4,3.1-0.7l0.4-0.1l0.2,0.3c0.1,0.3,0.3,0.4,0.4,0.4
				c0.2,0,0.5-0.1,0.9-0.1c0.4-0.1,0.8-0.1,1.2,0c0.4,0.1,0.8,0.3,1.1,0.6c0.3,0.3,0.5,0.5,0.8,0.7c0.2,0.2,0.5,0.4,0.7,0.4
				c0.2,0.1,0.4,0,0.6-0.1c0.2-0.1,0.3-0.4,0.4-0.6l0.9,0.2c0,0.2,0,0.3,0,0.4c0,0.1,0,0.1,0.1,0.1c0.2,0.1,0.6,0,1-0.1
				c0.7-0.2,1.5-0.5,2.2-0.8l0.7-0.3l0,0.7c0,0.3,0.1,0.4,0.2,0.6c0.1,0.1,0.4,0.2,0.6,0.3c0.5,0.1,1.2,0,1.8-0.1l0.6-0.1l0,0.6
				c0,0.3,0.1,0.6,0.1,0.7c0,0.1,0,0.1,0.1,0.1c0,0,0.2,0,0.3,0c0.5-0.2,1-0.6,1.4-1l0.8-0.7l0,1.1c0,0.3,0.1,0.6,0.3,0.8
				c0.2,0.1,0.5,0.2,0.9,0.2c0.7,0,1.5-0.3,2.2-0.6l0.6-0.3l0,0.7c0,0.3,0.1,0.5,0.3,0.7c0.2,0.2,0.5,0.3,0.8,0.4
				c0.6,0.1,1.4,0.1,2.1,0l0.8-0.1l-0.4,0.8c-0.2,0.4-0.2,0.7,0.1,1c0.2,0.3,0.6,0.6,1.1,0.8c0.9,0.4,1.8,0.8,2.8,1l0.4,0.1
				l-0.1,0.4c-0.1,0.3-0.1,0.4,0,0.6c0.1,0.2,0.4,0.3,0.7,0.4c0.6,0.2,1.3,0.2,1.9,0.2l0.5,0l-0.1,0.5c-0.1,0.4,0,0.8,0.3,1.2
				c0.3,0.3,0.7,0.6,1.2,0.8c1,0.4,2,0.6,3.1,0.6l0.3,0l0,0.3c0.2,1.3,1.6,2.3,2.9,2.7l0.3,0.1l-0.1,0.3c-0.1,0.3,0,0.5,0.2,0.7
				c0.2,0.2,0.5,0.3,0.8,0.4c0.6,0.2,1.4,0.2,2.1,0.2l0.4,0l0,0.4c0,0.3,0.1,0.4,0.4,0.5c0.3,0.1,0.7,0.1,1.1,0.1
				c0.8-0.1,1.6-0.3,2.4-0.5l0.7-0.2l-0.3,0.7c0,0.1-0.1,0.4-0.1,0.6c0,0.2,0,0.5,0,0.7c0,0.2,0.1,0.5,0.1,0.7
				c0,0.2,0.1,0.4,0.2,0.5c0.5,0.6,1.5,0.9,2.4,0.9l0.4,0l-0.1,0.4c0,0.2,0,0.4,0.1,0.5c0.1,0.1,0.4,0.1,0.6,0.1
				c0.5,0,1.1-0.2,1.6-0.4l0.5-0.2l-0.1,0.5c-0.1,0.3,0.4,0.7,0.8,0.9c0.5,0.2,1,0.4,1.5,0.5l0.4,0.1l-0.1,0.3
				c-0.1,0.3-0.1,0.5,0.1,0.7c0.2,0.2,0.5,0.4,0.8,0.5c0.7,0.3,1.4,0.4,2.1,0.5c1.5,0.2,3,0.3,4.5,0.3l0.3,0l0,0.3
				c0,0.3,0.1,0.6,0.2,0.9c0.1,0.3,0.2,0.5,0.4,0.6c0.2,0.1,0.4,0,0.7-0.2c0.2-0.2,0.5-0.4,0.7-0.6l0.5-0.6l0,0.8
				c0,0.3,0,0.5,0.1,0.8c0,0.2,0.1,0.5,0.2,0.6c0.2,0.2,0.7-0.1,1.1-0.4l0.5-0.5l-0.1,0.7c0,0.2,0,0.5,0,0.6
				c0.1,0.1,0.1,0.2,0.3,0.2c0.4,0,0.9-0.3,1.2-0.6l0.3-0.2l0.1,0.4c0.1,0.4,0.3,0.8,0.6,1c0.3,0.2,0.8,0.2,1.3,0.2
				c0.9-0.1,1.8-0.5,2.7-0.9l0.4-0.2l0,0.4c0,0.7,0.5,1.1,1.2,1.2c0.7,0.1,1.4,0,2.1-0.1c1.4-0.3,2.8-0.7,4.1-1.3l0.2-0.1l0.1,0.2
				c0.1,0.4,0.3,0.8,0.7,1c0.3,0.2,0.7,0.2,1.2,0.1c0.8-0.2,1.6-0.7,2.3-1.2l0.2-0.2l0.1,0.3c0.2,0.4,0.5,0.7,0.9,0.9
				c0.4,0.2,0.9,0.2,1.3,0.1c0.9-0.2,1.8-0.6,2.6-1.1l0.2-0.1l0.1,0.2c0.1,0.2,0.3,0.4,0.4,0.6c0.2,0.2,0.3,0.3,0.4,0.2
				c0.3-0.2,0.6-0.7,0.9-1.1c0.3-0.4,0.9-0.8,1.5-0.7c0.6,0,1.1,0.4,1.5,0.6c0.9,0.5,1.9,0.5,2.8,0c0.9-0.5,1.6-1.3,2.1-2.1l0-0.1
				l0.1,0c1.2-0.3,2.5-0.7,3.7-1c0.6-0.2,1.2-0.4,1.7-0.7c0.5-0.3,1.1-0.7,1.3-1.2l0.2-0.4l0.2,0.4c0.3,0.6,0.8,1.2,1.3,1.7
				c0.6,0.5,1.2,0.8,1.9,1.1c0.7,0.2,1.4,0.4,2.1,0.3c0.7-0.1,1.1-0.8,1.1-1.5l0-0.4l0.3,0.2c0.3,0.3,0.7,0.5,1.1,0.6
				c0.4,0.1,0.8-0.1,1.1-0.4c0.3-0.3,0.5-0.7,0.7-1.1c0.1-0.2,0.1-0.4,0.4-0.7c0-0.1,0.2-0.1,0.3,0c0.1,0.1,0.1,0.1,0.1,0.1
				c0,0.1,0,0.1,0.1,0.2c0,0.1,0.1,0.2,0.1,0.3c0.1,0.5,0.2,0.9,0.4,1.2c0.2,0.3,0.6,0.5,1.1,0.5c0.8,0,1.7-0.3,2.5-0.7l0.1,0l0.1,0
				c0.4,0.1,0.8,0.2,1.2,0.2c0.4,0,0.7-0.3,0.8-0.7c0.1-0.4,0.1-0.8,0-1.2c-0.1-0.4-0.2-0.8-0.3-1.2l-0.1-0.3l0.3,0.1
				c0.4,0.1,0.9,0.1,1.3-0.1c0.4-0.2,0.7-0.5,0.8-0.9c0.2-0.9,0.1-1.8-0.1-2.7l0-0.2l0.1-0.1c0.7-0.3,1.3-0.6,1.9-1
				c0.3-0.2,0.6-0.4,0.6-0.6c0-0.2-0.4-0.3-0.7-0.4l-0.5-0.1l0.4-0.3c0.4-0.3,0.8-0.6,1-0.9c0.3-0.4,0.5-0.8,0.3-1.1
				c-0.2-0.4-0.6-0.6-1-0.8c-0.4-0.2-0.9-0.4-1.3-0.5l-0.2,0l0-0.2c0-0.6-0.1-1.2-0.4-1.8c-0.1-0.3-0.3-0.5-0.6-0.6
				c-0.2-0.1-0.5-0.2-0.8-0.2l0.2-0.2l-0.2,0.7l-0.1,0.3l0,0.1l0,0.1l0,0c0,0,0,0.1-0.1,0.1c0,0,0,0-0.1,0c0,0-0.2,0-0.3-0.1
				c-0.1-0.2,0-0.1,0-0.2l0-0.1l0-0.1c0.1-0.5,0.2-0.9,0.3-1.4c0.2-0.9,0-1.8-0.5-2.5c-0.5-0.8-1.1-1.4-1.8-2
				c-0.7-0.6-1.5-1.1-2.3-1.6l-0.2-0.1l0.1-0.2c0.3-0.6,0.5-1.2,0.5-1.8c0-0.6-0.3-1.1-0.8-1.5c-1.1-0.7-2.4-0.9-3.7-1.2
				c-0.7-0.1-1.3-0.3-2-0.5c-0.6-0.2-1.4-0.6-1.7-1.3c-0.3-0.6-0.7-1.1-1.2-1.2c-0.5-0.1-1.1,0.3-1.5,0.7l-1.7,1.8l1.2-2.1
				c0.3-0.5,0-1-0.5-1.4c-0.5-0.4-1.1-0.6-1.7-0.9c-1.2-0.4-2.6-0.7-3.9-0.9l-0.3,0l0-0.3c0-0.6-0.2-1.1-0.5-1.5
				c-0.4-0.4-0.9-0.8-1.4-1c-1.1-0.5-2.3-0.8-3.6-0.9l-0.2,0l-0.1-0.1c-0.2-0.3-0.4-0.6-0.6-0.9c-0.2-0.3-0.4-0.5-0.6-0.6
				c-0.1,0-0.1,0-0.2,0c-0.1,0.1-0.2,0.2-0.3,0.3c-0.2,0.3-0.4,0.7-0.9,0.8c-0.5,0.2-1-0.1-1.3-0.3c-0.3-0.2-0.6-0.5-0.9-0.8
				c-0.5-0.5-1-0.9-1.6-1.1c-1.3-0.4-2.7-0.1-4,0.4c-1.3,0.5-2.5,1.3-3.6,2.1l-0.6,0.4l0-0.7c0-0.5-0.1-0.9-0.5-1.1
				c-0.3-0.2-0.8-0.1-1.3,0c-0.9,0.3-1.9,0.8-2.7,1.4l-0.5,0.3l-0.1-0.6c-0.1-0.6-0.4-1-0.9-1.3c-0.5-0.3-1.1-0.3-1.7-0.3
				c-1.2,0-2.5,0.3-3.7,0.8l-0.3,0.1l-0.1-0.3c-0.2-0.5-0.6-0.8-1.1-0.9c-0.5-0.1-1.1,0-1.7,0.1c-1.1,0.3-2.2,0.8-3.2,1.5l-0.4,0.3
				l-0.1-0.5c-0.3-0.9-1.1-1.7-1.9-2.2c-0.9-0.6-1.9-1-2.9-1.4l0.5-0.5c0.2,0.4,0.4,0.7,0.9,0.9c0.4,0.1,0.9,0.1,1.4,0
				c1-0.2,2-0.7,2.9-1.3l0.2-0.1l0.2,0.1c0.4,0.1,0.9,0.2,1.3,0.2c0.4,0,0.7-0.2,0.9-0.4c0.2-0.3,0.2-0.7,0.1-1.2
				c-0.1-0.4-0.2-0.9-0.3-1.3l-0.2-0.4l0.3-0.2c0.5-0.2,0.8-0.2,1.2-0.2c0.4,0,0.7,0.1,1,0.3c0.3,0.1,0.6,0.3,0.9,0.4
				c0.3,0.2,0.4,0.2,0.5,0.1c0.1,0,0.2-0.3,0.3-0.5c0.1-0.3,0.1-0.6,0.1-0.8c0-0.6,0-1.2,0-1.8l0-0.6l0.5,0.1c0.9,0.1,1.8,0.2,2.7,0
				c0.8-0.2,1.6-0.6,2-1.3c0.4-0.7,0.5-1.6,0.5-2.5c0-0.9-0.2-1.8-0.5-2.6l-0.1-0.4l0.4-0.1c0.7-0.3,1.3-0.6,1.9-1
				c0.6-0.4,1.1-0.9,1.5-1.4c0.3-0.6,0.3-1.2,0.1-1.8c-0.2-0.6-0.7-1.2-1.2-1.6l-0.4-0.4l0.5-0.3c1-0.6,1.9-1.3,2.5-2.2
				c0.3-0.4,0.5-0.9,0.6-1.5c0.1-0.5,0-1.1-0.2-1.5l-0.1-0.2l0.1-0.2c0.5-0.7,0.9-1.5,0.9-2.3c0-0.4-0.1-0.7-0.4-1
				c-0.2-0.3-0.6-0.5-0.9-0.6l-0.3-0.1l0.1-0.3c0.5-2.6,0.2-5.3-0.6-7.8c-0.8-2.5-2-4.9-3.3-7.2c-2.7-4.6-6.1-8.8-9.8-12.7
				c-3.6-4-7.5-7.7-11.5-11.2c-4-3.6-8.2-7-12.5-10.2l0,0c-1.5-0.5-3.1-0.8-4.7-0.7c-0.8,0.1-1.5,0.3-2.2,0.7
				c-0.7,0.4-1.2,1-1.6,1.7l-0.1,0.2L91.4,19c-0.3-0.5-0.6-1.1-1-1.5C90,17,89.5,16.6,89,16.5c-0.6,0-1.1,0.3-1.6,0.7
				c-0.4,0.4-0.8,0.9-1.1,1.4l-0.1,0.2l-0.1-0.2c-0.3-0.5-0.6-0.9-0.9-1.3c-0.4-0.4-0.9-0.7-1.4-0.6c-0.5,0-1,0.3-1.4,0.7
				c-0.4,0.4-0.7,0.8-1,1.3l-0.1,0.1l-0.1-0.1c-0.6-0.8-1.2-1.6-2.1-2.2c-0.4-0.2-0.9-0.4-1.4-0.3c-0.5,0.1-0.9,0.5-1.1,0.9l0,0.1
				l-0.1,0c-1-0.5-2.3-0.6-3.4-0.2C72.1,17.3,71.1,18.1,70.3,18.9z"/>
		</g>
	</g>
	<g>
		<path class="st8" d="M118.3,97.7c-1.3-0.7-2.5-1.1-2.5-1.1C116.2,97.7,117.2,97.9,118.3,97.7z"/>
		<g>
			<path d="M118.4,97.7l-0.2,0c-0.3,0-0.5,0-0.8,0c-0.2-0.1-0.4-0.1-0.6-0.2c-0.2-0.1-0.3-0.3-0.5-0.5c-0.2-0.1-0.4-0.2-0.6-0.2
				l0.3-0.3c0.2,0.2,0.4,0.3,0.5,0.4c0.1,0.1,0.3,0.2,0.5,0.2c0.3,0.1,0.7,0.3,1.3,0.5L118.4,97.7z M118.3,97.7
				c-0.4,0.4-1.1,0.6-1.7,0.4c-0.3-0.1-0.6-0.4-0.8-0.6c-0.2-0.3-0.2-0.6-0.3-0.9l0-0.5l0.3,0.2c0.2,0.2,0.4,0.2,0.6,0.3
				c0.2,0,0.5,0,0.7,0.1c0.2,0.1,0.4,0.2,0.6,0.4C118,97.2,118.2,97.4,118.3,97.7L118.3,97.7L118.3,97.7z"/>
		</g>
	</g>
	<path class="st9" d="M153.6,101.1c-2.6-4.6-1.6,2.1-4.9-1.5c-3.3-3.6-9.6,1.5-9.6,1.5c-0.1-3.6-5,0-5,0c-0.5-3.6-6.7-1.2-6.7-1.2
		c-1.3-2.9-6.6,0.5-6.6,0.5c-0.3-1.2-1.5-2.1-2.6-2.8c-1.1,0.2-2.1,0-2.5-1.1c0,0,1.2,0.4,2.5,1.1c1.6-0.3,3.3-1.4,3.3-1.4
		c4.4,1.3,2.5-3.3,2.5-3.3s0.9-0.5,2.8,0.6c1.9,1.1,1.5-3.5,1.5-3.5c8.1,1.1,5.1-7.1,5.1-7.1c7.1-2.9,2.3-6.5,2.3-6.5
		c4.5-2.7,3-5.6,3-5.6c2.5-3.6-0.6-4.4-0.6-4.4c3.4-17-29.6-43.1-36.6-48.4c-5.6,8.8-9.1,19-6.9,29.8c2.8,9.2,5.5,18.4,16.5,20.2
		c3.7,0.9,7.3,0,11-2.8c2.8,4.6,7.3,5.5,11.9,5.5c-4.6,1.8-2.8,7.3-8.3,4.6c0,3.7,0.9,3.7-2.8,5.5c-0.9,0.9,0.9,1.8,0.9,2.8
		c-0.9,0.9-3.7-2.8-4.6,0c0,0.9-0.9,3.7,0.9,4.6c-1.8,0-3.7-0.9-5.5,0.9c-0.9,1.8,0,2.8,1.8,3.7c-1.8-0.9-4.6-0.9-6.4-0.9
		c0.8,1.6-2,4.7,0.7,6c0.4,0.1,0.8,0.3,1.2,0.4c-0.5-0.1-0.9-0.2-1.2-0.4c-2.4-0.7-4.7-1.2-7.1,0.4c6.4,6.4,14.7,0.9,20.2,7.3
		c3.7-3.7,8.3,1.8,11.9,0.9c5.5-0.9,7.3-0.9,13.8-0.9c1.8,0,1.8-3.7,3.7-3.7c1.8,1.8,3.7,3.7,5.5,2.8c0.2-0.1,0.4-0.3,0.6-0.5
		C158.8,101.5,153.6,101.1,153.6,101.1z"/>
	<path class="st9" d="M55.9,106.6c0-0.9-1.8-2.8-0.9-3.7c3.7,0,2.8-0.9,4.6-3.7c1.8,2.8,3.7,0.9,5.5-0.9c0,1.8,1.8,0.9,1.8,2.8
		c6.4-2.8,13.8,1.8,20.2,1.8c0.9,0.9,2.8-1.8,3.7-2.8c1.8,1.8,4.6,3.7,6.4,1.8c0.9-0.9,0-2.8,0-4.6c4.6,0.9,6.4-1.8,7.3-6.4
		c0-0.9,1.8-1.8,3.7-1.8c-0.9-10.1-0.9-21.1-9.2-28.4c-0.9,0-1.8,1.8-2.8,0.9c-0.9-1.8-2.8-1.8-2.8-1.8c-9.2-0.9-18.4-0.9-26.6-4.6
		c-2.8-0.9-3.7,2.8-5.5,2.8c-3.7-1.8-7.3-3.7-11-5.5c0,1.8-1.8,1.8-1.8,3.7c-2.4-3.9-6.7-5.8-10.8-4c-0.6,1.7-0.5,3.6-0.5,3.6
		c-2.9,0-0.2,5.9,0.8,5.1c0.8-0.6,2,3.1,3.8,3c1.6-0.1,3-1.7,3.6-0.7c1,1.8,2.6,1.1,5,0.7c2.2-0.4,3.6-1.2,3.6-1.2
		c1.7,1.8,4.6,2.1,6.5,0.9c0.6-0.4,3.6,0.6,5.1,0.2c1.1-0.2,2.1-1.7,2.1-1.7c2.9,2.1,5.6-0.7,5.6-0.7c-0.4,2.4,5.6-1,5.6-1
		c-1.9,2.3,7,3.2,7,3.2c-0.7,3.1,4.5,0.9,4.5,0.9c-0.8,2.1,2.6-0.4,5,1.2c2.4,1.6,4.8,0.7,4.8,0.7c-1.9,1.3,0.9,4.2,0.9,4.2
		c-1.9,0.7,1.3,5.8,1.3,5.8c-4,0.6-0.2,6.5-2.4,7.4c-2.2,0.9,1,3.3,0,3.2c-1-0.1-1.5,1.5-1.5,1.5c-1.8-0.8-2.5,3.3-2.5,3.3
		c-1.5-0.5-3.4,3.7-3.4,3.7c-1.9-1.3-3,2.5-3,2.5c-0.5-1.7-3.8-0.8-3.8-0.8c-1.4-2.3-5.3,1.7-5.9,0.4c-0.6-1.3-3.3,0.2-3.3,0.2
		c-1.1-2.1-5.6,0.4-5.6,0.4c-1.6-2.6-3.1,1.1-3.1,1.1c-0.6-2.6-5.3-1.1-5.3-1.1c-1.1-3.1-5.2,0-5.2,0c-1.9-3-3.3,0-3.3,0
		c-3.2-0.3-3.6,3.7-3.6,3.7c-1.7,0.5,0.7,3.8,0.7,3.8c-1.6,0.3-2.4,1.4-2.8,2.4C51.1,108.7,54,108.6,55.9,106.6z"/>
	<path class="st9" d="M183.3,125.3c0-0.4-0.1-0.7-0.1-1c-3,1.2-5,5.2-8.8,7.1c-0.9,0-2.8-2.8-4.6-1.8c0.9,0.9-1.8,1.8-0.9,2.8
		c-1.8-0.9-4.6-2.8-6.4-1.8c0,0.9-1.8,1.8-0.9,2.8c-1.8-1.8-2.8-3.7-5.5-2.8c-1.8,0-1.8,2.8-2.8,2.8c-2.8-3.7-5.5-1.8-8.3,0
		c0-1.8-1.8-2.8-2.8-2.8c-6.4,0-10.1-1.8-16.5-0.9c-1.8,0-1.8,2.8-3.7,3.7c-1.8-3.7-4.6-2.8-8.3-1.8c0.9-1.8-0.9-2.8-1.8-3.7
		c-1.8-0.9-4.6,1.8-6.4,0.9c-0.9-1.8-1.8-3.7-2.8-4.6c-6.4-2.8-10.1-8.3-16.5-11c-3.7-0.9-6.4-0.9-9.2-0.9c-4.6,0-6.4-1.8-11.9-1.8
		c0,1.8-0.9,2.8-1.8,4.6c-1.3-3.2-5.3-3.3-7.9-1.4c0.9,0.5,2-1,3.6,0.8c2,2.2,2.8-0.1,2.8-0.1c-0.5,2.3,4,0.1,4,0.1
		c-0.1,2,3.2,1.1,3.2,1.1c0,2.7,2.7,0,2.7,0c0,2.6,3.9,0.7,3.9,0.7c0,2.2,3.6,1.5,3.6,1.5c-1.2,2.3,4.3,3.4,4.3,3.4
		c-0.7,1.9,3.1,1.8,3.1,1.8c-0.6,2.8,5,3.1,5,3.1c0.3,2.1,3.2,3,3.2,3c-0.5,1.9,3.4,1.7,3.4,1.7c-0.2,2,4.4,0.5,4.4,0.5
		s-0.3,0.5,0,2.2c0.3,1.7,3,1.7,3,1.7c-0.3,1.8,2.8,0.6,2.8,0.6c-0.2,1.3,2.6,1.7,2.6,1.7c-1,2.6,7.8,2.5,7.8,2.5
		c0.4,3.4,2.4,0.8,2.4,0.8c0,2.9,1.8,1.1,1.8,1.1c-0.2,2.2,2.1,0.5,2.1,0.5c0.5,2.9,4.9,0.5,4.9,0.5c0.2,3.2,7.7,0,7.7,0
		c0.9,2.9,4.5,0,4.5,0c1.1,2.7,5,0,5,0c1.8,3,1.5-2.6,4.6-0.6c3.1,2,5.4-2.1,5.4-2.1s0,0,3.2-0.9s3.6-2.2,3.6-2.2s0.7,2.1,3.8,3
		s3-1.5,3-1.5c3.2,2.5,3.2-3.8,3.7-0.8c0,0.2,0.1,0.3,0.1,0.4c0.7,2.3,4,0.4,4,0.4c3.6,1.3,1.8-3.1,1.8-3.1c3.6,0.7,2.2-3.9,2.2-3.9
		c4.6-1.9,1.8-2.4,1.8-2.4C188.2,126.2,183.3,125.3,183.3,125.3z"/>
	<g>
		<path class="st8" d="M52,41.3c0,0-3.6,8.7-9.3,9.1c0,0-0.8,0.3-0.9,2c0,0-3.3,1.3-3.8-4.1c-0.4-5.4-1.6-8.6,8.4-10.4"/>
		<path d="M52.1,41.3c-0.3,1.1-0.8,2.1-1.4,3.2c-0.5,1-1.2,2-1.9,2.9c-0.7,0.9-1.6,1.7-2.7,2.3c-1,0.6-2.2,0.9-3.4,1l0.1,0
			c-0.1,0-0.2,0.2-0.3,0.3c-0.1,0.1-0.2,0.3-0.2,0.5c-0.1,0.3-0.2,0.7-0.2,1l0,0.1l-0.1,0c-0.9,0.3-2.1,0.1-2.8-0.6
			c-0.7-0.7-1.1-1.7-1.3-2.7c-0.2-1-0.3-1.9-0.4-2.8c-0.1-0.9-0.2-1.9-0.1-2.9c0.1-1,0.4-2.1,1.1-2.9c0.7-0.8,1.6-1.3,2.5-1.7
			c1.8-0.8,3.7-1,5.6-1.2l0,0.1c-1.8,0.5-3.6,1.1-5.2,1.9c-0.8,0.4-1.5,0.9-2,1.6c-0.5,0.6-0.8,1.4-0.9,2.3
			c-0.2,1.7,0.1,3.7,0.2,5.5c0.1,0.9,0.3,1.8,0.9,2.4c0.3,0.3,0.6,0.6,1.1,0.7c0.4,0.1,0.9,0.1,1.3,0l-0.1,0.1
			c0-0.4,0.1-0.8,0.2-1.1c0.1-0.2,0.2-0.4,0.3-0.5c0.1-0.2,0.2-0.3,0.5-0.5l0,0l0,0c1.1-0.1,2.1-0.6,3-1.2c0.9-0.6,1.7-1.4,2.4-2.2
			c0.7-0.8,1.4-1.7,2.1-2.6C50.8,43.2,51.4,42.2,52.1,41.3L52.1,41.3z"/>
	</g>
	<path class="st2" d="M53.8,42.2c0,0-3.6,8.7-9.3,9.1c0,0-0.8,0.3-0.9,2c0,0-3.3,1.3-3.8-4.1c-0.4-5.4-1.6-8.6,8.4-10.4"/>
	<g>
		<path class="st7" d="M79.3,53.4c2.5,6.8-10.6,8.7-21.5,7.6C47,59.9,34.6,54.2,40,49.4c5.6-5,4.9-13,21-11
			C76.6,40.3,76.8,46.7,79.3,53.4z"/>
		<path d="M79.3,53.4c0.4,1,0.5,2.2,0,3.2c-0.5,1-1.3,1.7-2.2,2.3c-1.9,1.1-4,1.7-6.1,2.2c-4.2,0.8-8.6,0.9-12.9,0.4
			c-4.3-0.5-8.5-1.6-12.5-3.3c-2-0.9-3.9-1.8-5.5-3.3c-0.8-0.7-1.5-1.7-1.6-2.8c-0.1-1.2,0.7-2.3,1.5-3c1.5-1.4,2.6-3.3,3.8-5.1
			c1.2-1.8,2.6-3.6,4.6-4.7c1.9-1.1,4.2-1.6,6.3-1.8c2.2-0.2,4.4,0,6.5,0.3c2.1,0.3,4.3,0.6,6.4,1.3c2.1,0.7,4.1,1.5,5.8,2.9
			c1.7,1.4,3,3.2,3.8,5.2C78.1,49.3,78.6,51.4,79.3,53.4z M79.2,53.5c-0.8-2-1.3-4.1-2.2-6c-0.9-1.9-2.2-3.6-3.9-4.8
			c-1.7-1.2-3.7-2-5.7-2.5c-2-0.5-4.1-0.9-6.2-1.2c-2.1-0.3-4.2-0.4-6.3-0.3c-2.1,0.1-4.2,0.5-6,1.5c-1.8,1-3.2,2.6-4.4,4.3
			c-1.2,1.7-2.5,3.6-4.1,5c-0.8,0.7-1.5,1.5-1.4,2.5c0,1,0.7,1.9,1.4,2.6c1.5,1.4,3.5,2.4,5.4,3.2c2,0.8,4,1.4,6.1,1.9
			c2.1,0.5,4.2,0.8,6.3,0.9c4.2,0.3,8.5,0.4,12.7-0.2c2.1-0.3,4.2-0.8,6.1-1.8c0.9-0.5,1.8-1.2,2.2-2.2
			C79.7,55.6,79.6,54.5,79.2,53.5z"/>
	</g>
	<path class="st5" d="M79.3,53.4c-2.5-6.8-2.6-13.1-18.3-15.1c-9.2-1.1-13,1.1-15.5,4.1c11.3,0.9,35.1,2.9,27,12.8
		c-3.4,4.3-9.9,5.8-17.2,5.5c0.9,0.1,1.7,0.3,2.6,0.3C68.6,62.2,81.8,60.2,79.3,53.4z"/>
	<g>
		<path class="st8" d="M74.9,44.4c0,0,2.5,11.3,9.3,13c0,0,0.9,0.6,0.7,2.6c0,0,3.8,2.2,5.4-4.1c1.6-6.4,3.8-10.1-8-14.4"/>
		<path d="M74.9,44.4c0.5,1.3,1,2.6,1.5,3.9c0.6,1.3,1.2,2.5,1.9,3.6c0.7,1.1,1.5,2.2,2.5,3.2c0.9,0.9,2.1,1.7,3.4,2.1l0,0l0,0
			c0.2,0.2,0.3,0.4,0.5,0.6c0.1,0.2,0.2,0.5,0.2,0.7c0.1,0.5,0.1,0.9,0.1,1.4L85,59.8c0.5,0.2,1,0.4,1.6,0.3c0.5,0,1-0.3,1.5-0.6
			c0.8-0.7,1.3-1.7,1.6-2.8c0.2-0.5,0.3-1.1,0.4-1.6l0.4-1.7c0.3-1.1,0.5-2.2,0.6-3.3c0.1-1.1-0.1-2.1-0.6-3
			c-0.5-0.9-1.3-1.7-2.2-2.4c-1.8-1.3-3.9-2.3-6-3.3l0-0.1c2.2,0.6,4.4,1.4,6.4,2.7c1,0.7,2,1.4,2.6,2.5c0.7,1.1,0.9,2.4,0.8,3.6
			c-0.1,1.2-0.4,2.3-0.7,3.5c-0.3,1.1-0.6,2.2-1,3.3c-0.4,1.1-1,2.2-2.1,2.9c-1,0.7-2.4,0.7-3.5,0.2L84.7,60l0-0.1
			c0.1-0.4,0-0.9,0-1.3c0-0.2-0.1-0.4-0.2-0.6c-0.1-0.2-0.2-0.4-0.4-0.5l0.1,0c-1.4-0.3-2.7-1-3.8-1.9c-1.1-0.9-2-2.1-2.7-3.3
			c-0.7-1.2-1.3-2.5-1.8-3.9C75.4,47.2,75,45.8,74.9,44.4L74.9,44.4z"/>
	</g>
	<path class="st9" d="M90.3,46c0,2.5-0.4,4.6-2.3,5.5c-3.6,2.9-7.8,0.1-11.6-2.6c1.4,3.3,3.9,7.4,7.8,8.4c0,0,0.9,0.6,0.7,2.6
		c0,0,3.8,2.2,5.4-4.1C91.3,51.7,92.6,48.8,90.3,46z"/>
	<g>
		<path class="st8" d="M79.5,40.2c-1.5,6.4-5,5.9-5,5.9c-4.5,3.5-7.3-3.2-7.3-3.2c-2.3,2.7-3.6-1.2-3.6-1.2
			c-0.9,2.3-4.1-1.7-4.1-1.7c-2.9,2.9-3.5-2.6-3.5-2.6c-3.3,2.7-4.7,2.3-4.7,2.3c-1,3.1-3.7,1.3-3.7,1.3c-2.2,3.5-1.9-3.2-1.9-3.2
			s-0.3-3.5,3.3-2.1"/>
		<path d="M79.6,40.2c-0.2,1.4-0.6,2.8-1.4,4c-0.4,0.6-0.9,1.2-1.5,1.6c-0.6,0.4-1.3,0.7-2.2,0.7l0.3-0.1c-0.7,0.5-1.4,0.9-2.3,1.1
			c-0.9,0.1-1.8-0.1-2.5-0.6c-0.7-0.5-1.3-1.1-1.8-1.8c-0.5-0.7-0.8-1.4-1.1-2.2l0.4,0.1c-0.3,0.3-0.6,0.6-1.1,0.8
			c-0.4,0.2-1,0.2-1.4,0c-0.4-0.2-0.7-0.6-0.9-0.9c-0.2-0.4-0.4-0.7-0.6-1.2l0.3,0c-0.1,0.2-0.2,0.4-0.4,0.6
			c-0.2,0.2-0.5,0.2-0.8,0.2c-0.5-0.1-0.9-0.3-1.3-0.6c-0.8-0.5-1.4-1.2-2-1.9l0.4,0c-0.4,0.4-0.8,0.8-1.4,1c-0.3,0.1-0.7,0.1-1-0.1
			c-0.3-0.1-0.5-0.4-0.7-0.6c-0.4-0.5-0.6-1-0.7-1.5c-0.2-0.5-0.3-1-0.4-1.6l0.8,0.3c-0.7,0.6-1.4,1.2-2.2,1.6
			c-0.4,0.2-0.8,0.5-1.3,0.6c-0.2,0.1-0.5,0.2-0.7,0.2c-0.3,0-0.5,0.1-0.9,0l0.6-0.4c-0.1,0.4-0.3,0.8-0.6,1.2
			c-0.3,0.4-0.7,0.7-1.2,0.9c-0.5,0.1-1,0.1-1.4,0c-0.4-0.1-0.8-0.3-1.2-0.5l0.7-0.1c-0.1,0.2-0.3,0.4-0.5,0.7
			c-0.2,0.2-0.4,0.5-1,0.5c-0.3,0-0.5-0.2-0.7-0.3c-0.1-0.2-0.2-0.3-0.3-0.4c-0.1-0.3-0.2-0.6-0.2-0.8c-0.2-1.1-0.1-2.1-0.1-3.1l0,0
			c0-0.5,0.1-0.9,0.2-1.3c0.2-0.4,0.5-0.8,0.9-1.1c0.4-0.2,0.9-0.2,1.3-0.2c0.4,0.1,0.8,0.2,1.2,0.4l0,0.1c-0.8-0.2-1.7-0.4-2.3,0
			c-0.6,0.4-0.8,1.3-0.7,2l0,0l0,0c0,1,0.1,2,0.3,2.9c0,0.2,0.1,0.5,0.2,0.6c0.1,0.2,0.2,0.3,0.1,0.2c0,0,0.1-0.1,0.3-0.2
			c0.1-0.2,0.3-0.4,0.4-0.6l0.2-0.4l0.5,0.3c0.3,0.2,0.6,0.3,0.9,0.4c0.3,0.1,0.6,0.1,0.9,0c0.5-0.2,0.9-0.7,1.1-1.4l0.1-0.5
			l0.5,0.1c0,0,0.3,0,0.4,0c0.2,0,0.4-0.1,0.6-0.2c0.4-0.1,0.8-0.3,1.1-0.5c0.8-0.4,1.5-0.9,2.1-1.5l0.6-0.5l0.1,0.8
			c0.1,0.9,0.3,1.9,0.8,2.7c0.3,0.4,0.5,0.5,0.9,0.5c0.4-0.1,0.8-0.4,1.1-0.7l0.2-0.2l0.2,0.3c0.5,0.7,1.1,1.4,1.8,1.9
			c0.3,0.3,0.7,0.5,1.1,0.6c0.4,0.1,0.7-0.2,0.8-0.6l0.2-0.4l0.1,0.4c0.1,0.4,0.3,0.8,0.5,1.1c0.2,0.3,0.5,0.6,0.8,0.8
			c0.3,0.2,0.7,0.1,1-0.1c0.3-0.2,0.6-0.5,0.8-0.8l0.2-0.3l0.2,0.4c0.7,1.4,1.7,2.6,2.9,3.4c0.6,0.4,1.3,0.5,2,0.5
			c0.7-0.1,1.3-0.4,1.9-0.8l0.1-0.1l0.2,0c0.5,0,1.2-0.2,1.7-0.5c0.5-0.3,1-0.8,1.4-1.3C78.5,42.8,79.1,41.5,79.6,40.2L79.6,40.2z"
			/>
	</g>
	<g>
		<g>
			<path class="st2" d="M141.3,51.5c0.2-0.2,0.3-0.4,0.4-0.6c0,0,0-0.1,0.1-0.1c0.9-1.2,1.6-2.4,2.1-3.4c1-2,1.8-4,2.3-6.2
				c0.6-2.5,0.8-5.1,0.6-7.8c-1.1-14.7-14.3-25.7-29.6-24.6C102,10,90.5,22.8,91.6,37.5c1.1,14.7,14.3,25.7,29.6,24.6
				c0.1,0,0.2,0,0.3,0l0,0c27,14.7,33.3-5.3,33.3-5.3C149.1,63.5,136,58,141.3,51.5z"/>
			<g>
				<path d="M141.2,51.4c0.9-1.2,1.8-2.5,2.5-3.9c0.7-1.4,1.3-2.8,1.8-4.2c0.9-2.9,1.3-6,1.1-9.1c-0.3-6.1-2.9-12-7.1-16.4
					c-2.1-2.2-4.5-4.1-7.2-5.5c-2.7-1.4-5.6-2.4-8.6-2.9c-6-1-12.3-0.1-17.7,2.8c-2.7,1.4-5.2,3.3-7.3,5.5c-2.1,2.2-3.8,4.8-5,7.7
					c-2.4,5.6-2.6,12.1-0.7,17.9c1.9,5.8,5.9,10.8,11,14c5.1,3.3,11.3,4.7,17.3,4.2l1.7-0.2l-1.3,1.1l0,0l-0.1-0.9
					c2.8,1.5,5.8,2.9,8.8,3.9c3,1,6.2,1.6,9.4,1.5c3.2-0.1,6.3-1,8.9-2.9c2.6-1.8,4.6-4.5,5.8-7.4l0.4,0.2c-1.2,1.4-2.9,2.4-4.6,2.8
					c-1.8,0.4-3.7,0.3-5.4-0.2c-1.7-0.5-3.4-1.5-4.3-3.1c-0.5-0.8-0.6-1.7-0.5-2.6C140.2,52.9,140.7,52.1,141.2,51.4z M141.3,51.5
					c-0.6,0.7-1,1.5-1.1,2.4c-0.2,0.9,0,1.8,0.5,2.5c0.9,1.5,2.6,2.4,4.3,2.9c1.7,0.5,3.5,0.5,5.2,0.1c1.7-0.4,3.3-1.4,4.3-2.8
					l1-1.2l-0.5,1.4c-1.1,3.1-3.1,5.9-5.8,7.9c-2.7,2-6,3-9.3,3.2c-3.3,0.2-6.6-0.5-9.7-1.5c-3.1-1-6.1-2.4-9-3.9l-0.7-0.4l0.6-0.5
					l0,0l0.4,0.9c-6.3,0.5-12.7-1.1-17.9-4.5c-5.3-3.4-9.3-8.6-11.1-14.6c-1.9-6-1.4-12.5,1-18.2c2.5-5.7,6.9-10.5,12.4-13.4
					c5.4-3,11.9-4.1,18-3.2c6.2,0.9,12.1,3.9,16.3,8.6c4.3,4.6,6.8,10.7,6.9,16.9C147.2,40.5,145.1,46.7,141.3,51.5z"/>
			</g>
		</g>
		<path class="st0" d="M153.2,58.2c-6.2,5.7-16.3,7.4-19.3,0.7c-1.8-3.7,8.1-16.8,1.8-23.6c-5.5-5.5-25.1-10.2-26.6,5.2
			c0,6.8,6.4,13.8,12.8,10.1c8.7-4.6,7.6-12.5,0.9-13.8c6.4,0,11,4.6,11.9,11c0,5.5-2.8,9.2-6.4,11.9c-2.2,1.2-4.5,2-6.7,2.5
			c26.7,14.3,33-5.5,33-5.5C154.2,57.3,153.7,57.8,153.2,58.2z"/>
		<g>
			<path d="M94.9,48c3.9,5.4,8.9,10,14.9,12.4c3,1.2,6.3,1.9,9.6,1.6c3.3-0.2,6.5-1.4,9-3.5c2.5-2.1,4.3-4.9,5.1-8.1
				c0.8-3.1,0.4-6.5-1.4-9.1c-0.9-1.3-2.1-2.3-3.5-3.1c-0.3-0.2-0.7-0.4-1.1-0.5c-0.4-0.1-0.8-0.2-1.2-0.3c-0.8-0.1-1.6-0.2-2.4-0.1
				c-1.6,0.1-3.1,0.7-4.3,1.8c-1.2,1.1-2.1,2.5-2.8,4l-0.1,0c0.5-1.6,1.3-3.1,2.5-4.3c1.2-1.2,2.9-2,4.6-2.2c0.9-0.1,1.7-0.1,2.6,0
				c0.4,0.1,0.9,0.1,1.3,0.3c0.5,0.1,0.8,0.3,1.2,0.5c1.6,0.7,2.9,1.9,3.9,3.4c1,1.4,1.6,3.1,1.8,4.8c0.2,1.7,0,3.5-0.4,5.1
				c-0.9,3.3-3,6.3-5.7,8.3c-2.7,2-6,3.1-9.3,3.4c-3.3,0.3-6.8,0-9.9-1.2c-3.2-1.2-6-3.1-8.5-5.3C98.6,53.6,96.5,50.9,94.9,48
				L94.9,48z"/>
		</g>
		<g>
			<g>
				<line class="st8" x1="120.5" y1="8.8" x2="123" y2="37.5"/>
				<path d="M120.5,8.8c0.4,2.4,0.7,4.8,1,7.1c0.3,2.4,0.5,4.8,0.7,7.2c0.2,2.4,0.4,4.8,0.5,7.2l0.2,3.6c0,1.2,0.1,2.4,0.1,3.6
					c-0.2-1.2-0.4-2.4-0.6-3.6l-0.5-3.6c-0.3-2.4-0.5-4.8-0.7-7.2c-0.2-2.4-0.4-4.8-0.5-7.2C120.6,13.6,120.5,11.2,120.5,8.8z"/>
			</g>
			<g>
				<path d="M125.6,9.5c0.1,2.3,0.1,4.7,0.1,7c0,2.3-0.1,4.7-0.2,7c-0.1,2.3-0.2,4.7-0.4,7l-0.3,3.5c-0.1,1.2-0.2,2.3-0.4,3.5
					c-0.1-1.2-0.1-2.3-0.1-3.5l0-3.5c0-2.3,0.1-4.7,0.2-7c0.1-2.3,0.2-4.7,0.4-7C125.1,14.1,125.3,11.8,125.6,9.5z"/>
			</g>
			<g>
				<path d="M129.6,10.7c-0.1,2.3-0.3,4.5-0.4,6.8c-0.2,2.2-0.4,4.5-0.7,6.7c-0.3,2.2-0.6,4.5-0.9,6.7l-0.6,3.3
					c-0.2,1.1-0.4,2.2-0.7,3.3c0-1.1,0.1-2.3,0.2-3.4l0.3-3.4c0.2-2.2,0.4-4.5,0.7-6.7c0.3-2.2,0.6-4.5,0.9-6.7
					C128.8,15.1,129.1,12.9,129.6,10.7z"/>
			</g>
			<g>
				<path d="M135,13.5c-0.7,4.1-1.8,8.1-2.9,12.1c-1.1,4-2.3,7.9-3.8,11.8c0.7-4.1,1.8-8.1,2.9-12.1C132.3,21.3,133.5,17.4,135,13.5
					z"/>
			</g>
			<g>
				<path d="M139.8,17.6c-1.4,3.6-3,7.1-4.7,10.5c-1.7,3.4-3.5,6.8-5.6,10c1.3-3.6,3-7.1,4.7-10.5C136,24.2,137.8,20.9,139.8,17.6z"
					/>
			</g>
			<g>
				<path d="M143,21.8c-1.6,3.2-3.4,6.1-5.3,9.1c-1.9,2.9-3.9,5.8-6.1,8.5c1.6-3.2,3.4-6.1,5.3-9.1C138.8,27.4,140.8,24.5,143,21.8z
					"/>
			</g>
			<g>
				<path d="M145.7,27.9c-2.1,2.2-4.4,4.2-6.7,6.2c-2.4,1.9-4.8,3.8-7.4,5.4c2.1-2.2,4.4-4.2,6.7-6.2
					C140.7,31.4,143.1,29.5,145.7,27.9z"/>
			</g>
			<g>
				<path d="M131.6,39.4c2.4-1.4,4.9-2.4,7.4-3.4c2.5-1,5.1-1.9,7.8-2.5c-2.4,1.4-4.9,2.4-7.4,3.4C136.8,37.9,134.3,38.8,131.6,39.4
					z"/>
			</g>
			<g>
				<path d="M133.4,41.6c2.1-1,4.3-1.6,6.5-2.2c2.2-0.6,4.5-1,6.8-1.2c-2.1,1-4.3,1.6-6.5,2.2C137.9,40.9,135.7,41.4,133.4,41.6z"/>
			</g>
			<g>
				<path d="M134.1,42.9c2-0.7,4-1.1,6-1.4c2-0.3,4-0.5,6.1-0.4c-2,0.7-4,1.1-6,1.4C138.2,42.8,136.2,43,134.1,42.9z"/>
			</g>
			<g>
				<path d="M134.1,44.3c1.7-0.4,3.5-0.5,5.3-0.6c1.8,0,3.5,0.1,5.3,0.4c-1.7,0.4-3.5,0.5-5.3,0.6C137.6,44.8,135.9,44.7,134.1,44.3
					z"/>
			</g>
			<g>
				<path d="M134.1,45.7c1.7-0.2,3.4,0,5.1,0.2c1.7,0.2,3.3,0.5,4.9,1.1c-1.7,0.2-3.4,0-5.1-0.2C137.4,46.6,135.7,46.3,134.1,45.7z"
					/>
			</g>
			<g>
				<path d="M134.7,47.5c1.5-0.1,2.9,0,4.2,0.2c1.4,0.3,2.8,0.6,4.1,1.2c-1.5,0.1-2.9,0-4.2-0.2C137.4,48.5,136,48.1,134.7,47.5z"/>
			</g>
			<g>
				<path d="M134.8,49.5c1.1-0.2,2.2-0.2,3.3,0c1.1,0.2,2.1,0.4,3.2,0.9c-1.1,0.2-2.2,0.2-3.3,0C136.9,50.3,135.8,50.1,134.8,49.5z"
					/>
			</g>
			<g>
				<path d="M140.5,52.8c-1.1,0.3-2.2,0.3-3.2,0.2c-1.1-0.1-2.1-0.3-3.1-0.8c1.1-0.3,2.2-0.3,3.2-0.2
					C138.4,52.1,139.4,52.3,140.5,52.8z"/>
			</g>
			<g>
				<path d="M139.8,54c-1.3,0.6-2.7,0.8-4,1c-1.4,0.2-2.7,0.2-4.2,0c1.3-0.6,2.7-0.8,4-1C137,53.8,138.4,53.8,139.8,54z"/>
			</g>
			<g>
				<path d="M139.8,55.6c-2.1,1.2-4.3,2.1-6.6,2.9c-2.3,0.8-4.5,1.5-6.9,2c2.1-1.2,4.3-2.1,6.6-2.9C135.2,56.8,137.4,56,139.8,55.6z
					"/>
			</g>
			<g>
				<path d="M140.5,57.3c-2.5,1.4-5.2,2.6-7.8,3.7c-2.7,1.1-5.4,2-8.2,2.7c2.5-1.4,5.2-2.6,7.8-3.7C134.9,59,137.6,58,140.5,57.3z"
					/>
			</g>
			<g>
				<path d="M140.7,56.6c-1.6,1.7-3.4,3.2-5.2,4.6c-1.9,1.4-3.8,2.7-5.8,3.8c1.6-1.7,3.4-3.2,5.2-4.6
					C136.7,59.1,138.6,57.7,140.7,56.6z"/>
			</g>
			<g>
				<path d="M140.5,57.3c-0.6,1.7-1.5,3.3-2.4,4.9c-1,1.5-2,3-3.3,4.3c0.6-1.7,1.5-3.3,2.4-4.9C138.1,60.1,139.2,58.6,140.5,57.3z"
					/>
			</g>
			<g>
				<path d="M141.3,57.3c0,1.8-0.2,3.5-0.5,5.2c-0.4,1.7-0.8,3.4-1.5,5c0-1.8,0.2-3.5,0.5-5.2C140.1,60.6,140.5,58.9,141.3,57.3z"/>
			</g>
			<g>
				<path d="M141.7,58c0.5,1.6,0.7,3.1,0.8,4.7c0.1,1.6,0.1,3.2-0.2,4.8c-0.5-1.6-0.7-3.1-0.8-4.7C141.4,61.2,141.4,59.6,141.7,58z"
					/>
			</g>
			<g>
				<path d="M143,58.7c0.6,1.2,0.8,2.5,1,3.8c0.2,1.3,0.3,2.6,0,4c-0.6-1.2-0.8-2.5-1-3.8C142.9,61.3,142.8,60,143,58.7z"/>
			</g>
			<g>
				<path d="M144.1,59.2c0.8,1,1.3,2,1.8,3.1c0.4,1.1,0.8,2.2,0.8,3.5c-0.8-1-1.3-2-1.8-3.1C144.5,61.6,144.2,60.4,144.1,59.2z"/>
			</g>
			<g>
				<path d="M146.7,59.8c0.7,0.7,1.1,1.4,1.4,2.2c0.3,0.8,0.6,1.6,0.5,2.6c-0.7-0.7-1.1-1.4-1.4-2.2
					C146.9,61.6,146.7,60.8,146.7,59.8z"/>
			</g>
			<g>
				<path d="M148.7,60.5c0.6,0.3,1,0.7,1.3,1.1c0.3,0.5,0.5,1,0.4,1.6c-0.6-0.3-1-0.7-1.3-1.1C148.8,61.7,148.6,61.2,148.7,60.5z"/>
			</g>
			<g>
				<path d="M150.3,59.5c0.6,0.2,0.9,0.5,1.1,0.9c0.2,0.4,0.4,0.8,0.2,1.4c-0.6-0.2-0.9-0.5-1.1-0.9
					C150.4,60.6,150.2,60.1,150.3,59.5z"/>
			</g>
			<g>
				<path d="M151.7,59.2c0.5,0,0.7,0.1,0.9,0.3c0.2,0.2,0.3,0.5,0.2,1c-0.5,0-0.7-0.1-0.9-0.3C151.6,59.9,151.5,59.6,151.7,59.2z"/>
			</g>
			<g>
				<path d="M122,37.4c-0.6-2.3-1.1-4.6-1.6-6.9c-0.5-2.3-0.9-4.6-1.4-7c-0.4-2.3-0.8-4.7-1.1-7l-0.5-3.5c-0.1-1.2-0.3-2.3-0.4-3.5
					c0.3,1.1,0.6,2.3,0.9,3.4l0.8,3.5c0.5,2.3,0.9,4.6,1.4,7c0.4,2.3,0.8,4.7,1.1,7C121.5,32.7,121.8,35,122,37.4z"/>
			</g>
			<g>
				<path d="M122,37.4c-1.1-2.2-2.1-4.5-3-6.7c-1-2.3-1.9-4.5-2.8-6.8c-0.9-2.3-1.8-4.6-2.6-6.9l-1.2-3.5c-0.4-1.2-0.8-2.3-1.1-3.5
					c0.5,1.1,1,2.2,1.6,3.3l1.5,3.4c1,2.3,1.9,4.5,2.8,6.8c0.9,2.3,1.8,4.6,2.6,6.9C120.5,32.7,121.3,35,122,37.4z"/>
			</g>
			<g>
				<path d="M120.5,38.1c-1.5-2-2.9-4.1-4.2-6.2c-1.4-2.1-2.7-4.2-4-6.3c-1.3-2.1-2.6-4.3-3.8-6.4l-1.8-3.3
					c-0.6-1.1-1.2-2.2-1.7-3.3c0.7,1,1.4,2,2.2,3.1l2.1,3.1c1.4,2.1,2.7,4.2,4,6.3c1.3,2.1,2.6,4.3,3.8,6.4
					C118.1,33.7,119.3,35.9,120.5,38.1z"/>
			</g>
			<g>
				<path d="M119.5,38.9c-1.7-1.8-3.3-3.7-4.9-5.7c-1.6-1.9-3.1-3.9-4.7-5.8c-1.5-2-3-3.9-4.5-6l-2.2-3c-0.7-1-1.4-2-2.1-3.1
					c0.9,0.9,1.7,1.9,2.5,2.8L106,21c1.6,1.9,3.1,3.9,4.7,5.8c1.5,2,3,4,4.5,6C116.7,34.8,118.1,36.8,119.5,38.9z"/>
			</g>
			<g>
				<path d="M118.6,39.8c-2.1-1.3-4-2.8-6-4.2c-2-1.4-3.9-2.9-5.9-4.4c-1.9-1.5-3.8-3-5.7-4.6l-2.8-2.4c-0.9-0.8-1.8-1.6-2.7-2.4
					c1,0.7,2,1.4,3,2.1l3,2.1c2,1.4,3.9,2.9,5.9,4.4c1.9,1.5,3.8,3,5.7,4.6C114.9,36.6,116.8,38.2,118.6,39.8z"/>
			</g>
			<g>
				<path d="M118.6,39.8c-1.9-1.6-3.7-3.3-5.5-5c-1.8-1.7-3.6-3.4-5.3-5.2c-1.7-1.8-3.5-3.5-5.2-5.3l-2.5-2.7
					c-0.8-0.9-1.7-1.8-2.5-2.8c1,0.8,1.9,1.6,2.8,2.4l2.7,2.5c1.8,1.7,3.6,3.4,5.3,5.2c1.7,1.8,3.5,3.5,5.2,5.3
					C115.3,36.1,117,38,118.6,39.8z"/>
			</g>
			<g>
				<path d="M118.6,39.8c-2.2,0.2-4.5,0.3-6.7,0.4c-2.2,0.1-4.5,0.1-6.7,0.1c-2.2,0-4.5,0-6.7-0.1l-3.3-0.1C94.1,40,93,40,91.8,39.8
					c1.1-0.1,2.2-0.2,3.3-0.2l3.3-0.1c2.2-0.1,4.5-0.1,6.7-0.1c2.2,0,4.5,0,6.7,0.1C114.1,39.5,116.4,39.6,118.6,39.8z"/>
			</g>
			<g>
				<path d="M118.2,40.4c-2.3-0.4-4.5-0.8-6.8-1.3c-2.3-0.5-4.5-1-6.7-1.6c-2.2-0.6-4.4-1.1-6.7-1.8l-3.3-1
					c-1.1-0.4-2.2-0.7-3.3-1.1c1.1,0.2,2.3,0.4,3.4,0.6l3.4,0.7c2.3,0.5,4.5,1,6.7,1.6c2.2,0.6,4.4,1.1,6.7,1.8
					C113.8,39,116,39.6,118.2,40.4z"/>
			</g>
			<g>
				<path d="M118.2,40.4c-2.2-0.9-4.4-1.8-6.6-2.8c-2.2-1-4.3-2-6.4-3c-2.1-1.1-4.2-2.1-6.3-3.2l-3.1-1.7c-1-0.6-2.1-1.2-3.1-1.8
					c1.1,0.4,2.2,0.9,3.3,1.3l3.3,1.4c2.2,1,4.3,2,6.4,3c2.1,1.1,4.2,2.1,6.3,3.2C114.1,38,116.2,39.1,118.2,40.4z"/>
			</g>
			<g>
				<path d="M118.2,40.4c-2.1,0.5-4.2,0.9-6.3,1.3c-2.1,0.4-4.2,0.7-6.3,1.1c-2.1,0.3-4.2,0.6-6.3,0.9L96.2,44
					c-1.1,0.1-2.1,0.2-3.2,0.2c1-0.3,2.1-0.5,3.1-0.7l3.1-0.6c2.1-0.4,4.2-0.7,6.3-1.1c2.1-0.3,4.2-0.6,6.3-0.8
					C114,40.7,116.1,40.5,118.2,40.4z"/>
			</g>
			<g>
				<path d="M117.5,41.6c-3.4,1.7-7,3.1-10.5,4.5c-3.6,1.3-7.2,2.6-10.9,3.5c3.4-1.7,7-3.1,10.5-4.5
					C110.2,43.8,113.8,42.5,117.5,41.6z"/>
			</g>
			<g>
				<path d="M116.9,43c-2.6,2.2-5.3,4.1-8.1,5.9c-2.8,1.8-5.7,3.6-8.7,5.1c2.6-2.2,5.3-4.1,8.1-5.9C111,46.2,113.9,44.5,116.9,43z"
					/>
			</g>
			<g>
				<path d="M117.5,42.1c-1,3.1-2.3,6.1-3.7,9.1c-1.4,3-2.9,5.9-4.6,8.7c1-3.1,2.3-6.1,3.7-9.1C114.3,47.8,115.8,44.9,117.5,42.1z"
					/>
			</g>
			<g>
				<path d="M117.5,42.1c-2,2.8-4.3,5.4-6.6,7.9c-2.3,2.5-4.7,5-7.3,7.3c2-2.8,4.3-5.4,6.6-7.9C112.5,46.8,114.9,44.4,117.5,42.1z"
					/>
			</g>
			<g>
				<path d="M118.6,39.8c0.3,3.7,0.4,7.4,0.3,11c-0.1,3.7-0.2,7.3-0.7,11c-0.3-3.7-0.4-7.4-0.3-11C118,47.2,118.2,43.5,118.6,39.8z"
					/>
			</g>
			<g>
				<path d="M118.6,39.8c2,3,3.6,6.2,5.3,9.4c1.6,3.2,3.1,6.5,4.4,9.9c-2-3-3.6-6.2-5.3-9.4C121.4,46.5,119.9,43.2,118.6,39.8z"/>
			</g>
			<g>
				<path d="M118.2,40.4c1.3,3.4,2.2,6.9,3.1,10.5c0.9,3.5,1.6,7.1,2.1,10.7c-1.3-3.4-2.2-6.9-3.1-10.5
					C119.5,47.5,118.7,44,118.2,40.4z"/>
			</g>
			<g>
				<path d="M118.2,41.2c-0.4,3.5-1.2,6.9-2,10.4c-0.8,3.4-1.7,6.8-2.9,10.1c0.4-3.5,1.2-6.9,2-10.4C116.1,47.9,117,44.5,118.2,41.2
					z"/>
			</g>
			<g>
				<path d="M118.9,40.4c2.5,2.1,4.9,4.4,7.2,6.7c2.3,2.4,4.5,4.8,6.4,7.4c-2.5-2.1-4.9-4.4-7.2-6.7C123,45.4,120.9,43,118.9,40.4z"
					/>
			</g>
			<g>
				<path d="M118.2,40.4c2.7,0,5.4,0.4,8,0.8c2.6,0.4,5.3,1,7.9,1.8c-2.7,0-5.4-0.4-8-0.8C123.4,41.7,120.8,41.2,118.2,40.4z"/>
			</g>
			<g>
				<path d="M118.2,40.4c1.1-0.9,2.3-1.6,3.6-2.1c1.3-0.5,2.6-1,4-1.2c-1.1,0.9-2.3,1.6-3.6,2.1C121,39.7,119.6,40.2,118.2,40.4z"/>
			</g>
			<g>
				<path d="M118.9,40.4c1.9-0.7,3.9-1,5.8-1.3c2-0.3,4-0.5,6-0.3c-1.9,0.7-3.9,1-5.8,1.3C122.9,40.3,120.9,40.5,118.9,40.4z"/>
			</g>
			<g>
				<path d="M118.9,40.4c2.8,1,5.5,2.3,8.2,3.6c2.6,1.4,5.2,2.8,7.7,4.5c-2.8-1-5.5-2.3-8.2-3.6C123.9,43.5,121.3,42.1,118.9,40.4z"
					/>
			</g>
		</g>
	</g>
	<g>
		<path d="M68.4,50.3c-0.9,1.2-1.9,2.2-3.2,1.3c-1.2-0.9-1.5-2.6-0.7-3.8c0.9-1.2,2.6-1.5,3.8-0.7C69.6,48,69.2,49.1,68.4,50.3z"/>
		<ellipse transform="matrix(0.9153 -0.4028 0.4028 0.9153 -13.9706 30.2929)" class="st8" cx="65" cy="48.4" rx="0.5" ry="0.4"/>
	</g>
	<g>
		<path d="M44,45.9c-0.8,0.7-1.5,1.3-1.5,0.4c0-0.8,0.7-2.1,1.5-2.9c0.8-0.7,1.4-0.7,1.4,0.2C45.4,44.5,44.8,45.2,44,45.9z"/>
		<path class="st8" d="M44.2,43.9c-0.1,0.2-0.2,0.3-0.3,0.3c-0.1,0-0.2-0.1-0.1-0.2c0.1-0.2,0.2-0.3,0.3-0.3
			C44.2,43.6,44.3,43.7,44.2,43.9z"/>
	</g>
	<ellipse class="st11" cx="68.4" cy="53.6" rx="4.9" ry="1.6"/>
	<ellipse class="st8" cx="70.6" cy="52.2" rx="1.2" ry="0.8"/>
	<g>
		<path d="M42,49.3c0.2,0.5,0.6,0.8,1,1c0.4,0.2,0.9,0.1,1.3,0c0.5-0.2,1.1-0.3,1.7-0.1c0.3,0.1,0.6,0.3,0.8,0.6
			c0.2,0.3,0.2,0.3,0.4,0.5c0.7,0.5,1.7,0.9,2.6,1c0.9,0.1,2,0.2,2.9-0.3c-0.7,0.7-1.9,1-2.9,0.9c-1.1-0.1-2.1-0.4-3-1
			c-0.1-0.1-0.2-0.2-0.3-0.3c-0.1-0.1-0.1-0.2-0.1-0.2l-0.1-0.1c-0.1-0.1-0.2-0.3-0.4-0.3c-0.4-0.1-0.8-0.1-1.3,0
			c-0.5,0.1-1.1,0-1.6-0.2C42.4,50.3,42.1,49.8,42,49.3z"/>
	</g>
	<path d="M48.8,48.5c-0.2,0.9-1.5,2.3-2.7,2c-1.2-0.3-1.7-1.2-1.5-2.1c0.2-0.9,0.8-1.5,2-1.3C47.8,47.4,49,47.6,48.8,48.5z"/>
	<ellipse class="st8" cx="45.9" cy="47.4" rx="0.4" ry="0.1"/>
	<path class="st10" d="M86.3,84.8c-0.2,1.4-4.5,1.8-9.5,0.9c-5-0.9-8.9-2.7-8.6-4.1c0.2-1.4,4.5-1.8,9.5-0.9
		C82.7,81.6,86.5,83.5,86.3,84.8z"/>
	<ellipse transform="matrix(0.9843 0.1767 -0.1767 0.9843 15.7737 -13.2231)" class="st8" cx="82.1" cy="82" rx="2.2" ry="1.2"/>
	<path d="M78.3,78.3c1.2-1.5,0.7-2.6-1.1-4.1c-1.9-1.6-4.4-3.1-5.6-1.6c-1.2,1.5-0.7,3.9,1.2,5.5C74.6,79.7,77.1,79.7,78.3,78.3z"/>
	<path class="st8" d="M72.9,74.8c0-0.5-0.3-1-0.8-1c-0.4,0-0.8,0.4-0.8,1c0,0.5,0.3,1,0.8,1C72.6,75.8,72.9,75.3,72.9,74.8z"/>
	<g>
		
			<ellipse transform="matrix(-0.9353 -0.3539 0.3539 -0.9353 76.1149 184.0547)" class="st6" cx="54.9" cy="85.1" rx="6.3" ry="4.3"/>
		<path d="M49,82.9c0.5-1.4,1.9-2.1,3.3-2.4c1.4-0.3,2.9-0.1,4.2,0.3c1.4,0.5,2.7,1.2,3.6,2.3c0.5,0.6,0.9,1.2,1.1,2
			c0.2,0.7,0.2,1.6-0.1,2.4c-0.3,0.8-0.9,1.4-1.5,1.8c-0.7,0.4-1.4,0.6-2.1,0.7c-1.5,0.2-3-0.1-4.3-0.7c-1.3-0.6-2.5-1.4-3.4-2.6
			C49,85.7,48.5,84.2,49,82.9z M49,82.9c-0.5,1.3,0.1,2.8,1,3.8c0.9,1,2.1,1.7,3.4,2.2c1.3,0.4,2.7,0.5,4,0.3
			c1.3-0.2,2.5-0.9,2.9-2.1c0.4-1.1,0-2.4-0.8-3.4c-0.8-1-1.9-1.9-3.2-2.4c-1.2-0.5-2.6-0.8-4-0.6C51,80.8,49.5,81.5,49,82.9z"/>
	</g>
	<g>
		<path class="st8" d="M60.2,83.9c-0.8-1.2-2.1-2.3-3.8-2.9c-3.2-1.2-6.5-0.4-7.4,1.8c-0.2,0.5-0.2,1.1-0.1,1.7
			C52.8,84,56.5,83.8,60.2,83.9z"/>
		<path d="M60.2,83.9c-0.7-1-1.7-1.8-2.8-2.3c-1.1-0.5-2.3-0.9-3.5-0.9c-1.2-0.1-2.5,0.2-3.4,0.8c-1,0.6-1.5,1.8-1.3,3l-0.3-0.2
			c1.9-0.2,3.8-0.4,5.7-0.5c0.9,0,1.9-0.1,2.8,0C58.3,83.8,59.3,83.9,60.2,83.9z M60.2,83.9c-0.9,0-1.9,0-2.8,0.1
			c-0.9,0.1-1.9,0.1-2.8,0.2c-1.9,0.2-3.8,0.3-5.6,0.6l-0.2,0l0-0.2c-0.1-0.6-0.1-1.4,0.2-2c0.3-0.6,0.7-1.1,1.3-1.5
			c1.1-0.7,2.5-0.9,3.7-0.8C56.4,80.5,58.9,81.8,60.2,83.9z"/>
	</g>
</g>
<g>
	<g>
		
			<radialGradient id="SVGID_1_" cx="231.4043" cy="215.3833" r="99.5674" gradientTransform="matrix(2.575285e-002 1.4686 -0.6056 3.372602e-002 243.147 -221.7095)" gradientUnits="userSpaceOnUse">
			<stop  offset="0" style="stop-color:#2EA3D4"/>
			<stop  offset="0.2056" style="stop-color:#31A7D6;stop-opacity:0.7944"/>
			<stop  offset="0.4156" style="stop-color:#3AB3DC;stop-opacity:0.5844"/>
			<stop  offset="0.6276" style="stop-color:#4AC8E5;stop-opacity:0.3724"/>
			<stop  offset="0.8396" style="stop-color:#5FE4F2;stop-opacity:0.1604"/>
			<stop  offset="1" style="stop-color:#73FFFF;stop-opacity:0"/>
		</radialGradient>
		<path class="st12" d="M228.8,112.6v95.3L11.1,218.2l1.4-108.3c0,0,6.5-9.5,34.9,2.7c28.4,12.2,25.9-21.5,74.9-6.2
			c48.9,15.3,30.4-12.1,62.3-4c31.9,8,44.1,7.6,44.1,7.6"/>
	</g>
	<g>
		<g>
			<path class="st3" d="M12.6,109.9c0.7-0.9,1.8-1.6,2.8-2.1c1.1-0.5,2.2-0.9,3.4-1.1c2.3-0.5,4.7-0.5,7-0.4
				c4.7,0.3,9.3,1.5,13.8,2.9c2.2,0.7,4.4,1.6,6.6,2.5c2.2,0.9,4.3,1.8,6.6,2.4c2.2,0.6,4.6,0.9,6.9,0.8c2.3-0.1,4.6-0.6,6.8-1.4
				c4.3-1.7,8.2-4.4,12.4-6.5c4.2-2.2,8.7-3.9,13.4-4.6c4.7-0.8,9.5-0.7,14.2-0.1c4.7,0.6,9.3,1.6,13.9,2.9c4.5,1.4,9,2.8,13.5,3.8
				c4.6,1,9.2,1.8,13.8,1.6c2.3-0.1,4.6-0.4,6.8-1.1c2.2-0.7,4.2-1.9,6-3.4c1.9-1.4,3.7-3,5.9-4c2.2-1.1,4.6-1.6,7-1.7
				c4.8-0.2,9.4,1,14,2.2c4.6,1.1,9.1,2.2,13.7,3.2c4.6,1,9.2,1.9,13.8,2.6c4.6,0.7,9.3,1.4,14,1.4c-4.7,0-9.4-0.6-14-1.2
				c-4.7-0.7-9.3-1.5-13.9-2.4c-4.6-0.9-9.2-2-13.8-3.1c-4.5-1.1-9.1-2.2-13.8-2c-2.3,0.1-4.6,0.6-6.6,1.6c-2.1,1-3.8,2.5-5.7,4
				c-1.9,1.4-4,2.7-6.2,3.5c-2.3,0.8-4.7,1.1-7.1,1.2c-4.8,0.1-9.5-0.6-14.1-1.6c-4.6-1-9.1-2.4-13.6-3.7c-4.5-1.3-9.1-2.4-13.7-2.9
				c-4.6-0.6-9.3-0.6-13.9,0.1c-4.6,0.7-9,2.3-13.1,4.5c-4.1,2.1-8.1,4.8-12.5,6.5c-2.2,0.8-4.6,1.3-7,1.4c-2.4,0.1-4.8-0.3-7.1-0.9
				c-2.3-0.6-4.5-1.5-6.6-2.5c-2.2-0.9-4.3-1.8-6.6-2.5c-4.4-1.5-9-2.7-13.7-3.2c-2.3-0.2-4.7-0.2-7,0.3c-1.1,0.2-2.3,0.5-3.3,1
				C14.4,108.4,13.3,109,12.6,109.9z"/>
		</g>
	</g>
</g>
</svg>
