<?xml version="1.0" encoding="utf-8"?>
<!-- Generator: Adobe Illustrator 15.1.0, SVG Export Plug-In . SVG Version: 6.00 Build 0)  -->
<!DOCTYPE svg PUBLIC "-//W3C//DTD SVG 1.1//EN" "http://www.w3.org/Graphics/SVG/1.1/DTD/svg11.dtd">
<svg version="1.1" id="horse" xmlns="http://www.w3.org/2000/svg" xmlns:xlink="http://www.w3.org/1999/xlink" x="0px" y="0px"
	 width="270px" height="225px" viewBox="0 0 270 225" style="enable-background:new 0 0 270 225;" xml:space="preserve">
<style type="text/css">
<![CDATA[
	.st0{opacity:0.48;fill:#BC9A79;}
	.st1{fill:#934600;stroke:#000000;stroke-miterlimit:10;}
	.st2{fill:#EFBA6C;}
	.st3{fill:#231F20;}
	.st4{fill:#F9D3AA;}
	.st5{fill:#934600;}
	.st6{fill:#C99C6B;}
	.st7{fill:#FFCE00;}
	.st8{fill:#FFFFFF;}
	.st9{fill:#63340A;stroke:#000000;stroke-miterlimit:10;}
	.st10{opacity:0.23;fill:#4C2706;}
	.st11{opacity:0.47;fill:#FFA6A6;}
	.st12{fill:#3A1E01;}
	.st13{fill:#A05408;}
	.st14{opacity:0.5;fill:url(#SVGID_1_);}
	.st15{opacity:0.48;fill:#4C2706;}
]]>
</style>
<g>
	<path class="st9" d="M84,76.6c-5.4-3.3-16.3,0-23.8-1.1c-9.6,0-12.4-12.7-17.4-22.4c-3.3,6.1-5.9,16.2-4.1,23.4
		c5.4,22.4,22.1,37.8,31.7,39.9c3.9-0.9,9-3,11.6-5.1C92.6,103.7,95.9,83.1,84,76.6z"/>
	<path class="st1" d="M86.5,134.8c0,0-72.9,13.9,15,8.1C101.5,142.9,104.2,134.3,86.5,134.8z"/>
	<g>
		<path class="st5" d="M199.1,140c0,0,30.7,5.3,37.6,11.8c6.9,6.5-24.2,4.7-24.2,4.7S193,154.5,199.1,140z"/>
		<g>
			<path d="M199.1,139.9c3.9,0.5,7.7,1.2,11.5,2c3.8,0.8,7.6,1.7,11.3,2.9c3.7,1.2,7.4,2.6,10.9,4.3c0.9,0.4,1.7,0.9,2.5,1.5
				c0.8,0.6,1.6,1.1,2.2,2c0.3,0.4,0.4,1.1,0.1,1.6c-0.3,0.5-0.7,0.8-1.2,1c-0.9,0.5-1.9,0.7-2.8,0.9c-3.9,0.8-7.8,1-11.7,1
				c-2,0-3.9,0-5.9,0c-1,0-2-0.1-2.9-0.1c-1,0-2-0.2-3-0.4c-1.9-0.4-3.8-1-5.6-1.9c-1.8-0.9-3.5-2-4.8-3.6c-1.3-1.5-2.1-3.6-2.1-5.6
				C197.6,143.6,198.2,141.7,199.1,139.9L199.1,139.9L199.1,139.9z M199.1,140c-0.7,1.8-1.1,3.7-1,5.6c0.1,1.9,0.9,3.7,2.2,5.1
				c1.3,1.4,2.9,2.4,4.6,3.2c1.7,0.8,3.6,1.3,5.4,1.7c0.9,0.2,1.9,0.4,2.8,0.4l2.9,0.1c1.9,0.1,3.9,0.1,5.8,0.1
				c3.9,0,7.8,0,11.6-0.6c0.9-0.2,1.9-0.4,2.7-0.8c0.4-0.2,0.8-0.5,1.1-0.8c0.2-0.4,0.2-0.8,0-1.2c-0.5-0.8-1.3-1.4-2-2
				c-0.8-0.6-1.7-1-2.5-1.4c-1.7-0.9-3.6-1.5-5.4-2.1c-1.8-0.6-3.7-1.2-5.6-1.7C214.3,143.5,206.7,141.7,199.1,140z"/>
		</g>
	</g>
	<path class="st15" d="M86.5,134.8c0,0-72.9,13.9,15,8.1C101.5,142.9,104.2,134.3,86.5,134.8z"/>
	<g>
		<path class="st4" d="M114.9,91.1c-2,15.8-3.8,30.1-42.9,23.8c-35.5-5.7-37.3-16.4-27.2-32.5c8.7-13.7,12.7-27.6,34.4-24.9
			C100.9,60.2,116.9,75.3,114.9,91.1z"/>
		<g>
			<path d="M115,91.1c-0.5,4.4-1,8.9-2.6,13.1c-0.8,2.1-1.9,4.1-3.4,5.8c-1.5,1.7-3.4,3-5.4,4c-4.1,2-8.7,2.5-13.2,2.7
				c-4.5,0.2-9-0.3-13.4-0.8c-4.4-0.6-8.8-1.4-13.2-2.4c-4.4-1-8.7-2.2-12.8-4c-2.1-0.9-4.1-1.9-5.9-3.2c-1.8-1.3-3.5-2.9-4.5-5
				c-1-2-1.4-4.4-1.1-6.6c0.3-2.3,1-4.4,1.9-6.5c0.9-2.1,2-4,3.2-5.9c1.2-1.9,2.3-3.8,3.4-5.8c2.2-3.9,4.4-7.8,7.3-11.3
				c1.4-1.7,3.1-3.3,5-4.7c1.9-1.3,4-2.3,6.2-3c4.4-1.3,9.1-1.2,13.5-0.6c8.9,1.2,17.7,4.6,24.6,10.5c3.4,2.9,6.4,6.5,8.3,10.5
				C114.7,82.1,115.6,86.7,115,91.1z M114.9,91.1c0.5-4.4-0.4-9-2.4-12.9c-2-4-5-7.4-8.5-10.1c-6.9-5.5-15.5-8.8-24.3-10
				c-4.4-0.6-8.9-0.6-13.1,0.6c-2.1,0.6-4.1,1.5-5.9,2.8c-1.8,1.2-3.4,2.8-4.8,4.5c-2.8,3.4-5.1,7.3-7.3,11.1
				c-1.1,1.9-2.3,3.8-3.5,5.7c-1.2,1.9-2.3,3.8-3.3,5.8c-0.9,2-1.7,4.1-2,6.3c-0.3,2.2,0,4.5,1,6.4c1,2,2.6,3.6,4.4,4.9
				c1.8,1.3,3.8,2.3,5.8,3.2c4.1,1.7,8.4,2.8,12.8,3.8c4.4,0.9,8.8,1.6,13.2,2.1c4.4,0.6,8.9,0.9,13.3,0.8c4.4-0.1,8.9-0.7,12.9-2.4
				c2-0.9,3.9-2.1,5.4-3.8c1.5-1.6,2.6-3.5,3.5-5.6C113.8,100,114.3,95.5,114.9,91.1z"/>
		</g>
	</g>
	<path class="st0" d="M43.9,87.5C55.3,81.2,64.7,72,64.5,58.8c-9.6,3.8-13.4,13.8-19.6,23.5c-1.9,3-3.4,5.8-4.3,8.5
		C41.5,89.6,42.4,88.4,43.9,87.5z"/>
	<path class="st15" d="M199.1,140c0,0,30.7,5.3,37.6,11.8c6.9,6.5-24.2,4.7-24.2,4.7S193,154.5,199.1,140z"/>
	<g>
		<path class="st13" d="M81.9,22.1c-3.5-7.6-9.4-13.3-13.2-12.7c-3.8,0.6-4,7.2-0.6,14.8c2.4,5.2,5.9,9.5,9.1,11.5
			c2.5,0.4,4.6,0,6.4-0.6C85,32.5,84.4,27.6,81.9,22.1z"/>
		<path d="M81.9,22.1c-1.8-3.8-4.4-7.2-7.6-9.9c-0.8-0.6-1.6-1.3-2.5-1.7c-0.9-0.5-1.9-0.8-2.8-0.7c-1,0-1.8,0.6-2.3,1.5
			c-0.5,0.9-0.7,1.9-0.8,2.9c-0.1,2.1,0.3,4.2,1,6.2c0.7,2,1.6,3.9,2.6,5.7c1,1.8,2.2,3.5,3.5,5.1c1.3,1.6,2.8,3,4.5,4.1l-0.2-0.1
			c1,0.1,2.1,0.2,3.1,0.1c1-0.1,2.1-0.3,3.1-0.6l-0.3,0.2c0.5-0.9,0.7-2,0.7-3.1c0.1-1.1,0-2.2-0.2-3.3c-0.2-1.1-0.4-2.2-0.7-3.3
			C82.8,24.2,82.3,23.1,81.9,22.1z M82,22.1c0.9,2,1.8,4.1,2.3,6.4c0.3,1.1,0.5,2.2,0.5,3.4c0,1.2-0.1,2.4-0.6,3.5l-0.1,0.2
			l-0.2,0.1c-2.1,0.8-4.4,1-6.7,0.7l-0.1,0L77,36.1c-1.9-1.2-3.4-2.8-4.7-4.4c-1.3-1.7-2.5-3.5-3.4-5.4c-1-1.9-1.7-3.9-2.3-5.9
			c-0.3-1-0.6-2-0.7-3.1c-0.2-1-0.3-2.1-0.3-3.2c0-1.1,0.2-2.2,0.7-3.2c0.3-0.5,0.6-1,1.1-1.3c0.5-0.3,1.1-0.6,1.6-0.6
			c1.2-0.1,2.3,0.2,3.3,0.7c1,0.5,1.9,1.1,2.7,1.8C78.1,14.5,80.2,18.3,82,22.1z"/>
	</g>
	<path class="st15" d="M81.9,22.1c-3.5-7.6-9.4-13.3-13.2-12.7c-3.8,0.6-4,7.2-0.6,14.8c2.4,5.2,5.9,9.5,9.1,11.5
		c2.5,0.4,4.6,0,6.4-0.6C85,32.5,84.4,27.6,81.9,22.1z"/>
	<path class="st0" d="M107.5,70.9l0.9-1.7l-3.1-0.5c-4-3.6-9.1-6.6-14.8-8.6c0.5,2.1,0.8,4.3,1,6.5l-34.7-5.4L50,75.8
		c0,0-1.4,5.1,2.6,5c0,0-2.6-1.1,1.1-3.4c0,0,4.4,2.2,1.2,5.7c0,0,4.8,3.4,7.2-2.4l-1.8,6.7c0,0,13.7-2.9,8.3-9.2
		c0,0,5.5,5.7,3.9,10c0,0,1.2-4.9,3.3-6.2c0,0,0.9,8.7-4.2,8.9c0,0,7.8,1.3,8.9-3.9c0,0,2.8,2.1,1.1,5.3c0,0,5.3-0.1,5.1-3.3
		c0,0,0.2,1.7,0,3.8c-1.2,2.3-2.6,4.4-4.2,6.4c-0.7,0-1.4-0.1-2.3-0.5c0,0,0.6,0.7,1.6,1.4c-1.9,2.1-3.9,4.1-6.3,5.8
		c-10.3,8.4-25.3,3.9-34.9-5.1c2.7,6.2,12.1,10.9,31.6,14.1c39.1,6.3,40.9-7.9,42.9-23.8C115.8,83.8,112.9,76.7,107.5,70.9z"/>
	<g>
		<path class="st7" d="M50,73.6c0,0-1.4,5.1,2.6,5c0,0-2.6-1.1,1.1-3.4c0,0,4.4,2.2,1.2,5.7c0,0,4.8,3.4,7.2-2.4l-1.8,6.7
			c0,0,13.7-2.9,8.3-9.2c0,0,5.5,5.7,3.9,10c0,0,1.2-4.9,3.3-6.2c0,0,0.9,8.7-4.2,8.9c0,0,7.8,1.3,8.9-3.9c0,0,2.8,2.1,1.1,5.3
			c0,0,5.3-0.1,5.1-3.3c0,0,1.2,12.9-6.5,9.7c0,0,6.9,7.4,11.2-1c0,0-11.6,12.5-15.7,10.2c0,0,4.8,10.2,8.6,6.4l24.2-45.1l-51.6-8
			L50,73.6z"/>
		<path d="M50,73.6c-0.2,1.1-0.3,2.2,0,3.3c0.2,0.5,0.5,1,1,1.3c0.5,0.3,1,0.4,1.6,0.3l0,0.1c-0.4-0.2-0.7-0.4-0.9-0.8
			c-0.2-0.4,0-0.8,0.2-1.2c0.5-0.7,1.1-1.1,1.8-1.5l0,0l0,0c0.5,0.3,1,0.6,1.4,1c0.4,0.4,0.8,0.9,0.9,1.5c0.2,0.6,0.1,1.2-0.1,1.8
			c-0.2,0.6-0.6,1-1,1.5l0-0.2c1.2,0.8,2.8,1.2,4.1,0.8c0.7-0.2,1.3-0.7,1.7-1.2c0.5-0.6,0.8-1.2,1.1-1.9l0.4,0.1l-1.8,6.8L60.1,85
			c2.4-0.6,4.9-1.5,6.9-2.8c1-0.7,2-1.6,2.2-2.7c0.3-1.1-0.3-2.2-1.1-3.1l0.6-0.6c0.7,0.7,1.3,1.4,1.8,2.2c0.6,0.8,1.1,1.6,1.5,2.5
			c0.4,0.9,0.8,1.8,0.9,2.8c0.2,1,0.1,2-0.2,3L72,86c0.3-1.2,0.7-2.3,1.2-3.4c0.3-0.6,0.6-1.1,0.9-1.6c0.4-0.5,0.8-1,1.4-1.4
			l0.6-0.4l0.1,0.7c0.1,1,0.1,1.9,0,2.8c-0.1,0.9-0.2,1.9-0.5,2.8c-0.3,0.9-0.7,1.8-1.4,2.5c-0.7,0.7-1.7,1.1-2.7,1.2l0-0.7
			c1.7,0.3,3.5,0.3,5.2-0.2c0.8-0.2,1.6-0.6,2.2-1.2c0.6-0.6,1-1.4,1.2-2.2l0.1-0.4l0.3,0.3c0.4,0.3,0.8,0.7,1,1.2
			c0.3,0.4,0.5,0.9,0.6,1.4c0.2,1,0,2.1-0.5,3l-0.2-0.3c1.1,0,2.2-0.2,3.2-0.7c0.5-0.2,0.9-0.5,1.3-0.9c0.3-0.4,0.5-0.9,0.4-1.5
			l0.4,0c0.1,1.2,0.1,2.5,0,3.7c-0.1,1.2-0.3,2.5-0.7,3.6c-0.4,1.1-1.2,2.3-2.4,2.8c-1.2,0.5-2.5,0.2-3.7-0.2l0.2-0.3
			c0.8,0.8,1.7,1.5,2.7,2c1,0.5,2.1,0.9,3.2,0.9c1.1,0,2.2-0.5,3-1.2c0.8-0.7,1.5-1.7,2-2.7l0.4,0.3c-2.2,2.4-4.6,4.6-7.1,6.7
			c-1.3,1-2.6,2-4,2.8c-0.7,0.4-1.5,0.8-2.3,1c-0.8,0.2-1.8,0.3-2.6-0.1l0.5-0.4c0.9,1.8,2,3.6,3.3,5.1c0.7,0.7,1.4,1.4,2.3,1.7
			c0.9,0.4,1.8,0.1,2.4-0.6l-0.1,0.1l12-22.6l12.1-22.6l0.4,0.8c-8.6-1.3-17.2-2.7-25.8-4.1l-25.8-4.3l0.1-0.1L50,73.6z M49.9,73.6
			L56.6,59l0-0.1l0.1,0l25.9,3.7c8.6,1.3,17.2,2.6,25.8,3.9l0.7,0.1l-0.3,0.6L96.7,89.9l-12.2,22.5l0,0.1l0,0
			c-0.4,0.4-0.9,0.7-1.5,0.9c-0.6,0.1-1.2,0.1-1.8-0.2c-1.1-0.4-1.9-1.2-2.6-2c-1.4-1.6-2.5-3.4-3.4-5.3l-0.5-1l0.9,0.5
			c0.6,0.3,1.4,0.3,2.1,0.1c0.7-0.2,1.5-0.5,2.2-0.9c1.4-0.8,2.7-1.7,4-2.7c2.5-2,4.9-4.2,7.1-6.6l1.1-1.1l-0.7,1.4
			c-0.5,1-1.2,2-2.1,2.8c-0.9,0.8-2.1,1.3-3.3,1.3c-1.2,0-2.4-0.4-3.4-1c-1-0.6-1.9-1.3-2.8-2.1l-0.6-0.6l0.7,0.3
			c1.1,0.4,2.3,0.7,3.4,0.3c1.1-0.4,1.8-1.5,2.2-2.6c0.4-1.1,0.6-2.3,0.7-3.5c0.1-1.2,0.1-2.4,0-3.6l0.4,0c0,0.6-0.1,1.2-0.5,1.7
			c-0.4,0.5-0.9,0.8-1.4,1.1c-1.1,0.5-2.2,0.7-3.3,0.7l-0.4,0l0.2-0.3c0.4-0.8,0.6-1.8,0.4-2.7c-0.2-0.9-0.8-1.7-1.5-2.3l0.4-0.2
			c-0.2,0.9-0.6,1.8-1.3,2.5c-0.7,0.7-1.5,1.1-2.4,1.4c-0.9,0.3-1.8,0.4-2.7,0.5c-0.9,0-1.8,0-2.8-0.1l0-0.7c0.8,0,1.6-0.4,2.2-1
			c0.6-0.6,1-1.4,1.2-2.2c0.5-1.7,0.6-3.5,0.4-5.3l0.6,0.3c-0.4,0.3-0.8,0.7-1.1,1.2c-0.3,0.5-0.6,1-0.8,1.5c-0.5,1-0.9,2.2-1.2,3.3
			L72,85.9c0.3-0.8,0.3-1.7,0.2-2.5c-0.2-0.9-0.5-1.7-0.9-2.5c-0.8-1.6-1.9-3.2-3.1-4.5l0.6-0.6c0.4,0.5,0.8,1.1,1.1,1.7
			c0.3,0.7,0.3,1.4,0.1,2.1c-0.4,1.4-1.5,2.4-2.6,3.1c-1.1,0.7-2.3,1.3-3.5,1.7c-1.2,0.4-2.5,0.8-3.7,1.1l-0.5,0.1l0.1-0.5l1.9-6.7
			l0.4,0.1c-0.3,0.7-0.7,1.4-1.2,2c-0.5,0.6-1.2,1.1-1.9,1.3c-0.8,0.2-1.6,0.2-2.3,0c-0.7-0.2-1.4-0.5-2.1-0.9l-0.1-0.1l0.1-0.1
			c0.4-0.4,0.7-0.9,1-1.4c0.2-0.5,0.3-1.1,0.2-1.6c-0.3-1.1-1.2-1.9-2.2-2.5l0.1,0c-0.6,0.4-1.3,0.8-1.7,1.5c-0.2,0.3-0.3,0.7-0.2,1
			c0.1,0.3,0.5,0.6,0.8,0.7l0.3,0.1l-0.3,0c-0.6,0-1.2-0.1-1.7-0.4c-0.5-0.3-0.9-0.8-1-1.3C49.6,75.9,49.7,74.7,49.9,73.6L49.9,73.6
			z"/>
	</g>
	<path class="st0" d="M108.3,67.1l-51.6-8L50,73.6c0,0-1.4,5.1,2.6,5c0,0-2.6-1.1,1.1-3.4c0,0,4.4,2.2,1.2,5.7c0,0,4.8,3.4,7.2-2.4
		l-0.4,1.6c8.6-11.2,16-2.3,25,7c0-0.1,0-0.1,0-0.2c0,0,0,0.1,0,0.2c2.3,2.4,4.7,4.8,7.3,6.9L108.3,67.1z"/>
	<g>
		<path class="st2" d="M197,132.7c0,0,1.8,14.5,33.1,18.5c31.2,4,17.8,25.8,17.8,25.8s24.8-15.6-0.5-40.6c-25.3-25-36-22.5-52.3-9.4
			C178.9,140.1,197,132.7,197,132.7z"/>
		<path d="M197.1,132.7c0.3,1.6,1.1,3.1,2.1,4.4c0.9,1.3,2.1,2.5,3.3,3.6c2.5,2.2,5.3,3.8,8.3,5.1c6,2.6,12.5,4.1,19,4.9
			c3.3,0.4,6.6,1.1,9.7,2.2c3.1,1.1,6.2,2.8,8.4,5.4c1.1,1.3,2,2.8,2.5,4.4c0.5,1.6,0.7,3.3,0.6,5c-0.2,3.3-1.3,6.6-2.9,9.5
			l-0.2-0.2c2.2-1.5,4.2-3.3,5.8-5.4c1.7-2.1,3-4.4,3.9-6.9c0.9-2.5,1.2-5.2,1-7.8c-0.2-2.6-1-5.2-2.1-7.6
			c-2.2-4.8-5.7-8.9-9.5-12.6c-3.8-3.7-7.8-7.3-12-10.5c-4.2-3.2-8.8-6.1-13.8-7.5c-2.5-0.7-5.2-0.9-7.7-0.6
			c-2.6,0.3-5.1,1.1-7.5,2.3c-4.7,2.3-9,5.7-13.1,9c-1,0.9-2,1.8-2.9,2.7c-0.4,0.5-0.9,1-1.2,1.5c-0.1,0.3-0.2,0.6-0.1,0.8
			c0.1,0.2,0.4,0.3,0.7,0.3c1.3,0.1,2.6-0.3,3.9-0.7C194.5,133.6,195.8,133.1,197.1,132.7L197.1,132.7L197.1,132.7z M197,132.8
			c-1.2,0.5-2.4,1-3.7,1.4c-1.3,0.4-2.6,0.8-4,0.8c-0.3,0-0.8-0.1-1-0.5c-0.2-0.4,0-0.8,0.1-1.1c0.3-0.6,0.8-1.2,1.2-1.7
			c0.9-1,1.9-1.9,2.9-2.8c2-1.8,4.1-3.5,6.2-5.1c2.2-1.6,4.4-3.1,6.8-4.3c2.4-1.2,5-2.1,7.7-2.5c2.7-0.4,5.5-0.1,8.1,0.6
			c5.3,1.5,9.9,4.4,14.2,7.7c4.3,3.3,8.2,6.9,12,10.7c3.8,3.8,7.2,8.1,9.4,13c1.1,2.5,1.8,5.1,2,7.8c0.2,2.7-0.2,5.4-1.1,8
			c-1.8,5.1-5.5,9.3-9.9,12.4l-0.6,0.4l0.4-0.6c1.6-2.8,2.7-6,2.8-9.3c0.1-1.6-0.2-3.3-0.7-4.8c-0.5-1.5-1.4-2.9-2.4-4.1
			c-2.2-2.4-5.1-3.9-8.2-5c-3.1-1.1-6.3-1.7-9.6-2.1c-6.5-0.9-13.1-2.4-19.1-5.2c-3-1.4-5.9-3.1-8.3-5.4c-1.2-1.1-2.3-2.4-3.2-3.8
			C198,135.9,197.3,134.4,197,132.8z"/>
	</g>
	<g>
		<path class="st2" d="M209.8,120c-0.6,0.3-1.1,0.6-1.7,0.9C208.6,120.5,209.2,120.2,209.8,120z"/>
		<path d="M209.8,120c-0.1,0.2-0.2,0.4-0.3,0.5c-0.1,0.1-0.2,0.2-0.4,0.3c-0.2,0-0.4,0-0.5,0c-0.2,0-0.3,0.2-0.4,0.3l-1.1,1.8
			l0.8-2.3c0.1-0.4,0.4-0.6,0.7-0.8C208.9,119.8,209.3,119.7,209.8,120L209.8,120L209.8,120z M209.8,120L209.8,120
			c-0.2,0.5-0.5,0.7-0.7,0.9c-0.3,0.1-0.5,0.2-0.9,0.3l-0.3-0.4c0.2,0,0.4,0,0.5-0.2c0.1-0.1,0.2-0.3,0.3-0.5
			c0.1-0.1,0.3-0.2,0.4-0.2C209.3,119.9,209.5,119.9,209.8,120L209.8,120z"/>
	</g>
	<path class="st10" d="M211.7,122.1c-0.6,0.1-1.2,0.4-1.8,0.8C210.5,122.6,211.1,122.3,211.7,122.1c2.6-0.6,5.3,1,8.1,0.2
		c-4.6,1.5-7.3,4.9-12.2,5.2c2.7,0.4,4.2,1.2,6.8,1.6c-2.3,0.7-5.7,1.8-8.4,1.4c1.9,1.9,4.5,2.3,6.4,4.2c-2.3,0.7-4.5-2.3-8-1.2
		c3.8,3.8,8.2,10,13.5,10.8c10.2,0.5,20.5,1,27.3,6.4c6.1,4.9,8.5,14.1,4.8,20.8c1.7-6.7,1-17.5-20.1-20.2
		c-31.2-4-33.1-18.5-33.1-18.5s-18.1,7.4-1.9-5.7c10.8-8.7,19.2-12.7,31.1-7C221.4,119.5,216.5,120.1,211.7,122.1z"/>
	<g>
		<g>
			<path class="st12" d="M197.4,133.6c2.4,2.4,5.1,4.5,7.9,6.3c2.8,1.9,5.8,3.5,8.9,4.9c3.1,1.3,6.3,2.4,9.6,3
				c3.3,0.6,6.7,0.8,10.1,0.6c3.4,0,6.9,0.5,10.1,2c3.1,1.5,5.8,4,7.3,7.1c1.5,3.1,1.9,6.7,1.5,10.1c-0.5,3.4-1.9,6.6-3.9,9.3
				c1.9-2.8,3.2-6,3.5-9.4c0.4-3.3-0.1-6.8-1.6-9.8c-1.5-3-4-5.4-7.1-6.8c-3-1.4-6.4-1.9-9.8-1.9c-3.4,0.2-6.9,0-10.2-0.7
				c-3.4-0.7-6.6-1.7-9.7-3.1C207.7,142.5,202.1,138.5,197.4,133.6z"/>
		</g>
		<g>
			<path class="st12" d="M197.2,133c2.7,1.9,5.6,3.5,8.6,5c3,1.4,6.1,2.6,9.2,3.5c3.2,0.9,6.4,1.5,9.7,1.6c1.6,0.1,3.3,0,4.9-0.2
				c0.8-0.1,1.6-0.2,2.4-0.4c0.8-0.2,1.6-0.4,2.5-0.5c3.3-0.5,6.8-0.3,10,0.9c3.2,1.2,5.9,3.4,7.8,6.2c3.9,5.5,5,12.8,2.8,19.1
				c1-3.2,1.1-6.6,0.5-9.8c-0.6-3.2-1.8-6.4-3.8-9c-1.9-2.6-4.5-4.8-7.6-5.9c-3-1.2-6.4-1.4-9.6-0.8c-0.8,0.1-1.6,0.3-2.4,0.5
				c-0.8,0.2-1.7,0.3-2.5,0.4c-1.7,0.2-3.3,0.2-5,0.2c-3.3-0.1-6.7-0.7-9.8-1.7C208.5,140.1,202.5,137,197.2,133z"/>
		</g>
		<g>
			<path class="st12" d="M248,177.2c2.2-3.2,4.2-6.6,5.8-10.2c1.6-3.6,2.7-7.4,2.6-11.3c0-1.9-0.3-3.9-1-5.7c-0.7-1.8-1.7-3.5-3-4.9
				c-2.6-2.9-6-5-9.5-6.5c-3.6-1.5-7.3-2.6-11.2-3.4c-3.8-0.8-7.7-1.3-11.6-1.7c-7.8-0.7-15.6-0.9-23.4-0.4l-0.1-0.6
				c4.9-1.2,9.8-1.9,14.8-2.3c5-0.4,10-0.4,15,0.1c5,0.5,9.9,1.6,14.5,3.6c4.6,2,8.8,4.9,12,8.8c-3.3-3.8-7.5-6.6-12.1-8.5
				c-4.6-1.9-9.5-3-14.5-3.5c-5-0.5-9.9-0.4-14.9,0c-5,0.4-9.9,1.2-14.7,2.4l-0.1-0.6c7.8-0.5,15.7-0.4,23.5,0.4
				c3.9,0.4,7.8,1,11.7,1.8c3.8,0.8,7.6,1.9,11.3,3.5c3.6,1.6,7.1,3.7,9.7,6.7c1.3,1.5,2.4,3.2,3.1,5.1c0.7,1.9,1,3.9,1,5.8
				c0,4-1.2,7.8-2.8,11.4C252.4,170.6,250.3,174,248,177.2z"/>
		</g>
		<g>
			<path class="st12" d="M253.9,152.5c-0.9-2.4-2.5-4.5-4.4-6.2c-1.9-1.7-4.1-3-6.4-4.2c-4.6-2.3-9.5-3.8-14.4-5.1
				c-5-1.2-10-2.1-15.1-2.8c-5.1-0.7-10.2-1.1-15.2-1.4l-0.8,0l0.6-0.6c1.5-1.5,3.4-2.6,5.3-3.6c1.9-0.9,3.9-1.6,6-2
				c4.1-0.9,8.4-1,12.5-0.5c8.4,0.9,16.3,3.9,23.7,7.7c-3.8-1.8-7.6-3.3-11.6-4.6c-4-1.2-8-2.2-12.2-2.6c-4.1-0.4-8.3-0.3-12.3,0.7
				c-2,0.5-4,1.1-5.8,2c-1.8,0.9-3.6,2-5,3.4l-0.3-0.6c5.1,0.2,10.2,0.7,15.3,1.4c5.1,0.7,10.1,1.6,15.1,2.9c5,1.3,9.9,2.9,14.4,5.3
				c2.3,1.2,4.4,2.6,6.3,4.4C251.6,147.9,253.1,150.1,253.9,152.5z"/>
		</g>
		<g>
			<path class="st12" d="M198.4,133.9c3.6,0.6,7.3,1.2,10.9,1.9c3.6,0.7,7.2,1.4,10.8,2.1l10.8,2.2c3.6,0.8,7.2,1.6,10.8,2.4
				c-3.6-0.6-7.3-1.2-10.9-1.9l-10.8-2.1c-3.6-0.7-7.2-1.4-10.8-2.2C205.6,135.5,202,134.7,198.4,133.9z"/>
		</g>
		<g>
			<path class="st12" d="M236.8,142.1c-3.4,0-6.8-0.2-10.1-0.5c-3.4-0.3-6.7-0.8-10.1-1.4c-6.6-1.3-13.3-3.1-19.3-6.2l0.4-0.5
				c5.2,4.3,11.2,7.7,17.5,9.9c3.2,1.1,6.5,1.9,9.8,2.2c3.4,0.4,6.7,0.2,10.1-0.2c3.4-0.3,6.9-0.1,10.2,1.1c3.2,1.2,6.1,3.5,7.9,6.4
				c1.8,3,2.5,6.5,2.3,9.9c-0.2,3.4-1.2,6.8-3,9.7c1.7-2.9,2.7-6.3,2.8-9.7c0.1-3.4-0.7-6.8-2.5-9.6c-1.8-2.9-4.5-5-7.7-6.1
				c-3.2-1.1-6.6-1.3-9.9-1c-3.4,0.5-6.8,0.7-10.2,0.3c-3.4-0.3-6.8-1.1-10-2.2c-6.5-2.3-12.5-5.7-17.7-10.1l-2.2-1.9l2.6,1.3
				c3,1.5,6.1,2.8,9.3,3.8c3.2,1,6.5,1.9,9.8,2.5c3.3,0.7,6.7,1.2,10,1.6C230,141.7,233.4,142,236.8,142.1z"/>
		</g>
		<g>
			<path class="st12" d="M195.9,130.2c3.8-3.6,8.7-6.1,13.9-7.3c5.2-1.2,10.6-1,15.8,0.4c5.1,1.4,9.9,3.8,14.2,6.9
				c4.3,3,8.2,6.6,11.7,10.5c-3.7-3.7-7.7-7.1-12.1-10.1c-4.3-2.9-9-5.3-14.1-6.6c-5-1.4-10.3-1.6-15.4-0.5c-2.5,0.5-5,1.4-7.4,2.5
				C200.2,127.1,197.9,128.5,195.9,130.2z"/>
		</g>
		<g>
			<path class="st12" d="M194.7,128c2.2-1.7,4.6-3.2,7.2-4.4c2.5-1.2,5.2-2.2,8-2.9c2.8-0.6,5.6-0.9,8.5-0.4
				c1.4,0.2,2.8,0.6,4.1,1.2c1.3,0.6,2.5,1.4,3.5,2.3c-2.3-1.7-4.9-2.7-7.7-3c-2.7-0.3-5.5-0.1-8.2,0.6c-2.7,0.6-5.3,1.6-7.9,2.7
				C199.5,125.2,197.1,126.5,194.7,128z"/>
		</g>
	</g>
	<g>
		<path class="st5" d="M209.8,147.5c0,0-20.4-30.8-54.7-27.8c0,0-17,0.3-27.7-4.4c17.9-3.7,24.1-12.7,27.3-32.1
			c4.5-27.5-24.7-58.4-57.6-58.4c-14.4,0-27.6,4-37.9,10.8c-2.1,1-4.2,2-6.1,3.2l-6.7,2.4c0,0-1.4-0.1-2.6,2.8l-0.3,0.5l-4,5.9
			c-0.8,0.9-1.6,1.9-2.3,2.9c0,0,0,0,0,0c0,0,0,0,0,0c-0.8,1.1-1.6,2.3-2.3,3.5c-0.3,0.5-0.6,1.1-0.9,1.6l-0.1,0.2l0,0
			c-0.2,0.3-0.4,0.6-0.5,0.9c-2.1,2.7-5.4,3.8-8.6,6.7c-6,5.4-12.4,7.8-16.8,13.1c-3.1,3.7,4.6,12.5,4.6,12.5l7.5,1.7
			c0,0,1.7,4,5.9,0l31.3-17.1l1.3-0.3c0,0,1.8,0,1.8,0l3.3,0.2l2.9-0.6l2.9-0.7c5.5,0.7,9-1.5,14.4,1.8c9,14.6,7.5,25.2-3.4,32.8
			c-2.6,2.1-6.4,6.1-10.3,7c4.3,1,9,2.6,14.6,2.7c-8.4,1.4-19.8,0.8-35-1.4c0,0-26.2,10.5,37.8,21.3c0,0,52.4,43.2,97.9,23.5
			c0,0,22-4.2,37,7.3C222.6,169.9,239.1,169.9,209.8,147.5z"/>
		<g>
			<path d="M209.8,147.5c-3.1-4.4-6.8-8.3-10.8-11.8c-4-3.5-8.4-6.7-13.1-9.2c-4.7-2.5-9.7-4.4-14.9-5.6c-5.2-1.1-10.6-1.4-15.9-0.9
				l0,0h0c-4.7,0-9.4-0.3-14.1-0.9c-4.7-0.6-9.4-1.6-13.7-3.4l-1-0.4l1.1-0.2c3.6-0.8,7.1-1.8,10.4-3.4c3.3-1.6,6.3-3.8,8.5-6.7
				c2.3-2.8,3.9-6.2,5.1-9.6c1.2-3.5,2-7.1,2.6-10.7c1.4-7.2,0.5-14.7-2.1-21.6c-2.6-6.9-6.7-13.1-11.8-18.4
				c-10.1-10.6-24-17.9-38.6-19.2c-7.3-0.5-14.8,0.1-21.9,1.8c-7.2,1.7-14,4.6-20.2,8.6l0,0l0,0c-2.1,0.9-4.1,2-6.1,3.1l0,0l0,0
				l-6.7,2.3l0,0l-0.1,0c-0.2,0-0.5,0.1-0.8,0.3c-0.2,0.2-0.5,0.4-0.7,0.7c-0.4,0.5-0.7,1.1-0.9,1.7l0,0l0,0l-4.4,6.3l0,0l0,0
				c-0.8,0.9-1.6,1.9-2.3,2.9l0,0l0,0c0,0-0.1,0-0.1,0l0.2-0.1l0,0l0,0l0,0c-0.6,0.8-1.1,1.6-1.7,2.5c-0.5,0.8-1,1.7-1.5,2.6l0,0
				l0,0L34,58.5l-0.2-0.2l0,0l0.3-0.1L34,58.5l-0.5,0.9l0,0l0,0c-1.2,1.6-2.9,2.7-4.5,3.7c-1.6,1-3.2,2.1-4.6,3.5
				c-2.9,2.6-6.2,4.6-9.4,6.8c-1.6,1.1-3.1,2.2-4.6,3.5c-0.7,0.6-1.4,1.3-2,2.1c-0.7,0.7-0.9,1.6-0.9,2.5c0.1,1.9,1,3.6,1.9,5.3
				c1,1.6,2.1,3.2,3.4,4.7l-0.1-0.1l7.5,1.7l0.1,0l0.1,0.1c0.2,0.5,0.6,0.9,1.1,1.2c0.5,0.3,1,0.4,1.5,0.3c1.1-0.2,2.1-0.9,2.9-1.7
				l0,0l0,0L57.1,76l0,0l0,0l1.3-0.3l0.1,0l0.1,0c0,0,0,0-0.1,0h0h0h0l0.1,0l0.1,0h0.2l0.5,0l0.5,0l0.2,0h0.1l0.1,0h0h0l0,0
				c0,0,0.1,0,0.1,0l-0.1,0l3.3,0.2l-0.1,0l2.9-0.6l2.9-0.7l0.1,0l0.1,0c1.2,0.2,2.4,0.2,3.6,0.1c1.2-0.1,2.4-0.2,3.7-0.2
				c1.3,0,2.5,0.1,3.8,0.4c1.2,0.3,2.4,0.8,3.5,1.5l0.1,0l0.1,0.1c2.2,3.6,4.1,7.3,5.2,11.4c0.5,2,0.8,4.2,0.8,6.3
				c-0.1,2.1-0.5,4.3-1.3,6.2c-1.6,4-4.8,7.1-8.2,9.5c-1.6,1.3-3.1,2.7-4.8,4c-1.7,1.3-3.5,2.5-5.6,3l0-0.9c2.4,0.6,4.8,1.3,7.2,1.8
				c2.4,0.5,4.8,0.9,7.3,0.9l0.1,0.9c-5.8,0.9-11.8,0.9-17.6,0.5c-5.9-0.4-11.7-1.1-17.5-1.9l0.2,0c-1,0.4-2,1-2.9,1.7
				c-0.9,0.7-1.6,1.5-2,2.4c-0.3,1-0.1,2,0.5,2.8c0.6,0.9,1.5,1.6,2.4,2.2c1.9,1.3,4,2.2,6.1,3.1c2.1,0.8,4.3,1.6,6.5,2.2
				c4.4,1.3,8.9,2.4,13.4,3.3c4.5,1,9.1,1.8,13.6,2.6l0.1,0l0.1,0.1c6.9,5.4,14.3,10.1,22,14.3c7.7,4.1,15.8,7.7,24.1,10.2
				c8.4,2.6,17.1,4.1,25.8,4.2c8.7,0,17.5-1.6,25.5-5l0,0l0,0c3.2-0.5,6.5-0.7,9.7-0.7c3.2,0,6.5,0.3,9.7,0.8
				c6.4,1.1,12.7,3.4,17.8,7.4l-0.1,0c1.3,0,2.7-0.3,3.7-1.2c0.5-0.4,0.8-1,0.8-1.7c0.1-0.6-0.1-1.3-0.3-1.9c-1-2.5-2.8-4.6-4.6-6.6
				C218.3,154.3,214.1,150.9,209.8,147.5L209.8,147.5L209.8,147.5z M209.9,147.5c4.3,3.3,8.6,6.7,12.4,10.6c0.9,1,1.9,2,2.7,3.1
				c0.8,1.1,1.6,2.2,2.1,3.6c0.2,0.7,0.4,1.4,0.3,2.1c0,0.7-0.4,1.4-0.9,1.9c-1.1,1-2.5,1.3-3.9,1.3l-0.1,0l-0.1,0
				c-5.1-3.9-11.3-6.2-17.7-7.2c-3.2-0.5-6.4-0.8-9.6-0.8c-3.2,0-6.4,0.2-9.6,0.8l0.1,0c-8.1,3.5-17,5.2-25.8,5.2
				c-8.8,0-17.6-1.5-26.1-4.1c-8.4-2.5-16.6-6-24.4-10.2c-7.8-4.2-15.2-8.9-22.2-14.4l0.2,0.1c-4.6-0.8-9.1-1.6-13.6-2.6
				c-4.5-1-9-2-13.5-3.4c-2.2-0.7-4.4-1.4-6.6-2.3c-2.2-0.9-4.3-1.8-6.3-3.2c-1-0.7-1.9-1.4-2.6-2.5c-0.4-0.5-0.7-1.1-0.8-1.7
				c-0.1-0.6-0.1-1.3,0.1-2c0.4-1.2,1.4-2.2,2.3-2.9c1-0.7,2-1.3,3.1-1.8l0.1,0l0.1,0c5.8,0.8,11.6,1.5,17.4,1.9
				c5.8,0.3,11.7,0.4,17.4-0.5l0.1,0.9c-2.5,0-5-0.4-7.5-0.9c-2.4-0.5-4.8-1.2-7.2-1.8l-1.9-0.4l1.9-0.5c1.9-0.5,3.7-1.6,5.3-2.8
				c1.6-1.2,3.1-2.7,4.8-4c1.7-1.2,3.3-2.5,4.6-4c1.4-1.5,2.5-3.2,3.3-5.1c1.6-3.7,1.6-8,0.5-12c-1-4-2.9-7.7-5-11.2l0.1,0.1
				c-1-0.6-2.1-1.1-3.3-1.4c-1.2-0.3-2.4-0.4-3.6-0.4c-1.2,0-2.4,0.1-3.7,0.2c-1.2,0.1-2.5,0-3.8-0.1l0.1,0l-2.9,0.7l-2.9,0.6l0,0
				l0,0l-3.3-0.2l0,0l0,0c0,0,0.1,0,0.1,0h0h0h0l-0.1,0h-0.1H60h-0.5h-0.5h-0.2h-0.1h-0.1l0,0h0h0c0,0-0.1,0-0.1,0h0.2l-1.3,0.3
				l0.1,0l-31.3,17l0.1,0c-0.9,0.8-1.9,1.6-3.2,1.8c-0.6,0.1-1.3-0.1-1.9-0.4c-0.5-0.4-1-0.9-1.2-1.5l0.2,0.2l-7.5-1.8l-0.1,0l0-0.1
				C11.1,90.3,10,88.7,9,87c-1-1.7-1.9-3.5-2-5.5c0-0.5,0-1,0.2-1.5c0.2-0.5,0.5-0.9,0.8-1.3c0.6-0.7,1.3-1.4,2-2.1
				c1.4-1.3,3-2.5,4.6-3.5c3.2-2.2,6.5-4.2,9.4-6.7c1.4-1.3,3-2.4,4.7-3.5c1.6-1,3.3-2.1,4.4-3.6l0,0l0.5-0.9l0.2,0.2l0,0l-0.4,0.1
				l0.2-0.3l0.1-0.2l0,0c0.5-0.9,1-1.8,1.5-2.6c0.5-0.8,1.1-1.7,1.7-2.5l0,0l0,0l0.1-0.1l0.1,0c0,0-0.1,0-0.1,0l0,0
				c0.7-1,1.5-2,2.3-2.9l0,0l4.3-6.3l0,0c0.3-0.6,0.6-1.2,1-1.8c0.2-0.3,0.5-0.5,0.8-0.8c0.3-0.2,0.6-0.4,1.1-0.4l-0.1,0l6.7-2.4
				l0,0c2-1.2,4-2.2,6.1-3.2l0,0c6.2-4.1,13.2-7,20.4-8.8c7.2-1.7,14.7-2.4,22.1-1.9c14.9,1.2,28.9,8.6,39.2,19.3
				c5.1,5.4,9.3,11.7,12,18.7c2.7,6.9,3.6,14.7,2.1,22c-0.6,3.7-1.5,7.3-2.7,10.8c-1.2,3.5-2.9,6.9-5.3,9.8
				c-2.4,2.9-5.5,5.2-8.8,6.8c-3.4,1.6-7,2.7-10.6,3.4l0.1-0.6c4.3,1.8,8.9,2.8,13.6,3.4c4.6,0.6,9.3,1,14,1l0,0
				c5.4-0.5,10.8-0.1,16,1c5.3,1.1,10.3,3.1,15,5.7c4.7,2.6,9.1,5.8,13.1,9.3C203.2,139.1,206.8,143.1,209.9,147.5z"/>
		</g>
	</g>
	<path class="st15" d="M95.9,114.6c-4.3,2.2-8.7,1.1-13,1.1c5.4-7.6,10.8-11.9,13-21.7c2.2-9.8-4.3-16.3-11.9-20.6
		c-24-12-44.3,7.3-63.5,20.6c0.7,0.9,2.4,2.2,5.5-0.7l31.3-17.1l1.3-0.3c0,0,1.8,0,1.8,0l3.3,0.2l2.9-0.6l2.9-0.7
		c5.5,0.7,9-1.5,14.4,1.8c9,14.6,7.5,25.2-3.4,32.8c-2.6,2.1-6.4,6.1-10.3,7c4.3,1,9,2.6,14.6,2.7c-8.4,1.4-19.8,0.8-35-1.4
		c0,0-1.3,0.5-2.6,1.4C64.2,120.8,83.7,128.6,95.9,114.6z"/>
	<path class="st15" d="M192.4,150.3c-23.8,1.1-49.9,0-73.7-3.3c-9.8-1.1-19.5-7.6-16.3-19.5c-14.1,7.5-34.8,7.7-49.9,2.6
		c6.3,2.8,17.2,5.8,35.2,8.8c0,0,52.4,43.2,97.9,23.5c0,0,22-4.2,37,7.3c0,0,11.9,0-2.2-13.5C210.6,153.6,201.1,149.8,192.4,150.3z"
		/>
	<g>
		<path d="M84.2,54.5c-0.5,2.5-1.1,4.5-3.8,4c-2.8-0.5-4.6-3-4.1-5.6c0.5-2.5,3.1-4.1,5.9-3.6C84.9,49.9,84.7,52,84.2,54.5z"/>
		<g>
			<path d="M74.5,51.8c0.6-0.9,1.4-1.7,2.3-2.3c0.9-0.6,1.9-1.1,3.1-1.2c0.6,0,1.2,0,1.8,0.2c0.6,0.2,1.1,0.6,1.4,1
				c0.8,0.8,1.2,1.9,1.4,3c-0.6-0.9-1.2-1.8-1.9-2.4c-0.7-0.6-1.6-0.9-2.6-0.8c-0.9,0.1-1.9,0.5-2.8,0.9
				C76.3,50.7,75.4,51.2,74.5,51.8z"/>
		</g>
		<path class="st8" d="M78.4,53.5c0,0.6-0.3,1.1-0.6,1.1c-0.3,0-0.6-0.5-0.6-1.1c0-0.6,0.3-1.1,0.6-1.1
			C78.2,52.4,78.4,52.9,78.4,53.5z"/>
	</g>
	<path d="M16.5,85.8c0.7,1.5,1.5,2.6,0.2,3.3c-1.3,0.7-1.6-0.7-2.4-2.2c-0.7-1.5-1-1.5,0.3-2.1C15.9,84.1,15.8,84.3,16.5,85.8z"/>
	<ellipse class="st11" cx="84.5" cy="63" rx="9.7" ry="2.7"/>
	<ellipse class="st8" cx="89.4" cy="60.8" rx="2.3" ry="1.3"/>
	<path class="st11" d="M70.8,99.8c-0.2,1.1-3.7,1.4-7.8,0.7c-4.1-0.7-7.3-2.3-7.1-3.4c0.2-1.1,3.7-1.4,7.8-0.7
		C67.8,97.1,71,98.7,70.8,99.8z"/>
	<ellipse transform="matrix(0.9843 0.1766 -0.1766 0.9843 18.2648 -10.37)" class="st8" cx="67.4" cy="97.4" rx="1.8" ry="1"/>
	<path class="st15" d="M69.5,34c0,0,2.6,9-9,15.6c0,0-5,3.4-5.2,8.5c-0.2,5.1-1.6-7.2,0.9-12c2.5-4.9-12.5,10.1-19.1,7.7
		c0,0,11.8-10.4,13-15.8c0,0,5.1-14.4,17.8-14.9c0,0,5.8-2,7.4-2.9c2.9-1.6,16-8,32.2-1.5c0,0,17.3,12.3,23.6,11.2l-3.6,1.1
		c0,0,12.3,3.6,17.9,15.5c5.7,11.9,18.6,7.3,18.6,7.3s-5.4,7.9-9.1,5.5c0,0,4.7-0.2,3.6,19.3c0,0-5,13.8-3.8,23
		c0,0-1.2-7.7-1.3-15.3c-0.2-7.6,1.3,15.9-5,25.8c-6.4,9.9-6.6,17.7-6.6,17.7s-3.1-3,0.3-12.2c0,0-5,11.2-11,14.9
		c-5.9,3.6-5.4,9.8-5.4,9.8s-5-4.5-0.2-10.8c0,0-6.4,3.5-5.2,8.2c0,0-5.2-6.5-0.5-10.8l6.6-7c0,0-5,4.7-11.1,5.7
		c0,0,20.4-12,19.5-28.9c0,0,0.5,4.6-5,8.2c0,0,2.3-11.6,6.8-24.9l-3.6,2.2c0,0,8.6-11.2,0-22l0.9,6.8c0,0-20.2-27.7-28.1-34.9
		c0,0,2-1.7,2.7,7.6l-10.2-9.1c0,0,7.7,11,3.9,18.2c0,0-2.3-14.5-8.6-16.7c0,0,1.4,7.5-1.7,14.2c0,0-5.9-13.5-10.5-14.2l1.1,8.2
		C82.3,42.2,76.2,31.9,69.5,34z"/>
	<g>
		<path class="st2" d="M69.1,30.8c0,0,2.7,9-9.4,15.6c0,0-5.2,3.4-5.5,8.5c-0.2,5.1-1.7-7.2,1-12c2.6-4.9-13.1,10.1-20,7.7
			c0,0,12.3-10.4,13.6-15.8c0,0,5.4-14.4,18.6-14.9c0,0,6-2,7.7-2.9c3-1.6,16.7-8,33.7-1.5c0,0,18.1,12.3,24.7,11.2l-3.8,1.1
			c0,0,12.8,3.6,18.8,15.5c5.9,11.9,19.5,7.3,19.5,7.3s-5.7,7.9-9.5,5.5c0,0,4.9-0.2,3.8,19.3c0,0-5.2,13.8-4,23
			c0,0-1.2-7.7-1.4-15.3c-0.2-7.6,1.4,15.9-5.2,25.8c-6.7,9.9-6.9,17.7-6.9,17.7s-3.2-3,0.3-12.2c0,0-5.3,11.2-11.5,14.9
			c-6.2,3.6-5.7,9.8-5.7,9.8s-5.2-4.5-0.2-10.8c0,0-6.7,3.5-5.5,8.2c0,0-5.5-6.5-0.5-10.8l6.9-7c0,0-5.2,4.7-11.6,5.7
			c0,0,21.4-12,20.4-28.9c0,0,0.5,4.6-5.2,8.2c0,0,2.4-11.6,7.1-24.9l-3.8,2.2c0,0,9-11.2,0-22l1,6.8c0,0-21.2-27.7-29.5-34.9
			c0,0,2.1-1.7,2.9,7.6l-10.7-9.1c0,0,8.1,11,4,18.2c0,0-2.4-14.5-9-16.7c0,0,1.5,7.5-1.8,14.2c0,0-6.2-13.5-11-14.2l1.1,8.2
			C82.5,39,76.1,28.7,69.1,30.8z"/>
		<path d="M69.2,30.8c0.4,1.6,0.3,3.2,0,4.8c-0.4,1.6-1,3.1-2,4.5c-1.9,2.7-4.5,4.8-7.4,6.4l0,0c-1.6,1.2-3.1,2.6-4.1,4.4
			c-0.5,0.9-0.9,1.8-1.1,2.8c-0.1,0.5-0.1,1-0.2,1.5c0,0.3,0,0.5-0.1,0.8c0,0.1,0,0.1-0.1,0.2c0,0,0,0.1-0.1,0.1c0,0-0.1,0-0.2,0
			c-0.1,0-0.1,0-0.1,0c-0.1-0.1-0.1-0.1-0.1-0.2c-0.1-0.2-0.1-0.3-0.1-0.4c-0.3-2.1-0.3-4.1-0.2-6.1c0.1-2,0.4-4.1,1.1-6
			c0.2-0.5,0.5-1,0.6-1.3c0,0,0-0.1,0-0.1c0,0,0,0.1,0.1,0.1c0,0-0.1,0-0.2,0c-0.2,0.1-0.4,0.2-0.6,0.3c-0.9,0.5-1.7,1.1-2.6,1.6
			c-1.7,1.1-3.4,2.2-5.1,3.3c-1.8,1-3.6,2-5.5,2.8c-1,0.4-1.9,0.7-3,0.9c-1,0.2-2.1,0.2-3.2-0.2l-0.5-0.2l0.4-0.3
			c2.7-2.3,5.2-4.7,7.6-7.2c1.2-1.3,2.4-2.6,3.4-4c1-1.4,2-2.9,2.5-4.5l0,0l0,0c0.8-2,1.8-3.8,3-5.6c1.2-1.7,2.6-3.4,4.2-4.8
			c1.6-1.4,3.4-2.6,5.4-3.4c2-0.8,4.1-1.3,6.2-1.4l-0.1,0c1.7-0.6,3.4-1.2,5.1-1.8c0.8-0.3,1.7-0.6,2.4-1c0.8-0.4,1.6-0.8,2.4-1.2
			c3.3-1.4,6.8-2.4,10.4-2.9s7.2-0.6,10.8-0.2c3.6,0.4,7.1,1.3,10.5,2.6l0,0l0,0c3.8,2.5,7.7,4.9,11.7,7c2,1.1,4.1,2,6.2,2.9
			c1.1,0.4,2.1,0.8,3.2,1c1.1,0.3,2.2,0.4,3.3,0.3l0.2,0.7l-3.8,1l0-0.7c3.9,1.2,7.4,3.2,10.6,5.6c3.2,2.5,5.9,5.5,7.8,9.1
			c0.5,0.9,0.9,1.8,1.4,2.6c0.5,0.8,1.1,1.6,1.8,2.3c1.4,1.4,3,2.5,4.9,3.2c3.7,1.3,7.8,1.2,11.6,0.1l0.8-0.2l-0.5,0.6
			c-1.2,1.6-2.6,3.1-4.1,4.3c-0.8,0.6-1.7,1.2-2.6,1.5c-1,0.3-2.2,0.3-3.1-0.3l-0.7-0.5l0.8,0.1c0.6,0,0.9,0.3,1.3,0.6
			c0.3,0.3,0.6,0.7,0.8,1.1c0.5,0.8,0.8,1.6,1,2.4c0.5,1.7,0.7,3.4,0.9,5.1c0.3,3.4,0.2,6.9,0,10.3l0,0l0,0
			c-1.3,3.7-2.4,7.5-3.2,11.3c-0.8,3.8-1.3,7.8-0.8,11.7l-0.3,0c-0.8-5.3-1.3-10.6-1.5-16l0-0.5l0-0.3l0-0.1l0,0
			c0.1,0-0.3-0.2,0.4-0.1c0,0.1,0,0.1,0,0.1l0,0.1c0,0.3,0,0.7,0,1c0,0.7,0,1.3,0,2c0,1.3-0.1,2.7-0.2,4c-0.2,2.7-0.5,5.3-0.9,8
			c-0.5,2.6-1.1,5.3-2,7.8c-0.5,1.3-1,2.5-1.7,3.7c-0.7,1.2-1.5,2.2-2.1,3.4c-1.3,2.3-2.5,4.7-3.4,7.2c-0.9,2.5-1.6,5.1-1.8,7.7
			l0,0.6l-0.4-0.4c-0.8-0.9-1.1-2-1.3-3.1c-0.2-1.1-0.2-2.2-0.1-3.3c0.2-2.2,0.8-4.2,1.6-6.2l0.5,0.2c-1.1,2.3-2.4,4.6-3.8,6.8
			c-1.4,2.2-3,4.2-4.9,6.1c-0.9,0.9-2,1.7-3.1,2.4c-1.1,0.7-2,1.5-2.8,2.4c-1.6,1.9-2.5,4.4-2.4,6.9l0,0.9l-0.6-0.6
			c-0.8-0.7-1.4-1.6-1.8-2.5c-0.4-0.9-0.7-2-0.7-3.1c0-2.1,1-4.1,2.2-5.7l0.5,0.6c-1.5,0.8-2.9,1.9-3.9,3.2c-0.5,0.7-1,1.4-1.2,2.1
			c-0.3,0.8-0.3,1.6-0.1,2.4l0.5,1.9l-1.2-1.5c-0.7-0.8-1.2-1.7-1.7-2.6c-0.5-0.9-0.8-1.9-1-3c-0.2-1-0.1-2.2,0.3-3.2
			c0.4-1,1.1-1.9,1.9-2.6l0,0l6.9-7l0.6,0.7c-0.9,0.7-1.8,1.4-2.7,2c-0.9,0.6-1.9,1.2-2.9,1.7c-2,1-4.1,1.8-6.3,2.1l-2.4,0.4
			l2.1-1.3c2.6-1.5,5.1-3.4,7.5-5.3c2.3-2,4.5-4.1,6.5-6.5c1.9-2.4,3.6-5,4.7-7.8c1.1-2.8,1.7-5.8,1.5-8.9l0.9-0.1
			c0.1,1-0.1,1.8-0.4,2.7c-0.3,0.8-0.7,1.6-1.2,2.4c-1,1.5-2.4,2.6-3.8,3.6l-1,0.6l0.2-1.1c0.9-4.2,2-8.4,3.2-12.6
			c1.2-4.2,2.5-8.3,4-12.3l0.7,0.6l-3.8,2.2l-2.1,1.2l1.5-1.9c1.1-1.5,2.1-3.3,2.8-5.1c0.7-1.8,1.1-3.7,1.1-5.7
			c0.1-1.9-0.3-3.9-0.9-5.7c-0.7-1.8-1.7-3.5-2.9-5l0.9-0.4l1,6.8l0.3,1.9l-1.1-1.5c-4.6-6-9.4-12-14.2-17.9c-2.4-3-4.8-5.9-7.3-8.8
			c-2.5-2.9-5-5.7-7.8-8.3l-0.4-0.4l0.4-0.3c0.6-0.4,1.3-0.2,1.6,0.2c0.3,0.3,0.5,0.7,0.7,1.1c0.3,0.7,0.5,1.5,0.7,2.2
			c0.3,1.5,0.5,3,0.6,4.4l0.1,1l-0.7-0.6l-10.7-9.1l0.5-0.5c1,1.4,1.8,2.8,2.5,4.2c0.7,1.5,1.4,3,1.9,4.6c0.5,1.6,0.8,3.2,0.8,4.9
			c0,1.7-0.3,3.4-1.2,4.9l-0.4,0.8l-0.2-0.9c-0.6-3.2-1.5-6.4-2.7-9.4c-0.6-1.5-1.4-2.9-2.4-4.2c-1-1.3-2.2-2.4-3.7-2.9l0.4-0.3
			c0.2,1.2,0.3,2.4,0.3,3.7c0,1.2,0,2.5-0.2,3.7c-0.3,2.4-0.9,4.8-2,7.1l-0.2,0.5l-0.2-0.5c-1.3-2.8-2.8-5.5-4.4-8
			c-0.8-1.3-1.7-2.5-2.8-3.6c-1-1.1-2.2-2.2-3.6-2.5l0.2-0.2l1.1,8.2l0.1,0.6L82.4,39c-0.7-1.2-1.6-2.3-2.5-3.3c-0.9-1-1.9-2-3-2.9
			c-1.1-0.8-2.3-1.6-3.6-2C71.9,30.5,70.5,30.4,69.2,30.8z M69.1,30.7c1.3-0.4,2.8-0.4,4.2,0c1.4,0.4,2.6,1.1,3.7,2
			c1.1,0.8,2.1,1.8,3.1,2.9c0.9,1,1.8,2.1,2.6,3.3L82.4,39l-1.2-8.2l0-0.2l0.2,0c0.8,0.1,1.5,0.5,2.1,1c0.6,0.5,1.2,1,1.7,1.6
			c1.1,1.1,2,2.4,2.8,3.7c1.7,2.6,3.2,5.3,4.5,8.1l-0.4,0c1-2.2,1.6-4.5,1.9-6.9c0.3-2.4,0.2-4.8-0.2-7.2l-0.1-0.5l0.4,0.1
			c1.6,0.6,2.9,1.8,4,3.1c1,1.3,1.8,2.8,2.5,4.3c0.7,1.5,1.2,3.1,1.7,4.7c0.5,1.6,0.9,3.2,1.2,4.8l-0.6-0.1c0.8-1.4,1.1-3,1.1-4.5
			c0-1.6-0.3-3.2-0.8-4.7c-0.5-1.5-1.1-3-1.8-4.5c-0.7-1.4-1.6-2.8-2.5-4.1l-1.7-2.4l2.2,1.9l10.7,9l-0.7,0.3
			c-0.1-1.5-0.3-2.9-0.6-4.3c-0.2-0.7-0.3-1.4-0.6-2c-0.1-0.3-0.3-0.6-0.5-0.8c-0.2-0.2-0.4-0.2-0.5-0.1l0-0.7
			c2.9,2.6,5.4,5.4,7.9,8.3c2.5,2.9,5,5.8,7.4,8.7c4.9,5.9,9.6,11.9,14.2,17.9l-0.9,0.4L135,59l-0.2-1.7l1.1,1.3
			c1.3,1.6,2.4,3.3,3.1,5.3c0.7,1.9,1.1,4,1,6c-0.1,2.1-0.5,4.1-1.2,6c-0.7,1.9-1.7,3.7-2.9,5.4l-0.6-0.7l3.8-2.2l1.1-0.7l-0.4,1.2
			c-1.5,4-2.8,8.1-3.9,12.3c-1.2,4.1-2.3,8.3-3.2,12.5l-0.7-0.5c1.4-0.9,2.6-2,3.6-3.3c0.5-0.7,0.8-1.4,1.1-2.1
			c0.3-0.7,0.4-1.6,0.4-2.3l0.9-0.1c0.2,3.2-0.4,6.3-1.6,9.3c-1.2,2.9-2.9,5.6-4.9,8c-2,2.4-4.2,4.6-6.6,6.6c-2.4,2-4.9,3.8-7.6,5.4
			l-0.3-0.9c2.1-0.3,4.1-1.1,6.1-2.1c1-0.5,1.9-1,2.8-1.6c0.9-0.6,1.8-1.2,2.6-1.9l0.6,0.7l-6.9,7l0,0l0,0c-0.7,0.6-1.3,1.4-1.6,2.2
			c-0.3,0.9-0.4,1.8-0.3,2.8c0.1,0.9,0.4,1.9,0.9,2.7c0.4,0.9,0.9,1.7,1.5,2.5l-0.7,0.4c-0.2-0.9-0.2-1.9,0.1-2.8
			c0.3-0.9,0.8-1.7,1.4-2.4c0.6-0.7,1.2-1.3,1.9-1.9c0.7-0.6,1.4-1.1,2.2-1.5l1.7-1l-1.3,1.6c-1.2,1.5-2.1,3.3-2.1,5.2
			c0,0.9,0.2,1.9,0.6,2.7c0.4,0.9,1,1.7,1.6,2.3l-0.6,0.3c-0.1-2.7,0.9-5.3,2.6-7.4c0.9-1,1.9-1.9,3-2.6c1.1-0.6,2.1-1.4,3-2.3
			c1.8-1.8,3.4-3.8,4.8-5.9c1.4-2.1,2.7-4.4,3.8-6.7l0.5,0.2c-0.7,2-1.3,4-1.6,6.1c-0.1,1-0.1,2.1,0,3.1c0.2,1,0.5,2.1,1.1,2.8
			l-0.4,0.2c0.2-2.7,0.9-5.3,1.8-7.9c0.9-2.5,2.1-5,3.5-7.3c0.7-1.2,1.4-2.3,2.1-3.4c0.7-1.1,1.2-2.3,1.7-3.6c0.9-2.5,1.5-5.1,2-7.7
			c0.5-2.6,0.7-5.3,0.9-7.9c0.1-1.3,0.2-2.7,0.2-4c0-0.7,0-1.3,0-2l0-1l0-0.1c0,0,0,0,0,0c0.6,0.1,0.2-0.1,0.3,0v0l0,0.1l0,0.2
			l0,0.5c0.1,5.3,0.6,10.7,1.4,16l-0.3,0c-0.2-2-0.2-4,0-5.9c0.2-2,0.5-3.9,0.8-5.8c0.8-3.9,1.8-7.7,3.2-11.4l0,0.1
			c0.2-3.4,0.3-6.9,0-10.3c-0.2-1.7-0.4-3.4-0.9-5c-0.2-0.8-0.5-1.6-1-2.3c-0.2-0.4-0.5-0.7-0.8-1c-0.3-0.3-0.7-0.5-1-0.5l0.1-0.4
			c0.8,0.5,1.8,0.5,2.7,0.2c0.9-0.3,1.7-0.8,2.5-1.4c1.5-1.2,2.9-2.7,4-4.3l0.3,0.4c-1.9,0.6-3.9,0.9-6,0.9c-2,0-4-0.3-6-1
			c-1.9-0.7-3.7-1.8-5.1-3.3c-0.7-0.7-1.3-1.5-1.9-2.4c-0.6-0.8-1-1.8-1.5-2.6c-1.9-3.4-4.6-6.4-7.7-8.8c-3.1-2.4-6.7-4.3-10.4-5.5
			l-1.1-0.4l1.1-0.3l3.8-1.1l0.2,0.7c-1.2,0.2-2.4,0-3.5-0.3c-1.1-0.3-2.2-0.6-3.3-1c-2.2-0.8-4.2-1.8-6.3-2.9
			c-4.1-2.1-8-4.5-11.9-7l0.1,0c-6.6-2.5-13.9-3.4-20.9-2.4c-3.5,0.5-7,1.4-10.2,2.8c-0.8,0.3-1.6,0.7-2.4,1.1
			c-0.8,0.4-1.7,0.7-2.5,1c-1.7,0.6-3.4,1.2-5.1,1.8l-0.1,0l-0.1,0c-2,0.1-4.1,0.5-6,1.3c-1.9,0.8-3.6,1.9-5.2,3.3
			c-1.6,1.4-2.9,2.9-4.1,4.6c-1.2,1.7-2.2,3.5-3,5.4l0,0c-0.5,1.8-1.6,3.3-2.6,4.7c-1.1,1.4-2.3,2.7-3.5,4c-2.4,2.6-5,5-7.7,7.3
			l-0.1-0.5c1.8,0.6,3.9,0,5.7-0.7c1.9-0.7,3.7-1.7,5.4-2.7c1.7-1,3.4-2.1,5.1-3.3c0.9-0.6,1.7-1.1,2.6-1.6c0.2-0.1,0.5-0.2,0.7-0.3
			c0.1,0,0.3-0.1,0.5-0.1c0.1,0,0.3,0.2,0.3,0.3c0,0.1,0,0.2,0,0.3c-0.2,0.6-0.5,1-0.6,1.4c-0.7,1.8-1,3.9-1.1,5.9
			c-0.1,2-0.1,4.1,0.1,6c0,0.1,0,0.2,0.1,0.3c0,0,0,0,0,0c0,0,0,0-0.1,0c-0.1,0-0.1,0-0.1,0c0,0,0,0,0,0c0,0,0-0.1,0-0.1
			c0-0.2,0.1-0.5,0.1-0.7c0-0.5,0.1-1,0.2-1.5c0.2-1,0.6-2,1.2-2.9c1.1-1.8,2.5-3.2,4.2-4.4l0,0l0,0c2.9-1.5,5.5-3.5,7.4-6.2
			c0.9-1.3,1.6-2.8,2-4.4C69.4,34.1,69.4,32.4,69.1,30.7L69.1,30.7L69.1,30.7z"/>
	</g>
	<g>
		<path class="st2" d="M137.4,95.8c0-0.3,0-0.4,0-0.4C137.4,95.6,137.4,95.7,137.4,95.8z"/>
		<path d="M137.4,95.9L137.4,95.9c-0.2,0-0.3-0.1-0.4-0.1c-0.1,0-0.1-0.1,0-0.1c0.1,0,0.2-0.1,0.3-0.1c0,0,0-0.1-0.1-0.1l0.5,0
			c0.2,0.1,0.3,0.1,0.3,0.2C137.9,95.7,137.8,95.8,137.4,95.9L137.4,95.9z M137.4,95.8c-0.3-0.1-0.4-0.1-0.5-0.2
			c0-0.1,0.1-0.1,0.3-0.2l1.1-0.4l-0.6,0.4c-0.1,0.1-0.1,0.1-0.1,0.1c0,0,0.2,0.1,0.3,0.1c0.1,0,0,0.1,0,0.1
			C137.8,95.8,137.7,95.8,137.4,95.8L137.4,95.8L137.4,95.8z"/>
	</g>
	<path class="st10" d="M108.9,22.4c0,2.2,0,3.3,0,5.4C103.5,22.4,97,19.2,89.4,17c1,5.8,1.1,9.9-1.2,14.5c-0.2,0.5-0.5,1.1-0.9,1.7
		c0.4-0.6,0.7-1.2,0.9-1.7c1.1-3.2-2.3-5.1-4.2-6.9c-3.3-1.1-3.3,5.4-5.4,4.3c-3.3-4.3-10.8-8.7-11.9-5.4
		c-3.3,9.2-7.1,19.3-12.9,25.9c-0.3,4.6,0.4,8.8,0.5,5.4c0.2-5.1,5.5-8.5,5.5-8.5c12.1-6.6,9.4-15.6,9.4-15.6
		c7-2.1,13.4,8.2,13.4,8.2l-1.1-8.2c4.8,0.8,11,14.2,11,14.2c3.2-6.7,1.8-14.2,1.8-14.2c6.7,2.2,9,16.7,9,16.7c4-7.1-4-18.2-4-18.2
		l10.7,9.1c-0.2-2.8-0.6-4.6-0.9-5.8c-0.7-0.7-1.3-1.3-1.9-1.8c0,0,1-0.8,1.9,1.8c2,2,4.5,4.7,7.1,7.8c2.1-1.7,4-3.5,5.6-5.5
		C116.7,31.5,114.3,25.1,108.9,22.4z"/>
	<g>
		<path class="st2" d="M107,30.8c0.6,0.5,1.2,1.1,1.9,1.8C108,30,107,30.8,107,30.8z"/>
		<path d="M107,30.8c0.3,0,0.5,0.1,0.7,0.2c0.2,0.1,0.4,0.2,0.5,0.4c0.1,0.2,0.2,0.4,0.3,0.6c0.1,0.2,0.3,0.3,0.5,0.4l-0.3,0.2
			c-0.1-0.2-0.4-0.4-0.5-0.6c-0.1-0.2-0.3-0.4-0.4-0.5l-0.3-0.4C107.5,31,107.3,30.9,107,30.8L107,30.8z M107,30.8
			c0.1-0.3,0.6-0.5,0.9-0.4c0.4,0.1,0.6,0.3,0.8,0.6c0.2,0.2,0.3,0.5,0.3,0.8c0.1,0.3,0,0.6,0.1,0.8l0.1,1l-0.4-0.8
			c-0.1-0.2-0.3-0.4-0.5-0.5c-0.2-0.1-0.5-0.2-0.6-0.3c-0.2-0.1-0.3-0.3-0.4-0.5C107.1,31.3,107,31.1,107,30.8L107,30.8L107,30.8z"
			/>
	</g>
	<path class="st10" d="M152.3,74.5c-2.2,1.1-3.3,3.3-4.3,5.4c0-10.8-4.3-22.8-11.9-30.3c-2.2-1.1-2.2,4.3-3.3,3.3
		c-5.3-7.9,2.3-14.4,4.2-21.8c-3.9-2.4-7.1-3.2-7.1-3.2l3.8-1.1c-1.4,0.2-3.4-0.2-5.6-0.9c-3.2,5.4-6.8,10.5-12,14.6
		c9.3,10.8,20.5,25.4,20.5,25.4l-1-6.8c9,10.9,0,22,0,22l3.8-2.2c-4.8,13.3-7.1,24.9-7.1,24.9c4.7-3,5.2-6.6,5.2-7.8
		c0-0.1,0-0.3,0-0.4c0,0,0,0.2,0,0.4c0.6,16.7-20.4,28.4-20.4,28.4c6.4-1,11.6-5.7,11.6-5.7l-6.9,7c-5,4.3,0.5,10.8,0.5,10.8
		c-1.2-4.6,5.5-8.2,5.5-8.2c-5,6.3,0.2,10.8,0.2,10.8s-0.5-6.2,5.7-9.8c6.2-3.6,11.5-14.9,11.5-14.9c-3.5,9.3-0.3,12.2-0.3,12.2
		s0.2-7.8,6.9-17.7c0.3-0.5,0.6-1,0.9-1.5C144.2,100.6,148.6,84.5,152.3,74.5z"/>
	<g>
		<path class="st2" d="M158.6,56.1c0.3,0.2,0.6,0.3,0.9,0.4C158.9,56.1,158.6,56.1,158.6,56.1z"/>
		<path d="M158.6,56.1L158.6,56.1c0.2-0.2,0.3-0.2,0.4-0.2c0.1,0,0.1,0,0.2,0c0,0.1,0.1,0.3,0.1,0.3c0.1,0.1,0.2,0,0.2,0l-0.2,0.5
			c-0.2,0.1-0.4,0.1-0.5,0C158.7,56.6,158.7,56.5,158.6,56.1L158.6,56.1z M158.6,56c0.2-0.3,0.5-0.4,0.7-0.3
			c0.2,0.1,0.3,0.2,0.4,0.5l0.1,1.1l-0.3-0.6c-0.1-0.1-0.1-0.2-0.2-0.2c-0.1,0-0.2,0.1-0.3,0.2c-0.1,0-0.2-0.1-0.3-0.1
			C158.6,56.4,158.5,56.3,158.6,56L158.6,56L158.6,56z"/>
	</g>
	<g>
		<path class="st2" d="M157,84c0-2.5-0.1-3.4,0-0.9C156.9,83.4,156.9,83.7,157,84z"/>
		<path d="M157,84L157,84c-0.4-0.5-0.5-0.9-0.4-1.2c0.1-0.2,0.2-0.4,0.2-0.6c0-0.1,0-0.2,0-0.3c0,0,0-0.1-0.1-0.1l0-0.1c0,0,0,0,0,0
			c0,0,0,0,0,0v0l0,0c0,0,0,0,0,0c0,0,0,0.1,0.2,0.1c0.1,0.1,0.3,0,0.3-0.1c0.1-0.2,0.1-0.1,0.1-0.1c0,0,0,0,0,0l0,0.1
			c0,0,0,0.1,0.1,0.1c0,0.1,0.1,0.2,0.1,0.3c0,0.2,0.1,0.4,0.1,0.6C157.4,83.2,157.3,83.6,157,84L157,84z M156.9,84
			c-0.3-0.4-0.5-0.8-0.5-1.2c0-0.2,0-0.4,0.1-0.6c0-0.1,0-0.2,0.1-0.3c0-0.1,0-0.1,0.1-0.2l0.1-0.3c0,0,0.2-0.1,0.3-0.1
			c0.1,0.1,0.1,0.1,0.2,0.1c0,0.1,0,0,0,0l0,0l0,0c0,0,0,0,0,0l0,0l0,0.1c0,0.1,0,0.1,0,0.2c0,0.1,0,0.2,0,0.3
			c0,0.2,0.2,0.4,0.3,0.6C157.5,83.2,157.4,83.6,156.9,84L156.9,84L156.9,84z"/>
	</g>
	<g>
		<path class="st5" d="M131.3,37.1c4.3-7.8,4.3-16-0.1-18.3c-4.4-2.3-11.5,2.1-15.8,9.9c-3,5.3-3.9,10.8-2.8,14.5
			c2.1,2,4.5,3.3,7.1,4.2C123.6,46.5,128.2,42.7,131.3,37.1z"/>
		<g>
			<path d="M131.3,37c1.1-2,2-4.2,2.4-6.4c0.5-2.2,0.6-4.6,0.2-6.7c-0.2-1.1-0.6-2.1-1.1-3c-0.6-0.9-1.4-1.6-2.4-2
				c-2-0.8-4.4-0.1-6.4,0.9c-4,2.2-7,6.1-8.9,10.2c-1,2.1-1.7,4.2-2.1,6.5c-0.4,2.2-0.5,4.5,0.2,6.6l-0.1-0.2
				c1.9,1.9,4.3,3.2,6.9,4.1l-0.3,0c1.2-0.2,2.4-0.7,3.6-1.4c1.1-0.6,2.2-1.4,3.2-2.3c1-0.9,1.9-1.8,2.7-2.9
				C129.9,39.3,130.6,38.2,131.3,37z M131.4,37.1c-0.6,1.2-1.4,2.3-2.1,3.4c-0.8,1.1-1.6,2.1-2.6,3.1c-1.9,1.9-4.1,3.6-6.9,4.3
				l-0.1,0l-0.1,0c-2.7-0.9-5.2-2.3-7.3-4.3l-0.1-0.1l0-0.1c-0.7-2.4-0.5-4.8-0.1-7.1c0.5-2.3,1.3-4.5,2.4-6.6
				c2.2-4.1,5.3-7.8,9.3-10.2c1-0.6,2.1-1.1,3.3-1.4c1.2-0.3,2.4-0.3,3.6,0.1c1.2,0.4,2.2,1.2,2.9,2.2c0.7,1,1.1,2.2,1.3,3.4
				c0.4,2.4,0,4.8-0.7,7C133.5,32.9,132.5,35.1,131.4,37.1z"/>
		</g>
	</g>
	<path class="st15" d="M131.8,19.1c3,9.1,0.2,20.1-8.5,23.3c-3.3,1.3-7,0.8-10.8,0.3c0,0.2,0.1,0.3,0.1,0.5c2.1,2,4.5,3.3,7.1,4.2
		c4-0.9,8.5-4.7,11.6-10.3C135.5,29.6,135.6,21.8,131.8,19.1z"/>
	<g>
		<path class="st2" d="M124.1,40c2.9-5.6,3.7-11.8,1.8-13.9c-1.9-2-5.9,0.8-8.8,6.5c-2,3.8-3,7.9-2.8,10.8c0.8,1.7,1.9,2.8,3.1,3.6
			C119.3,46.7,122,44,124.1,40z"/>
		<path d="M124,40c1.5-2.8,2.2-6,2.4-9.1c0.1-1.5,0.1-3.2-0.7-4.3l-0.1-0.2c-0.1-0.1-0.1-0.2-0.2-0.2c-0.1-0.1-0.3-0.2-0.4-0.3
			c-0.3-0.1-0.7-0.2-1-0.1c-0.7,0.1-1.4,0.4-2.1,0.9c-1.3,0.9-2.3,2.2-3.2,3.5c-0.9,1.3-1.6,2.8-2.1,4.2c-1.1,2.9-2,6-1.9,9.1
			l-0.1-0.2c0.3,0.7,0.8,1.3,1.2,1.9c0.5,0.6,1,1.1,1.6,1.6l-0.4-0.1c0.7-0.1,1.4-0.5,2.1-0.9c0.7-0.5,1.3-1,1.9-1.6
			C122.3,42.8,123.3,41.4,124,40z M124.1,40c-0.8,1.5-1.6,3-2.6,4.3c-0.5,0.7-1.1,1.3-1.7,1.9c-0.7,0.6-1.4,1.1-2.4,1.3l-0.2,0
			l-0.2-0.1c-1.4-0.9-2.5-2.3-3.3-3.8l0-0.1l0-0.1c-0.1-1.7,0.2-3.3,0.6-4.9c0.4-1.6,1-3.1,1.7-4.5c0.7-1.4,1.5-2.8,2.5-4.1
			c0.9-1.3,2-2.5,3.3-3.5c0.6-0.5,1.4-0.9,2.2-1.1c0.4-0.1,0.9-0.1,1.3,0.1c0.2,0.1,0.4,0.2,0.6,0.3c0.1,0.1,0.2,0.1,0.2,0.2
			c0.1,0.1,0.2,0.2,0.2,0.3c0.6,0.7,0.8,1.6,0.9,2.4c0.1,0.8,0.1,1.7,0,2.5C127,34.2,125.6,37.2,124.1,40z"/>
	</g>
	<path d="M64.3,94.4c1-1.2,0.6-2.1-0.9-3.4c-1.5-1.3-3.6-2.5-4.6-1.3c-1,1.2-0.6,3.2,0.9,4.5C61.2,95.5,63.2,95.6,64.3,94.4z"/>
	<path class="st8" d="M59.8,91.5c0-0.4-0.3-0.8-0.6-0.8c-0.4,0-0.6,0.4-0.6,0.8c0,0.5,0.3,0.8,0.6,0.8C59.5,92.3,59.8,92,59.8,91.5z
		"/>
	<g>
		<ellipse transform="matrix(-0.9353 -0.354 0.354 -0.9353 54.5875 209.9283)" class="st6" cx="46.5" cy="100" rx="5.1" ry="3.6"/>
		<path d="M41.7,98.2c0.4-1.1,1.6-1.7,2.7-2c1.1-0.2,2.4-0.1,3.5,0.2c1.1,0.4,2.2,1,3,1.9c0.4,0.5,0.8,1,0.9,1.7
			c0.2,0.6,0.2,1.3,0,2c-0.2,0.6-0.7,1.2-1.3,1.5c-0.6,0.4-1.2,0.5-1.8,0.6c-1.2,0.1-2.5-0.1-3.5-0.6c-1.1-0.5-2.1-1.2-2.8-2.1
			C41.7,100.5,41.2,99.3,41.7,98.2z M41.7,98.2c-0.4,1.1,0.1,2.3,0.8,3.2c0.8,0.8,1.8,1.4,2.8,1.8c1.1,0.3,2.2,0.4,3.2,0.2
			c1-0.2,2-0.8,2.3-1.6c0.3-0.9,0-1.9-0.6-2.8c-0.6-0.9-1.5-1.5-2.6-2c-1-0.4-2.2-0.7-3.3-0.6C43.3,96.4,42.1,97,41.7,98.2z"/>
	</g>
	<g>
		<path class="st8" d="M50.9,99c-0.6-1-1.7-1.9-3.1-2.4c-2.7-1-5.4-0.3-6.1,1.5c-0.2,0.4-0.2,0.9-0.1,1.4
			C44.8,99.1,47.8,98.9,50.9,99z"/>
		<path d="M50.9,99c-0.6-0.8-1.4-1.5-2.3-1.9c-0.9-0.4-1.9-0.7-2.9-0.7c-1,0-2,0.1-2.8,0.7c-0.8,0.5-1.2,1.5-1.1,2.4l-0.3-0.2
			C44.6,98.9,47.8,98.8,50.9,99z M50.9,99c-0.8,0-1.6,0-2.3,0.1c-0.8,0-1.5,0.1-2.3,0.1c-1.5,0.1-3.1,0.3-4.6,0.5l-0.2,0l0-0.2
			c-0.1-0.5-0.1-1.1,0.2-1.6c0.2-0.5,0.6-0.9,1.1-1.2c0.9-0.6,2-0.8,3.1-0.7c1.1,0.1,2.1,0.4,3,0.9C49.6,97.4,50.4,98.2,50.9,99z"/>
	</g>
</g>
<g>
	<g>
		
			<radialGradient id="SVGID_1_" cx="231.5894" cy="155.1563" r="99.5666" gradientTransform="matrix(2.575285e-002 1.4686 -0.6056 3.372602e-002 232.3541 -202.8542)" gradientUnits="userSpaceOnUse">
			<stop  offset="0" style="stop-color:#2EA3D4"/>
			<stop  offset="0.2056" style="stop-color:#31A7D6;stop-opacity:0.7944"/>
			<stop  offset="0.4156" style="stop-color:#3AB3DC;stop-opacity:0.5844"/>
			<stop  offset="0.6276" style="stop-color:#4AC8E5;stop-opacity:0.3724"/>
			<stop  offset="0.8396" style="stop-color:#5FE4F2;stop-opacity:0.1604"/>
			<stop  offset="1" style="stop-color:#73FFFF;stop-opacity:0"/>
		</radialGradient>
		<path class="st14" d="M254.5,129.7V225L36.8,235.3L38.3,127c0,0,6.5-9.5,34.9,2.7c28.4,12.2,25.9-21.5,74.9-6.2
			c48.9,15.3,30.4-12.1,62.3-4c31.9,8,44.1,7.6,44.1,7.6"/>
	</g>
	<g>
		<g>
			<path class="st3" d="M38.3,127c0.7-0.9,1.8-1.6,2.8-2.1c1.1-0.5,2.2-0.9,3.4-1.1c2.3-0.5,4.7-0.5,7-0.4c4.7,0.3,9.3,1.5,13.8,2.9
				c2.2,0.7,4.4,1.6,6.6,2.5c2.2,0.9,4.3,1.8,6.6,2.4c2.2,0.6,4.6,0.9,6.9,0.8c2.3-0.1,4.6-0.6,6.8-1.4c4.3-1.7,8.2-4.4,12.4-6.5
				c4.2-2.2,8.7-3.9,13.4-4.6c4.7-0.8,9.5-0.7,14.2-0.1c4.7,0.6,9.3,1.6,13.9,2.9c4.5,1.4,9,2.8,13.5,3.8c4.6,1,9.2,1.8,13.8,1.6
				c2.3-0.1,4.6-0.4,6.8-1.1c2.2-0.7,4.2-1.9,6-3.4c1.9-1.4,3.7-3,5.9-4c2.2-1.1,4.6-1.6,7-1.7c4.8-0.2,9.4,1,14,2.2
				c4.6,1.1,9.1,2.2,13.7,3.2c4.6,1,9.2,1.9,13.8,2.6c4.6,0.7,9.3,1.4,14,1.4c-4.7,0-9.4-0.6-14-1.2c-4.7-0.7-9.3-1.5-13.9-2.4
				c-4.6-0.9-9.2-2-13.8-3.1c-4.5-1.1-9.1-2.2-13.8-2c-2.3,0.1-4.6,0.6-6.6,1.6c-2.1,1-3.8,2.5-5.7,4c-1.9,1.4-4,2.7-6.2,3.5
				c-2.3,0.8-4.7,1.1-7.1,1.2c-4.8,0.1-9.5-0.6-14.1-1.6c-4.6-1-9.1-2.4-13.6-3.7c-4.5-1.3-9.1-2.4-13.7-2.9
				c-4.6-0.6-9.3-0.6-13.9,0.1c-4.6,0.7-9,2.3-13.1,4.5c-4.1,2.1-8.1,4.8-12.5,6.5c-2.2,0.8-4.6,1.3-7,1.4c-2.4,0.1-4.8-0.3-7.1-0.9
				c-2.3-0.6-4.5-1.5-6.6-2.5c-2.2-0.9-4.3-1.8-6.6-2.5c-4.4-1.5-9-2.7-13.7-3.2c-2.3-0.2-4.7-0.2-7,0.3c-1.1,0.2-2.3,0.5-3.3,1
				C40.1,125.5,39,126.1,38.3,127z"/>
		</g>
	</g>
</g>
</svg>
