<?xml version="1.0" encoding="utf-8"?>
<!-- Generator: Adobe Illustrator 15.1.0, SVG Export Plug-In . SVG Version: 6.00 Build 0)  -->
<!DOCTYPE svg PUBLIC "-//W3C//DTD SVG 1.1//EN" "http://www.w3.org/Graphics/SVG/1.1/DTD/svg11.dtd">
<svg version="1.1" id="monkey" xmlns="http://www.w3.org/2000/svg" xmlns:xlink="http://www.w3.org/1999/xlink" x="0px" y="0px"
	 width="238.5px" height="212.3px" viewBox="0 0 238.5 212.3" style="enable-background:new 0 0 238.5 212.3;" xml:space="preserve"
	>
<style type="text/css">
<![CDATA[
	.st0{opacity:0.54;fill:#442916;}
	.st1{fill:#BC8B57;}
	.st2{fill:#231F20;}
	.st3{fill:#F9D8AC;}
	.st4{fill:#FCC581;}
	.st5{opacity:0.43;fill:#442916;}
	.st6{fill:none;stroke:#000000;stroke-miterlimit:10;}
	.st7{fill:#FFE000;}
	.st8{fill:#FFFFFF;}
	.st9{opacity:0.48;fill:#442916;}
	.st10{opacity:0.44;fill:#FFA6B7;}
	.st11{opacity:0.54;fill:#FFA6B7;}
	.st12{opacity:0.5;fill:url(#SVGID_1_);}
	.st13{fill:#754220;}
	.st14{opacity:0.42;fill:#442916;}
	.st15{opacity:0.25;fill:#825E37;}
	.st16{fill:#442916;}
	.st17{fill:#FFFFFF;stroke:#231F20;stroke-width:0.25;stroke-miterlimit:10;}
]]>
</style>
<g>
	<g>
		<path class="st13" d="M97.4,73.5c3.3-6.5,4.1-15.5,2.4-22.8c-0.8-3.3-6.5-8.2-12.2-8.2c-12.9,0-25.9,1.9-37.7-2.7
			c-0.8,2.8,3.9,9.4,5.5,12c10.3,17,3.8,22.7,24.7,31.4C85.5,82,94.8,78.4,97.4,73.5z"/>
		<path d="M97.4,73.4c2.8-5.8,3.5-12.4,2.8-18.7c-0.1-0.8-0.2-1.6-0.4-2.4c-0.2-0.8-0.3-1.6-0.5-2.2c-0.6-1.4-1.7-2.6-2.9-3.6
			c-2.4-2-5.3-3.5-8.4-3.7c-6.4-0.1-12.8,0.2-19.2,0.1c-6.4-0.1-12.9-0.7-19-3l0.4-0.2c-0.2,1,0.1,2.1,0.5,3.2c0.4,1,1,2,1.5,3
			c1.1,2,2.5,3.8,3.7,5.8c2.4,3.9,4.4,8.2,5.9,12.5c0.8,2.2,1.5,4.3,2.5,6.3c1,2,2.4,3.8,4.1,5.3c3.4,3,7.6,5,11.7,6.9l-0.2,0
			c3.3-0.7,6.5-1.8,9.6-3.2c1.5-0.7,3-1.6,4.4-2.6C95.3,76.1,96.6,74.9,97.4,73.4z M97.5,73.5c-0.8,1.5-2.1,2.7-3.4,3.8
			c-1.4,1-2.8,1.9-4.3,2.7c-3,1.6-6.2,2.8-9.5,3.7l-0.1,0l-0.1,0c-2.2-0.8-4.3-1.8-6.3-2.9c-2.1-1.1-4-2.3-5.8-3.9
			c-1.8-1.6-3.3-3.5-4.3-5.6c-1.1-2.1-1.8-4.3-2.6-6.5c-1.5-4.3-3.4-8.5-5.7-12.4c-1.2-2-2.5-3.9-3.6-5.9c-0.6-1-1.1-2.1-1.5-3.2
			c-0.4-1.1-0.8-2.3-0.5-3.6l0.1-0.3l0.3,0.1c5.9,2.4,12.4,3.1,18.8,3.2c6.4,0.1,12.8-0.6,19.3-0.6c1.7,0.1,3.3,0.5,4.8,1.2
			c1.5,0.7,2.9,1.6,4.1,2.7c1.2,1.1,2.3,2.4,3,3.9c0.1,0.2,0.2,0.4,0.2,0.6c0.1,0.2,0.1,0.4,0.1,0.6c0.1,0.4,0.1,0.8,0.2,1.2
			c0.1,0.8,0.2,1.6,0.3,2.4c0.2,3.2,0.1,6.5-0.5,9.6C99.8,67.5,98.9,70.6,97.5,73.5z"/>
	</g>
	<path class="st16" d="M99.1,73.5c3.3-6.5,4.1-15.5,2.4-22.8c-0.8-3.3-6.5-8.2-12.2-8.2c-12.9,0-25.9,1.9-37.7-2.7
		c-0.8,2.8,3.9,9.4,5.5,12c10.3,17,3.8,22.7,24.7,31.4C87.1,82,96.4,78.4,99.1,73.5z"/>
	<g>
		<path class="st13" d="M85.5,94.8c0,0-54.8,10.4,11.3,6.1C96.8,100.9,98.9,94.5,85.5,94.8z"/>
		<path d="M85.5,94.9c-4.5,0.9-9,2.2-13.4,3.4c-1.1,0.3-2.2,0.6-3.3,0.9c-1.1,0.3-2.2,0.6-3.2,1.1c-0.3,0.1-0.5,0.2-0.7,0.4
			c-0.2,0.1-0.4,0.4-0.4,0.3c0,0.1,0.3,0.2,0.5,0.3c0.3,0.1,0.5,0.2,0.8,0.2c1.1,0.2,2.3,0.3,3.4,0.3c4.6,0.2,9.2-0.3,13.8-0.5
			c4.6-0.3,9.2-0.6,13.8-0.8l-0.5,0.4c0.3-1,0-2.2-0.7-3c-0.7-0.9-1.8-1.5-2.9-1.9c-1.1-0.4-2.3-0.7-3.6-0.8
			C88,94.9,86.7,94.9,85.5,94.9z M85.5,94.8c1.2,0,2.5,0,3.7,0c1.2,0.1,2.5,0.2,3.7,0.5c1.2,0.3,2.4,0.8,3.4,1.9
			c0.9,1,1.4,2.4,1,3.9l-0.1,0.3l-0.4,0c-4.6,0.4-9.2,0.6-13.8,0.7c-4.6,0.1-9.2,0.1-13.9-0.1c-1.2,0-2.3-0.1-3.5-0.3
			c-0.3,0-0.6-0.1-0.9-0.2c-0.1,0-0.3-0.1-0.4-0.2c-0.1-0.1-0.3-0.2-0.4-0.4c-0.1-0.3,0.1-0.5,0.2-0.7c0.1-0.1,0.2-0.2,0.4-0.3
			c0.3-0.2,0.5-0.3,0.8-0.5c2.1-1,4.4-1.6,6.6-2.2C76.4,96.2,81,95.7,85.5,94.8L85.5,94.8L85.5,94.8z"/>
	</g>
	<g>
		<path class="st13" d="M163,97.1c0,0,23.1,4,28.3,8.9c5.2,4.9-18.2,3.5-18.2,3.5S158.3,108.1,163,97.1z"/>
		<g>
			<path d="M163,97.1c2.9,0.3,5.8,0.8,8.7,1.4c2.9,0.6,5.7,1.3,8.5,2.2c2.8,0.9,5.6,2,8.2,3.3c0.7,0.3,1.3,0.7,1.9,1.1
				c0.6,0.4,1.2,0.9,1.7,1.5c0.2,0.3,0.3,0.8,0,1.2c-0.2,0.4-0.6,0.6-0.9,0.8c-0.7,0.4-1.4,0.6-2.1,0.7c-2.9,0.6-5.9,0.8-8.8,0.8
				c-1.5,0-2.9,0-4.4,0c-0.7,0-1.5,0-2.2-0.1c-0.8,0-1.5-0.2-2.3-0.3c-1.5-0.3-2.9-0.8-4.3-1.4c-1.4-0.7-2.6-1.5-3.6-2.7
				c-1-1.2-1.6-2.7-1.6-4.2C161.8,99.9,162.3,98.4,163,97.1L163,97.1L163,97.1z M163,97.2c-0.5,1.4-0.8,2.8-0.7,4.2
				c0.1,1.4,0.7,2.7,1.6,3.8c0.9,1,2.2,1.8,3.5,2.4c1.3,0.6,2.7,1,4.1,1.3c0.7,0.1,1.4,0.3,2.1,0.3l2.2,0.1c1.5,0.1,2.9,0.1,4.4,0.1
				c2.9,0,5.8,0,8.7-0.4c0.7-0.1,1.4-0.3,2.1-0.6c0.3-0.1,0.6-0.3,0.8-0.6c0.2-0.3,0.1-0.6,0-0.9c-0.3-0.6-0.9-1-1.5-1.5
				c-0.6-0.4-1.2-0.7-1.9-1.1c-2.6-1.3-5.5-2-8.3-2.8C174.4,99.9,168.7,98.6,163,97.2z"/>
		</g>
	</g>
	<g>
		<path class="st13" d="M85.5,94.8c0,0-54.8,10.4,11.3,6.1C96.8,100.9,98.9,94.5,85.5,94.8z"/>
		<path d="M85.5,94.9c-4.5,0.9-9,2.2-13.4,3.4c-1.1,0.3-2.2,0.6-3.3,0.9c-1.1,0.3-2.2,0.6-3.2,1.1c-0.3,0.1-0.5,0.2-0.7,0.4
			c-0.2,0.1-0.4,0.4-0.4,0.3c0,0.1,0.3,0.2,0.5,0.3c0.3,0.1,0.5,0.2,0.8,0.2c1.1,0.2,2.3,0.3,3.4,0.3c4.6,0.2,9.2-0.3,13.8-0.5
			c4.6-0.3,9.2-0.6,13.8-0.8l-0.5,0.4c0.3-1,0-2.2-0.7-3c-0.7-0.9-1.8-1.5-2.9-1.9c-1.1-0.4-2.3-0.7-3.6-0.8
			C88,94.9,86.7,94.9,85.5,94.9z M85.5,94.8c1.2,0,2.5,0,3.7,0c1.2,0.1,2.5,0.2,3.7,0.5c1.2,0.3,2.4,0.8,3.4,1.9
			c0.9,1,1.4,2.4,1,3.9l-0.1,0.3l-0.4,0c-4.6,0.4-9.2,0.6-13.8,0.7c-4.6,0.1-9.2,0.1-13.9-0.1c-1.2,0-2.3-0.1-3.5-0.3
			c-0.3,0-0.6-0.1-0.9-0.2c-0.1,0-0.3-0.1-0.4-0.2c-0.1-0.1-0.3-0.2-0.4-0.4c-0.1-0.3,0.1-0.5,0.2-0.7c0.1-0.1,0.2-0.2,0.4-0.3
			c0.3-0.2,0.5-0.3,0.8-0.5c2.1-1,4.4-1.6,6.6-2.2C76.4,96.2,81,95.7,85.5,94.8L85.5,94.8L85.5,94.8z"/>
	</g>
	<g>
		<path class="st13" d="M163,97.1c0,0,23.1,4,28.3,8.9c5.2,4.9-18.2,3.5-18.2,3.5S158.3,108.1,163,97.1z"/>
		<g>
			<path d="M163,97.1c2.9,0.3,5.8,0.8,8.7,1.4c2.9,0.6,5.7,1.3,8.5,2.2c2.8,0.9,5.6,2,8.2,3.3c0.7,0.3,1.3,0.7,1.9,1.1
				c0.6,0.4,1.2,0.9,1.7,1.5c0.2,0.3,0.3,0.8,0,1.2c-0.2,0.4-0.6,0.6-0.9,0.8c-0.7,0.4-1.4,0.6-2.1,0.7c-2.9,0.6-5.9,0.8-8.8,0.8
				c-1.5,0-2.9,0-4.4,0c-0.7,0-1.5,0-2.2-0.1c-0.8,0-1.5-0.2-2.3-0.3c-1.5-0.3-2.9-0.8-4.3-1.4c-1.4-0.7-2.6-1.5-3.6-2.7
				c-1-1.2-1.6-2.7-1.6-4.2C161.8,99.9,162.3,98.4,163,97.1L163,97.1L163,97.1z M163,97.2c-0.5,1.4-0.8,2.8-0.7,4.2
				c0.1,1.4,0.7,2.7,1.6,3.8c0.9,1,2.2,1.8,3.5,2.4c1.3,0.6,2.7,1,4.1,1.3c0.7,0.1,1.4,0.3,2.1,0.3l2.2,0.1c1.5,0.1,2.9,0.1,4.4,0.1
				c2.9,0,5.8,0,8.7-0.4c0.7-0.1,1.4-0.3,2.1-0.6c0.3-0.1,0.6-0.3,0.8-0.6c0.2-0.3,0.1-0.6,0-0.9c-0.3-0.6-0.9-1-1.5-1.5
				c-0.6-0.4-1.2-0.7-1.9-1.1c-2.6-1.3-5.5-2-8.3-2.8C174.4,99.9,168.7,98.6,163,97.2z"/>
		</g>
	</g>
	<path class="st5" d="M85.5,94.8c0,0-54.8,10.4,11.3,6.1C96.8,100.9,98.9,94.5,85.5,94.8z"/>
	<path class="st5" d="M163,97.1c0,0,23.1,4,28.3,8.9c5.2,4.9-18.2,3.5-18.2,3.5S158.3,108.1,163,97.1z"/>
	<g>
		<path class="st4" d="M109.3,64.2C107,76,104.9,86.6,75.9,80c-26.4-6.1-27.2-14.2-18.8-25.7c7.2-9.8,10.9-20.1,27-17
			C100.3,40.4,111.5,52.4,109.3,64.2z"/>
		<g>
			<path d="M109.3,64.3c-0.6,3.3-1.2,6.6-2.6,9.8c-0.7,1.5-1.6,3-2.8,4.2c-1.2,1.2-2.7,2.1-4.3,2.8c-3.2,1.3-6.7,1.5-10.1,1.4
				c-3.4-0.1-6.8-0.6-10.1-1.3c-3.3-0.7-6.6-1.5-9.8-2.5c-3.2-1-6.4-2.1-9.4-3.6c-1.5-0.8-3-1.7-4.3-2.7c-1.3-1.1-2.5-2.4-3.2-4
				c-0.7-1.6-0.8-3.4-0.5-5.1c0.3-1.7,1-3.3,1.7-4.8c0.8-1.5,1.7-2.9,2.7-4.3c1-1.4,1.9-2.8,2.8-4.2c1.8-2.8,3.7-5.7,6-8.2
				c1.2-1.2,2.5-2.4,4-3.3c1.5-0.9,3.1-1.6,4.8-1.9c3.4-0.8,6.9-0.5,10.2,0.2c6.7,1.3,13.1,4.4,18,9.1c2.4,2.4,4.5,5.2,5.7,8.3
				C109.5,57.4,110,60.9,109.3,64.3z M109.2,64.2c0.6-3.3,0.1-6.8-1.2-9.8c-1.4-3.1-3.4-5.7-5.9-8c-5-4.5-11.2-7.3-17.7-8.6
				c-3.2-0.7-6.6-0.9-9.8-0.2c-3.2,0.7-6.1,2.5-8.3,4.9c-2.3,2.4-4.2,5.2-6.1,7.9c-1.9,2.8-4.1,5.4-5.7,8.3c-0.8,1.5-1.5,3-1.8,4.6
				c-0.3,1.6-0.2,3.3,0.4,4.8c0.6,1.5,1.8,2.8,3,3.9c1.3,1.1,2.7,1.9,4.2,2.7c3,1.5,6.2,2.5,9.4,3.4c3.2,0.9,6.5,1.6,9.8,2.2
				c3.3,0.6,6.6,1.1,9.9,1.2c3.3,0.1,6.7,0,9.8-1.1c1.5-0.6,3-1.4,4.2-2.5c1.2-1.1,2.2-2.5,2.9-4C107.9,70.9,108.5,67.5,109.2,64.2z
				"/>
		</g>
	</g>
	<g>
		<path class="st13" d="M171,95.3c0,0,13.8,4.3,22.6-18.6c8.8-23,7.2-37.3,23.2-35.6s7.9,27.8-2.4,25.8c-10.3-2-9.7-7.8-9.7-7.8
			s-0.3-3.7,2.9-2c0,0,0.3,5.9,7.2,6.8c6.9,0.9,8.9-14.5,7-17.2c-1.9-2.7-11.8-3.9-13.5-0.7c-1.8,3.1-7.4,17.7-9.2,25.1
			s-11.5,33.2-29.2,25.9c-17.7-7.3,0,0,0,0S168.8,95,171,95.3z"/>
		<path d="M171,95.3c2.6,0.6,5.4,0.3,7.9-0.7c2.5-1,4.7-2.6,6.6-4.5c3.7-3.9,6.1-8.8,8-13.8c1.9-5,3.4-10.2,4.9-15.3
			c0.8-2.6,1.5-5.2,2.3-7.7c0.9-2.5,1.9-5.1,3.4-7.4c0.8-1.1,1.7-2.2,2.8-3c1.1-0.8,2.4-1.4,3.8-1.8c1.3-0.3,2.7-0.4,4.1-0.4
			c1.4,0,2.7,0.1,4.1,0.5c1.3,0.3,2.6,0.9,3.7,1.8c1.1,0.9,1.9,2,2.5,3.2c1.2,2.5,1.3,5.4,0.9,8c-0.4,2.7-1.3,5.3-2.7,7.6
			c-0.7,1.2-1.6,2.2-2.6,3.1c-1,0.9-2.2,1.7-3.5,2c-0.7,0.2-1.4,0.2-2.1,0.2c-0.7-0.1-1.3-0.2-2-0.4c-1.3-0.3-2.6-0.8-3.8-1.4
			c-1.2-0.6-2.4-1.4-3.3-2.5c-0.9-1.1-1.5-2.4-1.5-3.9l0,0c0-0.4,0-0.8,0.1-1.3c0.1-0.4,0.3-0.9,0.7-1.2c0.4-0.3,0.9-0.3,1.3-0.2
			c0.4,0.1,0.8,0.3,1.2,0.5l0.1,0.1l0,0.2c0.1,1.3,0.7,2.6,1.5,3.7c0.8,1.1,2,1.8,3.3,2.3c0.6,0.2,1.3,0.4,2,0.5
			c0.7,0.1,1.3,0.1,1.9-0.1c1.2-0.4,2.2-1.5,2.9-2.6c1.4-2.3,2.1-5.1,2.4-7.8c0.2-1.4,0.2-2.8,0.1-4.1c-0.1-0.7-0.2-1.3-0.5-1.8
			c-0.3-0.5-0.8-0.9-1.4-1.2c-1.2-0.6-2.5-0.9-3.9-1.2c-1.3-0.2-2.7-0.3-4.1-0.1c-1.3,0.1-2.7,0.5-3.4,1.4c-0.6,1.1-1.2,2.4-1.7,3.7
			c-2.1,5.2-4.1,10.4-5.8,15.7c-0.4,1.3-0.8,2.7-1.2,4c-0.4,1.3-0.7,2.7-1.1,4.1c-0.8,2.7-1.9,5.3-3.1,7.9c-1.2,2.5-2.6,5-4.3,7.3
			c-1.6,2.3-3.5,4.5-5.8,6.2c-2.2,1.7-4.9,3-7.8,3.4c-2.8,0.4-5.7-0.2-8.3-1.3l-3.9-1.6l-1.9-0.8l-1-0.4l-0.5-0.2l-0.2-0.1l-0.1-0.1
			l0,0c0.1-0.4,0.1-0.1,0.1-0.2l0.1,0l7.8,3.2l-0.1,0.1c-0.1-0.2-0.2-0.4-0.3-0.7c0-0.2-0.1-0.5,0.1-0.7c0.1-0.2,0.4-0.3,0.6-0.4
			C170.6,95.2,170.8,95.2,171,95.3L171,95.3L171,95.3z M171,95.4L171,95.4c-0.2,0-0.5,0-0.7,0c-0.2,0-0.4,0.1-0.5,0.3
			c-0.2,0.4,0,0.9,0.2,1.3l0.1,0.2l-0.2-0.1l-7.8-3.2l-0.1,0c0-0.1-0.1,0.2,0.1-0.2l0,0l0.1,0l0.2,0.1L163,94l1,0.4l1.9,0.8l3.9,1.6
			c2.6,1.1,5.4,1.5,8.1,1.1c2.7-0.4,5.3-1.7,7.4-3.4c4.3-3.5,7.3-8.4,9.6-13.4c1.2-2.5,2.2-5.1,3-7.8c0.4-1.3,0.7-2.7,1.1-4
			c0.4-1.4,0.8-2.7,1.2-4c1.7-5.3,3.7-10.6,5.9-15.8c0.6-1.3,1.1-2.6,1.9-3.9c0.5-0.7,1.2-1.1,1.9-1.4c0.7-0.3,1.4-0.4,2.2-0.5
			c1.5-0.1,2.9-0.1,4.3,0.1c1.4,0.2,2.8,0.6,4.1,1.3c0.6,0.4,1.3,0.8,1.8,1.5c0.4,0.7,0.5,1.5,0.6,2.2c0.1,1.4,0,2.9-0.1,4.3
			c-0.4,2.8-1.1,5.6-2.7,8.1c-0.8,1.2-1.8,2.4-3.3,2.8c-0.7,0.2-1.5,0.3-2.2,0.2c-0.7-0.1-1.4-0.3-2.1-0.5c-1.4-0.5-2.6-1.4-3.5-2.5
			c-0.9-1.2-1.4-2.5-1.6-4l0.1,0.2c-0.6-0.4-1.4-0.7-2-0.3c-0.5,0.4-0.6,1.3-0.6,2l0,0l0,0c-0.1,1.2,0.5,2.5,1.3,3.5
			c0.8,1,1.9,1.8,3.1,2.4c1.2,0.6,2.4,1,3.7,1.4c0.6,0.2,1.3,0.3,1.9,0.4c0.6,0.1,1.3,0,1.9-0.2c2.6-0.7,4.5-2.8,5.9-5
			c1.4-2.3,2.3-4.9,2.6-7.5c0.4-2.6,0.2-5.4-1-7.8c-0.6-1.2-1.4-2.2-2.4-3c-1-0.8-2.2-1.3-3.5-1.6c-1.3-0.3-2.6-0.4-3.9-0.4
			c-1.3,0-2.6,0.1-3.9,0.5c-2.5,0.6-4.7,2.3-6.1,4.5c-1.4,2.2-2.4,4.7-3.2,7.2c-0.8,2.5-1.6,5.1-2.4,7.7c-1.5,5.2-3.1,10.3-5.1,15.3
			c-2,5-4.5,9.9-8.4,13.7c-1.9,1.9-4.1,3.5-6.7,4.5C176.4,95.7,173.6,96,171,95.4z"/>
	</g>
	<path class="st0" d="M211.9,65.2c7.7,2.3,10-6.1,12.3-11.5c1.5-4.6-2.3-7.7-5.4-9.2c-5.4-1.5-11.5-0.8-14.6,4.6
		c-7.7,16.9-9.2,46-31.4,47.5c0-0.3,0-0.7,0-1c-1.1-0.1-1.8-0.3-1.8-0.3c-2.2-0.3-1.1,1.6-1.1,1.6c17.7,7.3,27.4-18.5,29.2-25.9
		s7.4-22,9.2-25.1c1.8-3.1,11.6-2,13.5,0.7c1.9,2.7-0.1,18.1-7,17.2c-6.9-0.9-7.2-6.8-7.2-6.8c-0.2-0.1-0.3-0.2-0.5-0.2
		C206.8,60.3,208.8,63.9,211.9,65.2z"/>
	<path class="st15" d="M110,54.1c-4.2-18.9-29.7-16.8-29.7-16.8s-13.5-1.7-21.8,15.5l-1,1.1l2.9-0.8l1.2,1.8l1.5-0.6l0.9,1l1.1-2.6
		l2.3,0.9l1.6-2.2l0.5,1.6l2.1-3.4l0.4,3.5l1.6-2.5l1.2,2.3l1.6-1.2l0.8,1.5l1-0.9l1.2,1.8l1.1-1.5l1.2,1.8l1.4-1.1L83,55.9l2.4-1.5
		l-0.4,2.9l2.4-0.8L87,58.7l3.2-0.3L89.3,59l2.5,0.4l-2,1.6l2.5,0.4l-1,1.7l0.8,0.1c-1,3-2.9,5.6-6.1,7.8
		c-11.6,7.5-23.1,3.6-33.3-3.5c1.5,5,8.3,9.1,23.2,12.5c26.9,6.2,30.7-2.5,32.9-13.2C110.5,64.5,111.4,60.6,110,54.1z"/>
	<g>
		<path class="st7" d="M58.7,51.5l1.2,1.8l1.5-0.6l0.9,1l1.1-2.6l2.3,0.9l1.6-2.2l0.5,1.6l2.1-3.4l0.4,3.5l1.6-2.5l1.2,2.3l1.6-1.2
			l0.8,1.5l1-0.9l1.2,1.8l1.1-1.5l1.2,1.8l1.4-1.1l-0.1,2.4l2.4-1.5l-0.4,2.9l2.4-0.8l-0.3,2.2l3.2-0.3l-0.9,0.6l2.5,0.4l-2,1.6
			l2.5,0.4l-1,1.7l3,0.4l-1.7,0.4l2.8,2.2l-0.7,1.2l2.9,1l-0.2,1.3l1.4,0.2c0,0,15.5,3.1,11.3-15.8c-4.2-18.9-29.7-16.8-29.7-16.8
			s-13.5-1.7-21.8,15.5l-1,1.1L58.7,51.5z"/>
		<path d="M58.8,51.4l1.3,1.8l-0.1,0l1.4-0.6l0.1,0l0.1,0.1l0.9,0.9l-0.3,0l1.1-2.6l0.1-0.2l0.2,0.1l2.3,0.8l-0.3,0.1l1.6-2.2
			l0.3-0.5l0.2,0.5l0.5,1.6l-0.6-0.1l2-3.4l0.5-0.9l0.1,1.1l0.4,3.5l-0.7-0.2l1.6-2.6l0.4-0.6l0.3,0.6l1.2,2.3l-0.6-0.1l1.6-1.2
			l0.4-0.3l0.2,0.4l0.8,1.5l-0.7-0.1l1-0.9l0.4-0.3l0.3,0.4l1.3,1.8l-0.7,0l1.1-1.5l0.4-0.5l0.3,0.5l1.2,1.8l-0.6-0.1l1.4-1.1
			l0.7-0.6l0,0.9l-0.1,2.4l-0.6-0.4l2.4-1.5l0.7-0.5l-0.1,0.8l-0.5,2.9l-0.5-0.4l2.4-0.7l0.5-0.2L86,54.9l-0.4,2.2l-0.3-0.3l3.2-0.2
			l0.9-0.1L88.7,57l-0.9,0.6l-0.1-0.4l2.5,0.4l0.5,0.1l-0.4,0.3l-2,1.6l-0.1-0.3l2.5,0.4l0.3,0l-0.1,0.2l-1,1.7l-0.1-0.2l3,0.5
			l0.8,0.1l-0.7,0.2l-1.7,0.4l0.1-0.3l2.8,2.1l0.1,0.1l-0.1,0.1l-0.7,1.2L93,65.5l2.9,1l0.1,0.1l0,0.2l-0.2,1.3l-0.2-0.2
			c1.3,0.2,2.6,0.4,3.9,0.3c1.3,0,2.6-0.2,3.8-0.7c1.2-0.4,2.3-1.1,3.1-2.1c0.8-0.9,1.4-2.1,1.8-3.3c0.7-2.5,0.5-5.1,0.1-7.6
			c-0.4-2.6-1.1-5-2.4-7.3c-1.3-2.2-3-4.1-5.1-5.6c-2.1-1.5-4.4-2.6-6.8-3.5c-4.9-1.7-10.1-2.2-15.3-2l-0.1,0l0,0
			c-2.2-0.2-4.6,0.2-6.8,0.9c-2.2,0.7-4.3,1.8-6.1,3.3c-3.8,2.8-6.6,6.7-8.7,10.9l0,0l0,0l-1,1.1l-0.1-0.2L58.8,51.4z M58.7,51.5
			l-2.8,0.9l-0.3,0.1l0.2-0.3l0.9-1.1l0,0c2-4.3,4.8-8.3,8.6-11.3c1.9-1.5,4-2.7,6.3-3.5c2.3-0.8,4.7-1.3,7.2-1.1l-0.1,0
			c2.7-0.2,5.3-0.1,7.9,0.2c2.6,0.3,5.2,0.9,7.8,1.7c2.5,0.9,5,2,7.1,3.6c2.2,1.6,4,3.6,5.3,6c1.3,2.3,2.1,5,2.4,7.6
			c0.4,2.6,0.5,5.4-0.3,8c-0.4,1.3-1,2.5-2,3.5c-0.9,1-2.1,1.7-3.4,2.2c-2.6,0.9-5.3,0.7-7.9,0.2l-0.2,0l0-0.2l0.2-1.3l0.1,0.2
			l-2.9-1l-0.2-0.1l0.1-0.2l0.7-1.2l0,0.2l-2.8-2.2l-0.3-0.2l0.3-0.1l1.7-0.4l0,0.3l-3-0.4l-0.2,0l0.1-0.2l1-1.7l0.1,0.3l-2.5-0.4
			l-0.4-0.1l0.3-0.3l2-1.6l0.1,0.4l-2.5-0.3l-0.6-0.1l0.5-0.4l0.8-0.6l0.2,0.5l-3.2,0.3l-0.4,0l0.1-0.4l0.3-2.2l0.4,0.4L83.4,56
			l-0.5,0.2l0.1-0.6l0.4-2.9l0.6,0.4l-2.3,1.5L80.9,55l0-0.8l0.1-2.4l0.7,0.4l-1.4,1.1l-0.4,0.3l-0.3-0.4l-1.2-1.8l0.7,0l-1.1,1.5
			l-0.4,0.5l-0.3-0.5l-1.2-1.8l0.6,0.1l-1.1,0.8l-0.4,0.3L75,51.7l-0.8-1.5l0.6,0.1l-1.6,1.1l-0.4,0.3l-0.2-0.4L71.5,49l0.7,0
			l-1.7,2.5l-0.6,0.9l-0.1-1.1L69.5,48l0.7,0.1l-2.1,3.3L67.7,52l-0.2-0.6L67,49.8l0.5,0.1l-1.6,2.2l-0.1,0.2l-0.2-0.1l-2.3-0.9
			l0.3-0.1l-1.2,2.6l-0.1,0.2l-0.2-0.2l-0.9-1l0.1,0L60,53.4l-0.1,0l0-0.1L58.7,51.5z"/>
	</g>
	<path class="st15" d="M97,68.3c0,0,15.5,3.1,11.3-15.8c-4.2-18.9-29.7-16.8-29.7-16.8s-11.9,1-20.1,12.4c3.2,1.2,8-0.5,11.3,0
		l0.1-0.1l0,0.1c7,0.9,16.7,1,20.6,1.8c2.3,2.5,1.8,10.8,2.7,14.3l0.5,0.4L93.4,65c0.1,0.3,0.2,0.7,0.3,1l2.1,0.8l-0.2,1.3L97,68.3z
		"/>
	<g>
		<path class="st13" d="M178.3,104.4c0,0-15.3-23.2-41.2-20.9c0,0-12.8,0.2-20.9-3.3c13.5-2.8,18.2-9.5,20.5-24.1
			c3.4-20.7-18.6-44-43.3-44c-11.4,0-21.8,3.3-29.7,8.9c7.4,7.2,20.8-4.2,29.6,0.2c6.5,3.3,5.6,14.6,10.5,18.7
			c5.7,5.7,10.6,11.1,5.7,17.7c-4.5,5.3-10.2,7.7-16.6,7.6c-0.5,3.3-1.2,5.9-2.6,8.6c-2.3,4.3-6.5,6.9-9.2,8.7
			c-6,0.7-13.8,0.9-23.3-0.5c0,0-19.7,7.9,28.4,16c0,0,39.5,32.5,73.7,17.7c0,0,16.5-3.2,27.9,5.5
			C187.9,121.2,200.4,121.2,178.3,104.4z"/>
		<path d="M178.3,104.4c-2.3-3.3-5.1-6.2-8.1-8.9c-3-2.7-6.3-5-9.8-6.9c-3.5-1.9-7.3-3.3-11.2-4.2c-3.9-0.8-7.9-1.1-11.9-0.7l0,0h0
			c-3.6,0-7.1-0.2-10.6-0.7c-3.5-0.5-7-1.2-10.4-2.6l-1-0.4l1.1-0.2c2.7-0.6,5.4-1.4,7.9-2.6c2.5-1.2,4.7-2.9,6.4-5.1
			c1.7-2.2,2.9-4.7,3.8-7.3c0.9-2.6,1.5-5.4,1.9-8.1c1-5.5,0.2-11.2-1.8-16.3c-2-5.2-5.3-9.9-9.1-13.9c-7.8-8-18.4-13.4-29.6-14
			C84.5,12,73,14.8,63.8,21.2l0-0.2c1.5,1.6,3.7,2.3,5.8,2.4c2.2,0.1,4.3-0.3,6.5-0.9c2.1-0.5,4.2-1.1,6.4-1.7
			c2.1-0.5,4.3-0.9,6.6-0.8c2.2,0.1,4.5,0.7,6.2,2.3c1.7,1.5,2.6,3.6,3.4,5.7c0.8,2.1,1.3,4.2,2.1,6.3c0.7,2,1.6,4.1,3.3,5.5l0,0
			l0,0c2.3,2.3,4.7,4.7,6.4,7.6c0.8,1.5,1.4,3.1,1.4,4.8c0,1.7-0.6,3.4-1.5,4.8c-0.1,0.2-0.2,0.4-0.4,0.5l-0.2,0.3l-0.2,0.2
			c-0.3,0.3-0.6,0.6-0.8,0.9c-0.6,0.6-1.2,1.2-1.8,1.7c-1.3,1.1-2.7,2-4.2,2.8c-3,1.5-6.4,2.1-9.8,2.1l0.4-0.3
			c-0.3,1.8-0.6,3.6-1.2,5.4c-0.6,1.7-1.3,3.5-2.4,5c-2.2,3.1-5.3,5.2-8.3,7.2l-0.1,0.1l-0.1,0c-7.8,0.9-15.7,0.6-23.4-0.5l0.2,0
			c-0.7,0.3-1.5,0.7-2.1,1.2c-0.6,0.5-1.2,1.1-1.5,1.8c-0.2,0.7-0.1,1.4,0.4,2c0.4,0.6,1.1,1.2,1.8,1.6c2.8,1.9,6.2,3,9.4,4
			c6.6,2,13.5,3.3,20.3,4.4l0.1,0l0.1,0.1c5.1,4.1,10.8,7.6,16.5,10.7c5.8,3.1,11.9,5.7,18.2,7.7c6.3,1.9,12.8,3.1,19.4,3.1
			c6.6,0,13.1-1.2,19.2-3.8l0,0l0,0c2.4-0.4,4.9-0.6,7.3-0.6c2.4,0,4.9,0.2,7.3,0.6c4.8,0.8,9.5,2.6,13.4,5.6l-0.1,0
			c1,0,2-0.2,2.7-0.9c0.7-0.6,0.7-1.7,0.4-2.7c-0.7-1.9-2.1-3.5-3.5-4.9C184.7,109.6,181.5,107,178.3,104.4L178.3,104.4L178.3,104.4
			z M178.4,104.4c3.3,2.5,6.5,5,9.4,8c1.4,1.5,2.8,3,3.6,5c0.2,0.5,0.3,1,0.3,1.6c0,0.6-0.3,1.1-0.7,1.5c-0.8,0.8-1.9,1-3,1l-0.1,0
			l-0.1,0c-3.8-2.9-8.5-4.6-13.3-5.4c-2.4-0.4-4.8-0.6-7.2-0.6c-2.4,0-4.8,0.2-7.2,0.6l0.1,0c-6.1,2.7-12.8,3.9-19.4,4
			c-6.7,0-13.3-1.1-19.7-3c-6.4-1.9-12.5-4.6-18.3-7.7c-5.8-3.2-11.5-6.7-16.7-10.8l0.2,0.1C79.4,97.3,72.6,96,65.9,94
			c-1.7-0.5-3.3-1.1-5-1.7c-1.6-0.7-3.2-1.4-4.7-2.4c-0.7-0.5-1.5-1.1-2-1.9c-0.6-0.8-0.9-1.9-0.5-2.9c0.3-1,1.1-1.7,1.8-2.2
			c0.7-0.6,1.5-1,2.4-1.4l0.1,0l0.1,0c7.7,1.1,15.5,1.4,23.1,0.5l-0.2,0.1c1.5-1,3-2,4.4-3.1c1.4-1.1,2.7-2.4,3.7-3.8
			c1-1.4,1.7-3.1,2.3-4.8c0.6-1.7,0.9-3.5,1.2-5.2l0.1-0.3l0.3,0c3.2,0.1,6.5-0.5,9.4-2c1.5-0.7,2.8-1.6,4.1-2.6
			c0.6-0.5,1.2-1.1,1.8-1.7c0.3-0.3,0.6-0.6,0.8-0.9l0.2-0.2l0.2-0.2c0.1-0.2,0.2-0.3,0.3-0.5c0.9-1.3,1.5-2.9,1.4-4.5
			c0-1.6-0.5-3.1-1.3-4.5c-1.6-2.8-4-5.2-6.3-7.5l0,0c-1.8-1.5-2.7-3.7-3.4-5.7c-0.7-2.1-1.3-4.2-2-6.3c-0.7-2-1.7-4.1-3.3-5.5
			c-1.6-1.5-3.8-2.1-5.9-2.2c-2.2-0.1-4.3,0.3-6.5,0.8c-2.1,0.5-4.2,1.1-6.4,1.6c-2.1,0.5-4.3,0.9-6.6,0.8c-2.2-0.1-4.5-0.9-6.1-2.5
			l-0.1-0.1l0.2-0.1c4.6-3.3,9.8-5.7,15.3-7.1c5.5-1.5,11.1-2.1,16.8-1.9c11.4,0.6,22.2,6,30.1,14c4,4,7.3,8.8,9.4,14.1
			c2.1,5.3,3,11.1,1.9,16.8c-0.5,2.8-1.1,5.6-2,8.3c-0.9,2.7-2.2,5.3-4,7.6c-1.8,2.3-4.1,4-6.7,5.3c-2.6,1.3-5.3,2.1-8.1,2.6
			l0.1-0.7c3.2,1.4,6.7,2.1,10.2,2.6c3.5,0.5,7,0.7,10.5,0.7l0,0c4-0.3,8.1-0.1,12.1,0.8c4,0.9,7.8,2.3,11.3,4.3
			c3.5,2,6.8,4.4,9.8,7.1C173.3,98.1,176.1,101.1,178.4,104.4z"/>
	</g>
	<path class="st5" d="M117.8,53.9c2.4,5.7,13.9,1.6,15.5-5.7c-0.8,15.5-11.4,29.4-26.9,32.6c8.4,3.8,17,3.4,25.8,2.6
		c-4.5-0.3-11-1-15.9-3.1c13.5-2.8,18.2-9.5,20.5-24.1c2.3-14-7-29.1-20.9-37.5c-1,1.3-1.4,3-1.4,4.3
		C114.6,33.5,112.9,44.9,117.8,53.9z"/>
	<path class="st5" d="M85.2,85.7c9.3-2,13.2-11.5,13.4-21.2c-1.8,0.4-3.7,0.7-5.7,0.6c-0.5,3.3-1.2,5.9-2.6,8.6
		c-2.3,4.3-6.5,6.9-9.2,8.7c-6,0.7-13.8,0.9-23.3-0.5c0,0-4.1,1.6-4,4.2C64.1,84.6,74.4,87.6,85.2,85.7z"/>
	<path class="st5" d="M184.1,109.1c-6.7,0.3-13.6-0.2-20.6-2.2c-19.6-6.5-44.9,0-65.3-9.8c-11.7-5.8-25.9-2.4-38.2-5.6
		c4.8,2.1,12.9,4.3,26.3,6.6c0,0,39.5,32.5,73.7,17.7c0,0,16.5-3.2,27.9,5.5C187.9,121.2,197.9,121.2,184.1,109.1z"/>
	<g>
		<path class="st3" d="M90.9,98.8c-1.5-0.7-3.1-0.8-4.7-0.7c0.1,0,0.1,0,0.2,0c0,0,39.5,32.5,73.7,17.7c0,0,0.5-0.1,1.3-0.2
			c-5.1-4.2-12.7-6.2-19-6.2C124.4,108.5,107.2,107.7,90.9,98.8z"/>
		<path d="M90.9,98.8c-1.4-0.7-3.1-0.8-4.7-0.7l0-0.2l0.2,0l0,0l0,0c5.2,4.1,10.9,7.4,16.7,10.5c5.8,3,11.9,5.7,18.2,7.7
			c3.1,1,6.3,1.8,9.6,2.4c3.2,0.6,6.5,0.9,9.8,0.9c6.6,0,13.2-1.3,19.2-4l0,0l0,0c0.4-0.1,0.9-0.1,1.3-0.2l-0.2,0.6
			c-2.4-1.9-5.1-3.2-8-4.2c-2.9-1-5.8-1.5-8.9-1.7c-6.1-0.2-12.2-0.5-18.3-1c-3.1-0.3-6.1-0.6-9.1-1.2c-3-0.5-6-1.2-9-2
			c-3-0.8-5.9-1.8-8.7-3C96.3,101.6,93.6,100.3,90.9,98.8z M90.9,98.7c2.7,1.4,5.5,2.7,8.3,3.8c2.9,1.1,5.8,1.9,8.8,2.6
			c3,0.7,6,1.2,9,1.7c3,0.4,6,0.8,9.1,1c6.1,0.5,12.2,0.8,18.3,1.1c6.1,0.5,12.3,2.4,17.2,6.3l0.6,0.5l-0.8,0.1
			c-0.4,0.1-0.8,0.1-1.2,0.2l0.1,0c-6.1,2.6-12.8,3.7-19.4,3.7c-3.3,0-6.6-0.3-9.9-0.8c-3.3-0.5-6.5-1.2-9.7-2.1
			c-6.4-1.8-12.5-4.5-18.3-7.7c-5.8-3.2-11.3-6.9-16.5-11.1l0,0l-0.2,0L85.4,98l0.8,0C87.8,97.9,89.5,98,90.9,98.7z"/>
	</g>
	<path class="st14" d="M90.9,98.8c-1.5-0.7-3.1-0.8-4.7-0.7c0.1,0,0.1,0,0.2,0c0,0,39.5,32.5,73.7,17.7c0,0,0.5-0.1,1.3-0.2
		c-5.1-4.2-12.7-6.2-19-6.2C124.4,108.5,107.2,107.7,90.9,98.8z"/>
	<g>
		<path class="st3" d="M109.5,57.6c4.9-6.5,0-11.9-5.7-17.7c-4.9-4.1-3.9-15.4-10.5-18.7c-8.8-4.4-22.3,7.1-29.6-0.2
			C57,25.9,50.8,32.5,48.7,40c1.3,6.6,11.3,5.4,11.3,5.4c9.6,2.7,17.5,2.7,26,1.7c5.7-0.6,5.4,1.5,6.2,4.7c1,4.3,1.5,8.8,0.8,13.4
			C99.4,65.3,105.1,62.9,109.5,57.6z"/>
		<path d="M109.5,57.6c1-1.4,1.8-3,1.9-4.7c0.2-1.7-0.3-3.4-1.2-4.9c-0.8-1.5-1.9-2.9-3-4.1c-1.1-1.3-2.4-2.5-3.6-3.7l0,0
			c-1.8-1.5-2.7-3.6-3.5-5.7c-0.8-2.1-1.3-4.2-2.1-6.2c-0.8-2-1.7-4-3.2-5.4c-1.5-1.4-3.6-2.1-5.8-2.2c-2.1-0.1-4.3,0.3-6.4,0.7
			c-2.1,0.5-4.2,1.1-6.4,1.6c-2.1,0.5-4.3,0.9-6.6,0.8c-1.1-0.1-2.2-0.3-3.3-0.7c-1-0.4-2-1.1-2.8-1.8l0.2,0c-3.3,2.4-6.4,5.1-9,8.3
			c-2.6,3.1-4.7,6.7-5.8,10.6l0-0.2c0.2,1.1,0.7,2,1.5,2.8c0.8,0.8,1.7,1.3,2.8,1.6c1,0.4,2.1,0.5,3.3,0.6c1.1,0.1,2.2,0.1,3.3,0
			l0.1,0l0.1,0C64,46,68,46.7,72,47c4,0.3,8.1,0.2,12.1-0.2c1-0.1,2-0.2,3.1-0.3c1,0,2.2,0,3.3,0.6c0.5,0.3,1,0.8,1.2,1.3
			c0.3,0.5,0.4,1.1,0.5,1.6c0.2,1,0.4,2,0.6,3c0.8,4,1.1,8.2,0.4,12.3L93,64.9c3.1,0.1,6.3-0.4,9.1-1.7
			C104.9,62,107.5,60,109.5,57.6z M109.6,57.6c-2,2.4-4.5,4.5-7.4,5.8c-2.9,1.4-6.1,2-9.2,2h-0.3l0-0.3c0.6-4,0.1-8.1-0.7-12
			c-0.2-1-0.5-2-0.7-3c-0.2-1-0.6-1.8-1.3-2.2c-0.7-0.4-1.7-0.4-2.7-0.4c-1,0-2,0.2-3,0.3c-4.1,0.4-8.2,0.6-12.3,0.2
			c-4.1-0.3-8.2-1.1-12.1-2.2l0.2,0c-1.2,0.1-2.3,0.1-3.5,0c-1.2-0.1-2.3-0.3-3.5-0.7c-1.1-0.4-2.2-1-3.1-1.9
			c-0.9-0.9-1.4-2-1.6-3.2l0-0.1l0-0.1c1.2-4,3.5-7.6,6.2-10.7c2.7-3.1,5.8-5.8,9.2-8.2l0.1-0.1l0.1,0.1c1.5,1.6,3.7,2.3,5.8,2.4
			c2.2,0.1,4.3-0.3,6.4-0.9c2.1-0.5,4.2-1.2,6.4-1.7c2.1-0.5,4.3-1,6.6-0.9c2.2,0,4.6,0.7,6.3,2.3c1.7,1.6,2.7,3.7,3.4,5.8
			c0.8,2.1,1.3,4.2,2,6.3c0.7,2,1.5,4.1,3.1,5.5l0,0l0,0c1.2,1.2,2.4,2.5,3.5,3.8c1.1,1.3,2.2,2.7,2.9,4.3c0.8,1.5,1.3,3.3,1.1,5
			C111.4,54.6,110.6,56.3,109.6,57.6z"/>
	</g>
	<path class="st5" d="M93.4,44.1c-12.3-6.2-29,3.7-43.9-2.1c2.7,4.3,10.5,3.3,10.5,3.3c9.6,2.7,17.5,2.7,26,1.7
		c5.7-0.6,5.4,1.5,6.2,4.7c1,4.3,1.5,8.8,0.8,13.4c2.1,0,4.1-0.2,6.1-0.7C100.4,55.9,99.2,46.7,93.4,44.1z"/>
	<g>
		<path class="st13" d="M133.6,31.8c2.3,8.8-2.4,17.7-10.5,19.9c-8.1,2.2-3.6-6.7-6-15.5c-2.3-8.8-10.6-14.3-2.5-16.4
			C122.8,17.6,131.3,23,133.6,31.8z"/>
		<g>
			<path d="M133.7,31.8c0.9,3.6,0.9,7.5-0.4,11.1c-1.3,3.6-4,6.7-7.5,8.3c-0.9,0.4-1.8,0.7-2.7,0.9c-0.9,0.2-1.9,0.4-2.9,0.1
				c-0.5-0.1-1-0.4-1.3-0.8c-0.4-0.4-0.6-0.9-0.7-1.3c-0.3-0.9-0.3-1.9-0.3-2.8c0-3.7,0.2-7.5-0.9-11c-1-3.6-3.1-6.6-5-9.9
				c-0.4-0.8-0.9-1.7-1.1-2.7c-0.1-0.5-0.2-1.1,0-1.6c0.1-0.6,0.5-1.1,0.9-1.4c0.8-0.7,1.8-1,2.7-1.3c0.9-0.3,1.9-0.4,2.9-0.5
				c3.9-0.3,7.8,1.1,10.7,3.5C130.7,24.8,132.7,28.2,133.7,31.8z M133.6,31.8c-0.5-1.8-1.3-3.5-2.3-5c-1.1-1.5-2.4-2.9-3.8-3.9
				c-2.9-2.1-6.6-3.3-10.2-3c-0.9,0.1-1.8,0.2-2.6,0.5c-0.9,0.2-1.7,0.6-2.3,1.1c-0.6,0.5-0.8,1.2-0.6,2.1c0.2,0.8,0.6,1.7,1,2.5
				c1.8,3.2,3.8,6.5,4.7,10.2c0.5,1.8,0.6,3.7,0.7,5.6c0.1,1.9,0,3.7,0,5.6c0,0.9,0.1,1.9,0.4,2.7c0.1,0.4,0.4,0.8,0.6,1.1
				c0.3,0.3,0.7,0.5,1.1,0.5c0.8,0.1,1.8,0,2.6-0.3c0.9-0.2,1.7-0.6,2.5-1c3.3-1.6,5.8-4.4,7.3-7.8
				C134.2,39.3,134.6,35.4,133.6,31.8z"/>
		</g>
	</g>
	<path class="st9" d="M133.6,31.8c-1.3-4.8-4.4-8.6-8.2-10.7c5,5.7,7.9,13,3,20.2c-1.8,3.7-5.3,7.3-10.5,6.4c0.2,3.2,1,5,5.2,3.8
		C131.3,49.5,136,40.6,133.6,31.8z"/>
	<g>
		<path class="st16" d="M125,33.6c1.4,5.3-0.7,10.5-4.7,11.6c-4,1.1-2-4.1-3.4-9.4c-1.4-5.3-5.7-8.9-1.7-9.9
			C119.2,24.8,123.6,28.3,125,33.6z"/>
		<g>
			<path d="M125.1,33.6c0.5,2,0.8,4.2,0.3,6.4c-0.4,2.1-1.7,4.2-3.8,5.2c-0.5,0.2-1.1,0.4-1.6,0.5c-0.6,0.1-1.3,0.1-1.8-0.4
				c-0.5-0.5-0.6-1.1-0.7-1.6c-0.1-0.5-0.1-1.1-0.1-1.6c-0.1-2.1-0.2-4.2-0.8-6.2c-0.6-2-1.7-3.8-2.7-5.7c-0.2-0.5-0.5-1-0.7-1.5
				c-0.2-0.5-0.4-1.2-0.2-1.9c0.3-0.8,0.9-1.1,1.5-1.3c0.3-0.1,0.6-0.2,0.8-0.2c0.3-0.1,0.6-0.1,0.9-0.1c2.3-0.1,4.5,1.1,5.9,2.8
				C123.7,29.6,124.5,31.6,125.1,33.6z M125,33.6c-0.5-2-1.7-3.9-3.2-5.3c-1.5-1.3-3.4-2.3-5.4-2.2c-0.9,0-2.1,0.4-2.3,0.9
				c-0.1,0.3,0,0.8,0.1,1.2c0.2,0.5,0.4,0.9,0.6,1.4c0.9,1.9,1.9,3.8,2.4,5.9c0.5,2.1,0.5,4.2,0.6,6.3c0,0.5,0.1,1,0.2,1.5
				c0.1,0.5,0.3,1,0.6,1.2c0.7,0.5,1.8,0,2.6-0.4c1.7-0.9,2.9-2.7,3.5-4.6C125.4,37.9,125.5,35.7,125,33.6z"/>
		</g>
	</g>
	<ellipse transform="matrix(0.9789 0.2041 -0.2041 0.9789 9.5094 -15.7165)" class="st10" cx="80.9" cy="38.2" rx="8.2" ry="2.1"/>
	<ellipse transform="matrix(0.979 0.204 -0.204 0.979 9.4629 -17.0201)" class="st8" cx="87.3" cy="37.4" rx="3.3" ry="1"/>
	<g>
		<path d="M76.6,39.5c0.5,0.8,0.8,1.5,1.1,2.2c0.2,0.3,0.4,0.7,0.6,0.9c0.2,0.3,0.5,0.6,0.9,0.8c-0.4,0.2-1,0-1.4-0.2
			c-0.4-0.3-0.7-0.7-0.9-1.1c-0.2-0.4-0.3-0.9-0.4-1.3C76.4,40.4,76.4,39.9,76.6,39.5z"/>
	</g>
	<g>
		<path class="st3" d="M58.7,31.8c0,0-4.8-6.7-5,0.1"/>
		<path d="M58.7,31.8c-0.6-0.4-1.1-0.9-1.6-1.3c-0.5-0.4-1.1-0.9-1.6-1.1c-0.3-0.1-0.5-0.1-0.6,0c-0.2,0.1-0.3,0.3-0.5,0.6
			c-0.3,0.6-0.5,1.2-0.7,1.9c-0.2-0.7-0.2-1.4,0-2.2c0.1-0.4,0.3-0.8,0.7-1.1c0.5-0.3,1-0.2,1.4-0.1c0.8,0.3,1.3,0.9,1.8,1.4
			C58.1,30.5,58.5,31.1,58.7,31.8z"/>
	</g>
	<path class="st6" d="M49.9,37c0,0,7.9,8.6,26.9,4.9"/>
	<path d="M80.2,33.6c-0.5,1.3-1.3,2.2-2.6,1.6c-1.3-0.5-1.9-2-1.4-3.2c0.5-1.3,2-1.9,3.3-1.4C80.8,31.2,80.7,32.4,80.2,33.6z"/>
	<path class="st8" d="M77.6,32.6c-0.1,0.3-0.3,0.5-0.6,0.4c-0.3-0.1-0.4-0.4-0.3-0.7c0.1-0.3,0.4-0.4,0.7-0.3
		C77.7,32.1,77.7,32.3,77.6,32.6z"/>
	<path d="M60.4,24.3c-0.6,0.4-1.1,0.6-1.4,0.2c-0.3-0.4-0.1-1.1,0.5-1.5c0.6-0.4,1.3-0.4,1.6,0.1C61.4,23.5,61,23.9,60.4,24.3z"/>
	<ellipse transform="matrix(0.9422 -0.3351 0.3351 0.9422 -7.2159 20.2378)" cx="55" cy="31" rx="0.3" ry="0.7"/>
	<path class="st11" d="M84.6,67.7c-0.1,1.1-3.5,1.6-7.6,1.2s-7.3-1.6-7.2-2.7c0.1-1.1,3.5-1.6,7.6-1.2
		C81.5,65.4,84.7,66.6,84.6,67.7z"/>
	
		<ellipse transform="matrix(0.9954 9.586190e-002 -9.586190e-002 0.9954 6.6632 -7.6424)" class="st8" cx="82.9" cy="65.5" rx="3" ry="0.9"/>
	<g>
		<ellipse transform="matrix(-0.9804 -0.197 0.197 -0.9804 103.3888 146.7992)" class="st1" cx="59" cy="68.3" rx="5" ry="3.2"/>
		<g>
			<path class="st2" d="M54.1,67.3c0.2-1.1,1.3-1.8,2.3-2.2c1.1-0.4,2.2-0.4,3.3-0.3c1.1,0.2,2.2,0.5,3.2,1.2
				c0.5,0.4,0.9,0.8,1.2,1.4c0.3,0.6,0.5,1.2,0.3,1.9c-0.1,0.6-0.5,1.2-1,1.6c-0.5,0.4-1.1,0.6-1.6,0.8c-1.2,0.3-2.3,0.2-3.4-0.1
				c-1.1-0.3-2.1-0.8-2.9-1.5C54.5,69.4,53.9,68.4,54.1,67.3z M54.1,67.3c-0.2,1.1,0.5,2.1,1.4,2.8c0.9,0.6,1.9,1,3,1.1
				c1,0.1,2.1,0.1,3.1-0.3c0.9-0.3,1.8-0.9,1.9-1.8c0.2-0.8-0.4-1.7-1.1-2.4c-0.7-0.7-1.7-1.2-2.7-1.4c-1-0.3-2.1-0.3-3.2-0.1
				C55.4,65.5,54.3,66.2,54.1,67.3z"/>
		</g>
	</g>
	<path class="st17" d="M59.6,65.1c-2.6-0.5-5,0.4-5.5,2c3.2,0,6,0,9.1,0C62.5,66.2,61.2,65.4,59.6,65.1z"/>
	<g>
		<path d="M79,63.6c-1-0.7-2-1.3-3-2l0.2,0.1l-2.1,0.3c-0.7,0.1-1.4,0.2-2.1,0.3c-0.7,0.1-1.4,0.1-2.2,0.1c-0.7,0-1.5,0-2.2-0.1
			l0-0.1c0.7-0.2,1.4-0.4,2.1-0.6c0.7-0.1,1.4-0.3,2.1-0.3c0.7-0.1,1.4-0.1,2.2-0.1l2.2-0.1l0.1,0l0.1,0.1
			C77.3,61.8,78.2,62.7,79,63.6L79,63.6z"/>
	</g>
</g>
<g>
	<g>
		
			<radialGradient id="SVGID_1_" cx="273.1621" cy="223.0933" r="99.5674" gradientTransform="matrix(2.575285e-002 1.4686 -0.6056 3.372602e-002 247.4758 -298.7148)" gradientUnits="userSpaceOnUse">
			<stop  offset="0" style="stop-color:#2EA3D4"/>
			<stop  offset="0.2056" style="stop-color:#31A7D6;stop-opacity:0.7944"/>
			<stop  offset="0.4156" style="stop-color:#3AB3DC;stop-opacity:0.5844"/>
			<stop  offset="0.6276" style="stop-color:#4AC8E5;stop-opacity:0.3724"/>
			<stop  offset="0.8396" style="stop-color:#5FE4F2;stop-opacity:0.1604"/>
			<stop  offset="1" style="stop-color:#73FFFF;stop-opacity:0"/>
		</radialGradient>
		<path class="st12" d="M229.6,97.2v95.3L11.9,202.8l1.4-108.3c0,0,6.5-9.5,34.9,2.7c28.4,12.2,25.9-21.5,74.9-6.2
			c48.9,15.3,30.4-12.1,62.3-4c31.9,8,44.1,7.6,44.1,7.6"/>
	</g>
	<g>
		<g>
			<path class="st2" d="M13.3,94.5c0.7-0.9,1.8-1.6,2.8-2.1c1.1-0.5,2.2-0.9,3.4-1.1c2.3-0.5,4.7-0.5,7-0.4
				c4.7,0.3,9.3,1.5,13.8,2.9c2.2,0.7,4.4,1.6,6.6,2.5c2.2,0.9,4.3,1.8,6.6,2.4c2.2,0.6,4.6,0.9,6.9,0.8c2.3-0.1,4.6-0.6,6.8-1.4
				c4.3-1.7,8.2-4.4,12.4-6.5c4.2-2.2,8.7-3.9,13.4-4.6c4.7-0.8,9.5-0.7,14.2-0.1c4.7,0.6,9.3,1.6,13.9,2.9c4.5,1.4,9,2.8,13.5,3.8
				c4.6,1,9.2,1.8,13.8,1.6c2.3-0.1,4.6-0.4,6.8-1.1c2.2-0.7,4.2-1.9,6-3.4c1.9-1.4,3.7-3,5.9-4c2.2-1.1,4.6-1.6,7-1.7
				c4.8-0.2,9.5,1,14,2.2c4.6,1.1,9.1,2.2,13.7,3.2c4.6,1,9.2,1.9,13.8,2.6c4.6,0.7,9.3,1.4,14,1.4c-4.7,0-9.4-0.6-14-1.2
				c-4.7-0.7-9.3-1.5-13.9-2.4c-4.6-0.9-9.2-2-13.8-3.1c-4.5-1.1-9.1-2.2-13.8-2c-2.3,0.1-4.6,0.6-6.6,1.6c-2.1,1-3.8,2.5-5.7,4
				c-1.9,1.4-4,2.7-6.2,3.5c-2.3,0.8-4.7,1.1-7.1,1.2c-4.8,0.1-9.5-0.6-14.1-1.6c-4.6-1-9.1-2.4-13.6-3.7c-4.5-1.3-9.1-2.4-13.7-2.9
				c-4.6-0.6-9.3-0.6-13.9,0.1c-4.6,0.7-9,2.3-13.1,4.5c-4.1,2.1-8.1,4.8-12.5,6.5c-2.2,0.8-4.6,1.3-7,1.4c-2.4,0.1-4.8-0.3-7.1-0.9
				c-2.3-0.6-4.5-1.5-6.6-2.5c-2.2-0.9-4.3-1.8-6.6-2.5c-4.4-1.5-9-2.7-13.7-3.2c-2.3-0.2-4.7-0.2-7,0.3c-1.1,0.2-2.3,0.5-3.3,1
				C15.1,93,14.1,93.6,13.3,94.5z"/>
		</g>
	</g>
</g>
</svg>
