<?xml version="1.0" encoding="utf-8"?>
<!-- Generator: Adobe Illustrator 15.1.0, SVG Export Plug-In . SVG Version: 6.00 Build 0)  -->
<!DOCTYPE svg PUBLIC "-//W3C//DTD SVG 1.1//EN" "http://www.w3.org/Graphics/SVG/1.1/DTD/svg11.dtd">
<svg version="1.1" id="Ox" xmlns="http://www.w3.org/2000/svg" xmlns:xlink="http://www.w3.org/1999/xlink" x="0px" y="0px"
	 width="238.5px" height="219px" viewBox="0 0 238.5 219" style="enable-background:new 0 0 238.5 219;" xml:space="preserve">
<style type="text/css">
<![CDATA[
	.st0{opacity:0.26;fill:#CE6A06;}
	.st1{opacity:0.52;fill:#B29A7B;}
	.st2{opacity:0.35;fill:#966D44;}
	.st3{fill:#8E4904;}
	.st4{fill:#231F20;}
	.st5{fill:#F9D3AA;}
	.st6{clip-path:url(#SVGID_2_);}
	.st7{clip-path:url(#SVGID_4_);}
	.st8{opacity:0.52;fill:#FF9999;}
	.st9{fill:#C99C6B;}
	.st10{fill:#FFD04D;}
	.st11{fill:#FFEFD7;}
	.st12{fill:#FFFFFF;}
	.st13{opacity:0.44;fill:#FF8D8D;}
	.st14{opacity:0.5;fill:url(#SVGID_5_);}
	.st15{fill:#DBA214;}
	.st16{fill:#FFD04D;stroke:#000000;stroke-miterlimit:10;}
]]>
</style>
<g>
	<path class="st16" d="M60.8,99.7c6.4-10.6,4.2-22.2,8.5-33.9C52.5,63,32.6,56.1,23.6,41.6c-4.3,6.7-1.1,14.9,1.4,22.9
		c7.9,25.3,17.3,45.7,37.7,42.6C60.4,105.1,59.4,102.7,60.8,99.7z"/>
	<path class="st0" d="M62.9,99.7c6.4-10.6,4.2-22.2,8.5-33.9C54.7,63,34.7,56.1,25.7,41.6c-4.3,6.7-1.1,14.9,1.4,22.9
		c7.9,25.3,17.3,45.7,37.7,42.6C62.5,105.1,61.5,102.7,62.9,99.7z"/>
	<g>
		<path class="st10" d="M64.7,124.3c0,0-71.2,19.2,14.7,11.2C79.4,135.5,82.1,123.6,64.7,124.3z"/>
		<path d="M64.7,124.3c-5.9,1.6-11.6,3.8-17.4,5.8c-2.8,1.1-5.7,2.1-8.3,3.6c-0.6,0.4-1.3,0.8-1.6,1.4c-0.2,0.3-0.2,0.5,0.1,0.7
			c0.2,0.2,0.6,0.4,0.9,0.5c1.4,0.5,2.9,0.6,4.5,0.8c6.1,0.4,12.2-0.2,18.3-0.6c6.1-0.5,12.2-1,18.3-1.5l-0.4,0.4
			c0.3-1.6,0.1-3.5-0.5-5c-0.6-1.6-1.8-2.9-3.3-3.9c-1.5-0.9-3.2-1.5-5-1.8C68.3,124.4,66.5,124.3,64.7,124.3z M64.7,124.2
			c1.8-0.1,3.6-0.1,5.4,0.2c1.8,0.2,3.6,0.7,5.3,1.6c1.6,0.9,3.1,2.3,3.8,4c0.8,1.8,1,3.7,0.7,5.6l-0.1,0.4l-0.4,0
			c-6.1,0.6-12.2,1.1-18.3,1.4c-3.1,0.2-6.1,0.2-9.2,0.3c-3.1,0-6.1,0-9.2-0.2c-1.5-0.1-3.1-0.2-4.6-0.7c-0.4-0.1-0.8-0.3-1.1-0.6
			c-0.2-0.2-0.3-0.4-0.4-0.6c0-0.3,0-0.5,0.1-0.7c0.5-0.8,1.1-1.2,1.8-1.7c2.6-1.7,5.5-2.8,8.4-3.8
			C52.8,127.3,58.8,125.9,64.7,124.2L64.7,124.2L64.7,124.2z"/>
	</g>
	<path class="st0" d="M64.7,124.3c0,0-71.2,19.2,14.7,11.2C79.4,135.5,82.1,123.6,64.7,124.3z"/>
	<g>
		<path class="st5" d="M95,85.5c-3.5,15.2-6.7,28.9-44.1,18.8c-34-9.1-34.7-19.7-23.2-34.3c9.8-12.4,15.1-25.6,35.9-20.8
			C84.4,54.1,98.5,70.3,95,85.5z"/>
		<g>
			<path d="M95,85.5c-1,4.2-1.9,8.6-3.8,12.5c-1,2-2.2,3.8-3.9,5.3c-1.6,1.5-3.6,2.6-5.7,3.4c-4.2,1.5-8.7,1.6-13.1,1.3
				c-4.4-0.3-8.7-1.1-13-2.1c-4.3-1-8.5-2.3-12.6-3.7c-4.1-1.4-8.2-3-12.1-5.1c-1.9-1.1-3.8-2.3-5.4-3.7c-1.6-1.5-3.1-3.2-3.9-5.3
				c-0.8-2.1-0.9-4.4-0.4-6.6c0.5-2.2,1.4-4.2,2.5-6.1c1.1-1.9,2.4-3.7,3.7-5.4c1.3-1.7,2.6-3.5,3.9-5.3c2.5-3.5,5-7.2,8.2-10.3
				c1.6-1.5,3.3-2.9,5.3-4c2-1.1,4.1-1.9,6.3-2.3c4.4-0.8,8.9-0.3,13.2,0.8c8.5,2.1,16.7,6.3,22.8,12.7c3,3.2,5.5,6.9,7,11.1
				C95.6,76.7,96,81.3,95,85.5z M94.9,85.5c1-4.3,0.5-8.8-1.1-12.8c-1.6-4.1-4.2-7.7-7.2-10.7C80.4,55.9,72.4,51.9,64,49.9
				c-4.2-1-8.6-1.5-12.8-0.7c-2.1,0.4-4.1,1.1-6,2.1c-1.9,1-3.6,2.4-5.1,3.8c-3.1,3-5.6,6.6-8.2,10.1c-1.3,1.8-2.6,3.5-4,5.2
				c-1.4,1.7-2.6,3.5-3.7,5.3c-1.1,1.9-2.1,3.8-2.6,5.9c-0.5,2.1-0.5,4.3,0.3,6.3c0.8,2,2.2,3.7,3.8,5.2c1.6,1.5,3.5,2.6,5.4,3.7
				c3.8,2.1,7.9,3.6,12.1,4.9c4.2,1.3,8.4,2.4,12.6,3.4c4.2,1,8.5,1.7,12.9,2.1c4.3,0.3,8.7,0.3,12.8-1.1c2-0.7,4-1.7,5.6-3.1
				c1.6-1.4,2.9-3.2,3.9-5.1C93,94.1,93.9,89.7,94.9,85.5z"/>
		</g>
	</g>
	<g>
		<path class="st10" d="M171.8,128.9c0,0,30,5.2,36.7,11.6s-23.7,4.6-23.7,4.6S165.8,143.1,171.8,128.9z"/>
		<g>
			<path d="M171.8,128.9c3.8,0.5,7.5,1.2,11.3,2c3.7,0.8,7.4,1.7,11.1,2.8c3.6,1.2,7.2,2.5,10.7,4.2c0.9,0.4,1.7,0.9,2.5,1.5
				c0.8,0.6,1.6,1.1,2.1,2c0.3,0.4,0.4,1.1,0.1,1.5c-0.3,0.5-0.7,0.8-1.2,1c-0.9,0.4-1.8,0.7-2.8,0.9c-3.8,0.8-7.6,1-11.4,1
				c-1.9,0-3.8,0-5.7,0c-1,0-1.9-0.1-2.9-0.1c-1,0-2-0.2-2.9-0.4c-1.9-0.4-3.8-1-5.5-1.8c-1.8-0.8-3.4-2-4.7-3.5
				c-1.3-1.5-2-3.5-2-5.4C170.4,132.5,171,130.6,171.8,128.9L171.8,128.9L171.8,128.9z M171.8,129c-0.7,1.8-1.1,3.6-0.9,5.5
				c0.1,1.9,0.9,3.6,2.1,5c1.2,1.4,2.8,2.4,4.5,3.1c1.7,0.7,3.5,1.3,5.3,1.7c0.9,0.2,1.8,0.4,2.7,0.4l2.8,0.1
				c1.9,0.1,3.8,0.1,5.7,0.1c3.8,0,7.6,0,11.3-0.6c0.9-0.2,1.8-0.4,2.7-0.8c0.4-0.2,0.8-0.4,1-0.8c0.2-0.3,0.2-0.8,0-1.2
				c-0.5-0.8-1.2-1.4-2-1.9c-0.8-0.5-1.6-1-2.5-1.4c-3.4-1.7-7.1-2.7-10.7-3.7C186.6,132.4,179.3,130.7,171.8,129z"/>
		</g>
	</g>
	<path class="st0" d="M207.3,139.5c-12.3,0.1-25-4.5-36.4-7.9c-2.7,11.8,13.9,13.5,13.9,13.5s30.4,1.8,23.7-4.6
		C208.2,140.1,207.8,139.8,207.3,139.5z"/>
	<g>
		<path class="st11" d="M60.6,18.4c0,0-19.8,4.6-32.7-5.3c0,0-1.9,17.6,13.2,19.7C41.2,32.9,55.3,34.3,60.6,18.4z"/>
		<path d="M60.5,18.5c-2.7,0.7-5.5,1.1-8.3,1.3c-2.9,0.2-5.7,0.1-8.6-0.2c-2.8-0.4-5.7-1-8.3-2.1c-2.7-1.1-5.2-2.5-7.4-4.2l0.3-0.1
			c-0.3,4.3,0.4,8.8,2.7,12.5c1.1,1.8,2.6,3.4,4.4,4.6c1.8,1.1,3.9,1.8,6,2.1c2,0.2,4.2-0.1,6.3-0.7c2-0.6,4-1.6,5.7-2.8
			C56.5,26.3,59,22.5,60.5,18.5z M60.6,18.4c-1.2,4.2-3.5,8.3-7.1,11c-1.8,1.4-3.8,2.5-5.9,3.1c-1.1,0.3-2.2,0.6-3.3,0.7
			c-1.1,0.1-2.2,0.2-3.4,0.1c-2.2-0.4-4.4-1.1-6.3-2.4c-1.9-1.2-3.4-3-4.5-5c-1.1-2-1.7-4.1-2-6.3c-0.3-2.2-0.5-4.4-0.3-6.6l0-0.3
			l0.2,0.2c1.1,0.8,2.3,1.6,3.6,2.2c1.3,0.6,2.6,1.2,3.9,1.6c2.7,0.9,5.4,1.5,8.2,1.8c2.8,0.4,5.6,0.5,8.4,0.4
			C55,19.1,57.8,18.8,60.6,18.4L60.6,18.4L60.6,18.4z"/>
	</g>
	<path class="st1" d="M38.2,26.3c6.2,2.7,14.7,1.6,20.4-3.2c-6.2,10.9-17.4,9.8-17.4,9.8C29,31.2,27.8,19.6,27.8,15.1
		C30.1,20.3,32.7,24.7,38.2,26.3z"/>
	<path class="st2" d="M68.9,39.9c-21.3-5.4-29.3,4.5-38.8,17c-1.8,2.5,1.4,9.9,3.2,14.2c-0.3-0.7-0.7-3.1-0.3-4.5
		c0.7,3.1,4.2,7,4.9,10.1c1.1-4.2-1-7.7,1.4-11.5c1,1.7,2.1,3.5,3.1,5.2c-1-1.7-0.7-3.1,0-5.9c-1.1,4.2,4.5,5.6,5.9,5.9
		c4.6,2.3,9.4,3.9,14.3,5.2c-1.3,8.7-3.7,16.3-9.2,20.8c-5.6,4.5-14.6,3.9-23.3,0c4.7,2.8,11.5,5.4,20.8,7.9
		c37.4,10,40.5-3.6,44.1-18.8c0.2-1,0.4-2,0.5-3.1c2.9,0.7,5.7,1.5,8.5,2.4c0.2-0.7,0.4-1.4,0.5-2.1C108.9,65.1,92.9,45.9,68.9,39.9
		z"/>
	<g>
		<path class="st3" d="M31.9,64.4c0.7,3.1,4.2,7,4.9,10.1c1.1-4.2-1-7.7,1.4-11.5c1,1.7,2.1,3.5,3.1,5.2c-1-1.7-0.7-3.1,0-5.9
			c-1.1,4.2,4.5,5.6,5.9,5.9c17.4,8.5,37.7,8.4,55.6,14.4c0.2-0.7,0.4-1.4,0.5-2.1c4.4-17.6-11.5-36.8-35.6-42.8
			c-21.3-5.4-29.3,4.5-38.8,17c-1.8,2.5,1.4,9.9,3.2,14.2C31.9,68.3,31.5,65.8,31.9,64.4z"/>
		<g>
			<path d="M31.9,64.4c0.2,0.9,0.6,1.8,1.1,2.6c0.4,0.8,0.9,1.6,1.4,2.4c0.5,0.8,1,1.6,1.4,2.4c0.4,0.8,0.9,1.7,1.1,2.6l-0.4,0
				c0.2-0.9,0.3-1.9,0.3-2.9c0-1-0.1-1.9-0.2-2.9c-0.1-1-0.1-2,0.1-3c0.2-1,0.6-2,1.1-2.8l0.3-0.5l0.3,0.5l3.2,5.2l-0.7,0.4
				c-0.3-0.5-0.5-1-0.6-1.5c-0.1-0.5-0.1-1.1-0.1-1.6c0.1-1.1,0.4-2.1,0.6-3l0.8,0.2c-0.2,0.7-0.2,1.4,0.1,2
				c0.3,0.6,0.8,1.2,1.3,1.6c1.2,0.9,2.7,1.4,4.1,1.7l0,0l0,0c4.3,2.1,8.8,3.7,13.4,5c4.6,1.3,9.3,2.3,14,3.3
				c4.7,1,9.4,1.8,14.1,2.8c4.7,1,9.4,2.1,14,3.6l-0.2,0.1c0.3-1.3,0.7-2.5,0.9-3.8c0.2-1.3,0.3-2.6,0.3-3.8c0-2.6-0.4-5.1-1.1-7.6
				c-1.5-4.9-4.2-9.4-7.6-13.3C88.3,46.5,78.9,41.3,69,38.6c-5-1.4-10.1-2.2-15.2-1.7c-2.5,0.3-5,0.9-7.4,1.9
				c-2.3,1-4.5,2.4-6.5,4.1c-3.9,3.3-7.2,7.4-10.3,11.5c-0.5,0.5-0.7,1-0.8,1.6c-0.1,0.6-0.1,1.2,0,1.9c0.1,1.3,0.5,2.5,0.8,3.8
				c0.7,2.5,1.7,4.9,2.7,7.3L32.1,69c-0.3-0.8-0.3-1.5-0.4-2.3C31.7,66,31.6,65.2,31.9,64.4l0-0.2L31.9,64.4z M31.9,64.7
				c-0.1,0.7-0.1,1.4,0,2c0.1,0.7,0.2,1.5,0.5,2.2L32.1,69c-1-2.4-2.1-4.8-2.9-7.3c-0.4-1.2-0.7-2.5-0.9-3.8c-0.1-0.7-0.1-1.3,0-2
				c0.1-0.3,0.1-0.7,0.3-1c0-0.1,0.1-0.2,0.1-0.2l0.1-0.1l0.1-0.1l0.3-0.4c3.1-4.1,6.3-8.3,10.3-11.8c2-1.7,4.2-3.2,6.6-4.3
				c2.4-1.1,5-1.8,7.6-2.1c5.3-0.6,10.6,0.3,15.6,1.7c5.1,1.4,9.9,3.4,14.4,6.1c4.5,2.7,8.7,6,12.1,9.9c3.4,3.9,6.2,8.6,7.6,13.6
				c0.7,2.5,1.1,5.2,1,7.8c0,1.3-0.2,2.6-0.4,3.9c-0.2,1.3-0.6,2.5-0.9,3.8l0,0.2l-0.2-0.1c-4.5-1.5-9.2-2.7-13.9-3.6
				c-4.7-0.9-9.4-1.7-14.2-2.6c-4.7-0.8-9.5-1.8-14.1-3c-4.6-1.3-9.2-2.9-13.6-5l0.1,0c-1.5-0.4-3.1-0.9-4.4-1.9
				c-0.7-0.5-1.3-1.2-1.6-2c-0.4-0.8-0.3-1.7-0.1-2.6l0.8,0.2c-0.2,1-0.5,2-0.6,2.9c-0.1,1,0.1,1.9,0.6,2.7l-0.7,0.4l-3.1-5.2l0.6,0
				c-0.5,0.8-0.9,1.7-1.1,2.6c-0.2,0.9-0.2,1.9-0.2,2.9c0.1,1.9,0.3,4-0.3,5.9l-0.3,0.9l-0.2-0.9c-0.2-0.9-0.6-1.7-1-2.6
				c-0.4-0.8-0.9-1.6-1.4-2.5c-0.5-0.8-0.9-1.6-1.4-2.5C32.5,66.3,32.1,65.5,31.9,64.7z"/>
		</g>
	</g>
	<g>
		<defs>
			<path id="SVGID_1_" d="M60.5,18.4c0,0-19.8,4.6-32.7-5.3c0,0-1.9,17.6,13.2,19.7C41.1,32.9,55.2,34.3,60.5,18.4z"/>
		</defs>
		<clipPath id="SVGID_2_">
			<use xlink:href="#SVGID_1_"  style="overflow:visible;"/>
		</clipPath>
		<g class="st6">
			<g>
				<path d="M57.6,18.3c-0.4,2-1.2,3.9-2.3,5.6c-1.1,1.7-2.4,3.2-3.8,4.7c-1.4,1.4-3.1,2.6-5,3.4c-1.9,0.8-4,1.1-6,0.9v0
					c2-0.2,4-0.6,5.8-1.3c1.8-0.8,3.5-1.8,5-3.1c1.5-1.3,2.7-2.9,3.7-4.7C56,21.9,56.8,20.1,57.6,18.3L57.6,18.3z"/>
			</g>
			<g>
				<path d="M55.2,18.3c-0.4,2-1.2,3.9-2.3,5.6c-1.1,1.7-2.4,3.2-3.8,4.7c-1.4,1.4-3.1,2.6-5,3.4c-1.9,0.8-4,1.1-6,0.9v0
					c2-0.2,4-0.6,5.8-1.3c1.8-0.7,3.5-1.8,5-3.1c1.5-1.3,2.7-2.9,3.7-4.7C53.5,21.9,54.4,20.1,55.2,18.3L55.2,18.3z"/>
			</g>
			<g>
				<path d="M52.7,18.3c-0.4,2-1.2,3.9-2.3,5.6c-1.1,1.7-2.4,3.2-3.8,4.7c-1.4,1.4-3.1,2.6-5,3.4c-1.9,0.8-4,1.1-6,0.9v0
					c2-0.2,4-0.6,5.8-1.3c1.8-0.7,3.5-1.8,5-3.1c1.5-1.3,2.7-2.9,3.7-4.7C51,21.9,51.9,20.1,52.7,18.3L52.7,18.3z"/>
			</g>
			<g>
				<path d="M51.5,16.6c-0.4,2-1.2,3.9-2.3,5.6c-1.1,1.7-2.4,3.2-3.8,4.7c-1.4,1.4-3.1,2.6-5,3.4c-1.9,0.8-4,1.1-6,0.9v0
					c2-0.2,4-0.6,5.8-1.3c1.8-0.7,3.5-1.8,5-3.1c1.5-1.3,2.7-2.9,3.7-4.7C49.8,20.2,50.7,18.4,51.5,16.6L51.5,16.6z"/>
			</g>
			<g>
				<path d="M49.1,15.2c-0.4,2-1.2,3.9-2.3,5.6c-1.1,1.7-2.4,3.2-3.8,4.7c-1.4,1.4-3.1,2.6-5,3.4c-1.9,0.8-4,1.1-6,0.9v0
					c2-0.2,4-0.6,5.8-1.3c1.8-0.7,3.5-1.8,5-3.1c1.5-1.3,2.7-2.9,3.7-4.7C47.4,18.9,48.3,17.1,49.1,15.2L49.1,15.2z"/>
			</g>
			<g>
				<path d="M46.6,13.5c-0.4,2-1.2,3.9-2.3,5.6c-1.1,1.7-2.4,3.2-3.8,4.7c-1.4,1.4-3.1,2.6-5,3.4c-1.9,0.8-4,1.1-6,0.9v0
					c2-0.2,4-0.6,5.8-1.3c1.8-0.8,3.5-1.8,5-3.1c1.5-1.3,2.7-2.9,3.7-4.7C44.9,17.2,45.8,15.4,46.6,13.5L46.6,13.5z"/>
			</g>
			<g>
				<path d="M44.1,12.1c-0.4,2-1.2,3.9-2.3,5.6c-1.1,1.7-2.4,3.2-3.8,4.7c-1.4,1.4-3.1,2.6-5,3.4c-1.9,0.8-4,1.1-6,0.9v0
					c2-0.2,4-0.6,5.8-1.3c1.8-0.8,3.5-1.8,5-3.1c1.5-1.3,2.7-2.9,3.7-4.7C42.5,15.7,43.3,13.9,44.1,12.1L44.1,12.1z"/>
			</g>
			<g>
				<path d="M41.1,9.3c-0.4,2-1.2,3.9-2.3,5.6c-1.1,1.7-2.4,3.2-3.8,4.7c-1.4,1.4-3.1,2.6-5,3.4c-1.9,0.8-4,1.1-6,0.9v0
					c2-0.2,4-0.6,5.8-1.3c1.8-0.8,3.5-1.8,5-3.1c1.5-1.3,2.7-2.9,3.7-4.7C39.4,12.9,40.3,11.1,41.1,9.3L41.1,9.3z"/>
			</g>
			<g>
				<path d="M38.1,6.8c-0.4,2-1.2,3.9-2.3,5.6c-1.1,1.7-2.4,3.2-3.8,4.7c-1.4,1.4-3.1,2.6-5,3.4c-1.9,0.8-4,1.1-6,0.9v0
					c2-0.2,4-0.6,5.8-1.3c1.8-0.8,3.5-1.8,5-3.1c1.5-1.3,2.7-2.9,3.7-4.7C36.4,10.5,37.3,8.7,38.1,6.8L38.1,6.8z"/>
			</g>
			<g>
				<path d="M36.4,4.2c-0.4,2-1.2,3.9-2.3,5.6c-1.1,1.7-2.4,3.2-3.8,4.7c-1.4,1.4-3.1,2.6-5,3.4c-1.9,0.8-4,1.1-6,0.9v0
					c2-0.2,4-0.6,5.8-1.3c1.8-0.8,3.5-1.8,5-3.1c1.5-1.3,2.7-2.9,3.7-4.7C34.8,7.9,35.6,6.1,36.4,4.2L36.4,4.2z"/>
			</g>
		</g>
	</g>
	<g>
		<path class="st10" d="M185.3,136.7c0,0-19.9-30.1-53.5-27.1c0,0-16.7,0.3-27.1-4.3c17.5-3.6,23.6-12.4,26.7-31.3
			c2.4-14.7-5-30.3-17.4-41.5c1-5-8-11.8-20.3-15.4c-8.4-2.4-16.2-2.7-20.9-1.2c-2.5-1.7-6.9-2.8-12.1-2.8c-7.8,0-14.1,2.6-14.1,5.7
			c0,1.1,0.8,2.1,2.2,3C38,26.1,29.2,33,23.6,41.6c9,14.5,28.9,21.3,45.6,24.1c-4.2,11.7-2.1,23.3-8.5,33.9c-1.4,3-0.4,5.4,1.9,7.5
			c0.7,0.1-0.4,0.9,0.3,0.9c-8.2,1.5-18.5,1.7-34.1-0.5c0,0-25.6,10.3,36.9,20.8c0,0,51.3,42.2,95.7,23c0,0,21.5-4.1,36.2,7.2
			C197.7,158.6,213.9,158.6,185.3,136.7z"/>
		<path d="M185.2,136.7c-3-4.3-6.6-8.1-10.5-11.5c-3.9-3.5-8.2-6.5-12.8-9c-4.6-2.5-9.5-4.3-14.6-5.4c-5.1-1.1-10.3-1.4-15.5-0.9
			l0,0h0c-4.6,0-9.2-0.3-13.8-0.9c-4.6-0.6-9.1-1.5-13.4-3.4l-1.1-0.4l1.1-0.2c3.7-0.8,7.4-1.9,10.7-3.6c3.4-1.7,6.3-4.2,8.5-7.2
			c2.2-3,3.7-6.6,4.8-10.2c1.1-3.6,1.8-7.4,2.4-11.1c1-7.5-0.6-15.2-3.8-22c-3.2-6.9-7.9-13-13.6-18.1l-0.1-0.1l0-0.2
			c0.2-0.9,0-1.9-0.4-2.7c-0.4-0.9-1-1.7-1.6-2.4c-1.3-1.5-2.9-2.7-4.5-3.8c-3.3-2.2-7-3.9-10.8-5.2c-3.8-1.3-7.7-2.2-11.7-2.7
			c-4-0.4-8-0.6-11.9,0.6l-0.1,0l-0.1-0.1c-2.2-1.5-5-2.1-7.6-2.5c-2.7-0.4-5.4-0.4-8.1-0.1c-2.7,0.3-5.4,0.9-7.7,2.2
			c-0.6,0.3-1.1,0.7-1.6,1.2c-0.4,0.5-0.8,1.1-0.8,1.7c-0.1,0.6,0.2,1.3,0.6,1.8c0.4,0.5,0.9,0.9,1.5,1.3l0.2,0.2L48.7,22
			c-5,2-9.7,4.7-14,8c-4.2,3.3-8,7.3-10.9,11.8l0-0.2c2.3,3.7,5.4,7,8.9,9.7C36.1,53.9,40,56.2,44,58c8,3.7,16.6,6,25.3,7.4l0.4,0.1
			l-0.1,0.4c-2,5.5-2.6,11.3-3.4,17.1c-0.4,2.9-0.9,5.8-1.6,8.7c-0.8,2.9-1.9,5.6-3.4,8.2l0,0c-0.6,1.2-0.8,2.6-0.4,3.8
			c0.4,1.2,1.2,2.3,2.2,3.2l-0.3-0.1c0.1,0,0.2,0,0.3,0.1c0.1,0,0.3,0.3,0.4,0.5c0,0.4-0.1,0.4-0.1,0.5c-0.1,0.1-0.1,0.2-0.1,0
			c0-0.1-0.2-0.2-0.2-0.2c0,0,0,0,0,0l3.6,0.2l-3.6,0.7c-5.7,1-11.4,1.3-17.2,1.1c-5.7-0.2-11.4-0.8-17.1-1.6l0.2,0
			c-1,0.4-2,1-2.8,1.6c-0.8,0.7-1.6,1.5-1.9,2.4c-0.3,0.9-0.1,1.9,0.5,2.8c0.6,0.8,1.5,1.6,2.3,2.2c1.8,1.2,3.9,2.2,5.9,3
			c2.1,0.8,4.2,1.5,6.4,2.2c4.3,1.3,8.7,2.3,13.1,3.3c4.4,0.9,8.8,1.8,13.3,2.5l0.1,0l0.1,0.1c6.7,5.3,14,9.9,21.5,13.9
			c7.5,4,15.4,7.4,23.6,10c8.2,2.5,16.7,4.1,25.2,4.1c8.5,0,17.1-1.5,25-4.9l0,0l0,0c3.2-0.5,6.3-0.7,9.5-0.7c3.2,0,6.3,0.3,9.5,0.8
			c6.2,1.1,12.4,3.3,17.4,7.2l-0.1,0c1.3,0,2.6-0.3,3.6-1.2c0.5-0.4,0.7-1,0.8-1.6c0.1-0.6-0.1-1.3-0.3-1.9
			c-0.9-2.4-2.7-4.5-4.5-6.4C193.6,143.4,189.5,140,185.2,136.7L185.2,136.7L185.2,136.7z M185.3,136.7c4.2,3.2,8.4,6.6,12.1,10.4
			c0.9,1,1.8,2,2.6,3c0.8,1.1,1.6,2.2,2,3.5c0.2,0.6,0.4,1.3,0.3,2c0,0.7-0.4,1.4-0.9,1.9c-1.1,1-2.5,1.2-3.8,1.3l-0.1,0l-0.1,0
			c-5-3.8-11.1-6-17.2-7c-3.1-0.5-6.2-0.7-9.4-0.7c-3.1,0-6.3,0.2-9.4,0.8l0.1,0c-7.9,3.5-16.6,5.1-25.2,5.1c-8.6,0-17.2-1.5-25.5-4
			c-8.3-2.5-16.2-5.9-23.8-10c-7.6-4.1-14.9-8.7-21.7-14.1l0.2,0.1c-4.5-0.8-8.9-1.6-13.3-2.5c-4.4-0.9-8.8-2-13.2-3.3
			c-2.2-0.7-4.3-1.4-6.4-2.2c-2.1-0.9-4.2-1.8-6.1-3.1c-0.9-0.7-1.9-1.4-2.6-2.4c-0.4-0.5-0.6-1.1-0.8-1.7c-0.1-0.6-0.1-1.3,0.1-1.9
			c0.4-1.2,1.3-2.1,2.2-2.8c0.9-0.7,1.9-1.3,3-1.8l0.1,0l0.1,0c5.6,0.8,11.3,1.4,17,1.6c5.7,0.2,11.4,0,17-1.1l0.1,0.9
			c-0.1,0-0.2,0-0.3-0.1c-0.1,0-0.4-0.2-0.4-0.5c0-0.4,0.1-0.5,0.1-0.6c0-0.1,0.1-0.2,0.1-0.1c0,0.1,0.1,0.2,0.2,0.2c0,0,0,0,0,0
			l-0.2,0l-0.1-0.1c-1.1-1-2-2.2-2.5-3.6c-0.4-1.5-0.2-3.1,0.5-4.4l0,0l0,0c1.5-2.5,2.6-5.2,3.4-8c0.8-2.8,1.3-5.7,1.7-8.6
			c0.4-2.9,0.8-5.8,1.3-8.7c0.5-2.9,1.2-5.8,2.2-8.6l0.3,0.4c-8.7-1.5-17.4-3.9-25.4-7.6c-4-1.9-7.9-4.1-11.4-6.9
			c-3.5-2.8-6.6-6-8.9-9.8l-0.1-0.1l0.1-0.1c3-4.6,6.8-8.5,11.1-11.8c4.3-3.3,9.1-6,14.1-8l0,0.3c-0.6-0.4-1.1-0.8-1.6-1.4
			c-0.4-0.5-0.7-1.3-0.7-2c0.1-0.7,0.4-1.4,0.9-1.9c0.5-0.5,1-0.9,1.6-1.3c2.4-1.4,5.2-2,7.9-2.3c2.7-0.3,5.5-0.3,8.2,0
			c2.7,0.4,5.4,1,7.8,2.5l-0.2,0c3.9-1.2,8.1-1.1,12.1-0.6c4,0.5,8,1.4,11.8,2.7c3.8,1.3,7.5,3,10.9,5.2c1.7,1.1,3.3,2.4,4.7,3.9
			c0.7,0.8,1.3,1.6,1.7,2.6c0.4,0.9,0.7,2,0.5,3.1l-0.1-0.3c5.7,5.1,10.5,11.3,13.8,18.3c3.3,6.9,5,14.8,4,22.5
			c-0.5,3.8-1.3,7.6-2.4,11.3c-1.1,3.7-2.7,7.3-5,10.4c-2.3,3.1-5.4,5.7-8.8,7.4c-3.4,1.8-7.2,2.8-10.9,3.6l0.1-0.7
			c4.2,1.8,8.7,2.7,13.2,3.4c4.5,0.6,9.1,0.9,13.7,0.9l0,0c5.2-0.5,10.5-0.1,15.7,1c5.1,1.1,10.1,3,14.7,5.6
			c4.6,2.5,8.9,5.6,12.8,9.1C178.8,128.5,182.3,132.4,185.3,136.7z"/>
	</g>
	<path class="st0" d="M67.1,109.2c4.7-6.6,1.1-22.4,0.2-36.2c-1.8,9.2-1.5,18.3-6.5,26.7c-1.4,3-0.4,5.4,1.9,7.5
		c0.7,0.1-0.4,0.9,0.3,0.9c-8.2,1.5-18.5,1.7-34.1-0.5c0,0-3.5,1.4-4.7,3.7C40.1,111.7,58.9,119.7,67.1,109.2z"/>
	<path class="st0" d="M92.6,103.9c5.3,3.2,10.6,5.3,17,6.4c7,1.4,13.5,0.7,19.9-0.7c-5-0.1-16.7-0.8-24.7-4.3
		c10.2-2.1,16.5-6,20.6-12.5C116.8,101,104.5,105.5,92.6,103.9z"/>
	<path class="st0" d="M169.9,141c-28.6-3.2-57.2,0-83.7-12.7c-5.3-2.1-7.4-7.4-6.4-14.8c-18.1,8-37,6.6-55.2,1.9
		c2.9,3.7,13.2,8.4,41.2,13.1c0,0,51.3,42.2,95.7,23c0,0,21.5-4.1,36.2,7.2c0,0,9.5,0,1.1-9.8C189.5,145,180.2,141.7,169.9,141z"/>
	<g>
		<path class="st11" d="M64.8,66.8c-1.2,1.5-7.3,0.5-24.7-2.8C22.6,60.7,16,52.5,17.2,46c1.2-6.4,11.2-11.2,26.4-2.2
			C59,52.9,70.5,59.9,64.8,66.8z"/>
		<path d="M64.9,66.8c-0.5,0.5-1.2,0.6-1.8,0.7c-0.6,0.1-1.3,0-1.9,0c-1.3-0.1-2.5-0.2-3.8-0.4c-2.5-0.3-5.1-0.7-7.6-1.1
			c-2.5-0.4-5-0.8-7.5-1.3c-2.5-0.4-5-1-7.5-1.7c-4.9-1.5-9.7-3.6-13.5-7.1c-1.8-1.8-3.4-3.9-4.1-6.5c-0.3-1.3-0.3-2.6-0.1-3.9
			c0.3-1.3,0.9-2.5,1.8-3.5c1.7-2,4.3-3.2,6.8-3.6c2.6-0.4,5.2-0.2,7.7,0.4c2.5,0.6,5,1.5,7.3,2.6c2.3,1.1,4.5,2.5,6.7,3.8
			c4.4,2.6,8.7,5.3,12.7,8.6c2,1.6,3.9,3.4,5.2,5.6c0.6,1.1,1.1,2.4,1,3.7C66.3,64.6,65.7,65.8,64.9,66.8z M64.8,66.7
			c0.8-1,1.4-2.2,1.4-3.4c0-1.3-0.4-2.5-1.1-3.5c-1.4-2.1-3.4-3.7-5.4-5.3c-4.1-3-8.5-5.6-12.8-8.2c-2.2-1.3-4.4-2.6-6.6-3.8
			c-2.2-1.1-4.6-2.1-7-2.6c-2.4-0.6-5-0.8-7.4-0.5c-2.4,0.3-4.9,1.3-6.6,3.1c-0.8,0.9-1.5,2-1.7,3.2c-0.3,1.2-0.3,2.5,0,3.7
			c0.6,2.5,2.1,4.6,4,6.3c1.9,1.7,4.1,3,6.4,4.1c2.3,1.1,4.7,1.9,7.1,2.5c2.4,0.7,4.9,1.1,7.4,1.6l7.5,1.5c2.5,0.5,5,1,7.5,1.4
			c1.3,0.2,2.5,0.4,3.8,0.5c0.6,0,1.3,0.1,1.9,0C63.7,67.3,64.4,67.2,64.8,66.7z"/>
	</g>
	<path class="st1" d="M21,55.5c3.6,3.5,9.8,6.7,19.1,8.4c17.5,3.3,23.5,4.3,24.7,2.8c2.3-2.7,1.8-5.5-0.6-8.4
		C50.5,62.4,34.8,60.1,21,55.5z"/>
	<path class="st0" d="M127.6,50.6c-2.8-5.9-6.8-11.4-11.7-16.3C104.3,37.5,91,36.8,82,30.8c-1.1,7.4,1.1,13.8,7.4,17
		c0.4,0.2,0.9,0.4,1.4,0.6c0.6,4.9,3.1,19.1,12.3,22.8c0,0,1.3,1.2,0.5,4.5c0,0,5.8,4.8,10.3-5.6c2.9-6.9,5.9-11.7,2.3-17.1
		C120.1,52.7,123.9,51.9,127.6,50.6z"/>
	<g>
		<path class="st10" d="M93.2,41.2c0,0-2.3,19.9,7.9,26.4c0,0,1.1,1.4-0.4,4.5c0,0,4.9,5.8,11.1-3.7c6.3-9.5,11.8-14.3-4.9-27.9"/>
		<path d="M93.3,41.2c-0.1,2.4-0.1,4.8,0.1,7.2c0.2,2.4,0.5,4.7,1,7c0.5,2.3,1.2,4.6,2.3,6.7c1.1,2.1,2.5,4,4.5,5.3l0,0l0,0
			c0.3,0.4,0.3,0.8,0.4,1.2c0,0.4,0,0.8,0,1.2c-0.1,0.8-0.4,1.6-0.7,2.3l0-0.2c0.6,0.7,1.5,1.2,2.4,1.5c0.9,0.3,1.9,0.2,2.8-0.1
			c1.8-0.6,3.2-2.1,4.4-3.6c0.6-0.8,1.1-1.6,1.6-2.4l1.6-2.5c1.1-1.6,2.1-3.3,2.9-5.1c0.8-1.7,1.1-3.6,0.8-5.5
			c-0.4-1.8-1.2-3.6-2.3-5.2c-2.3-3.2-5.1-5.9-8.1-8.6l0.1-0.1c3.2,2.4,6.3,4.9,8.7,8.1c1.2,1.6,2.3,3.4,2.7,5.5
			c0.4,2.1,0,4.2-0.8,6.1c-0.8,1.9-2,3.5-3.1,5.2l-1.7,2.4c-0.6,0.8-1.1,1.6-1.8,2.4c-1.3,1.5-2.8,3-4.8,3.6c-2,0.6-4.2-0.1-5.6-1.6
			l-0.1-0.1l0-0.1c0.3-0.7,0.6-1.4,0.7-2.2c0-0.4,0.1-0.8,0-1.1c0-0.4-0.2-0.8-0.3-1l0,0c-2.1-1.3-3.8-3.2-5-5.3
			c-1.2-2.1-2-4.5-2.5-6.8c-0.5-2.4-0.8-4.8-0.8-7.2C92.7,45.9,92.8,43.5,93.3,41.2L93.3,41.2z"/>
	</g>
	<g>
		<path class="st11" d="M82.9,28c0,0,29.2,6.8,48.2-7.7c0,0,2.9,25.9-19.5,29.1C111.5,49.4,90.7,51.4,82.9,28z"/>
		<path d="M82.9,28c4.1,0.7,8.3,1.1,12.4,1.2c4.2,0.1,8.3,0,12.5-0.6c4.1-0.5,8.2-1.4,12.1-2.7c2-0.7,3.9-1.5,5.7-2.4
			c1.8-1,3.6-2.1,5.3-3.3l0.2-0.2l0,0.3c0.3,3.2,0.1,6.5-0.4,9.7c-0.5,3.2-1.5,6.4-3.1,9.3c-1.6,2.9-3.8,5.4-6.6,7.2
			c-2.8,1.8-6,2.9-9.2,3.4c-1.7,0.2-3.3,0-5-0.1c-1.6-0.2-3.2-0.6-4.8-1c-3.2-0.9-6.1-2.5-8.7-4.5C88.1,40.2,84.7,34.2,82.9,28
			L82.9,28L82.9,28z M83,28.1c1.1,3,2.5,5.9,4.3,8.5c1.8,2.6,4,5,6.6,6.9c2.6,1.9,5.5,3.3,8.5,4.2c1.5,0.5,3.1,0.8,4.7,1
			c1.6,0.2,3.2,0.3,4.7,0.1c3.1-0.5,6.2-1.4,8.9-3.1c2.7-1.7,4.9-4.1,6.5-6.8c1.6-2.7,2.7-5.8,3.3-9c0.6-3.2,0.8-6.4,0.5-9.6
			l0.3,0.1c-3.3,2.6-7.1,4.6-11,6.1c-3.9,1.5-8.1,2.5-12.2,3c-4.2,0.5-8.4,0.6-12.6,0.4C91.2,29.6,87,29.1,83,28.1z"/>
	</g>
	<path class="st1" d="M116,39.6c-9.2,3.9-21.6,2.3-30-4.7c9.1,16.1,25.6,14.5,25.6,14.5c17.9-2.5,19.7-19.6,19.6-26.3
		C127.9,30.7,124,37.3,116,39.6z"/>
	<g>
		<defs>
			<path id="SVGID_3_" d="M83.1,28c0,0,29.2,6.8,48.2-7.7c0,0,2.9,25.9-19.5,29.1C111.7,49.4,90.9,51.4,83.1,28z"/>
		</defs>
		<clipPath id="SVGID_4_">
			<use xlink:href="#SVGID_3_"  style="overflow:visible;"/>
		</clipPath>
		<g class="st7">
			<g>
				<path d="M87.3,27.8c1,2.8,2.3,5.4,3.8,8c1.4,2.6,3.2,5,5.4,6.9c2.2,2,4.7,3.5,7.4,4.6c2.7,1.1,5.6,1.7,8.6,1.9v0
					c-3,0.1-6-0.3-8.8-1.4c-2.8-1.1-5.3-2.8-7.4-4.9c-2.1-2.1-4-4.4-5.6-6.9C89.2,33.4,88,30.7,87.3,27.8L87.3,27.8z"/>
			</g>
			<g>
				<path d="M91,27.8c1,2.8,2.3,5.4,3.8,8c1.4,2.6,3.2,5,5.4,6.9c2.2,2,4.7,3.5,7.4,4.6c2.7,1.1,5.6,1.7,8.6,1.9v0
					c-3,0.1-6-0.3-8.8-1.4c-2.8-1.1-5.3-2.8-7.4-4.9c-2.1-2.1-4-4.4-5.6-6.9C92.9,33.4,91.6,30.7,91,27.8L91,27.8z"/>
			</g>
			<g>
				<path d="M94.6,27.8c1,2.8,2.3,5.4,3.8,8c1.4,2.6,3.2,5,5.4,6.9c2.2,2,4.7,3.5,7.4,4.6c2.7,1.1,5.6,1.7,8.6,1.9v0
					c-3,0.1-6-0.3-8.8-1.4c-2.8-1.1-5.3-2.8-7.4-4.9c-2.1-2.1-4-4.4-5.6-6.9C96.5,33.4,95.3,30.7,94.6,27.8L94.6,27.8z"/>
			</g>
			<g>
				<path d="M96.4,25.3c1,2.8,2.3,5.4,3.8,8c1.4,2.6,3.2,5,5.4,6.9c2.2,2,4.7,3.5,7.4,4.6c2.7,1.1,5.6,1.7,8.6,1.9v0
					c-3,0.1-6-0.3-8.8-1.4c-2.8-1.1-5.3-2.8-7.4-4.9c-2.1-2.1-4-4.4-5.6-6.9C98.3,30.9,97.1,28.2,96.4,25.3L96.4,25.3z"/>
			</g>
			<g>
				<path d="M100,23.3c1,2.8,2.3,5.4,3.8,8c1.4,2.6,3.2,5,5.4,6.9c2.2,2,4.7,3.5,7.4,4.6c2.7,1.1,5.6,1.7,8.6,1.9v0
					c-3,0.1-6-0.3-8.8-1.4c-2.8-1.1-5.3-2.8-7.4-4.9c-2.1-2.1-4-4.4-5.6-6.9C101.8,29,100.6,26.2,100,23.3L100,23.3z"/>
			</g>
			<g>
				<path d="M103.6,20.8c1,2.8,2.3,5.4,3.8,8c1.4,2.6,3.2,5,5.4,6.9c2.2,2,4.7,3.5,7.4,4.6c2.7,1.1,5.6,1.7,8.6,1.9v0
					c-3,0.1-6-0.3-8.8-1.4c-2.8-1.1-5.3-2.8-7.4-4.9c-2.1-2.1-4-4.4-5.6-6.9C105.5,26.5,104.2,23.7,103.6,20.8L103.6,20.8z"/>
			</g>
			<g>
				<path d="M107.2,18.6c1,2.8,2.3,5.4,3.8,8c1.4,2.6,3.2,5,5.4,6.9c2.2,2,4.7,3.5,7.4,4.6c2.7,1.1,5.6,1.7,8.6,1.9v0
					c-3,0.1-6-0.3-8.8-1.4c-2.8-1.1-5.3-2.8-7.4-4.9c-2.1-2.1-4-4.4-5.6-6.9C109.1,24.3,107.9,21.5,107.2,18.6L107.2,18.6z"/>
			</g>
			<g>
				<path d="M111.7,14.5c1,2.8,2.3,5.4,3.8,8c1.4,2.6,3.2,5,5.4,6.9c2.2,2,4.7,3.5,7.4,4.6c2.7,1.1,5.6,1.7,8.6,1.9v0
					c-3,0.1-6-0.3-8.8-1.4c-2.8-1.1-5.3-2.8-7.4-4.9c-2.1-2.1-4-4.4-5.6-6.9C113.5,20.2,112.3,17.5,111.7,14.5L111.7,14.5z"/>
			</g>
			<g>
				<path d="M116.2,10.9c1,2.8,2.3,5.4,3.8,8c1.4,2.6,3.2,5,5.4,6.9c2.2,2,4.7,3.5,7.4,4.6c2.7,1.1,5.6,1.7,8.6,1.9v0
					c-3,0.1-6-0.3-8.8-1.4c-2.8-1.1-5.3-2.8-7.4-4.9c-2.1-2.1-4-4.4-5.6-6.9C118.1,16.6,116.8,13.8,116.2,10.9L116.2,10.9z"/>
			</g>
			<g>
				<path d="M118.6,7.1c1,2.8,2.3,5.4,3.8,8c1.4,2.6,3.2,5,5.4,6.9c2.2,2,4.7,3.5,7.4,4.6c2.7,1.1,5.6,1.7,8.6,1.9v0
					c-3,0.1-6-0.3-8.8-1.4c-2.8-1.1-5.3-2.8-7.4-4.9c-2.1-2.1-4-4.4-5.6-6.9C120.5,12.8,119.3,10,118.6,7.1L118.6,7.1z"/>
			</g>
		</g>
	</g>
	<g>
		<path d="M69.1,39.6c-1.5,2.6-3.2,4.5-5.9,3.1c-2.7-1.5-3.6-4.8-2.1-7.5c1.5-2.6,4.8-3.6,7.5-2.1C71.1,34.6,70.5,37,69.1,39.6z"/>
		<circle class="st12" cx="62.7" cy="37.2" r="1.3"/>
	</g>
	<g>
		<path d="M30.7,35.1c-1.7,1.3-3.1,2-2.9,0.2c0.2-1.7,1.8-4.2,3.6-5.5c1.7-1.3,3-0.9,2.7,0.9C33.8,32.5,32.4,33.8,30.7,35.1z"/>
		<path class="st12" d="M30.9,32c-0.4,0.5-0.8,0.7-1,0.5c-0.2-0.2,0-0.8,0.4-1.3c0.4-0.5,0.8-0.7,1-0.5C31.5,31,31.3,31.6,30.9,32z"
			/>
	</g>
	<ellipse cx="32.5" cy="47.7" rx="1.4" ry="2.9"/>
	<ellipse cx="22.4" cy="45.8" rx="0.7" ry="1.5"/>
	<g>
		<path class="st15" d="M22.7,45.8c0,0-8.9,11.5-1.4,13c7.5,1.5,13.3-2,11.2-11.1l1.4-0.5c0,0,4.7,18.4-12.6,13.2
			C21.3,60.4,12.3,58,22.7,45.8z"/>
		<g>
			<path d="M22.7,45.8c-0.8,1.2-1.6,2.5-2.2,3.8c-0.7,1.3-1.3,2.7-1.6,4.1c-0.3,1.4-0.4,2.9,0.6,3.8c0.5,0.4,1.1,0.7,1.8,0.8
				c0.7,0.2,1.4,0.3,2.1,0.3c1.4,0.1,2.9,0.1,4.3-0.3c1.4-0.4,2.7-1.1,3.6-2.2c0.9-1.1,1.4-2.6,1.5-4c0.1-1.5-0.1-2.9-0.4-4.4l0-0.2
				l0.2-0.1l1.4-0.5l0.2-0.1l0.1,0.2c0.4,1.7,0.7,3.5,0.7,5.3c0,1.8-0.2,3.6-1,5.3c-0.4,0.8-0.9,1.6-1.6,2.3
				c-0.7,0.6-1.5,1.1-2.4,1.4C28,62,26.2,62,24.4,61.7c-0.9-0.1-1.8-0.3-2.6-0.6l-0.6-0.2c-0.2-0.1-0.5-0.2-0.7-0.3
				c-0.4-0.2-0.8-0.4-1.2-0.7c-0.7-0.6-1.4-1.4-1.7-2.3c-0.3-0.9-0.4-1.9-0.3-2.8c0.2-1.8,1.1-3.5,2-5C20.3,48.4,21.4,47,22.7,45.8
				L22.7,45.8z M22.7,45.8c-1.1,1.4-2,2.8-2.9,4.3c-0.8,1.5-1.5,3.1-1.7,4.8c-0.1,0.8,0,1.6,0.3,2.4c0.3,0.7,0.8,1.4,1.4,1.8
				c0.3,0.2,0.7,0.4,1,0.6c0.2,0.1,0.4,0.2,0.5,0.2l0.6,0.2c0.8,0.2,1.7,0.4,2.5,0.5c1.7,0.2,3.4,0.3,5-0.2c1.6-0.5,2.8-1.6,3.6-3.1
				c0.7-1.5,1-3.2,1.1-4.9c0.1-1.7-0.1-3.5-0.4-5.1l0.3,0.2l-1.4,0.4l0.1-0.2c0.3,1.5,0.5,3,0.4,4.5c-0.1,1.5-0.5,3-1.5,4.3
				c-0.9,1.3-2.3,2.1-3.7,2.6c-1.5,0.5-3,0.6-4.5,0.5c-0.8-0.1-1.5-0.2-2.3-0.3c-0.8-0.2-1.6-0.5-2.2-1.1c-0.6-0.6-0.9-1.5-1-2.3
				c-0.1-0.8,0.1-1.6,0.3-2.3C19.1,50.6,20.7,48.1,22.7,45.8L22.7,45.8z"/>
		</g>
	</g>
	<path class="st13" d="M73.4,52c-0.4,1.3-5.2,0.9-10.7-1c-5.5-1.8-9.6-4.4-9.1-5.7c0.4-1.3,5.2-0.9,10.7,1
		C69.8,48.2,73.9,50.7,73.4,52z"/>
	<path class="st12" d="M70.8,48.8c-0.2,0.5-1.1,0.6-2.1,0.2c-1-0.3-1.7-1-1.5-1.5c0.2-0.5,1.1-0.6,2.1-0.2
		C70.3,47.7,71,48.4,70.8,48.8z"/>
	<path class="st8" d="M50.1,86c-0.3,1.2-3.5,1.3-7,0.3c-3.5-1-6.1-2.8-5.8-4c0.3-1.2,3.5-1.3,7-0.3C47.9,83,50.5,84.8,50.1,86z"/>
	<ellipse transform="matrix(0.9607 0.2776 -0.2776 0.9607 25.2021 -10.168)" class="st12" cx="48.5" cy="83.9" rx="2.1" ry="0.7"/>
	<path d="M46.4,79.8c1.2-1.4,0.7-3.9-1.1-5.4c-1.8-1.5-4.3-1.5-5.5-0.1c-1.2,1.4-0.7,3.8,1.1,5.3C42.8,81.1,45.3,81.2,46.4,79.8z"/>
	<path class="st12" d="M41.2,76.4c0-0.5-0.3-0.9-0.7-1c-0.4,0-0.7,0.4-0.7,0.9c0,0.5,0.3,0.9,0.7,0.9C40.9,77.4,41.2,76.9,41.2,76.4
		z"/>
	<g>
		<ellipse transform="matrix(-0.9353 -0.3539 0.3539 -0.9353 25.5769 179.7521)" class="st9" cx="29.2" cy="87.5" rx="6" ry="4.2"/>
		<path d="M23.6,85.4c0.5-1.3,1.8-2,3.1-2.3c1.3-0.3,2.7-0.1,4.1,0.3c1.3,0.4,2.6,1.2,3.5,2.2c0.5,0.5,0.9,1.2,1.1,1.9
			c0.2,0.7,0.2,1.5-0.1,2.3c-0.3,0.7-0.8,1.4-1.5,1.7c-0.6,0.4-1.4,0.6-2.1,0.7c-1.4,0.2-2.8-0.1-4.1-0.6c-1.3-0.5-2.4-1.4-3.2-2.5
			C23.6,88.1,23.1,86.7,23.6,85.4z M23.6,85.4c-0.5,1.3,0.1,2.7,0.9,3.7c0.9,1,2.1,1.7,3.3,2.1c1.2,0.4,2.6,0.5,3.8,0.3
			c1.2-0.2,2.4-0.9,2.7-2c0.4-1,0-2.3-0.8-3.3c-0.8-1-1.8-1.8-3-2.3c-1.2-0.5-2.5-0.8-3.9-0.6C25.5,83.4,24.1,84.1,23.6,85.4z"/>
	</g>
	<g>
		<path class="st12" d="M34.3,86.5c-0.7-1.2-2-2.2-3.6-2.8c-3.1-1.2-6.3-0.4-7.1,1.8c-0.2,0.5-0.2,1.1-0.1,1.6
			C27.2,86.6,30.8,86.3,34.3,86.5z"/>
		<path d="M34.3,86.5c-0.7-1-1.7-1.7-2.7-2.2c-1.1-0.5-2.2-0.8-3.4-0.9c-1.2-0.1-2.4,0.1-3.3,0.8c-0.9,0.6-1.5,1.8-1.2,2.9l-0.3-0.2
			c1.8-0.2,3.6-0.4,5.4-0.4c0.9,0,1.8,0,2.7,0C32.5,86.3,33.4,86.4,34.3,86.5z M34.3,86.5c-0.9,0-1.8,0-2.7,0.1
			c-0.9,0.1-1.8,0.1-2.7,0.2c-1.8,0.2-3.6,0.3-5.4,0.6l-0.2,0l0-0.2c-0.1-0.6-0.1-1.3,0.2-1.9c0.3-0.6,0.7-1.1,1.2-1.4
			c1.1-0.7,2.4-0.9,3.6-0.8C30.7,83.1,33.1,84.4,34.3,86.5z"/>
	</g>
	<g>
		<path class="st10" d="M161.1,115.5c0,0,15.5-8.2,21.5,13.4c6,21.6-7.7,21,7.5,34.4h-1.8c0,0-9.7-7.5-7.1-18
			c2.7-10.5-2.5-31.9-17-28C164.3,117.3,160.4,119.4,161.1,115.5z"/>
		<path d="M161.1,115.5c2.5-1.3,5.3-1.9,8.2-1.7c2.8,0.2,5.6,1.5,7.6,3.5c2.1,2,3.5,4.5,4.6,7.1c1.1,2.6,1.8,5.4,2.4,8.1
			c0.5,2.8,0.8,5.6,0.6,8.4c-0.1,2.8-0.8,5.6-1.4,8.3c-0.3,1.4-0.4,2.8-0.2,4.1c0.2,1.4,0.9,2.6,1.6,3.8c1.6,2.3,3.6,4.2,5.7,6
			l0.5,0.5l-0.7,0l-1.8,0l-0.1,0l-0.1-0.1c-2-1.6-3.6-3.5-5-5.6c-1.4-2.1-2.3-4.5-2.7-7c-0.2-1.3-0.2-2.5,0-3.8
			c0.1-0.6,0.2-1.3,0.3-1.9c0.1-0.6,0.3-1.2,0.4-1.8c0.3-2.4,0.4-4.8,0.2-7.3c-0.2-2.4-0.7-4.8-1.4-7.1c-0.7-2.3-1.7-4.6-3.1-6.6
			c-1.4-2-3.2-3.7-5.4-4.6c-2.2-1-4.7-1-7.1-0.4l0,0c-0.4,0.2-0.8,0.3-1.3,0.4c-0.4,0.1-0.9,0.1-1.3,0c-0.5-0.2-0.7-0.6-0.8-1.1
			C160.9,116.4,161,115.9,161.1,115.5L161.1,115.5L161.1,115.5z M161.1,115.6c-0.1,0.4-0.1,0.8,0,1.2c0.1,0.4,0.3,0.8,0.7,0.9
			c0.4,0.1,0.8,0.1,1.2-0.1c0.4-0.1,0.8-0.3,1.1-0.5l0,0l0,0c2.4-0.7,5-0.8,7.4,0.1c2.4,0.9,4.4,2.7,5.8,4.7
			c2.9,4.1,4.3,9.1,4.8,14.1c0.2,2.5,0.2,5-0.2,7.5c-0.1,0.6-0.2,1.3-0.4,1.9c-0.1,0.6-0.3,1.2-0.3,1.8c-0.2,1.2-0.2,2.4,0,3.6
			c0.6,4.8,3.5,9.1,7.1,12.3l-0.2-0.1l1.8,0l-0.2,0.5c-2.1-1.9-4.1-3.9-5.6-6.2c-0.8-1.2-1.4-2.5-1.6-3.9c-0.2-1.4-0.1-2.8,0.1-4.2
			c0.2-1.4,0.6-2.7,0.8-4.1c0.2-1.4,0.4-2.8,0.4-4.1c0.1-2.8-0.3-5.5-0.8-8.2c-0.6-2.7-1.3-5.4-2.4-7.9c-1-2.5-2.4-5-4.4-6.9
			c-1.9-1.9-4.4-3.2-7.2-3.6C166.5,114,163.7,114.5,161.1,115.6z"/>
	</g>
	<path class="st0" d="M187.3,160.7c0.2,0.5,0.4,1,0.6,1.5C187.7,161.6,187.5,161.2,187.3,160.7c-6.2-6.3-4.8-9.2-3.7-14.6
		c-1.4-13.5-2-25.9-14.8-32c-4.3-0.3-7.7,1.5-7.7,1.5c-0.7,3.9,3.2,1.8,3.2,1.8c14.5-3.9,19.6,17.5,17,28c-2.7,10.5,7.1,18,7.1,18
		h1.8C189,162.4,188.1,161.5,187.3,160.7z"/>
	<path class="st16" d="M186.8,160.6c2-1.2,5.5,1,7.8,4.8c2.3,3.9,0.4,9.1,0.4,9.1s-6.7-3.9-8.7-6.1
		C183.3,165.2,184.7,161.8,186.8,160.6z"/>
	<path class="st0" d="M194,164.6c-2.7-1.2-5.7-1.9-9.2-1.5c-0.5,1.5-0.3,3.5,1.4,5.4c2,2.2,8.7,6.1,8.7,6.1s1.9-5.3-0.4-9.1
		C194.4,165.1,194.2,164.9,194,164.6z"/>
	<g>
		<g>
			<path d="M194.9,174.6c-1.2-0.7-2.3-1.4-3.3-2.3s-2-1.8-3-2.8c-0.9-1-1.7-2.1-2.3-3.3c-0.6-1.2-1-2.6-0.8-3.9
				c0,1.3,0.5,2.6,1.1,3.7c0.7,1.1,1.5,2.2,2.4,3.2c0.9,1,1.8,1.9,2.8,2.8C192.9,172.9,193.9,173.7,194.9,174.6z"/>
		</g>
		<g>
			<path d="M187.5,160.3c1.3,0.4,2.5,1,3.5,1.9c1,0.9,1.8,2,2.5,3.2c0.6,1.2,1,2.5,1.3,3.8c0.3,1.3,0.4,2.6,0.3,4
				c-0.1-1.3-0.3-2.6-0.6-3.9c-0.3-1.3-0.8-2.5-1.4-3.6c-0.6-1.2-1.4-2.2-2.3-3.1C189.8,161.6,188.7,160.9,187.5,160.3z"/>
		</g>
		<g>
			<path d="M186.8,160.6c1.4,2.3,2.8,4.5,4.1,6.8l4,6.9l0.7,1.2l-1.1-0.9c-1.1-0.9-2.1-1.9-3.1-2.9c-1-1-1.9-2.1-2.7-3.2
				c-0.8-1.2-1.5-2.4-2-3.7C186.3,163.4,186.2,161.9,186.8,160.6z M186.8,160.6c-0.5,1.3-0.3,2.8,0.2,4c0.5,1.3,1.2,2.5,2.1,3.6
				c1.7,2.2,3.6,4.2,5.8,5.9l-0.4,0.3l-3.9-6.9C189.3,165.3,188,163,186.8,160.6z"/>
		</g>
		<g>
			<path d="M193.7,172.8c-0.8-0.7-1.6-1.5-2.3-2.3c-0.7-0.8-1.4-1.7-2-2.6c-0.6-0.9-1.1-1.9-1.5-2.9c-0.4-1-0.7-2.1-0.6-3.2
				c0.1,1.1,0.5,2.1,0.9,3c0.5,1,1,1.9,1.6,2.8C191,169.5,192.3,171.1,193.7,172.8z"/>
		</g>
		<g>
			<path d="M195.2,173.8c-1.2-2.1-2.4-4.1-3.5-6.2c-1.2-2.1-2.3-4.1-3.7-6.1c0.8,0.9,1.6,1.8,2.2,2.8c0.7,1,1.3,2,1.9,3
				C193.2,169.4,194.3,171.6,195.2,173.8z"/>
		</g>
		<g>
			<path d="M194.5,171.9c-0.6-2-1.4-3.9-2.5-5.7c-0.5-0.9-1.1-1.7-1.7-2.6c-0.6-0.8-1.3-1.6-2-2.3c1.7,1.2,3.1,2.8,4.2,4.7
				c0.5,0.9,1,1.9,1.3,2.9C194.1,169.8,194.4,170.8,194.5,171.9z"/>
		</g>
	</g>
</g>
<g>
	<g>
		
			<radialGradient id="SVGID_5_" cx="138.1338" cy="183.6934" r="99.5681" gradientTransform="matrix(2.575285e-002 1.4686 -0.6056 3.372602e-002 231.3222 -77.4338)" gradientUnits="userSpaceOnUse">
			<stop  offset="0" style="stop-color:#2EA3D4"/>
			<stop  offset="0.2056" style="stop-color:#31A7D6;stop-opacity:0.7944"/>
			<stop  offset="0.4156" style="stop-color:#3AB3DC;stop-opacity:0.5844"/>
			<stop  offset="0.6276" style="stop-color:#4AC8E5;stop-opacity:0.3724"/>
			<stop  offset="0.8396" style="stop-color:#5FE4F2;stop-opacity:0.1604"/>
			<stop  offset="1" style="stop-color:#73FFFF;stop-opacity:0"/>
		</radialGradient>
		<path class="st14" d="M233.8,118.9v95.3L16.1,224.5l1.4-108.3c0,0,6.5-9.5,34.9,2.7c28.4,12.2,25.9-21.5,74.9-6.2
			c48.9,15.3,30.4-12.1,62.3-4c31.9,8,44.1,7.6,44.1,7.6"/>
	</g>
	<g>
		<g>
			<path class="st4" d="M17.6,116.2c0.7-0.9,1.8-1.6,2.8-2.1c1.1-0.5,2.2-0.9,3.4-1.1c2.3-0.5,4.7-0.5,7-0.4
				c4.7,0.3,9.3,1.5,13.8,2.9c2.2,0.7,4.4,1.6,6.6,2.5c2.2,0.9,4.3,1.8,6.6,2.4c2.2,0.6,4.6,0.9,6.9,0.8c2.3-0.1,4.6-0.6,6.8-1.4
				c4.3-1.7,8.2-4.4,12.4-6.5c4.2-2.2,8.7-3.9,13.4-4.6c4.7-0.8,9.5-0.7,14.2-0.1c4.7,0.6,9.3,1.6,13.9,2.9c4.5,1.4,9,2.8,13.5,3.8
				c4.6,1,9.2,1.8,13.8,1.6c2.3-0.1,4.6-0.4,6.8-1.1c2.2-0.7,4.2-1.9,6-3.4c1.9-1.4,3.7-3,5.9-4c2.2-1.1,4.6-1.6,7-1.7
				c4.8-0.2,9.4,1,14,2.2c4.6,1.1,9.1,2.2,13.7,3.2c4.6,1,9.2,1.9,13.8,2.6c4.6,0.7,9.3,1.4,14,1.4c-4.7,0-9.4-0.6-14-1.2
				c-4.7-0.7-9.3-1.5-13.9-2.4c-4.6-0.9-9.2-2-13.8-3.1c-4.5-1.1-9.1-2.2-13.8-2c-2.3,0.1-4.6,0.6-6.6,1.6c-2.1,1-3.8,2.5-5.7,4
				c-1.9,1.4-4,2.7-6.2,3.5c-2.3,0.8-4.7,1.1-7.1,1.2c-4.8,0.1-9.5-0.6-14.1-1.6c-4.6-1-9.1-2.4-13.6-3.7c-4.5-1.3-9.1-2.4-13.7-2.9
				c-4.6-0.6-9.3-0.6-13.9,0.1c-4.6,0.7-9,2.3-13.1,4.5c-4.1,2.1-8.1,4.8-12.5,6.5c-2.2,0.8-4.6,1.3-7,1.4c-2.4,0.1-4.8-0.3-7.1-0.9
				c-2.3-0.6-4.5-1.5-6.6-2.5c-2.2-0.9-4.3-1.8-6.6-2.5c-4.4-1.5-9-2.8-13.7-3.2c-2.3-0.2-4.7-0.2-7,0.3c-1.1,0.2-2.3,0.5-3.3,1
				C19.3,114.6,18.3,115.3,17.6,116.2z"/>
		</g>
	</g>
</g>
</svg>
