<?xml version="1.0" encoding="utf-8"?>
<!-- Generator: Adobe Illustrator 15.1.0, SVG Export Plug-In . SVG Version: 6.00 Build 0)  -->
<!DOCTYPE svg PUBLIC "-//W3C//DTD SVG 1.1//EN" "http://www.w3.org/Graphics/SVG/1.1/DTD/svg11.dtd">
<svg version="1.1" id="pig" xmlns="http://www.w3.org/2000/svg" xmlns:xlink="http://www.w3.org/1999/xlink" x="0px" y="0px"
	 width="192px" height="171.8px" viewBox="0 0 192 171.8" style="enable-background:new 0 0 192 171.8;" xml:space="preserve">
<style type="text/css">
<![CDATA[
	.st0{opacity:0.59;fill:#FFA6A6;}
	.st1{fill:none;stroke:#000000;stroke-width:0.75;stroke-miterlimit:10;}
	.st2{fill:#4C2600;}
	.st3{fill:#F2CDC0;stroke:#000000;stroke-miterlimit:10;}
	.st4{opacity:0.37;fill:#B28476;}
	.st5{fill:#231F20;}
	.st6{fill:#F2CDC0;}
	.st7{fill:#F9D3AA;}
	.st8{fill:#FFE6D9;}
	.st9{fill:#FFFFFF;}
	.st10{opacity:0.39;fill:#B7A286;}
	.st11{opacity:0.37;fill:#997858;}
	.st12{fill:#D1AF8F;}
	.st13{opacity:0.5;fill:url(#SVGID_1_);}
]]>
</style>
<g>
	<g>
		<path class="st6" d="M68.1,93.4c0,0-57.9,11,12,6.4C80.1,99.8,82.2,93,68.1,93.4z"/>
		<path d="M68.1,93.5c-4.8,0.9-9.5,2.3-14.2,3.5c-1.2,0.3-2.4,0.6-3.5,0.9c-1.2,0.3-2.3,0.7-3.4,1.1c-0.3,0.1-0.5,0.2-0.8,0.4
			c-0.2,0.1-0.4,0.4-0.4,0.4c0,0.1,0.3,0.3,0.6,0.3c0.3,0.1,0.6,0.2,0.9,0.2c1.2,0.2,2.4,0.3,3.6,0.4c4.9,0.2,9.7-0.3,14.6-0.5
			c4.9-0.3,9.7-0.6,14.6-0.9l-0.5,0.4c0.3-1,0-2.3-0.7-3.2c-0.8-0.9-1.9-1.6-3.1-2c-1.2-0.4-2.5-0.7-3.8-0.9
			C70.7,93.5,69.4,93.4,68.1,93.5z M68.1,93.4c1.3,0,2.6,0,3.9,0c1.3,0.1,2.6,0.2,3.9,0.6c1.3,0.4,2.6,0.9,3.5,2
			c1,1.1,1.5,2.6,1.1,4.1l-0.1,0.3l-0.4,0c-4.9,0.4-9.7,0.6-14.6,0.8c-4.9,0.1-9.8,0.1-14.6,0c-1.2,0-2.4-0.1-3.7-0.3
			c-0.3,0-0.6-0.1-0.9-0.2c-0.2,0-0.3-0.1-0.5-0.2c-0.2-0.1-0.3-0.2-0.5-0.4c-0.1-0.3,0.1-0.5,0.2-0.7c0.1-0.1,0.3-0.2,0.4-0.3
			c0.3-0.2,0.5-0.3,0.8-0.5c2.3-1.1,4.6-1.7,7-2.4C58.5,94.9,63.3,94.3,68.1,93.4L68.1,93.4L68.1,93.4z"/>
	</g>
	<path class="st4" d="M68.1,93.4c0,0-57.9,11,12,6.4C80.1,99.8,82.2,93,68.1,93.4z"/>
	<g>
		<path class="st6" d="M150,95.8c0,0,24.4,4.2,29.9,9.4c5.5,5.2-19.3,3.7-19.3,3.7S145.1,107.4,150,95.8z"/>
		<g>
			<path d="M150,95.8c3.1,0.4,6.1,0.9,9.2,1.5c3,0.6,6.1,1.4,9,2.3c3,1,5.9,2.1,8.7,3.5c0.7,0.4,1.4,0.8,2,1.2
				c0.6,0.4,1.3,0.9,1.7,1.6c0.2,0.3,0.3,0.9,0,1.3c-0.2,0.4-0.6,0.6-1,0.8c-0.7,0.4-1.5,0.6-2.3,0.8c-3.1,0.7-6.2,0.8-9.3,0.9
				c-1.6,0-3.1,0-4.7,0c-0.8,0-1.6,0-2.3-0.1c-0.8,0-1.6-0.2-2.4-0.3c-1.5-0.3-3.1-0.8-4.5-1.5c-1.4-0.7-2.8-1.6-3.8-2.9
				c-1.1-1.2-1.6-2.9-1.6-4.5C148.8,98.7,149.3,97.2,150,95.8L150,95.8L150,95.8z M150,95.9c-0.5,1.4-0.8,3-0.7,4.4
				c0.1,1.5,0.7,2.9,1.7,4c1,1.1,2.3,1.9,3.7,2.5c1.4,0.6,2.8,1,4.3,1.3c0.7,0.1,1.5,0.3,2.2,0.3l2.3,0.1c1.5,0.1,3.1,0.1,4.6,0.1
				c3.1,0,6.2,0,9.2-0.5c0.7-0.1,1.5-0.3,2.2-0.6c0.3-0.2,0.7-0.4,0.8-0.6c0.2-0.3,0.1-0.6,0-0.9c-0.4-0.6-1-1.1-1.6-1.5
				c-0.6-0.4-1.3-0.8-2-1.1c-2.8-1.3-5.8-2.2-8.7-3C162,98.7,156,97.3,150,95.9z"/>
		</g>
	</g>
	<path class="st4" d="M174.1,102c-8.5-0.2-17-0.9-25-3.5c-1.5,9.1,11.4,10.4,11.4,10.4s24.7,1.4,19.3-3.7
		C178.7,104.1,176.6,103,174.1,102z"/>
	<path class="st3" d="M72.2,49c-14-2.3-28.7-8.2-40.3-17.5c-1.7,4.1,0.7,10.6,2.5,15c7,17.2,2.1,32,24,33
		C66.7,72.7,73.1,62.8,72.2,49z"/>
	<g>
		<path class="st7" d="M92.3,60.5c-2.1,12.5-3.9,23.8-34.8,17.5c-28-5.7-29.1-14.2-20.6-26.7C44.2,40.8,47.9,29.9,65,32.7
			C82.2,35.6,94.4,48,92.3,60.5z"/>
		<g>
			<path d="M92.3,60.5c-0.6,3.5-1.1,7-2.5,10.4c-0.7,1.7-1.6,3.2-2.9,4.5c-1.2,1.3-2.8,2.3-4.5,3.1c-3.3,1.5-7,1.8-10.6,1.8
				c-3.6,0-7.1-0.5-10.7-1.1c-3.5-0.6-7-1.4-10.4-2.4c-3.4-1-6.8-2.1-10.1-3.6c-1.6-0.8-3.2-1.7-4.6-2.8c-1.4-1.1-2.7-2.5-3.4-4.1
				c-0.8-1.6-1-3.5-0.7-5.3c0.3-1.8,0.9-3.5,1.7-5.1c0.8-1.6,1.7-3.1,2.7-4.6c1-1.5,1.9-3,2.9-4.5c1.9-3,3.7-6.1,6.1-8.8
				c1.2-1.3,2.6-2.6,4.1-3.6c1.5-1,3.2-1.7,5-2.2c3.6-0.9,7.3-0.7,10.8-0.1c7.1,1.2,13.9,4.3,19.2,9.2c2.6,2.4,4.8,5.4,6.3,8.6
				C92.4,53.4,93,57,92.3,60.5z M92.2,60.5c0.6-3.5,0-7.1-1.5-10.3c-1.5-3.2-3.8-6-6.4-8.3c-5.4-4.6-12-7.4-18.9-8.6
				c-3.4-0.6-7-0.8-10.4,0.1c-3.4,0.8-6.3,2.8-8.7,5.4c-2.4,2.6-4.2,5.6-6.2,8.6c-1,1.5-1.9,3-3,4.4c-1,1.4-2,2.9-2.8,4.5
				c-0.8,1.6-1.5,3.2-1.8,4.9c-0.3,1.7-0.2,3.5,0.6,5.1c0.7,1.6,1.9,2.9,3.3,4c1.4,1.1,2.9,1.9,4.5,2.7c3.2,1.5,6.6,2.5,10.1,3.4
				c3.4,0.8,6.9,1.5,10.4,2.1c3.5,0.6,7,0.9,10.5,1c3.5,0.1,7.1-0.2,10.3-1.5c1.6-0.6,3.1-1.6,4.4-2.8c1.3-1.2,2.2-2.7,2.9-4.3
				C91.1,67.6,91.6,64,92.2,60.5z"/>
		</g>
	</g>
	<g>
		<path class="st11" d="M73.8,35.1c-0.5,2.7-1,5.4-1.4,8.1c-5.6-5.2-15.2-7.8-31.4-0.5c0,0-2.7,5.7,0,7.9c0,0,1.1,2.8-1.2,1.8
			c0,0,4.4,2,2.8-3.9c0,0,2.4,4.8,5.4,5.1c-0.4,0.7-0.8,1.3-1.2,1.6c2-0.5,7.4-2.1,8.1-5.9c0,0,0.8,4,3.4,3.8l2.6-5.2
			c0,0,4.6,7.1,0,8.5c0,0,4.1,0.2,4.9-2.5c0,1,0.4,2.5,2.6,3.1c0,0,0.4,0.3,0.9,0.9c-1.4,4.1-3.4,7.8-6.5,10.9
			c-6.9,6.3-18.8,4.8-28.1-0.1c3.3,3.7,10.5,6.8,22.9,9.3c30.9,6.2,32.7-5,34.8-17.5C94,50.3,86.1,40.1,73.8,35.1z M48.3,52.9
			c-1-1.1-2.2-3.2,1.8-4.7C50.1,48.2,49.3,50.8,48.3,52.9z"/>
		<path class="st11" d="M46.2,55.5c0.2,0,0.3-0.1,0.5-0.2C46,55.5,45.8,55.5,46.2,55.5z"/>
	</g>
	<g>
		<path class="st2" d="M40.9,41c0,0-2.7,5.7,0,7.9c0,0,1.1,2.8-1.2,1.8c0,0,4.4,2,2.8-3.9c0,0,3.1,6.1,6.5,5c0,0-4.5-3.4,1-5.4
			c0,0-2.2,7.2-3.9,7.3c-1.7,0,7.7-1,8.6-6.1c0,0,0.8,4,3.4,3.8l2.6-5.2c0,0,4.6,7.1,0,8.5c0,0,5.1,0.2,5-3.5c0,0-1.1,3.2,2.5,4.1
			c0,0,5.2,4.4-1,5.9c0,0,3.2,3.4,6.5,0c0,0-1.1,7.8-8.1,5.9c0,0,9.7,12.6,14.4-9.1C80.2,58,77.2,24.7,40.9,41z"/>
		<path d="M41,41.1c-0.5,1.3-0.9,2.6-1,4c-0.1,0.7,0,1.4,0.1,2c0.2,0.7,0.5,1.3,1,1.7l0,0l0,0c0.1,0.3,0.2,0.5,0.3,0.8
			c0.1,0.3,0.1,0.6,0,0.9c0,0.2-0.1,0.4-0.3,0.5c-0.2,0.1-0.4,0.1-0.5,0.1c-0.3,0-0.6-0.1-0.9-0.2l0.2-0.5c0.5,0.2,1,0.3,1.5,0.3
			c0.5,0,0.9-0.3,1.1-0.7c0.2-0.4,0.2-1,0.1-1.5c-0.1-0.5-0.2-1.1-0.3-1.6l-0.8-2.8l1.4,2.5c0.7,1.2,1.6,2.4,2.6,3.4
			c0.5,0.5,1.1,0.9,1.7,1.2c0.6,0.3,1.3,0.3,1.9,0.1l-0.1,0.7c-0.5-0.4-1-0.9-1.4-1.5c-0.4-0.6-0.6-1.3-0.5-2
			c0.1-0.8,0.7-1.3,1.2-1.7c0.6-0.4,1.1-0.7,1.7-0.9l0.8-0.3l-0.3,0.8c-0.5,1.6-1.1,3.2-1.8,4.7c-0.4,0.8-0.8,1.5-1.4,2.2
			c-0.2,0.2-0.3,0.3-0.6,0.5c-0.1,0.1-0.3,0.1-0.4,0.1c-0.1,0-0.1,0-0.2,0l-0.1,0l-0.1,0c0,0-0.1,0-0.2-0.1c0,0-0.1-0.1-0.1-0.1
			c-0.1-0.1-0.1-0.2-0.1-0.4c0.1-0.2,0.1-0.2,0.1-0.2l0,0c0,0,0,0,0.1,0l0.1,0c0.5-0.2,0.8-0.2,1.3-0.3c1.6-0.4,3.1-1,4.5-1.8
			c1.4-0.8,2.6-2,2.8-3.6l0.3-1.7l0.4,1.7c0.2,0.8,0.5,1.7,1,2.4c0.2,0.4,0.5,0.7,0.9,0.9c0.3,0.2,0.7,0.3,1.2,0.3l-0.2,0.1l2.7-5.2
			l0.2-0.3l0.2,0.3c0.9,1.4,1.6,2.9,1.9,4.6c0.2,0.8,0.2,1.7-0.1,2.5c-0.3,0.8-1.1,1.4-1.9,1.6l0-0.3c1.1,0,2.3-0.2,3.3-0.7
			c0.5-0.3,0.9-0.6,1.2-1.1c0.3-0.5,0.4-1,0.4-1.6l0.3,0.1c-0.2,0.8-0.2,1.8,0.3,2.5c0.4,0.7,1.3,1.2,2.1,1.4l0,0l0,0
			c0.5,0.5,1,1,1.4,1.6c0.4,0.6,0.7,1.3,0.7,2.1c0,0.8-0.6,1.5-1.2,1.9c-0.6,0.4-1.3,0.6-2,0.8l0.1-0.5c0.8,0.8,2,1.4,3.1,1.4
			c1.1,0,2.2-0.6,3-1.4l0.8-0.8l-0.2,1.1c-0.2,1-0.5,1.9-0.9,2.9c-0.4,0.9-1,1.8-1.8,2.4c-0.8,0.7-1.8,1.1-2.8,1.2
			c-1,0.1-2.1,0-3-0.3l0.5-0.7c1.2,1.4,2.7,2.7,4.5,3.2c0.9,0.3,1.8,0.3,2.6-0.1c0.8-0.3,1.6-0.9,2.2-1.6c1.2-1.4,2-3.2,2.7-5
			c0.7-1.8,1.2-3.7,1.6-5.6l0,0.2c-0.5-4.2-1.9-8.4-4.2-11.9c-2.2-3.6-5.5-6.6-9.6-8c-4-1.5-8.4-1.5-12.7-0.8
			C49.1,38,45,39.3,41,41.1z M40.9,41c3.9-1.8,8-3.4,12.3-4.2c4.3-0.8,8.8-0.9,13,0.6c4.2,1.4,7.8,4.5,10.1,8.2
			c2.4,3.8,3.8,8,4.3,12.4l0,0.1l0,0.1c-0.4,1.9-0.9,3.9-1.6,5.7c-0.7,1.9-1.6,3.7-2.9,5.3c-0.7,0.8-1.5,1.5-2.6,1.8
			c-1,0.4-2.2,0.4-3.2,0c-1-0.3-1.9-0.8-2.7-1.5c-0.8-0.6-1.5-1.3-2.2-2.1l-0.9-1.1l1.4,0.4c0.9,0.2,1.8,0.4,2.7,0.3
			c0.9-0.1,1.7-0.4,2.4-1c1.4-1.1,2.2-3,2.5-4.8l0.6,0.3c-0.9,0.9-2.2,1.6-3.5,1.6c-0.7,0-1.3-0.2-1.9-0.5c-0.6-0.3-1.1-0.7-1.6-1.1
			l-0.3-0.4l0.5-0.1c0.7-0.2,1.3-0.4,1.8-0.7c0.5-0.3,1-0.8,1-1.5c0-0.6-0.3-1.2-0.6-1.8c-0.4-0.6-0.8-1.1-1.3-1.5l0.1,0
			c-0.9-0.2-1.8-0.7-2.3-1.6c-0.3-0.4-0.4-0.9-0.4-1.4c0-0.5,0-0.9,0.1-1.4L66,50l0,1.2c0,0.6-0.1,1.2-0.5,1.7
			c-0.3,0.5-0.8,0.9-1.3,1.2c-1.1,0.5-2.3,0.7-3.4,0.7l-1.1,0l1.1-0.3c0.8-0.2,1.4-0.7,1.7-1.4c0.3-0.7,0.2-1.5,0.1-2.3
			c-0.3-1.6-1.1-3.1-1.9-4.4l0.3,0l-2.5,5.3l-0.1,0.1l-0.2,0c-0.5,0-1-0.1-1.5-0.3c-0.5-0.3-0.8-0.6-1.1-1c-0.6-0.8-0.9-1.7-1.1-2.6
			l0.7,0c-0.3,1.8-1.6,3.2-3.1,4.1c-1.5,0.9-3.1,1.5-4.7,2l-1.2,0.3l0,0c0,0,0,0,0.1,0l0,0c0,0,0.1,0,0.1-0.2c0.1-0.2,0-0.3-0.1-0.4
			c0,0,0-0.1-0.1-0.1c0,0-0.2-0.1-0.2-0.1l0,0c0,0,0,0,0,0c0,0,0.1,0,0.1,0c0,0,0.1,0,0.1-0.1c0.1-0.1,0.2-0.2,0.4-0.3
			c0.5-0.5,0.9-1.3,1.2-2c0.7-1.5,1.3-3,1.8-4.6l0.6,0.5c-0.6,0.2-1.1,0.4-1.6,0.8c-0.5,0.3-0.8,0.7-0.9,1.2c-0.2,0.9,0.7,2,1.5,2.7
			l0.6,0.5l-0.7,0.2c-0.8,0.3-1.7,0.1-2.4-0.2c-0.7-0.3-1.4-0.8-1.9-1.4c-1.1-1.1-1.9-2.3-2.6-3.7l0.6-0.2c0.1,0.6,0.3,1.1,0.3,1.7
			c0,0.6,0,1.2-0.2,1.8c-0.2,0.6-0.9,1.1-1.6,1.1c-0.6,0-1.2-0.1-1.8-0.3l0.2-0.5c0.2,0.1,0.5,0.2,0.7,0.2c0.2,0,0.3-0.1,0.4-0.2
			c0.1-0.4,0-1-0.2-1.5l0.1,0.1c-0.6-0.5-0.9-1.2-1.1-1.9c-0.2-0.7-0.1-1.4-0.1-2.2C39.9,43.6,40.3,42.3,40.9,41L40.9,41L40.9,41z"
			/>
	</g>
	<g>
		<path class="st6" d="M166.2,103.5c0,0-16.2-24.5-43.5-22.1c0,0-13.6,0.2-22-3.5c14.2-3,19.2-10.1,21.7-25.5
			C125.9,30.6,102.7,6,76.6,6C55.9,6,38.4,16.3,31.9,31.5C43.5,40.9,58.2,46.7,72.2,49c0.9,13.8-5.5,23.7-13.8,30.4
			c2.7,0.5,6.8,0,9.9,0.2c-6.7,1.2-16.5,2-29.2,0.2c0,0-20.8,8.4,30,17c0,0,41.7,34.3,77.9,18.7c0,0,17.5-3.4,29.4,5.8
			C176.3,121.3,189.5,121.3,166.2,103.5z"/>
		<path d="M166.2,103.5c-2.5-3.5-5.4-6.6-8.6-9.4c-3.2-2.8-6.7-5.3-10.4-7.3c-3.7-2-7.7-3.5-11.9-4.4c-4.1-0.9-8.4-1.1-12.6-0.7l0,0
			h0c-3.8,0-7.5-0.2-11.2-0.7c-3.7-0.5-7.4-1.3-11-2.7l-1-0.4l1.1-0.2c3.3-0.7,6.6-1.7,9.5-3.4c2.9-1.6,5.4-4,7.1-6.9
			c1.7-2.9,2.8-6.1,3.6-9.4c0.4-1.6,0.7-3.3,1-5c0.3-1.7,0.5-3.3,0.5-5c0-6.8-2.3-13.4-5.9-19.1c-3.6-5.7-8.5-10.6-14.1-14.4
			c-5.6-3.8-12-6.5-18.7-7.6c-3.3-0.6-6.8-0.7-10.1-0.5C69.9,6.5,66.6,7,63.2,7.7c-6.6,1.5-13,4.2-18.5,8.2c-5.5,4-10,9.4-12.7,15.6
			L32,31.4c5.8,4.6,12.2,8.3,19,11.2c6.8,2.9,13.9,5,21.2,6.2l0.2,0l0,0.2c0.4,5.8-0.5,11.8-3,17.1c-2.4,5.3-6.3,9.9-10.9,13.6
			L58.4,79c1.6,0.3,3.2,0.2,4.8,0.2c1.6,0,3.3-0.1,5,0l3.8,0.2l-3.7,0.7c-9.7,1.7-19.7,1.6-29.4,0.2l0.2,0c-0.8,0.3-1.6,0.8-2.3,1.3
			c-0.7,0.5-1.3,1.2-1.5,1.9c-0.3,0.7-0.1,1.5,0.4,2.2c0.5,0.7,1.2,1.2,1.9,1.8c1.5,1,3.1,1.8,4.8,2.4c1.7,0.7,3.4,1.2,5.2,1.8
			c7,2.1,14.2,3.5,21.5,4.7l0.1,0l0.1,0.1c5.4,4.3,11.4,8,17.5,11.3c6.1,3.3,12.5,6.1,19.2,8.1c6.6,2,13.5,3.3,20.5,3.3
			c6.9,0,13.9-1.2,20.3-4l0,0l0,0c2.6-0.4,5.1-0.6,7.7-0.6c2.6,0,5.2,0.2,7.7,0.7c5.1,0.9,10.1,2.7,14.2,5.9l-0.1,0
			c1,0,2.1-0.3,2.9-0.9c0.8-0.7,0.8-1.9,0.4-2.8c-0.8-2-2.2-3.7-3.7-5.2C173,109,169.6,106.2,166.2,103.5L166.2,103.5L166.2,103.5z
			 M166.3,103.5c3.4,2.6,6.8,5.3,9.9,8.4c1.5,1.6,3,3.2,3.8,5.3c0.2,0.5,0.3,1.1,0.3,1.7c0,0.6-0.3,1.2-0.7,1.6
			c-0.9,0.8-2,1-3.2,1.1l-0.1,0l-0.1,0c-4.1-3.1-9-4.9-14-5.7c-2.5-0.4-5.1-0.6-7.6-0.6c-2.5,0-5.1,0.2-7.6,0.6l0.1,0
			c-6.4,2.8-13.5,4.2-20.5,4.2c-7,0-14-1.2-20.8-3.2c-6.7-2-13.2-4.8-19.4-8.1c-6.2-3.3-12.1-7.1-17.6-11.5l0.2,0.1
			c-7.3-1.2-14.5-2.6-21.6-4.7c-1.8-0.5-3.5-1.1-5.3-1.8c-1.7-0.7-3.4-1.5-5-2.5c-0.8-0.5-1.5-1.2-2.1-2c-0.6-0.8-0.9-2-0.5-3
			c0.4-1,1.1-1.7,1.9-2.3c0.8-0.6,1.6-1.1,2.5-1.4l0.1,0l0.1,0c9.6,1.4,19.5,1.6,29.1-0.2l0.1,0.9c-1.6-0.1-3.3,0-4.9,0
			c-1.7,0-3.3,0-5-0.2l-0.9-0.2l0.7-0.6c4.5-3.6,8.3-8.1,10.7-13.3c2.5-5.2,3.4-11,3-16.8l0.3,0.3C64.8,48.1,57.6,46,50.8,43
			c-6.8-2.9-13.3-6.7-19.1-11.4l-0.1-0.1l0.1-0.1c2.7-6.3,7.3-11.7,12.9-15.7c5.5-4.1,11.9-6.8,18.6-8.4c3.3-0.8,6.7-1.3,10.2-1.4
			c3.4-0.2,6.9-0.1,10.3,0.5c6.8,1.1,13.3,3.8,19,7.6c5.7,3.8,10.7,8.7,14.4,14.5c3.7,5.8,6.2,12.5,6.2,19.5c0,1.7-0.2,3.5-0.4,5.2
			c-0.3,1.7-0.6,3.4-1,5c-0.8,3.3-1.9,6.6-3.8,9.6c-1.8,3-4.4,5.5-7.4,7.2c-3,1.7-6.4,2.7-9.7,3.4l0.1-0.7c3.4,1.5,7.1,2.2,10.8,2.7
			c3.7,0.5,7.4,0.8,11.1,0.8l0,0c4.3-0.4,8.6-0.1,12.8,0.8c4.2,0.9,8.2,2.5,12,4.5c3.7,2.1,7.2,4.6,10.4,7.5
			C160.9,96.8,163.8,100,166.3,103.5z"/>
	</g>
	<path class="st4" d="M93.7,26.6c0,7.8-0.9,15.5,3.4,20.7c2.6,4.3,6,5.2,7.8,10.3c2.6,6,8.6-0.9,12.1-4.3
		c0,15.5-17.2,20.7-30.2,23.3c9.5,3.4,19,9.5,29.3,6c1.4-0.4,2.9-0.8,4.4-1.2c-4.2-0.1-13.4-0.7-19.8-3.5
		c14.2-3,19.2-10.1,21.7-25.5c1.6-9.7-2.1-19.9-8.9-28.3C109.3,30.7,100,29,93.7,26.6z"/>
	<path class="st4" d="M77.3,77.5c-3.4,0.9-6.9-0.9-10.3,0.9c6.9-8.6,14.7-22.4,7.8-29.3c-2.8-3.5-11.2-4.2-18.9-4.3
		c5.4,1.9,10.9,3.4,16.3,4.3c0.9,13.8-5.5,23.7-13.8,30.4c2.7,0.5,6.8,0,9.9,0.2c-6.7,1.2-16.5,2-29.2,0.2c0,0-4.2,1.7-4.2,4.3
		C49,81.4,65.4,87.2,77.3,77.5z"/>
	<path class="st4" d="M160.9,106.8c-1.7-1.7-5.2-2.6-7.8-2.6c-14.7,0-25.9,12.9-41.4,8.6c-15.5-4.3-31-10.3-43.1-20.7
		c-3.8-3.3-11.8,0-19.3,0.5c4.9,1.4,11.3,2.8,19.7,4.2c0,0,41.7,34.3,77.9,18.7c0,0,17.5-3.4,29.4,5.8c0,0,5,0,3.4-4.2
		C172.9,115,166.7,111.6,160.9,106.8z"/>
	<g>
		<path class="st8" d="M66.7,48.6c-1,1.2-5.9,0.4-20.1-2.3C32.4,43.7,27,37,28,31.8c1-5.2,9.1-9.1,21.5-1.8
			C62,37.4,71.3,43.1,66.7,48.6z"/>
		<path d="M66.7,48.7c-0.4,0.4-1,0.5-1.5,0.5c-0.5,0-1,0-1.6,0c-1,0-2.1-0.2-3.1-0.3c-2.1-0.2-4.1-0.5-6.2-0.8
			c-2.1-0.3-4.1-0.7-6.1-1c-2-0.3-4.1-0.8-6.1-1.4c-4-1.2-7.9-3-11-5.8c-1.5-1.4-2.8-3.2-3.3-5.3c-0.2-1-0.3-2.1-0.1-3.2
			c0.2-1.1,0.7-2,1.4-2.9c1.4-1.7,3.5-2.6,5.6-2.9c2.1-0.3,4.3-0.2,6.3,0.3c2.1,0.5,4,1.2,5.9,2.1c1.9,0.9,3.6,2.1,5.4,3.1
			c3.6,2.1,7.1,4.3,10.3,7c1.6,1.3,3.2,2.8,4.2,4.6c0.5,0.9,0.9,1.9,0.8,3C67.9,46.9,67.4,47.9,66.7,48.7z M66.7,48.6
			c0.6-0.8,1.1-1.8,1.1-2.8c0-1-0.3-2-0.9-2.9c-1.1-1.7-2.8-3-4.4-4.2c-3.3-2.4-6.9-4.5-10.5-6.6c-1.8-1-3.5-2.1-5.4-3
			c-1.8-0.9-3.7-1.7-5.7-2.2c-2-0.5-4-0.7-6-0.4c-2,0.3-3.9,1-5.3,2.5c-1.4,1.4-1.9,3.6-1.4,5.6c0.4,2,1.7,3.7,3.2,5.1
			c1.5,1.4,3.3,2.4,5.2,3.3c1.9,0.9,3.8,1.5,5.8,2c2,0.6,4,0.9,6,1.3c2,0.4,4.1,0.8,6.1,1.2c2,0.4,4.1,0.8,6.1,1.2
			c1,0.2,2,0.3,3.1,0.4c0.5,0,1,0.1,1.5,0C65.8,49,66.3,49,66.7,48.6z"/>
	</g>
	<path class="st10" d="M42,39.6c-5.6-1.4-11.3-4-13.6-9.1c-0.2,0.4-0.3,0.8-0.4,1.3c-1,5.2,4.4,11.9,18.6,14.6
		c14.2,2.7,19.1,3.5,20.1,2.3c0.8-0.9,1.1-1.9,1.2-2.8C59.7,43.2,50.6,42,42,39.6z"/>
	<ellipse transform="matrix(0.9919 0.1274 -0.1274 0.9919 4.8822 -5.4045)" cx="44.7" cy="35.5" rx="1.8" ry="3.6"/>
	<path d="M34.3,32.4c-0.2,1.4-0.9,2.4-1.5,2.3c-0.7-0.1-1.1-1.3-0.9-2.6c0.2-1.4,0.9-2.4,1.5-2.3C34.1,29.8,34.5,31,34.3,32.4z"/>
	<g>
		<path d="M71,29.4c-1.2,1.9-2.4,3.3-4.3,2.2c-1.9-1.2-2.5-3.7-1.4-5.6c1.2-1.9,3.7-2.5,5.6-1.4C72.8,25.8,72.2,27.5,71,29.4z"/>
		<ellipse transform="matrix(0.9913 0.1314 -0.1314 0.9913 4.1198 -8.5319)" class="st9" cx="66.7" cy="26.9" rx="0.8" ry="0.8"/>
	</g>
	<g>
		<path d="M40.1,22c-0.9,1-1.7,1.6-2.2,0.8c-0.5-0.9-0.2-2.4,0.7-3.3c0.9-1,2-1,2.6-0.2C41.6,20.1,41,21,40.1,22z"/>
		<path class="st9" d="M39.2,20.3c-0.1,0.2-0.3,0.4-0.5,0.3c-0.2-0.1-0.2-0.3-0.1-0.6c0.1-0.2,0.3-0.4,0.5-0.3
			C39.3,19.8,39.3,20,39.2,20.3z"/>
	</g>
	<ellipse transform="matrix(0.9736 0.2282 -0.2282 0.9736 10.076 -15.2965)" class="st0" cx="71.2" cy="35.9" rx="9" ry="2.8"/>
	<path class="st9" d="M78.7,35.6c-0.2,0.7-1.5,0.9-2.8,0.5c-1.3-0.5-2.1-1.4-1.9-2.1c0.2-0.7,1.5-0.9,2.8-0.5
		C78.1,34,78.9,34.9,78.7,35.6z"/>
	<g>
		<path class="st6" d="M95,24.7c0,0,1.3,20,12.5,24.5c0,0,1.3,1.2,0.5,4.5c0,0,5.8,4.8,10.3-5.6c4.5-10.4,9.1-16.2-9.8-26.6"/>
		<path d="M95,24.7c0.3,2.4,0.8,4.7,1.4,7c0.6,2.3,1.3,4.6,2.2,6.8c1,2.2,2,4.3,3.5,6.1c1.4,1.9,3.2,3.5,5.4,4.4l0,0l0,0
			c0.3,0.3,0.5,0.7,0.6,1.1c0.1,0.4,0.2,0.8,0.2,1.2c0,0.8-0.1,1.6-0.3,2.4l-0.1-0.2c0.8,0.6,1.7,0.9,2.6,1c1,0.1,1.9-0.2,2.7-0.6
			c1.7-1,2.8-2.7,3.6-4.4c0.4-0.9,0.8-1.8,1.2-2.7l1.2-2.7c0.8-1.8,1.5-3.6,2-5.5c0.5-1.9,0.5-3.8-0.2-5.5c-0.7-1.7-1.9-3.3-3.2-4.7
			c-2.8-2.7-6.1-4.9-9.5-7l0-0.1c3.5,1.8,7,3.7,10,6.5c1.5,1.4,2.8,3,3.6,4.9c0.8,2,0.8,4.2,0.3,6.1c-0.5,2-1.3,3.8-2.1,5.6
			l-1.2,2.7c-0.4,0.9-0.8,1.8-1.3,2.7c-1,1.7-2.3,3.5-4.1,4.4c-1.9,1-4.2,0.7-5.8-0.6l-0.1-0.1l0-0.1c0.2-0.8,0.3-1.5,0.3-2.3
			c0-0.4-0.1-0.8-0.2-1.1c-0.1-0.3-0.3-0.7-0.5-0.9l0.1,0c-2.3-0.9-4.3-2.4-5.9-4.3c-1.6-1.9-2.8-4-3.7-6.3
			c-0.9-2.3-1.6-4.6-2.1-6.9C95.3,29.5,95,27.1,95,24.7L95,24.7z"/>
	</g>
	<g>
		<path d="M149,91c0.1-1.1,0.3-2.3,0.7-3.4c0.4-1.1,0.8-2.2,1.7-3.2c0.4-0.5,1-1,1.7-1.2c0.8-0.3,1.6-0.1,2.3,0.2
			c0.3,0.1,0.6,0.4,0.9,0.6c0.2,0.2,0.5,0.4,0.7,0.6c0.5,0.4,0.9,0.8,1.3,1.4c0.2,0.3,0.5,0.6,0.5,1.3c0,0.4-0.2,0.9-0.5,1.1
			c-0.3,0.3-0.6,0.3-0.8,0.4c-0.9,0.1-1.6,0-2.2-0.3l-0.1-0.1l0,0c0,0-0.2-0.1-0.2-0.2c-0.1-0.1-0.2-0.2-0.3-0.3
			c-0.1-0.2-0.2-0.4-0.3-0.6c-0.2-0.3-0.2-0.7-0.3-1c-0.1-0.6-0.2-1.3-0.1-1.9c0.1-1.2,0.3-2.4,0.9-3.5c0.3-0.5,0.7-1.1,1.3-1.4
			c0.6-0.3,1.2-0.3,1.8-0.1c-0.6,0-1.1,0.2-1.4,0.6c-0.4,0.4-0.6,0.8-0.7,1.3c-0.3,1-0.3,2.1-0.2,3.1c0.1,0.5,0.1,1,0.3,1.5
			c0.1,0.2,0.1,0.4,0.2,0.6c0,0.1,0.1,0.1,0.1,0.2c0,0,0,0,0,0c0,0-0.1-0.1,0,0l0,0c-0.1,0,0,0,0,0c0.3,0.1,0.9,0.2,1.1,0.2
			c0,0,0,0-0.1,0c-0.1,0.1-0.2,0.3-0.2,0.4c0,0.1,0-0.1-0.2-0.2c-0.2-0.3-0.6-0.7-1-1.1c-0.2-0.2-0.4-0.3-0.6-0.5
			c-0.2-0.2-0.4-0.3-0.5-0.4c-0.3-0.2-0.6-0.3-1-0.2c-0.3,0.1-0.7,0.3-1.1,0.6c-0.7,0.7-1.3,1.6-1.9,2.5C150,89,149.5,90,149,91z"/>
	</g>
	<line class="st1" x1="42.9" y1="57.4" x2="53.4" y2="60.5"/>
	<line class="st1" x1="43" y1="58.4" x2="51.6" y2="61"/>
	<line class="st1" x1="42.6" y1="59.2" x2="53.1" y2="62.3"/>
	<line class="st1" x1="42.8" y1="60.2" x2="51.4" y2="62.8"/>
	<g>
		
			<ellipse transform="matrix(-0.9577 -0.2877 0.2877 -0.9577 55.6953 140.1293)" class="st12" cx="38.1" cy="66" rx="5.1" ry="1.9"/>
		<g>
			<path d="M33.3,64.5c0.2-0.5,0.7-0.7,1.1-0.8c0.5-0.1,1-0.1,1.4-0.1c1,0,1.9,0.1,2.9,0.3c0.9,0.2,1.9,0.5,2.8,1
				c0.4,0.2,0.9,0.5,1.3,0.9c0.2,0.2,0.4,0.4,0.5,0.7c0.1,0.3,0.3,0.6,0.1,1.1l0,0.1c0,0-0.1,0.1-0.1,0.2c-0.1,0.1-0.1,0.2-0.2,0.2
				c-0.1,0.1-0.3,0.2-0.4,0.3c-0.3,0.1-0.5,0.2-0.8,0.3c-0.5,0.1-1,0.1-1.5,0c-1-0.1-2-0.4-2.9-0.7c-0.9-0.3-1.8-0.8-2.6-1.3
				c-0.4-0.3-0.8-0.6-1.1-0.9C33.5,65.5,33.2,65,33.3,64.5z M33.3,64.5c-0.1,0.5,0.2,0.9,0.6,1.2c0.3,0.3,0.8,0.6,1.2,0.8
				c0.8,0.4,1.8,0.7,2.7,0.9c0.9,0.2,1.9,0.3,2.8,0.3c0.5,0,0.9,0,1.3-0.1c0.4-0.1,0.8-0.3,0.8-0.5c0,0-0.1-0.5-0.4-0.7
				c-0.3-0.3-0.6-0.6-1-0.8c-0.8-0.5-1.6-0.9-2.5-1.3c-0.9-0.3-1.8-0.6-2.7-0.7c-0.5,0-1,0-1.4,0C34,63.9,33.5,64,33.3,64.5z"/>
		</g>
	</g>
</g>
<g>
	<g>
		
			<radialGradient id="SVGID_1_" cx="272.2051" cy="184.6074" r="71.288" gradientTransform="matrix(2.575285e-002 1.4686 -0.6056 3.372602e-002 187.8666 -300.6937)" gradientUnits="userSpaceOnUse">
			<stop  offset="0" style="stop-color:#2EA3D4"/>
			<stop  offset="0.2056" style="stop-color:#31A7D6;stop-opacity:0.7944"/>
			<stop  offset="0.4156" style="stop-color:#3AB3DC;stop-opacity:0.5844"/>
			<stop  offset="0.6276" style="stop-color:#4AC8E5;stop-opacity:0.3724"/>
			<stop  offset="0.8396" style="stop-color:#5FE4F2;stop-opacity:0.1604"/>
			<stop  offset="1" style="stop-color:#73FFFF;stop-opacity:0"/>
		</radialGradient>
		<path class="st13" d="M161.9,96.1v68.2L6.1,171.8l1-77.5c0,0,4.7-6.8,25,1.9c20.4,8.8,18.6-15.4,53.6-4.5
			c35,10.9,21.7-8.7,44.6-2.9c22.9,5.8,31.6,5.4,31.6,5.4"/>
	</g>
	<g>
		<g>
			<path class="st5" d="M7.1,94.2c1.1-1.3,2.8-1.9,4.4-2.3c1.7-0.3,3.4-0.4,5-0.3c3.4,0.2,6.7,1,9.9,2.1c1.6,0.5,3.2,1.1,4.8,1.8
				c1.6,0.7,3.1,1.3,4.7,1.7c1.6,0.4,3.3,0.7,4.9,0.6c1.6-0.1,3.3-0.4,4.8-1c3.1-1.2,5.9-3.1,8.9-4.7c3-1.6,6.3-2.8,9.6-3.3
				c6.8-1.1,13.7,0.1,20.1,2c3.2,1,6.4,2,9.7,2.7c3.3,0.7,6.6,1.3,9.9,1.2c1.6,0,3.3-0.3,4.8-0.8c1.5-0.5,2.9-1.4,4.3-2.4
				c1.3-1,2.6-2.1,4.2-2.9c1.6-0.8,3.3-1.1,5-1.2c3.5-0.1,6.8,0.7,10,1.6c3.3,0.8,6.5,1.6,9.8,2.3c3.3,0.7,6.6,1.4,9.9,1.9
				c3.3,0.5,6.7,1,10,1.1c-3.4,0-6.7-0.4-10.1-0.8c-3.3-0.5-6.7-1-10-1.7c-3.3-0.7-6.6-1.4-9.9-2.2c-3.3-0.8-6.5-1.6-9.8-1.4
				c-1.6,0.1-3.3,0.4-4.7,1.2c-1.5,0.7-2.7,1.8-4.1,2.8c-1.3,1-2.8,2-4.5,2.5c-1.6,0.6-3.4,0.8-5.1,0.9c-3.4,0.1-6.8-0.4-10.1-1.2
				c-3.3-0.7-6.6-1.7-9.8-2.7c-6.4-1.8-13.1-3.1-19.7-2c-3.3,0.5-6.4,1.6-9.4,3.2c-3,1.5-5.8,3.4-9,4.6c-1.6,0.6-3.3,1-5,1
				c-1.7,0-3.4-0.2-5.1-0.7c-1.6-0.4-3.2-1.1-4.8-1.8c-1.5-0.7-3.1-1.3-4.7-1.8c-3.2-1.1-6.4-2-9.8-2.3c-1.7-0.1-3.4-0.1-5,0.2
				C9.9,92.4,8.2,92.9,7.1,94.2z"/>
		</g>
	</g>
</g>
</svg>
