<?xml version="1.0" encoding="utf-8"?>
<!-- Generator: Adobe Illustrator 15.1.0, SVG Export Plug-In . SVG Version: 6.00 Build 0)  -->
<!DOCTYPE svg PUBLIC "-//W3C//DTD SVG 1.1//EN" "http://www.w3.org/Graphics/SVG/1.1/DTD/svg11.dtd">
<svg version="1.1" id="Layer_20" xmlns="http://www.w3.org/2000/svg" xmlns:xlink="http://www.w3.org/1999/xlink" x="0px" y="0px"
	 width="149.7px" height="189.3px" viewBox="0 0 149.7 189.3" style="enable-background:new 0 0 149.7 189.3;" xml:space="preserve"
	>
<style type="text/css">
<![CDATA[
	.st0{fill:#7AD7EE;}
	.st1{opacity:0.27;}
	.st2{opacity:0.42;fill:#FF9494;enable-background:new    ;}
	.st3{fill:#595959;}
	.st4{fill:#231F20;}
	.st5{fill:#FCC581;}
	.st6{opacity:0.38;fill:url(#SVGID_1_);enable-background:new    ;}
	.st7{fill:#FFFFFF;}
	.st8{opacity:0.25;fill:#078D9E;enable-background:new    ;}
	.st9{opacity:0.24;fill:#F69D01;enable-background:new    ;}
	.st10{fill:#006283;}
	.st11{fill:#020001;}
]]>
</style>
<g>
	<g>
		<g>
			<path class="st11" d="M19.5,49.6c-2-0.7-3.9-1.3-5.9-1.6c-2-0.3-4-0.1-6,0.6c0.8-0.7,1.8-1.2,2.9-1.5c1.1-0.3,2.2-0.3,3.3-0.2
				c1.1,0.1,2.1,0.4,3.1,0.9C17.8,48.3,18.7,48.9,19.5,49.6z"/>
		</g>
		<g>
			<path class="st11" d="M19.1,51c-1.5-0.3-3-0.5-4.4-0.5c-1.5,0-2.9,0.2-4.3,0.7c-2.8,0.8-5.2,2.6-7.2,4.8c0.7-1.3,1.7-2.5,2.9-3.5
				c1.2-1,2.6-1.8,4.1-2.2C13.1,49.4,16.4,49.6,19.1,51z"/>
		</g>
		<g>
			<path class="st11" d="M18.2,52c-2.2,0.4-4.3,0.9-6.4,1.7c-2,0.8-3.8,1.9-5.2,3.7c0.3-1.1,1-2.1,1.9-2.8c0.9-0.8,1.9-1.4,3-1.8
				c1.1-0.4,2.2-0.7,3.3-0.8C16,51.8,17.1,51.8,18.2,52z"/>
		</g>
		<g>
			<path class="st0" d="M78.8,112.4c0,0,32.9,14.4,10.5,14"/>
			<path class="st11" d="M78.8,112.3c2.5,0.7,4.9,1.8,7.1,3c1.1,0.7,2.2,1.4,3.3,2.1c1.1,0.7,2.2,1.3,3.4,1.9
				c1.1,0.6,2.2,1.3,3.3,2.2c0.5,0.4,1,0.9,1.4,1.5c0.2,0.3,0.4,0.7,0.4,1.2c0,0.5-0.2,1-0.5,1.3c-0.6,0.6-1.3,0.8-2,0.9
				c-0.7,0.1-1.3,0.2-2,0.2c-1.3,0-2.6,0-3.9-0.2l0-0.1c1.3-0.1,2.6-0.3,3.8-0.4c0.6-0.1,1.2-0.2,1.8-0.4c0.6-0.2,1.2-0.4,1.5-0.7
				c0.6-0.5-0.3-1.7-1.1-2.5c-0.9-0.9-1.9-1.7-2.9-2.4c-1-0.8-2.1-1.5-3.2-2.1c-1.1-0.6-2.3-1.1-3.5-1.6
				C83.2,115,81,113.8,78.8,112.3L78.8,112.3z"/>
		</g>
		<path class="st8" d="M78.8,112.4c0,0,32.9,14.4,10.5,14"/>
		<g>
			<path class="st0" d="M54.6,6.8c-8.8-6.7-21.4-4.9-28.1,3.9c-6.7,8.8-4.9,21.4,3.9,28.1c2.1,1.6,4.5,2.7,7,3.4
				c5.6-5.1,13-7,20.1-6.1c0.4-0.4,0.7-0.8,1-1.2C65.2,26.1,63.5,13.5,54.6,6.8z"/>
			<g>
				<path class="st11" d="M54.6,6.8c-2.4-1.7-5.1-3-8-3.5c-2.9-0.5-5.9-0.4-8.7,0.3C32.3,5.1,27.4,9,24.8,14.2
					c-1.3,2.6-2.1,5.5-2.1,8.4c-0.1,2.9,0.5,5.9,1.8,8.5c2.4,5.4,7.4,9.3,13.1,10.7l-0.4,0.1c2.7-2.5,6-4.4,9.5-5.5
					c3.5-1.1,7.3-1.3,10.9-0.8l-0.5,0.2c1.8-2,3.2-4.4,4-6.9c0.9-2.5,1.2-5.3,1-8c-0.2-2.7-1-5.4-2.2-7.8
					C58.6,10.6,56.8,8.5,54.6,6.8z M54.7,6.8c2.2,1.6,4.1,3.8,5.5,6.2c1.4,2.4,2.3,5.1,2.7,7.9c0.4,2.8,0.1,5.7-0.8,8.4
					c-0.9,2.7-2.3,5.2-4.2,7.3l-0.2,0.2l-0.3,0c-3.5-0.4-7.1-0.2-10.5,0.8c-3.4,1-6.6,2.7-9.2,5.1l-0.2,0.1l-0.2-0.1
					c-5.8-1.6-10.7-5.9-13.2-11.3c-2.5-5.4-2.5-11.9,0-17.4c1.3-2.7,3.2-5.2,5.5-7.1C32,4.9,34.8,3.6,37.8,3
					C43.7,1.7,50,3.2,54.7,6.8z"/>
			</g>
		</g>
		<path class="st8" d="M54.6,6.8c-7.8-5.8-18.4-5.2-25.4,1c8.8-0.1,17.8,3.3,23.6,8.5c-11.1,0-22.1,4.3-29.3,12.9
			c1.2,3.7,3.6,7.1,6.9,9.6c2.1,1.6,4.5,2.7,7,3.4c5.6-5.1,13-7,20.1-6.1c0.4-0.4,0.7-0.8,1-1.2C65.2,26.1,63.5,13.5,54.6,6.8z"/>
		<g>
			<path class="st0" d="M96.2,147c0,0,13.7-5.3,16.8-25.4c3.1-20.2,24.6-37,30.5-32.2c5.9,4.9-0.1,6.2-1.9,4.4
				c-1.8-1.8-20.8,7-24.2,29.1c-3.5,22.1-19.7,32.5-21.1,29.9C96.2,152.8,89.6,154.7,96.2,147z"/>
			<g>
				<path class="st11" d="M96.1,147c3.2-1.5,5.9-3.9,8.2-6.5c2.3-2.7,4.1-5.7,5.4-8.9c1.4-3.2,2.2-6.6,2.7-10.1
					c0.5-3.5,1.7-7,3.2-10.2c3-6.5,7.6-12.1,13-16.7c2.7-2.3,5.7-4.3,9.1-5.5c0.8-0.3,1.7-0.5,2.6-0.6c0.9-0.1,1.8,0.1,2.7,0.5
					c0.4,0.2,0.8,0.5,1.1,0.8c0.3,0.3,0.7,0.6,1,1c0.6,0.7,1.2,1.5,1.1,2.5c-0.1,0.5-0.4,1-0.8,1.2c-0.4,0.3-0.9,0.4-1.4,0.4
					c-0.9,0.1-2-0.1-2.6-0.8c-0.2-0.2-0.7-0.1-1.1-0.1c-0.4,0.1-0.8,0.2-1.2,0.3c-0.8,0.3-1.6,0.6-2.4,1c-3.1,1.6-5.9,3.8-8.3,6.3
					c-4.9,5-8.3,11.4-9.9,18.2c-0.4,1.7-0.6,3.4-1,5.2c-0.4,1.8-0.8,3.5-1.3,5.2c-1,3.4-2.5,6.7-4.3,9.8c-1.8,3.1-4,5.9-6.6,8.4
					c-1.3,1.2-2.6,2.4-4.1,3.4c-0.8,0.5-1.5,0.9-2.4,1.3c-0.4,0.2-0.9,0.3-1.3,0.4c-0.2,0-0.5,0-0.7,0c-0.3-0.1-0.5-0.2-0.7-0.5
					l0.3,0.1c-0.8,0.2-1.6,0.3-2.4,0c-0.4-0.1-0.7-0.6-0.7-1.1c0-0.4,0.1-0.8,0.3-1.2C94.1,149.3,95.1,148.1,96.1,147L96.1,147
					L96.1,147z M96.2,147c-1,1.2-1.9,2.4-2.5,3.8c-0.1,0.3-0.3,0.7-0.2,1.1c0,0.4,0.2,0.6,0.5,0.7c0.7,0.2,1.5,0.1,2.2-0.1l0.2,0
					l0.1,0.2c0.1,0.3,0.6,0.3,1,0.2c0.4-0.1,0.8-0.2,1.2-0.4c0.8-0.3,1.5-0.8,2.3-1.3c1.4-1,2.8-2.1,4-3.4c2.5-2.5,4.5-5.4,6.3-8.4
					c1.7-3,3.1-6.3,4.1-9.6c0.5-1.7,0.9-3.4,1.3-5.1c0.3-1.7,0.6-3.5,1-5.2c1.7-7,5.2-13.5,10.3-18.5c2.5-2.5,5.4-4.7,8.6-6.3
					c0.8-0.4,1.6-0.7,2.5-1c0.4-0.1,0.9-0.2,1.3-0.3c0.5,0,1-0.1,1.5,0.2c0.6,0.6,1.4,0.8,2.3,0.7c0.8,0,1.7-0.4,1.8-1.2
					c0.1-0.8-0.4-1.6-1-2.2c-0.3-0.3-0.6-0.6-0.9-0.9c-0.3-0.3-0.6-0.6-1-0.8c-0.7-0.4-1.6-0.5-2.5-0.5c-0.9,0-1.7,0.3-2.5,0.5
					c-1.7,0.5-3.2,1.4-4.7,2.3c-1.5,1-2.9,2-4.2,3.2c-5.3,4.6-9.5,10.4-12.5,16.8c-1.4,3.2-2.5,6.5-3.1,10c-0.6,3.5-1.5,7-2.9,10.3
					c-1.4,3.3-3.3,6.3-5.7,9C102.3,143.4,99.5,145.6,96.2,147z"/>
			</g>
		</g>
		<path class="st8" d="M106.9,141.9c-1.7,2.6-3.5,5.2-7.8,5.2c0.2-0.7,0.4-1.4,0.6-2.1c-2,1.4-3.4,1.9-3.4,1.9c-6.5,7.7,0,5.8,0,5.8
			c1.5,2.6,17.6-7.7,21.1-29.9c2.4-15.2,12.1-24.1,18.5-27.6C118.7,101.9,115.4,126.2,106.9,141.9z"/>
		<g>
			<path class="st0" d="M56.8,91.6c5.3-4,5.3-21.3,0-26.6c-8.9-8.9-27.4-5.7-38.4-16.9c-2,4.8,2.2,10.1,4,15.4
				c6.7,19.1,13,27.7,30,38.6C54.2,98.3,53.2,94.8,56.8,91.6z"/>
			<path class="st11" d="M56.7,91.6c1.2-0.9,1.9-2.2,2.4-3.6c0.5-1.4,0.9-2.8,1.1-4.3c0.4-2.9,0.4-5.9,0-8.8
				c-0.2-1.5-0.5-2.9-0.9-4.3c-0.4-1.4-1-2.7-1.7-3.9c-0.7-1.2-1.9-2.1-3-3c-1.2-0.9-2.4-1.6-3.8-2.2c-5.3-2.4-11.2-3.4-16.9-5.1
				c-2.9-0.8-5.7-1.8-8.3-3.1c-2.7-1.3-5.2-3-7.3-5.1l0.4-0.1c-0.5,1.2-0.6,2.6-0.3,4c0.2,1.3,0.7,2.6,1.2,3.9
				c1.1,2.5,2.5,4.9,3.4,7.6c1.9,5.2,3.9,10.3,6.6,15.1c2.6,4.8,6,9.2,10,13c4,3.8,8.4,7.1,13,10.2l-0.3,0.1
				c0.9-1.7,1.1-3.6,1.6-5.5c0.2-0.9,0.6-1.9,1-2.7C55.4,93,56,92.2,56.7,91.6z M56.8,91.6c-0.7,0.6-1.3,1.4-1.8,2.2
				c-0.5,0.8-0.8,1.8-1,2.7c-0.4,1.9-0.6,3.8-1.4,5.6l-0.1,0.2l-0.2-0.1c-4.7-2.9-9.3-6-13.4-9.8c-4.1-3.8-7.5-8.3-10.2-13.2
				c-2.7-4.9-4.7-10.1-6.5-15.3c-0.9-2.6-2.2-5-3.2-7.6c-0.5-1.3-1-2.6-1.2-4.1c-0.2-1.4-0.1-2.9,0.5-4.2l0.1-0.3l0.2,0.3
				c2,2.1,4.5,3.8,7.1,5.1c2.6,1.3,5.5,2.2,8.3,3c2.9,0.8,5.8,1.3,8.6,2c2.9,0.7,5.8,1.4,8.5,2.6c1.4,0.6,2.7,1.3,3.9,2.2
				c1.2,0.9,2.4,1.9,3.2,3.3c1.6,2.6,2.2,5.6,2.5,8.6c0.3,3,0.2,6-0.3,8.9c-0.3,1.5-0.6,2.9-1.2,4.3C58.8,89.4,58,90.7,56.8,91.6z"
				/>
		</g>
		<path class="st8" d="M58.5,91.6c5.3-4,5.3-21.3,0-26.6c-8.9-8.9-27.4-5.7-38.4-16.9c-2,4.8,2.2,10.1,4,15.4
			c6.7,19.1,13,27.7,30,38.6C55.9,98.3,54.9,94.8,58.5,91.6z"/>
		<g>
			<path class="st5" d="M108.6,66.8c0,18.8,0,35.7-46.6,34.1c-42.4-1.5-46-13.8-36.5-34C33.6,49.7,36.2,32.8,62,32.8
				C87.7,32.8,108.6,48,108.6,66.8z"/>
			<g>
				<path d="M108.6,66.8c0,5.3,0.1,10.6-1.1,15.7c-0.6,2.6-1.6,5.1-3.1,7.3c-1.5,2.2-3.5,4-5.8,5.5c-4.5,2.9-9.8,4.2-15,5.1
					c-5.2,0.8-10.5,1-15.8,1c-5.3-0.1-10.5-0.3-15.8-0.9c-5.2-0.5-10.5-1.3-15.6-2.7c-2.5-0.7-5-1.7-7.4-2.9c-2.3-1.3-4.5-2.9-6-5.1
					c-1.5-2.2-2.2-4.9-2.2-7.6c0-2.7,0.5-5.3,1.3-7.8c0.8-2.5,1.8-5,2.9-7.4c1.1-2.4,2.1-4.8,3.1-7.2c2-4.8,4-9.8,6.9-14.3
					c1.4-2.2,3.1-4.4,5.1-6.2c2-1.8,4.3-3.3,6.7-4.3c4.9-2.2,10.4-2.7,15.7-2.7c10.6,0.1,21.3,2.8,30.2,8.6c4.4,2.9,8.4,6.6,11.3,11
					c1.4,2.2,2.6,4.6,3.4,7.1C108.2,61.6,108.6,64.2,108.6,66.8z M108.5,66.8c0-5.3-1.8-10.5-4.7-14.8c-3-4.3-7-7.9-11.4-10.6
					c-8.9-5.5-19.4-8-29.9-8.1c-5.2,0-10.5,0.6-15.2,2.6c-2.4,1-4.6,2.4-6.5,4.1c-1.9,1.7-3.6,3.8-5,5.9C33,50.3,31,55.2,28.9,60
					c-1,2.4-2.1,4.8-3.3,7.2c-1.1,2.4-2.2,4.8-2.9,7.3c-0.8,2.5-1.4,5.1-1.4,7.7c0,2.6,0.6,5.2,2.1,7.4c1.4,2.2,3.6,3.8,5.8,5.1
					c2.3,1.3,4.8,2.1,7.3,2.9c5.1,1.4,10.3,2.1,15.5,2.5c5.2,0.4,10.5,0.6,15.7,0.6c5.2,0,10.5-0.3,15.7-1
					c5.2-0.8,10.3-2.1,14.8-4.8c2.2-1.3,4.2-3.1,5.7-5.2c1.5-2.1,2.6-4.5,3.2-7.1C108.6,77.4,108.5,72.1,108.5,66.8z"/>
			</g>
		</g>
		<path class="st9" d="M62,32.8c-19.3,0-25.6,9.4-31,21.4c-1,1-1.5,1.7-1.5,1.7s-4.2,6-2.1,9.2c0,0,1.3,0.6,0.8,1.4
			c0,0,1.2-1.4,1-3.9c0.5,0,0.9,0,1.4,0c3.5,2.6,11.7,8.9,11.7,12.4c0,0,2.4-4.5-0.2-9c1.2,2,5.9,9.3,9.8,10.3c0,0,3.9,2.3,3.2,3.2
			c0,0,1.3-1.5,1.6-3.7c0.4,3.8,0,8.4-0.5,12.1c-0.9,6.1-7,7.8-12.2,8.7c-4.3,0.9-9.1,0.4-13.5-1.1c6.4,3,16.5,4.9,31.4,5.4
			c46.6,1.6,46.6-15.2,46.6-34.1C108.6,48,87.7,32.8,62,32.8z"/>
		<path d="M29.5,54.1c0,0-4.2,6-2.1,9.2c0,0,1.3,0.6,0.8,1.4c0,0,1.6-1.8,0.8-5.1c0,0,13.3,9.1,13.3,13.6c0,0,2.6-4.9-0.5-9.6
			c0,0,5.6,9.7,10.1,10.9c0,0,3.9,2.3,3.2,3.2c0,0,4.3-5-0.6-10.6c0,0,8.3,9.6,5.8,18.6c0,0,20.4-16.4,4.3-35.6
			C48.5,30.8,29.5,54.1,29.5,54.1z"/>
		<g>
			<g>
				<path class="st7" d="M21.6,53c-1.4-0.2-3.1,0-4.9,1.2c0,0-2.1,9.1-0.3,9.9l2.6,0.6C19.4,60.7,20.3,56.7,21.6,53z"/>
				<path d="M21.6,53c-1.7,0-3.3,0.6-4.6,1.5l0.2-0.3c-0.2,0.8-0.3,1.7-0.5,2.5c-0.2,0.8-0.4,1.7-0.6,2.5c-0.2,0.8-0.2,1.7-0.2,2.5
					c0,0.4,0.1,0.8,0.2,1.2c0.1,0.4,0.3,0.8,0.5,0.9l-0.1,0c0.9,0.1,1.8,0.3,2.7,0.4l-0.5,0.4c0.1-1,0.1-2,0.3-3c0.1-1,0.3-2,0.6-3
					C20,56.7,20.6,54.8,21.6,53z M21.7,53c-0.4,2-0.9,3.9-1.3,5.9c-0.2,1-0.4,1.9-0.5,2.9c-0.2,1-0.3,2-0.4,2.9l-0.1,0.5L19,65.1
					c-0.9-0.2-1.7-0.5-2.6-0.7l-0.1,0l0,0c-0.5-0.4-0.6-0.9-0.7-1.3c-0.1-0.4-0.1-0.9-0.1-1.3c0-0.9,0.1-1.7,0.1-2.6
					c0.1-1.7,0.2-3.4,0.7-5.1l0-0.2l0.1-0.1c0.8-0.5,1.6-0.8,2.5-1C19.9,52.6,20.8,52.7,21.7,53L21.7,53L21.7,53z"/>
			</g>
			<g>
				<path class="st7" d="M28.6,55.9c0,0-2.9-2.3-7-2.9c-1.6,3.7-2.5,7.7-2.6,11.7l5.5,1.3C24.6,65.9,28.5,64.7,28.6,55.9z"/>
				<path d="M28.5,55.9c-1.1-0.6-2.2-1.2-3.4-1.6c-1.2-0.4-2.4-0.8-3.6-0.9l0.5-0.3c-0.8,1.8-1.6,3.6-2.1,5.6
					c-0.5,1.9-0.6,4-0.5,5.9l-0.3-0.4c1.9,0.3,3.7,0.7,5.6,1.1l-0.3,0c0.3-0.1,0.7-0.4,1-0.7c0.3-0.3,0.6-0.6,0.8-1
					c0.5-0.7,0.9-1.5,1.2-2.4C28,59.6,28.3,57.8,28.5,55.9z M28.6,55.9c0.2,1.9,0.1,3.8-0.4,5.7c-0.2,0.9-0.6,1.9-1.1,2.7
					c-0.3,0.4-0.6,0.8-1,1.2c-0.4,0.4-0.8,0.7-1.4,0.9l-0.1,0l-0.1,0C22.7,66,20.8,65.5,19,65l-0.3-0.1l0-0.3c0.2-2,0.5-4,0.9-6
					c0.4-2,0.8-4,1.6-5.9l0.1-0.3l0.3,0.1c1.3,0.2,2.5,0.6,3.7,1.2C26.6,54.3,27.7,55,28.6,55.9L28.6,55.9L28.6,55.9z"/>
			</g>
		</g>
		<g class="st1">
			<g>
				<path class="st3" d="M16.6,54.1c0,0-0.3,1.1-0.5,2.7c1.3,0.2,2.7-0.1,3.8-1.1c-0.9,2.8-1.7,5.8-1.8,8.8l1,0.2
					c0.2-2.7,0.7-5.3,1.4-7.9c-0.1-0.1-0.2-0.3-0.3-0.4c0.1,0.1,0.2,0.3,0.3,0.4c0.4-1.3,0.8-2.5,1.2-3.8
					C20.1,52.8,18.4,53,16.6,54.1z"/>
				<path class="st3" d="M28.6,55.9c0,0-2.9-2.3-7-2.9c-0.5,1.2-1,2.5-1.3,3.8c1.7,1.5,4.2,2.7,5.1,4.1c1.7,2-1.7,3.6-4.8,4.2l4,0.9
					C24.6,65.9,28.5,64.7,28.6,55.9z"/>
			</g>
		</g>
		<g>
			<g>
				<path class="st0" d="M67,19.3c-30.5-0.7-39.5,9.6-47.3,25.4c0,0-0.5,0.6-0.8,0.7c-1.7,0.4-3.5,1.3-4.5,4.5
					c-0.9,2.7,0.8,5.4,2.8,5.7c1.2,0.2,2.3-0.4,3.2-1.5c1.8,3.1,6.5,5.5,12.2,5.9c3.6,0.2,7-0.4,9.5-1.7c5.8,1.4,11.2,3,14.8,6.7
					c5.3,5.3,5.3,22.6,0,26.6c-4.9,7.4-2.6,6.7-4.3,10.4l-0.4,0.1c0,0-2.1,9-3.7,15.7c-3.4,15.1-4.1,21.7-1.8,34.9
					c0,0-13.9,58.6,9.5,10c0,0,10.4,3.7,13.7,1.9c0,0,38.9,34.6,19-3.3c0,0,12.1-8.7,5-31.6c-6.6-21.3-10.2-23.4-7.7-27.8
					c-2.5,1.1-2.8,2.4-2.8,5.6c0-3.3-0.6-3.7,1.9-4.8c0.2-0.3,0.4-0.6,0.6-0.9l0,0c1.4-0.4,5.3-1.8,6.6-2.3l0,0l0,0
					c10-4.3,15.8-12.7,19.6-28.2C116.6,53.2,102.7,20.1,67,19.3z M48.4,155c2.7,4,5.3,6.7,9.3,8C53.7,161.7,51,159,48.4,155z"/>
			</g>
			<g>
				<path class="st11" d="M67,19.3c-4.8-0.1-9.6,0-14.4,0.7c-4.8,0.6-9.5,1.8-13.9,3.8c-4.4,2-8.2,5-11.3,8.7
					c-3.1,3.7-5.4,7.9-7.5,12.2l0,0l0,0c-0.1,0.2-0.3,0.3-0.4,0.4c-0.1,0.1-0.2,0.1-0.3,0.2c-0.1,0.1-0.3,0.1-0.4,0.1
					c-0.4,0.1-0.7,0.2-1.1,0.4c-0.7,0.3-1.3,0.7-1.8,1.3c-0.5,0.6-0.8,1.2-1.1,1.9c-0.3,0.7-0.5,1.4-0.5,2.1c0,1.4,0.7,2.9,2,3.6
					c1.3,0.8,2.8,0,3.7-1.1l0.3-0.4l0.3,0.4c1,1.6,2.6,2.8,4.3,3.7c1.7,0.9,3.6,1.4,5.5,1.7c1.9,0.3,3.9,0.4,5.8,0.1
					c1.9-0.2,3.8-0.7,5.5-1.6l0.1-0.1l0.2,0c3.6,0.9,7.3,1.9,10.7,3.7c1.7,0.9,3.3,2,4.6,3.4c1.3,1.5,2.1,3.3,2.6,5.1
					c1.1,3.7,1.3,7.5,1.1,11.3c-0.2,1.9-0.5,3.8-1,5.6c-0.6,1.8-1.4,3.6-3,4.9l0.1-0.1c-1,1.6-2.1,3.2-2.8,4.9
					c-0.4,0.9-0.6,1.7-0.7,2.7c-0.1,1-0.4,1.9-0.8,2.8l-0.1,0.1l-0.1,0l-0.4,0.1l0.2-0.2l-3,12.5c-1,4.2-1.9,8.3-2.7,12.5
					c-0.8,4.2-1.3,8.5-1.3,12.7c0,4.3,0.6,8.5,1.4,12.7l0,0l0,0c-1,4.3-1.9,8.7-2.7,13.1c-0.4,2.2-0.7,4.4-1,6.6
					c-0.3,2.2-0.5,4.4-0.4,6.6c0,0.5,0.1,1.1,0.2,1.6c0.1,0.5,0.4,1,0.7,1.1c0.4,0.1,0.9-0.3,1.3-0.6c0.4-0.4,0.8-0.8,1.1-1.2
					c1.4-1.7,2.5-3.6,3.6-5.5c2.2-3.9,4.2-7.8,6.1-11.8l0.1-0.2l0.2,0.1c2.2,0.7,4.5,1.4,6.8,1.8c1.1,0.2,2.3,0.4,3.4,0.5
					c1.1,0.1,2.3,0,3.3-0.4l0.2-0.1l0.2,0.1c3,2.6,6,5,9.2,7.4c3.2,2.3,6.4,4.6,9.9,6.1c0.9,0.4,1.8,0.7,2.7,0.8
					c0.9,0.1,1.8-0.2,2-0.9c0.3-0.8,0.2-1.8,0.1-2.7c-0.2-0.9-0.4-1.9-0.7-2.8c-1.2-3.7-3-7.2-4.8-10.7l-0.2-0.3l0.3-0.2
					c1.9-1.6,3.5-3.8,4.6-6.1c1.1-2.3,1.8-4.9,2.2-7.4c0.7-5.2,0-10.4-1.3-15.5c-1.5-5-3.2-10-5-14.9l-2.9-7.4
					c-0.5-1.2-0.9-2.5-1.2-3.9c-0.1-0.7-0.1-1.4,0-2.1c0.1-0.7,0.4-1.4,0.8-2l0.6,0.7c-1,0.4-1.8,1-2.1,2c-0.3,0.9-0.3,2.1-0.3,3.2
					h-1c0-0.5,0-0.9,0-1.4c0-0.5-0.1-1,0-1.5c0-0.3,0.1-0.6,0.2-0.9c0.2-0.3,0.4-0.5,0.6-0.7c0.5-0.3,0.9-0.5,1.4-0.7l-0.2,0.2
					c0.2-0.3,0.4-0.7,0.7-1l0.1-0.1l0.1,0l0,0l0,0l0,0c1.1-0.3,2.2-0.7,3.3-1.1l1.7-0.6c0.6-0.2,1.1-0.4,1.6-0.6l0.2,1l0,0l-3.6,0.4
					l3.3-1.4c4.3-1.8,8.1-4.7,11-8.4c2.9-3.7,4.9-8,6.4-12.5c1.5-4.5,2.9-9.1,2.8-13.8c0-4.7-0.9-9.4-2.4-13.9
					c-3.1-8.9-8.8-17-16.5-22.5c-3.8-2.8-8.1-4.9-12.7-6.3C76.5,20.2,71.7,19.5,67,19.3z M67,19.2c4.8,0.1,9.5,0.8,14.1,2.2
					c4.6,1.4,8.9,3.5,12.8,6.3c7.8,5.5,13.7,13.6,16.9,22.6c1.6,4.5,2.5,9.3,2.5,14.1c0,2.4-0.2,4.8-0.8,7.2
					c-0.6,2.3-1.2,4.6-1.9,6.9c-1.5,4.5-3.5,9-6.4,12.8c-1.5,1.9-3.2,3.7-5.1,5.1c-1.9,1.5-4,2.7-6.3,3.6l-0.3-0.9l0,0l3.6-0.4
					l-3.4,1.4c-0.5,0.2-1.1,0.4-1.6,0.6l-1.7,0.6c-1.1,0.4-2.2,0.8-3.4,1.1l0,0l0,0l0.2-0.1c-0.2,0.3-0.4,0.6-0.6,0.9l-0.1,0.1
					l-0.1,0.1c-0.4,0.2-0.8,0.4-1.2,0.6c-0.3,0.2-0.4,0.5-0.5,0.9c0,0.4,0,0.9,0,1.4c0,0.5,0,1,0,1.5h-1c0-1.1,0-2.3,0.4-3.5
					c0.2-0.6,0.6-1.2,1.1-1.6c0.5-0.4,1-0.7,1.6-0.9l1.4-0.6l-0.8,1.3c-0.6,1.1-0.9,2.2-0.7,3.5c0.2,1.2,0.7,2.5,1.1,3.7l2.9,7.4
					c1.9,4.9,3.6,9.9,5,15c1.4,5.1,2.1,10.5,1.3,15.8c-0.4,2.7-1.1,5.3-2.3,7.7c-1.2,2.4-2.7,4.7-4.9,6.4l0.1-0.6
					c1.8,3.5,3.6,7,4.8,10.8c0.3,0.9,0.6,1.9,0.7,2.9c0.1,1,0.3,2.1-0.2,3.1c-0.2,0.5-0.7,1-1.2,1.2c-0.6,0.2-1.1,0.2-1.6,0.2
					c-1.1-0.1-2-0.5-2.9-0.8c-3.7-1.6-6.9-3.9-10.1-6.3c-3.2-2.4-6.2-4.9-9.2-7.5l0.4,0c-1.2,0.6-2.4,0.5-3.6,0.5
					c-1.2-0.1-2.4-0.3-3.5-0.5c-2.3-0.5-4.6-1.1-6.8-1.9l0.3-0.1c-1.9,4-3.9,8-6.2,11.9c-1.1,1.9-2.3,3.8-3.7,5.6
					c-0.4,0.4-0.7,0.9-1.2,1.2c-0.2,0.2-0.5,0.4-0.7,0.5c-0.3,0.1-0.6,0.3-1,0.2c-0.4-0.1-0.6-0.4-0.8-0.6c-0.2-0.3-0.2-0.6-0.3-0.8
					c-0.1-0.6-0.2-1.1-0.2-1.7c-0.1-2.3,0.1-4.5,0.4-6.7c0.3-2.2,0.6-4.4,1-6.6c0.8-4.4,1.7-8.7,2.7-13.1l0,0.1
					c-0.8-4.2-1.3-8.5-1.4-12.8c-0.1-4.3,0.4-8.6,1.2-12.8c0.7-4.2,1.7-8.4,2.6-12.6l2.9-12.5l0-0.2l0.2,0l0.3-0.1l-0.2,0.2
					c0.4-0.8,0.7-1.7,0.8-2.6c0.1-0.9,0.3-2,0.7-2.8c0.8-1.8,1.8-3.4,2.9-5l0,0l0,0c1.4-1.1,2.2-2.8,2.7-4.6c0.5-1.8,0.8-3.6,1-5.4
					c0.3-3.7,0-7.5-1.1-11c-0.5-1.7-1.3-3.5-2.5-4.8c-1.3-1.3-2.8-2.4-4.4-3.3c-3.3-1.7-6.9-2.7-10.5-3.6l0.3,0
					c-1.8,0.9-3.8,1.4-5.8,1.6c-2,0.2-4,0.1-6-0.2c-2-0.3-3.9-0.9-5.7-1.9c-1.8-0.9-3.5-2.2-4.5-4l0.5,0c-0.5,0.6-1.2,1.2-2,1.5
					c-0.4,0.1-0.8,0.2-1.3,0.2c-0.4,0-0.8-0.2-1.2-0.4c-1.5-0.9-2.3-2.6-2.2-4.2c0-0.8,0.2-1.6,0.5-2.4c0.3-0.7,0.7-1.5,1.2-2.1
					c0.5-0.6,1.2-1.1,2-1.4c0.4-0.2,0.8-0.3,1.1-0.4c0.2,0,0.5-0.4,0.8-0.6l0,0.1c2.1-4.3,4.5-8.6,7.7-12.3
					c3.1-3.7,7.1-6.7,11.5-8.7c4.4-2,9.2-3.1,13.9-3.7C57.3,19.2,62.2,19.1,67,19.2z"/>
				<path class="st11" d="M48.4,155c0.6,0.9,1.3,1.6,2,2.4c0.8,0.7,1.5,1.4,2.2,2.2c0.7,0.7,1.4,1.5,2.3,2c0.9,0.6,1.8,0.9,2.8,1.2
					l-0.2,0.5c-2.1-0.5-4-1.6-5.6-3c-0.8-0.7-1.5-1.6-2-2.5C49.4,156.9,48.9,155.9,48.4,155L48.4,155z M48.4,155
					c0.6,0.9,1.3,1.6,2.1,2.4c0.8,0.7,1.5,1.4,2.2,2.1c0.8,0.7,1.5,1.3,2.4,1.9c0.9,0.5,1.7,1,2.7,1.4l-0.2,0.5
					c-1-0.4-1.9-0.9-2.8-1.4c-0.9-0.5-1.9-1-2.7-1.7c-0.8-0.7-1.5-1.5-2.1-2.4C49.4,156.9,48.9,155.9,48.4,155L48.4,155z"/>
			</g>
		</g>
		<path class="st8" d="M49.3,155c1.2,7.6-0.9,14-4.9,18.6c-0.8,9.4,1,13.2,11.8-11C53.4,161.4,51.1,157.7,49.3,155z"/>
		<g>
			<path class="st0" d="M84.1,103.4c0.3-0.2,0.6-0.4,1.1-0.6c0.1-0.2,0.3-0.5,0.5-0.7C85,102.5,84.5,102.9,84.1,103.4z"/>
			<g>
				<path class="st11" d="M84.1,103.4L84.1,103.4c0.1-0.4,0.2-0.6,0.4-0.7c0.1-0.1,0.2-0.1,0.3-0.2c0.1,0,0.2,0,0.4,0l-0.1,0.1
					c0.1-0.1,0.3-0.2,0.4-0.3c0.1-0.1,0.1-0.3,0.1-0.4l0.4,0.4c-0.2,0.3-0.4,0.5-0.7,0.7C84.9,103.2,84.6,103.3,84.1,103.4
					L84.1,103.4z M84.1,103.4c-0.1-0.5,0.2-0.9,0.4-1.1c0.1-0.1,0.3-0.2,0.5-0.3c0.2-0.1,0.4-0.1,0.6-0.1l1.1,0l-0.7,0.4
					c-0.1,0.1-0.3,0.1-0.3,0.3c-0.1,0.1-0.1,0.3-0.1,0.4l0-0.1l-0.1,0.2c-0.1,0.1-0.1,0.2-0.2,0.3c-0.1,0.1-0.2,0.1-0.3,0.1
					C84.7,103.5,84.5,103.5,84.1,103.4L84.1,103.4L84.1,103.4z"/>
			</g>
		</g>
		<g>
			<path class="st0" d="M84.1,103.4c0.3-0.2,0.6-0.4,1.1-0.6c0.1-0.2,0.3-0.5,0.5-0.7C85,102.5,84.5,102.9,84.1,103.4z"/>
			<g>
				<path class="st11" d="M84.1,103.4L84.1,103.4c0.1-0.4,0.2-0.6,0.4-0.7c0.1-0.1,0.2-0.1,0.3-0.2c0.1,0,0.2,0,0.4,0l-0.1,0.1
					c0.1-0.1,0.3-0.2,0.4-0.3c0.1-0.1,0.1-0.3,0.1-0.4l0.4,0.4c-0.2,0.3-0.4,0.5-0.7,0.7C84.9,103.2,84.6,103.3,84.1,103.4
					L84.1,103.4z M84.1,103.4c-0.1-0.5,0.2-0.9,0.4-1.1c0.1-0.1,0.3-0.2,0.5-0.3c0.2-0.1,0.4-0.1,0.6-0.1l1.1,0l-0.7,0.4
					c-0.1,0.1-0.3,0.1-0.3,0.3c-0.1,0.1-0.1,0.3-0.1,0.4l0-0.1l-0.1,0.2c-0.1,0.1-0.1,0.2-0.2,0.3c-0.1,0.1-0.2,0.1-0.3,0.1
					C84.7,103.5,84.5,103.5,84.1,103.4L84.1,103.4L84.1,103.4z"/>
			</g>
		</g>
		<path class="st8" d="M42.3,54.7c-6.1,0-14.8,2.6-21.8-2.6c-0.8-0.8-3.6,1.2-6.1,1c0.5,1.3,1.5,2.2,2.6,2.4
			c1.2,0.2,2.3-0.4,3.2-1.5c1.8,3.1,6.5,5.5,12.2,5.9c3.6,0.2,7-0.4,9.5-1.7c5.8,1.4,11.2,3,14.8,6.7c5.3,5.3,5.3,22.6,0,26.6
			c-4.9,7.4-2.6,6.7-4.3,10.4l-0.4,0.1c0,0,0,3-0.3,7c6.9-10.2,10.6-22.9,10.6-34.3C63.3,64.3,51.1,54.7,42.3,54.7z"/>
		<path class="st8" d="M67,19.3c-7.6-0.2-13.9,0.3-19.2,1.4c10.3,0.7,20.4,4.2,29.4,10.4c0.9,0-0.9,4.4-0.9,4.4
			c10.5,7.8,7.8,17.4,14.8,26.2c2.6,4.4,7.8,0,12.2-0.9C106.9,80,92,98.3,74.6,104.4c16.6,12.2,17,37,9.2,56.1
			c-0.9,1.7-3.5,3.5-6.1,4.4c8.8-2.2,15.2,7.4,14.8,14.1c3.1-0.2,3.2-4.7-3.7-17.7c0,0,12.1-8.7,5-31.6
			c-6.6-21.3-10.2-23.4-7.7-27.8c-0.1,0.1-0.3,0.1-0.4,0.2c-0.2,0.2-0.3,0.4-0.5,0.7c-0.5,0.2-0.9,0.4-1.1,0.6
			c-0.6,0.9-0.8,2.2-0.8,4.2c0-2.6-0.4-3.4,0.8-4.2c0.3-0.5,0.9-0.9,1.6-1.3c0.1-0.1,0.1-0.2,0.2-0.3l0,0c1.4-0.4,5.3-1.8,6.6-2.3
			l0,0l0,0c10-4.3,15.8-12.7,19.6-28.2C116.6,53.2,102.7,20.1,67,19.3z"/>
		<g>
			<path class="st0" d="M84.1,103.4c0.3-0.2,0.6-0.4,1.1-0.6c0.1-0.2,0.3-0.5,0.5-0.7C85,102.5,84.5,102.9,84.1,103.4z"/>
			<g>
				<path class="st11" d="M84.1,103.4L84.1,103.4c0.1-0.4,0.2-0.6,0.4-0.7c0.1-0.1,0.2-0.1,0.3-0.2c0.1,0,0.2,0,0.4,0l-0.1,0.1
					c0.1-0.1,0.3-0.2,0.4-0.3c0.1-0.1,0.1-0.3,0.1-0.4l0.4,0.4c-0.2,0.3-0.4,0.5-0.7,0.7C84.9,103.2,84.6,103.3,84.1,103.4
					L84.1,103.4z M84.1,103.4c-0.1-0.5,0.2-0.9,0.4-1.1c0.1-0.1,0.3-0.2,0.5-0.3c0.2-0.1,0.4-0.1,0.6-0.1l1.1,0l-0.7,0.4
					c-0.1,0.1-0.3,0.1-0.3,0.3c-0.1,0.1-0.1,0.3-0.1,0.4l0-0.1l-0.1,0.2c-0.1,0.1-0.1,0.2-0.2,0.3c-0.1,0.1-0.2,0.1-0.3,0.1
					C84.7,103.5,84.5,103.5,84.1,103.4L84.1,103.4L84.1,103.4z"/>
			</g>
		</g>
		<path d="M26.2,45.3c-0.5,2.3-3.9,5.8-6.9,5.1c-3-0.7-4.4-3.1-3.9-5.4c0.5-2.3,2.2-3.9,5.1-3.2C23.6,42.5,26.8,43,26.2,45.3z"/>
		<g>
			<path d="M49.2,44.7c-1.1,2-2.4,3.5-4.5,2.4c-2-1.1-2.8-3.6-1.7-5.6c1.1-2,3.6-2.8,5.6-1.8C50.7,40.7,50.3,42.6,49.2,44.7z"/>
			<ellipse class="st7" cx="44.5" cy="42.5" rx="0.5" ry="0.8"/>
		</g>
		<g>
			<path d="M23.4,39.6c-1.3,1.2-2.3,1.8-2.5,0.7c-0.2-1.2,0.7-3.1,2-4.2c1.3-1.2,2.4-1.2,2.6,0C25.7,37.3,24.7,38.5,23.4,39.6z"/>
			<ellipse transform="matrix(0.5502 -0.835 0.835 0.5502 -20.7102 35.7672)" class="st7" cx="22.8" cy="37.1" rx="0.7" ry="0.2"/>
		</g>
		<ellipse class="st2" cx="45.3" cy="84" rx="7.8" ry="2.3"/>
		<ellipse class="st7" cx="49.5" cy="82.4" rx="2.4" ry="1.6"/>
		<ellipse class="st2" cx="48" cy="50.6" rx="7.8" ry="2.3"/>
		<ellipse class="st7" cx="52.2" cy="49" rx="2.4" ry="1.6"/>
		<g>
			<path class="st0" d="M125.2,38.6c3.2-13.8-5.4-27.6-19.2-30.8C92.3,4.6,78.5,13.1,75.2,27c-0.8,3.3-0.9,6.7-0.3,9.9
				c8.9,3.8,14.9,11.5,17.5,20.4c0.6,0.2,1.3,0.4,2,0.6C108.2,61,122,52.4,125.2,38.6z"/>
			<g>
				<path class="st11" d="M125.2,38.6c0.8-3.7,0.9-7.5,0-11.2c-0.9-3.7-2.5-7.1-4.9-10c-4.6-5.9-11.8-9.6-19.2-9.9
					c-3.7-0.2-7.5,0.5-10.9,1.9c-3.4,1.5-6.6,3.7-9.1,6.5c-5,5.6-7.1,13.6-5.9,20.9L75,36.5c4.3,1.8,8.2,4.7,11.3,8.3
					c3.1,3.6,5.3,7.8,6.6,12.3l-0.3-0.3c3.3,1.1,6.8,1.4,10.3,1.1c3.5-0.3,6.8-1.4,9.9-3c3.1-1.7,5.8-4,7.9-6.7
					C122.8,45.3,124.3,42,125.2,38.6z M125.3,38.6c-0.8,3.5-2.3,6.7-4.4,9.6c-2.1,2.9-4.8,5.3-7.8,7.2c-3.1,1.8-6.6,3-10.1,3.4
					c-3.6,0.4-7.3,0-10.7-1.1L92,57.6l-0.1-0.3c-1.3-4.4-3.5-8.5-6.4-12c-2.9-3.5-6.6-6.3-10.8-8.2l-0.2-0.1l0-0.2
					c-0.6-3.8-0.3-7.7,0.8-11.3c1.1-3.7,3-7,5.5-9.9c5-5.7,12.6-9.1,20.3-8.9c3.8,0.1,7.6,1.1,11.1,2.8c3.4,1.7,6.4,4.3,8.7,7.4
					C125.5,23.1,127.1,31.3,125.3,38.6z"/>
			</g>
		</g>
		<path class="st8" d="M112.2,10.1c5,8.1,7.2,18.2,1.6,27.2c-5.2,7-14.8,12.2-20.9,9.6c-3-1-6-2.5-9-4c4,3.9,6.9,8.9,8.5,14.3
			c0.6,0.2,1.3,0.4,2,0.6c13.8,3.2,27.6-5.4,30.8-19.2C127.9,27,122.3,15.4,112.2,10.1z"/>
		
			<linearGradient id="SVGID_1_" gradientUnits="userSpaceOnUse" x1="101.4072" y1="168.51" x2="118.1933" y2="152.4869" gradientTransform="matrix(1 0 0 -1 -20.8398 192.6743)">
			<stop  offset="1.820000e-002" style="stop-color:#078D9E"/>
			<stop  offset="1" style="stop-color:#078D9E;stop-opacity:0"/>
		</linearGradient>
		<path class="st6" d="M98.7,33.5c0.6-8.4-3.8-15.6-9.8-16c-6-0.4-11.3,6.1-11.9,14.6c-0.1,2,0,4,0.4,5.8c4,1.3,8.8,5.6,10.4,10.5
			c0.3,0.1,0.6,0.1,0.9,0.1C94.7,48.9,98.2,41.9,98.7,33.5z"/>
		<g>
			<path class="st0" d="M82.5,37.3c0-0.7,0-1.4-0.1-2.1C82.2,35.8,82.2,36.5,82.5,37.3z"/>
			<path class="st4" d="M82.5,37.3L82.5,37.3c-0.3-0.2-0.3-0.4-0.4-0.6c-0.1-0.2-0.1-0.3,0-0.5c0-0.2,0.2-0.3,0.2-0.5
				c0-0.2-0.1-0.3-0.2-0.5l0.5,0c0.1,0.4,0.2,0.6,0.2,0.9C82.7,36.5,82.7,36.8,82.5,37.3L82.5,37.3z M82.4,37.3
				c-0.4-0.2-0.6-0.6-0.7-1c0-0.4,0.1-0.8,0.4-1.2l0.8-0.9l-0.3,0.9c-0.1,0.2-0.1,0.4,0,0.5c0.1,0.2,0.2,0.3,0.3,0.5
				c0.1,0.2,0,0.4,0,0.5C82.8,36.9,82.7,37.1,82.4,37.3L82.4,37.3L82.4,37.3z"/>
		</g>
		<g>
			<path class="st0" d="M79,36.4c-0.2-1.2-0.3-2.5-0.3-3.7c-0.2,0.1-0.4,0.2-0.6,0.2C77.2,33.8,78.1,35.5,79,36.4z"/>
			<path class="st4" d="M79.1,36.6l-0.2-0.2c-0.4-0.5-0.6-1.2-0.6-1.8c0-0.3,0.1-0.6,0.2-1c0.1-0.3,0.1-0.6,0-0.9l0.3,0.2
				c-0.2,0.2-0.4,0.3-0.7,0.4l0.2-0.1c-0.1,0.2-0.1,0.4-0.1,0.7c0,0.2,0.1,0.5,0.2,0.8c0.2,0.5,0.4,1.1,0.6,1.8L79.1,36.6z
				 M78.9,36.4c-0.7-0.3-1.2-0.8-1.5-1.5c-0.2-0.3-0.2-0.7-0.2-1.2c0-0.4,0.2-0.9,0.6-1.1l0.2-0.1l0,0c0.1,0.1,0.3,0,0.5,0l0.3-0.1
				l-0.1,0.3c-0.1,0.3-0.1,0.6,0,0.9c0.1,0.3,0.2,0.6,0.3,0.9c0,0.3,0,0.6,0,0.9C79.2,35.7,79.1,36,78.9,36.4L78.9,36.4L78.9,36.4z"
				/>
		</g>
		<g>
			<path class="st10" d="M92.6,18.7c-1.1-0.7-2.4-1.1-3.7-1.2c-6-0.4-11.3,6.1-11.9,14.6c-0.1,2,0,4,0.4,5.8
				c4,1.3,8.8,5.6,10.4,10.5c0.2,0,0.4,0.1,0.6,0.1C88.3,45,87.3,42,85.1,39c0.9,0,1.7,0,1.7,0c0-1.7,0.9-4.4-0.9-5.2
				c-1.8-0.6-3.2,0.1-3.6,1.4c-0.2-1-0.6-2.1-1.6-3.1c-0.7-0.7-1.3,0.2-2,0.7C79,25.2,84.3,17.4,92.6,18.7z"/>
			<g>
				<path d="M92.4,18.6c-2.2-1.2-4.8-1.3-7-0.3c-2.3,1-4.1,2.9-5.4,5c-1.3,2.1-2.1,4.6-2.5,7c-0.4,2.5-0.4,5,0.1,7.5l-0.1-0.2
					c1.2,0.4,2.4,1.1,3.4,1.8c1.1,0.7,2,1.6,2.9,2.5c1.8,1.8,3.3,4,4.2,6.4l-0.1-0.1c0.2,0,0.4,0.1,0.6,0.1l-0.2,0.2
					c-0.1-1.7-0.5-3.4-1-4.9c-0.6-1.6-1.4-3-2.5-4.4l-0.4-0.5l0.6,0l1.7,0L86.5,39c0-1,0.2-1.9,0.2-2.8c0-0.9-0.2-1.8-0.9-2.1l0,0
					c-0.6-0.2-1.3-0.3-1.9-0.1c-0.6,0.2-1,0.6-1.2,1.2L82.2,37l-0.3-1.8c-0.1-0.9-0.5-1.8-1.1-2.5c-0.1-0.2-0.3-0.4-0.5-0.5
					c-0.1-0.1-0.2-0.1-0.3,0c-0.3,0.1-0.7,0.5-1.1,0.8l-0.6,0.4l0-0.7c0.1-1.9,0.5-3.8,1.2-5.6c0.7-1.8,1.7-3.4,2.9-4.8
					c1.3-1.4,2.9-2.6,4.6-3.2C88.7,18.5,90.6,18.4,92.4,18.6z M92.6,18.7c-1.8-0.2-3.7,0-5.4,0.7c-1.7,0.7-3.2,1.8-4.4,3.2
					c-1.2,1.4-2.1,3-2.7,4.7c-0.6,1.7-1,3.5-1,5.3l-0.6-0.3c0.4-0.2,0.7-0.6,1.3-0.9c0.3-0.1,0.8-0.1,1.1,0.2
					c0.2,0.2,0.4,0.4,0.6,0.6c0.7,0.8,1.1,1.8,1.3,2.9l-0.8,0c0.2-0.8,0.9-1.5,1.7-1.8c0.8-0.2,1.6-0.1,2.4,0.1l0,0l0,0
					c0.5,0.2,0.9,0.7,1.1,1.2c0.2,0.5,0.2,1,0.2,1.5c0,1-0.2,1.9-0.2,2.8l0,0.3l-0.3,0l-1.7,0l0.3-0.5c1,1.4,1.9,2.9,2.4,4.6
					c0.6,1.6,0.8,3.4,0.9,5.1l0,0.2l-0.2,0c-0.2,0-0.4-0.1-0.6-0.1l-0.1,0l0-0.1c-0.4-1.2-0.9-2.3-1.6-3.4c-0.7-1.1-1.5-2-2.4-2.9
					c-1.8-1.8-3.9-3.3-6.3-4l-0.1,0l0-0.1c-0.6-2.5-0.7-5.1-0.3-7.7c0.4-2.6,1.2-5.1,2.6-7.3c1.4-2.2,3.3-4.1,5.7-5.1
					c1.2-0.5,2.5-0.7,3.8-0.5C90.3,17.5,91.5,18,92.6,18.7l0.2,0L92.6,18.7z"/>
			</g>
		</g>
		<ellipse transform="matrix(-0.3054 -0.9522 0.9522 -0.3054 -20.855 142.7454)" cx="41.6" cy="79" rx="0.7" ry="3.5"/>
		<g>
			<path class="st7" d="M29,90.6c2.5-0.4,4.4-2,4.1-3.7c-0.1-0.4-0.2-0.6-0.4-0.8c-2.1,1.9-4.8,3.2-8.2,3.3
				C25.4,90.4,27.1,90.9,29,90.6z"/>
			<path d="M29,90.6c1.2-0.2,2.2-0.8,3-1.6c0.4-0.4,0.7-0.8,0.9-1.3c0.2-0.5,0.2-1.1-0.2-1.4l0.2,0c-1.2,0.9-2.4,1.8-3.8,2.5
				c-1.4,0.6-2.9,1-4.5,1l0.3-0.7c0.5,0.5,1.1,0.9,1.8,1.2C27.4,90.6,28.2,90.7,29,90.6z M29,90.6c-0.8,0.1-1.6,0.2-2.4,0.1
				c-0.8-0.1-1.7-0.4-2.3-1.1l-0.6-0.6l0.8-0.1c1.5-0.1,2.9-0.3,4.3-0.8c1.4-0.4,2.8-1.1,3.8-2.2l0.1-0.1l0.1,0.1
				c0.6,0.4,0.7,1.2,0.6,1.8c-0.1,0.7-0.5,1.2-1,1.6c-0.5,0.4-1.1,0.6-1.6,0.8C30.1,90.4,29.6,90.5,29,90.6z"/>
		</g>
		<g>
			<path class="st7" d="M28.3,86.3c-2.5,0.4-4.6,0.3-4.4,2c0.1,0.4,0.3,0.8,0.6,1.2c3.4-0.1,6-1.4,8.2-3.3
				C32,85.5,30.3,86,28.3,86.3z"/>
			<path d="M28.3,86.3c-1.1,0.2-2.2,0.4-3.2,0.8c-0.5,0.2-0.8,0.4-0.9,0.8c-0.1,0.4,0.1,1,0.4,1.4l-0.1-0.1c1.5,0.1,3-0.4,4.3-1
				c1.3-0.6,2.5-1.5,3.6-2.4l0,0.6c-0.2-0.1-0.5-0.2-0.8-0.3c-0.3,0-0.7,0-1.1,0C29.8,86.2,29.1,86.2,28.3,86.3z M28.3,86.2
				c0.4-0.1,0.7-0.1,1.1-0.2l1.1-0.3c0.4-0.1,0.7-0.2,1.1-0.2c0.4,0,0.9,0,1.3,0.3l0.4,0.3L33,86.4c-1.1,1-2.5,1.9-3.9,2.4
				c-1.5,0.5-3,0.6-4.5,0.8l-0.1,0l-0.1-0.1c-0.4-0.4-0.8-1-0.8-1.7c0-0.3,0.2-0.7,0.5-1c0.3-0.2,0.6-0.3,0.9-0.4
				c0.6-0.1,1.2-0.1,1.7-0.1C27.2,86.3,27.8,86.3,28.3,86.2z"/>
		</g>
		<path class="st8" d="M62.3,109.6c0,0-37.6,50.1,11.6,7.5"/>
		<g>
			<path class="st0" d="M63.1,108c0,0-41.1,47.3,11,8.3"/>
			<path class="st11" d="M63.1,108c-3,4-6,7.8-9,11.8c-1.5,1.9-3,3.9-4.3,6c-0.6,1-1.2,2.1-1.6,3.3c-0.2,0.6-0.4,1.2-0.3,1.7
				c0.1,0.6,0.6,0.7,1.1,0.7c1.1-0.1,2.3-0.7,3.3-1.2c1.1-0.5,2.1-1.2,3.2-1.8c2.1-1.3,4.1-2.6,6.2-4c4.1-2.7,8.2-5.5,12.3-8.2
				l0.1,0.1c-3.8,3.2-7.7,6.2-11.8,9c-2,1.4-4.1,2.7-6.3,3.9c-1.1,0.6-2.2,1.2-3.3,1.7c-1.1,0.5-2.3,1-3.7,1c-0.3,0-0.7,0-1-0.2
				c-0.3-0.2-0.5-0.6-0.6-0.9c0-0.7,0.2-1.3,0.4-1.9c0.5-1.2,1.1-2.3,1.7-3.3c1.2-2.1,2.5-4.3,3.9-6.3
				C56.4,115.3,59.6,111.5,63.1,108L63.1,108z"/>
		</g>
		<g>
			<path class="st11" d="M29.7,50.5c2.8-0.3,5.6-0.3,8.4-0.1c2.8,0.1,5.6,0.5,8.3,1c2.7,0.6,5.5,1.3,8.1,2.4c1.3,0.6,2.5,1.2,3.7,2
				c1.2,0.8,2.3,1.7,3.2,2.7c-1.1-0.9-2.2-1.7-3.4-2.3c-1.2-0.7-2.5-1.2-3.8-1.7c-2.6-0.9-5.3-1.6-8-2.2c-2.7-0.5-5.4-0.9-8.2-1.2
				c-1.4-0.2-2.8-0.3-4.1-0.4C32.5,50.6,31.1,50.5,29.7,50.5z"/>
		</g>
		<g>
			<path class="st11" d="M28.8,52.9c3.5,0.1,7,0.5,10.4,1.3c3.4,0.7,6.8,1.8,10,3.3c3.2,1.5,6.2,3.5,8.6,6.1
				c1.2,1.3,2.3,2.7,3.1,4.3c0.8,1.6,1.4,3.2,1.7,4.9c-1-3.3-2.9-6.3-5.4-8.7c-2.5-2.4-5.4-4.2-8.5-5.7c-3.1-1.5-6.4-2.6-9.7-3.5
				c-1.7-0.5-3.4-0.8-5.1-1.2C32.3,53.4,30.6,53.1,28.8,52.9z"/>
		</g>
		<g>
			<path class="st11" d="M29.7,54.9c2.4,0.5,4.8,1.3,7,2.2c2.3,0.9,4.5,2,6.7,3.3c2.1,1.3,4.1,2.8,5.8,4.7c0.8,1,1.5,2,2,3.2
				c0.5,1.2,0.8,2.4,0.6,3.7c-0.1-1.2-0.5-2.4-1.1-3.4c-0.6-1.1-1.3-2-2.2-2.9c-1.7-1.7-3.7-3.1-5.7-4.4c-2.1-1.3-4.2-2.4-6.4-3.4
				c-1.1-0.5-2.2-1-3.3-1.5C32,55.9,30.8,55.4,29.7,54.9z"/>
		</g>
	</g>
</g>
</svg>
