<?xml version="1.0" encoding="utf-8"?>
<!-- Generator: Adobe Illustrator 15.1.0, SVG Export Plug-In . SVG Version: 6.00 Build 0)  -->
<!DOCTYPE svg PUBLIC "-//W3C//DTD SVG 1.1//EN" "http://www.w3.org/Graphics/SVG/1.1/DTD/svg11.dtd">
<svg version="1.1" id="rat" xmlns="http://www.w3.org/2000/svg" xmlns:xlink="http://www.w3.org/1999/xlink" x="0px" y="0px"
	 width="229.5px" height="279px" viewBox="0 0 229.5 279" style="enable-background:new 0 0 229.5 279;" xml:space="preserve">
<style type="text/css">
<![CDATA[
	.st0{fill:#7AD7EE;}
	.st1{opacity:0.37;}
	.st2{fill:#231F20;}
	.st3{clip-path:url(#SVGID_2_);}
	.st4{fill:#7AD7EE;stroke:#231F20;stroke-miterlimit:10;}
	.st5{opacity:0.25;fill:#078D9E;}
]]>
</style>
<g>
	<ellipse class="st1" cx="112.4" cy="265.2" rx="52" ry="6.9"/>
	<path class="st4" d="M130.8,147.5c0,0,27.3,26.4,25.3,43.1c-2,16.7-12.6-1.4-12.6-1.4"/>
	<path class="st5" d="M130.8,147.5c0,0,27.3,26.4,25.3,43.1c-2,16.7-12.6-1.4-12.6-1.4"/>
	<g>
		<path class="st0" d="M31.5,85.4c4.2,30.8,13.9,52.2,45.7,59.9c1.1,0.3,2.2,0.5,3.4,0.8c0,0,2.5,0.8,0.2,3.8
			c-3.2,4-6,2.7-14.9,15.8c-8.9,13.1,4.9,28,4.9,28s-6,7.1-3.7,14.2c0.9,2.8,4.5-0.4,6.8-7.8c3.2-10.5,6.6-25,6.6-25
			s-4.4,15.3-8.3,31.8c-6.6,27.4,13.6,43.8,13.6,43.8c10.1,33.5,14.3,6.4,14.3,6.4c0-8,3.7-6.9,3.7-6.9l8.1-1.1l3.6-0.5
			c0,0,0,0.1,0,0.1c4.8,21.1,11.1,20.6,11.1,15.3c0-5.3,8-19.1,8-19.1c21.4-18.2,11.2-57.7,7.5-68.7c-0.6-1.9-1.3-2.8-1.3-2.8
			l-0.4-1.2c-0.1-0.4-0.3-0.9-0.4-1.3c-4.4-8.7-11.3-18-9.7-25.7c6.2-0.6,12.3-1.7,18.2-4.1c0.5,0,0.5,0,0.9,0l0.5-0.2
			c21.2-9.9,31-29,34.1-55.2c4.6-38.3-34.1-65.1-76.3-65.1C65.6,20.3,26.3,47.2,31.5,85.4z M120.5,150.4c4-4,7.9-5.9,13.9-5.9
			C128.4,144.4,124.4,146.4,120.5,150.4z"/>
		<g>
			<path class="st2" d="M31.5,85.4c1,7,2.3,14,4.3,20.7c2.1,6.7,4.9,13.3,9.1,19c4.1,5.7,9.6,10.4,15.8,13.8
				c6.2,3.4,13,5.5,19.9,6.9l0,0l0,0c0.6,0.2,1.2,0.7,1.3,1.5c0.1,0.7-0.1,1.3-0.5,1.9c-0.6,1.1-1.5,1.9-2.4,2.7
				c-0.9,0.8-1.9,1.4-2.9,2.2c-0.9,0.7-1.8,1.5-2.6,2.3c-1.7,1.7-3.2,3.5-4.6,5.4c-0.7,0.9-1.4,1.9-2.1,2.9c-0.7,1-1.4,1.9-1.9,3
				c-1.1,2.1-1.7,4.4-1.8,6.7c-0.1,2.3,0.2,4.7,0.9,6.9c1.4,4.5,3.9,8.6,6.9,12.1l0.2,0.3l-0.2,0.3c-1.3,1.7-2.4,3.7-3.2,5.7
				c-0.7,2-1.1,4.2-0.8,6.4c0.1,0.5,0.2,1.1,0.4,1.6l0,0.1c0,0,0,0.1,0,0l0,0l0.1,0.2c0,0.1,0.1,0.2,0.2,0.3
				c0.1,0.2,0.2,0.2,0.4,0.2c0.3,0,0.8-0.3,1.2-0.6c0.4-0.3,0.7-0.8,1-1.2c1.3-1.8,2.1-3.8,2.8-5.9c1.3-4.2,2.5-8.5,3.6-12.9
				c1.1-4.3,2.2-8.6,3.2-13l0.9,0.2c-1.9,6.5-3.6,13-5.3,19.5c-0.8,3.3-1.7,6.5-2.5,9.8c-0.8,3.3-1.5,6.5-1.8,9.9
				c-0.5,6.7,0.5,13.5,3.1,19.7c1.3,3.1,2.9,6,4.8,8.8c1.9,2.7,4.1,5.3,6.6,7.5l0.1,0.1l0,0.1c0.8,2.5,1.6,5.1,2.5,7.5
				c1,2.5,2,4.9,3.5,7c0.4,0.5,0.8,1,1.3,1.4c0.5,0.4,1.1,0.6,1.6,0.6c0.6-0.1,1.1-0.5,1.5-0.9c0.4-0.5,0.8-1,1-1.6
				c1.1-2.4,1.8-5,2.3-7.6l0,0c0-1.5,0.1-3,0.6-4.5c0.2-0.7,0.6-1.4,1.2-2c0.6-0.6,1.4-0.9,2.3-0.7l-0.1,0l11.7-1.6l0.2,0l0,0.2
				c0.8,3.8,1.9,7.5,3.3,11.1c0.7,1.8,1.6,3.5,2.7,5.1c0.6,0.8,1.2,1.5,2,2c0.4,0.2,0.9,0.4,1.3,0.3c0.4-0.1,0.8-0.4,1-0.8
				c0.2-0.4,0.4-0.8,0.4-1.3c0.1-0.5,0-0.9,0.1-1.4c0.1-1,0.3-1.9,0.6-2.9c0.6-1.9,1.3-3.7,2.1-5.4c1.6-3.5,3.4-7,5.3-10.3l0,0l0,0
				c4.8-4.1,8.2-9.6,10.2-15.6c2-6,2.8-12.3,2.8-18.6c0-6.3-0.6-12.6-1.8-18.8c-0.6-3.1-1.3-6.2-2.1-9.2c-0.4-1.5-0.8-3-1.3-4.5
				c-0.5-1.5-1-3-1.8-4.3l0,0l0,0l-0.4-1.2l0,0l0,0c-0.1-0.4-0.3-0.9-0.4-1.3l0,0c-2.1-4.1-4.6-8.1-6.7-12.3c-1-2.1-2-4.3-2.6-6.5
				c-0.6-2.3-1-4.7-0.5-7.1l0.1-0.3l0.3,0c6.2-0.6,12.4-1.8,18.1-4.1l0.1,0l0.1,0c0.3,0,0.6,0,0.9,0l-0.1,0
				c5.5-2.5,10.7-5.9,15.1-10.1c4.4-4.2,8-9.2,10.8-14.7c2.8-5.4,4.7-11.3,6.2-17.2c0.7-3,1.3-6,1.7-9c0.5-3,0.9-6.1,0.9-9.1
				c0.1-6.1-0.9-12.2-3.1-17.9c-2.2-5.7-5.4-11-9.5-15.6c-8-9.2-18.8-15.8-30.2-20.1c-23-8.5-49.2-8-71.8,1.8
				c-11.2,4.9-21.6,12.2-28.9,22.2c-3.6,5-6.4,10.6-7.9,16.5C31,73.1,30.7,79.3,31.5,85.4z M31.4,85.4c-0.9-6.1-0.6-12.4,0.9-18.4
				c1.5-6,4.2-11.6,7.8-16.7C47.4,40.4,57.8,33,69.1,28c22.6-9.9,49.1-10.7,72.4-2.2c11.6,4.3,22.5,11,30.6,20.4
				c4.1,4.7,7.4,10,9.6,15.8c2.2,5.8,3.3,12.1,3.1,18.3c0,3.1-0.5,6.2-0.9,9.2c-0.5,3.1-1,6.1-1.8,9.1c-1.4,6-3.4,11.9-6.3,17.4
				c-2.8,5.5-6.5,10.6-11,14.9c-4.5,4.3-9.7,7.8-15.4,10.3l-0.1,0l-0.1,0c-0.3,0-0.7,0-0.9,0l0.2,0c-5.9,2.4-12.1,3.5-18.4,4.1
				l0.4-0.3c-0.5,2.2-0.2,4.5,0.4,6.7c0.6,2.2,1.5,4.3,2.6,6.4c2.1,4.2,4.5,8.1,6.6,12.3l0,0l0,0c0.1,0.4,0.3,0.9,0.4,1.3l0,0
				l0.4,1.2l0-0.1c0.9,1.4,1.4,3,1.9,4.5c0.5,1.5,0.9,3,1.3,4.6c0.8,3.1,1.5,6.2,2.1,9.3c1.1,6.3,1.8,12.6,1.7,19
				c-0.1,6.3-0.8,12.7-2.9,18.8c-2,6-5.5,11.6-10.4,15.8l0,0c-1.9,3.4-3.7,6.8-5.3,10.3c-0.8,1.8-1.5,3.5-2.1,5.4
				c-0.3,0.9-0.5,1.9-0.6,2.8c0,0.9,0,2-0.6,2.9c-0.3,0.4-0.7,0.8-1.2,0.9c-0.5,0.1-1.1-0.1-1.5-0.3c-0.9-0.5-1.5-1.3-2.1-2
				c-1.2-1.6-2-3.3-2.7-5.1c-1.5-3.6-2.5-7.3-3.4-11.1l0.2,0.1l-11.7,1.6l0,0l-0.1,0c-0.6-0.1-1.3,0.1-1.8,0.6
				c-0.5,0.5-0.8,1.1-1,1.8c-0.4,1.4-0.5,2.9-0.5,4.3v0l0,0c-0.5,2.6-1.1,5.3-2.3,7.7c-0.3,0.6-0.7,1.2-1.1,1.7
				c-0.4,0.5-1,1-1.8,1.1c-0.8,0.1-1.5-0.2-2-0.7c-0.6-0.4-1-1-1.4-1.5c-1.6-2.2-2.6-4.7-3.6-7.2c-1-2.5-1.8-5-2.6-7.6l0.1,0.1
				c-2.6-2.2-4.8-4.8-6.8-7.6c-2-2.8-3.6-5.8-4.9-8.9c-2.6-6.3-3.7-13.2-3.2-20c0.2-3.4,0.9-6.7,1.8-10c0.8-3.3,1.6-6.6,2.4-9.8
				c1.7-6.5,3.4-13.1,5.3-19.6l0.9,0.2c-1,4.3-2.1,8.7-3.2,13c-1.1,4.3-2.3,8.6-3.6,12.9c-0.7,2.1-1.6,4.2-3,6.1
				c-0.3,0.5-0.7,0.9-1.2,1.3c-0.4,0.4-1,0.8-1.8,0.8c-0.9,0-1.3-1-1.4-1.4c-0.2-0.6-0.3-1.1-0.4-1.7c-0.3-2.3,0.1-4.6,0.8-6.8
				c0.8-2.1,1.9-4.1,3.3-5.9l0,0.5c-3.2-3.7-5.6-7.8-7-12.5c-0.7-2.3-1-4.7-0.9-7.2c0.1-2.4,0.8-4.8,1.9-6.9c0.6-1.1,1.3-2.1,1.9-3
				c0.7-1,1.4-1.9,2.1-2.9c1.4-1.9,3-3.7,4.7-5.4c0.9-0.8,1.8-1.6,2.7-2.4c0.9-0.7,1.9-1.4,2.8-2.1c0.9-0.7,1.7-1.6,2.3-2.6
				c0.3-0.5,0.5-1,0.4-1.5c-0.1-0.5-0.5-0.9-1-1l0,0c-6.9-1.4-13.8-3.6-20-7c-6.2-3.4-11.7-8.2-15.9-13.9c-4.2-5.8-7-12.4-9-19.1
				C33.6,99.4,32.4,92.5,31.4,85.4z"/>
			<path class="st2" d="M120.4,150.3c0.9-0.9,1.8-1.9,2.8-2.8c1-0.9,2.1-1.6,3.4-2.1c1.3-0.5,2.6-0.7,3.8-0.9
				c1.3-0.2,2.6-0.4,3.9-0.4v0.5c-1.3,0.1-2.5,0.3-3.8,0.5c-1.2,0.3-2.4,0.7-3.6,1.1c-1.2,0.5-2.3,1.1-3.4,1.7
				C122.5,148.7,121.4,149.5,120.4,150.3L120.4,150.3z M120.4,150.3c0.9-0.9,1.8-1.9,2.8-2.8c1-0.9,2.1-1.6,3.3-2.2
				c2.5-1.1,5.2-1.4,7.8-1.2v0.5c-1.3-0.1-2.6-0.1-3.8,0.2c-1.3,0.3-2.4,0.8-3.6,1.3c-1.1,0.6-2.2,1.2-3.3,1.8
				C122.5,148.7,121.4,149.5,120.4,150.3L120.4,150.3z"/>
		</g>
	</g>
	<path class="st5" d="M110.3,20.3c-18.3,0-36,5-49.8,13.9c33.1-3.8,70.1,1.2,85.6,32.3c16.7,33.3-16.7,65.5-47.6,76.2
		c33.3,16.7,27.4,61.9,19.1,92.9c-2.4,8.3-14.3,10.7-23.8,9.5c5,6,5,14.4,2.7,21.9c4.2,1.9,6.1-10.2,6.1-10.2c0-8,3.7-6.9,3.7-6.9
		l8.1-1.1l3.6-0.5c0,0,0,0.1,0,0.1c4.8,21.1,11.1,20.6,11.1,15.3c0-5.3,8-19.1,8-19.1c21.4-18.2,11.2-57.7,7.5-68.7
		c-0.6-1.9-1.3-2.8-1.3-2.8l-0.4-1.2c-0.1-0.5-0.3-0.9-0.4-1.3c-4.4-8.7-11.3-18-9.7-25.7c6.2-0.6,12.3-1.7,18.2-4.1
		c0.5,0,0.5,0,0.9,0l0.5-0.2c21.2-9.9,31-29,34.1-55.2C191.2,47.1,152.4,20.3,110.3,20.3z M123,150.4c4-4,7.9-5.9,13.9-5.9
		C130.9,144.4,127,146.4,123,150.4z"/>
	<g>
		<path class="st0" d="M83,174.9c0,0-3.5,12.2-7.1,26.5c0.2-0.5,0.4-1,0.5-1.5C79.6,189.4,83,174.9,83,174.9z"/>
		<path class="st2" d="M83,174.9c-0.5,2.3-1,4.5-1.5,6.7c-0.6,2.2-1.1,4.4-1.8,6.6c-0.7,2.2-1.4,4.4-2,6.6c-0.6,2.2-1.1,4.4-1.6,6.7
			l-0.5-0.2c0.7-2.2,1.2-4.4,1.8-6.6l1.7-6.6l1.8-6.6C81.6,179.3,82.2,177.1,83,174.9L83,174.9z M83,174.9c-0.4,2.3-0.8,4.5-1.3,6.8
			c-0.5,2.2-1,4.5-1.6,6.7c-0.6,2.2-1.2,4.4-1.9,6.6c-0.7,2.2-1.3,4.4-2.2,6.5l-0.5-0.2c0.6-2.2,1.2-4.4,1.8-6.6
			c0.5-2.2,1-4.5,1.5-6.7c0.5-2.2,1.2-4.4,1.8-6.6C81.4,179.2,82.1,177.1,83,174.9l0.1-0.5L83,174.9z"/>
	</g>
	<path class="st5" d="M110.2,222.6c0,3.5,2.5,6.4,5.6,6.4c3.1,0,5.6-2.9,5.6-6.4c0-3.5-2.5-6.4-5.6-6.4
		C112.7,216.2,110.2,219.1,110.2,222.6z"/>
	<g>
		<path class="st0" d="M114.1,218c0,0,25-2.1,43.2-50c18.3-47.9,48.5-17.9,48.5-17.9s-28.7-20.5-45.2,22.5
			c-16.5,43-38.3,54.9-45.5,53.1C115.1,225.8,109.3,223.4,114.1,218z"/>
		<g>
			<path class="st2" d="M114.1,218c2.7-0.4,5.3-1.5,7.8-2.8c2.5-1.3,4.8-2.8,6.9-4.5c4.4-3.4,8.2-7.5,11.5-11.9
				c6.7-8.8,11.7-18.8,15.9-29c2-5.2,4.2-10.3,7.3-15c3-4.7,6.9-9,11.9-11.6c2.5-1.3,5.2-2.1,8-2.3c2.8-0.2,5.6,0.1,8.3,0.9
				c2.7,0.8,5.3,1.9,7.7,3.3c2.4,1.4,4.7,3.1,6.7,5l-0.3,0.4c-4.6-3-10-4.7-15.5-4.8c-2.7,0-5.5,0.5-8,1.5c-2.5,1-4.9,2.4-7,4.1
				c-4.2,3.5-7.5,8-10,12.9c-1.3,2.4-2.4,4.9-3.4,7.5c-1,2.6-2,5.2-3.1,7.7c-4.4,10.2-9.6,20.1-16.5,28.9
				c-3.4,4.4-7.3,8.5-11.7,11.9c-2.2,1.7-4.6,3.2-7.1,4.4c-1.3,0.6-2.6,1.1-4,1.4c-1.4,0.3-2.8,0.5-4.2,0.1l0,0l0,0
				c-0.7-0.4-1.4-0.8-2-1.5c-0.5-0.6-0.9-1.4-1-2.2c-0.1-0.8,0.2-1.6,0.5-2.4C113,219.2,113.5,218.6,114.1,218L114.1,218L114.1,218z
				 M114.1,218.1c-0.5,0.6-1,1.2-1.3,1.9c-0.3,0.7-0.5,1.5-0.5,2.3c0.1,0.8,0.5,1.5,1,2c0.5,0.6,1.2,1,1.9,1.3l0,0
				c1.3,0.3,2.7,0.1,4-0.2c1.3-0.3,2.6-0.8,3.8-1.4c2.5-1.2,4.8-2.7,6.9-4.5c4.3-3.4,8-7.6,11.4-11.9c6.7-8.8,11.9-18.6,16.2-28.8
				c1.1-2.5,2.1-5.1,3.1-7.7c1-2.6,2.2-5.1,3.5-7.6c2.7-4.9,6-9.6,10.4-13.1c2.2-1.8,4.7-3.2,7.3-4.2c2.6-1,5.5-1.4,8.3-1.4
				c2.8,0,5.6,0.5,8.3,1.4c2.7,0.9,5.2,2.1,7.5,3.6l-0.3,0.4c-4-3.7-8.9-6.7-14.1-8.3c-2.6-0.8-5.4-1.1-8.2-0.9
				c-2.7,0.2-5.4,1-7.9,2.3c-4.9,2.6-8.6,7-11.5,11.6c-2.9,4.7-5.1,9.8-7,15c-4,10.4-9.2,20.4-16,29.2c-3.4,4.4-7.4,8.4-11.8,11.8
				c-2.2,1.7-4.6,3.2-7.1,4.4C119.5,216.7,116.9,217.7,114.1,218.1z"/>
		</g>
	</g>
	<path class="st5" d="M114.1,218c0,0,3.1-0.3,8-2.7c6.3,0.8,12.4-3.6,17.2-6.8c12.8-19.1,17-40.4,31.9-59.5c7.2-7.2,16-8.3,23.7-3.2
		c-9.9-1.8-24.2,1-34.2,26.9c-16.5,43-38.3,54.9-45.5,53.1C115.1,225.8,109.3,223.4,114.1,218z"/>
	<g>
		<path class="st0" d="M39.8,6.9c18.4,0,33.3,14.9,33.5,33.3c-13.9,5.8-21.5,19-26.8,33c-2.2,0.4-4.4,0.7-6.7,0.7
			c-18.5,0-33.5-15-33.5-33.5C6.4,21.9,21.3,6.9,39.8,6.9z"/>
		<path class="st2" d="M39.8,6.8c8.7-0.1,17.5,3.4,23.8,9.6c3.2,3.1,5.7,6.8,7.5,10.8c1.7,4.1,2.6,8.5,2.6,12.9l0,0.3l-0.3,0.1
			c-3.3,1.4-6.5,3.2-9.3,5.5s-5.3,5-7.5,7.9c-2.2,2.9-4,6.1-5.7,9.3c-1.6,3.3-3,6.6-4.3,10l0,0.1l-0.1,0c-4.6,1-9.4,1-14,0
			c-4.6-1-9-2.9-12.8-5.7C12.1,62.1,6.9,53.3,6,43.8c-0.5-4.7,0.1-9.5,1.5-14c1.5-4.5,4-8.6,7.2-12.1C21.2,10.7,30.5,6.7,39.8,6.8z
			 M39.8,6.9c-4.7,0-9.3,1-13.5,3c-4.2,1.9-8,4.8-11,8.3C9.1,25.1,6.1,34.5,7,43.7c0.5,4.6,1.9,9,4.2,13c2.3,4,5.4,7.5,9.1,10.3
			c3.7,2.8,8,4.8,12.5,5.8c4.5,1,9.2,1.1,13.8,0.2l-0.1,0.1c1.3-3.4,2.7-6.8,4.4-10c1.7-3.3,3.5-6.4,5.6-9.4c2.2-3,4.6-5.7,7.4-8.1
			c2.8-2.4,6-4.4,9.4-5.8l-0.3,0.4c0-4.3-1-8.6-2.6-12.6c-1.6-4-4.1-7.6-7.1-10.7c-3-3.1-6.7-5.6-10.7-7.3
			C48.6,7.8,44.2,6.9,39.8,6.9z"/>
	</g>
	<path class="st5" d="M46.6,73.2c5.3-14,12.9-27.3,26.8-33c-0.1-12.2-6.7-22.9-16.5-28.6c-12,18.2-18.3,40.2-18.6,62.3
		c0.6,0,1.1,0,1.7,0C42.1,73.8,44.4,73.6,46.6,73.2z"/>
	<g>
		<path class="st0" d="M153.6,40.9c0-0.2,0-0.4,0-0.6c0-18.5,15-33.5,33.5-33.5c18.5,0,33.5,15,33.5,33.5c0,18.5-15,33.5-33.5,33.5
			c-3.5,0-6.8-0.5-10-1.5C174.8,58,167,44.7,153.6,40.9z"/>
		<path class="st2" d="M153.6,40.9c-0.2-3.5,0.3-7.1,1.3-10.5c1-3.4,2.5-6.6,4.6-9.5c4-5.9,10-10.4,16.7-12.7
			c3.4-1.1,6.9-1.7,10.5-1.8c3.6,0,7.1,0.5,10.5,1.6c6.8,2.2,12.8,6.5,17,12.1c4.3,5.6,6.7,12.6,6.8,19.7c0.2,7.1-2,14.2-6.1,20
			c-4.1,5.8-10.1,10.3-16.8,12.6c-6.8,2.3-14.2,2.4-21,0.2l-0.3-0.1l0-0.3c-1-6.7-3.3-13.4-7-19.1c-1.9-2.8-4.2-5.4-6.9-7.6
			C160,43.6,156.9,42,153.6,40.9L153.6,40.9L153.6,40.9z M153.7,40.9c3.3,0.9,6.5,2.4,9.2,4.5c2.8,2.1,5.2,4.7,7.1,7.5
			c4,5.7,6.3,12.4,7.5,19.3l-0.3-0.4c6.6,2.1,13.9,2,20.4-0.3c6.6-2.2,12.4-6.5,16.4-12.1c4.1-5.6,6.3-12.5,6.2-19.5
			c0-3.5-0.6-7-1.7-10.3c-1.1-3.3-2.8-6.4-4.8-9.2c-2.1-2.8-4.7-5.2-7.5-7.2c-2.9-2-6.1-3.5-9.4-4.5c-3.3-1-6.8-1.4-10.3-1.4
			c-3.5,0.1-6.9,0.7-10.2,1.8c-6.6,2.2-12.4,6.6-16.4,12.2C155.9,26.9,153.6,33.9,153.7,40.9z"/>
	</g>
	<path class="st5" d="M207.2,13.6c0.3,16-1,35.1-19.4,31.4c-11.6-1.7-22.4-7.2-33.3-12.5c-0.6,2.5-0.9,5.2-0.9,7.9
		c0,0.2,0,0.4,0,0.6c13.3,3.8,21.2,17.1,23.4,31.4c3.2,1,6.5,1.5,10,1.5c18.5,0,33.5-15,33.5-33.5C220.5,29.4,215.3,19.7,207.2,13.6
		z"/>
	<g>
		<defs>
			<path id="SVGID_1_" d="M114.1,218c0,0,25-2.1,43.2-50c18.3-47.9,48.5-17.9,48.5-17.9s-28.7-20.5-45.2,22.5
				c-16.5,43-38.3,54.9-45.5,53.1C115.1,225.8,109.3,223.4,114.1,218z"/>
		</defs>
		<clipPath id="SVGID_2_">
			<use xlink:href="#SVGID_1_"  style="overflow:visible;"/>
		</clipPath>
		<g class="st3">
			<g>
				<path class="st2" d="M114.8,217.3c-0.1,1.1-0.1,2.2,0,3.3c0.1,1.1,0.3,2.2,0.5,3.2c0.5,2.1,1.5,4.1,2.7,6
					c-1.7-1.5-2.8-3.6-3.4-5.8C114,221.8,114,219.5,114.8,217.3z"/>
			</g>
			<g>
				<path class="st2" d="M120.7,215c-0.1,1.1-0.1,2.2,0,3.3c0.1,1.1,0.3,2.2,0.5,3.2c0.5,2.1,1.5,4.1,2.7,6
					c-1.7-1.5-2.8-3.6-3.4-5.8C119.9,219.5,119.8,217.1,120.7,215z"/>
			</g>
			<g>
				<path class="st2" d="M127.7,209.4c0,1.1,0.2,2.2,0.5,3.3c0.3,1.1,0.6,2.1,1,3.1c0.9,2,2.1,3.8,3.6,5.4c-1.9-1.2-3.4-3.1-4.3-5.1
					C127.6,214,127.2,211.6,127.7,209.4z"/>
			</g>
			<g>
				<path class="st2" d="M132.8,205.2c0.3,1.1,0.8,2.1,1.3,3c0.5,1,1.1,1.9,1.8,2.7c1.4,1.7,3,3.1,4.9,4.3c-2.1-0.7-4.1-2.1-5.5-3.8
					C134,209.6,133,207.4,132.8,205.2z"/>
			</g>
			<g>
				<path class="st2" d="M136.8,198.2c0.4,1,0.9,2,1.5,2.9c0.6,0.9,1.2,1.8,2,2.6c1.5,1.6,3.2,2.9,5.2,4c-2.2-0.6-4.2-1.8-5.7-3.5
					C138.2,202.6,137.1,200.5,136.8,198.2z"/>
			</g>
			<g>
				<path class="st2" d="M143,193.6c0.6,1,1.2,1.8,1.9,2.7c0.7,0.8,1.5,1.6,2.3,2.3c1.7,1.4,3.6,2.4,5.7,3.2
					c-2.2-0.2-4.4-1.2-6.2-2.6C145.1,197.7,143.6,195.8,143,193.6z"/>
			</g>
			<g>
				<path class="st2" d="M146.1,186.5c0.6,1,1.2,1.8,1.9,2.7c0.7,0.8,1.5,1.6,2.3,2.3c1.7,1.4,3.6,2.4,5.7,3.2
					c-2.2-0.2-4.4-1.2-6.2-2.6C148.1,190.6,146.7,188.7,146.1,186.5z"/>
			</g>
			<g>
				<path class="st2" d="M149.2,179.4c0.6,1,1.2,1.8,1.9,2.7c0.7,0.8,1.5,1.6,2.3,2.3c1.7,1.4,3.6,2.4,5.7,3.2
					c-2.2-0.2-4.4-1.2-6.2-2.6C151.2,183.5,149.7,181.6,149.2,179.4z"/>
			</g>
			<g>
				<path class="st2" d="M152.2,172.3c0.6,1,1.2,1.8,1.9,2.7c0.7,0.8,1.5,1.6,2.3,2.3c1.7,1.4,3.6,2.4,5.7,3.2
					c-2.2-0.2-4.4-1.2-6.2-2.6C154.2,176.4,152.8,174.5,152.2,172.3z"/>
			</g>
			<g>
				<path class="st2" d="M155.3,165.2c0.6,1,1.2,1.9,1.9,2.7c0.7,0.8,1.5,1.6,2.3,2.3c1.7,1.4,3.6,2.4,5.7,3.2
					c-2.2-0.2-4.4-1.2-6.2-2.6C157.3,169.3,155.9,167.4,155.3,165.2z"/>
			</g>
			<g>
				<path class="st2" d="M158.3,158.1c0.6,1,1.2,1.8,1.9,2.7c0.7,0.8,1.5,1.6,2.3,2.3c1.7,1.4,3.6,2.4,5.7,3.2
					c-2.2-0.2-4.4-1.2-6.2-2.6C160.4,162.2,158.9,160.3,158.3,158.1z"/>
			</g>
			<g>
				<path class="st2" d="M163.3,151.6c0.6,1,1.2,1.8,1.9,2.7c0.7,0.8,1.5,1.6,2.3,2.3c1.7,1.4,3.6,2.4,5.7,3.2
					c-2.2-0.2-4.4-1.2-6.2-2.6C165.3,155.7,163.9,153.8,163.3,151.6z"/>
			</g>
			<g>
				<path class="st2" d="M171.4,141.4c0,1.1,0.2,2.2,0.4,3.3c0.2,1.1,0.5,2.1,1,3.1c0.8,2,2.1,3.8,3.5,5.5c-1.8-1.3-3.3-3.1-4.2-5.2
					C171.2,146,170.9,143.6,171.4,141.4z"/>
			</g>
			<g>
				<path class="st2" d="M178.9,137.7c0,1.1,0.1,2.2,0.2,3.3c0.2,1.1,0.4,2.1,0.8,3.2c0.7,2.1,1.8,3.9,3.2,5.7
					c-1.8-1.4-3.1-3.3-3.9-5.5C178.5,142.3,178.3,139.9,178.9,137.7z"/>
			</g>
			<g>
				<path class="st2" d="M188.4,138.4c-0.3,1.1-0.4,2.2-0.5,3.3c-0.1,1.1,0,2.2,0.1,3.2c0.3,2.2,1,4.2,1.9,6.2
					c-1.5-1.7-2.4-3.9-2.7-6.1C187,142.8,187.3,140.4,188.4,138.4z"/>
			</g>
		</g>
	</g>
</g>
</svg>
