<?xml version="1.0" encoding="utf-8"?>
<!-- Generator: Adobe Illustrator 15.1.0, SVG Export Plug-In . SVG Version: 6.00 Build 0)  -->
<!DOCTYPE svg PUBLIC "-//W3C//DTD SVG 1.1//EN" "http://www.w3.org/Graphics/SVG/1.1/DTD/svg11.dtd">
<svg version="1.1" id="rooster" xmlns="http://www.w3.org/2000/svg" xmlns:xlink="http://www.w3.org/1999/xlink" x="0px" y="0px"
	 width="238.5px" height="227px" viewBox="0 0 238.5 227" style="enable-background:new 0 0 238.5 227;" xml:space="preserve">
<style type="text/css">
<![CDATA[
	.st0{fill:#AA8561;}
	.st1{fill:#FFFFFF;stroke:#000000;stroke-miterlimit:10;}
	.st2{opacity:0.27;}
	.st3{fill:#231F20;}
	.st4{fill:#F9D3AA;}
	.st5{fill:#FF2424;}
	.st6{fill:#FFFFFF;}
	.st7{opacity:0.37;fill:#997858;}
	.st8{opacity:0.34;fill:#C19F9F;}
	.st9{opacity:0.47;fill:#FFA6A6;}
	.st10{fill:#3A1E03;}
	.st11{opacity:0.5;fill:url(#SVGID_1_);}
	.st12{fill:#751717;}
	.st13{opacity:0.27;fill:#751717;}
]]>
</style>
<g>
	<g>
		<path class="st6" d="M69.3,113.4c0,0-2.2,1.2-3.2,7.2c-1,6-6.3,11.5-6.3,11.5s-16.2,13.7-21.7,13c-5.5-0.7,1.5,9.7,15.9,3.5
			c0,0,1.3,10.1,12.5-6.9c0,0,1.3,11.5,12.8-4.1C79.1,137.6,82.3,111.1,69.3,113.4z"/>
		<path d="M69.3,113.5c-0.7,0.5-1.2,1.3-1.5,2.1c-0.4,0.8-0.7,1.6-0.9,2.5c-0.2,0.8-0.4,1.7-0.5,2.6c-0.1,0.9-0.4,1.8-0.7,2.6
			c-0.6,1.7-1.4,3.3-2.4,4.9c-1,1.5-2.1,3-3.3,4.3l0,0l0,0c-3.1,2.6-6.2,5-9.5,7.3c-1.7,1.1-3.4,2.2-5.1,3.2c-1.8,1-3.6,1.9-5.6,2.3
			c-0.5,0.1-1,0.2-1.5,0.1c-0.5-0.1-1-0.1-1.4,0c-0.4,0.1-0.6,0.6-0.5,1c0.1,0.4,0.4,0.8,0.7,1.2c1.3,1.4,3.2,2.2,5.2,2.6
			c3.9,0.7,7.9-0.2,11.5-1.8l0.3-0.1l0.1,0.4c0.1,0.7,0.4,1.4,0.8,2c0.4,0.6,1.1,0.8,1.8,0.7c1.4-0.3,2.6-1.4,3.6-2.4
			c2.1-2.2,3.9-4.8,5.6-7.3l0.7-1.1l0.2,1.3c0.2,1.4,0.8,3,1.9,3.5c1.1,0.5,2.6-0.3,3.8-1.1c1.2-0.9,2.3-2,3.3-3.1
			c1-1.1,2-2.4,2.9-3.6l-0.1,0.2c0.3-2.4,0.4-4.9,0.4-7.4c0-2.5-0.2-5-0.6-7.4c-0.4-2.4-1.1-4.9-2.6-6.8c-0.7-1-1.7-1.8-2.9-2.2
			C71.8,113.3,70.5,113.3,69.3,113.5z M69.3,113.4c1.2-0.3,2.5-0.3,3.8,0.1c1.2,0.4,2.3,1.2,3.1,2.2c1.6,2,2.4,4.5,2.9,7
			c0.5,2.5,0.7,5,0.8,7.5c0.1,2.5,0,5-0.3,7.5l0,0.1l-0.1,0.1c-0.9,1.3-1.9,2.5-2.9,3.7c-1,1.2-2.1,2.3-3.4,3.3
			c-0.6,0.5-1.3,0.9-2.2,1.2c-0.8,0.3-1.8,0.4-2.7,0c-0.9-0.4-1.4-1.2-1.8-1.9c-0.4-0.8-0.6-1.5-0.7-2.4l0.9,0.2
			c-1.7,2.6-3.6,5.2-5.8,7.4c-0.6,0.6-1.2,1.1-1.8,1.5c-0.7,0.5-1.4,0.9-2.3,1c-0.4,0.1-0.9,0-1.3-0.2c-0.4-0.2-0.8-0.5-1-0.8
			c-0.5-0.7-0.8-1.5-0.9-2.3l0.4,0.2c-3.7,1.5-7.8,2.4-11.8,1.6c-2-0.4-3.9-1.2-5.4-2.7c-0.3-0.4-0.7-0.8-0.8-1.3
			c-0.1-0.3-0.1-0.6,0-0.9c0.1-0.3,0.4-0.5,0.6-0.6c0.5-0.2,1.1-0.1,1.6-0.1c0.5,0,0.9-0.1,1.4-0.2c1.9-0.5,3.6-1.5,5.3-2.5
			c1.7-1,3.3-2.1,5-3.3c1.6-1.1,3.2-2.3,4.8-3.5c1.6-1.2,3.2-2.4,4.7-3.7l0,0c1.2-1.3,2.3-2.7,3.2-4.1c1-1.5,1.8-3,2.4-4.7
			c0.3-0.8,0.6-1.6,0.7-2.5c0.2-0.9,0.4-1.8,0.7-2.6c0.3-0.9,0.6-1.7,1-2.5C68,114.7,68.5,113.9,69.3,113.4L69.3,113.4L69.3,113.4z"
			/>
	</g>
	<path class="st8" d="M69.3,113.4c0,0-2.2,1.2-3.2,7.2c-1,6-6.3,11.5-6.3,11.5s-16.2,13.7-21.7,13c-5.5-0.7,1.5,9.7,15.9,3.5
		c0,0,1.3,10.1,12.5-6.9c0,0,1.3,11.5,12.8-4.1C79.1,137.6,82.3,111.1,69.3,113.4z"/>
	<path class="st1" d="M71.7,89.1c-2-6.8-7.8-16.6-14.6-16.6c-12.6-1.8-26.1,2.2-38.8-1.8c-0.1,1,6.9,10.6,10.9,16.9
		c10.1,15.8,1.5,25.2,33.1,26.6C68.1,107.3,74.2,98.4,71.7,89.1z"/>
	<path class="st8" d="M73.7,88.1c-2-6.8-7.8-16.6-14.6-16.6c-12.6-1.8-26.1,2.2-38.8-1.8c-0.1,1,6.9,10.6,10.9,16.9
		c10.1,15.8,1.5,25.2,33.1,26.6C70.1,106.4,76.1,97.4,73.7,88.1z"/>
	<g>
		<path class="st4" d="M91.5,87.6c-0.7,14.4-1.3,27.3-36.9,24.3C22.3,109.2,20,99.7,28,84.6c6.8-12.9,9.5-25.6,29.1-24.7
			C76.8,60.9,92.2,73.3,91.5,87.6z"/>
		<g>
			<path d="M91.5,87.6c-0.2,4-0.3,8.1-1.4,12c-0.6,1.9-1.4,3.8-2.6,5.5c-1.2,1.6-2.8,3-4.6,4c-3.6,2.1-7.7,2.9-11.7,3.4
				c-4,0.5-8.1,0.4-12.1,0.2c-4-0.2-8-0.7-12-1.3c-4-0.6-8-1.4-11.8-2.7c-1.9-0.7-3.8-1.5-5.5-2.5c-1.7-1-3.3-2.4-4.4-4.2
				c-1.1-1.8-1.5-3.8-1.4-5.9c0.1-2,0.6-4,1.3-6c0.7-1.9,1.5-3.8,2.5-5.5c0.9-1.8,1.8-3.6,2.7-5.4c1.7-3.6,3.4-7.3,5.8-10.7
				c1.2-1.7,2.5-3.2,4.1-4.5c1.6-1.3,3.4-2.4,5.3-3.1c3.9-1.5,8.1-1.7,12.1-1.5c8.1,0.5,16.2,3,22.8,7.8c3.3,2.4,6.2,5.4,8.2,8.9
				C90.6,79.6,91.8,83.6,91.5,87.6z M91.4,87.6c0.2-4-1-8-3.1-11.4c-2.1-3.4-5-6.2-8.3-8.5c-6.6-4.5-14.5-6.8-22.5-7.3
				c-4-0.2-8,0.1-11.7,1.4c-3.7,1.3-6.8,4-9.1,7.2c-2.3,3.2-4,6.9-5.8,10.5c-0.9,1.8-1.8,3.6-2.8,5.4c-1,1.8-1.8,3.6-2.5,5.4
				c-0.7,1.9-1.2,3.8-1.3,5.8c-0.1,2,0.3,4,1.3,5.7c1,1.7,2.6,3,4.3,4.1c1.7,1.1,3.6,1.8,5.5,2.4c3.8,1.3,7.8,2,11.8,2.5
				c4,0.5,8,0.8,12,1c4,0.2,8,0.2,12-0.2c4-0.4,7.9-1.2,11.4-3c1.7-0.9,3.3-2.2,4.6-3.7c1.2-1.5,2.1-3.4,2.7-5.3
				C91,95.7,91.2,91.6,91.4,87.6z"/>
		</g>
	</g>
	<g>
		<path class="st6" d="M154.9,131.6c0,0,27.7,4.8,33.8,10.6s-21.8,4.2-21.8,4.2S149.4,144.7,154.9,131.6z"/>
		<g>
			<path d="M154.9,131.6c3.5,0.4,6.9,1.1,10.4,1.8c3.4,0.7,6.9,1.6,10.2,2.6c3.4,1.1,6.7,2.3,9.8,3.9c0.8,0.4,1.5,0.8,2.3,1.3
				c0.7,0.5,1.5,1,2,1.8c0.2,0.4,0.3,1,0.1,1.4c-0.3,0.4-0.7,0.7-1.1,0.9c-0.8,0.4-1.7,0.6-2.5,0.8c-3.5,0.7-7,0.9-10.5,1
				c-1.8,0-3.5,0-5.3,0c-0.9,0-1.8-0.1-2.6-0.1c-0.9,0-1.8-0.2-2.7-0.4c-1.7-0.4-3.5-0.9-5.1-1.7c-1.6-0.8-3.2-1.8-4.3-3.2
				c-1.2-1.4-1.9-3.2-1.9-5C153.5,134.9,154.1,133.2,154.9,131.6L154.9,131.6L154.9,131.6z M154.9,131.7c-0.6,1.6-1,3.3-0.8,5
				c0.1,1.7,0.8,3.3,2,4.5c1.1,1.2,2.6,2.2,4.2,2.9c1.6,0.7,3.2,1.2,4.9,1.5c0.8,0.2,1.7,0.3,2.5,0.3l2.6,0.1
				c1.7,0.1,3.5,0.1,5.2,0.1c3.5,0,7,0,10.4-0.6c0.8-0.2,1.7-0.3,2.5-0.7c0.4-0.2,0.7-0.4,0.9-0.7c0.2-0.3,0.2-0.7,0-1.1
				c-0.4-0.7-1.1-1.3-1.8-1.8c-0.7-0.5-1.5-0.9-2.3-1.3c-3.1-1.5-6.5-2.5-9.9-3.4C168.5,134.9,161.7,133.3,154.9,131.7z"/>
		</g>
	</g>
	<path class="st8" d="M188.5,142.1c-11.7-1.5-23.3-3.7-34.4-8.1c-2.6,11,12.8,12.5,12.8,12.5s28,1.6,21.8-4.2
		C188.7,142.2,188.6,142.2,188.5,142.1z"/>
	<g>
		<g>
			<path class="st5" d="M151.5,125.2c0,0,9.7-18.1,8.3-36.1c-1.4-18,27.1-36.8,42.7-20.8c0,0-19.4-6.2-21.1,10.4
				c0,0.5-0.1,0.9-0.1,1.4c-0.7,18.4-10.6,52.4-29.8,51"/>
			<path d="M151.5,125.2c1.8-3.6,3.2-7.4,4.4-11.2c1.2-3.8,2.2-7.7,2.8-11.7c0.6-3.9,0.9-8,0.7-11.9c0-1-0.2-2-0.1-3
				c0-1,0.2-2.1,0.4-3.1c0.4-2,1.1-4,2.1-5.8c1.9-3.6,4.6-6.7,7.8-9.3c3.2-2.5,6.7-4.6,10.6-5.8c3.8-1.2,8-1.7,12-1
				c4,0.7,7.8,2.7,10.6,5.6l0.8,0.8l-1-0.3c-3.7-1-7.6-1.4-11.4-0.7c-1.9,0.4-3.6,1.1-5.1,2.3c-1.5,1.2-2.5,2.8-3.2,4.5
				c-0.7,1.8-0.9,3.6-1,5.6c-0.1,2-0.2,3.9-0.5,5.8c-0.5,3.9-1.2,7.7-2.1,11.5c-1.9,7.6-4.6,15-8.8,21.6c-2.1,3.3-4.6,6.4-7.8,8.7
				c-3.2,2.3-7.1,3.6-11,3.2l0-0.1c1.9,0.1,3.9-0.2,5.7-0.8c1.8-0.6,3.5-1.6,5-2.7c3.1-2.3,5.5-5.4,7.5-8.7c2-3.3,3.6-6.8,5-10.4
				c1.3-3.6,2.5-7.3,3.4-11.1c0.9-3.8,1.6-7.6,2.1-11.4c0.2-1.9,0.4-3.8,0.5-5.8c0.1-2,0.4-4,1.1-5.9c0.7-1.9,1.9-3.6,3.5-4.9
				c1.6-1.3,3.5-2,5.5-2.4c2-0.4,4-0.4,5.9-0.2c2,0.2,3.9,0.5,5.8,1.1l-0.3,0.5c-2.7-2.9-6.3-4.9-10.3-5.7c-3.9-0.8-8-0.3-11.8,0.9
				c-3.8,1.3-7.3,3.3-10.4,5.9c-3,2.6-5.6,5.7-7.4,9.3c-0.9,1.8-1.6,3.6-1.9,5.6c-0.2,1-0.3,1.9-0.3,2.9c0,1,0.1,2,0.1,3
				c0.2,4.1-0.2,8.1-0.9,12.1C158,110.4,155.3,118.1,151.5,125.2L151.5,125.2z"/>
		</g>
		<g>
			<path class="st5" d="M144.9,118.5c0,0,15-9,21.8-22.7c6.9-13.8,35.8-15,40.2,3.5c0,0-11.4-13-19.9-1.6c-0.2,0.3-0.5,0.6-0.7,1
				c-8.5,13.1-30.7,33.6-44,24.2"/>
			<path d="M144.9,118.5c2.9-1.9,5.5-4,8.1-6.3c2.6-2.3,4.9-4.7,7.1-7.3c2.2-2.6,4.2-5.4,5.7-8.4c0.4-0.7,0.7-1.5,1.2-2.3
				c0.5-0.7,1-1.4,1.6-2.1c1.2-1.3,2.6-2.4,4-3.3c3-1.8,6.4-2.9,9.8-3.4c3.4-0.5,6.9-0.4,10.3,0.4c3.3,0.8,6.6,2.2,9.2,4.5
				c2.6,2.3,4.5,5.4,5.3,8.8l0.3,1l-0.8-0.8c-2.2-2.3-4.9-4.4-8-5.4c-1.5-0.5-3.1-0.8-4.7-0.5c-1.6,0.2-3,0.9-4.2,1.9
				c-1.2,1-2.2,2.2-3.1,3.6c-0.9,1.4-1.9,2.8-2.9,4.1c-2,2.6-4.3,5.1-6.6,7.5c-4.7,4.7-9.9,8.9-15.9,11.9c-3,1.5-6.2,2.6-9.5,2.9
				c-3.3,0.3-6.8-0.5-9.5-2.5l0.1-0.1c1.4,0.9,2.9,1.6,4.5,1.9c1.6,0.3,3.2,0.4,4.9,0.2c3.2-0.4,6.4-1.6,9.3-3.1
				c2.9-1.5,5.6-3.4,8.2-5.4c2.6-2.1,5-4.2,7.3-6.6c2.3-2.3,4.5-4.8,6.5-7.4c1-1.3,2-2.6,2.9-4c0.9-1.4,2-2.7,3.4-3.8
				c1.3-1.1,3-1.8,4.7-2c1.7-0.2,3.5,0.1,5.1,0.7c3.2,1.2,5.9,3.3,8.1,5.8l-0.5,0.3c-0.7-3.3-2.4-6.4-5-8.6c-2.5-2.3-5.7-3.8-9-4.5
				c-3.3-0.7-6.8-0.8-10.1-0.2c-3.3,0.6-6.6,1.7-9.4,3.5c-1.4,0.9-2.7,2-3.8,3.2c-0.6,0.6-1.1,1.3-1.5,2c-0.4,0.7-0.8,1.5-1.2,2.2
				c-1.6,3-3.7,5.9-5.9,8.5C156.2,110.6,150.8,115,144.9,118.5L144.9,118.5z"/>
		</g>
		<g>
			<path class="st5" d="M150.3,128c0,0,13.7-15.2,16.7-33.1c3-17.8,35.1-29.2,46.4-10c0,0-17.3-10.7-22.9,5
				c-0.2,0.4-0.3,0.9-0.4,1.3c-5.1,17.7-22.9,48.3-41.1,42.4"/>
			<path d="M150.3,128c2.6-3.1,4.8-6.4,7-9.8c2.1-3.4,4-7,5.5-10.6c1.6-3.7,2.8-7.5,3.6-11.4c0.2-1,0.3-2,0.6-3c0.3-1,0.6-2,1.1-2.9
				c0.9-1.9,2-3.6,3.4-5.1c2.7-3.1,6.1-5.4,9.8-7.2c3.7-1.7,7.6-2.8,11.7-3.1c4-0.3,8.2,0.2,11.9,1.9c3.7,1.7,6.9,4.5,8.9,8l0.5,0.9
				l-0.9-0.5c-3.3-1.9-7.1-3.2-10.9-3.4c-1.9-0.1-3.8,0.2-5.5,1c-1.7,0.8-3.1,2.1-4.2,3.6c-1.1,1.6-1.8,3.3-2.3,5.2
				c-0.5,1.9-1.2,3.7-1.8,5.6c-1.4,3.7-3,7.2-4.8,10.7c-3.6,6.9-8.1,13.4-13.7,18.9c-2.8,2.7-6,5.1-9.7,6.6
				c-3.6,1.5-7.8,1.8-11.5,0.5l0-0.1c1.9,0.6,3.8,0.8,5.7,0.6c1.9-0.2,3.8-0.7,5.6-1.4c3.5-1.5,6.6-3.9,9.4-6.6
				c2.7-2.7,5.2-5.7,7.4-8.9c2.2-3.2,4.2-6.5,6-9.9c1.8-3.4,3.4-7,4.8-10.6c0.7-1.8,1.3-3.6,1.9-5.5c0.5-1.9,1.3-3.8,2.5-5.4
				c1.1-1.7,2.7-3.1,4.6-3.9c1.9-0.8,3.9-1.1,5.9-1c2,0.1,3.9,0.6,5.8,1.2c1.9,0.7,3.6,1.5,5.3,2.5l-0.4,0.4c-2-3.4-5-6.3-8.6-8
				c-3.6-1.7-7.7-2.3-11.7-1.9c-4,0.3-7.9,1.5-11.5,3.2c-3.6,1.8-6.8,4.2-9.4,7.2c-1.3,1.5-2.4,3.2-3.2,4.9c-0.4,0.9-0.8,1.8-1,2.8
				c-0.3,0.9-0.4,1.9-0.6,2.9c-0.8,4-2.1,7.8-3.7,11.5C160.2,115.2,155.7,122,150.3,128L150.3,128z"/>
		</g>
		<g>
			<path class="st5" d="M152.2,129.2c0,0,14.6-8.4,21.3-21.5c6.8-13.2,34.9-13.8,39.2,4.1c0,0-11.1-12.8-19.4-2
				c-0.2,0.3-0.5,0.6-0.7,0.9c-8.4,12.5-30,31.8-43,22.5"/>
			<path d="M152.1,129.2c2.8-1.8,5.4-3.8,7.9-5.9c2.5-2.1,4.9-4.5,7-6.9c2.2-2.5,4.1-5.2,5.6-8c0.7-1.5,1.7-3,2.9-4.2
				c1.2-1.2,2.5-2.3,4-3.1c2.9-1.7,6.2-2.6,9.6-3c3.3-0.4,6.7-0.2,9.9,0.7c3.2,0.8,6.3,2.3,8.8,4.6c2.5,2.2,4.3,5.2,5.1,8.5l0.3,1
				l-0.8-0.8c-2.1-2.3-4.7-4.3-7.6-5.4c-1.5-0.5-3-0.8-4.5-0.7c-1.5,0.1-2.9,0.8-4.2,1.7c-1.2,0.9-2.2,2.1-3.1,3.4
				c-0.9,1.3-1.8,2.6-2.8,3.9c-2,2.5-4.2,4.9-6.5,7.1c-4.6,4.5-9.8,8.5-15.6,11.2c-2.9,1.4-6,2.4-9.3,2.6c-3.2,0.2-6.6-0.7-9.1-2.6
				l0.1-0.1c1.3,0.9,2.8,1.6,4.3,1.9c1.5,0.4,3.1,0.4,4.7,0.3c3.2-0.3,6.2-1.4,9-2.7c2.8-1.4,5.5-3.2,8-5.1c2.5-1.9,4.9-4,7.2-6.2
				c2.3-2.2,4.4-4.6,6.4-7.1c1-1.2,1.9-2.5,2.8-3.8c0.9-1.3,2-2.6,3.4-3.6c1.3-1,3-1.7,4.6-1.8c1.7-0.1,3.4,0.2,4.9,0.8
				c3.1,1.3,5.6,3.3,7.8,5.7l-0.5,0.3c-0.7-3.2-2.3-6.2-4.8-8.4c-2.4-2.2-5.5-3.7-8.6-4.5c-3.2-0.8-6.5-0.9-9.8-0.5
				c-3.2,0.5-6.4,1.5-9.2,3.1c-1.4,0.8-2.7,1.8-3.8,3c-0.6,0.6-1.1,1.2-1.5,1.9c-0.4,0.7-0.8,1.4-1.2,2.1c-1.6,2.9-3.6,5.6-5.8,8.1
				C163.2,121.8,157.9,126,152.1,129.2L152.1,129.2z"/>
		</g>
		<g>
			<path class="st5" d="M149,126.4c0,0,4.7-16.1,0.5-30.3C145.2,82,165.1,62,180.6,72c0,0-16.9-1.6-15.3,12c0,0.4,0.1,0.7,0.2,1.1
				c2.6,14.8,0.4,43.7-15.4,46"/>
			<path d="M148.9,126.4c0.8-3.2,1.3-6.5,1.6-9.8c0.3-3.3,0.4-6.6,0.3-9.9c-0.2-3.3-0.6-6.6-1.5-9.7c-0.2-0.8-0.5-1.6-0.6-2.4
				c-0.1-0.8-0.2-1.7-0.2-2.5c0-1.7,0.3-3.4,0.7-5c1-3.2,2.7-6.2,4.8-8.8c2.2-2.6,4.7-4.8,7.6-6.4c2.9-1.6,6.2-2.7,9.5-2.8
				c3.3-0.1,6.7,0.8,9.6,2.6l0.9,0.6l-1.1-0.1c-3.1-0.2-6.4,0.2-9.2,1.4c-1.4,0.6-2.7,1.5-3.7,2.7c-1,1.2-1.6,2.6-1.8,4.1
				c-0.2,1.5-0.1,3.1,0.1,4.6c0.3,1.6,0.5,3.2,0.7,4.8c0.3,3.2,0.4,6.4,0.3,9.7c-0.2,6.4-1.2,12.9-3.5,18.9c-1.2,3-2.7,5.9-4.9,8.3
				c-2.2,2.4-5.2,4.1-8.4,4.4l0-0.1c3.2-0.5,6-2.3,8-4.7c2.1-2.4,3.5-5.3,4.6-8.2c1.1-3,1.8-6.1,2.3-9.2c0.5-3.1,0.8-6.3,0.9-9.5
				c0.1-3.2,0-6.4-0.3-9.5c-0.1-1.6-0.3-3.2-0.6-4.7c-0.3-1.6-0.4-3.3-0.1-4.9c0.3-1.6,1-3.3,2.1-4.5c1.1-1.3,2.6-2.2,4.1-2.8
				c3.1-1.2,6.4-1.5,9.6-1.3l-0.2,0.5c-2.7-1.8-6-2.8-9.2-2.8c-3.3,0.1-6.5,1.1-9.4,2.7c-2.8,1.6-5.4,3.9-7.4,6.4
				c-2,2.6-3.6,5.5-4.5,8.6c-0.4,1.6-0.7,3.2-0.7,4.8c0,0.8,0.1,1.6,0.2,2.4c0.1,0.8,0.4,1.5,0.6,2.4c0.9,3.2,1.3,6.6,1.4,9.9
				C151.8,113.4,150.9,120.1,148.9,126.4L148.9,126.4z"/>
		</g>
	</g>
	<path class="st13" d="M194.1,111.3c-11.1-4.6-24.5,2.8-35.2,12.2c0-7.6-1.9-15.1-7.4-20.8c0.1,0.4,0.1,0.8,0.3,1.2
		c1.3,4.2,1.4,8.7,1.1,12.5c-2.4,2-4.3,3-4.3,3l-1.8,3c1.5,1,3.1,1.5,4.8,1.6c-0.1,0.6-0.2,0.9-0.2,0.9l0.6,2.5l-0.6,2.5
		c0.5,0.2,1.1,0.3,1.6,0.4c9.1,4.8,23.1-7.9,28.7-16.2c0.2-0.2,0.3-0.4,0.5-0.6c5.8-7.5,13.4,1.4,13.4,1.4
		C195.2,113.4,194.7,112.3,194.1,111.3z"/>
	<path class="st7" d="M61.5,60.3c0,0,0,0.1,0,0.1C46.7,49,30.6,45.1,29.5,81.5c-0.5,1-1,2-1.6,3.1c-0.5,0.9-1,1.9-1.4,2.8
		c5.8-0.5,11.4-2.7,15.9-6.1l1.5,0.5l1.7-2.7l0.4,3l0.9,3.1l2.3-2.7l2.3,3.3l2.5-4.3l3.7,5.1l1.8-4.8l2.9,3.9l1.6-2.1l0.3,0.6
		c2.3,9.3,4.5,20.2-5.5,22.5c-12.1,3-22.9,0.6-33.1-4.1c3.5,4.8,12.1,7.9,28.6,9.3c35.5,3,36.2-9.9,36.9-24.3
		C92.1,74.4,79,62.7,61.5,60.3z"/>
	<g>
		<path class="st10" d="M28.5,80.8l2.7-2.5l0.9,3l2.3-2.6l2.3,1.8l1.7-2.2l4.8,1.4l1.7-2.7l0.4,3l0.9,3.1l2.3-2.7l2.3,3.3l2.5-4.3
			l3.7,5.1l1.8-4.8l2.9,3.9l1.6-2.1l1.9,4.1l2.5-2.7l1.1,4.5l2.6-1.8l2.3,3.2l11.4-5C85.1,84.1,29.9,10.6,28.5,80.8z"/>
		<path d="M28.6,80.7l2.5-2.5l0.1-0.1l0.1,0.2l0.9,3l-0.3-0.1l2.3-2.6l0.1-0.2l0.2,0.1l2.3,1.7l-0.4,0.1l1.6-2.2l0.1-0.2l0.2,0.1
			l4.8,1.4l-0.4,0.2l1.7-2.7l0.6-0.9l0.1,1.1l0.4,3l0-0.1l0.9,3.1L45.8,83l2.3-2.7l0.4-0.4l0.3,0.5l2.3,3.3l-0.8,0l2.5-4.3l0.3-0.6
			l0.4,0.5l3.7,5.2l-0.7,0.1l1.9-4.7l0.2-0.5l0.3,0.5l2.9,3.9l-0.4,0l1.7-2.1l0.2-0.3l0.2,0.3l1.9,4.1l-0.3,0l2.5-2.6l0.2-0.2
			l0.1,0.3l1.1,4.5l-0.2-0.1l2.6-1.8l0.1-0.1l0.1,0.1l2.3,3.2l-0.2-0.1L85,83.9l-0.1,0.4c-4.7-6-9.9-11.7-15.3-17.1
			c-2.7-2.7-5.6-5.3-8.6-7.6c-3-2.4-6.1-4.6-9.5-6.3c-3.4-1.6-7.2-2.8-10.8-2.1c-1.8,0.4-3.5,1.3-4.8,2.6c-1.3,1.3-2.4,2.9-3.2,4.6
			c-1.6,3.4-2.5,7.2-3.1,11C29.1,73.1,28.7,76.9,28.6,80.7z M28.5,80.8c0-3.8,0.1-7.7,0.7-11.5c0.5-3.8,1.3-7.6,2.9-11.2
			c0.8-1.8,1.8-3.5,3.2-4.9c1.4-1.4,3.2-2.5,5.2-2.9c2-0.5,4-0.3,5.9,0.1c1.9,0.4,3.8,1.1,5.5,2c3.5,1.7,6.7,3.9,9.7,6.4
			c3,2.4,5.9,5.1,8.6,7.8c5.5,5.5,10.5,11.3,15.1,17.5l0.2,0.3l-0.3,0.1l-11.5,4.9l-0.1,0.1l-0.1-0.1L71.3,86l0.2,0L69,87.8
			l-0.2,0.1l-0.1-0.2l-1.1-4.5l0.3,0.1L65.4,86l-0.2,0.2l-0.1-0.3l-2-4.1l0.4,0L61.9,84l-0.2,0.3L61.5,84l-3-3.8L59,80l-1.8,4.8
			L57,85.5l-0.4-0.6l-3.7-5.1l0.7,0l-2.5,4.3l-0.4,0.6l-0.4-0.6L48,80.8l0.7,0l-2.3,2.7l-0.5,0.6l-0.2-0.7l-0.9-3.1l0,0l0,0l-0.3-3
			l0.7,0.2l-1.8,2.6l-0.2,0.2L43,80.1l-4.8-1.5l0.3-0.1l-1.7,2.2l-0.2,0.2l-0.2-0.2l-2.2-1.8l0.3,0l-2.4,2.5L32,81.7l-0.1-0.3
			l-0.8-3l0.2,0.1l-2.8,2.6L28.5,80.8z"/>
	</g>
	<g>
		<path class="st5" d="M69.9,122.9l-3.6-6.9l-1.7,0c-1.1,2.2-2.7,4.9-4.9,7c-2.7,2.5-4.2,2.7-6.1,5.9c-1.7,2.7,0.4,6.3,3.4,7.5
			c1.4,0.6,3.7,0,4.3-1.2c0.2,1.5,1.5,3.8,2.9,4.5c3,1.6,6.6-0.1,7.3-4.2C72.7,129.1,71.2,127,69.9,122.9z"/>
		<g>
			<path d="M69.8,122.9c-0.6-1.2-1.2-2.4-1.8-3.5l-1.9-3.3l0.2,0.1l-1.7,0.1l0.3-0.2c-1.2,2.7-2.9,5.2-4.9,7.1
				c-1,0.9-2.1,1.7-3.2,2.4c-0.5,0.4-1,0.8-1.4,1.2c-0.4,0.5-0.8,0.9-1.1,1.4c-0.3,0.5-0.7,1-0.8,1.5c-0.2,0.5-0.2,1.1-0.1,1.7
				c0.1,1.1,0.8,2.2,1.7,3.1c0.4,0.4,0.9,0.8,1.5,1.2c0.3,0.2,0.6,0.3,0.9,0.4c0.3,0.1,0.6,0.1,0.9,0.1c0.6,0,1.2-0.1,1.7-0.3
				c0.5-0.2,1-0.6,1.3-1l0.5-1l0.2,1.2c0.2,1,0.7,2,1.3,2.9c0.3,0.4,0.7,0.8,1.1,1.1c0.1,0.1,0.2,0.1,0.3,0.2
				c0.1,0.1,0.2,0.1,0.4,0.2c0.2,0.1,0.5,0.2,0.7,0.2c2,0.4,4-0.5,5-2.4c0.3-0.5,0.5-1,0.6-1.6c0.1-0.6,0.2-1.2,0.3-1.8
				c0.2-1.2,0.3-2.5,0.2-3.8C71.6,127.5,70.6,125.2,69.8,122.9z M69.9,122.9c0.7,2.3,1.9,4.5,2.2,7.1c0.2,1.3,0.2,2.7,0,4
				c-0.1,0.7-0.1,1.3-0.3,2c-0.1,0.7-0.3,1.3-0.6,1.9c-1.1,2.2-3.4,3.4-5.7,2.8c-0.6-0.1-1.1-0.3-1.7-0.7c-0.6-0.4-1-0.9-1.4-1.4
				c-0.7-1-1.3-2.1-1.5-3.4l0.7,0.2c-0.4,0.7-1,1-1.6,1.2c-0.6,0.2-1.3,0.3-2,0.3c-0.3,0-0.7-0.1-1.1-0.2c-0.3-0.1-0.6-0.3-0.9-0.5
				c-0.6-0.4-1.1-0.8-1.6-1.3c-0.9-1-1.5-2.1-1.6-3.3c-0.2-1.2,0.3-2.4,1-3.3c0.7-1,1.5-2,2.5-2.9c1-0.9,2.1-1.7,3-2.6
				c1.9-1.9,3.5-4.3,4.9-6.9l0.1-0.2l0.2,0l1.7,0.1l0.1,0l0,0.1l1.7,3.5C68.7,120.5,69.3,121.7,69.9,122.9L69.9,122.9L69.9,122.9z"
				/>
		</g>
	</g>
	<g class="st2">
		<path class="st12" d="M69.8,123l-1.9-3.7c1.2,5,3.8,10-1.9,14c1.4-1.5-1.4-3.1-1.4-4.6c-1.3,6.7-4.7,7.1-9.5,6.7
			c0.6,0.5,1.2,0.9,1.9,1.2c1.4,0.6,3.7,0,4.3-1.2c0.2,1.4,1.5,3.8,2.9,4.4c3,1.5,6.6-0.1,7.3-4.2C72.7,129,71.1,127,69.8,123z"/>
	</g>
	<g>
		<path class="st6" d="M173.3,140.4c0,0-18.4-27.8-49.3-25c0,0-15.6,0.2-25.2-4c9.6-3,10.4-9.7,17.1-24.5
			C127.6,61.1,101.4,30,71.7,30C43.3,30,20,47.1,18.2,70.8c12.8,4,26.2,0,38.8,1.8c6.8,0,12.7,9.8,14.6,16.6c2.4,9-1.5,17-7.2,23.8
			c-0.7,0.2-1.5,0.3-2.3,0.5c-24.3,0.3-58.5,1.8-43.4,8.6c0,0,2.7,3.3,15.5,1.9c0,0-23.5,13.2,9.6,9.3c0,0-2.8,10,11.8,1.2
			c0.4-0.2,0.8-0.5,1.2-0.8c0,0,2.6-1,9,1.3c10.7,7.9,50.3,34.2,85.4,19c0,0,19.8-3.8,33.3,6.6C184.7,160.5,199.7,160.5,173.3,140.4
			z"/>
		<path d="M173.2,140.4c-2.8-3.9-6.1-7.4-9.7-10.6c-3.6-3.2-7.5-6-11.8-8.2c-4.2-2.3-8.8-4-13.4-5c-4.7-1-9.5-1.3-14.3-0.8l0,0h0
			c-4.3,0-8.6-0.3-12.8-0.8c-4.2-0.6-8.5-1.5-12.5-3.2l-0.9-0.4l0.9-0.3c1.9-0.6,3.6-1.4,5.2-2.6c1.5-1.2,2.8-2.7,3.8-4.3
			c2-3.3,3.4-7,5-10.6c0.8-1.8,1.5-3.6,2.3-5.4c0.8-1.8,1.6-3.6,2.1-5.5c1.1-3.7,1.5-7.7,1.1-11.5c-0.6-7.8-3.9-15.2-8.7-21.4
			c-4.8-6.2-11-11.3-18.1-14.7c-7-3.4-14.9-5.1-22.8-4.7c-7.8,0.3-15.7,2-22.9,5.1c-7.2,3.1-13.8,7.8-18.8,13.9
			c-2.5,3-4.6,6.4-6,10.1c-1.5,3.6-2.4,7.5-2.7,11.4l-0.1-0.2c3.1,1,6.3,1.5,9.5,1.7c3.2,0.2,6.5,0.1,9.7,0c6.5-0.3,13-0.9,19.5,0
			l0,0c2.1,0,4.2,0.9,5.8,2.2c1.7,1.3,3,2.9,4.3,4.5c1.2,1.7,2.2,3.5,3.1,5.4c0.9,1.9,1.6,3.8,2.1,5.9c0.9,4.1,0.5,8.4-1,12.3
			c-1.5,3.9-3.8,7.4-6.4,10.6l-0.1,0.1l-0.1,0c-0.8,0.2-1.6,0.3-2.3,0.5l0,0l0,0c-8.9,0.1-17.8,0.4-26.6,1
			c-4.4,0.3-8.8,0.7-13.2,1.5c-1.1,0.2-2.2,0.4-3.2,0.7c-1,0.3-2.1,0.6-3,1.2c-0.4,0.3-0.7,0.6-0.7,0.9c0,0.3,0.3,0.7,0.7,1
			c0.8,0.6,1.8,1.1,2.8,1.6l0.1,0l0.1,0.1c0.3,0.3,0.9,0.7,1.5,0.9c0.6,0.2,1.2,0.4,1.8,0.6c1.3,0.3,2.6,0.5,3.9,0.5
			c2.6,0.2,5.3,0,7.9-0.3l2.2-0.2l-1.9,1.1c-2.1,1.2-4.2,2.6-6,4.3c-0.4,0.4-0.9,0.9-1.2,1.3c-0.3,0.5-0.6,1-0.6,1.4
			c-0.1,0.9,1.2,1.4,2.3,1.7c2.4,0.5,4.9,0.4,7.4,0.3c2.5-0.1,5-0.4,7.5-0.7l0.7-0.1l-0.2,0.7c-0.3,1.3-0.3,3,0.6,3.7
			c0.4,0.4,1.1,0.5,1.8,0.5c0.7,0,1.4-0.2,2.1-0.4c1.4-0.4,2.7-1,4-1.7c1.3-0.7,2.6-1.4,3.8-2.3l0,0l0,0c0.9-0.3,1.7-0.3,2.5-0.3
			c0.8,0,1.6,0.1,2.4,0.3c1.5,0.3,3,0.7,4.5,1.3l0.1,0l0.1,0c6.1,4.5,12.6,8.5,19.4,11.9c6.8,3.4,13.8,6.4,21.1,8.5
			c7.3,2.1,14.8,3.3,22.4,3.3c7.6-0.1,15.1-1.5,22.1-4.5l0,0l0,0c2.9-0.5,5.8-0.7,8.7-0.7c2.9,0,5.8,0.2,8.7,0.7
			c5.7,1,11.4,3.1,16,6.7l-0.1,0c1.2,0,2.4-0.3,3.3-1.1c0.4-0.4,0.7-0.9,0.7-1.5c0-0.6-0.1-1.2-0.3-1.7c-0.9-2.3-2.5-4.1-4.2-5.9
			C180.9,146.5,177.1,143.4,173.2,140.4L173.2,140.4L173.2,140.4z M173.3,140.3c3.9,3,7.7,6,11.2,9.6c1.7,1.8,3.4,3.6,4.3,6
			c0.2,0.6,0.4,1.2,0.3,1.9c0,0.6-0.3,1.3-0.8,1.7c-1,0.9-2.3,1.1-3.5,1.2l-0.1,0l-0.1,0c-4.6-3.5-10.2-5.6-15.9-6.5
			c-2.9-0.5-5.7-0.7-8.6-0.7c-2.9,0-5.8,0.2-8.6,0.7l0.1,0c-7,3.1-14.7,4.6-22.4,4.7c-7.7,0.1-15.3-1.1-22.7-3.2
			c-7.4-2.1-14.5-5-21.3-8.5c-6.8-3.5-13.3-7.5-19.5-12l0.1,0.1c-1.4-0.5-2.9-0.9-4.4-1.2c-0.7-0.1-1.5-0.2-2.2-0.3
			c-0.7,0-1.5,0-2.1,0.2l0.1,0c-1.3,0.8-2.6,1.6-3.9,2.3c-1.3,0.7-2.7,1.3-4.2,1.8c-0.7,0.2-1.5,0.4-2.3,0.4c-0.8,0-1.7-0.1-2.4-0.7
			c-0.7-0.6-1-1.5-1.1-2.3c-0.1-0.8,0-1.6,0.2-2.4l0.5,0.6c-2.5,0.3-5,0.5-7.5,0.7c-2.5,0.1-5.1,0.2-7.6-0.4
			c-0.6-0.1-1.3-0.3-1.9-0.7c-0.3-0.2-0.6-0.4-0.8-0.8c-0.2-0.3-0.4-0.8-0.3-1.2c0-0.8,0.4-1.4,0.8-2c0.4-0.5,0.8-1,1.3-1.5
			c1.9-1.8,4-3.1,6.2-4.4l0.3,0.9c-2.7,0.3-5.3,0.4-8,0.3c-1.3-0.1-2.7-0.2-4-0.6c-0.7-0.2-1.3-0.4-2-0.6c-0.7-0.3-1.2-0.6-1.9-1.2
			l0.2,0.1c-1-0.5-2-1-3-1.7c-0.4-0.4-1-0.9-1-1.7c0-0.4,0.2-0.8,0.4-1.1c0.2-0.3,0.5-0.5,0.7-0.6c1-0.6,2.1-1,3.2-1.3
			c1.1-0.3,2.2-0.5,3.3-0.7c4.4-0.8,8.8-1.1,13.3-1.5c8.9-0.6,17.8-0.8,26.7-0.9l-0.1,0c0.8-0.1,1.5-0.3,2.3-0.4l-0.2,0.1
			c2.6-3.1,4.9-6.6,6.4-10.3c1.5-3.8,1.9-8,1.1-11.9c-0.4-2-1.1-3.9-2-5.7c-0.9-1.8-1.9-3.6-3-5.3c-1.2-1.7-2.5-3.2-4.1-4.4
			c-1.6-1.2-3.5-2.1-5.5-2.1h0l0,0c-6.4-0.9-13-0.4-19.5-0.1c-3.3,0.1-6.5,0.2-9.8,0c-3.3-0.2-6.5-0.7-9.6-1.7l-0.1,0l0-0.1
			c0.6-7.9,3.8-15.5,8.8-21.7c5-6.2,11.6-10.9,18.9-14.1c7.2-3.2,15.1-4.9,23-5.3c3.9-0.2,8,0,11.8,0.8c3.9,0.8,7.7,2.1,11.3,3.8
			c7.2,3.4,13.5,8.5,18.4,14.8c4.9,6.3,8.3,13.8,9,21.8c0.3,4-0.1,8-1.2,11.9c-0.6,1.9-1.4,3.8-2.2,5.5c-0.8,1.8-1.6,3.6-2.4,5.4
			c-1.6,3.6-3,7.3-5.1,10.7c-1.1,1.7-2.4,3.3-4,4.5c-1.6,1.2-3.5,2.1-5.4,2.6l0-0.7c3.9,1.7,8.1,2.6,12.3,3.2
			c4.2,0.6,8.5,0.9,12.8,0.9l0,0c4.8-0.4,9.7-0.1,14.5,0.9c4.7,1,9.3,2.8,13.5,5.1c4.2,2.3,8.2,5.2,11.8,8.4
			C167.3,132.8,170.6,136.4,173.3,140.3z"/>
	</g>
	<path class="st8" d="M60,35.4c9.8,1,17.6,6.8,27.3,7.8c2,1,5.9-2.9,6.8-2c19.5,12.7,22.5,37.1,14.6,56.6
		c-2.9,5.9-9.8,10.7-17.6,13.7c7.2,1.2,14.1,3.5,20.8,3.1c-4.4-0.6-9.3-1.6-13.2-3.3c9.6-3,10.4-9.7,17.1-24.5
		C127.6,61.1,101.4,30,71.7,30c-6.1,0-11.9,0.8-17.3,2.2C55.8,33.9,57.5,35.4,60,35.4z"/>
	<path class="st8" d="M68.8,112.6c13.7-7.8,12.7-31.2,0-41c-7.8-5.9-23.4,2-28.3-4.9c-4-4.8-7.4-14.9-14.9-15.6
		c-4.2,5.7-6.8,12.4-7.3,19.7c12.8,4,26.2,0,38.8,1.8c6.8,0,12.7,9.8,14.6,16.6c2.4,9-1.5,17-7.2,23.8c-0.7,0.2-1.5,0.3-2.3,0.5
		c-14.6,0.2-32.8,0.8-41.7,2.8C36.7,115.6,55,121.3,68.8,112.6z"/>
	<path class="st8" d="M176.1,151.6c-9.8-2-17.6-8.8-28.3-7.8c-29.3,4.9-59.5-3.9-84.9-16.6c-4.4-1.8-11.2,6.1-19,6.1
		c-0.3,1.1-1.8,9.4,11.9,1.1c0.4-0.2,0.8-0.5,1.2-0.8c0,0,2.6-1,9,1.3c10.7,7.9,50.3,34.2,85.4,19c0,0,19.8-3.8,33.3,6.6
		c0,0,8.8,0,0.9-9.1C182.8,152.2,179.7,152.4,176.1,151.6z"/>
	<g>
		<path class="st5" d="M37.1,65c0.1-0.3,0.2-0.4,0.2-0.4s-1.9-12.8-9.4-14.1C12.5,47.9,8.6,62.6,7.2,64.4
			C18.8,72.3,25.1,69.2,37.1,65z"/>
		<path d="M37.1,64.9l0.1-0.4l0,0c-0.8-3.6-2.1-7.3-4.3-10.2c-1.1-1.5-2.5-2.7-4.2-3.2c-1.7-0.5-3.6-0.6-5.4-0.6
			c-1.8,0.1-3.7,0.4-5.4,1.2c-1.7,0.8-3.2,1.9-4.5,3.2c-1.3,1.3-2.3,2.9-3.2,4.5c-0.4,0.8-0.8,1.7-1.2,2.5l-0.6,1.3
			c-0.2,0.4-0.4,0.9-0.7,1.3l-0.1-0.6c2.2,1.4,4.5,2.7,6.9,3.6c2.4,0.9,5,1.3,7.6,1.1c2.6-0.1,5.1-0.8,7.6-1.5
			C32,66.5,34.5,65.7,37.1,64.9z M37.1,65c-2.4,1-4.9,2-7.4,2.9c-2.5,0.9-5.1,1.6-7.8,1.8c-2.7,0.2-5.4-0.2-8-1.1
			c-2.5-1-4.9-2.3-7-3.8l-0.3-0.2l0.3-0.4c0.5-0.7,0.8-1.6,1.3-2.4c0.4-0.8,0.9-1.7,1.4-2.5c1-1.6,2.2-3.1,3.5-4.5
			c2.7-2.7,6.2-4.6,10.1-4.9c1-0.1,1.9-0.1,2.9,0c1,0.1,1.9,0.2,2.9,0.5c1.9,0.6,3.5,2,4.6,3.6c1.2,1.6,1.9,3.3,2.6,5.1
			c0.6,1.8,1,3.7,1.3,5.5l0,0l0,0L37.1,65L37.1,65z"/>
	</g>
	<g>
		<path class="st5" d="M86.9,39.5c7.7-2.3,13.4-5.7,12.7-7.6c-0.6-1.7-5.8-1.7-12.3-0.3c5.3-4.3,8-8.9,6.2-11.3
			c-1.5-1.9-5.3-1.9-9.9-0.4C87.4,12.6,88,6.2,84.4,4c-4.6-2.9-14.5,2.4-22,11.9c-5.5,7-8.2,14.3-7.4,18.9
			C65.9,33.9,76.7,35.9,86.9,39.5z"/>
		<path d="M86.9,39.4c2.2-0.7,4.4-1.6,6.5-2.6c1.1-0.5,2.1-1,3.1-1.7c1-0.6,1.9-1.3,2.5-2.2c0.3-0.5,0.4-0.9,0.1-1.2
			c-0.3-0.3-0.8-0.5-1.4-0.6c-1.1-0.2-2.3-0.2-3.4-0.2c-2.3,0.1-4.6,0.5-6.9,1.1l-1.8,0.4l1.5-1.2c1.5-1.3,3-2.6,4.3-4.2
			c0.6-0.8,1.2-1.6,1.6-2.5c0.4-0.9,0.8-1.8,0.7-2.7c0-0.9-0.5-1.7-1.4-2.2c-0.8-0.5-1.8-0.6-2.8-0.7c-2-0.1-4,0.4-5.9,0.9l-0.5,0.1
			l0.2-0.4c1.3-2.4,2.3-4.8,2.9-7.5c0.3-1.3,0.4-2.6,0.3-4C86.4,7,86,5.7,85.1,4.8c-0.9-0.9-2.2-1.3-3.5-1.3c-1.3,0-2.6,0.3-3.8,0.7
			c-2.5,0.9-4.8,2.4-6.9,4c-4.2,3.3-7.8,7.3-10.7,11.8c-1.4,2.2-2.7,4.6-3.6,7.1c-0.9,2.5-1.5,5.1-1.1,7.6l-0.5-0.4
			c5.5-0.4,10.9-0.1,16.3,0.8C76.6,36,81.9,37.5,86.9,39.4z M86.9,39.5c-5.2-1.6-10.4-2.9-15.8-3.7c-5.3-0.8-10.8-1-16.1-0.6l-0.5,0
			l-0.1-0.5c-0.4-2.8,0.2-5.6,1.1-8.2c0.9-2.6,2.2-5,3.7-7.3c3-4.5,6.7-8.6,11-11.9c2.2-1.6,4.6-3,7.2-3.9c1.3-0.4,2.7-0.7,4.1-0.7
			c1.4,0,2.8,0.5,3.8,1.6c1,1,1.4,2.4,1.6,3.8c0.1,1.4,0,2.7-0.3,4.1c-0.6,2.7-1.6,5.2-2.8,7.6l-0.2-0.3c1.9-0.6,4-1.1,6-1.1
			c1,0,2.1,0.1,3.1,0.6c0.5,0.2,0.9,0.6,1.3,1.1c0.3,0.5,0.5,1,0.5,1.6c0.1,1.1-0.3,2.2-0.7,3.1c-0.5,0.9-1.1,1.8-1.7,2.6
			c-1.3,1.6-2.8,3.1-4.4,4.3l-0.4-0.8c2.3-0.5,4.7-0.9,7.1-1c1.2,0,2.4,0,3.6,0.2c0.6,0.1,1.2,0.3,1.8,0.9c0.1,0.1,0.1,0.2,0.2,0.3
			c0,0.1,0.1,0.1,0.1,0.2c0.1,0.2,0.1,0.4,0,0.6c0,0.4-0.2,0.7-0.4,1c-0.8,1-1.8,1.7-2.8,2.3c-1,0.6-2.1,1.1-3.2,1.6
			C91.5,38.2,89.2,38.9,86.9,39.5L86.9,39.5L86.9,39.5z"/>
	</g>
	<path class="st13" d="M83.6,19.8c2.2-4.2,3.3-8.1,3.2-11.1c-1,4.7-5.7,9.2-8.6,13.1c3.9,0,7-1.7,10.2-3
		C86.9,18.9,85.3,19.3,83.6,19.8z"/>
	<path class="st13" d="M99.6,31.9c-0.6-1.7-5.8-1.7-12.3-0.3c5.3-4.3,8-8.9,6.2-11.3c-0.1-0.2-0.3-0.3-0.5-0.5c0,0.2,0,0.4,0,0.5
		c-3,4.5-7.4,8.9-13.4,10.4c1.5,0,4.5,0,6,0c-9.5,6.7-20.3,3.6-30.7,2.4c0,0.5,0,1.1,0.1,1.6c10.9-0.9,21.7,1.2,31.9,4.7
		C94.7,37.2,100.3,33.8,99.6,31.9z"/>
	<g>
		<path class="st5" d="M7.2,64.4C7.1,64.6,7,64.6,7,64.6s3.9,7.8,18.3,12c6.6,1.9,11-9.4,11.8-11.6C25.1,69.2,18.8,72.3,7.2,64.4z"
			/>
		<path d="M7.2,64.5l-0.1,0.2l0-0.1c1.9,2.8,4.5,4.9,7.3,6.7c2.8,1.7,5.8,3.2,8.9,4.4c0.8,0.3,1.6,0.6,2.4,0.8
			c0.8,0.2,1.6,0.2,2.4,0c1.6-0.4,2.9-1.6,4-2.8c2.1-2.6,3.5-5.7,4.6-8.8l0.5,0.5c-2.5,0.9-4.9,1.9-7.4,2.7
			c-2.5,0.8-5.1,1.5-7.8,1.7c-2.7,0.2-5.4-0.3-7.9-1.3C11.6,67.5,9.3,66.1,7.2,64.5z M7.2,64.4c2.3,1.4,4.6,2.6,7.1,3.4
			c2.5,0.8,5,1.2,7.6,0.9c2.6-0.2,5.1-0.9,7.6-1.6c2.5-0.8,5-1.7,7.5-2.5l0.8-0.3l-0.3,0.8c-1.3,3.1-2.9,6.2-5.1,8.8
			c-1.1,1.3-2.5,2.4-4.2,2.9c-0.8,0.2-1.7,0.3-2.6,0.1c-0.8-0.2-1.6-0.4-2.5-0.7c-3.2-1-6.4-2.3-9.2-4.2c-1.4-0.9-2.8-2-3.9-3.2
			c-1.2-1.2-2.3-2.5-3-4.1l0,0l0,0L7.2,64.4L7.2,64.4z"/>
	</g>
	<g>
		<path d="M54.4,55.9c-0.8,1.8-1.7,3.2-3.6,2.4c-1.8-0.8-2.7-3-1.9-4.8c0.8-1.8,3-2.7,4.8-1.9C55.6,52.5,55.2,54.1,54.4,55.9z"/>
		<ellipse class="st6" cx="50.3" cy="54.2" rx="0.7" ry="0.7"/>
	</g>
	<g>
		<path d="M28.3,50.1c-0.7,1-1.3,1.6-1.9,0.9c-0.6-0.7-0.5-2.1,0.2-3c0.7-1,1.7-1.2,2.3-0.5C29.5,48.3,29,49.2,28.3,50.1z"/>
		<ellipse transform="matrix(0.9479 0.3186 -0.3186 0.9479 16.8941 -6.0825)" class="st6" cx="27" cy="48.6" rx="0.3" ry="0.4"/>
	</g>
	<path class="st9" d="M61,63.3c-0.1,1.4-3.8,2.1-8.3,1.7c-4.4-0.4-7.9-1.9-7.8-3.3c0.1-1.4,3.8-2.1,8.3-1.7
		C57.6,60.4,61.1,61.9,61,63.3z"/>
	<path class="st6" d="M59.5,61.3c-0.1,0.7-1.2,1-2.4,0.7c-1.2-0.2-2.1-1-1.9-1.6c0.1-0.7,1.2-1,2.4-0.7C58.8,60,59.7,60.7,59.5,61.3
		z"/>
	<path class="st13" d="M27.8,50.5c-3-0.5-5.8-0.5-8.3-0.1c6.4,1.7,13.7,7.4,8,13c-6.4,9-8.7,8.3-16.6,2.2c1.2,2.2,0,5.6,14.4,10.9
		c6.4,2.4,11-9.4,11.8-11.6c0.1-0.3,0.2-0.4,0.2-0.4S35.4,51.8,27.8,50.5z"/>
	<path d="M52.2,92.4c0,1.9-1.6,3.5-3.5,3.5c-1.9,0-3.5-1.6-3.5-3.5c0-1.9,1.6-3.5,3.5-3.5C50.7,89,52.2,90.5,52.2,92.4z"/>
	<g>
		<path class="st0" d="M25.4,97.9c0-1.8,1.3-3.2,2.8-3.2c1.5,0,2.8,1.5,2.7,3.3c0,1.8-1.3,3.2-2.8,3.2
			C26.5,101.2,25.3,99.7,25.4,97.9z"/>
		<g>
			<path d="M25.4,97.9c0-0.8,0.2-1.6,0.7-2.2c0.5-0.7,1.2-1.2,2.1-1.2c0.9-0.1,1.8,0.4,2.3,1.1c0.6,0.7,0.9,1.6,0.9,2.5
				c0,0.8-0.3,1.8-0.9,2.4c-0.6,0.7-1.5,1.1-2.4,1c-0.9-0.1-1.6-0.6-2.1-1.3C25.6,99.5,25.3,98.7,25.4,97.9z M25.4,97.9
				c0,0.8,0.3,1.6,0.8,2.2c0.5,0.6,1.3,0.9,2,0.9c0.7,0,1.3-0.5,1.7-1c0.4-0.6,0.6-1.2,0.6-1.9c0-1.3-0.7-2.8-2.2-3
				c-0.7-0.1-1.5,0.2-2,0.8C25.7,96.4,25.4,97.1,25.4,97.9z"/>
		</g>
	</g>
	<g>
		<path class="st6" d="M28.2,94.7c-1.1,0-2,0.7-2.5,1.7c1.6,0.5,3.4,0.8,5.2,1C30.7,95.9,29.5,94.7,28.2,94.7z"/>
		<path d="M28.2,94.7c-0.5,0-1.1,0.2-1.5,0.5c-0.4,0.3-0.7,0.8-0.9,1.3l0-0.1c0.8,0.3,1.7,0.4,2.6,0.6c0.9,0.1,1.7,0.3,2.6,0.4
			l-0.1,0.1c-0.1-0.7-0.3-1.3-0.8-1.8C29.5,95.1,28.9,94.7,28.2,94.7z M28.2,94.7c0.7,0,1.4,0.3,1.8,0.8c0.5,0.5,0.8,1.2,0.9,1.9
			l0,0.1l-0.1,0c-1.8-0.1-3.5-0.4-5.2-1l-0.1,0l0-0.1C26.1,95.5,27.1,94.7,28.2,94.7z"/>
	</g>
	<ellipse transform="matrix(0.9943 0.1066 -0.1066 0.9943 9.996 -4.4755)" class="st6" cx="46.9" cy="91.3" rx="0.7" ry="1.1"/>
	<path class="st9" d="M58.4,101.7c-0.3,1.4-4.1,1.8-8.6,1c-4.5-0.8-7.9-2.6-7.6-4c0.3-1.4,4.1-1.8,8.6-1
		C55.3,98.5,58.7,100.3,58.4,101.7z"/>
	<path class="st6" d="M57.1,99.6c-0.2,0.7-1.3,0.9-2.5,0.5c-1.2-0.4-2-1.2-1.8-1.8c0.2-0.7,1.3-0.9,2.5-0.6
		C56.5,98.2,57.3,99,57.1,99.6z"/>
	<ellipse transform="matrix(0.9632 0.2688 -0.2688 0.9632 24.9738 -10.1719)" cx="49.6" cy="86.1" rx="3.7" ry="0.7"/>
</g>
<g>
	<g>
		
			<radialGradient id="SVGID_1_" cx="251.499" cy="178.5361" r="99.5675" gradientTransform="matrix(2.575285e-002 1.4686 -0.6056 3.372602e-002 215.5601 -235.8372)" gradientUnits="userSpaceOnUse">
			<stop  offset="0" style="stop-color:#2EA3D4"/>
			<stop  offset="0.2056" style="stop-color:#31A7D6;stop-opacity:0.7944"/>
			<stop  offset="0.4156" style="stop-color:#3AB3DC;stop-opacity:0.5844"/>
			<stop  offset="0.6276" style="stop-color:#4AC8E5;stop-opacity:0.3724"/>
			<stop  offset="0.8396" style="stop-color:#5FE4F2;stop-opacity:0.1604"/>
			<stop  offset="1" style="stop-color:#73FFFF;stop-opacity:0"/>
		</radialGradient>
		<path class="st11" d="M224.1,126.8v95.3L6.4,232.4l1.4-108.3c0,0,6.5-9.5,34.9,2.7c28.4,12.2,25.9-21.5,74.9-6.2
			c48.9,15.3,30.4-12.1,62.3-4c31.9,8,44.1,7.6,44.1,7.6"/>
	</g>
	<g>
		<g>
			<path class="st3" d="M7.8,124.1c0.7-0.9,1.8-1.6,2.8-2.1c1.1-0.5,2.2-0.9,3.4-1.1c2.3-0.5,4.7-0.5,7-0.4
				c4.7,0.3,9.3,1.5,13.8,2.9c2.2,0.7,4.4,1.6,6.6,2.5c2.2,0.9,4.3,1.8,6.6,2.4c2.2,0.6,4.6,0.9,6.9,0.8c2.3-0.1,4.6-0.6,6.8-1.4
				c4.3-1.7,8.2-4.4,12.4-6.5c4.2-2.2,8.7-3.9,13.4-4.6c4.7-0.8,9.5-0.7,14.2-0.1c4.7,0.6,9.3,1.6,13.9,2.9c4.5,1.4,9,2.8,13.5,3.8
				c4.6,1,9.2,1.8,13.8,1.6c2.3-0.1,4.6-0.4,6.8-1.1c2.2-0.7,4.2-1.9,6-3.4c1.9-1.4,3.7-3,5.9-4c2.2-1.1,4.6-1.6,7-1.7
				c4.8-0.2,9.4,1,14,2.2c4.6,1.1,9.1,2.2,13.7,3.2c4.6,1,9.2,1.9,13.8,2.6c4.6,0.7,9.3,1.4,14,1.4c-4.7,0-9.4-0.6-14-1.2
				c-4.7-0.7-9.3-1.5-13.9-2.4c-4.6-0.9-9.2-2-13.8-3.1c-4.5-1.1-9.1-2.2-13.8-2c-2.3,0.1-4.6,0.6-6.6,1.6c-2.1,1-3.8,2.5-5.7,4
				c-1.9,1.4-4,2.7-6.2,3.5c-2.3,0.8-4.7,1.1-7.1,1.2c-4.8,0.1-9.5-0.6-14.1-1.6c-4.6-1-9.1-2.4-13.6-3.7c-4.5-1.3-9.1-2.4-13.7-2.9
				c-4.6-0.6-9.3-0.6-13.9,0.1c-4.6,0.7-9,2.3-13.1,4.5c-4.1,2.1-8.1,4.8-12.5,6.5c-2.2,0.8-4.6,1.3-7,1.4c-2.4,0.1-4.8-0.3-7.1-0.9
				c-2.3-0.6-4.5-1.5-6.6-2.5c-2.2-0.9-4.3-1.8-6.6-2.5c-4.4-1.5-9-2.7-13.7-3.2c-2.3-0.2-4.7-0.2-7,0.3c-1.1,0.2-2.3,0.5-3.3,1
				C9.6,122.5,8.6,123.2,7.8,124.1z"/>
		</g>
	</g>
</g>
</svg>
