<?xml version="1.0" encoding="utf-8"?>
<!-- Generator: Adobe Illustrator 15.1.0, SVG Export Plug-In . SVG Version: 6.00 Build 0)  -->
<!DOCTYPE svg PUBLIC "-//W3C//DTD SVG 1.1//EN" "http://www.w3.org/Graphics/SVG/1.1/DTD/svg11.dtd">
<svg version="1.1" id="rabbit" xmlns="http://www.w3.org/2000/svg" xmlns:xlink="http://www.w3.org/1999/xlink" x="0px" y="0px"
	 width="238.5px" height="233.5px" viewBox="0 0 238.5 233.5" style="enable-background:new 0 0 238.5 233.5;" xml:space="preserve"
	>
<style type="text/css">
<![CDATA[
	.st0{opacity:0.35;fill:#966D44;}
	.st1{fill:#231F20;}
	.st2{fill:#F3FCFF;}
	.st3{fill:#F9D3AA;}
	.st4{fill:#FC8B96;}
	.st5{opacity:0.52;fill:#FF9999;}
	.st6{fill:#C99C6B;}
	.st7{opacity:0.2;}
	.st8{fill:#FFFFFF;}
	.st9{opacity:0.49;fill:#92DBFF;}
	.st10{opacity:0.5;fill:url(#SVGID_1_);}
]]>
</style>
<g>
	<g>
		<path class="st2" d="M96.9,101.4c2.2-9.7-11.9-18.3-19.4-21.6c-10.4-6.4-24.9-8-38.7-11.5c-1,3.4,0,9.4,2,12.6
			c25.7,40,10.3,34,40.7,40.4C87.7,115.6,96.1,107.6,96.9,101.4z"/>
		<path d="M96.9,101.4c0.6-2.5-0.1-5.2-1.3-7.4c-1.3-2.2-3.1-4.1-5-5.8c-2-1.7-4.1-3.1-6.3-4.4c-2.2-1.3-4.5-2.5-6.9-3.5l0,0l0,0
			c-2.9-1.7-5.9-3.1-9.1-4.2c-3.2-1.1-6.4-2.1-9.7-2.9c-3.3-0.8-6.6-1.6-9.9-2.3c-3.3-0.7-6.6-1.5-9.9-2.3l0.2-0.1
			c-0.4,1.5-0.4,3-0.3,4.6c0.1,1.5,0.4,3.1,0.9,4.5c0.5,1.5,1.1,2.8,2,4.1l2.5,3.9c3.3,5.3,6.5,10.6,9.4,16.2l4.3,8.3
			c0.7,1.4,1.5,2.7,2.4,3.9c0.9,1.2,2.1,2.1,3.4,2.7c2.7,1.2,5.9,1.8,8.9,2.4l9.1,2l-0.4,0.1c3.2-2.9,6.3-5.7,9.2-8.9
			c1.4-1.6,2.8-3.2,4-5C95.5,105.4,96.5,103.5,96.9,101.4z M97,101.4c-0.3,2.1-1.3,4.1-2.5,5.9c-1.2,1.8-2.5,3.5-3.9,5.1
			c-2.8,3.2-5.8,6.3-8.9,9.2l-0.1,0.1l-0.2,0l-9.2-1.8c-1.5-0.3-3.1-0.6-4.6-1c-1.5-0.4-3.1-0.8-4.5-1.5c-1.5-0.7-2.8-1.7-3.8-3
			c-1-1.3-1.8-2.7-2.5-4.1l-4.2-8.3c-2.8-5.5-5.9-10.9-9.1-16.3l-2.4-4c-0.9-1.3-1.6-2.8-2-4.3c-0.4-1.5-0.7-3.1-0.8-4.6
			c-0.1-1.6-0.1-3.2,0.4-4.7l0-0.2l0.2,0c3.3,0.9,6.6,1.5,9.9,2.2c3.3,0.7,6.6,1.3,9.9,2.1c3.3,0.8,6.6,1.6,9.8,2.7
			c3.2,1.1,6.4,2.5,9.3,4.3l-0.1,0c2.4,1.1,4.7,2.3,6.9,3.7c2.2,1.4,4.3,3,6.2,4.7c1.9,1.8,3.6,3.7,4.9,6
			C97,96.2,97.6,98.9,97,101.4z"/>
	</g>
	<path class="st4" d="M98,100.4c2.2-9.7-11.9-18.3-19.4-21.6c-10.4-6.4-24.9-8-38.7-11.5c-1,3.4,0,9.4,2,12.6
		c25.7,40,10.3,34,40.7,40.4C88.8,114.5,97.1,106.5,98,100.4z"/>
	<g>
		<path class="st3" d="M115.8,98c-3.6,15.5-6.8,29.3-44.8,19.1c-34.5-9.3-35.2-20.1-23.6-34.9c10-12.6,15.3-26,36.5-21.1
			C105.1,66,119.4,82.5,115.8,98z"/>
		<g>
			<path d="M115.8,98c-1,4.3-1.9,8.7-3.9,12.7c-1,2-2.3,3.9-3.9,5.4c-1.7,1.5-3.7,2.7-5.8,3.4c-4.3,1.5-8.9,1.6-13.3,1.3
				c-4.5-0.3-8.9-1.2-13.2-2.2c-4.3-1.1-8.6-2.3-12.8-3.7c-4.2-1.5-8.4-3.1-12.3-5.2c-1.9-1.1-3.8-2.3-5.5-3.8
				c-1.7-1.5-3.1-3.3-4-5.4c-0.8-2.1-0.9-4.5-0.4-6.7c0.5-2.2,1.4-4.3,2.5-6.2c1.1-1.9,2.4-3.8,3.8-5.5c1.4-1.8,2.7-3.5,3.9-5.4
				c2.6-3.6,5.1-7.3,8.4-10.5c1.6-1.6,3.4-3,5.4-4.1c2-1.1,4.2-1.9,6.4-2.3c4.5-0.8,9.1-0.3,13.4,0.8c8.7,2.1,17,6.4,23.2,12.9
				c3.1,3.2,5.6,7,7.2,11.2C116.5,89,116.9,93.7,115.8,98z M115.7,98c1-4.3,0.5-8.9-1.1-13c-1.6-4.1-4.2-7.8-7.4-10.9
				c-6.3-6.2-14.5-10.3-23-12.3c-4.3-1-8.7-1.5-13-0.8c-2.1,0.4-4.2,1.1-6.1,2.1c-1.9,1-3.6,2.4-5.2,3.9c-3.1,3.1-5.7,6.7-8.4,10.2
				c-1.3,1.8-2.7,3.6-4.1,5.3c-1.4,1.7-2.7,3.5-3.8,5.4c-1.1,1.9-2.1,3.9-2.6,6c-0.5,2.1-0.5,4.4,0.3,6.4c0.8,2.1,2.2,3.8,3.8,5.3
				c1.6,1.5,3.5,2.7,5.5,3.7c3.9,2.1,8.1,3.7,12.3,5c4.2,1.3,8.5,2.5,12.8,3.4c4.3,1,8.7,1.7,13.1,2.1c4.4,0.3,8.9,0.3,13-1.1
				c2.1-0.7,4-1.7,5.7-3.2c1.7-1.4,3-3.2,4-5.2C113.8,106.7,114.7,102.3,115.7,98z"/>
		</g>
	</g>
	<g>
		<path class="st2" d="M82.9,139.5c0,0-67.9,12.9,14,7.5C96.9,147.1,99.5,139.1,82.9,139.5z"/>
		<path d="M82.9,139.6c-5.6,1.1-11.1,2.7-16.6,4.1c-1.4,0.4-2.8,0.7-4.1,1.1c-1.4,0.4-2.7,0.8-4,1.3c-0.3,0.1-0.6,0.3-0.9,0.5
			c-0.3,0.2-0.5,0.4-0.5,0.5c0,0.1,0.4,0.3,0.7,0.4c0.3,0.1,0.7,0.2,1,0.3c1.4,0.2,2.8,0.3,4.2,0.4c5.7,0.2,11.4-0.3,17.1-0.6
			l17.1-1l-0.4,0.3c0.3-1.3,0-2.8-0.9-3.8c-0.9-1.1-2.2-1.8-3.6-2.3c-1.4-0.5-2.9-0.8-4.4-1C86,139.6,84.4,139.5,82.9,139.6z
			 M82.9,139.5c1.5-0.1,3.1-0.1,4.6,0.1c1.5,0.1,3.1,0.3,4.6,0.7c1.5,0.4,3,1.1,4.1,2.3c1.1,1.2,1.7,3,1.2,4.7l-0.1,0.3l-0.4,0
			c-2.8,0.2-5.7,0.4-8.6,0.5c-2.9,0.1-5.7,0.3-8.6,0.4c-5.7,0.2-11.4,0.1-17.1,0c-1.4,0-2.9-0.1-4.3-0.3c-0.4-0.1-0.7-0.1-1.1-0.2
			c-0.2-0.1-0.4-0.1-0.5-0.2c-0.2-0.1-0.4-0.2-0.5-0.5c-0.1-0.3,0.1-0.6,0.2-0.7c0.1-0.2,0.3-0.3,0.5-0.4c0.3-0.2,0.6-0.4,1-0.6
			c2.6-1.3,5.4-2,8.2-2.7C71.6,141.4,77.3,140.6,82.9,139.5L82.9,139.5L82.9,139.5z"/>
	</g>
	<path class="st9" d="M82.9,139.5c0,0-67.9,12.9,14,7.5C96.9,147.1,99.5,139.1,82.9,139.5z"/>
	<g>
		<path class="st2" d="M186.7,141.4c0,0,30.5,5.3,37.4,11.8c6.8,6.5-24.1,4.7-24.1,4.7S180.6,155.9,186.7,141.4z"/>
		<path d="M186.7,141.4c3.8,0.5,7.7,1.2,11.5,2c3.8,0.8,7.6,1.7,11.3,2.9c3.7,1.2,7.4,2.5,10.8,4.3c0.9,0.4,1.7,0.9,2.5,1.5
			c0.8,0.6,1.6,1.1,2.2,2c0.3,0.4,0.4,1.1,0.1,1.6c-0.3,0.5-0.7,0.8-1.2,1c-0.9,0.5-1.9,0.7-2.8,0.9c-3.8,0.8-7.7,1-11.6,1
			c-1.9,0-3.9,0-5.8,0c-1,0-1.9-0.1-2.9-0.1c-1,0-2-0.2-3-0.4c-1.9-0.4-3.8-1-5.6-1.9c-1.8-0.9-3.5-2-4.8-3.5
			c-1.3-1.5-2.1-3.5-2.1-5.5C185.3,145.1,185.9,143.1,186.7,141.4L186.7,141.4L186.7,141.4z M186.8,141.5c-0.7,1.8-1.1,3.7-1,5.6
			c0.1,1.9,0.9,3.7,2.2,5c1.2,1.4,2.9,2.4,4.6,3.2c1.7,0.8,3.6,1.3,5.4,1.7c0.9,0.2,1.9,0.4,2.8,0.4l2.9,0.1
			c1.9,0.1,3.9,0.1,5.8,0.1c3.9,0,7.7,0,11.5-0.6c0.9-0.2,1.9-0.4,2.7-0.8c0.4-0.2,0.8-0.4,1-0.8c0.2-0.4,0.2-0.8,0-1.2
			c-0.5-0.8-1.3-1.4-2-1.9c-0.8-0.5-1.6-1-2.5-1.4c-1.7-0.9-3.5-1.5-5.4-2.1c-1.8-0.6-3.7-1.1-5.5-1.7
			C201.8,144.9,194.3,143.2,186.8,141.5z"/>
	</g>
	<path class="st9" d="M220.3,150.7c-11.7,0.3-23.5-2.3-34.7-5.5c-1.4,11,14.4,12.6,14.4,12.6s30.9,1.8,24.1-4.7
		C223.2,152.3,221.9,151.5,220.3,150.7z"/>
	<path class="st0" d="M122.8,86.4c0-17.7-19.7-32.1-44-32.1c-17.9,0-25.3,12-30.3,23.1c0.2,0.8,0.5,1.5,0.9,2.2
		c-0.7,0.9-1.3,1.8-2,2.6c-1.2,1.5-2.2,3-3.1,4.4c3.7,0.7,7.6,2.4,8.5-0.2c0.5-0.7,1-1.4,1.3-2.1c5,3.2,11.4,4.9,12.3,11.9
		c0-1.9,0-3.1-0.4-4.5c-0.4-0.8-0.7-1.6-1-2.5c0.5,0.9,0.8,1.7,1,2.5c2.8,6.1,7.8,10.8,12.4,15.2c-0.4,2.5-0.7,5.1-0.9,7.5
		c-9.5-1.6-19.2-2.9-28.3-5.6c4.8,3,11.9,5.7,21.8,8.4c21.6,5.8,32,3.8,37.6-1.8C122.8,109.9,122.8,98.6,122.8,86.4z"/>
	<g>
		<g>
			<path class="st8" d="M51.7,74.7c-1.5-3.3-7-0.5-7-0.5c-0.1,0-0.2,0-0.3-0.1c-0.8,3.5-0.8,7.5,0.1,11.3c3.3,0.8,7.2,0.4,7.2,0.4
				S53.2,78,51.7,74.7z"/>
			<path d="M51.7,74.7c-0.3-0.6-0.7-1.1-1.3-1.3c-0.6-0.2-1.2-0.2-1.9-0.1c-0.6,0.1-1.2,0.3-1.8,0.5c-0.6,0.2-1.2,0.5-1.7,0.7
				l-0.2,0.1l-0.2-0.1c0,0,0,0,0,0c0,0-0.1,0-0.2,0l0.6-0.3c-0.4,1.8-0.8,3.7-0.9,5.5c0,0.9,0,1.9,0.2,2.8c0.1,0.9,0.3,1.9,0.6,2.7
				l-0.2-0.2c1.2,0.2,2.3,0.3,3.5,0.3c1.2,0,2.4,0,3.5-0.2l-0.5,0.4c0.3-1.8,0.5-3.6,0.8-5.5c0.1-0.9,0.2-1.8,0.2-2.8
				C52.2,76.5,52.1,75.6,51.7,74.7z M51.8,74.7c0.4,0.9,0.6,1.8,0.7,2.7c0.1,0.9,0.2,1.9,0.3,2.8c0,1.9-0.2,3.8-0.5,5.6l-0.1,0.4
				l-0.4,0c-1.2,0.1-2.5,0.1-3.7,0c-1.2-0.1-2.5-0.3-3.6-0.6l-0.2-0.1l0-0.2c-0.2-0.9-0.3-1.9-0.4-2.8c-0.1-1-0.1-1.9-0.2-2.9
				c-0.1-1.9-0.1-3.8,0.3-5.7l0.1-0.4l0.5,0.1l0.1,0c0.1,0,0.2,0,0.3,0.1l-0.4,0c1.2-0.6,2.5-0.9,3.9-0.9c0.7,0,1.4,0.1,2,0.4
				C51.1,73.5,51.5,74.1,51.8,74.7z"/>
		</g>
		<g>
			<path class="st8" d="M44.5,74.1c-1.6-0.5-4.4,1.8-4.2,7.2c0.1,2.3,2,3.5,4.3,4C43.7,81.6,43.7,77.6,44.5,74.1z"/>
			<path d="M44.4,74.2c-0.6,0-1.2,0.3-1.6,0.6c-0.5,0.4-0.8,0.9-1.1,1.4c-0.6,1.1-0.8,2.3-1.1,3.6c-0.1,0.6-0.2,1.3-0.1,1.9
				c0.1,0.6,0.3,1.2,0.8,1.7c0.9,0.9,2.2,1.3,3.4,1.5l-0.5,0.5c-0.3-0.9-0.5-1.9-0.6-2.8c-0.1-1-0.2-1.9-0.2-2.9
				c0-1,0.1-1.9,0.3-2.9C43.9,75.9,44.1,75,44.4,74.2z M44.5,74.1c-0.1,1-0.1,1.9-0.1,2.8c0,0.9,0,1.9,0,2.8c0,0.9,0.1,1.9,0.2,2.8
				c0.1,0.9,0.2,1.8,0.4,2.8l0.1,0.7l-0.6-0.2c-1.3-0.4-2.6-1.1-3.5-2.1c-0.4-0.5-0.7-1.2-0.9-1.9c-0.1-0.7-0.2-1.3-0.2-2
				c0-1.4,0.3-2.8,1-4c0.4-0.6,0.9-1.1,1.5-1.5C43.1,74,43.9,73.8,44.5,74.1L44.5,74.1L44.5,74.1z"/>
		</g>
		<path class="st7" d="M51.7,74.7c-1.5-3.3-7-0.5-7-0.5c-0.1,0-0.2,0-0.3-0.1c-0.2,0.9-0.3,1.8-0.4,2.7c3.4,1.8,4.7,5.3,3.1,9
			c2.4,0.2,4.6,0,4.6,0S53.2,78,51.7,74.7z"/>
		<path class="st7" d="M41.4,75.9c1,0.2,1.8,0.5,2.6,0.9c0.1-0.9,0.2-1.8,0.4-2.7C43.6,73.8,42.3,74.5,41.4,75.9z"/>
	</g>
	<path d="M123.9,85.3c0-17.7-19.7-32.1-44-32.1c-17.9,0-25.3,12-30.3,23.1c2.5,9.8,16.5,8.2,17.8,18.8c0-1.9,0-3.1-0.4-4.5
		c-0.4-0.8-0.7-1.6-1-2.5c0.5,0.9,0.8,1.7,1,2.5c3.2,7.1,9.4,12.1,14.4,17.2c1.2,2.5,3.6,6.1,3.1,9.8
		C123.9,117.8,123.9,102.4,123.9,85.3z"/>
	<g>
		<path class="st2" d="M77.6,40.6c0,0,26.8-46.8,46.3-30.5C143.4,26.3,101.2,32,92,43.2C92,43.2,80.5,50.5,77.6,40.6z"/>
		<path d="M77.5,40.5c2.4-4.3,5.1-8.4,7.9-12.4c2.9-4,6.1-7.8,9.6-11.2c3.5-3.4,7.5-6.6,12-8.6c2.3-1,4.7-1.7,7.2-1.8
			c2.5-0.1,5,0.5,7.2,1.7c1.1,0.6,2.1,1.3,3,2.1c0.9,0.8,1.8,1.7,2.6,2.6c0.8,1,1.5,2,1.9,3.3c0.4,1.2,0.5,2.6,0.1,3.8
			c-0.4,1.2-1.1,2.3-2,3.3c-0.9,0.9-1.8,1.7-2.8,2.5c-2,1.5-4.2,2.7-6.4,3.8c-4.4,2.3-8.9,4.1-13.4,6.2c-2.2,1-4.4,2.1-6.5,3.3
			c-2.1,1.2-4.1,2.6-5.7,4.4l0,0.1l0,0c-1.3,0.8-2.6,1.4-4.1,1.8c-1.4,0.5-2.9,0.7-4.4,0.7c-1.5,0-3-0.6-4.1-1.6
			C78.5,43.4,77.9,42,77.5,40.5L77.5,40.5L77.5,40.5z M77.6,40.6c0.4,1.4,1.1,2.7,2.2,3.6c1.1,0.9,2.5,1.3,3.9,1.4
			c1.4,0,2.8-0.3,4.2-0.8c1.3-0.5,2.7-1.1,3.8-1.9l-0.1,0.1c1.6-2,3.7-3.4,5.8-4.7c2.1-1.3,4.3-2.4,6.6-3.5c4.4-2.1,9-4,13.4-6.2
			c2.2-1.1,4.3-2.3,6.3-3.7c1.9-1.4,3.8-3,4.6-5.3c0.4-1.1,0.4-2.3,0.1-3.4c-0.3-1.1-1-2.2-1.7-3.1c-0.7-1-1.6-1.8-2.5-2.6
			c-0.9-0.8-1.9-1.5-2.9-2.1c-2.1-1.2-4.6-1.8-7-1.7c-2.4,0.1-4.8,0.9-7,1.9c-4.4,2.2-8.1,5.4-11.6,8.8c-3.5,3.4-6.7,7.2-9.6,11.1
			C83.1,32.4,80.3,36.4,77.6,40.6z"/>
	</g>
	<path class="st9" d="M123.9,10c-5.9-5-12.5-4.1-18.9-0.4c1.3-0.1,2.6,0,3.8,0.3c4.3,1.1,7.5,4.3,5.4,8.6
		c-7.1,14.2-21.8,16-35.2,19.7c-0.9,1.5-1.4,2.4-1.4,2.4c2.9,10,14.4,2.6,14.4,2.6C101.2,32,143.4,26.3,123.9,10z"/>
	<g>
		<path class="st2" d="M197.7,148.3c0,0-19-28.7-51-25.9c0,0-16.1,0.3-26-4.2c17-3.4,22.9-11.8,25.8-29.9
			c4.1-25.7-23-49.8-53.6-49.8c-30.2,0-35.5,10.2-49,24.6c-2.9,0.6-5.6,2.3-6.6,4.1c-1.7,3.2-0.9,6.6,2.1,8.2
			c1.9,0.9,3.9,0.8,5.6-0.2c2.4,3.4,7.2,6.5,13.1,7.9c8.2,2,15.7,0.2,18.1-4c0.4,0.2,0.8,0.5,1.3,0.7c6.7,12.1,6.7,12.1,4.6,21.8
			c-0.9,6.1-3.6,7.8,0.1,18.8c-7.8,1.4-19.2,2.2-33.6,0.1c0,0-24.4,9.8,35.2,19.9c0,0,48.8,40.2,91.2,21.9c0,0,20.5-4,34.5,6.8
			C209.5,169.1,224.9,169.1,197.7,148.3z"/>
		<path d="M197.6,148.3c-2.9-4.1-6.3-7.7-10-11c-3.7-3.3-7.8-6.2-12.2-8.5c-4.4-2.3-9.1-4.1-13.9-5.2c-4.8-1-9.8-1.3-14.8-0.9l0,0h0
			c-4.4,0-8.9-0.3-13.3-0.8c-4.4-0.6-8.8-1.5-12.9-3.3l-1.1-0.5l1.1-0.2c3.7-0.8,7.4-1.8,10.7-3.6c3.3-1.7,6.3-4.2,8.4-7.3
			c2.1-3.1,3.5-6.6,4.5-10.3c0.5-1.8,0.9-3.7,1.3-5.5c0.4-1.9,0.7-3.7,0.9-5.6c0.6-7.5-1.5-15.1-5.5-21.5c-4-6.4-9.6-11.8-16-15.9
			c-6.4-4.1-13.6-6.9-21-8.4c-3.7-0.7-7.5-1.1-11.3-1.1c-3.8,0-7.6,0.2-11.4,0.6c-3.8,0.4-7.5,1.2-11.1,2.4c-3.6,1.2-7,3-10,5.3
			c-3.1,2.3-5.7,5-8.3,7.8c-2.6,2.8-5.1,5.7-7.7,8.5l0,0l-0.1,0c-1.9,0.4-3.7,1.2-5.1,2.4c-0.7,0.6-1.3,1.4-1.6,2.3
			c-0.4,0.9-0.6,1.8-0.5,2.8c0,0.9,0.3,1.9,0.8,2.6c0.5,0.8,1.3,1.4,2.1,1.8c1.7,0.9,3.8,0.8,5.4-0.2l0.2-0.1l0.1,0.2
			c1.7,2.4,4.1,4.1,6.7,5.5c2.6,1.3,5.4,2.2,8.3,2.7c2.9,0.5,5.8,0.5,8.7,0c1.4-0.3,2.8-0.7,4.1-1.4c1.3-0.7,2.4-1.6,3.1-2.9
			l0.2-0.3l0.3,0.2c0.4,0.2,0.8,0.5,1.3,0.7l0.1,0l0,0.1c0.9,1.7,1.9,3.4,2.8,5.1c0.9,1.7,1.8,3.4,2.5,5.3c0.7,1.9,0.8,4,0.5,5.9
			c-0.3,2-0.7,3.8-1.1,5.7l0,0c-0.2,1.6-0.7,3.2-1.1,4.7c-0.4,1.5-0.7,3.1-0.7,4.6c0,3.1,0.9,6.2,1.9,9.2l0.2,0.5l-0.5,0.1
			c-11.2,1.9-22.6,1.7-33.8,0.1l0.2,0c-0.9,0.4-1.9,0.9-2.7,1.6c-0.8,0.6-1.5,1.4-1.8,2.3c-0.3,0.9-0.1,1.8,0.5,2.6
			c0.6,0.8,1.4,1.5,2.2,2.1c1.7,1.2,3.7,2.1,5.7,2.9c2,0.8,4,1.5,6.1,2.1c4.1,1.2,8.3,2.2,12.5,3.1c4.2,0.9,8.4,1.7,12.7,2.4l0.1,0
			l0.1,0.1c6.4,5,13.3,9.4,20.5,13.3c7.2,3.8,14.7,7.1,22.5,9.5c7.8,2.4,15.9,3.9,24,3.9c8.1,0,16.3-1.5,23.8-4.7l0,0l0,0
			c3-0.5,6-0.7,9-0.7c3,0,6,0.2,9,0.8c5.9,1,11.8,3.2,16.6,6.9l-0.1,0c1.2,0,2.5-0.3,3.4-1.1c0.4-0.4,0.7-1,0.8-1.5
			c0.1-0.6-0.1-1.2-0.3-1.8c-0.9-2.3-2.6-4.3-4.3-6.1C205.6,154.7,201.6,151.4,197.6,148.3L197.6,148.3L197.6,148.3z M197.7,148.3
			c4,3.1,8,6.2,11.6,9.9c1.7,1.8,3.5,3.8,4.5,6.2c0.2,0.6,0.4,1.3,0.3,1.9c0,0.7-0.4,1.3-0.9,1.8c-1,0.9-2.4,1.2-3.7,1.3l-0.1,0
			l-0.1,0c-4.8-3.6-10.5-5.7-16.4-6.7c-3-0.5-5.9-0.7-8.9-0.7c-3,0-6,0.2-8.9,0.7l0.1,0c-7.5,3.3-15.8,4.9-24,4.9
			c-8.2,0-16.4-1.4-24.3-3.8c-7.9-2.4-15.5-5.7-22.7-9.5c-7.2-3.9-14.2-8.3-20.6-13.4l0.2,0.1c-4.3-0.7-8.5-1.5-12.7-2.4
			c-4.2-0.9-8.4-1.9-12.6-3.1c-2.1-0.6-4.1-1.3-6.1-2.1c-2-0.8-4-1.7-5.8-3c-0.9-0.6-1.8-1.3-2.5-2.3c-0.3-0.5-0.6-1-0.7-1.6
			c-0.1-0.6-0.1-1.3,0.1-1.8c0.4-1.2,1.3-2,2.1-2.7c0.9-0.7,1.9-1.2,2.9-1.7l0.1,0l0.1,0c11.1,1.6,22.4,1.8,33.5-0.1l-0.3,0.6
			c-1-3-1.9-6.2-1.9-9.5c0-1.6,0.3-3.3,0.8-4.8c0.4-1.5,0.9-3.1,1.1-4.6l0,0l0,0c0.4-1.9,0.9-3.8,1.1-5.7c0.3-1.9,0.2-3.8-0.4-5.6
			c-0.6-1.8-1.5-3.5-2.4-5.2c-0.9-1.7-1.8-3.4-2.8-5.1l0.1,0.1c-0.4-0.2-0.8-0.5-1.2-0.7l0.4-0.1c-0.8,1.3-2,2.4-3.3,3.1
			c-1.3,0.7-2.8,1.2-4.2,1.5c-2.9,0.6-6,0.5-8.9,0c-2.9-0.5-5.8-1.4-8.4-2.8c-2.6-1.4-5.1-3.2-6.8-5.6l0.3,0.1c-1.7,1-4,1.1-5.8,0.2
			c-0.9-0.5-1.7-1.1-2.3-2c-0.6-0.8-0.9-1.9-0.9-2.9c0-1,0.2-2,0.6-2.9c0.4-0.9,1-1.8,1.7-2.4c1.5-1.3,3.4-2.1,5.3-2.5l-0.1,0.1
			c2.6-2.8,5.1-5.6,7.7-8.4c2.6-2.8,5.3-5.5,8.4-7.8c3.1-2.3,6.5-4.1,10.1-5.4c3.6-1.3,7.4-2,11.2-2.5c3.8-0.5,7.6-0.6,11.4-0.7
			c3.8,0,7.7,0.3,11.4,1c7.5,1.4,14.8,4.2,21.3,8.3c6.5,4.1,12.2,9.5,16.3,16c4.1,6.5,6.4,14.3,5.7,22c-0.1,1.9-0.5,3.8-0.8,5.7
			c-0.4,1.9-0.8,3.8-1.3,5.6c-1,3.7-2.5,7.3-4.7,10.5c-2.2,3.2-5.3,5.8-8.7,7.5c-3.4,1.8-7.2,2.8-10.9,3.6l0.1-0.7
			c4,1.8,8.4,2.7,12.7,3.3c4.4,0.6,8.8,0.9,13.2,0.9l0,0c5-0.4,10.1-0.1,15,1c4.9,1.1,9.6,2.9,14,5.3c4.4,2.4,8.5,5.4,12.2,8.7
			C191.4,140.5,194.8,144.2,197.7,148.3z"/>
	</g>
	<path class="st9" d="M74.3,75.6c-2.2,0-5.4,2.2-7.5,3.2c-7.5,0-14-5.4-20.5-6.5c-2.5-0.6-5.8-0.1-9.4,0.4c0.5,1.1,1.3,2.1,2.6,2.8
		c1.9,0.9,3.9,0.8,5.6-0.2c2.4,3.4,7.2,6.5,13.1,7.9c8.2,2,15.7,0.2,18.1-4c0.4,0.2,0.8,0.5,1.3,0.7c6.7,12.1,6.7,12.1,4.6,21.8
		c-0.3,1.9-0.7,3.4-1.1,4.9C86.7,96.5,84.5,82.1,74.3,75.6z"/>
	<path class="st9" d="M206,155.2c-3.1-0.2-6.2-1-8.8-2c-12.9-3.2-26.9,8.6-40.9,5.4c-23.7-5.4-49.6-11.9-70-21.6
		c-11.2-5.6-27.3-4.7-41.2-8.6c3.2,3.5,13.3,7.7,38.9,12c0,0,48.8,40.2,91.2,21.9c0,0,20.5-4,34.5,6.8
		C209.5,169.1,221.3,169.1,206,155.2z"/>
	<path class="st9" d="M103.4,46.5c1.1,5.4,0,10.8,5.4,14c6.5,3.2,16.2-2.2,18.3,0c17.2,18.3,2.2,53.9-24.8,56
		c8.6,5.4,19.4,9.7,29.1,8.6c12.1-0.5,24-0.7,35.8-0.2c-6.1-2.1-12.9-3.2-20.6-2.5c0,0-16.1,0.3-26-4.2c17-3.4,22.9-11.8,25.8-29.9
		c4.1-25-21.7-48.6-51.4-49.7C98.8,40.5,102.2,42.8,103.4,46.5z"/>
	<path d="M49.6,68.8c0,3-1.9,7-4.2,7c-2.3,0-4.2-4-4.2-7c0-3,2.2-4,4.2-3.1C47.5,66.6,49.6,65.8,49.6,68.8z"/>
	<g>
		<path d="M79.7,61.9c-0.9,2.5-2.5,4.7-5,3.8c-2.5-0.9-3.7-3.7-2.8-6.2c0.9-2.5,3.7-3.7,6.2-2.8C80.6,57.7,80.6,59.4,79.7,61.9z"/>
		<path class="st8" d="M74.2,60.2c-0.2,0.5-0.5,0.9-0.9,0.7c-0.5-0.2-0.7-0.7-0.5-1.2c0.2-0.5,0.7-0.7,1.2-0.5
			C74.4,59.4,74.4,59.8,74.2,60.2z"/>
	</g>
	<g>
		<path d="M48.6,59.8c-1.2,1.4-2.6,2.7-3.4,2c-0.8-0.7-0.4-2.3,0.8-3.8c1.2-1.4,2.8-2,3.6-1.4C50.4,57.4,49.8,58.4,48.6,59.8z"/>
		<path class="st8" d="M46.8,58.6c-0.2,0.3-0.5,0.5-0.6,0.4c-0.1-0.1-0.1-0.4,0.2-0.7c0.2-0.3,0.5-0.4,0.7-0.3
			C47.1,58.2,47,58.4,46.8,58.6z"/>
	</g>
	<g>
		<path class="st2" d="M106.2,54.7c0,0,31.6-42,56.8-33c25.1,9,25.1,40.8,4.6,34s-23.7-16.5-41.8,1.4
			C125.8,57.1,118.3,65.3,106.2,54.7z"/>
		<path d="M106.1,54.7c4.8-6.4,10.2-12.4,16.1-17.9c6-5.4,12.4-10.4,19.9-13.7c3.7-1.6,7.7-2.8,11.7-3c2-0.1,4.1,0,6,0.4
			c2,0.4,3.9,1.1,5.7,1.9c3.7,1.7,7,4,9.8,6.9c2.8,2.9,5,6.4,6.3,10.3c0.6,1.9,1,4,1,6c0,2-0.3,4.1-1.2,6c-0.9,1.9-2.4,3.5-4.3,4.4
			c-1.9,0.9-4.1,1-6.1,0.8c-2.1-0.2-4-0.9-5.9-1.6c-1.9-0.7-3.8-1.4-5.6-2.2c-3.7-1.5-7.3-3.5-11-4.8c-1.9-0.6-3.8-1.1-5.7-1
			c-1.9,0-3.8,0.6-5.6,1.4c-3.6,1.7-6.7,4.3-9.6,7l-1.1,1l-0.5,0.5c-0.2,0.2-0.4,0.4-0.6,0.5c-0.8,0.7-1.7,1.2-2.6,1.6
			c-1.9,0.8-4,1.1-6,0.8c-2-0.2-4-1-5.7-2C109.2,57.3,107.6,56.1,106.1,54.7L106.1,54.7L106.1,54.7z M106.3,54.7
			c3,2.5,6.6,4.7,10.5,5.1c2,0.2,4-0.1,5.7-0.9c0.9-0.4,1.7-0.9,2.5-1.5c0.2-0.2,0.4-0.3,0.5-0.5l0.5-0.5l1.1-1.1
			c2.9-2.8,6-5.5,9.7-7.3c1.8-0.9,3.9-1.5,6-1.6c2.1-0.1,4.1,0.4,6.1,1c3.9,1.4,7.4,3.2,11.1,4.8c1.8,0.8,3.7,1.6,5.6,2.2
			c1.9,0.7,3.7,1.4,5.7,1.6c1.9,0.3,3.9,0.1,5.7-0.7c1.8-0.8,3.2-2.2,4-3.9c0.9-1.7,1.2-3.7,1.2-5.7c0-2-0.3-3.9-0.9-5.8
			c-2.3-7.6-8.4-13.9-15.7-17.1c-1.8-0.8-3.7-1.5-5.7-1.9c-2-0.4-4-0.4-5.9-0.3c-4,0.3-7.8,1.5-11.4,3.2c-3.6,1.6-7,3.7-10.3,6
			c-3.3,2.3-6.4,4.8-9.4,7.5c-3,2.7-5.9,5.4-8.6,8.4C111.4,48.6,108.7,51.6,106.3,54.7z"/>
	</g>
	<path class="st9" d="M175,29.3c2.4,7.1,1.8,14.8-3.7,17.2c-12.9,6.5-26.9-8.6-40.9-2.2c-6.8,2.9-9.2,10.2-14.4,15.6
		c6.3,1.1,9.9-2.8,9.9-2.8c18.1-17.8,21.2-8.2,41.8-1.4C184,61.1,187.3,41.8,175,29.3z"/>
	<g>
		<path class="st4" d="M146.5,45.4c-13.2-8.5-19.8,5.3-27.8,14.7c4.5-0.2,7.1-3,7.1-3c13-12.9,18.3-11.4,27.9-7.1
			C151.3,48.5,148.9,47,146.5,45.4z"/>
		<path d="M146.5,45.4c-1.3-0.8-2.6-1.5-4-1.9c-1.4-0.4-2.9-0.6-4.3-0.5c-2.9,0.3-5.5,1.9-7.7,3.7c-2.2,1.9-4.1,4.2-6,6.5
			c-0.9,1.1-1.9,2.3-2.8,3.5c-0.9,1.2-1.9,2.3-2.8,3.5l-0.1-0.3c1.6-0.1,3.2-0.6,4.6-1.4c0.7-0.4,1.4-0.9,1.9-1.4l1.7-1.8
			c2.4-2.3,4.9-4.5,7.7-6.3c1.4-0.9,3-1.7,4.6-2.1c1.6-0.5,3.4-0.7,5.1-0.5c3.4,0.3,6.5,1.9,9.4,3.3l-0.2,0.5
			C151.2,48.6,148.9,47,146.5,45.4z M146.5,45.4c1.2,0.8,2.4,1.5,3.6,2.3l3.7,2.1l-0.2,0.5c-3.1-1.2-6.1-2.5-9.3-2.8
			c-1.6-0.1-3.2,0-4.7,0.5c-1.5,0.5-3,1.1-4.4,2c-2.8,1.7-5.3,3.8-7.7,6l-1.8,1.7c-0.7,0.6-1.4,1-2.1,1.4c-1.5,0.8-3.2,1.2-4.8,1.3
			l-0.4,0l0.3-0.3c1-1.1,1.9-2.3,2.8-3.5c0.9-1.2,1.8-2.4,2.6-3.6c1.8-2.4,3.6-4.8,5.9-6.8c1.1-1,2.4-1.9,3.8-2.5
			c1.4-0.7,2.9-1,4.4-1.1C141.2,42.5,144,43.8,146.5,45.4z"/>
	</g>
	<ellipse transform="matrix(0.9607 0.2778 -0.2778 0.9607 22.4309 -18.2718)" class="st5" cx="75.7" cy="70" rx="6.7" ry="2.2"/>
	<ellipse transform="matrix(0.9607 0.2775 -0.2775 0.9607 22.5459 -19.5983)" class="st8" cx="80.5" cy="69.8" rx="2.1" ry="0.7"/>
	<ellipse transform="matrix(0.9607 0.2777 -0.2777 0.9607 29.8235 -12.9998)" class="st5" cx="60.8" cy="98.8" rx="5.6" ry="1.9"/>
	<ellipse transform="matrix(0.9607 0.2776 -0.2776 0.9607 29.9182 -14.1216)" class="st8" cx="64.8" cy="98.6" rx="1.8" ry="0.6"/>
	<path d="M63.1,95.1c1-1.2,0.6-2.1-0.9-3.4c-1.5-1.3-3.6-2.5-4.6-1.3c-1,1.2-0.6,3.2,0.9,4.5C60,96.2,62.1,96.3,63.1,95.1z"/>
	<ellipse class="st8" cx="58" cy="92.2" rx="0.6" ry="0.8"/>
	<g>
		
			<ellipse transform="matrix(-0.9353 -0.354 0.354 -0.9353 57.6936 213.9162)" class="st6" cx="48.4" cy="101.7" rx="5.1" ry="3.5"/>
		<path d="M43.6,99.9c0.4-1.1,1.5-1.7,2.7-2c1.1-0.2,2.3-0.1,3.5,0.2c1.1,0.4,2.2,1,3,1.9c0.4,0.5,0.7,1,0.9,1.6
			c0.2,0.6,0.2,1.3,0,2c-0.2,0.6-0.7,1.2-1.3,1.5c-0.6,0.4-1.2,0.5-1.8,0.6c-1.2,0.1-2.4-0.1-3.5-0.6c-1.1-0.5-2-1.2-2.7-2.1
			C43.6,102.2,43.2,101,43.6,99.9z M43.6,99.9c-0.4,1.1,0.1,2.3,0.8,3.1c0.8,0.8,1.8,1.4,2.8,1.7c1,0.3,2.2,0.4,3.2,0.2
			c1-0.2,2-0.8,2.3-1.6c0.3-0.9,0-1.9-0.6-2.7c-0.6-0.8-1.5-1.5-2.5-2c-1-0.4-2.1-0.7-3.3-0.6C45.2,98.2,44,98.8,43.6,99.9z"/>
	</g>
	<g>
		<path class="st8" d="M52.8,100.8c-0.6-1-1.7-1.9-3.1-2.4c-2.6-1-5.3-0.3-6,1.5c-0.2,0.4-0.2,0.9-0.1,1.4
			C46.7,100.8,49.7,100.6,52.8,100.8z"/>
		<path d="M52.8,100.8c-0.6-0.8-1.4-1.5-2.3-1.9c-0.9-0.4-1.9-0.7-2.9-0.7c-1,0-2,0.1-2.8,0.7c-0.8,0.5-1.2,1.5-1,2.4l-0.3-0.2
			C46.6,100.6,49.7,100.5,52.8,100.8z M52.8,100.8c-0.8,0-1.5,0-2.3,0.1c-0.8,0-1.5,0.1-2.3,0.1c-1.5,0.1-3.1,0.3-4.6,0.5l-0.2,0
			l0-0.2c-0.1-0.5-0.1-1.1,0.2-1.6c0.2-0.5,0.6-0.9,1.1-1.2c0.9-0.6,2-0.8,3.1-0.7c1,0.1,2.1,0.4,3,0.9
			C51.5,99.2,52.3,99.9,52.8,100.8z"/>
	</g>
	<g>
		<path class="st2" d="M187.8,128.7c0-4.6-4-8.4-9-8.4c-4.6,0-8.3,3.2-8.9,7.3c4.6,2.4,8.8,6.1,13.4,8.3
			C186,134.5,187.8,131.8,187.8,128.7z"/>
		<path d="M187.8,128.7c0-2.2-1.1-4.3-2.7-5.6c-1.6-1.4-3.6-2.2-5.7-2.4c-2.1-0.2-4.3,0.3-6,1.5c-1.7,1.3-2.9,3.3-3.1,5.4l-0.2-0.3
			c2.4,1.1,4.6,2.6,6.8,4.1c2.2,1.4,4.4,2.9,6.6,4.1l-0.4,0c1.3-0.6,2.4-1.5,3.3-2.7C187.2,131.6,187.8,130.2,187.8,128.7z
			 M187.9,128.7c0,1.5-0.4,3-1.1,4.3c-0.7,1.3-1.8,2.5-3.2,3.3l-0.2,0.1l-0.2-0.1c-2.4-1.1-4.7-2.6-6.8-4.1c-2.2-1.5-4.3-3-6.5-4.4
			l-0.2-0.1l0-0.2c0.4-2.2,1.7-4.2,3.5-5.5c1.8-1.3,4-2.1,6.3-2.1c2.3,0,4.6,1,6.1,2.7C187,124.3,187.8,126.5,187.9,128.7z"/>
	</g>
	<path class="st9" d="M184.5,122.2c0,2.8,0.2,5.6,0.8,8.4c-4.3,0.7-8.5,0-12.8-1.5c3.6,2.3,7.1,5,10.8,6.9c2.7-1.5,4.5-4.1,4.5-7.2
		C187.8,126.1,186.5,123.7,184.5,122.2z"/>
</g>
<g>
	<g>
		
			<radialGradient id="SVGID_1_" cx="150.1299" cy="140.6982" r="99.5675" gradientTransform="matrix(2.575285e-002 1.4686 -0.6056 3.372602e-002 196.702 -79.3429)" gradientUnits="userSpaceOnUse">
			<stop  offset="0" style="stop-color:#2EA3D4"/>
			<stop  offset="0.2056" style="stop-color:#31A7D6;stop-opacity:0.7944"/>
			<stop  offset="0.4156" style="stop-color:#3AB3DC;stop-opacity:0.5844"/>
			<stop  offset="0.6276" style="stop-color:#4AC8E5;stop-opacity:0.3724"/>
			<stop  offset="0.8396" style="stop-color:#5FE4F2;stop-opacity:0.1604"/>
			<stop  offset="1" style="stop-color:#73FFFF;stop-opacity:0"/>
		</radialGradient>
		<path class="st10" d="M225.5,133.1v95.3L7.8,238.7l1.4-108.3c0,0,6.5-9.5,34.9,2.7c28.4,12.2,25.9-21.5,74.9-6.2
			c48.9,15.3,30.4-12.1,62.3-4c31.9,8,44.1,7.6,44.1,7.6"/>
	</g>
	<g>
		<g>
			<path class="st1" d="M9.3,130.4c0.7-0.9,1.8-1.6,2.8-2.1c1.1-0.5,2.2-0.9,3.4-1.1c2.3-0.5,4.7-0.5,7-0.4
				c4.7,0.3,9.3,1.5,13.8,2.9c2.2,0.7,4.4,1.6,6.6,2.5c2.2,0.9,4.3,1.8,6.6,2.4c2.2,0.6,4.6,0.9,6.9,0.8c2.3-0.1,4.6-0.6,6.8-1.4
				c4.3-1.7,8.2-4.4,12.4-6.5c4.2-2.2,8.7-3.9,13.4-4.6c4.7-0.8,9.5-0.7,14.2-0.1c4.7,0.6,9.3,1.6,13.9,2.9c4.5,1.4,9,2.8,13.5,3.8
				c4.6,1,9.2,1.8,13.8,1.6c2.3-0.1,4.6-0.4,6.8-1.1c2.2-0.7,4.2-1.9,6-3.4c1.9-1.4,3.7-3,5.9-4c2.2-1.1,4.6-1.6,7-1.7
				c4.8-0.2,9.4,1,14,2.2c4.6,1.1,9.1,2.2,13.7,3.2c4.6,1,9.2,1.9,13.8,2.6c4.6,0.7,9.3,1.4,14,1.4c-4.7,0-9.4-0.6-14-1.2
				c-4.7-0.7-9.3-1.5-13.9-2.4c-4.6-0.9-9.2-2-13.8-3.1c-4.5-1.1-9.1-2.2-13.8-2c-2.3,0.1-4.6,0.6-6.6,1.6c-2.1,1-3.8,2.5-5.7,4
				c-1.9,1.4-4,2.7-6.2,3.5c-2.3,0.8-4.7,1.1-7.1,1.2c-4.8,0.1-9.5-0.6-14.1-1.6c-4.6-1-9.1-2.4-13.6-3.7c-4.5-1.3-9.1-2.4-13.7-2.9
				c-4.6-0.6-9.3-0.6-13.9,0.1c-4.6,0.7-9,2.3-13.1,4.5c-4.1,2.1-8.1,4.8-12.5,6.5c-2.2,0.8-4.6,1.3-7,1.4c-2.4,0.1-4.8-0.3-7.1-0.9
				c-2.3-0.6-4.5-1.5-6.6-2.5c-2.2-0.9-4.3-1.8-6.6-2.5c-4.4-1.5-9-2.7-13.7-3.2c-2.3-0.2-4.7-0.2-7,0.3c-1.1,0.2-2.3,0.5-3.3,1
				C11.1,128.9,10,129.5,9.3,130.4z"/>
		</g>
	</g>
</g>
</svg>
