<?xml version="1.0" encoding="utf-8"?>
<!-- Generator: Adobe Illustrator 15.1.0, SVG Export Plug-In . SVG Version: 6.00 Build 0)  -->
<!DOCTYPE svg PUBLIC "-//W3C//DTD SVG 1.1//EN" "http://www.w3.org/Graphics/SVG/1.1/DTD/svg11.dtd">
<svg version="1.1" id="tiger" xmlns="http://www.w3.org/2000/svg" xmlns:xlink="http://www.w3.org/1999/xlink" x="0px" y="0px"
	 width="238.5px" height="216.9px" viewBox="0 0 238.5 216.9" style="enable-background:new 0 0 238.5 216.9;" xml:space="preserve"
	>
<style type="text/css">
<![CDATA[
	.st0{opacity:0.38;fill:#BF7326;}
	.st1{fill:#EDBB8A;}
	.st2{fill:#231F20;}
	.st3{opacity:0.42;fill:#FF9494;}
	.st4{fill:#FF9D33;}
	.st5{fill:#FFE1C5;}
	.st6{fill:#FFFFFF;}
	.st7{opacity:0.46;fill:#B78558;}
	.st8{opacity:0.38;fill:#AA8C71;}
	.st9{fill:#FF9D33;stroke:#000000;stroke-miterlimit:10;}
	.st10{opacity:0.5;fill:url(#SVGID_1_);}
]]>
</style>
<g>
	<path class="st9" d="M76.7,112c0,0-61.8,26.3,14.6,9C91.3,121,92.3,109.4,76.7,112z"/>
	<g>
		<path class="st4" d="M176.2,110.6c0,0,27.6-1.2,34.8,3.1s-20.1,8.7-20.1,8.7S173.6,124.4,176.2,110.6z"/>
		<g>
			<path d="M176.2,110.6c3.4-0.3,6.9-0.4,10.4-0.5c3.5,0,6.9,0,10.4,0.3c3.5,0.3,6.9,0.8,10.3,1.7c0.8,0.2,1.7,0.5,2.5,0.8
				c0.8,0.3,1.6,0.7,2.3,1.4c0.3,0.3,0.5,0.9,0.4,1.4c-0.2,0.5-0.5,0.8-0.8,1.1c-0.7,0.6-1.5,1-2.3,1.4c-3.2,1.5-6.6,2.3-9.9,3.2
				c-1.7,0.4-3.4,0.8-5.1,1.1c-0.8,0.2-1.7,0.3-2.6,0.5c-0.9,0.2-1.8,0.2-2.7,0.2c-1.8,0-3.5-0.1-5.3-0.5c-1.7-0.4-3.4-1.1-4.9-2.2
				c-1.4-1.1-2.5-2.7-2.9-4.5C175.6,114.1,175.8,112.3,176.2,110.6L176.2,110.6L176.2,110.6z M176.2,110.7c-0.2,1.7-0.2,3.4,0.3,5
				c0.5,1.6,1.5,3,2.8,4c1.3,1,3,1.5,4.6,1.9c1.6,0.3,3.3,0.5,5,0.5c0.8,0,1.7,0,2.5-0.2l2.5-0.5c1.7-0.3,3.4-0.6,5.1-1
				c3.4-0.7,6.7-1.5,9.9-2.7c0.8-0.3,1.6-0.7,2.2-1.2c0.3-0.2,0.6-0.5,0.8-0.9c0.1-0.3,0-0.7-0.3-1c-0.5-0.6-1.4-1-2.1-1.3
				c-0.8-0.3-1.6-0.6-2.5-0.8c-3.3-0.8-6.8-1-10.2-1.2C190,110.9,183.1,110.8,176.2,110.7z"/>
		</g>
	</g>
	<path class="st0" d="M76.7,112c0,0-61.8,26.3,14.6,9C91.3,121,92.3,109.4,76.7,112z"/>
	<path class="st0" d="M211,113.7c-0.8-0.5-2-0.9-3.3-1.3c-10.5-0.2-21.1,0.1-31.8,0.5c-0.3,11.3,15,9.5,15,9.5
		S218.2,118.1,211,113.7z"/>
	<g>
		<path class="st4" d="M75.4,64.9c-9.4-15-30.5-8.1-45.8-15.7c-2.2,5.7,7.3,14.1,9.4,20.2c6.1,17.5,15.4,32.6,28.9,32.3
			C78.7,92.7,83.4,76.5,75.4,64.9z"/>
		<path d="M75.4,64.9c-1.1-1.8-2.5-3.3-4.1-4.7c-1.6-1.3-3.4-2.3-5.3-3.1c-3.8-1.5-8-2.1-12.1-2.6c-4.1-0.5-8.3-0.8-12.4-1.4
			c-4.1-0.6-8.2-1.7-12-3.7l0.4-0.1c-0.5,1.3-0.4,2.7,0,4.1c0.4,1.4,1.1,2.6,1.8,3.9c1.5,2.5,3.2,4.8,4.8,7.2
			c0.8,1.2,1.6,2.4,2.2,3.7c0.6,1.3,1,2.7,1.6,4c1,2.7,2.2,5.3,3.4,7.9c2.5,5.1,5.5,10.1,9.4,14.2c2,2,4.2,3.8,6.7,5.1
			c2.5,1.2,5.3,1.9,8.1,1.8l-0.3,0.1c2.6-2.1,4.8-4.7,6.7-7.6c1.8-2.8,3.2-6,4.1-9.2c0.9-3.3,1.2-6.7,0.7-10.1
			C78.6,71,77.3,67.8,75.4,64.9z M75.5,64.9c2,2.8,3.3,6.1,3.8,9.5c0.6,3.4,0.4,6.9-0.3,10.3c-0.7,3.4-2.1,6.6-3.9,9.6
			c-1.8,2.9-4.2,5.6-6.8,7.8l-0.1,0.1l-0.2,0c-3,0.1-5.9-0.6-8.6-2c-2.6-1.3-4.9-3.2-6.9-5.3c-4-4.3-6.9-9.4-9.3-14.6
			c-1.2-2.6-2.3-5.3-3.3-8l-0.7-2c-0.2-0.7-0.5-1.4-0.8-2c-0.6-1.3-1.4-2.5-2.1-3.7c-1.6-2.4-3.3-4.7-4.8-7.2
			c-0.7-1.2-1.4-2.5-1.9-3.9c-0.5-1.4-0.7-2.9-0.1-4.4l0.1-0.3l0.3,0.1c3.7,1.8,7.8,2.7,11.9,3.3c4.1,0.6,8.2,1,12.4,1.5
			c4.1,0.6,8.3,1.4,12.1,3.1c1.9,0.8,3.7,1.9,5.3,3.3C73,61.5,74.4,63.1,75.5,64.9z"/>
	</g>
	<path class="st0" d="M77.4,63.9C68,49,46.8,55.8,31.5,48.3c-2.2,5.7,7.3,14.1,9.4,20.2c6.1,17.5,11.3,22.1,27.9,33.6
		C79.7,93.1,85.4,75.6,77.4,63.9z"/>
	<g>
		<path class="st4" d="M39,21.9c-1.5,6.5,1.8,14.4,7.4,17.7c4.2,2.5,10,2.8,13.1-0.1c-0.1-3.9,0.4-7.4,1.6-10.4
			c-1.6-5.2-5.4-10.5-9.3-12.8C46.3,12.9,40.5,15.5,39,21.9z"/>
		<path d="M39,21.9c-0.7,2.8-0.3,5.7,0.7,8.4c1,2.7,2.5,5.1,4.4,7.1c2,2,4.5,3.3,7.3,3.8c1.4,0.3,2.8,0.3,4.2,0
			c1.4-0.3,2.7-0.9,3.7-1.8l-0.1,0.1c-0.1-3.5,0.2-7.2,1.4-10.6l0,0.3c-0.8-2.6-2.1-5-3.7-7.1c-1.6-2.2-3.4-4.2-5.7-5.5
			c-2.2-1.3-5.1-1.9-7.5-0.8c-1.2,0.5-2.3,1.4-3.1,2.5C39.9,19.3,39.4,20.6,39,21.9z M38.9,21.9c0.3-1.3,0.8-2.6,1.6-3.8
			c0.8-1.2,1.8-2.2,3.1-2.8c1.3-0.7,2.7-1,4.2-0.9c1.4,0.1,2.8,0.6,4.1,1.3c2.5,1.4,4.4,3.5,6.1,5.8c1.6,2.3,2.9,4.8,3.6,7.5l0,0.1
			l-0.1,0.1c-1.3,3.2-1.9,6.7-1.9,10.3l0,0.1l-0.1,0.1c-2.3,2-5.4,2.4-8.2,2c-2.9-0.4-5.7-1.6-7.8-3.7c-2.1-2-3.6-4.7-4.3-7.5
			C38.4,27.7,38.3,24.7,38.9,21.9z"/>
	</g>
	<path class="st0" d="M51.9,16.3c-1.3-0.8-2.6-1.2-3.9-1.4c0.8,1.6,1.2,3.1,0.5,3.9c-3,3.6-6.3,5.8-9.8,7.3
		c0.3,5.4,3.3,10.9,7.7,13.6c4.2,2.5,10,2.8,13.1-0.1c-0.1-3.9,0.4-7.4,1.6-10.4C59.6,23.9,55.7,18.6,51.9,16.3z"/>
	<g>
		<g>
			<path class="st4" d="M172.5,106.6c0,0,12.7,3.3,17.4,20.9c4.8,17.6,25.6,30.4,30.3,25.4c4.7-4.9-0.8-5.5-2.1-3.7
				c-1.4,1.8-19.1-4.1-24.4-23.4c-5.3-19.3-18.8-24.3-22.3-25.1C171.4,100.7,166,100.4,172.5,106.6z"/>
			<path d="M172.6,106.6c3,0.9,5.8,2.6,8.2,4.7c2.4,2.1,4.4,4.6,6,7.4c1.6,2.8,2.8,5.8,3.6,8.8c0.9,3,2.1,5.9,3.7,8.5
				c3.2,5.3,7.6,10.1,12.8,13.6c1.3,0.9,2.7,1.7,4.1,2.4c1.4,0.7,2.9,1.3,4.4,1.6c0.8,0.2,1.5,0.2,2.3,0.2c0.8-0.1,1.5-0.3,2.1-0.7
				c0.6-0.5,1.1-1.1,1.5-1.7c0.4-0.6,0.8-1.4,0.6-2c-0.2-0.6-1-0.8-1.8-0.8c-0.4,0-0.7,0.1-1,0.3c-0.2,0.1-0.3,0.2-0.4,0.3
				c-0.1,0.1-0.2,0.2-0.4,0.4c-0.5,0.3-0.9,0.3-1.3,0.3c-0.4,0-0.8-0.1-1.2-0.2c-0.8-0.2-1.6-0.4-2.3-0.7c-3-1.1-5.8-2.8-8.3-4.8
				c-5-4-8.8-9.4-11-15.5c-0.6-1.5-0.9-3.1-1.4-4.5c-0.5-1.5-1-3-1.6-4.4c-1.3-2.9-2.8-5.6-4.7-8.1c-1.9-2.5-4.1-4.7-6.6-6.6
				c-2.5-1.8-5.3-3.4-8.3-4.2l0,0c-0.6,0-1.4,0.1-1.8,0.6c-0.4,0.5-0.1,1.2,0.2,1.8C170.6,104.5,171.6,105.6,172.6,106.6z
				 M172.5,106.6c-1-1-2.1-2-2.9-3.2c-0.2-0.3-0.4-0.6-0.4-1c-0.1-0.4-0.1-0.8,0.2-1.2c0.2-0.4,0.6-0.5,1-0.6
				c0.4-0.1,0.7-0.2,1.1-0.2h0l0,0c6.2,1.7,11.6,5.7,15.6,10.7c2,2.5,3.6,5.3,4.9,8.2c0.6,1.5,1.2,3,1.7,4.5c0.5,1.5,0.9,3,1.4,4.5
				c2.1,5.9,5.7,11.2,10.5,15.2c2.4,2,5.1,3.7,8,4.8c0.7,0.3,1.5,0.5,2.2,0.7c0.4,0.1,0.8,0.1,1.1,0.2c0.4,0,0.8,0,1-0.1
				c0.1-0.1,0.2-0.3,0.4-0.4c0.2-0.1,0.4-0.2,0.6-0.3c0.4-0.2,0.8-0.3,1.2-0.3c0.4,0,0.9,0,1.3,0.2c0.4,0.2,0.8,0.5,0.9,0.9
				c0.3,0.9-0.2,1.7-0.6,2.4c-0.5,0.7-1,1.3-1.6,1.8c-0.7,0.5-1.5,0.7-2.3,0.8c-0.8,0.1-1.6,0-2.4-0.2c-3.1-0.7-6-2.2-8.6-4
				c-5.3-3.5-9.9-8.1-13.3-13.5c-1.7-2.7-3-5.7-3.9-8.8c-0.8-3-1.9-6-3.4-8.7c-1.5-2.7-3.4-5.3-5.7-7.4
				C178.2,109.5,175.5,107.7,172.5,106.6L172.5,106.6L172.5,106.6z"/>
		</g>
		<path class="st0" d="M180.2,106.5c-1.7-0.6-3.7-0.1-4.8,1.3c-1.7-0.9-2.9-1.2-2.9-1.2c-6.6-6.2-1.1-5.9-1.1-5.9
			c2.4-0.1,16.9,5.8,22.3,25.1c2.2,8.1,6.7,13.9,11.2,17.7C193.4,137.6,191.4,117,180.2,106.5z"/>
		<path d="M183.2,107.3c0.8,0.8,1.5,1.6,2.3,2.5c-1.7-0.2-3.3,0-4.9,0.2C180.4,107.9,181.3,107.6,183.2,107.3z"/>
		<path d="M189.4,124.5c0.9-0.1,2.5-0.3,3.8-0.4c0.2,0.6,0.4,1.1,0.5,1.7c0.1,0.4,0.2,0.7,0.3,1.1
			C192.6,125.4,190.6,125.5,189.4,124.5z"/>
		<path d="M196.7,135.7c-1.6-0.6-2.1,0.2-2.5,1.2c-0.4-0.7-0.8-1.4-1.2-2.1C194.1,134.4,195.6,134,196.7,135.7z"/>
		<path d="M211.8,152.6c-1.1-0.5-2.3-1.1-3.5-1.9c0.9-0.8,1.8-1.5,3-2.4C211.4,149.6,211.6,151.1,211.8,152.6z"/>
		<path d="M220.3,152.9c-0.3,0.3-0.7,0.6-1.2,0.7c-0.1-1.6-0.2-3.3-0.5-4.9C220.5,147.6,224.6,148.5,220.3,152.9z"/>
		<path d="M201.3,144.7c-0.2-1.4,0.1-2.8,0.5-4.2c1.3,1.4,2.6,2.6,3.9,3.6C204.2,143.7,202.6,143.1,201.3,144.7z"/>
		<path d="M186.5,115.7c0.5-0.3,1.1-0.5,1.9-0.6C187.7,115.4,187.1,115.6,186.5,115.7z"/>
		<path d="M186.5,115.7c-0.6,0.3-0.9,0.7-1.2,1.2c-0.2-0.4-0.5-0.7-0.7-1.1C185.2,115.8,185.9,115.8,186.5,115.7z"/>
		<path d="M175.2,104.6c1,1.6,1.4,2.6,1.6,3.9c-0.5-0.3-1-0.6-1.5-0.8C175.7,106.8,176,105.8,175.2,104.6z"/>
	</g>
	<g>
		<path class="st1" d="M103.8,78.3c-1.4,14.1-2.7,26.7-37.6,21.9c-31.6-4.4-33.4-13.8-24.7-28.3c7.4-12.3,10.7-24.7,30-22.8
			C90.8,51.2,105.3,64.2,103.8,78.3z"/>
		<g>
			<path d="M103.9,78.3c-0.4,3.9-0.7,7.9-2,11.7c-0.6,1.9-1.6,3.7-2.9,5.2c-1.3,1.5-2.9,2.8-4.7,3.7c-3.6,1.8-7.7,2.4-11.7,2.7
				c-4,0.2-8,0-11.9-0.5c-4-0.5-7.9-1.1-11.8-1.9c-3.9-0.8-7.8-1.8-11.5-3.3c-1.8-0.7-3.6-1.6-5.3-2.8c-1.6-1.1-3.1-2.5-4.1-4.3
				c-1-1.8-1.3-3.9-1.1-5.9c0.2-2,0.8-3.9,1.6-5.8c0.8-1.8,1.7-3.6,2.7-5.3c1-1.7,2-3.4,2.9-5.2c1.9-3.5,3.7-7,6.2-10.2
				c1.3-1.6,2.7-3,4.3-4.2c1.6-1.2,3.5-2.1,5.4-2.8c3.9-1.2,8-1.3,12-0.8c7.9,0.9,15.8,3.8,22,8.8c3.1,2.5,5.8,5.6,7.6,9.2
				C103.4,70.3,104.3,74.3,103.9,78.3z M103.8,78.3c0.4-3.9-0.5-8-2.4-11.4c-1.9-3.5-4.6-6.4-7.7-8.8c-6.3-4.8-13.9-7.5-21.7-8.3
				c-3.9-0.4-7.9-0.4-11.6,0.8c-3.7,1.1-6.9,3.6-9.3,6.6c-2.4,3.1-4.3,6.5-6.3,10c-1,1.7-2,3.5-3,5.1c-1,1.7-2,3.4-2.8,5.2
				c-0.8,1.8-1.4,3.7-1.6,5.6c-0.2,1.9,0.1,3.9,1,5.7c0.9,1.7,2.4,3.1,4,4.2c1.6,1.1,3.4,2,5.2,2.7c3.7,1.4,7.5,2.3,11.4,3.1
				c3.9,0.7,7.8,1.2,11.7,1.6c3.9,0.4,7.9,0.6,11.8,0.4c3.9-0.2,7.9-0.8,11.4-2.4c1.8-0.8,3.4-2,4.7-3.4c1.3-1.5,2.3-3.2,3-5
				C103,86.2,103.3,82.2,103.8,78.3z"/>
		</g>
	</g>
	<path class="st7" d="M76,49.9c0.1,0.3,0.1,0.6,0.2,1c-11.7-2.6-24.7,0-29.3,12L45,66.1l4.3-1.2l1.2,2.7l1.2-2.1l1.2,2.7l2-1.9
		l0.4,3.5l2.9-1.9c0,0-1.4,3.3-0.8,3.3c0.6,0,4.9-1.7,4.9-1.7l-0.6,2.7c0,0,3.2-2.5,3.6-2c0.4,0.5,0,4.7,0.8,3.9
		c0.8-0.7,2.4-4.9,2.7-3.8c0.3,1.1,1.4,4.8,1.4,4.8l1.6-2.3l0.5,3.4l0.4-1.9l0.3,3.9l2.4-3.4l0.7,2.8l0.3-0.2
		c-1.4,6.6-4.3,12.1-9.7,15.2c-8.7,4.7-19.6,2.4-28.4-3.6c3,5,11.4,8.7,27.9,11c34.8,4.8,36.1-7.8,37.6-21.9
		C105.2,65.3,93,53.3,76,49.9z"/>
	<path d="M47.4,63l1.2,2.7l1.2-2.1l1.2,2.7l2-1.9l0.4,3.5l2.9-1.9c0,0-1.4,3.3-0.8,3.3c0.6,0,4.9-1.7,4.9-1.7l-0.6,2.7
		c0,0,3.2-2.5,3.6-2c0.4,0.5,0,4.7,0.8,3.9c0.8-0.7,2.4-4.9,2.7-3.8c0.3,1.1,1.4,4.8,1.4,4.8l1.6-2.3l0.5,3.4l0.4-1.9l0.3,3.9
		l2.4-3.4l0.7,2.8l1.2-0.6l0.4,3.3l1.7-2.2l0.8,2.8l2-1.8l0.4,2.4l2.2-1.3c0,0,15,4.7,13-12c-2.1-16.7-42.1-28.5-51-5.3l-1.8,3.3
		L47.4,63z"/>
	<g>
		<path class="st4" d="M187.2,113.6c0,0-21.4-24.9-51.2-18.4c0,0-15,2.1-24.9-0.8c15.4-5.3,19.8-13.8,20.5-31.2
			c0.9-24.7-28.2-48.7-57.2-45c-21.4,2.7-38.6,15-44.8,31.1c15.3,7.6,35.6,1.1,44.9,16.1c8,11.6,4.2,27.4-6.6,36.4
			c1.8,0,3.8-0.2,5.9-0.4c-7.2,2.1-17.4,4-30.7,3.8c0,0-21.9,12.2,35.6,14.6c0,0,50.9,32.2,88.8,9.9c0,0,18.9-6.2,33.4,2.4
			C200.9,131.8,215.5,130,187.2,113.6z"/>
		<path d="M187.2,113.6c-3.2-3.5-6.9-6.5-10.8-9.2c-3.9-2.7-8.1-4.9-12.5-6.6c-4.4-1.7-9-2.8-13.7-3.2c-4.7-0.4-9.5-0.1-14.1,0.9
			l0,0l0,0c-4.2,0.5-8.3,0.8-12.5,0.8c-4.2-0.1-8.4-0.4-12.5-1.5l-1.1-0.3l1.1-0.4c3.5-1.2,6.9-2.7,9.9-4.9c3-2.2,5.4-5.1,6.9-8.4
			c1.6-3.3,2.3-7,2.8-10.7c0.2-1.8,0.4-3.7,0.5-5.5c0.1-1.9,0.1-3.7-0.1-5.5c-0.7-7.4-4-14.3-8.5-20.1c-4.6-5.8-10.4-10.7-16.9-14.2
			c-6.5-3.5-13.7-5.8-21.2-6.5c-3.7-0.3-7.4-0.2-11.1,0.3c-3.7,0.5-7.3,1.3-10.9,2.5c-7.1,2.3-13.8,5.7-19.5,10.5
			c-5.7,4.8-10.4,10.9-13,17.8L29.7,49c3.3,1.6,7,2.6,10.6,3.3c3.7,0.7,7.4,1,11.1,1.5c3.7,0.5,7.4,1,11,2.1c3.6,1.1,7,3,9.7,5.7
			c0.7,0.7,1.3,1.4,1.8,2.2c0.3,0.4,0.5,0.8,0.8,1.2c0.3,0.4,0.5,0.8,0.8,1.2c1,1.6,1.8,3.3,2.4,5.1c1.2,3.6,1.5,7.5,1,11.2
			C78,90.1,74,97.2,68.2,102l-0.3-0.8c1.9,0,3.9-0.2,5.8-0.4l0.2,0.9c-10,2.9-20.5,4-30.8,3.8l0.2-0.1c-0.8,0.5-1.6,1.1-2.3,1.8
			c-0.7,0.7-1.3,1.5-1.5,2.3c-0.2,0.9,0.1,1.7,0.8,2.4c0.6,0.7,1.5,1.2,2.4,1.7c1.8,0.9,3.7,1.5,5.7,2c2,0.5,4,0.9,6,1.2
			c4,0.7,8.1,1.1,12.2,1.5c4.1,0.3,8.2,0.6,12.3,0.7l0.1,0l0.1,0.1c6.6,4,13.7,7.3,20.9,10.1c7.3,2.8,14.7,5,22.4,6.3
			c7.6,1.3,15.5,1.8,23.2,0.8c7.7-0.9,15.2-3.3,21.9-7.2l0,0l0,0c2.8-0.8,5.6-1.4,8.5-1.7c2.9-0.3,5.7-0.5,8.6-0.4
			c5.7,0.2,11.5,1.6,16.5,4.6l-0.1,0c1.1-0.2,2.3-0.6,3.1-1.4c0.4-0.4,0.6-1,0.5-1.5c0-0.6-0.2-1.1-0.5-1.7c-1.1-2.1-3-3.7-4.8-5.3
			C195.5,118.7,191.4,116.1,187.2,113.6L187.2,113.6L187.2,113.6z M187.3,113.5c4.2,2.4,8.3,4.9,12.1,8c1.9,1.5,3.7,3.2,4.9,5.3
			c0.3,0.5,0.5,1.2,0.5,1.8c0,0.6-0.2,1.3-0.6,1.8c-0.9,1-2.1,1.4-3.3,1.6l-0.1,0l-0.1,0c-4.9-2.9-10.6-4.2-16.3-4.4
			c-2.8-0.1-5.7,0-8.5,0.4c-2.8,0.4-5.6,0.9-8.3,1.7l0.1,0c-6.7,4-14.4,6.5-22.1,7.5c-7.8,1-15.7,0.6-23.4-0.7
			c-7.7-1.3-15.3-3.5-22.6-6.3c-7.3-2.8-14.4-6.2-21.1-10.2l0.2,0.1c-4.1-0.2-8.2-0.4-12.3-0.8c-4.1-0.3-8.2-0.8-12.2-1.5
			c-2-0.3-4.1-0.7-6.1-1.3c-2-0.5-4-1.1-5.9-2.1c-0.9-0.5-1.9-1.1-2.6-1.9c-0.4-0.4-0.7-0.9-0.9-1.5c-0.2-0.6-0.2-1.2-0.1-1.8
			c0.3-1.2,1-2.1,1.7-2.8c0.8-0.8,1.6-1.4,2.5-1.9l0.1-0.1l0.1,0c10.3,0.2,20.7-0.9,30.6-3.7l0.2,0.9c-2,0.2-3.9,0.4-6,0.4l-1.2,0
			l0.9-0.8c5.7-4.7,9.6-11.5,10.6-18.8c0.5-3.7,0.2-7.4-1-10.9c-0.6-1.8-1.3-3.4-2.3-5c-0.2-0.4-0.5-0.8-0.8-1.2
			c-0.2-0.4-0.5-0.8-0.8-1.1c-0.5-0.7-1.1-1.5-1.8-2.1c-2.5-2.7-5.9-4.5-9.4-5.6c-3.5-1.1-7.2-1.7-10.9-2.2
			c-3.7-0.5-7.4-0.9-11.1-1.6c-3.7-0.7-7.3-1.7-10.7-3.4l-0.2-0.1l0.1-0.2c2.7-7,7.5-13.1,13.2-17.9c5.7-4.8,12.5-8.4,19.6-10.7
			c3.6-1.2,7.2-2,10.9-2.5c3.7-0.6,7.5-0.7,11.2-0.4c7.5,0.6,14.8,2.9,21.4,6.4c6.6,3.6,12.6,8.4,17.2,14.3c4.6,5.9,8,13,8.8,20.5
			c0.2,1.9,0.2,3.8,0.1,5.7c-0.1,1.9-0.2,3.7-0.5,5.6c-0.5,3.7-1.3,7.5-2.9,10.9c-1.6,3.4-4.1,6.5-7.2,8.7c-3.1,2.2-6.6,3.8-10.1,5
			l0-0.7c4,1.1,8.1,1.5,12.3,1.5c4.2,0,8.3-0.2,12.4-0.7l0,0c4.7-1,9.5-1.3,14.2-0.9c4.8,0.4,9.4,1.6,13.9,3.3
			c4.4,1.8,8.6,4.1,12.5,6.8C180.4,106.9,184.1,110,187.3,113.5z"/>
	</g>
	<path class="st0" d="M92.7,36c2.9,14.4,16.3,21.2,30.8,13.5c10.6,17.3-7.7,37.5-24,43.3c6.7,8.7,21.2,8.7,31.7,4.8
		c8.9-2.6,17.7-2.9,26.4-2c-6.5-1.6-13.8-2.1-21.7-0.4c0,0-15,2.1-24.9-0.8c15.4-5.3,19.8-13.8,20.5-31.2
		c0.6-16.4-11.9-32.4-28.9-40.3C98.7,27.9,92,30.8,92.7,36z"/>
	<path class="st0" d="M84.1,99.5c-1.9,0-4.8-1-4.8-1c1.6-10.6,6-25.9-3.7-31.6c6.6,11.4,2.6,26.2-7.7,34.7c1.8,0,3.8-0.2,5.9-0.4
		c-7.2,2.1-17.4,4-30.7,3.8c0,0-1.3,0.7-2.5,1.9C55.5,104.3,71.9,109.4,84.1,99.5z"/>
	<path class="st0" d="M178.3,121.6c-31.7,6.7-63.5,1-94.2-4.8c-12.3-1.6-30.2,0.2-44.2-4.6c2.7,3.1,12.4,6.3,38.8,7.4
		c0,0,50.9,32.2,88.8,9.9c0,0,18.9-6.2,33.4,2.4c0,0,9.3-1.2-1.3-9.9C192.4,121.2,185.2,120.4,178.3,121.6z"/>
	<path d="M75.4,66.6c1.8,3,2.9,6.3,3.3,9.6c10.7-1.7,20.3-7.2,30.5-9.4C97.9,67.7,86.6,68.5,75.4,66.6z"/>
	<path d="M100.4,78.4c8.3,3,17.8,4.5,27.2,3.6c1.8-3.3,2.8-7.3,3.4-12C123.2,77.2,111.8,80.4,100.4,78.4z"/>
	<path d="M106.2,86.1c-9.8,3.3-19.6,4.5-29.5,3.5c-1.1,2.7-2.6,5.3-4.5,7.7C85,97.8,97.5,96.5,106.2,86.1z"/>
	<path d="M101.4,113.9c11.1,0,21.4-7.6,25.6-18c-3,0.1-6.5,0.1-9.8-0.3C113.8,102.9,108,109.8,101.4,113.9z"/>
	<path class="st9" d="M172.9,128.2c-0.6,0-1.2,0-1.8,0c0,0.1-0.1,0.3-0.1,0.4C171.5,128.5,172.2,128.3,172.9,128.2z"/>
	<g>
		<path class="st5" d="M168.7,128.4c-27.9,1-53.8,1-80.8-9.6c-2.8-0.9-6.5-0.9-10.3,0.8c0.4,0,0.7,0,1.1,0c0,0,50.9,32.2,88.8,9.9
			c0,0,1.3-0.4,3.4-0.9c0-0.1,0.1-0.3,0.1-0.4C170.3,128.2,169.5,128.3,168.7,128.4z"/>
		<path d="M168.7,128.4c-3.9,0.2-7.7,0.3-11.6,0.4c-3.9,0.1-7.7,0.2-11.6,0.2c-7.7,0-15.5-0.3-23.1-1.3c-7.7-1-15.3-2.6-22.7-4.8
			c-3.7-1.1-7.4-2.3-11-3.7c-3.5-1.5-7.7-1.2-11.1,0.5l-0.1-0.4l1.1,0l0.1,0l0.1,0c6.7,3.9,13.8,7.2,21.1,9.9
			c7.3,2.8,14.8,4.9,22.4,6.2c7.6,1.3,15.4,1.7,23.1,0.9c7.7-0.8,15.3-3.1,22-7l0,0l0,0c1.1-0.3,2.3-0.6,3.4-0.9l0,0l0.1-0.4
			l0.1,0.1C170.3,128.3,169.5,128.3,168.7,128.4z M168.7,128.3c0.8-0.1,1.6-0.1,2.4-0.2l0.1,0l0,0.1l-0.1,0.4l0,0l0,0
			c-1.1,0.3-2.3,0.5-3.4,0.9l0,0c-6.7,4-14.2,6.6-22,7.7c-7.8,1.1-15.7,0.7-23.4-0.6c-7.7-1.3-15.3-3.6-22.5-6.4
			c-7.3-2.9-14.3-6.3-21-10.4l0.1,0l-1.1-0.1l-0.9-0.1l0.8-0.4c3.5-1.6,7.8-2,11.4-0.4c3.6,1.4,7.3,2.6,11,3.6
			c7.4,2.1,15,3.4,22.7,4.3c7.6,0.9,15.3,1.3,23,1.5c3.9,0.1,7.7,0.1,11.6,0.1C161,128.5,164.8,128.4,168.7,128.3z"/>
	</g>
	<path class="st8" d="M168.7,128.4c-27.9,1-53.8,1-80.8-9.6c-2.8-0.9-6.5-0.9-10.3,0.8c0.4,0,0.7,0,1.1,0c0,0,50.9,32.2,88.8,9.9
		c0,0,1.3-0.4,3.4-0.9c0-0.1,0.1-0.3,0.1-0.4C170.3,128.2,169.5,128.3,168.7,128.4z"/>
	<path d="M128.3,113.9c4.9-4.9,7-11.9,7-18.7c-1,0.1-3,0.3-5.4,0.5C130.7,101.9,131.5,107.6,128.3,113.9z"/>
	<path d="M145.3,94.1c-1.4,0-2.8,0.1-4.3,0.3c0.7,3.1,0.7,6.5,0.7,9.9C143.8,100.9,144.9,97.5,145.3,94.1z"/>
	<path d="M150.4,122.6c5.8-7.3,9.5-18.5,6.2-27.2c-2.6-0.6-5.3-1-8.2-1.2C151.2,103.7,153.9,113.1,150.4,122.6z"/>
	<path d="M171.1,128.2c0.6,0,1.2,0,1.8,0c2.5-0.5,5.8-0.9,9.3-0.9c-1.9-7.7-5.6-15.1-9.7-22.1C176.2,113.3,173.7,120.8,171.1,128.2z
		"/>
	<path d="M182.7,109.2c1,3.4,1.3,6.9,1.3,10.5c0.5-2.4,1.4-4.7,2.1-7.2C185.5,111.7,184.3,110.6,182.7,109.2z"/>
	<path d="M188.7,127.8c1.6,0.2,3.3,0.6,4.9,1c-0.6-3.3-1.8-6.7-2.7-10C190.8,121.8,190,124.9,188.7,127.8z"/>
	<path d="M168,99.4c-1-0.5-2.1-1-3.2-1.4c1,3.5,1,7.1,1,11.2C167.8,105.9,168.4,102.6,168,99.4z"/>
	<path d="M91.8,53.4c12.9,3,25.8,2.5,37.7-2.6c-1.1-3.1-2.7-6.2-4.6-9C118.2,52.5,103.4,53.4,91.8,53.4z"/>
	<path class="st9" d="M50.9,26c0.2-0.2,0.4-0.4,0.6-0.6c-0.3,0.2-0.7,0.4-1,0.6C50.7,26,50.8,26,50.9,26z"/>
	<path d="M87.5,18.3c-3.5-0.5-7.1-0.7-10.7-0.4c-0.8,0.1-1.6,0.1-2.4,0.2c-1.8,0.2-3.6,0.6-5.4,0.9c-2.7,0.6-5.3,1.3-7.8,2.1
		c-1.7,0.6-3.4,1.2-5.1,2c-1.6,0.7-3.1,1.4-4.6,2.2c-0.2,0.2-0.4,0.4-0.6,0.6c-0.1,0-0.2-0.1-0.3-0.1c-1.7,1-3.4,2-4.9,3.2
		c1-0.1,2-0.2,3-0.1c-1.3,2.1-2.1,4.5-2.1,7.1c2.6-2.2,5.3-4.2,8.1-6c3,1,5.9,2.7,8.2,5.1c-1.7-2.6-3.8-4.7-6.2-6.4
		c1.9-1.2,3.8-2.3,5.8-3.3c2.8,1.3,5.5,3,8.1,4.8c-1.3-2.6-3-4.6-5.1-6.3c2.7-1.2,5.5-2.3,8.3-3.2c2.4,1.1,4.8,2.3,7.4,2.7
		c-0.8-1.5-1.7-2.8-2.7-4C81.5,18.9,84.5,18.5,87.5,18.3z"/>
	<g>
		<path class="st4" d="M118,24.6c-4.6-6.7-13-8.9-18.9-4.9c-4.4,3-7.7,9.6-7.1,15.5c3.3,2.8,5.9,6.1,7.8,9.8
			c5.2,2.1,11.8,1.6,15.8-1.1C121.6,40,122.6,31.3,118,24.6z"/>
		<path d="M118,24.6c-1.8-2.7-4.6-4.8-7.7-5.8c-3.1-1-6.4-1-9.3,0.4c-2.9,1.3-5.2,3.8-6.7,6.6c-1.6,2.8-2.4,6.2-2,9.4l-0.1-0.1
			c1.6,1.4,3.2,2.8,4.5,4.5c1.4,1.6,2.6,3.4,3.6,5.3l-0.2-0.2c2.9,1.1,6.1,1.5,9.1,1c3-0.4,6.1-1.5,8.1-3.8c2.1-2.2,3.2-5.3,3.3-8.4
			c0-1.6-0.2-3.1-0.6-4.6C119.6,27.4,118.9,26,118,24.6z M118.1,24.6c0.9,1.3,1.7,2.7,2.2,4.2c0.5,1.5,0.9,3.1,0.9,4.7
			c0.2,3.2-0.9,6.6-3.1,9.1c-1.1,1.2-2.5,2.2-4,2.9c-1.5,0.7-3.1,1.1-4.7,1.3c-3.2,0.4-6.6,0-9.6-1.3l-0.1-0.1l-0.1-0.1
			c-1.8-3.7-4.4-7.2-7.6-9.9l-0.1,0l0-0.1c-0.3-3.3,0.5-6.7,1.9-9.6c0.7-1.5,1.7-2.9,2.8-4.2c1.1-1.3,2.5-2.3,4-3.1
			c3.1-1.5,6.8-1.3,9.9-0.1C113.6,19.6,116.2,21.9,118.1,24.6z"/>
	</g>
	<path class="st0" d="M118,24.6c-0.9-1.3-2-2.4-3.1-3.4c2.3,6.1,2,14.4-1.6,17.2c-3.8,4.3-8.1,6.3-12.8,6.9
		c5.1,1.9,11.4,1.4,15.3-1.3C121.6,40,122.6,31.3,118,24.6z"/>
	<g>
		<path class="st5" d="M105.6,29.4c-2.1-3.6-6.1-4.8-8.8-2.6c-2.1,1.6-3.6,5.1-3.3,8.3c1.5,1.5,2.8,3.3,3.6,5.3
			c2.4,1.1,5.5,0.9,7.3-0.6C107.3,37.6,107.7,32.9,105.6,29.4z"/>
		<g>
			<path d="M105.6,29.4c-0.8-1.4-2.1-2.5-3.6-3c-1.5-0.5-3.1-0.3-4.4,0.4c-1.3,0.8-2.3,2.1-3,3.6c-0.7,1.4-1,3.1-0.8,4.7l-0.1-0.1
				c0.4,0.4,0.8,0.8,1.1,1.2c0.4,0.4,0.7,0.8,1,1.3c0.3,0.4,0.6,0.9,0.9,1.4c0.3,0.5,0.5,1,0.8,1.5L97.4,40c1.4,0.6,2.9,0.8,4.4,0.4
				c1.5-0.3,2.8-1.1,3.6-2.3c0.8-1.2,1.3-2.7,1.3-4.3C106.7,32.3,106.4,30.7,105.6,29.4z M105.7,29.3c0.8,1.4,1.4,2.9,1.5,4.5
				c0.2,1.6-0.1,3.4-1,4.8c-0.9,1.5-2.6,2.5-4.2,2.7c-1.7,0.3-3.4,0.1-4.9-0.7l-0.1-0.1l-0.1-0.1c-0.2-0.5-0.4-1-0.7-1.4
				c-0.2-0.5-0.5-0.9-0.8-1.4c-0.3-0.4-0.6-0.9-0.9-1.3c-0.3-0.4-0.7-0.8-1-1.2l0,0l0-0.1c-0.1-1.7,0.2-3.3,0.7-4.9
				c0.6-1.6,1.4-3.1,3-4.1c0.7-0.5,1.6-0.8,2.5-0.8c0.9,0,1.8,0.2,2.5,0.6C103.7,26.6,104.8,27.9,105.7,29.3z"/>
		</g>
	</g>
	<g>
		<path class="st5" d="M86.2,62.4C74.9,44.8,52.7,43.7,33.6,43.5c-0.2,0.1-0.3,0.3-0.4,0.3c-1.8,0.4-3.8,1.4-4.9,4.9
			c-0.9,3,0.8,5.9,3,6.3c1.3,0.2,2.5-0.4,3.5-1.6c2,3.4,7.1,6.1,13.3,6.5c4,0.3,7.6-0.5,10.3-1.8c6.3,1.5,12.2,3.3,16.2,7.3
			c2.6,2.6,4.1,8,4.3,13.4C86.1,75.4,88.9,66.7,86.2,62.4z"/>
		<g>
			<path d="M86.1,62.4c-1.3-2-2.9-3.9-4.6-5.7c-1.7-1.7-3.7-3.2-5.7-4.5c-4.1-2.6-8.7-4.3-13.4-5.5c-4.7-1.2-9.5-1.9-14.3-2.4
				c-4.8-0.4-9.7-0.7-14.6-0.7l0.1,0c-0.2,0.1-0.3,0.3-0.6,0.4c-0.2,0-0.4,0.1-0.6,0.2c-0.4,0.1-0.8,0.3-1.1,0.5
				c-0.7,0.4-1.3,0.9-1.8,1.6c-0.5,0.6-0.8,1.4-1.1,2.1c-0.3,0.8-0.4,1.5-0.4,2.3c0.1,1.6,0.9,3.2,2.3,3.9c0.7,0.3,1.5,0.4,2.2,0.1
				c0.7-0.3,1.3-0.8,1.8-1.4l0.2-0.3l0.2,0.3c1.1,1.8,2.9,3.1,4.7,4.1c1.9,0.9,4,1.5,6.1,1.9c2.1,0.3,4.2,0.4,6.3,0.1
				c2.1-0.2,4.2-0.8,6-1.7l0.2-0.1l0.2,0c2.6,0.6,5.3,1.3,7.8,2.3c2.6,1,5.1,2.2,7.2,3.9c0.5,0.4,1.1,0.9,1.5,1.4
				c0.5,0.5,0.9,1.1,1.3,1.7c0.7,1.2,1.3,2.5,1.7,3.8c0.8,2.6,1.2,5.4,1.2,8.1l-0.5-0.3c3-1.3,5.5-3.6,7-6.5c0.8-1.4,1.3-3,1.4-4.7
				C87.2,65.5,87,63.8,86.1,62.4z M86.2,62.4c0.9,1.4,1.2,3.2,1,4.8c-0.1,1.7-0.6,3.3-1.3,4.8c-1.4,3-3.9,5.6-6.9,7.1l-0.5,0.2
				l0-0.5c-0.2-2.7-0.6-5.3-1.4-7.8c-0.4-1.3-0.9-2.5-1.6-3.6c-0.7-1.1-1.6-2-2.6-2.8c-2-1.6-4.5-2.8-6.9-3.7
				c-2.5-0.9-5.1-1.6-7.7-2.3l0.3,0c-2,1-4.2,1.5-6.4,1.8c-2.2,0.2-4.4,0.1-6.6-0.2c-2.2-0.4-4.3-1-6.2-2.1c-1.9-1-3.8-2.4-4.9-4.4
				l0.4,0c-0.5,0.7-1.2,1.2-2.1,1.5c-0.8,0.3-1.8,0.2-2.6-0.2c-1.6-0.8-2.4-2.5-2.5-4.2c0-0.8,0.1-1.7,0.4-2.5
				c0.3-0.8,0.7-1.5,1.2-2.2c0.5-0.7,1.1-1.3,1.9-1.7c0.4-0.2,0.8-0.4,1.2-0.5c0.2-0.1,0.4-0.1,0.6-0.2c0.2,0,0.3-0.1,0.4-0.3l0.1,0
				l0.1,0c4.9,0,9.8,0,14.6,0.3c2.4,0.2,4.9,0.4,7.3,0.8c2.4,0.4,4.8,0.8,7.2,1.5c4.7,1.3,9.3,3.2,13.4,6
				C80.1,54.7,83.6,58.2,86.2,62.4z"/>
		</g>
	</g>
	<path class="st8" d="M57.2,55.3c-6.7,1-16.3,1-20.2-4.8c-2.3,2.3-5.2,3.4-8.2,2.8c0.6,0.9,1.5,1.6,2.4,1.7c1.3,0.2,2.5-0.4,3.5-1.6
		c2,3.4,7.1,6.1,13.3,6.5c4,0.3,7.6-0.5,10.3-1.8c6.3,1.5,12.2,3.3,16.2,7.3c2.6,2.6,4.1,8,4.3,13.4c0.5-0.2,1.1-0.5,1.5-0.8
		C79.2,64.9,72.8,52.3,57.2,55.3z"/>
	<path d="M41.2,43.8c-0.6,2.5-4.3,6.4-7.5,5.6c-3.2-0.8-4.8-3.4-4.2-5.8c0.6-2.5,2.4-4.3,5.6-3.5C38.3,40.7,41.8,41.3,41.2,43.8z"/>
	<g>
		<path d="M66.3,43.1c-1.2,2.2-2.6,3.8-4.9,2.6c-2.2-1.2-3.1-3.9-1.9-6.2c1.2-2.2,3.9-3.1,6.2-1.9C67.9,38.8,67.5,40.9,66.3,43.1z"
			/>
		<ellipse class="st6" cx="61.1" cy="40.7" rx="0.5" ry="0.9"/>
	</g>
	<g>
		<path d="M38.1,37.6c-1.4,1.3-2.6,2-2.8,0.7c-0.2-1.3,0.8-3.3,2.2-4.6c1.4-1.3,2.7-1.3,2.9,0C40.6,35,39.5,36.4,38.1,37.6z"/>
		<ellipse transform="matrix(0.8335 0.5526 -0.5526 0.8335 25.5138 -14.9085)" class="st6" cx="37.5" cy="34.9" rx="0.2" ry="0.7"/>
	</g>
	<ellipse class="st3" cx="65" cy="49.7" rx="8.5" ry="2.5"/>
	<ellipse class="st6" cx="69.6" cy="47.9" rx="2.6" ry="1.7"/>
	<g>
		<line class="st6" x1="56.4" y1="50" x2="65" y2="48.1"/>
		<path d="M56.4,50c1.4-0.7,2.8-1.1,4.2-1.4c1.5-0.3,2.9-0.5,4.4-0.4c-1.4,0.7-2.8,1.1-4.2,1.4C59.3,49.8,57.9,50.1,56.4,50z"/>
	</g>
	<g>
		<line class="st6" x1="56.4" y1="52.3" x2="68.9" y2="53.1"/>
		<path d="M56.4,52.3c2.1-0.3,4.2-0.2,6.3-0.1c2.1,0.2,4.2,0.4,6.2,0.9c-2.1,0.3-4.2,0.2-6.3,0.1C60.5,53.1,58.4,52.8,56.4,52.3z"/>
	</g>
	<g>
		<line class="st6" x1="54.8" y1="53.9" x2="65" y2="58.4"/>
		<path d="M54.8,53.9c1.9,0.4,3.6,1,5.3,1.8c1.7,0.8,3.4,1.6,4.9,2.7c-1.9-0.4-3.6-1-5.3-1.8C58,55.8,56.4,55,54.8,53.9z"/>
	</g>
	<ellipse transform="matrix(0.9822 0.1877 -0.1877 0.9822 15.941 -9.3912)" cx="57.6" cy="79.5" rx="3.4" ry="2.9"/>
	<path d="M63.1,77c-0.2,0.4-2.2,0-4.5-1.1c-2.2-1.1-3.9-2.3-3.7-2.7c0.2-0.4,2.2,0,4.5,1.1C61.6,75.4,63.3,76.6,63.1,77z"/>
	<ellipse transform="matrix(0.9823 0.1875 -0.1875 0.9823 15.7423 -9.117)" class="st6" cx="56.1" cy="78.7" rx="0.7" ry="0.5"/>
	<g>
		<path d="M38.6,87.6c-0.2-0.5-0.4-1-0.4-1.5c0-0.5,0-1.2,0.6-1.5c0.6-0.3,1.3-0.1,1.7,0.3c0.5,0.3,0.8,0.8,1.1,1.3
			c0.2,0.5,0.4,1.1,0.4,1.7c0,0.6-0.2,1.3-0.9,1.5c-0.6,0.2-1.2-0.1-1.6-0.5C39.1,88.5,38.8,88,38.6,87.6z M38.6,87.6
			c0.2,0.5,0.6,0.9,1,1.2c0.4,0.3,1,0.4,1.3,0.2c0.4-0.2,0.4-0.7,0.4-1.2c0-0.5-0.2-0.9-0.4-1.3c-0.2-0.4-0.5-0.8-0.8-1.1
			c-0.3-0.3-0.8-0.6-1.2-0.4c-0.4,0.1-0.6,0.7-0.6,1.2C38.2,86.6,38.4,87.1,38.6,87.6z"/>
	</g>
	<ellipse transform="matrix(0.9822 0.1877 -0.1877 0.9822 17.2253 -9.698)" class="st3" cx="59.8" cy="86.1" rx="7.8" ry="2.3"/>
	<ellipse transform="matrix(0.9822 0.1877 -0.1877 0.9822 17.1595 -10.5454)" class="st6" cx="64.3" cy="85.3" rx="2.4" ry="1.6"/>
</g>
<g>
	<g>
		
			<radialGradient id="SVGID_1_" cx="164.1328" cy="205.8687" r="99.5678" gradientTransform="matrix(2.575285e-002 1.4686 -0.6056 3.372602e-002 239.1947 -123.9043)" gradientUnits="userSpaceOnUse">
			<stop  offset="0" style="stop-color:#2EA3D4"/>
			<stop  offset="0.2056" style="stop-color:#31A7D6;stop-opacity:0.7944"/>
			<stop  offset="0.4156" style="stop-color:#3AB3DC;stop-opacity:0.5844"/>
			<stop  offset="0.6276" style="stop-color:#4AC8E5;stop-opacity:0.3724"/>
			<stop  offset="0.8396" style="stop-color:#5FE4F2;stop-opacity:0.1604"/>
			<stop  offset="1" style="stop-color:#73FFFF;stop-opacity:0"/>
		</radialGradient>
		<path class="st10" d="M228.9,111.3v95.3L11.2,216.9l1.4-108.3c0,0,6.5-9.5,34.9,2.7c28.4,12.2,25.9-21.5,74.9-6.2
			c48.9,15.3,30.4-12.1,62.3-4c31.9,8,44.1,7.6,44.1,7.6"/>
	</g>
	<g>
		<g>
			<path class="st2" d="M12.7,108.6c0.7-0.9,1.8-1.6,2.8-2.1c1.1-0.5,2.2-0.9,3.4-1.1c2.3-0.5,4.7-0.5,7-0.4
				c4.7,0.3,9.3,1.5,13.8,2.9c2.2,0.7,4.4,1.6,6.6,2.5c2.2,0.9,4.3,1.8,6.6,2.4c2.2,0.6,4.6,0.9,6.9,0.8c2.3-0.1,4.6-0.6,6.8-1.4
				c4.3-1.7,8.2-4.4,12.4-6.5c4.2-2.2,8.7-3.9,13.4-4.6c4.7-0.8,9.5-0.7,14.2-0.1c4.7,0.6,9.3,1.6,13.9,2.9c4.5,1.4,9,2.8,13.5,3.8
				c4.6,1,9.2,1.8,13.8,1.6c2.3-0.1,4.6-0.4,6.8-1.1c2.2-0.7,4.2-1.9,6-3.4c1.9-1.4,3.7-3,5.9-4c2.2-1.1,4.6-1.6,7-1.7
				c4.8-0.2,9.4,1,14,2.2c4.6,1.1,9.1,2.2,13.7,3.2c4.6,1,9.2,1.9,13.8,2.6c4.6,0.7,9.3,1.4,14,1.4c-4.7,0-9.4-0.6-14-1.2
				c-4.7-0.7-9.3-1.5-13.9-2.4c-4.6-0.9-9.2-2-13.8-3.1c-4.5-1.1-9.1-2.2-13.8-2c-2.3,0.1-4.6,0.6-6.6,1.6c-2.1,1-3.8,2.5-5.7,4
				c-1.9,1.4-4,2.7-6.2,3.5c-2.3,0.8-4.7,1.1-7.1,1.2c-4.8,0.1-9.5-0.6-14.1-1.6c-4.6-1-9.1-2.4-13.6-3.7c-4.5-1.3-9.1-2.4-13.7-2.9
				c-4.6-0.6-9.3-0.6-13.9,0.1c-4.6,0.7-9,2.3-13.1,4.5c-4.1,2.1-8.1,4.8-12.5,6.5c-2.2,0.8-4.6,1.3-7,1.4c-2.4,0.1-4.8-0.3-7.1-0.9
				c-2.3-0.6-4.5-1.5-6.6-2.5c-2.2-0.9-4.3-1.8-6.6-2.5c-4.4-1.5-9-2.7-13.7-3.2c-2.3-0.2-4.7-0.2-7,0.3c-1.1,0.2-2.3,0.5-3.3,1
				C14.4,107.1,13.4,107.7,12.7,108.6z"/>
		</g>
	</g>
</g>
</svg>
