<?xml version="1.0" encoding="utf-8"?>
<!-- Generator: Adobe Illustrator 15.1.0, SVG Export Plug-In . SVG Version: 6.00 Build 0)  -->
<!DOCTYPE svg PUBLIC "-//W3C//DTD SVG 1.1//EN" "http://www.w3.org/Graphics/SVG/1.1/DTD/svg11.dtd">
<svg version="1.1" id="balloon" xmlns="http://www.w3.org/2000/svg" xmlns:xlink="http://www.w3.org/1999/xlink" x="0px" y="0px"
	 width="252px" height="348.5px" viewBox="0 0 252 348.5" style="enable-background:new 0 0 252 348.5;" xml:space="preserve">
<style type="text/css">
<![CDATA[
	.st0{opacity:0.23;fill:#662396;}
	.st1{fill:#80FFF0;}
	.st2{fill:#C5A1FF;}
	.st3{opacity:0.23;fill:#10827C;}
]]>
</style>
<g>
	<g>
		<path d="M170.1,190.6c1,1.2,1.5,2.6,1.9,4c0.4,1.4,0.8,2.9,1,4.3c0.5,2.9,0.7,5.8,0.8,8.8c0.1,5.9-0.2,11.7-0.9,17.5
			c-1.5,11.6-4.3,23-5.5,34.5c-0.6,5.8-1,11.6-1.2,17.4c-0.2,5.8-0.1,11.6,0.3,17.4c0.3,5.8,1,11.5,2,17.2c0.5,2.8,1.1,5.7,1.9,8.5
			c0.8,2.8,1.6,5.6,2.7,8.2l-0.2,0.1c-2.8-5.1-4.6-10.8-6-16.5c-1.4-5.7-2.2-11.5-2.6-17.4c-0.4-5.9-0.4-11.7-0.1-17.6
			c0.3-5.8,1-11.7,2-17.4c0.9-5.8,2.3-11.5,3.1-17.2c0.9-5.8,1.4-11.6,1.9-17.3c0.5-5.8,0.9-11.6,1-17.3c0-2.9,0-5.8-0.3-8.7
			c-0.1-1.4-0.3-2.9-0.6-4.3c-0.1-0.7-0.3-1.4-0.5-2.1c-0.2-0.7-0.5-1.4-0.9-1.9L170.1,190.6z"/>
	</g>
	<g>
		<g>
			<path class="st1" d="M166.5,185.5c0,0-6.7,7.7,0,6.8c6.7-0.9,14.7,1.8,8.2-7.6C170.5,178.5,168.5,182.8,166.5,185.5z"/>
			<path d="M166.6,185.5c-1,1.2-1.8,2.7-2.1,4.2c-0.1,0.4-0.1,0.7-0.1,1c0,0.3,0.1,0.4,0.2,0.5c0.1,0,0.3,0.2,0.5,0.2
				c0.3,0,0.6,0.1,1,0.1c0.3,0,0.8,0,1.2,0c0.4,0,0.8,0,1.3,0.1c0.8,0.1,1.6,0.1,2.5,0.2c0.8,0,1.6,0,2.4-0.1
				c0.8-0.1,1.6-0.2,2.2-0.5c0.3-0.2,0.6-0.4,0.7-0.6c0.1-0.2,0.1-0.4,0.1-0.7c-0.1-0.6-0.4-1.3-0.7-1.9c-0.4-0.7-0.8-1.3-1.2-1.9
				l-0.7-1c-0.2-0.3-0.5-0.6-0.7-0.9c-0.4-0.6-1-1.1-1.5-1.4c-0.5-0.3-0.9-0.5-1.5-0.3c-0.6,0.2-1.3,0.7-1.8,1.3
				C167.6,184.2,167.1,184.9,166.6,185.5L166.6,185.5L166.6,185.5z M166.4,185.4c0.5-0.7,0.9-1.4,1.3-2.1c0.4-0.7,0.8-1.5,1.6-2.1
				c0.4-0.3,0.9-0.5,1.5-0.6c0.6,0,1.1,0.1,1.6,0.3c0.9,0.4,1.6,1.1,2.2,1.7c0.6,0.7,1.1,1.4,1.5,2.1c0.4,0.7,0.8,1.5,1.2,2.3
				c0.3,0.8,0.7,1.6,0.7,2.7c0,0.5-0.2,1.2-0.6,1.6c-0.4,0.4-0.9,0.6-1.4,0.7c-0.9,0.2-1.7,0.2-2.6,0.2c-0.8,0-1.6,0-2.4,0
				c-1.6,0.1-3.2,0.4-4.8,0.8c-0.4,0.1-0.9,0.1-1.4,0c-0.5-0.1-1.1-0.2-1.6-0.8c-0.5-0.6-0.5-1.3-0.4-1.8c0.1-0.5,0.3-0.9,0.5-1.3
				C164.2,187.8,165.4,186.7,166.4,185.4z"/>
		</g>
		<g>
			<path class="st1" d="M248.1,97c0,49.3-71.7,89.4-78.1,89.2C158.9,185.9,92,146.3,92,97c0-49.3,35-89.2,78.1-89.2
				S248.1,47.8,248.1,97z"/>
			<path d="M248.2,97c0,5.4-0.8,10.7-2.3,15.8c-1.5,5.1-3.7,10.1-6.3,14.8c-5.2,9.4-12,17.8-19.5,25.4c-7.5,7.6-15.9,14.4-24.7,20.6
				c-4.4,3.1-9,5.9-13.7,8.5c-2.4,1.3-4.8,2.5-7.3,3.6c-1.3,0.5-2.5,1.1-4,1.3c-0.9,0.1-1.6-0.1-2.3-0.2c-0.7-0.2-1.4-0.4-2-0.6
				c-2.6-0.9-5-2-7.4-3.2c-2.4-1.2-4.7-2.5-7-3.9c-4.6-2.8-9-5.8-13.3-9c-4.3-3.2-8.4-6.6-12.4-10.2c-4-3.6-7.8-7.4-11.3-11.4
				c-7.1-8-13.4-16.9-17.7-26.7c-2.1-4.9-3.8-10.1-4.7-15.4c-0.5-2.7-0.7-5.3-0.8-8c-0.1-2.7,0-5.4,0.1-8.1
				c0.6-10.7,2.9-21.4,7-31.4c4-10,9.7-19.3,17.1-27.3c7.3-8,16.2-14.5,26.1-18.9c9.9-4.4,20.9-6.4,31.7-5.8
				c10.8,0.5,21.5,3.6,31,8.9c9.4,5.3,17.7,12.6,24.2,21.2c6.6,8.5,11.5,18.2,14.8,28.4C246.7,75.6,248.3,86.3,248.2,97z M248,97
				c-0.1-10.7-1.7-21.3-5.2-31.4c-3.5-10.1-8.6-19.6-15.3-27.8c-6.7-8.2-14.8-15.3-24.1-20.3c-4.6-2.5-9.5-4.5-14.6-6
				c-5.1-1.4-10.3-2.3-15.5-2.6c-10.5-0.5-21.1,1.5-30.8,5.7c-9.7,4.2-18.4,10.5-25.6,18.3c-7.2,7.7-12.9,16.8-17,26.6
				c-4.1,9.8-6.5,20.2-7.3,30.8c-0.2,2.6-0.3,5.3-0.3,8c0,2.6,0.3,5.3,0.7,7.9c0.8,5.2,2.4,10.4,4.5,15.2
				c4.2,9.8,10.4,18.6,17.5,26.5c7.1,7.9,15.2,15,23.8,21.2c4.3,3.1,8.8,6,13.4,8.7c4.6,2.6,9.4,5.1,14.3,6.8
				c0.6,0.2,1.2,0.4,1.9,0.5c0.6,0.1,1.3,0.2,1.7,0.2c1.1-0.2,2.4-0.7,3.6-1.2c2.4-1,4.8-2.3,7.1-3.6c4.6-2.6,9.1-5.4,13.5-8.4
				c8.8-6,17.1-12.7,24.8-20c7.6-7.4,14.6-15.6,19.9-24.8C244.5,118.2,248,107.7,248,97z"/>
		</g>
	</g>
	<path class="st3" d="M248.1,97c0-40.9-24.1-75.4-57-85.9c23.3,27.5,19.2,80.9,10.6,114.8c-7.3,27.4-34.7,43.1-62.5,44
		c11.1,8.1,21.4,13.6,27.3,15.5c0,0,0,0,0,0c0,0-6.7,7.7,0,6.8c6.7-0.9,14.7,1.8,8.2-7.6c0,0,0,0,0,0
		C192.1,177,248.1,140.6,248.1,97z"/>
</g>
<g>
	<g>
		<path d="M117.7,208.6c1.3,0.8,2.2,2,3,3.2c0.8,1.2,1.6,2.5,2.3,3.8c1.3,2.6,2.4,5.4,3.4,8.1c1.9,5.6,3.3,11.2,4.4,17
			c2,11.5,2.8,23.2,5.1,34.6c1.2,5.7,2.5,11.3,4.1,16.9c1.6,5.6,3.4,11.1,5.5,16.5c2.1,5.4,4.4,10.7,7.1,15.8
			c1.4,2.6,2.8,5.1,4.3,7.5c1.6,2.4,3.2,4.8,5.1,7l-0.1,0.1c-4.3-4.1-7.6-8.9-10.7-13.9c-3-5-5.6-10.4-7.7-15.8
			c-2.2-5.5-3.9-11.1-5.3-16.7c-1.5-5.7-2.5-11.4-3.3-17.2c-0.8-5.8-1.3-11.6-2.2-17.3c-0.9-5.8-2.1-11.4-3.4-17.1
			c-1.3-5.7-2.6-11.3-4.2-16.9c-0.8-2.8-1.8-5.5-2.9-8.2c-0.6-1.3-1.2-2.6-1.9-3.9c-0.4-0.6-0.7-1.2-1.1-1.8
			c-0.4-0.6-0.9-1.2-1.4-1.6L117.7,208.6z"/>
	</g>
	<g>
		<g>
			<path class="st2" d="M112.7,204.8c0,0-4.1,9.4,2,6.5c6.2-2.9,14.6-2.7,5.6-9.7C114.4,197,113.8,201.7,112.7,204.8z"/>
			<path d="M112.8,204.9c-0.6,1.5-0.9,3.2-0.8,4.7c0,0.4,0.1,0.7,0.2,1c0.1,0.3,0.2,0.4,0.3,0.4c0.1,0,0.3,0.1,0.6,0
				c0.3-0.1,0.6-0.1,1-0.2c0.3-0.1,0.8-0.3,1.2-0.4c0.4-0.1,0.8-0.2,1.2-0.3c0.8-0.2,1.6-0.4,2.4-0.6c0.8-0.2,1.5-0.5,2.3-0.8
				c0.7-0.3,1.4-0.7,2-1.2c0.3-0.2,0.4-0.5,0.5-0.7c0-0.2,0-0.4-0.1-0.7c-0.3-0.5-0.7-1.1-1.3-1.6c-0.5-0.5-1.1-1-1.8-1.5l-0.9-0.7
				c-0.3-0.2-0.6-0.4-0.9-0.6c-0.6-0.4-1.3-0.7-1.8-0.9c-0.6-0.1-1-0.2-1.6,0.2c-0.5,0.4-1,1-1.4,1.8
				C113.3,203.3,113,204.1,112.8,204.9L112.8,204.9L112.8,204.9z M112.6,204.8c0.3-0.8,0.4-1.6,0.6-2.4c0.2-0.8,0.4-1.7,0.9-2.5
				c0.3-0.4,0.7-0.8,1.3-1c0.5-0.2,1.1-0.2,1.6-0.2c1,0.1,1.8,0.6,2.6,1c0.8,0.5,1.4,1,2,1.5c0.6,0.6,1.2,1.1,1.8,1.8
				c0.6,0.7,1.1,1.4,1.4,2.4c0.1,0.5,0.2,1.2-0.1,1.7c-0.3,0.5-0.7,0.9-1.1,1.1c-0.8,0.5-1.6,0.7-2.4,1c-0.8,0.2-1.6,0.5-2.3,0.8
				c-1.5,0.6-2.9,1.4-4.3,2.2c-0.4,0.2-0.8,0.4-1.3,0.5c-0.5,0.1-1.1,0.1-1.8-0.3c-0.7-0.4-0.9-1.1-1-1.6c-0.1-0.5,0-1,0.1-1.4
				C111.2,207.7,112,206.3,112.6,204.8z"/>
		</g>
		<g>
			<path class="st2" d="M164,95.9c14.8,47-41.5,106.8-47.7,108.5c-10.8,3.1-86.5-14.6-101.3-61.6c-14.8-47,6.5-95.6,47.7-108.5
				C103.8,21.4,149.1,49,164,95.9z"/>
			<path d="M164.1,95.9c1.6,5.1,2.4,10.4,2.5,15.8c0.1,5.4-0.5,10.7-1.5,16c-2.1,10.5-6.1,20.6-11,30.1c-4.9,9.6-10.8,18.5-17.4,27
				c-3.3,4.3-6.8,8.3-10.5,12.2c-1.9,1.9-3.8,3.8-5.8,5.6c-1.1,0.9-2,1.8-3.4,2.5c-0.8,0.3-1.5,0.4-2.2,0.5
				c-0.7,0.1-1.4,0.1-2.1,0.1c-2.7,0-5.4-0.4-8.1-0.8c-2.7-0.4-5.3-1-7.9-1.6c-5.2-1.3-10.4-2.8-15.4-4.6c-5.1-1.8-10-3.8-14.9-6
				c-4.9-2.2-9.6-4.7-14.2-7.5c-9.2-5.5-17.8-12.1-24.9-20.2c-3.5-4-6.6-8.5-9.1-13.2c-1.2-2.4-2.3-4.9-3.2-7.4
				c-0.9-2.5-1.6-5.1-2.3-7.7c-2.6-10.4-3.6-21.3-2.8-32c0.8-10.7,3.5-21.4,8.1-31.2c4.6-9.8,11.1-18.7,19.2-25.9
				c8.1-7.2,18-12.4,28.5-15.1c10.5-2.7,21.6-3,32.2-0.8c10.6,2.2,20.7,6.7,29.5,12.9c8.8,6.2,16.5,13.9,22.6,22.7
				C156.1,76,160.9,85.7,164.1,95.9z M163.9,96c-3.3-10.2-8.1-19.8-14.4-28.4c-6.3-8.6-14.1-16.1-22.9-21.9
				c-8.8-5.8-18.7-10.1-29.1-12.1c-5.2-1-10.5-1.5-15.7-1.3c-5.3,0.1-10.5,0.9-15.6,2.2C56,37.1,46.5,42.2,38.5,49.1
				c-8,6.9-14.3,15.6-18.9,25.1c-4.5,9.5-7.3,19.9-8.2,30.5c-1,10.6-0.1,21.3,2.3,31.6c0.6,2.6,1.3,5.2,2.1,7.7c0.8,2.5,1.9,5,3,7.3
				c2.4,4.7,5.4,9.2,8.9,13.2c7,8.1,15.5,14.6,24.7,20c9.2,5.4,19,9.7,29.1,13c5.1,1.7,10.2,3.1,15.4,4.3c5.2,1.1,10.5,2.1,15.7,2.2
				c0.6,0,1.3,0,1.9-0.1c0.6-0.1,1.3-0.2,1.7-0.3c1-0.5,2-1.4,3-2.2c2-1.7,3.9-3.6,5.7-5.5c3.6-3.9,7.1-7.9,10.4-12.1
				c6.6-8.3,12.5-17.2,17.6-26.6c5.1-9.3,9.2-19.2,11.6-29.6C166.8,117.2,167.1,106.2,163.9,96z"/>
		</g>
	</g>
	<path class="st0" d="M164,95.9c-12.3-39-45.7-64.6-80.2-64.8c30.5,19.2,42.7,71.4,44.6,106.3c1.3,28.3-20.1,51.6-46.4,60.8
		c13,4.4,24.5,6.5,30.7,6.6c0,0,0,0,0,0c0,0-4.1,9.4,2,6.5c6.2-2.9,14.6-2.7,5.6-9.7c0,0,0,0,0,0C134.6,189,177.1,137.5,164,95.9z"
		/>
</g>
</svg>
