<?xml version="1.0" encoding="utf-8"?>
<!-- Generator: Adobe Illustrator 15.1.0, SVG Export Plug-In . SVG Version: 6.00 Build 0)  -->
<!DOCTYPE svg PUBLIC "-//W3C//DTD SVG 1.1//EN" "http://www.w3.org/Graphics/SVG/1.1/DTD/svg11.dtd">
<svg version="1.1" id="balloon" xmlns="http://www.w3.org/2000/svg" xmlns:xlink="http://www.w3.org/1999/xlink" x="0px" y="0px"
	 width="246px" height="333.7px" viewBox="0 0 246 333.7" style="enable-background:new 0 0 246 333.7;" xml:space="preserve">
<style type="text/css">
<![CDATA[
	.st0{opacity:0.23;fill:#D69F25;}
	.st1{fill:#F44242;}
	.st2{fill:#FFFB7D;}
	.st3{opacity:0.23;fill:#891A1A;}
]]>
</style>
<g>
	<g>
		<path d="M160.4,184.6c0.9,1.1,1.4,2.4,1.8,3.7c0.4,1.3,0.7,2.7,0.9,4c0.5,2.7,0.7,5.4,0.7,8.2c0.1,5.5-0.2,10.9-0.8,16.3
			c-1.4,10.8-4.1,21.3-5.2,32.1c-0.5,5.4-0.9,10.8-1.1,16.1c-0.2,5.4,0,10.8,0.3,16.1c0.3,5.4,0.9,10.7,1.9,16
			c0.5,2.6,1,5.3,1.7,7.9c0.7,2.6,1.5,5.2,2.5,7.7l-0.2,0.1c-2.7-4.8-4.3-10-5.6-15.3c-1.3-5.3-2-10.7-2.5-16.2
			c-0.4-5.4-0.3-10.9,0-16.3c0.3-5.4,1-10.8,1.9-16.2c0.9-5.4,2.1-10.6,2.9-16c0.8-5.3,1.3-10.7,1.7-16.1c0.4-5.4,0.9-10.7,1-16.1
			c0-2.7,0-5.4-0.3-8c-0.1-1.3-0.3-2.7-0.5-4c-0.3-1.3-0.6-2.6-1.3-3.7L160.4,184.6z"/>
	</g>
	<g>
		<g>
			<path class="st2" d="M157,179.9c0,0-6.3,7.2,0,6.3c6.3-0.9,13.7,1.7,7.7-7C160.7,173.4,158.8,177.4,157,179.9z"/>
			<path d="M157.1,179.9c-1,1.1-1.7,2.6-2,3.9c-0.1,0.3-0.1,0.7-0.1,0.9c0,0.3,0.1,0.4,0.1,0.4c0,0,0.2,0.1,0.5,0.2
				c0.3,0,0.6,0.1,0.9,0.1c1.5-0.1,3.1,0.2,4.6,0.2c0.8,0,1.5,0,2.2-0.1c0.7-0.1,1.5-0.2,2.1-0.5c0.3-0.1,0.5-0.3,0.6-0.5
				c0.1-0.2,0.1-0.4,0.1-0.6c-0.1-0.5-0.4-1.1-0.7-1.7c-0.3-0.6-0.7-1.2-1.2-1.8l-0.6-0.9c-0.2-0.3-0.4-0.6-0.6-0.8
				c-0.4-0.5-0.9-1-1.3-1.3c-0.5-0.3-0.8-0.5-1.4-0.3c-0.6,0.2-1.2,0.6-1.7,1.1C158,178.7,157.5,179.3,157.1,179.9L157.1,179.9
				L157.1,179.9z M156.9,179.8c0.4-0.6,0.8-1.3,1.2-1.9c0.4-0.7,0.8-1.4,1.5-2c0.4-0.3,0.9-0.5,1.4-0.5c0.5,0,1.1,0.1,1.5,0.3
				c0.9,0.4,1.5,1,2,1.6c0.5,0.6,1,1.3,1.4,1.9c0.4,0.7,0.8,1.4,1.1,2.1c0.3,0.7,0.6,1.5,0.6,2.5c0,0.5-0.2,1.1-0.6,1.5
				c-0.4,0.4-0.9,0.6-1.3,0.7c-0.8,0.2-1.6,0.2-2.4,0.2c-0.8,0-1.5,0-2.3,0c-1.5,0.1-2.9,0.4-4.4,0.8c-0.4,0.1-0.8,0.1-1.3,0
				c-0.5-0.1-1.1-0.2-1.5-0.7c-0.5-0.6-0.5-1.3-0.4-1.7c0.1-0.5,0.3-0.9,0.5-1.2C154.8,182,156,181,156.9,179.8z"/>
		</g>
		<g>
			<path class="st2" d="M232.8,97.7c0,45.8-66.6,83-72.6,82.9c-10.4-0.3-72.6-37.1-72.6-82.9c0-45.8,32.5-82.9,72.6-82.9
				S232.8,51.9,232.8,97.7z"/>
			<path d="M232.9,97.7c0,5-0.8,9.9-2.2,14.7c-1.4,4.8-3.5,9.3-5.8,13.7c-4.8,8.7-11.1,16.6-18.1,23.7c-7,7.1-14.8,13.4-22.9,19.1
				c-4.1,2.9-8.3,5.5-12.7,7.9c-2.2,1.2-4.4,2.3-6.7,3.3c-1.2,0.5-2.3,1-3.8,1.2c-0.9,0.1-1.5-0.1-2.1-0.2c-0.6-0.1-1.3-0.3-1.9-0.5
				c-2.4-0.8-4.7-1.9-6.9-3c-2.2-1.1-4.4-2.4-6.5-3.7c-4.3-2.6-8.4-5.4-12.4-8.4c-4-3-7.8-6.2-11.5-9.5c-3.7-3.3-7.2-6.9-10.5-10.6
				c-6.6-7.5-12.4-15.7-16.4-24.8c-2-4.6-3.5-9.4-4.4-14.3c-0.4-2.5-0.7-5-0.8-7.5c-0.1-2.5,0-5,0.1-7.5c0.6-10,2.7-19.9,6.5-29.2
				c3.7-9.3,9-18,15.9-25.4c6.8-7.4,15-13.5,24.3-17.6c9.2-4.1,19.4-5.9,29.5-5.4c10.1,0.5,20,3.4,28.8,8.3
				c8.8,4.9,16.4,11.7,22.5,19.7c6.1,7.9,10.7,17,13.7,26.5C231.5,77.8,233,87.7,232.9,97.7z M232.7,97.7
				c-0.1-9.9-1.6-19.8-4.8-29.2c-3.2-9.4-8-18.2-14.2-25.8c-6.2-7.6-13.8-14.2-22.4-18.8c-8.6-4.7-18.2-7.5-28-7.9
				c-9.8-0.5-19.6,1.4-28.6,5.3c-9,3.9-17.1,9.8-23.7,17c-6.7,7.2-12,15.6-15.8,24.7c-3.8,9.1-6.1,18.8-6.8,28.6
				c-0.2,2.5-0.3,4.9-0.2,7.4c0,2.5,0.3,4.9,0.6,7.3c0.8,4.9,2.2,9.6,4.2,14.2c3.9,9.1,9.7,17.3,16.3,24.6
				c6.6,7.4,14.1,13.9,22.2,19.7c4,2.9,8.2,5.6,12.4,8.1c4.3,2.4,8.7,4.7,13.3,6.3c0.6,0.2,1.1,0.3,1.7,0.5c0.5,0.1,1.2,0.2,1.6,0.2
				c1-0.2,2.2-0.7,3.3-1.1c2.2-1,4.4-2.1,6.6-3.3c4.3-2.4,8.5-5.1,12.6-7.8c8.2-5.5,15.9-11.8,23-18.6c7.1-6.9,13.6-14.5,18.5-23
				C229.5,117.3,232.7,107.6,232.7,97.7z"/>
		</g>
	</g>
	<path class="st0" d="M232.8,97.7c0-38-22.4-70-53-79.8c21.6,25.6,17.9,75.2,9.8,106.7c-6.8,25.4-32.2,40.1-58.1,40.9
		c10.3,7.5,19.9,12.6,25.4,14.4c0,0,0,0,0,0c0,0-6.3,7.2,0,6.3c6.3-0.9,13.7,1.7,7.7-7c0,0,0,0,0,0
		C180.8,172,232.8,138.1,232.8,97.7z"/>
</g>
<g>
	<g>
		<path d="M111.6,201.4c1.2,0.7,2,1.9,2.8,3c0.8,1.1,1.5,2.3,2.1,3.5c1.3,2.4,2.3,5,3.2,7.6c1.8,5.2,3.1,10.5,4.1,15.8
			c1.9,10.7,2.5,21.6,4.7,32.2c1.1,5.3,2.4,10.5,3.8,15.7c1.5,5.2,3.2,10.3,5.1,15.3c1.9,5,4.1,9.9,6.6,14.7c1.3,2.4,2.6,4.7,4,7
			c1.5,2.3,3,4.5,4.7,6.6l-0.1,0.1c-4-3.8-7.1-8.3-10-12.9c-2.8-4.7-5.2-9.6-7.2-14.7c-2-5.1-3.6-10.3-5-15.6
			c-1.4-5.3-2.4-10.6-3.1-16c-0.8-5.4-1.2-10.8-2-16.1c-0.8-5.3-2-10.6-3.2-15.9c-1.2-5.3-2.4-10.5-3.9-15.7
			c-0.8-2.6-1.6-5.1-2.7-7.6c-0.5-1.2-1.1-2.5-1.7-3.6c-0.7-1.1-1.4-2.3-2.4-3.2L111.6,201.4z"/>
	</g>
	<g>
		<g>
			<path class="st1" d="M107,197.9c0,0-3.8,8.7,1.9,6c5.7-2.7,13.5-2.5,5.2-9C108.6,190.6,108,194.9,107,197.9z"/>
			<path d="M107.1,197.9c-0.6,1.4-0.8,2.9-0.7,4.3c0,0.3,0.1,0.7,0.2,0.9c0.1,0.3,0.2,0.3,0.3,0.3c0,0,0.2,0.1,0.5,0
				c0.3,0,0.6-0.1,0.9-0.2c1.4-0.5,3-0.7,4.4-1.1c0.7-0.2,1.4-0.4,2.1-0.7c0.7-0.3,1.3-0.7,1.8-1.1c0.2-0.2,0.4-0.5,0.4-0.7
				c0-0.2,0-0.4-0.1-0.6c-0.2-0.5-0.7-1-1.2-1.5c-0.5-0.5-1.1-0.9-1.6-1.4l-0.9-0.7c-0.3-0.2-0.6-0.4-0.8-0.6
				c-0.6-0.4-1.2-0.7-1.7-0.9c-0.5-0.1-0.9-0.2-1.4,0.1c-0.5,0.3-1,0.9-1.3,1.6C107.6,196.5,107.3,197.2,107.1,197.9L107.1,197.9
				L107.1,197.9z M106.9,197.8c0.2-0.7,0.4-1.5,0.5-2.2c0.2-0.8,0.3-1.6,0.9-2.3c0.3-0.4,0.7-0.8,1.2-0.9c0.5-0.2,1.1-0.2,1.5-0.2
				c1,0.1,1.7,0.5,2.4,0.9c0.7,0.4,1.3,0.9,1.9,1.4c0.6,0.5,1.2,1.1,1.7,1.7c0.5,0.6,1.1,1.3,1.3,2.2c0.1,0.5,0.1,1.1-0.1,1.6
				c-0.3,0.5-0.6,0.8-1,1c-0.8,0.4-1.5,0.6-2.2,0.9c-0.7,0.2-1.4,0.5-2.2,0.7c-1.4,0.5-2.7,1.3-4,2.1c-0.4,0.2-0.8,0.4-1.3,0.4
				c-0.5,0.1-1.1,0.1-1.7-0.2c-0.6-0.4-0.9-1.1-0.9-1.5c-0.1-0.5,0-0.9,0.1-1.3C105.6,200.5,106.3,199.2,106.9,197.8z"/>
		</g>
		<g>
			<path class="st1" d="M154.6,96.7c13.8,43.7-38.6,99.2-44.3,100.9c-10,2.9-80.4-13.6-94.1-57.2C2.4,96.6,22.3,51.5,60.5,39.4
				S140.9,53,154.6,96.7z"/>
			<path d="M154.7,96.6c1.5,4.7,2.3,9.7,2.4,14.7c0.1,5-0.5,10-1.4,14.8c-2,9.8-5.6,19.1-10.2,28c-4.5,8.9-10,17.2-16.1,25.1
				c-3,4-6.3,7.7-9.7,11.4c-1.7,1.8-3.5,3.6-5.4,5.2c-1,0.8-1.9,1.6-3.2,2.3c-0.8,0.3-1.4,0.4-2.1,0.4c-0.7,0.1-1.3,0.1-1.9,0.1
				c-2.6,0-5-0.4-7.5-0.8c-2.5-0.4-4.9-0.9-7.3-1.5c-4.9-1.2-9.6-2.6-14.3-4.3c-4.7-1.7-9.3-3.5-13.8-5.6c-4.5-2.1-8.9-4.4-13.2-6.9
				c-8.5-5.1-16.5-11.2-23.1-18.7c-3.3-3.8-6.2-7.9-8.5-12.3c-1.1-2.2-2.2-4.5-3-6.9c-0.8-2.4-1.5-4.8-2.1-7.2
				c-2.5-9.7-3.4-19.8-2.6-29.7c0.8-10,3.2-19.9,7.5-29c4.2-9.1,10.3-17.4,17.9-24.1c7.6-6.7,16.7-11.5,26.5-14
				c9.8-2.6,20.1-2.8,30-0.7c9.9,2.1,19.2,6.2,27.4,12c8.2,5.7,15.3,13,21,21.1C147.3,78.1,151.8,87.1,154.7,96.6z M154.5,96.7
				c-3-9.4-7.5-18.4-13.4-26.4c-5.9-8-13.1-14.9-21.3-20.3c-8.2-5.4-17.4-9.4-27-11.2c-9.6-1.9-19.6-1.7-29.1,0.9
				c-9.5,2.5-18.3,7.2-25.6,13.6c-7.4,6.4-13.3,14.4-17.5,23.3c-4.2,8.9-6.8,18.5-7.7,28.3c-0.9,9.8-0.1,19.8,2.1,29.4
				c0.6,2.4,1.2,4.8,2,7.1c0.8,2.3,1.7,4.6,2.8,6.8c2.2,4.4,5,8.5,8.2,12.2c6.5,7.5,14.4,13.6,22.9,18.6c8.5,5,17.7,9,27.1,12.1
				c4.7,1.5,9.5,2.9,14.3,4c4.8,1,9.7,1.9,14.6,2c0.6,0,1.2,0,1.8-0.1c0.6,0,1.2-0.1,1.5-0.3c0.9-0.4,1.9-1.3,2.8-2.1
				c1.8-1.6,3.6-3.3,5.3-5.1c3.4-3.6,6.6-7.4,9.6-11.2c6.1-7.7,11.6-16,16.4-24.7c4.7-8.7,8.6-17.9,10.8-27.5
				C157.3,116.4,157.5,106.2,154.5,96.7z"/>
		</g>
	</g>
	<path class="st3" d="M154.6,96.7c-11.4-36.3-42.4-60-74.5-60.2c28.3,17.9,39.7,66.3,41.5,98.8c1.2,26.3-18.7,47.9-43.1,56.5
		c12.1,4.1,22.8,6,28.5,6.1c0,0,0,0,0,0c0,0-3.8,8.7,1.9,6c5.7-2.7,13.5-2.5,5.2-9c0,0,0,0,0,0C127.3,183.1,166.8,135.2,154.6,96.7z
		"/>
</g>
</svg>
