<?xml version="1.0" encoding="utf-8"?>
<!-- Generator: Adobe Illustrator 15.1.0, SVG Export Plug-In . SVG Version: 6.00 Build 0)  -->
<!DOCTYPE svg PUBLIC "-//W3C//DTD SVG 1.1//EN" "http://www.w3.org/Graphics/SVG/1.1/DTD/svg11.dtd">
<svg version="1.1" id="animals" xmlns="http://www.w3.org/2000/svg" xmlns:xlink="http://www.w3.org/1999/xlink" x="0px" y="0px"
	 width="339.1px" height="348.8px" viewBox="0 0 339.1 348.8" style="enable-background:new 0 0 339.1 348.8;" xml:space="preserve"
	>
<style type="text/css">
<![CDATA[
	.st0{opacity:0.4;fill:#44362E;}
	.st1{fill:#886E5F;}
	.st2{fill:#1E0C03;}
	.st3{fill:#231F20;}
	.st4{opacity:0.57;fill:url(#SVGID_4_);}
	.st5{clip-path:url(#SVGID_3_);}
	.st6{fill:url(#SVGID_1_);}
	.st7{fill:#FBDCCA;}
	.st8{fill:#FCC581;}
	.st9{fill:#44362E;stroke:#000000;stroke-miterlimit:10;}
	.st10{fill:#FFFFFF;}
	.st11{fill:#3A1D0B;}
	.st12{opacity:0.54;fill:#FFA6B7;}
	.st13{opacity:0.25;fill:#825E37;}
]]>
</style>
<g>
	<path class="st9" d="M277.4,317.9c0,0,68.4,6.6,44,96.3L277.4,317.9z"/>
	<g>
		<path class="st1" d="M49.9,163c0,0-8.1,68.6,65.1,155.3l6.8,3.9l44.5-102.8L49.9,163z"/>
		<g>
			<path d="M50,163.1c-0.3,3.5-0.2,7.1-0.1,10.7c0.2,3.6,0.5,7.1,0.9,10.7c0.9,7.1,2.2,14.2,3.9,21.1C58.1,219.5,63,233,68.9,246
				c5.9,13.1,12.8,25.6,20.6,37.7c7.8,12,16.4,23.6,25.6,34.5l0,0l6.9,3.9l-0.3,0.1l44.1-102.9l0.3,0.7L137,205.7l-29.1-14.2
				l-29-14.2L50,163.1z M49.9,162.9l29.3,13.9l29.2,14l29.1,14l29.1,14.1l0.5,0.2l-0.2,0.5L122,322.2l-0.1,0.2l-0.2-0.1l-6.8-3.9
				l0,0l0,0c-9.3-11-18-22.4-25.9-34.4c-7.9-12-14.9-24.5-20.9-37.6c-5.9-13.1-10.7-26.7-14-40.7c-1.7-7-2.9-14.1-3.7-21.2
				c-0.4-3.6-0.6-7.2-0.8-10.7C49.5,170.1,49.5,166.6,49.9,162.9L49.9,162.9z"/>
		</g>
	</g>
	<path class="st11" d="M56.6,153.8c0,0-11.6,68.1,57.3,158.4l6.6,4.2l49.5-100.4L56.6,153.8z"/>
	<g>
		<path class="st8" d="M215.9,240.5c-8.8,43.2-6.4,80.1-104,60.2c-75.3-15.4-83-56.1-53.3-90.9c26-30.4,36.6-75.3,85.2-65.4
			C192.4,154.3,224.7,197.3,215.9,240.5z"/>
		<path class="st3" d="M216,240.5c-2.2,10.9-3.7,21.9-6.8,32.6c-1.6,5.3-3.6,10.5-6.7,15.2c-3,4.7-7.2,8.6-12.1,11.4
			c-4.8,2.8-10.2,4.5-15.7,5.5c-5.5,1-11.1,1.4-16.6,1.5c-5.6,0.1-11.1-0.3-16.6-0.9c-5.5-0.6-11-1.3-16.5-2.3
			c-10.9-1.9-21.8-4.1-32.4-7.5c-10.6-3.4-20.9-7.8-30-14.2c-4.5-3.2-8.7-7-12.1-11.4c-3.4-4.4-6-9.5-7.3-14.9
			c-1.3-5.4-1.3-11.1-0.2-16.6c1.1-5.5,3.1-10.7,5.8-15.6c2.7-4.9,5.9-9.4,9.5-13.7c3.6-4.2,6.8-8.7,10-13.3
			c6.3-9.1,11.9-18.7,18.5-27.7c3.3-4.5,6.9-8.8,10.9-12.6c4-3.8,8.6-7.2,13.7-9.5c5.1-2.4,10.6-3.7,16.2-4
			c5.6-0.3,11.2,0.3,16.6,1.4c10.9,2.3,21.5,6.3,31,12c9.5,5.8,18.1,13.2,24.9,21.9c6.9,8.7,12.1,18.8,14.9,29.6
			C217.9,218.3,218.2,229.7,216,240.5z M215.9,240.5c2.2-10.9,1.8-22.2-1.1-32.9c-2.9-10.7-8.1-20.7-15-29.3
			c-6.9-8.6-15.4-15.9-24.9-21.5c-9.5-5.6-19.9-9.7-30.7-11.9c-5.4-1.1-10.9-1.7-16.4-1.4c-5.5,0.3-10.9,1.6-15.9,3.9
			c-5,2.3-9.5,5.5-13.5,9.3c-4,3.8-7.5,8-10.8,12.5c-6.6,8.9-12.3,18.4-18.6,27.5c-3.2,4.6-6.5,9-10.1,13.2
			c-3.6,4.2-6.8,8.7-9.5,13.5c-2.7,4.8-4.7,10-5.8,15.4c-1.1,5.4-1.1,11,0.1,16.4c1.2,5.4,3.8,10.4,7.1,14.8
			c3.4,4.4,7.5,8.1,12,11.3c9.1,6.4,19.4,10.7,29.9,14c10.6,3.3,21.5,5.4,32.4,7.3c10.9,1.8,22,3,33,3.1c5.5,0,11.1-0.3,16.5-1.3
			c5.4-1,10.8-2.6,15.5-5.3c4.8-2.7,8.9-6.5,12-11.1c3.1-4.6,5.2-9.8,6.8-15c1.6-5.3,2.7-10.7,3.8-16.2
			C213.8,251.4,214.7,245.9,215.9,240.5z"/>
	</g>
	<linearGradient id="SVGID_1_" gradientUnits="userSpaceOnUse" x1="129.4854" y1="209.2207" x2="131.2254" y2="324.9405">
		<stop  offset="0" style="stop-color:#5E0000"/>
		<stop  offset="1" style="stop-color:#FFFFFF;stop-opacity:0"/>
	</linearGradient>
	<path class="st6" d="M215.9,240.5c-8.8,43.2-6.4,80.1-104,60.2c-75.3-15.4-83-56.1-53.3-90.9c26-30.4,36.6-75.3,85.2-65.4
		C192.4,154.3,224.7,197.3,215.9,240.5z"/>
	<g>
		<path class="st8" d="M105.9,209.1c0.6,1.9,1.3,3.8,2,5.6C108.5,212.5,108.4,210.4,105.9,209.1z"/>
		<path class="st3" d="M106,209.1c0.3,0.4,0.6,0.9,0.8,1.3c0.2,0.5,0.4,0.9,0.5,1.4c0.1,0.5,0.2,1,0.3,1.5c0.1,0.5,0.3,0.9,0.6,1.4
			l-0.4,0c0.1-0.5,0-1.1,0.1-1.6c0-0.5-0.1-1-0.2-1.4C107.3,210.8,106.7,210,106,209.1L106,209.1z M105.9,209.1
			c0.6,0.1,1.1,0.3,1.6,0.7c0.5,0.4,0.8,0.9,1,1.5c0.2,0.6,0.2,1.2,0.1,1.8c-0.1,0.6-0.3,1.1-0.5,1.6l-0.3,0.7l-0.1-0.7
			c-0.1-0.5-0.3-1-0.5-1.4c-0.2-0.4-0.5-0.9-0.7-1.3c-0.2-0.5-0.3-0.9-0.4-1.4C105.9,210.2,105.8,209.7,105.9,209.1L105.9,209.1
			L105.9,209.1z"/>
	</g>
	<path class="st12" d="M101.9,261.3c-1.5,3.3-9,3-16.6-0.6c-7.6-3.6-12.6-9.1-11-12.4c1.5-3.2,8.9-3,16.6,0.6
		C98.5,252.5,103.5,258.1,101.9,261.3z"/>
	<path class="st10" d="M104.2,256.8c-0.7,1.4-3.8,1.3-7.1-0.3c-3.3-1.5-5.4-3.9-4.7-5.3c0.7-1.4,3.8-1.3,7.1,0.3
		C102.7,253,104.8,255.4,104.2,256.8z"/>
	<g>
		<defs>
			<path id="SVGID_2_" d="M215.9,240.5c-8.8,43.2-6.4,80.1-104,60.2c-75.3-15.4-83-56.1-53.3-90.9c26-30.4,36.6-75.3,85.2-65.4
				C192.4,154.3,224.7,197.3,215.9,240.5z"/>
		</defs>
		<clipPath id="SVGID_3_">
			<use xlink:href="#SVGID_2_"  style="overflow:visible;"/>
		</clipPath>
		<g class="st5">
			<g>
				<polygon points="42.3,192.1 42.1,276.7 41.8,192.1 				"/>
			</g>
			<g>
				<polygon points="51.7,192.1 51.4,276.7 51.2,192.1 				"/>
			</g>
			<g>
				<polygon points="61,192.1 60.8,276.7 60.5,192.1 				"/>
			</g>
			<g>
				<polygon points="70.4,192.1 70.1,276.7 69.9,192.1 				"/>
			</g>
			<g>
				<polygon points="79.7,192.1 79.5,276.7 79.2,192.1 				"/>
			</g>
			<g>
				<polygon points="89.1,192.1 88.8,276.7 88.6,192.1 				"/>
			</g>
			<g>
				<polygon points="98.5,192.1 98.2,276.7 98,192.1 				"/>
			</g>
			<g>
				<polygon points="107.8,192.1 107.6,276.7 107.3,192.1 				"/>
			</g>
			<g>
				<polygon points="117.2,192.1 116.9,276.7 116.7,192.1 				"/>
			</g>
			<g>
				<polygon points="126.5,192.1 126.3,276.7 126,192.1 				"/>
			</g>
			<g>
				<polygon points="135.9,192.1 135.6,276.7 135.4,192.1 				"/>
			</g>
		</g>
		<g class="st5">
			<g>
				<polygon points="47.6,192.8 47.4,277.4 47.1,192.8 				"/>
			</g>
			<g>
				<polygon points="57,192.8 56.7,277.4 56.5,192.8 				"/>
			</g>
			<g>
				<polygon points="66.3,192.8 66.1,277.4 65.8,192.8 				"/>
			</g>
			<g>
				<polygon points="75.7,192.8 75.5,277.4 75.2,192.8 				"/>
			</g>
			<g>
				<polygon points="85.1,192.8 84.8,277.4 84.6,192.8 				"/>
			</g>
			<g>
				<polygon points="94.4,192.8 94.2,277.4 93.9,192.8 				"/>
			</g>
			<g>
				<polygon points="103.8,192.8 103.5,277.4 103.3,192.8 				"/>
			</g>
			<g>
				<polygon points="113.1,192.8 112.9,277.4 112.6,192.8 				"/>
			</g>
			<g>
				<polygon points="122.5,192.8 122.3,277.4 122,192.8 				"/>
			</g>
			<g>
				<polygon points="131.9,192.8 131.6,277.4 131.4,192.8 				"/>
			</g>
			<g>
				<polygon points="141.2,192.8 141,277.4 140.7,192.8 				"/>
			</g>
		</g>
	</g>
	<path class="st13" d="M135.7,142.7c-4.5-0.9-8.7-1.4-12.7-1.6c0.7,4.5,1.2,8.9,1.6,13.3c-29.2-1.2-49.6,12.8-64.6,32.3
		c5.7,11.9,14,20.8,27.7,28c-1.4-4.5,0.4-3.7-1-8.2c8.8,12.2,18.8,17.6,23.1,31.2c-0.8-2.6,1.4-6.3,2.3-9.4c1.4,3.5,3,6.7,4.7,9.7
		c-2.5,8.6-5.5,17.1-9,25.2c-7.2,24.2-30.9,21.2-54.9,17.6c12.2,7.4,28.9,13.6,51,18.2c78.1,15.9,97.1,0.2,105.2-26.3
		c2.6-0.3,5.1-0.6,7.7-1c1.1-5.7,2.1-11.6,3.3-17.7c2.8-13.8,1-27.7-4.4-40.6C208.8,180.4,177.7,151.3,135.7,142.7z"/>
	<g>
		<path class="st11" d="M104.9,236.6c16.8,42.5,63.6,28.6,107.1,21.8c1.2-5.7,2.3-11.6,3.6-17.7c9.4-43.4-27.1-87-81.5-97.4
			c-38.5-7.4-64.2,8.2-82.3,31.2C57.6,186.3,66,216,80,223.1c-1.4-4.5,0.5-3.7-1-8.3C88,227,98.3,232.4,102.5,246
			c-0.8-2.7,1.5-27.2,2.4-30.3"/>
		<path d="M105,236.5c1.9,4.6,4.3,9.1,7.4,13c3.1,3.9,7,7.2,11.3,9.7c4.3,2.5,9.1,4.1,14,5.1c4.9,1,9.9,1.4,14.9,1.4
			c10,0,20-1.3,29.8-2.8c9.9-1.6,19.7-3.4,29.7-4.9l-0.3,0.3l3.1-15.5c1.2-5.1,2-10.3,2-15.6c0.1-10.5-2.4-20.9-7-30.4
			c-4.5-9.5-11.1-17.9-18.7-25.1c-7.7-7.2-16.4-13.1-25.9-17.8c-9.4-4.6-19.5-8-29.7-10c-10.3-2-20.9-2.8-31.2-1.3
			c-10.4,1.4-20.4,5.2-29.2,10.8c-8.8,5.6-16.4,13-22.9,21.3l0.1-0.5c2.1,4.4,3.7,8.8,5.5,13.2c1.8,4.4,3.6,8.8,5.6,13.1
			c2,4.3,4.2,8.5,6.9,12.5c2.7,3.9,5.8,7.6,10,9.8l-0.6,0.5c-0.2-0.7-0.4-1.4-0.5-2.1c-0.1-0.7-0.1-1.5,0-2.2c0.1-0.7,0.1-1.3,0-2
			c-0.1-0.7-0.3-1.3-0.5-2l-0.6-1.9l1.2,1.6c1.9,2.6,4,5.1,6.3,7.5c2.2,2.4,4.5,4.7,6.8,7.1c2.2,2.4,4.4,4.9,6.1,7.7
			c1.8,2.8,3.2,5.8,4.1,8.9l-0.2,0.1c-0.3-1.3-0.2-2.6-0.1-3.8c0-1.3,0.1-2.5,0.2-3.8c0.2-2.5,0.4-5.1,0.6-7.6
			c0.2-2.5,0.5-5.1,0.8-7.6c0.3-2.5,0.6-5.1,1.1-7.5l0.1,0c-0.5,2.5-0.8,5-1.1,7.5c-0.3,2.5-0.5,5.1-0.7,7.6
			c-0.2,2.5-0.4,5.1-0.6,7.6c-0.1,1.3-0.1,2.5-0.2,3.8c0,1.3-0.1,2.6,0.2,3.8l-0.2,0.1c-1-3.1-2.4-6.1-4.2-8.8
			c-1.8-2.7-3.9-5.2-6.2-7.6c-2.2-2.4-4.6-4.7-6.8-7.1c-2.3-2.4-4.4-4.9-6.4-7.5l0.6-0.3c0.2,0.7,0.4,1.4,0.5,2.1
			c0.1,0.7,0.1,1.5,0,2.2c-0.1,0.7-0.1,1.3,0,2c0.1,0.7,0.3,1.3,0.5,2l0.3,0.9l-0.8-0.4c-2.2-1.1-4.1-2.7-5.8-4.4
			c-1.7-1.7-3.2-3.6-4.6-5.6c-2.7-4-5-8.2-7-12.5c-2-4.3-3.9-8.7-5.7-13.2c-1.8-4.4-3.5-8.9-5.5-13.2l-0.1-0.3l0.2-0.2
			c6.5-8.3,14.2-15.8,23.2-21.5c8.9-5.7,19.1-9.5,29.6-10.9c10.5-1.5,21.2-0.8,31.5,1.4c10.3,2.1,20.4,5.6,29.8,10.3
			c9.4,4.7,18.2,10.7,25.9,18c7.7,7.2,14.1,15.8,18.7,25.3c4.6,9.5,7.3,20,7.2,30.6c0,5.3-0.7,10.6-1.9,15.7l-3.1,15.5l0,0.3l-0.3,0
			c-9.9,1.6-19.7,3.5-29.6,5c-9.9,1.5-19.9,2.8-30,2.7c-5-0.1-10.1-0.5-15-1.5c-4.9-1-9.7-2.7-14.1-5.3c-4.4-2.5-8.2-5.9-11.3-9.9
			C109.1,245.7,106.7,241.2,105,236.5L105,236.5z"/>
	</g>
	<g>
		<path class="st1" d="M270.8,53.6c0,0,49.8-47.8,73.4-43.9c0,0,29.2,58.1,2.6,92.5L270.8,53.6z"/>
		<g>
			<path d="M270.7,53.6c5.2-5.1,10.7-10,16.2-14.6c5.6-4.7,11.3-9.2,17.3-13.4c6-4.2,12.2-8.1,18.8-11.3c3.3-1.6,6.7-3,10.2-4
				c3.5-1,7.3-1.5,10.9-0.9l0.1,0l0.1,0.1c3.4,7.4,6.2,15,8.5,22.7c2.3,7.8,4,15.7,4.9,23.8c0.8,8.1,0.8,16.3-0.8,24.3
				c-1.5,8-4.8,15.7-9.8,22.2l-0.3,0.4l-0.4-0.3l-19-12.1c-6.3-4-12.7-8.1-19-12.2L289.6,66C283.3,61.9,277,57.8,270.7,53.6
				L270.7,53.6L270.7,53.6z M270.8,53.6c6.4,4,12.7,7.9,19.1,11.9l19.1,12c6.4,4,12.7,8,19,12.1l19,12.1l-0.7,0.1
				c4.9-6.3,8.1-13.9,9.8-21.7c1.7-7.9,1.8-16,1.1-24c-0.8-8-2.4-16-4.6-23.7c-2.3-7.7-5.1-15.3-8.7-22.6l0.2,0.1
				c-3.6-0.5-7.2,0.1-10.7,1.1c-3.5,1-6.8,2.4-10.1,4c-3.3,1.6-6.4,3.4-9.5,5.3c-3.1,1.9-6.1,3.9-9.1,5.9c-6,4.1-11.7,8.6-17.4,13.1
				C281.7,44,276.2,48.7,270.8,53.6z"/>
		</g>
	</g>
	<path class="st0" d="M340.5,9.5c-13.2,25.4-34,40.9-57.9,51.7l64.2,41c26.6-34.4-2.6-92.5-2.6-92.5C343,9.5,341.8,9.5,340.5,9.5z"
		/>
	<g>
		<g>
			<path class="st1" d="M186.8,29C58.4,30.6-2.5,121.1,23.9,152.1c26.4,31,43.5,21.5,63.1,30.2c19.6,8.7,26,24,33.8,36.8
				c18.2,25.4-4.9,30.1,0.6,101.6c13.5,5.2,29.2,8,47.8,8.8c0.7,1.9,1.4,4.1,2.2,6.5c-11.7-2.2-15.8,13-16.2,30.2
				c9.3,0.4,18.8,0.3,28.2-0.3c-0.7-4.4-1.6-8.6-2.8-12.3c1.2,3.7,2.1,7.9,2.8,12.3c38.1-2.5,79.1-8.5,110.7-30.5
				c-2.2-4.4-6.9-14.2-8.7-18.3c-11.3,2.1-22.7,1.1-35,4.9c12.2-3.8,23.7-2.8,35-4.9c-0.1-0.2-0.1-0.3-0.2-0.5
				c64.1-19.1,63.9-59.4,84.3-136C394.7,85.5,288.5,27.6,186.8,29z M163.1,329.1c17.1-2.4,28.3,11.1,37.1,23.3
				C191.4,340.2,179.4,326.8,163.1,329.1z"/>
		</g>
		<g>
			<path d="M186.8,29c-29.8,0.4-59.6,5.7-87.1,17.3c-13.7,5.8-26.8,13.1-38.7,22c-11.9,9-22.6,19.6-30.8,32
				c-4.1,6.2-7.5,12.9-9.7,20c-1.1,3.5-1.8,7.2-2.1,10.9c-0.3,3.7,0,7.4,0.9,11c1.7,7.3,7.4,12.6,12.6,17.8
				c5.4,5.1,11.4,9.6,18.2,12.5c3.4,1.5,6.9,2.6,10.6,3.3c3.6,0.8,7.3,1.3,11,1.9c3.7,0.6,7.4,1.3,10.9,2.5c3.6,1.2,7,2.8,10.2,4.7
				c6.5,3.8,12.1,9,16.5,15c4.5,6,7.9,12.7,11.8,19l0,0c2.5,3.5,4.8,7.3,6,11.5c1.3,4.2,1.3,8.7,0.7,13c-0.6,4.3-1.6,8.5-2.5,12.8
				c-0.9,4.2-1.7,8.5-2.4,12.7c-2.7,17.1-2.7,34.5-1.4,51.7l-0.1-0.2c7.6,2.9,15.5,4.9,23.5,6.3c8,1.4,16.1,2.2,24.2,2.5l0.1,0
				l0,0.1c0.8,2.1,1.5,4.3,2.2,6.5l0.1,0.3l-0.3,0c-1.6-0.3-3.2-0.3-4.7,0.1c-1.5,0.4-2.9,1.3-4,2.4c-2.3,2.3-3.6,5.3-4.6,8.3
				c-1,3.1-1.6,6.2-2,9.4c-0.4,3.2-0.6,6.4-0.7,9.6l-0.2-0.2c9.4,0.4,18.8,0.3,28.2-0.3l-0.2,0.3c-0.7-4.1-1.5-8.3-2.8-12.2l0.5-0.1
				c1.2,4,2.1,8.2,2.8,12.3l-0.3-0.2c19.3-1.3,38.6-3.4,57.5-8c9.4-2.3,18.7-5.1,27.6-8.9c8.9-3.7,17.5-8.3,25.4-13.8l-0.1,0.5
				l-4.4-9.1c-1.5-3-2.9-6.1-4.3-9.2l0.5,0.3c-5.8,1.1-11.8,1.4-17.6,1.9c-5.9,0.5-11.7,1.3-17.3,3.1l-0.3-0.9
				c5.7-1.8,11.6-2.6,17.5-3.1c5.9-0.5,11.8-0.8,17.5-1.9l-0.3,0.6l-0.2-0.5l-0.2-0.5l0.5-0.1c8.9-2.7,17.6-6,25.6-10.6
				c8-4.5,15.4-10.4,21.2-17.5c5.9-7.1,10.4-15.3,13.9-23.9c3.5-8.6,6.2-17.5,8.7-26.4c2.4-9,4.6-18,6.8-27c2.2-9,4.4-18.1,6.8-27
				c2.5-8.9,4.2-18.1,4.6-27.3c0.4-9.2-0.6-18.5-3-27.5c-2.4-8.9-6.2-17.5-11-25.3c-4.9-7.9-10.8-15.1-17.5-21.5
				c-13.3-12.9-29.2-23-46-30.8c-16.9-7.8-34.7-13.3-52.9-17C224,30.5,205.4,28.8,186.8,29z M186.8,28.9c18.6-0.3,37.2,1.4,55.4,5
				c18.2,3.6,36.1,9.1,53.1,16.8c16.9,7.7,32.9,17.8,46.3,30.7c6.7,6.5,12.7,13.7,17.6,21.6c4.9,7.9,8.8,16.5,11.2,25.5
				c2.5,9,3.5,18.4,3.1,27.7c-0.3,9.3-2.1,18.6-4.6,27.5c-2.4,9-4.6,18-6.8,27c-2.2,9-4.4,18.1-6.8,27c-2.5,9-5.2,17.9-8.7,26.5
				c-3.6,8.6-8.1,16.9-14.1,24.1c-6,7.2-13.4,13.2-21.5,17.8c-8.1,4.6-16.9,8-25.8,10.6l0.3-0.6l0.2,0.5l0.2,0.5l-0.6,0.1
				c-5.8,1.1-11.8,1.3-17.6,1.9c-5.9,0.5-11.7,1.3-17.3,3l-0.3-0.9c5.7-1.8,11.6-2.6,17.5-3.1c5.9-0.5,11.8-0.8,17.5-1.8l0.3-0.1
				l0.1,0.3c1.3,3.1,2.8,6.1,4.2,9.2l4.4,9.1l0.2,0.3l-0.3,0.2c-8,5.5-16.6,10.1-25.6,13.8c-9,3.7-18.3,6.6-27.7,8.8
				c-18.9,4.5-38.3,6.6-57.6,7.8l-0.2,0l0-0.2c-0.7-4.1-1.5-8.3-2.8-12.3l0.5-0.1c1.2,4,2.1,8.2,2.8,12.3l0,0.3l-0.3,0
				c-9.4,0.6-18.8,0.7-28.2,0.3l-0.2,0l0-0.2c0.1-3.2,0.3-6.5,0.7-9.7c0.4-3.2,1-6.4,2-9.5c1-3.1,2.4-6.1,4.7-8.5
				c1.2-1.2,2.6-2.1,4.2-2.5c1.6-0.5,3.3-0.4,4.9-0.1l-0.2,0.2c-0.7-2.2-1.4-4.3-2.2-6.4l0.1,0.1c-8.1-0.4-16.2-1.1-24.3-2.5
				c-8-1.4-15.9-3.4-23.6-6.3l-0.1,0l0-0.1c-1.4-17.3-1.4-34.7,1.3-51.9c0.7-4.3,1.5-8.5,2.4-12.8c0.9-4.2,1.9-8.5,2.4-12.7
				c0.6-4.3,0.5-8.6-0.8-12.7c-1.2-4.1-3.5-7.9-6-11.3l0,0l0,0c-3.9-6.4-7.3-13-11.8-19c-4.4-6-9.9-11.1-16.3-14.8
				c-3.2-1.8-6.6-3.4-10.1-4.6c-3.5-1.1-7.2-1.8-10.8-2.4c-3.7-0.6-7.4-1.1-11-1.9c-3.7-0.8-7.3-1.9-10.7-3.4
				c-6.9-3-13.1-7.5-18.5-12.6c-2.7-2.6-5.3-5.3-7.7-8.2c-2.5-2.9-4.2-6.4-5.1-10c-0.9-3.7-1.2-7.5-0.9-11.2c0.3-3.8,1.1-7.4,2.2-11
				c2.2-7.2,5.7-13.9,9.8-20.1c8.3-12.5,19.1-23.1,31-32c12-9,25.1-16.2,38.9-22C127.1,34.5,157,29.2,186.8,28.9z"/>
			<path d="M163.1,329c3.8-0.5,7.8-0.4,11.6,0.6c3.8,1,7.3,2.9,10.4,5.3c3.1,2.4,5.7,5.3,8.2,8.2c2.5,3,4.9,6,7.2,9.1l-0.4,0.3
				c-4.6-6.1-9.6-12.1-15.6-16.7c-3-2.3-6.3-4.2-9.9-5.5c-1.8-0.6-3.7-1.1-5.6-1.3C166.9,328.8,165,328.9,163.1,329L163.1,329z
				 M163.1,329c3.8-0.6,7.8-0.4,11.5,0.7c3.8,1,7.3,3,10.4,5.3c3.1,2.3,5.9,5.1,8.4,8c2.5,2.9,4.8,6,7,9.2l-0.4,0.3
				c-2.2-3.2-4.4-6.3-7-9.2c-2.5-2.9-5.4-5.5-8.5-7.8c-3.1-2.3-6.4-4.2-10-5.4C170.8,329,166.9,328.6,163.1,329L163.1,329z"/>
		</g>
	</g>
	<linearGradient id="SVGID_4_" gradientUnits="userSpaceOnUse" x1="195.5244" y1="96.8154" x2="195.5244" y2="411.7167">
		<stop  offset="0" style="stop-color:#000000"/>
		<stop  offset="1" style="stop-color:#FFFFFF;stop-opacity:0"/>
	</linearGradient>
	<path class="st4" d="M186.8,29C58.4,30.6-2.5,121.1,23.9,152.1c26.4,31,43.5,21.5,63.1,30.2c19.6,8.7,26,24,33.8,36.8
		c18.2,25.4-4.9,30.1,0.6,101.6c13.5,5.2,29.2,8,47.8,8.8c0.7,1.9,1.4,4.1,2.2,6.5c-11.7-2.2-15.8,13-16.2,30.2
		c9.3,0.4,18.8,0.3,28.2-0.3c-0.7-4.4-1.6-8.6-2.8-12.3c1.2,3.7,2.1,7.9,2.8,12.3c38.1-2.5,79.1-8.5,110.7-30.5
		c-2.2-4.4-6.9-14.2-8.7-18.3c-11.3,2.1-22.7,1.1-35,4.9c12.2-3.8,23.7-2.8,35-4.9c-0.1-0.2-0.1-0.3-0.2-0.5
		c64.1-19.1,63.9-59.4,84.3-136C394.7,85.5,288.5,27.6,186.8,29z M163.1,329.1c17.1-2.4,28.3,11.1,37.1,23.3
		C191.4,340.2,179.4,326.8,163.1,329.1z"/>
	<g>
		<path class="st1" d="M163.1,329.1c16.4-2.3,28.3,11.1,37.1,23.3C191.4,340.2,180.1,326.7,163.1,329.1z"/>
		<g>
			<path d="M163.1,329c3.8-0.5,7.8-0.4,11.5,0.7c3.8,1,7.2,3,10.3,5.4c3.1,2.4,5.7,5.2,8.3,8.1c2.5,2.9,4.9,5.9,7.2,9l-0.4,0.3
				c-4.6-6.1-9.5-12.2-15.5-16.9c-3-2.3-6.4-4.2-10-5.4c-1.8-0.6-3.7-1-5.6-1.2C166.9,328.8,165,328.9,163.1,329L163.1,329z
				 M163.1,329c3.8-0.6,7.8-0.4,11.6,0.6c3.8,1,7.3,2.9,10.4,5.3c3.1,2.3,5.9,5.2,8.4,8.1c2.5,3,4.8,6.1,7,9.3l-0.4,0.3
				c-2.2-3.2-4.5-6.3-7.1-9.1c-2.6-2.9-5.4-5.4-8.5-7.7c-3.1-2.3-6.4-4.2-10-5.4C170.8,329,166.9,328.6,163.1,329L163.1,329z"/>
		</g>
	</g>
	<g>
		<path class="st1" d="M163.1,329.1c16.4-2.3,28.3,11.1,37.1,23.3C191.4,340.2,180.1,326.7,163.1,329.1z"/>
		<g>
			<path d="M163.1,329c3.8-0.5,7.8-0.4,11.5,0.7c3.8,1,7.2,3,10.3,5.4c3.1,2.4,5.7,5.2,8.3,8.1c2.5,2.9,4.9,5.9,7.2,9l-0.4,0.3
				c-4.6-6.1-9.5-12.2-15.5-16.9c-3-2.3-6.4-4.2-10-5.4c-1.8-0.6-3.7-1-5.6-1.2C166.9,328.8,165,328.9,163.1,329L163.1,329z
				 M163.1,329c3.8-0.6,7.8-0.4,11.6,0.6c3.8,1,7.3,2.9,10.4,5.3c3.1,2.3,5.9,5.2,8.4,8.1c2.5,3,4.8,6.1,7,9.3l-0.4,0.3
				c-2.2-3.2-4.5-6.3-7.1-9.1c-2.6-2.9-5.4-5.4-8.5-7.7c-3.1-2.3-6.4-4.2-10-5.4C170.8,329,166.9,328.6,163.1,329L163.1,329z"/>
		</g>
	</g>
	<g>
		<path class="st1" d="M163.1,329.1c16.4-2.3,28.3,11.1,37.1,23.3C191.4,340.2,180.1,326.7,163.1,329.1z"/>
		<g>
			<path d="M163.1,329c3.8-0.5,7.8-0.4,11.5,0.7c3.8,1,7.2,3,10.3,5.4c3.1,2.4,5.7,5.2,8.3,8.1c2.5,2.9,4.9,5.9,7.2,9l-0.4,0.3
				c-4.6-6.1-9.5-12.2-15.5-16.9c-3-2.3-6.4-4.2-10-5.4c-1.8-0.6-3.7-1-5.6-1.2C166.9,328.8,165,328.9,163.1,329L163.1,329z
				 M163.1,329c3.8-0.6,7.8-0.4,11.6,0.6c3.8,1,7.3,2.9,10.4,5.3c3.1,2.3,5.9,5.2,8.4,8.1c2.5,3,4.8,6.1,7,9.3l-0.4,0.3
				c-2.2-3.2-4.5-6.3-7.1-9.1c-2.6-2.9-5.4-5.4-8.5-7.7c-3.1-2.3-6.4-4.2-10-5.4C170.8,329,166.9,328.6,163.1,329L163.1,329z"/>
		</g>
	</g>
	<path class="st0" d="M186.8,29c-6.1,0.1-12,0.4-17.8,0.9c62.4,18.2,133.3,40,162.4,104.3C365.9,213,309.8,305,225.3,321.3
		c67.5,8.9,73.3,91.7,91.6,150.7c9.5,30.7-5.5,51.3-25.1,67.5c15.5-0.5,34.9-3.7,40.7-15.9c0,0,47.1,91.5,29.8-6.8
		c0,0,25.9-47.4-29.9-117.8c0,0-32.2-47.3-47-82.1c-11.3,2.1-22.7,1.1-35,4.9c12.2-3.8,23.7-2.8,35-4.9c-0.1-0.2-0.1-0.3-0.2-0.5
		c64.1-19.1,63.9-59.4,84.3-136C394.7,85.5,288.5,27.6,186.8,29z"/>
	<path class="st7" d="M22.3,115.3c-5.4,14.3-4.7,27.2,2.5,35.7c26.4,31,43.5,21.5,63.1,30.2c9.4,4.2,15.7,9.9,20.7,16.1
		C111.8,152,66.9,114.5,22.3,115.3z"/>
	<path class="st0" d="M110.1,119.9c0,0-41.6-58-36.6-103.7c0,0,91,22.7,109.5,26.3C183.1,42.5,184.2,126.1,110.1,119.9z"/>
	<g>
		<path class="st1" d="M108.7,115.3c0,0-41.6-58-36.6-103.7c0,0,91,22.7,109.5,26.3C181.7,37.9,182.8,121.5,108.7,115.3z"/>
		<g>
			<path d="M108.7,115.3c-5.4-7.6-10.3-15.6-14.8-23.7c-4.5-8.2-8.6-16.6-12.1-25.3c-3.5-8.7-6.4-17.6-8.3-26.8
				c-1.9-9.2-2.7-18.6-1.6-27.9l0-0.3l0.3,0.1c9.1,2.3,18.2,4.6,27.3,6.9l27.4,6.6l27.4,6.5c9.1,2.1,18.3,4.3,27.5,6.1l0.4,0.1
				l0,0.4c-0.1,10.2-1.7,20.4-4.6,30.1c-2.9,9.7-7.3,19.2-13.9,27.1c-3.2,3.9-7,7.5-11.2,10.4c-4.2,2.9-8.8,5.2-13.6,6.9
				C129.2,115.7,118.8,116.3,108.7,115.3L108.7,115.3L108.7,115.3z M108.7,115.3c10.1,0.7,20.4-0.1,29.9-3.4c4.8-1.7,9.3-4,13.4-6.9
				c4.1-2.9,7.8-6.4,10.9-10.4c6.3-7.9,10.7-17.1,13.6-26.8c1.4-4.8,2.5-9.8,3.3-14.8c0.8-5,1.3-10,1.3-15.1l0.4,0.5
				c-9.2-1.9-18.3-4.1-27.5-6.3l-27.4-6.7l-27.3-6.8l-27.4-6.7l0.3-0.2c-1,9.3,0,18.6,1.9,27.7c0.9,4.6,2.2,9.1,3.6,13.5
				c1.4,4.4,2.9,8.8,4.7,13.2C86,74.7,90,83.1,94.4,91.3C98.8,99.5,103.5,107.6,108.7,115.3z"/>
		</g>
	</g>
	<path class="st0" d="M72.2,11.6c0,0.2,0,0.5-0.1,0.7c32.5,9.5,73.7,21.2,78.9,53.5c3.5,21.6-12.1,36.4-32.6,49.8
		c64.2-1.6,63.3-77.6,63.3-77.6C163.2,34.3,72.2,11.6,72.2,11.6z"/>
	<path class="st11" d="M108,109.1c0,0-22.3-43.1-31.3-72c0,0,25.6,26.9,30.5,31.7C107.2,68.9,126.1,123.1,108,109.1z"/>
	<path class="st12" d="M80.2,130.7c-1.1,5.8-12.1,8.5-24.4,6c-12.3-2.4-21.4-9.1-20.3-14.9c1.1-5.8,12.1-8.5,24.4-6
		C72.3,118.3,81.4,125,80.2,130.7z"/>
	<path class="st10" d="M80.5,121.4c-0.4,2.1-4.5,3.1-9.2,2.1c-4.7-0.9-8.1-3.4-7.7-5.5c0.4-2.1,4.5-3.1,9.2-2.2
		C77.5,116.8,81,119.3,80.5,121.4z"/>
	<g>
		<path d="M76.2,35.5l7.9,8.2l7.9,8.2c2.6,2.7,5.2,5.5,7.8,8.3l7.8,8.3l0.1,0.1l0,0.1c1.5,3.4,2.8,6.9,3.9,10.4
			c1.2,3.5,2.2,7.1,3,10.7c0.8,3.6,1.3,7.3,1.3,11.1c0,1.9-0.2,3.7-0.6,5.5c-0.4,1.8-1.2,3.6-2.5,4.9c1.2-1.4,1.9-3.2,2.3-5
			c0.4-1.8,0.5-3.6,0.4-5.5c-0.1-3.7-0.8-7.3-1.6-10.9c-0.9-3.6-1.9-7.1-3.1-10.6c-1.2-3.5-2.5-7-4-10.3l0.1,0.1l-7.7-8.4
			c-2.6-2.8-5.2-5.6-7.7-8.4L83.8,44L76.2,35.5z"/>
	</g>
	<g>
		<path class="st3" d="M37.2,136c1.5-1.2,3.3-2.1,5.2-2.9c1.8-0.7,3.8-1.2,5.7-1.5c3.9-0.6,8-0.4,11.9,0.3
			c7.8,1.5,15.1,5.2,21.6,9.6c6.5,4.5,12.5,9.8,17.9,15.5c5.5,5.7,10.5,11.8,15.1,18.2c-2.5-3-5-6.1-7.6-9c-2.6-3-5.3-5.8-8.1-8.6
			c-5.6-5.6-11.4-10.8-17.9-15.2c-6.4-4.4-13.6-8-21.2-9.6c-3.8-0.8-7.8-1.1-11.6-0.6C44.3,132.6,40.5,133.8,37.2,136z"/>
	</g>
	<g>
		<path class="st3" d="M39.5,136.2c2-0.8,4.1-1.1,6.2-1.2c2.1-0.1,4.2,0.1,6.3,0.5c4.1,0.8,8.1,2.5,11.7,4.7
			c3.6,2.2,6.8,4.9,9.8,7.9c3,3,5.6,6.2,8.1,9.6c4.9,6.9,8.9,14.2,12.4,21.9c3.5,7.6,6.4,15.5,8.9,23.5c-1.5-3.9-2.9-7.8-4.5-11.7
			c-1.6-3.9-3.3-7.7-5.1-11.5c-3.6-7.5-7.6-14.9-12.5-21.6c-4.8-6.8-10.5-13-17.5-17.5c-3.5-2.2-7.3-4-11.4-4.9
			C47.9,135.1,43.6,134.9,39.5,136.2z"/>
	</g>
	<g>
		<path class="st3" d="M40.1,138c2.1,0.2,4.1,0.8,6.1,1.6c1.9,0.8,3.8,1.9,5.5,3.2c3.4,2.5,6.2,5.7,8.5,9.3
			c2.3,3.5,4.1,7.4,5.5,11.4c1.4,4,2.4,8.1,3.2,12.2c1.4,8.3,1.9,16.7,1.8,25.1c-0.1,8.4-0.9,16.7-2,25c0.4-4.2,0.7-8.3,0.9-12.5
			c0.2-4.2,0.4-8.3,0.4-12.5c0-8.3-0.5-16.7-2-24.9c-1.5-8.2-3.9-16.3-8.3-23.3c-2.2-3.5-4.9-6.7-8.2-9.3
			C48.1,140.5,44.3,138.6,40.1,138z"/>
	</g>
	<g>
		<path class="st3" d="M52.4,106.1c-1.5,4.3-3.8,7.1-8.2,5.7c-4.3-1.5-6.7-6.1-5.3-10.4c1.4-4.3,6.2-6.6,10.5-5.1
			C53.8,97.7,53.8,101.8,52.4,106.1z"/>
		<path class="st10" d="M42.7,102.7c-0.3,0.8-0.7,1.2-1.4,1c-0.8-0.3-1.2-1.1-0.9-1.8c0.3-0.7,1.1-1.1,1.8-0.9
			C42.9,101.3,43,102,42.7,102.7z"/>
	</g>
	<path class="st2" d="M30.7,132.7c-0.2,6.8-5.4,16.4-11.3,16.2c-5.9-0.2-10.3-10.1-10.1-16.9c0.2-6.8,5.6-9,11.1-12
		C27.4,116.2,30.9,125.9,30.7,132.7z"/>
	<path class="st10" d="M17.4,128.3c0.2,0.7-0.9,1.6-2.5,2.1c-1.6,0.5-3,0.3-3.2-0.4c-0.2-0.7,0.9-1.6,2.5-2.1S17.2,127.6,17.4,128.3
		z"/>
	<g>
		<path class="st1" d="M283.5,485.5c0,0-20.8-89.4,71.2-185.6c92-96.2,38.5-148.4,38.5-148.4s-2.7-19.2,18.4-10.3
			c0,0,58.4,65.3-41.5,170.9c-99.9,105.6-62.9,166.1-62.9,166.1S302.9,503.4,283.5,485.5z"/>
		<g>
			<path d="M283.5,485.5c-0.8-3.8-1.3-7.7-1.6-11.6c-0.3-3.9-0.5-7.8-0.5-11.7c0-7.8,0.4-15.6,1.4-23.3c2-15.5,5.8-30.7,11.2-45.3
				c5.4-14.7,12.2-28.7,20.3-42.1c4-6.7,8.4-13.2,12.9-19.5c4.6-6.3,9.5-12.4,14.5-18.3c5.1-5.9,10.4-11.6,15.8-17.3
				c5.3-5.7,10.4-11.5,15.3-17.6c9.7-12.2,18.4-25.2,25-39.3c3.3-7.1,6-14.4,7.9-21.9c1.9-7.5,3-15.3,2.9-23.1
				c-0.1-7.8-1.4-15.5-3.9-22.9c-1.3-3.7-2.9-7.2-4.8-10.6c-1.9-3.4-4.1-6.6-6.8-9.4l-0.1-0.1l0-0.1c-0.2-2.3-0.1-4.7,0.6-7
				c0.4-1.1,0.9-2.2,1.7-3.1c0.8-0.9,1.7-1.7,2.8-2.1c2.2-1,4.7-0.9,7-0.5c2.3,0.4,4.5,1.2,6.6,2.1l0.1,0l0,0
				c2.6,3.1,4.7,6.4,6.6,9.9c1.9,3.5,3.5,7.1,4.9,10.8c2.7,7.4,4.5,15.2,5.2,23.1c1.5,15.8-0.9,31.8-5.9,46.8
				c-5,15-12.5,29.2-21.2,42.3c-8.8,13.2-18.8,25.5-29.6,37c-10.9,11.4-21.2,23.4-30.6,36c-9.4,12.7-17.9,26-24.9,40.1
				c-6.9,14.1-12.2,29.2-14.4,44.8c-1.1,7.8-1.4,15.7-0.7,23.5c0.4,3.9,1,7.8,2,11.6c1,3.8,2.3,7.6,4.1,11l0,0.1l0,0.1
				c-0.6,2.8-1.5,5.4-2.9,7.9c-1.4,2.4-3.4,4.7-6.1,5.6c-1.4,0.4-2.8,0.5-4.2,0.2c-1.4-0.2-2.7-0.7-4-1.4
				C287.7,489.2,285.5,487.5,283.5,485.5L283.5,485.5L283.5,485.5z M283.6,485.5c2.1,1.9,4.3,3.6,6.7,4.9c2.4,1.2,5.4,2,8,1.1
				c2.7-0.9,4.6-3.1,5.9-5.5c1.3-2.4,2.2-5.1,2.8-7.8l0,0.1c-2-3.5-3.2-7.3-4.3-11.1c-1-3.8-1.7-7.7-2.1-11.7
				c-0.8-7.9-0.5-15.8,0.6-23.7c2.2-15.7,7.4-30.8,14.3-45.1c6.9-14.2,15.4-27.7,24.8-40.4c9.4-12.7,19.8-24.7,30.7-36.1
				c10.8-11.5,20.8-23.7,29.5-36.9c8.7-13.1,16.1-27.2,21.1-42.1c5-14.9,7.5-30.8,6-46.5c-0.7-7.8-2.4-15.6-5.1-23
				c-1.3-3.7-2.9-7.3-4.8-10.8c-1.9-3.4-4-6.8-6.5-9.8l0.1,0.1c-2.1-0.9-4.3-1.7-6.5-2.1c-2.2-0.4-4.6-0.5-6.7,0.4
				c-2.1,0.9-3.6,2.8-4.2,5c-0.7,2.2-0.8,4.5-0.6,6.7l-0.1-0.1c2.7,2.9,4.9,6.1,6.8,9.5c1.9,3.4,3.5,7,4.8,10.7
				c2.5,7.4,3.8,15.2,3.9,23c0.1,7.8-0.9,15.6-2.8,23.2c-1.9,7.6-4.6,14.9-7.8,22c-6.5,14.2-15.2,27.3-24.9,39.5
				c-4.8,6.1-10,12-15.3,17.7c-5.4,5.7-10.7,11.3-15.7,17.3c-5,5.9-9.9,12-14.4,18.3c-4.6,6.3-8.9,12.7-13,19.4
				c-8.1,13.3-15,27.3-20.4,41.9c-5.4,14.6-9.3,29.8-11.3,45.2c-1,7.7-1.6,15.5-1.6,23.3c0,3.9,0.1,7.8,0.4,11.7
				C282.4,477.8,282.8,481.7,283.6,485.5z"/>
		</g>
	</g>
	<path class="st0" d="M411.5,141.1c-4.6-1.9-7.9-2.5-10.5-2.3c24.3,22.7,21.1,68.2,6.5,96c-31.6,74.5-98.6,115.2-122.8,197.4
		c-0.4,2.4-0.8,3.2-1.1,3c-4.6,30.7,0,50.3,0,50.3c19.4,17.9,23.7-7.4,23.7-7.4s-37-60.5,62.9-166.1
		C470,206.4,411.5,141.1,411.5,141.1z"/>
</g>
</svg>
