<?xml version="1.0" encoding="utf-8"?>
<!-- Generator: Adobe Illustrator 15.1.0, SVG Export Plug-In . SVG Version: 6.00 Build 0)  -->
<!DOCTYPE svg PUBLIC "-//W3C//DTD SVG 1.1//EN" "http://www.w3.org/Graphics/SVG/1.1/DTD/svg11.dtd">
<svg version="1.1" id="animals" xmlns="http://www.w3.org/2000/svg" xmlns:xlink="http://www.w3.org/1999/xlink" x="0px" y="0px"
	 width="99px" height="78.3px" viewBox="0 0 99 78.3" style="enable-background:new 0 0 99 78.3;" xml:space="preserve">
<g>
	<g>
		<path d="M33.3,70.3c0.7-2.9,1.8-5.6,3.2-8.3c1.4-2.6,3-5.2,4.9-7.5c1.9-2.3,4.3-4.4,7.1-5.9c2.8-1.5,6-2.3,9.2-2.1
			c3.2,0.1,6.2,1.1,9,2.5c2.7,1.4,5.2,3.2,7.4,5.3c4.4,4,8,8.8,11,13.8c-4-4.3-8-8.5-12.5-12c-2.3-1.7-4.6-3.3-7.1-4.5
			c-2.5-1.2-5.2-2-7.8-2.1c-2.7-0.1-5.3,0.5-7.7,1.7c-2.5,1.2-4.6,2.9-6.6,4.9C39.2,60.1,36,65.1,33.3,70.3z"/>
	</g>
	<g>
		<path d="M90.9,29c-2.3,1.9-4.8,3.4-7.4,4.8c-2.7,1.3-5.5,2.4-8.4,3.1c-2.9,0.7-6.1,0.9-9.2,0.5c-3.1-0.4-6.2-1.7-8.6-3.7
			c-2.5-2-4.4-4.6-5.7-7.4c-1.3-2.8-2.3-5.7-2.8-8.6C47.5,11.8,47.4,5.8,48,0c0.7,5.8,1.4,11.6,2.9,17.1c0.8,2.7,1.7,5.4,3.1,7.9
			c1.3,2.4,3,4.7,5.1,6.3c2.1,1.7,4.6,2.8,7.2,3.3c2.7,0.5,5.5,0.4,8.3,0C80.2,33.7,85.6,31.6,90.9,29z"/>
	</g>
	<g>
		<path d="M24.3,6.9c2.4,1.7,4.5,3.8,6.5,6c2,2.2,3.7,4.7,5.1,7.3c1.4,2.7,2.5,5.6,2.8,8.7c0.4,3.1-0.1,6.4-1.4,9.3
			c-1.3,2.9-3.3,5.4-5.6,7.4c-2.3,2-4.9,3.6-7.6,4.9c-5.4,2.6-11.1,4.2-16.9,5.2c5.5-2.1,10.9-4.3,15.8-7.2c2.4-1.5,4.8-3.1,6.8-5
			c2-1.9,3.7-4.1,4.8-6.5c1.1-2.4,1.5-5.1,1.3-7.8c-0.2-2.7-1-5.4-2.1-8C31.5,16,28.1,11.2,24.3,6.9z"/>
	</g>
</g>
</svg>
