<?xml version="1.0" encoding="utf-8"?>
<!-- Generator: Adobe Illustrator 15.1.0, SVG Export Plug-In . SVG Version: 6.00 Build 0)  -->
<!DOCTYPE svg PUBLIC "-//W3C//DTD SVG 1.1//EN" "http://www.w3.org/Graphics/SVG/1.1/DTD/svg11.dtd">
<svg version="1.1" id="checkered" xmlns="http://www.w3.org/2000/svg" xmlns:xlink="http://www.w3.org/1999/xlink" x="0px" y="0px"
	 width="1025px" height="107.5px" viewBox="0 0 1025 107.5" style="enable-background:new 0 0 1025 107.5;" xml:space="preserve">
<style type="text/css">
<![CDATA[
	.st0{fill:#FFFFFF;}
]]>
</style>
<g>
	<g>
		<g>
			<path class="st0" d="M-264.8,91.3c-42.8,5.1-86.8,10.4-132.2,16.1c6.5-6.4,13.4-12.8,20.7-19.2c45.8-5.9,90.1-11.5,133-16.7
				C-250.9,78.1-258,84.7-264.8,91.3z"/>
			<path d="M-264.8,91.3c-10.7,1.3-21.4,2.6-32.2,3.9c-10.8,1.3-21.8,2.6-32.8,4c-11,1.3-22.2,2.7-33.4,4.1
				c-11.3,1.4-22.6,2.8-34,4.2c-0.2,0-0.3,0-0.5,0.1c0,0,0.1-0.1,0.1-0.1c3.4-3.2,6.8-6.4,10.2-9.6c3.4-3.2,6.9-6.4,10.6-9.5
				c0,0,0.1,0,0.1-0.1c0.1,0,0.3,0,0.4-0.1c23-3,45.7-5.8,68-8.6c11.1-1.4,22-2.8,32.9-4.1c10.8-1.4,21.5-2.7,32.2-4
				c0.2,0,0.5-0.1,0.7-0.1c-0.1,0-0.1,0.1-0.2,0.1c-3.8,3.3-7.6,6.6-11.3,9.9c-1.8,1.7-3.6,3.3-5.4,5C-261.2,88-263,89.6-264.8,91.3
				z M-264.9,91.3c1.6-1.6,3.2-3.3,4.8-4.9c1.7-1.6,3.4-3.3,5.1-4.9c3.5-3.3,7.1-6.6,10.8-9.9c0.2,0,0.3,0,0.5,0.1
				c-10.6,1.3-21.4,2.7-32.2,4c-10.9,1.4-21.8,2.7-32.9,4.1c-22.2,2.8-44.9,5.6-67.9,8.5c0.2,0,0.3-0.1,0.5-0.1
				c-3.7,3.2-7.4,6.4-10.9,9.6c-3.4,3.2-6.6,6.4-9.7,9.6c-0.1,0-0.3,0-0.4,0c11.5-1.4,22.8-2.8,34.1-4.2c11.2-1.4,22.3-2.7,33.4-4.1
				c11-1.3,21.9-2.6,32.7-3.9C-286.1,93.8-275.5,92.5-264.9,91.3z"/>
		</g>
		<g>
			<path d="M-397.1,107.4c-46.4,5.6-94.1,11.6-143.4,17.8c5.9-6.2,12.3-12.3,19-18.5c49.9-6.5,98.3-12.6,145.1-18.5
				C-383.7,94.6-390.6,101-397.1,107.4z"/>
			<path d="M-397,107.4c-11.5,1.4-23.2,2.9-34.9,4.4c-11.7,1.5-23.6,2.9-35.5,4.4c-12,1.5-24,3-36.2,4.5c-12.2,1.5-24.5,3-36.9,4.6
				c-0.2,0-0.4,0-0.5,0.1c0,0,0.1-0.1,0.1-0.1c3.1-3.1,6.2-6.2,9.4-9.3c3.1-3.1,6.4-6.1,9.7-9.2c0,0,0.1,0,0.1-0.1
				c0.1,0,0.3,0,0.4-0.1c25.1-3.3,49.9-6.4,74.2-9.5c12.1-1.5,24-3.1,35.9-4.6c11.8-1.5,23.5-3,35.1-4.5c0.3,0,0.5-0.1,0.8-0.1
				c-0.1,0-0.1,0.1-0.2,0.1c-3.8,3.2-7.4,6.4-11,9.6c-1.8,1.6-3.5,3.2-5.2,4.8C-393.6,104.1-395.3,105.8-397,107.4z M-397.1,107.4
				c1.5-1.6,3-3.2,4.6-4.7c1.6-1.6,3.3-3.2,4.9-4.8c3.4-3.2,6.9-6.4,10.5-9.5c0.2,0,0.4,0,0.6,0c-11.6,1.5-23.3,3-35.1,4.5
				c-11.9,1.5-23.8,3-35.9,4.6c-24.3,3.1-49,6.2-74,9.4c0.2,0,0.4-0.1,0.5-0.1c-3.5,3.1-6.8,6.2-10.1,9.2c-3.1,3.1-6,6.1-8.8,9.2
				c-0.2,0-0.3,0-0.5,0c12.4-1.6,24.7-3.1,37-4.6c12.2-1.5,24.2-3,36.2-4.5c11.9-1.5,23.7-2.9,35.4-4.4
				C-420.1,110.2-408.6,108.7-397.1,107.4z"/>
		</g>
		<g>
			<path class="st0" d="M-29.7,64.5c-36.6,3.9-74.3,8-113,12.5c6.8-6.8,13.8-13.6,21.2-20.4c38.5-4.7,75.9-9,112.1-13
				C-16.5,50.5-23.2,57.5-29.7,64.5z"/>
			<path d="M-29.7,64.5c-9.1,1-18.3,2-27.6,3c-9.3,1-18.6,2-28,3.1c-9.4,1-18.9,2.1-28.5,3.2c-9.6,1.1-19.3,2.2-29,3.3
				c-0.1,0-0.3,0-0.4,0c0,0,0.1-0.1,0.1-0.1c3.5-3.4,7-6.8,10.5-10.2c3.5-3.4,7.1-6.8,10.8-10.2c0,0,0.1-0.1,0.1-0.1
				c0.1,0,0.2,0,0.3,0c19.4-2.4,38.5-4.6,57.2-6.8c9.3-1.1,18.6-2.2,27.7-3.2c9.1-1,18.2-2.1,27.1-3.1c0.2,0,0.4,0,0.6-0.1
				c-0.1,0.1-0.1,0.1-0.2,0.2c-3.6,3.5-7.1,7-10.6,10.5c-1.7,1.8-3.4,3.5-5.1,5.3C-26.3,61-28,62.8-29.7,64.5z M-29.8,64.5
				c1.5-1.7,3.1-3.5,4.6-5.2c1.6-1.7,3.2-3.5,4.9-5.2c3.3-3.5,6.7-7,10.2-10.4c0.1,0,0.3,0.1,0.4,0.1c-9,1-18,2-27.2,3.1
				c-9.2,1-18.4,2.1-27.7,3.2c-18.7,2.2-37.8,4.4-57.1,6.7c0.1,0,0.3-0.1,0.4-0.1c-3.8,3.4-7.5,6.8-11.1,10.2
				c-3.5,3.4-6.8,6.8-10,10.2c-0.1,0-0.2,0-0.3-0.1c9.8-1.1,19.5-2.2,29.1-3.3c9.6-1.1,19.1-2.1,28.5-3.2c9.4-1,18.7-2,27.9-3
				C-47.9,66.4-38.8,65.4-29.8,64.5z"/>
		</g>
		<g>
			<path d="M-142.7,77c-39.5,4.5-80.2,9.2-122.1,14.3c6.8-6.6,13.9-13.2,21.4-19.8c42-5.3,82.6-10.2,121.9-14.9
				C-128.9,63.4-136,70.2-142.7,77z"/>
			<path d="M-142.7,77c-9.8,1.1-19.8,2.3-29.8,3.5c-10,1.2-20.1,2.3-30.2,3.6c-10.2,1.2-20.5,2.4-30.8,3.6
				c-10.4,1.2-20.9,2.5-31.4,3.7c-0.2,0-0.3,0-0.5,0.1c0,0,0.1-0.1,0.1-0.1c3.5-3.3,7-6.6,10.6-9.9c3.6-3.3,7.2-6.6,10.9-9.9
				c0,0,0.1-0.1,0.1-0.1c0.1,0,0.3,0,0.4,0c21.1-2.7,41.9-5.2,62.3-7.7c10.1-1.2,20.2-2.5,30.2-3.7c9.9-1.2,19.7-2.4,29.5-3.5
				c0.2,0,0.4-0.1,0.6-0.1c-0.1,0-0.1,0.1-0.2,0.1c-3.8,3.4-7.5,6.8-11.1,10.2c-1.8,1.7-3.6,3.4-5.3,5.1
				C-139.2,73.6-140.9,75.3-142.7,77z M-142.8,77c1.6-1.7,3.2-3.4,4.8-5.1c1.7-1.7,3.4-3.4,5.1-5.1c3.5-3.4,7.1-6.8,10.7-10.2
				c0.2,0,0.3,0,0.5,0.1c-9.8,1.2-19.6,2.4-29.5,3.6c-10,1.2-20,2.4-30.1,3.7c-20.4,2.5-41.1,5-62.2,7.6c0.2,0,0.3-0.1,0.5-0.1
				c-3.8,3.3-7.6,6.6-11.2,9.9c-3.5,3.3-6.8,6.6-10.1,9.9c-0.1,0-0.2,0-0.4,0c10.6-1.3,21.1-2.5,31.5-3.8
				c10.3-1.2,20.6-2.4,30.8-3.6c10.1-1.2,20.2-2.3,30.2-3.5C-162.4,79.2-152.5,78.1-142.8,77z"/>
		</g>
		<g>
			<path class="st0" d="M173.8,45c-32,2.6-64.8,5.6-98.4,8.8c6-7.2,12.2-14.3,18.6-21.4c32.9-3.4,65-6.5,96.2-9.2
				C184.6,30.5,179.1,37.7,173.8,45z"/>
			<path d="M173.9,45.1c-8,0.7-16.1,1.4-24.2,2.1c-8.1,0.7-16.2,1.4-24.4,2.2c-8.2,0.7-16.5,1.5-24.8,2.3
				c-8.3,0.8-16.7,1.6-25.2,2.3c-0.1,0-0.2,0-0.4,0c0,0,0.1-0.1,0.1-0.1c3.1-3.6,6.2-7.2,9.3-10.7c3.1-3.6,6.2-7.1,9.4-10.7
				c0,0,0.1-0.1,0.1-0.1c0.1,0,0.2,0,0.3,0c16.5-1.7,32.9-3.4,49-4.9c8-0.8,15.9-1.5,23.8-2.3c7.9-0.7,15.7-1.4,23.4-2.1
				c0.2,0,0.3,0,0.5,0c0,0.1-0.1,0.1-0.1,0.2c-2.9,3.6-5.7,7.3-8.5,10.9c-1.4,1.8-2.8,3.7-4.1,5.5C176.6,41.4,175.2,43.2,173.9,45.1
				z M173.8,45c1.2-1.8,2.5-3.6,3.8-5.4c1.3-1.8,2.6-3.6,4-5.5c2.7-3.6,5.4-7.3,8.2-10.9c0.1,0,0.3,0.1,0.4,0.1
				c-7.8,0.7-15.6,1.4-23.5,2.1c-7.9,0.7-15.8,1.5-23.8,2.2c-16.1,1.5-32.4,3.1-48.9,4.8c0.1,0,0.2-0.1,0.4-0.1
				c-3.3,3.6-6.5,7.2-9.7,10.7c-3.1,3.6-6,7.1-8.9,10.7c-0.1,0-0.2,0-0.3-0.1c8.5-0.8,16.9-1.6,25.2-2.4c8.3-0.8,16.6-1.5,24.8-2.2
				c8.2-0.7,16.3-1.4,24.4-2.1C157.9,46.3,165.9,45.7,173.8,45z"/>
		</g>
		<g>
			<path d="M75.4,53.8C41.3,57.1,6.3,60.6-29.7,64.5c6.5-7,13.2-14,20.2-21c35.5-4,70-7.8,103.5-11.2C87.6,39.5,81.4,46.7,75.4,53.8
				z"/>
			<path d="M75.4,53.9c-8.5,0.8-17.1,1.7-25.7,2.6c-8.6,0.9-17.3,1.7-26.1,2.6C14.9,60,6,60.9-2.9,61.8c-8.9,0.9-17.9,1.9-26.9,2.8
				c-0.1,0-0.3,0-0.4,0c0,0,0.1-0.1,0.1-0.1c3.3-3.5,6.7-7,10.1-10.5c3.4-3.5,6.8-7,10.3-10.5c0,0,0.1-0.1,0.1-0.1
				c0.1,0,0.2,0,0.3,0c17.9-2,35.4-4,52.8-5.9c8.6-0.9,17.1-1.8,25.6-2.7c8.4-0.9,16.8-1.8,25.1-2.6c0.2,0,0.4,0,0.5-0.1
				c0,0.1-0.1,0.1-0.1,0.2c-3.3,3.6-6.5,7.2-9.7,10.7c-1.6,1.8-3.1,3.6-4.7,5.4C78.5,50.3,77,52.1,75.4,53.9z M75.4,53.8
				c1.4-1.8,2.8-3.6,4.3-5.3c1.5-1.8,3-3.6,4.5-5.4c3.1-3.6,6.2-7.1,9.3-10.7c0.1,0,0.3,0.1,0.4,0.1c-8.3,0.9-16.7,1.7-25.1,2.6
				c-8.5,0.9-17,1.8-25.6,2.7c-17.3,1.8-34.8,3.8-52.7,5.8c0.1,0,0.3-0.1,0.4-0.1c-3.6,3.5-7.1,7-10.5,10.5c-3.3,3.5-6.5,7-9.6,10.5
				c-0.1,0-0.2,0-0.3-0.1c9.1-1,18.1-1.9,27-2.9c8.9-0.9,17.7-1.8,26.5-2.7c8.7-0.9,17.4-1.7,26-2.6C58.4,55.4,66.9,54.6,75.4,53.8z
				"/>
		</g>
		<g>
			<path class="st0" d="M355.9,33.1c-29.2,1.3-58.9,3-89,5c4.4-7.4,9-14.8,13.7-22.2c29.2-2.1,57.8-3.9,86-5.3
				C363,18.1,359.4,25.6,355.9,33.1z"/>
			<path d="M355.9,33.2c-7.3,0.4-14.7,0.7-22,1.1c-7.4,0.4-14.7,0.8-22.2,1.2c-7.4,0.4-14.9,0.9-22.4,1.3c-7.5,0.5-15,0.9-22.6,1.4
				c-0.1,0-0.2,0-0.3,0c0,0,0-0.1,0.1-0.1c2.3-3.7,4.6-7.4,6.9-11.1c2.3-3.7,4.6-7.4,6.9-11.1c0,0,0-0.1,0.1-0.1c0.1,0,0.2,0,0.3,0
				c14.6-1.1,29.1-2.1,43.5-3c7.2-0.4,14.3-0.9,21.4-1.3c7.1-0.4,14.1-0.8,21.2-1.1c0.2,0,0.3,0,0.5,0c0,0.1-0.1,0.1-0.1,0.2
				c-1.9,3.8-3.7,7.5-5.6,11.3c-0.9,1.9-1.8,3.8-2.7,5.6C357.8,29.4,356.9,31.3,355.9,33.2z M355.9,33.1c0.8-1.9,1.6-3.7,2.4-5.6
				c0.9-1.9,1.7-3.8,2.6-5.6c1.7-3.8,3.5-7.5,5.3-11.3c0.1,0,0.3,0.1,0.4,0.1c-7,0.4-14.1,0.7-21.2,1.1c-7.1,0.4-14.2,0.8-21.4,1.2
				c-14.3,0.9-28.8,1.8-43.4,2.8c0.1,0,0.2-0.1,0.3-0.1c-2.4,3.7-4.8,7.4-7.1,11.1c-2.3,3.7-4.4,7.4-6.5,11.1
				c-0.1,0-0.2-0.1-0.3-0.1c7.6-0.5,15.1-1,22.6-1.5c7.5-0.5,14.9-0.9,22.3-1.3c7.4-0.4,14.8-0.8,22.1-1.1
				C341.3,33.8,348.6,33.4,355.9,33.1z"/>
		</g>
		<g>
			<path d="M266.9,38.1c-30.4,2-61.4,4.3-93,6.9c5.3-7.3,10.8-14.6,16.4-21.9c30.8-2.8,60.9-5.2,90.4-7.3
				C275.9,23.3,271.3,30.7,266.9,38.1z"/>
			<path d="M266.9,38.1c-7.6,0.5-15.2,1.1-22.9,1.6c-7.7,0.5-15.4,1.1-23.1,1.7c-7.8,0.6-15.6,1.2-23.4,1.8
				c-7.9,0.6-15.8,1.2-23.7,1.9c-0.1,0-0.2,0-0.3,0c0,0,0.1-0.1,0.1-0.1c2.7-3.7,5.5-7.3,8.2-11c2.7-3.6,5.5-7.3,8.3-10.9
				c0,0,0-0.1,0.1-0.1c0.1,0,0.2,0,0.3,0c15.5-1.4,30.8-2.7,45.9-4c7.5-0.6,15-1.2,22.4-1.8c7.4-0.6,14.8-1.1,22.1-1.6
				c0.2,0,0.3,0,0.5,0c0,0.1-0.1,0.1-0.1,0.2c-2.4,3.7-4.8,7.4-7.2,11.1c-1.2,1.9-2.3,3.7-3.5,5.6C269.3,34.4,268.1,36.3,266.9,38.1
				z M266.8,38.1c1-1.8,2.1-3.7,3.1-5.5c1.1-1.9,2.2-3.7,3.3-5.6c2.2-3.7,4.5-7.4,6.8-11.1c0.1,0,0.2,0.1,0.4,0.1
				c-7.3,0.5-14.7,1.1-22.1,1.6c-7.4,0.6-14.9,1.1-22.4,1.7c-15.1,1.2-30.3,2.5-45.8,3.8c0.1,0,0.2-0.1,0.3-0.1
				c-2.9,3.6-5.7,7.3-8.5,10.9c-2.7,3.6-5.3,7.3-7.8,10.9c-0.1,0-0.2-0.1-0.3-0.1c8-0.7,15.9-1.3,23.7-1.9
				c7.8-0.6,15.6-1.2,23.4-1.8c7.7-0.6,15.4-1.1,23.1-1.6C251.7,39.1,259.3,38.6,266.8,38.1z"/>
		</g>
		<g>
			<path class="st0" d="M527.3,29.1c-28.3,0-56.6,0.3-85.1,1c2.5-7.6,5-15.2,7.5-22.8c27.4-0.7,54.6-1.1,81.8-1.2
				C530.2,13.8,528.7,21.5,527.3,29.1z"/>
			<path d="M527.4,29.1c-7.1,0-14.2,0.1-21.3,0.1c-7.1,0.1-14.2,0.1-21.3,0.2c-7.1,0.1-14.2,0.2-21.3,0.3
				c-7.1,0.1-14.2,0.3-21.3,0.4c-0.1,0-0.2,0-0.3,0c0,0,0-0.1,0-0.1c1.3-3.8,2.6-7.6,3.9-11.4c1.2-3.8,2.4-7.6,3.7-11.4
				c0,0,0-0.1,0-0.1c0.1,0,0.2,0,0.2,0c13.7-0.4,27.4-0.7,41-0.9c6.8-0.1,13.6-0.2,20.4-0.2C518,6,524.8,6,531.6,6
				c0.1,0,0.3,0,0.4,0c0,0.1,0,0.1,0,0.2c-0.7,3.8-1.5,7.7-2.2,11.5c-0.4,1.9-0.8,3.8-1.1,5.7C528.2,25.3,527.8,27.2,527.4,29.1z
				 M527.3,29.1c0.3-1.9,0.6-3.8,0.9-5.7c0.3-1.9,0.7-3.8,1-5.7c0.7-3.8,1.3-7.7,1.9-11.5c0.1,0.1,0.3,0.1,0.4,0.2
				c-6.8,0-13.6,0-20.4,0.1c-6.8,0.1-13.6,0.1-20.4,0.2c-13.6,0.2-27.3,0.4-41,0.8c0.1,0,0.2-0.1,0.3-0.1c-1.3,3.8-2.6,7.6-3.9,11.4
				c-1.2,3.8-2.4,7.6-3.6,11.4c-0.1,0-0.2-0.1-0.3-0.1c7.1-0.2,14.2-0.3,21.3-0.5c7.1-0.1,14.2-0.2,21.3-0.3
				c7.1-0.1,14.2-0.1,21.2-0.2C513.2,29.1,520.2,29.1,527.3,29.1z"/>
		</g>
		<g>
			<path d="M442.2,30.1c-28.5,0.7-57.3,1.7-86.3,3c3.5-7.5,7.1-15,10.7-22.5c28-1.4,55.7-2.5,83.1-3.3
				C447.2,14.9,444.7,22.5,442.2,30.1z"/>
			<path d="M442.3,30.1c-7.1,0.2-14.3,0.4-21.5,0.6c-7.2,0.2-14.3,0.5-21.5,0.7c-7.2,0.3-14.4,0.5-21.6,0.8
				c-7.2,0.3-14.5,0.6-21.8,0.9c-0.1,0-0.2,0-0.3,0c0,0,0-0.1,0.1-0.1c1.8-3.8,3.7-7.5,5.4-11.3c1.8-3.8,3.5-7.5,5.3-11.3
				c0,0,0-0.1,0-0.1c0.1,0,0.2,0,0.2,0c14-0.7,28-1.4,41.9-2c6.9-0.3,13.8-0.5,20.7-0.8c6.9-0.2,13.7-0.4,20.6-0.6
				c0.1,0,0.3,0,0.4,0c0,0.1,0,0.1-0.1,0.2c-1.3,3.8-2.6,7.6-3.9,11.4c-0.7,1.9-1.3,3.8-2,5.7C443.6,26.3,443,28.2,442.3,30.1z
				 M442.2,30.1c0.6-1.9,1.1-3.8,1.7-5.7c0.6-1.9,1.2-3.8,1.8-5.7c1.2-3.8,2.4-7.6,3.6-11.4c0.1,0.1,0.3,0.1,0.4,0.2
				c-6.9,0.2-13.7,0.4-20.6,0.6c-6.9,0.2-13.8,0.5-20.7,0.7c-13.9,0.5-27.8,1.1-41.8,1.8c0.1,0,0.2-0.1,0.3-0.1
				c-1.9,3.8-3.7,7.5-5.5,11.3c-1.8,3.8-3.4,7.5-5.1,11.3c-0.1,0-0.2-0.1-0.3-0.1c7.3-0.4,14.6-0.7,21.8-1
				c7.2-0.3,14.4-0.6,21.6-0.8c7.2-0.2,14.3-0.5,21.5-0.7C428,30.4,435.1,30.3,442.2,30.1z"/>
		</g>
		<g>
			<path class="st0" d="M699.3,33.2c-29.2-1.4-58.1-2.4-86.8-3.1c0.4-7.7,0.7-15.4,1-23c27.6,0.7,55.5,1.7,83.7,3.1
				C698,17.8,698.7,25.5,699.3,33.2z"/>
			<path d="M699.3,33.2c-7.3-0.3-14.7-0.6-22-0.9c-7.3-0.3-14.5-0.6-21.7-0.8c-7.2-0.3-14.4-0.5-21.6-0.7
				c-7.2-0.2-14.3-0.4-21.5-0.6c-0.1,0-0.2,0-0.3,0c0,0,0-0.1,0-0.1c0.3-3.8,0.5-7.7,0.7-11.5c0.1-3.8,0.2-7.7,0.3-11.5
				c0,0,0-0.1,0-0.1c0.1,0,0.2,0,0.2,0c13.8,0.3,27.6,0.7,41.5,1.2c7,0.3,14,0.5,21,0.8c7,0.3,14.1,0.6,21.2,1c0.2,0,0.3,0,0.5,0
				c0,0.1,0,0.1,0,0.2c0.4,3.8,0.7,7.7,1,11.5c0.1,1.9,0.3,3.8,0.4,5.8C699.2,29.4,699.3,31.3,699.3,33.2z M699.2,33.2
				c-0.2-1.9-0.4-3.8-0.6-5.8c-0.2-1.9-0.4-3.8-0.6-5.8c-0.4-3.8-0.9-7.7-1.3-11.5c0.2,0.1,0.3,0.1,0.5,0.2
				c-7.1-0.3-14.1-0.7-21.2-1c-7-0.3-14-0.6-21-0.8c-13.9-0.5-27.7-1-41.5-1.3c0.1,0,0.2-0.1,0.2-0.1c-0.2,3.8-0.3,7.7-0.5,11.5
				c-0.2,3.8-0.3,7.7-0.4,11.5c-0.1,0-0.2-0.1-0.3-0.1c7.2,0.1,14.3,0.3,21.5,0.5c7.2,0.2,14.4,0.5,21.6,0.7
				c7.2,0.3,14.5,0.6,21.7,0.9C684.6,32.5,691.9,32.8,699.2,33.2z"/>
		</g>
		<g>
			<path d="M612.5,30.1c-28.5-0.7-56.9-1-85.2-1c1.4-7.7,2.8-15.3,4.2-23c27.2,0,54.5,0.3,82,0.9C613.2,14.8,612.9,22.4,612.5,30.1z
				"/>
			<path d="M612.6,30.1c-7.2-0.1-14.3-0.3-21.4-0.4c-7.1-0.1-14.2-0.2-21.3-0.3c-7.1-0.1-14.2-0.1-21.3-0.2
				c-7.1,0-14.2-0.1-21.2-0.1c-0.1,0-0.2,0-0.3,0c0,0,0-0.1,0-0.1c0.8-3.8,1.6-7.7,2.3-11.5c0.7-3.8,1.3-7.7,2-11.5c0,0,0-0.1,0-0.1
				c0.1,0,0.2,0,0.2,0c13.6,0,27.2,0,40.9,0.1c6.8,0.1,13.7,0.2,20.5,0.3c6.9,0.1,13.7,0.3,20.6,0.4c0.1,0,0.3,0,0.4,0
				c0,0.1,0,0.1,0,0.2c-0.2,3.8-0.4,7.7-0.6,11.5c-0.1,1.9-0.2,3.8-0.3,5.8C612.9,26.3,612.7,28.2,612.6,30.1z M612.5,30.1
				c0-1.9,0.1-3.8,0.1-5.7c0.1-1.9,0.1-3.8,0.2-5.8c0.1-3.8,0.2-7.7,0.3-11.5c0.1,0.1,0.3,0.1,0.4,0.2c-6.9-0.2-13.7-0.3-20.6-0.4
				c-6.8-0.1-13.7-0.2-20.5-0.3c-13.6-0.2-27.3-0.3-40.9-0.3c0.1,0,0.2-0.1,0.3-0.1c-0.7,3.8-1.5,7.7-2.2,11.5
				c-0.7,3.8-1.3,7.7-2,11.5c-0.1,0-0.2-0.1-0.3-0.1c7.1,0,14.2,0,21.2,0c7.1,0,14.2,0.1,21.3,0.2c7.1,0.1,14.2,0.2,21.3,0.4
				C598.3,29.7,605.4,29.9,612.5,30.1z"/>
		</g>
		<g>
			<path class="st0" d="M882.9,45.8C851,43,819.7,40.5,789,38.4c-1.5-7.7-3.1-15.3-4.9-23c29.9,2.1,60.4,4.6,91.5,7.5
				C878.2,30.5,880.6,38.1,882.9,45.8z"/>
			<path d="M882.9,45.8c-8-0.7-16-1.3-24-2c-7.9-0.6-15.8-1.3-23.6-1.9c-7.8-0.6-15.6-1.2-23.3-1.8c-7.7-0.6-15.4-1.1-23-1.7
				c-0.1,0-0.2,0-0.3,0c0,0,0-0.1,0-0.1c-0.6-3.8-1.3-7.7-2.1-11.5c-0.9-3.8-1.8-7.7-2.8-11.5c0,0,0-0.1,0-0.1c0.1,0,0.2,0,0.3,0
				c14.9,1,29.9,2.2,45.1,3.4c7.6,0.6,15.3,1.3,23,1.9c7.8,0.7,15.6,1.4,23.4,2.1c0.2,0,0.3,0,0.5,0c0,0.1,0,0.1,0.1,0.2
				c1.3,3.8,2.5,7.6,3.7,11.4c0.6,1.9,1.1,3.8,1.7,5.7C882,42,882.4,43.9,882.9,45.8z M882.8,45.7c-0.6-1.9-1.2-3.8-1.8-5.7
				c-0.6-1.9-1.2-3.8-1.9-5.7c-1.3-3.8-2.7-7.6-4.1-11.5c0.2,0.1,0.4,0.1,0.6,0.2c-7.8-0.7-15.6-1.4-23.4-2.1
				c-7.7-0.7-15.4-1.3-23-2c-15.2-1.3-30.2-2.4-45.1-3.5c0.1,0,0.2,0,0.2-0.1c0.9,3.8,1.7,7.7,2.5,11.5c0.8,3.8,1.7,7.7,2.5,11.5
				c-0.1,0-0.2-0.1-0.4-0.1c7.6,0.5,15.3,1,23,1.6c7.7,0.6,15.5,1.2,23.3,1.8c7.8,0.6,15.7,1.3,23.6,1.9
				C866.8,44.3,874.8,45,882.8,45.7z"/>
		</g>
		<g>
			<path d="M789,38.4c-30.3-2.1-60.2-3.8-89.7-5.2c-0.6-7.7-1.3-15.4-2.1-23.1c28.5,1.4,57.4,3.1,86.9,5.3
				C785.8,23.1,787.5,30.8,789,38.4z"/>
			<path d="M789,38.4c-7.6-0.5-15.2-1-22.8-1.4c-7.5-0.5-15-0.9-22.5-1.3c-7.5-0.4-14.9-0.8-22.3-1.2c-7.4-0.4-14.8-0.8-22.1-1.1
				c-0.1,0-0.2,0-0.3,0c0,0,0-0.1,0-0.1c-0.2-3.8-0.4-7.7-0.8-11.5c-0.4-3.8-0.8-7.7-1.3-11.5c0,0,0-0.1,0-0.1c0.1,0,0.2,0,0.3,0
				c14.2,0.7,28.5,1.4,42.9,2.3c7.2,0.4,14.5,0.9,21.8,1.4c7.3,0.5,14.7,1,22.1,1.5c0.2,0,0.3,0,0.5,0c0,0.1,0,0.1,0,0.2
				c0.9,3.8,1.7,7.7,2.5,11.5c0.4,1.9,0.7,3.8,1.1,5.7C788.4,34.6,788.7,36.5,789,38.4z M788.9,38.4c-0.4-1.9-0.8-3.8-1.3-5.7
				c-0.4-1.9-0.8-3.8-1.3-5.8c-0.9-3.8-1.8-7.7-2.8-11.5c0.2,0.1,0.3,0.1,0.5,0.2c-7.4-0.5-14.8-1-22.1-1.5
				c-7.3-0.5-14.6-1-21.8-1.4c-14.4-0.9-28.7-1.7-43-2.4c0.1,0,0.2-0.1,0.2-0.1c0.4,3.8,0.8,7.7,1.1,11.5c0.4,3.8,0.7,7.7,1.1,11.5
				c-0.1,0-0.2-0.1-0.3-0.1c7.3,0.3,14.7,0.7,22.1,1.1c7.4,0.4,14.8,0.8,22.3,1.2c7.5,0.4,15,0.9,22.5,1.4
				C773.7,37.3,781.3,37.9,788.9,38.4z"/>
		</g>
		<g>
			<path class="st0" d="M1088.6,67c-36.3-4.3-71.7-8.2-106.3-11.7c-2.8-7.5-5.9-15.1-9.2-22.6c34,3.6,69,7.6,105,12
				C1082,52.1,1085.4,59.6,1088.6,67z"/>
			<path d="M1088.7,67c-9.2-1-18.3-2.1-27.3-3.1c-9-1-17.9-2-26.8-3c-8.8-1-17.6-1.9-26.3-2.8c-8.7-0.9-17.3-1.8-25.9-2.8
				c-0.1,0-0.2,0-0.4,0c0,0,0-0.1,0-0.1c-1.3-3.8-2.6-7.5-4.1-11.3c-1.6-3.8-3.3-7.6-5-11.3c0,0,0-0.1,0-0.1c0.1,0,0.2,0,0.3,0
				c16.9,1.8,34.1,3.7,51.5,5.7c8.8,1,17.6,2,26.5,3.1c8.9,1.1,18,2.1,27,3.2c0.2,0,0.4,0,0.6,0.1c0,0.1,0.1,0.1,0.1,0.2
				c1.9,3.7,3.6,7.4,5.3,11.1c0.8,1.9,1.6,3.7,2.4,5.6C1087.3,63.3,1088,65.2,1088.7,67z M1088.6,67c-0.8-1.9-1.7-3.7-2.6-5.6
				c-0.9-1.9-1.7-3.7-2.6-5.6c-1.8-3.7-3.8-7.5-5.7-11.2c0.2,0.1,0.5,0.2,0.7,0.2c-9.1-1.1-18.1-2.2-27-3.2
				c-8.9-1.1-17.7-2.1-26.5-3.1c-17.4-2-34.6-4-51.5-5.8c0.1,0,0.2,0,0.3-0.1c1.6,3.8,3.2,7.5,4.8,11.3c1.5,3.8,3,7.6,4.5,11.3
				c-0.1,0-0.3-0.1-0.4-0.1c8.6,0.9,17.2,1.8,25.9,2.7c8.7,0.9,17.5,1.9,26.3,2.9c8.9,1,17.8,2,26.8,3
				C1070.4,64.8,1079.4,65.9,1088.6,67z"/>
		</g>
		<g>
			<path d="M982.4,55.3c-33.9-3.5-67.1-6.7-99.5-9.5c-2.2-7.6-4.7-15.2-7.3-22.9c31.7,2.9,64.2,6.1,97.6,9.7
				C976.5,40.2,979.5,47.7,982.4,55.3z"/>
			<path d="M982.4,55.3c-8.5-0.9-17-1.7-25.5-2.5c-8.4-0.8-16.7-1.6-25-2.4c-8.3-0.8-16.5-1.6-24.7-2.3c-8.1-0.8-16.2-1.5-24.3-2.2
				c-0.1,0-0.2,0-0.4,0c0,0,0-0.1,0-0.1c-1-3.8-2.1-7.6-3.2-11.4c-1.3-3.8-2.6-7.6-4-11.5c0,0,0-0.1,0-0.1c0.1,0,0.2,0,0.3,0
				c15.8,1.4,31.8,2.9,47.9,4.5c8.1,0.8,16.3,1.6,24.6,2.5c8.3,0.9,16.6,1.7,25,2.7c0.2,0,0.4,0,0.5,0.1c0,0.1,0,0.1,0.1,0.2
				c1.6,3.8,3.2,7.5,4.7,11.3c0.7,1.9,1.4,3.8,2.1,5.6C981.2,51.5,981.8,53.4,982.4,55.3z M982.3,55.3c-0.7-1.9-1.5-3.8-2.3-5.7
				c-0.8-1.9-1.5-3.8-2.3-5.7c-1.6-3.8-3.3-7.6-5.1-11.3c0.2,0.1,0.4,0.1,0.6,0.2c-8.4-0.9-16.8-1.8-25-2.6
				c-8.3-0.9-16.5-1.7-24.6-2.5c-16.2-1.6-32.2-3.2-48-4.7c0.1,0,0.2,0,0.2-0.1c1.3,3.8,2.6,7.6,3.8,11.4c1.2,3.8,2.4,7.6,3.6,11.4
				c-0.1,0-0.3-0.1-0.4-0.1c8,0.7,16.1,1.4,24.3,2.1c8.2,0.8,16.4,1.5,24.7,2.3c8.3,0.8,16.7,1.6,25.1,2.5
				C965.3,53.5,973.8,54.4,982.3,55.3z"/>
		</g>
		<g>
			<path class="st0" d="M1326.2,97.2c-42.3-5.8-83.3-11.2-123.3-16.2c-3.3-7.3-7-14.6-10.9-21.9c39.9,5.2,81.1,10.8,123.6,16.7
				C1319.5,82.9,1323,90.1,1326.2,97.2z"/>
			<path d="M1326.3,97.2c-10.7-1.4-21.3-2.8-31.8-4.2c-10.4-1.4-20.8-2.8-31.1-4.1c-10.2-1.3-20.4-2.7-30.5-4
				c-10-1.3-20-2.6-29.9-3.9c-0.1,0-0.3,0-0.4-0.1c0,0,0-0.1,0-0.1c-1.5-3.6-3.1-7.3-4.9-10.9c-1.9-3.7-3.9-7.3-6-11
				c0,0,0-0.1,0-0.1c0.1,0,0.2,0,0.3,0c19.8,2.6,40,5.2,60.5,8c10.3,1.4,20.7,2.8,31.2,4.2c10.6,1.4,21.2,2.9,31.9,4.4
				c0.2,0,0.5,0.1,0.7,0.1c0,0.1,0.1,0.1,0.1,0.2c1.9,3.6,3.7,7.1,5.4,10.7c0.8,1.8,1.6,3.6,2.4,5.3
				C1324.9,93.7,1325.6,95.5,1326.3,97.2z M1326.1,97.2c-0.8-1.8-1.7-3.6-2.6-5.4c-0.9-1.8-1.8-3.6-2.7-5.4
				c-1.9-3.6-3.9-7.2-5.9-10.8c0.3,0.1,0.5,0.2,0.8,0.3c-10.7-1.5-21.3-3-31.9-4.4c-10.5-1.4-20.9-2.9-31.2-4.3
				c-20.5-2.8-40.7-5.5-60.6-8.1c0.1,0,0.2,0,0.3,0c2,3.7,3.9,7.3,5.7,11c1.8,3.7,3.6,7.3,5.3,11c-0.2-0.1-0.3-0.1-0.5-0.2
				c9.9,1.2,19.9,2.5,29.9,3.8c10.1,1.3,20.3,2.6,30.5,4c10.3,1.4,20.7,2.8,31.1,4.2C1304.9,94.3,1315.5,95.7,1326.1,97.2z"/>
		</g>
		<g>
			<path d="M1202.9,81c-39.1-5-77.2-9.7-114.2-14c-3.2-7.4-6.7-14.9-10.4-22.3c36.8,4.4,74.7,9.2,113.7,14.4
				C1195.9,66.4,1199.6,73.7,1202.9,81z"/>
			<path d="M1203,81c-9.9-1.2-19.7-2.4-29.4-3.6c-9.7-1.2-19.3-2.4-28.8-3.5c-9.5-1.2-18.9-2.3-28.3-3.4c-9.3-1.1-18.6-2.2-27.8-3.3
				c-0.1,0-0.3,0-0.4,0c0,0,0-0.1,0-0.1c-1.5-3.7-3-7.4-4.7-11.1c-1.8-3.7-3.7-7.5-5.7-11.2c0,0,0-0.1,0-0.1c0.1,0,0.2,0,0.3,0
				c18.3,2.2,36.8,4.5,55.7,6.8c9.5,1.2,19.1,2.4,28.7,3.7c9.7,1.3,19.5,2.5,29.3,3.8c0.2,0,0.4,0.1,0.6,0.1c0,0.1,0.1,0.1,0.1,0.2
				c1.9,3.6,3.8,7.3,5.6,10.9c0.9,1.8,1.7,3.6,2.5,5.5C1201.5,77.4,1202.2,79.2,1203,81z M1202.8,81c-0.9-1.8-1.8-3.7-2.7-5.5
				c-0.9-1.8-1.8-3.7-2.8-5.5c-1.9-3.7-4-7.3-6.1-11c0.2,0.1,0.5,0.2,0.7,0.2c-9.8-1.3-19.6-2.6-29.3-3.8
				c-9.6-1.3-19.2-2.5-28.7-3.7c-18.9-2.4-37.4-4.7-55.7-7c0.1,0,0.2,0,0.3,0c1.9,3.7,3.7,7.4,5.4,11.2c1.7,3.7,3.4,7.5,5.1,11.2
				c-0.1-0.1-0.3-0.1-0.4-0.2c9.2,1,18.4,2.1,27.8,3.2c9.4,1.1,18.8,2.3,28.3,3.4c9.5,1.2,19.2,2.4,28.8,3.6
				C1183.2,78.4,1193,79.7,1202.8,81z"/>
		</g>
		<g>
			<path class="st0" d="M1603.8,136.6c-49.5-7.3-97.5-14.3-144.3-20.9c-2.7-6.9-5.8-13.9-9.3-20.9c47.4,6.8,96.2,14,146.6,21.5
				C1599.5,123.2,1601.9,129.9,1603.8,136.6z"/>
			<path d="M1603.9,136.6c-12.5-1.8-24.9-3.6-37.2-5.4c-12.2-1.8-24.4-3.5-36.4-5.3c-12-1.7-23.9-3.4-35.7-5.1
				c-11.8-1.7-23.4-3.4-35-5c-0.2,0-0.3,0-0.5-0.1c0,0,0-0.1,0-0.1c-1.2-3.5-2.5-6.9-4-10.4c-1.7-3.5-3.4-7-5.3-10.5
				c0,0,0-0.1,0-0.1c0.1,0,0.3,0,0.4,0.1c23.5,3.4,47.4,6.8,71.7,10.4c12.2,1.8,24.6,3.6,37,5.4c12.5,1.8,25.1,3.7,37.8,5.6
				c0.3,0,0.6,0.1,0.8,0.1c0,0,0,0.1,0.1,0.1c1.3,3.4,2.5,6.7,3.7,10.1c0.5,1.7,1,3.3,1.5,5C1603.1,133.3,1603.5,135,1603.9,136.6z
				 M1603.7,136.6c-0.5-1.7-1.1-3.4-1.7-5.1c-0.6-1.7-1.2-3.4-1.8-5.1c-1.3-3.4-2.7-6.8-4.2-10.1c0.3,0.1,0.6,0.2,0.9,0.3
				c-12.7-1.9-25.3-3.8-37.8-5.6c-12.4-1.8-24.8-3.7-37-5.5c-24.3-3.6-48.2-7.1-71.8-10.5c0.1,0,0.2,0,0.4,0
				c1.7,3.5,3.4,6.9,4.9,10.4c1.5,3.5,3.1,7,4.5,10.5c-0.2-0.1-0.4-0.1-0.5-0.2c11.6,1.6,23.2,3.3,35,5c11.8,1.7,23.7,3.4,35.7,5.2
				c12.1,1.8,24.2,3.5,36.4,5.3C1578.9,132.9,1591.3,134.7,1603.7,136.6z"/>
		</g>
		<g>
			<path d="M1459.5,115.7c-45.7-6.6-90.2-12.7-133.3-18.5c-3.2-7.1-6.7-14.3-10.6-21.4c43.5,6,88.4,12.4,134.6,19.1
				C1453.7,101.9,1456.8,108.8,1459.5,115.7z"/>
			<path d="M1459.6,115.8c-11.5-1.6-23-3.2-34.4-4.8c-11.3-1.6-22.5-3.1-33.6-4.7c-11.1-1.5-22.1-3.1-33-4.5
				c-10.9-1.5-21.7-3-32.4-4.4c-0.2,0-0.3,0-0.5-0.1c0,0,0-0.1,0-0.1c-1.4-3.6-3-7.1-4.7-10.7c-1.9-3.6-3.8-7.2-5.9-10.8
				c0,0,0-0.1,0-0.1c0.1,0,0.3,0,0.4,0.1c21.6,3,43.6,6,65.8,9.2c11.2,1.6,22.6,3.2,34,4.8c11.5,1.6,23.1,3.3,34.7,5
				c0.3,0,0.5,0.1,0.8,0.1c0,0.1,0.1,0.1,0.1,0.2c1.7,3.5,3.3,6.9,4.8,10.4c0.7,1.7,1.4,3.5,2.1,5.2
				C1458.5,112.3,1459.1,114,1459.6,115.8z M1459.5,115.7c-0.7-1.7-1.5-3.5-2.3-5.2c-0.8-1.7-1.6-3.5-2.4-5.2
				c-1.7-3.5-3.5-7-5.3-10.5c0.3,0.1,0.6,0.2,0.8,0.3c-11.7-1.7-23.2-3.4-34.7-5c-11.4-1.6-22.8-3.3-34-4.9
				c-22.3-3.2-44.3-6.3-65.9-9.3c0.1,0,0.2,0,0.3,0c1.9,3.6,3.8,7.1,5.5,10.7c1.7,3.6,3.5,7.2,5.2,10.7c-0.2-0.1-0.3-0.1-0.5-0.2
				c10.7,1.4,21.5,2.9,32.3,4.4c10.9,1.5,21.9,3,33,4.6c11.1,1.6,22.4,3.1,33.7,4.7C1436.5,112.4,1447.9,114.1,1459.5,115.7z"/>
		</g>
		<g>
			<path class="st0" d="M-410.4,126.1c-45.7,5.4-92.8,11.1-141.1,17.1c4.8-6.2,10.1-12.4,15.7-18.5c49.1-6.2,96.8-12.1,143-17.8
				C-399,113.3-404.9,119.7-410.4,126.1z"/>
			<path d="M-410.3,126.1c-11.4,1.4-22.9,2.8-34.4,4.2c-11.6,1.4-23.2,2.8-35,4.2c-11.8,1.4-23.7,2.9-35.6,4.3
				c-12,1.5-24.1,2.9-36.3,4.4c-0.2,0-0.4,0-0.5,0.1c0,0,0-0.1,0.1-0.1c2.5-3.1,5.1-6.2,7.7-9.3c2.6-3.1,5.3-6.2,8.1-9.2
				c0,0,0,0,0.1-0.1c0.1,0,0.3,0,0.4-0.1c24.7-3.1,49-6.2,73-9.2c11.9-1.5,23.7-2.9,35.4-4.4c11.6-1.4,23.2-2.9,34.7-4.3
				c0.2,0,0.5-0.1,0.7-0.1c0,0-0.1,0.1-0.1,0.1c-3.2,3.2-6.4,6.4-9.4,9.6c-1.5,1.6-3,3.2-4.4,4.8
				C-407.4,122.8-408.9,124.5-410.3,126.1z M-410.5,126.1c1.3-1.6,2.5-3.2,3.8-4.8c1.4-1.6,2.7-3.2,4.1-4.8c2.9-3.2,5.9-6.4,8.9-9.6
				c0.2,0,0.4,0,0.6,0c-11.5,1.4-23,2.8-34.7,4.3c-11.7,1.4-23.5,2.9-35.4,4.4c-23.9,2.9-48.2,5.9-72.9,9c0.2,0,0.3-0.1,0.5-0.1
				c-2.9,3.1-5.7,6.2-8.4,9.3c-2.5,3.1-4.9,6.2-7.1,9.2c-0.2,0-0.3,0-0.5,0c12.2-1.5,24.3-3,36.3-4.5c12-1.5,23.8-2.9,35.6-4.3
				c11.7-1.4,23.4-2.8,34.9-4.2C-433.2,128.8-421.8,127.4-410.5,126.1z"/>
		</g>
		<g>
			<path d="M-551.5,143.1c-49.3,6-100,12.2-152.1,18.7c3.8-5.9,8.1-11.9,12.7-17.8c53.2-6.8,104.9-13.3,155-19.5
				C-541.5,130.8-546.7,137-551.5,143.1z"/>
			<path d="M-551.5,143.1c-12.3,1.5-24.6,3-37.1,4.6c-12.5,1.5-25,3.1-37.7,4.7c-12.7,1.6-25.5,3.1-38.4,4.7
				c-12.9,1.6-26,3.2-39.1,4.8c-0.2,0-0.4,0-0.6,0.1c0,0,0-0.1,0.1-0.1c2-3,4.1-6,6.2-8.9c2.1-3,4.3-5.9,6.6-8.9c0,0,0,0,0.1-0.1
				c0.2,0,0.3,0,0.5-0.1c26.8-3.4,53.1-6.7,79.1-10c12.9-1.6,25.7-3.2,38.4-4.8c12.6-1.6,25.2-3.2,37.6-4.7c0.3,0,0.5-0.1,0.8-0.1
				c0,0-0.1,0.1-0.1,0.1c-2.9,3.1-5.8,6.2-8.5,9.3c-1.3,1.6-2.7,3.1-4,4.7C-548.9,140-550.2,141.6-551.5,143.1z M-551.6,143.1
				c1.1-1.5,2.2-3.1,3.3-4.6c1.2-1.5,2.4-3.1,3.6-4.6c2.6-3.1,5.2-6.2,8-9.2c0.2,0,0.5,0,0.7,0c-12.4,1.6-25,3.1-37.6,4.7
				c-12.7,1.6-25.5,3.2-38.3,4.8c-25.9,3.2-52.3,6.5-79,9.9c0.2,0,0.4-0.1,0.5-0.1c-2.4,3-4.8,5.9-7,8.9c-2.1,3-3.9,5.9-5.6,8.9
				c-0.2,0-0.3,0-0.5,0c13.1-1.6,26.2-3.3,39.1-4.9c12.9-1.6,25.7-3.2,38.4-4.7c12.6-1.6,25.2-3.1,37.6-4.6
				C-576.1,146.1-563.8,144.6-551.6,143.1z"/>
		</g>
		<g>
			<path class="st0" d="M-157.7,97.1c-39.5,4.3-80,8.8-121.7,13.6c5.8-6.6,12-13.3,18.5-19.9c41.8-5.1,82.4-9.8,121.8-14.2
				C-145.6,83.4-151.8,90.2-157.7,97.1z"/>
			<path d="M-157.7,97.1c-9.8,1.1-19.8,2.2-29.7,3.3c-10,1.1-20,2.2-30.2,3.4c-10.2,1.1-20.4,2.3-30.7,3.5
				c-10.3,1.2-20.8,2.4-31.2,3.5c-0.2,0-0.3,0-0.5,0.1c0,0,0.1-0.1,0.1-0.1c3-3.3,6.1-6.7,9.1-10c3.1-3.3,6.2-6.6,9.5-9.9
				c0,0,0.1-0.1,0.1-0.1c0.1,0,0.2,0,0.4,0c21-2.5,41.7-5,62.2-7.4c10.1-1.2,20.2-2.4,30.2-3.5c9.9-1.1,19.8-2.3,29.6-3.4
				c0.2,0,0.4,0,0.6-0.1c0,0-0.1,0.1-0.1,0.1c-3.4,3.4-6.6,6.8-9.8,10.3c-1.6,1.7-3.1,3.4-4.7,5.1
				C-154.6,93.6-156.1,95.4-157.7,97.1z M-157.8,97.1c1.4-1.7,2.8-3.4,4.2-5.1c1.5-1.7,2.9-3.4,4.4-5.1c3.1-3.4,6.2-6.8,9.4-10.2
				c0.2,0,0.3,0.1,0.5,0.1c-9.8,1.1-19.6,2.2-29.6,3.4c-10,1.1-20,2.3-30.1,3.5c-20.4,2.3-41,4.8-62,7.3c0.1,0,0.3-0.1,0.5-0.1
				c-3.3,3.3-6.6,6.6-9.8,10c-3,3.3-5.9,6.6-8.6,9.9c-0.1,0-0.2,0-0.4,0c10.5-1.2,20.9-2.4,31.3-3.6c10.3-1.2,20.5-2.3,30.7-3.5
				c10.1-1.1,20.1-2.2,30.1-3.3C-177.4,99.2-167.5,98.1-157.8,97.1z"/>
		</g>
		<g>
			<path d="M-279.4,110.7c-42.4,4.8-86.1,10-131,15.4c5.5-6.4,11.3-12.8,17.5-19.2c45.3-5.6,89.3-11,131.9-16
				C-267.4,97.5-273.6,104.1-279.4,110.7z"/>
			<path d="M-279.4,110.7c-10.6,1.2-21.2,2.5-32,3.8c-10.7,1.3-21.6,2.5-32.5,3.8c-10.9,1.3-22,2.6-33,3.9
				c-11.1,1.3-22.4,2.6-33.6,4c-0.2,0-0.3,0-0.5,0.1c0,0,0.1-0.1,0.1-0.1c2.8-3.2,5.7-6.5,8.6-9.7c2.9-3.2,5.9-6.4,9-9.6
				c0,0,0-0.1,0.1-0.1c0.1,0,0.3,0,0.4-0.1c22.8-2.8,45.2-5.6,67.4-8.3c11-1.3,21.9-2.7,32.7-4c10.7-1.3,21.4-2.6,32-3.8
				c0.2,0,0.5-0.1,0.7-0.1c0,0-0.1,0.1-0.1,0.1c-3.4,3.3-6.6,6.6-9.9,10c-1.6,1.7-3.1,3.3-4.7,5
				C-276.3,107.4-277.9,109.1-279.4,110.7z M-279.5,110.7c1.3-1.6,2.7-3.3,4.1-4.9c1.4-1.7,2.9-3.3,4.4-5c3-3.3,6.2-6.6,9.4-9.9
				c0.2,0,0.4,0,0.5,0.1c-10.6,1.3-21.3,2.5-32,3.8c-10.8,1.3-21.7,2.6-32.6,3.9c-22.1,2.6-44.5,5.4-67.2,8.2c0.2,0,0.3-0.1,0.5-0.1
				c-3.2,3.2-6.3,6.4-9.3,9.6c-2.9,3.2-5.5,6.4-8.1,9.6c-0.1,0-0.3,0-0.4,0c11.3-1.4,22.5-2.7,33.7-4c11.1-1.3,22.1-2.6,33-3.9
				c10.9-1.3,21.7-2.5,32.4-3.8C-300.6,113.1-290,111.9-279.5,110.7z"/>
		</g>
		<g>
			<path class="st0" d="M61.9,75C27.3,78.1-8.1,81.5-44.3,85.2c5.7-7,11.7-14,18-21c35.9-3.8,70.8-7.4,104.9-10.6
				C72.8,60.7,67.2,67.9,61.9,75z"/>
			<path d="M61.9,75.1c-8.6,0.8-17.3,1.6-26,2.4c-8.7,0.8-17.5,1.7-26.4,2.5c-8.9,0.8-17.8,1.7-26.8,2.6c-9,0.9-18.1,1.8-27.2,2.7
				c-0.1,0-0.3,0-0.4,0c0,0,0.1-0.1,0.1-0.1c2.9-3.5,5.9-7,8.9-10.5c3-3.5,6-7,9.1-10.5c0,0,0-0.1,0.1-0.1c0.1,0,0.2,0,0.3,0
				c18-1.9,35.8-3.8,53.4-5.6c8.7-0.9,17.4-1.8,26-2.6c8.6-0.8,17.1-1.7,25.5-2.5c0.2,0,0.4,0,0.6-0.1c0,0.1-0.1,0.1-0.1,0.2
				c-3,3.6-5.9,7.2-8.8,10.8c-1.4,1.8-2.8,3.6-4.2,5.4C64.7,71.4,63.3,73.3,61.9,75.1z M61.8,75c1.2-1.8,2.5-3.6,3.8-5.3
				c1.3-1.8,2.7-3.6,4-5.4c2.7-3.6,5.5-7.2,8.4-10.7c0.1,0,0.3,0.1,0.4,0.1c-8.5,0.8-17,1.6-25.6,2.5c-8.6,0.8-17.3,1.7-26,2.6
				c-17.5,1.7-35.3,3.6-53.3,5.5c0.1,0,0.3-0.1,0.4-0.1c-3.2,3.5-6.3,7-9.4,10.5c-2.9,3.5-5.8,7-8.5,10.5c-0.1,0-0.2,0-0.3-0.1
				c9.1-0.9,18.2-1.8,27.2-2.7c9-0.9,17.9-1.7,26.7-2.6c8.8-0.8,17.6-1.6,26.3-2.4C44.7,76.5,53.3,75.8,61.8,75z"/>
		</g>
		<g>
			<path d="M-44.3,85.2c-36.8,3.7-74.6,7.6-113.4,11.9c5.9-6.8,12.1-13.7,18.6-20.5c38.7-4.5,76.2-8.6,112.8-12.4
				C-32.6,71.2-38.6,78.2-44.3,85.2z"/>
			<path d="M-44.3,85.2c-9.2,0.9-18.4,1.9-27.7,2.9c-9.3,1-18.7,2-28.1,3c-9.5,1-19,2-28.6,3c-9.6,1-19.3,2.1-29.1,3.1
				c-0.1,0-0.3,0-0.4,0c0,0,0.1-0.1,0.1-0.1c3-3.4,6.1-6.9,9.2-10.3c3.1-3.4,6.2-6.8,9.5-10.2c0,0,0.1-0.1,0.1-0.1
				c0.1,0,0.2,0,0.3,0c19.4-2.2,38.6-4.4,57.5-6.5c9.4-1,18.7-2.1,27.9-3.1c9.2-1,18.3-2,27.4-2.9c0.2,0,0.4,0,0.6-0.1
				c0,0.1-0.1,0.1-0.1,0.2c-3.2,3.5-6.4,7-9.5,10.5c-1.5,1.8-3,3.5-4.5,5.3C-41.3,81.7-42.8,83.4-44.3,85.2z M-44.4,85.2
				c1.3-1.7,2.7-3.5,4.1-5.2c1.4-1.7,2.9-3.5,4.3-5.2c3-3.5,6-7,9.1-10.5c0.1,0,0.3,0.1,0.4,0.1c-9.1,1-18.2,1.9-27.4,2.9
				c-9.2,1-18.5,2-27.9,3c-18.9,2-38,4.2-57.4,6.4c0.1,0,0.3-0.1,0.4-0.1c-3.3,3.4-6.6,6.8-9.8,10.3c-3,3.4-5.9,6.8-8.8,10.2
				c-0.1,0-0.2,0-0.3-0.1c9.8-1.1,19.5-2.1,29.1-3.2c9.6-1,19.1-2,28.6-3c9.4-1,18.8-1.9,28.1-2.9C-62.7,87-53.5,86.1-44.4,85.2z"/>
		</g>
		<g>
			<path class="st0" d="M257.1,60.2c-31.2,1.9-62.9,4-95.2,6.5c4.8-7.3,9.7-14.6,14.8-21.9c31.6-2.6,62.5-4.9,92.9-6.9
				C265.4,45.4,261.2,52.8,257.1,60.2z"/>
			<path d="M257.2,60.2c-7.8,0.5-15.6,1-23.5,1.5c-7.9,0.5-15.7,1-23.7,1.6c-7.9,0.5-15.9,1.1-23.9,1.7c-8,0.6-16.1,1.2-24.2,1.8
				c-0.1,0-0.2,0-0.4,0c0,0,0-0.1,0.1-0.1c2.5-3.7,5-7.3,7.4-11c2.5-3.6,4.9-7.3,7.5-10.9c0,0,0-0.1,0.1-0.1c0.1,0,0.2,0,0.3,0
				c15.9-1.3,31.5-2.6,47.1-3.7c7.7-0.6,15.4-1.1,23.1-1.7c7.6-0.5,15.2-1,22.8-1.5c0.2,0,0.3,0,0.5,0c0,0.1-0.1,0.1-0.1,0.2
				c-2.2,3.7-4.4,7.4-6.6,11.1c-1.1,1.9-2.1,3.7-3.2,5.6C259.3,56.5,258.2,58.4,257.2,60.2z M257.1,60.2c0.9-1.8,1.9-3.7,2.9-5.5
				c1-1.9,2-3.7,3-5.6c2.1-3.7,4.1-7.4,6.2-11.1c0.1,0,0.3,0.1,0.4,0.1c-7.6,0.5-15.2,1-22.8,1.5c-7.7,0.5-15.3,1.1-23.1,1.6
				c-15.5,1.1-31.2,2.3-47,3.6c0.1,0,0.2-0.1,0.3-0.1c-2.6,3.7-5.2,7.3-7.7,11c-2.4,3.7-4.8,7.3-7,10.9c-0.1,0-0.2-0.1-0.3-0.1
				c8.1-0.6,16.2-1.2,24.2-1.8c8-0.6,16-1.1,23.9-1.7c7.9-0.5,15.8-1,23.6-1.5C241.6,61.1,249.3,60.6,257.1,60.2z"/>
		</g>
		<g>
			<path d="M161.9,66.7c-32.7,2.5-66,5.2-100.1,8.3c5.3-7.2,10.9-14.3,16.7-21.5c33.5-3.2,66.3-6.2,98.2-8.7
				C171.7,52.1,166.7,59.4,161.9,66.7z"/>
			<path d="M162,66.7c-8.2,0.6-16.4,1.3-24.6,2c-8.2,0.7-16.5,1.4-24.9,2.1c-8.4,0.7-16.8,1.4-25.2,2.2c-8.5,0.7-17,1.5-25.5,2.2
				c-0.1,0-0.2,0-0.4,0c0,0,0.1-0.1,0.1-0.1c2.7-3.6,5.5-7.2,8.3-10.8c2.8-3.6,5.6-7.2,8.4-10.7c0,0,0-0.1,0.1-0.1
				c0.1,0,0.2,0,0.3,0c16.8-1.6,33.5-3.2,49.9-4.7c8.2-0.7,16.3-1.4,24.4-2.1c8-0.7,16-1.4,24-2c0.2,0,0.3,0,0.5,0
				c0,0.1-0.1,0.1-0.1,0.2c-2.6,3.7-5.2,7.3-7.8,11c-1.3,1.8-2.5,3.7-3.8,5.5C164.5,63.1,163.2,64.9,162,66.7z M161.9,66.7
				c1.1-1.8,2.2-3.6,3.4-5.5c1.2-1.8,2.4-3.6,3.6-5.5c2.4-3.6,4.9-7.3,7.4-10.9c0.1,0,0.3,0.1,0.4,0.1c-8,0.7-16,1.3-24,2
				c-8.1,0.7-16.2,1.4-24.4,2.1c-16.4,1.4-33,2.9-49.8,4.5c0.1,0,0.2-0.1,0.4-0.1c-2.9,3.6-5.8,7.2-8.7,10.8
				c-2.7,3.6-5.3,7.2-7.9,10.7c-0.1,0-0.2,0-0.3-0.1c8.6-0.8,17.1-1.6,25.6-2.3c8.4-0.7,16.8-1.4,25.2-2.1c8.3-0.7,16.6-1.3,24.8-2
				C145.7,67.9,153.8,67.3,161.9,66.7z"/>
		</g>
		<g>
			<path class="st0" d="M437.7,52.9c-29.5,0.6-59.1,1.5-89.1,2.7c3.3-7.5,6.6-15,10-22.6c29-1.3,57.8-2.3,86.3-3
				C442.5,37.7,440.1,45.3,437.7,52.9z"/>
			<path d="M437.7,52.9c-7.4,0.2-14.8,0.4-22.2,0.6c-7.4,0.2-14.8,0.4-22.2,0.7c-7.4,0.2-14.9,0.5-22.3,0.8
				c-7.5,0.3-14.9,0.5-22.4,0.8c-0.1,0-0.2,0-0.3,0c0,0,0-0.1,0-0.1c1.7-3.8,3.4-7.5,5.1-11.3c1.6-3.8,3.3-7.5,5-11.3
				c0,0,0-0.1,0-0.1c0.1,0,0.2,0,0.3,0c14.5-0.7,29-1.3,43.4-1.8c7.2-0.3,14.3-0.5,21.5-0.7c7.1-0.2,14.3-0.4,21.4-0.5
				c0.2,0,0.3,0,0.5,0c0,0.1,0,0.1-0.1,0.2c-1.3,3.8-2.5,7.6-3.8,11.4c-0.6,1.9-1.3,3.8-1.9,5.7C439,49.1,438.4,51,437.7,52.9z
				 M437.6,52.8c0.5-1.9,1.1-3.8,1.6-5.7c0.6-1.9,1.1-3.8,1.7-5.7c1.1-3.8,2.3-7.6,3.5-11.4c0.1,0.1,0.3,0.1,0.4,0.2
				c-7.1,0.2-14.3,0.4-21.4,0.6c-7.2,0.2-14.3,0.4-21.5,0.7c-14.4,0.5-28.8,1-43.4,1.7c0.1,0,0.2-0.1,0.3-0.1
				c-1.7,3.8-3.5,7.5-5.2,11.3c-1.6,3.8-3.2,7.5-4.7,11.3c-0.1,0-0.2-0.1-0.3-0.1c7.5-0.3,15-0.6,22.5-0.9
				c7.5-0.3,14.9-0.5,22.3-0.7c7.4-0.2,14.8-0.4,22.2-0.6C423,53.1,430.3,53,437.6,52.8z"/>
		</g>
		<g>
			<path d="M348.6,55.6c-30.1,1.2-60.6,2.8-91.5,4.6c4.1-7.4,8.2-14.9,12.6-22.3c30.1-2,59.7-3.6,88.9-4.9
				C355.2,40.5,351.9,48.1,348.6,55.6z"/>
			<path d="M348.7,55.6c-7.5,0.3-15.1,0.7-22.7,1.1c-7.6,0.4-15.2,0.7-22.8,1.1c-7.6,0.4-15.3,0.8-23,1.2
				c-7.7,0.4-15.4,0.9-23.2,1.3c-0.1,0-0.2,0-0.3,0c0,0,0-0.1,0.1-0.1c2.1-3.7,4.2-7.4,6.3-11.2c2.1-3.7,4.2-7.4,6.3-11.1
				c0,0,0-0.1,0.1-0.1c0.1,0,0.2,0,0.3,0c15.1-1,30-1.9,44.9-2.8c7.4-0.4,14.8-0.8,22.1-1.2c7.3-0.4,14.6-0.7,21.9-1
				c0.2,0,0.3,0,0.5,0c0,0.1-0.1,0.1-0.1,0.2c-1.8,3.8-3.5,7.5-5.2,11.3c-0.9,1.9-1.7,3.8-2.6,5.6C350.4,51.8,349.5,53.7,348.7,55.6
				z M348.6,55.6c0.7-1.9,1.5-3.7,2.3-5.6c0.8-1.9,1.6-3.8,2.4-5.6c1.6-3.8,3.3-7.5,4.9-11.3c0.1,0,0.3,0.1,0.4,0.1
				c-7.3,0.3-14.6,0.7-21.9,1.1c-7.3,0.4-14.7,0.8-22.1,1.2c-14.8,0.8-29.8,1.7-44.8,2.6c0.1,0,0.2-0.1,0.3-0.1
				c-2.2,3.7-4.4,7.4-6.5,11.1c-2.1,3.7-4,7.4-6,11.1c-0.1,0-0.2-0.1-0.3-0.1c7.8-0.5,15.5-0.9,23.2-1.4c7.7-0.4,15.3-0.8,22.9-1.2
				c7.6-0.4,15.2-0.7,22.7-1.1C333.6,56.2,341.1,55.9,348.6,55.6z"/>
		</g>
		<g>
			<path class="st0" d="M613.7,53.2c-29.4-0.7-58.8-1.1-88.1-1.2c1.5-7.7,2.9-15.3,4.3-23c28.3,0,56.7,0.4,85.2,1.1
				C614.7,37.9,614.2,45.6,613.7,53.2z"/>
			<path d="M613.7,53.3c-7.4-0.2-14.8-0.3-22.2-0.4c-7.4-0.1-14.7-0.2-22-0.3c-7.3-0.1-14.7-0.2-22-0.2c-7.3-0.1-14.6-0.1-22-0.1
				c-0.1,0-0.2,0-0.3,0c0,0,0-0.1,0-0.1c0.8-3.8,1.6-7.7,2.4-11.5c0.7-3.8,1.4-7.7,2-11.5c0,0,0-0.1,0-0.1c0.1,0,0.2,0,0.3,0
				c14.2,0,28.3,0.1,42.5,0.2c7.1,0.1,14.2,0.2,21.3,0.3c7.1,0.1,14.3,0.3,21.4,0.5c0.2,0,0.3,0,0.5,0c0,0.1,0,0.1,0,0.2
				c-0.3,3.8-0.5,7.7-0.8,11.5c-0.2,1.9-0.3,3.8-0.5,5.8C614.1,49.4,613.9,51.3,613.7,53.3z M613.6,53.2c0.1-1.9,0.2-3.8,0.3-5.7
				c0.1-1.9,0.2-3.8,0.3-5.8c0.2-3.8,0.4-7.7,0.5-11.5c0.2,0.1,0.3,0.1,0.5,0.2c-7.1-0.2-14.3-0.3-21.4-0.5
				c-7.1-0.1-14.2-0.3-21.3-0.3c-14.2-0.2-28.4-0.3-42.5-0.4c0.1,0,0.2-0.1,0.3-0.1c-0.7,3.8-1.5,7.7-2.2,11.5
				c-0.7,3.8-1.4,7.7-2,11.5c-0.1,0-0.2-0.1-0.3-0.1c7.3,0,14.6,0,22,0.1c7.3,0.1,14.6,0.1,22,0.2c7.3,0.1,14.7,0.2,22,0.4
				C598.9,52.8,606.3,53,613.6,53.2z"/>
		</g>
		<g>
			<path d="M525.6,52.1c-29.2-0.1-58.5,0.2-87.9,0.8c2.4-7.6,4.8-15.2,7.2-22.8c28.4-0.7,56.8-1,85.1-1
				C528.5,36.8,527.1,44.4,525.6,52.1z"/>
			<path d="M525.7,52.1c-7.3,0-14.7,0-22,0.1c-7.3,0-14.6,0.1-22,0.2c-7.3,0.1-14.7,0.2-22,0.3c-7.3,0.1-14.7,0.2-22,0.3
				c-0.1,0-0.2,0-0.3,0c0,0,0-0.1,0-0.1c1.3-3.8,2.5-7.6,3.7-11.4c1.2-3.8,2.3-7.6,3.5-11.4c0,0,0-0.1,0-0.1c0.1,0,0.2,0,0.3,0
				c14.2-0.4,28.4-0.6,42.6-0.8c7.1-0.1,14.2-0.1,21.2-0.2c7.1,0,14.1,0,21.2,0c0.2,0,0.3,0,0.5,0c0,0.1,0,0.1,0,0.2
				c-0.8,3.8-1.5,7.7-2.3,11.5c-0.4,1.9-0.8,3.8-1.2,5.7C526.5,48.2,526.1,50.2,525.7,52.1z M525.6,52c0.3-1.9,0.6-3.8,0.9-5.7
				c0.3-1.9,0.7-3.8,1-5.7c0.7-3.8,1.3-7.7,2-11.5c0.1,0.1,0.3,0.1,0.4,0.2c-7.1,0-14.2,0-21.2,0.1c-7.1,0-14.2,0.1-21.2,0.2
				c-14.2,0.1-28.4,0.4-42.6,0.7c0.1,0,0.2-0.1,0.3-0.1c-1.2,3.8-2.5,7.6-3.7,11.4c-1.2,3.8-2.3,7.6-3.4,11.4
				c-0.1,0-0.2-0.1-0.3-0.1c7.4-0.2,14.7-0.3,22-0.4c7.3-0.1,14.7-0.2,22-0.2c7.3-0.1,14.6-0.1,21.9-0.1C511,52,518.3,52,525.6,52z"
				/>
		</g>
		<g>
			<path class="st0" d="M795.3,61.6c-31.1-2.1-61.8-3.8-92.2-5.2c-0.3-7.7-0.7-15.4-1.2-23c29.5,1.4,59.4,3.2,89.8,5.3
				C793.1,46.3,794.3,53.9,795.3,61.6z"/>
			<path d="M795.4,61.6c-7.8-0.5-15.6-1-23.4-1.4c-7.7-0.5-15.4-0.9-23.1-1.3c-7.7-0.4-15.3-0.8-22.9-1.2
				c-7.6-0.4-15.2-0.8-22.7-1.1c-0.1,0-0.2,0-0.3,0c0,0,0-0.1,0-0.1c0-3.8-0.1-7.7-0.3-11.5c-0.2-3.8-0.5-7.7-0.8-11.5
				c0,0,0-0.1,0-0.1c0.1,0,0.2,0,0.3,0c14.7,0.7,29.5,1.4,44.4,2.3c7.5,0.4,15,0.9,22.5,1.4c7.6,0.5,15.2,1,22.8,1.5
				c0.2,0,0.3,0,0.5,0c0,0.1,0,0.1,0,0.2c0.6,3.8,1.2,7.7,1.8,11.5c0.3,1.9,0.5,3.8,0.7,5.7C795,57.8,795.2,59.7,795.4,61.6z
				 M795.3,61.6c-0.3-1.9-0.6-3.8-0.9-5.7c-0.3-1.9-0.6-3.8-0.9-5.8c-0.7-3.8-1.4-7.7-2.1-11.5c0.2,0.1,0.4,0.1,0.5,0.2
				c-7.6-0.5-15.2-1-22.8-1.5c-7.5-0.5-15.1-1-22.6-1.4c-14.9-0.9-29.7-1.7-44.4-2.4c0.1,0,0.2-0.1,0.3-0.1
				c0.2,3.8,0.4,7.7,0.6,11.5c0.2,3.8,0.4,7.7,0.6,11.5c-0.1,0-0.2-0.1-0.3-0.1c7.6,0.3,15.1,0.7,22.7,1.1
				c7.6,0.4,15.3,0.8,22.9,1.2c7.7,0.4,15.4,0.9,23.1,1.4C779.7,60.5,787.5,61,795.3,61.6z"/>
		</g>
		<g>
			<path d="M703.2,56.4c-30.1-1.4-59.9-2.4-89.5-3.2c0.6-7.7,1.1-15.4,1.5-23c28.7,0.7,57.6,1.8,86.8,3.2
				C702.5,41,702.9,48.7,703.2,56.4z"/>
			<path d="M703.2,56.4c-7.6-0.3-15.1-0.6-22.6-0.9c-7.5-0.3-15-0.6-22.4-0.8c-7.4-0.3-14.9-0.5-22.3-0.7
				c-7.4-0.2-14.8-0.4-22.2-0.6c-0.1,0-0.2,0-0.3,0c0,0,0-0.1,0-0.1c0.4-3.8,0.7-7.7,1-11.5c0.2-3.8,0.4-7.7,0.6-11.5
				c0,0,0-0.1,0-0.1c0.1,0,0.2,0,0.3,0c14.3,0.3,28.7,0.7,43.1,1.2c7.2,0.3,14.5,0.5,21.8,0.8c7.3,0.3,14.6,0.6,21.9,1
				c0.2,0,0.3,0,0.5,0c0,0.1,0,0.1,0,0.2c0.2,3.8,0.4,7.7,0.5,11.5c0.1,1.9,0.1,3.8,0.2,5.8C703.2,52.6,703.2,54.5,703.2,56.4z
				 M703.1,56.4c-0.1-1.9-0.2-3.8-0.4-5.8c-0.1-1.9-0.2-3.8-0.3-5.8c-0.3-3.8-0.6-7.7-0.9-11.5c0.2,0.1,0.3,0.1,0.5,0.2
				c-7.3-0.3-14.6-0.7-21.9-1c-7.3-0.3-14.5-0.6-21.8-0.9c-14.4-0.5-28.8-1-43.1-1.4c0.1,0,0.2-0.1,0.3-0.1
				c-0.2,3.8-0.5,7.7-0.8,11.5c-0.2,3.8-0.5,7.7-0.7,11.5c-0.1,0-0.2-0.1-0.3-0.1c7.4,0.2,14.8,0.3,22.2,0.6
				c7.4,0.2,14.8,0.5,22.3,0.7c7.5,0.3,14.9,0.6,22.4,0.9C688.1,55.7,695.6,56,703.1,56.4z"/>
		</g>
		<g>
			<path class="st0" d="M992.5,78.2c-34.4-3.5-68.1-6.6-101.2-9.4c-1.6-7.6-3.5-15.2-5.5-22.8c32.5,2.8,65.7,6,99.7,9.6
				C988.1,63.1,990.5,70.7,992.5,78.2z"/>
			<path d="M992.6,78.2c-8.7-0.8-17.3-1.7-25.9-2.5c-8.5-0.8-17-1.6-25.5-2.4c-8.4-0.8-16.8-1.5-25.1-2.3
				c-8.3-0.7-16.6-1.5-24.8-2.2c-0.1,0-0.2,0-0.4,0c0,0,0-0.1,0-0.1c-0.7-3.8-1.5-7.6-2.3-11.4c-1-3.8-2-7.6-3.1-11.4
				c0,0,0-0.1,0-0.1c0.1,0,0.2,0,0.3,0c16.2,1.4,32.5,2.9,49,4.5c8.3,0.8,16.7,1.6,25.1,2.5c8.5,0.8,17,1.7,25.5,2.6
				c0.2,0,0.4,0,0.6,0.1c0,0.1,0,0.1,0.1,0.2c1.3,3.8,2.5,7.5,3.6,11.3c0.5,1.9,1.1,3.8,1.6,5.6C991.7,74.5,992.2,76.3,992.6,78.2z
				 M992.5,78.2c-0.6-1.9-1.1-3.8-1.7-5.6c-0.6-1.9-1.2-3.8-1.8-5.7c-1.3-3.8-2.6-7.5-4-11.3c0.2,0.1,0.4,0.1,0.6,0.2
				c-8.6-0.9-17.1-1.8-25.5-2.6c-8.4-0.8-16.8-1.7-25.1-2.5c-16.5-1.6-32.9-3.1-49.1-4.6c0.1,0,0.2,0,0.3-0.1c1,3.8,2,7.6,2.9,11.4
				c0.9,3.8,1.8,7.6,2.7,11.4c-0.1,0-0.3-0.1-0.4-0.1c8.2,0.7,16.5,1.4,24.8,2.1c8.3,0.7,16.7,1.5,25.1,2.3
				c8.4,0.8,16.9,1.6,25.5,2.4C975.2,76.4,983.8,77.3,992.5,78.2z"/>
		</g>
		<g>
			<path d="M891.4,68.8c-32.6-2.8-64.6-5.2-96.1-7.3c-1-7.7-2.2-15.3-3.5-23c30.8,2.1,62.1,4.6,94.1,7.4
				C887.9,53.6,889.7,61.2,891.4,68.8z"/>
			<path d="M891.4,68.9c-8.2-0.7-16.4-1.3-24.5-1.9c-8.1-0.6-16.1-1.2-24.1-1.8c-8-0.6-15.9-1.2-23.9-1.7
				c-7.9-0.6-15.8-1.1-23.6-1.7c-0.1,0-0.2,0-0.3,0c0,0,0-0.1,0-0.1c-0.4-3.8-0.8-7.6-1.4-11.5c-0.6-3.8-1.3-7.7-2.1-11.5
				c0,0,0-0.1,0-0.1c0.1,0,0.2,0,0.3,0c15.3,1,30.8,2.2,46.4,3.4c7.8,0.6,15.7,1.2,23.7,1.9c8,0.7,16,1.4,24,2.1c0.2,0,0.4,0,0.5,0
				c0,0.1,0,0.1,0,0.2c1,3.8,1.9,7.6,2.8,11.4c0.4,1.9,0.8,3.8,1.2,5.7C890.8,65.1,891.1,67,891.4,68.9z M891.3,68.8
				c-0.5-1.9-0.9-3.8-1.4-5.7c-0.5-1.9-0.9-3.8-1.4-5.7c-1-3.8-2.1-7.6-3.2-11.4c0.2,0.1,0.4,0.1,0.6,0.2c-8-0.7-16-1.4-24-2
				c-7.9-0.7-15.8-1.3-23.7-1.9c-15.6-1.3-31.1-2.4-46.4-3.5c0.1,0,0.2,0,0.3-0.1c0.7,3.8,1.3,7.7,1.8,11.5
				c0.6,3.8,1.2,7.7,1.8,11.5c-0.1,0-0.2-0.1-0.4-0.1c7.8,0.5,15.7,1,23.6,1.6c7.9,0.6,15.9,1.2,23.9,1.8c8,0.6,16.1,1.3,24.2,1.9
				C875,67.4,883.2,68.1,891.3,68.8z"/>
		</g>
		<g>
			<path class="st0" d="M1214.6,103.3c-39.2-4.9-77.4-9.4-114.7-13.6c-2.3-7.4-5-14.8-7.9-22.3c37.1,4.3,75.3,9,114.5,14
				C1209.6,88.7,1212.2,96,1214.6,103.3z"/>
			<path d="M1214.7,103.3c-9.9-1.2-19.7-2.4-29.4-3.5c-9.7-1.2-19.3-2.3-28.9-3.4c-9.5-1.1-19-2.2-28.4-3.3
				c-9.4-1.1-18.7-2.2-28-3.2c-0.1,0-0.3,0-0.4,0c0,0,0-0.1,0-0.1c-1-3.7-2.1-7.4-3.4-11.1c-1.4-3.7-2.9-7.4-4.4-11.2
				c0,0,0-0.1,0-0.1c0.1,0,0.2,0,0.3,0c18.5,2.1,37.2,4.4,56.2,6.7c9.6,1.2,19.2,2.4,28.9,3.6c9.7,1.2,19.6,2.5,29.4,3.7
				c0.2,0,0.4,0.1,0.6,0.1c0,0.1,0,0.1,0.1,0.2c1.5,3.6,2.9,7.3,4.2,10.9c0.6,1.8,1.2,3.6,1.8,5.4
				C1213.7,99.7,1214.2,101.5,1214.7,103.3z M1214.5,103.3c-0.6-1.8-1.3-3.6-2-5.5c-0.7-1.8-1.3-3.7-2.1-5.5c-1.5-3.7-3-7.3-4.6-11
				c0.2,0.1,0.5,0.2,0.7,0.2c-9.9-1.3-19.7-2.5-29.4-3.7c-9.7-1.2-19.3-2.4-28.9-3.6c-19-2.4-37.7-4.6-56.2-6.8c0.1,0,0.2,0,0.3,0
				c1.4,3.7,2.8,7.4,4.1,11.1c1.3,3.7,2.6,7.4,3.8,11.2c-0.1-0.1-0.3-0.1-0.4-0.2c9.3,1,18.6,2.1,27.9,3.2
				c9.4,1.1,18.9,2.2,28.4,3.4c9.6,1.1,19.2,2.3,28.9,3.5C1194.9,100.8,1204.7,102,1214.5,103.3z"/>
		</g>
		<g>
			<path d="M1099.9,89.7c-36.6-4.2-72.4-8-107.4-11.5c-2.1-7.5-4.4-15.1-7-22.6c34.6,3.6,70.1,7.5,106.5,11.8
				C1095,74.8,1097.6,82.3,1099.9,89.7z"/>
			<path d="M1100,89.7c-9.2-1-18.4-2-27.5-3c-9.1-1-18.1-2-27-2.9c-8.9-1-17.8-1.9-26.6-2.8c-8.8-0.9-17.5-1.8-26.2-2.7
				c-0.1,0-0.3,0-0.4,0c0,0,0-0.1,0-0.1c-0.9-3.8-1.9-7.5-3-11.3c-1.2-3.8-2.5-7.5-3.9-11.3c0,0,0-0.1,0-0.1c0.1,0,0.2,0,0.3,0
				c17.2,1.8,34.6,3.6,52.3,5.6c8.9,1,17.8,2,26.8,3c9.1,1,18.2,2.1,27.3,3.2c0.2,0,0.4,0,0.6,0.1c0,0.1,0,0.1,0.1,0.2
				c1.4,3.7,2.8,7.4,4.1,11.1c0.6,1.9,1.2,3.7,1.8,5.6C1099,86,1099.5,87.8,1100,89.7z M1099.9,89.7c-0.6-1.9-1.3-3.7-1.9-5.6
				c-0.7-1.9-1.3-3.7-2-5.6c-1.4-3.7-2.9-7.4-4.5-11.2c0.2,0.1,0.4,0.2,0.7,0.2c-9.2-1.1-18.3-2.1-27.3-3.2c-9-1-18-2-26.9-3
				c-17.7-2-35.1-3.9-52.4-5.7c0.1,0,0.2,0,0.3-0.1c1.3,3.8,2.5,7.5,3.7,11.3c1.2,3.8,2.3,7.5,3.4,11.3c-0.1,0-0.3-0.1-0.4-0.1
				c8.7,0.8,17.4,1.7,26.2,2.6c8.8,0.9,17.7,1.9,26.6,2.8c9,1,18,2,27.1,3C1081.5,87.5,1090.7,88.6,1099.9,89.7z"/>
		</g>
		<g>
			<path class="st0" d="M1469.7,137.1c-45.2-6.4-89.2-12.4-132.1-18c-2.1-7.1-4.6-14.2-7.4-21.4c43.3,5.8,87.8,12,133.7,18.6
				C1466.1,123.3,1468.1,130.2,1469.7,137.1z"/>
			<path d="M1469.8,137.2c-11.4-1.6-22.7-3.1-34-4.7c-11.2-1.5-22.3-3-33.3-4.5c-11-1.5-21.9-3-32.7-4.4
				c-10.8-1.5-21.5-2.9-32.1-4.3c-0.2,0-0.3,0-0.5-0.1c0,0,0-0.1,0-0.1c-0.9-3.5-1.9-7.1-3.1-10.6c-1.3-3.6-2.8-7.1-4.3-10.7
				c0,0,0-0.1,0-0.1c0.1,0,0.3,0,0.4,0.1c21.5,2.9,43.4,5.9,65.5,9c11.2,1.5,22.4,3.1,33.7,4.7c11.4,1.6,22.9,3.2,34.4,4.9
				c0.3,0,0.5,0.1,0.8,0.1c0,0,0,0.1,0.1,0.2c1.1,3.5,2.2,6.9,3.1,10.4c0.4,1.7,0.8,3.4,1.2,5.2
				C1469.2,133.7,1469.5,135.4,1469.8,137.2z M1469.6,137.1c-0.4-1.7-0.9-3.5-1.4-5.2c-0.5-1.7-1-3.5-1.5-5.2
				c-1.1-3.5-2.3-7-3.6-10.4c0.3,0.1,0.5,0.2,0.8,0.3c-11.5-1.6-23-3.3-34.4-4.9c-11.3-1.6-22.6-3.2-33.7-4.7
				c-22.2-3.1-44-6.1-65.5-9.1c0.1,0,0.2,0,0.3,0c1.4,3.6,2.7,7.1,3.9,10.7c1.2,3.6,2.4,7.1,3.6,10.7c-0.2-0.1-0.3-0.1-0.5-0.2
				c10.6,1.4,21.3,2.8,32.1,4.3c10.8,1.5,21.7,2.9,32.7,4.4c11,1.5,22.2,3,33.3,4.6C1446.9,133.9,1458.2,135.5,1469.6,137.1z"/>
		</g>
		<g>
			<path d="M1337.6,119.1c-42-5.6-83-10.9-123-15.8c-2.4-7.3-5.1-14.6-8.1-21.9c40,5.1,81.2,10.5,123.6,16.3
				C1333,104.9,1335.4,112,1337.6,119.1z"/>
			<path d="M1337.6,119.1c-10.6-1.4-21.1-2.8-31.6-4.1c-10.4-1.3-20.7-2.7-31-4c-10.2-1.3-20.4-2.6-30.5-3.9
				c-10-1.3-20-2.5-29.9-3.8c-0.1,0-0.3,0-0.4-0.1c0,0,0-0.1,0-0.1c-1-3.6-2.2-7.3-3.4-10.9c-1.4-3.7-2.9-7.3-4.5-11
				c0,0,0-0.1,0-0.1c0.1,0,0.2,0,0.3,0c19.9,2.5,40.1,5.1,60.6,7.8c10.3,1.4,20.7,2.7,31.2,4.1c10.5,1.4,21.1,2.8,31.8,4.3
				c0.2,0,0.5,0.1,0.7,0.1c0,0.1,0,0.1,0.1,0.2c1.4,3.6,2.7,7.1,3.9,10.7c0.6,1.8,1.1,3.5,1.6,5.3
				C1336.8,115.6,1337.2,117.4,1337.6,119.1z M1337.5,119.1c-0.6-1.8-1.2-3.6-1.8-5.4c-0.6-1.8-1.2-3.6-1.9-5.4
				c-1.4-3.6-2.8-7.1-4.3-10.7c0.3,0.1,0.5,0.2,0.8,0.3c-10.7-1.5-21.3-2.9-31.8-4.3c-10.5-1.4-20.9-2.8-31.2-4.2
				c-20.5-2.7-40.7-5.4-60.6-7.9c0.1,0,0.2,0,0.3,0c1.5,3.6,2.9,7.3,4.2,10.9c1.3,3.6,2.6,7.3,3.9,11c-0.2-0.1-0.3-0.1-0.5-0.2
				c9.9,1.2,19.9,2.4,29.9,3.7c10.1,1.3,20.2,2.6,30.5,3.9c10.3,1.3,20.6,2.7,31,4.1C1316.4,116.3,1326.9,117.7,1337.5,119.1z"/>
		</g>
		<g>
			<path class="st0" d="M-292.3,130.4c-42.1,4.6-85.3,9.5-129.5,14.7c4.5-6.4,9.3-12.9,14.4-19.3c44.8-5.4,88.4-10.5,130.8-15.3
				C-282.2,117.1-287.4,123.7-292.3,130.4z"/>
			<path d="M-292.2,130.4c-10.5,1.2-21.1,2.4-31.7,3.6c-10.6,1.2-21.3,2.4-32.1,3.7c-10.8,1.2-21.7,2.5-32.7,3.7
				c-11,1.3-22.1,2.5-33.2,3.8c-0.2,0-0.3,0-0.5,0.1c0,0,0-0.1,0.1-0.1c2.3-3.2,4.7-6.5,7.1-9.7c2.4-3.2,4.9-6.4,7.4-9.6
				c0,0,0-0.1,0.1-0.1c0.1,0,0.3,0,0.4,0c22.5-2.7,44.7-5.4,66.6-7.9c10.9-1.3,21.7-2.5,32.4-3.8c10.7-1.2,21.3-2.5,31.8-3.7
				c0.2,0,0.5-0.1,0.7-0.1c0,0-0.1,0.1-0.1,0.1c-2.9,3.3-5.7,6.7-8.4,10c-1.3,1.7-2.7,3.3-3.9,5C-289.7,127-290.9,128.7-292.2,130.4
				z M-292.3,130.4c1.1-1.7,2.2-3.3,3.4-5c1.2-1.7,2.4-3.3,3.7-5c2.6-3.3,5.2-6.6,7.9-9.9c0.2,0,0.4,0,0.6,0.1
				c-10.5,1.2-21.1,2.4-31.8,3.7c-10.7,1.2-21.5,2.5-32.4,3.8c-21.9,2.5-44,5.1-66.5,7.8c0.2,0,0.3-0.1,0.5-0.1
				c-2.7,3.2-5.3,6.4-7.8,9.7c-2.3,3.2-4.5,6.4-6.6,9.6c-0.1,0-0.3,0-0.4,0c11.2-1.3,22.2-2.6,33.2-3.9c11-1.3,21.8-2.5,32.7-3.7
				c10.8-1.2,21.5-2.4,32.1-3.6C-313.2,132.6-302.8,131.5-292.3,130.4z"/>
		</g>
		<g>
			<path d="M-421.8,145.1c-45.1,5.2-91.3,10.6-138.8,16.3c3.7-6.2,7.8-12.4,12.3-18.6c48.3-6,95.2-11.6,140.9-17
				C-412.6,132.2-417.4,138.6-421.8,145.1z"/>
			<path d="M-421.8,145.1c-11.2,1.3-22.5,2.7-33.9,4c-11.4,1.3-22.9,2.7-34.4,4.1c-11.6,1.4-23.3,2.7-35,4.1
				c-11.8,1.4-23.7,2.8-35.6,4.2c-0.2,0-0.3,0-0.5,0.1c0,0,0-0.1,0.1-0.1c2-3.1,4-6.2,6-9.4c2-3.1,4.2-6.2,6.4-9.3c0,0,0,0,0.1-0.1
				c0.1,0,0.3,0,0.4-0.1c24.3-3,48.2-5.9,71.8-8.8c11.7-1.4,23.3-2.8,34.9-4.2c11.5-1.4,22.9-2.7,34.2-4.1c0.2,0,0.5-0.1,0.7-0.1
				c0,0-0.1,0.1-0.1,0.1c-2.7,3.2-5.3,6.5-7.9,9.7c-1.2,1.6-2.5,3.2-3.6,4.8C-419.4,141.8-420.6,143.4-421.8,145.1z M-421.9,145
				c1-1.6,2-3.2,3-4.8c1.1-1.6,2.2-3.2,3.4-4.8c2.4-3.2,4.8-6.4,7.3-9.6c0.2,0,0.4,0,0.6,0.1c-11.3,1.3-22.7,2.7-34.2,4.1
				c-11.5,1.4-23.2,2.8-34.9,4.2c-23.6,2.8-47.5,5.7-71.7,8.7c0.2,0,0.3-0.1,0.5-0.1c-2.4,3.1-4.6,6.2-6.8,9.3
				c-2,3.1-3.8,6.2-5.5,9.3c-0.2,0-0.3,0-0.5,0c12-1.4,23.8-2.9,35.6-4.3c11.7-1.4,23.4-2.8,35-4.1c11.5-1.4,23-2.7,34.4-4
				C-444.3,147.6-433.1,146.3-421.9,145z"/>
		</g>
		<g>
			<path class="st0" d="M-57.6,106c-37,3.5-74.8,7.3-113.6,11.3c5.1-6.9,10.4-13.7,16-20.5c38.7-4.3,76.5-8.2,113.2-11.9
				C-47.4,92-52.6,99-57.6,106z"/>
			<path d="M-57.6,106c-9.2,0.9-18.5,1.8-27.8,2.8c-9.3,0.9-18.7,1.9-28.2,2.8c-9.5,0.9-19,1.9-28.6,2.9c-9.6,1-19.3,2-29,3
				c-0.1,0-0.3,0-0.4,0c0,0,0-0.1,0.1-0.1c2.6-3.4,5.3-6.9,7.9-10.3c2.7-3.4,5.4-6.8,8.2-10.2c0,0,0-0.1,0.1-0.1c0.1,0,0.2,0,0.3,0
				c19.5-2.1,38.7-4.2,57.6-6.2c9.4-1,18.8-2,28.1-2.9c9.3-1,18.4-1.9,27.6-2.8c0.2,0,0.4,0,0.6-0.1c0,0.1-0.1,0.1-0.1,0.2
				c-2.8,3.5-5.6,7-8.3,10.6c-1.3,1.8-2.7,3.5-4,5.3C-55,102.5-56.3,104.2-57.6,106z M-57.7,106c1.1-1.7,2.3-3.5,3.5-5.2
				c1.2-1.8,2.5-3.5,3.7-5.3c2.6-3.5,5.2-7,7.9-10.5c0.2,0,0.3,0.1,0.5,0.1c-9.1,0.9-18.3,1.9-27.6,2.8c-9.3,0.9-18.6,1.9-28,2.9
				c-18.9,2-38.1,4-57.5,6.1c0.1,0,0.3-0.1,0.4-0.1c-2.9,3.4-5.7,6.9-8.5,10.3c-2.6,3.4-5.1,6.8-7.5,10.3c-0.1,0-0.2,0-0.4-0.1
				c9.8-1,19.5-2,29.1-3c9.6-1,19.1-1.9,28.6-2.9c9.4-0.9,18.8-1.8,28.1-2.7C-76,107.7-66.8,106.8-57.7,106z"/>
		</g>
		<g>
			<path d="M-171.2,117.3c-39.4,4.1-79.7,8.4-121.1,13c4.9-6.7,10.1-13.3,15.6-20c41.6-4.8,82.1-9.4,121.5-13.6
				C-160.8,103.6-166.1,110.5-171.2,117.3z"/>
			<path d="M-171.1,117.3c-9.8,1-19.7,2.1-29.6,3.2c-10,1.1-20,2.1-30,3.2c-10.1,1.1-20.3,2.2-30.5,3.3c-10.3,1.1-20.6,2.2-31,3.4
				c-0.2,0-0.3,0-0.5,0c0,0,0-0.1,0.1-0.1c2.5-3.3,5.1-6.7,7.7-10c2.6-3.3,5.3-6.6,8-10c0,0,0-0.1,0.1-0.1c0.1,0,0.2,0,0.4,0
				c20.9-2.4,41.5-4.8,61.9-7.1c10.1-1.1,20.1-2.3,30.1-3.4c9.9-1.1,19.8-2.2,29.6-3.2c0.2,0,0.4,0,0.6-0.1c0,0-0.1,0.1-0.1,0.1
				c-2.9,3.4-5.8,6.9-8.6,10.3c-1.4,1.7-2.7,3.4-4,5.2C-168.5,113.9-169.8,115.6-171.1,117.3z M-171.2,117.3
				c1.2-1.7,2.3-3.4,3.5-5.1c1.3-1.7,2.5-3.4,3.8-5.1c2.6-3.4,5.3-6.8,8.1-10.2c0.2,0,0.3,0.1,0.5,0.1c-9.8,1.1-19.6,2.1-29.6,3.2
				c-10,1.1-20,2.2-30.1,3.3c-20.3,2.2-40.9,4.6-61.8,7c0.1,0,0.3-0.1,0.4-0.1c-2.9,3.3-5.6,6.7-8.3,10c-2.5,3.3-4.9,6.6-7.2,10
				c-0.1,0-0.3,0-0.4,0c10.4-1.2,20.8-2.3,31.1-3.4c10.2-1.1,20.4-2.2,30.5-3.3c10.1-1.1,20.1-2.1,30-3.2
				C-190.8,119.3-181,118.3-171.2,117.3z"/>
		</g>
		<g>
			<path class="st0" d="M150.8,88.5c-33.2,2.3-67,5-101.4,7.9C54.1,89.2,59,82,64.1,74.8c34-3.1,67.3-5.8,100-8.3
				C159.5,73.9,155.1,81.2,150.8,88.5z"/>
			<path d="M150.8,88.5c-8.3,0.6-16.6,1.2-25,1.9c-8.4,0.6-16.8,1.3-25.2,2c-8.5,0.7-17,1.3-25.5,2c-8.6,0.7-17.2,1.4-25.8,2.1
				c-0.1,0-0.3,0-0.4,0c0,0,0-0.1,0.1-0.1c2.4-3.6,4.9-7.2,7.4-10.8c2.4-3.6,4.9-7.2,7.5-10.8c0,0,0-0.1,0.1-0.1c0.1,0,0.2,0,0.3,0
				c17.1-1.6,34-3,50.7-4.4c8.3-0.7,16.6-1.4,24.8-2c8.2-0.7,16.4-1.3,24.5-1.9c0.2,0,0.4,0,0.5,0c0,0.1-0.1,0.1-0.1,0.2
				c-2.4,3.7-4.7,7.3-7,11c-1.1,1.8-2.3,3.7-3.4,5.5C153.1,84.8,151.9,86.7,150.8,88.5z M150.7,88.5c1-1.8,2-3.6,3-5.5
				c1-1.8,2.1-3.7,3.2-5.5c2.2-3.7,4.4-7.3,6.7-11c0.1,0,0.3,0.1,0.4,0.1c-8.1,0.6-16.3,1.3-24.5,1.9c-8.2,0.6-16.5,1.3-24.8,2
				C98,72,81.1,73.4,64.1,74.9c0.1,0,0.2-0.1,0.4-0.1c-2.6,3.6-5.2,7.2-7.7,10.8c-2.4,3.6-4.7,7.2-6.9,10.8c-0.1,0-0.2,0-0.3-0.1
				c8.7-0.8,17.3-1.5,25.9-2.2c8.5-0.7,17-1.4,25.5-2c8.4-0.6,16.8-1.3,25.2-1.9C134.2,89.6,142.5,89.1,150.7,88.5z"/>
		</g>
		<g>
			<path d="M49.4,96.4c-34.9,2.9-70.5,6.1-107,9.6c5-7,10.2-14.1,15.7-21.1c36.2-3.7,71.5-7,106-10.1C59,82,54.1,89.2,49.4,96.4z"/>
			<path d="M49.4,96.4c-8.7,0.8-17.5,1.5-26.3,2.3c-8.8,0.8-17.7,1.6-26.6,2.4c-8.9,0.8-17.9,1.6-26.9,2.5
				c-9.1,0.8-18.2,1.7-27.3,2.5c-0.1,0-0.3,0-0.4,0c0,0,0-0.1,0.1-0.1c2.6-3.5,5.2-7,7.8-10.6c2.6-3.5,5.3-7,8-10.5
				c0,0,0-0.1,0.1-0.1c0.1,0,0.2,0,0.3,0c18.2-1.9,36.1-3.6,53.9-5.3c8.8-0.8,17.6-1.7,26.3-2.5c8.7-0.8,17.3-1.6,25.9-2.3
				c0.2,0,0.4,0,0.6,0c0,0.1-0.1,0.1-0.1,0.2c-2.7,3.6-5.3,7.2-7.8,10.8c-1.3,1.8-2.5,3.6-3.7,5.4C51.9,92.8,50.6,94.6,49.4,96.4z
				 M49.3,96.4c1.1-1.8,2.2-3.6,3.3-5.4c1.2-1.8,2.3-3.6,3.5-5.4c2.4-3.6,4.9-7.2,7.4-10.8c0.1,0,0.3,0.1,0.4,0.1
				c-8.6,0.8-17.2,1.6-25.9,2.4c-8.7,0.8-17.5,1.6-26.3,2.5C-5.9,81.5-23.8,83.2-42,85c0.1,0,0.3-0.1,0.4-0.1
				c-2.8,3.5-5.6,7-8.3,10.5c-2.6,3.5-5,7-7.4,10.5c-0.1,0-0.2,0-0.3-0.1c9.2-0.9,18.3-1.8,27.3-2.6c9-0.8,18-1.7,26.9-2.4
				c8.9-0.8,17.7-1.6,26.5-2.3C32,97.8,40.7,97.1,49.3,96.4z"/>
		</g>
		<g>
			<path class="st0" d="M341.3,78.1c-30.8,1.1-62,2.6-93.6,4.3c3.7-7.4,7.5-14.9,11.4-22.3c30.9-1.8,61.3-3.4,91.4-4.6
				C347.4,63,344.3,70.6,341.3,78.1z"/>
			<path d="M341.4,78.1c-7.7,0.3-15.5,0.6-23.2,1c-7.8,0.3-15.5,0.7-23.3,1.1c-7.8,0.4-15.6,0.7-23.5,1.1
				c-7.9,0.4-15.7,0.8-23.7,1.2c-0.1,0-0.2,0-0.3,0c0,0,0-0.1,0.1-0.1c1.9-3.7,3.9-7.4,5.8-11.2c1.9-3.7,3.8-7.4,5.7-11.1
				c0,0,0-0.1,0-0.1c0.1,0,0.2,0,0.3,0c15.5-0.9,30.9-1.8,46.1-2.6c7.6-0.4,15.2-0.8,22.8-1.1c7.5-0.3,15.1-0.7,22.6-1
				c0.2,0,0.3,0,0.5,0c0,0.1,0,0.1-0.1,0.2c-1.6,3.8-3.3,7.5-4.9,11.3c-0.8,1.9-1.6,3.8-2.4,5.7C343,74.3,342.2,76.2,341.4,78.1z
				 M341.3,78.1c0.7-1.9,1.4-3.8,2.1-5.6c0.7-1.9,1.5-3.8,2.2-5.6c1.5-3.8,3-7.5,4.5-11.3c0.1,0,0.3,0.1,0.4,0.1
				c-7.5,0.3-15,0.6-22.6,1c-7.6,0.3-15.1,0.7-22.7,1.1c-15.2,0.7-30.6,1.6-46.1,2.5c0.1,0,0.2-0.1,0.3-0.1c-2,3.7-4,7.4-6,11.2
				c-1.9,3.7-3.7,7.4-5.4,11.1c-0.1,0-0.2-0.1-0.3-0.1c7.9-0.5,15.8-0.9,23.7-1.3c7.8-0.4,15.7-0.8,23.5-1.1
				c7.8-0.3,15.5-0.7,23.3-1C325.9,78.6,333.6,78.3,341.3,78.1z"/>
		</g>
		<g>
			<path d="M247.7,82.4c-31.8,1.7-64.1,3.8-96.9,6.1c4.3-7.3,8.7-14.6,13.3-22c32.2-2.5,63.9-4.6,95.1-6.5
				C255.2,67.5,251.4,75,247.7,82.4z"/>
			<path d="M247.8,82.4c-8,0.5-15.9,0.9-24,1.4c-8,0.5-16.1,1-24.1,1.5c-8.1,0.5-16.2,1-24.4,1.6c-8.2,0.5-16.4,1.1-24.6,1.7
				c-0.1,0-0.2,0-0.4,0c0,0,0-0.1,0.1-0.1c2.2-3.7,4.4-7.3,6.7-11c2.2-3.7,4.4-7.3,6.7-11c0,0,0-0.1,0.1-0.1c0.1,0,0.2,0,0.3,0
				c16.2-1.3,32.2-2.4,48.1-3.5c7.9-0.5,15.8-1.1,23.6-1.6c7.8-0.5,15.6-1,23.4-1.4c0.2,0,0.3,0,0.5,0c0,0.1-0.1,0.1-0.1,0.2
				c-2,3.7-4,7.4-6,11.2c-1,1.9-2,3.7-2.9,5.6C249.7,78.7,248.7,80.6,247.8,82.4z M247.7,82.4c0.8-1.9,1.7-3.7,2.6-5.6
				c0.9-1.9,1.8-3.7,2.7-5.6c1.9-3.7,3.8-7.4,5.7-11.1c0.1,0,0.3,0.1,0.4,0.1c-7.8,0.5-15.6,0.9-23.4,1.4c-7.8,0.5-15.7,1-23.6,1.5
				c-15.9,1.1-31.9,2.2-48,3.4c0.1,0,0.2-0.1,0.3-0.1c-2.4,3.7-4.7,7.3-7,11c-2.2,3.7-4.3,7.3-6.3,11c-0.1,0-0.2-0.1-0.3-0.1
				c8.3-0.6,16.5-1.2,24.6-1.7c8.1-0.5,16.3-1.1,24.3-1.6c8.1-0.5,16.1-1,24.1-1.4C231.9,83.2,239.8,82.8,247.7,82.4z"/>
		</g>
		<g>
			<path class="st0" d="M523.1,75c-30-0.1-60.1,0.1-90.3,0.6c2.3-7.6,4.6-15.2,6.9-22.8c29.4-0.6,58.7-0.8,87.9-0.8
				C526.1,59.7,524.6,67.4,523.1,75z"/>
			<path d="M523.1,75c-7.5,0-15.1,0-22.6,0.1c-7.5,0-15,0.1-22.6,0.1c-7.5,0.1-15.1,0.1-22.6,0.2c-7.5,0.1-15.1,0.2-22.6,0.3
				c-0.1,0-0.2,0-0.3,0c0,0,0-0.1,0-0.1c1.2-3.8,2.4-7.6,3.6-11.4c1.1-3.8,2.2-7.6,3.4-11.4c0,0,0-0.1,0-0.1c0.1,0,0.2,0,0.3,0
				c14.7-0.3,29.4-0.5,44-0.7c7.3-0.1,14.6-0.1,22-0.1c7.3,0,14.6,0,21.9,0c0.2,0,0.3,0,0.5,0c0,0.1,0,0.1,0,0.2
				c-0.8,3.8-1.6,7.7-2.4,11.5c-0.4,1.9-0.8,3.8-1.2,5.7C524,71.2,523.5,73.1,523.1,75z M523,75c0.3-1.9,0.6-3.8,1-5.7
				c0.3-1.9,0.7-3.8,1-5.7c0.7-3.8,1.4-7.7,2.1-11.5c0.1,0.1,0.3,0.1,0.4,0.2c-7.3,0-14.6,0-22,0c-7.3,0-14.6,0.1-22,0.1
				c-14.6,0.1-29.3,0.3-44,0.6c0.1,0,0.2-0.1,0.3-0.1c-1.2,3.8-2.4,7.6-3.6,11.4c-1.1,3.8-2.2,7.6-3.3,11.4c-0.1,0-0.2-0.1-0.3-0.1
				c7.6-0.2,15.1-0.3,22.6-0.4c7.5-0.1,15.1-0.2,22.6-0.2c7.5,0,15-0.1,22.6-0.1C508,74.9,515.5,75,523,75z"/>
		</g>
		<g>
			<path d="M432.7,75.6c-30.2,0.5-60.7,1.3-91.4,2.5c3-7.5,6.1-15.1,9.3-22.6c29.9-1.2,59.6-2.1,89-2.7
				C437.3,60.4,435,68,432.7,75.6z"/>
			<path d="M432.8,75.6c-7.6,0.2-15.2,0.3-22.8,0.5c-7.6,0.2-15.2,0.4-22.8,0.6c-7.6,0.2-15.2,0.4-22.9,0.7
				c-7.7,0.2-15.3,0.5-23,0.8c-0.1,0-0.2,0-0.3,0c0,0,0-0.1,0-0.1c1.6-3.8,3.2-7.5,4.7-11.3c1.5-3.8,3.1-7.5,4.6-11.3
				c0,0,0-0.1,0-0.1c0.1,0,0.2,0,0.3,0c15-0.6,29.9-1.2,44.8-1.7c7.4-0.2,14.8-0.4,22.2-0.6c7.4-0.2,14.7-0.3,22.1-0.5
				c0.2,0,0.3,0,0.5,0c0,0.1,0,0.1-0.1,0.2c-1.2,3.8-2.4,7.6-3.6,11.4c-0.6,1.9-1.2,3.8-1.8,5.7C434,71.8,433.4,73.7,432.8,75.6z
				 M432.7,75.6c0.5-1.9,1-3.8,1.5-5.7c0.5-1.9,1.1-3.8,1.6-5.7c1.1-3.8,2.2-7.6,3.3-11.4c0.1,0.1,0.3,0.1,0.4,0.2
				c-7.4,0.1-14.7,0.3-22.1,0.5c-7.4,0.2-14.8,0.4-22.2,0.6c-14.8,0.4-29.7,0.9-44.7,1.5c0.1,0,0.2-0.1,0.3-0.1
				c-1.6,3.8-3.2,7.5-4.8,11.3c-1.5,3.8-3,7.5-4.4,11.3c-0.1,0-0.2-0.1-0.3-0.1c7.7-0.3,15.4-0.6,23-0.8c7.6-0.2,15.3-0.5,22.9-0.7
				c7.6-0.2,15.2-0.4,22.8-0.5C417.6,75.8,425.1,75.7,432.7,75.6z"/>
		</g>
		<g>
			<path class="st0" d="M705.3,79.5c-30.8-1.4-61.4-2.5-91.8-3.2c0.8-7.7,1.5-15.3,2.1-23c29.6,0.7,59.4,1.8,89.5,3.2
				C705.3,64.2,705.4,71.8,705.3,79.5z"/>
			<path d="M705.3,79.5c-7.7-0.3-15.5-0.6-23.2-0.9c-7.7-0.3-15.3-0.6-23-0.8c-7.6-0.3-15.3-0.5-22.9-0.7
				c-7.6-0.2-15.2-0.4-22.8-0.7c-0.1,0-0.2,0-0.3,0c0,0,0-0.1,0-0.1c0.5-3.8,0.9-7.7,1.3-11.5c0.3-3.8,0.6-7.7,0.9-11.5
				c0,0,0-0.1,0-0.1c0.1,0,0.2,0,0.3,0c14.8,0.3,29.6,0.8,44.5,1.3c7.5,0.3,14.9,0.5,22.4,0.9c7.5,0.3,15,0.6,22.6,1
				c0.2,0,0.3,0,0.5,0c0,0.1,0,0.1,0,0.2c0,3.8,0.1,7.7,0,11.5c0,1.9-0.1,3.8-0.1,5.8C705.5,75.7,705.4,77.6,705.3,79.5z
				 M705.2,79.5c0-1.9-0.1-3.8-0.1-5.7c0-1.9-0.1-3.8-0.1-5.8c-0.1-3.8-0.2-7.7-0.4-11.5c0.2,0.1,0.3,0.1,0.5,0.2
				c-7.5-0.3-15.1-0.7-22.6-1c-7.5-0.3-15-0.6-22.4-0.9c-14.9-0.6-29.7-1-44.5-1.4c0.1,0,0.2-0.1,0.3-0.1c-0.3,3.8-0.7,7.7-1.1,11.5
				c-0.3,3.8-0.6,7.7-1,11.5c-0.1,0-0.2-0.1-0.3-0.1c7.6,0.2,15.2,0.4,22.8,0.6c7.6,0.2,15.2,0.5,22.9,0.8c7.6,0.3,15.3,0.6,23,0.9
				C689.8,78.8,697.5,79.1,705.2,79.5z"/>
		</g>
		<g>
			<path d="M613.5,76.3c-30.2-0.7-60.4-1.2-90.5-1.3c1.5-7.7,3-15.3,4.5-23c29.3,0.1,58.6,0.5,88.1,1.2
				C615,61,614.3,68.6,613.5,76.3z"/>
			<path d="M613.6,76.3c-7.6-0.2-15.2-0.3-22.8-0.4c-7.6-0.1-15.1-0.2-22.6-0.3c-7.5-0.1-15.1-0.2-22.6-0.2
				c-7.5-0.1-15-0.1-22.6-0.2c-0.1,0-0.2,0-0.3,0c0,0,0-0.1,0-0.1c0.9-3.8,1.7-7.7,2.4-11.5c0.7-3.8,1.4-7.7,2.1-11.5
				c0,0,0-0.1,0-0.1c0.1,0,0.2,0,0.3,0c14.6,0,29.3,0.1,43.9,0.3c7.3,0.1,14.7,0.2,22,0.4c7.4,0.1,14.7,0.3,22.1,0.5
				c0.2,0,0.3,0,0.5,0c0,0.1,0,0.1,0,0.2c-0.4,3.8-0.7,7.7-1.1,11.5c-0.2,1.9-0.4,3.8-0.6,5.8C614.1,72.5,613.8,74.4,613.6,76.3z
				 M613.5,76.3c0.1-1.9,0.3-3.8,0.4-5.7c0.2-1.9,0.3-3.8,0.5-5.8c0.3-3.8,0.6-7.7,0.8-11.5c0.2,0.1,0.3,0.1,0.5,0.2
				c-7.4-0.2-14.7-0.3-22.1-0.5c-7.4-0.1-14.7-0.3-22-0.4c-14.7-0.2-29.3-0.4-43.9-0.4c0.1,0,0.2-0.1,0.3-0.1
				c-0.8,3.8-1.5,7.7-2.3,11.5c-0.7,3.8-1.4,7.7-2.1,11.5c-0.1,0-0.2-0.1-0.3-0.1c7.5,0,15,0,22.6,0.1c7.5,0.1,15.1,0.2,22.6,0.3
				c7.5,0.1,15.1,0.3,22.6,0.4C598.4,75.9,605.9,76.1,613.5,76.3z"/>
		</g>
		<g>
			<path class="st0" d="M897.2,91.8c-33.1-2.7-65.6-5.1-97.8-7.1c-0.5-7.6-1.2-15.3-2.1-22.9c31.5,2.1,63.6,4.5,96.2,7.3
				C895,76.6,896.2,84.2,897.2,91.8z"/>
			<path d="M897.3,91.8c-8.3-0.7-16.6-1.3-24.9-1.9c-8.2-0.6-16.4-1.2-24.6-1.8c-8.1-0.6-16.2-1.2-24.3-1.7
				c-8-0.6-16.1-1.1-24.1-1.6c-0.1,0-0.2,0-0.3,0c0,0,0-0.1,0-0.1c-0.2-3.8-0.4-7.6-0.7-11.5c-0.4-3.8-0.9-7.7-1.4-11.5
				c0,0,0-0.1,0-0.1c0.1,0,0.2,0,0.3,0c15.7,1,31.5,2.1,47.5,3.3c8,0.6,16.1,1.2,24.2,1.9c8.1,0.7,16.3,1.3,24.5,2
				c0.2,0,0.4,0,0.5,0c0,0.1,0,0.1,0,0.2c0.7,3.8,1.3,7.6,1.9,11.4c0.3,1.9,0.5,3.8,0.8,5.7C896.9,88,897.1,89.9,897.3,91.8z
				 M897.2,91.8c-0.3-1.9-0.6-3.8-0.9-5.7c-0.3-1.9-0.6-3.8-1-5.7c-0.7-3.8-1.5-7.6-2.3-11.4c0.2,0.1,0.4,0.1,0.6,0.2
				c-8.2-0.7-16.4-1.4-24.5-2c-8.1-0.7-16.2-1.3-24.2-1.9c-16-1.2-31.8-2.4-47.5-3.5c0.1,0,0.2,0,0.3-0.1c0.4,3.8,0.8,7.6,1.1,11.5
				c0.3,3.8,0.7,7.7,1.1,11.5c-0.1,0-0.2-0.1-0.4-0.1c8,0.5,16,1,24.1,1.6c8.1,0.6,16.2,1.1,24.3,1.7c8.2,0.6,16.3,1.2,24.6,1.9
				C880.6,90.4,888.9,91.1,897.2,91.8z"/>
		</g>
		<g>
			<path d="M799.5,84.7c-31.8-2-63.1-3.8-94.2-5.2c0.1-7.7,0-15.3-0.1-23c30.4,1.4,61.1,3.2,92.2,5.2C798.2,69.4,799,77,799.5,84.7z
				"/>
			<path d="M799.5,84.7c-8-0.5-16-1-23.9-1.4c-7.9-0.5-15.8-0.9-23.6-1.3c-7.8-0.4-15.7-0.8-23.5-1.2c-7.8-0.4-15.5-0.8-23.3-1.1
				c-0.1,0-0.2,0-0.3,0c0,0,0-0.1,0-0.1c0.1-3.8,0.2-7.7,0.2-11.5c-0.1-3.8-0.2-7.7-0.3-11.5c0,0,0-0.1,0-0.1c0.1,0,0.2,0,0.3,0
				c15.1,0.7,30.4,1.4,45.7,2.3c7.7,0.4,15.4,0.9,23.1,1.4c7.8,0.5,15.6,1,23.4,1.5c0.2,0,0.3,0,0.5,0c0,0.1,0,0.1,0,0.2
				c0.4,3.8,0.8,7.6,1.1,11.5c0.1,1.9,0.3,3.8,0.4,5.7C799.4,80.9,799.5,82.8,799.5,84.7z M799.4,84.7c-0.2-1.9-0.4-3.8-0.6-5.7
				c-0.2-1.9-0.4-3.8-0.6-5.7c-0.4-3.8-0.9-7.7-1.4-11.5c0.2,0.1,0.4,0.1,0.5,0.2c-7.8-0.5-15.6-1-23.4-1.5
				c-7.7-0.5-15.5-0.9-23.2-1.4c-15.3-0.9-30.6-1.7-45.7-2.4c0.1,0,0.2-0.1,0.3-0.1c0.1,3.8,0.1,7.7,0.1,11.5
				c0,3.8,0.1,7.7,0.1,11.5c-0.1,0-0.2-0.1-0.3-0.1c7.7,0.3,15.5,0.7,23.3,1.1c7.8,0.4,15.6,0.8,23.4,1.2c7.9,0.4,15.7,0.9,23.6,1.4
				C783.6,83.6,791.5,84.1,799.4,84.7z"/>
		</g>
		<g>
			<path class="st0" d="M1107.7,112.2c-36.8-4.1-72.8-7.8-108.1-11.2c-1.4-7.5-3-15-4.8-22.5c35,3.5,70.9,7.3,107.5,11.5
				C1104.4,97.4,1106.2,104.8,1107.7,112.2z"/>
			<path d="M1107.8,112.2c-9.3-1-18.5-2-27.6-2.9c-9.1-1-18.2-1.9-27.2-2.8c-9-0.9-17.9-1.8-26.8-2.7c-8.9-0.9-17.7-1.8-26.5-2.6
				c-0.1,0-0.3,0-0.4,0c0,0,0-0.1,0-0.1c-0.5-3.7-1.2-7.5-1.9-11.2c-0.9-3.8-1.8-7.5-2.8-11.3c0,0,0-0.1,0-0.1c0.1,0,0.2,0,0.3,0
				c17.4,1.7,35.1,3.5,52.9,5.4c9,1,18,1.9,27.1,2.9c9.1,1,18.3,2,27.5,3.1c0.2,0,0.4,0,0.6,0.1c0,0.1,0,0.1,0,0.2
				c1,3.7,1.9,7.4,2.8,11.1c0.4,1.8,0.8,3.7,1.1,5.5C1107.2,108.5,1107.5,110.3,1107.8,112.2z M1107.6,112.1
				c-0.4-1.9-0.8-3.7-1.3-5.6c-0.4-1.9-0.9-3.7-1.4-5.6c-1-3.7-2.1-7.4-3.2-11.1c0.2,0.1,0.4,0.2,0.6,0.2c-9.2-1-18.4-2.1-27.5-3.1
				c-9.1-1-18.1-2-27.1-3c-17.8-1.9-35.5-3.8-52.9-5.6c0.1,0,0.2,0,0.3-0.1c0.9,3.8,1.8,7.5,2.6,11.3c0.8,3.8,1.6,7.5,2.3,11.3
				c-0.1,0-0.3-0.1-0.4-0.1c8.8,0.8,17.6,1.7,26.4,2.6c8.9,0.9,17.8,1.8,26.8,2.7c9,0.9,18.1,1.9,27.2,2.9
				C1089.2,110.1,1098.4,111.1,1107.6,112.1z"/>
		</g>
		<g>
			<path d="M999.6,101c-34.7-3.4-68.9-6.4-102.4-9.2c-1-7.6-2.3-15.2-3.7-22.8c33.1,2.8,66.8,5.9,101.3,9.4
				C996.7,85.9,998.3,93.5,999.6,101z"/>
			<path d="M999.7,101c-8.8-0.8-17.5-1.6-26.1-2.4c-8.6-0.8-17.2-1.6-25.7-2.3c-8.5-0.8-17-1.5-25.4-2.2c-8.4-0.7-16.8-1.4-25.1-2.1
				c-0.1,0-0.2,0-0.4,0c0,0,0-0.1,0-0.1c-0.4-3.8-0.8-7.6-1.4-11.4c-0.7-3.8-1.4-7.6-2.2-11.4c0,0,0-0.1,0-0.1c0.1,0,0.2,0,0.3,0
				c16.5,1.4,33.1,2.8,49.9,4.4c8.5,0.8,16.9,1.6,25.5,2.4c8.6,0.8,17.2,1.7,25.9,2.6c0.2,0,0.4,0,0.6,0.1c0,0.1,0,0.1,0,0.2
				c0.9,3.8,1.7,7.5,2.5,11.3c0.4,1.9,0.7,3.7,1,5.6C999.2,97.2,999.5,99.1,999.7,101z M999.6,100.9c-0.4-1.9-0.8-3.8-1.2-5.6
				c-0.4-1.9-0.8-3.8-1.2-5.6c-0.9-3.8-1.9-7.5-2.9-11.3c0.2,0.1,0.4,0.1,0.6,0.2c-8.7-0.9-17.3-1.7-25.9-2.5
				c-8.5-0.8-17-1.6-25.5-2.4c-16.8-1.6-33.5-3.1-50-4.5c0.1,0,0.2,0,0.3-0.1c0.7,3.8,1.4,7.6,2,11.4c0.6,3.8,1.2,7.6,1.8,11.4
				c-0.1,0-0.3-0.1-0.4-0.1c8.3,0.7,16.7,1.3,25.1,2.1c8.4,0.7,16.9,1.5,25.4,2.2c8.5,0.8,17.1,1.6,25.8,2.4
				C982.2,99.2,990.9,100.1,999.6,100.9z"/>
		</g>
		<g>
			<path class="st0" d="M1344.6,140.8c-41.7-5.5-82.4-10.6-122.2-15.3c-1.4-7.3-3.1-14.5-5.2-21.8c40,4.9,81,10.2,123.1,15.9
				C1342.1,126.6,1343.5,133.7,1344.6,140.8z"/>
			<path d="M1344.7,140.8c-10.5-1.3-21-2.7-31.4-4c-10.3-1.3-20.6-2.6-30.8-3.9c-10.2-1.3-20.3-2.5-30.3-3.8
				c-10-1.2-19.9-2.5-29.8-3.7c-0.1,0-0.3,0-0.4-0.1c0,0,0-0.1,0-0.1c-0.5-3.6-1.2-7.2-2-10.9c-1-3.6-2-7.3-3.1-10.9
				c0,0,0-0.1,0-0.1c0.1,0,0.2,0,0.3,0c19.9,2.4,40,5,60.5,7.6c10.3,1.3,20.6,2.7,31.1,4c10.5,1.4,21,2.8,31.6,4.2
				c0.2,0,0.5,0.1,0.7,0.1c0,0.1,0,0.1,0,0.2c0.8,3.5,1.6,7.1,2.3,10.6c0.3,1.8,0.6,3.5,0.8,5.3
				C1344.3,137.3,1344.5,139,1344.7,140.8z M1344.5,140.7c-0.3-1.8-0.6-3.6-1-5.3c-0.3-1.8-0.7-3.6-1.1-5.3
				c-0.8-3.6-1.7-7.1-2.8-10.7c0.2,0.1,0.5,0.2,0.7,0.2c-10.6-1.4-21.1-2.8-31.6-4.2c-10.4-1.4-20.8-2.7-31.1-4
				c-20.4-2.7-40.6-5.2-60.5-7.7c0.1,0,0.2,0,0.3,0c1,3.6,1.9,7.3,2.8,10.9c0.8,3.6,1.7,7.3,2.5,10.9c-0.1-0.1-0.3-0.1-0.4-0.2
				c9.9,1.2,19.8,2.4,29.8,3.6c10,1.2,20.1,2.5,30.3,3.8c10.2,1.3,20.5,2.6,30.8,3.9C1323.6,138,1334.1,139.4,1344.5,140.7z"/>
		</g>
		<g>
			<path d="M1222.4,125.4c-39.1-4.8-77.3-9.2-114.7-13.3c-1.5-7.4-3.3-14.8-5.3-22.2c37.3,4.2,75.6,8.8,114.8,13.7
				C1219.3,110.9,1221,118.2,1222.4,125.4z"/>
			<path d="M1222.5,125.4c-9.9-1.2-19.7-2.3-29.4-3.4c-9.7-1.1-19.3-2.2-28.9-3.3c-9.5-1.1-19-2.2-28.4-3.2
				c-9.4-1.1-18.7-2.1-28-3.2c-0.1,0-0.3,0-0.4,0c0,0,0-0.1,0-0.1c-0.6-3.7-1.3-7.4-2.1-11.1c-1-3.7-2-7.4-3.1-11.1c0,0,0-0.1,0-0.1
				c0.1,0,0.2,0,0.3,0c18.6,2.1,37.4,4.2,56.4,6.5c9.6,1.1,19.2,2.3,28.9,3.5c9.8,1.2,19.6,2.4,29.5,3.6c0.2,0,0.4,0.1,0.6,0.1
				c0,0.1,0,0.1,0,0.2c1,3.6,1.9,7.3,2.7,10.9c0.4,1.8,0.7,3.6,1.1,5.4C1221.9,121.8,1222.2,123.6,1222.5,125.4z M1222.3,125.4
				c-0.4-1.8-0.8-3.6-1.2-5.5c-0.4-1.8-0.9-3.6-1.3-5.5c-1-3.6-2-7.3-3.2-10.9c0.2,0.1,0.5,0.2,0.7,0.2c-9.9-1.2-19.7-2.4-29.5-3.6
				c-9.7-1.2-19.4-2.4-29-3.5c-19-2.3-37.9-4.5-56.5-6.6c0.1,0,0.2,0,0.3-0.1c1,3.7,2,7.4,2.8,11.1c0.9,3.7,1.7,7.4,2.6,11.1
				c-0.1-0.1-0.3-0.1-0.4-0.2c9.3,1,18.6,2,28,3.1c9.4,1.1,18.9,2.2,28.4,3.3c9.6,1.1,19.2,2.3,28.9,3.4
				C1202.7,123,1212.5,124.2,1222.3,125.4z"/>
		</g>
		<g>
			<path class="st0" d="M1614.7,177.8c-47.6-6.9-94.1-13.4-139.6-19.6c-0.4-6.9-1.2-13.8-2.4-20.7c46.2,6.4,93.6,13.2,142.3,20.3
				C1615.3,164.5,1615.2,171.2,1614.7,177.8z"/>
			<path d="M1614.8,177.9c-12-1.7-24-3.4-35.8-5c-11.8-1.7-23.5-3.3-35.2-4.9c-11.6-1.6-23.1-3.2-34.6-4.8
				c-11.4-1.6-22.7-3.2-34-4.7c-0.2,0-0.3,0-0.5-0.1c0,0,0-0.1,0-0.1c0-3.4-0.2-6.9-0.5-10.3c-0.5-3.5-1.1-6.9-1.8-10.4
				c0,0,0-0.1,0-0.1c0.1,0,0.3,0,0.4,0.1c23,3.2,46.3,6.4,69.9,9.8c11.9,1.7,23.9,3.4,35.9,5.1c12.1,1.7,24.3,3.5,36.6,5.3
				c0.3,0,0.5,0.1,0.8,0.1c0,0,0,0.1,0,0.1c0.1,3.3,0.1,6.6,0,10c-0.1,1.7-0.2,3.3-0.3,5C1615.2,174.5,1615,176.2,1614.8,177.9z
				 M1614.6,177.8c0.1-1.7,0.1-3.3,0.1-5c0-1.7,0-3.3,0-5c-0.1-3.3-0.3-6.7-0.6-10c0.3,0.1,0.5,0.2,0.8,0.3
				c-12.3-1.8-24.4-3.5-36.5-5.3c-12-1.7-24-3.5-35.9-5.2c-23.6-3.4-46.9-6.7-69.9-9.9c0.1,0,0.3,0,0.4,0c0.6,3.4,1.1,6.9,1.5,10.3
				c0.4,3.4,0.8,6.9,1,10.4c-0.2-0.1-0.3-0.1-0.5-0.2c11.3,1.5,22.6,3.1,34,4.7c11.5,1.6,23,3.2,34.6,4.8c11.7,1.6,23.4,3.3,35.2,5
				C1590.7,174.3,1602.6,176.1,1614.6,177.8z"/>
		</g>
		<g>
			<path d="M1475.1,158.2c-44.5-6.2-88-12-130.5-17.5c-1.1-7.1-2.5-14.2-4.2-21.3c43,5.7,87.1,11.7,132.3,18.1
				C1473.9,144.4,1474.7,151.3,1475.1,158.2z"/>
			<path d="M1475.2,158.3c-11.2-1.5-22.4-3-33.5-4.5c-11-1.5-22-3-32.9-4.4c-10.8-1.5-21.6-2.9-32.4-4.3
				c-10.7-1.4-21.3-2.8-31.8-4.2c-0.2,0-0.3,0-0.5-0.1c0,0,0-0.1,0-0.1c-0.4-3.5-0.8-7.1-1.5-10.6c-0.8-3.6-1.7-7.1-2.7-10.7
				c0,0,0-0.1,0-0.1c0.1,0,0.3,0,0.4,0c21.4,2.8,43,5.7,65,8.7c11.1,1.5,22.2,3,33.4,4.6c11.3,1.6,22.6,3.1,34,4.7
				c0.2,0,0.5,0.1,0.7,0.1c0,0,0,0.1,0,0.2c0.6,3.4,1,6.9,1.4,10.3c0.1,1.7,0.3,3.4,0.4,5.1C1475.2,154.8,1475.2,156.5,1475.2,158.3
				z M1475.1,158.2c-0.2-1.7-0.3-3.5-0.5-5.2c-0.2-1.7-0.4-3.5-0.6-5.2c-0.5-3.5-1.2-6.9-1.9-10.4c0.3,0.1,0.5,0.2,0.8,0.3
				c-11.4-1.6-22.7-3.2-34-4.7c-11.2-1.6-22.3-3.1-33.4-4.6c-21.9-3-43.6-6-65-8.8c0.1,0,0.2,0,0.4,0c0.9,3.5,1.7,7.1,2.3,10.6
				c0.7,3.5,1.4,7.1,2,10.7c-0.2-0.1-0.3-0.1-0.5-0.2c10.5,1.3,21.2,2.7,31.8,4.1c10.7,1.4,21.5,2.9,32.4,4.3
				c10.9,1.5,21.9,3,32.9,4.5C1452.7,155.1,1463.9,156.6,1475.1,158.2z"/>
		</g>
		<g>
			<path class="st0" d="M-429,164c-44.3,4.9-89.7,10.1-136.2,15.6c2.6-6.3,5.6-12.5,9-18.7c47.3-5.7,93.5-11.1,138.5-16.3
				C-421.8,151-425.6,157.5-429,164z"/>
			<path d="M-429,164c-11,1.3-22.2,2.5-33.3,3.8c-11.2,1.3-22.5,2.6-33.8,3.9c-11.4,1.3-22.8,2.6-34.3,4c-11.6,1.3-23.2,2.7-34.9,4
				c-0.2,0-0.3,0-0.5,0.1c0,0,0-0.1,0-0.1c1.4-3.1,2.9-6.3,4.4-9.4c1.5-3.1,3.1-6.2,4.7-9.3c0,0,0,0,0-0.1c0.1,0,0.3,0,0.4-0.1
				c23.8-2.9,47.3-5.7,70.5-8.4c11.5-1.4,23-2.7,34.3-4c11.3-1.3,22.6-2.6,33.7-3.9c0.2,0,0.5-0.1,0.7-0.1c0,0-0.1,0.1-0.1,0.1
				c-2.2,3.2-4.3,6.5-6.3,9.7c-1,1.6-1.9,3.2-2.9,4.9C-427.1,160.7-428,162.4-429,164z M-429.1,164c0.7-1.6,1.5-3.2,2.3-4.8
				c0.8-1.6,1.7-3.2,2.6-4.8c1.8-3.2,3.8-6.4,5.8-9.7c0.2,0,0.4,0,0.6,0.1c-11.2,1.3-22.4,2.6-33.7,3.9c-11.4,1.3-22.8,2.7-34.3,4
				c-23.2,2.7-46.6,5.5-70.4,8.3c0.2,0,0.3-0.1,0.5-0.1c-1.8,3.1-3.5,6.2-5.1,9.4c-1.4,3.1-2.7,6.2-3.8,9.3c-0.2,0-0.3,0-0.5,0
				c11.7-1.4,23.3-2.7,34.9-4.1c11.5-1.3,22.9-2.6,34.3-3.9c11.3-1.3,22.6-2.6,33.8-3.8C-451.1,166.4-440.1,165.2-429.1,164z"/>
		</g>
		<g>
			<path d="M-565.2,179.6c-47.3,5.5-95.7,11.2-145.2,17.2c1.5-6,3.4-12,5.8-18c50.7-6.2,100.2-12.2,148.4-17.9
				C-559.6,167.1-562.6,173.3-565.2,179.6z"/>
			<path d="M-565.1,179.6c-11.8,1.4-23.6,2.8-35.5,4.2c-11.9,1.4-23.9,2.8-36,4.3c-12.1,1.4-24.3,2.9-36.6,4.3
				c-12.3,1.5-24.7,2.9-37.2,4.4c-0.2,0-0.4,0-0.5,0.1c0,0,0-0.1,0-0.1c0.9-3,1.8-6,2.7-9c0.9-3,2-6,3.1-9c0,0,0,0,0-0.1
				c0.2,0,0.3,0,0.5-0.1c25.5-3.1,50.7-6.2,75.5-9.2c12.3-1.5,24.6-3,36.8-4.4c12.1-1.5,24.2-2.9,36.2-4.3c0.3,0,0.5-0.1,0.8-0.1
				c0,0-0.1,0.1-0.1,0.1c-1.8,3.1-3.6,6.3-5.2,9.4c-0.8,1.6-1.6,3.1-2.3,4.7C-563.7,176.4-564.4,178-565.1,179.6z M-565.3,179.6
				c0.5-1.5,1.1-3.1,1.7-4.6c0.6-1.6,1.3-3.1,2-4.7c1.5-3.1,3-6.2,4.7-9.3c0.2,0,0.5,0,0.7,0c-12,1.4-24,2.9-36.1,4.3
				c-12.2,1.5-24.4,2.9-36.8,4.4c-24.8,3-50,6-75.5,9.1c0.2,0,0.3-0.1,0.5-0.1c-1.3,3-2.5,6-3.5,9c-0.9,3-1.6,6-2.1,9
				c-0.2,0-0.3,0-0.5,0c12.5-1.5,24.9-3,37.2-4.5c12.3-1.5,24.5-2.9,36.6-4.3c12.1-1.4,24.1-2.8,36-4.2
				C-588.8,182.3-577,180.9-565.3,179.6z"/>
		</g>
		<g>
			<path class="st0" d="M-181,137.6c-39.2,3.9-79.2,8-120.2,12.4c3.9-6.7,8.2-13.4,12.8-20c41.3-4.6,81.6-8.9,120.9-13
				C-172.3,123.8-176.8,130.7-181,137.6z"/>
			<path d="M-181,137.6c-9.8,1-19.6,2-29.5,3c-9.9,1-19.8,2-29.8,3.1c-10,1-20.1,2.1-30.3,3.2c-10.2,1.1-20.4,2.1-30.7,3.2
				c-0.2,0-0.3,0-0.5,0c0,0,0-0.1,0.1-0.1c2-3.4,4.2-6.7,6.3-10.1c2.1-3.3,4.3-6.7,6.6-10c0,0,0-0.1,0.1-0.1c0.1,0,0.2,0,0.4,0
				c20.7-2.3,41.2-4.6,61.5-6.8c10.1-1.1,20-2.2,30-3.2c9.9-1,19.7-2.1,29.5-3.1c0.2,0,0.4,0,0.6-0.1c0,0.1-0.1,0.1-0.1,0.2
				c-2.5,3.4-4.9,6.9-7.3,10.3c-1.2,1.7-2.3,3.4-3.4,5.2C-178.8,134.1-179.9,135.9-181,137.6z M-181.1,137.6
				c0.9-1.7,1.9-3.4,2.9-5.1c1-1.7,2.1-3.4,3.2-5.1c2.2-3.4,4.5-6.9,6.8-10.3c0.2,0,0.4,0.1,0.5,0.1c-9.8,1-19.6,2-29.5,3.1
				c-9.9,1-19.9,2.1-29.9,3.2c-20.2,2.1-40.7,4.3-61.4,6.6c0.1,0,0.3-0.1,0.4-0.1c-2.4,3.3-4.7,6.7-6.9,10c-2.1,3.3-4,6.7-5.8,10
				c-0.1,0-0.3,0-0.4,0c10.3-1.1,20.6-2.2,30.7-3.3c10.1-1.1,20.2-2.1,30.3-3.1c10-1,19.9-2,29.8-3
				C-200.5,139.5-190.8,138.5-181.1,137.6z"/>
		</g>
		<g>
			<path d="M-301.2,150c-41.6,4.4-84.2,9.1-127.8,14c3.4-6.5,7.2-12.9,11.3-19.4c44.2-5.2,87.3-10,129.3-14.6
				C-293,136.6-297.3,143.3-301.2,150z"/>
			<path d="M-301.1,150c-10.4,1.1-20.8,2.3-31.3,3.4c-10.5,1.1-21.1,2.3-31.7,3.5c-10.7,1.2-21.4,2.4-32.2,3.6
				c-10.8,1.2-21.7,2.4-32.7,3.6c-0.2,0-0.3,0-0.5,0.1c0,0,0-0.1,0.1-0.1c1.8-3.3,3.7-6.5,5.5-9.7c1.9-3.2,3.8-6.5,5.9-9.7
				c0,0,0-0.1,0-0.1c0.1,0,0.3,0,0.4,0c22.2-2.6,44.1-5.1,65.8-7.6c10.8-1.2,21.4-2.4,32-3.6c10.6-1.2,21.1-2.4,31.5-3.5
				c0.2,0,0.5,0,0.7-0.1c0,0-0.1,0.1-0.1,0.1c-2.4,3.3-4.7,6.7-7,10c-1.1,1.7-2.2,3.4-3.2,5C-299.1,146.6-300.1,148.3-301.1,150z
				 M-301.3,150c0.9-1.7,1.8-3.3,2.7-5c1-1.7,2-3.3,3-5c2.1-3.3,4.3-6.7,6.5-10c0.2,0,0.4,0,0.6,0.1c-10.4,1.2-20.9,2.3-31.5,3.5
				c-10.6,1.2-21.3,2.4-32,3.6c-21.6,2.4-43.5,4.9-65.7,7.5c0.1,0,0.3-0.1,0.4-0.1c-2.2,3.2-4.2,6.5-6.2,9.7c-1.8,3.2-3.5,6.5-5,9.7
				c-0.1,0-0.3,0-0.4,0c11-1.3,21.9-2.5,32.7-3.7c10.8-1.2,21.5-2.4,32.2-3.5c10.6-1.2,21.2-2.3,31.7-3.4
				C-321.9,152.1-311.6,151-301.3,150z"/>
		</g>
		<g>
			<path class="st0" d="M39.7,117.7c-35.1,2.8-70.9,5.8-107.4,9.1c4.2-7,8.7-14.1,13.5-21.1c36.4-3.5,71.9-6.7,106.8-9.6
				C48.1,103.3,43.8,110.5,39.7,117.7z"/>
			<path d="M39.7,117.7c-8.8,0.7-17.6,1.4-26.4,2.2c-8.9,0.7-17.7,1.5-26.7,2.3c-9,0.8-18,1.5-27,2.3c-9.1,0.8-18.2,1.6-27.3,2.4
				c-0.1,0-0.3,0-0.4,0c0,0,0-0.1,0.1-0.1c2.2-3.5,4.4-7.1,6.7-10.6c2.2-3.5,4.5-7,6.9-10.5c0,0,0-0.1,0.1-0.1c0.1,0,0.2,0,0.3,0
				c18.3-1.8,36.3-3.5,54.2-5.1c8.9-0.8,17.7-1.6,26.5-2.4c8.8-0.8,17.5-1.5,26.1-2.2c0.2,0,0.4,0,0.6,0c0,0.1-0.1,0.1-0.1,0.2
				c-2.3,3.6-4.6,7.2-6.9,10.8c-1.1,1.8-2.2,3.6-3.3,5.4C41.9,114.1,40.8,115.9,39.7,117.7z M39.6,117.7c0.9-1.8,1.9-3.6,2.8-5.4
				c1-1.8,2-3.6,3.1-5.4c2.1-3.6,4.3-7.2,6.5-10.8c0.2,0,0.3,0.1,0.5,0.1c-8.7,0.7-17.4,1.5-26.1,2.2c-8.8,0.8-17.6,1.5-26.5,2.3
				c-17.8,1.6-35.9,3.2-54.1,4.9c0.1,0,0.3-0.1,0.4-0.1c-2.4,3.5-4.8,7-7.1,10.6c-2.2,3.5-4.3,7-6.2,10.6c-0.1,0-0.2,0-0.3-0.1
				c9.2-0.8,18.3-1.7,27.4-2.5c9-0.8,18-1.6,27-2.3c8.9-0.7,17.8-1.5,26.6-2.2C22.2,119,30.9,118.4,39.6,117.7z"/>
		</g>
		<g>
			<path d="M-67.7,126.8c-37,3.3-74.8,6.9-113.3,10.8c4.2-6.9,8.7-13.7,13.5-20.6c38.7-4,76.4-7.8,113.3-11.3
				C-59,112.7-63.4,119.8-67.7,126.8z"/>
			<path d="M-67.6,126.8c-9.2,0.9-18.5,1.7-27.8,2.6c-9.3,0.9-18.7,1.8-28.1,2.7c-9.5,0.9-19,1.8-28.5,2.8
				c-9.6,0.9-19.2,1.9-28.9,2.8c-0.1,0-0.3,0-0.4,0c0,0,0-0.1,0.1-0.1c2.2-3.5,4.4-6.9,6.6-10.3c2.2-3.4,4.5-6.9,6.9-10.3
				c0,0,0-0.1,0.1-0.1c0.1,0,0.2,0,0.3,0c19.4-2,38.6-4,57.6-5.9c9.4-0.9,18.8-1.9,28.1-2.8c9.3-0.9,18.5-1.8,27.7-2.7
				c0.2,0,0.4,0,0.6-0.1c0,0.1-0.1,0.1-0.1,0.2c-2.5,3.5-4.9,7.1-7.2,10.6c-1.2,1.8-2.3,3.5-3.4,5.3
				C-65.4,123.3-66.5,125.1-67.6,126.8z M-67.7,126.8c1-1.8,1.9-3.5,2.9-5.3c1-1.8,2.1-3.5,3.2-5.3c2.2-3.5,4.5-7,6.8-10.5
				c0.2,0,0.3,0.1,0.5,0.1c-9.2,0.9-18.4,1.8-27.7,2.7c-9.3,0.9-18.7,1.8-28.1,2.8c-18.9,1.9-38.1,3.8-57.5,5.8
				c0.1,0,0.3-0.1,0.4-0.1c-2.5,3.4-4.9,6.9-7.2,10.3c-2.2,3.4-4.2,6.9-6.2,10.3c-0.1,0-0.2,0-0.4-0.1c9.7-1,19.4-1.9,29-2.9
				c9.6-0.9,19.1-1.8,28.5-2.7c9.4-0.9,18.8-1.8,28.1-2.6C-86.1,128.4-76.9,127.6-67.7,126.8z"/>
		</g>
		<g>
			<path class="st0" d="M240.3,104.6c-32.3,1.6-65.1,3.5-98.3,5.7c3.8-7.3,7.7-14.7,11.8-22c32.8-2.3,65-4.3,96.8-6
				C247.1,89.7,243.7,97.1,240.3,104.6z"/>
			<path d="M240.4,104.6c-8.1,0.4-16.2,0.9-24.3,1.3c-8.1,0.5-16.3,0.9-24.5,1.4c-8.2,0.5-16.4,1-24.7,1.5c-8.3,0.5-16.6,1-24.9,1.6
				c-0.1,0-0.2,0-0.4,0c0,0,0-0.1,0.1-0.1c2-3.7,3.9-7.3,5.9-11c1.9-3.7,3.9-7.3,6-11c0,0,0-0.1,0-0.1c0.1,0,0.2,0,0.3,0
				c16.4-1.2,32.8-2.3,48.9-3.3c8.1-0.5,16.1-1,24.1-1.5c8-0.5,15.9-0.9,23.8-1.3c0.2,0,0.3,0,0.5,0c0,0.1-0.1,0.1-0.1,0.2
				c-1.9,3.7-3.7,7.5-5.5,11.2c-0.9,1.9-1.8,3.7-2.6,5.6C242.2,100.9,241.3,102.7,240.4,104.6z M240.3,104.6
				c0.8-1.9,1.5-3.7,2.3-5.6c0.8-1.9,1.6-3.7,2.4-5.6c1.7-3.7,3.4-7.4,5.1-11.2c0.1,0,0.3,0.1,0.4,0.1c-7.9,0.4-15.9,0.9-23.9,1.4
				c-8,0.5-16,0.9-24.1,1.4c-16.2,1-32.4,2-48.9,3.2c0.1,0,0.2-0.1,0.3-0.1c-2.1,3.7-4.2,7.3-6.2,11c-1.9,3.7-3.8,7.3-5.5,11
				c-0.1,0-0.2-0.1-0.3-0.1c8.3-0.6,16.7-1.1,24.9-1.6c8.3-0.5,16.5-1,24.7-1.5c8.2-0.5,16.3-0.9,24.4-1.3
				C224.2,105.3,232.3,105,240.3,104.6z"/>
		</g>
		<g>
			<path d="M142,110.3c-33.5,2.2-67.7,4.7-102.3,7.4c4.1-7.2,8.4-14.4,12.9-21.6c34.4-2.9,68.1-5.5,101.3-7.8
				C149.7,95.6,145.8,103,142,110.3z"/>
			<path d="M142.1,110.3c-8.4,0.6-16.8,1.2-25.3,1.8c-8.5,0.6-16.9,1.2-25.5,1.8c-8.5,0.6-17.1,1.3-25.7,1.9c-8.6,0.7-17.3,1.3-26,2
				c-0.1,0-0.3,0-0.4,0c0,0,0-0.1,0.1-0.1c2.1-3.6,4.3-7.2,6.4-10.8c2.1-3.6,4.3-7.2,6.5-10.8c0,0,0-0.1,0.1-0.1c0.1,0,0.2,0,0.3,0
				c17.3-1.5,34.4-2.9,51.3-4.2c8.4-0.7,16.8-1.3,25.2-1.9c8.3-0.6,16.6-1.2,24.9-1.8c0.2,0,0.4,0,0.5,0c0,0.1-0.1,0.1-0.1,0.2
				c-2.1,3.7-4.2,7.3-6.3,11c-1,1.8-2,3.7-3,5.5C144.1,106.6,143.1,108.5,142.1,110.3z M142,110.3c0.9-1.8,1.7-3.6,2.6-5.5
				c0.9-1.8,1.9-3.7,2.8-5.5c1.9-3.7,3.9-7.3,5.9-11c0.1,0,0.3,0.1,0.4,0.1c-8.3,0.6-16.5,1.2-24.9,1.8c-8.3,0.6-16.7,1.2-25.1,1.9
				c-16.9,1.3-34,2.6-51.2,4.1c0.1,0,0.2-0.1,0.4-0.1c-2.3,3.6-4.6,7.2-6.8,10.8c-2.1,3.6-4.1,7.2-6,10.8c-0.1,0-0.2,0-0.3-0.1
				c8.7-0.7,17.4-1.4,26-2c8.6-0.6,17.2-1.3,25.7-1.9c8.5-0.6,17-1.2,25.4-1.8C125.3,111.3,133.7,110.8,142,110.3z"/>
		</g>
		<g>
			<path class="st0" d="M428.9,98.4c-30.9,0.4-62,1.2-93.3,2.2c2.8-7.5,5.6-15.1,8.6-22.6c30.7-1.1,61.1-1.9,91.3-2.4
				C433.3,83.2,431.1,90.8,428.9,98.4z"/>
			<path d="M428.9,98.4c-7.7,0.1-15.5,0.3-23.3,0.5c-7.7,0.2-15.5,0.3-23.3,0.5c-7.8,0.2-15.6,0.4-23.4,0.6
				c-7.8,0.2-15.6,0.4-23.5,0.7c-0.1,0-0.2,0-0.3,0c0,0,0-0.1,0-0.1c1.5-3.8,3-7.5,4.4-11.3c1.4-3.8,2.8-7.5,4.2-11.3
				c0,0,0-0.1,0-0.1c0.1,0,0.2,0,0.3,0c15.4-0.6,30.7-1.1,45.9-1.5c7.6-0.2,15.2-0.4,22.8-0.6c7.6-0.2,15.1-0.3,22.7-0.4
				c0.2,0,0.3,0,0.5,0c0,0.1,0,0.1-0.1,0.2c-1.2,3.8-2.3,7.6-3.5,11.4c-0.6,1.9-1.2,3.8-1.7,5.7C430.1,94.6,429.5,96.5,428.9,98.4z
				 M428.8,98.4c0.5-1.9,1-3.8,1.5-5.7c0.5-1.9,1-3.8,1.6-5.7c1.1-3.8,2.1-7.6,3.2-11.4c0.1,0.1,0.3,0.1,0.4,0.2
				c-7.6,0.1-15.1,0.3-22.7,0.4c-7.6,0.2-15.2,0.3-22.8,0.5c-15.2,0.4-30.5,0.8-45.8,1.4c0.1,0,0.2-0.1,0.3-0.1
				c-1.5,3.8-3,7.5-4.5,11.3c-1.4,3.8-2.7,7.5-4,11.3c-0.1,0-0.2-0.1-0.3-0.1c7.8-0.3,15.7-0.5,23.5-0.8c7.8-0.2,15.6-0.4,23.3-0.6
				c7.8-0.2,15.5-0.3,23.2-0.5C413.4,98.6,421.1,98.5,428.8,98.4z"/>
		</g>
		<g>
			<path d="M335.6,100.6c-31.4,1-63.2,2.4-95.3,4c3.3-7.4,6.8-14.9,10.3-22.3c31.5-1.7,62.7-3.1,93.5-4.2
				C341.2,85.5,338.4,93.1,335.6,100.6z"/>
			<path d="M335.6,100.6c-7.9,0.3-15.8,0.6-23.7,0.9c-7.9,0.3-15.8,0.6-23.7,1c-7.9,0.3-15.9,0.7-23.9,1.1c-8,0.4-16,0.7-24,1.1
				c-0.1,0-0.2,0-0.4,0c0,0,0-0.1,0-0.1c1.7-3.7,3.5-7.5,5.2-11.2c1.7-3.7,3.4-7.4,5.2-11.2c0,0,0-0.1,0-0.1c0.1,0,0.2,0,0.3,0
				c15.8-0.9,31.5-1.7,47.1-2.4c7.8-0.4,15.5-0.7,23.3-1c7.7-0.3,15.4-0.6,23.1-0.9c0.2,0,0.3,0,0.5,0c0,0.1,0,0.1-0.1,0.2
				c-1.5,3.8-3,7.5-4.5,11.3c-0.7,1.9-1.5,3.8-2.2,5.7C337.1,96.8,336.4,98.7,335.6,100.6z M335.6,100.6c0.6-1.9,1.3-3.8,1.9-5.6
				c0.7-1.9,1.3-3.8,2-5.6c1.4-3.8,2.8-7.5,4.2-11.3c0.1,0,0.3,0.1,0.4,0.1c-7.7,0.3-15.4,0.6-23.1,0.9c-7.7,0.3-15.5,0.6-23.3,1
				c-15.6,0.7-31.3,1.4-47.1,2.3c0.1,0,0.2-0.1,0.3-0.1c-1.8,3.7-3.6,7.4-5.4,11.2c-1.7,3.7-3.3,7.4-4.8,11.2
				c-0.1,0-0.2-0.1-0.3-0.1c8.1-0.4,16.1-0.8,24.1-1.2c8-0.4,15.9-0.7,23.9-1c7.9-0.3,15.8-0.6,23.7-0.9
				C319.9,101.1,327.7,100.8,335.6,100.6z"/>
		</g>
		<g>
			<path class="st0" d="M613.6,99.4c-30.9-0.8-61.7-1.2-92.4-1.4c1.6-7.6,3.1-15.3,4.6-23c30.1,0.1,60.2,0.6,90.5,1.3
				C615.5,84,614.6,91.7,613.6,99.4z"/>
			<path d="M613.7,99.4c-7.8-0.2-15.5-0.3-23.2-0.4c-7.7-0.1-15.4-0.3-23.1-0.4c-7.7-0.1-15.4-0.2-23.1-0.3
				c-7.7-0.1-15.4-0.2-23.1-0.2c-0.1,0-0.2,0-0.3,0c0,0,0-0.1,0-0.1c0.9-3.8,1.7-7.6,2.5-11.5c0.7-3.8,1.5-7.7,2.2-11.5
				c0,0,0-0.1,0-0.1c0.1,0,0.2,0,0.3,0c15,0,30.1,0.2,45.2,0.4c7.5,0.1,15.1,0.2,22.6,0.4c7.6,0.2,15.1,0.3,22.7,0.5
				c0.2,0,0.3,0,0.5,0c0,0.1,0,0.1,0,0.2c-0.5,3.8-0.9,7.7-1.4,11.5c-0.3,1.9-0.5,3.8-0.8,5.8C614.3,95.6,614,97.5,613.7,99.4z
				 M613.6,99.4c0.2-1.9,0.4-3.8,0.6-5.7c0.2-1.9,0.4-3.8,0.6-5.8c0.4-3.8,0.7-7.7,1.1-11.5c0.2,0.1,0.3,0.1,0.5,0.2
				c-7.6-0.2-15.1-0.4-22.7-0.5c-7.6-0.2-15.1-0.3-22.6-0.4c-15.1-0.2-30.1-0.4-45.1-0.5c0.1,0,0.2-0.1,0.3-0.1
				c-0.8,3.8-1.6,7.7-2.4,11.5c-0.8,3.8-1.5,7.7-2.2,11.5c-0.1,0-0.2-0.1-0.3-0.1c7.7,0,15.4,0.1,23.1,0.1
				c7.7,0.1,15.4,0.2,23.1,0.3c7.7,0.1,15.4,0.3,23.1,0.4C598.2,99,605.9,99.2,613.6,99.4z"/>
		</g>
		<g>
			<path d="M521.2,98c-30.7-0.2-61.5,0-92.3,0.4c2.2-7.6,4.4-15.2,6.6-22.8c30.2-0.5,60.3-0.7,90.3-0.6
				C524.3,82.7,522.8,90.3,521.2,98z"/>
			<path d="M521.2,98c-7.7,0-15.4,0-23.1,0c-7.7,0-15.4,0-23.1,0.1c-7.7,0-15.4,0.1-23.1,0.2c-7.7,0.1-15.4,0.2-23.1,0.2
				c-0.1,0-0.2,0-0.3,0c0,0,0-0.1,0-0.1c1.2-3.8,2.4-7.6,3.5-11.4c1.1-3.8,2.1-7.6,3.2-11.4c0,0,0-0.1,0-0.1c0.1,0,0.2,0,0.3,0
				c15.1-0.3,30.2-0.5,45.2-0.6c7.5-0.1,15-0.1,22.6-0.1c7.5,0,15,0,22.5,0c0.2,0,0.3,0,0.5,0c0,0.1,0,0.1,0,0.2
				c-0.8,3.8-1.6,7.7-2.5,11.5c-0.4,1.9-0.8,3.8-1.3,5.7C522.1,94.2,521.7,96.1,521.2,98z M521.1,98c0.3-1.9,0.7-3.8,1-5.7
				c0.4-1.9,0.7-3.8,1.1-5.7c0.7-3.8,1.4-7.7,2.1-11.5c0.2,0.1,0.3,0.1,0.5,0.2c-7.5,0-15,0-22.6,0c-7.5,0-15,0-22.6,0.1
				c-15,0.1-30.1,0.2-45.2,0.4c0.1,0,0.2-0.1,0.3-0.1c-1.2,3.8-2.3,7.6-3.5,11.4c-1.1,3.8-2.1,7.6-3.1,11.4c-0.1,0-0.2-0.1-0.3-0.1
				c7.7-0.1,15.4-0.2,23.1-0.3c7.7-0.1,15.4-0.1,23.1-0.1c7.7,0,15.4,0,23,0C505.8,97.9,513.5,97.9,521.1,98z"/>
		</g>
		<g>
			<path class="st0" d="M803.1,107.8c-32.3-2-64.2-3.7-95.8-5.1c0.4-7.7,0.7-15.3,0.9-23c31.1,1.4,62.5,3.2,94.3,5.2
				C802.8,92.5,803.1,100.1,803.1,107.8z"/>
			<path d="M803.2,107.8c-8.1-0.5-16.2-0.9-24.3-1.4c-8-0.5-16-0.9-24-1.3c-8-0.4-15.9-0.8-23.9-1.2c-7.9-0.4-15.8-0.8-23.7-1.1
				c-0.1,0-0.2,0-0.3,0c0,0,0-0.1,0-0.1c0.3-3.8,0.6-7.7,0.8-11.5c0.1-3.8,0.2-7.7,0.2-11.5c0,0,0-0.1,0-0.1c0.1,0,0.2,0,0.3,0
				c15.5,0.7,31.1,1.4,46.8,2.3c7.9,0.4,15.7,0.9,23.7,1.4c7.9,0.5,15.9,1,23.9,1.5c0.2,0,0.3,0,0.5,0c0,0.1,0,0.1,0,0.2
				c0.2,3.8,0.3,7.6,0.3,11.4c0,1.9,0,3.8,0,5.7C803.3,104,803.2,105.9,803.2,107.8z M803.1,107.8c-0.1-1.9-0.1-3.8-0.2-5.7
				c-0.1-1.9-0.1-3.8-0.2-5.7c-0.2-3.8-0.4-7.6-0.7-11.5c0.2,0.1,0.4,0.1,0.5,0.2c-8-0.5-15.9-1-23.9-1.5
				c-7.9-0.5-15.8-0.9-23.7-1.4c-15.7-0.9-31.3-1.7-46.8-2.4c0.1,0,0.2-0.1,0.3-0.1c-0.1,3.8-0.2,7.7-0.4,11.5
				c-0.1,3.8-0.3,7.7-0.4,11.5c-0.1,0-0.2-0.1-0.3-0.1c7.9,0.3,15.8,0.7,23.7,1.1c7.9,0.4,15.9,0.8,23.9,1.2c8,0.4,16,0.9,24,1.4
				C786.9,106.7,795,107.2,803.1,107.8z"/>
		</g>
		<g>
			<path d="M707.3,102.6c-31.4-1.4-62.6-2.5-93.6-3.3c1-7.7,1.9-15.3,2.7-23c30.4,0.8,61,1.9,91.8,3.3
				C708,87.3,707.7,95,707.3,102.6z"/>
			<path d="M707.3,102.7c-7.9-0.3-15.8-0.6-23.6-0.9c-7.8-0.3-15.7-0.6-23.5-0.8c-7.8-0.3-15.6-0.5-23.3-0.7
				c-7.8-0.2-15.5-0.5-23.3-0.7c-0.1,0-0.2,0-0.3,0c0,0,0-0.1,0-0.1c0.6-3.8,1.1-7.7,1.6-11.5c0.4-3.8,0.8-7.7,1.1-11.5
				c0,0,0-0.1,0-0.1c0.1,0,0.2,0,0.3,0c15.2,0.4,30.4,0.8,45.7,1.3c7.7,0.3,15.3,0.6,23,0.9c7.7,0.3,15.4,0.7,23.1,1
				c0.2,0,0.3,0,0.5,0c0,0.1,0,0.1,0,0.2c-0.1,3.8-0.3,7.7-0.5,11.5c-0.1,1.9-0.2,3.8-0.4,5.7C707.7,98.8,707.5,100.7,707.3,102.7z
				 M707.2,102.6c0.1-1.9,0.1-3.8,0.1-5.7c0.1-1.9,0.1-3.8,0.2-5.8c0.1-3.8,0.1-7.7,0.1-11.5c0.2,0.1,0.3,0.1,0.5,0.2
				c-7.7-0.4-15.4-0.7-23.1-1c-7.7-0.3-15.4-0.6-23-0.9c-15.3-0.6-30.5-1.1-45.7-1.5c0.1,0,0.2-0.1,0.3-0.1
				c-0.4,3.8-0.9,7.7-1.4,11.5c-0.4,3.8-0.8,7.7-1.2,11.5c-0.1,0-0.2-0.1-0.3-0.1c7.7,0.2,15.5,0.4,23.3,0.6
				c7.8,0.2,15.6,0.5,23.3,0.8c7.8,0.3,15.6,0.6,23.4,0.9C691.5,101.9,699.4,102.2,707.2,102.6z"/>
		</g>
		<g>
			<path class="st0" d="M1005.5,123.8c-35-3.3-69.4-6.3-103.3-9c-0.4-7.6-1-15.2-1.9-22.7c33.6,2.7,67.7,5.8,102.6,9.2
				C1004,108.8,1004.9,116.3,1005.5,123.8z"/>
			<path d="M1005.5,123.8c-8.8-0.8-17.6-1.6-26.3-2.4c-8.7-0.8-17.3-1.5-26-2.3c-8.6-0.7-17.1-1.5-25.7-2.2
				c-8.5-0.7-17-1.4-25.4-2.1c-0.1,0-0.2,0-0.4,0c0,0,0-0.1,0-0.1c-0.1-3.8-0.2-7.6-0.5-11.3c-0.4-3.8-0.8-7.6-1.3-11.4
				c0,0,0-0.1,0-0.1c0.1,0,0.2,0,0.3,0c16.7,1.3,33.6,2.8,50.6,4.3c8.6,0.8,17.2,1.5,25.8,2.4c8.7,0.8,17.4,1.6,26.1,2.5
				c0.2,0,0.4,0,0.6,0.1c0,0.1,0,0.1,0,0.2c0.5,3.7,1,7.5,1.4,11.2c0.2,1.9,0.3,3.7,0.5,5.6C1005.4,120,1005.5,121.9,1005.5,123.8z
				 M1005.4,123.7c-0.2-1.9-0.4-3.7-0.6-5.6c-0.2-1.9-0.4-3.8-0.7-5.6c-0.5-3.8-1.1-7.5-1.8-11.3c0.2,0.1,0.4,0.1,0.6,0.2
				c-8.8-0.8-17.5-1.7-26.1-2.5c-8.6-0.8-17.2-1.6-25.8-2.4c-17-1.6-33.9-3-50.6-4.4c0.1,0,0.2,0,0.3-0.1c0.4,3.8,0.7,7.6,1,11.4
				c0.3,3.8,0.6,7.6,0.9,11.4c-0.1,0-0.2-0.1-0.4-0.1c8.4,0.6,16.9,1.3,25.4,2c8.5,0.7,17.1,1.4,25.7,2.2c8.6,0.8,17.3,1.5,26,2.3
				C987.9,122.1,996.6,122.9,1005.4,123.7z"/>
		</g>
		<g>
			<path d="M902.2,114.8c-33.5-2.7-66.5-5-99.1-7c-0.1-7.6-0.3-15.3-0.7-22.9c32.1,2.1,64.8,4.5,97.9,7.2
				C901.2,99.6,901.8,107.2,902.2,114.8z"/>
			<path d="M902.2,114.8c-8.4-0.6-16.8-1.3-25.2-1.9c-8.3-0.6-16.6-1.2-24.9-1.8c-8.2-0.6-16.5-1.1-24.6-1.7
				c-8.2-0.5-16.3-1.1-24.4-1.6c-0.1,0-0.2,0-0.4,0c0,0,0-0.1,0-0.1c0.1-3.8,0.1-7.6,0-11.4c-0.2-3.8-0.4-7.6-0.6-11.5
				c0,0,0-0.1,0-0.1c0.1,0,0.2,0,0.3,0c16,1,32.2,2.1,48.4,3.3c8.2,0.6,16.4,1.2,24.6,1.9c8.3,0.6,16.5,1.3,24.9,2
				c0.2,0,0.4,0,0.5,0c0,0.1,0,0.1,0,0.2c0.4,3.8,0.7,7.6,1,11.4c0.1,1.9,0.2,3.8,0.3,5.7C902.2,111,902.2,112.9,902.2,114.8z
				 M902.1,114.8c-0.1-1.9-0.3-3.8-0.5-5.7c-0.2-1.9-0.3-3.8-0.5-5.7c-0.4-3.8-0.9-7.6-1.4-11.4c0.2,0.1,0.4,0.1,0.6,0.2
				c-8.3-0.7-16.6-1.3-24.9-2c-8.2-0.6-16.4-1.3-24.6-1.9c-16.3-1.2-32.4-2.4-48.4-3.4c0.1,0,0.2,0,0.3-0.1
				c0.2,3.8,0.3,7.6,0.4,11.5c0.1,3.8,0.2,7.6,0.3,11.5c-0.1,0-0.2-0.1-0.4-0.1c8.1,0.5,16.3,1,24.4,1.5c8.2,0.6,16.4,1.1,24.6,1.7
				c8.3,0.6,16.6,1.2,24.9,1.9C885.4,113.4,893.8,114.1,902.1,114.8z"/>
		</g>
		<g>
			<path class="st0" d="M1228.3,147.6c-38.9-4.6-77-8.9-114.4-12.9c-0.6-7.4-1.5-14.8-2.7-22.1c37.5,4.1,75.8,8.5,114.9,13.3
				C1227.1,133.1,1227.9,140.3,1228.3,147.6z"/>
			<path d="M1228.4,147.6c-9.8-1.1-19.6-2.3-29.3-3.3c-9.6-1.1-19.2-2.2-28.8-3.2c-9.5-1.1-19-2.1-28.4-3.1c-9.4-1-18.7-2.1-28-3.1
				c-0.1,0-0.3,0-0.4,0c0,0,0-0.1,0-0.1c-0.2-3.7-0.4-7.4-0.8-11c-0.5-3.7-1.2-7.4-1.8-11.1c0,0,0-0.1,0-0.1c0.1,0,0.2,0,0.3,0
				c18.6,2,37.5,4.1,56.6,6.3c9.6,1.1,19.2,2.2,28.9,3.4c9.7,1.2,19.5,2.3,29.4,3.5c0.2,0,0.4,0.1,0.6,0.1c0,0.1,0,0.1,0,0.2
				c0.5,3.6,0.9,7.2,1.3,10.8c0.1,1.8,0.3,3.6,0.3,5.4C1228.3,144,1228.4,145.8,1228.4,147.6z M1228.2,147.6
				c-0.2-1.8-0.3-3.6-0.5-5.4c-0.2-1.8-0.4-3.6-0.6-5.4c-0.5-3.6-1.1-7.3-1.7-10.9c0.2,0.1,0.4,0.2,0.7,0.2
				c-9.9-1.2-19.7-2.4-29.4-3.5c-9.7-1.2-19.3-2.3-28.9-3.4c-19.1-2.2-37.9-4.4-56.6-6.5c0.1,0,0.2,0,0.3-0.1
				c0.6,3.7,1.1,7.4,1.6,11.1c0.4,3.7,0.9,7.4,1.3,11.1c-0.1,0-0.3-0.1-0.4-0.2c9.3,1,18.6,2,28,3c9.4,1,18.9,2.1,28.4,3.2
				c9.6,1.1,19.2,2.2,28.8,3.3C1208.8,145.2,1218.5,146.4,1228.2,147.6z"/>
		</g>
		<g>
			<path d="M1113.9,134.7c-36.8-4-72.9-7.6-108.4-10.9c-0.6-7.5-1.5-15-2.6-22.5c35.4,3.4,71.4,7.2,108.2,11.3
				C1112.3,119.9,1113.3,127.3,1113.9,134.7z"/>
			<path d="M1113.9,134.7c-9.3-1-18.5-1.9-27.7-2.8c-9.1-0.9-18.2-1.9-27.3-2.8c-9-0.9-18-1.8-26.9-2.7c-8.9-0.9-17.8-1.7-26.6-2.6
				c-0.1,0-0.3,0-0.4,0c0,0,0-0.1,0-0.1c-0.2-3.7-0.4-7.5-0.8-11.2c-0.5-3.8-1.1-7.5-1.7-11.3c0,0,0-0.1,0-0.1c0.1,0,0.2,0,0.3,0
				c17.6,1.7,35.4,3.5,53.3,5.3c9,0.9,18.1,1.9,27.2,2.9c9.2,1,18.4,2,27.7,3c0.2,0,0.4,0,0.6,0.1c0,0.1,0,0.1,0,0.2
				c0.6,3.7,1.1,7.4,1.5,11.1c0.2,1.8,0.3,3.7,0.5,5.5C1113.8,131,1113.9,132.9,1113.9,134.7z M1113.8,134.7
				c-0.2-1.8-0.4-3.7-0.7-5.5c-0.2-1.8-0.5-3.7-0.7-5.5c-0.6-3.7-1.2-7.4-1.9-11.1c0.2,0.1,0.4,0.2,0.6,0.2c-9.3-1-18.5-2-27.6-3
				c-9.1-1-18.2-1.9-27.3-2.9c-18-1.9-35.8-3.7-53.4-5.4c0.1,0,0.2,0,0.3-0.1c0.5,3.7,1,7.5,1.4,11.2c0.4,3.7,0.8,7.5,1.2,11.3
				c-0.1,0-0.3-0.1-0.4-0.1c8.8,0.8,17.7,1.6,26.6,2.5c8.9,0.9,17.9,1.8,26.9,2.7c9,0.9,18.1,1.9,27.3,2.8
				C1095.4,132.6,1104.6,133.6,1113.8,134.7z"/>
		</g>
		<g>
			<path class="st0" d="M1478.2,179.4c-43.8-6-86.7-11.6-128.7-16.9c0-7.1-0.3-14.1-1-21.2c42.6,5.5,86.2,11.3,130.8,17.5
				C1479.3,165.7,1479,172.5,1478.2,179.4z"/>
			<path d="M1478.3,179.4c-11.1-1.5-22.1-2.9-33-4.4c-10.9-1.4-21.7-2.9-32.4-4.3c-10.7-1.4-21.3-2.8-31.9-4.2
				c-10.5-1.4-21-2.7-31.4-4.1c-0.2,0-0.3,0-0.5-0.1c0,0,0-0.1,0-0.1c0.2-3.5,0.2-7,0.1-10.6c-0.3-3.5-0.6-7.1-1.1-10.6
				c0,0,0-0.1,0-0.1c0.1,0,0.2,0,0.4,0c21.2,2.7,42.6,5.5,64.3,8.4c10.9,1.5,21.9,2.9,33,4.4c11.1,1.5,22.3,3,33.5,4.6
				c0.2,0,0.5,0.1,0.7,0.1c0,0,0,0.1,0,0.2c0,3.4-0.1,6.8-0.4,10.3c-0.1,1.7-0.3,3.4-0.5,5.1C1478.9,176,1478.6,177.7,1478.3,179.4z
				 M1478.2,179.4c0.1-1.7,0.2-3.4,0.3-5.2c0.1-1.7,0.2-3.4,0.2-5.2c0-3.4,0-6.9-0.2-10.3c0.2,0.1,0.5,0.2,0.7,0.3
				c-11.2-1.5-22.4-3.1-33.5-4.6c-11.1-1.5-22-3-33-4.5c-21.7-2.9-43.1-5.8-64.3-8.6c0.1,0,0.2,0,0.4,0c0.3,3.5,0.6,7.1,0.7,10.6
				c0.1,3.5,0.3,7.1,0.4,10.6c-0.2-0.1-0.3-0.1-0.4-0.2c10.4,1.3,20.9,2.6,31.5,4c10.6,1.4,21.2,2.8,31.9,4.2
				c10.7,1.4,21.6,2.9,32.4,4.3C1456.2,176.4,1467.2,177.9,1478.2,179.4z"/>
		</g>
		<g>
			<path d="M1349.5,162.5c-41.2-5.3-81.6-10.3-121.2-14.9c-0.4-7.2-1.2-14.5-2.3-21.7c39.9,4.8,80.7,9.9,122.4,15.4
				C1349.2,148.3,1349.5,155.4,1349.5,162.5z"/>
			<path d="M1349.6,162.5c-10.4-1.3-20.8-2.6-31-3.8c-10.2-1.3-20.4-2.5-30.5-3.8c-10.1-1.2-20.1-2.5-30.1-3.6
				c-9.9-1.2-19.8-2.4-29.6-3.6c-0.1,0-0.3,0-0.4-0.1c0,0,0-0.1,0-0.1c-0.1-3.6-0.2-7.2-0.5-10.8c-0.5-3.6-1-7.3-1.6-10.9
				c0,0,0-0.1,0-0.1c0.1,0,0.2,0,0.3,0c19.8,2.4,39.9,4.8,60.2,7.4c10.2,1.3,20.5,2.6,30.9,3.9c10.4,1.3,20.9,2.7,31.4,4.1
				c0.2,0,0.5,0.1,0.7,0.1c0,0.1,0,0.1,0,0.2c0.3,3.5,0.5,7.1,0.7,10.6c0,1.8,0,3.5,0,5.3C1349.8,159,1349.7,160.7,1349.6,162.5z
				 M1349.4,162.4c0-1.8-0.1-3.5-0.2-5.3c-0.1-1.8-0.2-3.5-0.3-5.3c-0.3-3.5-0.7-7.1-1.1-10.6c0.2,0.1,0.5,0.2,0.7,0.2
				c-10.5-1.4-21-2.7-31.4-4c-10.3-1.3-20.6-2.6-30.9-3.9c-20.3-2.6-40.4-5.1-60.2-7.5c0.1,0,0.2,0,0.3,0c0.5,3.6,1,7.2,1.3,10.8
				c0.4,3.6,0.7,7.2,1,10.9c-0.1-0.1-0.3-0.1-0.4-0.2c9.8,1.1,19.7,2.3,29.6,3.5c10,1.2,20,2.4,30.1,3.7c10.1,1.3,20.3,2.5,30.5,3.8
				C1328.8,159.8,1339.1,161.1,1349.4,162.4z"/>
		</g>
	</g>
</g>
</svg>
