<?xml version="1.0" encoding="utf-8"?>
<!-- Generator: Adobe Illustrator 15.1.0, SVG Export Plug-In . SVG Version: 6.00 Build 0)  -->
<!DOCTYPE svg PUBLIC "-//W3C//DTD SVG 1.1//EN" "http://www.w3.org/Graphics/SVG/1.1/DTD/svg11.dtd">
<svg version="1.1" id="Ox" xmlns="http://www.w3.org/2000/svg" xmlns:xlink="http://www.w3.org/1999/xlink" x="0px" y="0px"
	 width="228px" height="337.5px" viewBox="0 0 228 337.5" style="enable-background:new 0 0 228 337.5;" xml:space="preserve">
<style type="text/css">
<![CDATA[
	.st0{fill:#FFEFD7;stroke:#000000;stroke-miterlimit:10;}
	.st1{opacity:0.26;fill:#CE6A06;}
	.st2{opacity:0.52;fill:#B29A7B;}
	.st3{opacity:0.23;}
	.st4{opacity:0.25;}
	.st5{opacity:0.35;fill:#966D44;}
	.st6{fill:#8E4904;}
	.st7{fill:#F9D3AA;}
	.st8{clip-path:url(#SVGID_2_);}
	.st9{clip-path:url(#SVGID_4_);}
	.st10{opacity:0.52;fill:#FF9999;}
	.st11{fill:#C99C6B;}
	.st12{fill:#FFD04D;}
	.st13{fill:#FFFFFF;}
	.st14{fill:#DBA214;}
	.st15{fill:#FFD04D;stroke:#000000;stroke-miterlimit:10;}
]]>
</style>
<g>
	<ellipse class="st3" cx="119.5" cy="298.5" rx="85.7" ry="31.5"/>
	<g>
		<path class="st12" d="M78.3,230.5c0,0-44.8,111,19.9,26.2"/>
		<path d="M78.4,230.5c-3,8.5-6,16.9-8.8,25.4c-1.4,4.2-2.9,8.5-4,12.9c-0.6,2.2-1.1,4.4-1.4,6.6c-0.4,2.2-0.7,4.4-0.7,6.7
			c0,1.1,0,2.2,0.3,3.3c0.2,1,0.6,2.1,1.4,2.6c0.8,0.5,1.9,0.3,2.9-0.1c1-0.4,1.9-1,2.8-1.6c1.8-1.3,3.5-2.8,5.1-4.3
			c1.6-1.5,3.2-3.1,4.7-4.8c6.1-6.6,11.7-13.5,17.4-20.5l0.1,0.1c-5.2,7.3-10.7,14.5-16.8,21.1c-3.1,3.3-6.2,6.5-10,9.1
			c-1,0.6-1.9,1.2-3.1,1.6c-0.6,0.2-1.1,0.4-1.8,0.4c-0.6,0-1.3-0.1-1.8-0.5c-1.1-0.8-1.5-2-1.7-3.1c-0.2-1.1-0.2-2.3-0.1-3.4
			c0.3-4.5,1.3-8.9,2.3-13.3c1.1-4.4,2.2-8.7,3.5-13C71.5,247.1,74.7,238.7,78.4,230.5L78.4,230.5z"/>
	</g>
	<path class="st1" d="M78.3,230.5c0,0-44.8,111,19.9,26.2"/>
	<g>
		<path class="st12" d="M154.9,243.5c0,0-22.3-15.7-0.1-45.3c22.2-29.6,32.1-8.3,37-43.9l1.4,2.7c0,0-1.8,21.9-16.9,27.8
			c-15.2,5.9-37.8,34-21.6,52.2C154.7,237,160.3,240.9,154.9,243.5z"/>
		<path d="M154.9,243.6c-1.9-1.4-3.5-3.1-4.9-4.9c-1.4-1.9-2.6-3.9-3.5-6.1c-1.8-4.3-2.3-9.2-1.6-13.8c0.7-4.7,2.4-9.1,4.6-13.2
			c2.2-4.1,5-7.9,8-11.4c3-3.5,6.4-6.8,10.2-9.5c1.9-1.3,3.9-2.5,6-3.5c2.1-1,4.3-1.9,6.3-2.9c2.1-1,4-2.3,5.4-4.2
			c1.4-1.8,2.4-3.9,3.1-6.1c1.5-4.4,2.2-9,2.8-13.6l0.1-0.9l0.4,0.8l1.4,2.7l0,0.1l0,0.1c-0.4,4.1-1.4,8.2-2.8,12.1
			c-1.5,3.9-3.5,7.6-6.4,10.7c-1.4,1.5-3.1,2.9-4.9,4c-0.9,0.5-1.9,1-2.8,1.4c-1,0.4-1.9,0.8-2.8,1.3c-3.6,1.9-6.8,4.4-9.8,7.2
			c-2.9,2.8-5.6,6-7.8,9.4c-2.3,3.4-4.2,7-5.4,10.9c-1.2,3.9-1.8,8-1.2,12c0.6,4,2.5,7.8,5.1,10.9l0,0c0.6,0.4,1.1,0.9,1.6,1.5
			c0.4,0.6,0.8,1.2,1,1.9c0.1,0.7-0.1,1.5-0.6,2C156.2,242.9,155.6,243.3,154.9,243.6L154.9,243.6L154.9,243.6z M154.9,243.5
			c0.6-0.3,1.2-0.7,1.6-1.2c0.5-0.5,0.7-1.2,0.5-1.9c-0.1-0.7-0.5-1.3-1-1.8c-0.5-0.5-1-1-1.5-1.4l0,0l0,0c-2.8-3-4.8-6.9-5.4-11
			c-0.7-4.1-0.2-8.4,1-12.4c2.5-8,7.4-15,13.3-20.8c3-2.9,6.3-5.5,10-7.4c0.9-0.5,1.9-0.9,2.9-1.3c0.9-0.4,1.8-0.8,2.7-1.3
			c1.7-1,3.3-2.3,4.7-3.8c2.8-2.9,4.8-6.6,6.3-10.3c1.5-3.8,2.5-7.8,3-11.8l0,0.2l-1.4-2.7l0.5-0.1c-0.7,4.6-1.5,9.2-3,13.6
			c-0.8,2.2-1.7,4.4-3.2,6.2c-1.5,1.9-3.4,3.3-5.5,4.3c-2.1,1-4.2,1.9-6.3,2.9c-2.1,1-4,2.2-5.9,3.6c-3.7,2.7-7,6-9.9,9.6
			c-3,3.5-5.7,7.3-7.9,11.3c-2.2,4-3.9,8.4-4.6,12.9c-0.7,4.5-0.4,9.2,1.3,13.5C148.6,236.6,151.4,240.6,154.9,243.5z"/>
	</g>
	<path class="st1" d="M190.7,161c0.4-0.8,0.9-1.6,1.4-2.3C191.6,159.4,191.1,160.2,190.7,161c-3.1,15.3-7.8,16.1-15.3,19.5
		c-15.7,15-30.6,27.6-28.3,52.8c2.9,6.7,7.8,10.2,7.8,10.2c5.3-2.6-0.3-6.5-0.3-6.5c-16.1-18.2,6.5-46.3,21.6-52.2
		c15.2-5.9,16.9-27.8,16.9-27.8l-1.4-2.7C191.5,156.8,191.1,159,190.7,161z"/>
	<path class="st15" d="M191.1,161.9c-3.1-2-3.1-9.3-0.1-16.4c3-7.1,11.1-9.3,11.1-9.3s0.4,13.9-0.8,19
		C199.4,162.7,194.1,163.8,191.1,161.9z"/>
	<path class="st1" d="M190.4,147.2c0.6,5.3,2.1,10.4,5.3,15.3c2.3-0.7,4.6-2.9,5.6-7.3c1.2-5.1,0.8-19,0.8-19s-8,2.2-11.1,9.3
		C190.8,146.1,190.6,146.6,190.4,147.2z"/>
	<g>
		<g>
			<path d="M202.1,136.2c0,2.3-0.1,4.6-0.3,7c-0.2,2.3-0.6,4.6-1.1,6.9c-0.5,2.3-1.2,4.5-2.2,6.6c-1,2.1-2.3,4.2-4.4,5.4
				c1-0.7,1.7-1.5,2.4-2.5c0.7-0.9,1.2-2,1.6-3c0.9-2.1,1.6-4.3,2-6.6c0.5-2.2,0.9-4.5,1.2-6.8C201.7,140.8,201.9,138.5,202.1,136.2
				z"/>
		</g>
		<g>
			<path d="M190.1,160.9c-0.2-1.1-0.4-2.2-0.4-3.3c0-1.1,0-2.3,0.1-3.4c0.3-2.3,0.9-4.4,1.9-6.5c1-2.1,2.2-4,3.6-5.7
				c1.4-1.7,3.1-3.3,4.9-4.6c-0.9,0.7-1.7,1.5-2.4,2.3c-0.8,0.8-1.5,1.7-2.2,2.5c-1.4,1.8-2.6,3.7-3.5,5.7c-0.9,2-1.6,4.2-1.9,6.4
				S189.8,158.7,190.1,160.9z"/>
		</g>
		<g>
			<path d="M191.1,161.9c1.8-4.2,3.5-8.4,5.3-12.6l5.4-12.5l0.6-1.5l-0.2,1.6c-0.3,2.4-0.6,4.7-1.1,7.1c-0.5,2.3-1,4.7-1.8,6.9
				c-0.8,2.3-1.7,4.5-2.9,6.5c-0.6,1-1.4,2-2.3,2.8C193.3,161,192.2,161.6,191.1,161.9z M191.1,161.9c1.2-0.3,2.2-0.9,3-1.7
				c0.9-0.8,1.5-1.8,2.1-2.8c1.2-2,2.1-4.3,2.8-6.5c1.4-4.5,2.3-9.2,2.8-13.9l0.5,0.1l-5.5,12.5C194.9,153.6,193,157.7,191.1,161.9z
				"/>
		</g>
		<g>
			<path d="M200.8,139.8c-0.2,1.8-0.6,3.7-1.1,5.5c-0.4,1.8-1,3.6-1.6,5.3c-0.7,1.7-1.4,3.4-2.3,5.1c-0.9,1.6-2.1,3.1-3.6,4.2
				c1.4-1.2,2.4-2.8,3.2-4.4c0.9-1.6,1.6-3.3,2.2-5c0.7-1.7,1.2-3.5,1.7-5.2C199.9,143.4,200.4,141.6,200.8,139.8z"/>
		</g>
		<g>
			<path d="M200.9,136.6c-1.7,3.7-3.5,7.4-5.1,11.2c-0.8,1.9-1.6,3.8-2.4,5.6c-0.8,1.9-1.5,3.8-2.2,5.8c0.4-2,1.1-4,1.8-5.9
				c0.7-1.9,1.5-3.8,2.3-5.7c0.9-1.9,1.7-3.7,2.6-5.6S199.9,138.4,200.9,136.6z"/>
		</g>
		<g>
			<path d="M199.1,139.5c-1.1,1.4-2.1,2.9-3,4.4c-0.9,1.5-1.7,3.1-2.4,4.8c-1.4,3.3-2.4,6.7-3,10.2c0.1-1.8,0.4-3.6,0.8-5.3
				c0.4-1.7,1-3.4,1.7-5.1c0.7-1.6,1.5-3.2,2.5-4.8C196.8,142.2,197.8,140.8,199.1,139.5z"/>
		</g>
	</g>
	<g>
		<path class="st7" d="M171.3,122.9c-1.5-9.6-2.1-8.9-2.2-13.4c-0.6-29.3-28.5-43-63-43c-34.4,0-58.9,6.9-61.8,41.1
			c-0.4,5.4,2.3,11,2.2,15.9c-0.1,4.9-2.2,8.3-2.2,12.4c0,13.7,15.3,21.9,65.3,21.9c50.1,0,63.8-8.1,63.8-21.9
			C173.6,130.8,172.8,132.4,171.3,122.9z"/>
		<g>
			<path d="M171.3,122.9c-0.3-1.9-0.6-3.8-1-5.7c-0.4-1.9-0.9-3.8-1.1-5.7c-0.1-1.9-0.1-3.9-0.4-5.8c-0.2-1.9-0.6-3.8-1.1-5.7
				c-1-3.7-2.6-7.3-4.7-10.5c-2.1-3.2-4.8-6.1-7.8-8.5c-6-4.9-13.2-8.1-20.6-10.3c-7.4-2.1-15.2-3.3-22.9-3.6
				c-3.9-0.2-7.8-0.2-11.6-0.1c-3.9,0.1-7.8,0.3-11.6,0.7C80.7,68.3,73,69.8,66,73.1c-3.5,1.6-6.8,3.8-9.6,6.4
				c-2.8,2.7-5.1,5.8-6.9,9.3c-1.7,3.5-2.9,7.2-3.7,11c-0.4,1.9-0.7,3.8-0.9,5.7c-0.1,1-0.2,1.9-0.2,2.9c0,1,0,1.9,0.2,2.9
				c0.5,3.8,1.9,7.5,2.1,11.5c0.1,2-0.2,4-0.7,5.9c-0.5,1.9-1.1,3.7-1.3,5.6c-0.4,3.8,0.6,7.7,3,10.6c2.4,2.9,5.9,4.8,9.4,6.3
				c3.6,1.4,7.3,2.4,11.1,3.1c3.8,0.7,7.6,1.3,11.5,1.7c7.7,0.8,15.5,1.1,23.2,1.3c7.8,0.1,15.5,0,23.3-0.3
				c7.8-0.3,15.5-0.9,23.1-2.3c3.8-0.7,7.6-1.6,11.2-3.1c3.6-1.4,7.1-3.4,9.5-6.4c1.2-1.5,2.1-3.3,2.6-5.1c0.5-1.9,0.6-3.8,0.5-5.8
				c0-1.9-0.7-3.8-1.1-5.7C171.9,126.7,171.6,124.8,171.3,122.9z M171.4,122.9c0.3,1.9,0.7,3.8,1.1,5.7c0.4,1.9,1.1,3.7,1.1,5.7
				c0.1,1.9,0,3.9-0.4,5.8c-0.5,1.9-1.3,3.7-2.6,5.2c-2.4,3.1-6,5.1-9.6,6.6c-3.6,1.5-7.4,2.5-11.2,3.2c-7.7,1.5-15.4,2.2-23.2,2.6
				c-7.8,0.4-15.6,0.5-23.4,0.4c-7.8-0.1-15.6-0.4-23.3-1.3c-3.9-0.4-7.7-1-11.6-1.7c-3.8-0.8-7.6-1.8-11.3-3.2
				c-3.6-1.5-7.2-3.5-9.8-6.6c-1.3-1.5-2.2-3.4-2.7-5.3c-0.5-1.9-0.6-4-0.4-5.9c0.3-2,0.9-3.8,1.4-5.7c0.5-1.9,0.8-3.8,0.7-5.7
				c-0.2-3.8-1.6-7.5-2-11.4c-0.1-1-0.2-2-0.2-3c0-1,0.2-2,0.3-2.9c0.2-1.9,0.5-3.9,0.9-5.8c0.8-3.8,2-7.6,3.8-11
				c1.8-3.5,4.1-6.7,7-9.3c2.9-2.7,6.1-4.9,9.7-6.5c7.1-3.4,14.8-4.9,22.6-5.8c3.9-0.4,7.8-0.7,11.7-0.8c3.9-0.1,7.8-0.2,11.7,0
				c7.8,0.3,15.6,1.3,23.1,3.5c7.5,2.2,14.8,5.5,20.8,10.6c3,2.5,5.7,5.5,7.8,8.8c2.1,3.3,3.7,6.9,4.6,10.7c0.5,1.9,0.8,3.8,1,5.8
				c0.2,1.9,0.2,3.9,0.3,5.8c0.2,1.9,0.7,3.8,1.1,5.7C170.8,119,171.1,120.9,171.4,122.9z"/>
		</g>
	</g>
	<g>
		<path class="st0" d="M144.6,25c0,0,53.2-3.3,63.6-21.3c0,0-2,38.3-32.8,46.3C175.3,50,153.1,45.6,144.6,25z"/>
		<path class="st2" d="M179.5,42.1c-6.7-10.1-18-8-21.4-18.5c-7.9,1.1-13.5,1.4-13.5,1.4c8.5,20.6,30.8,25,30.8,25
			c23.1-6,30-29,32-40.1C200.9,23,191.5,34.5,179.5,42.1z"/>
		<g>
			<defs>
				<path id="SVGID_1_" d="M144.6,25c0,0,53.2-3.3,63.6-21.3c0,0-2,38.3-32.8,46.3C175.3,50,153.1,45.6,144.6,25z"/>
			</defs>
			<clipPath id="SVGID_2_">
				<use xlink:href="#SVGID_1_"  style="overflow:visible;"/>
			</clipPath>
			<g class="st8">
				<g>
					<path d="M149.3,24.8c1,3,2.2,6,3.6,8.8c1.3,2.9,3,5.6,5.2,7.9c2.2,2.3,4.7,4.3,7.5,5.7c2.8,1.4,5.9,2.2,9.1,2.4v0.1
						c-3.2,0.1-6.5-0.5-9.4-2c-2.9-1.4-5.4-3.5-7.5-6c-2-2.5-3.8-5.1-5.4-7.9C151,31,149.9,28,149.3,24.8L149.3,24.8z"/>
				</g>
				<g>
					<path d="M153,24.8c1,3,2.2,6,3.6,8.8c1.3,2.9,3,5.6,5.2,7.9c2.2,2.3,4.7,4.3,7.5,5.7c2.8,1.4,6,2.2,9.1,2.4v0.1
						c-3.2,0.1-6.5-0.5-9.4-2c-2.9-1.4-5.4-3.5-7.5-6c-2-2.5-3.8-5.1-5.4-7.9C154.7,31,153.6,28,153,24.8L153,24.8z"/>
				</g>
				<g>
					<path d="M156.7,24.8c1,3,2.2,6,3.6,8.8c1.3,2.9,3,5.6,5.2,7.9c2.2,2.3,4.7,4.3,7.5,5.7c2.8,1.4,5.9,2.2,9.1,2.4v0.1
						c-3.2,0.1-6.5-0.5-9.4-2c-2.9-1.4-5.4-3.5-7.5-6c-2-2.5-3.8-5.1-5.4-7.9C158.4,31,157.3,28,156.7,24.8L156.7,24.8z"/>
				</g>
				<g>
					<path d="M158.5,21.9c1,3,2.2,6,3.6,8.8c1.3,2.9,3,5.6,5.2,7.9c2.2,2.3,4.7,4.3,7.5,5.7c2.8,1.4,6,2.2,9.1,2.4v0.1
						c-3.2,0.1-6.5-0.5-9.4-2c-2.9-1.4-5.4-3.5-7.5-6c-2-2.5-3.8-5.1-5.4-7.9C160.2,28.1,159.1,25.1,158.5,21.9L158.5,21.9z"/>
				</g>
				<g>
					<path d="M162,19.7c1,3,2.2,6,3.6,8.8c1.3,2.9,3,5.6,5.2,7.9c2.2,2.3,4.7,4.3,7.5,5.7c2.8,1.4,5.9,2.2,9.1,2.4v0.1
						c-3.2,0.1-6.5-0.5-9.4-2c-2.9-1.4-5.4-3.5-7.5-6c-2-2.5-3.8-5.1-5.4-7.9C163.8,25.8,162.6,22.8,162,19.7L162,19.7z"/>
				</g>
				<g>
					<path d="M165.7,16.7c1,3,2.2,6,3.6,8.8c1.3,2.9,3,5.6,5.2,7.9c2.2,2.3,4.7,4.3,7.5,5.7c2.8,1.4,6,2.2,9.1,2.4v0.1
						c-3.2,0.1-6.5-0.5-9.4-2c-2.9-1.4-5.4-3.5-7.5-6c-2-2.5-3.8-5.1-5.4-7.9C167.5,22.9,166.3,19.9,165.7,16.7L165.7,16.7z"/>
				</g>
				<g>
					<path d="M169.4,14.2c1,3,2.2,6,3.6,8.8c1.3,2.9,3,5.6,5.2,7.9c2.2,2.3,4.7,4.3,7.5,5.7c2.8,1.4,6,2.2,9.1,2.4v0.1
						c-3.2,0.1-6.5-0.5-9.4-2c-2.9-1.4-5.4-3.5-7.5-6c-2-2.5-3.8-5.1-5.4-7.9C171.1,20.4,170,17.3,169.4,14.2L169.4,14.2z"/>
				</g>
				<g>
					<path d="M173.9,9.5c1,3,2.2,6,3.6,8.8c1.3,2.9,3,5.6,5.2,7.9c2.2,2.3,4.7,4.3,7.5,5.7c2.8,1.4,6,2.2,9.1,2.4v0.1
						c-3.2,0.1-6.5-0.5-9.4-2c-2.9-1.4-5.4-3.5-7.5-6c-2-2.5-3.8-5.1-5.4-7.9C175.6,15.7,174.5,12.6,173.9,9.5L173.9,9.5z"/>
				</g>
				<g>
					<path d="M178.5,5.3c1,3,2.2,6,3.6,8.8c1.3,2.9,3,5.6,5.2,8c2.2,2.3,4.7,4.3,7.5,5.7c2.8,1.4,6,2.2,9.1,2.4v0.1
						c-3.2,0.1-6.5-0.5-9.4-2c-2.9-1.4-5.4-3.5-7.5-6c-2-2.5-3.8-5.1-5.4-7.9C180.2,11.4,179.1,8.4,178.5,5.3L178.5,5.3z"/>
				</g>
				<g>
					<path d="M180.9,0.8c1,3,2.2,6,3.6,8.8c1.3,2.9,3,5.6,5.2,8c2.2,2.3,4.7,4.3,7.5,5.7c2.8,1.4,6,2.2,9.1,2.4v0.1
						c-3.2,0.1-6.5-0.5-9.4-2c-2.9-1.4-5.4-3.5-7.5-6c-2-2.5-3.8-5.1-5.4-7.9C182.6,7,181.5,4,180.9,0.8L180.9,0.8z"/>
				</g>
				<g>
					<path d="M187.6,1.6c1.5,2.8,3.2,5.5,5.1,8.1c1.8,2.6,4,5,6.6,6.9c2.6,1.9,5.4,3.4,8.4,4.3c3,0.9,6.3,1.1,9.4,0.7l0,0
						c-3.1,0.7-6.5,0.6-9.6-0.3c-3.1-0.9-6-2.5-8.5-4.6c-2.5-2.1-4.7-4.4-6.7-6.9C190.4,7.4,188.7,4.6,187.6,1.6L187.6,1.6z"/>
				</g>
				<g>
					<path d="M191.3-3.4c1.5,2.8,3.2,5.5,5.1,8.1c1.8,2.6,4,5,6.6,6.9c2.6,1.9,5.4,3.4,8.4,4.3c3,0.9,6.3,1.1,9.4,0.7l0,0
						c-3.1,0.7-6.5,0.6-9.6-0.3c-3.1-0.9-6-2.5-8.5-4.6c-2.5-2.1-4.7-4.4-6.7-6.9C194.1,2.4,192.4-0.4,191.3-3.4L191.3-3.4z"/>
				</g>
				<g>
					<path d="M192.9-8.1c1.5,2.8,3.2,5.5,5.1,8.1c1.8,2.6,4,5,6.6,6.9c2.6,1.9,5.4,3.4,8.4,4.3c3,0.9,6.3,1.1,9.4,0.7l0,0
						c-3.1,0.7-6.5,0.6-9.6-0.3c-3.1-0.9-6-2.5-8.5-4.6c-2.5-2.1-4.7-4.4-6.7-6.9C195.7-2.4,194-5.1,192.9-8.1L192.9-8.1z"/>
				</g>
			</g>
		</g>
	</g>
	<g>
		<path class="st5" d="M169.9,115.2c-0.4,15.7-6.2,30.3-17.2,39.1c15.6-3.6,20.8-9.9,20.8-18.4c0-5.1-0.7-3.5-2.2-13
			C170.7,118.9,170.3,116.7,169.9,115.2z"/>
		<path class="st5" d="M92.8,115.6c0.1,0.1,0.2,0.1,0.2,0.1C93,115.7,92.9,115.6,92.8,115.6z"/>
		<path class="st5" d="M176.4,110.6c0,0-33.4-95.6-126.6-44.8c0,0-18.1,33.6-8.9,48.2c0,0,1.5-0.4,3.9-1.6c0.6,3.8,2,7.6,1.9,11.1
			c-0.1,4.9-2.2,8.3-2.2,12.4c0,8.3,5.5,14.5,20.8,18.1c-3.1-1.8-5.8-3.9-7.8-6.5c-11-9.7-9.9-23.5-9.5-37
			c7.5-5,18.6-16.7,19.9-42.5c0,0,4.3,40.5,24.9,47.6c-1.1-0.5-6.7-3.4-7.6-15.4c0,0,9.7,14.6,25,15.5l-10.6-13.9
			c0,0,25.9,12.2,25.9,21.1c0,0,12.5-23-9.3-38.3c0,0,15.4,10.3,16,19c0,0,3.9-10.7-0.5-20C138.5,92.3,154,108.3,176.4,110.6z"/>
	</g>
	<g>
		<path class="st6" d="M67.9,66.1c0,0,4.4,40.8,25.2,47.7c0,0-6.8-2.1-7.9-15.5c0,0,9.7,14.6,25,15.5L99.5,99.9
			c0,0,25.9,12.2,25.9,21.1c0,0,12.5-23-9.3-38.3c0,0,15.4,10.3,16,19c0,0,5.7-15.8-4.4-25.5c0,0,17.8,29.3,48.6,32.4
			c0,0-33.4-95.6-126.6-44.8c0,0-18.1,33.6-8.9,48.2C40.9,112.1,65.8,105.9,67.9,66.1z"/>
		<path d="M67.9,66.1c0.6,4.7,1.5,9.3,2.7,13.8c1.2,4.5,2.6,9,4.5,13.3c1.8,4.3,4.1,8.5,7,12.1c2.9,3.6,6.6,6.7,11,8.2l-0.2,0.6
			c-1.5-0.6-2.7-1.7-3.7-2.9c-1-1.2-1.8-2.6-2.4-4c-1.2-2.8-1.8-5.9-2-8.9l-0.1-1.3l0.7,1.1c1.4,2,3.1,3.9,4.9,5.7
			c1.8,1.7,3.8,3.3,5.8,4.7c4.2,2.8,9,4.6,14,4.9l-0.4,0.7l-10.6-13.9l-1.1-1.4l1.6,0.8c2.6,1.3,5.1,2.6,7.6,4
			c2.5,1.4,5,2.9,7.3,4.6c2.4,1.6,4.7,3.4,6.8,5.4c1,1,2,2.1,2.8,3.3c0.8,1.2,1.5,2.6,1.5,4.2l-0.7-0.2c1.6-3.2,2.6-6.6,3.2-10.2
			c0.5-3.5,0.5-7.1-0.2-10.6c-0.7-3.5-2.3-6.8-4.4-9.7c-2.1-2.9-4.8-5.4-7.7-7.4l0.3-0.4c1.8,1.2,3.4,2.5,5.1,3.9
			c1.6,1.4,3.2,2.8,4.7,4.3c1.5,1.5,2.9,3.2,4,5c1.1,1.8,2.1,3.8,2.3,6l-0.3,0c0.7-2.1,1.2-4.4,1.4-6.6c0.2-2.2,0.3-4.5,0-6.8
			c-0.3-2.2-0.9-4.4-1.9-6.5c-1-2-2.3-3.9-3.9-5.4l0.3-0.2c2.7,4.2,5.9,8.1,9.4,11.7c3.5,3.6,7.3,6.9,11.4,9.8
			c4.1,2.9,8.5,5.3,13.2,7.2c4.7,1.8,9.6,3.1,14.5,3.5l-0.4,0.5c-2.3-6-5.3-11.8-8.6-17.4c-3.4-5.5-7.2-10.8-11.5-15.6
			c-8.5-9.7-19.2-17.7-31.4-22.2c-6.1-2.2-12.5-3.5-18.9-4c-6.5-0.4-12.9,0-19.3,1.2C73.5,53.2,61.4,58.2,50,64.4l0.2-0.2
			c-2,3.7-3.7,7.6-5.3,11.4c-1.6,3.9-3,7.9-4.1,11.9c-1.1,4.1-1.9,8.2-2.1,12.4c-0.2,4.1,0.3,8.5,2.5,12l-0.3-0.1
			c2.2-0.6,4.3-1.7,6.3-2.9c2-1.2,3.8-2.7,5.5-4.3c3.4-3.2,6.2-7.1,8.4-11.2c2.2-4.2,3.7-8.6,4.8-13.2
			C66.9,75.5,67.5,70.8,67.9,66.1L67.9,66.1z M67.9,66.5c-0.2,4.6-0.8,9.1-1.8,13.6c-1,4.6-2.6,9.1-4.7,13.4
			c-2.2,4.2-5,8.1-8.4,11.4c-1.7,1.6-3.6,3.1-5.6,4.4c-2,1.3-4.1,2.4-6.5,3.1l-0.2,0.1l-0.1-0.2c-1.2-1.8-1.9-3.9-2.3-6
			c-0.4-2.1-0.5-4.3-0.4-6.4c0.2-4.3,1-8.5,2.1-12.6c1.1-4.1,2.5-8.1,4.1-12c1.6-3.9,3.3-7.8,5.3-11.6l0.1-0.1l0.1-0.1
			C61,57.3,73.2,52.3,86.1,49.9c6.4-1.2,13-1.6,19.6-1.2c6.5,0.4,13,1.8,19.2,4c12.3,4.5,23.1,12.6,31.7,22.4
			c4.3,4.9,8.1,10.2,11.5,15.8c3.3,5.6,6.3,11.4,8.6,17.6l0.2,0.5l-0.6-0.1c-5-0.5-10-1.8-14.7-3.7c-4.7-1.9-9.1-4.4-13.3-7.3
			c-4.1-2.9-7.9-6.3-11.4-9.9c-3.5-3.7-6.7-7.6-9.4-11.8l-0.9-1.4l1.2,1.1c1.7,1.6,3,3.5,4,5.6c1,2.1,1.6,4.3,1.9,6.6
			c0.3,2.3,0.3,4.6,0,6.8c-0.3,2.3-0.7,4.5-1.4,6.7l-0.3,0.8l-0.1-0.8c-0.2-2.1-1.1-4-2.2-5.8c-1.1-1.8-2.5-3.4-4-4.9
			c-3-3-6.3-5.7-9.7-8.1l0.3-0.4c3,2.1,5.7,4.6,7.8,7.5c2.2,2.9,3.7,6.3,4.5,9.9c0.8,3.6,0.8,7.3,0.3,10.9
			c-0.5,3.6-1.6,7.1-3.2,10.4l-0.6,1.3l0-1.4c0-1.3-0.6-2.6-1.4-3.8c-0.8-1.2-1.7-2.2-2.8-3.2c-2-2-4.3-3.7-6.7-5.3
			c-2.4-1.6-4.8-3.1-7.3-4.5c-2.5-1.4-5-2.7-7.6-4l0.5-0.7l10.6,13.9l0.6,0.7l-0.9-0.1c-5.2-0.3-10.1-2.2-14.3-5.1
			c-2.1-1.4-4.1-3.1-5.9-4.8c-1.8-1.8-3.5-3.7-5-5.8l0.6-0.2c0.2,3,0.8,6,1.9,8.7c0.6,1.4,1.3,2.7,2.3,3.8c0.9,1.1,2.1,2.2,3.4,2.7
			l-0.2,0.6c-4.6-1.5-8.4-4.7-11.3-8.4c-2.9-3.7-5.2-7.9-7-12.3c-1.8-4.4-3.2-8.9-4.3-13.4C69.3,75.6,68.4,71.1,67.9,66.5z"/>
	</g>
	<g>
		<path class="st0" d="M72.3,28.1c0,0-53.2-3.3-63.6-21.3c0,0,2,38.3,32.8,46.3C41.5,53.1,63.7,48.7,72.3,28.1z"/>
		<path class="st2" d="M37.3,45.2c6.7-10.1,18-8,21.4-18.5c7.9,1.1,13.5,1.4,13.5,1.4c-8.5,20.6-30.8,25-30.8,25
			c-23.1-6-30-29-32-40.1C15.9,26.1,25.3,37.6,37.3,45.2z"/>
		<g>
			<defs>
				<path id="SVGID_3_" d="M72.3,28.1c0,0-53.2-3.3-63.6-21.3c0,0,2,38.3,32.8,46.3C41.5,53.1,63.7,48.7,72.3,28.1z"/>
			</defs>
			<clipPath id="SVGID_4_">
				<use xlink:href="#SVGID_3_"  style="overflow:visible;"/>
			</clipPath>
			<g class="st9">
				<g>
					<path d="M67.6,27.9c-0.6,3.1-1.8,6.2-3.3,9c-1.5,2.8-3.4,5.5-5.4,7.9c-2.1,2.4-4.6,4.6-7.5,6c-2.9,1.4-6.2,2.1-9.4,2v-0.1
						c3.2-0.2,6.3-1,9.1-2.4c2.8-1.4,5.4-3.4,7.5-5.7c2.2-2.3,3.9-5.1,5.2-7.9C65.3,33.9,66.6,31,67.6,27.9L67.6,27.9z"/>
				</g>
				<g>
					<path d="M63.9,27.9c-0.6,3.1-1.8,6.2-3.3,9c-1.5,2.8-3.4,5.5-5.4,7.9c-2.1,2.4-4.6,4.6-7.5,6c-2.9,1.4-6.2,2.1-9.4,2v-0.1
						c3.2-0.2,6.3-1,9.1-2.4c2.8-1.4,5.4-3.4,7.5-5.7c2.2-2.3,3.9-5.1,5.2-7.9C61.7,33.9,62.9,31,63.9,27.9L63.9,27.9z"/>
				</g>
				<g>
					<path d="M60.2,27.9c-0.6,3.1-1.8,6.2-3.3,9c-1.5,2.8-3.4,5.5-5.4,7.9c-2.1,2.4-4.6,4.6-7.5,6c-2.9,1.4-6.2,2.1-9.4,2v-0.1
						c3.2-0.2,6.3-1,9.1-2.4c2.8-1.4,5.4-3.4,7.5-5.7c2.2-2.3,3.9-5.1,5.2-7.9C58,33.9,59.2,31,60.2,27.9L60.2,27.9z"/>
				</g>
				<g>
					<path d="M58.4,25c-0.6,3.1-1.8,6.2-3.3,9c-1.5,2.8-3.4,5.5-5.4,7.9c-2.1,2.4-4.6,4.6-7.5,6c-2.9,1.4-6.2,2.1-9.4,2v-0.1
						c3.2-0.2,6.3-1,9.1-2.4c2.8-1.4,5.4-3.4,7.5-5.7c2.2-2.3,3.9-5.1,5.2-7.9C56.1,31,57.4,28.1,58.4,25L58.4,25z"/>
				</g>
				<g>
					<path d="M54.8,22.8c-0.6,3.1-1.8,6.2-3.3,9c-1.5,2.8-3.4,5.5-5.4,7.9c-2.1,2.4-4.6,4.6-7.5,6c-2.9,1.4-6.2,2.1-9.4,2v-0.1
						c3.2-0.2,6.3-1,9.1-2.4c2.8-1.4,5.4-3.4,7.5-5.7c2.2-2.3,3.9-5.1,5.2-7.9C52.6,28.7,53.8,25.8,54.8,22.8L54.8,22.8z"/>
				</g>
				<g>
					<path d="M51.1,19.8c-0.6,3.1-1.8,6.2-3.3,9c-1.5,2.8-3.4,5.5-5.4,7.9c-2.1,2.4-4.6,4.6-7.5,6c-2.9,1.4-6.2,2.1-9.4,2v-0.1
						c3.2-0.2,6.3-1,9.1-2.4c2.8-1.4,5.4-3.4,7.5-5.7c2.2-2.3,3.9-5.1,5.2-8C48.9,25.8,50.1,22.9,51.1,19.8L51.1,19.8z"/>
				</g>
				<g>
					<path d="M47.5,17.3c-0.6,3.1-1.8,6.2-3.3,9c-1.5,2.8-3.4,5.5-5.4,7.9c-2.1,2.4-4.6,4.6-7.5,6c-2.9,1.4-6.2,2.1-9.4,2v-0.1
						c3.2-0.2,6.3-1,9.1-2.4c2.8-1.4,5.4-3.4,7.5-5.7c2.2-2.3,3.9-5.1,5.2-7.9C45.2,23.3,46.4,20.3,47.5,17.3L47.5,17.3z"/>
				</g>
				<g>
					<path d="M43,12.6c-0.6,3.1-1.8,6.2-3.3,9c-1.5,2.8-3.4,5.5-5.4,7.9c-2.1,2.4-4.6,4.6-7.5,6c-2.9,1.4-6.2,2.1-9.4,2v-0.1
						c3.2-0.2,6.3-1,9.1-2.4c2.8-1.4,5.4-3.4,7.5-5.7c2.2-2.3,3.9-5.1,5.2-7.9C40.7,18.6,41.9,15.6,43,12.6L43,12.6z"/>
				</g>
				<g>
					<path d="M38.4,8.4c-0.6,3.1-1.8,6.2-3.3,9c-1.5,2.8-3.4,5.5-5.4,7.9c-2.1,2.4-4.6,4.6-7.5,6c-2.9,1.4-6.2,2.1-9.4,2v-0.1
						c3.2-0.2,6.3-1,9.1-2.4c2.8-1.4,5.4-3.4,7.5-5.7c2.2-2.3,3.9-5.1,5.2-8C36.2,14.3,37.4,11.4,38.4,8.4L38.4,8.4z"/>
				</g>
				<g>
					<path d="M36,3.9c-0.6,3.1-1.8,6.2-3.3,9c-1.5,2.8-3.4,5.5-5.4,7.9c-2.1,2.4-4.6,4.6-7.5,6c-2.9,1.4-6.2,2.1-9.4,2v-0.1
						c3.2-0.2,6.3-1,9.1-2.4c2.8-1.4,5.4-3.4,7.5-5.7c2.2-2.3,3.9-5.1,5.2-8C33.7,9.9,34.9,7,36,3.9L36,3.9z"/>
				</g>
				<g>
					<path d="M29.3,4.7c-1.2,3-2.9,5.8-4.8,8.3c-2,2.5-4.3,4.8-6.7,6.9c-2.5,2-5.3,3.7-8.5,4.6c-3.1,0.9-6.5,1-9.6,0.3l0,0
						c3.2,0.4,6.4,0.2,9.4-0.7c3-0.9,5.9-2.4,8.4-4.3c2.6-1.9,4.7-4.3,6.6-6.9C26,10.2,27.7,7.5,29.3,4.7L29.3,4.7z"/>
				</g>
				<g>
					<path d="M25.6-0.3c-1.2,3-2.9,5.8-4.8,8.3c-2,2.5-4.3,4.8-6.7,6.9c-2.5,2-5.3,3.7-8.5,4.6c-3.1,0.9-6.5,1-9.6,0.3l0,0
						c3.2,0.4,6.4,0.2,9.4-0.7c3-0.9,5.9-2.4,8.4-4.3c2.6-1.9,4.7-4.3,6.6-6.9C22.3,5.2,24,2.5,25.6-0.3L25.6-0.3z"/>
				</g>
				<g>
					<path d="M24-5c-1.2,3-2.9,5.8-4.8,8.3c-2,2.5-4.3,4.8-6.7,6.9c-2.5,2-5.3,3.7-8.5,4.6c-3.1,0.9-6.5,1-9.6,0.3l0,0
						c3.2,0.4,6.4,0.2,9.4-0.7c3-0.9,5.9-2.4,8.4-4.3C14.8,8,17,5.6,18.8,3C20.7,0.5,22.4-2.2,24-5L24-5z"/>
				</g>
			</g>
		</g>
	</g>
	<g>
		<path class="st12" d="M197.5,102.5c4.5-28.3-9.6-56.2-37.9-71.2c-2.5-7.3-24.5-13-51.3-13c-28.5,0-51.6,6.5-51.6,14.4
			c0,0.3,0,0.6,0.1,0.9C31,49.2,18.1,76,22.9,102.9c6.5,37,19.3,55.1,59.9,59.9c0,0,0,0,0,0c0,0-16.4,35.9-23.2,70
			c-2.6,13.2-0.5,21.7,5.3,27.3c0.2,3.7,1.5,7.5,4,10.8c6.3,8,17.4,9.7,25,3.8c1.7-1.3,3-2.9,4.1-4.7c5.5,0.4,11.3,0.6,17.6,0.7
			c7.4,0.1,15,0,22.3-0.7c9.5,21.2,43,90,37.3-10.7c10.1-6.8,15-17.2,10.1-32.8c-9.6-30.8-29.2-57.6-35.6-65.8
			C181.6,153.6,192.3,135.4,197.5,102.5z M110,158.1c-49.9,0-65.2-8.1-65.2-21.8c0-4.1,2.2-7.5,2.2-12.4c0.1-4.9-2.7-10.5-2.2-15.9
			c2.8-34.2,27.3-41.1,61.7-41.1c34.4,0,62.3,13.7,62.9,43c0.1,4.5,0.7,3.9,2.2,13.4c1.5,9.5,2.2,7.9,2.2,13
			C173.7,150,160,158.1,110,158.1z"/>
		<g>
			<path d="M197.5,102.5c1.1-7.1,1.1-14.4-0.2-21.4c-1.2-7.1-3.7-13.9-7.2-20.2c-3.5-6.3-8-12-13.2-16.9
				c-5.2-4.9-11.1-9.1-17.5-12.4l-0.1,0l0-0.1c-0.4-1-1.1-2-1.9-2.7c-0.8-0.8-1.8-1.4-2.8-2c-2-1.1-4.1-2-6.3-2.8
				c-4.4-1.5-8.9-2.5-13.5-3.3c-9.2-1.5-18.5-2.1-27.7-2c-9.3,0.1-18.6,0.8-27.7,2.5c-4.5,0.9-9.1,2-13.3,3.7
				c-2.1,0.9-4.2,1.9-6,3.2c-0.9,0.7-1.7,1.5-2.3,2.4c-0.6,0.9-0.8,2-0.6,3l0.1,0.3L57.1,34c-6.2,3.7-12,8.3-16.9,13.6
				C35.2,53,31,59.1,28,65.7c-3,6.6-4.9,13.7-5.6,21c-0.3,3.6-0.3,7.3,0,10.9c0.3,3.6,1,7.2,1.7,10.8c1.5,7.1,3.3,14.2,6.2,20.9
				c2.8,6.7,6.8,13,12.2,17.9c5.3,5,11.9,8.5,18.8,10.9c6.9,2.4,14.1,3.7,21.4,4.6l0.4,0l-0.3,0.3c0,0-0.1,0.1-0.1,0.1l0.2-0.1
				c-3.5,7.8-6.6,15.8-9.6,23.8c-3,8-5.7,16.2-8.1,24.4c-1.2,4.1-2.3,8.2-3.3,12.4c-1,4.2-2,8.3-2.6,12.6c-0.6,4.2-0.8,8.5,0,12.7
				c0.8,4.2,2.7,8.1,5.8,11l0.1,0.1l0,0.1c0.2,3.8,1.6,7.4,3.9,10.4c2.3,3,5.5,5.3,9,6.4c3.6,1.2,7.5,1.2,11-0.1
				c3.5-1.3,6.5-3.8,8.4-7l0.1-0.2l0.3,0c6.6,0.4,13.3,0.6,19.9,0.7c6.6,0.1,13.3-0.1,19.9-0.7l0.3,0l0.1,0.3
				c3.7,8.3,7.7,16.5,12.3,24.4c2.3,3.9,4.7,7.8,7.6,11.3c1.4,1.8,2.9,3.4,4.7,4.8c0.9,0.7,1.8,1.3,2.8,1.6c1,0.4,2.1,0.4,3,0
				c0.9-0.4,1.7-1.2,2.3-2.1c0.6-0.9,1.1-1.9,1.4-3c0.8-2.1,1.2-4.3,1.6-6.6c0.7-4.5,1-9,1.2-13.6c0.3-9.1,0-18.2-0.5-27.3l0-0.3
				l0.2-0.2c3.8-2.6,7.2-5.9,9.3-10c2.1-4.1,2.8-8.8,2.4-13.4c-0.2-2.3-0.6-4.6-1.2-6.8c-0.6-2.2-1.3-4.5-2.1-6.7
				c-1.5-4.4-3.2-8.8-5.1-13.1c-3.8-8.6-8.1-16.9-13-24.9c-4.8-8-10.1-15.8-15.8-23.2l-0.2-0.3l0.4-0.1c6.6-1.5,13.1-3.5,19.1-6.8
				c6-3.2,11.3-7.7,15.3-13.1c4.1-5.4,6.9-11.7,9-18.2C195,115.9,196.4,109.2,197.5,102.5z M197.6,102.5c-1.1,6.7-2.4,13.4-4.5,19.9
				c-2.1,6.5-4.9,12.8-8.9,18.3c-4,5.5-9.4,10-15.3,13.3c-6,3.3-12.5,5.4-19.2,6.9l0.1-0.4c5.8,7.4,11.1,15.2,16,23.2
				c4.9,8,9.3,16.3,13.1,24.9c1.9,4.3,3.7,8.7,5.2,13.1c0.8,2.2,1.5,4.4,2.1,6.7c0.6,2.3,1.1,4.6,1.2,7c0.4,4.7-0.3,9.6-2.5,13.9
				c-2.2,4.3-5.7,7.8-9.6,10.4l0.2-0.4c0.5,9.1,0.8,18.3,0.5,27.4c-0.2,4.6-0.5,9.2-1.2,13.7c-0.4,2.3-0.9,4.5-1.7,6.7
				c-0.4,1.1-0.9,2.2-1.5,3.2c-0.7,1-1.5,1.9-2.7,2.5c-1.2,0.5-2.5,0.5-3.7,0c-1.2-0.4-2.2-1.1-3.1-1.8c-1.8-1.4-3.4-3.2-4.9-5
				c-2.9-3.6-5.3-7.5-7.7-11.4c-4.6-7.9-8.6-16.1-12.4-24.5l0.5,0.3c-6.6,0.6-13.3,0.8-20,0.7c-6.7-0.1-13.3-0.3-20-0.7l0.4-0.2
				c-2,3.4-5.2,6.1-8.9,7.4c-3.7,1.3-7.8,1.3-11.6,0.1c-3.7-1.2-7-3.6-9.4-6.7c-2.4-3.1-3.8-6.9-4-10.8l0.1,0.2
				c-3.2-3-5.2-7.1-5.9-11.4c-0.8-4.3-0.6-8.7,0.1-12.9c1.4-8.5,3.6-16.8,6-25c2.4-8.2,5.2-16.4,8.1-24.4c3-8,6.2-16,9.7-23.8
				l0.1-0.1l0.1,0c0,0-0.1,0-0.1,0.1l0.1,0.3c-7.3-0.9-14.5-2.3-21.4-4.7c-6.9-2.4-13.5-5.9-18.9-10.9c-5.4-5-9.5-11.3-12.4-18
				c-2.9-6.7-4.8-13.9-6.3-21c-0.7-3.6-1.5-7.2-1.8-10.8c-0.3-3.7-0.4-7.3-0.1-11c0.6-7.3,2.5-14.5,5.5-21.2
				c3-6.7,7.2-12.9,12.2-18.3c5-5.4,10.8-10,17.1-13.8l-0.2,0.4c-0.3-1.2,0-2.6,0.6-3.6c0.6-1.1,1.5-1.9,2.5-2.6
				c1.9-1.5,4-2.5,6.2-3.4c4.4-1.7,8.9-2.9,13.5-3.7c9.2-1.7,18.5-2.4,27.8-2.4c9.3,0,18.6,0.6,27.8,2.1c4.6,0.8,9.2,1.8,13.6,3.3
				c2.2,0.8,4.4,1.7,6.4,2.9c1,0.6,2,1.3,2.9,2.1c0.9,0.8,1.6,1.8,2,2.9l-0.1-0.1c6.4,3.4,12.3,7.6,17.5,12.6
				c5.2,5,9.7,10.7,13.2,17c3.5,6.3,5.9,13.2,7.1,20.3C198.7,88.1,198.7,95.4,197.6,102.5z"/>
			<path d="M110,158.2c-7.8,0-15.5-0.2-23.3-0.7c-7.7-0.5-15.5-1.3-23.1-3.3c-3.8-1-7.5-2.2-10.9-4.3c-1.7-1-3.3-2.2-4.6-3.7
				c-1.3-1.5-2.4-3.2-3-5.1c-0.6-1.9-0.8-3.9-0.7-5.9c0.2-2,0.8-3.9,1.3-5.8c0.5-1.9,0.9-3.7,0.9-5.6c0-1.9-0.4-3.8-0.8-5.7
				c-0.4-1.9-0.9-3.8-1.2-5.7c-0.1-1-0.2-2-0.3-2.9c0-1,0.1-2,0.2-2.9c0.4-3.9,1.1-7.7,2.4-11.5c1.2-3.7,2.9-7.3,5.2-10.5
				c2.3-3.2,5.1-5.9,8.3-8.2c3.2-2.2,6.8-3.9,10.4-5.2c3.7-1.3,7.5-2.2,11.3-2.9c7.7-1.3,15.5-1.7,23.2-1.8c7.8-0.1,15.6,0.5,23.2,2
				c7.6,1.6,15.2,4.1,21.8,8.2c3.3,2,6.5,4.5,9.2,7.4c2.7,2.9,5,6.1,6.6,9.7c1.7,3.6,2.7,7.4,3.2,11.3c0.3,1.9,0.3,3.9,0.4,5.8
				c0.1,1.9,0.6,3.7,1,5.7c0.8,3.8,1.2,7.7,2.1,11.5c0.2,0.9,0.4,1.9,0.7,2.8c0.2,0.9,0.5,1.9,0.6,2.9c0.1,2,0.1,4-0.3,5.9
				c-0.4,2-1.2,3.8-2.4,5.5c-1.2,1.6-2.7,3-4.3,4.1c-3.3,2.2-7,3.6-10.8,4.6c-7.5,2.1-15.3,2.9-23.1,3.4
				C125.5,158,117.8,158.2,110,158.2z M110,158.1c7.8,0,15.5-0.2,23.3-0.8c7.7-0.7,15.5-1.6,22.9-3.7c3.7-1.1,7.3-2.5,10.5-4.7
				c1.6-1.1,3-2.4,4.1-3.9c1.1-1.5,1.8-3.3,2.2-5.1c0.4-1.8,0.4-3.8,0.2-5.7c-0.1-0.9-0.3-1.8-0.5-2.8c-0.2-0.9-0.5-1.9-0.7-2.9
				c-0.8-3.8-1.3-7.7-2.1-11.5c-0.4-1.9-0.9-3.8-1-5.8c-0.1-2-0.1-3.9-0.4-5.8c-0.5-3.8-1.5-7.5-3.1-11c-3.2-7-8.8-12.7-15.3-16.7
				c-6.6-4-14-6.6-21.5-8.2c-7.6-1.6-15.3-2.3-23.1-2.2c-7.8,0-15.5,0.3-23.2,1.6c-7.6,1.3-15.2,3.5-21.6,8c-3.2,2.2-6,5-8.2,8.1
				c-2.2,3.2-3.9,6.7-5,10.4c-1.2,3.7-1.9,7.5-2.2,11.3c-0.6,3.8,0.4,7.6,1.3,11.4c0.4,1.9,0.8,3.8,0.8,5.8c0,2-0.4,4-0.9,5.8
				c-0.5,1.9-1.1,3.7-1.2,5.6c-0.1,1.9,0.1,3.8,0.6,5.6c0.6,1.8,1.5,3.4,2.8,4.9c1.3,1.4,2.8,2.6,4.4,3.6c3.3,2,6.9,3.3,10.7,4.3
				c7.5,2,15.2,3,22.9,3.6C94.5,157.8,102.2,158,110,158.1z"/>
		</g>
	</g>
	<path class="st1" d="M148.8,263.3c-2.2,4.3-6.4,5.5-10.8,7c7,15.5,26.1,54.9,34.2,38.3C158.1,298.7,149.4,281.6,148.8,263.3z"/>
	<path class="st1" d="M88.8,264.3c0,2,0,6-1,7c-7,3.9-14.1,0.5-20.6-3.1c0.5,0.9,1.1,1.8,1.7,2.7c6.3,8,17.4,9.7,25,3.8
		c1.7-1.3,3-2.9,4.1-4.7c1.1,0.1,2.3,0.1,3.5,0.2C97,268.5,92.2,268.5,88.8,264.3z"/>
	<path class="st1" d="M63,29.2c-0.5-1-0.6-2-0.4-3.1c-3.7,2-5.9,4.3-5.9,6.7c0,0.3,0,0.6,0.1,0.9c-7.8,4.7-14.4,10.4-19.7,16.9
		c9.6-8.9,23.2-14.5,36.9-17.6C70.4,32.9,66.7,31,63,29.2z"/>
	<path class="st1" d="M146.2,34.7c11.5-1.8,20.7,1.2,28.3,6.8c-4.4-3.8-9.4-7.2-14.9-10.2c-0.5-1.4-1.7-2.8-3.6-4.1
		C155.5,30.9,150.9,33.5,146.2,34.7z"/>
	<path class="st1" d="M153.6,169.7c23.1,26.7,23.8,58.3,21.1,89.8c10.3-6.8,15.4-17.2,10.5-33c-8.7-27.9-25.6-52.6-33.5-63
		C150.9,165.9,151.2,168.1,153.6,169.7z"/>
	<path class="st1" d="M85.2,166c-1.1-0.3-2.3-0.7-3.4-1c-3.6,8.2-16.4,38.6-22.2,67.8c-3.1,15.7,0.5,24.8,8.9,30.1
		C55,238.3,78.4,194.3,85.2,166z"/>
	<g>
		<path class="st1" d="M45.9,142C29.7,124,22.2,99,24.7,73.6c-0.1,0.3-0.2,0.5-0.2,0.8c-2.7,9.2-3.3,18.9-1.5,28.6
			c5.9,33.3,16.8,51.2,48.5,58c-5.9-2.8-11.4-6.2-16.3-10.2C50.2,148.4,47.3,145.5,45.9,142z"/>
		<path class="st1" d="M197.8,83.9c0-0.4,0-0.8,0-1.2c-1-13.6,6-33.1-26.9-40.2l-3.6,9.8c0,0,2.4,18.9,14.7,28.5
			c0,0,5.5,5.4,2.6,9.2c-2.3,3,7.7,5.2,11.7-0.6c-1.7,20-9.8,39.2-24.4,54.5c-1.3,2.4-3.5,4.5-6.6,6.3c-1.9,1.7-4,3.3-6.1,4.8
			c-1.8,1.2-3.7,2.9-5.1,4.7c28.5-7.8,38.5-25.7,43.5-57.1C198.5,96.2,198.6,90,197.8,83.9z"/>
	</g>
	<g>
		<path class="st12" d="M167.1,52.8c0,0,5.2,18.3,18.7,26c0,0,6.2,4.5,3.9,8.8c-2.4,4.3,15,4.1,12-9.2c-3-13.3,1.1-33.7-32.5-35.9"
			/>
		<path d="M167.1,52.8c0.9,2.6,2,5.1,3.2,7.5c1.2,2.4,2.6,4.8,4.1,7c1.5,2.2,3.3,4.3,5.2,6.2c1.9,1.9,4,3.6,6.3,5l0,0l0,0
			c1.5,1.2,2.8,2.5,3.7,4.2c0.4,0.8,0.7,1.8,0.7,2.7c0,0.5-0.1,1-0.2,1.4c-0.1,0.5-0.5,0.9-0.5,1.2c-0.1,0.4,0.1,0.8,0.4,1
			c0.3,0.3,0.7,0.4,1.2,0.6c0.9,0.2,1.8,0.2,2.7,0.1c1.8-0.2,3.5-0.9,4.9-2c1.4-1.1,2.4-2.7,2.7-4.5c0.4-1.7,0.1-3.5-0.3-5.3
			c-0.8-3.6-1.1-7.3-1.7-10.8c-0.6-3.6-1.4-7.1-2.9-10.4c-1.5-3.2-3.9-6-6.8-8.1c-2.9-2.1-6.3-3.4-9.8-4.4
			c-3.5-0.9-7.1-1.5-10.7-1.9l0-0.1c3.7,0.1,7.3,0.5,10.9,1.3c3.6,0.8,7.1,2.2,10.2,4.2c3.1,2.1,5.6,5,7.2,8.4
			c1.6,3.4,2.4,7,2.9,10.7c0.5,3.6,0.8,7.3,1.5,10.8c0.4,1.8,0.6,3.7,0.1,5.6c-0.4,1.8-1.5,3.5-3,4.6c-1.5,1.1-3.3,1.8-5.1,2
			c-0.9,0.1-1.9,0.1-2.8-0.1c-0.5-0.1-0.9-0.3-1.3-0.6c-0.4-0.3-0.7-0.9-0.5-1.4c0.1-0.5,0.4-0.8,0.5-1.3c0.1-0.4,0.2-0.9,0.2-1.3
			c0-0.9-0.3-1.7-0.8-2.5c-0.9-1.5-2.2-2.8-3.6-3.9l0,0c-2.4-1.3-4.6-3.1-6.6-5c-2-2-3.7-4.1-5.2-6.4c-1.5-2.3-2.8-4.7-4-7.2
			C168.7,58,167.7,55.5,167.1,52.8L167.1,52.8z"/>
	</g>
	<path class="st1" d="M49.8,51.4c0,0-1,19-12.5,29.5c0,0-5.1,5.8-1.9,9.4c3.2,3.6-13.7,7.3-13.7-6.3c0-13.7-8.5-32.6,23.7-42.1"/>
	<g>
		<path class="st12" d="M49.8,52.9c0,0-5.2,18.3-18.7,26c0,0-6.2,4.5-3.9,8.8c2.4,4.3-15,4.1-12-9.2c3-13.3-1.1-33.7,32.5-35.9"/>
		<path d="M49.8,53c-0.7,2.6-1.7,5.2-2.8,7.7c-1.1,2.5-2.4,4.9-4,7.2c-1.5,2.3-3.2,4.5-5.2,6.4c-2,1.9-4.2,3.7-6.6,5l0,0
			c-1.4,1-2.7,2.3-3.6,3.9c-0.4,0.8-0.8,1.6-0.8,2.5c0,0.4,0,0.9,0.2,1.3c0.1,0.4,0.4,0.7,0.5,1.3c0.1,0.5-0.1,1.1-0.5,1.4
			c-0.4,0.3-0.8,0.5-1.3,0.6c-0.9,0.2-1.9,0.2-2.8,0.1c-1.8-0.2-3.6-0.9-5.1-2c-1.5-1.1-2.6-2.8-3-4.6c-0.4-1.8-0.3-3.8,0.1-5.6
			c0.7-3.5,0.9-7.2,1.5-10.8c0.5-3.6,1.3-7.3,2.9-10.7c1.6-3.4,4.1-6.3,7.2-8.4c3.1-2.1,6.6-3.4,10.2-4.2c3.6-0.8,7.2-1.2,10.9-1.3
			l0,0.1c-3.6,0.4-7.2,0.9-10.7,1.9c-3.5,1-6.9,2.3-9.8,4.4c-2.9,2.1-5.3,4.8-6.8,8.1c-1.5,3.2-2.4,6.8-2.9,10.4
			c-0.6,3.6-0.9,7.2-1.7,10.8c-0.5,1.7-0.7,3.5-0.3,5.3c0.3,1.7,1.3,3.3,2.7,4.5c1.4,1.1,3.1,1.8,4.9,2c0.9,0.1,1.8,0.1,2.7-0.1
			c0.4-0.1,0.8-0.3,1.2-0.6c0.3-0.3,0.5-0.7,0.4-1c-0.1-0.4-0.4-0.8-0.5-1.2c-0.1-0.5-0.2-0.9-0.2-1.4c0-1,0.3-1.9,0.7-2.7
			c0.9-1.7,2.2-3,3.7-4.2l0,0l0,0c2.3-1.4,4.4-3.1,6.3-5c1.9-1.9,3.6-4,5.2-6.2c1.5-2.2,2.9-4.6,4.1-7C47.7,58,48.8,55.5,49.8,53
			L49.8,53z"/>
	</g>
	<g>
		<path class="st4" d="M152.8,53.7c0,3.7-3,6.6-6.6,6.6c-3.6,0-6.6-3-6.6-6.6c0-3.7,3-6.6,6.6-6.6C149.9,47.1,152.8,50.1,152.8,53.7
			z"/>
		<path d="M151.2,53.7c0,3.7-3,6.6-6.6,6.6c-3.7,0-6.6-3-6.6-6.6c0-3.7,3-6.6,6.6-6.6C148.2,47.1,151.2,50.1,151.2,53.7z"/>
		<path class="st13" d="M142.4,52.6c0,0.6-0.5,1.1-1.1,1.1c-0.6,0-1.1-0.5-1.1-1.1c0-0.6,0.5-1.1,1.1-1.1
			C141.9,51.5,142.4,52,142.4,52.6z"/>
	</g>
	<g>
		<path class="st4" d="M80.6,53.7c0,3.7-3,6.6-6.6,6.6c-3.7,0-6.6-3-6.6-6.6c0-3.7,3-6.6,6.6-6.6C77.6,47.1,80.6,50.1,80.6,53.7z"/>
		<path d="M78.9,53.7c0,3.7-3,6.6-6.6,6.6c-3.7,0-6.6-3-6.6-6.6c0-3.7,3-6.6,6.6-6.6C75.9,47.1,78.9,50.1,78.9,53.7z"/>
		<path class="st13" d="M70.1,52.6c0,0.6-0.5,1.1-1.1,1.1c-0.6,0-1.1-0.5-1.1-1.1c0-0.6,0.5-1.1,1.1-1.1
			C69.6,51.5,70.1,52,70.1,52.6z"/>
	</g>
	<path class="st10" d="M50.3,63.4c-0.1,2.3,5.5,4.4,12.4,4.7c6.9,0.3,12.7-1.3,12.8-3.6c0.1-2.3-5.4-4.4-12.4-4.7
		C56.1,59.4,50.4,61.1,50.3,63.4z"/>
	<path class="st13" d="M50.5,60.5c0,0.7,1.8,1.4,4,1.5c2.2,0.1,4.1-0.4,4.1-1.2c0-0.7-1.7-1.4-4-1.5C52.3,59.3,50.5,59.8,50.5,60.5z
		"/>
	<path class="st10" d="M165.4,63.2c0.1,2.3-5.5,4.5-12.5,4.8c-7,0.3-12.8-1.3-12.9-3.7c-0.1-2.3,5.5-4.5,12.5-4.8
		C159.5,59.2,165.3,60.9,165.4,63.2z"/>
	<path class="st13" d="M165.3,60.3c0,0.8-1.8,1.4-4,1.5c-2.2,0.1-4.1-0.4-4.1-1.2c0-0.7,1.8-1.4,4-1.5
		C163.4,59.1,165.3,59.6,165.3,60.3z"/>
	<path class="st0" d="M166.8,75c0,11.8-25.9,16.1-57.8,16.1C77,91.1,51.2,86.8,51.2,75c0-11.8,25.9-21.4,57.8-21.4
		C140.9,53.6,166.8,63.2,166.8,75z"/>
	<path class="st2" d="M51.2,74c0,0.3-0.1,0.6-0.1,1c0,11.8,25.9,16.1,57.8,16.1c31.9,0,57.8-4.3,57.8-16.1c0-1.2-0.3-2.4-0.8-3.5
		C135,93.4,86.3,89.7,51.2,74z"/>
	<path d="M82.7,68.6c0,2.8-1,5-2.1,5c-1.2,0-2.1-2.3-2.1-5c0-2.8,0.9-5,2.1-5C81.7,63.6,82.7,65.8,82.7,68.6z"/>
	<ellipse cx="134.5" cy="68.6" rx="2.3" ry="5.5"/>
	<g>
		<path class="st14" d="M133.8,67.5c0.4,1.8,0.7,3.6,0.7,5.5c0,13.8-12,24.9-26.8,24.9C92.9,98,80.9,86.8,80.9,73
			c0-1.6,0.2-3.2,0.5-4.8l-1.8,0c-0.6,2.1-0.9,4.3-0.9,6.6c0,14.9,13,27,29,27c16,0,29-12.1,29-27c0-2.6-0.4-5-1.1-7.4L133.8,67.5z"
			/>
		<path d="M133.9,67.5c1,3.7,1.1,7.6,0.1,11.4c-0.9,3.8-2.8,7.3-5.3,10.2c-5.1,5.9-12.8,9.3-20.6,9.3c-7.8,0.1-15.5-3.1-20.7-8.8
			c-2.6-2.8-4.6-6.2-5.7-9.9c-1.1-3.7-1.2-7.7-0.5-11.4l0.2,0.3l-1.8,0l0.2-0.2c-1.1,4.1-1.1,8.4-0.1,12.5c1,4.1,3.1,7.8,5.9,10.9
			c2.8,3.1,6.3,5.6,10.2,7.2c3.9,1.6,8,2.4,12.2,2.4c8.4-0.1,16.7-3.7,22.2-10.1c2.7-3.2,4.7-7,5.6-11.1c0.9-4.1,0.8-8.5-0.4-12.5
			l0.1,0.1L133.9,67.5z M133.7,67.4l1.8-0.1l0.1,0l0,0.1c1.3,4.1,1.7,8.5,0.8,12.7c-0.8,4.2-2.8,8.2-5.5,11.5
			c-2.7,3.3-6.3,6-10.2,7.8c-3.9,1.8-8.2,2.8-12.6,2.8c-8.7,0.2-17.4-3.5-23.1-10c-2.9-3.2-4.9-7.2-5.9-11.4
			c-1-4.2-0.9-8.6,0.3-12.8l0-0.2h0.2l1.8,0l0.3,0l-0.1,0.3c-0.8,3.7-0.7,7.6,0.4,11.3c1.1,3.7,3.1,7,5.7,9.7
			c2.6,2.7,5.9,4.9,9.4,6.3c3.5,1.4,7.3,2,11.1,2c3.8-0.1,7.5-0.9,11-2.4c3.4-1.5,6.6-3.7,9.1-6.6C133.2,83,135.5,75,133.7,67.4
			L133.7,67.4z"/>
	</g>
	<g>
		<path class="st12" d="M88.5,164.5c0,0-64.9-26.9-70-19.9c-5.2,7,52,36.9,52,36.9s4,0.7,0.2,12.6"/>
		<path d="M88.5,164.5c-10.8-4.1-21.7-8.2-32.6-12c-5.5-1.9-10.9-3.9-16.5-5.5c-2.8-0.8-5.6-1.6-8.4-2.2c-2.8-0.6-5.7-1.1-8.6-1.2
			c-0.7,0-1.4,0.1-2.1,0.2c-0.7,0.1-1.4,0.4-1.7,0.9c-0.4,0.5-0.3,1.2,0,1.8c0.3,0.6,0.7,1.2,1.1,1.8c1.8,2.2,4.1,4,6.4,5.8
			c4.6,3.5,9.5,6.6,14.4,9.6c4.9,3,9.9,6,14.9,8.9c5,2.9,10,5.8,15.1,8.5l-0.1,0c0.7,0.2,1.1,0.7,1.4,1.3c0.3,0.5,0.4,1.1,0.5,1.7
			c0.2,1.2,0.1,2.3,0,3.4c-0.3,2.2-1,4.4-1.7,6.5l-0.1,0c0.6-2.2,1.2-4.3,1.4-6.6c0.1-1.1,0.1-2.2-0.1-3.3c-0.1-0.5-0.3-1.1-0.5-1.5
			c-0.2-0.4-0.7-0.8-1-0.9l-0.1,0l0,0c-5.2-2.6-10.3-5.4-15.4-8.2c-5-2.9-10.1-5.8-15-8.9c-4.9-3.1-9.8-6.3-14.3-9.9
			c-2.3-1.8-4.5-3.7-6.4-6c-0.4-0.6-0.9-1.2-1.1-1.9c-0.3-0.7-0.4-1.6,0.1-2.3c0.5-0.7,1.3-0.9,2-1.1c0.7-0.1,1.5-0.2,2.2-0.2
			c2.9,0.1,5.8,0.6,8.6,1.2c2.8,0.6,5.6,1.3,8.4,2.1c5.6,1.5,11.1,3.2,16.6,5.1C67.1,155.5,77.9,159.7,88.5,164.5L88.5,164.5z"/>
	</g>
	<g>
		<path class="st12" d="M144.7,160.9c0,0,65.7-40.3,72.5-33.6c6.8,6.7-50,48.9-50,48.9s-4.2,1.5,1.9,13.7"/>
		<path d="M144.6,160.9c10.7-6.9,21.7-13.3,32.9-19.3c5.6-3,11.3-5.8,17.1-8.4c2.9-1.3,5.8-2.6,8.8-3.8c3-1.2,6-2.3,9.1-2.8
			c0.8-0.1,1.6-0.2,2.4-0.2c0.8,0,1.7,0.2,2.4,0.8c0.7,0.7,0.7,1.7,0.5,2.5c-0.2,0.8-0.5,1.6-0.9,2.3c-1.6,2.8-3.7,5.2-5.9,7.6
			c-4.3,4.7-9.1,9-13.8,13.2c-4.8,4.2-9.7,8.2-14.7,12.2c-5,3.9-10.1,7.8-15.2,11.5l0,0l-0.1,0c-0.4,0.2-0.8,0.7-1,1.2
			c-0.2,0.5-0.3,1.1-0.3,1.7c0,1.2,0.2,2.4,0.5,3.6c0.6,2.4,1.6,4.6,2.6,6.9l-0.1,0c-1.2-2.2-2.2-4.4-2.9-6.8
			c-0.4-1.2-0.6-2.4-0.6-3.7c0-0.6,0.1-1.3,0.3-1.9c0.2-0.6,0.6-1.2,1.3-1.6l-0.1,0c5-3.9,10-7.8,15-11.8c5-4,9.8-8,14.7-12.2
			c4.8-4.1,9.5-8.4,13.9-12.9c2.2-2.3,4.3-4.7,5.9-7.4c0.4-0.7,0.7-1.4,0.9-2.1c0.2-0.7,0.2-1.5-0.3-2c-0.5-0.5-1.3-0.7-2-0.7
			c-0.8,0-1.6,0-2.3,0.1c-3.1,0.5-6.1,1.6-9.1,2.7c-2.9,1.2-5.9,2.5-8.7,3.8c-5.7,2.8-11.3,5.8-16.9,8.8
			C166.8,148.3,155.7,154.6,144.6,160.9L144.6,160.9z"/>
	</g>
	<g>
		<path d="M151.3,126c0,3.9-3.2,7.1-7.1,7.1c-3.9,0-7.1-3.2-7.1-7.1c0-3.9,3.2-7.1,7.1-7.1C148.2,118.9,151.3,122.1,151.3,126z"/>
		<circle class="st13" cx="141.3" cy="124.3" r="1.7"/>
	</g>
	<g>
		<path d="M76.9,126c0,3.9-3.2,7.1-7.1,7.1c-3.9,0-7.1-3.2-7.1-7.1c0-3.9,3.2-7.1,7.1-7.1C73.7,118.9,76.9,122.1,76.9,126z"/>
		<circle class="st13" cx="66.8" cy="124.3" r="1.7"/>
	</g>
	<g>
		<path class="st11" d="M125.7,137.7c0,6.4-8.5,13.4-19,13.4c-10.5,0-19-7-19-13.4s8.5-7.9,19-7.9
			C117.2,129.8,125.7,131.3,125.7,137.7z"/>
		<g>
			<path d="M125.8,137.7c0,2-0.8,4-1.9,5.6c-1.1,1.7-2.6,3.1-4.3,4.3c-3.3,2.4-7.3,3.7-11.4,3.9c-4.1,0.2-8.1-0.8-11.7-2.6
				c-1.8-0.9-3.5-2-4.9-3.4c-1.4-1.4-2.7-3-3.5-5c-0.4-1-0.6-2-0.6-3c0-1.1,0.3-2.1,0.9-3c1.2-1.9,3.1-2.9,5.1-3.5
				c3.9-1.3,8-1.5,12-1.5c4,0,8.1,0.1,12,1c2,0.5,3.9,1.1,5.6,2.3c0.8,0.6,1.6,1.3,2.1,2.2C125.6,135.6,125.8,136.7,125.8,137.7z
				 M125.7,137.7c0-1-0.2-2-0.7-2.8c-0.5-0.8-1.2-1.5-2.1-2.1c-1.7-1-3.6-1.5-5.6-1.8c-3.9-0.6-7.9-0.6-11.9-0.6c-2,0-4,0.1-5.9,0.3
				c-2,0.2-3.9,0.5-5.8,1.1c-1.8,0.6-3.7,1.5-4.7,3c-1,1.6-1.1,3.6-0.5,5.5c0.6,1.8,1.8,3.5,3.2,4.9c1.4,1.4,3.1,2.5,4.9,3.4
				c3.6,1.8,7.6,2.4,11.5,2.1c3.9-0.3,7.8-1.5,11.1-3.6c1.7-1,3.2-2.3,4.4-3.9C124.8,141.6,125.6,139.7,125.7,137.7z"/>
		</g>
	</g>
	<g>
		<path class="st13" d="M125.7,138.1c0-0.1,0-0.3,0-0.4c0-6.4-8.5-7.9-19-7.9c-10,0-18.2,1.4-18.9,7.1
			C100.5,138.9,113.1,138.8,125.7,138.1z"/>
		<g>
			<path d="M125.7,138.1c0.1-0.9-0.1-1.9-0.5-2.7c-0.4-0.9-1-1.6-1.7-2.2c-1.5-1.2-3.3-1.8-5.1-2.2c-3.6-0.8-7.4-1-11.1-1
				c-3.7,0-7.5,0.1-11.1,0.8c-1.8,0.4-3.6,0.9-5.2,1.8c-1.6,0.9-2.8,2.4-3,4.2l-0.2-0.3c6.2,1,12.5,1.5,18.8,1.7
				C113,138.5,119.4,138.4,125.7,138.1z M125.7,138.1c-6.3,0.5-12.6,0.7-18.9,0.6c-6.3-0.1-12.6-0.6-18.9-1.6l-0.2,0l0-0.2
				c0.1-1,0.5-1.9,1-2.7c0.6-0.8,1.3-1.4,2.2-1.9c1.7-1,3.5-1.5,5.3-1.8c3.7-0.7,7.5-0.8,11.2-0.8c3.7,0.1,7.5,0.2,11.2,1.1
				c1.8,0.5,3.6,1.1,5.1,2.3c0.7,0.6,1.3,1.4,1.7,2.2C125.6,136.2,125.8,137.2,125.7,138.1z"/>
		</g>
	</g>
	<path class="st10" d="M162.3,136.6c0.1,2-4.8,3.9-10.8,4.1c-6.1,0.3-11.1-1.2-11.1-3.2c-0.1-2,4.8-3.9,10.8-4.1
		C157.2,133.1,162.2,134.5,162.3,136.6z"/>
	<path class="st13" d="M162.2,134.1c0,0.7-1.5,1.2-3.5,1.3c-1.9,0.1-3.5-0.4-3.6-1c0-0.6,1.5-1.2,3.5-1.3
		C160.6,133,162.2,133.4,162.2,134.1z"/>
	<path class="st10" d="M52.3,136.8c-0.1,2,4.8,3.9,10.8,4.1c6.1,0.3,11.1-1.2,11.1-3.2c0.1-2-4.8-3.9-10.8-4.1
		C57.4,133.3,52.4,134.7,52.3,136.8z"/>
	<path class="st13" d="M52.4,134.3c0,0.7,1.5,1.2,3.5,1.3c1.9,0.1,3.5-0.4,3.6-1c0-0.6-1.5-1.2-3.5-1.3
		C54,133.2,52.4,133.6,52.4,134.3z"/>
	<path class="st1" d="M90.4,163.5c0,0,38.2-0.2,46.2-2.5C136.7,161,110.9,171.7,90.4,163.5z"/>
</g>
</svg>
