<?xml version="1.0" encoding="utf-8"?>
<!-- Generator: Adobe Illustrator 15.1.0, SVG Export Plug-In . SVG Version: 6.00 Build 0)  -->
<!DOCTYPE svg PUBLIC "-//W3C//DTD SVG 1.1//EN" "http://www.w3.org/Graphics/SVG/1.1/DTD/svg11.dtd">
<svg version="1.1" id="OX" xmlns="http://www.w3.org/2000/svg" xmlns:xlink="http://www.w3.org/1999/xlink" x="0px" y="0px"
	 width="213px" height="286.5px" viewBox="0 0 213 286.5" style="enable-background:new 0 0 213 286.5;" xml:space="preserve">
<style type="text/css">
<![CDATA[
	.st0{fill:#FFEFD7;stroke:#000000;stroke-miterlimit:10;}
	.st1{opacity:0.26;fill:#CE6A06;}
	.st2{opacity:0.52;fill:#B29A7B;}
	.st3{opacity:0.24;}
	.st4{opacity:0.25;}
	.st5{opacity:0.35;fill:#966D44;}
	.st6{fill:#8E4904;}
	.st7{fill:#F9D3AA;}
	.st8{clip-path:url(#SVGID_2_);}
	.st9{clip-path:url(#SVGID_4_);}
	.st10{opacity:0.52;fill:#FF9999;}
	.st11{fill:#C99C6B;}
	.st12{fill:#FFD04D;}
	.st13{fill:#FFFFFF;}
	.st14{fill:#DBA214;}
	.st15{fill:#FFD04D;stroke:#000000;stroke-miterlimit:10;}
]]>
</style>
<g>
	<ellipse class="st3" cx="114.6" cy="269" rx="84" ry="7.8"/>
	<g>
		<path class="st12" d="M143.2,238.6c0,0-15.3-17.6,9.2-37.6s28.4-0.3,39.7-28.9l0.6,2.6c0,0-5.9,17.8-19.7,19.6
			c-13.8,1.8-38.3,20.5-28.6,38.9C144.3,233.2,148.2,237.5,143.2,238.6z"/>
		<path d="M143.2,238.6c-2.5-3.1-4.2-6.9-4.8-10.8c-0.6-4,0-8.1,1.5-11.8c1.5-3.7,3.9-7.1,6.5-10c2.7-3,5.8-5.5,9-7.9
			c3.2-2.3,6.7-4.4,10.5-5.8c1.9-0.7,3.8-1.3,5.7-1.7c1.9-0.4,3.9-0.7,5.8-1.1c1.9-0.4,3.8-1.1,5.3-2.3c1.5-1.2,2.8-2.8,3.8-4.4
			c2.1-3.3,3.6-7,5.1-10.7l0.3-0.8l0.2,0.9l0.6,2.6l0,0.1l0,0.1c-1.2,3.4-2.8,6.5-4.8,9.5c-2,2.9-4.5,5.6-7.5,7.6
			c-1.5,1-3.1,1.8-4.9,2.3c-0.9,0.3-1.8,0.5-2.6,0.6c-0.9,0.1-1.7,0.3-2.5,0.5c-3.3,0.9-6.6,2.3-9.6,4c-3,1.7-5.8,3.8-8.4,6.1
			c-2.6,2.3-4.9,5-6.7,7.9c-1.8,2.9-3.1,6.3-3.4,9.7c-0.3,3.5,0.4,7,2,10.1l0,0c0.4,0.5,0.7,1,1,1.6c0.3,0.6,0.5,1.2,0.4,1.8
			c0,0.6-0.4,1.2-0.9,1.6C144.4,238.4,143.8,238.5,143.2,238.6L143.2,238.6L143.2,238.6z M143.3,238.5c0.6-0.1,1.1-0.3,1.6-0.7
			c0.5-0.3,0.8-0.9,0.8-1.5c0-0.6-0.2-1.1-0.4-1.7c-0.3-0.5-0.6-1-1-1.4l0,0l0,0c-1.7-3.1-2.6-6.7-2.3-10.3c0.3-3.6,1.5-7,3.3-10.1
			c3.7-6.1,9.2-11,15.3-14.5c3.1-1.8,6.3-3.3,9.8-4.1c0.9-0.2,1.8-0.4,2.6-0.5c0.8-0.1,1.7-0.3,2.5-0.5c1.6-0.5,3.2-1.2,4.6-2.2
			c2.9-1.9,5.3-4.4,7.3-7.3c2-2.8,3.7-6,4.9-9.2l0,0.2l-0.6-2.6l0.5,0c-1.5,3.7-3.1,7.3-5.3,10.7c-1.1,1.7-2.3,3.3-3.9,4.5
			c-1.6,1.2-3.5,2-5.5,2.4c-1.9,0.4-3.9,0.7-5.8,1.2c-1.9,0.4-3.8,1-5.6,1.8c-3.6,1.5-7,3.6-10.2,5.9c-3.2,2.3-6.2,4.9-8.9,7.8
			c-2.7,2.9-5,6.1-6.5,9.7c-1.5,3.6-2.2,7.6-1.7,11.5C139.5,231.6,140.9,235.4,143.3,238.5z"/>
	</g>
	<path class="st1" d="M189.8,177.4c0.5-0.6,1-1.1,1.6-1.7C190.9,176.3,190.3,176.9,189.8,177.4c-5.7,12.1-9.7,11.7-16.7,13.1
		c-16.1,9.2-31.1,16.6-34.3,38c1,6.2,4.4,10.1,4.4,10.1c5-1.1,1.1-5.4,1.1-5.4c-9.7-18.4,14.8-37.1,28.6-38.9
		c13.8-1.8,19.7-19.6,19.7-19.6l-0.6-2.6C191.3,174.1,190.5,175.9,189.8,177.4z"/>
	<path class="st15" d="M189.9,178.2c-2.1-2.3-0.7-8.3,3.3-13.6c4-5.2,11.1-5.4,11.1-5.4s-2.5,11.6-4.6,15.6
		C196.7,180.6,192.1,180.5,189.9,178.2z"/>
	<path class="st1" d="M192.4,165.9c-0.6,4.5-0.4,9.1,1.2,13.8c2.1-0.1,4.4-1.4,6.2-4.9c2.1-4,4.6-15.6,4.6-15.6s-7.1,0.2-11.1,5.4
		C192.9,165.1,192.6,165.5,192.4,165.9z"/>
	<g>
		<g>
			<path d="M204.3,159.2c-0.4,1.9-1,3.8-1.7,5.7c-0.7,1.9-1.4,3.7-2.3,5.5c-0.9,1.8-1.9,3.5-3.2,5.1c-1.3,1.5-2.8,3-4.7,3.5
				c1.9-0.8,3.3-2.2,4.4-3.8c1.2-1.6,2.2-3.3,3-5.1c0.9-1.8,1.7-3.6,2.4-5.4C203,163,203.7,161.1,204.3,159.2z"/>
		</g>
		<g>
			<path d="M189.3,177.3c0-1.9,0.4-3.8,1.1-5.7c0.7-1.8,1.7-3.5,2.9-5c1.2-1.5,2.6-2.9,4.2-4c1.6-1.1,3.2-2.1,5-2.8
				c-1.7,0.9-3.3,1.9-4.8,3.1c-1.5,1.2-2.9,2.5-4,4c-1.2,1.5-2.2,3.1-2.9,4.9C190,173.5,189.6,175.4,189.3,177.3z"/>
		</g>
		<g>
			<path d="M189.9,178.2c2.3-3.1,4.6-6.3,7-9.4l7.1-9.3l1-1.3l-0.6,1.5c-0.7,1.9-1.5,3.8-2.4,5.6c-0.9,1.8-1.8,3.7-2.9,5.4
				c-1.1,1.7-2.3,3.4-3.8,4.8c-0.7,0.7-1.6,1.4-2.5,1.8C192,178,190.9,178.3,189.9,178.2z M189.9,178.2c2.1,0,3.9-1.3,5.2-2.7
				c1.4-1.4,2.6-3.1,3.6-4.9c2.1-3.5,3.8-7.2,5.2-11l0.4,0.2l-7.2,9.2C194.8,172.2,192.4,175.2,189.9,178.2z"/>
		</g>
		<g>
			<path d="M202.5,161.9c-0.6,1.5-1.2,2.9-2,4.3c-0.7,1.4-1.6,2.8-2.4,4.1c-0.9,1.3-1.9,2.6-3,3.7c-1.1,1.1-2.4,2.2-3.9,2.8
				c1.4-0.8,2.5-1.9,3.6-3c1-1.2,2-2.4,2.9-3.7c0.9-1.3,1.7-2.6,2.5-4C201,164.7,201.8,163.3,202.5,161.9z"/>
		</g>
		<g>
			<path d="M203.3,159.3c-2.2,2.8-4.4,5.5-6.5,8.3c-1.1,1.4-2.1,2.8-3.2,4.2c-1,1.4-2,2.8-3,4.3c0.8-1.6,1.7-3.1,2.7-4.5
				c1-1.5,2-2.9,3.1-4.3c1.1-1.4,2.2-2.7,3.3-4.1C200.9,161.9,202,160.6,203.3,159.3z"/>
		</g>
		<g>
			<path d="M201.1,161.3c-1.2,1-2.3,2-3.3,3.1c-1,1.1-2,2.2-2.9,3.5c-1.9,2.4-3.3,5.1-4.6,7.8c0.4-1.5,1-2.9,1.7-4.3
				c0.7-1.4,1.6-2.7,2.5-3.9c0.9-1.2,2-2.4,3.1-3.4C198.7,163.1,199.8,162.1,201.1,161.3z"/>
		</g>
	</g>
	<g>
		<path class="st7" d="M153.6,111.4c-1.3-8.2-1.8-7.6-1.9-11.5c-0.5-25-24.4-36.8-53.8-36.8c-29.4,0-50.3,5.9-52.8,35.2
			c-0.4,4.6,2,9.4,1.9,13.6c0,4.2-1.9,7.1-1.9,10.6c0,11.7,13.1,18.7,55.8,18.7c42.8,0,54.5-6.9,54.5-18.7
			C155.5,118.1,154.9,119.5,153.6,111.4z"/>
		<g>
			<path d="M153.6,111.4c-0.3-1.6-0.5-3.3-0.9-4.9c-0.3-1.6-0.8-3.2-0.9-4.9c-0.1-1.7-0.1-3.3-0.3-5c-0.2-1.6-0.5-3.3-0.9-4.9
				c-0.9-3.2-2.2-6.2-4.1-9c-1.8-2.7-4.1-5.2-6.7-7.3c-5.1-4.1-11.3-6.9-17.6-8.7c-6.4-1.8-12.9-2.8-19.6-3.1
				c-6.6-0.3-13.3-0.2-19.9,0.5c-6.6,0.6-13.2,1.9-19.2,4.7c-3,1.4-5.8,3.2-8.2,5.5c-2.4,2.3-4.4,5-5.8,7.9c-1.5,3-2.5,6.1-3.2,9.4
				c-0.3,1.6-0.6,3.3-0.8,4.9c-0.1,0.8-0.2,1.6-0.2,2.5c0,0.8,0,1.6,0.1,2.4c0.4,3.3,1.7,6.4,1.8,9.8c0.1,1.7-0.2,3.4-0.6,5
				c-0.4,1.6-0.9,3.2-1.1,4.8c-0.4,3.2,0.5,6.6,2.6,9c2.1,2.5,5,4.1,8,5.3c6.1,2.4,12.7,3.4,19.3,4.1c6.6,0.7,13.2,1,19.9,1.1
				c6.6,0.1,13.3,0,19.9-0.2c6.6-0.3,13.3-0.8,19.8-2c3.3-0.6,6.5-1.4,9.6-2.6c3.1-1.2,6-2.9,8.1-5.4c1-1.3,1.8-2.8,2.2-4.4
				c0.4-1.6,0.5-3.3,0.4-4.9c0-1.7-0.6-3.2-0.9-4.9C154.1,114.6,153.8,113,153.6,111.4z M153.7,111.3c0.3,1.6,0.6,3.3,0.9,4.9
				c0.3,1.6,0.9,3.2,1,4.9c0.1,1.7,0,3.4-0.4,5c-0.4,1.6-1.2,3.2-2.2,4.5c-2.1,2.7-5.1,4.4-8.2,5.7c-3.1,1.3-6.3,2.1-9.6,2.8
				c-6.5,1.3-13.2,1.9-19.9,2.3c-6.7,0.4-13.3,0.4-20,0.3c-6.7-0.1-13.3-0.4-20-1.1c-3.3-0.4-6.6-0.8-9.9-1.5
				c-3.3-0.7-6.5-1.5-9.7-2.8c-3.1-1.3-6.2-3-8.4-5.6c-1.1-1.3-1.9-2.9-2.3-4.6c-0.4-1.7-0.6-3.4-0.3-5.1c0.2-1.7,0.8-3.3,1.2-4.9
				c0.4-1.6,0.7-3.2,0.6-4.8c-0.1-3.3-1.3-6.4-1.7-9.8c-0.1-0.8-0.2-1.7-0.1-2.5c0-0.8,0.1-1.7,0.2-2.5c0.2-1.7,0.5-3.3,0.8-4.9
				c0.7-3.3,1.8-6.5,3.3-9.4c1.5-3,3.5-5.7,6-8c2.4-2.3,5.3-4.2,8.3-5.6c3-1.4,6.2-2.5,9.4-3.3c3.2-0.8,6.5-1.3,9.8-1.7
				c3.3-0.4,6.6-0.6,10-0.7c3.3-0.1,6.7-0.2,10,0c6.7,0.3,13.3,1.2,19.8,3.1c6.4,1.9,12.6,4.7,17.8,9.1c2.6,2.2,4.8,4.7,6.6,7.5
				c1.8,2.8,3.1,5.9,3.9,9.2c0.4,1.6,0.7,3.3,0.9,4.9c0.2,1.7,0.2,3.3,0.3,5c0.1,1.6,0.6,3.3,0.9,4.9
				C153.1,108.1,153.4,109.7,153.7,111.3z"/>
		</g>
	</g>
	<g>
		<path class="st0" d="M130.7,27.7c0,0,45.5-2.8,54.4-18.2c0,0-1.7,32.7-28.1,39.6C157,49.1,138,45.3,130.7,27.7z"/>
		<path class="st2" d="M160.6,42.3c-5.7-8.6-15.4-6.8-18.3-15.8c-6.8,0.9-11.6,1.2-11.6,1.2C138,45.3,157,49.1,157,49.1
			c19.7-5.1,25.6-24.8,27.4-34.3C178.9,26,170.8,35.8,160.6,42.3z"/>
		<g>
			<defs>
				<path id="SVGID_1_" d="M130.7,27.7c0,0,45.5-2.8,54.4-18.2c0,0-1.7,32.7-28.1,39.6C157,49.1,138,45.3,130.7,27.7z"/>
			</defs>
			<clipPath id="SVGID_2_">
				<use xlink:href="#SVGID_1_"  style="overflow:visible;"/>
			</clipPath>
			<g class="st8">
				<g>
					<path d="M134.8,27.6c0.9,2.6,1.9,5.1,3.1,7.5c1.1,2.5,2.6,4.8,4.5,6.8c1.9,2,4,3.7,6.4,4.9c2.4,1.2,5.1,1.9,7.8,2.1v0.1
						c-2.7,0.1-5.5-0.4-8-1.6c-2.5-1.2-4.7-3-6.4-5.1c-1.7-2.1-3.3-4.4-4.6-6.8C136.2,32.9,135.2,30.3,134.8,27.6L134.8,27.6z"/>
				</g>
				<g>
					<path d="M137.9,27.6c0.9,2.6,1.9,5.1,3.1,7.5c1.1,2.5,2.6,4.8,4.5,6.8c1.9,2,4,3.7,6.4,4.9c2.4,1.2,5.1,1.9,7.8,2.1v0.1
						c-2.7,0.1-5.5-0.4-8-1.6c-2.5-1.2-4.6-3-6.4-5.1c-1.7-2.1-3.3-4.4-4.6-6.8C139.4,32.9,138.4,30.3,137.9,27.6L137.9,27.6z"/>
				</g>
				<g>
					<path d="M141.1,27.6c0.9,2.6,1.9,5.1,3.1,7.5c1.1,2.5,2.6,4.8,4.5,6.8c1.9,2,4,3.7,6.4,4.9c2.4,1.2,5.1,1.9,7.8,2.1v0.1
						c-2.7,0.1-5.5-0.4-8-1.6c-2.5-1.2-4.7-3-6.4-5.1c-1.7-2.1-3.3-4.4-4.6-6.8C142.5,32.9,141.5,30.3,141.1,27.6L141.1,27.6z"/>
				</g>
				<g>
					<path d="M142.6,25.1c0.9,2.6,1.9,5.1,3.1,7.5c1.1,2.5,2.6,4.8,4.5,6.8c1.9,2,4,3.7,6.4,4.9c2.4,1.2,5.1,1.9,7.8,2.1v0.1
						c-2.7,0.1-5.5-0.4-8-1.6c-2.5-1.2-4.7-3-6.4-5.1c-1.7-2.1-3.3-4.4-4.6-6.8C144.1,30.4,143.1,27.8,142.6,25.1L142.6,25.1z"/>
				</g>
				<g>
					<path d="M145.7,23.2c0.9,2.6,1.9,5.1,3.1,7.5c1.1,2.5,2.6,4.8,4.5,6.8c1.9,2,4,3.7,6.4,4.9c2.4,1.2,5.1,1.9,7.8,2.1v0.1
						c-2.7,0.1-5.5-0.4-8-1.6c-2.5-1.2-4.6-3-6.4-5.1c-1.7-2.1-3.3-4.4-4.6-6.8C147.1,28.5,146.1,25.9,145.7,23.2L145.7,23.2z"/>
				</g>
				<g>
					<path d="M148.8,20.6c0.9,2.6,1.9,5.1,3.1,7.5c1.1,2.5,2.6,4.8,4.5,6.8c1.9,2,4,3.7,6.4,4.9c2.4,1.2,5.1,1.9,7.8,2.1V42
						c-2.7,0.1-5.5-0.4-8-1.6c-2.5-1.2-4.7-3-6.4-5.1c-1.7-2.1-3.3-4.4-4.6-6.8C150.3,25.9,149.3,23.3,148.8,20.6L148.8,20.6z"/>
				</g>
				<g>
					<path d="M152,18.5c0.9,2.6,1.9,5.1,3.1,7.5c1.1,2.5,2.6,4.8,4.5,6.8c1.9,2,4,3.7,6.4,4.9c2.4,1.2,5.1,1.9,7.8,2.1v0.1
						c-2.7,0.1-5.5-0.4-8-1.6c-2.5-1.2-4.7-3-6.4-5.1c-1.7-2.1-3.3-4.4-4.6-6.8C153.4,23.8,152.4,21.2,152,18.5L152,18.5z"/>
				</g>
				<g>
					<path d="M155.8,14.5c0.9,2.6,1.9,5.1,3.1,7.5c1.1,2.5,2.6,4.8,4.5,6.8c1.9,2,4,3.7,6.4,4.9c2.4,1.2,5.1,1.9,7.8,2.1v0.1
						c-2.7,0.1-5.5-0.4-8-1.6c-2.5-1.2-4.7-3-6.4-5.1c-1.7-2.1-3.3-4.4-4.6-6.8C157.2,19.8,156.3,17.2,155.8,14.5L155.8,14.5z"/>
				</g>
				<g>
					<path d="M159.7,10.8c0.9,2.6,1.9,5.1,3.1,7.5c1.1,2.5,2.6,4.8,4.5,6.8c1.9,2,4,3.7,6.4,4.9c2.4,1.2,5.1,1.9,7.8,2.1v0.1
						c-2.7,0.1-5.5-0.4-8-1.6c-2.5-1.2-4.7-3-6.4-5.1c-1.7-2.1-3.3-4.4-4.6-6.8C161.2,16.1,160.2,13.5,159.7,10.8L159.7,10.8z"/>
				</g>
				<g>
					<path d="M161.8,7.1c0.9,2.6,1.9,5.1,3.1,7.5c1.1,2.5,2.6,4.8,4.5,6.8c1.9,2,4,3.7,6.4,4.9c2.4,1.2,5.1,1.9,7.8,2.1v0.1
						c-2.7,0.1-5.5-0.4-8-1.6c-2.5-1.2-4.7-3-6.4-5.1c-1.7-2.1-3.3-4.4-4.6-6.8C163.2,12.4,162.3,9.8,161.8,7.1L161.8,7.1z"/>
				</g>
				<g>
					<path d="M167.5,7.7c1.3,2.4,2.8,4.7,4.4,6.9c1.6,2.2,3.4,4.3,5.6,5.9c2.2,1.6,4.6,2.9,7.2,3.7c2.6,0.8,5.3,1,8.1,0.7l0,0
						c-2.7,0.6-5.5,0.6-8.2-0.2c-2.7-0.7-5.1-2.2-7.2-3.9c-2.1-1.8-4-3.7-5.8-5.9C169.9,12.7,168.4,10.3,167.5,7.7L167.5,7.7z"/>
				</g>
				<g>
					<path d="M170.7,3.5c1.3,2.4,2.8,4.7,4.4,6.9c1.6,2.2,3.4,4.3,5.6,5.9c2.2,1.6,4.6,2.9,7.2,3.7c2.6,0.8,5.3,1,8.1,0.7l0,0
						c-2.7,0.6-5.5,0.6-8.2-0.2c-2.7-0.7-5.1-2.2-7.2-3.9c-2.1-1.8-4-3.7-5.8-5.9C173.1,8.4,171.6,6,170.7,3.5L170.7,3.5z"/>
				</g>
				<g>
					<path d="M172-0.6c1.3,2.4,2.8,4.7,4.4,6.9c1.6,2.2,3.4,4.3,5.6,5.9c2.2,1.6,4.6,2.9,7.2,3.7c2.6,0.8,5.3,1,8.1,0.7l0,0
						c-2.7,0.6-5.5,0.6-8.2-0.2c-2.7-0.7-5.1-2.2-7.2-3.9c-2.1-1.8-4-3.7-5.8-5.9C174.4,4.4,173,2,172-0.6L172-0.6z"/>
				</g>
			</g>
		</g>
	</g>
	<g>
		<path class="st5" d="M152.4,104.8c-0.3,13.4-5.3,25.9-14.7,33.4c13.4-3.1,17.8-8.5,17.8-15.7c0-4.4-0.6-3-1.9-11.1
			C153.1,108,152.7,106.1,152.4,104.8z"/>
		<path class="st5" d="M86.5,105.1c0.1,0,0.2,0.1,0.2,0.1C86.6,105.2,86.6,105.2,86.5,105.1z"/>
		<path class="st5" d="M157.9,100.9c0,0-28.6-81.7-108.2-38.3c0,0-15.5,28.7-7.6,41.2c0,0,1.3-0.3,3.3-1.3c0.5,3.3,1.7,6.5,1.6,9.5
			c0,4.2-1.9,7.1-1.9,10.6c0,7.1,4.7,12.4,17.8,15.5c-2.6-1.5-4.9-3.4-6.7-5.6c-9.4-8.3-8.5-20.1-8.1-31.6
			c6.5-4.3,15.9-14.3,17-36.4c0,0,3.7,34.6,21.3,40.7c-1-0.4-5.7-2.9-6.5-13.2c0,0,8.3,12.5,21.3,13.3l-9.1-11.9
			c0,0,22.1,10.5,22.1,18.1c0,0,10.7-19.7-7.9-32.7c0,0,13.1,8.8,13.7,16.2c0,0,3.3-9.2-0.4-17.1C125.6,85.3,138.8,98.9,157.9,100.9
			z"/>
	</g>
	<g>
		<path class="st6" d="M65.2,62.9c0,0,3.7,34.9,21.5,40.8c0,0-5.8-1.8-6.7-13.3c0,0,8.3,12.5,21.3,13.3l-9.1-11.9
			c0,0,22.1,10.5,22.1,18.1c0,0,10.7-19.6-7.9-32.7c0,0,13.1,8.8,13.7,16.2c0,0,4.9-13.5-3.8-21.8c0,0,15.2,25,41.6,27.7
			c0,0-28.6-81.7-108.2-38.3c0,0-15.5,28.7-7.6,41.2C42.1,102.2,63.4,96.8,65.2,62.9z"/>
		<path d="M65.2,62.8c0.5,4,1.3,7.9,2.3,11.8c1,3.9,2.3,7.7,3.8,11.4c1.6,3.7,3.5,7.2,6,10.3c2.5,3.1,5.7,5.7,9.4,7l-0.2,0.6
			c-1.3-0.5-2.3-1.4-3.2-2.5c-0.9-1-1.5-2.2-2-3.4c-1-2.4-1.5-5.1-1.7-7.7l-0.1-1.3l0.7,1.1c1.2,1.7,2.7,3.4,4.2,4.8
			c1.5,1.5,3.2,2.8,5,4c3.6,2.4,7.7,3.9,11.9,4.2l-0.4,0.7c-3-4-6.1-7.9-9.1-11.9l-1.1-1.5l1.6,0.8c4.4,2.2,8.7,4.6,12.8,7.4
			c2,1.4,4,2.9,5.8,4.6c0.9,0.9,1.7,1.8,2.4,2.9c0.7,1,1.3,2.3,1.3,3.6l-0.7-0.2c1.4-2.7,2.3-5.7,2.7-8.7c0.5-3,0.4-6.1-0.2-9.1
			c-0.6-3-1.9-5.8-3.7-8.3c-1.8-2.5-4.1-4.6-6.5-6.3l0.3-0.4c3,2.1,5.8,4.4,8.3,7c1.3,1.3,2.4,2.7,3.4,4.3c1,1.5,1.8,3.3,1.9,5.1
			l-0.3,0c0.6-1.8,1-3.7,1.2-5.6c0.2-1.9,0.2-3.9,0-5.8c-0.2-1.9-0.8-3.8-1.6-5.5c-0.8-1.7-2-3.3-3.4-4.6l0.3-0.2
			c2.3,3.6,5.1,6.9,8,10c3,3.1,6.2,5.9,9.7,8.4c3.5,2.5,7.3,4.5,11.3,6.1c4,1.6,8.2,2.6,12.4,3l-0.4,0.5c-2-5.2-4.5-10.1-7.4-14.8
			c-2.9-4.7-6.2-9.2-9.8-13.4c-7.3-8.3-16.4-15.1-26.8-18.9c-5.2-1.9-10.6-3-16.1-3.4c-5.5-0.4-11.1,0-16.5,1
			c-10.9,2-21.3,6.2-31,11.5l0.2-0.2c-1.7,3.2-3.2,6.4-4.5,9.8c-1.4,3.3-2.6,6.7-3.5,10.2c-0.9,3.5-1.7,7-1.8,10.6
			c-0.2,3.5,0.2,7.2,2.1,10.3l-0.3-0.1c3.8-1.2,7.2-3.5,10.1-6.2c2.9-2.7,5.3-6,7.2-9.6C63,79,64.7,70.9,65.2,62.8L65.2,62.8z
			 M65.2,63.3c-0.4,7.9-1.9,15.9-5.5,23c-1.8,3.6-4.2,7-7.2,9.8c-3,2.8-6.4,5.1-10.3,6.4l-0.2,0.1l-0.1-0.2c-2-3.2-2.4-7-2.3-10.6
			c0.1-3.6,0.8-7.2,1.8-10.7c0.9-3.5,2.1-6.9,3.5-10.3c1.3-3.4,2.8-6.7,4.5-9.9l0.1-0.1l0.1-0.1C59.3,55.2,69.8,51,80.8,49
			c5.5-1,11.1-1.4,16.7-1c5.6,0.4,11.1,1.5,16.4,3.5c10.6,3.9,19.8,10.8,27.1,19.2c3.7,4.2,7,8.8,9.8,13.5c2.9,4.8,5.4,9.8,7.4,15
			l0.2,0.5l-0.6-0.1c-4.3-0.5-8.5-1.5-12.6-3.2c-4-1.6-7.8-3.7-11.3-6.2c-3.5-2.5-6.8-5.4-9.8-8.5c-3-3.1-5.7-6.5-8.1-10.1l-0.9-1.4
			l1.2,1.1c1.4,1.4,2.6,3,3.4,4.8c0.8,1.8,1.4,3.7,1.6,5.6c0.2,1.9,0.2,3.9,0,5.9c-0.2,1.9-0.6,3.9-1.2,5.7l-0.3,0.8l-0.1-0.8
			c-0.1-1.8-1-3.4-1.9-4.9c-1-1.5-2.2-2.9-3.4-4.2c-2.5-2.6-5.3-4.9-8.3-6.9l0.3-0.4c2.5,1.8,4.9,3.9,6.7,6.4
			c1.8,2.5,3.2,5.4,3.9,8.4c0.7,3,0.7,6.2,0.3,9.3c-0.5,3.1-1.4,6.1-2.8,8.9l-0.6,1.3l0-1.4c0-1.1-0.5-2.2-1.2-3.2
			c-0.7-1-1.5-1.9-2.3-2.7c-1.7-1.7-3.7-3.1-5.7-4.5c-4-2.7-8.3-5.1-12.7-7.2l0.5-0.7c3.1,4,6.1,7.9,9.1,11.9l0.6,0.7l-0.9-0.1
			c-4.4-0.3-8.7-1.9-12.3-4.4c-1.8-1.2-3.5-2.6-5.1-4.1c-1.6-1.5-3-3.2-4.3-5l0.6-0.2c0.2,2.6,0.7,5.1,1.7,7.5
			c0.5,1.2,1.1,2.3,1.9,3.3c0.8,1,1.8,1.8,2.9,2.3l-0.2,0.6c-3.9-1.3-7.2-4-9.7-7.2c-2.5-3.2-4.4-6.8-6-10.5
			c-1.5-3.7-2.7-7.6-3.7-11.5C66.4,71,65.7,67.1,65.2,63.3z"/>
	</g>
	<g>
		<path class="st0" d="M68.9,30.4c0,0-45.5-2.8-54.4-18.2c0,0,1.7,32.7,28.1,39.6C42.6,51.8,61.7,48,68.9,30.4z"/>
		<path class="st2" d="M39.1,45c5.7-8.6,15.4-6.8,18.3-15.8c6.8,0.9,11.6,1.2,11.6,1.2C61.7,48,42.6,51.8,42.6,51.8
			C22.9,46.6,17,27,15.3,17.5C20.8,28.6,28.8,38.5,39.1,45z"/>
		<g>
			<defs>
				<path id="SVGID_3_" d="M68.9,30.4c0,0-45.5-2.8-54.4-18.2c0,0,1.7,32.7,28.1,39.6C42.6,51.8,61.7,48,68.9,30.4z"/>
			</defs>
			<clipPath id="SVGID_4_">
				<use xlink:href="#SVGID_3_"  style="overflow:visible;"/>
			</clipPath>
			<g class="st9">
				<g>
					<path d="M64.9,30.2c-0.5,2.7-1.5,5.3-2.8,7.7c-1.3,2.4-2.9,4.7-4.6,6.8c-1.8,2.1-3.9,3.9-6.4,5.1c-2.5,1.2-5.3,1.8-8,1.6v-0.1
						c2.7-0.2,5.4-0.9,7.8-2.1c2.4-1.2,4.6-2.9,6.4-4.9c1.9-2,3.3-4.3,4.5-6.8C63,35.3,64,32.8,64.9,30.2L64.9,30.2z"/>
				</g>
				<g>
					<path d="M61.8,30.2c-0.5,2.7-1.5,5.3-2.8,7.7c-1.3,2.4-2.9,4.7-4.6,6.8c-1.8,2.1-3.9,3.9-6.4,5.1c-2.5,1.2-5.3,1.8-8,1.6v-0.1
						c2.7-0.2,5.4-0.9,7.8-2.1c2.4-1.2,4.6-2.9,6.4-4.9c1.9-2,3.3-4.3,4.5-6.8C59.8,35.3,60.9,32.8,61.8,30.2L61.8,30.2z"/>
				</g>
				<g>
					<path d="M58.6,30.2c-0.5,2.7-1.5,5.3-2.8,7.7c-1.3,2.4-2.9,4.7-4.6,6.8c-1.8,2.1-3.9,3.9-6.4,5.1c-2.5,1.2-5.3,1.8-8,1.6v-0.1
						c2.7-0.2,5.4-0.9,7.8-2.1c2.4-1.2,4.6-2.9,6.4-4.9c1.9-2,3.3-4.3,4.5-6.8C56.7,35.3,57.7,32.8,58.6,30.2L58.6,30.2z"/>
				</g>
				<g>
					<path d="M57.1,27.7c-0.5,2.7-1.5,5.3-2.8,7.7c-1.3,2.4-2.9,4.7-4.6,6.8c-1.8,2.1-3.9,3.9-6.4,5.1c-2.5,1.2-5.3,1.8-8,1.6V49
						c2.7-0.2,5.4-0.9,7.8-2.1c2.4-1.2,4.6-2.9,6.4-4.9c1.9-2,3.3-4.3,4.5-6.8C55.1,32.8,56.2,30.3,57.1,27.7L57.1,27.7z"/>
				</g>
				<g>
					<path d="M54,25.8c-0.5,2.7-1.5,5.3-2.8,7.7c-1.3,2.4-2.9,4.7-4.6,6.8c-1.8,2.1-3.9,3.9-6.4,5.1c-2.5,1.2-5.3,1.8-8,1.6v-0.1
						c2.7-0.2,5.4-0.9,7.8-2.1c2.4-1.2,4.6-2.9,6.4-4.9c1.9-2,3.3-4.3,4.5-6.8C52.1,30.9,53.1,28.4,54,25.8L54,25.8z"/>
				</g>
				<g>
					<path d="M50.9,23.3c-0.5,2.7-1.5,5.3-2.8,7.7c-1.3,2.4-2.9,4.7-4.6,6.8c-1.8,2.1-3.9,3.9-6.4,5.1c-2.5,1.2-5.3,1.8-8,1.6v-0.1
						c2.7-0.2,5.4-0.9,7.8-2.1c2.4-1.2,4.6-2.9,6.4-4.9c1.9-2,3.3-4.3,4.5-6.8C48.9,28.4,50,25.9,50.9,23.3L50.9,23.3z"/>
				</g>
				<g>
					<path d="M47.7,21.1c-0.5,2.7-1.5,5.3-2.8,7.7c-1.3,2.4-2.9,4.7-4.6,6.8c-1.8,2.1-3.9,3.9-6.4,5.1c-2.5,1.2-5.3,1.8-8,1.6v-0.1
						c2.7-0.2,5.4-0.9,7.8-2.1c2.4-1.2,4.6-2.9,6.4-4.9c1.9-2,3.3-4.3,4.5-6.8C45.8,26.2,46.8,23.7,47.7,21.1L47.7,21.1z"/>
				</g>
				<g>
					<path d="M43.9,17.1c-0.5,2.7-1.5,5.3-2.8,7.7c-1.3,2.4-2.9,4.7-4.6,6.8c-1.8,2.1-3.9,3.9-6.4,5.1c-2.5,1.2-5.3,1.8-8,1.6v-0.1
						c2.7-0.2,5.4-0.9,7.8-2.1c2.4-1.2,4.6-2.9,6.4-4.9c1.9-2,3.3-4.3,4.5-6.8C42,22.2,43,19.7,43.9,17.1L43.9,17.1z"/>
				</g>
				<g>
					<path d="M40,13.5c-0.5,2.7-1.5,5.3-2.8,7.7c-1.3,2.4-2.9,4.7-4.6,6.8c-1.8,2.1-3.9,3.9-6.4,5.1c-2.5,1.2-5.3,1.8-8,1.6v-0.1
						c2.7-0.2,5.4-0.9,7.8-2.1c2.4-1.2,4.6-2.9,6.4-4.9c1.9-2,3.3-4.3,4.5-6.8C38.1,18.6,39.1,16.1,40,13.5L40,13.5z"/>
				</g>
				<g>
					<path d="M37.9,9.7c-0.5,2.7-1.5,5.3-2.8,7.7c-1.3,2.4-2.9,4.7-4.6,6.8c-1.8,2.1-3.9,3.9-6.4,5.1c-2.5,1.2-5.3,1.8-8,1.6V31
						c2.7-0.2,5.4-0.9,7.8-2.1c2.4-1.2,4.6-2.9,6.4-4.9c1.9-2,3.3-4.3,4.5-6.8C36,14.8,37,12.3,37.9,9.7L37.9,9.7z"/>
				</g>
				<g>
					<path d="M32.2,10.4c-1,2.6-2.4,4.9-4.1,7.1c-1.8,2.1-3.7,4.1-5.8,5.9c-2.1,1.8-4.6,3.2-7.2,3.9c-2.7,0.8-5.5,0.8-8.2,0.2l0,0
						c2.7,0.3,5.5,0.1,8.1-0.7c2.6-0.8,5-2,7.2-3.7c2.2-1.6,4.1-3.7,5.6-5.9C29.4,15,30.9,12.8,32.2,10.4L32.2,10.4z"/>
				</g>
				<g>
					<path d="M29,6.1c-1,2.6-2.4,4.9-4.1,7.1c-1.8,2.1-3.7,4.1-5.8,5.9c-2.1,1.8-4.6,3.2-7.2,3.9c-2.7,0.8-5.5,0.8-8.2,0.2l0,0
						c2.7,0.3,5.5,0.1,8.1-0.7c2.6-0.8,5-2,7.2-3.7c2.2-1.6,4.1-3.7,5.6-5.9C26.2,10.8,27.7,8.5,29,6.1L29,6.1z"/>
				</g>
				<g>
					<path d="M27.7,2.1c-1,2.6-2.4,4.9-4.1,7.1c-1.8,2.1-3.7,4.1-5.8,5.9c-2.1,1.8-4.6,3.2-7.2,3.9c-2.7,0.8-5.5,0.8-8.2,0.2l0,0
						c2.7,0.3,5.5,0.1,8.1-0.7c2.6-0.8,5-2,7.2-3.7c2.2-1.6,4.1-3.7,5.6-5.9C24.8,6.7,26.3,4.4,27.7,2.1L27.7,2.1z"/>
				</g>
			</g>
		</g>
	</g>
	<path class="st15" d="M176,94c3.9-24.2-8.2-48-32.4-60.8C141.5,26.9,122.6,22,99.7,22c-24.3,0-44.1,5.5-44.1,12.3
		c0,0.3,0,0.5,0.1,0.8c-22.1,13.3-33.1,36.2-29,59.2c5.6,31.6,16.5,47.1,51.2,51.2c0,0,0,0,0,0c0,0-14,30.7-19.8,59.8
		c-2.8,14.3,0.8,22.2,9.1,26.6c7,20.6,27,72.9,29.4,5.5c3,0.1,6.1,0.2,9.3,0.3c6.9,0.1,14-0.1,20.8-0.8c1.9,18.5,9.6,67,31.5-9.9
		c7.7-5.8,11.2-14.4,7.3-27c-8.2-26.3-25-49.3-30.5-56.3C162.3,137.6,171.5,122.1,176,94z M101.2,141.5c-42.7,0-55.7-6.9-55.7-18.7
		c0-3.5,1.8-6.4,1.9-10.6c0.1-4.2-2.3-8.9-1.9-13.6c2.4-29.3,23.3-35.1,52.7-35.1c29.4,0,53.2,11.7,53.7,36.7
		c0.1,3.8,0.6,3.3,1.9,11.4c1.3,8.1,1.9,6.8,1.9,11.1C155.6,134.5,143.9,141.5,101.2,141.5z"/>
	<path class="st1" d="M84.4,268.5c5.9,6,11.1,1.2,12.2-31.1c2.4,0.1,4.8,0.2,7.3,0.2c-5.1-1.1-10.1-2.3-15.4-2.3
		C89.7,246.7,91.3,259.5,84.4,268.5z"/>
	<path class="st1" d="M139.1,233.8c-3.8,2.1-8,2.8-12.3,3.5c1.3,12.1,5,36.1,13.2,31.1C135.8,258,135.3,245.6,139.1,233.8z"/>
	<path class="st1" d="M61,31.3c-0.4-0.8-0.5-1.7-0.3-2.7c-3.2,1.7-5,3.6-5,5.7c0,0.3,0,0.5,0.1,0.8c-6.7,4-12.3,8.9-16.8,14.4
		c8.2-7.6,19.9-12.4,31.5-15.1C67.3,34.4,64.2,32.8,61,31.3z"/>
	<path class="st1" d="M132.1,36c9.9-1.6,17.7,1,24.2,5.8c-3.8-3.3-8-6.2-12.8-8.7c-0.4-1.2-1.5-2.4-3.1-3.5
		C140.1,32.8,136.1,35,132.1,36z"/>
	<path class="st1" d="M138.5,151.4c19.7,22.8,20.4,49.8,18,76.8c8.8-5.8,13.2-14.7,9-28.2c-7.4-23.9-21.9-44.9-28.6-53.9
		C136.1,148.1,136.4,150,138.5,151.4z"/>
	<path class="st1" d="M80,148.2c-1-0.3-1.9-0.6-2.9-0.9c-3.1,7-14,33-19,58c-2.7,13.4,0.4,21.2,7.6,25.7
		C54.2,210,74.2,172.4,80,148.2z"/>
	<g>
		<path class="st1" d="M46.4,127.7c-13.8-15.5-20.3-36.8-18.1-58.5c-0.1,0.2-0.1,0.4-0.2,0.7c-2.3,7.8-2.8,16.1-1.3,24.4
			c5,28.4,14.4,43.8,41.4,49.6c-5.1-2.4-9.7-5.3-13.9-8.7C50.1,133.2,47.6,130.7,46.4,127.7z"/>
		<path class="st1" d="M176.2,78c0-0.3,0-0.7,0-1.1c-0.9-11.6,5.1-28.3-23-34.4l-3.1,8.4c0,0,2.1,16.1,12.6,24.3
			c0,0,4.7,4.6,2.2,7.9c-2,2.6,6.6,4.4,10-0.5c-1.5,17.1-8.4,33.5-20.9,46.6c-1.1,2-3,3.8-5.6,5.4c-1.7,1.4-3.4,2.8-5.2,4.1
			c-1.6,1.1-3.2,2.5-4.4,4c24.4-6.6,32.9-22,37.2-48.8C176.8,88.6,176.9,83.2,176.2,78z"/>
	</g>
	<g>
		<path class="st12" d="M149.9,51.5c0,0,4.4,15.6,16,22.2c0,0,5.3,3.8,3.3,7.5c-2,3.6,12.8,3.5,10.2-7.8s0.9-28.8-27.7-30.6"/>
		<path d="M150,51.5c0.8,2.2,1.7,4.3,2.8,6.4c1,2.1,2.2,4.1,3.5,6c1.3,1.9,2.8,3.7,4.4,5.3c1.6,1.6,3.4,3.1,5.4,4.3l0,0l0,0
			c1.3,1,2.4,2.2,3.1,3.6c0.4,0.7,0.6,1.5,0.6,2.3c0,0.4-0.1,0.8-0.2,1.2c-0.1,0.4-0.4,0.8-0.5,1.1c-0.2,0.7,0.6,1.2,1.3,1.3
			c0.7,0.2,1.5,0.2,2.3,0.1c1.5-0.2,3-0.8,4.2-1.7c1.2-1,2-2.3,2.3-3.8c0.3-1.5,0.1-3-0.3-4.5c-0.7-3.1-1-6.2-1.5-9.3
			c-0.5-3.1-1.2-6.1-2.5-8.8c-1.3-2.8-3.3-5.1-5.8-6.9c-2.5-1.8-5.4-2.9-8.4-3.8c-3-0.8-6.1-1.3-9.2-1.6l0-0.1
			c3.1,0.1,6.3,0.4,9.3,1.1c3.1,0.7,6.1,1.8,8.7,3.6c2.7,1.8,4.8,4.3,6.2,7.2c1.4,2.9,2,6,2.5,9.1c0.5,3.1,0.7,6.2,1.3,9.3
			c0.3,1.5,0.5,3.2,0.1,4.8c-0.4,1.6-1.3,3-2.6,4c-1.3,1-2.8,1.5-4.4,1.7c-0.8,0.1-1.6,0.1-2.4-0.1c-0.4-0.1-0.8-0.2-1.1-0.5
			c-0.3-0.3-0.6-0.8-0.5-1.2c0.1-0.5,0.4-0.7,0.4-1.1c0.1-0.4,0.2-0.7,0.1-1.1c0-0.7-0.3-1.5-0.7-2.1c-0.8-1.3-1.9-2.4-3.1-3.3l0,0
			c-2.1-1.1-4-2.6-5.7-4.3c-1.7-1.7-3.1-3.5-4.4-5.5c-1.3-2-2.4-4-3.4-6.2C151.3,56,150.5,53.8,150,51.5L150,51.5z"/>
	</g>
	<path class="st1" d="M49.7,50.3c0,0-0.9,16.2-10.7,25.2c0,0-4.4,4.9-1.6,8c2.8,3.1-11.7,6.3-11.7-5.4c0-11.7-7.2-27.9,20.3-36"/>
	<g>
		<path class="st12" d="M49.7,51.6c0,0-4.4,15.6-16,22.2c0,0-5.3,3.8-3.3,7.5c2,3.6-12.8,3.5-10.2-7.8c2.6-11.4-0.9-28.8,27.7-30.6"
			/>
		<path d="M49.8,51.6c-0.6,2.3-1.4,4.5-2.4,6.6c-1,2.1-2.1,4.2-3.4,6.2c-1.3,2-2.8,3.8-4.4,5.5c-1.7,1.6-3.6,3.1-5.7,4.3l0,0
			c-1.2,0.9-2.3,2-3.1,3.3c-0.4,0.6-0.6,1.4-0.7,2.1c0,0.4,0,0.7,0.1,1.1c0.1,0.4,0.3,0.6,0.4,1.1c0.1,0.4-0.1,1-0.5,1.2
			c-0.3,0.3-0.7,0.4-1.1,0.5c-0.8,0.2-1.6,0.2-2.4,0.1c-1.6-0.2-3.1-0.7-4.4-1.7c-1.3-1-2.2-2.4-2.6-4c-0.4-1.6-0.3-3.2,0.1-4.8
			c0.6-3,0.8-6.1,1.3-9.3c0.5-3.1,1.1-6.3,2.5-9.1c1.4-2.9,3.5-5.4,6.2-7.2c2.7-1.8,5.7-2.9,8.7-3.6c3.1-0.7,6.2-1,9.3-1.1l0,0.1
			c-3.1,0.3-6.2,0.8-9.2,1.6c-3,0.8-5.9,2-8.4,3.8c-2.5,1.8-4.5,4.1-5.8,6.9c-1.3,2.8-2,5.8-2.5,8.8c-0.5,3.1-0.8,6.2-1.5,9.3
			c-0.4,1.5-0.6,3-0.3,4.5c0.3,1.5,1.1,2.8,2.3,3.8c1.2,0.9,2.7,1.5,4.2,1.7c0.8,0.1,1.5,0.1,2.3-0.1c0.7-0.2,1.5-0.7,1.3-1.3
			c-0.1-0.3-0.3-0.7-0.5-1.1c-0.1-0.4-0.2-0.8-0.2-1.2c0-0.8,0.3-1.6,0.6-2.3c0.8-1.4,1.9-2.6,3.1-3.6l0,0l0,0
			c2-1.2,3.8-2.6,5.4-4.3c1.6-1.6,3.1-3.4,4.4-5.3c1.3-1.9,2.5-3.9,3.5-6C47.9,55.9,48.9,53.8,49.8,51.6L49.8,51.6z"/>
	</g>
	<g>
		<path class="st4" d="M137.8,52.3c0,3.1-2.5,5.7-5.7,5.7c-3.1,0-5.7-2.5-5.7-5.7c0-3.1,2.5-5.7,5.7-5.7
			C135.3,46.6,137.8,49.2,137.8,52.3z"/>
		<path d="M136.4,52.3c0,3.1-2.5,5.7-5.7,5.7c-3.1,0-5.7-2.5-5.7-5.7c0-3.1,2.5-5.7,5.7-5.7C133.8,46.6,136.4,49.2,136.4,52.3z"/>
		<path class="st13" d="M128.9,51.3c0,0.5-0.4,1-0.9,1c-0.5,0-1-0.4-1-1c0-0.5,0.4-1,1-1C128.4,50.4,128.9,50.8,128.9,51.3z"/>
	</g>
	<g>
		<circle class="st4" cx="70.4" cy="52.3" r="5.7"/>
		<path d="M74.6,52.3c0,3.1-2.5,5.7-5.7,5.7c-3.1,0-5.7-2.5-5.7-5.7c0-3.1,2.5-5.7,5.7-5.7C72.1,46.6,74.6,49.2,74.6,52.3z"/>
		<path class="st13" d="M67.1,51.3c0,0.5-0.4,1-0.9,1c-0.5,0-1-0.4-1-1c0-0.5,0.4-1,1-1C66.7,50.4,67.1,50.8,67.1,51.3z"/>
	</g>
	<path class="st10" d="M50.2,60.5c-0.1,2,4.7,3.8,10.6,4c5.9,0.3,10.8-1.1,10.9-3.1c0.1-2-4.7-3.8-10.6-4
		C55.2,57.2,50.3,58.6,50.2,60.5z"/>
	<path class="st13" d="M50.3,58.1c0,0.6,1.5,1.2,3.4,1.3c1.9,0.1,3.5-0.4,3.5-1c0-0.6-1.5-1.2-3.4-1.3C51.9,57,50.3,57.5,50.3,58.1z
		"/>
	<path class="st10" d="M148.5,60.4c0.1,2-4.7,3.8-10.7,4.1c-6,0.3-10.9-1.1-11-3.1c-0.1-2,4.7-3.8,10.7-4.1
		C143.5,57,148.5,58.4,148.5,60.4z"/>
	<path class="st13" d="M148.4,57.9c0,0.6-1.5,1.2-3.4,1.3c-1.9,0.1-3.5-0.4-3.5-1c0-0.6,1.5-1.2,3.4-1.3
		C146.8,56.8,148.4,57.3,148.4,57.9z"/>
	<path class="st0" d="M149.7,70.4c0,10.1-22.1,13.8-49.4,13.8c-27.3,0-49.4-3.7-49.4-13.8c0-10.1,22.1-18.3,49.4-18.3
		C127.6,52.1,149.7,60.3,149.7,70.4z"/>
	<path class="st2" d="M51,69.6c0,0.3-0.1,0.6-0.1,0.8c0,10.1,22.1,13.8,49.4,13.8c27.3,0,49.4-3.7,49.4-13.8c0-1-0.2-2-0.7-3
		C122.5,86.2,80.9,83,51,69.6z"/>
	<path d="M77.8,65c0,2.4-0.8,4.3-1.8,4.3c-1,0-1.8-1.9-1.8-4.3c0-2.4,0.8-4.3,1.8-4.3C77,60.7,77.8,62.6,77.8,65z"/>
	<ellipse cx="122.1" cy="65" rx="2" ry="4.7"/>
	<g>
		<path class="st14" d="M121.5,64c0.4,1.5,0.6,3.1,0.6,4.7c0,11.8-10.3,21.3-22.9,21.3c-12.7,0-22.9-9.5-22.9-21.3
			c0-1.4,0.2-2.8,0.4-4.1l-1.5,0c-0.5,1.8-0.8,3.7-0.8,5.6c0,12.7,11.1,23,24.8,23c13.7,0,24.8-10.3,24.8-23c0-2.2-0.4-4.3-1-6.3
			L121.5,64z"/>
		<path d="M121.6,64.1c0.8,3.1,0.9,6.5,0.1,9.7c-0.8,3.2-2.4,6.2-4.5,8.7c-4.4,5-11,8-17.6,8c-6.7,0.1-13.3-2.7-17.7-7.6
			c-4.5-4.8-6.6-11.8-5.3-18.3l0.2,0.3l-1.5,0l0.2-0.2c-0.9,3.5-0.9,7.2,0,10.6c0.9,3.5,2.7,6.7,5.1,9.3c2.4,2.7,5.4,4.7,8.7,6.1
			c3.3,1.4,6.9,2,10.4,2c7.1-0.1,14.2-3.2,18.9-8.6c2.3-2.7,4-6,4.8-9.5c0.8-3.5,0.7-7.2-0.3-10.7l0.1,0.1L121.6,64.1z M121.5,64
			l1.5-0.1l0.1,0l0,0.1c1.1,3.5,1.4,7.2,0.7,10.9c-0.7,3.6-2.4,7-4.7,9.9c-2.3,2.9-5.3,5.2-8.7,6.7c-3.4,1.6-7.1,2.4-10.8,2.4
			c-7.4,0.2-14.9-3-19.8-8.6c-2.4-2.8-4.2-6.2-5.1-9.8C73.9,72,74,68.2,75,64.6l0-0.2h0.2l1.5,0H77l-0.1,0.3
			c-0.7,3.2-0.6,6.5,0.3,9.6c0.9,3.1,2.6,6,4.8,8.3c2.2,2.3,5,4.1,8,5.3c3,1.2,6.2,1.7,9.4,1.7c3.2-0.1,6.4-0.7,9.3-2
			c2.9-1.3,5.6-3.2,7.8-5.6C121,77.3,123,70.4,121.5,64L121.5,64z"/>
	</g>
	<g>
		<path class="st11" d="M114.6,124c0,5.5-7.3,11.5-16.2,11.5c-8.9,0-16.2-6-16.2-11.5c0-5.5,7.3-6.7,16.2-6.7
			C107.4,117.3,114.6,118.6,114.6,124z"/>
		<g>
			<path d="M114.7,124c0,1.7-0.7,3.4-1.7,4.8c-1,1.4-2.2,2.7-3.6,3.7c-2.8,2.1-6.3,3.2-9.8,3.3c-3.5,0.1-7-0.7-10-2.3
				c-1.5-0.8-3-1.8-4.2-2.9c-1.2-1.2-2.4-2.6-3-4.2c-0.3-0.8-0.5-1.7-0.5-2.6c0-0.9,0.2-1.8,0.7-2.6c1-1.6,2.7-2.5,4.4-3
				c3.4-1.1,6.8-1.3,10.3-1.3c3.4,0,6.9,0.1,10.3,0.9c1.7,0.4,3.4,0.9,4.8,2c0.7,0.5,1.3,1.1,1.8,1.9
				C114.5,122.3,114.7,123.1,114.7,124z M114.6,124c0-0.8-0.2-1.7-0.6-2.4c-0.4-0.7-1.1-1.3-1.8-1.7c-1.4-0.9-3.1-1.3-4.8-1.5
				c-3.3-0.5-6.7-0.5-10.1-0.5c-1.7,0-3.4,0.1-5.1,0.3c-1.7,0.2-3.3,0.4-4.9,0.9c-1.6,0.5-3.1,1.3-4,2.6c-0.9,1.3-0.9,3.1-0.4,4.6
				c0.5,1.6,1.5,3,2.7,4.2c1.2,1.2,2.6,2.2,4.1,2.9c3,1.5,6.5,2,9.8,1.7c3.3-0.2,6.6-1.3,9.5-3c1.4-0.9,2.7-2,3.8-3.3
				C113.8,127.3,114.6,125.7,114.6,124z"/>
		</g>
	</g>
	<g>
		<path class="st13" d="M114.6,124.4c0-0.1,0-0.2,0-0.3c0-5.5-7.3-6.7-16.2-6.7c-8.6,0-15.5,1.2-16.1,6
			C93,125,103.8,125,114.6,124.4z"/>
		<g>
			<path d="M114.6,124.4c0.1-1.6-0.6-3.2-1.8-4.2c-1.2-1-2.8-1.5-4.3-1.9c-3.1-0.7-6.3-0.8-9.5-0.8c-3.2,0-6.4,0.1-9.5,0.7
				c-1.5,0.3-3.1,0.8-4.4,1.5c-1.3,0.8-2.4,2.1-2.5,3.6l-0.2-0.3c5.3,0.9,10.7,1.3,16.1,1.5C103.8,124.7,109.2,124.6,114.6,124.4z
				 M114.6,124.4c-5.4,0.4-10.8,0.6-16.2,0.5c-5.4-0.1-10.8-0.5-16.2-1.3l-0.2,0l0-0.2c0.1-0.8,0.4-1.6,0.9-2.3
				c0.5-0.7,1.2-1.2,1.9-1.6c1.4-0.8,3-1.3,4.6-1.6c3.2-0.6,6.4-0.7,9.6-0.7c3.2,0.1,6.4,0.2,9.5,1c1.5,0.4,3.1,1,4.3,2
				C114.1,121.1,114.8,122.8,114.6,124.4z"/>
		</g>
	</g>
	<path class="st10" d="M145.9,123.1c0.1,1.7-4.1,3.3-9.3,3.5c-5.2,0.2-9.4-1-9.5-2.7c-0.1-1.7,4.1-3.3,9.3-3.5
		C141.6,120.1,145.8,121.3,145.9,123.1z"/>
	<path class="st13" d="M145.8,120.9c0,0.6-1.3,1.1-3,1.1c-1.7,0.1-3-0.3-3-0.9c0-0.5,1.3-1.1,3-1.1
		C144.4,120,145.8,120.4,145.8,120.9z"/>
	<path class="st10" d="M51.9,123.2c-0.1,1.7,4.1,3.3,9.3,3.5c5.2,0.2,9.4-1,9.5-2.7c0.1-1.7-4.1-3.3-9.3-3.5
		C56.2,120.3,51.9,121.5,51.9,123.2z"/>
	<path class="st13" d="M51.9,121.1c0,0.6,1.3,1.1,3,1.1c1.7,0.1,3-0.3,3.1-0.9c0-0.6-1.3-1.1-3-1.1C53.3,120.2,52,120.5,51.9,121.1z
		"/>
	<path class="st1" d="M84.5,146.1c0,0,32.7-0.1,39.5-2.1C124,143.9,102,153.1,84.5,146.1z"/>
	<path class="st1" d="M78.4,149.1c0,0-29.3,21,23.4,74.1c0,0,9.2,3.1-8.8-45.1"/>
	<g>
		<path class="st12" d="M78.9,145.3c0,0-32,19.9,19.3,78.8c0,0,9.3,3.8-6.1-47.6"/>
		<path d="M78.9,145.3c-3,2.2-5.3,5.3-6.9,8.7c-1.6,3.4-2.4,7.1-2.6,10.8c-0.4,7.5,1.6,14.8,4.5,21.7c2.9,6.9,6.7,13.4,10.9,19.5
			c4.2,6.2,8.9,12.1,13.8,17.7l-0.2-0.1c0.3,0.1,0.7,0,1-0.3c0.3-0.3,0.5-0.7,0.7-1.2c0.3-0.9,0.4-1.9,0.5-3c0.1-2,0-4.1-0.2-6.2
			c-0.4-4.1-1.2-8.2-2-12.3c-1.8-8.2-3.9-16.2-6.1-24.3c2.5,8,4.9,16,6.7,24.1c0.9,4.1,1.8,8.2,2.2,12.4c0.2,2.1,0.4,4.2,0.3,6.3
			c-0.1,1.1-0.2,2.1-0.5,3.2c-0.2,0.5-0.4,1.1-0.9,1.5c-0.5,0.4-1.2,0.7-1.9,0.5l-0.1,0l-0.1-0.1c-4.9-5.7-9.7-11.5-13.9-17.8
			c-4.2-6.2-8-12.8-10.9-19.8c-1.4-3.5-2.6-7.1-3.4-10.8c-0.8-3.7-1.1-7.5-0.9-11.3c0.2-3.8,1.2-7.5,2.9-10.9
			C73.4,150.5,75.8,147.5,78.9,145.3z"/>
	</g>
	<path class="st1" d="M136.8,149.5c0,0,27.5,21.8-26.2,70.8c0,0-9,2.5,10.7-43.4"/>
	<g>
		<path class="st12" d="M134.3,143.1c0,0,31.9,19.9-19.4,78.7c0,0-9.3,3.8,6.1-47.6"/>
		<path d="M134.3,143.1c3.1,2.1,5.5,5.2,7.2,8.6c1.7,3.4,2.6,7.1,2.9,10.9c0.3,3.8-0.1,7.6-0.9,11.3c-0.8,3.7-1.9,7.3-3.4,10.8
			c-2.9,7-6.7,13.5-10.9,19.8c-4.3,6.2-9,12.1-13.9,17.7l-0.1,0.1l-0.1,0c-0.7,0.3-1.5,0-1.9-0.5c-0.5-0.4-0.7-1-0.9-1.5
			c-0.4-1.1-0.5-2.1-0.5-3.2c-0.1-2.1,0-4.2,0.3-6.3c0.5-4.2,1.3-8.3,2.3-12.4c1.9-8.2,4.2-16.2,6.8-24.1c-2.3,8-4.4,16.1-6.2,24.3
			c-0.9,4.1-1.6,8.2-2.1,12.3c-0.2,2.1-0.3,4.1-0.2,6.2c0.1,1,0.2,2,0.5,3c0.2,0.5,0.4,0.9,0.7,1.2c0.3,0.3,0.7,0.4,1,0.3l-0.2,0.1
			c4.9-5.7,9.6-11.5,13.8-17.7c4.2-6.2,8.1-12.6,10.9-19.5c2.8-6.9,4.9-14.2,4.5-21.7c-0.2-3.7-1-7.4-2.6-10.8
			C139.6,148.4,137.3,145.3,134.3,143.1z"/>
	</g>
	<g>
		<path d="M122.3,117.1c1-1.1,2.3-2.1,3.6-2.9c1.3-0.8,2.8-1.4,4.4-1.7c1.5-0.3,3.2-0.5,4.8-0.1c1.6,0.5,3,1.3,4,2.5l-0.1,0.2
			c-1.6-0.3-2.9-0.6-4.3-0.7c-1.4-0.1-2.7-0.4-4.1-0.3c-1.4,0.1-2.8,0.5-4.2,1c-1.4,0.5-2.7,1.2-3.9,2.1L122.3,117.1z"/>
	</g>
	<g>
		<path d="M75.3,117.2c-1.2-0.9-2.5-1.6-3.9-2.1c-1.4-0.5-2.8-0.9-4.2-1c-1.4-0.1-2.8,0.2-4.1,0.3c-1.4,0.2-2.8,0.5-4.3,0.7
			l-0.1-0.2c1-1.2,2.5-2.1,4-2.5c1.6-0.5,3.3-0.3,4.8,0.1c1.6,0.3,3,0.9,4.4,1.7c1.3,0.8,2.6,1.7,3.6,2.9L75.3,117.2z"/>
	</g>
</g>
</svg>
