<?xml version="1.0" encoding="utf-8"?>
<!-- Generator: Adobe Illustrator 15.1.0, SVG Export Plug-In . SVG Version: 6.00 Build 0)  -->
<!DOCTYPE svg PUBLIC "-//W3C//DTD SVG 1.1//EN" "http://www.w3.org/Graphics/SVG/1.1/DTD/svg11.dtd">
<svg version="1.1" id="place" xmlns="http://www.w3.org/2000/svg" xmlns:xlink="http://www.w3.org/1999/xlink" x="0px" y="0px"
	 width="615px" height="411px" viewBox="0 0 615 411" style="enable-background:new 0 0 615 411;" xml:space="preserve">
<style type="text/css">
<![CDATA[
	.st0{fill:#B28A66;}
	.st1{opacity:0.14;}
	.st2{opacity:0.75;}
	.st3{enable-background:new    ;}
	.st4{opacity:0.22;enable-background:new    ;}
	.st5{fill:#FFF6E1;}
	.st6{fill:#6D583C;}
]]>
</style>
<g>
</g>
<g>
</g>
<g>
	<polygon class="st5" points="412.5,155.3 412.5,30.9 225.4,30.9 225.4,155.3 12.8,155.3 12.8,297.3 602.7,297.3 602.7,155.3 	"/>
	<path d="M412.4,155.4l-0.5-124.5l0.6,0.6l-187,0.3l0.9-0.9v124.4v0.8h-0.8l-212.7-0.5l0.3-0.3v35.5v35.5l0.1,71l-0.5-0.5l295-0.5
		l147.5-0.1l147.5,0.1l-1,1l0.3-142l0.7,0.7l-95.1-0.2L412.4,155.4z M412.6,155.2l95-0.4l95.1-0.2h0.7v0.7l0.3,142v1h-1l-147.5,0.1
		l-147.5-0.1l-295-0.5h-0.5v-0.5l0.1-71v-35.5v-35.5V155h0.3l212.7-0.5l-0.8,0.8V30.9V30h0.9l187,0.3h0.6v0.6L412.6,155.2z"/>
</g>
<g>
</g>
<g>
	<polygon class="st5" points="225.3,155.3 12.8,155.3 58.8,126.7 225.3,126.7 	"/>
	<g>
		<path d="M225.3,155.4c-8.8,0.2-17.8,0.3-26.6,0.4l-26.6,0.2l-26.6,0.1h-13.3H119c-8.8,0-17.8-0.1-26.6-0.2l-26.6-0.3l-26.6-0.1
			l-26.6,0.1h-1.4l1.2-0.8l46-28.8l0.2-0.1h0.2c13.9-0.1,27.7-0.1,41.6-0.2c13.9-0.1,27.7,0,41.6,0h20.8l20.8,0.1
			c13.9,0.1,27.7,0.2,41.6,0.4h0.5v0.5L225.3,155.4L225.3,155.4z M225.2,155.2l-0.4-28.4l0.5,0.5c-13.9,0.1-27.7,0.3-41.6,0.4
			l-20.8,0.1h-20.8c-13.9,0-27.7,0.1-41.6,0c-13.9-0.1-27.7-0.1-41.6-0.2l0.4-0.1l-46.4,28.1l-0.2-0.7l26.6,0.1l26.6-0.1l26.6-0.3
			c8.8-0.1,17.8-0.2,26.6-0.2h13.3h13.3l26.6,0.1l26.6,0.2C207.6,154.9,216.4,155,225.2,155.2z"/>
	</g>
</g>
<g>
	<polygon class="st5" points="412.7,155.3 602.7,155.3 571.4,126.7 412.7,126.7 	"/>
	<g>
		<path d="M412.8,155.2c7.9-0.2,15.8-0.3,23.7-0.4l23.8-0.2l23.8-0.1l11.9-0.1h11.9h11.9l11.9,0.1l23.8,0.3l23.8,0.1l23.8-0.1
			l-0.3,0.7L571,127.3l0.5,0.2l-39.7,0.2l-19.9,0.1h-19.9c-13.2,0-26.5,0-39.7-0.1l-19.9-0.1l-19.9-0.2l0.5-0.5
			C413.1,136.2,412.9,145.7,412.8,155.2z M412.6,155.3c-0.1-9.5-0.3-19-0.4-28.5v-0.5h0.5l19.9-0.2l19.9-0.1
			c13.2-0.1,26.5-0.1,39.7-0.1h19.9l19.9,0.1h39.6h0.3l0.2,0.2L603,155l0.7,0.7h-1l-23.8-0.1l-23.8,0.1l-23.8,0.3l-11.9,0.1h-11.9
			h-11.9l-11.9-0.1l-23.8-0.1l-23.8-0.2C428.5,155.7,420.6,155.6,412.6,155.3L412.6,155.3L412.6,155.3z"/>
	</g>
</g>
<g class="st1">
	<path d="M220.7,126.7H60L47.5,134h167.4c-6.1,6.7-15.7,15.4-23.7,20.6c-0.3,0.2-0.6,0.5-1,0.7H227v-18.9v-9.6L220.7,126.7
		L220.7,126.7z"/>
	<g>
		<path d="M218.1,126.8l-19.8,0.1c-6.6,0-13.1,0.2-19.8,0.2c-13.2,0.2-26.4,0.4-39.5,0.4c-6.6,0.1-13.1,0-19.8,0
			c-6.6,0-13.1,0-19.8-0.1c-13.1-0.1-26.4-0.3-39.5-0.4h0.2l-12.4,7.2l-0.2-0.6c13.7,0,27.5,0,41.3-0.2l41.3-0.3l41.3-0.2
			c13.7-0.1,27.5,0,41.3,0h2.3l-1.5,1.7c-1.8,2-3.7,4-5.7,5.9c-1.9,1.9-3.9,3.8-5.9,5.5c-2,1.8-4.1,3.5-6.2,5.2
			c-1.1,0.8-2.2,1.6-3.3,2.4l-1.6,1.2c-0.3,0.2-0.6,0.4-0.8,0.5l-0.8,0.6l-0.5-1.5l18.1,0.2l18.1,0.3l-0.4,0.4
			c0-4.8,0.1-9.5,0.2-14.3l0.1-14.3l0.1,0.1H218.1z M218.1,126.6h6.3h0.1v0.1l0.1,14.3c0,4.8,0.1,9.5,0.2,14.3v0.4h-0.4l-18.1,0.3
			l-18.1,0.2h-2.5l2-1.6l0.8-0.6c0.4-0.3,0.6-0.4,0.9-0.6l1.6-1.2c1.1-0.8,2.1-1.6,3.2-2.4c2.1-1.7,4.1-3.4,6.1-5.2
			c3.9-3.6,7.9-7.4,11.4-11.3l0.7,1.7c-13.7,0-27.5,0.1-41.3,0l-41.3-0.2l-41.3-0.3c-13.7-0.1-27.5-0.2-41.3-0.2h-1.2l1-0.6
			l12.3-7.3h0.1h0.1c13.1-0.1,26.4-0.3,39.5-0.4c6.6-0.1,13.1-0.1,19.8-0.1c6.6,0,13.1,0,19.8,0c13.1,0,26.4,0.2,39.5,0.4
			c6.6,0.1,13.1,0.2,19.8,0.2L218.1,126.6z"/>
	</g>
	<g class="st3">
		<path d="M230.5,178.4c-0.9-7.8-1.6-15.4-2.1-23.1H13v24.7c4.7-1.1,9.6-1.9,14.7-2.4C95.2,172.8,164.5,195.8,230.5,178.4z"/>
		<path d="M230.4,178.3c-1-7.6-1.8-15.3-2.4-23l0.5,0.4c-18,0.2-35.9,0.3-53.9,0.4c-18,0.1-35.9,0.1-53.9-0.1s-35.9-0.4-53.9-0.4
			c-18-0.1-35.9,0-53.9,0.2l0.5-0.5l0.2,24.7l-0.9-0.7c4.5-1.1,9-1.9,13.5-2.4c4.6-0.4,9.1-0.6,13.7-0.8c9.1-0.2,18.3-0.1,27.4,0.4
			c18.2,0.8,36.4,2.8,54.5,4.5c18.1,1.7,36.3,3.3,54.4,3.2c9.1,0,18.2-0.4,27.2-1.3C212.6,182.1,221.5,180.6,230.4,178.3z
			 M230.5,178.6c-8.8,2.4-17.8,4.2-26.8,5.4c-9.1,1.1-18.2,1.7-27.3,1.9c-9.1,0.1-18.3-0.1-27.4-0.6c-9.1-0.5-18.2-1.2-27.3-2.1
			c-18.1-1.7-36.3-3.6-54.4-4.6c-9.1-0.5-18.2-0.7-27.2-0.5c-4.5,0.1-9.1,0.2-13.6,0.6s-9,1.1-13.4,2.1l-0.9,0.2v-0.9l0.2-24.7v-0.5
			h0.5c18,0.2,35.9,0.3,53.9,0.2c18,0,35.9-0.3,53.9-0.4c18-0.2,35.9-0.2,53.9-0.1c18,0,35.9,0.2,53.9,0.4h0.4v0.4
			c0.3,7.7,1,15.4,1.7,23.1L230.5,178.6L230.5,178.6z"/>
	</g>
	<path class="st3" d="M412.7,155.4V37.9h0.2v-6.9h-0.2h-17.1h-170v6.9h169.9c-0.6,42.9-0.9,85.6,0.4,128.7c33.3,2.4,65.8,4,99.1,7.1
		c23.8,3.2,46.8,1.6,70.6,1.6c-0.8,28.5-15.9,53.9-32.5,77.7c-8.7,12.7-23,15.9-38.1,19c-39.6,8.7-76.1,15.9-115.8,16.7
		c-5.5,0-10.3,2.4-15.9,3.2c-17.6,2-35.3,3.9-53,5.6h292.5v-142L412.7,155.4L412.7,155.4z"/>
</g>
<g>
	<polygon class="st5" points="412.7,30.9 225.4,30.9 261.9,7.5 377,7.5 	"/>
	<g>
		<path d="M412.7,31c-15.6,0.4-31.2,0.5-46.8,0.7c-15.6,0.1-31.2,0.2-46.8,0.1l-46.8-0.5c-7.8,0-15.6-0.1-23.4,0
			c-7.8,0-15.6,0.1-23.4,0.2h-1.6l1.4-0.9l18.1-11.9l18.1-11.8l0.2-0.1h0.3l28.8-0.1c9.6-0.1,19.2-0.1,28.8,0c9.6,0,19.2,0,28.8,0.1
			H377h0.2l0.2,0.1l17.7,11.9L413,31H412.7z M412.3,30.8l-17.7-11.2l-18-11.5l0.4,0.1l-28.8,0.2c-9.6,0.1-19.2,0.1-28.8,0.1
			c-9.6,0-19.2,0-28.8,0l-28.8-0.1l0.5-0.1L244,19.8l-18.4,11.5l-0.3-0.9c7.8,0.1,15.6,0.1,23.4,0.2c7.8,0.1,15.6,0,23.4,0l46.8-0.5
			c15.6-0.1,31.2,0,46.8,0.1C381.4,30.3,396.8,30.4,412.3,30.8z"/>
	</g>
</g>
<g class="st1">
	<path d="M373.5,10.3c6.6,9,16.2,15.1,26.3,20.6h12.9L377,7.5H261.9l-36.5,23.4h14.9c8-7.7,17.1-15.4,26.1-17.4
		C302.2,7.1,337.9,13.4,373.5,10.3z"/>
	<g>
		<path d="M373.6,10.2c3.4,4.5,7.6,8.2,12.1,11.5c4.6,3.2,9.4,6,14.4,8.7l-0.3-0.1l12.9-0.1l-0.4,1.4L394.4,20l-8.9-5.8l-8.9-5.9
			l0.5,0.1l-14.4-0.1l-14.4-0.2c-9.6-0.1-19.2-0.3-28.8-0.3l-14.4-0.1h-14.4c-9.6,0-19.2,0.2-28.8,0.2l0.3-0.1l-18.1,11.9
			l-18.2,11.8l-0.5-1.7l14.9-0.1l-0.7,0.3c4.2-4.1,8.5-8,13.3-11.4c2.4-1.7,5-3.2,7.7-4.4c1.4-0.6,2.8-1.1,4.2-1.6
			c0.4-0.1,0.7-0.2,1.1-0.3l0.3-0.1l0.3-0.1L267,12l2.2-0.4c11.5-1.8,23.2-2.4,34.8-2.4c11.6,0,23.2,0.5,34.8,0.9
			C350.4,10.8,362,11,373.6,10.2L373.6,10.2L373.6,10.2z M373.5,10.4c-11.5,1.2-23.1,1.5-34.7,1.4c-11.6-0.1-23.2-0.5-34.7-0.3
			c-11.5,0.2-23.1,0.7-34.5,2.6c-5.7,0.6-10.7,3.3-15.4,6.5c-4.7,3.2-9,7.1-13.1,11.1l-0.3,0.3h-0.4l-14.9-0.1h-3.2l2.7-1.7
			l18.3-11.6L261.6,7l0.1-0.1h0.2c9.6,0.1,19.2,0.2,28.8,0.2h14.4L319.5,7c9.6,0,19.2-0.2,28.8-0.3l14.4-0.2L377,6.7h0.3l0.2,0.1
			l8.9,5.8l8.9,5.9l17.8,11.8l2.1,1.4h-2.5l-12.9-0.1h-0.2l-0.1-0.1c-4.9-2.8-9.8-5.6-14.3-9.1C380.8,18.9,376.7,15,373.5,10.4z"/>
	</g>
</g>
<g class="st1">
	<path d="M577.7,132.4l-6.6-5.6H412.6v1.8v7.8v18.9h45.6c-13.5-5.9-22.1-16.1-35.1-22.9H577.7z"/>
	<g>
		<path d="M577.4,132.3c-2.2-1.7-4.3-3.5-6.5-5.3l0.2,0.1c-6.6,0.1-13.2,0.2-19.8,0.2l-19.8,0.2l-39.6,0.1l-19.8-0.1l-19.8-0.2
			c-13.2-0.1-26.4-0.3-39.6-0.3l0.3-0.3c0,4.8,0,9.5,0,14.3v14.3l-0.4-0.4l22.8-0.2l22.8-0.2l-0.3,1.5c-3.3-1.4-6.4-3.1-9.4-5
			c-3-1.9-5.8-4-8.6-6.1c-5.6-4.2-11.1-8.5-17.3-11.6l-3.6-1.9h4.1c12.9-0.1,25.7,0,38.7,0s25.7,0,38.7,0.1l38.7,0.3
			C551.9,131.9,564.6,132.1,577.4,132.3z M577.7,132.5c-12.9,0.2-25.7,0.4-38.7,0.5l-38.7,0.3c-12.9,0.1-25.7,0.1-38.7,0.1
			s-25.7,0.1-38.7,0l0.5-1.9c6.3,3.3,11.9,7.7,17.5,11.9c2.8,2.1,5.5,4.2,8.5,6.1c2.9,1.9,5.9,3.6,9.1,5l3.5,1.6h-3.8l-22.8-0.2
			l-22.8-0.2h-0.4v-0.4V141c0-4.8,0-9.5,0-14.3v-0.3h0.3c13.2,0,26.4-0.2,39.6-0.3l19.8-0.2l19.8-0.1l39.6,0.1l19.8,0.2
			c6.6,0.1,13.2,0.1,19.8,0.2h0.1l0.1,0.1c2.2,1.9,4.3,3.9,6.5,5.8l0.2,0.2L577.7,132.5z"/>
	</g>
</g>
<g>
	<g>
		<g>
			<g>
				<g>
					<path class="st0" d="M330.3,57.5v69.3h-19.1V81.4c-3.1,2.4-6.1,4.3-9,5.7c-2.9,1.5-6.5,2.8-10.9,4.2V75.7
						c6.4-2.1,11.4-4.6,15-7.5c3.6-2.9,6.3-6.5,8.4-10.8h15.6V57.5z"/>
					<path class="st6" d="M330.5,57.5c0,5.8,0.2,11.5,0.5,17.3c0.3,5.8,0.7,11.6,0.9,17.3c0.2,5.8,0.2,11.5,0.1,17.3
						c-0.1,5.8-0.4,11.6-0.7,17.3l0,1.1l-1,0c-3.2-0.1-6.4-0.3-9.5-0.3c-1.6-0.1-3.2-0.1-4.8-0.1c-1.6,0-3.2,0-4.8,0l-0.6,0l0-0.6
						c0-3.8-0.1-7.6-0.2-11.4l-0.4-11.4c-0.1-3.8-0.3-7.6-0.4-11.4c-0.1-3.8-0.2-7.6-0.2-11.4l3,1.5c-1.5,1.2-3,2.3-4.7,3.4
						c-0.8,0.5-1.6,1-2.5,1.5c-0.4,0.2-0.8,0.5-1.3,0.7l-1.2,0.6c-1.8,0.9-3.5,1.7-5.3,2.3c-1.8,0.7-3.6,1.3-5.4,1.9l-2.8,0.9l0-2.9
						c0-2.6,0-5.2,0-7.8l0.1-7.8l0-1.5l1.4-0.4c2.4-0.8,4.7-1.6,7-2.5c2.3-1,4.5-2,6.5-3.4c2-1.3,3.9-2.9,5.6-4.7
						c1.7-1.8,3.1-3.9,4.3-6.1l0.2-0.4l0.4,0c2.6,0.1,5.2,0.2,7.8,0.3c2.6,0.1,5.2,0.1,7.8,0.1l0.2,0l0,0.2L330.5,57.5z M330.1,57.5
						l0-0.1l0.2,0.2c-2.6,0-5.2,0-7.8,0.1c-2.6,0.1-5.2,0.2-7.8,0.3l0.6-0.4c-1,2.4-2.3,4.7-3.8,6.9c-1.5,2.2-3.4,4.1-5.5,5.8
						c-2.1,1.7-4.4,3.1-6.8,4.2c-2.4,1.2-4.8,2.2-7.3,3l1.4-1.9l0.1,7.8c0,2.6,0,5.2,0,7.8l-2.8-2c1.8-0.6,3.5-1.1,5.2-1.7
						c1.7-0.6,3.4-1.3,5-2l1.3-0.6c0.4-0.2,0.8-0.4,1.2-0.6c0.8-0.4,1.6-0.9,2.3-1.3c1.5-0.9,3-2,4.5-3.1l3-2.3l-0.1,3.7
						c-0.1,3.8-0.1,7.6-0.2,11.4c-0.1,3.8-0.3,7.6-0.4,11.4l-0.4,11.4c-0.1,3.8-0.2,7.6-0.2,11.4l-0.6-0.6c1.6,0,3.2,0,4.8,0
						c1.6,0,3.2,0,4.8-0.1c3.2-0.1,6.4-0.2,9.5-0.3l-1.1,1.1c-0.3-5.8-0.6-11.5-0.7-17.3c-0.1-5.8-0.1-11.5,0.1-17.3
						c0.2-5.8,0.6-11.5,0.9-17.3C329.9,69.1,330.1,63.3,330.1,57.5z"/>
				</g>
				<g>
					<g>
						<path class="st0" d="M330.4,57.5c0.2,11.5,0.3,23.1,0.4,34.6c0,5.8,0,11.5,0,17.3c0,5.8-0.1,11.5-0.2,17.3v0.3h-0.3l-9.6-0.1
							h-9.6h-0.2v-0.2c0-7.6-0.1-15.1-0.1-22.7l-0.2-22.7l0.7,0.4c-3,2.3-6.1,4.4-9.5,6c-3.4,1.7-6.9,2.9-10.5,4l-0.7,0.2v-0.7V75.7
							v-0.4l0.3-0.1c4.8-1.6,9.6-3.5,13.7-6.4s7.4-7,9.6-11.5l0.1-0.2h0.2C319.9,57.2,325.1,57.3,330.4,57.5L330.4,57.5L330.4,57.5z
							 M330.3,57.5c-5.2,0.1-10.4,0.2-15.6,0.2l0.2-0.2c-2.1,4.7-5.4,8.8-9.6,11.9c-2.1,1.5-4.3,2.8-6.7,3.9c-2.3,1.1-4.7,2-7.2,2.8
							l0.3-0.5v15.5l-0.7-0.5c3.5-1.1,7.1-2.3,10.4-3.9c3.3-1.6,6.4-3.6,9.4-5.9l0.7-0.6v0.9l-0.2,22.7c-0.1,7.6-0.1,15.1-0.1,22.7
							l-0.2-0.2h9.6l9.6-0.1l-0.3,0.3c-0.1-5.8-0.1-11.5-0.2-17.3c0-5.8,0-11.5,0-17.3C329.9,80.6,330.1,69.1,330.3,57.5z"/>
						<g>
							<path class="st6" d="M330.6,57.5c0.6,5.8,0.9,11.6,1.3,17.4l0.4,8.7l0.3,8.7c0.1,5.8,0.1,11.6,0,17.4
								c-0.1,5.8-0.5,11.6-0.8,17.4l-0.1,1.2l-1-0.1c-3.3-0.2-6.6-0.4-9.9-0.5c-3.3-0.1-6.6-0.1-9.8-0.1l-0.6,0l0-0.6l-0.1-5.7
								l-0.1-5.7l-0.4-11.4l-0.5-11.4c-0.2-3.8-0.3-7.6-0.4-11.4l-0.1-3.1l2.8,1.6l0.7,0.4l2.4,1.3l-2.2,1.7
								c-1.5,1.2-3.1,2.4-4.8,3.5c-1.7,1.1-3.5,2.1-5.2,3c-1.8,0.9-3.7,1.7-5.5,2.4c-1.9,0.7-3.7,1.3-5.7,1.9l-2.7,0.8l0-2.8
								c0-2.8,0-5.5,0-8.3l0.1-8.3l0-1.5l1.4-0.4c2.4-0.8,4.8-1.6,7.1-2.5c2.3-1,4.5-2.1,6.5-3.4c2-1.3,3.8-3,5.5-4.8
								c1.6-1.8,3-3.9,4.2-6.1l0.4-0.7l0.6,0l4,0.3l4,0.3c2.7,0.2,5.4,0.4,8,0.8l0.2,0L330.6,57.5z M330.2,57.7l-15.9,0.5l1-0.6
								c-1,2.4-2.4,4.8-4,6.9c-1.6,2.1-3.6,4.1-5.8,5.7c-2.2,1.6-4.5,2.9-6.9,4.1c-2.4,1.1-4.9,2.1-7.3,2.9l1.4-1.9l0.1,8.3
								c0,2.8,0,5.5,0,8.3l-2.7-2c1.8-0.5,3.6-1.1,5.4-1.7c1.8-0.6,3.5-1.3,5.2-2.1c1.8-0.8,3.3-1.6,4.9-2.6c1.6-1,3.1-2.1,4.7-3.2
								l0.2,3l-0.7-0.4l2.7-1.6c0,7.6-0.3,15.2-0.5,22.8l-0.3,11.4c-0.1,3.8-0.1,7.6-0.1,11.4l-0.6-0.6l4.9,0c1.6,0,3.3-0.1,4.9-0.1
								c1.6,0,3.3-0.1,4.9-0.1l4.9-0.2l-1.1,1.1c-0.2-5.8-0.4-11.6-0.4-17.4c-0.1-5.8,0-11.6,0-17.4c0.1-5.8,0.1-11.6,0.3-17.4
								C329.6,69.2,329.8,63.4,330.2,57.7z"/>
							<path class="st6" d="M330.1,57.7c-2.5,0.3-5,0.5-7.6,0.7l-3.9,0.3l-3.9,0.2L312,59l1.9-2.1l0.2-0.2l4.1-4.5L316,58
								c-1,2.5-2.3,4.8-4,7c-1.6,2.2-3.5,4.1-5.8,5.8c-2.1,1.6-4.5,3-6.9,4.1c-2.4,1.2-4.9,2.2-7.4,2.9l-4.5,1.4l2.4-4l0.3-0.5
								l3.3-5.4l0,6.4c0,2.6-0.1,5.2-0.1,7.8c-0.1,2.6-0.2,5.2-0.3,7.8l-0.1,2.8l-2.1-1.6l-0.7-0.5L288,90l2.6-0.7
								c3.7-1,7.4-2,10.8-3.6c1.8-0.8,3.4-1.7,5-2.7c0.8-0.5,1.6-1,2.4-1.6l1.2-0.8l0.3-0.2l0.1-0.1l0.1-0.1l0.6-0.5l1-0.9l0,1.3
								c0,3.9-0.1,7.7,0,11.6c0,3.9,0.2,7.7,0.3,11.6l0.4,11.6c0.1,3.9,0.2,7.7,0.3,11.6l0.1,4.3l-3.2-3.1l-0.2-0.2l-3.1-3l4.4-0.1
								l9.6-0.1l9.6-0.2l5.1-0.1l-3.6,3.7l-0.3,0.3l-3.4,3.5l-0.2-4.9c-0.1-2.9-0.1-5.8-0.1-8.6c0-2.9-0.1-5.7-0.1-8.6
								c0-5.8,0.2-11.5,0.3-17.3c0.3-5.8,0.6-11.5,0.9-17.3C329.2,69.1,329.6,63.4,330.1,57.7z M330.5,57.5
								c0.3,5.8,0.5,11.5,0.7,17.3l0.2,8.6l0.1,8.6c0.1,5.7,0.3,11.5,0.3,17.2l0.1,4.3l0,4.3c0,2.9,0.1,5.7,0.1,8.6l-3.6-1.4
								l0.3-0.3l1.5,3.6l-9.6,0l-9.6-0.1l1.3-3.1l0.2,0.2l-3.1,1.3c0.1-3.9,0.2-7.7,0.3-11.6l0.5-11.6c0.1-3.9,0.4-7.7,0.5-11.6
								c0.1-3.9,0.2-7.7,0.2-11.6l1,0.5c-1.5,1.3-3.1,2.4-4.7,3.5c-1.6,1.1-3.3,2.1-5,3.1c-3.5,1.9-7.1,3.3-10.8,4.6l0.4-2.4
								l0.7,0.5l-2.2,1.1c-0.1-2.6-0.2-5.2-0.3-7.8c-0.1-2.6-0.1-5.2-0.1-7.8l3.3,0.9l-0.3,0.5l-2.1-2.6c2.4-0.8,4.7-1.6,7-2.7
								c2.3-1,4.4-2.2,6.5-3.6c1.9-1.3,3.8-3.1,5.4-4.9c1.6-1.9,3-3.9,4.1-6.1l1.9,1.3l-0.2,0.2l-0.8-2l7.8,0.3
								c2.6,0.1,5.2,0.2,7.8,0.4l0.2,0L330.5,57.5z"/>
						</g>
					</g>
				</g>
			</g>
		</g>
	</g>
	<g class="st2">
		<g>
			<g>
				<g>
					<path class="st0" d="M330.3,57.5v69.3h-19.1V81.4c-3.1,2.4-6.1,4.3-9,5.7c-2.9,1.5-6.5,2.8-10.9,4.2V75.7
						c6.4-2.1,11.4-4.6,15-7.5c3.6-2.9,6.3-6.5,8.4-10.8h15.6V57.5z"/>
					<path class="st6" d="M330.5,57.5c0,5.8,0.2,11.5,0.5,17.3c0.3,5.8,0.7,11.6,0.9,17.3c0.2,5.8,0.2,11.5,0.1,17.3
						c-0.1,5.8-0.4,11.6-0.7,17.3l0,1.1l-1,0c-3.2-0.1-6.4-0.3-9.5-0.3c-1.6-0.1-3.2-0.1-4.8-0.1c-1.6,0-3.2,0-4.8,0l-0.6,0l0-0.6
						c0-3.8-0.1-7.6-0.2-11.4l-0.4-11.4c-0.1-3.8-0.3-7.6-0.4-11.4c-0.1-3.8-0.2-7.6-0.2-11.4l3,1.5c-1.5,1.2-3,2.3-4.7,3.4
						c-0.8,0.5-1.6,1-2.5,1.5c-0.4,0.2-0.8,0.5-1.3,0.7l-1.2,0.6c-1.8,0.9-3.5,1.7-5.3,2.3c-1.8,0.7-3.6,1.3-5.4,1.9l-2.8,0.9l0-2.9
						c0-2.6,0-5.2,0-7.8l0.1-7.8l0-1.5l1.4-0.4c2.4-0.8,4.7-1.6,7-2.5c2.3-1,4.5-2,6.5-3.4c2-1.3,3.9-2.9,5.6-4.7
						c1.7-1.8,3.1-3.9,4.3-6.1l0.2-0.4l0.4,0c2.6,0.1,5.2,0.2,7.8,0.3c2.6,0.1,5.2,0.1,7.8,0.1l0.2,0l0,0.2L330.5,57.5z M330.1,57.5
						l0-0.1l0.2,0.2c-2.6,0-5.2,0-7.8,0.1c-2.6,0.1-5.2,0.2-7.8,0.3l0.6-0.4c-1,2.4-2.3,4.7-3.8,6.9c-1.5,2.2-3.4,4.1-5.5,5.8
						c-2.1,1.7-4.4,3.1-6.8,4.2c-2.4,1.2-4.8,2.2-7.3,3l1.4-1.9l0.1,7.8c0,2.6,0,5.2,0,7.8l-2.8-2c1.8-0.6,3.5-1.1,5.2-1.7
						c1.7-0.6,3.4-1.3,5-2l1.3-0.6c0.4-0.2,0.8-0.4,1.2-0.6c0.8-0.4,1.6-0.9,2.3-1.3c1.5-0.9,3-2,4.5-3.1l3-2.3l-0.1,3.7
						c-0.1,3.8-0.1,7.6-0.2,11.4c-0.1,3.8-0.3,7.6-0.4,11.4l-0.4,11.4c-0.1,3.8-0.2,7.6-0.2,11.4l-0.6-0.6c1.6,0,3.2,0,4.8,0
						c1.6,0,3.2,0,4.8-0.1c3.2-0.1,6.4-0.2,9.5-0.3l-1.1,1.1c-0.3-5.8-0.6-11.5-0.7-17.3c-0.1-5.8-0.1-11.5,0.1-17.3
						c0.2-5.8,0.6-11.5,0.9-17.3C329.9,69.1,330.1,63.3,330.1,57.5z"/>
				</g>
				<g>
					<g>
						<path class="st0" d="M330.4,57.5c0.2,11.5,0.3,23.1,0.4,34.6c0,5.8,0,11.5,0,17.3c0,5.8-0.1,11.5-0.2,17.3v0.3h-0.3l-9.6-0.1
							h-9.6h-0.2v-0.2c0-7.6-0.1-15.1-0.1-22.7l-0.2-22.7l0.7,0.4c-3,2.3-6.1,4.4-9.5,6c-3.4,1.7-6.9,2.9-10.5,4l-0.7,0.2v-0.7V75.7
							v-0.4l0.3-0.1c4.8-1.6,9.6-3.5,13.7-6.4s7.4-7,9.6-11.5l0.1-0.2h0.2C319.9,57.2,325.1,57.3,330.4,57.5L330.4,57.5L330.4,57.5z
							 M330.3,57.5c-5.2,0.1-10.4,0.2-15.6,0.2l0.2-0.2c-2.1,4.7-5.4,8.8-9.6,11.9c-2.1,1.5-4.3,2.8-6.7,3.9c-2.3,1.1-4.7,2-7.2,2.8
							l0.3-0.5v15.5l-0.7-0.5c3.5-1.1,7.1-2.3,10.4-3.9c3.3-1.6,6.4-3.6,9.4-5.9l0.7-0.6v0.9l-0.2,22.7c-0.1,7.6-0.1,15.1-0.1,22.7
							l-0.2-0.2h9.6l9.6-0.1l-0.3,0.3c-0.1-5.8-0.1-11.5-0.2-17.3c0-5.8,0-11.5,0-17.3C329.9,80.6,330.1,69.1,330.3,57.5z"/>
						<g>
							<path class="st6" d="M330.6,57.5c0.6,5.8,0.9,11.6,1.3,17.4l0.4,8.7l0.3,8.7c0.1,5.8,0.1,11.6,0,17.4
								c-0.1,5.8-0.5,11.6-0.8,17.4l-0.1,1.2l-1-0.1c-3.3-0.2-6.6-0.4-9.9-0.5c-3.3-0.1-6.6-0.1-9.8-0.1l-0.6,0l0-0.6l-0.1-5.7
								l-0.1-5.7l-0.4-11.4l-0.5-11.4c-0.2-3.8-0.3-7.6-0.4-11.4l-0.1-3.1l2.8,1.6l0.7,0.4l2.4,1.3l-2.2,1.7
								c-1.5,1.2-3.1,2.4-4.8,3.5c-1.7,1.1-3.5,2.1-5.2,3c-1.8,0.9-3.7,1.7-5.5,2.4c-1.9,0.7-3.7,1.3-5.7,1.9l-2.7,0.8l0-2.8
								c0-2.8,0-5.5,0-8.3l0.1-8.3l0-1.5l1.4-0.4c2.4-0.8,4.8-1.6,7.1-2.5c2.3-1,4.5-2.1,6.5-3.4c2-1.3,3.8-3,5.5-4.8
								c1.6-1.8,3-3.9,4.2-6.1l0.4-0.7l0.6,0l4,0.3l4,0.3c2.7,0.2,5.4,0.4,8,0.8l0.2,0L330.6,57.5z M330.2,57.7l-15.9,0.5l1-0.6
								c-1,2.4-2.4,4.8-4,6.9c-1.6,2.1-3.6,4.1-5.8,5.7c-2.2,1.6-4.5,2.9-6.9,4.1c-2.4,1.1-4.9,2.1-7.3,2.9l1.4-1.9l0.1,8.3
								c0,2.8,0,5.5,0,8.3l-2.7-2c1.8-0.5,3.6-1.1,5.4-1.7c1.8-0.6,3.5-1.3,5.2-2.1c1.8-0.8,3.3-1.6,4.9-2.6c1.6-1,3.1-2.1,4.7-3.2
								l0.2,3l-0.7-0.4l2.7-1.6c0,7.6-0.3,15.2-0.5,22.8l-0.3,11.4c-0.1,3.8-0.1,7.6-0.1,11.4l-0.6-0.6l4.9,0c1.6,0,3.3-0.1,4.9-0.1
								c1.6,0,3.3-0.1,4.9-0.1l4.9-0.2l-1.1,1.1c-0.2-5.8-0.4-11.6-0.4-17.4c-0.1-5.8,0-11.6,0-17.4c0.1-5.8,0.1-11.6,0.3-17.4
								C329.6,69.2,329.8,63.4,330.2,57.7z"/>
							<path class="st6" d="M330.1,57.7c-2.5,0.3-5,0.5-7.6,0.7l-3.9,0.3l-3.9,0.2L312,59l1.9-2.1l0.2-0.2l4.1-4.5L316,58
								c-1,2.5-2.3,4.8-4,7c-1.6,2.2-3.5,4.1-5.8,5.8c-2.1,1.6-4.5,3-6.9,4.1c-2.4,1.2-4.9,2.2-7.4,2.9l-4.5,1.4l2.4-4l0.3-0.5
								l3.3-5.4l0,6.4c0,2.6-0.1,5.2-0.1,7.8c-0.1,2.6-0.2,5.2-0.3,7.8l-0.1,2.8l-2.1-1.6l-0.7-0.5L288,90l2.6-0.7
								c3.7-1,7.4-2,10.8-3.6c1.8-0.8,3.4-1.7,5-2.7c0.8-0.5,1.6-1,2.4-1.6l1.2-0.8l0.3-0.2l0.1-0.1l0.1-0.1l0.6-0.5l1-0.9l0,1.3
								c0,3.9-0.1,7.7,0,11.6c0,3.9,0.2,7.7,0.3,11.6l0.4,11.6c0.1,3.9,0.2,7.7,0.3,11.6l0.1,4.3l-3.2-3.1l-0.2-0.2l-3.1-3l4.4-0.1
								l9.6-0.1l9.6-0.2l5.1-0.1l-3.6,3.7l-0.3,0.3l-3.4,3.5l-0.2-4.9c-0.1-2.9-0.1-5.8-0.1-8.6c0-2.9-0.1-5.7-0.1-8.6
								c0-5.8,0.2-11.5,0.3-17.3c0.3-5.8,0.6-11.5,0.9-17.3C329.2,69.1,329.6,63.4,330.1,57.7z M330.5,57.5
								c0.3,5.8,0.5,11.5,0.7,17.3l0.2,8.6l0.1,8.6c0.1,5.7,0.3,11.5,0.3,17.2l0.1,4.3l0,4.3c0,2.9,0.1,5.7,0.1,8.6l-3.6-1.4
								l0.3-0.3l1.5,3.6l-9.6,0l-9.6-0.1l1.3-3.1l0.2,0.2l-3.1,1.3c0.1-3.9,0.2-7.7,0.3-11.6l0.5-11.6c0.1-3.9,0.4-7.7,0.5-11.6
								c0.1-3.9,0.2-7.7,0.2-11.6l1,0.5c-1.5,1.3-3.1,2.4-4.7,3.5c-1.6,1.1-3.3,2.1-5,3.1c-3.5,1.9-7.1,3.3-10.8,4.6l0.4-2.4
								l0.7,0.5l-2.2,1.1c-0.1-2.6-0.2-5.2-0.3-7.8c-0.1-2.6-0.1-5.2-0.1-7.8l3.3,0.9l-0.3,0.5l-2.1-2.6c2.4-0.8,4.7-1.6,7-2.7
								c2.3-1,4.4-2.2,6.5-3.6c1.9-1.3,3.8-3.1,5.4-4.9c1.6-1.9,3-3.9,4.1-6.1l1.9,1.3l-0.2,0.2l-0.8-2l7.8,0.3
								c2.6,0.1,5.2,0.2,7.8,0.4l0.2,0L330.5,57.5z"/>
						</g>
					</g>
				</g>
			</g>
		</g>
	</g>
</g>
<g>
	<g>
		<g>
			<g>
				<g>
					<path class="st0" d="M149.8,254.4H93c0.6-5.6,2.6-10.9,5.9-15.8c3.3-4.9,9.5-10.8,18.6-17.5c5.5-4.1,9.1-7.2,10.6-9.4
						c1.5-2.1,2.3-4.2,2.3-6.1c0-2.1-0.8-3.8-2.3-5.3s-3.5-2.2-5.8-2.2c-2.4,0-4.4,0.8-5.9,2.3s-2.6,4.2-3.1,8l-19-1.5
						c0.7-5.3,2.1-9.5,4.1-12.5s4.8-5.3,8.4-6.9c3.6-1.6,8.6-2.4,15-2.4c6.7,0,11.8,0.8,15.5,2.3c3.7,1.5,6.6,3.8,8.7,7
						c2.1,3.1,3.2,6.7,3.2,10.6c0,4.2-1.2,8.1-3.6,11.9c-2.4,3.8-6.9,7.9-13.3,12.5c-3.8,2.6-6.4,4.5-7.6,5.5
						c-1.2,1-2.8,2.4-4.5,4.1h29.5L149.8,254.4L149.8,254.4z"/>
					<path class="st6" d="M149.8,254.6c-4.7,0.3-9.5,0.5-14.2,0.6c-4.7,0.2-9.5,0.3-14.2,0.4c-4.7,0.1-9.5,0.2-14.2,0.3
						c-4.7,0.1-9.5,0.2-14.2,0.2l-1.9,0l0.2-1.9c0.8-8,4.5-15.6,9.9-21.3c2.7-2.9,5.6-5.4,8.6-7.8c3-2.4,6.2-4.6,9.2-6.8
						c1.5-1.1,3-2.2,4.5-3.4c1.4-1.2,2.8-2.4,3.9-3.8c1.1-1.4,2-3.1,2.2-4.8c0.3-1.7-0.2-3.4-1.2-4.8c-1.1-1.4-2.6-2.4-4.3-2.7
						c-1.7-0.3-3.6-0.2-5.2,0.6c-0.8,0.4-1.5,0.9-2.1,1.5c-0.6,0.6-1,1.4-1.4,2.2c-0.7,1.6-1.1,3.5-1.3,5.3l-0.1,0.6l-0.7,0
						c-6.3-0.5-12.7-0.7-19-1.1l-1.1-0.1l0.1-1.1c0.3-2.6,0.8-5.3,1.6-7.8c0.8-2.6,2.1-5.1,3.8-7.3c1.8-2.2,4.1-3.9,6.5-5.2
						c0.3-0.2,0.6-0.3,1-0.5c0.3-0.1,0.6-0.3,0.9-0.4c0.7-0.3,1.3-0.5,2-0.7c1.3-0.4,2.7-0.7,4-0.9c2.7-0.5,5.3-0.6,8-0.7
						c2.6-0.1,5.3,0,8,0.3c2.7,0.3,5.4,0.7,8,1.6c0.3,0.1,0.6,0.2,1,0.4c0.3,0.1,0.6,0.2,0.9,0.4c0.7,0.3,1.3,0.6,1.9,1
						c1.2,0.7,2.4,1.5,3.5,2.5c1.1,1,2,2.1,2.9,3.2c0.8,1.1,1.6,2.4,2.2,3.7c1.2,2.6,1.8,5.5,1.8,8.4c0,2.8-0.5,5.7-1.5,8.4
						c-1,2.6-2.4,5.1-4.3,7.3c-3.6,4.3-7.8,7.5-12.1,10.5c-2.2,1.5-4.3,2.9-6.4,4.4c-2,1.4-3.9,3.1-5.7,4.9l-1.2-2.8
						c4.9,0.1,9.8,0.2,14.8,0.4l7.4,0.2c2.5,0.1,4.9,0.1,7.4,0.2l0.9,0l0,0.8c-0.2,5.1-0.4,10.3-0.6,15.4l-0.2-0.2l0.1,0V254.6z
						 M149.8,254.6L149.8,254.6l-0.3,0l0-0.2c-0.3-5.1-0.4-10.3-0.6-15.4l0.8,0.8c-2.5,0.1-4.9,0.1-7.4,0.2l-7.4,0.2
						c-4.9,0.1-9.8,0.3-14.8,0.4l-3.9,0.1l2.8-2.9c1.9-1.9,3.7-3.7,5.9-5.4c2.1-1.6,4.2-3.2,6.3-4.6c2.1-1.5,4-3.1,5.9-4.8
						c1.9-1.6,3.7-3.4,5.2-5.3c1.5-1.8,2.7-4,3.5-6.1c0.8-2.2,1.2-4.5,1.2-6.8c0-2.3-0.5-4.6-1.4-6.7c-0.5-1.1-1-2-1.7-3
						c-0.7-0.9-1.4-1.8-2.2-2.6c-0.8-0.8-1.8-1.5-2.8-2.1c-0.5-0.3-1-0.6-1.5-0.8c-0.2-0.1-0.6-0.3-0.9-0.4
						c-0.2-0.1-0.5-0.2-0.8-0.3c-2.2-0.8-4.7-1.3-7.1-1.6c-2.5-0.3-5-0.4-7.5-0.4c-2.5,0-5,0.1-7.5,0.5c-1.2,0.2-2.4,0.4-3.6,0.7
						c-0.6,0.2-1.2,0.3-1.7,0.5c-0.3,0.1-0.6,0.2-0.9,0.3c-0.2,0.1-0.5,0.2-0.8,0.4c-2.2,1-4.2,2.4-5.8,4.2
						c-1.6,1.8-2.8,3.9-3.7,6.2c-0.9,2.3-1.5,4.8-1.9,7.3l-1-1.2c6.3,0.6,12.6,1.3,19,1.9l-0.7,0.6c0.3-1.9,0.7-3.8,1.5-5.7
						c0.4-0.9,0.9-1.8,1.7-2.5c0.7-0.7,1.6-1.4,2.5-1.8c1.9-0.8,4-1,5.9-0.7c1,0.2,2,0.5,2.9,1.1c0.9,0.5,1.6,1.3,2.3,2.1
						c0.6,0.8,1.2,1.7,1.4,2.7c0.1,0.5,0.2,1,0.3,1.6c0,0.5,0,1,0,1.5c-0.2,2.1-1.2,3.9-2.3,5.6c-1.1,1.7-2.6,3.1-4,4.4
						c-1.4,1.3-2.9,2.5-4.4,3.8c-3,2.4-6,4.7-8.8,7.2c-1.4,1.2-2.8,2.5-4.1,3.8c-1.3,1.3-2.6,2.6-3.9,4c-1.2,1.4-2.3,2.8-3.4,4.3
						c-1,1.5-1.9,3.1-2.7,4.7c-1.6,3.2-2.6,6.7-3,10.3l-1.7-1.9c4.7,0,9.5,0.1,14.2,0.2c4.7,0.1,9.5,0.2,14.2,0.3
						c4.7,0.1,9.5,0.3,14.2,0.4c4.7,0.2,9.5,0.4,14.2,0.6V254.6z"/>
				</g>
				<g>
					<g>
						<path class="st0" d="M149.9,254.5l-14.2,0.2l-14.2,0.1H93h-0.5l0.1-0.5c0.8-7.7,4.4-14.9,9.6-20.5
							c5.2-5.6,11.3-10.2,17.4-14.7c1.5-1.1,3-2.3,4.4-3.6c1.4-1.2,2.8-2.5,3.9-4s2-3.2,2.2-5.1c0.2-1.8-0.2-3.8-1.4-5.2
							c-1.1-1.5-2.8-2.5-4.6-2.8c-1.8-0.3-3.8-0.2-5.5,0.6c-0.8,0.4-1.6,1-2.2,1.6c-0.6,0.7-1.1,1.5-1.5,2.3
							c-0.7,1.7-1.1,3.6-1.4,5.4v0.2h-0.2l-19-1.5H94v-0.3c0.4-2.6,0.9-5.1,1.7-7.6c0.8-2.5,2-4.9,3.8-6.9c1.7-2,3.9-3.6,6.3-4.8
							c2.4-1.2,5-1.9,7.5-2.3c2.6-0.4,5.2-0.6,7.8-0.6s5.2,0.1,7.8,0.3c2.6,0.3,5.2,0.7,7.7,1.6c2.5,0.9,4.9,2.2,6.8,4
							c2,1.8,3.6,4,4.7,6.4s1.6,5.1,1.6,7.8s-0.5,5.3-1.4,7.8c-1,2.5-2.3,4.8-4,6.8c-3.4,4.1-7.5,7.3-11.8,10.3
							c-2.1,1.5-4.3,2.9-6.3,4.5c-2.1,1.5-4,3.3-5.8,5.1l-0.3-0.6l29.5,0.2h0.2v0.2L149.9,254.5z M149.8,254.4l-0.2-15.4l0.2,0.2
							l-29.5,0.2h-0.9l0.7-0.7c1.8-1.8,3.7-3.6,5.8-5.2c2.1-1.6,4.2-3.1,6.3-4.6c4.2-3,8.3-6.2,11.5-10.2c3.2-3.9,5.2-8.9,5.2-14
							c0-5.1-2.2-10-5.9-13.4c-1.9-1.7-4.1-3-6.5-3.8c-2.4-0.9-4.9-1.3-7.5-1.6c-2.6-0.3-5.1-0.4-7.7-0.4c-2.6,0-5.1,0.2-7.7,0.5
							c-2.5,0.4-5,1-7.3,2.1c-2.3,1.1-4.4,2.6-6.1,4.5c-1.7,1.9-2.9,4.2-3.7,6.6c-0.8,2.4-1.4,5-1.8,7.5l-0.2-0.3l18.9,1.6l-0.2,0.2
							c0.3-1.9,0.7-3.8,1.5-5.5c0.4-0.9,0.9-1.7,1.6-2.4c0.7-0.7,1.5-1.3,2.4-1.7c1.8-0.8,3.8-1,5.7-0.6c1.9,0.3,3.7,1.4,4.9,2.9
							c1.2,1.5,1.8,3.6,1.5,5.5c-0.2,1.9-1.2,3.7-2.3,5.3c-1.1,1.6-2.5,2.9-4,4.1c-1.4,1.3-2.9,2.5-4.4,3.6
							c-6.1,4.6-12.1,9.2-17.2,14.8c-2.6,2.8-4.7,5.9-6.3,9.3c-1.6,3.4-2.7,7-3.1,10.8L93,254l28.4,0.1l14.2,0.1L149.8,254.4z"/>
						<g>
							<path class="st6" d="M149.9,254.7c-4.8,0.3-9.6,0.6-14.3,0.8c-4.8,0.2-9.6,0.4-14.4,0.5c-4.8,0.1-9.6,0.2-14.4,0.3
								c-4.8,0.1-9.6,0.2-14.4,0.2l-2.1,0l0.4-2.1l0.1-0.5l0,0.2c0.6-6,2.8-11.7,6.1-16.7c1.6-2.5,3.7-4.7,5.8-6.7
								c2.1-2,4.3-3.9,6.6-5.7c2.3-1.8,4.6-3.5,6.9-5.1l3.5-2.5c1.1-0.8,2.2-1.7,3.3-2.6c0.6-0.5,1.1-0.9,1.6-1.4
								c0.5-0.5,1-0.9,1.5-1.4c0.9-1,1.8-2.1,2.4-3.2c0.6-1.2,0.9-2.5,0.9-3.7c0-1.3-0.4-2.6-1.2-3.5l0,0l0,0
								c-0.6-0.9-1.4-1.5-2.4-2c-0.9-0.5-2-0.7-3.1-0.7c-1.1,0-2.2,0.1-3.2,0.4c-1,0.3-1.9,1-2.6,1.7l0,0c-0.3,0.3-0.5,0.7-0.8,1
								c-0.2,0.4-0.4,0.7-0.6,1.1l0,0c-0.7,1.7-1,3.5-1.3,5.3l0-0.1l0,0.2l0,0.7l-0.7,0l-0.2,0h0l0,0c-3.2-0.2-6.3-0.4-9.5-0.6
								l-9.5-0.5l0.1,0l-0.3,0l-1,0l0-1.1l0-0.3l0-0.1l0-0.1c0.4-2.6,0.8-5.3,1.6-7.9c0.8-2.6,2-5.3,3.9-7.4
								c3.6-4.4,9.1-6.9,14.5-7.8c2.7-0.5,5.4-0.7,8.1-0.7l2,0l2,0l2,0.1l2.1,0.1c2.7,0.3,5.4,0.7,8.2,1.7c2.6,0.9,5.3,2.3,7.4,4.3
								c2.1,1.9,3.9,4.3,5.2,6.9c1.3,2.7,1.8,5.6,1.8,8.5c0,2.9-0.5,5.8-1.4,8.5c-1.1,2.7-2.4,5.2-4.3,7.4
								c-3.5,4.3-7.9,7.7-12.3,10.6c-2.2,1.5-4.4,2.9-6.4,4.4c-0.6,0.5-1.1,0.8-1.6,1.2c-0.5,0.4-1,0.8-1.5,1.2
								c-1,0.8-1.9,1.7-2.8,2.6l-1.7,1.6l-1-2l-0.3-0.6l-1.2-2.4l2.6,0.1c4.9,0.1,9.9,0.3,14.8,0.5l7.4,0.3c2.5,0.1,5,0.2,7.4,0.3
								l0.9,0l0,0.8c-0.2,5.3-0.3,10.5-0.5,15.8l0,0.2L149.9,254.7z M149.7,254.3c-0.3-5.2-0.5-10.4-0.7-15.6l0.8,0.8
								c-2.5,0.1-5,0.1-7.4,0.2l-7.4,0.2c-5,0.1-9.9,0.2-14.9,0.3l1.5-2.4l0.3,0.6l-2.6-0.4c0.9-1,1.9-1.9,2.9-2.8
								c0.5-0.5,1-0.9,1.5-1.4c0.5-0.5,1.1-0.9,1.6-1.2c2.2-1.8,4.3-3.2,6.4-4.7c4.2-3,8.2-6.2,11.3-10.2c1.5-1.8,2.7-4,3.5-6.2
								c0.8-2.3,1.2-4.6,1.2-7c0-2.4-0.5-4.7-1.4-6.8c-1-2.1-2.3-4.1-4.1-5.7c-1.7-1.6-3.7-2.8-6-3.6c-2.2-0.8-4.7-1.3-7.2-1.6
								l-1.9-0.1l-1.9-0.1l-1.9-0.1l-2,0c-2.5,0-5.1,0.1-7.6,0.5c-2.5,0.4-4.9,1-7.1,2c-2.2,1.1-4.2,2.5-5.9,4.3
								c-3.4,3.5-4.6,8.7-5.6,13.7l0-0.2l0,0.3l-1-1l0.3,0l0.1,0l0,0l9.5,1c3.2,0.3,6.3,0.6,9.5,0.9l-0.1,0l0.2,0l-0.7,0.7l0-0.2
								l0-0.1l0,0c0.3-1.9,0.7-3.7,1.5-5.5l0,0l0,0c0.2-0.4,0.5-0.8,0.7-1.3c0.3-0.4,0.6-0.8,0.9-1.2l0,0l0,0c0.9-0.9,1.9-1.6,3.1-2
								c1.2-0.4,2.4-0.6,3.6-0.5c1.2,0,2.5,0.3,3.6,0.8c1.1,0.5,2.1,1.3,2.9,2.4l0,0c2.1,2.5,2.1,6.1,0.8,8.8
								c-1.2,2.8-3.4,5-5.5,6.9c-1,1-2.2,2-3.3,2.9l-3.4,2.6c-2.2,1.8-4.4,3.5-6.5,5.4c-2.1,1.8-4.2,3.8-6.1,5.8c-2,2-3.7,4-5.2,6.3
								c-3,4.5-5.1,9.7-5.7,15l0,0.1l0,0.1l-0.1,0.5l-1.7-2.1c4.8,0,9.6,0.1,14.4,0.2c4.8,0.1,9.6,0.2,14.4,0.3
								c4.8,0.1,9.6,0.2,14.3,0.3C140.3,254,145,254.1,149.7,254.3z"/>
							<path class="st6" d="M149.6,254.2c-0.3-5.1-0.6-10.1-0.9-15.2l-0.1-2.1l1.6,1.5l0.2,0.2l1.5,1.4l-2.2,0.1l-7.6,0.3l-7.6,0.2
								c-5.1,0.2-10.1,0.3-15.2,0.4l-3.9,0.1l2.7-2.8c1.8-1.8,3.7-3.8,5.7-5.4c1.1-0.9,2.1-1.6,3.1-2.4l3.1-2.3
								c4.2-3,8.2-6,11.4-9.7l0.6-0.7l0.6-0.7c0.4-0.5,0.7-1,1-1.4c0.7-1,1.2-2,1.7-3.1c1-2.2,1.6-4.5,1.8-6.9
								c0.4-4.7-1.4-9.6-4.8-13.1c-3.4-3.5-8.4-5.2-13.4-5.8c-2.5-0.4-5.1-0.5-7.6-0.5c-2.6,0-5.1,0.1-7.6,0.5c-2.5,0.4-5,1-7.2,2
								c-2.2,1.1-4.3,2.6-5.9,4.4c-3.3,3.7-4.3,8.9-5,13.8l-0.4,2.7l-1.6-2.3l-0.2-0.3l-1.3-1.9l2.3,0.1l18.9,1.1l3.4,0.2l-2.4,2.5
								l-0.2,0.2l-3.4,3.5l0.7-4.9c0.2-1.7,0.6-3.5,1.3-5.3l0.3-0.7c0.1-0.2,0.2-0.4,0.3-0.6c0.2-0.5,0.5-0.9,0.8-1.3
								c0.6-0.9,1.4-1.5,2.2-2.2c1.8-1.2,3.7-1.8,5.8-1.9c0.5,0,1,0,1.5,0.1c0.3,0,0.5,0.1,0.8,0.1l0.6,0.1c1.1,0.2,2,0.6,3,1.1
								c0.9,0.5,1.7,1.2,2.4,2l0.3,0.3l0.2,0.3c0.1,0.2,0.3,0.5,0.5,0.7c0.3,0.5,0.5,0.9,0.7,1.4c0.4,1,0.6,2,0.6,3.1
								c0,0.3,0,0.5,0,0.8c0,0.1,0,0.3,0,0.4l0,0.3c0,0.2-0.1,0.5-0.1,0.8c-0.1,0.3-0.1,0.5-0.2,0.8c-0.6,2-1.6,3.6-2.7,5.1
								c-1.2,1.6-2.6,2.8-3.9,4l0.1-0.1c-1.6,1.5-3.4,2.9-5.1,4.2c-1.7,1.3-3.4,2.6-5,3.9c-3.3,2.6-6.5,5.3-9.4,8.2
								c-0.7,0.7-1.4,1.5-2.1,2.2c-0.7,0.8-1.3,1.5-2,2.3c-1.2,1.6-2.3,3.3-3.3,5c-1.9,3.6-3.2,7.4-3.7,11.4l-0.3,2.9l-2.4-1.5
								l-0.5-0.3l-5.8-3.6l6.7,0.1l14.2,0.3c4.7,0.1,9.5,0.3,14.2,0.4c4.7,0.2,9.5,0.3,14.2,0.5
								C140.3,253.7,144.9,253.9,149.6,254.2z M149.8,254.6c-4.7,0.2-9.5,0.3-14.2,0.4c-4.7,0.2-9.5,0.2-14.2,0.3
								c-4.7,0.1-9.5,0.3-14.2,0.3L93,255.8l1-3.4l0.5,0.3l-2.8,1.4c0.4-4.5,1.8-8.9,3.8-12.8c1-2,2.2-3.9,3.6-5.7
								c0.7-0.9,1.4-1.8,2.1-2.6c0.7-0.8,1.5-1.6,2.2-2.4c3.1-3.1,6.4-5.9,9.8-8.6c1.7-1.3,3.4-2.6,5.1-3.9c1.7-1.3,3.3-2.5,4.8-3.8
								l0.1-0.1l0,0c1.3-1,2.4-2.1,3.3-3.1c0.9-1.3,1.8-2.6,2.2-3.8c0.9-2.5-0.1-5.2-2.5-6.6c-0.5-0.3-1.2-0.6-1.7-0.7l-0.6-0.1
								c-0.2,0-0.3-0.1-0.5-0.1c-0.3,0-0.7-0.1-1-0.1c-1.3,0-2.8,0.4-3.8,1.1c-0.5,0.4-1.1,0.9-1.5,1.4c-0.2,0.3-0.4,0.5-0.5,0.8
								c-0.1,0.1-0.2,0.3-0.3,0.5l-0.2,0.5c-0.6,1.4-0.9,2.9-1.2,4.5l-2.7-1.4l0.2-0.2l1,2.7l-18.9-2.1l1-1.7l0.2,0.3l-2,0.4
								c0.5-2.6,1.1-5.1,2-7.6c0.9-2.5,2.2-4.9,4.1-6.9c1.8-2,4.1-3.5,6.5-4.6c2.5-1.1,5-1.7,7.6-2.1c5.2-0.6,10.4-0.6,15.6-0.1
								c2.6,0.2,5.2,0.7,7.7,1.6c2.6,0.8,4.9,2.2,7,4.1c4,3.7,6.4,9.2,6.3,14.8c-0.1,2.8-0.6,5.5-1.7,8.1c-0.5,1.3-1.2,2.5-1.9,3.7
								c-0.4,0.6-0.8,1.2-1.2,1.7l-0.6,0.8c-0.2,0.3-0.4,0.5-0.6,0.8c-3.5,4.1-7.8,7.3-12,10.3l-3.1,2.2c-1,0.7-2.1,1.5-3,2.3
								c-1.9,1.5-3.8,3.2-5.6,5.1l-1.1-2.7l7.6,0.1l7.6,0.1l7.6,0.1l7.6,0.2l-0.6,1.5l-0.2-0.2l1.5-0.6c-0.1,5.1-0.3,10.3-0.5,15.4
								l0,0.2L149.8,254.6z"/>
						</g>
					</g>
				</g>
			</g>
		</g>
	</g>
	<g class="st2">
		<g>
			<g>
				<g>
					<path class="st0" d="M149.8,254.4H93c0.6-5.6,2.6-10.9,5.9-15.8c3.3-4.9,9.5-10.8,18.6-17.5c5.5-4.1,9.1-7.2,10.6-9.4
						c1.5-2.1,2.3-4.2,2.3-6.1c0-2.1-0.8-3.8-2.3-5.3s-3.5-2.2-5.8-2.2c-2.4,0-4.4,0.8-5.9,2.3s-2.6,4.2-3.1,8l-19-1.5
						c0.7-5.3,2.1-9.5,4.1-12.5s4.8-5.3,8.4-6.9c3.6-1.6,8.6-2.4,15-2.4c6.7,0,11.8,0.8,15.5,2.3c3.7,1.5,6.6,3.8,8.7,7
						c2.1,3.1,3.2,6.7,3.2,10.6c0,4.2-1.2,8.1-3.6,11.9c-2.4,3.8-6.9,7.9-13.3,12.5c-3.8,2.6-6.4,4.5-7.6,5.5
						c-1.2,1-2.8,2.4-4.5,4.1h29.5L149.8,254.4L149.8,254.4z"/>
					<path class="st6" d="M149.8,254.6c-4.7,0.3-9.5,0.5-14.2,0.6c-4.7,0.2-9.5,0.3-14.2,0.4c-4.7,0.1-9.5,0.2-14.2,0.3
						c-4.7,0.1-9.5,0.2-14.2,0.2l-1.9,0l0.2-1.9c0.8-8,4.5-15.6,9.9-21.3c2.7-2.9,5.6-5.4,8.6-7.8c3-2.4,6.2-4.6,9.2-6.8
						c1.5-1.1,3-2.2,4.5-3.4c1.4-1.2,2.8-2.4,3.9-3.8c1.1-1.4,2-3.1,2.2-4.8c0.3-1.7-0.2-3.4-1.2-4.8c-1.1-1.4-2.6-2.4-4.3-2.7
						c-1.7-0.3-3.6-0.2-5.2,0.6c-0.8,0.4-1.5,0.9-2.1,1.5c-0.6,0.6-1,1.4-1.4,2.2c-0.7,1.6-1.1,3.5-1.3,5.3l-0.1,0.6l-0.7,0
						c-6.3-0.5-12.7-0.7-19-1.1l-1.1-0.1l0.1-1.1c0.3-2.6,0.8-5.3,1.6-7.8c0.8-2.6,2.1-5.1,3.8-7.3c1.8-2.2,4.1-3.9,6.5-5.2
						c0.3-0.2,0.6-0.3,1-0.5c0.3-0.1,0.6-0.3,0.9-0.4c0.7-0.3,1.3-0.5,2-0.7c1.3-0.4,2.7-0.7,4-0.9c2.7-0.5,5.3-0.6,8-0.7
						c2.6-0.1,5.3,0,8,0.3c2.7,0.3,5.4,0.7,8,1.6c0.3,0.1,0.6,0.2,1,0.4c0.3,0.1,0.6,0.2,0.9,0.4c0.7,0.3,1.3,0.6,1.9,1
						c1.2,0.7,2.4,1.5,3.5,2.5c1.1,1,2,2.1,2.9,3.2c0.8,1.1,1.6,2.4,2.2,3.7c1.2,2.6,1.8,5.5,1.8,8.4c0,2.8-0.5,5.7-1.5,8.4
						c-1,2.6-2.4,5.1-4.3,7.3c-3.6,4.3-7.8,7.5-12.1,10.5c-2.2,1.5-4.3,2.9-6.4,4.4c-2,1.4-3.9,3.1-5.7,4.9l-1.2-2.8
						c4.9,0.1,9.8,0.2,14.8,0.4l7.4,0.2c2.5,0.1,4.9,0.1,7.4,0.2l0.9,0l0,0.8c-0.2,5.1-0.4,10.3-0.6,15.4l-0.2-0.2l0.1,0V254.6z
						 M149.8,254.6L149.8,254.6l-0.3,0l0-0.2c-0.3-5.1-0.4-10.3-0.6-15.4l0.8,0.8c-2.5,0.1-4.9,0.1-7.4,0.2l-7.4,0.2
						c-4.9,0.1-9.8,0.3-14.8,0.4l-3.9,0.1l2.8-2.9c1.9-1.9,3.7-3.7,5.9-5.4c2.1-1.6,4.2-3.2,6.3-4.6c2.1-1.5,4-3.1,5.9-4.8
						c1.9-1.6,3.7-3.4,5.2-5.3c1.5-1.8,2.7-4,3.5-6.1c0.8-2.2,1.2-4.5,1.2-6.8c0-2.3-0.5-4.6-1.4-6.7c-0.5-1.1-1-2-1.7-3
						c-0.7-0.9-1.4-1.8-2.2-2.6c-0.8-0.8-1.8-1.5-2.8-2.1c-0.5-0.3-1-0.6-1.5-0.8c-0.2-0.1-0.6-0.3-0.9-0.4
						c-0.2-0.1-0.5-0.2-0.8-0.3c-2.2-0.8-4.7-1.3-7.1-1.6c-2.5-0.3-5-0.4-7.5-0.4c-2.5,0-5,0.1-7.5,0.5c-1.2,0.2-2.4,0.4-3.6,0.7
						c-0.6,0.2-1.2,0.3-1.7,0.5c-0.3,0.1-0.6,0.2-0.9,0.3c-0.2,0.1-0.5,0.2-0.8,0.4c-2.2,1-4.2,2.4-5.8,4.2
						c-1.6,1.8-2.8,3.9-3.7,6.2c-0.9,2.3-1.5,4.8-1.9,7.3l-1-1.2c6.3,0.6,12.6,1.3,19,1.9l-0.7,0.6c0.3-1.9,0.7-3.8,1.5-5.7
						c0.4-0.9,0.9-1.8,1.7-2.5c0.7-0.7,1.6-1.4,2.5-1.8c1.9-0.8,4-1,5.9-0.7c1,0.2,2,0.5,2.9,1.1c0.9,0.5,1.6,1.3,2.3,2.1
						c0.6,0.8,1.2,1.7,1.4,2.7c0.1,0.5,0.2,1,0.3,1.6c0,0.5,0,1,0,1.5c-0.2,2.1-1.2,3.9-2.3,5.6c-1.1,1.7-2.6,3.1-4,4.4
						c-1.4,1.3-2.9,2.5-4.4,3.8c-3,2.4-6,4.7-8.8,7.2c-1.4,1.2-2.8,2.5-4.1,3.8c-1.3,1.3-2.6,2.6-3.9,4c-1.2,1.4-2.3,2.8-3.4,4.3
						c-1,1.5-1.9,3.1-2.7,4.7c-1.6,3.2-2.6,6.7-3,10.3l-1.7-1.9c4.7,0,9.5,0.1,14.2,0.2c4.7,0.1,9.5,0.2,14.2,0.3
						c4.7,0.1,9.5,0.3,14.2,0.4c4.7,0.2,9.5,0.4,14.2,0.6V254.6z"/>
				</g>
				<g>
					<g>
						<path class="st0" d="M149.9,254.5l-14.2,0.2l-14.2,0.1H93h-0.5l0.1-0.5c0.8-7.7,4.4-14.9,9.6-20.5
							c5.2-5.6,11.3-10.2,17.4-14.7c1.5-1.1,3-2.3,4.4-3.6c1.4-1.2,2.8-2.5,3.9-4s2-3.2,2.2-5.1c0.2-1.8-0.2-3.8-1.4-5.2
							c-1.1-1.5-2.8-2.5-4.6-2.8c-1.8-0.3-3.8-0.2-5.5,0.6c-0.8,0.4-1.6,1-2.2,1.6c-0.6,0.7-1.1,1.5-1.5,2.3
							c-0.7,1.7-1.1,3.6-1.4,5.4v0.2h-0.2l-19-1.5H94v-0.3c0.4-2.6,0.9-5.1,1.7-7.6c0.8-2.5,2-4.9,3.8-6.9c1.7-2,3.9-3.6,6.3-4.8
							c2.4-1.2,5-1.9,7.5-2.3c2.6-0.4,5.2-0.6,7.8-0.6s5.2,0.1,7.8,0.3c2.6,0.3,5.2,0.7,7.7,1.6c2.5,0.9,4.9,2.2,6.8,4
							c2,1.8,3.6,4,4.7,6.4s1.6,5.1,1.6,7.8s-0.5,5.3-1.4,7.8c-1,2.5-2.3,4.8-4,6.8c-3.4,4.1-7.5,7.3-11.8,10.3
							c-2.1,1.5-4.3,2.9-6.3,4.5c-2.1,1.5-4,3.3-5.8,5.1l-0.3-0.6l29.5,0.2h0.2v0.2L149.9,254.5z M149.8,254.4l-0.2-15.4l0.2,0.2
							l-29.5,0.2h-0.9l0.7-0.7c1.8-1.8,3.7-3.6,5.8-5.2c2.1-1.6,4.2-3.1,6.3-4.6c4.2-3,8.3-6.2,11.5-10.2c3.2-3.9,5.2-8.9,5.2-14
							c0-5.1-2.2-10-5.9-13.4c-1.9-1.7-4.1-3-6.5-3.8c-2.4-0.9-4.9-1.3-7.5-1.6c-2.6-0.3-5.1-0.4-7.7-0.4c-2.6,0-5.1,0.2-7.7,0.5
							c-2.5,0.4-5,1-7.3,2.1c-2.3,1.1-4.4,2.6-6.1,4.5c-1.7,1.9-2.9,4.2-3.7,6.6c-0.8,2.4-1.4,5-1.8,7.5l-0.2-0.3l18.9,1.6l-0.2,0.2
							c0.3-1.9,0.7-3.8,1.5-5.5c0.4-0.9,0.9-1.7,1.6-2.4c0.7-0.7,1.5-1.3,2.4-1.7c1.8-0.8,3.8-1,5.7-0.6c1.9,0.3,3.7,1.4,4.9,2.9
							c1.2,1.5,1.8,3.6,1.5,5.5c-0.2,1.9-1.2,3.7-2.3,5.3c-1.1,1.6-2.5,2.9-4,4.1c-1.4,1.3-2.9,2.5-4.4,3.6
							c-6.1,4.6-12.1,9.2-17.2,14.8c-2.6,2.8-4.7,5.9-6.3,9.3c-1.6,3.4-2.7,7-3.1,10.8L93,254l28.4,0.1l14.2,0.1L149.8,254.4z"/>
						<g>
							<path class="st6" d="M149.9,254.7c-4.8,0.3-9.6,0.6-14.3,0.8c-4.8,0.2-9.6,0.4-14.4,0.5c-4.8,0.1-9.6,0.2-14.4,0.3
								c-4.8,0.1-9.6,0.2-14.4,0.2l-2.1,0l0.4-2.1l0.1-0.5l0,0.2c0.6-6,2.8-11.7,6.1-16.7c1.6-2.5,3.7-4.7,5.8-6.7
								c2.1-2,4.3-3.9,6.6-5.7c2.3-1.8,4.6-3.5,6.9-5.1l3.5-2.5c1.1-0.8,2.2-1.7,3.3-2.6c0.6-0.5,1.1-0.9,1.6-1.4
								c0.5-0.5,1-0.9,1.5-1.4c0.9-1,1.8-2.1,2.4-3.2c0.6-1.2,0.9-2.5,0.9-3.7c0-1.3-0.4-2.6-1.2-3.5l0,0l0,0
								c-0.6-0.9-1.4-1.5-2.4-2c-0.9-0.5-2-0.7-3.1-0.7c-1.1,0-2.2,0.1-3.2,0.4c-1,0.3-1.9,1-2.6,1.7l0,0c-0.3,0.3-0.5,0.7-0.8,1
								c-0.2,0.4-0.4,0.7-0.6,1.1l0,0c-0.7,1.7-1,3.5-1.3,5.3l0-0.1l0,0.2l0,0.7l-0.7,0l-0.2,0h0l0,0c-3.2-0.2-6.3-0.4-9.5-0.6
								l-9.5-0.5l0.1,0l-0.3,0l-1,0l0-1.1l0-0.3l0-0.1l0-0.1c0.4-2.6,0.8-5.3,1.6-7.9c0.8-2.6,2-5.3,3.9-7.4
								c3.6-4.4,9.1-6.9,14.5-7.8c2.7-0.5,5.4-0.7,8.1-0.7l2,0l2,0l2,0.1l2.1,0.1c2.7,0.3,5.4,0.7,8.2,1.7c2.6,0.9,5.3,2.3,7.4,4.3
								c2.1,1.9,3.9,4.3,5.2,6.9c1.3,2.7,1.8,5.6,1.8,8.5c0,2.9-0.5,5.8-1.4,8.5c-1.1,2.7-2.4,5.2-4.3,7.4
								c-3.5,4.3-7.9,7.7-12.3,10.6c-2.2,1.5-4.4,2.9-6.4,4.4c-0.6,0.5-1.1,0.8-1.6,1.2c-0.5,0.4-1,0.8-1.5,1.2
								c-1,0.8-1.9,1.7-2.8,2.6l-1.7,1.6l-1-2l-0.3-0.6l-1.2-2.4l2.6,0.1c4.9,0.1,9.9,0.3,14.8,0.5l7.4,0.3c2.5,0.1,5,0.2,7.4,0.3
								l0.9,0l0,0.8c-0.2,5.3-0.3,10.5-0.5,15.8l0,0.2L149.9,254.7z M149.7,254.3c-0.3-5.2-0.5-10.4-0.7-15.6l0.8,0.8
								c-2.5,0.1-5,0.1-7.4,0.2l-7.4,0.2c-5,0.1-9.9,0.2-14.9,0.3l1.5-2.4l0.3,0.6l-2.6-0.4c0.9-1,1.9-1.9,2.9-2.8
								c0.5-0.5,1-0.9,1.5-1.4c0.5-0.5,1.1-0.9,1.6-1.2c2.2-1.8,4.3-3.2,6.4-4.7c4.2-3,8.2-6.2,11.3-10.2c1.5-1.8,2.7-4,3.5-6.2
								c0.8-2.3,1.2-4.6,1.2-7c0-2.4-0.5-4.7-1.4-6.8c-1-2.1-2.3-4.1-4.1-5.7c-1.7-1.6-3.7-2.8-6-3.6c-2.2-0.8-4.7-1.3-7.2-1.6
								l-1.9-0.1l-1.9-0.1l-1.9-0.1l-2,0c-2.5,0-5.1,0.1-7.6,0.5c-2.5,0.4-4.9,1-7.1,2c-2.2,1.1-4.2,2.5-5.9,4.3
								c-3.4,3.5-4.6,8.7-5.6,13.7l0-0.2l0,0.3l-1-1l0.3,0l0.1,0l0,0l9.5,1c3.2,0.3,6.3,0.6,9.5,0.9l-0.1,0l0.2,0l-0.7,0.7l0-0.2
								l0-0.1l0,0c0.3-1.9,0.7-3.7,1.5-5.5l0,0l0,0c0.2-0.4,0.5-0.8,0.7-1.3c0.3-0.4,0.6-0.8,0.9-1.2l0,0l0,0c0.9-0.9,1.9-1.6,3.1-2
								c1.2-0.4,2.4-0.6,3.6-0.5c1.2,0,2.5,0.3,3.6,0.8c1.1,0.5,2.1,1.3,2.9,2.4l0,0c2.1,2.5,2.1,6.1,0.8,8.8
								c-1.2,2.8-3.4,5-5.5,6.9c-1,1-2.2,2-3.3,2.9l-3.4,2.6c-2.2,1.8-4.4,3.5-6.5,5.4c-2.1,1.8-4.2,3.8-6.1,5.8c-2,2-3.7,4-5.2,6.3
								c-3,4.5-5.1,9.7-5.7,15l0,0.1l0,0.1l-0.1,0.5l-1.7-2.1c4.8,0,9.6,0.1,14.4,0.2c4.8,0.1,9.6,0.2,14.4,0.3
								c4.8,0.1,9.6,0.2,14.3,0.3C140.3,254,145,254.1,149.7,254.3z"/>
							<path class="st6" d="M149.6,254.2c-0.3-5.1-0.6-10.1-0.9-15.2l-0.1-2.1l1.6,1.5l0.2,0.2l1.5,1.4l-2.2,0.1l-7.6,0.3l-7.6,0.2
								c-5.1,0.2-10.1,0.3-15.2,0.4l-3.9,0.1l2.7-2.8c1.8-1.8,3.7-3.8,5.7-5.4c1.1-0.9,2.1-1.6,3.1-2.4l3.1-2.3
								c4.2-3,8.2-6,11.4-9.7l0.6-0.7l0.6-0.7c0.4-0.5,0.7-1,1-1.4c0.7-1,1.2-2,1.7-3.1c1-2.2,1.6-4.5,1.8-6.9
								c0.4-4.7-1.4-9.6-4.8-13.1c-3.4-3.5-8.4-5.2-13.4-5.8c-2.5-0.4-5.1-0.5-7.6-0.5c-2.6,0-5.1,0.1-7.6,0.5c-2.5,0.4-5,1-7.2,2
								c-2.2,1.1-4.3,2.6-5.9,4.4c-3.3,3.7-4.3,8.9-5,13.8l-0.4,2.7l-1.6-2.3l-0.2-0.3l-1.3-1.9l2.3,0.1l18.9,1.1l3.4,0.2l-2.4,2.5
								l-0.2,0.2l-3.4,3.5l0.7-4.9c0.2-1.7,0.6-3.5,1.3-5.3l0.3-0.7c0.1-0.2,0.2-0.4,0.3-0.6c0.2-0.5,0.5-0.9,0.8-1.3
								c0.6-0.9,1.4-1.5,2.2-2.2c1.8-1.2,3.7-1.8,5.8-1.9c0.5,0,1,0,1.5,0.1c0.3,0,0.5,0.1,0.8,0.1l0.6,0.1c1.1,0.2,2,0.6,3,1.1
								c0.9,0.5,1.7,1.2,2.4,2l0.3,0.3l0.2,0.3c0.1,0.2,0.3,0.5,0.5,0.7c0.3,0.5,0.5,0.9,0.7,1.4c0.4,1,0.6,2,0.6,3.1
								c0,0.3,0,0.5,0,0.8c0,0.1,0,0.3,0,0.4l0,0.3c0,0.2-0.1,0.5-0.1,0.8c-0.1,0.3-0.1,0.5-0.2,0.8c-0.6,2-1.6,3.6-2.7,5.1
								c-1.2,1.6-2.6,2.8-3.9,4l0.1-0.1c-1.6,1.5-3.4,2.9-5.1,4.2c-1.7,1.3-3.4,2.6-5,3.9c-3.3,2.6-6.5,5.3-9.4,8.2
								c-0.7,0.7-1.4,1.5-2.1,2.2c-0.7,0.8-1.3,1.5-2,2.3c-1.2,1.6-2.3,3.3-3.3,5c-1.9,3.6-3.2,7.4-3.7,11.4l-0.3,2.9l-2.4-1.5
								l-0.5-0.3l-5.8-3.6l6.7,0.1l14.2,0.3c4.7,0.1,9.5,0.3,14.2,0.4c4.7,0.2,9.5,0.3,14.2,0.5
								C140.3,253.7,144.9,253.9,149.6,254.2z M149.8,254.6c-4.7,0.2-9.5,0.3-14.2,0.4c-4.7,0.2-9.5,0.2-14.2,0.3
								c-4.7,0.1-9.5,0.3-14.2,0.3L93,255.8l1-3.4l0.5,0.3l-2.8,1.4c0.4-4.5,1.8-8.9,3.8-12.8c1-2,2.2-3.9,3.6-5.7
								c0.7-0.9,1.4-1.8,2.1-2.6c0.7-0.8,1.5-1.6,2.2-2.4c3.1-3.1,6.4-5.9,9.8-8.6c1.7-1.3,3.4-2.6,5.1-3.9c1.7-1.3,3.3-2.5,4.8-3.8
								l0.1-0.1l0,0c1.3-1,2.4-2.1,3.3-3.1c0.9-1.3,1.8-2.6,2.2-3.8c0.9-2.5-0.1-5.2-2.5-6.6c-0.5-0.3-1.2-0.6-1.7-0.7l-0.6-0.1
								c-0.2,0-0.3-0.1-0.5-0.1c-0.3,0-0.7-0.1-1-0.1c-1.3,0-2.8,0.4-3.8,1.1c-0.5,0.4-1.1,0.9-1.5,1.4c-0.2,0.3-0.4,0.5-0.5,0.8
								c-0.1,0.1-0.2,0.3-0.3,0.5l-0.2,0.5c-0.6,1.4-0.9,2.9-1.2,4.5l-2.7-1.4l0.2-0.2l1,2.7l-18.9-2.1l1-1.7l0.2,0.3l-2,0.4
								c0.5-2.6,1.1-5.1,2-7.6c0.9-2.5,2.2-4.9,4.1-6.9c1.8-2,4.1-3.5,6.5-4.6c2.5-1.1,5-1.7,7.6-2.1c5.2-0.6,10.4-0.6,15.6-0.1
								c2.6,0.2,5.2,0.7,7.7,1.6c2.6,0.8,4.9,2.2,7,4.1c4,3.7,6.4,9.2,6.3,14.8c-0.1,2.8-0.6,5.5-1.7,8.1c-0.5,1.3-1.2,2.5-1.9,3.7
								c-0.4,0.6-0.8,1.2-1.2,1.7l-0.6,0.8c-0.2,0.3-0.4,0.5-0.6,0.8c-3.5,4.1-7.8,7.3-12,10.3l-3.1,2.2c-1,0.7-2.1,1.5-3,2.3
								c-1.9,1.5-3.8,3.2-5.6,5.1l-1.1-2.7l7.6,0.1l7.6,0.1l7.6,0.1l7.6,0.2l-0.6,1.5l-0.2-0.2l1.5-0.6c-0.1,5.1-0.3,10.3-0.5,15.4
								l0,0.2L149.8,254.6z"/>
						</g>
					</g>
				</g>
			</g>
		</g>
	</g>
</g>
<g>
	<g>
		<g>
			<g>
				<g>
					<path class="st0" d="M495.7,206l-17.9-3.2c1.5-5.7,4.3-10.1,8.6-13.1c4.2-3,10.2-4.6,18-4.6c8.9,0,15.3,1.7,19.3,5
						s5.9,7.5,5.9,12.5c0,2.9-0.8,5.6-2.4,8c-1.6,2.4-4,4.5-7.3,6.3c2.6,0.7,4.6,1.4,6,2.3c2.3,1.4,4,3.2,5.3,5.5
						c1.3,2.3,1.9,5,1.9,8.2c0,4-1,7.8-3.1,11.4s-5.1,6.4-9,8.4s-9,3-15.4,3c-6.2,0-11.1-0.7-14.7-2.2c-3.6-1.5-6.5-3.6-8.8-6.4
						c-2.3-2.8-4.1-6.3-5.3-10.6l18.9-2.5c0.7,3.8,1.9,6.5,3.5,7.9c1.6,1.5,3.6,2.2,6,2.2c2.5,0,4.7-0.9,6.3-2.8
						c1.7-1.9,2.5-4.3,2.5-7.4c0-3.2-0.8-5.6-2.4-7.3c-1.6-1.7-3.8-2.6-6.6-2.6c-1.5,0-3.5,0.4-6.1,1.1l1-13.5
						c1.1,0.2,1.9,0.2,2.5,0.2c2.5,0,4.5-0.8,6.2-2.4c1.7-1.6,2.5-3.5,2.5-5.6c0-2.1-0.6-3.7-1.9-5c-1.2-1.2-2.9-1.9-5.1-1.9
						c-2.2,0-4,0.7-5.4,2C497.2,200.3,496.2,202.6,495.7,206z"/>
					<path class="st6" d="M495.7,206.2c-3-0.4-6-0.8-9-1.2l-9-1.3l-1-0.1l0.3-1.1c0.9-3.6,2.3-7.3,4.8-10.3c1.2-1.5,2.7-2.9,4.3-4
						c1.6-1.2,3.4-2,5.2-2.7c3.6-1.3,7.4-1.9,11.2-2.1c3.7-0.1,7.5,0,11.3,0.6c3.8,0.6,7.6,1.9,10.9,4.4c3.2,2.4,5.6,6.1,6.3,10.1
						c0.2,1,0.3,2,0.3,3l0,0.7l0,0.4l0,0.3c0,0.5-0.1,1-0.1,1.5c-0.3,2-1,3.9-2,5.7c-2,3.5-5.3,5.9-8.6,7.6l-0.2-1.9
						c2,0.6,4.1,1.3,6.1,2.5c1.8,1.2,3.5,2.7,4.7,4.6c1.3,1.8,2.1,3.9,2.4,6.1c0.4,2.2,0.4,4.3,0.2,6.5c-0.5,4.3-2.2,8.4-4.8,11.8
						c-1.3,1.7-2.9,3.2-4.7,4.5c-1.8,1.3-3.7,2.3-5.8,3c-4.1,1.5-8.4,1.9-12.7,2.1c-4.2,0.1-8.6-0.1-12.9-1.2
						c-4.3-1.2-8.4-3.5-11.4-6.9c-3-3.4-5-7.5-6.2-11.7l-0.6-2.1l2.2-0.3l18.9-2.7l1.9-0.3l0.4,1.9c0.4,2,1,3.9,1.9,5.4
						c0.4,0.7,0.9,1.2,1.6,1.8c0.6,0.5,1.3,0.8,2.1,1c0.4,0.1,0.8,0.2,1.3,0.2c0.2,0,0.5,0,0.6,0l0.4,0l0.3,0
						c0.8-0.1,1.6-0.3,2.3-0.6c0.3-0.2,0.7-0.4,1-0.6c0.1-0.1,0.3-0.3,0.4-0.4c0.1-0.1,0.3-0.3,0.4-0.5c0.6-0.6,1-1.3,1.3-2.1
						c0.3-0.8,0.5-1.7,0.6-2.6c0.1-0.9,0.1-1.9,0-2.8c-0.1-0.9-0.3-1.8-0.6-2.5c-0.3-0.8-0.8-1.4-1.4-2c-1.1-1.1-2.8-1.7-4.6-1.7
						c-1.7-0.1-3.8,0.4-5.9,0.9l-2.5,0.6l0.2-2.5l1.3-13.5l0.2-1.8l1.7,0.3c0.7,0.2,1.5,0.2,2.2,0.2c0.5,0,0.7,0,1.1,0
						c0.4,0,0.7-0.1,1-0.2c1.4-0.3,2.6-1.1,3.6-2.1c1-1,1.6-2.3,1.8-3.8c0.1-1.5-0.1-3-0.9-4.1c-0.1-0.1-0.2-0.3-0.3-0.4l-0.2-0.2
						l-0.2-0.2c-0.2-0.2-0.5-0.5-0.8-0.6c-0.6-0.4-1.3-0.6-2.1-0.8c-1.5-0.3-3.1-0.2-4.6,0.4c-1.4,0.6-2.6,1.7-3.4,3.1
						c-0.8,1.4-1.3,3-1.6,4.7l0,0.2L495.7,206.2z M495.5,205.8c0.2-1.6,0.5-3.3,1.2-4.8c0.7-1.6,2-3.1,3.6-3.9
						c1.7-0.8,3.5-1.1,5.3-0.9c0.9,0.1,1.9,0.4,2.7,0.8c0.4,0.2,0.8,0.5,1.2,0.8l0.2,0.2l0.3,0.3c0.2,0.2,0.3,0.4,0.5,0.5
						c0.6,0.8,1.1,1.7,1.3,2.6c0.3,1,0.3,1.9,0.3,2.8c0,1.9-0.8,3.9-2.1,5.4c-1.2,1.4-2.9,2.6-4.8,3.2c-1.9,0.5-3.8,0.5-5.7,0.3
						l1.8-1.4l-0.7,13.5l-2.3-1.9c1.1-0.3,2.1-0.6,3.3-0.8c1.1-0.2,2.3-0.4,3.6-0.4c2.5,0,5.2,0.7,7.3,2.7c0.9,0.8,1.8,2,2.3,3.2
						c0.5,1.2,0.9,2.5,1,3.7c0.2,1.2,0.2,2.4,0.1,3.6c-0.1,1.2-0.3,2.5-0.8,3.7c-0.4,1.2-1.1,2.4-2,3.4c-0.2,0.2-0.4,0.5-0.6,0.7
						c-0.2,0.2-0.5,0.5-0.8,0.7c-0.5,0.4-1.1,0.8-1.7,1.2c-1.2,0.6-2.6,1-3.9,1.1l-0.5,0l-0.4,0c-0.4,0-0.7,0-1,0
						c-0.6,0-1.3-0.1-2-0.3c-1.3-0.3-2.6-0.9-3.7-1.7c-0.3-0.2-0.6-0.5-0.8-0.6l-0.4-0.3c-0.1-0.1-0.3-0.3-0.4-0.4
						c-0.5-0.5-0.9-1.1-1.2-1.7c-1.3-2.3-1.8-4.6-2.3-6.8l2.3,1.7l-18.9,2.3l1.6-2.4c1,3.9,2.7,7.5,5.2,10.5
						c2.5,2.9,5.9,5.1,9.6,6.3c3.8,1.2,7.9,1.6,12.1,1.7c4.1,0.1,8.3-0.2,12.1-1.4c3.9-1.2,7.4-3.5,10-6.6c2.6-3.2,4.2-7.1,4.7-11.1
						c0.4-4-0.1-8.3-2.6-11.6c-1.2-1.6-2.7-3-4.4-3.9c-1.7-0.9-3.7-1.5-5.7-2l-2.5-0.6l2.3-1.3c3-1.8,5.7-4.1,7.3-7.1
						c0.8-1.5,1.2-3.1,1.4-4.7c0-0.4,0.1-0.8,0-1.2l0-0.3l0-0.3l0-0.6c-0.1-0.8-0.2-1.7-0.4-2.4c-0.4-1.6-1-3.1-1.9-4.4
						c-0.9-1.3-2.1-2.5-3.4-3.5c-2.6-2-5.9-3.1-9.3-3.7c-3.4-0.6-7-0.8-10.6-0.7c-3.5,0.1-7,0.5-10.3,1.6c-1.6,0.6-3.2,1.3-4.6,2.2
						c-1.5,0.9-2.8,2-3.9,3.3c-2.3,2.5-3.9,5.7-4.9,9.1l-0.8-1.2l8.9,1.9C489.8,204.4,492.6,205.1,495.5,205.8z"/>
				</g>
				<g>
					<g>
						<path class="st0" d="M495.8,206.1l-18-3h-0.3l0.1-0.3c0.9-3.6,2.5-7,4.9-9.8c1.2-1.4,2.6-2.7,4.1-3.7c1.5-1.1,3.2-1.9,5-2.5
							c3.5-1.2,7.2-1.7,10.9-1.9c3.7-0.1,7.4,0,11,0.6c3.6,0.6,7.3,1.8,10.2,4.1c2.9,2.3,5.2,5.6,6,9.3c0.8,3.6,0.4,7.6-1.5,10.9
							c-1.9,3.3-4.9,5.7-8.1,7.4l-0.1-0.5c2,0.5,4.1,1.2,5.9,2.2c1.8,1.1,3.4,2.6,4.6,4.3c1.2,1.7,2,3.8,2.4,5.8
							c0.4,2.1,0.4,4.2,0.2,6.3c-0.5,4.2-2.2,8.3-4.7,11.6c-2.6,3.3-6.3,5.8-10.3,7.1s-8.3,1.7-12.5,1.8c-4.2,0-8.5-0.3-12.6-1.4
							c-4.1-1.2-7.9-3.5-10.7-6.7c-2.8-3.2-4.7-7.2-5.9-11.2l-0.2-0.5l0.5-0.1l18.9-2.6l0.5-0.1l0.1,0.5c0.4,2.1,1,4.2,2,6
							c1,1.8,2.7,3.1,4.7,3.5c2,0.4,4.2,0.3,6-0.7c1.8-1,3.2-2.6,3.9-4.6c0.7-1.9,0.8-4.1,0.6-6.2c-0.2-2.1-1-4.1-2.6-5.4
							c-1.5-1.4-3.5-2.1-5.6-2.1c-2.1,0-4.2,0.5-6.3,1.1l-0.6,0.2v-0.6l1.1-13.5V211l0.4,0.1c0.8,0.1,1.7,0.2,2.5,0.2
							s1.6-0.1,2.4-0.3c1.6-0.4,3-1.3,4.1-2.5c1.1-1.2,1.8-2.8,1.9-4.4c0.1-1.6-0.2-3.3-1.2-4.6s-2.5-2.1-4.1-2.4
							c-1.6-0.2-3.3-0.1-4.8,0.5c-1.5,0.7-2.7,1.9-3.4,3.4C496.4,202.7,496,204.3,495.8,206.1L495.8,206.1z M495.7,205.9
							c0.2-1.6,0.6-3.3,1.3-4.8c0.7-1.6,1.9-2.9,3.5-3.6s3.3-0.9,5-0.7c0.9,0.1,1.7,0.4,2.5,0.8c0.8,0.4,1.4,1,2,1.7
							c1.1,1.4,1.4,3.2,1.3,4.9c-0.1,1.7-0.8,3.5-2,4.7c-1.1,1.3-2.7,2.3-4.4,2.8c-0.8,0.2-1.7,0.3-2.6,0.3c-0.9,0-1.7-0.1-2.6-0.2
							l0.4-0.3l-0.9,13.5l-0.5-0.4c2.1-0.6,4.2-1.2,6.5-1.2c2.2,0,4.6,0.7,6.3,2.3c1.7,1.5,2.6,3.8,2.9,6c0.3,2.2,0.2,4.5-0.6,6.7
							c-0.8,2.1-2.3,4-4.4,5.1c-2.1,1.1-4.5,1.3-6.7,0.8s-4.3-2-5.4-4c-1.1-2-1.7-4.1-2.1-6.3l0.6,0.4l-18.9,2.5l0.4-0.6
							c1.1,4,2.9,7.8,5.6,10.9c2.7,3.1,6.3,5.4,10.3,6.5c4,1.2,8.2,1.5,12.4,1.5c4.2,0,8.4-0.4,12.3-1.6c3.9-1.3,7.6-3.7,10.2-6.9
							c2.6-3.3,4.3-7.3,4.7-11.4c0.4-4.1-0.1-8.5-2.6-11.9c-1.2-1.7-2.8-3.1-4.5-4.2c-1.8-1-3.8-1.6-5.8-2.1l-0.6-0.2l0.6-0.3
							c3.1-1.8,6.1-4.1,7.8-7.3c1.8-3.1,2-6.9,1.3-10.4s-2.9-6.6-5.7-8.8s-6.3-3.3-9.9-4c-3.6-0.6-7.2-0.8-10.8-0.7
							c-3.6,0.1-7.2,0.6-10.6,1.8c-1.7,0.6-3.3,1.4-4.8,2.4s-2.8,2.2-4,3.6c-2.4,2.7-3.9,6.1-4.9,9.6l-0.2-0.3L495.7,205.9z"/>
						<g>
							<path class="st6" d="M495.8,206.3c-3-0.3-6.1-0.7-9.1-1.1l-9.1-1.2l0.2,0l-0.3,0l-1.3,0l0.4-1.3l0.1-0.3l0,0.1
								c0.8-3.7,2.4-7.4,4.9-10.5c1.2-1.5,2.7-2.9,4.3-4c1.6-1.2,3.5-2.1,5.3-2.7c1.8-0.6,3.7-1.1,5.6-1.5c1.9-0.3,3.8-0.5,5.8-0.7
								c3.8-0.1,7.6,0,11.5,0.6c3.8,0.6,7.8,1.9,11,4.6c3.1,2.6,5.5,6.2,6.3,10.3c0.7,3.9,0.2,8.3-2,11.8c-2.1,3.5-5.4,6-8.8,7.7
								l-1.3,0.6l-0.2-1.3l-0.1-0.5l-0.3-1.6l1.5,0.4c2.1,0.6,4.1,1.3,6.1,2.5c1.8,1.2,3.5,2.8,4.7,4.6c1.2,1.8,2,3.9,2.4,6.1
								c0.4,2.1,0.4,4.3,0.1,6.5c-0.5,4.3-2.2,8.4-4.8,12c-1.3,1.7-3,3.2-4.8,4.5c-1.8,1.3-3.8,2.3-5.9,3c-4.1,1.4-8.5,1.9-12.8,2.1
								c-4.3,0.1-8.6-0.1-13-1.2c-4.3-1.2-8.4-3.5-11.5-7c-3-3.4-5-7.5-6.3-11.7l0.1,0.2l-0.2-0.5l-0.9-2.1l2.2-0.5l0.3-0.1l0.2,0
								l0.3,0l0.6-0.1l1.2-0.2l2.5-0.4l5-0.7l5-0.7l2.5-0.4l1.2-0.2l0.6-0.1l0.1,0l0,0c-0.2,0-0.1,0-0.1,0l0,0l0,0l0,0l0.2,0
								l0.3-0.1l2-0.4l0.4,2c0.1,0.5,0.2,1.1,0.3,1.5c0.1,0.5,0.2,0.9,0.4,1.4c0.3,0.9,0.6,1.8,1,2.6c0.7,1.5,1.9,2.5,3.3,2.8
								c1.6,0.4,3.4,0.3,4.7-0.4c1.4-0.8,2.5-2,3-3.6c0.6-1.6,0.6-3.5,0.5-5.4c-0.1-0.8-0.3-1.7-0.7-2.3c-0.2-0.3-0.4-0.7-0.6-0.9
								c-0.1-0.1-0.2-0.3-0.4-0.4l-0.6-0.5c-0.5-0.5-1.3-0.9-2-1.1c-0.8-0.2-1.6-0.3-2.5-0.3c-1.8,0.1-3.9,0.5-5.7,1.1l-2.4,0.7
								l0-2.5l0-0.6l0-0.1l0,0l1.4-13.5l0,0.1l0-0.4l0-2l1.9,0.5l0.4,0.1l-0.2,0c1.6,0.2,3,0.4,4.3,0.1c1.4-0.3,2.6-1,3.6-2
								c1-1,1.6-2.3,1.7-3.7c0.1-1.5-0.1-2.9-1-4c-0.8-1.1-2.2-1.8-3.6-2.1c-1.5-0.2-3.1-0.1-4.5,0.4c-1.3,0.6-2.5,1.8-3.1,3.2
								c-0.7,1.4-1.2,3-1.4,4.6l0,0.2L495.8,206.3z M495.6,205.9c0.1-1.6,0.4-3.2,1-4.7c0.6-1.6,1.8-3.1,3.4-4
								c1.6-0.9,3.4-1,5.2-0.9c1.9,0.2,3.6,1,4.9,2.5c1.3,1.5,1.7,3.5,1.7,5.3c0,1.9-0.8,3.8-2,5.2c-1.2,1.4-2.9,2.6-4.7,3.1
								c-1.9,0.6-3.8,0.5-5.5,0.3l-0.1,0l-0.1,0l-0.4-0.1l1.9-1.5l0,0.4v0l0,0.1l-0.8,13.5l0-0.1l0,0.6l-2.4-1.7l0.4-0.1l0.2-0.1
								l0.3-0.1l0.8-0.2c0.5-0.1,1.1-0.3,1.6-0.4c1.1-0.3,2.2-0.5,3.5-0.5c2.4-0.2,5.2,0.4,7.3,2.2l0.6,0.6c0.3,0.2,0.5,0.5,0.7,0.7
								c0.5,0.5,0.8,1.1,1.1,1.7c0.6,1.2,1,2.5,1.1,3.7c0.3,2.3,0.3,4.7-0.6,7.2c-0.8,2.5-2.6,4.7-4.9,6c-1.2,0.7-2.6,1-3.9,1.1
								c-1.3,0.1-2.6,0-3.8-0.3c-1.4-0.3-2.6-1-3.7-1.8c-0.5-0.4-1-0.9-1.4-1.5c-0.1-0.1-0.2-0.3-0.3-0.4c-0.1-0.1-0.2-0.4-0.3-0.4
								l-0.1-0.2l-0.1-0.1l-0.1-0.1l-0.2-0.4c-0.6-1.1-1-2.2-1.3-3.3c-0.2-0.6-0.3-1.1-0.4-1.7c-0.1-0.6-0.2-1.1-0.3-1.6l2.4,1.6
								l-0.3,0.1l-0.2,0l-0.2,0l-0.1,0l-0.6,0.1l-1.2,0.2l-2.5,0.3l-5,0.6l-5,0.6l-2.5,0.3l-1.2,0.2l-0.6,0.1l-0.1,0l0,0
								c0.2,0,0.1,0,0.1,0l0,0l0,0l0,0l-0.2,0l-0.3,0.1l1.4-2.6l0.2,0.5l0,0.1l0,0.1c1.1,3.9,2.8,7.5,5.4,10.6
								c2.5,2.9,5.9,5.2,9.7,6.4c1.8,0.6,3.9,1,5.9,1.2c2,0.3,4.1,0.4,6.2,0.5c4.1,0,8.3-0.3,12.3-1.4c3.9-1.1,7.5-3.4,10.1-6.6
								c2.5-3.2,4.2-7.2,4.7-11.3c0.2-2,0.2-4.1-0.2-6.1c-0.4-2-1.2-3.9-2.4-5.5c-1.2-1.6-2.7-3-4.5-4c-1.7-0.9-3.7-1.5-5.7-1.9
								l1.2-1.2l0.1,0.5l-1.5-0.7c3.1-1.8,5.8-4.2,7.4-7.2c1.6-3,1.9-6.5,1.1-9.8c-0.7-3.2-2.8-6.1-5.4-8.2
								c-2.5-2.1-5.9-3.2-9.4-3.8c-3.5-0.6-7.1-0.8-10.8-0.7c-3.5,0.1-7.1,0.6-10.5,1.6c-1.7,0.5-3.2,1.2-4.6,2.2
								c-1.5,1-2.8,2.1-4,3.4c-2.3,2.6-4,5.8-5,9.2l0,0.1l0,0l-0.1,0.3l-0.9-1.3l0.3,0l0.1,0l0,0l8.9,1.8
								C489.8,204.6,492.7,205.2,495.6,205.9z"/>
							<path class="st6" d="M495.5,205.7c0.1-1.2,0.3-2.5,0.7-3.6c0.4-1.3,1-2.5,1.9-3.6c0.5-0.5,1-1,1.6-1.3
								c0.2-0.1,0.3-0.2,0.5-0.3c0.1-0.1,0.3-0.1,0.5-0.2c0.3-0.1,0.7-0.3,1-0.3c1.3-0.4,2.8-0.5,4.1-0.4c0.8,0.1,1.5,0.3,2.1,0.6
								c0.3,0.1,0.6,0.3,1,0.5c0.4,0.2,0.6,0.4,0.9,0.7c0.3,0.2,0.5,0.5,0.8,0.8l0.1,0.1l0,0l0,0l0.1,0.1l0.1,0.2
								c0.1,0.1,0.2,0.3,0.3,0.5c0.4,0.7,0.7,1.4,0.9,2.1c0.7,2.8,0.2,6-2,8.4l0.1-0.1c-1.3,1.6-3.1,2.7-5,3.3l-0.8,0.2l-0.8,0.1
								c-0.5,0.1-1,0.1-1.5,0.1l-0.7,0l-0.8,0l-1.3-0.1l-3.9-0.4l3.1-2.4l0.4-0.3l2.7-2.1l-0.2,3.4c-0.2,4.5-0.4,9-0.7,13.5
								l-0.2,3.3l-2.6-2l-0.5-0.4l-2.6-2.1l3.2-0.9c2.2-0.6,4.6-1.3,7.2-1.3c1.3,0,2.6,0.2,3.9,0.7c1.3,0.4,2.5,1.2,3.5,2.1
								c1,0.9,1.8,2.1,2.3,3.4c0.5,1.2,0.9,2.5,1,3.8c0.3,2.5,0.1,5.1-0.9,7.6c-1,2.4-2.8,4.5-5.3,5.7c-2.3,1.1-5.1,1.3-7.6,0.7
								c-2.6-0.7-4.8-2.3-6.1-4.6c-1.2-2.2-1.8-4.5-2.1-6.8l-0.3-2.3l1.8,1.3l0.6,0.4l2.1,1.5l-2.5,0.3c-3.2,0.3-6.3,0.7-9.5,1
								c-3.2,0.4-6.3,0.7-9.5,1.1l-1.4,0.2l0.8-1.1l0.4-0.6l0.8-1.1l0.3,1.3c1,3.9,2.9,7.7,5.5,10.7c2.7,3,6.2,5.2,10.2,6.1
								c3.9,1.1,8,1.2,12.1,1.1c2-0.1,4.1-0.2,6.1-0.5c2-0.3,4-0.8,5.8-1.4c1.9-0.7,3.6-1.6,5.2-2.7c1.6-1.1,3-2.5,4.1-3.9
								c2.4-3.1,3.8-6.8,4.2-10.5c0.4-3.8-0.2-7.8-2.3-10.6c-1.1-1.5-2.4-2.7-4-3.7c-0.6-0.3-1.5-0.7-2.4-1
								c-0.9-0.3-1.8-0.6-2.8-0.8l-0.1,0l-0.1,0l-0.6-0.2l-4.8-1.5l4.5-2.3c1.4-0.7,2.8-1.7,4.1-2.8c1.3-1,2.3-2.2,3.1-3.5
								c0.2-0.3,0.4-0.7,0.6-1.1c0.1-0.3,0.3-0.6,0.4-1c0.3-0.7,0.4-1.4,0.5-2.2c0.2-1.5,0.1-3.1-0.1-4.7c-0.5-3-2.3-5.8-4.7-7.9
								c-2.4-2-5.6-3.1-9-3.8c-3.3-0.6-6.9-0.9-10.4-0.9c-3.5,0-7,0.4-10.2,1.5c-1.6,0.5-3.1,1.2-4.6,2.1c-1.4,0.9-2.7,2-3.9,3.3
								c-2.4,2.5-3.9,5.7-4.9,9.1l-0.6,1.9l-1.1-1.7l-0.2-0.3l-1.2-1.9l2.2,0.5l8.7,2C489.9,204.3,492.7,205,495.5,205.7z
								 M495.7,206.1c-3-0.4-5.9-0.9-8.9-1.3l-8.9-1.4l0.9-1.4l0.2,0.3l-1.7,0.3c0.9-3.6,2.4-7.2,4.9-10.2c1.2-1.5,2.6-2.9,4.2-4
								c1.6-1.1,3.3-2,5.1-2.7c3.6-1.3,7.4-1.9,11.1-2.1c3.7-0.2,7.4,0,11.2,0.6c1.9,0.3,3.7,0.8,5.6,1.5c0.9,0.4,1.8,0.8,2.7,1.3
								c0.4,0.2,0.9,0.5,1.3,0.8c0.5,0.3,0.7,0.5,1.2,0.9c1.6,1.3,3,2.8,4.1,4.5c0.6,0.9,1,1.8,1.4,2.8c0.2,0.5,0.4,1,0.5,1.5
								c0.1,0.3,0.1,0.5,0.2,0.7l0.1,0.4l0.1,0.4c0.4,2,0.4,4,0.2,6.1c-0.1,1-0.4,2.1-0.8,3.1c-0.2,0.5-0.4,1-0.7,1.5
								c-0.2,0.4-0.4,0.8-0.7,1.3c-1.1,1.8-2.5,3.3-4,4.6c-1.6,1.3-3.1,2.3-5,3.2l-0.3-3.8l0.6,0.2l-0.2,0c1,0.3,2.1,0.6,3.2,0.9
								c1.1,0.4,2.1,0.8,3.3,1.5c1,0.6,1.9,1.3,2.7,2.1c0.4,0.4,0.8,0.8,1.2,1.3l0.6,0.7l0.5,0.7c1.4,2,2.2,4.2,2.6,6.5
								c0.4,2.3,0.4,4.5,0.2,6.7c-0.5,4.5-2.4,8.8-5.2,12.2c-1.5,1.8-3.2,3.2-5.1,4.4c-1.9,1.2-3.9,2.1-6,2.8
								c-4.3,1.2-8.5,1.5-12.7,1.4c-4.2-0.1-8.5-0.5-12.5-1.8c-4.1-1.2-7.9-3.6-10.7-6.8c-2.8-3.2-4.6-7.2-5.8-11.2l1.1,0.2
								l-0.4,0.6l-0.6-1c3.1-0.4,6.3-0.9,9.4-1.4c3.1-0.5,6.3-1,9.4-1.5l-0.4,1.7l-0.6-0.4l1.5-1c0.4,2.2,1.1,4.2,2.2,6
								c1,1.6,2.8,2.8,4.7,3.2c2,0.4,4,0.1,5.7-0.8c1.6-0.9,2.8-2.5,3.5-4.3c0.6-1.8,0.8-3.8,0.5-5.9c-0.3-1.9-1-3.8-2.3-4.9
								c-1.3-1.2-3.1-1.9-5-1.9c-1.9-0.1-4,0.5-6.2,1.1l0.6-3l0.5,0.4l-2.8,1.2c0.3-4.5,0.7-9,1.1-13.5l2.5,1.3l-0.4,0.3l-0.8-2.8
								l1.3,0.2l0.6,0l0.6,0c0.4,0,0.8,0,1.1,0l0.5-0.1l0.3-0.1l0.2,0l0.1,0l0,0l0,0l0,0c0,0-0.2,0.1-0.1,0l0,0l0,0
								c1.4-0.4,2.8-1.2,3.8-2.3l0.1-0.1l0,0c1.5-1.4,2.1-3.8,1.7-6c-0.1-0.5-0.3-1-0.5-1.5c-0.1-0.1-0.1-0.2-0.2-0.3l-0.1-0.2l0,0
								c0,0,0.1,0.1,0,0.1l0,0l0,0l0,0l-0.1-0.1c-0.2-0.2-0.4-0.4-0.6-0.6c-0.4-0.4-0.7-0.6-1.3-0.9c-0.5-0.3-1.1-0.5-1.6-0.6
								c-1.2-0.2-2.4-0.2-3.5,0c-1.2,0.3-2.3,0.7-3.1,1.5c-0.9,0.8-1.5,1.9-2,3c-0.5,1.2-0.8,2.4-1.1,3.6l0,0.2L495.7,206.1z"/>
						</g>
					</g>
				</g>
			</g>
		</g>
	</g>
	<g class="st2">
		<g>
			<g>
				<g>
					<path class="st0" d="M495.7,206l-17.9-3.2c1.5-5.7,4.3-10.1,8.6-13.1c4.2-3,10.2-4.6,18-4.6c8.9,0,15.3,1.7,19.3,5
						s5.9,7.5,5.9,12.5c0,2.9-0.8,5.6-2.4,8c-1.6,2.4-4,4.5-7.3,6.3c2.6,0.7,4.6,1.4,6,2.3c2.3,1.4,4,3.2,5.3,5.5
						c1.3,2.3,1.9,5,1.9,8.2c0,4-1,7.8-3.1,11.4s-5.1,6.4-9,8.4s-9,3-15.4,3c-6.2,0-11.1-0.7-14.7-2.2c-3.6-1.5-6.5-3.6-8.8-6.4
						c-2.3-2.8-4.1-6.3-5.3-10.6l18.9-2.5c0.7,3.8,1.9,6.5,3.5,7.9c1.6,1.5,3.6,2.2,6,2.2c2.5,0,4.7-0.9,6.3-2.8
						c1.7-1.9,2.5-4.3,2.5-7.4c0-3.2-0.8-5.6-2.4-7.3c-1.6-1.7-3.8-2.6-6.6-2.6c-1.5,0-3.5,0.4-6.1,1.1l1-13.5
						c1.1,0.2,1.9,0.2,2.5,0.2c2.5,0,4.5-0.8,6.2-2.4c1.7-1.6,2.5-3.5,2.5-5.6c0-2.1-0.6-3.7-1.9-5c-1.2-1.2-2.9-1.9-5.1-1.9
						c-2.2,0-4,0.7-5.4,2C497.2,200.3,496.2,202.6,495.7,206z"/>
					<path class="st6" d="M495.7,206.2c-3-0.4-6-0.8-9-1.2l-9-1.3l-1-0.1l0.3-1.1c0.9-3.6,2.3-7.3,4.8-10.3c1.2-1.5,2.7-2.9,4.3-4
						c1.6-1.2,3.4-2,5.2-2.7c3.6-1.3,7.4-1.9,11.2-2.1c3.7-0.1,7.5,0,11.3,0.6c3.8,0.6,7.6,1.9,10.9,4.4c3.2,2.4,5.6,6.1,6.3,10.1
						c0.2,1,0.3,2,0.3,3l0,0.7l0,0.4l0,0.3c0,0.5-0.1,1-0.1,1.5c-0.3,2-1,3.9-2,5.7c-2,3.5-5.3,5.9-8.6,7.6l-0.2-1.9
						c2,0.6,4.1,1.3,6.1,2.5c1.8,1.2,3.5,2.7,4.7,4.6c1.3,1.8,2.1,3.9,2.4,6.1c0.4,2.2,0.4,4.3,0.2,6.5c-0.5,4.3-2.2,8.4-4.8,11.8
						c-1.3,1.7-2.9,3.2-4.7,4.5c-1.8,1.3-3.7,2.3-5.8,3c-4.1,1.5-8.4,1.9-12.7,2.1c-4.2,0.1-8.6-0.1-12.9-1.2
						c-4.3-1.2-8.4-3.5-11.4-6.9c-3-3.4-5-7.5-6.2-11.7l-0.6-2.1l2.2-0.3l18.9-2.7l1.9-0.3l0.4,1.9c0.4,2,1,3.9,1.9,5.4
						c0.4,0.7,0.9,1.2,1.6,1.8c0.6,0.5,1.3,0.8,2.1,1c0.4,0.1,0.8,0.2,1.3,0.2c0.2,0,0.5,0,0.6,0l0.4,0l0.3,0
						c0.8-0.1,1.6-0.3,2.3-0.6c0.3-0.2,0.7-0.4,1-0.6c0.1-0.1,0.3-0.3,0.4-0.4c0.1-0.1,0.3-0.3,0.4-0.5c0.6-0.6,1-1.3,1.3-2.1
						c0.3-0.8,0.5-1.7,0.6-2.6c0.1-0.9,0.1-1.9,0-2.8c-0.1-0.9-0.3-1.8-0.6-2.5c-0.3-0.8-0.8-1.4-1.4-2c-1.1-1.1-2.8-1.7-4.6-1.7
						c-1.7-0.1-3.8,0.4-5.9,0.9l-2.5,0.6l0.2-2.5l1.3-13.5l0.2-1.8l1.7,0.3c0.7,0.2,1.5,0.2,2.2,0.2c0.5,0,0.7,0,1.1,0
						c0.4,0,0.7-0.1,1-0.2c1.4-0.3,2.6-1.1,3.6-2.1c1-1,1.6-2.3,1.8-3.8c0.1-1.5-0.1-3-0.9-4.1c-0.1-0.1-0.2-0.3-0.3-0.4l-0.2-0.2
						l-0.2-0.2c-0.2-0.2-0.5-0.5-0.8-0.6c-0.6-0.4-1.3-0.6-2.1-0.8c-1.5-0.3-3.1-0.2-4.6,0.4c-1.4,0.6-2.6,1.7-3.4,3.1
						c-0.8,1.4-1.3,3-1.6,4.7l0,0.2L495.7,206.2z M495.5,205.8c0.2-1.6,0.5-3.3,1.2-4.8c0.7-1.6,2-3.1,3.6-3.9
						c1.7-0.8,3.5-1.1,5.3-0.9c0.9,0.1,1.9,0.4,2.7,0.8c0.4,0.2,0.8,0.5,1.2,0.8l0.2,0.2l0.3,0.3c0.2,0.2,0.3,0.4,0.5,0.5
						c0.6,0.8,1.1,1.7,1.3,2.6c0.3,1,0.3,1.9,0.3,2.8c0,1.9-0.8,3.9-2.1,5.4c-1.2,1.4-2.9,2.6-4.8,3.2c-1.9,0.5-3.8,0.5-5.7,0.3
						l1.8-1.4l-0.7,13.5l-2.3-1.9c1.1-0.3,2.1-0.6,3.3-0.8c1.1-0.2,2.3-0.4,3.6-0.4c2.5,0,5.2,0.7,7.3,2.7c0.9,0.8,1.8,2,2.3,3.2
						c0.5,1.2,0.9,2.5,1,3.7c0.2,1.2,0.2,2.4,0.1,3.6c-0.1,1.2-0.3,2.5-0.8,3.7c-0.4,1.2-1.1,2.4-2,3.4c-0.2,0.2-0.4,0.5-0.6,0.7
						c-0.2,0.2-0.5,0.5-0.8,0.7c-0.5,0.4-1.1,0.8-1.7,1.2c-1.2,0.6-2.6,1-3.9,1.1l-0.5,0l-0.4,0c-0.4,0-0.7,0-1,0
						c-0.6,0-1.3-0.1-2-0.3c-1.3-0.3-2.6-0.9-3.7-1.7c-0.3-0.2-0.6-0.5-0.8-0.6l-0.4-0.3c-0.1-0.1-0.3-0.3-0.4-0.4
						c-0.5-0.5-0.9-1.1-1.2-1.7c-1.3-2.3-1.8-4.6-2.3-6.8l2.3,1.7l-18.9,2.3l1.6-2.4c1,3.9,2.7,7.5,5.2,10.5
						c2.5,2.9,5.9,5.1,9.6,6.3c3.8,1.2,7.9,1.6,12.1,1.7c4.1,0.1,8.3-0.2,12.1-1.4c3.9-1.2,7.4-3.5,10-6.6c2.6-3.2,4.2-7.1,4.7-11.1
						c0.4-4-0.1-8.3-2.6-11.6c-1.2-1.6-2.7-3-4.4-3.9c-1.7-0.9-3.7-1.5-5.7-2l-2.5-0.6l2.3-1.3c3-1.8,5.7-4.1,7.3-7.1
						c0.8-1.5,1.2-3.1,1.4-4.7c0-0.4,0.1-0.8,0-1.2l0-0.3l0-0.3l0-0.6c-0.1-0.8-0.2-1.7-0.4-2.4c-0.4-1.6-1-3.1-1.9-4.4
						c-0.9-1.3-2.1-2.5-3.4-3.5c-2.6-2-5.9-3.1-9.3-3.7c-3.4-0.6-7-0.8-10.6-0.7c-3.5,0.1-7,0.5-10.3,1.6c-1.6,0.6-3.2,1.3-4.6,2.2
						c-1.5,0.9-2.8,2-3.9,3.3c-2.3,2.5-3.9,5.7-4.9,9.1l-0.8-1.2l8.9,1.9C489.8,204.4,492.6,205.1,495.5,205.8z"/>
				</g>
				<g>
					<g>
						<path class="st0" d="M495.8,206.1l-18-3h-0.3l0.1-0.3c0.9-3.6,2.5-7,4.9-9.8c1.2-1.4,2.6-2.7,4.1-3.7c1.5-1.1,3.2-1.9,5-2.5
							c3.5-1.2,7.2-1.7,10.9-1.9c3.7-0.1,7.4,0,11,0.6c3.6,0.6,7.3,1.8,10.2,4.1c2.9,2.3,5.2,5.6,6,9.3c0.8,3.6,0.4,7.6-1.5,10.9
							c-1.9,3.3-4.9,5.7-8.1,7.4l-0.1-0.5c2,0.5,4.1,1.2,5.9,2.2c1.8,1.1,3.4,2.6,4.6,4.3c1.2,1.7,2,3.8,2.4,5.8
							c0.4,2.1,0.4,4.2,0.2,6.3c-0.5,4.2-2.2,8.3-4.7,11.6c-2.6,3.3-6.3,5.8-10.3,7.1s-8.3,1.7-12.5,1.8c-4.2,0-8.5-0.3-12.6-1.4
							c-4.1-1.2-7.9-3.5-10.7-6.7c-2.8-3.2-4.7-7.2-5.9-11.2l-0.2-0.5l0.5-0.1l18.9-2.6l0.5-0.1l0.1,0.5c0.4,2.1,1,4.2,2,6
							c1,1.8,2.7,3.1,4.7,3.5c2,0.4,4.2,0.3,6-0.7c1.8-1,3.2-2.6,3.9-4.6c0.7-1.9,0.8-4.1,0.6-6.2c-0.2-2.1-1-4.1-2.6-5.4
							c-1.5-1.4-3.5-2.1-5.6-2.1c-2.1,0-4.2,0.5-6.3,1.1l-0.6,0.2v-0.6l1.1-13.5V211l0.4,0.1c0.8,0.1,1.7,0.2,2.5,0.2
							s1.6-0.1,2.4-0.3c1.6-0.4,3-1.3,4.1-2.5c1.1-1.2,1.8-2.8,1.9-4.4c0.1-1.6-0.2-3.3-1.2-4.6s-2.5-2.1-4.1-2.4
							c-1.6-0.2-3.3-0.1-4.8,0.5c-1.5,0.7-2.7,1.9-3.4,3.4C496.4,202.7,496,204.3,495.8,206.1L495.8,206.1z M495.7,205.9
							c0.2-1.6,0.6-3.3,1.3-4.8c0.7-1.6,1.9-2.9,3.5-3.6s3.3-0.9,5-0.7c0.9,0.1,1.7,0.4,2.5,0.8c0.8,0.4,1.4,1,2,1.7
							c1.1,1.4,1.4,3.2,1.3,4.9c-0.1,1.7-0.8,3.5-2,4.7c-1.1,1.3-2.7,2.3-4.4,2.8c-0.8,0.2-1.7,0.3-2.6,0.3c-0.9,0-1.7-0.1-2.6-0.2
							l0.4-0.3l-0.9,13.5l-0.5-0.4c2.1-0.6,4.2-1.2,6.5-1.2c2.2,0,4.6,0.7,6.3,2.3c1.7,1.5,2.6,3.8,2.9,6c0.3,2.2,0.2,4.5-0.6,6.7
							c-0.8,2.1-2.3,4-4.4,5.1c-2.1,1.1-4.5,1.3-6.7,0.8s-4.3-2-5.4-4c-1.1-2-1.7-4.1-2.1-6.3l0.6,0.4l-18.9,2.5l0.4-0.6
							c1.1,4,2.9,7.8,5.6,10.9c2.7,3.1,6.3,5.4,10.3,6.5c4,1.2,8.2,1.5,12.4,1.5c4.2,0,8.4-0.4,12.3-1.6c3.9-1.3,7.6-3.7,10.2-6.9
							c2.6-3.3,4.3-7.3,4.7-11.4c0.4-4.1-0.1-8.5-2.6-11.9c-1.2-1.7-2.8-3.1-4.5-4.2c-1.8-1-3.8-1.6-5.8-2.1l-0.6-0.2l0.6-0.3
							c3.1-1.8,6.1-4.1,7.8-7.3c1.8-3.1,2-6.9,1.3-10.4s-2.9-6.6-5.7-8.8s-6.3-3.3-9.9-4c-3.6-0.6-7.2-0.8-10.8-0.7
							c-3.6,0.1-7.2,0.6-10.6,1.8c-1.7,0.6-3.3,1.4-4.8,2.4s-2.8,2.2-4,3.6c-2.4,2.7-3.9,6.1-4.9,9.6l-0.2-0.3L495.7,205.9z"/>
						<g>
							<path class="st6" d="M495.8,206.3c-3-0.3-6.1-0.7-9.1-1.1l-9.1-1.2l0.2,0l-0.3,0l-1.3,0l0.4-1.3l0.1-0.3l0,0.1
								c0.8-3.7,2.4-7.4,4.9-10.5c1.2-1.5,2.7-2.9,4.3-4c1.6-1.2,3.5-2.1,5.3-2.7c1.8-0.6,3.7-1.1,5.6-1.5c1.9-0.3,3.8-0.5,5.8-0.7
								c3.8-0.1,7.6,0,11.5,0.6c3.8,0.6,7.8,1.9,11,4.6c3.1,2.6,5.5,6.2,6.3,10.3c0.7,3.9,0.2,8.3-2,11.8c-2.1,3.5-5.4,6-8.8,7.7
								l-1.3,0.6l-0.2-1.3l-0.1-0.5l-0.3-1.6l1.5,0.4c2.1,0.6,4.1,1.3,6.1,2.5c1.8,1.2,3.5,2.8,4.7,4.6c1.2,1.8,2,3.9,2.4,6.1
								c0.4,2.1,0.4,4.3,0.1,6.5c-0.5,4.3-2.2,8.4-4.8,12c-1.3,1.7-3,3.2-4.8,4.5c-1.8,1.3-3.8,2.3-5.9,3c-4.1,1.4-8.5,1.9-12.8,2.1
								c-4.3,0.1-8.6-0.1-13-1.2c-4.3-1.2-8.4-3.5-11.5-7c-3-3.4-5-7.5-6.3-11.7l0.1,0.2l-0.2-0.5l-0.9-2.1l2.2-0.5l0.3-0.1l0.2,0
								l0.3,0l0.6-0.1l1.2-0.2l2.5-0.4l5-0.7l5-0.7l2.5-0.4l1.2-0.2l0.6-0.1l0.1,0l0,0c-0.2,0-0.1,0-0.1,0l0,0l0,0l0,0l0.2,0
								l0.3-0.1l2-0.4l0.4,2c0.1,0.5,0.2,1.1,0.3,1.5c0.1,0.5,0.2,0.9,0.4,1.4c0.3,0.9,0.6,1.8,1,2.6c0.7,1.5,1.9,2.5,3.3,2.8
								c1.6,0.4,3.4,0.3,4.7-0.4c1.4-0.8,2.5-2,3-3.6c0.6-1.6,0.6-3.5,0.5-5.4c-0.1-0.8-0.3-1.7-0.7-2.3c-0.2-0.3-0.4-0.7-0.6-0.9
								c-0.1-0.1-0.2-0.3-0.4-0.4l-0.6-0.5c-0.5-0.5-1.3-0.9-2-1.1c-0.8-0.2-1.6-0.3-2.5-0.3c-1.8,0.1-3.9,0.5-5.7,1.1l-2.4,0.7
								l0-2.5l0-0.6l0-0.1l0,0l1.4-13.5l0,0.1l0-0.4l0-2l1.9,0.5l0.4,0.1l-0.2,0c1.6,0.2,3,0.4,4.3,0.1c1.4-0.3,2.6-1,3.6-2
								c1-1,1.6-2.3,1.7-3.7c0.1-1.5-0.1-2.9-1-4c-0.8-1.1-2.2-1.8-3.6-2.1c-1.5-0.2-3.1-0.1-4.5,0.4c-1.3,0.6-2.5,1.8-3.1,3.2
								c-0.7,1.4-1.2,3-1.4,4.6l0,0.2L495.8,206.3z M495.6,205.9c0.1-1.6,0.4-3.2,1-4.7c0.6-1.6,1.8-3.1,3.4-4
								c1.6-0.9,3.4-1,5.2-0.9c1.9,0.2,3.6,1,4.9,2.5c1.3,1.5,1.7,3.5,1.7,5.3c0,1.9-0.8,3.8-2,5.2c-1.2,1.4-2.9,2.6-4.7,3.1
								c-1.9,0.6-3.8,0.5-5.5,0.3l-0.1,0l-0.1,0l-0.4-0.1l1.9-1.5l0,0.4v0l0,0.1l-0.8,13.5l0-0.1l0,0.6l-2.4-1.7l0.4-0.1l0.2-0.1
								l0.3-0.1l0.8-0.2c0.5-0.1,1.1-0.3,1.6-0.4c1.1-0.3,2.2-0.5,3.5-0.5c2.4-0.2,5.2,0.4,7.3,2.2l0.6,0.6c0.3,0.2,0.5,0.5,0.7,0.7
								c0.5,0.5,0.8,1.1,1.1,1.7c0.6,1.2,1,2.5,1.1,3.7c0.3,2.3,0.3,4.7-0.6,7.2c-0.8,2.5-2.6,4.7-4.9,6c-1.2,0.7-2.6,1-3.9,1.1
								c-1.3,0.1-2.6,0-3.8-0.3c-1.4-0.3-2.6-1-3.7-1.8c-0.5-0.4-1-0.9-1.4-1.5c-0.1-0.1-0.2-0.3-0.3-0.4c-0.1-0.1-0.2-0.4-0.3-0.4
								l-0.1-0.2l-0.1-0.1l-0.1-0.1l-0.2-0.4c-0.6-1.1-1-2.2-1.3-3.3c-0.2-0.6-0.3-1.1-0.4-1.7c-0.1-0.6-0.2-1.1-0.3-1.6l2.4,1.6
								l-0.3,0.1l-0.2,0l-0.2,0l-0.1,0l-0.6,0.1l-1.2,0.2l-2.5,0.3l-5,0.6l-5,0.6l-2.5,0.3l-1.2,0.2l-0.6,0.1l-0.1,0l0,0
								c0.2,0,0.1,0,0.1,0l0,0l0,0l0,0l-0.2,0l-0.3,0.1l1.4-2.6l0.2,0.5l0,0.1l0,0.1c1.1,3.9,2.8,7.5,5.4,10.6
								c2.5,2.9,5.9,5.2,9.7,6.4c1.8,0.6,3.9,1,5.9,1.2c2,0.3,4.1,0.4,6.2,0.5c4.1,0,8.3-0.3,12.3-1.4c3.9-1.1,7.5-3.4,10.1-6.6
								c2.5-3.2,4.2-7.2,4.7-11.3c0.2-2,0.2-4.1-0.2-6.1c-0.4-2-1.2-3.9-2.4-5.5c-1.2-1.6-2.7-3-4.5-4c-1.7-0.9-3.7-1.5-5.7-1.9
								l1.2-1.2l0.1,0.5l-1.5-0.7c3.1-1.8,5.8-4.2,7.4-7.2c1.6-3,1.9-6.5,1.1-9.8c-0.7-3.2-2.8-6.1-5.4-8.2
								c-2.5-2.1-5.9-3.2-9.4-3.8c-3.5-0.6-7.1-0.8-10.8-0.7c-3.5,0.1-7.1,0.6-10.5,1.6c-1.7,0.5-3.2,1.2-4.6,2.2
								c-1.5,1-2.8,2.1-4,3.4c-2.3,2.6-4,5.8-5,9.2l0,0.1l0,0l-0.1,0.3l-0.9-1.3l0.3,0l0.1,0l0,0l8.9,1.8
								C489.8,204.6,492.7,205.2,495.6,205.9z"/>
							<path class="st6" d="M495.5,205.7c0.1-1.2,0.3-2.5,0.7-3.6c0.4-1.3,1-2.5,1.9-3.6c0.5-0.5,1-1,1.6-1.3
								c0.2-0.1,0.3-0.2,0.5-0.3c0.1-0.1,0.3-0.1,0.5-0.2c0.3-0.1,0.7-0.3,1-0.3c1.3-0.4,2.8-0.5,4.1-0.4c0.8,0.1,1.5,0.3,2.1,0.6
								c0.3,0.1,0.6,0.3,1,0.5c0.4,0.2,0.6,0.4,0.9,0.7c0.3,0.2,0.5,0.5,0.8,0.8l0.1,0.1l0,0l0,0l0.1,0.1l0.1,0.2
								c0.1,0.1,0.2,0.3,0.3,0.5c0.4,0.7,0.7,1.4,0.9,2.1c0.7,2.8,0.2,6-2,8.4l0.1-0.1c-1.3,1.6-3.1,2.7-5,3.3l-0.8,0.2l-0.8,0.1
								c-0.5,0.1-1,0.1-1.5,0.1l-0.7,0l-0.8,0l-1.3-0.1l-3.9-0.4l3.1-2.4l0.4-0.3l2.7-2.1l-0.2,3.4c-0.2,4.5-0.4,9-0.7,13.5
								l-0.2,3.3l-2.6-2l-0.5-0.4l-2.6-2.1l3.2-0.9c2.2-0.6,4.6-1.3,7.2-1.3c1.3,0,2.6,0.2,3.9,0.7c1.3,0.4,2.5,1.2,3.5,2.1
								c1,0.9,1.8,2.1,2.3,3.4c0.5,1.2,0.9,2.5,1,3.8c0.3,2.5,0.1,5.1-0.9,7.6c-1,2.4-2.8,4.5-5.3,5.7c-2.3,1.1-5.1,1.3-7.6,0.7
								c-2.6-0.7-4.8-2.3-6.1-4.6c-1.2-2.2-1.8-4.5-2.1-6.8l-0.3-2.3l1.8,1.3l0.6,0.4l2.1,1.5l-2.5,0.3c-3.2,0.3-6.3,0.7-9.5,1
								c-3.2,0.4-6.3,0.7-9.5,1.1l-1.4,0.2l0.8-1.1l0.4-0.6l0.8-1.1l0.3,1.3c1,3.9,2.9,7.7,5.5,10.7c2.7,3,6.2,5.2,10.2,6.1
								c3.9,1.1,8,1.2,12.1,1.1c2-0.1,4.1-0.2,6.1-0.5c2-0.3,4-0.8,5.8-1.4c1.9-0.7,3.6-1.6,5.2-2.7c1.6-1.1,3-2.5,4.1-3.9
								c2.4-3.1,3.8-6.8,4.2-10.5c0.4-3.8-0.2-7.8-2.3-10.6c-1.1-1.5-2.4-2.7-4-3.7c-0.6-0.3-1.5-0.7-2.4-1
								c-0.9-0.3-1.8-0.6-2.8-0.8l-0.1,0l-0.1,0l-0.6-0.2l-4.8-1.5l4.5-2.3c1.4-0.7,2.8-1.7,4.1-2.8c1.3-1,2.3-2.2,3.1-3.5
								c0.2-0.3,0.4-0.7,0.6-1.1c0.1-0.3,0.3-0.6,0.4-1c0.3-0.7,0.4-1.4,0.5-2.2c0.2-1.5,0.1-3.1-0.1-4.7c-0.5-3-2.3-5.8-4.7-7.9
								c-2.4-2-5.6-3.1-9-3.8c-3.3-0.6-6.9-0.9-10.4-0.9c-3.5,0-7,0.4-10.2,1.5c-1.6,0.5-3.1,1.2-4.6,2.1c-1.4,0.9-2.7,2-3.9,3.3
								c-2.4,2.5-3.9,5.7-4.9,9.1l-0.6,1.9l-1.1-1.7l-0.2-0.3l-1.2-1.9l2.2,0.5l8.7,2C489.9,204.3,492.7,205,495.5,205.7z
								 M495.7,206.1c-3-0.4-5.9-0.9-8.9-1.3l-8.9-1.4l0.9-1.4l0.2,0.3l-1.7,0.3c0.9-3.6,2.4-7.2,4.9-10.2c1.2-1.5,2.6-2.9,4.2-4
								c1.6-1.1,3.3-2,5.1-2.7c3.6-1.3,7.4-1.9,11.1-2.1c3.7-0.2,7.4,0,11.2,0.6c1.9,0.3,3.7,0.8,5.6,1.5c0.9,0.4,1.8,0.8,2.7,1.3
								c0.4,0.2,0.9,0.5,1.3,0.8c0.5,0.3,0.7,0.5,1.2,0.9c1.6,1.3,3,2.8,4.1,4.5c0.6,0.9,1,1.8,1.4,2.8c0.2,0.5,0.4,1,0.5,1.5
								c0.1,0.3,0.1,0.5,0.2,0.7l0.1,0.4l0.1,0.4c0.4,2,0.4,4,0.2,6.1c-0.1,1-0.4,2.1-0.8,3.1c-0.2,0.5-0.4,1-0.7,1.5
								c-0.2,0.4-0.4,0.8-0.7,1.3c-1.1,1.8-2.5,3.3-4,4.6c-1.6,1.3-3.1,2.3-5,3.2l-0.3-3.8l0.6,0.2l-0.2,0c1,0.3,2.1,0.6,3.2,0.9
								c1.1,0.4,2.1,0.8,3.3,1.5c1,0.6,1.9,1.3,2.7,2.1c0.4,0.4,0.8,0.8,1.2,1.3l0.6,0.7l0.5,0.7c1.4,2,2.2,4.2,2.6,6.5
								c0.4,2.3,0.4,4.5,0.2,6.7c-0.5,4.5-2.4,8.8-5.2,12.2c-1.5,1.8-3.2,3.2-5.1,4.4c-1.9,1.2-3.9,2.1-6,2.8
								c-4.3,1.2-8.5,1.5-12.7,1.4c-4.2-0.1-8.5-0.5-12.5-1.8c-4.1-1.2-7.9-3.6-10.7-6.8c-2.8-3.2-4.6-7.2-5.8-11.2l1.1,0.2
								l-0.4,0.6l-0.6-1c3.1-0.4,6.3-0.9,9.4-1.4c3.1-0.5,6.3-1,9.4-1.5l-0.4,1.7l-0.6-0.4l1.5-1c0.4,2.2,1.1,4.2,2.2,6
								c1,1.6,2.8,2.8,4.7,3.2c2,0.4,4,0.1,5.7-0.8c1.6-0.9,2.8-2.5,3.5-4.3c0.6-1.8,0.8-3.8,0.5-5.9c-0.3-1.9-1-3.8-2.3-4.9
								c-1.3-1.2-3.1-1.9-5-1.9c-1.9-0.1-4,0.5-6.2,1.1l0.6-3l0.5,0.4l-2.8,1.2c0.3-4.5,0.7-9,1.1-13.5l2.5,1.3l-0.4,0.3l-0.8-2.8
								l1.3,0.2l0.6,0l0.6,0c0.4,0,0.8,0,1.1,0l0.5-0.1l0.3-0.1l0.2,0l0.1,0l0,0l0,0l0,0c0,0-0.2,0.1-0.1,0l0,0l0,0
								c1.4-0.4,2.8-1.2,3.8-2.3l0.1-0.1l0,0c1.5-1.4,2.1-3.8,1.7-6c-0.1-0.5-0.3-1-0.5-1.5c-0.1-0.1-0.1-0.2-0.2-0.3l-0.1-0.2l0,0
								c0,0,0.1,0.1,0,0.1l0,0l0,0l0,0l-0.1-0.1c-0.2-0.2-0.4-0.4-0.6-0.6c-0.4-0.4-0.7-0.6-1.3-0.9c-0.5-0.3-1.1-0.5-1.6-0.6
								c-1.2-0.2-2.4-0.2-3.5,0c-1.2,0.3-2.3,0.7-3.1,1.5c-0.9,0.8-1.5,1.9-2,3c-0.5,1.2-0.8,2.4-1.1,3.6l0,0.2L495.7,206.1z"/>
						</g>
					</g>
				</g>
			</g>
		</g>
	</g>
</g>
<polygon class="st4" points="563.6,400.6 54.3,400.6 14.3,297.1 603.6,297.1 "/>
</svg>
