<?xml version="1.0" encoding="utf-8"?>
<!-- Generator: Adobe Illustrator 15.1.0, SVG Export Plug-In . SVG Version: 6.00 Build 0)  -->
<!DOCTYPE svg PUBLIC "-//W3C//DTD SVG 1.1//EN" "http://www.w3.org/Graphics/SVG/1.1/DTD/svg11.dtd">
<svg version="1.1" id="rat" xmlns="http://www.w3.org/2000/svg" xmlns:xlink="http://www.w3.org/1999/xlink" x="0px" y="0px"
	 width="224px" height="242px" viewBox="0 0 224 242" style="enable-background:new 0 0 224 242;" xml:space="preserve">
<style type="text/css">
<![CDATA[
	.st0{fill:#7AD7EE;}
	.st1{opacity:0.14;}
	.st2{opacity:0.18;}
	.st3{opacity:0.25;}
	.st4{fill:#EDEDED;}
	.st5{opacity:0.38;fill:url(#SVGID_3_);}
	.st6{opacity:0.38;fill:url(#SVGID_4_);}
	.st7{opacity:0.45;fill:#FDACBD;}
	.st8{opacity:0.24;fill:#F69D01;}
	.st9{fill:#FCC581;}
	.st10{opacity:0.25;fill:#078D9E;}
	.st11{fill:#FFFFFF;}
	.st12{fill:none;stroke:#078D9E;stroke-miterlimit:10;}
	.st13{fill:#006283;}
	.st14{opacity:0.25;clip-path:url(#SVGID_2_);}
]]>
</style>
<g>
	<g>
		<g>
			<path class="st0" d="M111.8,173.8c0,0,31.5,7.4,27-38.6c-4.5-46,19.7-53,40-40.7c9.4,5.7,12.6,12.5,12.6,12.5s-4,1.2-11.1-4.6
				c0,0-31.3-26.5-36.4,19.1c0,0,3.5,44.4-3.8,50.4c-7.3,6.1-29,17.6-36.1,5.4L111.8,173.8z"/>
			<g>
				<path d="M111.8,173.8c6.1,1.1,12.8-0.1,17.7-4c2.4-1.9,4.3-4.4,5.7-7.2c1.4-2.8,2.2-5.8,2.8-8.9c1.1-6.1,0.9-12.4,0.3-18.7
					c-0.6-6.3-0.7-12.6,0-18.9c0.8-6.2,2.4-12.6,5.9-17.9c1.8-2.6,4.1-4.9,6.8-6.5c2.7-1.6,5.9-2.5,9-2.7c6.3-0.4,12.6,1.7,18,4.8
					c2.7,1.6,5.3,3.4,7.6,5.6c2.3,2.2,4.4,4.6,5.9,7.4l0.1,0.3l-0.3,0.1c-1.5,0.3-3-0.1-4.3-0.5c-1.4-0.5-2.7-1.1-3.9-1.9
					c-1.2-0.8-2.4-1.6-3.5-2.5c-1.1-0.9-2.3-1.7-3.5-2.4c-2.4-1.5-4.9-2.8-7.6-3.6c-2.7-0.9-5.5-1.4-8.2-1.1
					c-2.8,0.3-5.4,1.4-7.4,3.3c-2.1,1.8-3.6,4.2-4.8,6.8c-2.3,5.1-3.4,10.7-4,16.3l0-0.1c0.6,7.7,0.9,15.3,0.9,23
					c0,3.8-0.1,7.7-0.4,11.5c-0.3,3.8-0.7,7.7-1.8,11.4c-0.3,0.9-0.6,1.9-1.1,2.7c-0.4,0.9-1.1,1.8-1.9,2.4
					c-1.5,1.2-3.1,2.3-4.8,3.3c-3.3,2-6.8,3.7-10.4,5c-3.6,1.3-7.4,2.3-11.3,2.1c-1.9-0.1-3.9-0.5-5.6-1.4c-1.7-0.9-3.1-2.4-4.1-4.1
					l-0.1-0.1l0.1-0.1L111.8,173.8L111.8,173.8z M111.8,173.9l-7.7,3.6l0.1-0.2c1,1.6,2.3,3,4,3.8c1.7,0.9,3.6,1.2,5.4,1.3
					c3.8,0.1,7.5-0.9,11.1-2.2c3.6-1.3,7-3.1,10.2-5.1c1.6-1,3.2-2.1,4.6-3.3c1.4-1.1,2.1-2.9,2.6-4.7c1-3.6,1.4-7.4,1.7-11.2
					c0.3-3.8,0.4-7.6,0.4-11.4c0-7.6-0.3-15.3-0.8-22.9l0-0.1l0,0c0.7-5.7,1.7-11.3,4.2-16.6c1.2-2.6,2.8-5.1,5-7
					c2.2-1.9,5-3.2,7.9-3.4c2.9-0.3,5.8,0.3,8.5,1.2c2.7,0.9,5.3,2.3,7.7,3.8c1.2,0.8,2.4,1.6,3.5,2.5c1.1,0.9,2.2,1.8,3.4,2.5
					c1.2,0.7,2.4,1.4,3.8,1.8c1.3,0.4,2.7,0.7,4,0.5l-0.1,0.3c-1.4-2.7-3.5-5.1-5.8-7.3c-2.3-2.1-4.8-4-7.5-5.6
					c-2.7-1.6-5.6-2.9-8.6-3.7c-3-0.9-6.1-1.3-9.2-1.1c-3.1,0.2-6.2,1.1-8.8,2.7c-2.7,1.6-4.9,3.9-6.6,6.5
					c-3.4,5.2-4.9,11.5-5.6,17.7c-0.7,6.2-0.5,12.5,0.1,18.7c0.6,6.3,0.7,12.6-0.4,18.9c-0.6,3.1-1.5,6.2-2.9,9
					c-1.4,2.8-3.4,5.4-6,7.3c-2.5,2-5.5,3.2-8.7,3.8C118.1,174.5,114.9,174.5,111.8,173.9z"/>
			</g>
		</g>
		<path class="st10" d="M114.5,178c0,0,0-2.2,0-3.8c-1.7-0.1-2.7-0.4-2.7-0.4l-7.8,3.5c7,12.1,28.7,0.6,36.1-5.4
			c5-4.1,4.9-26.2,4.4-39.7C142.3,154.6,141.5,181.1,114.5,178z"/>
		<g>
			<defs>
				<path id="SVGID_1_" d="M111.8,173.8c0,0,31.5,7.4,27-38.6c-4.5-46,19.7-53,40-40.7c9.4,5.7,12.6,12.5,12.6,12.5s-4,1.2-11.1-4.6
					c0,0-31.3-26.5-36.4,19.1c0,0,3.5,44.4-3.8,50.4c-7.3,6.1-29,17.6-36.1,5.4L111.8,173.8z"/>
			</defs>
			<clipPath id="SVGID_2_">
				<use xlink:href="#SVGID_1_"  style="overflow:visible;"/>
			</clipPath>
			<g class="st14">
				<g>
					<path class="st12" d="M113.8,172.7c0,0-4.3,5.4-1,11.8"/>
					<path class="st12" d="M118.1,172.7c0,0-4.3,5.4-1,11.8"/>
					<path class="st12" d="M121.4,172.5c0,0-3.2,6.2,1.3,11.8"/>
					<path class="st12" d="M124.6,171.1c0,0-1.7,6.7,3.8,11.2"/>
					<path class="st12" d="M133.9,161c0,0,3.7,5.9,10.8,4.8"/>
					<path class="st12" d="M134.1,156.2c0,0,4.9,4.9,11.6,2.4"/>
					<path class="st12" d="M134.9,150.3c0,0,4.9,4.9,11.6,2.4"/>
					<path class="st12" d="M135.6,144.4c0,0,4.9,4.9,11.6,2.4"/>
					<path class="st12" d="M136.4,138.5c0,0,4.9,4.9,11.6,2.4"/>
					<path class="st12" d="M135.6,132.6c0,0,4.9,4.9,11.6,2.4"/>
					<path class="st12" d="M136.4,125.7c0,0,4.9,4.9,11.6,2.4"/>
					<path class="st12" d="M136.4,118.5c0,0,4.9,4.9,11.6,2.4"/>
					<path class="st12" d="M136.7,112.5c0,0,4.2,5.5,11.2,4"/>
					<path class="st12" d="M138.2,107c0,0,4.2,5.5,11.2,4"/>
					<path class="st12" d="M139.7,100.8c0,0,3.5,6,10.6,5.2"/>
					<path class="st12" d="M143.3,94.9c0,0,2.2,6.6,9.4,7.3"/>
					<path class="st12" d="M148.9,90.3c0,0,0.7,6.9,7.6,9.1"/>
					<path class="st12" d="M155.7,87.1c0,0-1.4,6.8,4.5,11"/>
					<path class="st12" d="M163,85.3c0,0-3.1,6.2,1.5,11.8"/>
					<path class="st12" d="M170.6,86.8c0,0-5,4.8-2.6,11.6"/>
					<path class="st12" d="M176.7,89.9c0,0-6.2,3.1-5.9,10.3"/>
					<path class="st12" d="M182.9,93.3c0,0-6.6,2.2-7.3,9.3"/>
					<path class="st12" d="M187.3,96.5c0,0-6.6,2.2-7.3,9.3"/>
					<path class="st12" d="M191,100.3c0,0-6.6,2.2-7.3,9.3"/>
					<path class="st12" d="M127.2,169.9c0,0-0.5,5.3,7.7,6.7"/>
					<path class="st12" d="M131.5,167.2c0,0,0.3,5.3,8.5,5.5"/>
				</g>
			</g>
		</g>
	</g>
	<g>
		<path class="st9" d="M143.7,106.1c-1-6.6-1.4-6.2-1.5-9.3c-0.4-20.3-19.7-29.8-43.6-29.8c-23.8,0-40.8,4.7-42.7,28.5
			c-0.3,3.7,1.6,7.6,1.5,11c0,3.4-1.5,5.7-1.5,8.6c0,9.5,10.6,15.1,45.2,15.1c34.6,0,44.2-5.6,44.2-15.1
			C145.3,111.6,144.8,112.7,143.7,106.1z"/>
		<g>
			<path d="M143.7,106.1c-0.2-1.3-0.4-2.7-0.7-4c-0.2-1.3-0.6-2.6-0.8-4c-0.1-1.4-0.1-2.7-0.3-4c-0.1-1.3-0.4-2.7-0.8-3.9
				c-1.4-5.2-4.5-9.8-8.7-13.1c-4.2-3.3-9.1-5.6-14.2-7c-5.1-1.5-10.5-2.2-15.8-2.5c-5.3-0.2-10.7-0.1-16.1,0.3
				c-5.3,0.5-10.7,1.5-15.5,3.8c-2.4,1.1-4.7,2.6-6.6,4.4c-1.9,1.8-3.5,4-4.7,6.4c-1.2,2.4-2,5-2.5,7.6c-0.3,1.3-0.5,2.6-0.6,4
				c-0.1,0.7-0.1,1.3-0.2,2c0,0.7,0,1.3,0.1,2c0.3,2.6,1.3,5.2,1.5,8c0.1,1.4-0.2,2.8-0.5,4.1c-0.3,1.3-0.7,2.6-0.9,3.9
				c-0.3,2.6,0.4,5.3,2.1,7.2c1.7,2,4,3.3,6.5,4.3c4.9,1.9,10.3,2.7,15.6,3.3c5.3,0.5,10.7,0.8,16.1,0.9c5.4,0.1,10.7,0,16.1-0.2
				c5.4-0.2,10.7-0.6,16-1.6c2.6-0.5,5.2-1.1,7.7-2.1c2.5-1,4.9-2.3,6.6-4.4c0.8-1,1.5-2.2,1.8-3.5c0.3-1.3,0.4-2.6,0.3-4
				c0-1.3-0.5-2.6-0.8-3.9C144.1,108.8,143.9,107.5,143.7,106.1z M143.8,106.1c0.2,1.3,0.5,2.7,0.8,4c0.3,1.3,0.8,2.6,0.8,4
				c0.1,1.3,0,2.7-0.3,4c-0.3,1.3-0.9,2.6-1.8,3.6c-1.7,2.2-4.1,3.6-6.6,4.6c-2.5,1-5.1,1.7-7.8,2.3c-5.3,1.1-10.7,1.6-16.1,1.9
				c-5.4,0.3-10.8,0.3-16.2,0.3c-5.4-0.1-10.8-0.3-16.2-0.9c-5.4-0.6-10.8-1.5-15.9-3.5c-2.5-1-5-2.4-6.8-4.6
				c-1.8-2.2-2.5-5.1-2.2-7.9c0.2-1.4,0.6-2.7,1-4c0.3-1.3,0.6-2.6,0.5-3.9c-0.1-2.6-1.1-5.2-1.4-7.9c-0.1-0.7-0.1-1.4-0.1-2.1
				c0-0.7,0.1-1.4,0.2-2c0.2-1.3,0.4-2.7,0.7-4c0.6-2.6,1.4-5.2,2.7-7.7C60.4,80,62,77.8,64,76c2-1.8,4.3-3.4,6.7-4.5
				c4.9-2.3,10.3-3.4,15.6-4c2.7-0.3,5.4-0.5,8.1-0.6c2.7-0.1,5.4-0.1,8.1,0c5.4,0.2,10.8,0.9,16,2.5c5.2,1.5,10.2,3.9,14.4,7.4
				c4.2,3.5,7.3,8.3,8.6,13.5c0.3,1.3,0.6,2.6,0.7,4c0.2,1.3,0.1,2.7,0.2,4c0.1,1.3,0.5,2.6,0.7,4
				C143.4,103.5,143.6,104.8,143.8,106.1z"/>
		</g>
	</g>
	<path class="st8" d="M145.9,113.9c-0.5-1-1.2-2.4-1.7-5.7c-1-6.6-1.4-6.2-1.5-9.3c-0.1-2.6-0.4-5-1.1-7.3
		c-1.6-7.7-6.3-13.5-13-17.6c0.3,0.8,0.6,1.5,0.9,2.3c-7.8-4.8-18.6-7.2-30.4-7.2c-13.6,0-24.9,1.5-32.5,7.3c-3,2.3-5.5,5.2-7.2,9
		c0.2-1.4,0.4-2.9,0.7-4.3c-2.2,3.8-3.7,8.5-4.2,14.5c-0.3,3.7,1.6,7.6,1.5,11c0,3.4-1.5,5.7-1.5,8.6c0,6.6,5.1,11.4,19.9,13.6
		c-5.8-2.1-10.3-5.4-12.4-10.9c-2.6-6.8-4.4-14.9-4.6-23.4c0.1-1.6,0.3-3.1,0.9-4.5c-0.8,2.5,0.8,4.2,0.8,6.8
		c0.8-7,4.4-11.8,7.6-17.8c6,7.7,16.7,10.5,26.2,11.9c-1.7-2.5-3.4-5.1-5.9-6.8c5.9,3.4,14.4,3.4,19.4,9.3c1.7-1.7,0-4.2,0.8-5.9
		c5.1,11,16,6.8,24.5,9.3c-0.8-3.4-4.2-4.2-6.8-5.9c8.1,1.4,10.8,7.2,13.5,13.1c0.8,5.1,0.3,10.2-2.4,15c-2.6,5.6-8.2,8.2-14.5,10.3
		c16.9-2.1,22.2-7,22.2-14c0-1,0-1.6-0.1-2.1C145.4,113.3,145.7,113.6,145.9,113.9z"/>
	<path d="M145.9,111.9c-0.5-1-1.2-2.4-1.7-5.7c-1-6.6-1.4-6.2-1.5-9.3c-0.4-20.3-19.7-29.8-43.6-29.8c-13.6,0-24.9,1.5-32.5,7.3
		c-5.7,4.3-9.4,11-10.2,21.2c-0.2,2.8,0.8,5.7,1.3,8.3c2.7-4.9,0-11.1,2.1-16.1c-0.8,2.5,0.8,4.2,0.8,6.8c0.8-7,4.4-11.8,7.6-17.8
		c6,7.7,16.7,10.5,26.2,11.9c-1.7-2.5-3.4-5.1-5.9-6.8c5.9,3.4,14.4,3.4,19.4,9.3c1.7-1.7,0-4.2,0.8-5.9c5.1,11,16,6.8,24.5,9.3
		c-0.8-3.4-4.2-4.2-6.8-5.9C139.5,91,138.7,104.4,145.9,111.9z"/>
	<g>
		<path d="M81.4,118.6c2.1,0.7,4.2,1.2,6.4,1.3c1.1,0,2.1,0,3.2-0.2c1-0.2,2-0.6,2.9-1.2l0,0c0.9-0.6,1.9-0.6,2.9-0.7
			c1,0,1.9,0,2.9,0.1c1.9,0.1,3.8,0.6,5.6,1.2c1.8,0.5,3.6,0.9,5.4,1c1.8,0,3.7-0.6,4.8-2.1l0.1,0c-0.3,0.9-1.1,1.6-2,2.1
			c-0.9,0.5-1.9,0.7-2.8,0.8c-2,0.2-3.9-0.2-5.7-0.9c-1.8-0.6-3.5-1.2-5.4-1.6c-0.9-0.2-1.8-0.3-2.8-0.3c-0.9,0-1.9,0.2-2.6,0.7l0,0
			l0,0c-0.9,0.7-1.9,1.3-3,1.6c-1.1,0.3-2.3,0.4-3.4,0.3c-1.1-0.1-2.2-0.3-3.3-0.7C83.3,119.7,82.3,119.3,81.4,118.6L81.4,118.6z"/>
	</g>
	<ellipse transform="matrix(0.9522 -0.3055 0.3055 0.9522 -26.2581 42.0598)" cx="121.3" cy="104.9" rx="5.8" ry="1.1"/>
	<ellipse transform="matrix(-0.9522 -0.3055 0.3055 -0.9522 108.756 226.8988)" cx="72.1" cy="104.9" rx="5.8" ry="1.1"/>
	<ellipse class="st7" cx="129.1" cy="112.8" rx="9" ry="3.3"/>
	<path class="st11" d="M138.1,110.6c0,0.6-1.3,1.1-2.9,1.1c-1.6,0-2.9-0.5-2.9-1.1c0-0.6,1.3-1.1,2.9-1.1
		C136.8,109.5,138.1,110,138.1,110.6z"/>
	<ellipse class="st7" cx="69.3" cy="112.8" rx="7.2" ry="2"/>
	<g>
		<path class="st11" d="M84.5,64.8c0,0,0,17.1,6.9,16.4c1.2-0.1,2.4,0.5,3.5,0.6c-0.1-6-0.1-12.5,0.4-18.5
			C91.2,62.5,87,62.5,84.5,64.8z"/>
		<path d="M84.6,64.8c0.2,1.9,0.4,3.8,0.7,5.7c0.3,1.9,0.7,3.7,1.3,5.5c0.3,0.9,0.6,1.8,1.1,2.6c0.4,0.8,1,1.5,1.8,2
			c0.4,0.2,0.8,0.4,1.3,0.5c0.4,0.1,0.9,0,1.4,0c1,0.1,1.9,0.5,2.8,0.6l-0.2,0.2c-0.1-3.1-0.3-6.2-0.3-9.3c0-3.1,0-6.2,0.4-9.3
			l0.4,0.5c-1.8-0.4-3.6-0.7-5.5-0.6C87.9,63.3,86.1,63.7,84.6,64.8z M84.5,64.8c0.6-0.7,1.5-1.2,2.4-1.6c0.9-0.4,1.9-0.6,2.8-0.7
			c1.9-0.2,3.9,0,5.7,0.3l0.4,0.1l0,0.5c-0.2,3.1-0.4,6.1-0.5,9.2c-0.1,3.1-0.3,6.2-0.2,9.3l0,0.2l-0.2,0c-1-0.2-1.9-0.6-2.8-0.6
			c-0.4,0-0.9,0.1-1.4,0c-0.5,0-1-0.2-1.5-0.4c-0.9-0.5-1.6-1.2-2.2-2.1c-0.6-0.8-1-1.7-1.3-2.7c-0.6-1.9-1-3.8-1.2-5.7
			C84.4,68.7,84.3,66.7,84.5,64.8L84.5,64.8L84.5,64.8z"/>
	</g>
	<g>
		<path class="st11" d="M107.7,67.6c0,0-6.2-3-12.4-4.2c-0.5,6-0.5,12.6-0.4,18.5c3.8,0.5,6.7,0.6,6.7,0.6S106.7,83.5,107.7,67.6z"
			/>
		<path d="M107.7,67.6c-2-0.8-4.1-1.5-6.1-2.2c-2.1-0.7-4.2-1.2-6.3-1.7l0.5-0.4c-0.3,3.1-0.7,6.1-0.7,9.2c0,1.5,0,3.1,0.1,4.6
			l0.2,4.6L95,81.5c2.2,0.2,4.5,0.5,6.7,0.5h0l0.1,0c0.1,0,0.5,0,0.7-0.2c0.3-0.1,0.5-0.3,0.8-0.5c0.5-0.4,0.9-1,1.2-1.5
			c0.7-1.2,1.2-2.5,1.6-3.8C106.8,73.2,107.3,70.4,107.7,67.6z M107.8,67.6c0,2.9-0.2,5.8-0.9,8.6c-0.3,1.4-0.8,2.8-1.5,4.1
			c-0.4,0.7-0.8,1.3-1.4,1.8c-0.3,0.3-0.6,0.5-1,0.7c-0.4,0.2-0.8,0.3-1.4,0.2l0.1,0c-2.3-0.1-4.5-0.3-6.8-0.7l-0.3-0.1v-0.3
			c0-1.5,0.1-3.1,0.1-4.6l0.1-4.6c0.1-3.1,0-6.2,0.2-9.3l0-0.5l0.5,0.1c2.2,0.4,4.3,1.1,6.4,1.8C103.8,65.5,105.8,66.4,107.8,67.6
			L107.8,67.6L107.8,67.6z"/>
	</g>
	<path class="st2" d="M95.3,63.3c-4.2-0.8-8.3-0.8-10.8,1.5c0,0,0,4.9,1.1,9.4c2.8,0,5.6-0.2,8.4-2c-0.6,3.1-0.9,6.2-1,9.2
		c0.7,0.2,1.3,0.4,1.9,0.5C94.8,75.9,94.8,69.3,95.3,63.3z"/>
	<path class="st2" d="M95.3,63.3c-0.2,2.4-0.3,4.9-0.4,7.4c2.9,1.8,6.5,3.4,10.2,3.4c0.8,7.1-4.5,6.8-9.3,7.8
		c3.3,0.4,5.8,0.5,5.8,0.5s5,1.1,6-14.9C107.7,67.6,101.6,64.5,95.3,63.3z"/>
	<ellipse class="st11" cx="63.3" cy="111.1" rx="3.1" ry="0.9"/>
	<g>
		<g>
			<path class="st0" d="M179.1,40c0-17.6-14.2-31.8-31.8-31.8c-16.4,0-29.9,12.4-31.6,28.4c-4.5-0.8-9.3-1.2-14.4-1.2
				c-10.9,0-20.6,2-28.9,5.5c-3.6-14-16.3-24.4-31.5-24.4C22.9,16.5,8.3,31,8.3,49c0,17.9,14.5,32.5,32.5,32.5c0,0,0.1,0,0.1,0
				c-0.3,3.5-0.1,7.1,0.6,10.7c4.5,25.3,13.2,37.7,41,41c0,0,0,0,0,0c0,0-11.2,24.5-15.9,47.9C62,204.4,79,206.4,104.9,207
				c25.9,0.5,55.6-4.8,47.7-30.2c-6.5-21.1-20-39.5-24.4-45.1c21.9-4.9,29.2-17.3,32.8-39.8c1.2-7.6,0.4-15.2-2.1-22.2
				C170.7,65,179.1,53.5,179.1,40z M101.1,129.9c-34.2,0-44.6-5.6-44.6-14.9c0-2.8,1.5-5.1,1.5-8.5c0-3.4-1.8-7.2-1.5-10.9
				c1.2-14.6,8.2-21.9,18.9-25.4c2.2,1.5,5.2,2.4,8.7,2.4c4.7,0,8.7-1.8,10.7-4.3c2.3,2.6,6.8,4.3,11.8,4.3c4.1,0,7.9-1.2,10.3-3
				c14.4,3.8,24.5,12.7,24.8,27.2c0.1,3.1,0.5,2.6,1.5,9.2c1,6.5,1.5,5.4,1.5,8.9C144.7,124.4,135.3,129.9,101.1,129.9z"/>
		</g>
		<g>
			<path d="M179,40c0-8-3.2-16-8.7-21.8c-5.5-5.8-13.3-9.4-21.3-9.8c-8-0.4-16.1,2.3-22.1,7.5c-6.1,5.2-10.1,12.7-10.9,20.6l0,0.3
				l-0.3-0.1c-7.2-1.2-14.6-1.5-21.9-0.8c-7.3,0.7-14.5,2.4-21.2,5.2L72,41.5L71.9,41c-1.5-5.8-4.6-11.1-8.9-15.2
				c-4.3-4.1-9.8-7-15.6-8.2c-5.8-1.2-12-0.8-17.7,1.3C24,20.9,19,24.6,15.4,29.3c-3.7,4.7-6,10.5-6.6,16.5
				c-0.6,6,0.5,12.1,3.1,17.5c2.6,5.4,6.8,10,11.9,13.2c5.1,3.2,11.1,4.9,17.1,4.9l0.2,0l0,0.2c-0.2,3.1-0.1,6.2,0.4,9.3
				c0.5,3.1,1.1,6.1,1.9,9.1c1.5,6,3.6,12,7.1,17.1c1.7,2.6,3.8,4.9,6.2,6.8c2.4,1.9,5.1,3.5,7.9,4.7c5.7,2.5,11.8,3.7,18,4.4l1,0.1
				l-0.9,0.4c0,0,0.1,0,0.1-0.1l0.1-0.1c-3.8,8.6-7.1,17.4-10,26.3c-1.4,4.5-2.8,9-3.9,13.5c-0.6,2.3-1.1,4.6-1.6,6.9
				c-0.5,2.3-0.9,4.6-0.9,6.9c-0.1,2.3,0.1,4.6,0.8,6.8c0.6,2.2,1.9,4.2,3.5,5.8c1.7,1.6,3.7,2.7,5.8,3.6c2.1,0.8,4.4,1.4,6.7,1.9
				c4.6,0.9,9.3,1.2,14,1.4c4.7,0.2,9.4,0.3,14.1,0.2c4.7-0.1,9.4-0.4,14-1.1c4.6-0.7,9.2-1.6,13.6-3.3c4.3-1.6,8.5-4,11.4-7.6
				c1.4-1.8,2.4-3.9,2.9-6.1c0.5-2.2,0.5-4.6,0.2-6.8c-0.3-2.3-1-4.5-1.7-6.7c-0.7-2.2-1.6-4.4-2.4-6.6c-1.8-4.3-3.8-8.6-6-12.7
				c-4.4-8.3-9.5-16.2-15.2-23.6l-0.4-0.5l0.6-0.1c6.3-1.4,12.6-3.6,17.7-7.6c2.6-2,4.8-4.4,6.6-7.1c1.8-2.7,3.2-5.6,4.4-8.7
				c1.1-3,2-6.2,2.7-9.4c0.7-3.2,1.3-6.4,1.7-9.6c0.6-6.5-0.2-13.1-2.4-19.2l-0.1-0.1l0.1-0.1c5.9-2.3,11-6.4,14.6-11.6
				C177.1,52.7,179,46.4,179,40z M179.1,40c0,6.4-1.9,12.7-5.5,18c-3.6,5.3-8.7,9.4-14.7,11.8l0.1-0.2c2.3,6.2,3.1,12.8,2.5,19.4
				c-0.3,3.3-0.9,6.5-1.6,9.7c-0.7,3.2-1.5,6.4-2.7,9.5c-1.1,3.1-2.6,6.1-4.4,8.8c-1.8,2.7-4.1,5.2-6.7,7.3
				c-5.2,4.1-11.6,6.5-17.9,7.9l0.2-0.7c5.8,7.4,11,15.4,15.4,23.7c2.2,4.2,4.2,8.4,6,12.8c0.9,2.2,1.7,4.4,2.5,6.6
				c0.7,2.2,1.5,4.5,1.8,6.9c0.3,2.4,0.3,4.8-0.2,7.2c-0.5,2.4-1.6,4.6-3.1,6.5c-3,3.8-7.4,6.2-11.8,7.9c-4.5,1.7-9.1,2.7-13.8,3.3
				c-4.7,0.7-9.4,1-14.1,1.1c-4.7,0.1-9.4-0.1-14.1-0.2c-4.7-0.2-9.4-0.5-14.1-1.4c-2.3-0.4-4.6-1-6.9-1.9c-2.2-0.9-4.4-2.1-6.1-3.8
				c-1.8-1.7-3.1-3.8-3.7-6.1c-0.7-2.3-0.9-4.7-0.8-7.1c0.1-2.4,0.5-4.7,1-7c0.5-2.3,1-4.6,1.6-6.9c1.2-4.6,2.5-9.1,4-13.6
				c3-8.9,6.3-17.7,10.2-26.3l0,0l0,0c0,0,0,0,0.1-0.1l0.1,0.6c-6.2-0.8-12.4-2-18.1-4.5c-2.9-1.3-5.6-2.9-8-4.8
				c-2.4-2-4.6-4.3-6.3-6.9c-3.5-5.2-5.6-11.2-7.1-17.2c-0.7-3-1.3-6.1-1.8-9.2c-0.4-3.1-0.5-6.2-0.3-9.3l0.2,0.2
				c-6.1,0-12.1-1.7-17.3-4.9c-5.2-3.2-9.4-7.8-12.1-13.3C8.8,58,7.6,51.8,8.2,45.7c0.6-6.1,2.9-12,6.6-16.8
				c3.7-4.8,8.8-8.6,14.5-10.7c5.7-2.1,12-2.6,18-1.4c6,1.2,11.6,4.1,16.1,8.4c4.4,4.2,7.7,9.7,9.2,15.6l-0.6-0.3
				c6.8-2.9,14.1-4.5,21.5-5.2c7.4-0.6,14.8-0.3,22.1,1l-0.4,0.3c0.9-8.1,5-15.7,11.2-21c3.1-2.6,6.7-4.6,10.5-5.9
				c3.8-1.3,7.9-1.8,12-1.6c8.1,0.4,15.9,4.1,21.4,10C176,23.9,179.2,32,179.1,40z"/>
			<path d="M101.1,130c-4.4,0-8.7-0.1-13.1-0.3c-4.4-0.2-8.7-0.5-13-1.2c-4.3-0.7-8.7-1.6-12.6-3.7c-1.9-1.1-3.8-2.5-4.9-4.5
				c-1.2-2-1.6-4.3-1.3-6.6c0.3-2.3,1.2-4.3,1.4-6.4c0.2-2.1-0.4-4.2-0.9-6.3c-0.2-1.1-0.4-2.2-0.5-3.3c-0.1-1.1,0-2.3,0.1-3.3
				c0.3-2.2,0.7-4.4,1.3-6.5c1.2-4.2,3.4-8.2,6.5-11.3c3.1-3.1,7.2-5.2,11.3-6.5l0.1,0l0.1,0c1.4,1,3.1,1.6,4.8,2
				c1.7,0.4,3.4,0.5,5.2,0.3c1.7-0.1,3.4-0.5,5-1.2c1.6-0.7,3.1-1.7,4.1-3l0.2-0.2l0.2,0.2c1.3,1.4,3.1,2.4,4.9,3.1
				c1.8,0.7,3.8,1,5.8,1.1c2,0.1,3.9-0.1,5.8-0.6c1.9-0.5,3.7-1.2,5.3-2.4l0.2-0.1l0.2,0c4.4,1.1,8.7,2.8,12.6,5.3
				c3.9,2.5,7.2,5.8,9.5,9.9c2.3,4,3.2,8.7,3.2,13.3c0,1.1,0.3,2.1,0.5,3.3c0.2,1.1,0.4,2.2,0.6,3.4c0.4,2.2,0.7,4.5,1.2,6.6
				c0.1,0.5,0.3,1.1,0.4,1.7c0.1,0.6,0.1,1.2,0.1,1.8c0,1.1-0.1,2.3-0.4,3.5c-0.6,2.3-2,4.3-3.9,5.7c-1.9,1.4-4,2.4-6.2,3.1
				c-2.2,0.7-4.4,1.2-6.6,1.6c-4.5,0.8-9,1.2-13.5,1.4C110.1,129.9,105.6,130,101.1,130z M101.1,129.9c9-0.1,18.1-0.4,27-2.1
				c2.2-0.4,4.4-1,6.5-1.8c2.1-0.8,4.1-1.7,5.9-3.1c1.7-1.3,3-3.2,3.5-5.3c0.3-1.1,0.3-2.1,0.3-3.2c0-0.6,0-1.1-0.1-1.6
				c-0.1-0.5-0.2-1.1-0.4-1.6c-0.6-2.2-0.9-4.5-1.3-6.7c-0.2-1.1-0.4-2.2-0.6-3.3c-0.2-1.1-0.5-2.2-0.6-3.4c0-2.3-0.2-4.5-0.7-6.6
				c-0.5-2.2-1.3-4.2-2.3-6.2c-2.1-3.9-5.3-7.1-9.1-9.6c-3.7-2.4-7.9-4.1-12.3-5.3l0.4-0.1c-1.7,1.2-3.6,2-5.6,2.4
				c-2,0.5-4,0.6-6,0.5c-2-0.1-4-0.5-5.9-1.2c-1.9-0.7-3.7-1.7-5.1-3.3l0.4,0c-1.1,1.4-2.7,2.4-4.3,3.1c-1.6,0.7-3.4,1.1-5.2,1.2
				c-3.5,0.2-7.2-0.4-10.1-2.4l0.1,0c-4.1,1.3-8.1,3.4-11.1,6.5c-3.1,3.1-5.1,7-6.2,11.2c-0.6,2.1-0.9,4.2-1.1,6.4
				c-0.1,1.1-0.2,2.1-0.1,3.2c0.1,1.1,0.3,2.1,0.6,3.2c0.5,2.1,1.1,4.3,0.9,6.6c-0.2,2.3-1.1,4.4-1.4,6.4c-0.3,2.1,0.1,4.2,1.1,6
				c1.1,1.8,2.7,3.2,4.6,4.2c3.8,2.1,8,3.1,12.3,3.9C83.6,129.5,92.4,129.8,101.1,129.9z"/>
		</g>
	</g>
	<path class="st10" d="M97.8,133.8c6.4-1,13-1.4,19.8-1.1C110.7,135.5,104.2,135.6,97.8,133.8z"/>
	<path class="st7" d="M131.4,66.1c0,1.8-4,3.3-9,3.3c-5,0-9-1.5-9-3.3c0-1.8,4-3.3,9-3.3C127.3,62.8,131.4,64.3,131.4,66.1z"/>
	<path class="st11" d="M131.4,63.9c0,0.6-1.3,1.1-3,1.1c-1.6,0-2.9-0.5-2.9-1.1s1.3-1.1,2.9-1.1C130,62.8,131.4,63.3,131.4,63.9z"/>
	<path class="st7" d="M76.4,66.4c0,1.1-3.2,2-7.2,2c-4,0-7.2-0.9-7.2-2c0-1.1,3.2-2,7.2-2C73.2,64.4,76.4,65.3,76.4,66.4z"/>
	<ellipse class="st11" cx="63.3" cy="64.7" rx="3.1" ry="0.9"/>
	<path class="st10" d="M76.1,149.5c-0.3,0.5-0.5,1-0.8,1.5c-3.1,8.7-6.6,19.5-8.7,30c-2.5,12.8,1.5,19.2,9.9,22.5
		c-0.7-1.1-1.3-2.2-1.8-3.4C66.9,183.5,78.7,167,76.1,149.5z"/>
	<path class="st10" d="M152.6,176.7c-3.4-11-8.7-21.2-13.6-29.2c-2.5,12.9,11.9,25.1,12.8,37.4c0.3,2.9,0.1,5.7-0.3,8.4
		C154.1,189,154.7,183.6,152.6,176.7z"/>
	<path class="st10" d="M94.8,131.7c-10.3,0.2-20.2-1.4-28.8-5.8c-3.5-1.3-5.9-2.9-7.4-4.7c-11.6-9.3-16.4-27.1-12.4-42
		c-16.4,1.5-28.9-7.9-36.4-20.6c4.1,13.2,16.5,22.8,31,22.8c0,0,0.1,0,0.1,0c-0.3,3.5-0.1,7.1,0.6,10.7c4.5,25.3,13.2,37.7,41,41
		c0,0,0,0,0,0c0,0-2.9,6.5-6.4,15.9c0,0.2,0,0.3,0.1,0.5C80.5,141.5,86.1,134.2,94.8,131.7z"/>
	<g>
		<path class="st0" d="M75.3,151c0.3-0.5,0.5-1,0.8-1.5c0-0.2,0-0.3-0.1-0.5C75.8,149.7,75.5,150.3,75.3,151z"/>
		<g>
			<path d="M75.3,151.1L75.3,151.1c-0.1-0.5-0.1-0.7,0-1c0.1-0.3,0.5-0.4,0.7-0.6l0,0.1c0-0.2-0.1-0.3-0.2-0.5l0.6,0.1
				c0,0.2,0,0.4,0,0.6c0,0.2-0.1,0.4-0.1,0.5C76,150.5,75.8,150.8,75.3,151.1L75.3,151.1z M75.2,151c-0.2-0.4-0.2-0.8-0.1-1.2
				c0-0.2,0.1-0.3,0.2-0.5c0.1-0.2,0.2-0.3,0.4-0.4l0.8-0.6l-0.2,0.7c-0.1,0.2-0.1,0.4-0.1,0.5l0,0l0,0.1c-0.1,0.3,0,0.7-0.1,0.9
				C75.9,150.7,75.7,150.9,75.2,151L75.2,151L75.2,151z"/>
		</g>
	</g>
	<path class="st10" d="M179.1,40c0-6.4-1.9-12.3-5.1-17.2c2.7,12.5,0.9,25.8-6.9,36.2c-4.1,5.1-13.2,7.1-13.2,9.1
		c0.7,15.9-3.3,32.3-9.2,47.2c-0.1,2.7-0.9,5-2.9,7c-0.9,2-1.8,3.9-2.7,5.8c13.6-6.3,19-18,21.9-36.2c1.2-7.6,0.4-15.2-2.1-22.2
		C170.7,65,179.1,53.5,179.1,40z"/>
	<g>
		<path class="st0" d="M85.8,135.6c0,0-44.7-18.5-48.2-13.7c-3.6,4.8,35.8,25.4,35.8,25.4s2.8,0.5,0.1,8.7"/>
		<path d="M85.8,135.7c-7.5-2.7-15-5.5-22.5-8.2c-3.8-1.3-7.5-2.7-11.3-3.9c-3.8-1.1-7.7-2.2-11.7-2.3c-0.5,0-1,0-1.4,0.2
			c-0.5,0.1-0.9,0.3-1.1,0.6c-0.2,0.3-0.2,0.8,0,1.2c0.2,0.4,0.5,0.8,0.8,1.2c1.2,1.5,2.8,2.7,4.4,3.9c3.2,2.4,6.5,4.5,9.9,6.6
			c3.4,2.1,6.8,4.1,10.3,6.1c3.4,2,6.9,4,10.4,5.9l-0.1,0c0.6,0.2,0.8,0.5,1,0.9c0.2,0.4,0.3,0.8,0.4,1.2c0.1,0.8,0.1,1.6-0.1,2.4
			c-0.2,1.6-0.7,3-1.2,4.5l-0.1,0c0.4-1.5,0.8-3,0.9-4.5c0.1-0.8,0.1-1.5-0.1-2.2c-0.1-0.4-0.2-0.7-0.4-1c-0.2-0.3-0.5-0.5-0.6-0.6
			l0,0l0,0c-7.1-3.6-14.1-7.5-20.9-11.7c-3.4-2.2-6.7-4.3-9.9-6.9c-1.6-1.3-3.1-2.6-4.4-4.2c-0.3-0.4-0.6-0.9-0.8-1.4
			c-0.2-0.5-0.3-1.2,0.1-1.7c0.4-0.5,0.9-0.7,1.4-0.8c0.5-0.1,1-0.1,1.5-0.1c2,0,4,0.4,6,0.9c2,0.4,3.9,0.9,5.8,1.4
			c3.9,1,7.7,2.2,11.5,3.5C71.2,129.3,78.6,132.2,85.8,135.7L85.8,135.7z"/>
	</g>
	<g>
		<path class="st0" d="M124.5,133.1c0,0,45.2-27.8,49.9-23.2c4.7,4.6-34.4,33.7-34.4,33.7s-2.9,1,1.3,9.4"/>
		<path d="M124.5,133.1c7.3-4.8,14.9-9.3,22.6-13.4c3.9-2.1,7.8-4,11.8-5.7c2-0.9,4-1.8,6.1-2.6c2-0.8,4.1-1.6,6.3-2
			c0.5-0.1,1.1-0.2,1.7-0.1c0.6,0,1.2,0.1,1.7,0.6c0.5,0.5,0.5,1.2,0.4,1.8c-0.1,0.6-0.4,1.1-0.6,1.6c-1.1,2-2.5,3.7-4,5.3
			c-3,3.3-6.2,6.2-9.5,9.1c-6.6,5.8-13.5,11.2-20.7,16.3l0,0l0,0c-0.2,0.1-0.5,0.4-0.6,0.8c-0.1,0.4-0.2,0.8-0.2,1.2
			c0,0.8,0.1,1.6,0.3,2.5c0.4,1.6,1.1,3.2,1.8,4.7l-0.1,0c-0.8-1.5-1.6-3-2.1-4.7c-0.3-0.8-0.4-1.7-0.5-2.6c0-0.4,0-0.9,0.2-1.3
			c0.2-0.4,0.4-0.9,0.9-1.2l-0.1,0c3.4-2.7,6.9-5.4,10.3-8.2c3.4-2.7,6.8-5.5,10.1-8.4c3.3-2.8,6.6-5.8,9.6-8.9c1.5-1.6,3-3.2,4.1-5
			c0.3-0.5,0.5-0.9,0.6-1.4c0.1-0.5,0.1-1-0.2-1.3c-0.3-0.3-0.8-0.5-1.3-0.5c-0.5,0-1.1,0-1.6,0.1c-4.3,0.8-8.3,2.7-12.2,4.5
			c-3.9,1.9-7.8,4.1-11.6,6.1C139.8,124.6,132.2,128.9,124.5,133.1L124.5,133.1z"/>
	</g>
	<path d="M98.6,63.6c0,1.1-1.9,4-4.3,4c-2.4,0-4.3-2.9-4.3-4c0-1.1,1.9-2.1,4.3-2.1C96.6,61.5,98.6,62.5,98.6,63.6z"/>
	<ellipse transform="matrix(0.9843 -0.1763 0.1763 0.9843 -9.6348 17.2135)" class="st11" cx="92.1" cy="62.8" rx="1.2" ry="0.3"/>
	<g>
		<circle class="st10" cx="118.3" cy="60.2" r="3.6"/>
		<circle cx="117.4" cy="60.2" r="3.6"/>
		<circle class="st11" cx="115.6" cy="59.6" r="0.6"/>
	</g>
	<g>
		<circle class="st10" cx="74.8" cy="60.2" r="3.6"/>
		<circle cx="73.9" cy="60.2" r="3.6"/>
		<path class="st11" d="M72.7,59.6c0,0.3-0.3,0.6-0.6,0.6c-0.3,0-0.6-0.3-0.6-0.6c0-0.3,0.3-0.6,0.6-0.6
			C72.4,59,72.7,59.2,72.7,59.6z"/>
	</g>
	<linearGradient id="SVGID_3_" gradientUnits="userSpaceOnUse" x1="135.001" y1="22.0132" x2="166.8602" y2="53.8724">
		<stop  offset="1.818180e-002" style="stop-color:#078D9E"/>
		<stop  offset="1" style="stop-color:#078D9E;stop-opacity:0"/>
	</linearGradient>
	<path class="st5" d="M153.3,62.5c0,0-20.2-6.7-24.7-26.4c-4.5-19.7,28.1-22.3,34.7-13.1c0,0,13,9.2,7.8,24
		C167.3,57.6,162.5,58.2,153.3,62.5z"/>
	<g>
		<path class="st13" d="M150.1,60.5c-2.7-1.1-5.5-2.9-8.2-5.2c1.2,0,2.4-0.3,3.5-1.2c2.3-1.8,2.9-4.7,1.5-6.5
			c-1.2-1.6-3.6-1.8-5.7-0.8c1.2-1.7,1.3-3.7,0.2-5.2c-1.4-1.8-4.4-1.9-6.7-0.1c-1.2,0.9-2,2.2-2.2,3.5c-4-6.2-4.4-12.4,1.8-18.9
			c8.6-9,22.7-9.5,31.5-1c4,3.9,6.3,9,6.6,14.2c-0.3-5.8-2.7-11.5-7.3-15.8c-9.4-9-24.4-8.7-33.5,0.7c-9,9.4-4.5,18.4,4.7,27.7
			c5,5,9.9,8.5,14.7,9.8C150.8,61.3,150.5,60.9,150.1,60.5z"/>
		<g>
			<path d="M150.1,60.6c-3.1-1.2-5.8-3.1-8.3-5.1l-0.5-0.4l0.6,0c1.4,0,2.8-0.6,3.8-1.6c1-1,1.7-2.3,1.7-3.6c0-1.4-0.8-2.6-2.1-3.1
				c-1.2-0.5-2.7-0.3-3.9,0.4l-1.4,0.7l0.9-1.3c0.8-1.1,1.1-2.5,0.7-3.7c-0.4-1.2-1.6-2.1-2.9-2.2c-2.6-0.3-5.3,1.8-5.8,4.4
				l-0.2,1.1l-0.6-1c-1.6-2.6-2.9-5.5-3-8.6c-0.1-3.1,1.2-6.2,3-8.6c3.7-4.9,9.3-8.2,15.3-9c6-0.9,12.3,0.8,17,4.5
				c2.4,1.9,4.4,4.2,5.8,6.9c1.4,2.7,2.3,5.7,2.5,8.7l-0.6,0c-0.3-4.3-1.7-8.5-4.2-12c-2.5-3.5-5.9-6.3-9.9-8
				c-7.9-3.4-17.6-2-24.1,3.6c-1.6,1.4-3.1,3-4.3,4.7c-1.2,1.8-2,3.8-2.3,5.9c-0.3,2.1,0.1,4.2,0.8,6.2c0.7,2,1.8,3.9,3.1,5.6
				c2.5,3.5,5.6,6.7,8.8,9.6c3.3,2.8,6.9,5.5,11.1,6.7l-0.1,0.1C150.8,61.4,150.4,61,150.1,60.6z M150.1,60.5
				c0.4,0.4,0.7,0.8,1.1,1.1l0.2,0.2l-0.3-0.1c-2.1-0.5-4.1-1.5-6-2.6c-1.9-1.1-3.7-2.4-5.3-3.9c-3.3-2.9-6.4-6-9.1-9.5
				c-1.3-1.8-2.5-3.7-3.3-5.8c-0.8-2.1-1.2-4.4-1-6.6c0.2-2.3,1.1-4.4,2.3-6.3c1.2-1.9,2.8-3.5,4.5-5c3.4-2.9,7.6-4.8,12.1-5.5
				c4.4-0.6,9,0,13.1,1.8c4.1,1.8,7.7,4.7,10.2,8.4c2.5,3.7,4,8,4.2,12.5l-0.6,0c-0.3-5.9-3.2-11.7-7.9-15.4c-2.3-1.9-5-3.2-7.9-4
				c-2.9-0.8-5.9-0.9-8.9-0.4c-5.9,0.9-11.3,4.3-14.8,9c-1.7,2.4-2.9,5.2-2.7,8.1c0.1,2.9,1.3,5.7,2.9,8.2l-0.8,0.2
				c0.3-1.5,1.2-2.9,2.4-3.8c1.2-0.9,2.8-1.4,4.3-1.3c0.8,0.1,1.5,0.4,2.2,0.8c0.6,0.5,1.1,1.2,1.3,1.9c0.5,1.5,0,3.2-0.9,4.4
				l-0.5-0.6c1.4-0.7,3-0.9,4.5-0.3c0.7,0.3,1.4,0.8,1.8,1.5c0.4,0.7,0.6,1.5,0.6,2.2c0,1.6-0.8,3-1.9,4c-1.1,1-2.6,1.7-4.1,1.6
				l0.1-0.4C144.5,57.3,147.1,59.2,150.1,60.5L150.1,60.5L150.1,60.5z"/>
		</g>
	</g>
	
		<linearGradient id="SVGID_4_" gradientUnits="userSpaceOnUse" x1="48.687" y1="32.4487" x2="80.5449" y2="64.3066" gradientTransform="matrix(-0.9876 0.1571 0.1571 0.9876 94.7658 -8.6273)">
		<stop  offset="1.818180e-002" style="stop-color:#078D9E"/>
		<stop  offset="1" style="stop-color:#078D9E;stop-opacity:0"/>
	</linearGradient>
	<path class="st6" d="M40.1,73.9c0,0,18.9-9.8,20.2-30C61.6,23.7,29,26.3,24,36.4c0,0-11.4,11.1-3.9,25
		C25.4,71.3,30.3,71.1,40.1,73.9z"/>
	<g>
		<path class="st13" d="M42.9,71.5c2.5-1.5,4.9-3.7,7.3-6.5c-1.1,0.2-2.4,0-3.7-0.6c-2.5-1.4-3.6-4.2-2.5-6.2c1-1.7,3.3-2.4,5.5-1.6
			c-1.4-1.5-1.9-3.5-1-5.1c1.1-2,4.1-2.6,6.6-1.2c1.3,0.7,2.3,1.9,2.7,3.1c3-6.7,2.4-12.9-4.8-18.4c-9.9-7.5-23.9-5.8-31.3,3.9
			c-3.4,4.5-4.8,9.8-4.3,15.1c-0.6-5.8,0.9-11.7,4.7-16.7c7.9-10.4,22.7-12.4,33.2-4.5c10.4,7.9,7.4,17.5-0.3,28.1
			c-4.1,5.7-8.4,10-13,12C42.3,72.4,42.6,71.9,42.9,71.5z"/>
		<g>
			<path d="M42.9,71.4c2.8-1.7,5.1-4.1,7.2-6.6l0.2,0.3c-1.5,0.3-3.1-0.1-4.3-0.9c-1.3-0.8-2.3-2.1-2.5-3.7
				c-0.1-0.8-0.1-1.6,0.2-2.3c0.3-0.7,0.9-1.4,1.5-1.8c1.4-0.8,3.1-0.9,4.5-0.4l-0.4,0.6c-1-1.1-1.8-2.6-1.5-4.2
				c0.1-0.8,0.5-1.5,1-2.1c0.5-0.6,1.3-1,2-1.2c1.5-0.4,3.1-0.1,4.5,0.6c1.3,0.7,2.5,1.9,3,3.4l-0.8,0c1.2-2.7,1.9-5.6,1.6-8.5
				c-0.3-2.9-1.9-5.5-4-7.6c-4.2-4.2-10-6.7-16-6.6c-3,0-5.9,0.6-8.7,1.8c-2.7,1.2-5.2,3-7.2,5.2c-4,4.4-6,10.5-5.4,16.4L17.1,54
				c-0.5-4.4,0.3-8.9,2.2-13c1.9-4,5-7.5,8.7-9.9c3.8-2.4,8.2-3.7,12.7-3.8c4.5-0.1,8.9,1.2,12.8,3.5c1.9,1.2,3.7,2.6,5.2,4.2
				c1.5,1.7,2.7,3.6,3.3,5.9c0.6,2.2,0.6,4.5,0.1,6.7c-0.5,2.2-1.3,4.3-2.3,6.2c-2.1,3.9-4.7,7.5-7.5,10.8c-1.4,1.7-3,3.2-4.7,4.7
				C45.9,70.7,44,72,42,72.9L41.8,73l0.2-0.2C42.3,72.3,42.6,71.9,42.9,71.4L42.9,71.4L42.9,71.4z M43,71.5
				c-0.3,0.4-0.6,0.9-0.9,1.3L42,72.7c4-1.9,7.1-5,9.9-8.4c2.7-3.4,5.3-7,7.2-10.8c1-1.9,1.7-4,2.2-6.1c0.4-2.1,0.4-4.3-0.2-6.3
				c-0.6-2-1.7-3.9-3.1-5.4c-1.4-1.6-3.1-2.9-5-4c-7.3-4.5-17.1-4.4-24.4,0.2c-3.6,2.3-6.6,5.6-8.5,9.4c-1.9,3.8-2.7,8.2-2.3,12.5
				L17.1,54c-0.2-3,0.1-6.1,1.1-9c1-2.9,2.6-5.5,4.6-7.7c4.1-4.5,10.1-7.1,16.1-7.2c6.1-0.1,12.1,2.3,16.5,6.5c2.2,2.1,4,4.9,4.3,8
				c0.4,3.1-0.4,6.2-1.6,9l-0.5,1.1l-0.4-1.1c-0.9-2.5-3.8-4.1-6.4-3.4c-1.3,0.3-2.3,1.3-2.5,2.6c-0.2,1.3,0.4,2.6,1.3,3.6l1.1,1.1
				l-1.4-0.5c-1.3-0.4-2.8-0.4-3.9,0.3c-1.2,0.6-1.8,2-1.5,3.4c0.2,1.3,1.1,2.5,2.2,3.3c1.1,0.8,2.6,1.2,4,0.9l0.6-0.1l-0.4,0.4
				C48.2,67.6,45.8,69.9,43,71.5z"/>
		</g>
	</g>
	<g>
		<g>
			<path d="M112.1,65.6c3.1-1.4,6.4-2.3,9.7-3.1c3.3-0.7,6.7-1.1,10.1-1.2c3.4,0,6.9,0.3,10.1,1.4c1.6,0.5,3.2,1.1,4.7,2
				c1.5,0.8,2.9,1.8,4.1,2.9c-2.8-2-5.9-3.3-9.1-4.2c-3.2-0.8-6.6-1.1-9.9-1.1c-3.3,0-6.7,0.4-10,0.9c-1.7,0.3-3.3,0.6-4.9,1
				C115.3,64.7,113.7,65.1,112.1,65.6z"/>
		</g>
		<g>
			<path d="M112.1,67.9c2.9-0.3,5.9-0.3,8.9-0.1c3,0.1,5.9,0.5,8.8,1.1c2.9,0.6,5.8,1.4,8.6,2.5c1.4,0.6,2.7,1.2,4,2
				c1.3,0.8,2.5,1.6,3.6,2.7c-1.2-0.8-2.5-1.6-3.8-2.2c-1.3-0.7-2.7-1.2-4-1.7c-2.8-1-5.6-1.7-8.5-2.3c-2.9-0.6-5.8-1-8.7-1.3
				c-1.5-0.2-2.9-0.3-4.4-0.4C115,68,113.5,68,112.1,67.9z"/>
		</g>
		<g>
			<path d="M110.7,69.4c3.5,0.8,7,2,10.3,3.4c3.4,1.4,6.6,3,9.8,4.8c3.1,1.9,6.1,4,8.7,6.7c1.3,1.3,2.5,2.7,3.5,4.2
				c1,1.5,1.8,3.2,2.3,4.9c-0.7-1.7-1.6-3.2-2.7-4.7c-1.1-1.4-2.3-2.8-3.6-4c-2.6-2.4-5.6-4.5-8.6-6.4c-3.1-1.9-6.3-3.5-9.6-5
				c-1.6-0.8-3.3-1.5-5-2.1C114.1,70.7,112.4,70.1,110.7,69.4z"/>
		</g>
		<g>
			<path d="M80.4,67c-1.6-0.5-3.2-0.9-4.9-1.3c-1.6-0.4-3.3-0.7-4.9-1c-3.3-0.5-6.7-0.9-10-0.9c-3.3,0-6.7,0.3-9.9,1.1
				c-3.2,0.8-6.3,2.2-9.1,4.2c1.2-1.1,2.7-2.1,4.1-2.9c1.5-0.8,3.1-1.4,4.7-2c3.3-1,6.7-1.4,10.1-1.4c3.4,0,6.8,0.4,10.1,1.2
				C74,64.6,77.3,65.6,80.4,67z"/>
		</g>
		<g>
			<path d="M80.4,69.3c-1.5,0.1-3,0.1-4.4,0.2c-1.5,0.1-2.9,0.2-4.4,0.4c-2.9,0.3-5.8,0.7-8.7,1.3c-2.9,0.6-5.7,1.3-8.5,2.3
				c-1.4,0.5-2.7,1-4,1.7c-1.3,0.6-2.6,1.4-3.8,2.2c1.1-1,2.3-1.9,3.6-2.7c1.3-0.8,2.6-1.4,4-2c2.8-1.2,5.6-1.9,8.6-2.5
				c2.9-0.6,5.9-0.9,8.8-1.1C74.4,69,77.4,69,80.4,69.3z"/>
		</g>
		<g>
			<path d="M81.7,70.8c-1.7,0.6-3.4,1.2-5.1,1.9c-1.7,0.7-3.3,1.4-5,2.1c-3.3,1.5-6.5,3.1-9.6,5c-3.1,1.8-6,3.9-8.6,6.4
				c-1.3,1.2-2.5,2.5-3.6,4c-1.1,1.4-2,3-2.7,4.7c0.5-1.7,1.3-3.4,2.3-4.9c1-1.5,2.2-2.9,3.5-4.2c2.6-2.6,5.6-4.8,8.7-6.7
				c3.1-1.9,6.4-3.5,9.8-4.8C74.7,72.8,78.2,71.7,81.7,70.8z"/>
		</g>
	</g>
	<g class="st3">
		<path class="st11" d="M81.1,148.4c-0.4,3.6-1,7.2-1.7,10.8c-0.6,3.6-1.3,7.1-1.9,10.6l-1.9,10.6L73.8,191c-0.7-3.6-0.7-7.3-0.5-11
			c0.2-3.7,0.7-7.3,1.3-10.9c0.7-3.6,1.5-7.1,2.6-10.6C78.3,155.1,79.5,151.7,81.1,148.4z"/>
	</g>
</g>
<g>
	<path class="st4" d="M170.6,189.1c0.2-0.9,0.3-1.9,0.3-2.9c0-6.7-4.8-12.1-10.7-12.1c-1.9,0-3.7,0.6-5.2,1.5
		c-2.5-2.2-5.6-3.5-9-3.5c-7.4,0-13.6,6.2-14.7,14.2c-2.5-2.1-5.5-3.3-8.9-3.3c-6.5,0-12.1,4.8-14.1,11.4c-2-6.6-7.5-11.4-14.1-11.4
		c-3.9,0-7.5,1.7-10.1,4.5c-1.4-1.8-3.5-2.9-5.8-2.9c-1.8,0-3.5,0.7-4.8,1.9c-3.1-2.5-6.9-4-11-4c-10.3,0-18.7,9.4-18.7,21.1
		s8.4,21.1,18.7,21.1c6.6,0,12.4-3.9,15.7-9.7c-0.1,0.5-0.1,1-0.1,1.6c0,4.8,3.5,8.7,7.7,8.7c4.3,0,7.7-3.9,7.7-8.7c0,0,0,0,0,0
		c0,0,0.1,0,0.1,0c0.8,3.8,3.9,6.6,7.5,6.6c4.3,0,7.7-3.9,7.7-8.7c0-1.3-0.2-2.5-0.7-3.6c0.7-0.5,1.3-1.1,1.8-1.8
		c1,1.7,2.3,3.2,3.8,4.4c0.5,8.7,6.9,15.6,14.8,15.6c4.8,0,9.1-2.6,11.8-6.6c0,0,0.1,0,0.1,0c0.6,0,1.2-0.1,1.8-0.1
		c2,2.6,4.9,4.2,8.1,4.2c4.3,0,8-2.9,9.7-7c2.4,1.8,5.3,2.9,8.4,2.9c8.2,0,14.9-7.5,14.9-16.8C183.3,197.2,177.8,190.2,170.6,189.1z
		 M80.1,210.7c0.4-1.1,0.6-2.3,0.8-3.5c0.3,0.6,0.6,1.3,0.9,1.9C81.2,209.5,80.6,210.1,80.1,210.7z"/>
	<g>
		<path d="M170.5,189c0.5-2.1,0.4-4.4-0.2-6.5c-0.6-2.1-1.7-4-3.3-5.5c-1.6-1.5-3.6-2.5-5.8-2.7c-2.1-0.2-4.3,0.3-6.1,1.5l-0.2,0.1
			l-0.1-0.1c-2-1.7-4.5-2.9-7.1-3.2c-2.6-0.4-5.3,0.1-7.6,1.3c-2.3,1.2-4.3,3-5.8,5.2c-1.4,2.2-2.3,4.7-2.7,7.3l-0.1,0.7l-0.5-0.4
			c-1.8-1.5-4-2.6-6.3-3c-2.3-0.4-4.7-0.2-6.9,0.7c-2.2,0.8-4.1,2.3-5.7,4.1c-1.5,1.8-2.7,3.9-3.4,6.2l-0.4,1.4l-0.4-1.4
			c-0.7-2.4-1.9-4.7-3.6-6.5c-1.7-1.9-3.8-3.3-6.2-4c-2.4-0.7-5-0.8-7.4-0.1c-2.4,0.7-4.6,2.1-6.3,3.9l-0.3,0.3l-0.2-0.3
			c-1.2-1.5-2.9-2.6-4.9-2.8c-0.9-0.1-1.9,0-2.8,0.3c-0.9,0.3-1.8,0.8-2.5,1.5l-0.2,0.2l-0.2-0.2c-3-2.5-6.7-4-10.6-4
			c-3.9-0.1-7.7,1.3-10.7,3.7c-3.1,2.4-5.4,5.7-6.6,9.4c-1.3,3.7-1.6,7.6-1,11.5c0.6,3.8,2.2,7.5,4.6,10.5c2.4,3,5.8,5.3,9.5,6.2
			c3.7,0.9,7.8,0.5,11.2-1.2c3.5-1.7,6.3-4.5,8.2-7.9l1-1.8l-0.3,2c-0.4,2.2,0.1,4.5,1.3,6.3c1.1,1.9,3.1,3.2,5.2,3.4
			c2.2,0.3,4.3-0.7,5.8-2.3c1.5-1.6,2.2-3.8,2.2-6l0-0.5l0.5,0l0.1,0l0.4,0l0.1,0.3c0.5,2.1,1.7,4.1,3.6,5.2
			c1.8,1.1,4.1,1.3,6.1,0.4c1.9-0.9,3.4-2.7,4.1-4.7c0.7-2,0.6-4.3-0.2-6.3l-0.1-0.4l0.3-0.2c0.6-0.5,1.2-1.1,1.7-1.7l0.5-0.7
			l0.4,0.7c1,1.6,2.2,3.1,3.6,4.3l0.2,0.1l0,0.2c0.2,3.1,1.1,6.1,2.8,8.6c1.7,2.5,4.1,4.6,6.9,5.7c2.8,1.1,6,1.1,8.9,0.1
			c2.9-1,5.3-3.1,7-5.6l0.2-0.2l0.2,0c0.2,0,0.3,0,0.5,0c0.2,0,0.3,0,0.5,0c0.3,0,0.6-0.1,0.9-0.1l0.3,0l0.2,0.2
			c1.1,1.4,2.5,2.6,4.1,3.3c1.6,0.7,3.4,0.9,5.2,0.7c1.7-0.3,3.4-1.1,4.7-2.2c1.3-1.2,2.4-2.7,3.1-4.3l0.2-0.5l0.4,0.3
			c1.8,1.4,4,2.4,6.2,2.7c2.3,0.3,4.6,0.1,6.8-0.8c4.3-1.7,7.6-5.6,8.9-10.1c1.4-4.4,1-9.4-1-13.6
			C179.2,193.2,175.2,189.9,170.5,189L170.5,189L170.5,189z M170.6,189c2.3,0.4,4.6,1.3,6.4,2.8c1.9,1.5,3.4,3.4,4.5,5.5
			c2.2,4.2,2.6,9.3,1.2,13.9c-1.4,4.6-4.7,8.7-9.2,10.5c-2.2,0.9-4.7,1.2-7.1,0.9c-2.4-0.3-4.7-1.3-6.6-2.8l0.6-0.2
			c-0.7,1.8-1.8,3.4-3.3,4.6c-1.4,1.3-3.2,2.2-5.1,2.5c-1.9,0.3-3.9,0.1-5.7-0.7c-1.8-0.7-3.3-2-4.5-3.5l0.5,0.2
			c-0.3,0-0.7,0.1-1,0.1l-0.5,0c-0.1,0-0.4,0-0.5,0l0.4-0.2c-1.8,2.7-4.4,4.9-7.5,6c-3.1,1.1-6.5,1.1-9.6-0.1
			c-3.1-1.2-5.7-3.4-7.4-6.1c-1.8-2.7-2.8-5.9-3-9.1l0.2,0.4c-1.6-1.3-2.9-2.8-3.9-4.5l0.9,0c-0.5,0.7-1.2,1.4-1.9,1.9l0.2-0.6
			c0.9,2.2,0.9,4.8,0.2,7c-0.8,2.3-2.4,4.3-4.7,5.3c-2.2,1-4.9,0.8-7-0.5c-2.1-1.3-3.4-3.5-4-5.8l0.4,0.4l-0.1,0l0.5-0.5
			c0,2.4-0.8,4.8-2.5,6.6c-1.6,1.8-4.1,2.8-6.5,2.5c-2.4-0.3-4.6-1.8-5.8-3.9c-1.3-2-1.7-4.5-1.3-6.9l0.7,0.2
			c-2,3.4-4.9,6.4-8.5,8.1c-3.6,1.7-7.8,2.2-11.6,1.2c-3.9-1-7.3-3.3-9.8-6.4c-2.5-3.1-4.1-6.8-4.7-10.7c-0.6-3.9-0.2-7.9,1.1-11.6
			c1.3-3.7,3.6-7.1,6.7-9.5c3.1-2.5,7-3.9,11-3.9c4,0,7.9,1.5,10.9,4l-0.4,0c1.5-1.4,3.6-2.2,5.7-2c2.1,0.2,4,1.4,5.3,3l-0.5,0
			c1.8-1.9,4.1-3.4,6.6-4.1c2.5-0.7,5.3-0.7,7.8,0.1c2.5,0.8,4.8,2.3,6.6,4.2c1.8,1.9,3.1,4.3,3.8,6.8h-0.8c0.7-2.4,1.9-4.6,3.5-6.5
			c1.6-1.9,3.7-3.4,6-4.3c2.3-0.9,4.9-1.1,7.4-0.7c2.5,0.5,4.8,1.6,6.6,3.2l-0.6,0.2c0.4-2.7,1.3-5.3,2.9-7.6
			c1.5-2.3,3.6-4.2,6.1-5.4c2.5-1.2,5.3-1.7,8-1.3c2.7,0.4,5.3,1.6,7.3,3.4l-0.3,0c1.9-1.2,4.2-1.8,6.5-1.5c2.2,0.3,4.3,1.4,5.9,2.9
			c1.6,1.6,2.7,3.6,3.3,5.7C171.1,184.6,171.1,186.9,170.6,189z"/>
		<path d="M80.1,210.7c-0.1-0.3-0.1-0.7,0-1c0-0.3,0.1-0.6,0.1-0.9c0.1-0.3,0.3-0.5,0.4-0.8c0.1-0.3,0.2-0.6,0.2-0.9l0-0.5l0.3,0.5
			c0.2,0.3,0.4,0.6,0.7,0.8l0.6,0.8l0.3,0.4l-0.4,0.3c-0.3,0.2-0.6,0.4-1,0.6C80.9,210.3,80.6,210.5,80.1,210.7L80.1,210.7
			L80.1,210.7z M80,210.8l0-0.2c0.2-0.9,0.8-1.6,1.5-2.1l-0.2,0.7c-0.2-0.3-0.3-0.7-0.4-1c-0.1-0.3-0.1-0.7-0.2-1.1l0.3,0
			c-0.1,0.3-0.1,0.6-0.1,0.9c0,0.3,0.1,0.6,0,0.9c-0.1,0.6-0.4,1.2-0.9,1.7L80,210.8z"/>
	</g>
</g>
<path class="st1" d="M151.9,205.3c-2,13-16,7-22,0c1,3-3,3-2,6c-9,3-21-1-24-11c-1,11-14,9-20,5c-2-2-4-6-3-10c-4,15-20,15-31,9
	c-2.3-1.3-4.2-3.1-5.7-5.1c-0.3,1.5-0.5,3-0.5,4.6c0,11.6,8.4,21.1,18.7,21.1c6.6,0,12.4-3.9,15.7-9.7c-0.1,0.5-0.1,1-0.1,1.6
	c0,4.8,3.5,8.7,7.7,8.7c4.3,0,7.7-3.9,7.7-8.7c0,0,0,0,0,0c0,0,0.1,0,0.1,0c0.8,3.8,3.9,6.6,7.5,6.6c4.3,0,7.7-3.9,7.7-8.7
	c0-1.3-0.2-2.5-0.7-3.6c0.7-0.5,1.3-1.1,1.8-1.8c1,1.7,2.3,3.2,3.8,4.4c0.5,8.7,6.9,15.6,14.8,15.6c4.8,0,9.1-2.6,11.8-6.6
	c0,0,0.1,0,0.1,0c0.6,0,1.2-0.1,1.8-0.1c2,2.6,4.9,4.2,8.1,4.2c4.3,0,8-2.9,9.7-7c2.4,1.8,5.3,2.9,8.4,2.9c7.6,0,13.8-6.4,14.7-14.7
	C172.5,213.4,161,215,151.9,205.3z M80,211.1c0.4-1.1,0.6-2.3,0.8-3.5c0.3,0.6,0.6,1.3,0.9,1.9C81.1,209.9,80.5,210.4,80,211.1z"/>
<g>
	<circle class="st4" cx="94.5" cy="180.7" r="8.6"/>
	<path d="M103.2,180.7c0,2.3-0.8,4.6-2.4,6.3c-1.6,1.8-4,2.8-6.3,2.7c-2.4-0.1-4.6-1.2-6.2-2.8c-1.6-1.6-2.6-3.9-2.7-6.2
		c-0.1-2.3,0.8-4.7,2.5-6.4c1.7-1.7,4-2.8,6.5-2.7c2.4,0,4.8,1,6.3,2.8C102.4,176.2,103.2,178.5,103.2,180.7z M103.1,180.7
		c0-2.3-1.1-4.4-2.7-5.9c-1.6-1.4-3.7-2.3-5.9-2.2c-2.1,0-4.2,0.8-5.8,2.3c-1.5,1.5-2.5,3.6-2.6,5.8c-0.1,2.2,0.8,4.4,2.4,6
		c1.6,1.6,3.8,2.3,6,2.2c2.2-0.1,4.2-0.9,5.9-2.3C102,185.2,103.1,183,103.1,180.7z"/>
</g>
<g>
	<circle class="st4" cx="130.8" cy="194.1" r="4.7"/>
	<path d="M135.6,194.1c0,1.2-0.4,2.5-1.2,3.6c-0.8,1-2.2,1.7-3.6,1.6c-1.3-0.1-2.6-0.8-3.5-1.7c-0.9-0.9-1.5-2.1-1.5-3.5
		c-0.1-1.3,0.4-2.7,1.3-3.7c0.9-1,2.3-1.6,3.7-1.6c1.3,0,2.7,0.6,3.6,1.7C135.2,191.6,135.6,192.9,135.6,194.1z M135.5,194.1
		c0-1.2-0.7-2.4-1.6-3.1c-0.9-0.7-2-1.1-3.1-1.1c-1.1,0-2.2,0.4-3,1.2c-0.8,0.8-1.4,1.8-1.4,3c-0.1,1.2,0.3,2.4,1.2,3.2
		c0.9,0.8,2.1,1.2,3.2,1.1c1.1-0.1,2.2-0.5,3.1-1.2C134.8,196.5,135.5,195.4,135.5,194.1z"/>
</g>
<g>
	<circle class="st4" cx="146" cy="175.9" r="9.8"/>
	<path d="M155.9,175.9c0,2.6-0.9,5.2-2.7,7.2c-1.8,2-4.5,3.2-7.2,3.1c-5.5-0.1-10-4.9-10.1-10.2c-0.1-2.6,0.9-5.4,2.8-7.3
		c1.9-1.9,4.6-3.1,7.3-3.1c2.7,0,5.4,1.2,7.2,3.2C155,170.7,155.9,173.3,155.9,175.9z M155.8,175.9c0-2.6-1.2-5.1-3.1-6.7
		c-1.9-1.7-4.3-2.6-6.7-2.6c-2.4,0-4.9,1-6.6,2.7c-1.8,1.7-2.8,4.1-2.9,6.6c-0.1,2.5,0.9,5.1,2.7,6.8c1.8,1.8,4.4,2.7,6.8,2.6
		c2.5-0.1,4.9-1,6.7-2.7C154.6,181,155.8,178.5,155.8,175.9z"/>
</g>
<g>
	<circle class="st4" cx="82.3" cy="207.7" r="7.6"/>
	<path d="M90,207.7c0,2-0.7,4.1-2.1,5.6c-1.4,1.6-3.5,2.5-5.6,2.4c-2.1-0.1-4.1-1.1-5.5-2.5c-1.4-1.5-2.3-3.4-2.4-5.5
		c-0.1-2.1,0.7-4.2,2.2-5.7c1.5-1.5,3.6-2.5,5.7-2.4c2.1,0,4.3,0.9,5.6,2.5C89.3,203.7,90,205.7,90,207.7z M89.9,207.7
		c0-2-1-3.9-2.4-5.2c-1.5-1.2-3.3-2-5.2-1.9c-1.9,0-3.7,0.7-5.1,2c-1.4,1.3-2.2,3.1-2.3,5.1c-0.1,1.9,0.7,3.9,2.1,5.3
		c1.4,1.4,3.4,2,5.3,1.9c1.9-0.1,3.7-0.8,5.2-2C88.9,211.6,89.9,209.7,89.9,207.7z"/>
</g>
<g>
	<circle class="st4" cx="50.1" cy="191.8" r="15.2"/>
	<path d="M65.4,191.8c0,4-1.5,8-4.3,11c-2.8,3-6.9,4.7-11,4.7c-2,0-4.1-0.5-5.9-1.3c-1.9-0.8-3.5-2-5-3.4c-2.8-2.9-4.5-6.8-4.6-10.9
		c-0.1-4,1.5-8.2,4.4-11.1c1.4-1.5,3.2-2.6,5.1-3.5c1.9-0.8,4-1.2,6-1.2c4.1,0,8.2,1.7,11,4.7C63.9,183.7,65.4,187.8,65.4,191.8z
		 M65.3,191.8c0-2-0.4-4-1.2-5.8c-0.8-1.8-2-3.4-3.4-4.8c-2.9-2.7-6.7-4.2-10.5-4.2c-3.9,0-7.7,1.6-10.4,4.3
		c-2.8,2.7-4.4,6.5-4.5,10.4c-0.1,3.9,1.5,7.9,4.3,10.6c2.8,2.8,6.8,4.3,10.7,4.2c3.9,0,7.7-1.6,10.5-4.3c1.4-1.3,2.6-3,3.4-4.8
		C64.9,195.7,65.3,193.7,65.3,191.8z"/>
</g>
<g>
	<circle class="st4" cx="128.9" cy="219.7" r="12.7"/>
	<path d="M141.6,219.7c0,3.3-1.2,6.7-3.5,9.2c-1.2,1.2-2.6,2.3-4.2,2.9c-1.6,0.7-3.3,1-5,1c-1.7,0-3.4-0.4-5-1.1
		c-1.5-0.7-2.9-1.7-4.1-2.9c-2.3-2.4-3.8-5.7-3.9-9.1c-0.1-3.4,1.2-6.8,3.7-9.3c2.4-2.5,5.8-3.9,9.3-3.9c3.5,0,6.9,1.5,9.2,4
		C140.4,213,141.6,216.3,141.6,219.7z M141.5,219.7c0-3.3-1.5-6.6-3.9-8.7c-2.4-2.2-5.5-3.4-8.7-3.4c-3.2,0-6.3,1.3-8.6,3.5
		c-2.3,2.2-3.7,5.4-3.8,8.6c-0.1,3.2,1.2,6.6,3.6,8.8c2.3,2.3,5.6,3.5,8.8,3.4c3.2,0,6.4-1.3,8.7-3.5
		C140,226.2,141.5,223,141.5,219.7z"/>
</g>
<g>
	<circle class="st4" cx="192.7" cy="190.2" r="20.4"/>
	<path d="M213.1,190.2c0,5.4-2,10.7-5.8,14.7c-1.9,2-4.2,3.5-6.7,4.6c-2.5,1.1-5.3,1.6-8,1.6c-2.7,0-5.4-0.6-7.9-1.7
		c-2.5-1.1-4.7-2.7-6.6-4.6c-3.8-3.8-6.1-9.1-6.1-14.6c-0.1-5.4,2-10.9,5.9-14.8c1.9-1.9,4.2-3.5,6.8-4.6c2.5-1.1,5.3-1.6,8-1.6
		c5.5,0,10.9,2.3,14.7,6.3C211.1,179.4,213.2,184.8,213.1,190.2z M213,190.2c0-2.7-0.6-5.3-1.6-7.8c-1.1-2.4-2.6-4.6-4.5-6.4
		c-3.8-3.6-9-5.7-14.2-5.7c-5.2,0-10.4,2.1-14.1,5.8c-3.7,3.7-6,8.8-6,14.1c-0.1,5.3,2,10.6,5.8,14.3c3.8,3.8,9.1,5.8,14.3,5.7
		c5.2,0,10.4-2.1,14.2-5.8c1.9-1.8,3.5-4,4.5-6.5C212.5,195.5,213,192.8,213,190.2z"/>
</g>
<g>
	<circle class="st4" cx="23.3" cy="202.9" r="8.4"/>
	<path d="M31.7,202.9c0,2.2-0.7,4.4-2.3,6.1c-1.5,1.7-3.8,2.7-6.2,2.6c-2.3-0.1-4.5-1.1-6-2.8c-1.6-1.6-2.5-3.8-2.6-6
		c-0.1-2.3,0.8-4.6,2.4-6.3c1.6-1.7,3.9-2.7,6.3-2.7c2.3,0,4.7,1,6.1,2.8C31,198.5,31.7,200.7,31.7,202.9z M31.6,202.9
		c0-2.2-1-4.3-2.6-5.7c-1.6-1.4-3.6-2.2-5.7-2.2c-2,0-4.1,0.8-5.6,2.3c-1.5,1.4-2.4,3.5-2.5,5.6c-0.1,2.1,0.7,4.3,2.3,5.8
		c1.6,1.5,3.7,2.2,5.8,2.2c2.1-0.1,4.1-0.9,5.7-2.3C30.5,207.2,31.6,205.1,31.6,202.9z"/>
</g>
</svg>
