<?xml version="1.0" encoding="utf-8"?>
<!-- Generator: Adobe Illustrator 15.1.0, SVG Export Plug-In . SVG Version: 6.00 Build 0)  -->
<!DOCTYPE svg PUBLIC "-//W3C//DTD SVG 1.1//EN" "http://www.w3.org/Graphics/SVG/1.1/DTD/svg11.dtd">
<svg version="1.1" id="Rat_1_" xmlns="http://www.w3.org/2000/svg" xmlns:xlink="http://www.w3.org/1999/xlink" x="0px" y="0px"
	 width="358.5px" height="324px" viewBox="0 0 358.5 324" style="enable-background:new 0 0 358.5 324;" xml:space="preserve">
<style type="text/css">
<![CDATA[
	.st0{fill:#7AD7EE;}
	.st1{fill:#4C4C4C;}
	.st2{opacity:0.18;}
	.st3{opacity:0.24;}
	.st4{opacity:0.25;}
	.st5{opacity:0.35;}
	.st6{opacity:0.65;}
	.st7{opacity:0.67;}
	.st8{fill:#B78523;}
	.st9{opacity:0.38;fill:url(#SVGID_3_);}
	.st10{opacity:0.38;fill:url(#SVGID_4_);}
	.st11{opacity:0.33;fill:#72531C;}
	.st12{opacity:0.45;fill:#FDACBD;}
	.st13{opacity:0.24;fill:#F69D01;}
	.st14{fill:#FCC581;}
	.st15{opacity:0.25;fill:#078D9E;}
	.st16{fill:#FFBF31;}
	.st17{fill:#FFFFFF;}
	.st18{opacity:0.39;fill:#B78523;}
	.st19{fill:none;stroke:#078D9E;stroke-miterlimit:10;}
	.st20{fill:#7AD7EE;stroke:#000000;stroke-miterlimit:10;}
	.st21{fill:#006283;}
	.st22{opacity:0.63;fill:#B78523;}
	.st23{opacity:0.25;clip-path:url(#SVGID_2_);}
]]>
</style>
<g>
	<ellipse class="st3" cx="143.2" cy="306" rx="63.4" ry="6.5"/>
	<path class="st20" d="M158.7,180.1c0,0,60.4,9.3,26.7,27.8C185.4,208,177.3,213.1,158.7,180.1z"/>
	<g>
		<g>
			<path class="st0" d="M121.3,245.9c0,0-40.7,9.5-35-50c5.8-59.5-25.5-68.7-51.8-52.7c-12.1,7.3-16.3,16.2-16.3,16.2
				s5.2,1.5,14.4-6c0,0,40.6-34.3,47.2,24.8c0,0-4.6,57.5,4.9,65.3c9.5,7.9,37.6,22.7,46.7,7L121.3,245.9z"/>
			<g>
				<path d="M121.3,246c-4,0.8-8.1,0.8-12.2,0.1c-4-0.7-7.9-2.4-11.2-4.9c-3.3-2.5-5.8-5.8-7.7-9.5c-1.9-3.7-3-7.6-3.8-11.7
					c-1.5-8.1-1.3-16.3-0.6-24.4c0.7-8.1,1-16.2,0.1-24.3c-0.4-4-1.2-8-2.3-11.9c-1.2-3.9-2.8-7.6-5-11c-2.2-3.4-5.1-6.3-8.6-8.4
					c-3.5-2.1-7.4-3.3-11.5-3.5c-4-0.3-8.1,0.3-12,1.4c-3.9,1.1-7.6,2.8-11.1,4.8c-3.5,2-6.8,4.4-9.7,7.2c-2.9,2.8-5.6,5.9-7.5,9.5
					l-0.1-0.3c1.7,0.3,3.6-0.1,5.3-0.6c1.7-0.6,3.3-1.4,4.9-2.4c1.6-1,3-2.1,4.4-3.2c1.4-1.2,3-2.2,4.5-3.2c3.1-2,6.4-3.7,9.9-4.9
					c3.5-1.2,7.2-1.9,11-1.5c3.7,0.3,7.4,1.9,10.2,4.4c2.8,2.5,4.9,5.7,6.5,9.1c3.1,6.8,4.5,14.1,5.4,21.5l0,0l0,0.1
					c-0.7,9.9-1.1,19.8-1.1,29.7c0,4.9,0.1,9.9,0.5,14.8c0.4,4.9,0.9,9.9,2.2,14.6c0.3,1.2,0.7,2.3,1.3,3.4c0.5,1.1,1.2,2,2.2,2.8
					c1.9,1.5,3.9,2.9,6,4.2c4.2,2.6,8.6,4.9,13.2,6.6c4.6,1.7,9.5,3,14.4,2.9c2.4-0.1,4.9-0.6,7.1-1.7c2.2-1.1,4-2.9,5.2-5l0.1,0.2
					L121.3,246z M121.3,245.9l10.2,4.5l0.1,0.1l-0.1,0.1c-1.2,2.2-3,4.1-5.3,5.2c-2.2,1.2-4.8,1.7-7.2,1.8c-5,0.2-10-1.1-14.6-2.8
					c-4.7-1.7-9.2-3.9-13.4-6.5c-2.1-1.3-4.2-2.7-6.2-4.2c-1-0.8-1.9-1.9-2.4-3c-0.6-1.1-1-2.3-1.4-3.5c-1.4-4.8-1.9-9.8-2.3-14.8
					c-0.4-5-0.5-9.9-0.5-14.9c0-9.9,0.4-19.9,1.1-29.8l0,0.1c-0.8-7.3-2.2-14.5-5.2-21.2c-1.5-3.3-3.5-6.4-6.2-8.8
					c-2.7-2.4-6.1-3.9-9.7-4.3c-3.6-0.4-7.3,0.3-10.7,1.4c-3.5,1.2-6.7,2.8-9.8,4.7c-1.5,1-3.1,2-4.5,3.1c-1.4,1.2-2.9,2.3-4.5,3.3
					c-1.6,1-3.2,1.8-5,2.4c-1.8,0.6-3.6,1-5.6,0.6l-0.3-0.1l0.1-0.3c2-3.6,4.6-6.8,7.6-9.6c3-2.8,6.3-5.2,9.8-7.2
					c7-4,15.1-6.7,23.3-6.3c4.1,0.2,8.1,1.4,11.7,3.5c3.5,2.1,6.5,5.1,8.8,8.5c2.3,3.4,4,7.2,5.2,11.1c1.2,3.9,2,7.9,2.4,12
					c0.9,8.1,0.8,16.3,0,24.4c-0.8,8.1-1,16.2,0.4,24.2c0.7,4,1.8,7.9,3.6,11.5c1.8,3.6,4.3,6.9,7.5,9.4c3.2,2.5,7,4.2,10.9,5
					C113.2,246.5,117.3,246.6,121.3,245.9L121.3,245.9z"/>
			</g>
		</g>
		<path class="st15" d="M117.8,251.3c0,0,0-2.8,0-4.9c2.2-0.2,3.5-0.5,3.5-0.5l10.1,4.6c-9.1,15.7-37.2,0.8-46.7-7
			c-6.5-5.4-6.4-33.9-5.7-51.4C81.8,221,82.8,255.4,117.8,251.3z"/>
		<g>
			<defs>
				<path id="SVGID_1_" d="M121.3,245.9c0,0-40.7,9.5-35-50c5.8-59.5-25.5-68.7-51.8-52.7c-12.1,7.3-16.3,16.2-16.3,16.2
					s5.2,1.5,14.4-6c0,0,40.6-34.3,47.2,24.8c0,0-4.6,57.5,4.9,65.3c9.5,7.9,37.6,22.7,46.7,7L121.3,245.9z"/>
			</defs>
			<clipPath id="SVGID_2_">
				<use xlink:href="#SVGID_1_"  style="overflow:visible;"/>
			</clipPath>
			<g class="st23">
				<g>
					<path class="st19" d="M118.7,244.4c0,0,5.6,7,1.4,15.3"/>
					<path class="st19" d="M113.2,244.4c0,0,5.6,7,1.4,15.3"/>
					<path class="st19" d="M108.9,244.3c0,0,4.1,8-1.7,15.3"/>
					<path class="st19" d="M104.7,242.4c0,0,2.3,8.7-5,14.5"/>
					<path class="st19" d="M92.7,229.3c0,0-4.8,7.6-14,6.3"/>
					<path class="st19" d="M92.3,223.1c0,0-6.3,6.4-15,3.1"/>
					<path class="st19" d="M91.4,215.4c0,0-6.3,6.4-15,3.1"/>
					<path class="st19" d="M90.4,207.8c0,0-6.3,6.4-15,3.1"/>
					<path class="st19" d="M89.5,200.1c0,0-6.3,6.4-15,3.1"/>
					<path class="st19" d="M90.4,192.5c0,0-6.3,6.4-15,3.1"/>
					<path class="st19" d="M89.5,183.6c0,0-6.3,6.4-15,3.1"/>
					<path class="st19" d="M89.5,174.3c0,0-6.3,6.4-15,3.1"/>
					<path class="st19" d="M89,166.4c0,0-5.4,7.2-14.5,5.2"/>
					<path class="st19" d="M87,159.3c0,0-5.4,7.2-14.5,5.2"/>
					<path class="st19" d="M85.2,151.3c0,0-4.5,7.8-13.8,6.8"/>
					<path class="st19" d="M80.5,143.6c0,0-2.9,8.5-12.1,9.4"/>
					<path class="st19" d="M73.3,137.7c0,0-1,8.9-9.8,11.8"/>
					<path class="st19" d="M64.4,133.6c0,0,1.8,8.8-5.8,14.2"/>
					<path class="st19" d="M55,131.2c0,0,4,8-1.9,15.2"/>
					<path class="st19" d="M45.2,133.3c0,0,6.5,6.2,3.3,15"/>
					<path class="st19" d="M37.2,137.2c0,0,8,4.1,7.6,13.3"/>
					<path class="st19" d="M29.2,141.6c0,0,8.5,2.8,9.5,12.1"/>
					<path class="st19" d="M23.4,145.7c0,0,8.5,2.8,9.5,12.1"/>
					<path class="st19" d="M18.7,150.7c0,0,8.5,2.8,9.5,12.1"/>
					<path class="st19" d="M101.3,240.9c0,0,0.6,6.9-9.9,8.7"/>
					<path class="st19" d="M95.7,237.3c0,0-0.4,6.9-11.1,7.2"/>
				</g>
			</g>
		</g>
	</g>
	<g>
		<path class="st14" d="M182.1,145.9c-1.3-8.6-1.9-8-2-12c-0.6-26.3-25.6-38.6-56.4-38.6c-30.9,0-52.8,6.1-55.3,36.9
			c-0.4,4.9,2,9.9,2,14.2c-0.1,4.4-2,7.4-2,11.1c0,12.3,13.7,19.6,58.5,19.6c44.9,0,57.2-7.3,57.2-19.6
			C184.1,153,183.4,154.5,182.1,145.9z"/>
		<g>
			<path d="M182,145.9c-0.3-1.7-0.6-3.4-0.9-5.1c-0.3-1.7-0.8-3.4-1-5.1c-0.1-1.7-0.1-3.5-0.3-5.2c-0.2-1.7-0.5-3.4-1-5.1
				c-0.9-3.4-2.3-6.6-4.3-9.4c-1.9-2.9-4.3-5.4-7-7.6c-5.4-4.3-11.8-7.3-18.5-9.2c-6.7-1.9-13.6-2.9-20.5-3.2
				c-3.5-0.2-6.9-0.2-10.4-0.1c-3.5,0.1-7,0.2-10.4,0.6c-6.9,0.7-13.8,2-20.1,5c-3.1,1.5-6.1,3.4-8.6,5.8c-2.5,2.4-4.6,5.2-6.1,8.3
				c-1.6,3.1-2.6,6.4-3.3,9.8c-0.3,1.7-0.6,3.4-0.8,5.1c-0.1,0.9-0.2,1.7-0.2,2.6c0,0.9,0,1.7,0.2,2.6c0.4,3.4,1.7,6.7,1.9,10.3
				c0.1,1.8-0.2,3.6-0.6,5.3c-0.4,1.7-1,3.4-1.2,5c-0.4,3.4,0.5,6.9,2.7,9.5c2.2,2.6,5.3,4.3,8.4,5.6c3.2,1.3,6.6,2.1,10,2.8
				c3.4,0.7,6.8,1.1,10.3,1.5c6.9,0.7,13.9,1,20.8,1.1c7,0.1,13.9,0,20.9-0.2c6.9-0.3,13.9-0.8,20.7-2.1c3.4-0.6,6.8-1.5,10-2.7
				c3.2-1.3,6.3-3,8.5-5.7c1.1-1.3,1.9-2.9,2.3-4.6c0.4-1.7,0.5-3.4,0.4-5.2c0-1.7-0.6-3.4-1-5.1C182.6,149.4,182.3,147.6,182,145.9
				z M182.1,145.9c0.3,1.7,0.6,3.4,1,5.1c0.4,1.7,1,3.4,1,5.1c0.1,1.7,0,3.5-0.4,5.2c-0.4,1.7-1.2,3.3-2.3,4.7
				c-2.2,2.8-5.4,4.6-8.6,5.9c-3.2,1.3-6.6,2.2-10.1,2.9c-6.9,1.4-13.8,2-20.8,2.4c-7,0.4-14,0.4-20.9,0.3c-7-0.1-14-0.4-20.9-1.1
				c-3.5-0.4-6.9-0.9-10.4-1.6c-3.4-0.7-6.8-1.6-10.1-2.9c-3.2-1.3-6.5-3.1-8.8-5.9c-1.1-1.4-2-3-2.4-4.8c-0.4-1.7-0.6-3.6-0.3-5.3
				c0.2-1.8,0.8-3.4,1.3-5.1c0.4-1.7,0.7-3.4,0.7-5.1c-0.1-3.4-1.4-6.8-1.8-10.3c-0.1-0.9-0.2-1.8-0.1-2.7c0-0.9,0.1-1.8,0.2-2.6
				c0.2-1.7,0.5-3.5,0.8-5.2c0.7-3.4,1.8-6.8,3.4-9.9c1.6-3.1,3.7-6,6.3-8.4c2.6-2.4,5.5-4.4,8.7-5.9c3.2-1.5,6.5-2.6,9.9-3.4
				c3.4-0.8,6.9-1.4,10.3-1.8c3.5-0.4,7-0.6,10.5-0.7c3.5-0.1,7-0.2,10.5,0c7,0.3,14,1.2,20.7,3.2c6.7,2,13.2,5,18.6,9.5
				c2.7,2.3,5.1,4.9,7,7.9c1.9,3,3.3,6.2,4.1,9.6c0.4,1.7,0.7,3.4,0.9,5.2c0.2,1.7,0.2,3.5,0.3,5.2c0.1,1.7,0.6,3.4,0.9,5.1
				C181.6,142.5,181.9,144.2,182.1,145.9z"/>
		</g>
	</g>
	<path class="st13" d="M184.9,156c-0.7-1.3-1.5-3-2.2-7.4c-1.3-8.6-1.9-8-2-12c-0.1-3.4-0.6-6.5-1.4-9.4c-2-10-8.1-17.5-16.8-22.8
		c0.4,1,0.8,2,1.2,2.9c-10.2-6.3-24.1-9.3-39.4-9.3c-17.6,0-32.3,2-42.1,9.4c-3.9,3-7.1,6.8-9.4,11.7c0.2-1.9,0.5-3.7,0.9-5.6
		c-2.9,4.9-4.7,11-5.4,18.7c-0.4,4.9,2,9.9,2,14.2c-0.1,4.4-2,7.4-2,11.1c0,8.6,6.7,14.7,25.8,17.6c-7.5-2.8-13.3-7-16-14.2
		c-3.4-8.8-5.7-19.3-5.9-30.4c0.1-2,0.4-4,1.1-5.9c-1.1,3.3,1.1,5.5,1.1,8.8c1-9.1,5.7-15.3,9.9-23.1c7.8,10,21.6,13.6,33.9,15.4
		c-2.2-3.3-4.4-6.6-7.7-8.7c7.7,4.4,18.6,4.4,25.2,12c2.2-2.2,0-5.5,1.1-7.7c6.6,14.2,20.8,8.8,31.7,12c-1.1-4.4-5.5-5.5-8.8-7.7
		c10.5,1.9,14,9.3,17.5,17c1,6.7,0.4,13.2-3.1,19.5c-3.3,7.3-10.7,10.6-18.8,13.4c21.9-2.7,28.7-9,28.7-18.2c0-1.3,0-2.1-0.2-2.8
		C184.2,155.2,184.6,155.6,184.9,156z"/>
	<path d="M184.9,153.4c-0.7-1.3-1.5-3-2.2-7.4c-1.3-8.6-1.9-8-2-12c-0.6-26.3-25.6-38.6-56.4-38.6c-17.6,0-32.3,2-42.1,9.4
		c-7.4,5.6-12.1,14.3-13.2,27.5c-0.3,3.6,1,7.3,1.6,10.8c3.5-6.3,0-14.3,2.8-20.8c-1.1,3.3,1.1,5.5,1.1,8.8c1-9.1,5.7-15.3,9.9-23.1
		c7.8,10,21.6,13.6,33.9,15.4c-2.2-3.3-4.4-6.6-7.7-8.8c7.7,4.4,18.6,4.4,25.2,12c2.2-2.2,0-5.5,1.1-7.7c6.6,14.2,20.8,8.8,31.7,12
		c-1.1-4.4-5.5-5.5-8.8-7.7C176.7,126.3,175.6,143.6,184.9,153.4z"/>
	<g>
		<path d="M101.3,162.1c2.7,1,5.5,1.6,8.2,1.7c1.4,0.1,2.8,0,4.1-0.3c1.3-0.3,2.7-0.8,3.8-1.6l0,0c0.6-0.4,1.2-0.5,1.8-0.7
			c0.6-0.1,1.2-0.2,1.8-0.2c1.2-0.1,2.5,0,3.7,0.1c2.5,0.2,4.9,0.9,7.2,1.6c2.3,0.7,4.6,1.2,7,1.2c1.2,0,2.3-0.2,3.4-0.7
			c1.1-0.5,2.1-1.2,2.7-2.2l0.1,0c-0.5,1.2-1.5,2.1-2.6,2.7c-1.1,0.6-2.4,0.9-3.7,1c-2.5,0.2-5-0.3-7.4-1.2c-2.3-0.8-4.6-1.5-7-2
			c-1.2-0.2-2.4-0.4-3.6-0.3c-0.6,0-1.2,0.1-1.8,0.2c-0.6,0.1-1.2,0.4-1.6,0.7v0l0,0c-1.1,0.9-2.5,1.6-3.9,2
			c-1.4,0.4-2.9,0.5-4.4,0.4c-1.5-0.1-2.9-0.4-4.3-0.8C103.8,163.4,102.5,162.9,101.3,162.1L101.3,162.1z"/>
	</g>
	<path d="M160.1,142.1c0.2,0.7-2.8,2.4-6.7,3.6c-3.9,1.3-7.3,1.7-7.6,0.9c-0.2-0.7,2.8-2.4,6.7-3.6
		C156.5,141.7,159.9,141.3,160.1,142.1z"/>
	<path d="M82.2,142.1c-0.2,0.7,2.8,2.4,6.7,3.6c3.9,1.3,7.3,1.7,7.6,0.9c0.2-0.7-2.8-2.4-6.7-3.6C85.8,141.7,82.4,141.3,82.2,142.1z
		"/>
	<path class="st12" d="M174.8,154.5c0,2.4-5.2,4.3-11.6,4.3c-6.4,0-11.6-1.9-11.6-4.3c0-2.4,5.2-4.3,11.6-4.3
		C169.6,150.2,174.8,152.2,174.8,154.5z"/>
	<path class="st17" d="M174.8,151.6c0,0.8-1.7,1.4-3.8,1.4c-2.1,0-3.8-0.6-3.8-1.4c0-0.8,1.7-1.4,3.8-1.4
		C173.1,150.2,174.8,150.9,174.8,151.6z"/>
	<ellipse class="st12" cx="85.6" cy="154.5" rx="9.3" ry="2.6"/>
	<g>
		<path class="st17" d="M105.4,92.4c0,0,0,22.1,8.9,21.3c1.6-0.1,3.1,0.6,4.6,0.8c-0.2-7.7-0.2-16.2,0.5-24
			C114,89.4,108.6,89.4,105.4,92.4z"/>
		<path d="M105.4,92.4c0.2,2.5,0.4,4.9,0.8,7.4c0.4,2.4,0.9,4.9,1.6,7.2c0.4,1.2,0.9,2.3,1.4,3.3c0.6,1,1.4,2,2.4,2.6
			c0.5,0.3,1.1,0.5,1.7,0.6c0.6,0.1,1.2,0,1.9,0c1.3,0.1,2.4,0.7,3.6,0.8l-0.2,0.2c-0.1-4-0.4-8-0.4-12c0-4,0.1-8,0.5-12l0.4,0.5
			c-2.4-0.5-4.8-0.8-7.1-0.7C109.8,90.3,107.3,90.8,105.4,92.4z M105.4,92.3c0.9-0.9,1.9-1.5,3.1-2c1.2-0.4,2.4-0.7,3.6-0.8
			c2.5-0.2,5,0,7.4,0.4l0.4,0.1l0,0.5c-0.3,4-0.5,8-0.6,12c-0.1,4-0.3,8-0.2,12l0,0.2l-0.2,0c-1.3-0.2-2.4-0.7-3.6-0.8
			c-0.6-0.1-1.2,0.1-1.9,0c-0.6,0-1.3-0.2-1.9-0.5c-1.2-0.6-2.1-1.6-2.8-2.7c-0.7-1.1-1.2-2.3-1.6-3.5c-0.8-2.4-1.2-4.9-1.5-7.4
			C105.3,97.3,105.2,94.9,105.4,92.3L105.4,92.3L105.4,92.3z"/>
	</g>
	<g>
		<path class="st17" d="M135.4,95.9c0,0-8-3.9-16.1-5.5c-0.7,7.8-0.7,16.3-0.5,24c4.9,0.7,8.7,0.8,8.7,0.8S134.1,116.6,135.4,95.9z"
			/>
		<path d="M135.4,96c-2.6-1.1-5.3-2-7.9-2.9c-1.3-0.4-2.7-0.9-4-1.2c-1.4-0.4-2.7-0.7-4.1-1l0.5-0.4c-0.2,2-0.4,4-0.5,6
			c-0.2,2-0.2,4-0.3,6c0,2,0,4,0.1,6l0.2,6l-0.3-0.4c2.9,0.3,5.8,0.6,8.7,0.7h0l0.1,0c0.2,0,0.7,0,1-0.2c0.4-0.2,0.7-0.4,1-0.7
			c0.6-0.6,1.2-1.3,1.6-2c0.9-1.5,1.5-3.3,2-5C134.4,103.3,134.9,99.6,135.4,96z M135.5,95.9c-0.1,3.7-0.3,7.4-1.2,11.1
			c-0.4,1.8-1,3.6-2,5.3c-0.5,0.8-1.1,1.6-1.8,2.3c-0.4,0.3-0.8,0.6-1.3,0.8c-0.5,0.2-1,0.3-1.7,0.2l0.1,0c-1.5-0.1-2.9-0.2-4.4-0.3
			c-1.5-0.1-2.9-0.3-4.4-0.6l-0.3-0.1l0-0.3c0-2,0-4,0.1-6l0.1-6l0.1-6c0-2,0.1-4,0.2-6l0-0.5l0.5,0.1c2.8,0.5,5.6,1.4,8.2,2.3
			C130.3,93.4,133,94.5,135.5,95.9L135.5,95.9L135.5,95.9z"/>
	</g>
	<path class="st2" d="M119.4,90.4c-5.4-1-10.8-1-14,1.9c0,0,0,6.4,1.4,12.2c3.6,0,7.2-0.2,10.8-2.6c-0.8,4-1.1,8-1.2,12
		c0.9,0.2,1.7,0.5,2.5,0.6C118.7,106.7,118.7,98.2,119.4,90.4z"/>
	<path class="st2" d="M119.4,90.4c-0.3,3.1-0.4,6.4-0.5,9.6c3.8,2.3,8.5,4.5,13.2,4.5c1,9.2-5.8,8.9-12,10.1
		c4.3,0.6,7.6,0.6,7.6,0.6s6.5,1.4,7.8-19.3C135.4,95.9,127.5,92,119.4,90.4z"/>
	<path class="st17" d="M82,152.3c0,0.6-1.8,1.2-4.1,1.2c-2.3,0-4.1-0.5-4.1-1.2s1.8-1.2,4.1-1.2C80.2,151.1,82,151.6,82,152.3z"/>
	<g>
		<g>
			<path class="st0" d="M227.9,60.3c0-22.8-18.5-41.2-41.2-41.2c-21.2,0-38.7,16.1-41,36.7c-5.9-1-12.1-1.6-18.7-1.6
				c-14.2,0-26.7,2.6-37.4,7.2c-4.7-18.2-21.1-31.6-40.8-31.6c-23.2,0-42.1,18.8-42.1,42.1c0,23.2,18.8,42.1,42.1,42.1
				c0,0,0.1,0,0.1,0c-0.3,4.6-0.1,9.2,0.7,13.8c5.8,32.8,17.1,48.8,53.1,53.1c0,0,0,0,0,0c0,0-14.5,31.8-20.5,62.1
				c-3.6,18.1,2.9,26.3,15.8,30.1c6.6,19.8,24.8,68,26.8,3.2c2.3,0.1,4.6,0.1,7,0.2c6.8,0.1,13.7,0,20.5-0.7c1.5,16,8.3,66,28.8-7.3
				c11.3-5.9,17.4-15.6,12.6-31.2c-8.5-27.3-25.9-51.1-31.6-58.4c28.3-6.3,37.8-22.4,42.5-51.6c1.6-9.9,0.6-19.7-2.7-28.8
				C217,92.6,227.9,77.7,227.9,60.3z M126.9,176.7c-44.3,0-57.8-7.2-57.8-19.4c0-3.6,1.9-6.7,2-11c0.1-4.3-2.4-9.3-2-14.1
				c1.6-18.9,10.6-28.4,24.5-32.9c2.8,1.9,6.8,3.1,11.2,3.1c6.1,0,11.3-2.3,13.8-5.6c3,3.3,8.8,5.6,15.3,5.6
				c5.4,0,10.2-1.5,13.4-3.9c18.7,5,31.7,16.5,32.1,35.3c0.1,4,0.6,3.4,1.9,11.9c1.3,8.4,2,7,2,11.5
				C183.4,169.5,171.2,176.7,126.9,176.7z"/>
		</g>
		<g>
			<path d="M227.8,60.3c0-5.2-1-10.4-2.9-15.2c-1.9-4.8-4.8-9.3-8.4-13c-3.6-3.8-7.9-6.8-12.6-9c-4.7-2.2-9.8-3.4-15-3.7
				c-5.2-0.3-10.4,0.4-15.3,2.1c-4.9,1.7-9.5,4.3-13.4,7.6c-7.9,6.7-13.1,16.5-14.2,26.8l0,0.3l-0.3-0.1c-9.4-1.6-18.9-1.9-28.4-1.1
				c-9.4,0.9-18.8,3-27.5,6.7l-0.4,0.2l-0.1-0.5c-1.9-7.5-6.1-14.4-11.7-19.8c-5.6-5.4-12.7-9.1-20.3-10.7c-7.6-1.6-15.6-1-22.9,1.7
				c-7.3,2.7-13.8,7.5-18.5,13.6C11,52.5,8,60,7.2,67.7c-0.8,7.7,0.6,15.7,4.1,22.7c3.4,7,8.9,13,15.5,17.1
				c6.6,4.1,14.4,6.3,22.2,6.3l0.2,0l0,0.2c-0.3,4-0.2,8,0.4,12c0.6,4,1.4,7.9,2.4,11.8c1.9,7.8,4.6,15.5,9.1,22.2
				c2.3,3.3,5,6.3,8.1,8.8c3.1,2.5,6.6,4.5,10.3,6.1c7.4,3.2,15.3,4.8,23.3,5.8l0.4,0l-0.2,0.3c0,0,0-0.1,0-0.1l0,0l0,0
				c-3.5,7.9-6.7,16-9.6,24.1c-2.9,8.2-5.6,16.4-7.8,24.8c-1.1,4.2-2.1,8.4-3,12.6c-0.8,4.2-1.3,8.6-0.9,12.8
				c0.2,2.1,0.8,4.2,1.6,6.2c0.9,1.9,2.1,3.7,3.6,5.2c3,3,7.1,4.8,11.2,6l0.2,0.1l0.1,0.2c2,6,4.2,12,6.7,17.9
				c1.3,2.9,2.6,5.8,4.1,8.6c0.8,1.4,1.5,2.8,2.4,4.1c0.9,1.3,1.8,2.6,3,3.6c0.6,0.5,1.2,1,1.9,1.2c0.7,0.2,1.3,0.2,1.9-0.2
				c1.2-0.7,1.9-2.2,2.5-3.6c1.1-2.9,1.7-6.1,2.1-9.2c0.9-6.3,1.2-12.7,1.4-19l0-0.5l0.5,0c4.6,0.1,9.1,0.3,13.7,0.2
				c4.6-0.1,9.1-0.3,13.7-0.7l0.5,0l0,0.5c0.6,6.5,1.5,13,3,19.4c0.8,3.1,1.7,6.3,3.3,9.1c0.8,1.3,1.9,2.6,3.4,2.7
				c1.4,0,2.7-1.1,3.7-2.3c2.1-2.4,3.5-5.4,4.9-8.3c1.3-3,2.5-6,3.6-9.1c2.2-6.2,4.1-12.5,5.9-18.8l0.1-0.2l0.2-0.1
				c3.8-2,7.3-4.5,9.9-7.9c2.6-3.4,4-7.6,4.1-11.8c0.2-4.3-0.8-8.5-2.2-12.6c-1.3-4.1-2.9-8.1-4.6-12.1c-3.4-7.9-7.4-15.6-11.8-23.1
				c-4.4-7.4-9.3-14.6-14.5-21.4l-0.4-0.5l0.6-0.1c8.2-1.8,16.3-4.7,23-10c3.3-2.6,6.2-5.7,8.6-9.2c2.4-3.5,4.2-7.3,5.7-11.3
				c1.5-4,2.6-8,3.5-12.2c0.5-2.1,0.9-4.1,1.2-6.2c0.4-2.1,0.7-4.2,0.9-6.3c0.8-8.4-0.3-17-3.1-24.9l0-0.1l0.1-0.1
				c7.6-3,14.3-8.3,18.9-15.1C225.3,76.7,227.8,68.5,227.8,60.3z M227.9,60.3c0,8.2-2.5,16.4-7.1,23.2c-4.6,6.8-11.3,12.2-19,15.2
				l0.1-0.2c2.9,8,4,16.6,3.3,25.1c-0.2,2.1-0.5,4.2-0.9,6.3c-0.4,2.1-0.8,4.2-1.2,6.2c-0.9,4.1-2,8.3-3.5,12.2
				c-1.5,4-3.3,7.9-5.7,11.4c-2.4,3.5-5.3,6.7-8.6,9.4c-6.7,5.3-14.9,8.3-23.2,10.2l0.2-0.6c5.3,6.8,10.2,14,14.7,21.5
				c4.5,7.4,8.5,15.1,11.9,23.1c1.7,4,3.2,8.1,4.6,12.2c1.4,4.1,2.4,8.5,2.2,12.9c-0.1,4.4-1.6,8.8-4.3,12.3
				c-2.7,3.6-6.3,6.2-10.2,8.2l0.2-0.3c-1.8,6.3-3.7,12.6-5.9,18.8c-1.1,3.1-2.3,6.2-3.7,9.2c-1.4,3-2.9,6-5.1,8.6
				c-0.6,0.6-1.2,1.2-1.9,1.7c-0.7,0.5-1.6,0.9-2.6,0.8c-1,0-1.8-0.5-2.5-1.1c-0.7-0.6-1.2-1.3-1.6-2c-1.7-2.9-2.6-6.2-3.4-9.3
				c-1.5-6.4-2.4-13-3.1-19.5l0.5,0.4c-4.6,0.4-9.2,0.6-13.7,0.7c-4.6,0.1-9.2-0.1-13.7-0.2l0.5-0.4c-0.2,6.4-0.5,12.8-1.4,19.1
				c-0.5,3.2-1,6.4-2.2,9.4c-0.3,0.8-0.6,1.5-1.1,2.2c-0.4,0.7-1,1.4-1.8,1.9c-0.8,0.5-1.8,0.5-2.7,0.2c-0.8-0.3-1.5-0.8-2.2-1.4
				c-1.2-1.1-2.2-2.4-3.1-3.8c-0.9-1.3-1.7-2.7-2.4-4.2c-1.5-2.8-2.8-5.8-4.1-8.7c-2.5-5.9-4.7-11.9-6.7-18l0.3,0.3
				c-4.2-1.2-8.3-3.1-11.5-6.2c-1.6-1.6-2.8-3.4-3.7-5.4c-0.9-2-1.4-4.2-1.6-6.4c-0.5-4.4,0.1-8.8,0.9-13c0.9-4.3,1.9-8.5,3-12.7
				c2.3-8.4,4.9-16.6,7.9-24.8c3-8.2,6.1-16.2,9.7-24.1l0,0.1c0,0,0-0.1,0-0.1l0.2,0.4c-8-1-16-2.6-23.4-5.8
				c-3.7-1.6-7.2-3.7-10.4-6.2c-3.1-2.5-5.9-5.6-8.2-8.9c-4.6-6.7-7.2-14.5-9.2-22.3c-1-3.9-1.8-7.9-2.4-11.9
				c-0.6-4-0.7-8.1-0.5-12.1l0.2,0.2c-7.9,0.1-15.7-2.1-22.4-6.3c-6.7-4.1-12.2-10.2-15.7-17.2c-3.5-7.1-5-15.1-4.2-23
				c0.8-7.9,3.8-15.5,8.6-21.7C20,39.7,26.6,34.8,34,32c7.4-2.8,15.6-3.4,23.3-1.8c7.8,1.6,15,5.4,20.8,10.8
				c5.7,5.4,9.9,12.5,11.8,20.2L89.4,61c8.8-3.7,18.3-5.9,27.8-6.7c9.5-0.8,19.1-0.4,28.6,1.2l-0.3,0.3c1.1-10.4,6.4-20.3,14.4-27.1
				c4-3.4,8.6-6,13.6-7.7c5-1.7,10.2-2.4,15.5-2.1c5.2,0.3,10.4,1.6,15.1,3.8c4.7,2.2,9,5.3,12.6,9.1c3.6,3.8,6.4,8.3,8.4,13.1
				C226.9,49.8,227.9,55.1,227.9,60.3z"/>
			<path d="M126.9,176.8c-5.7,0-11.3-0.1-17-0.4c-5.6-0.3-11.3-0.7-16.9-1.6c-2.8-0.4-5.6-1-8.3-1.8c-2.7-0.8-5.4-1.7-8-3.1
				c-2.5-1.4-4.9-3.2-6.4-5.8c-1.5-2.5-2-5.5-1.7-8.4c0.4-2.9,1.6-5.5,1.8-8.3c0.3-2.7-0.5-5.5-1.1-8.2c-0.3-1.4-0.6-2.8-0.7-4.2
				c-0.2-1.4,0-2.9,0.1-4.3c0.3-2.8,0.8-5.6,1.6-8.4c1.5-5.5,4.3-10.7,8.4-14.6c4.1-4,9.3-6.7,14.6-8.4l0.1,0l0.1,0
				c1.9,1.3,4,2.1,6.2,2.6c2.2,0.5,4.5,0.6,6.7,0.4c2.2-0.2,4.5-0.7,6.5-1.6c2.1-0.9,4-2.1,5.3-3.9l0.2-0.2l0.2,0.2
				c1.7,1.9,4,3.1,6.4,4c2.4,0.9,4.9,1.3,7.5,1.4c2.5,0.1,5.1-0.1,7.6-0.8c2.5-0.6,4.8-1.6,6.9-3.1l0.2-0.1l0.2,0
				c5.7,1.5,11.3,3.7,16.2,6.9c5,3.2,9.3,7.5,12.2,12.7c2.9,5.2,4.1,11.3,4.1,17.1c0,1.4,0.4,2.8,0.7,4.2c0.3,1.4,0.6,2.9,0.8,4.3
				c0.5,2.9,0.9,5.8,1.6,8.6c0.2,0.7,0.4,1.4,0.5,2.2c0.1,0.8,0.2,1.5,0.2,2.3c0,1.5-0.1,3-0.4,4.5c-0.7,3-2.6,5.6-5,7.4
				c-2.4,1.8-5.1,3-7.9,4c-2.8,0.9-5.7,1.6-8.6,2.1c-5.8,1-11.6,1.5-17.5,1.8C138.6,176.7,132.7,176.8,126.9,176.8z M126.9,176.7
				c11.7-0.1,23.5-0.4,35-2.6c2.9-0.6,5.7-1.3,8.4-2.3c2.7-1,5.4-2.2,7.6-4c2.3-1.7,4-4.2,4.6-6.9c0.3-1.4,0.4-2.8,0.4-4.2
				c0-0.7-0.1-1.4-0.2-2.1c-0.1-0.7-0.3-1.4-0.5-2.1c-0.8-2.9-1.2-5.8-1.7-8.7c-0.2-1.4-0.5-2.9-0.8-4.3c-0.3-1.4-0.7-2.9-0.7-4.4
				c-0.1-3-0.3-5.8-1-8.6c-0.7-2.8-1.7-5.5-3-8.1c-2.7-5.1-7-9.3-11.8-12.4c-4.9-3.2-10.3-5.3-15.9-6.9l0.4-0.1
				c-2.2,1.5-4.6,2.5-7.2,3.1c-2.5,0.6-5.2,0.8-7.8,0.7c-2.6-0.1-5.2-0.6-7.6-1.5c-2.4-0.9-4.8-2.2-6.6-4.2l0.4,0
				c-1.4,1.8-3.4,3.1-5.6,4c-2.1,0.9-4.4,1.4-6.7,1.5c-2.3,0.2-4.6,0-6.8-0.5c-2.2-0.5-4.4-1.4-6.3-2.7l0.1,0
				c-5.4,1.7-10.5,4.4-14.5,8.4c-4,4-6.7,9.1-8.1,14.5c-0.7,2.7-1.2,5.5-1.5,8.3c-0.1,1.4-0.3,2.8-0.1,4.2c0.1,1.4,0.4,2.7,0.8,4.1
				c0.6,2.7,1.4,5.5,1.2,8.5c-0.2,2.9-1.4,5.6-1.8,8.3c-0.3,2.7,0.1,5.6,1.5,7.9c1.4,2.4,3.6,4.2,6,5.5c4.9,2.7,10.5,4.1,16,5.1
				C104.2,176.2,115.6,176.6,126.9,176.7z"/>
		</g>
	</g>
	<path class="st15" d="M165.3,271.6c-4.3,1.6-8.5,3.2-13,4.5c1.1,10.8,4.4,35.6,12.3,30.5C157.6,297.3,161.1,282.7,165.3,271.6z"/>
	<path class="st15" d="M118.4,308.7c3.2-1.7,5.7-10.7,6.4-32.3c-4.6-0.8-9-2.1-13.4-3.1C121.2,282.5,120.7,296.1,118.4,308.7z"/>
	<path class="st15" d="M122.6,181.7c8.3-1.3,16.9-1.8,25.6-1.5C139.3,183.9,130.8,184.1,122.6,181.7z"/>
	<path class="st12" d="M166.1,94.1c0,2.4-5.2,4.3-11.6,4.3c-6.4,0-11.6-1.9-11.6-4.3c0-2.4,5.2-4.3,11.6-4.3
		C160.9,89.7,166.1,91.7,166.1,94.1z"/>
	<path class="st17" d="M166.1,91.2c0,0.8-1.7,1.4-3.8,1.4c-2.1,0-3.8-0.6-3.8-1.4s1.7-1.4,3.8-1.4C164.3,89.7,166.1,90.4,166.1,91.2
		z"/>
	<path class="st12" d="M94.9,94.4c0,1.5-4.2,2.6-9.3,2.6s-9.3-1.2-9.3-2.6c0-1.4,4.2-2.6,9.3-2.6S94.9,93,94.9,94.4z"/>
	<path class="st17" d="M82,92.2c0,0.6-1.8,1.2-4.1,1.2c-2.3,0-4.1-0.5-4.1-1.2c0-0.6,1.8-1.1,4.1-1.1C80.2,91.1,82,91.6,82,92.2z"/>
	<path class="st15" d="M94.5,202.1c-0.3,0.6-0.7,1.3-1,1.9c-4.1,11.2-8.5,25.2-11.3,38.9c-3.3,16.6,1.9,24.9,12.8,29.1
		c-0.9-1.4-1.7-2.9-2.4-4.4C82.5,246.2,97.8,224.7,94.5,202.1z"/>
	<path class="st15" d="M193.6,237.4c-4.4-14.2-11.2-27.4-17.6-37.9c-3.2,16.7,15.4,32.6,16.6,48.4c0.3,3.8,0.2,7.4-0.4,10.9
		C195.5,253.3,196.3,246.3,193.6,237.4z"/>
	<path class="st15" d="M118.8,179.1c-13.3,0.3-26.2-1.8-37.3-7.5c-4.5-1.7-7.6-3.7-9.6-6.1c-15-12.1-21.2-35.1-16-54.4
		C34.6,113,18.3,100.8,8.6,84.4c5.3,17.1,21.3,29.6,40.2,29.6c0,0,0.1,0,0.1,0c-0.3,4.6-0.1,9.2,0.7,13.8
		c5.8,32.8,17.1,48.8,53.1,53.1c0,0,0,0,0,0c0,0-3.8,8.4-8.4,20.6c0,0.2,0.1,0.4,0.1,0.7C100.2,191.7,107.4,182.2,118.8,179.1z"/>
	<g>
		<path class="st0" d="M93.4,204c0.3-0.6,0.7-1.3,1-1.9c0-0.2-0.1-0.4-0.1-0.7C94.1,202.3,93.7,203.2,93.4,204z"/>
		<g>
			<path d="M93.4,204.1L93.4,204.1c-0.1-0.5,0-0.9,0.1-1.2c0.1-0.3,0.6-0.5,0.8-0.8l0,0.1c0-0.2-0.1-0.4-0.2-0.6l0.6,0.1
				c0,0.2,0,0.5-0.1,0.7c0,0.2-0.1,0.4-0.2,0.7C94.2,203.4,93.9,203.7,93.4,204.1L93.4,204.1z M93.4,204c-0.1-0.5-0.1-1,0-1.4
				c0.1-0.2,0.2-0.4,0.3-0.6c0.1-0.2,0.2-0.4,0.4-0.6l0.7-0.8l-0.2,0.8c-0.1,0.2-0.1,0.5,0,0.7l0,0l0,0.1c-0.2,0.3,0,0.8-0.3,1.1
				C94.1,203.6,93.9,203.9,93.4,204L93.4,204L93.4,204z"/>
		</g>
	</g>
	<path class="st15" d="M227.9,60.3c0-8.2-2.4-15.9-6.6-22.3c3.5,16.2,1.1,33.4-9,46.8c-5.3,6.6-17.1,9.2-17.1,11.8
		c0.9,20.6-4.3,41.8-11.9,61.1c-0.1,3.5-1.2,6.5-3.8,9.1c-1.1,2.5-2.3,5.1-3.5,7.5c17.6-8.2,24.6-23.3,28.4-47
		c1.6-9.9,0.6-19.7-2.7-28.8C217,92.6,227.9,77.7,227.9,60.3z"/>
	<path d="M123.6,90.8c0,1.5-2.5,5.2-5.6,5.2c-3.1,0-5.6-3.7-5.6-5.2c0-1.5,2.5-2.7,5.6-2.7C121.1,88.1,123.6,89.3,123.6,90.8z"/>
	
		<ellipse transform="matrix(0.9844 -0.1759 0.1759 0.9844 -14.0037 21.6593)" class="st17" cx="115.2" cy="89.8" rx="1.5" ry="0.4"/>
	<g>
		<path class="st15" d="M153.7,86.4c0,2.6-2.1,4.6-4.6,4.6c-2.6,0-4.6-2.1-4.6-4.6c0-2.6,2.1-4.6,4.6-4.6
			C151.7,81.7,153.7,83.8,153.7,86.4z"/>
		<path d="M152.6,86.4c0,2.6-2.1,4.6-4.6,4.6c-2.6,0-4.6-2.1-4.6-4.6c0-2.6,2.1-4.6,4.6-4.6C150.5,81.7,152.6,83.8,152.6,86.4z"/>
		<path class="st17" d="M146.4,85.6c0,0.4-0.3,0.8-0.8,0.8c-0.4,0-0.8-0.3-0.8-0.8c0-0.4,0.3-0.8,0.8-0.8
			C146.1,84.8,146.4,85.1,146.4,85.6z"/>
	</g>
	<g>
		<circle class="st15" cx="92.8" cy="86.4" r="4.6"/>
		<path d="M96.2,86.4c0,2.6-2.1,4.6-4.6,4.6c-2.6,0-4.6-2.1-4.6-4.6c0-2.6,2.1-4.6,4.6-4.6C94.1,81.7,96.2,83.8,96.2,86.4z"/>
		<path class="st17" d="M90.1,85.6c0,0.4-0.3,0.8-0.8,0.8c-0.4,0-0.8-0.3-0.8-0.8c0-0.4,0.3-0.8,0.8-0.8
			C89.7,84.8,90.1,85.1,90.1,85.6z"/>
	</g>
	<linearGradient id="SVGID_3_" gradientUnits="userSpaceOnUse" x1="170.7715" y1="36.9258" x2="212.0435" y2="78.1978">
		<stop  offset="1.818180e-002" style="stop-color:#078D9E"/>
		<stop  offset="1" style="stop-color:#078D9E;stop-opacity:0"/>
	</linearGradient>
	<path class="st9" d="M194.4,89.3c0,0-26.2-8.6-32-34.2c-5.8-25.6,36.4-28.9,45-17c0,0,16.9,11.9,10.1,31.1
		C212.7,83,206.5,83.8,194.4,89.3z"/>
	<g>
		<path class="st21" d="M190.3,86.8c-3.5-1.4-7.1-3.7-10.6-6.8c1.5,0,3.1-0.4,4.6-1.6c2.9-2.3,3.8-6.1,1.9-8.4c-1.6-2-4.7-2.4-7.4-1
			c1.5-2.2,1.7-4.8,0.3-6.7c-1.9-2.4-5.7-2.5-8.6-0.2c-1.6,1.2-2.5,2.9-2.8,4.5c-5.1-8-5.7-16.1,2.3-24.5
			c11.2-11.7,29.5-12.3,40.9-1.4c5.2,5,8.1,11.6,8.6,18.4c-0.4-7.5-3.6-14.8-9.4-20.4c-12.2-11.7-31.6-11.3-43.3,0.9
			c-11.7,12.2-5.9,23.9,6.1,35.9c6.4,6.4,12.8,11,19,12.7C191.3,87.8,190.8,87.3,190.3,86.8z"/>
		<g>
			<path d="M190.3,86.9c-4-1.5-7.5-4-10.7-6.7l-0.5-0.4l0.6,0c1.8,0,3.6-0.8,4.9-2c1.3-1.2,2.2-3,2.2-4.8c0-1.8-1.1-3.5-2.7-4.1
				c-1.6-0.6-3.6-0.4-5.1,0.5l-1.4,0.7l0.9-1.3c1-1.4,1.5-3.3,1-4.9c-0.3-0.8-0.8-1.5-1.4-2c-0.7-0.5-1.5-0.8-2.4-0.9
				c-1.7-0.2-3.5,0.4-4.9,1.5c-1.4,1.1-2.4,2.6-2.7,4.3l-0.2,1.1l-0.6-1c-2.1-3.3-3.7-7.1-3.8-11.1c0-2,0.3-4,1-5.9
				c0.7-1.9,1.7-3.6,2.9-5.2c2.4-3.1,5.4-5.8,8.7-7.8c3.4-2,7.1-3.3,11-3.9c7.7-1.1,15.9,1,22,5.9c3.1,2.4,5.6,5.5,7.5,9
				c1.8,3.5,2.9,7.3,3.2,11.2l-0.6,0c-0.3-5.6-2.3-11.1-5.5-15.6c-3.2-4.6-7.7-8.2-12.8-10.4c-5.1-2.2-10.9-2.9-16.4-2.1
				c-5.5,0.8-10.8,3.2-15,6.8c-2.1,1.8-4,3.9-5.6,6.2c-1.5,2.3-2.6,4.9-2.9,7.6c-0.3,2.7,0.1,5.5,1.1,8.1c1,2.6,2.4,5.1,4,7.3
				c1.6,2.3,3.5,4.4,5.4,6.5c1.9,2.1,4,4,6.1,5.9c4.3,3.7,8.9,7.1,14.4,8.6l-0.1,0.1C191.2,87.9,190.8,87.4,190.3,86.9z M190.4,86.8
				c0.5,0.5,1,1,1.5,1.5l0.2,0.2l-0.3-0.1c-2.8-0.7-5.4-1.9-7.8-3.4c-2.4-1.5-4.7-3.2-6.9-5c-2.2-1.8-4.2-3.8-6.2-5.8
				c-2-2-3.9-4.2-5.5-6.5c-1.7-2.3-3.2-4.8-4.2-7.5c-1-2.7-1.6-5.6-1.2-8.5c0.3-2.9,1.4-5.7,3-8.1c1.6-2.4,3.6-4.5,5.7-6.4
				c4.4-3.7,9.8-6.2,15.5-7c5.7-0.8,11.6-0.1,16.9,2.3c5.3,2.3,9.9,6.1,13.1,10.8c3.3,4.7,5.2,10.4,5.4,16.1l-0.6,0
				c-0.2-3.8-1.3-7.6-3-11c-1.8-3.4-4.3-6.5-7.3-8.9c-3-2.4-6.5-4.2-10.2-5.2c-3.7-1-7.7-1.2-11.5-0.6c-7.7,1.1-14.7,5.5-19.2,11.7
				c-2.3,3.1-3.7,6.8-3.6,10.6c0.1,3.8,1.7,7.4,3.8,10.6l-0.8,0.2c0.4-2,1.5-3.7,3.1-4.8c1.5-1.2,3.5-1.8,5.5-1.6
				c1,0.1,2,0.5,2.8,1.1c0.8,0.6,1.4,1.5,1.7,2.4c0.6,1.9,0,4-1.1,5.6l-0.5-0.6c1.7-0.9,3.9-1.2,5.8-0.4c0.9,0.4,1.8,1.1,2.3,1.9
				c0.5,0.8,0.8,1.9,0.8,2.9c0,2-1,3.8-2.5,5.2c-1.4,1.3-3.3,2.1-5.3,2.1l0.1-0.4C183,82.6,186.5,85.1,190.4,86.8L190.4,86.8
				L190.4,86.8z"/>
		</g>
	</g>
	
		<linearGradient id="SVGID_4_" gradientUnits="userSpaceOnUse" x1="327.9414" y1="28.8232" x2="369.2114" y2="70.0933" gradientTransform="matrix(-0.9876 0.1571 0.1571 0.9876 382.309 -31.3281)">
		<stop  offset="1.818180e-002" style="stop-color:#078D9E"/>
		<stop  offset="1" style="stop-color:#078D9E;stop-opacity:0"/>
	</linearGradient>
	<path class="st10" d="M47.8,104.1c0,0,24.5-12.6,26.2-38.8c1.7-26.2-40.5-22.9-47.1-9.7c0,0-14.8,14.4-5,32.3
		C28.8,100.7,35.1,100.6,47.8,104.1z"/>
	<g>
		<path class="st21" d="M51.5,101c3.2-1.9,6.4-4.8,9.4-8.4c-1.5,0.3-3.1,0.1-4.7-0.8c-3.2-1.8-4.7-5.4-3.2-8
			c1.3-2.3,4.3-3.1,7.1-2.1c-1.8-1.9-2.5-4.5-1.3-6.6c1.5-2.6,5.3-3.3,8.5-1.5c1.7,1,3,2.4,3.5,4c3.8-8.7,3.1-16.8-6.2-23.8
			c-12.9-9.8-31-7.5-40.6,5.1c-4.4,5.8-6.2,12.7-5.6,19.5c-0.8-7.5,1.2-15.2,6.1-21.7c10.2-13.5,29.5-16.1,43-5.9
			C81,61,77,73.5,67.1,87.2c-5.4,7.4-10.9,12.9-16.8,15.5C50.7,102.2,51.1,101.6,51.5,101z"/>
		<g>
			<path d="M51.5,101c3.6-2.2,6.6-5.3,9.3-8.5l0.2,0.3c-1.9,0.4-3.9-0.1-5.5-1.2c-1.6-1.1-2.9-2.7-3.3-4.7c-0.2-1-0.1-2,0.3-2.9
				c0.4-0.9,1.1-1.7,2-2.2c1.7-1.1,3.9-1.1,5.8-0.5l-0.4,0.6c-1.3-1.4-2.2-3.3-2-5.4c0.1-1,0.6-1.9,1.3-2.7c0.7-0.7,1.6-1.2,2.6-1.5
				c1.9-0.5,4-0.2,5.7,0.8c1.7,0.9,3.1,2.4,3.8,4.3l-0.8,0c1.5-3.5,2.5-7.3,2-11.1c-0.5-3.8-2.5-7.2-5.2-9.9
				c-5.4-5.4-13.1-8.7-20.8-8.5c-3.9,0-7.7,0.8-11.3,2.4c-3.5,1.6-6.7,3.9-9.3,6.8c-2.6,2.9-4.6,6.3-5.8,9.9
				c-1.2,3.7-1.6,7.6-1.3,11.4l-0.6,0.1c-0.6-5.7,0.3-11.6,2.8-16.7c2.5-5.2,6.4-9.6,11.3-12.7c4.8-3.1,10.6-4.8,16.3-4.9
				c5.8-0.1,11.5,1.5,16.5,4.5c2.5,1.5,4.7,3.3,6.7,5.4c1.9,2.1,3.5,4.7,4.3,7.5c0.8,2.8,0.7,5.8,0.1,8.6c-0.6,2.8-1.7,5.5-3,8
				c-1.3,2.5-2.8,4.9-4.5,7.3c-1.6,2.3-3.3,4.6-5.2,6.7c-1.8,2.2-3.8,4.2-6,6c-2.2,1.8-4.6,3.4-7.2,4.6l-0.3,0.1l0.2-0.2
				C50.6,102.1,51.1,101.5,51.5,101L51.5,101L51.5,101z M51.5,101c-0.4,0.6-0.8,1.1-1.2,1.7l-0.1-0.1c5.1-2.4,9.2-6.5,12.9-10.8
				c1.8-2.2,3.5-4.4,5.1-6.8c1.6-2.3,3.1-4.7,4.3-7.3c1.2-2.5,2.3-5.1,2.8-7.9c0.5-2.7,0.5-5.6-0.2-8.2c-0.8-2.6-2.2-5-4.1-7.1
				c-1.9-2-4.1-3.8-6.5-5.2c-4.8-2.9-10.3-4.4-15.9-4.3c-5.6,0-11.1,1.7-15.8,4.6c-4.7,3-8.6,7.3-11.1,12.3c-2.5,5-3.5,10.7-3,16.3
				l-0.6,0.1c-0.3-3.9,0.2-7.9,1.4-11.6c1.3-3.7,3.3-7.1,6-10c5.3-5.8,13-9.1,20.8-9.2c3.9-0.1,7.8,0.6,11.5,2.1
				c3.6,1.4,7,3.6,9.8,6.3c1.4,1.4,2.7,2.9,3.7,4.6c1,1.7,1.6,3.7,1.9,5.6c0.5,4-0.5,8-2.1,11.6l-0.5,1l-0.4-1.1
				c-0.6-1.6-1.8-3-3.4-3.8c-1.5-0.8-3.4-1.2-5.1-0.7c-1.7,0.4-3.1,1.8-3.3,3.5c-0.3,1.7,0.5,3.5,1.7,4.7l1.1,1.1L60,82
				c-1.7-0.6-3.6-0.5-5.2,0.3c-1.5,0.9-2.4,2.7-2,4.5c0.3,1.8,1.4,3.3,2.9,4.4c1.5,1,3.4,1.5,5.2,1.2l0.6-0.1l-0.4,0.5
				C58.3,95.9,55.2,98.9,51.5,101z"/>
		</g>
	</g>
	<g>
		<g>
			<path d="M141.1,93.4c4-1.7,8.3-2.9,12.6-3.9c4.3-0.9,8.7-1.4,13.1-1.5c4.4,0,8.9,0.5,13.1,1.7c2.1,0.6,4.2,1.5,6.1,2.5
				c1.9,1.1,3.8,2.3,5.4,3.8c-3.5-2.6-7.6-4.4-11.7-5.5c-4.2-1.1-8.5-1.5-12.9-1.5c-4.3,0-8.7,0.5-13,1.2c-2.1,0.4-4.3,0.8-6.4,1.3
				C145.3,92.1,143.2,92.7,141.1,93.4z"/>
		</g>
		<g>
			<path d="M141.1,96.4c3.8-0.3,7.7-0.3,11.5-0.1c3.8,0.2,7.7,0.7,11.4,1.4c3.8,0.8,7.5,1.8,11.1,3.2c3.6,1.5,7,3.4,9.9,5.9
				c-1.6-1.1-3.2-2.1-4.9-2.9c-1.7-0.9-3.4-1.6-5.2-2.3c-3.6-1.3-7.3-2.3-11-3c-3.7-0.8-7.5-1.3-11.3-1.6c-1.9-0.2-3.8-0.3-5.7-0.4
				C144.9,96.5,143,96.4,141.1,96.4z"/>
		</g>
		<g>
			<path d="M139.3,98.4c4.6,1.1,9,2.7,13.3,4.5c4.3,1.8,8.6,3.9,12.6,6.3c4,2.5,7.9,5.2,11.2,8.6c1.7,1.7,3.2,3.5,4.5,5.5
				c1.3,2,2.4,4.1,3,6.4c-0.9-2.2-2-4.2-3.4-6.1c-1.4-1.9-2.9-3.6-4.6-5.2c-3.4-3.2-7.2-5.9-11.2-8.3c-4-2.4-8.2-4.5-12.4-6.4
				c-2.1-1-4.3-1.9-6.5-2.7C143.7,99.9,141.5,99.1,139.3,98.4z"/>
		</g>
		<g>
			<path d="M100,95.2c-2.1-0.7-4.2-1.3-6.3-1.8c-2.1-0.5-4.3-1-6.4-1.4c-4.3-0.7-8.6-1.2-13-1.2c-4.3-0.1-8.7,0.4-12.9,1.5
				c-4.2,1.1-8.2,2.9-11.7,5.5c1.6-1.5,3.5-2.7,5.4-3.8c2-1,4-1.8,6.1-2.5c4.2-1.3,8.7-1.7,13.1-1.7c4.4,0.1,8.8,0.6,13.1,1.5
				C91.7,92.2,95.9,93.5,100,95.2z"/>
		</g>
		<g>
			<path d="M100,98.2c-1.9,0-3.8,0.1-5.7,0.2c-1.9,0.1-3.8,0.3-5.7,0.4c-3.8,0.4-7.6,0.9-11.3,1.6c-3.7,0.7-7.4,1.7-11,3
				c-1.8,0.6-3.5,1.4-5.2,2.3c-1.7,0.8-3.3,1.8-4.9,2.9c2.9-2.6,6.3-4.5,9.9-5.9c3.6-1.5,7.3-2.5,11.1-3.2c3.8-0.7,7.6-1.2,11.4-1.4
				C92.3,97.9,96.2,97.9,100,98.2z"/>
		</g>
		<g>
			<path d="M101.7,100.2c-2.2,0.8-4.4,1.6-6.6,2.5c-2.2,0.9-4.3,1.8-6.5,2.7c-4.3,1.9-8.4,4-12.4,6.4c-4,2.4-7.8,5.1-11.2,8.3
				c-1.7,1.6-3.3,3.3-4.6,5.2c-1.4,1.9-2.6,3.9-3.4,6.1c0.7-2.3,1.8-4.4,3-6.4c1.3-2,2.8-3.8,4.5-5.5c3.3-3.4,7.2-6.1,11.2-8.6
				c4.1-2.4,8.3-4.5,12.6-6.3C92.7,102.9,97.2,101.3,101.7,100.2z"/>
		</g>
	</g>
	<g class="st4">
		<path class="st17" d="M101,200.7c-0.7,4.7-1.6,9.3-2.5,13.8l-1.3,6.9c-0.4,2.3-0.9,4.6-1.3,6.9c-0.5,2.3-0.9,4.6-1.2,6.9
			c-0.4,2.3-0.8,4.6-1.2,6.9c-0.7,4.6-1.4,9.2-2,13.9c-0.7-4.7-0.7-9.4-0.3-14.2c0.1-2.4,0.4-4.7,0.7-7c0.3-2.3,0.7-4.7,1.1-7
			c0.5-2.3,0.9-4.6,1.5-6.9c0.6-2.3,1.1-4.6,1.8-6.8C97.5,209.5,99,205,101,200.7z"/>
	</g>
	<path class="st11" d="M191.7,208.9c-7.1-5.5-7.7-26.9-2.9-31.7c10.3-12.7,25.1-14.3,29.1-29.4c11-43.4,15.2-85.4,9.5-128.7
		c-12.9-3.2-27.3-5.8-43.6-7.3c-13.1,4.4-25.1,10.9-29.3,25c-1.3,5.6-4.9,8-9.4,9c-0.1,13.7,2.5,23.5-0.1,30.3
		c-3,7.7,2,13.8,8.6,12.5c-1,19.8,1.5,41,10.9,60.4c0,0,1.4,2.3,3.1,6.1c0.1,0.2,0.2,0.4,0.3,0.7c0,0.1,0.1,0.2,0.1,0.4
		c0.1,0.3,0.3,0.7,0.4,1c0.1,0.2,0.1,0.4,0.2,0.6c0.1,0.2,0.2,0.4,0.2,0.6c0.1,0.2,0.1,0.4,0.2,0.6c0.1,0.2,0.1,0.4,0.2,0.6
		c0.1,0.4,0.2,0.7,0.4,1.1c0,0.2,0.1,0.3,0.2,0.5c0.1,0.3,0.2,0.6,0.3,0.9c0.1,0.2,0.1,0.4,0.2,0.6c0.1,0.4,0.2,0.8,0.3,1.2
		c0,0.1,0.1,0.3,0.1,0.4c0.1,0.4,0.2,0.8,0.3,1.2c0,0.2,0.1,0.3,0.1,0.5c0.1,0.4,0.2,0.8,0.2,1.2c0,0.1,0,0.2,0.1,0.3
		c0.1,0.5,0.2,1,0.2,1.5c0,0.1,0,0.3,0.1,0.4c0.1,0.4,0.1,0.8,0.1,1.3c0,0.1,0,0.3,0,0.4c0.1,0.5,0.1,1.1,0.1,1.6c0,0.1,0,0.2,0,0.3
		c0,0.5,0,0.9,0,1.4c0,0.1,0,0.3,0,0.4c0,0.6,0,1.1,0,1.7c0,0,0,0.1,0,0.1c0,0.5-0.1,1-0.1,1.6c0,0.1,0,0.3,0,0.4
		c-0.1,0.5-0.1,1.1-0.2,1.6c0,0,0,0.1,0,0.1c-0.1,0.6-0.2,1.1-0.3,1.7c0,0.1-0.1,0.3-0.1,0.4c-0.1,0.5-0.2,1-0.4,1.4
		c0,0.1-0.1,0.2-0.1,0.3c-0.2,0.5-0.3,1.1-0.5,1.6c-0.1,0.2-0.1,0.3-0.2,0.5c-0.2,0.4-0.3,0.9-0.5,1.3c-0.1,0.1-0.1,0.3-0.2,0.4
		c-0.1,0.3-0.3,0.6-0.5,0.9c-13.5-4.7-24.4-5.9-26.1-2.5l-13,28.7l-0.4,0.9l-0.1,0.3c-3.7,8.3,7.4,21.2,24.9,28.9
		c17.5,7.7,34.7,7.2,38.4-1.1l9.8-21.6C200.1,217.6,196.7,212.9,191.7,208.9z M154.7,75.6c-1.3-1.3-1.7-3.5-0.5-6
		c3.6-7-3.6-18.9,7-39.6c2.2-4.3,4.4-6.2,6.6-6.6C163.4,35.1,157.3,54,154.7,75.6z"/>
	<g>
		<g>
			<path class="st1" d="M140.3,188.3l-6.8,32.2c-1.9,8.9,11.8,19.1,30.5,22.8c18.7,3.7,35.4-0.5,37.3-9.4l6.8-32.2L140.3,188.3z"/>
			<path d="M140.4,188.3c-1.2,6.1-2.3,12.1-3.5,18.2l-1.8,9.1l-0.9,4.5c-0.4,1.5-0.3,2.9,0.1,4.4c0.9,2.9,2.9,5.3,5.2,7.3
				c2.3,2,4.9,3.7,7.6,5.2c5.4,2.9,11.3,4.9,17.3,6.1c6,1.2,12.3,1.7,18.4,1.1c3.1-0.3,6.1-0.9,9-1.9c2.9-1,5.7-2.5,7.6-4.8
				c1-1.2,1.6-2.5,1.8-4l0.9-4.5l1.8-9.1l3.7-18.2l0.4,0.6l-16.9-3.4c-5.7-1.1-11.3-2.3-16.9-3.5l-16.9-3.5
				C151.6,190.8,146,189.6,140.4,188.3z M140.3,188.2c5.7,1,11.3,2,17,3.1l17,3.2c5.7,1.1,11.3,2.2,17,3.3l16.9,3.4l0.5,0.1
				l-0.1,0.5l-3.9,18.1l-2,9.1l-1,4.5c-0.3,1.6-1,3.1-2,4.3c-2.1,2.4-5,3.9-7.9,4.9c-3,1-6,1.5-9.1,1.8c-6.2,0.5-12.4,0.1-18.5-1.1
				c-6.1-1.1-12.1-3-17.6-5.8c-2.8-1.4-5.4-3.1-7.8-5.2c-2.3-2.1-4.5-4.6-5.4-7.7c-0.5-1.5-0.5-3.3-0.1-4.8l1-4.5l2-9.1
				C137.5,200.3,138.9,194.3,140.3,188.2L140.3,188.2L140.3,188.2z"/>
		</g>
		<g>
			<path class="st17" d="M182.2,234.6c3.1-0.7,2.5-11,3.2-17.1c-16.9,1.7-35.6-3.2-48.4-13.8l-3.5,16.4
				C147.3,232.7,164.7,241.6,182.2,234.6z"/>
			<path d="M182.2,234.5c0.7-0.2,1.2-0.9,1.4-1.5c0.3-0.7,0.5-1.4,0.6-2.1c0.3-1.5,0.4-3,0.5-4.4c0.2-3,0.1-6,0.4-9l0.4,0.4
				c-2.1,0.3-4.3,0.4-6.5,0.4c-2.2,0-4.3,0-6.5-0.3c-4.3-0.4-8.6-1.2-12.7-2.5c-4.1-1.2-8.2-2.8-12-4.7c-3.9-1.9-7.5-4.2-10.9-6.9
				l0.4-0.2c-1.1,5.5-2.1,11-3.3,16.5l-0.1-0.4c3.3,3,6.8,5.8,10.5,8.2c3.7,2.5,7.6,4.6,11.8,6.1c4.1,1.6,8.5,2.6,12.9,2.7
				c2.2,0.1,4.5-0.1,6.6-0.5C178,236,180.1,235.3,182.2,234.5L182.2,234.5L182.2,234.5z M182.3,234.6c-4.1,1.7-8.6,2.6-13.1,2.7
				c-4.5,0.1-9-0.8-13.3-2.3c-4.3-1.5-8.3-3.7-12-6.1c-3.8-2.5-7.2-5.4-10.5-8.4l-0.2-0.2l0.1-0.3c1.2-5.5,2.4-10.9,3.6-16.4
				l0.1-0.4l0.3,0.3c3.3,2.8,6.9,5.1,10.7,7c3.8,1.9,7.9,3.4,12,4.4c4.1,1.1,8.4,1.8,12.6,2.1c2.1,0.2,4.3,0.3,6.4,0.3
				c2.1,0,4.3-0.1,6.4-0.2l0.4,0l0,0.4c-0.4,2.9-0.5,5.9-0.8,8.9c-0.2,1.5-0.3,3-0.6,4.5c-0.2,0.7-0.3,1.5-0.6,2.2
				C183.5,233.7,183,234.4,182.3,234.6z"/>
		</g>
		<path class="st5" d="M154.2,236.1c-7.6-6.6,0.4-24,10.8-24.7c13.1-1.5,31,4.6,41.8-3.4l1.3-6.2l-67.8-13.5l-6.8,32.2
			c-1.9,8.9,11.8,19.1,30.5,22.8c0.9,0.2,1.7,0.3,2.6,0.5C162.3,241.8,158.1,239.3,154.2,236.1z"/>
		<g>
			<path class="st1" d="M208.2,201.4c-1,4.6-17,5.3-35.8,1.7c-18.7-3.6-33.1-10.2-32.1-14.8c1-4.5,17-5.3,35.8-1.7
				C194.8,190.2,209.2,196.8,208.2,201.4z"/>
			<path d="M208.2,201.4c-0.2,0.8-0.8,1.4-1.4,1.8c-0.7,0.4-1.4,0.7-2.1,1c-1.5,0.5-3,0.8-4.5,1c-3.1,0.4-6.2,0.5-9.3,0.5
				c-6.2-0.1-12.3-0.9-18.4-2.1c-6.1-1.2-12-2.9-17.8-5c-2.9-1.1-5.8-2.2-8.5-3.7c-1.4-0.7-2.7-1.5-3.9-2.5
				c-0.6-0.5-1.2-1.1-1.6-1.7c-0.5-0.7-0.8-1.5-0.6-2.4c0.2-0.9,0.8-1.5,1.5-2c0.7-0.5,1.4-0.8,2.2-1c1.5-0.5,3-0.8,4.6-1
				c3.1-0.4,6.2-0.4,9.3-0.3c6.2,0.2,12.3,1,18.4,2.2c6.1,1.2,12.1,2.7,17.9,4.9c2.9,1.1,5.7,2.3,8.4,3.9c1.3,0.8,2.7,1.6,3.8,2.6
				c0.6,0.5,1.1,1.1,1.6,1.7C208.1,199.8,208.4,200.6,208.2,201.4z M208.1,201.4c0.2-0.7-0.1-1.5-0.6-2.1c-0.4-0.6-1-1.2-1.6-1.7
				c-1.2-1-2.5-1.8-3.9-2.5c-2.7-1.4-5.6-2.5-8.5-3.5c-5.8-1.9-11.8-3.4-17.8-4.5c-6-1.1-12.1-2-18.3-2.2c-3.1-0.1-6.1-0.1-9.2,0.2
				c-1.5,0.2-3,0.4-4.5,0.9c-0.7,0.2-1.4,0.5-2,0.9c-0.6,0.4-1.1,0.9-1.3,1.6c-0.2,0.7,0.1,1.4,0.5,2c0.4,0.6,0.9,1.2,1.5,1.7
				c1.1,1,2.5,1.8,3.8,2.6c2.7,1.5,5.5,2.7,8.4,3.7c5.8,2,11.8,3.4,17.9,4.5c6,1.1,12.1,1.9,18.3,2.3c3.1,0.2,6.1,0.2,9.2-0.1
				c1.5-0.1,3-0.4,4.5-0.9c0.7-0.2,1.4-0.5,2.1-0.9C207.4,202.7,208,202.1,208.1,201.4z"/>
		</g>
		<path class="st5" d="M200.8,200.9c-0.9,3.9-15,4.5-31.5,1.3c-16.5-3.2-29.2-9-28.3-12.9c0.9-3.9,15-4.5,31.5-1.3
			C189,191.2,201.7,197,200.8,200.9z"/>
		<g>
			<path class="st16" d="M294.2,74.5l-3.3,4.6c8.6,0.2,25.9,2.5,16.4,18c-12.5,20.2-25.4,17.9-29.7,24.8c-4.2,6.8-12-1.2-7.5-13.3
				l-5.4,7.7c-8.6,17.3,4,28.1,11.6,18.3s29.2-7.5,51.5-36.4C350.1,69.2,294.2,74.5,294.2,74.5z"/>
			<path d="M294.2,74.6l-3.2,4.7l-0.1-0.2c3.9,0.1,7.9,0.4,11.8,1.7c1.9,0.6,3.8,1.5,5.3,2.9c0.8,0.7,1.4,1.5,1.8,2.5
				c0.4,0.9,0.7,2,0.7,3c0,2.1-0.6,4.1-1.5,5.9c-0.9,1.8-2,3.5-3.1,5.1c-2.2,3.3-4.8,6.4-7.8,9c-3,2.7-6.4,4.8-10,6.6
				c-1.8,0.9-3.6,1.7-5.3,2.5c-1.7,0.9-3.4,1.9-4.6,3.4c-0.5,0.8-1.1,1.7-2,2.3c-0.8,0.6-2,1-3,0.7c-1.1-0.2-1.9-0.9-2.6-1.7
				c-0.7-0.8-1.1-1.7-1.4-2.7c-1.3-3.9-0.7-8,0.7-11.7l0.3,0.2c-1.8,2.6-3.6,5.1-5.4,7.7l0,0c-1.4,2.9-2.5,6-2.7,9.2
				c-0.3,3.2,0.2,6.5,2,9.2c0.9,1.3,2.1,2.4,3.6,2.9c1.5,0.5,3.1,0.5,4.5-0.2c1.4-0.6,2.7-1.7,3.6-2.9c1-1.3,2.2-2.5,3.6-3.4
				c2.7-1.9,5.7-3.2,8.7-4.5c3-1.3,6-2.5,8.9-3.9c5.8-2.8,11.3-6.2,16.3-10.3c5-4.1,9.5-8.8,13.5-13.8c2-2.5,3.8-5.2,5-8.1
				c0.6-1.5,0.9-3,0.8-4.6c-0.1-1.5-0.6-3-1.5-4.3c-1.9-2.5-5-3.9-8-4.9c-3.1-1-6.3-1.5-9.5-1.9C307.2,74.2,300.7,74.2,294.2,74.6z
				 M294.2,74.5c6.5-0.6,13-0.7,19.5-0.1c3.2,0.3,6.5,0.8,9.6,1.8c1.6,0.5,3.1,1.1,4.6,1.9c1.4,0.8,2.8,1.8,3.9,3.2
				c1.1,1.3,1.7,3,1.8,4.7c0.1,1.7-0.3,3.4-0.8,4.9c-1.2,3.1-3.1,5.9-5.1,8.4c-4,5.1-8.5,9.9-13.6,14c-5,4.1-10.7,7.6-16.6,10.3
				c-2.9,1.4-6,2.6-8.9,3.9c-3,1.3-6,2.5-8.6,4.3c-1.3,0.9-2.5,2-3.5,3.2c-1,1.3-2.4,2.4-3.9,3c-1.6,0.7-3.4,0.7-5,0.1
				c-1.6-0.6-2.9-1.8-3.8-3.1c-1.9-2.8-2.3-6.3-2-9.5c0.3-3.3,1.4-6.4,2.9-9.3l0,0l0,0c1.8-2.5,3.6-5.1,5.4-7.7l0.7-1.1l-0.4,1.2
				c-0.7,1.8-1.1,3.8-1.3,5.7c-0.1,1.9,0,3.9,0.7,5.8c0.3,0.9,0.8,1.8,1.4,2.5c0.6,0.7,1.4,1.3,2.3,1.5c0.9,0.2,1.8-0.1,2.5-0.7
				c0.4-0.3,0.7-0.6,1-1c0.3-0.4,0.5-0.8,0.8-1.2c1.2-1.7,3-2.8,4.8-3.7c1.8-0.9,3.6-1.7,5.3-2.6c3.5-1.7,6.8-3.9,9.7-6.5
				c2.9-2.6,5.5-5.6,7.7-8.8c1.1-1.6,2.2-3.3,3-5c0.8-1.7,1.5-3.6,1.5-5.5c0-0.9-0.2-1.9-0.6-2.7c-0.4-0.9-0.9-1.6-1.6-2.3
				c-1.4-1.3-3.2-2.2-5-2.8c-3.7-1.3-7.7-1.7-11.6-1.9l-0.2,0l0.1-0.2L294.2,74.5L294.2,74.5z"/>
		</g>
		<path class="st18" d="M292.6,76.8l-1.7,2.3c8.5,0.2,25.9,2.4,16.3,17.8c-12.5,20-25.4,17.8-29.7,24.6c-4.2,6.7-12-1.1-7.5-13.2
			l-5.4,7.6c-8.6,17.2,3.3,26.2,10.9,16.5c7.6-9.7,31.9-5.6,51.5-36.2C345.8,67,292.6,76.8,292.6,76.8z"/>
		<path class="st18" d="M264.7,130.8c24.8,2.9,46.5-19.5,63-39.1c2.6-3.1,0.6-8.5-3.3-11c-8.9-6.2-20.2-9-30.8-6l-2.6,3.7
			c8.8,0.2,26.6,2.6,16.8,18.6c-12.8,20.8-26.1,18.5-30.4,25.5c-4.3,7-12.3-1.2-7.7-13.8l-5.6,7.9c-2.2,4.6-3.1,8.7-2.9,12.1
			C262.3,130,263.4,130.7,264.7,130.8z"/>
		<path class="st22" d="M270.3,127.2c21.8-4,38.6-19.9,55.8-34.3c-1.6-16.7-19.7-18.6-33.5-16.2l-1.7,2.4c8.6,0.2,25.9,2.5,16.4,18
			c-12.5,20.2-25.4,17.9-29.7,24.8c-4.2,6.8-12-1.2-7.5-13.3l-5.4,7.7c-1,2-1.7,4-2.2,5.8C264.4,125.6,266.9,128,270.3,127.2z"/>
		<g>
			<path class="st16" d="M131.9,10.4c0,0-20.1,83.8,21.5,136.6c0,0,20.6,21.3,11.2,43c0,0,10.1,18.2,25.2,5c0,0-0.5-22.5,26.7-35.1
				c25.3-11.7,73.2-40,81.6-105C298.2,54.9,261.2-9.7,131.9,10.4z"/>
			<path d="M132,10.4c-2.5,11.6-3.7,23.4-4.3,35.3c-0.6,11.8-0.3,23.7,1.1,35.5c1.4,11.8,4,23.4,8,34.5c4.1,11.1,9.6,21.7,17,31l0,0
				c2.7,2.9,5,6.1,7,9.5c2,3.4,3.7,7,4.9,10.7c1.2,3.8,1.9,7.7,1.8,11.6c-0.1,3.9-0.9,7.9-2.5,11.5l0-0.2c1.3,2.1,2.9,4.1,4.7,5.8
				c1.9,1.7,4,3,6.4,3.6c2.4,0.6,5,0.4,7.3-0.5c2.3-0.9,4.4-2.3,6.3-3.9l-0.1,0.1c0.1-3.9,1.1-7.7,2.5-11.3c1.5-3.6,3.5-7,5.9-10
				c4.9-6.1,11.4-10.7,18.4-13.9c14-6.5,27.3-14.7,38.9-24.9c11.6-10.2,21.5-22.4,28.6-36c7.2-13.6,11.7-28.7,13.6-44l0.1,0.3
				c-1.9-3.1-4.4-6.1-6.9-8.8c-2.5-2.7-5.3-5.3-8.2-7.7c-5.7-4.8-12-9-18.6-12.6c-13.2-7.2-27.6-12-42.3-15.1
				c-14.7-3-29.8-4.2-44.9-4.1C161.9,6.9,146.9,8.2,132,10.4z M131.9,10.3c14.9-2.4,29.9-3.9,45-4.1c15.1-0.2,30.2,0.9,45,3.9
				c14.8,2.9,29.3,7.7,42.6,15c6.6,3.6,13,7.9,18.8,12.7c2.9,2.4,5.7,5,8.2,7.8c2.6,2.8,5,5.7,7,9l0.1,0.1l0,0.2
				c-2,15.4-6.5,30.5-13.8,44.3c-7.3,13.8-17.3,26-29,36.1c-11.7,10.2-25.1,18.3-39.2,24.8c-7,3.2-13.5,7.7-18.3,13.7
				c-2.4,3-4.4,6.3-5.9,9.9c-1.4,3.6-2.4,7.4-2.4,11.2l0,0.1l-0.1,0.1c-1.9,1.7-4,3.1-6.4,4c-2.4,0.9-5.1,1.1-7.6,0.5
				c-2.5-0.6-4.8-2-6.7-3.7c-1.9-1.7-3.5-3.7-4.9-5.9l-0.1-0.1l0.1-0.1c1.5-3.6,2.4-7.4,2.4-11.3c0.1-3.9-0.6-7.7-1.8-11.4
				c-1.2-3.7-2.9-7.2-4.9-10.6c-2-3.3-4.3-6.5-6.9-9.3l0,0l0,0c-7.4-9.3-13.1-20-17.2-31.2c-4-11.2-6.6-22.9-7.9-34.7
				c-1.4-11.8-1.6-23.8-1-35.6c0.3-5.9,0.9-11.9,1.7-17.7C129.6,22,130.5,16.2,131.9,10.3L131.9,10.3L131.9,10.3z"/>
		</g>
		<path class="st15" d="M130.2,50.4c0,0-4.7,64.7,31.1,100c0,0,12.1-19.3-6.4-43.1c-18.5-23.8-9.5-30.4-11.7-35.2
			C141.1,67.2,143.7,49.5,130.2,50.4z"/>
		<path class="st18" d="M295.3,70.5c0.6-2.4,1.1-4.9,1.6-7.5c0-0.2,0.1-0.3,0.1-0.5c0.2-1,0.4-2.1,0.5-3.1c0-0.3,0.1-0.6,0.1-0.9
			c0.2-1.2,0.4-2.5,0.5-3.7c0,0-3.2-5.6-10.9-12.9c-4.5-4.6-9.9-9.3-15.2-11.9c-3,3.9-11.2,1.5-15.9-0.4
			c-41.8-15.3-83-21.4-125.3-13.6c-0.3,1.4-0.5,2.9-0.8,4.7c45.1-12.5,95.7-0.7,136.2,24.8c-7.7,14.3-21,29.3-31.4,38.3
			c-32.5,28.1-50,24.3-88.3,12.5c-5.3-2.1-9.7-0.1-11,5c-0.7,4.2,4.2,19,6.8,23.3c4,8.3,13.3,18.2,15.5,27.6
			c5.5,7.7,13.5,22.6,6.9,37.7c0,0,10.1,18.2,25.2,5c0,0-0.5-22.5,26.7-35.1C239.8,149.2,281.9,124.5,295.3,70.5L295.3,70.5
			L295.3,70.5z"/>
		<path class="st18" d="M295.3,70.5c0.6-2.4,1.1-4.9,1.6-7.5c0-0.2,0.1-0.3,0.1-0.5c0.2-1,0.4-2.1,0.5-3.1c0-0.3,0.1-0.6,0.1-0.9
			c0.2-1.2,0.4-2.5,0.5-3.7c0,0-3.2-5.5-10.9-12.9c-0.2-0.2-0.4-0.4-0.6-0.6c0,0,0,0,0,0c-0.2-0.2-0.3-0.3-0.5-0.5
			c-2.4,3.7-8.5,1.8-13-0.4c-45.7-20.7-94-32.4-142.8-22c-0.1,0.7-0.3,1.5-0.4,2.3c50.7-14.1,108.2,2.7,150.7,34.8
			c-19.1,41.6-55.7,83-105.7,66.6c-6.1-1.9-14.5,0.8-12.1,7.6c6.9,16.4,9.9,35.2,4.1,50.5c-0.2,3.1-1,6.4-2.4,9.6
			c0,0,10.1,18.2,25.2,5c0,0-0.5-22.5,26.7-35.1C239.8,149.2,281.9,124.5,295.3,70.5L295.3,70.5L295.3,70.5z"/>
		<g>
			<path class="st16" d="M111.2,14.1c-5.6,36.1,9.3,53.7,7.4,66c-1.9,12.1,12.8,17.1,19.2,0.3c-0.3-1.8-0.6-3.7-0.8-5.5
				c-5.4,5.9-12.4,3.3-10.8-3.1c2-7.6-7.5-17.7-1.8-40.1c3.3-12.6,10.7-8.5,16.6-2.5c0.6-2,1.3-4,2-6
				C134.3,10.1,115.4-13.3,111.2,14.1z"/>
			<path d="M111.3,14.1c-0.6,4.1-1,8.2-1.1,12.3c-0.1,4.1,0.1,8.3,0.5,12.4c0.9,8.2,2.9,16.2,5.4,24.1c1.1,4,2.5,7.9,3,12.1
				c0.1,1,0.2,2.1,0.2,3.2c0,1.1-0.2,2.1-0.3,3.1c-0.2,2,0.2,4.1,1.1,5.8c1,1.8,2.6,3.1,4.6,3.6c1.9,0.5,4.1,0.1,5.8-0.9
				c1.8-1,3.3-2.5,4.5-4.1c1.2-1.7,2.1-3.5,2.8-5.4l0,0.1c-0.3-1.8-0.6-3.7-0.8-5.5l0.3,0.1c-1.1,1.2-2.5,2.3-4.1,2.9
				c-1.6,0.6-3.5,0.7-5-0.2c-0.8-0.4-1.4-1.1-1.8-1.9c-0.4-0.8-0.5-1.7-0.5-2.6c0-0.9,0.3-1.7,0.4-2.5c0.1-0.8,0.1-1.6,0-2.4
				c-0.4-3.3-1.5-6.5-2.3-9.7c-0.8-3.3-1.4-6.6-1.6-10c-0.2-3.4,0-6.8,0.4-10.1c0.2-1.7,0.5-3.3,0.9-5c0.4-1.6,0.8-3.3,1.4-4.9
				c0.6-1.6,1.5-3.2,2.9-4.4c0.7-0.6,1.5-1,2.5-1.2c0.9-0.2,1.8-0.1,2.7,0.1c1.8,0.4,3.3,1.3,4.7,2.3c1.4,1,2.6,2.2,3.8,3.4
				l-0.9,0.2c0.6-2,1.3-4,2-6l0.1,0.5c-2.3-3.4-4.7-6.7-7.3-9.9c-2.6-3.1-5.4-6.2-8.6-8.7c-1.6-1.2-3.4-2.3-5.3-2.9
				c-1-0.3-2-0.4-3-0.2c-1,0.2-1.9,0.6-2.7,1.3c-1.5,1.4-2.4,3.3-3.1,5.2C112,10,111.6,12,111.3,14.1z M111.2,14.1
				c0.3-2,0.7-4.1,1.4-6c0.7-1.9,1.6-3.9,3.1-5.3c0.8-0.7,1.7-1.2,2.8-1.4c1-0.2,2.1-0.1,3.1,0.1c2,0.5,3.9,1.6,5.5,2.8
				c3.3,2.5,6.2,5.5,8.9,8.6c2.7,3.1,5.2,6.4,7.5,9.8l0.1,0.2l-0.1,0.2c-0.7,2-1.4,4-2,6l-0.2,0.8l-0.6-0.6
				c-1.2-1.2-2.4-2.3-3.7-3.3c-1.3-1-2.8-1.8-4.3-2.1c-1.5-0.4-3.1-0.1-4.3,1c-1.2,1-2,2.5-2.6,4c-0.6,1.5-1,3.1-1.4,4.7
				c-0.4,1.6-0.7,3.3-0.9,4.9c-0.5,3.3-0.6,6.6-0.5,9.9c0.2,3.3,0.7,6.6,1.5,9.9c0.7,3.3,1.8,6.4,2.2,9.9c0.1,0.9,0.1,1.7,0,2.6
				c-0.1,0.9-0.4,1.6-0.4,2.5c-0.1,1.6,0.5,3.3,1.9,4.1c1.4,0.8,3.2,0.8,4.7,0.2c1.5-0.6,2.9-1.6,4-2.8l0.3-0.3l0,0.4
				c0.2,1.8,0.5,3.7,0.8,5.5l0,0l0,0c-0.8,1.9-1.7,3.8-2.9,5.5c-1.2,1.7-2.7,3.2-4.5,4.3c-1.8,1-4,1.5-6.1,1
				c-2.1-0.5-3.9-1.9-4.9-3.8c-1.1-1.9-1.5-4-1.3-6.2c0.1-1.1,0.3-2.1,0.3-3.1c0-1-0.1-2-0.2-3c-0.6-4-1.9-8-3.1-11.9
				c-1.2-4-2.3-8-3.2-12c-0.9-4.1-1.5-8.2-1.8-12.3c-0.3-4.1-0.4-8.3-0.2-12.4C110.1,22.3,110.5,18.1,111.2,14.1z"/>
		</g>
		<path class="st18" d="M137.1,74.8c-5.4,5.9-12.4,3.3-10.8-3.1c2-7.6-7.5-17.7-1.8-40.1c3.3-12.6,10.7-8.5,16.6-2.5
			c0.6-2,1.3-4,2-6c-3.2-4.7-7.8-10.8-12.5-15.3c-3.7-0.8-7.6,0.2-9.5,3.1c-11.8,23.7-2.7,50.1,4.3,74.6c4.7,1.2,8.1,0.2,10.9-1.9
			c0.5-1,1-2,1.4-3.2C137.5,78.5,137.3,76.6,137.1,74.8z"/>
		<path class="st18" d="M123.8,19.1c-7.8,19.6-6.3,41.2,2,60.5c1.3,2.2,6.6,4.2,10.1,1.8c0.7-0.7,1.2-1.5,1.7-2.3
			c-0.2-1.4-0.4-2.9-0.6-4.4c-5.4,5.9-12.4,3.3-10.8-3.1c2-7.6-7.5-17.7-1.8-40.1c3.3-12.6,10.7-8.5,16.6-2.5c0.6-2,1.3-4,2-6
			c-1.3-2-2.9-4.1-4.6-6.4C133.1,13.3,126.1,12.3,123.8,19.1z"/>
		<g class="st6">
			<path class="st17" d="M142.3,12.1c6.6-1.2,13.3-1.9,19.9-2.4c6.7-0.5,13.4-0.6,20.1-0.6c6.7,0.2,13.4,0.5,20,1.3
				c3.3,0.4,6.6,0.9,9.9,1.5c3.3,0.6,6.6,1.3,9.8,2.2c-6.6-1.3-13.2-2.3-19.8-3c-6.6-0.6-13.3-1-20-1.1c-6.7-0.2-13.3,0-20,0.3
				c-3.3,0.2-6.7,0.4-10,0.6C148.9,11.3,145.6,11.7,142.3,12.1z"/>
		</g>
		<g class="st7">
			<path class="st17" d="M146.3,35.5c0.6,3.1,0.6,6.1,0.5,9.1c-0.1,3-0.5,5.9-0.9,8.8c-0.5,2.9-1.1,5.7-1.9,8.5
				c-0.8,2.8-1.8,5.6-2.9,8.5c-1.4-2.9-1.7-6.1-1.8-9.1c-0.1-3,0.2-6,0.7-9c0.5-2.9,1.2-5.8,2.2-8.7
				C143.2,40.9,144.4,38.1,146.3,35.5z"/>
		</g>
		<g class="st7">
			<path class="st17" d="M123.3,4.3c-1.1-0.1-2.1-0.1-2.9,0.1c-0.9,0.1-1.6,0.4-2.2,0.9c-0.6,0.5-1.1,1.2-1.5,2
				c-0.5,0.8-0.8,1.7-1.4,2.7c-0.3-1-0.3-2.1-0.1-3.2c0.2-1.1,0.8-2.2,1.8-3c1-0.8,2.3-1.1,3.5-0.9C121.5,3,122.5,3.5,123.3,4.3z"/>
		</g>
		<path class="st18" d="M142.4,21.8c0,0,6.3-4.6-1.1,20.3c-7.4,24.9,0.2,36.8,0.2,36.8s-1.2,31.2-9.2-1.2
			C124.2,45.6,137.7,26.4,142.4,21.8z"/>
		<path class="st18" d="M138.6,32.4c0,0,3.5-3.1,0,14.5c-3.6,17.6,1.2,26.3,1.2,26.3s0.2,22.2-5.4-1.1
			C128.7,48.8,136,35.5,138.6,32.4z"/>
		<g>
			<path d="M139.3,212.5c0,0,0.2,0.1,0.2,0.1l0.3,0.1c0.2,0.1,0.4,0.1,0.6,0.2l0,0l0,0.1c0.1,0.2,0.4,0.2,0.6,0.4
				c0.3,0.1,0.5,0.4,0.6,0.4c0.2,0,0.4,0,0.7,0c0.3,0,0.7,0,1,0.4l-0.1-0.1c-0.1-0.1-0.1,0,0-0.1l0.3-0.1c0.1,0,0.3-0.1,0.6,0
				c0.3,0.2,0.4,0.5,0.4,0.6l0,0.1l0,0.1l-0.1,0.2c0,0,0,0.1,0,0.1c0,0,0,0,0-0.1c0-0.1-0.1-0.2-0.2-0.3c-0.1,0-0.2-0.1-0.2-0.1
				c0,0,0,0-0.1,0c-0.1,0.1-0.1,0-0.1,0l0.1-0.1l0.1-0.1c0,0,0.1,0,0.1,0c0,0,0.2,0,0.3,0l-0.4,0.1l0.3-0.3c0.1-0.1,0.1-0.1,0.2-0.2
				c0,0,0.1-0.1,0.1-0.1c0,0,0.1-0.1,0.2-0.1c0,0,0.4,0.1,0.5,0.3l-0.8-0.1l0.2-0.2c0,0,0.1-0.1,0.1-0.1c0,0,0.1-0.1,0.1-0.1
				c0.1,0,0.2-0.1,0.4-0.1l0.4,0.1l-0.1,0.4c0,0,0,0.1,0,0.1c0,0.1,0,0.2-0.1,0.3c-0.1,0.2-0.1,0.3-0.1,0.4c0,0,0,0,0,0l0,0
				c0,0,0-0.1-0.1-0.2c-0.1-0.1-0.2-0.1-0.3-0.2c-0.1,0-0.1,0-0.2,0c0,0-0.1,0-0.1,0c0,0,0,0,0,0c0,0,0,0,0.2-0.1c0,0,0.1,0,0.2,0
				c0.1,0,0.2,0.1,0.2,0.2c0,0,0,0.1,0,0.1v0.1c0,0.1,0,0.2,0,0.2c-0.1,0.2-0.1,0.3-0.2,0.4l-0.2-0.5c0.3,0.1,0.4,0.3,0.6,0.4
				c0.1,0.1,0.1,0.1,0.3,0.1l0,0c0.2-0.1,0.6-0.1,0.8,0c0.3,0.1,0.4,0.3,0.6,0.4l-0.2,0c0.2,0,0.5-0.1,0.8,0c0.3,0,0.6,0.2,0.7,0.5
				l0,0c0.1,0.1,0.3,0.2,0.6,0.3c0.3,0.1,0.4,0.4,0.5,0.7l0-0.1c0.2,0.3,0.2,0.6,0.3,0.8l-0.1-0.1c0.2,0.2,0.3,0.2,0.5,0.1l0,0l0,0
				c0.2,0,0.4,0,0.5,0.1c0.1,0.1,0.2,0.1,0.3,0.2c0.1,0.1,0.3,0,0.4-0.1l0.5-0.3l-0.1,0.5c0,0.2,0,0.3,0,0.4c0,0.1,0,0.1,0.1,0.1
				l0.2,0.1l0,0.3c0,0.1,0,0.2,0,0.1c0,0,0,0,0,0c0,0,0-0.1,0-0.1c0-0.1-0.2-0.1-0.2-0.1c-0.1,0,0,0,0,0l0.2-0.1
				c0,0,0.1-0.1,0.2-0.1c0.1,0,0.2-0.1,0.5,0.1l0.3,0.2l-0.1,0.1c0,0,0,0,0,0c0,0-0.1-0.1-0.1-0.2c-0.1,0,0,0,0.1,0
				c0.1,0,0.3,0.1,0.4,0.2c0.1,0.1,0.1,0.2,0.1,0.3c0,0.1,0,0.2,0,0.3l-0.6-0.5c0.2-0.1,0.6,0,0.6,0c0,0-0.2,0-0.1,0
				c0,0,0.2-0.2,0.3-0.3l0-0.1l0.1,0c0.2-0.1,0.5-0.2,0.8-0.3c0.3,0,0.7,0.1,1,0.2c0.5,0.3,0.8,0.7,1,0.8l-0.2,0
				c0.3,0,0.6,0.1,0.8,0.1c0.2,0.1,0.3,0.1,0.4,0.1h0.1l0.1,0.1c0,0-0.1,0-0.1,0l0.1,0c0.1,0,0.1,0,0.2,0c0.1,0,0.2,0.1,0.4,0.2l0,0
				l0,0c0.1,0.1,0.2,0.2,0.2,0.3c0.1,0.1,0.1,0.3,0.1,0.4c0,0.2,0,0.4,0,0.6l-0.7-0.6c0.2-0.1,0.5-0.1,0.8,0
				c0.3,0.1,0.5,0.3,0.7,0.4c0.2,0.1,0.3,0.3,0.4,0.3c0.1,0.1,0.1,0.1,0.2,0.1l-0.1,0c0.4-0.1,1-0.1,1.3,0l-0.2,0c0.1,0,0.2,0,0.4,0
				c0.2,0,0.4,0.1,0.5,0.3c0.2,0.4,0.1,0.6,0.1,0.8l0-0.1c0,0.1,0.1,0.2,0.1,0.3c0.1,0.1,0.2,0.3,0.2,0.5l0,0.1l0,0
				c0,0.1,0,0.1,0,0.2c0,0,0,0,0,0c0,0-0.1,0-0.1,0c0,0,0.1,0,0.1-0.1c0.1,0,0.1-0.1,0.2-0.1l0,0l0,0c0.2-0.1,0.4-0.3,0.6-0.3
				c0.1,0,0.3-0.1,0.4,0c0.1,0.1,0.2,0.2,0.3,0.2l0,0c0,0,0.1,0,0.2,0c0.1,0,0.2,0.1,0.1,0.2c0,0.1,0,0.1,0,0.1
				c-0.1,0.1-0.1,0.2-0.2,0.3l-0.1,0c0-0.1,0.1-0.2,0.1-0.4c0,0,0-0.1,0-0.1c0,0,0,0.1,0,0c0,0-0.1,0-0.2,0h0l0,0
				c-0.2,0-0.2-0.1-0.3-0.1c-0.1,0-0.1,0-0.2,0c-0.1,0.1-0.3,0.2-0.4,0.3l0,0c-0.1,0.1-0.1,0.1-0.2,0.2c-0.1,0.1-0.2,0.1-0.3,0.2
				c-0.1,0-0.3,0-0.4-0.1c-0.1-0.1-0.1-0.2-0.2-0.2c0-0.1-0.1-0.2-0.1-0.3l0,0.1c0-0.1-0.1-0.2-0.2-0.3c-0.1-0.1-0.2-0.3-0.3-0.5
				l0-0.1l0-0.1c0-0.1,0-0.3,0-0.3c0,0,0.1,0.1,0,0c0,0-0.1,0-0.1,0l-0.1,0l-0.1,0c-0.4-0.1-0.6-0.1-0.8,0l0,0l-0.1,0
				c-0.3,0.1-0.7,0-0.9-0.1c-0.2-0.1-0.4-0.3-0.5-0.4c-0.3-0.2-0.3-0.2-0.5-0.1l-0.8,0.2l0.1-0.8c0-0.1,0-0.3,0-0.3c0,0,0,0,0,0
				c0,0,0,0,0,0l0,0c0.1,0,0.1,0.1,0.1,0.1l-0.1,0c0,0-0.1,0-0.2,0c-0.1,0-0.2,0-0.3-0.1l0.2,0.1c-0.3,0-0.6-0.1-0.8-0.2
				c-0.2-0.1-0.3-0.1-0.4-0.1l-0.1,0l-0.1,0c-0.3-0.1-0.5-0.4-0.7-0.5c-0.2-0.2-0.3-0.3-0.4-0.4c-0.1-0.1-0.2-0.1-0.3-0.1
				c-0.1,0-0.3,0.1-0.5,0.1l0.1-0.1c-0.1,0.1-0.3,0.3-0.5,0.4c-0.1,0-0.2,0.1-0.3,0.1c-0.1,0-0.3,0-0.3-0.1c-0.1,0,0.1,0,0.1,0
				l-0.6-0.5l0-0.1c0,0,0,0,0,0.1c0,0.1,0.2,0.1,0.2,0.1c0,0-0.1,0-0.3-0.1c-0.1,0-0.3-0.2-0.3-0.3c0-0.1,0-0.2,0-0.2l0.1,0.3
				c0.2,0.2,0.3,0,0.3,0.1c0,0,0,0-0.1,0l-0.3,0.1c-0.1,0-0.1,0.1-0.3,0.1c-0.1,0-0.3-0.1-0.3-0.2c0,0-0.1-0.1-0.1-0.1l0-0.1
				c0-0.2,0-0.3,0.1-0.4l0.2,0.4c-0.1-0.1-0.2-0.1-0.3-0.3c-0.1-0.1-0.1-0.3-0.1-0.4c0-0.2,0-0.4,0-0.6l0.4,0.3
				c-0.1,0.1-0.3,0.1-0.4,0.2c-0.2,0-0.4,0-0.5-0.1c-0.3-0.2-0.3-0.3-0.5-0.3l0,0c-0.1,0.1-0.3,0.1-0.5,0c-0.2-0.1-0.2-0.2-0.3-0.2
				l0,0l0,0c-0.1-0.3-0.1-0.6-0.3-0.8l0,0l0,0c0-0.2-0.1-0.4-0.3-0.4c-0.2-0.1-0.4-0.1-0.7-0.3l0,0l0,0c-0.1-0.4-0.6-0.3-1-0.1
				l-0.1,0l-0.1,0c-0.2-0.1-0.4-0.2-0.6-0.3c-0.1,0-0.2,0-0.4,0.1l0,0l-0.1,0c-0.3,0.1-0.7,0-0.8-0.2c-0.2-0.1-0.3-0.3-0.4-0.3
				l-0.4,0l0.2-0.5c0-0.1,0.1-0.3,0.1-0.3c0,0,0-0.1,0,0l0,0c0,0,0,0.1,0,0.1c0,0.1,0.1,0.2,0.2,0.2c0.1,0,0.2,0,0.2,0
				c0.1,0,0.1,0,0.1,0l-0.1,0c0,0-0.1,0-0.1,0c-0.1,0-0.1,0-0.2,0c-0.1,0-0.2-0.1-0.3-0.2c-0.1-0.2-0.1-0.2-0.1-0.3
				c0-0.1,0-0.1,0-0.1l0-0.1l0.1-0.4c0-0.1,0-0.1,0-0.1c0-0.1,0-0.2,0.1-0.3l0.3,0.6c0.2,0.1,0.3,0,0.3,0c0,0,0,0,0,0l0,0.1
				l-0.1,0.2l-0.5,0.7l-0.3-0.7c0,0.1,0.1,0.2,0.2,0.2c0.1,0,0.1,0,0.2,0c0.1,0,0.2-0.1,0.1,0c0,0,0,0,0,0c0,0-0.1,0.1-0.1,0.1
				l-0.2,0.3l-0.2,0.2l-0.2-0.1c0.1,0,0.2,0,0.2,0c0,0,0,0,0.1,0c0,0,0,0,0,0l-0.1,0.1c0,0,0,0.1-0.2,0.1c0,0-0.1,0-0.1,0
				c-0.1,0-0.2,0-0.3-0.1c-0.2-0.1-0.2-0.2-0.2-0.3c0-0.1,0-0.2,0-0.2c0-0.1,0.1-0.2,0.1-0.3l0.1-0.2l0,0.2c0-0.1,0,0,0.1,0.1
				c0.1,0,0,0,0,0l-0.3,0.1c-0.1,0-0.3,0.1-0.6-0.1l-0.1,0l0-0.1c-0.1-0.1-0.2-0.2-0.5-0.2c-0.2,0-0.5,0-0.9-0.1
				c-0.1,0-0.2-0.1-0.3-0.1c-0.1-0.1-0.1-0.1-0.2-0.2c-0.1-0.1-0.2-0.2-0.3-0.2c-0.2-0.1-0.5-0.3-0.6-0.6l0.1,0.1
				c-0.2-0.1-0.4-0.2-0.5-0.3c-0.1-0.1-0.2-0.1-0.3-0.2C139.4,212.6,139.3,212.6,139.3,212.5L139.3,212.5z"/>
		</g>
		<g>
			<path d="M136.8,216.7c-0.1,0.2-0.1,0.3-0.1,0.5c0,0.1,0,0.2,0,0.2c0,0,0,0.1,0,0c-0.1,0-0.1,0,0,0l0,0l0,0
				c0.3-0.1,0.6-0.3,0.9-0.4l-0.1,0.1c0.1-0.1,0.2-0.2,0.3-0.3c0.1,0,0.2-0.1,0.3,0c0.1,0,0.2,0.1,0.3,0.2c0.1,0.1,0.2,0.2,0.2,0.3
				c0.1,0.1,0.1,0.2,0.2,0.2l-0.2,0c0,0,0.1-0.1,0.2-0.1l0.2-0.2c0,0,0.1-0.1,0.2-0.1c0.1,0,0.1-0.1,0.4-0.1
				c0.3,0.1,0.3,0.3,0.3,0.4c0,0.1,0,0.2,0,0.2l-0.5-0.3c0.1-0.1,0.1-0.1,0.2-0.2c0.1,0,0.2-0.2,0.5-0.1c0.3,0.1,0.3,0.3,0.3,0.4
				c0,0.1,0,0.2,0,0.3c0,0.3,0,0.6-0.1,0.9l-0.3-0.4c0.5,0.2,0.7,0.5,0.9,0.6c0.2,0.2,0.3,0.2,0.5,0.1l0.4-0.1l0.1,0.4c0,0,0,0,0,0
				c0-0.1-0.1-0.1-0.2-0.1c0,0,0.1,0,0.2-0.1c0.2-0.1,0.4-0.3,0.8-0.4c0.3-0.1,0.6,0,0.8,0.2c0.2,0.2,0.2,0.4,0.3,0.5
				c0.1,0.3,0.1,0.6,0.1,0.9v0l0,0c0,0.1,0,0.3,0,0.4c0,0,0,0.1,0,0.1c0,0,0,0-0.1-0.1c0,0-0.1-0.1-0.2-0.1c-0.1,0,0.1,0,0.2-0.1
				c0.1,0,0.2-0.1,0.4-0.1c0.2,0,0.5,0.3,0.5,0.4l0,0l0,0c0,0.1,0,0-0.1,0c0,0,0,0,0.1,0c0.2-0.1,0.4-0.2,0.8-0.2l-0.2,0.1
				c0.1,0,0.1-0.2,0.5-0.1c0.3,0.1,0.3,0.3,0.3,0.3c0,0.1,0.1,0-0.1-0.1c-0.2,0-0.2,0.1-0.2,0c0.1-0.1,0.2-0.3,0.4-0.4l1.2-1.7
				l-0.6,2c0,0.1-0.1,0.2-0.1,0.3c0,0,0,0.1,0,0.1c0,0,0,0-0.1-0.1c-0.1-0.1-0.2,0-0.2,0c0,0,0,0,0.1,0c0,0,0.1,0,0.1-0.1
				c0,0,0.2,0,0.4,0.1c0.2,0.2,0.1,0.3,0.1,0.4c0,0.1,0,0.1,0,0.2l0,0l0,0c0,0.2-0.1,0.3-0.1,0.5c0,0.2,0,0.2,0,0.4l-0.4-0.1
				l0.1-0.2l0.1-0.1c0.1,0,0-0.1,0.3-0.1c0.2,0,0.2,0.1,0.2,0.1c0,0,0-0.1-0.1,0c-0.1,0,0,0,0,0c0,0,0.1-0.1,0.1-0.2l0.6-0.8l-0.2,1
				c0,0.2-0.1,0.4,0,0.5c0,0-0.1,0,0,0c0.1,0,0.2,0,0.3-0.1l0.2-0.1l0,0.2c0,0.2,0,0.3,0,0.4c0,0,0,0,0.1,0c0,0,0.1,0,0.2-0.1
				c0.1-0.1,0.3-0.2,0.5-0.2c0.2-0.1,0.3-0.2,0.6-0.1l0.1,0l0,0.1c0,0.2,0,0.3,0,0.5c0,0.1,0,0.1,0,0.2c0,0,0,0,0.1,0
				c0.1,0,0.3-0.1,0.5-0.1c0.1,0,0.2-0.1,0.3,0c0.2,0,0.3,0.2,0.3,0.3l0,0l0,0c0,0.1,0.1,0.2,0.1,0.2c0,0,0.2,0,0.3-0.1
				c0.2,0,0.3-0.1,0.6-0.1c0.1,0,0.3,0.1,0.3,0.3c0.1,0.1,0.1,0.2,0.1,0.3l0-0.1c0.1,0.2,0.1,0.4,0.2,0.6c0,0.1,0,0.2,0.1,0.2
				c0,0,0,0,0,0c0,0-0.1,0-0.1,0l0.1-0.1l0.2,0.2c0,0,0,0,0,0c0,0,0.1,0,0.1-0.1c0.1-0.1,0.3-0.2,0.4-0.3l0.7-0.7l-0.1,1
				c0,0,0,0.1,0,0c0,0,0-0.1-0.1-0.1c-0.1,0-0.1,0-0.2,0c-0.1,0-0.1,0-0.1,0c0,0,0.1-0.1,0.2-0.2c0.1-0.2,0.3-0.4,0.4-0.6l0.1-0.1
				l0.2-0.1c0,0,0.1,0,0.3-0.1c0.1,0,0.4,0,0.4,0.2c0.1,0.1,0.1,0.2,0.1,0.3c0,0.3,0,0.5-0.1,0.7l-0.7-0.4c0,0,0.1-0.1,0.1-0.1
				c0,0,0.1-0.1,0.1-0.1c0.1,0,0.1,0,0.2,0c0.1,0,0.2,0.1,0.2,0.1c0,0,0.1,0.1,0.1,0.2c0,0.1,0,0.1,0,0.2c0,0.2,0,0.3,0,0.4l0,0.3
				c0,0,0,0.1,0,0.1c0,0,0,0,0,0c0,0,0,0,0-0.1c0-0.1-0.1-0.1-0.2-0.1l0.2,0.1l0,0.2c0,0,0,0-0.1-0.1c-0.1-0.1-0.2,0-0.2,0
				c0,0,0.1-0.1,0.2-0.2l0,0l0,0c0.2-0.1,0.6-0.2,0.9-0.2c0.3,0,0.5,0.1,0.7,0.1l-0.1,0c0.2,0,0.5,0.1,0.6,0.2
				c0.1,0.1,0.1,0.2,0.2,0.3c0.1,0.2,0.1,0.3,0.1,0.4c0,0.1,0.1,0.2,0,0.1c0-0.1-0.2-0.1-0.3-0.1c0,0,0,0,0,0l0.2-0.2l0.2,0.1
				c0.3,0.1,0.4,0.3,0.4,0.4c0.1,0.1,0.1,0.2,0.1,0.2c0,0.1,0.1,0.2,0.1,0.3c0,0,0,0-0.1-0.1c-0.1-0.1-0.3-0.1-0.3-0.1
				c-0.1,0,0,0,0.1-0.1l1.1-1.5l-0.2,1.9c0,0.1,0,0.2,0,0.2c0,0,0,0,0-0.1c0-0.1-0.1-0.1-0.2-0.2c-0.2,0-0.2,0-0.2,0
				c0,0,0.1-0.1,0.2-0.2c0.1-0.1,0.2-0.2,0.4-0.2l0.4-0.2l0.3,0.4c0,0,0,0,0.1,0.1c0.1,0,0.2,0,0.3,0c0.2,0,0.3,0,0.6,0.1
				c0.2,0,0.5,0.2,0.7,0.4l-0.7-0.1c0.2-0.1,0.5-0.3,0.8-0.3c0.3,0,0.4,0,0.5,0l0.4-0.1l0.2,0.4c0,0.1,0.1,0.2,0.2,0.3
				c0.1,0.1,0.3,0.3,0.4,0.5l-0.8-0.1c0.1-0.1,0.2-0.2,0.3-0.3c0.1-0.1,0.3-0.2,0.6-0.2c0.2,0,0.4,0.1,0.4,0.1c0,0,0,0,0,0l0.2,0
				l0.2,0c-0.2,0-0.1,0,0.1-0.1c0.1,0,0.2,0,0.4,0c0.2,0.1,0.4,0.3,0.4,0.4c0.1,0.3,0,0.4,0,0.6c0,0.2,0,0.3-0.1,0.4l0-0.1
				c0,0.2,0.1,0.3,0.1,0.4c0.1,0.1,0.1,0.1,0.2,0.2c0.2,0.1,0.6-0.1,0.9-0.2l0,0l0,0c0.4-0.1,0.7-0.2,1.2-0.2c0.2,0,0.5,0.1,0.7,0.2
				c0.2,0.2,0.3,0.4,0.4,0.6l-0.5-0.1c0.2-0.2,0.4-0.4,0.7-0.6c0.1-0.1,0.3-0.2,0.5-0.2c0.2,0,0.5,0.2,0.5,0.3l-0.1-0.1
				c0.2,0.2,0.3,0.4,0.4,0.5c0.1,0.2,0.2,0.3,0.2,0.5l-0.1-0.1c0.2,0.1,0.6,0.2,0.9,0.2c0.3,0,0.7,0.1,0.9,0.3l-0.1,0.1
				c-0.5-0.3-1.2-0.1-1.9-0.3l0,0l0,0c-0.2-0.3-0.4-0.7-0.6-0.8l0,0l0-0.1c-0.1-0.1-0.1-0.1-0.1-0.1c0,0-0.1,0.1-0.2,0.1
				c-0.2,0.1-0.3,0.3-0.5,0.5l-0.3,0.3l-0.2-0.4c-0.1-0.3-0.3-0.3-0.6-0.3c-0.3,0-0.6,0.1-0.9,0.2l0.1,0c-0.2,0.1-0.4,0.2-0.6,0.3
				c-0.2,0.1-0.5,0.1-0.8,0.1c-0.3-0.1-0.6-0.3-0.8-0.6c-0.1-0.3-0.2-0.5-0.2-0.7l0-0.1l0-0.1c0-0.1,0-0.2,0-0.3c0-0.1,0-0.2,0-0.2
				c0,0,0.1,0.1,0.2,0.2c0.1,0,0.1,0,0,0c-0.1,0-0.2,0.1-0.7,0l0.4,0c-0.2,0.1-0.4,0.1-0.6,0.1c-0.2,0-0.2-0.1-0.2,0c0,0,0,0,0,0
				c0,0-0.1,0.1-0.2,0.1l-0.4,0.4l-0.3-0.5c-0.1-0.1-0.2-0.2-0.3-0.3c-0.1-0.1-0.3-0.3-0.4-0.6l0.6,0.3c-0.3,0.1-0.6,0-0.7,0.1
				c-0.1,0-0.1,0-0.3,0.1l-0.4,0.2l-0.3-0.3c0,0,0,0-0.1-0.1c-0.1,0-0.2,0-0.4,0c-0.2,0-0.4,0-0.6-0.1c-0.2-0.1-0.5-0.3-0.7-0.5
				l0.7,0.2c-0.1,0-0.2,0.1-0.3,0.2c-0.1,0.1-0.2,0.2-0.4,0.2c-0.1,0-0.2,0.1-0.5,0c-0.2,0-0.3-0.2-0.4-0.3
				c-0.1-0.1-0.1-0.2-0.1-0.3c-0.1-0.3,0-0.4,0-0.6l0.9,0.4c-0.1,0.1-0.2,0.2-0.5,0.3c-0.1,0.1-0.5,0.1-0.6-0.1
				c-0.2-0.1-0.2-0.3-0.2-0.3c-0.1-0.2-0.1-0.3-0.1-0.4l0-0.1c0,0,0,0.1,0.2,0.1l0.4-0.1c-0.1,0.1-0.2,0.1-0.4,0.2
				c-0.2,0.1-0.5,0-0.6-0.1c-0.3-0.3-0.3-0.4-0.3-0.6c0-0.1-0.1-0.3-0.1-0.3c0,0,0-0.1,0,0c0,0,0.2,0.1,0.2,0.1l0,0l-0.1,0
				c-0.3,0-0.5-0.1-0.7-0.1c-0.1,0-0.3,0-0.4,0.1l0.1-0.1c-0.1,0.1-0.3,0.2-0.5,0.3c-0.1,0-0.3,0.1-0.6,0c-0.3-0.2-0.3-0.4-0.3-0.5
				l0.2,0.3c-0.1,0-0.2-0.1-0.2-0.2c0-0.1,0-0.1-0.1-0.1c0-0.1,0-0.1,0-0.2c0-0.1,0-0.1,0-0.2l0-0.3c0-0.1,0-0.2,0-0.2c0,0,0,0,0,0
				c0,0,0,0.1,0.1,0.1c0,0,0.1,0.1,0.2,0.1c0.1,0,0.1,0,0.2,0c0,0,0.1,0,0.1,0c0,0,0,0,0,0l0.1-3.6l-0.8,3.2c0-0.2,0.1-0.3,0.1-0.4
				c0,0,0,0,0,0.1c0,0.1,0.2,0.1,0.2,0.1c0,0-0.1,0-0.3,0l0.3-0.1c-0.2,0.2-0.3,0.4-0.5,0.6c-0.1,0.1-0.2,0.2-0.4,0.3
				c0,0-0.1,0.1-0.2,0.1c-0.1,0-0.2,0-0.2-0.1c-0.1-0.1-0.1-0.1-0.1-0.2c-0.1-0.2,0-0.3-0.1-0.3l0.5,0.2c-0.2,0.1-0.3,0.3-0.5,0.4
				c-0.1,0.1-0.2,0.1-0.5,0.1c-0.2,0-0.4-0.2-0.5-0.3l0.3,0.1c-0.1,0-0.3,0-0.3-0.1c-0.1-0.1-0.1-0.2-0.1-0.2c0-0.1-0.1-0.2-0.1-0.3
				c0-0.2-0.1-0.4-0.1-0.5l0-0.1l0,0c0-0.1,0-0.2-0.1-0.2c0,0-0.2,0-0.3,0c-0.2,0-0.3,0.1-0.6,0c-0.3-0.1-0.3-0.4-0.3-0.6l0,0.1
				c0-0.1,0,0,0-0.1c0,0-0.1,0-0.2,0c-0.2,0-0.3,0.1-0.5,0.1c-0.1,0-0.3,0-0.4-0.1c-0.1-0.1-0.1-0.2-0.1-0.3c0-0.2,0-0.4,0-0.6
				l0.1,0.2c0,0-0.2,0-0.4,0.1c-0.1,0.1-0.3,0.2-0.5,0.3c-0.1,0-0.2,0.1-0.3,0.1c-0.1,0-0.3-0.1-0.3-0.2c-0.1-0.2-0.1-0.4-0.1-0.6
				l0.2,0.2c-0.1,0-0.2,0.1-0.3,0.1c-0.1,0-0.1,0-0.2,0c-0.1,0-0.2-0.1-0.2-0.2c-0.1-0.3,0-0.5,0-0.7l0.4,0.1c0,0.1-0.1,0.1-0.2,0.2
				c0,0,0,0.1-0.2,0.2c-0.1,0-0.2-0.1-0.2-0.1c0,0,0,0,0.1,0c0.1,0,0.1,0,0.1,0l-0.1,0.1l-0.1,0.2l-0.3,0.5l-0.1-0.6
				c0,0-0.1-0.2-0.1-0.3c0-0.1,0-0.2,0-0.3c0-0.2,0.1-0.4,0.1-0.5l0,0c0,0,0-0.1,0-0.1c0,0-0.1-0.1,0.1,0.1c0.1,0.1,0.2,0.1,0.2,0.1
				c0,0,0,0,0,0c0,0-0.1,0.1-0.2,0.1c-0.1,0-0.2,0.1-0.4,0c-0.1-0.1-0.1-0.2-0.2-0.3c0-0.1,0-0.2,0-0.3c0-0.1,0-0.3,0.1-0.4l0.6,0.3
				c-0.1,0.2-0.2,0.4-0.4,0.6c-0.1,0-0.1,0.2-0.5,0.1c-0.3-0.1-0.3-0.3-0.3-0.3c0-0.1-0.1,0,0.1,0.1c0.2,0,0.2-0.1,0.2,0l0,0.1
				l-0.2,0c-0.2,0-0.4,0.2-0.7,0.3c-0.1,0-0.3,0.1-0.6,0.1c-0.3-0.1-0.5-0.4-0.5-0.6l0,0.1c0,0,0.1,0.2,0.2,0.1c0.1,0,0,0,0,0
				c-0.1,0-0.2,0.1-0.6,0.1c-0.1,0-0.3-0.1-0.4-0.2c-0.1-0.1-0.1-0.2-0.2-0.3c0-0.2,0-0.3,0-0.4c0-0.2,0-0.4,0.1-0.5l0,0.1
				c0-0.2,0-0.5-0.1-0.7c0-0.1-0.1-0.2-0.1-0.2c0,0,0.1,0,0.1,0c-0.1,0-0.4,0.2-0.6,0.3c-0.1,0.1-0.3,0.2-0.6,0.2
				c-0.2,0-0.4-0.1-0.5-0.3c-0.1-0.1-0.1-0.3-0.1-0.4l0.5,0.3c-0.2,0.1-0.4,0.1-0.7,0c-0.2-0.1-0.4-0.2-0.6-0.3
				c-0.3-0.2-0.5-0.5-0.6-0.5l-0.3-0.1l0.1-0.3c0.1-0.3,0.1-0.5,0.1-0.8c0-0.1,0-0.1,0-0.1c0,0,0,0,0.1,0.1c0.1,0,0.1,0,0.1,0
				c0,0-0.1,0.1-0.1,0.1l-0.5,0.4l0-0.7c0,0,0-0.1,0-0.1c0-0.1,0,0.1,0.2,0.1c0.1,0,0.1,0,0.1,0c0,0-0.1,0-0.1,0.1l-0.2,0.2
				c-0.1,0.1-0.2,0.1-0.4,0.2l-0.1,0l-0.1-0.1c-0.2-0.1-0.2-0.3-0.3-0.4c-0.1-0.1-0.1-0.2-0.1-0.3c-0.1-0.1,0,0,0,0
				c-0.1,0-0.2,0.1-0.2,0.2l-0.1,0.1l0,0c-0.3,0-0.6,0.2-0.9,0.3l0,0c-0.1,0-0.1,0.1-0.3,0c-0.1-0.1,0-0.2,0-0.2
				c0-0.1,0-0.2,0.1-0.3C136.6,217,136.7,216.9,136.8,216.7L136.8,216.7z"/>
		</g>
		<g>
			<path class="st8" d="M155.6,16.3c5.6-1.3,11.3-1.7,17.1-1.9c5.7-0.1,11.5,0.1,17.3,0.8c11.5,1.2,22.8,3.7,33.9,7.2
				c11,3.5,21.7,8.1,32,13.5c10.2,5.4,20,11.6,29.3,18.4l-0.6-0.3l7.2,3.7l2.4,1.2l-0.3,2.5c-0.1,1.1-0.2,1.9-0.4,2.9
				c-0.2,0.9-0.3,1.8-0.5,2.7c-0.4,1.8-0.8,3.6-1.3,5.3c-1,3.5-2.1,6.9-3.4,10.3c-2.7,6.7-6,13.2-10,19.1c-4,6-8.5,11.5-13.6,16.5
				c-2.5,2.5-5.2,4.8-8,7c-2.8,2.2-5.7,4.2-8.7,6c2.6-2.4,5.1-4.8,7.5-7.3c2.4-2.5,4.7-5.1,6.9-7.8c4.3-5.4,8.2-11.1,11.5-17.1
				c3.3-6,6-12.3,8.1-18.7c1.1-3.2,2-6.5,2.7-9.8c0.4-1.6,0.7-3.3,1-4.9c0.1-0.8,0.3-1.6,0.4-2.5c0.1-0.8,0.2-1.7,0.2-2.3l2.1,3.7
				l-7.3-3.5l-0.3-0.1l-0.3-0.2c-9.2-6.4-18.7-12.4-28.5-17.8c-9.8-5.4-20-10-30.5-14c-10.5-3.9-21.3-7.1-32.3-9.3
				c-5.5-1.1-11.1-2-16.7-2.5c-2.8-0.3-5.6-0.5-8.5-0.6C161.3,16.2,158.4,16.2,155.6,16.3z"/>
		</g>
	</g>
	<g>
		<path class="st0" d="M102.4,182.7c0,0-35.8,66.4,78.2-1c0,0,21.5-23.1-63.1,4.7"/>
		<path d="M102.5,182.7c-2.1,4.3-3.8,8.9-4.6,13.6c-0.4,2.4-0.6,4.8-0.2,7.1c0.4,2.3,1.5,4.5,3.4,5.9c1.9,1.4,4.2,1.9,6.6,2.1
			c2.4,0.2,4.8,0,7.1-0.4c4.7-0.8,9.4-2.1,13.9-3.6c9.1-3.1,17.9-7.3,26.5-11.7c8.5-4.5,16.9-9.3,25.2-14.3l-0.1,0.1
			c1-1.1,1.8-2.4,2.2-3.8c0.2-0.7,0.2-1.4-0.1-2c-0.3-0.6-0.8-1-1.4-1.4c-1.3-0.6-2.8-0.9-4.3-1c-1.5-0.1-3.1,0-4.6,0.1
			c-6.2,0.4-12.3,1.7-18.4,3.1c-6.1,1.4-12.1,3-18.1,4.7c-3,0.9-6,1.7-9,2.7c-3,0.9-6,1.8-9,2.7l0-0.1c2.9-1,5.9-2,8.9-3
			c3-1,5.9-1.9,8.9-2.8c6-1.8,12-3.6,18.1-5.1c6.1-1.4,12.2-2.7,18.5-3.2c1.6-0.1,3.2-0.1,4.7,0c1.6,0.1,3.2,0.3,4.7,1.1
			c0.7,0.4,1.5,1,1.9,1.8c0.4,0.8,0.4,1.8,0.2,2.6c-0.4,1.6-1.4,3-2.4,4.2l0,0l-0.1,0c-8.4,4.9-16.8,9.5-25.5,13.9
			c-8.6,4.4-17.4,8.5-26.4,12c-4.5,1.7-9.2,3.2-14,3.9c-2.4,0.4-4.9,0.6-7.3,0.4c-2.4-0.2-5-0.8-7-2.3c-2.1-1.5-3.3-4-3.6-6.4
			c-0.4-2.5-0.1-4.9,0.3-7.3C98.2,191.4,100.1,186.9,102.5,182.7L102.5,182.7z"/>
	</g>
	<g>
		<path class="st0" d="M200.6,178.2c0,0-9.6-8.6-13,1.5c-3.4,10.1-1.6,17.3,11.7,10.5c0,0,3.9-3.8,1.7-10.2L200.6,178.2z"/>
		<path d="M200.5,178.3c-1.4-1-2.9-1.9-4.5-2.4c-1.6-0.6-3.3-0.8-4.7-0.2c-1.5,0.6-2.5,2-3.2,3.5c-0.7,1.6-1.2,3.2-1.6,4.9
			c-0.3,1.7-0.5,3.4-0.1,5.1c0.2,0.8,0.5,1.6,1.1,2.2c0.5,0.6,1.2,1,2,1.1c1.6,0.3,3.3-0.1,4.9-0.6c1.6-0.5,3.2-1.2,4.7-2l-0.1,0.1
			c0.5-0.6,1-1.3,1.4-2.1c0.4-0.8,0.7-1.6,0.8-2.4c0.3-1.7,0.1-3.5-0.3-5.2l0,0l0,0L200.5,178.3z M200.6,178.2l0.5,1.9l0,0
			c0.7,1.7,1,3.6,0.8,5.5c-0.1,0.9-0.4,1.9-0.7,2.7c-0.4,0.9-0.9,1.7-1.6,2.4l0,0l-0.1,0c-1.5,0.8-3.2,1.5-4.9,2
			c-1.7,0.5-3.5,0.9-5.3,0.4c-0.9-0.2-1.8-0.7-2.3-1.5c-0.6-0.7-0.9-1.6-1-2.5c-0.3-1.8,0-3.5,0.3-5.2c0.3-1.7,0.7-3.4,1.3-5.1
			c0.3-0.8,0.7-1.7,1.3-2.4c0.6-0.7,1.3-1.3,2.2-1.7c1.8-0.7,3.7-0.3,5.3,0.4C197.9,175.9,199.4,177,200.6,178.2L200.6,178.2z"/>
	</g>
</g>
</svg>
