<?xml version="1.0" encoding="utf-8"?>
<!-- Generator: Adobe Illustrator 15.1.0, SVG Export Plug-In . SVG Version: 6.00 Build 0)  -->
<!DOCTYPE svg PUBLIC "-//W3C//DTD SVG 1.1//EN" "http://www.w3.org/Graphics/SVG/1.1/DTD/svg11.dtd">
<svg version="1.1" id="Rat" xmlns="http://www.w3.org/2000/svg" xmlns:xlink="http://www.w3.org/1999/xlink" x="0px" y="0px"
	 width="348px" height="432px" viewBox="0 0 348 432" style="enable-background:new 0 0 348 432;" xml:space="preserve">
<style type="text/css">
<![CDATA[
	.st0{fill:#7AD7EE;}
	.st1{fill:#FFFFFF;stroke:#000000;stroke-width:0.5;stroke-miterlimit:10;}
	.st2{opacity:0.18;}
	.st3{opacity:0.23;}
	.st4{opacity:0.25;}
	.st5{opacity:0.38;fill:url(#SVGID_3_);}
	.st6{opacity:0.38;fill:url(#SVGID_4_);}
	.st7{opacity:0.45;fill:#FDACBD;}
	.st8{opacity:0.24;fill:#F69D01;}
	.st9{fill:#FCC581;}
	.st10{fill:#C99C6B;}
	.st11{opacity:0.25;fill:#078D9E;}
	.st12{fill:#FFFFFF;}
	.st13{fill:none;stroke:#078D9E;stroke-miterlimit:10;}
	.st14{fill:#006283;}
	.st15{opacity:0.25;clip-path:url(#SVGID_2_);}
]]>
</style>
<g>
	<ellipse class="st3" cx="195.6" cy="398.6" rx="107.5" ry="27.2"/>
	<g>
		<path class="st0" d="M208.7,332.6c0,0,69.2,119.9,38.1,0.6"/>
		<path d="M208.7,332.6c5.5,8.8,11.1,17.5,16.9,26.2c2.9,4.3,5.7,8.6,8.9,12.8c1.6,2.1,3.2,4.1,5,6c1.7,1.9,3.6,3.8,5.6,5.4
			c1,0.8,2.1,1.6,3.2,2.1c1.1,0.5,2.4,0.9,3.4,0.5c1.1-0.4,1.7-1.6,2-2.7c0.4-1.2,0.5-2.5,0.6-3.7c0.1-2.6,0-5.1-0.3-7.7
			c-0.3-2.6-0.6-5.1-1-7.7c-1.7-10.2-4-20.3-6.3-30.5l0.1,0c2.9,10,5.5,20.1,7.2,30.3c0.8,5.1,1.5,10.3,1.2,15.6
			c-0.1,1.3-0.3,2.6-0.7,3.9c-0.2,0.6-0.5,1.3-0.9,1.9c-0.4,0.6-1,1.1-1.7,1.3c-1.5,0.5-2.9-0.1-4-0.7c-1.2-0.6-2.2-1.4-3.2-2.3
			c-3.9-3.5-7.2-7.5-10.4-11.6c-3.2-4.1-6.3-8.2-9.3-12.5c-3-4.3-5.8-8.7-8.5-13.1C213.7,341.7,211.1,337.2,208.7,332.6L208.7,332.6
			z"/>
	</g>
	<path class="st11" d="M242.5,372.2c4,0,8.1-1.6,11.7-3.8c-1-8.2-3.4-19.7-7.4-35.2l-38.1-0.6c0,0,37.2,64.4,44.8,51.8
		C248.9,381.7,245.1,377.9,242.5,372.2z"/>
	<g>
		<g>
			<path class="st0" d="M197.6,302.4c0,0,56.1,13.1,48.1-68.8c-8-81.9,35.1-94.5,71.3-72.6c16.7,10.1,22.5,22.2,22.5,22.2
				s-7.2,2.1-19.8-8.2c0,0-55.9-47.2-64.9,34.1c0,0,6.3,79.1-6.8,89.9c-13.1,10.8-51.8,31.3-64.3,9.7L197.6,302.4z"/>
			<g>
				<path d="M197.6,302.3c5.5,1,11.2,0.9,16.6-0.1c5.5-1.1,10.7-3.4,15.1-6.8c4.4-3.4,7.8-8,10.3-12.9c2.5-5,4-10.4,5-15.9
					c1.9-11,1.7-22.3,0.6-33.4c-0.6-5.6-0.9-11.2-0.9-16.8c0-5.6,0.2-11.2,0.8-16.8c0.6-5.6,1.7-11.1,3.3-16.5
					c1.6-5.4,3.9-10.6,7.1-15.3c3.1-4.7,7.2-8.8,12.1-11.6c4.9-2.9,10.4-4.5,16-4.8c5.6-0.3,11.3,0.4,16.7,2
					c5.4,1.5,10.6,3.8,15.4,6.6c4.9,2.8,9.4,6.1,13.5,10c2,1.9,4,4,5.7,6.2c1.8,2.2,3.4,4.5,4.7,7l0.1,0.3l-0.3,0.1
					c-1.3,0.3-2.6,0.2-3.9,0c-1.3-0.2-2.5-0.5-3.7-0.9c-2.4-0.8-4.7-2-6.9-3.3c-2.2-1.3-4.2-2.9-6.2-4.5c-2-1.6-4.1-3-6.2-4.3
					c-4.3-2.7-8.8-5-13.6-6.6c-4.8-1.6-9.8-2.5-14.8-2c-5,0.5-9.7,2.6-13.4,5.9c-3.7,3.3-6.5,7.6-8.6,12.2
					c-2.1,4.6-3.6,9.4-4.7,14.3c-1.1,4.9-1.9,9.9-2.5,14.9v-0.1c1,13.6,1.6,27.3,1.5,41c0,6.8-0.2,13.7-0.7,20.5
					c-0.5,6.8-1.3,13.7-3.2,20.3c-0.5,1.6-1.1,3.3-1.9,4.8c-0.8,1.5-1.8,3.1-3.3,4.1c-2.7,2.1-5.5,4.1-8.5,5.8
					c-5.8,3.6-12,6.6-18.4,9c-6.4,2.3-13.2,4.1-20.1,3.8c-3.4-0.1-6.9-0.9-9.9-2.5c-3.1-1.6-5.6-4.2-7.3-7.2l-0.1-0.1l0.1-0.1
					L197.6,302.3L197.6,302.3z M197.6,302.4l-13.9,6.4l0.1-0.2c1.7,2.9,4.2,5.4,7.2,6.9c3,1.6,6.4,2.3,9.8,2.4
					c6.8,0.2,13.5-1.6,19.9-3.9c6.4-2.4,12.5-5.5,18.2-9.1c2.9-1.8,5.7-3.7,8.3-5.8c1.3-1,2.3-2.3,3-3.8c0.8-1.5,1.3-3.1,1.8-4.7
					c0.9-3.2,1.5-6.6,2-10c0.5-3.4,0.8-6.8,1.1-10.1c0.5-6.8,0.7-13.6,0.7-20.4c0-13.6-0.5-27.3-1.5-40.9l0,0l0,0
					c0.6-5,1.4-10.1,2.5-15c1.2-4.9,2.7-9.8,4.8-14.5c2.1-4.6,5-9,8.9-12.4c3.8-3.4,8.8-5.6,13.9-6c5.1-0.5,10.3,0.5,15.1,2.1
					c4.8,1.7,9.4,4,13.7,6.7c2.1,1.4,4.2,2.8,6.2,4.4c1.9,1.6,4,3.1,6.1,4.5c2.1,1.3,4.4,2.5,6.8,3.3c1.2,0.4,2.4,0.7,3.6,0.9
					c1.2,0.2,2.5,0.2,3.7,0l-0.1,0.3c-1.3-2.5-2.9-4.7-4.6-6.9c-1.8-2.2-3.7-4.2-5.7-6.1c-4.1-3.8-8.6-7.1-13.4-9.9
					c-4.8-2.8-10-5.1-15.3-6.7c-5.3-1.6-11-2.4-16.5-2c-5.6,0.4-11,2-15.8,4.8c-4.8,2.9-8.8,6.9-11.8,11.5
					c-3.1,4.6-5.3,9.8-6.9,15.2c-1.6,5.3-2.6,10.9-3.2,16.4c-1.2,11.1-0.8,22.3,0.2,33.4c1,11.1,1.3,22.5-0.8,33.6
					c-1,5.5-2.6,11-5.2,16c-2.5,5-6.1,9.6-10.5,13.1c-4.5,3.5-9.8,5.7-15.3,6.7C208.8,303.5,203.1,303.5,197.6,302.4z"/>
			</g>
		</g>
		<path class="st11" d="M202.5,309.8c0,0,0-3.9,0-6.8c-3-0.2-4.9-0.7-4.9-0.7l-13.9,6.3c12.5,21.6,51.2,1.1,64.3-9.7
			c8.9-7.4,8.8-46.6,7.8-70.8C252.1,268.1,250.7,315.4,202.5,309.8z"/>
		<g>
			<defs>
				<path id="SVGID_1_" d="M197.6,302.4c0,0,56.1,13.1,48.1-68.8c-8-81.9,35.1-94.5,71.3-72.6c16.7,10.1,22.5,22.2,22.5,22.2
					s-7.2,2.1-19.8-8.2c0,0-55.9-47.2-64.9,34.1c0,0,6.3,79.1-6.8,89.9c-13.1,10.8-51.8,31.3-64.3,9.7L197.6,302.4z"/>
			</defs>
			<clipPath id="SVGID_2_">
				<use xlink:href="#SVGID_1_"  style="overflow:visible;"/>
			</clipPath>
			<g class="st15">
				<g>
					<path class="st13" d="M201.3,300.3c0,0-7.7,9.7-1.9,21.1"/>
					<path class="st13" d="M208.9,300.3c0,0-7.7,9.7-1.9,21.1"/>
					<path class="st13" d="M214.8,300.1c0,0-5.7,11,2.3,21"/>
					<path class="st13" d="M220.5,297.5c0,0-3.1,12,6.9,20"/>
					<path class="st13" d="M237,279.5c0,0,6.6,10.4,19.3,8.6"/>
					<path class="st13" d="M237.5,270.9c0,0,8.7,8.8,20.7,4.3"/>
					<path class="st13" d="M238.8,260.4c0,0,8.7,8.8,20.7,4.3"/>
					<path class="st13" d="M240.2,249.9c0,0,8.7,8.8,20.7,4.3"/>
					<path class="st13" d="M241.5,239.3c0,0,8.7,8.8,20.7,4.3"/>
					<path class="st13" d="M240.2,228.8c0,0,8.7,8.8,20.7,4.3"/>
					<path class="st13" d="M241.5,216.6c0,0,8.7,8.8,20.7,4.3"/>
					<path class="st13" d="M241.5,203.8c0,0,8.7,8.8,20.7,4.3"/>
					<path class="st13" d="M242,193c0,0,7.4,9.9,19.9,7.1"/>
					<path class="st13" d="M244.8,183.2c0,0,7.4,9.9,19.9,7.1"/>
					<path class="st13" d="M247.4,172.1c0,0,6.2,10.7,19,9.3"/>
					<path class="st13" d="M253.8,161.6c0,0,3.9,11.7,16.7,13"/>
					<path class="st13" d="M263.8,153.5c0,0,1.3,12.3,13.5,16.3"/>
					<path class="st13" d="M275.9,147.7c0,0-2.4,12.1,8,19.6"/>
					<path class="st13" d="M289,144.5c0,0-5.5,11.1,2.6,21"/>
					<path class="st13" d="M302.4,147.3c0,0-8.9,8.6-4.6,20.6"/>
					<path class="st13" d="M313.5,152.7c0,0-11,5.6-10.5,18.4"/>
					<path class="st13" d="M324.4,158.8c0,0-11.7,3.9-13,16.6"/>
					<path class="st13" d="M332.4,164.4c0,0-11.7,3.9-13,16.6"/>
					<path class="st13" d="M338.9,171.3c0,0-11.7,3.9-13,16.6"/>
					<path class="st13" d="M225.2,295.5c0,0-0.9,9.5,13.7,12"/>
					<path class="st13" d="M232.8,290.5c0,0,0.5,9.5,15.2,9.9"/>
				</g>
			</g>
		</g>
	</g>
	<g>
		<path class="st9" d="M254.8,181.5c-1.9-11.8-2.6-11-2.7-16.5c-0.8-36.1-35.2-53.1-77.7-53.1c-42.5,0-72.7,8.5-76.2,50.8
			c-0.6,6.7,2.8,13.6,2.7,19.6c-0.1,6-2.7,10.3-2.7,15.3c0,17,18.9,27,80.6,27c61.8,0,78.7-10,78.7-27
			C257.6,191.3,256.7,193.3,254.8,181.5z"/>
		<g>
			<path d="M254.8,181.5c-0.4-2.4-0.8-4.7-1.3-7.1c-0.4-2.4-1.1-4.7-1.3-7.1c-0.1-1.2-0.1-2.4-0.2-3.6c-0.1-1.2-0.1-2.4-0.3-3.6
				c-0.3-2.4-0.7-4.7-1.3-7c-1.2-4.6-3.2-9-5.8-13c-2.6-4-5.9-7.5-9.6-10.5c-7.4-6.1-16.3-10.1-25.5-12.7c-9.2-2.6-18.7-4-28.3-4.5
				c-4.8-0.2-9.6-0.2-14.4-0.1c-4.8,0.1-9.6,0.4-14.3,0.9c-9.5,1-19,2.8-27.7,6.9c-4.3,2-8.4,4.6-11.9,8c-3.5,3.3-6.3,7.2-8.5,11.5
				c-2.2,4.3-3.6,8.9-4.6,13.5c-0.5,2.3-0.8,4.7-1.1,7.1c-0.1,1.2-0.3,2.4-0.3,3.6c0,1.2,0.1,2.4,0.2,3.5c0.6,4.7,2.4,9.3,2.6,14.2
				c0.1,2.4-0.3,4.9-0.9,7.2c-0.6,2.3-1.3,4.6-1.6,7c-0.3,2.3-0.1,4.7,0.5,7c0.6,2.3,1.7,4.4,3.2,6.2c3,3.6,7.3,6,11.7,7.8
				c4.4,1.8,9.1,3,13.7,3.9c4.7,0.9,9.4,1.6,14.2,2.1c9.5,1,19.1,1.4,28.7,1.5c9.6,0.1,19.2,0,28.7-0.4c9.6-0.4,19.1-1.1,28.6-2.9
				c4.7-0.9,9.4-2,13.8-3.8c4.4-1.8,8.7-4.2,11.7-7.9c1.5-1.8,2.6-4,3.2-6.3c0.6-2.3,0.7-4.7,0.6-7.1c0-2.4-0.9-4.7-1.3-7
				C255.5,186.2,255.1,183.9,254.8,181.5z M254.9,181.5c0.4,2.4,0.8,4.7,1.3,7.1c0.5,2.3,1.4,4.6,1.4,7.1c0.1,2.4,0.1,4.8-0.5,7.2
				c-0.6,2.3-1.7,4.6-3.2,6.5c-3,3.8-7.4,6.3-11.8,8.1c-4.5,1.8-9.2,3-13.9,4c-9.4,1.9-19,2.7-28.6,3.2c-9.6,0.5-19.2,0.5-28.8,0.4
				c-9.6-0.2-19.2-0.6-28.8-1.6c-4.8-0.5-9.5-1.2-14.3-2.1c-4.7-1-9.4-2.2-13.9-4c-4.4-1.8-8.9-4.3-12-8.1c-1.6-1.9-2.7-4.1-3.3-6.5
				c-0.6-2.4-0.8-4.9-0.5-7.3c0.3-2.4,1.1-4.7,1.7-7c0.6-2.3,1-4.7,0.9-7c-0.2-4.7-1.9-9.3-2.5-14.1c-0.1-1.2-0.2-2.4-0.2-3.6
				c0-1.2,0.2-2.4,0.3-3.6c0.3-2.4,0.7-4.8,1.2-7.1c1-4.7,2.5-9.3,4.7-13.6c2.2-4.3,5.1-8.2,8.6-11.5c3.5-3.3,7.6-6,11.9-8.1
				c8.7-4.2,18.3-6,27.8-7.1c4.8-0.5,9.6-0.8,14.4-0.9c4.8-0.1,9.6-0.2,14.4,0c9.6,0.4,19.2,1.7,28.5,4.4c9.2,2.7,18.2,6.9,25.6,13
				c3.7,3.1,7,6.7,9.6,10.8c2.6,4.1,4.5,8.5,5.7,13.2c0.6,2.3,1,4.7,1.3,7.1c0.1,1.2,0.2,2.4,0.3,3.6c0,1.2,0,2.4,0.1,3.6
				c0.2,2.4,0.9,4.7,1.3,7.1C254.1,176.7,254.5,179.1,254.9,181.5z"/>
		</g>
	</g>
	<path class="st8" d="M258.5,195.6c-0.9-1.8-2.1-4.2-3.1-10.2c-1.8-11.8-2.6-11-2.7-16.5c-0.1-4.6-0.8-9-1.9-13
		c-2.8-13.8-11.2-24.1-23.2-31.3c0.5,1.3,1.1,2.7,1.6,4.1c-14-8.6-33.1-12.8-54.2-12.8c-24.2,0-44.4,2.8-58,12.9
		c-5.4,4.1-9.8,9.4-12.9,16.1c0.3-2.6,0.7-5.1,1.2-7.7c-4,6.7-6.5,15.2-7.4,25.8c-0.6,6.7,2.8,13.6,2.7,19.6
		c-0.1,6-2.7,10.2-2.7,15.3c0,11.8,9.2,20.2,35.5,24.3c-10.3-3.8-18.4-9.7-22-19.5c-4.7-12.1-7.8-26.6-8.1-41.8
		c0.1-2.8,0.5-5.5,1.6-8.1c-1.5,4.5,1.5,7.5,1.5,12.1c1.4-12.5,7.9-21.1,13.6-31.8c10.7,13.8,29.8,18.7,46.6,21.3
		c-3-4.5-6-9-10.5-12c10.5,6,25.6,6,34.6,16.6c3-3,0-7.5,1.5-10.5c9,19.6,28.6,12,43.7,16.6c-1.5-6-7.5-7.5-12-10.5
		c14.4,2.5,19.3,12.8,24,23.4c1.4,9.2,0.6,18.1-4.3,26.8c-4.6,10-14.7,14.6-25.9,18.4c30.1-3.7,39.5-12.4,39.5-25
		c0-1.8-0.1-2.9-0.2-3.8C257.6,194.5,258,195.1,258.5,195.6z"/>
	<path d="M258.5,192c-0.9-1.8-2.1-4.2-3.1-10.3c-1.8-11.8-2.6-11-2.7-16.5c-0.8-36.1-35.2-53.1-77.7-53.1c-24.2,0-44.4,2.8-58,12.9
		c-10.2,7.7-16.7,19.6-18.2,37.8c-0.4,5,1.4,10.1,2.2,14.9c4.8-8.7,0-19.7,3.8-28.6c-1.5,4.5,1.5,7.5,1.5,12.1
		c1.4-12.5,7.9-21.1,13.6-31.8c10.7,13.8,29.8,18.7,46.6,21.3c-3-4.5-6-9-10.5-12c10.5,6,25.6,6,34.6,16.6c3-3,0-7.5,1.5-10.5
		c9,19.6,28.6,12,43.7,16.6c-1.5-6-7.5-7.5-12-10.5C247.1,154.7,245.6,178.5,258.5,192z"/>
	<path d="M224.4,176.4c0.3,1-3.8,3.3-9.2,5c-5.4,1.7-10.1,2.3-10.4,1.3c-0.3-1,3.8-3.3,9.2-5C219.4,176,224.1,175.4,224.4,176.4z"/>
	<path d="M117.1,176.4c-0.3,1,3.8,3.3,9.2,5c5.4,1.7,10.1,2.3,10.4,1.3c0.3-1-3.8-3.3-9.2-5C122.1,176,117.4,175.4,117.1,176.4z"/>
	<path class="st7" d="M244.6,193.6c0,3.3-7.2,5.9-16,5.9c-8.8,0-16-2.7-16-5.9c0-3.3,7.2-6,16-6
		C237.4,187.7,244.6,190.3,244.6,193.6z"/>
	<path class="st12" d="M244.6,189.6c0,1.1-2.3,2-5.3,2c-2.9,0-5.3-0.9-5.3-2c0-1.1,2.4-2,5.3-2C242.2,187.7,244.6,188.5,244.6,189.6
		z"/>
	<path class="st7" d="M134.6,193.5c0,2-5.7,3.6-12.8,3.6c-7.1,0-12.8-1.6-12.8-3.6c0-2,5.7-3.6,12.8-3.6
		C128.9,189.9,134.6,191.5,134.6,193.5z"/>
	<g>
		<path class="st12" d="M149,108c0,0,0,30.4,12.3,29.3c2.2-0.2,4.3,0.8,6.3,1.1c-0.2-10.6-0.2-22.4,0.7-33
			C160.9,103.9,153.4,104,149,108z"/>
		<path d="M149.1,108c0.2,3.4,0.5,6.8,1,10.2c0.5,3.4,1.2,6.7,2.2,9.9c0.5,1.6,1.2,3.2,2,4.6c0.8,1.4,1.9,2.8,3.3,3.6
			c0.7,0.4,1.5,0.7,2.3,0.8c0.8,0.1,1.7-0.1,2.6,0c1.7,0.2,3.3,0.9,5,1.1l-0.2,0.2c-0.1-5.5-0.4-11-0.4-16.5c0-2.8,0.1-5.5,0.2-8.3
			c0.1-2.8,0.3-5.5,0.6-8.3l0.4,0.5c-3.3-0.6-6.6-1.1-9.9-0.9c-1.6,0.1-3.3,0.3-4.9,0.8C151.9,106.2,150.4,107,149.1,108z M149,108
			c1.2-1.2,2.7-2.1,4.3-2.7c1.6-0.6,3.3-0.9,5-1.1c1.7-0.2,3.4-0.1,5.1,0c1.7,0.1,3.4,0.3,5,0.7l0.4,0.1l0,0.5
			c-0.2,2.7-0.4,5.5-0.5,8.2c-0.1,2.7-0.2,5.5-0.3,8.2c-0.1,5.5-0.3,11-0.2,16.5l0,0.2l-0.2,0c-1.7-0.3-3.3-1-5-1.1
			c-0.8-0.1-1.7,0.1-2.6,0c-0.9-0.1-1.8-0.3-2.5-0.7c-1.6-0.8-2.8-2.2-3.8-3.7c-1-1.5-1.6-3.1-2.2-4.7c-1.1-3.3-1.7-6.7-2.1-10.1
			C149.1,114.9,148.9,111.4,149,108L149,108L149,108z"/>
	</g>
	<g>
		<path class="st12" d="M190.4,112.9c0,0-11-5.4-22.1-7.6c-0.9,10.7-0.9,22.4-0.7,33c6.8,1,12,1.1,12,1.1S188.5,141.4,190.4,112.9z"
			/>
		<path d="M190.3,113c-3.6-1.5-7.2-2.9-10.9-4.1c-1.8-0.6-3.7-1.2-5.6-1.7c-1.9-0.5-3.8-1-5.7-1.4l0.5-0.4c-0.2,2.7-0.5,5.5-0.7,8.2
			c-0.2,2.7-0.3,5.5-0.3,8.3c0,2.8,0,5.5,0.1,8.3l0.3,8.3l-0.3-0.4c4,0.5,8,0.9,12,0.9h0l0.1,0c0.4,0.1,1-0.1,1.5-0.3
			c0.5-0.2,1-0.5,1.5-0.9c0.9-0.8,1.6-1.8,2.3-2.8c1.2-2.2,2.1-4.5,2.8-7c0.7-2.4,1.2-4.9,1.6-7.4C189.7,118,190.1,115.5,190.3,113z
			 M190.4,112.9c-0.2,5.1-0.6,10.2-1.8,15.2c-0.6,2.5-1.4,5-2.7,7.3c-0.7,1.1-1.4,2.2-2.5,3.1c-0.5,0.4-1.1,0.8-1.7,1.1
			c-0.7,0.3-1.3,0.5-2.2,0.3l0.1,0c-2-0.1-4-0.2-6.1-0.4c-2-0.2-4-0.4-6-0.8l-0.3-0.1l0-0.3c0-2.8,0-5.5,0-8.3l0.1-8.3l0.1-8.3
			c0.1-2.8,0.1-5.5,0.4-8.3l0-0.5l0.5,0.1c3.9,0.7,7.6,1.9,11.3,3.2C183.4,109.5,187,111.1,190.4,112.9L190.4,112.9L190.4,112.9z"/>
	</g>
	<path class="st2" d="M168.3,105.4c-7.4-1.4-14.9-1.4-19.2,2.6c0,0,0,8.8,1.9,16.7c5,0,9.9-0.3,14.9-3.6c-1.1,5.5-1.5,11-1.7,16.5
		c1.2,0.3,2.3,0.7,3.4,0.8C167.4,127.8,167.4,116.1,168.3,105.4z"/>
	<path class="st2" d="M168.3,105.4c-0.4,4.3-0.6,8.8-0.7,13.2c5.2,3.2,11.7,6.1,18.2,6.1c1.4,12.6-8,12.2-16.6,13.9
		c6,0.8,10.4,0.8,10.4,0.8s8.9,1.9,10.8-26.5C190.4,112.9,179.4,107.5,168.3,105.4z"/>
	<path class="st12" d="M116.8,190.5c0,0.9-2.5,1.6-5.6,1.6c-3.1,0-5.6-0.7-5.6-1.6c0-0.9,2.5-1.6,5.6-1.6
		C114.3,188.9,116.8,189.6,116.8,190.5z"/>
	<g>
		<g>
			<path class="st0" d="M317.6,63.8c0-31.3-25.4-56.7-56.7-56.7c-29.2,0-53.3,22.1-56.4,50.6c-8.1-1.4-16.7-2.2-25.7-2.2
				c-19.5,0-36.8,3.6-51.5,9.8c-6.4-25-29.1-43.5-56.1-43.5c-32,0-57.9,25.9-57.9,57.9c0,32,25.9,57.9,57.9,57.9c0.1,0,0.1,0,0.2,0
				c-0.5,6.3-0.1,12.7,1,19.1c8,45.1,23.5,67.2,73.1,73.1c0,0,0,0,0,0c0,0-20,43.8-28.3,85.4c-4.1,20.9,1.4,32.2,13.8,38.4
				c0.2,32.9,3.9,121.5,43.7,7.5c3.5,0.1,7.1,0.2,10.7,0.3c11.6,0.2,23.6-0.2,34.9-1.7c3.6,6.1,10.6,10.2,18.5,10.2
				c11.7,0,21.3-9,21.3-20c0-1.2-0.1-2.4-0.3-3.5c11.2-8.3,16.4-20.7,10.8-38.9c-11.7-37.6-35.7-70.3-43.5-80.4
				c39-8.7,52.1-30.8,58.5-71c2.2-13.6,0.8-27.1-3.7-39.6C302.7,108.3,317.6,87.8,317.6,63.8z M178.6,224.1
				c-60.9,0-79.6-9.9-79.6-26.6c0-5,2.6-9.2,2.7-15.1c0.1-6-3.3-12.8-2.7-19.4c2.2-26,14.6-39.1,33.8-45.2c3.9,2.7,9.4,4.3,15.4,4.3
				c8.3,0,15.5-3.1,19-7.7c4.2,4.6,12,7.7,21.1,7.7c7.4,0,14-2.1,18.4-5.3c25.7,6.8,43.7,22.7,44.2,48.5c0.1,5.5,0.8,4.7,2.7,16.3
				c1.8,11.6,2.7,9.7,2.7,15.9C256.4,214.2,239.6,224.1,178.6,224.1z"/>
		</g>
		<g>
			<path d="M317.6,63.8c0-7.2-1.4-14.3-4-21c-2.7-6.6-6.6-12.8-11.5-18c-4.9-5.2-10.8-9.4-17.3-12.4c-6.5-3-13.6-4.7-20.7-5.1
				c-7.1-0.4-14.3,0.6-21.1,2.9c-6.8,2.3-13.1,5.9-18.5,10.5c-5.4,4.6-10,10.3-13.3,16.6c-3.3,6.3-5.5,13.2-6.2,20.3l0,0.3l-0.3-0.1
				c-12.9-2.2-26.1-2.7-39.1-1.5c-13,1.2-25.9,4.2-37.9,9.3l-0.4,0.2l-0.1-0.5c-2.7-10.4-8.3-19.9-16.1-27.3
				c-7.7-7.4-17.6-12.6-28-14.7c-10.5-2.2-21.6-1.3-31.6,2.4c-10.1,3.7-19,10.3-25.6,18.8C19,53,14.8,63.4,13.8,74
				c-1.1,10.7,0.9,21.6,5.6,31.3c4.7,9.6,12.2,17.9,21.3,23.5c9.1,5.7,19.8,8.7,30.6,8.7h0.2l0,0.2c-0.4,5.5-0.2,11.1,0.6,16.5
				c0.9,5.5,2,10.9,3.3,16.3c2.7,10.7,6.4,21.4,12.6,30.5c3.1,4.6,6.9,8.7,11.2,12.2c4.3,3.5,9.1,6.3,14.2,8.5
				c10.2,4.4,21.1,6.6,32.1,7.9l0.3,0l-0.2,0.4l-1.6,3.8l-1.6,3.9c-1.1,2.6-2.1,5.2-3.2,7.8c-2.1,5.2-4.1,10.4-6,15.7
				c-3.8,10.5-7.3,21.2-10.3,32c-1.5,5.4-2.9,10.8-4.1,16.3c-1.2,5.5-2.4,11-2.5,16.5c-0.2,5.5,0.5,11.2,3.1,16.2
				c1.3,2.5,3,4.7,5,6.5c2,1.9,4.4,3.4,6.9,4.6l0.2,0.1l0,0.2c0.1,11.1,0.5,22.3,1.6,33.3c0.6,5.5,1.3,11,2.5,16.4
				c0.6,2.7,1.4,5.4,2.5,7.9c0.5,1.3,1.2,2.5,2,3.5c0.8,1,1.9,1.9,3.1,2.2c1.2,0.3,2.5-0.1,3.6-0.8c1.1-0.7,2.1-1.6,3.1-2.6
				c1.8-2,3.4-4.3,4.9-6.7c2.9-4.7,5.3-9.7,7.6-14.8c4.5-10.2,8.4-20.6,12.1-31.1l0.1-0.3l0.3,0c7.6,0.2,15.2,0.5,22.8,0.3
				c7.6-0.2,15.2-0.7,22.7-1.7l0.3,0l0.2,0.3c2.4,4.1,6.3,7.2,10.8,8.8c4.5,1.6,9.5,1.7,14,0.2c4.5-1.4,8.5-4.4,11.1-8.4
				c2.6-4,3.6-8.9,2.7-13.6l-0.1-0.3l0.2-0.2c4.5-3.3,8.3-7.6,10.5-12.7c2.2-5.1,2.8-10.8,2.1-16.3c-0.6-5.6-2.5-10.9-4.3-16.2
				c-1.9-5.3-4-10.5-6.3-15.7c-4.6-10.3-9.9-20.2-15.7-29.9c-5.8-9.6-12.2-19-19-27.9l-0.4-0.5l0.6-0.1c5.7-1.3,11.3-2.9,16.6-5.1
				c5.4-2.2,10.5-5.1,15-8.6c4.6-3.6,8.5-7.9,11.8-12.7c3.3-4.8,5.8-10.1,7.8-15.5c2-5.4,3.6-11.1,4.8-16.8c0.6-2.8,1.2-5.7,1.7-8.6
				c0.5-2.9,1-5.7,1.2-8.6c1.1-11.6-0.4-23.4-4.3-34.3l0-0.1l0.1-0.1c10.5-4.1,19.7-11.5,26.1-20.8c3.2-4.7,5.7-9.8,7.3-15.2
				C316.7,75.1,317.6,69.5,317.6,63.8z M317.7,63.8c0,5.7-0.8,11.3-2.5,16.7c-1.7,5.4-4.1,10.6-7.3,15.2
				c-6.4,9.4-15.6,16.8-26.1,20.9l0.1-0.2c4,11,5.6,22.8,4.5,34.5c-0.3,2.9-0.7,5.8-1.2,8.7c-0.5,2.9-1,5.7-1.7,8.6
				c-1.2,5.7-2.8,11.3-4.8,16.8c-2,5.5-4.6,10.8-7.8,15.7c-3.3,4.9-7.3,9.2-11.9,12.9c-4.6,3.6-9.8,6.5-15.2,8.8
				c-5.4,2.3-11,3.9-16.7,5.2l0.2-0.6c6.9,8.9,13.3,18.2,19.2,27.9c5.9,9.6,11.2,19.6,15.9,29.9c2.3,5.2,4.4,10.4,6.3,15.7
				c0.9,2.7,1.8,5.3,2.6,8.1c0.8,2.7,1.4,5.5,1.7,8.4c0.7,5.6,0.1,11.6-2.2,16.8c-2.3,5.3-6.2,9.7-10.8,13.1l0.2-0.5
				c1,4.9-0.1,10.1-2.8,14.3c-2.7,4.2-6.9,7.3-11.6,8.8c-4.7,1.5-9.9,1.4-14.6-0.2c-4.7-1.6-8.8-4.9-11.3-9.2l0.5,0.2
				c-7.6,1-15.2,1.5-22.8,1.7c-7.6,0.2-15.3,0-22.9-0.3l0.5-0.3c-3.7,10.5-7.6,21-12.1,31.2c-2.3,5.1-4.7,10.1-7.6,14.9
				c-1.5,2.4-3,4.7-5,6.8c-1,1-2,2-3.3,2.8c-1.2,0.8-2.8,1.3-4.3,0.9c-1.5-0.3-2.7-1.4-3.6-2.5c-0.9-1.1-1.6-2.4-2.1-3.7
				c-1.1-2.6-1.9-5.3-2.5-8c-1.2-5.5-2-11-2.5-16.6c-1.1-11.1-1.4-22.3-1.5-33.4l0.2,0.4c-2.5-1.3-4.9-2.8-7-4.8
				c-2.1-1.9-3.9-4.2-5.2-6.8c-2.6-5.1-3.3-10.9-3.1-16.5c0.2-5.7,1.4-11.2,2.6-16.7c1.2-5.5,2.6-10.9,4.1-16.3
				c3-10.8,6.6-21.5,10.4-32c1.9-5.3,3.9-10.5,6-15.7c1-2.6,2.1-5.2,3.2-7.8l1.7-3.9l0.8-1.9l0.4-1l0.2-0.5l0.1-0.2l0.1-0.1l0-0.1
				l0,0c0,0,0,0,0.1-0.1l0.1,0.4c-11-1.3-22-3.6-32.2-8c-5.1-2.2-9.9-5.1-14.3-8.6c-4.3-3.5-8.1-7.7-11.2-12.3
				c-6.3-9.2-9.9-19.9-12.6-30.6c-1.3-5.4-2.4-10.8-3.3-16.3c-0.8-5.5-1-11.1-0.6-16.6l0.2,0.2c-10.8,0.1-21.6-3-30.8-8.7
				c-9.2-5.7-16.8-14-21.6-23.7c-4.8-9.7-6.8-20.8-5.7-31.5c1-10.8,5.2-21.3,11.8-29.8c6.6-8.6,15.7-15.3,25.8-19.1
				c10.2-3.8,21.4-4.6,32-2.5c10.6,2.1,20.6,7.4,28.5,14.9c7.9,7.5,13.6,17.2,16.3,27.7l-0.6-0.3c12.1-5.1,25.1-8.1,38.2-9.2
				c6.5-0.6,13.1-0.7,19.7-0.4c6.6,0.3,13.1,1,19.6,2.1l-0.3,0.3c0.8-7.2,2.9-14.2,6.3-20.5c3.4-6.4,8-12.1,13.5-16.7
				c5.5-4.7,11.9-8.3,18.7-10.5c6.8-2.3,14.1-3.2,21.3-2.8c7.2,0.4,14.3,2.2,20.8,5.2c6.5,3,12.4,7.3,17.4,12.5
				c4.9,5.2,8.9,11.4,11.5,18.1C316.3,49.5,317.7,56.7,317.7,63.8z"/>
			<path d="M178.6,224.1c-7.8,0-15.6-0.1-23.3-0.5c-7.8-0.4-15.5-1-23.2-2.3c-3.8-0.6-7.7-1.4-11.4-2.5c-3.8-1.1-7.5-2.4-10.9-4.3
				c-3.4-1.9-6.6-4.4-8.7-7.9c-2.1-3.4-2.8-7.6-2.3-11.5c0.3-2,0.9-3.9,1.4-5.7c0.5-1.9,1-3.7,1.1-5.6c0.4-3.8-0.7-7.6-1.5-11.4
				c-0.4-1.9-0.8-3.8-1-5.8c-0.1-1-0.1-2-0.1-3c0-1,0.2-1.9,0.3-2.9c0.4-3.9,1.1-7.7,2.2-11.5c2.1-7.5,5.9-14.7,11.5-20.2
				c2.8-2.7,6-5.1,9.4-7c3.4-1.9,7-3.4,10.8-4.6l0.1,0l0.1,0c2.6,1.7,5.5,2.9,8.5,3.5c3,0.7,6.2,0.9,9.3,0.6c3.1-0.2,6.2-0.9,9-2.1
				c2.8-1.2,5.5-3,7.4-5.4l0.2-0.2l0.2,0.2c2.4,2.6,5.5,4.3,8.8,5.5c3.3,1.2,6.8,1.8,10.3,1.9c3.5,0.1,7-0.2,10.5-1
				c3.4-0.8,6.7-2.2,9.5-4.3l0.2-0.1l0.2,0c7.8,2,15.5,5.1,22.3,9.5c6.8,4.4,12.8,10.3,16.7,17.5c2,3.6,3.4,7.4,4.3,11.4
				c0.9,4,1.3,8.1,1.4,12.1c0.1,2,0.5,3.9,1,5.9c0.4,2,0.8,4,1.1,6c0.7,4,1.2,8,2.2,11.8c0.2,1,0.5,1.9,0.7,3c0.2,1,0.2,2.1,0.2,3.1
				c0,2-0.1,4.1-0.6,6.1c-0.5,2-1.4,3.9-2.5,5.6c-1.2,1.7-2.7,3.2-4.3,4.4c-3.3,2.5-7,4.2-10.9,5.5c-3.8,1.3-7.8,2.2-11.8,2.9
				c-8,1.4-16,2.2-24,2.6C194.7,224.1,186.7,224.2,178.6,224.1z M178.6,224c8.1,0,16.1-0.2,24.2-0.7c8-0.5,16.1-1.3,24-2.8
				c3.9-0.8,7.9-1.7,11.6-3.1c3.8-1.3,7.5-3,10.6-5.5c3.1-2.4,5.5-5.8,6.4-9.6c0.5-1.9,0.6-3.9,0.5-5.9c0-1-0.1-2-0.2-2.9
				c-0.2-1-0.4-1.9-0.7-2.9c-1-3.9-1.6-8-2.3-11.9c-0.3-2-0.7-4-1.1-5.9c-0.4-1.9-0.9-4-1-6c-0.1-2.1-0.1-4-0.3-6
				c-0.2-2-0.5-4-1-5.9c-0.9-3.9-2.3-7.7-4.2-11.1c-3.8-7-9.6-12.8-16.4-17.1c-6.7-4.3-14.3-7.3-22-9.4l0.3-0.1
				c-2.9,2.1-6.3,3.5-9.8,4.3c-3.5,0.8-7.1,1.1-10.7,1c-3.6-0.2-7.1-0.8-10.5-2.1c-3.3-1.2-6.6-3.1-9-5.7l0.4,0
				c-2,2.5-4.7,4.3-7.6,5.5c-2.9,1.2-6,1.9-9.2,2.1c-3.1,0.2-6.3,0-9.4-0.7c-3.1-0.7-6-1.9-8.6-3.6l0.1,0
				c-7.4,2.3-14.4,6.1-19.9,11.6c-5.5,5.5-9.2,12.6-11.2,20c-1,3.7-1.7,7.6-2.1,11.4c-0.1,1-0.2,1.9-0.2,2.9c0,1,0,1.9,0.1,2.9
				c0.2,1.9,0.6,3.8,1,5.7c0.8,3.8,2,7.6,1.6,11.6c-0.3,4-1.9,7.7-2.4,11.4c-0.5,3.7,0.1,7.7,2.1,11c1.9,3.3,5,5.8,8.3,7.7
				c3.4,1.9,7,3.2,10.7,4.3c3.7,1.1,7.5,1.9,11.3,2.6C147.4,223.5,163.1,224,178.6,224z"/>
		</g>
	</g>
	<path class="st11" d="M138.9,410.3c-0.6,0.4-1.1,0.5-1.7,0.4c5.7,14.2,16.7,10,37.4-49.5c-7.1-2.5-14.3-3.5-21.4-4.6
		C155.5,374.6,153.1,399.6,138.9,410.3z"/>
	<path class="st11" d="M172.8,231c11.4-1.8,23.2-2.5,35.2-2C195.8,234,184.1,234.3,172.8,231z"/>
	<path class="st7" d="M232.6,110.3c0,3.3-7.2,6-16,6c-8.8,0-16-2.7-16-6c0-3.3,7.2-5.9,16-5.9C225.4,104.4,232.6,107.1,232.6,110.3z
		"/>
	<path class="st12" d="M232.6,106.3c0,1.1-2.4,2-5.3,2c-2.9,0-5.3-0.9-5.3-2c0-1.1,2.4-2,5.3-2C230.2,104.4,232.6,105.3,232.6,106.3
		z"/>
	<path class="st7" d="M134.6,110.8c0,2-5.7,3.6-12.8,3.6c-7.1,0-12.8-1.6-12.8-3.6c0-2,5.7-3.6,12.8-3.6
		C128.9,107.2,134.6,108.8,134.6,110.8z"/>
	<path class="st12" d="M116.8,107.8c0,0.9-2.5,1.6-5.6,1.6c-3.1,0-5.6-0.7-5.6-1.6c0-0.9,2.5-1.6,5.6-1.6
		C114.3,106.2,116.8,106.9,116.8,107.8z"/>
	<path class="st11" d="M134,259.1c-0.5,0.9-1,1.7-1.4,2.6c-5.6,15.5-11.8,34.7-15.5,53.6c-4.5,22.9,2.6,34.3,17.6,40.1
		c-1.2-1.9-2.3-4-3.2-6.1C117.6,319.7,138.6,290.2,134,259.1z"/>
	<path class="st11" d="M270.4,307.6c-6.1-19.5-15.4-37.7-24.2-52.1c-4.4,23,21.3,44.8,22.8,66.6c0.5,5.2,0.2,10.2-0.6,15
		C273.1,329.5,274.2,319.9,270.4,307.6z"/>
	<path class="st11" d="M167.4,227.4c-18.3,0.4-36-2.5-51.3-10.3c-6.2-2.3-10.5-5.1-13.2-8.5c-20.7-16.6-29.2-48.3-22.1-74.8
		c-29.2,2.7-51.5-14.1-65-36.8c7.3,23.6,29.3,40.7,55.3,40.7c0.1,0,0.1,0,0.2,0c-0.5,6.3-0.1,12.7,1,19.1
		c8,45.1,23.5,67.2,73.1,73.1c0,0,0,0,0,0c0,0-5.3,11.5-11.5,28.3c0,0.3,0.1,0.6,0.1,0.9C141.9,244.7,151.8,231.7,167.4,227.4z"/>
	<g>
		<path class="st0" d="M132.6,261.7c0.5-0.9,0.9-1.8,1.4-2.6c0-0.3-0.1-0.6-0.1-0.9C133.4,259.4,133,260.5,132.6,261.7z"/>
		<g>
			<path d="M132.5,261.8l0-0.1c0-0.6,0.1-1.1,0.4-1.5c0.2-0.5,0.7-0.7,1-1.2l0,0.1c0-0.3-0.1-0.6-0.3-0.9l0.6,0.1
				c0,0.3-0.1,0.6-0.2,0.9c-0.1,0.3-0.2,0.6-0.3,0.9C133.5,260.7,133.1,261.3,132.5,261.8L132.5,261.8z M132.5,261.7
				c-0.1-0.7,0-1.3,0.2-1.9c0.1-0.3,0.2-0.6,0.4-0.9c0.1-0.3,0.3-0.6,0.5-0.8l0.7-0.9l-0.1,0.9c0,0.3-0.1,0.6,0,0.9l0,0l0,0.1
				c-0.2,0.4-0.2,1-0.5,1.4C133.4,261,133.1,261.4,132.5,261.7L132.5,261.7L132.5,261.7z"/>
		</g>
	</g>
	<path class="st11" d="M317.6,63.8c0-11.3-3.3-21.9-9.1-30.7c4.9,22.3,1.5,46-12.3,64.5c-7.2,9.1-23.5,12.7-23.5,16.3
		c1.2,28.3-5.9,57.5-16.3,84.1c-0.1,4.8-1.6,9-5.2,12.6c-1.5,3.5-3.1,7-4.8,10.3c24.3-11.3,33.8-32,39.1-64.6
		c2.2-13.6,0.8-27.1-3.7-39.6C302.7,108.3,317.6,87.8,317.6,63.8z"/>
	<path class="st11" d="M229.4,360.3c0.9,0.5,0.1,0.2,0.9,0.5c-1-1,9-3.8,9.4-5.5c-3,0.6-15.2,3.3-19.7,4
		c3.6,6.3,10.6,10.7,18.8,10.7c3.8,0,7.3-0.9,10.4-2.6C242.2,367.7,235.3,365.7,229.4,360.3z"/>
	<g>
		<path class="st0" d="M151.4,234.3c0,0-79.7-33-86-24.4c-6.3,8.6,63.8,45.3,63.8,45.3s5,0.9,0.3,15.5"/>
		<path d="M151.4,234.3c-13.3-5.1-26.6-10.1-40-14.8c-6.7-2.3-13.4-4.7-20.2-6.7c-3.4-1-6.8-1.9-10.3-2.7c-3.5-0.7-7-1.4-10.5-1.4
			c-0.9,0-1.8,0.1-2.6,0.3c-0.8,0.2-1.7,0.5-2.1,1.2c-0.5,0.7-0.3,1.5,0,2.3c0.3,0.8,0.8,1.5,1.4,2.2c2.2,2.7,5,4.9,7.8,7.1
			c5.7,4.3,11.6,8.1,17.7,11.9s12.2,7.4,18.3,10.9c6.2,3.6,12.4,7.1,18.6,10.4l-0.1,0c0.8,0.3,1.3,0.9,1.7,1.5
			c0.3,0.6,0.5,1.3,0.6,2c0.2,1.4,0.1,2.8,0,4.2c-0.4,2.8-1.2,5.4-2,8l-0.1,0c0.8-2.6,1.5-5.3,1.7-8.1c0.1-1.4,0.2-2.7-0.1-4.1
			c-0.1-0.7-0.3-1.3-0.6-1.9c-0.3-0.5-0.8-1.1-1.3-1.2l-0.1,0l0,0c-6.3-3.3-12.6-6.6-18.8-10.1c-6.2-3.5-12.4-7.1-18.4-10.9
			c-6-3.8-12-7.7-17.6-12.1c-2.8-2.2-5.6-4.5-7.8-7.4c-0.5-0.7-1.1-1.5-1.4-2.4c-0.2-0.4-0.3-0.9-0.3-1.4c0-0.5,0.1-1,0.4-1.4
			c0.6-0.8,1.6-1.1,2.4-1.3c0.9-0.2,1.8-0.2,2.7-0.2c3.6,0.1,7.1,0.8,10.6,1.5c3.5,0.7,6.9,1.7,10.4,2.6c6.9,1.9,13.7,4,20.4,6.3
			C125.1,223.4,138.4,228.5,151.4,234.3L151.4,234.3z"/>
	</g>
	<g>
		<path class="st0" d="M220.4,229.9c0,0,80.7-49.5,89-41.3c8.4,8.2-61.4,60.1-61.4,60.1s-5.2,1.8,2.4,16.8"/>
		<path d="M220.4,229.8c13.2-8.4,26.7-16.3,40.5-23.7c6.9-3.7,13.9-7.2,21-10.4c3.6-1.6,7.1-3.2,10.8-4.6c3.6-1.4,7.3-2.8,11.2-3.5
			c1-0.2,2-0.3,3-0.2c1,0.1,2.1,0.2,2.9,1c0.4,0.4,0.6,0.9,0.7,1.4c0.1,0.5,0,1.1-0.1,1.5c-0.2,1-0.6,1.9-1.1,2.8
			c-1.9,3.5-4.6,6.4-7.2,9.3c-5.3,5.8-11.1,11-17,16.2c-5.9,5.1-12,10.1-18.1,15c-6.2,4.8-12.4,9.6-18.7,14.2l0,0l-0.1,0
			c-0.5,0.2-1,0.9-1.2,1.5c-0.2,0.7-0.3,1.4-0.4,2.1c0,1.5,0.3,3,0.6,4.4c0.8,2.9,2,5.7,3.3,8.4l-0.1,0c-1.4-2.7-2.7-5.4-3.6-8.4
			c-0.4-1.5-0.7-3-0.8-4.5c0-0.8,0.1-1.6,0.3-2.3c0.3-0.7,0.7-1.5,1.6-1.9l-0.1,0c6.2-4.7,12.3-9.6,18.4-14.5
			c6.1-4.9,12.1-9.9,18-15c5.9-5.1,11.7-10.3,17.1-15.9c2.7-2.8,5.3-5.7,7.3-9.1c0.5-0.8,0.9-1.7,1.1-2.6c0.2-0.9,0.2-1.9-0.4-2.5
			c-0.6-0.6-1.6-0.9-2.5-0.9c-1-0.1-1.9,0-2.9,0.2c-3.8,0.6-7.5,2-11.2,3.4c-3.6,1.4-7.2,3-10.7,4.7c-7,3.4-13.9,7.1-20.8,10.8
			C247.5,214.3,233.9,222.1,220.4,229.8L220.4,229.8z"/>
	</g>
	<path d="M174.1,105.9c0,2-3.4,7.1-7.7,7.1c-4.2,0-7.7-5.1-7.7-7.1c0-2,3.4-3.7,7.7-3.7C170.6,102.2,174.1,103.8,174.1,105.9z"/>
	<path class="st12" d="M164.6,104.1c0.1,0.3-0.8,0.8-1.9,1c-1.1,0.2-2.1,0.1-2.2-0.2c-0.1-0.3,0.8-0.7,1.9-1
		C163.5,103.7,164.5,103.8,164.6,104.1z"/>
	<g>
		<path class="st11" d="M215.6,99.7c0,3.5-2.9,6.4-6.4,6.4c-3.5,0-6.4-2.9-6.4-6.4s2.9-6.4,6.4-6.4
			C212.7,93.4,215.6,96.2,215.6,99.7z"/>
		<circle cx="207.6" cy="99.7" r="6.4"/>
		<path class="st12" d="M205.5,98.7c0,0.6-0.5,1.1-1.1,1.1c-0.6,0-1.1-0.5-1.1-1.1s0.5-1.1,1.1-1.1C205,97.6,205.5,98.1,205.5,98.7z
			"/>
	</g>
	<g>
		<path class="st11" d="M138,99.7c0,3.5-2.9,6.4-6.4,6.4c-3.5,0-6.4-2.9-6.4-6.4s2.9-6.4,6.4-6.4C135.2,93.4,138,96.2,138,99.7z"/>
		<path d="M136.4,99.7c0,3.5-2.9,6.4-6.4,6.4c-3.5,0-6.4-2.9-6.4-6.4s2.9-6.4,6.4-6.4C133.6,93.4,136.4,96.2,136.4,99.7z"/>
		<path class="st12" d="M128,98.7c0,0.6-0.5,1.1-1.1,1.1c-0.6,0-1.1-0.5-1.1-1.1s0.5-1.1,1.1-1.1C127.5,97.6,128,98.1,128,98.7z"/>
	</g>
	<linearGradient id="SVGID_3_" gradientUnits="userSpaceOnUse" x1="239.042" y1="31.7139" x2="295.848" y2="88.5199">
		<stop  offset="1.818180e-002" style="stop-color:#078D9E"/>
		<stop  offset="1" style="stop-color:#078D9E;stop-opacity:0"/>
	</linearGradient>
	<path class="st5" d="M271.6,103.8c0,0-36-11.9-44-47.1c-8-35.2,50.2-39.8,61.9-23.4c0,0,23.2,16.3,13.9,42.9
		C296.7,95.1,288.2,96.3,271.6,103.8z"/>
	<g>
		<path class="st14" d="M266,100.4c-4.8-1.9-9.7-5.1-14.6-9.3c2.1,0.1,4.3-0.6,6.3-2.2c4-3.1,5.2-8.3,2.6-11.6
			c-2.2-2.8-6.4-3.3-10.1-1.3c2.1-3,2.4-6.7,0.4-9.2c-2.6-3.3-7.9-3.4-11.9-0.2c-2.1,1.7-3.5,4-3.9,6.2c-7.1-11-7.9-22.1,3.2-33.7
			c15.4-16.1,40.6-16.9,56.2-1.9c7.2,6.9,11.2,16,11.8,25.3c-0.6-10.3-4.9-20.4-12.9-28.1c-16.8-16.1-43.5-15.6-59.7,1.3
			c-16.1,16.8-8.1,32.9,8.4,49.4c8.9,8.9,17.7,15.2,26.2,17.5C267.3,101.8,266.6,101.1,266,100.4z"/>
		<g>
			<path d="M265.9,100.4c-5.4-2.1-10.3-5.5-14.8-9.2l-0.5-0.4l0.6,0c2.5,0.1,5-1,6.8-2.8c1.8-1.7,3.1-4.1,3.1-6.6
				c0-1.2-0.3-2.5-1-3.5c-0.7-1-1.7-1.8-2.8-2.3c-2.3-0.9-5-0.5-7.2,0.6l-1.2,0.6l0.8-1.1c1.4-2,2.1-4.6,1.3-6.9
				c-0.4-1.1-1.1-2.2-2-2.9c-1-0.7-2.1-1.1-3.3-1.3c-2.4-0.3-4.9,0.6-6.8,2.1c-1.9,1.5-3.4,3.7-3.8,6l-0.2,1.1l-0.6-1
				c-2.9-4.5-5.1-9.7-5.2-15.2c-0.1-2.7,0.4-5.5,1.3-8c0.9-2.6,2.3-4.9,3.9-7.1c3.2-4.3,7.3-8,11.9-10.7c4.6-2.8,9.8-4.6,15.1-5.4
				c10.6-1.5,21.9,1.3,30.3,8.1c4.2,3.3,7.7,7.6,10.2,12.3c2.5,4.8,4,10.1,4.4,15.4l-0.6,0c-0.5-7.7-3.1-15.3-7.5-21.6
				c-4.5-6.3-10.6-11.4-17.7-14.4c-7.1-3-15-4-22.6-2.9c-7.6,1.1-14.9,4.4-20.8,9.4c-2.9,2.5-5.6,5.4-7.7,8.6
				c-2.1,3.2-3.6,6.8-4.1,10.6c-0.5,3.8,0.2,7.7,1.5,11.3c1.3,3.6,3.3,7,5.6,10.1c2.3,3.2,4.8,6.1,7.5,8.9c2.7,2.8,5.5,5.5,8.4,8.1
				c2.9,2.5,6,4.9,9.3,7c3.3,2.1,6.8,3.8,10.6,4.8l-0.1,0.1C267.2,101.8,266.6,101.1,265.9,100.4z M266,100.4c0.6,0.7,1.3,1.4,2,2
				l0.2,0.2l-0.3-0.1c-3.8-1-7.4-2.7-10.7-4.7c-3.4-2-6.5-4.4-9.4-6.9c-3-2.5-5.8-5.3-8.5-8.1c-2.7-2.8-5.3-5.8-7.6-8.9
				c-2.3-3.2-4.3-6.6-5.8-10.3c-1.4-3.7-2.1-7.7-1.7-11.7c0.4-4,2-7.8,4.2-11.1c2.2-3.3,4.9-6.2,7.9-8.8c6-5.1,13.5-8.5,21.3-9.6
				c7.8-1.1,15.9-0.1,23.2,3.1c7.2,3.1,13.6,8.3,18,14.8c4.5,6.5,7.1,14.2,7.5,22l-0.6,0c-0.3-5.3-1.8-10.5-4.2-15.2
				c-2.4-4.7-5.9-8.9-10-12.2c-4.1-3.3-9-5.8-14.1-7.2c-5.2-1.3-10.6-1.6-15.8-0.8c-5.3,0.8-10.3,2.6-14.9,5.4
				c-4.5,2.8-8.5,6.4-11.7,10.7c-1.6,2.1-2.9,4.4-3.8,6.9c-0.9,2.5-1.3,5.1-1.2,7.7C230,63,232.2,68,235,72.5l-0.8,0.2
				c0.5-2.6,2.1-5,4.2-6.5c2.1-1.6,4.8-2.5,7.4-2.2c1.3,0.1,2.6,0.6,3.7,1.4c1.1,0.8,1.9,2,2.3,3.3c0.8,2.6,0,5.4-1.5,7.5l-0.4-0.5
				c2.3-1.2,5.2-1.6,7.8-0.6c1.2,0.5,2.4,1.4,3.1,2.5c0.7,1.1,1.1,2.5,1.1,3.8c0,2.7-1.4,5.2-3.3,7c-1.9,1.8-4.5,2.9-7.2,2.8
				l0.1-0.4C255.8,94.7,260.6,98.1,266,100.4L266,100.4L266,100.4z"/>
		</g>
	</g>
	
		<linearGradient id="SVGID_4_" gradientUnits="userSpaceOnUse" x1="286.5371" y1="33.4971" x2="343.3405" y2="90.3004" gradientTransform="matrix(-0.9876 0.1571 0.1571 0.9876 368.3771 -30.2378)">
		<stop  offset="1.818180e-002" style="stop-color:#078D9E"/>
		<stop  offset="1" style="stop-color:#078D9E;stop-opacity:0"/>
	</linearGradient>
	<path class="st6" d="M69.8,124.2c0,0,33.7-17.4,36-53.4c2.4-36-55.8-31.5-64.8-13.4c0,0-20.3,19.8-7,44.5
		C43.7,119.5,52.3,119.3,69.8,124.2z"/>
	<g>
		<path class="st14" d="M74.9,119.9c4.5-2.7,8.8-6.6,13-11.5c-2,0.4-4.3,0.1-6.5-1.1c-4.5-2.5-6.4-7.4-4.4-11
			c1.7-3.1,5.8-4.2,9.8-2.9c-2.5-2.6-3.4-6.2-1.8-9c2-3.6,7.3-4.6,11.7-2.1c2.4,1.3,4.1,3.4,4.8,5.5c5.3-12,4.3-23.1-8.5-32.8
			c-17.7-13.4-42.7-10.3-55.8,7c-6,8-8.5,17.5-7.7,26.9c-1.1-10.3,1.6-20.9,8.3-29.8c14.1-18.6,40.6-22.2,59.1-8.1
			c18.6,14.1,13.1,31.2-0.6,50.1C89,111,81.3,118.6,73.2,122.2C73.8,121.5,74.3,120.7,74.9,119.9z"/>
		<g>
			<path d="M74.8,119.9c5-3.1,9.1-7.2,12.9-11.6l0.2,0.3c-2.6,0.5-5.4-0.2-7.6-1.7c-2.2-1.5-3.9-3.7-4.4-6.4c-0.2-1.3-0.1-2.7,0.4-4
				c0.5-1.2,1.5-2.3,2.7-3c2.3-1.4,5.3-1.4,7.8-0.6l-0.4,0.6c-1.8-1.9-3-4.5-2.6-7.2c0.2-1.3,0.8-2.6,1.7-3.6c0.9-1,2.1-1.7,3.4-2
				c2.6-0.7,5.4-0.2,7.7,1c2.3,1.2,4.3,3.3,5.2,5.8l-0.8,0c2.1-4.8,3.5-10.1,2.8-15.4c-0.3-2.6-1.2-5.1-2.4-7.4
				c-1.3-2.3-2.9-4.4-4.8-6.2c-3.8-3.7-8.3-6.7-13.2-8.7c-4.9-2-10.2-3-15.5-3c-5.3,0-10.6,1.1-15.5,3.3c-4.9,2.2-9.3,5.3-12.8,9.3
				c-3.6,3.9-6.3,8.6-8,13.7c-1.7,5-2.3,10.4-1.8,15.7l-0.6,0.1c-0.9-7.8,0.5-15.9,3.9-22.9c3.4-7.1,8.8-13.2,15.5-17.4
				c6.6-4.2,14.5-6.6,22.4-6.7c7.9-0.1,15.8,2.1,22.5,6.2c3.4,2.1,6.5,4.5,9.2,7.4c2.7,2.9,4.8,6.4,5.8,10.3c1.1,3.8,1,7.9,0.2,11.8
				c-0.8,3.9-2.3,7.5-4.1,11c-1.8,3.5-3.9,6.8-6.1,10c-2.2,3.2-4.6,6.3-7.1,9.3c-2.5,3-5.3,5.8-8.2,8.3c-3,2.5-6.3,4.7-9.8,6.3
				l-0.3,0.1l0.2-0.2C73.7,121.4,74.3,120.7,74.8,119.9L74.8,119.9L74.8,119.9z M74.9,120c-0.5,0.8-1.1,1.6-1.6,2.3l-0.1-0.1
				c3.5-1.6,6.7-3.9,9.7-6.4c2.9-2.6,5.6-5.4,8.1-8.4c2.5-3,4.8-6.1,7-9.3c2.2-3.2,4.2-6.5,6-10c1.7-3.5,3.2-7.1,3.9-10.9
				c0.8-3.8,0.8-7.7-0.3-11.4c-1-3.7-3.1-7-5.7-9.8c-2.6-2.8-5.7-5.2-8.9-7.2c-6.6-4-14.3-6.1-22-6C63.2,42.8,55.6,45,49,49.2
				c-6.5,4.1-11.8,10.1-15.3,17C30.4,73.1,29,81,29.7,88.7l-0.6,0.1c-0.4-5.4,0.2-10.8,1.9-15.9c1.7-5.1,4.5-9.8,8.2-13.8
				c7.3-8,17.9-12.6,28.6-12.7c5.4-0.1,10.8,0.9,15.8,2.9c5,2,9.6,5,13.5,8.7c1.9,1.9,3.7,4,5,6.4c1.3,2.4,2.2,5,2.6,7.7
				c0.7,5.4-0.7,10.9-2.8,15.8l-0.5,1l-0.4-1.1c-0.8-2.3-2.6-4.2-4.7-5.4c-2.1-1.2-4.7-1.6-7.1-1c-1.2,0.3-2.3,0.9-3.1,1.8
				c-0.8,0.9-1.4,2-1.6,3.2c-0.4,2.4,0.7,4.9,2.4,6.6l1,1l-1.3-0.4c-2.4-0.8-5.1-0.8-7.2,0.5c-1.1,0.6-1.9,1.6-2.4,2.7
				c-0.5,1.1-0.6,2.4-0.4,3.6c0.4,2.5,2,4.7,4.1,6.1c2.1,1.4,4.7,2.1,7.2,1.7l0.6-0.1l-0.4,0.5C84.2,112.9,79.9,117,74.9,120z"/>
		</g>
	</g>
	<g>
		<g>
			<path d="M198.2,109.4c5.6-2.3,11.4-3.9,17.3-5.2c5.9-1.2,12-1.9,18-2c6.1,0,12.2,0.6,18,2.3c2.9,0.9,5.7,2,8.4,3.4
				c2.7,1.4,5.2,3.1,7.5,5.1c-4.8-3.6-10.3-6.2-16.1-7.7c-5.8-1.5-11.8-2.1-17.8-2.1c-6,0-12,0.7-17.9,1.8c-3,0.5-5.9,1.2-8.8,1.9
				C203.9,107.6,201,108.5,198.2,109.4z"/>
		</g>
		<g>
			<path d="M198.2,113.6c5.3-0.4,10.6-0.3,15.8,0.1c5.3,0.3,10.5,1,15.7,2c5.2,1.1,10.3,2.4,15.2,4.4c4.9,2,9.6,4.5,13.6,8
				c-2.1-1.6-4.4-3-6.7-4.1c-2.3-1.2-4.7-2.3-7.2-3.2c-4.9-1.8-10-3.2-15.1-4.2c-5.1-1.1-10.4-1.7-15.6-2.2
				c-2.6-0.3-5.2-0.4-7.9-0.6C203.4,113.7,200.8,113.6,198.2,113.6z"/>
		</g>
		<g>
			<path d="M195.7,116.3c6.2,1.6,12.3,3.8,18.3,6.3c6,2.5,11.8,5.4,17.3,8.7c5.5,3.4,10.8,7.2,15.4,11.7c2.3,2.3,4.4,4.8,6.2,7.5
				c1.8,2.7,3.3,5.6,4.3,8.7c-1.2-3-2.8-5.8-4.7-8.4c-1.9-2.6-4-5-6.4-7.2c-4.7-4.4-9.9-8.2-15.4-11.4c-5.5-3.3-11.3-6.2-17.1-8.8
				c-2.9-1.3-5.9-2.5-8.9-3.7C201.8,118.4,198.8,117.3,195.7,116.3z"/>
		</g>
		<g>
			<path d="M141.6,111.9c-2.9-1-5.7-1.8-8.7-2.5c-2.9-0.7-5.8-1.4-8.8-1.9c-5.9-1.1-11.9-1.7-17.9-1.8c-6-0.1-12,0.5-17.8,2.1
				c-5.8,1.5-11.3,4.1-16.1,7.7c2.3-2,4.8-3.7,7.5-5.1c2.7-1.4,5.5-2.5,8.4-3.4c5.8-1.7,11.9-2.3,18-2.3c6.1,0.1,12.1,0.8,18,2
				C130.2,108,136,109.6,141.6,111.9z"/>
		</g>
		<g>
			<path d="M141.6,116c-2.6,0-5.3,0.1-7.9,0.2c-2.6,0.1-5.3,0.3-7.9,0.6c-5.2,0.5-10.4,1.2-15.6,2.2c-5.2,1-10.2,2.3-15.1,4.2
				c-2.5,0.9-4.9,1.9-7.2,3.2c-2.3,1.2-4.6,2.6-6.7,4.1c4-3.5,8.7-6,13.6-8c4.9-2,10.1-3.3,15.2-4.4c5.2-1,10.4-1.7,15.7-2
				C131,115.8,136.3,115.7,141.6,116z"/>
		</g>
		<g>
			<path d="M144,118.8c-3.1,1-6.1,2.1-9.1,3.3c-3,1.2-6,2.4-8.9,3.7c-5.9,2.6-11.6,5.5-17.1,8.8c-5.5,3.3-10.8,7-15.4,11.4
				c-2.3,2.2-4.5,4.6-6.4,7.2c-1.9,2.6-3.5,5.4-4.7,8.4c1-3.1,2.5-6,4.3-8.7c1.8-2.7,3.9-5.2,6.2-7.5c4.6-4.6,9.9-8.4,15.4-11.8
				c5.6-3.3,11.4-6.2,17.3-8.7C131.7,122.6,137.8,120.4,144,118.8z"/>
		</g>
	</g>
	<g class="st4">
		<path class="st12" d="M142.9,257.1c-1.2,6.4-2.6,12.7-3.8,19l-1.9,9.5c-0.6,3.2-1.3,6.3-1.8,9.5c-0.6,3.2-1.2,6.3-1.7,9.5
			c-0.6,3.2-1,6.3-1.5,9.5c-0.9,6.3-1.7,12.7-2.3,19.2c-0.7-6.4-0.5-13,0-19.4c0.2-3.2,0.6-6.5,1-9.7c0.4-3.2,1-6.4,1.6-9.6
			c0.6-3.2,1.3-6.3,2-9.5c0.8-3.1,1.5-6.3,2.4-9.4C138.6,269.3,140.5,263.1,142.9,257.1z"/>
	</g>
	<g>
		<path class="st10" d="M196.7,198.2c0,6.4-9.9,15.5-22.2,15.5c-12.3,0-22.2-9.1-22.2-15.5c0-6.4,9.9-8.6,22.2-8.6
			C186.8,189.5,196.7,191.8,196.7,198.2z"/>
		<g>
			<path d="M196.8,198.2c0,2.3-1.2,4.5-2.5,6.4c-1.4,1.9-3.1,3.5-5,4.8c-3.8,2.7-8.4,4.4-13,4.7c-4.7,0.3-9.3-0.9-13.5-3
				c-2-1.1-4-2.4-5.7-3.9c-1.7-1.6-3.3-3.4-4.2-5.5c-0.5-1.1-0.8-2.2-0.9-3.5c0-1.2,0.4-2.5,1.1-3.4c1.5-2,3.8-3,6-3.8
				c4.5-1.4,9.2-1.8,13.8-1.9c4.6-0.1,9.3,0.1,13.8,1.1c2.3,0.5,4.5,1.2,6.5,2.4c1,0.6,1.9,1.3,2.6,2.3
				C196.4,195.8,196.8,197,196.8,198.2z M196.7,198.2c0-1.1-0.4-2.3-1.1-3.2c-0.7-0.9-1.6-1.6-2.6-2.2c-2-1.1-4.3-1.6-6.5-2
				c-4.5-0.7-9.1-0.8-13.7-0.8c-2.3,0-4.6,0.2-6.8,0.4c-2.3,0.2-4.5,0.6-6.7,1.3c-2.1,0.7-4.3,1.6-5.6,3.4c-0.7,0.9-1,1.9-1,3
				c0,1.1,0.2,2.2,0.7,3.2c0.9,2.1,2.3,3.9,4,5.5c1.7,1.6,3.6,2.9,5.6,3.9c4.1,2.1,8.7,2.9,13.2,2.5c4.5-0.4,8.9-1.9,12.7-4.3
				c1.9-1.2,3.7-2.7,5.1-4.5C195.5,202.6,196.6,200.5,196.7,198.2z"/>
		</g>
	</g>
	<path class="st1" d="M196.7,198.2c0-6.4-9.9-8.6-22.2-8.6c-12.3,0-22.2,2.2-22.2,8.6c0,0.7,0.1,1.4,0.3,2.1
		c10.6,1.3,21.2,1.2,31.6,0l2.3,2.4l2.7-3C191.8,199.2,194.3,198.8,196.7,198.2C196.7,198.2,196.7,198.2,196.7,198.2z"/>
</g>
</svg>
