<?xml version="1.0" encoding="utf-8"?>
<!-- Generator: Adobe Illustrator 15.1.0, SVG Export Plug-In . SVG Version: 6.00 Build 0)  -->
<!DOCTYPE svg PUBLIC "-//W3C//DTD SVG 1.1//EN" "http://www.w3.org/Graphics/SVG/1.1/DTD/svg11.dtd">
<svg version="1.1" id="Layer_8" xmlns="http://www.w3.org/2000/svg" xmlns:xlink="http://www.w3.org/1999/xlink" x="0px" y="0px"
	 width="1025px" height="250.5px" viewBox="0 0 1025 250.5" style="enable-background:new 0 0 1025 250.5;" xml:space="preserve">
<style type="text/css">
<![CDATA[
	.st0{fill:#E5B1B1;}
	.st1{opacity:0.27;}
	.st2{fill:#231F20;}
	.st3{opacity:0.3;}
	.st4{fill:#FFCCCC;}
	.st5{fill:#FFFFFF;}
	.st6{opacity:0.38;fill:#AF8787;}
]]>
</style>
<g>
	<path class="st0" d="M-25,60.8c0,0,128,33,302.1-24c174-57,394.9,1.5,462.2,25.5c67.3,24,284.8,58.5,337.3-12l9,97.5
		c0,0,28.9,61.3-446.8-67.6c0,0-119.2-46.4-368.7,24.1c-249.5,70.5-338,1.5-338,1.5L-25,60.8z"/>
	<path class="st2" d="M-25,60.7c11.4,2.7,23.1,4.4,34.7,5.8c11.7,1.4,23.4,2.3,35.1,2.9c23.5,1.1,47,0.7,70.4-0.9
		c46.8-3.3,93.3-11.8,138.4-24.9c5.6-1.6,11.3-3.3,16.8-5.1c5.6-1.8,11.2-3.7,16.8-5.3c11.3-3.4,22.7-6.3,34.2-8.7
		c23-4.9,46.3-8.2,69.7-10.1c46.9-3.8,94.1-2.4,140.8,2.5c46.7,5,93.1,13.4,138.7,24.8c22.8,5.7,45.4,12.2,67.6,19.9
		c11,4,22.4,7.1,33.8,9.9c11.4,2.8,22.9,5.3,34.4,7.5c23.1,4.4,46.3,7.7,69.7,10c23.4,2.2,46.9,3.4,70.3,3
		c11.7-0.2,23.5-0.9,35.1-2.1c11.7-1.3,23.3-3.1,34.7-5.9c11.4-2.8,22.6-6.5,33-11.9c10.4-5.3,20.1-12.5,27.1-21.9l0.3-0.5l0.1,0.6
		l9,97.5l0-0.1c0.5,1.2,0.5,2.5,0.1,3.7c-0.4,1.2-1.1,2.3-2,3.1c-1.8,1.8-4,2.9-6.2,3.8c-4.5,1.8-9.3,2.6-14.1,3.3
		c-9.6,1.2-19.3,1.2-28.9,0.9c-19.3-0.7-38.5-2.9-57.6-5.5c-38.2-5.4-76.1-12.8-113.8-20.8c-37.7-8.1-75.2-17-112.7-26.3
		c-37.4-9.3-74.7-19.1-111.9-29.2l0,0l0,0c-7-2.5-14.3-4.3-21.6-5.9c-7.3-1.6-14.7-2.9-22.1-4c-14.8-2.2-29.8-3.5-44.7-4.3
		c-29.9-1.5-60-0.5-89.9,2c-29.9,2.6-59.6,6.9-89.1,12.4c-29.5,5.6-58.7,12.3-87.7,20.2c-7.2,1.9-14.4,4-21.7,6
		c-7.2,2-14.5,3.9-21.8,5.7c-14.6,3.6-29.2,7-43.9,9.9c-29.4,5.9-59.2,10.2-89.1,12.3c-29.9,2.1-60.1,2-89.9-1.9
		c-14.9-1.9-29.7-4.8-44.1-9c-7.2-2.1-14.3-4.6-21.2-7.5c-3.5-1.5-6.9-3.1-10.2-4.8c-3.3-1.8-6.6-3.6-9.6-5.8l-0.1-0.1l0.1-0.1
		L-25,60.7L-25,60.7z M-25,60.8l-42.8,45l0-0.2c3,2.2,6.3,4,9.6,5.8c3.3,1.7,6.7,3.3,10.2,4.8c6.9,2.9,14,5.4,21.2,7.5
		c14.4,4.2,29.2,7,44,8.9c29.8,3.8,59.9,3.8,89.8,1.7c29.9-2.2,59.6-6.6,89-12.5c14.7-3,29.3-6.3,43.9-10c7.3-1.8,14.5-3.7,21.8-5.7
		c7.2-2,14.4-4.1,21.7-6c57.9-15.7,117-27.5,176.9-32.7c29.9-2.6,60-3.5,90-2c15,0.8,30,2.1,44.8,4.3c7.4,1.1,14.8,2.4,22.2,4
		c7.3,1.6,14.6,3.4,21.8,6l0,0c37.2,10.1,74.5,19.9,111.9,29.2c37.4,9.3,74.9,18.2,112.6,26.4c37.7,8.1,75.5,15.5,113.7,21
		c19.1,2.7,38.3,4.9,57.5,5.6c9.6,0.3,19.3,0.3,28.8-0.8c4.8-0.6,9.5-1.5,14-3.2c2.2-0.9,4.4-2,6-3.7c0.8-0.8,1.5-1.8,1.8-2.9
		c0.3-1.1,0.3-2.3-0.1-3.4l0-0.1l0,0l-9-97.5l0.4,0.1c-7.1,9.5-16.8,16.6-27.3,22c-10.5,5.4-21.7,9.1-33.1,11.9
		c-11.4,2.8-23.1,4.6-34.7,5.9c-11.7,1.2-23.4,1.9-35.2,2.1c-23.5,0.5-47-0.7-70.4-2.9c-23.4-2.2-46.7-5.5-69.8-9.9
		c-11.5-2.2-23-4.6-34.5-7.4c-11.4-2.8-22.8-5.9-33.8-9.9c-22.2-7.7-44.8-14.1-67.6-19.8c-45.6-11.3-91.9-19.7-138.6-24.6
		c-23.4-2.4-46.8-4-70.3-4.5c-23.5-0.5-47,0-70.4,1.9c-23.4,1.9-46.7,5.1-69.6,10c-11.5,2.5-22.9,5.3-34.1,8.7
		c-5.6,1.7-11.2,3.5-16.8,5.3c-5.6,1.8-11.2,3.5-16.9,5.1c-45.1,13-91.6,21.5-138.5,24.7c-23.4,1.6-47,1.9-70.4,0.7
		c-11.7-0.6-23.4-1.6-35.1-3C-2,65.3-13.6,63.5-25,60.8z"/>
</g>
<g>
	<path class="st4" d="M-25,57.8c0,0,128,33,302.1-24c174-57,394.9,1.5,462.2,25.5c67.3,24,284.8,58.5,337.3-12l9,97.5
		c0,0,28.9,61.3-446.8-67.6c0,0-119.2-46.4-368.7,24.1c-249.5,70.5-338,1.5-338,1.5L-25,57.8z"/>
	<path class="st2" d="M-25,57.7c11.4,2.7,23.1,4.4,34.7,5.8c11.7,1.4,23.4,2.3,35.1,2.8c23.5,1.1,47,0.7,70.4-1
		c46.8-3.3,93.2-11.9,138.3-25c5.6-1.6,11.2-3.3,16.8-5.1c5.6-1.8,11.2-3.7,16.8-5.3c11.3-3.4,22.7-6.3,34.2-8.8
		c23-5,46.3-8.2,69.8-10.2C438,7,485.2,8.5,531.9,13.4c46.8,5,93.1,13.4,138.7,24.9c22.8,5.8,45.4,12.2,67.6,20
		c11,4,22.3,7.1,33.7,10c11.4,2.8,22.9,5.3,34.4,7.5c23.1,4.4,46.3,7.7,69.7,10c23.4,2.2,46.8,3.4,70.3,3
		c11.7-0.2,23.5-0.9,35.1-2.2c11.7-1.3,23.3-3.1,34.7-5.9c11.4-2.8,22.6-6.5,33-11.9c10.4-5.3,20-12.4,27-21.8l0.7-0.9l0.1,1.1
		l9.1,97.5l0-0.2c0.5,1.3,0.5,2.7,0.1,3.9c-0.4,1.3-1.1,2.4-2,3.3c-1.8,1.8-4,3-6.3,3.9c-4.6,1.8-9.4,2.7-14.2,3.3
		c-9.6,1.2-19.3,1.2-29,0.9c-19.3-0.7-38.5-2.9-57.6-5.5c-38.2-5.3-76.1-12.7-113.8-20.7c-37.7-8-75.3-17-112.7-26.3
		c-37.4-9.3-74.7-19.1-112-29.1l0,0l-0.1,0c-3.4-1.3-7.1-2.3-10.6-3.3c-3.6-1-7.2-1.8-10.9-2.6c-7.3-1.6-14.7-2.9-22.1-4
		c-14.8-2.2-29.7-3.6-44.7-4.3c-29.9-1.5-59.9-0.6-89.8,2c-29.9,2.6-59.6,6.8-89,12.4c-29.5,5.5-58.7,12.3-87.6,20.1
		c-7.2,1.9-14.4,4-21.7,6c-7.2,2-14.5,3.9-21.8,5.7c-14.6,3.6-29.2,6.9-43.9,9.9c-29.5,5.8-59.2,10.2-89.2,12.3
		c-29.9,2.1-60.1,1.9-90-1.9c-14.9-1.9-29.7-4.8-44.1-9.1c-7.2-2.1-14.3-4.6-21.2-7.6c-3.5-1.5-6.9-3.1-10.2-4.8
		c-3.3-1.8-6.6-3.6-9.7-5.9l-0.2-0.2l0.2-0.2L-25,57.7L-25,57.7z M-25,57.9L-67.7,103l0-0.4c3,2.2,6.3,4,9.6,5.8
		c3.3,1.7,6.7,3.3,10.2,4.7c6.9,2.9,14,5.3,21.2,7.4c14.4,4.2,29.1,7,44,8.9c29.7,3.7,59.9,3.8,89.7,1.6c29.9-2.2,59.6-6.6,89-12.5
		c14.7-3,29.3-6.3,43.8-10c7.3-1.8,14.5-3.8,21.7-5.7c7.2-2,14.4-4.1,21.7-6c57.9-15.8,117.1-27.5,177-32.8
		c29.9-2.6,60-3.5,90.1-2.1c15,0.7,30,2.1,44.9,4.3c7.4,1.1,14.9,2.4,22.2,4c3.7,0.8,7.3,1.7,11,2.7c3.6,1,7.2,2,10.9,3.4l-0.1,0
		c37.2,10.1,74.5,19.9,111.9,29.3c37.4,9.4,74.9,18.3,112.6,26.4c37.7,8.1,75.5,15.6,113.7,21c19.1,2.7,38.2,4.9,57.5,5.6
		c9.6,0.3,19.3,0.3,28.8-0.8c4.7-0.6,9.5-1.4,13.9-3.2c2.2-0.9,4.3-2,5.9-3.6c0.8-0.8,1.4-1.8,1.8-2.8c0.3-1,0.3-2.2,0-3.2l0-0.1
		l0-0.1l-8.9-97.5l0.8,0.2c-7.1,9.5-16.9,16.7-27.3,22c-10.5,5.4-21.8,9.1-33.2,11.9c-11.4,2.8-23.1,4.6-34.8,5.9
		c-11.7,1.2-23.4,1.9-35.2,2.1c-23.5,0.5-47-0.7-70.4-2.9c-23.4-2.2-46.7-5.5-69.8-9.9c-11.6-2.2-23.1-4.6-34.5-7.4
		c-11.4-2.8-22.8-5.9-33.9-9.9c-22.2-7.7-44.8-14.1-67.6-19.7C647.5,34,624.6,29.1,601.5,25c-23.1-4.1-46.4-7.4-69.7-9.9
		c-23.3-2.4-46.8-4-70.2-4.5c-23.5-0.5-46.9,0-70.3,1.9c-23.4,1.9-46.7,5.1-69.6,10c-11.5,2.5-22.8,5.3-34.1,8.7
		c-5.6,1.7-11.2,3.5-16.8,5.3c-5.6,1.8-11.2,3.5-16.9,5.1c-45.2,13-91.7,21.4-138.6,24.6c-23.5,1.6-47,1.8-70.5,0.6
		c-11.7-0.6-23.5-1.6-35.1-3C-2,62.4-13.6,60.6-25,57.9z"/>
</g>
<path class="st6" d="M275,48.6c2.6-3.8,4.5-7.9,6.2-12.1c-1.4,0.4-2.8,0.7-4.1,1.1C103,86-25,58-25,58l-42.9,38.3
	c0,0,72,47.7,269,13.1C230.7,94.3,256.7,75.3,275,48.6z"/>
<path class="st6" d="M1085.5,134.6l-9-78.5c-52.5,56.8-270,29-337.3,9.7c-13.9-4-34.4-9.2-59.7-14.5c5.3,6.5,12.5,12.1,19.5,17.2
	c1,0,4,1.6,6,0.8c2,5.6,9,7.3,13,8.9c32,11.3,63,20.1,94,33.8c6.6,2.9,13.5,5.2,20.5,7.4C1105.8,169.3,1085.5,134.6,1085.5,134.6z"
	/>
<path class="st6" d="M285.5,31.1c-2.8,0.9-5.6,1.7-8.4,2.7c-97.8,32-181.1,35.6-235.3,32.7C118.4,109.9,217.7,88.8,285.5,31.1z"/>
<path class="st6" d="M739.3,59.3c-14.3-5.1-35.6-11.8-61.9-18.6C724.8,65.1,774,80,824,96.7c55,18,110,32,169,19c16-4,31-10,44-21
	c14-10,28-18,39-30c0.7-0.6,1.3-1.3,2-1.9l-1.4-15.5C1024,117.8,806.5,83.3,739.3,59.3z"/>
<g class="st3">
	<path class="st5" d="M353.5,51.3c5.7-2.7,11.6-4.9,17.5-6.9c6-2,12-3.7,18.1-5.3c12.2-3.1,24.6-5.4,37.1-7.1
		c12.5-1.7,25.1-2.6,37.7-3.1c12.6-0.4,25.2-0.3,37.8,0.4c12.6,0.7,25.2,1.9,37.7,3.5c12.5,1.7,24.9,3.8,37.2,6.5
		c24.6,5.2,48.8,12.3,72.3,21.2c-24.2-6.5-48.6-12.2-73.2-16.6c-12.3-2.1-24.6-4-37-5.4c-12.4-1.5-24.8-2.6-37.3-3.2
		c-12.4-0.7-24.9-0.9-37.4-0.7c-12.5,0.2-24.9,1-37.3,2.1c-12.4,1.2-24.8,2.9-37,5.3c-6.1,1.1-12.2,2.5-18.3,4
		c-3,0.8-6.1,1.6-9.1,2.5C359.5,49.3,356.5,50.2,353.5,51.3z"/>
</g>
<path class="st1" d="M-30,199.5c0,0,128,13.3,302.1-9.7c174-23,394.9,0.6,462.2,10.3c67.3,9.7,284.8,23.6,337.3-4.8l9,39.3
	c0,0,28.9,24.7-446.8-27.3c0,0-119.2-18.7-368.7,9.7c-249.5,28.4-338,0.6-338,0.6L-30,199.5z"/>
</svg>
