<?xml version="1.0" encoding="utf-8"?>
<!-- Generator: Adobe Illustrator 15.1.0, SVG Export Plug-In . SVG Version: 6.00 Build 0)  -->
<!DOCTYPE svg PUBLIC "-//W3C//DTD SVG 1.1//EN" "http://www.w3.org/Graphics/SVG/1.1/DTD/svg11.dtd">
<svg version="1.1" id="ribbon" xmlns="http://www.w3.org/2000/svg" xmlns:xlink="http://www.w3.org/1999/xlink" x="0px" y="0px"
	 width="1024px" height="232.9px" viewBox="0 0 1024 232.9" style="enable-background:new 0 0 1024 232.9;" xml:space="preserve">
<style type="text/css">
<![CDATA[
	.st0{fill:#E5B1B1;}
	.st1{opacity:0.23;}
	.st2{fill:#231F20;}
	.st3{fill:#FFCCCC;}
]]>
</style>
<g>
	<path class="st0" d="M1174.4,147.9c-1.6-42.2-16.3-84.3-20.7-123.3c-36.7,21.5-79,28-115.9,31.3c-37.5,2.9-69.7,2.5-99.4,3.1
		c-29.7,0.4-56.9,1.8-84.1,3.2c-26.6,1.3-53.1,2.7-67.7-0.1c-21-2-42.3-7.3-71-18.3C687,33.8,650.9,18,597.4,17.3
		c-9.3,5.4-18.7,7.6-28.5,9.6c19.5,2.4,37.6,10.8,57.4,17.8c-8.6,2.8-21.9-0.7-33.7-0.8c5.7,0.8,11.4,2.5,17.8,5
		c-4.6,1-8.8,1.1-14.3,1.8c6,3.2,12.8,3.5,20.3,8.2c-4,1.1-8.6,2-13.9,2.7C664.9,70,697.4,74.1,722.6,77c23.8,2.7,40.4,4.3,39.8,4.3
		c74.5,0.4,122.7,0.6,161.2,6.8c38,5.7,66.4,17.2,91.5,29.6c24.8,12.3,46.4,25.4,65.4,33.4c19,8.4,35.3,11.6,48.5,13.5
		c26.8,1.8,39-6.3,42.7-7.8C1174.9,155.7,1175.8,145.4,1174.4,147.9z"/>
	<path class="st2" d="M1174.4,147.9c-0.8-20.9-4.8-41.4-9.2-61.8c-2.2-10.2-4.5-20.4-6.6-30.6c-2.1-10.2-3.9-20.5-5.1-30.9l0.4,0.2
		c-13.4,7.9-27.9,13.9-42.7,18.4c-14.9,4.5-30.1,7.6-45.5,9.8c-15.4,2.2-30.9,3.6-46.4,4.4c-15.5,0.9-31,1.3-46.6,1.5l-23.3,0.3
		l-23.3,0.4c-15.5,0.3-31,0.9-46.5,1.7c-15.5,0.7-31,1.6-46.5,2.2c-7.8,0.3-15.5,0.5-23.3,0.5c-3.9,0-7.8-0.1-11.6-0.3
		c-3.9-0.2-7.8-0.6-11.6-1.3l0,0c-16.2-1.5-32.2-5.2-47.8-10.1c-7.8-2.5-15.4-5.2-23-8.1l-23-8.3c-15.3-5.4-31-10.1-47-13.3
		c-16-3.2-32.2-4.8-48.5-5l0.1,0c-4.4,2.6-9,4.5-13.9,6c-4.8,1.5-9.7,2.6-14.7,3.6l0-0.5c10,1.2,19.7,4.1,29.2,7.4
		c9.5,3.3,18.8,7.1,28.3,10.4l0.9,0.3l-0.9,0.3c-2.7,0.9-5.6,1.1-8.5,1.1c-2.8,0-5.7-0.2-8.5-0.5c-5.6-0.5-11.2-1.3-16.9-1.3
		l0.1-0.7c6.1,0.9,12.1,2.7,17.9,5l1.2,0.5l-1.3,0.3c-4.7,1-9.6,1.2-14.3,1.8l0.1-0.8c3.2,1.7,6.7,2.6,10.2,3.7
		c3.5,1.1,6.9,2.5,10.1,4.5l0.8,0.5l-0.9,0.3c-4.6,1.2-9.3,2.1-14,2.7l0-0.9c26.6,3.6,53.2,7.1,79.9,10.5c13.3,1.7,26.7,3.3,40,4.8
		l20,2.2l10,1.1l5,0.5l2.5,0.3l1.3,0.1l0.6,0.1l0.3,0l0.2,0l0.1,0l0.1,0c0.1-0.4,0.6,1.4-0.1,1l0-1c31.8,0.2,63.7,0.2,95.5,1.3
		c15.9,0.6,31.8,1.4,47.7,3.1c15.8,1.8,31.6,4.3,47.1,8.3c15.4,3.9,30.5,9.3,45.1,15.7c14.6,6.4,28.7,13.8,42.7,21.4
		c14,7.5,27.9,15.3,42.7,21.4c7.3,3.1,14.8,5.7,22.5,7.7c7.7,2.1,15.5,3.6,23.4,4.7l0,0c7.3,0.5,14.7,0.4,21.9-0.8
		c3.6-0.6,7.2-1.4,10.7-2.6c1.7-0.6,3.4-1.2,5.1-2c1.7-0.7,3.3-1.6,5-2.3l0,0l0,0c0.8-0.3,1.4-1,1.8-1.8c0.4-0.8,0.7-1.6,1-2.5
		c0.2-0.9,0.4-1.8,0.5-2.6c0-0.4,0.1-0.9,0.1-1.3c0-0.2,0-0.5-0.1-0.6c0-0.1-0.1,0-0.2,0C1174.6,147.7,1174.5,147.8,1174.4,147.9
		l0,0.2L1174.4,147.9z M1174.5,147.7c0-0.1,0.1-0.1,0.1-0.2c0,0,0.1-0.1,0.2-0.1c0.1,0,0.2,0,0.2,0.1c0.1,0.2,0.1,0.5,0.1,0.7
		c0,0.5,0,0.9-0.1,1.4c-0.1,0.9-0.3,1.8-0.5,2.7c-0.2,0.9-0.5,1.7-1,2.5c-0.4,0.8-1,1.6-1.9,1.9l0,0c-1.7,0.7-3.3,1.6-5,2.4
		c-1.7,0.8-3.4,1.4-5.1,2c-3.5,1.2-7.1,2.1-10.7,2.7c-7.2,1.2-14.6,1.4-22,0.9l0,0l0,0c-7.9-1.1-15.7-2.6-23.4-4.6
		c-7.7-2-15.3-4.6-22.6-7.7c-14.8-6.1-28.7-13.8-42.8-21.3c-14-7.5-28.1-14.9-42.7-21.2c-14.6-6.4-29.6-11.6-45-15.5
		c-15.4-3.9-31.1-6.4-46.9-8.1c-15.8-1.7-31.7-2.5-47.6-3.1C826,82,794.2,82,762.4,81.8l1.4,0l-1.4-1c-0.7-0.4-0.1,1.3-0.1,0.9
		c0,0,0,0,0,0l-0.1,0l-0.2,0l-0.3,0l-0.6-0.1l-1.3-0.1l-2.5-0.3l-5-0.5l-10-1.1l-20-2.2c-13.3-1.5-26.7-3.2-40-4.8
		c-26.6-3.4-53.3-6.9-79.9-10.5l-3.2-0.4l3.2-0.5c4.7-0.7,9.3-1.5,13.9-2.7l-0.1,0.8c-3.1-1.9-6.4-3.3-9.9-4.4
		c-3.5-1.1-7-2.1-10.3-3.8l-1.1-0.6l1.3-0.2c4.8-0.6,9.6-0.8,14.2-1.7l-0.1,0.7c-5.7-2.3-11.6-4.1-17.7-5l0.1-0.7
		c5.7,0,11.3,0.8,16.9,1.4c2.8,0.3,5.6,0.5,8.4,0.5c2.8,0,5.6-0.2,8.3-1.1l0,0.6c-9.5-3.3-18.8-7.1-28.3-10.4
		c-9.5-3.3-19.1-6.2-29.1-7.4l-1.6-0.2l1.6-0.3c4.9-1,9.8-2.1,14.6-3.6c4.8-1.5,9.4-3.5,13.8-6l0.1,0l0.1,0
		c16.3,0.2,32.6,1.9,48.6,5.1c16,3.2,31.6,7.9,47,13.3l23,8.2c7.6,2.9,15.3,5.6,23,8.1c15.5,4.9,31.5,8.5,47.7,10l0,0l0,0
		c3.8,0.7,7.7,1,11.5,1.3c3.9,0.2,7.7,0.3,11.6,0.3c7.8,0,15.5-0.2,23.3-0.6c15.5-0.6,31-1.6,46.5-2.3c15.5-0.8,31-1.4,46.5-1.7
		l23.3-0.4l23.3-0.3c15.5-0.2,31-0.6,46.5-1.4c15.5-0.8,31-2.1,46.3-4.3c15.3-2.2,30.6-5.2,45.4-9.7c14.8-4.5,29.2-10.5,42.6-18.3
		l0.4-0.2l0,0.4c1.2,10.4,3,20.6,5.1,30.8c2.1,10.2,4.3,20.4,6.5,30.6C1169.8,106.4,1173.7,126.9,1174.5,147.7z"/>
</g>
<g>
	<path class="st3" d="M1174.4,144.9c-1.6-42.2-16.3-84.3-20.7-123.3c-36.8,21.5-79.1,28.1-116.1,31.3c-37.6,2.9-69.8,2.6-99.6,3.2
		c-29.7,0.4-57,1.8-84.1,3.2c-26.6,1.3-53.1,2.7-67.6-0.1c-20.6-2.1-41.6-7.2-69.5-18c-28-9.9-62.9-25.5-115.2-26.8
		c0.1,0.1,0.2,0.1,0.2,0.2c-10.4,7.4-21.3,9.6-33,11.6c19.9,3,38.4,11.5,58.8,18.5c-8.6,2.6-22.3-1-34.4-1.2
		c5.8,0.9,11.7,2.6,18.3,5.1c-4.7,0.9-9,1-14.6,1.6c6.2,3.2,13.2,3.6,20.9,8.2c-2.2,0.5-4.6,1-7.2,1.5c57.7,7.7,89,11.6,113.1,14.4
		c22.9,2.6,38.7,4.1,38.2,4.1c74.6,0.5,122.8,0.7,161.4,6.8c38.1,5.6,66.5,17.2,91.6,29.5c24.9,12.3,46.4,25.4,65.4,33.3
		c18.9,8.4,35.3,11.6,48.5,13.5c26.8,1.8,39-6.3,42.7-7.8C1174.9,152.6,1175.8,142.4,1174.4,144.9z"/>
	<path class="st2" d="M1174.3,144.9c-0.9-20.9-4.9-41.4-9.4-61.8c-2.2-10.2-4.6-20.4-6.6-30.6c-2.1-10.2-4-20.5-5.1-30.9l0.9,0.5
		c-13.4,7.9-27.9,14-42.8,18.6c-14.9,4.6-30.2,7.7-45.6,9.9c-7.7,1.1-15.4,2-23.2,2.7c-7.8,0.8-15.5,1.2-23.3,1.7
		c-15.5,0.9-31.1,1.3-46.6,1.5l-23.3,0.3L926,57.1c-15.5,0.3-31,0.9-46.6,1.6c-15.5,0.7-31,1.6-46.6,2.1c-7.8,0.3-15.5,0.5-23.3,0.4
		c-3.9,0-7.8-0.1-11.7-0.4c-3.9-0.2-7.8-0.6-11.6-1.4l0,0c-7.9-0.8-15.8-2.1-23.6-3.8c-7.8-1.7-15.5-3.8-23.1-6.2
		c-7.6-2.4-15.1-5.1-22.5-8l-22.4-8.2c-15-5.4-30.2-10.1-45.8-13.3c-15.6-3.2-31.4-5-47.3-5.3l0.3-0.6l0.2,0.2l0.3,0.3l-0.4,0.3
		c-4.8,3.4-10.2,6-15.9,7.8c-5.6,1.8-11.5,2.9-17.2,3.9l0-0.8c10.2,1.5,20.2,4.5,29.9,7.9c9.7,3.4,19.3,7.2,29,10.5l1.6,0.6
		l-1.7,0.5c-2.9,0.9-5.8,1-8.7,1c-2.9,0-5.8-0.3-8.7-0.6c-5.7-0.6-11.4-1.4-17.1-1.5l0.1-1.3c6.3,0.9,12.5,2.8,18.5,5l2.4,0.9
		l-2.5,0.5c-4.9,0.9-9.8,1.1-14.7,1.6l0.3-1.5c3.3,1.6,6.9,2.6,10.5,3.7c3.6,1.1,7.2,2.5,10.5,4.5l1.8,1.1l-2,0.5
		c-2.4,0.6-4.8,1.1-7.2,1.5l0-1.8h0c25.2,3.3,50.4,6.6,75.6,9.7c12.6,1.6,25.2,3.1,37.8,4.6l18.9,2.1l9.5,1l4.7,0.5l2.4,0.2l1.2,0.1
		l0.6,0.1l0.3,0l0.2,0l0.1,0l0.1,0c-0.7-0.6,2.3,1.1-0.1,2l-0.1-2.1c31.9,0.2,63.7,0.3,95.6,1.3c15.9,0.6,31.9,1.4,47.7,3.1
		c15.9,1.8,31.7,4.3,47.2,8.3c15.5,4,30.6,9.3,45.2,15.7c14.6,6.4,28.8,13.8,42.8,21.4c14,7.5,27.9,15.3,42.6,21.4
		c14.6,6.3,30.1,10.2,45.8,12.5l0,0c7.3,0.5,14.6,0.4,21.9-0.8c3.6-0.6,7.2-1.4,10.6-2.6c1.7-0.6,3.4-1.2,5.1-2
		c1.7-0.7,3.3-1.6,5-2.3l0,0l0,0c0.8-0.2,1.4-1,1.8-1.8c0.4-0.8,0.7-1.6,1-2.5c0.2-0.9,0.4-1.7,0.5-2.6c0-0.4,0.1-0.9,0.1-1.3
		c0-0.2,0-0.5-0.1-0.6c0-0.1-0.2,0.1-0.3,0.3l-0.2,0.4L1174.3,144.9z M1174.5,144.6C1174.5,144.5,1174.5,144.5,1174.5,144.6
		c0.1-0.1,0.1-0.1,0.2-0.2c0.1,0,0.2,0,0.3,0.1c0.1,0.3,0.1,0.5,0.2,0.7c0,0.5,0,0.9-0.1,1.4c-0.1,0.9-0.3,1.8-0.5,2.7
		c-0.2,0.9-0.5,1.7-1,2.6c-0.4,0.8-1,1.6-2,1.9l0,0c-1.7,0.7-3.3,1.6-5,2.4c-1.7,0.8-3.4,1.4-5.1,2c-3.5,1.2-7.1,2.1-10.7,2.7
		c-7.3,1.2-14.7,1.4-22,1l0,0l0,0c-7.9-1.1-15.8-2.5-23.5-4.6c-7.7-2-15.3-4.6-22.7-7.7c-14.8-6-28.8-13.8-42.8-21.2
		c-14-7.5-28.2-14.8-42.8-21.1c-14.6-6.3-29.6-11.6-45-15.4c-15.4-3.9-31.1-6.3-46.9-8c-15.8-1.7-31.7-2.5-47.6-3.1
		c-31.8-1-63.7-1.1-95.5-1.3l-5.1,0l5.1-2c-2.4,0.9,0.5,2.6-0.2,2c0,0,0,0,0,0l-0.1,0l-0.1,0l-0.3,0l-0.6-0.1l-1.2-0.1l-2.4-0.2
		l-4.7-0.5l-9.5-1L724,75.3c-12.6-1.4-25.2-3-37.9-4.6c-25.2-3.2-50.4-6.6-75.6-10l0,0l-5.7-0.8l5.7-1c2.4-0.4,4.8-0.9,7.1-1.5
		l-0.2,1.6c-3.1-1.9-6.5-3.3-10.1-4.4c-3.5-1.1-7.2-2.1-10.7-3.9l-2.3-1.2l2.6-0.3c4.9-0.5,9.8-0.6,14.6-1.5l-0.1,1.4
		c-5.9-2.3-11.9-4.1-18.1-5.1l0.1-1.3c5.8,0.1,11.5,1,17.3,1.6c2.9,0.3,5.7,0.6,8.6,0.6c2.8,0.1,5.7-0.1,8.4-0.9l0,1
		c-9.8-3.3-19.3-7.2-29-10.6c-9.7-3.4-19.5-6.5-29.7-8l-2.5-0.4l2.5-0.4c5.8-1,11.6-2.1,17.2-3.8c5.6-1.8,10.9-4.3,15.7-7.7l0,0.6
		l-0.2-0.2l-0.7-0.7l1,0c15.9,0.4,31.8,2.2,47.4,5.4c15.6,3.2,30.9,8,45.8,13.4c7.5,2.7,14.9,5.5,22.4,8.2
		c7.4,2.9,14.9,5.5,22.5,7.9c15.2,4.8,30.7,8.3,46.5,9.8l0,0l0,0c3.8,0.7,7.7,1,11.5,1.3c3.9,0.2,7.7,0.3,11.6,0.3
		c7.8,0,15.5-0.3,23.3-0.6c15.5-0.7,31-1.6,46.5-2.4c15.5-0.8,31-1.5,46.6-1.8l23.3-0.4l23.3-0.3c15.5-0.3,31-0.6,46.5-1.4
		c7.7-0.4,15.5-0.9,23.2-1.6c7.7-0.7,15.4-1.6,23.1-2.7c15.3-2.2,30.6-5.2,45.4-9.7c14.8-4.5,29.2-10.4,42.6-18.2l0.8-0.5l0.1,1
		c1.1,10.3,2.9,20.6,4.9,30.8c2,10.2,4.3,20.4,6.4,30.6C1170,103.2,1173.8,123.8,1174.5,144.6z"/>
</g>
<g class="st1">
	<path d="M385.5,190.2c4.8,0,8.8,0.1,13.8,0.1c-5.5-0.9-11.2-1.6-16.7-2.1c11.7,0.7,24.8,2.2,36.4,2.4c-18.7-2.6-42.6-6.1-70.3-8.3
		c12,0.3,26.9,0.9,39.8,0.8c-0.1,0-0.3,0-0.4-0.1c-59.5-5-126.9-7.4-176.3-8.2c-50.7-0.8-83.5,0-102.5,1
		c-35.6,2.7-105.1,3.3-162.3-1.8c-28.1-2.2-51.5-5.1-65.3-7.2c-14.3-2.1-19-3.5-20.9-3.4c-15.9,3.2-24.4,4.9-43.3,6.2
		c4.9-0.4,4.5,1.5,25.1,3.9c18.9,2.4,58.7,5.4,105.1,7.5c46.2,2.2,99,3.5,141,3.7c43.4,0.3,76.1-0.5,115.4-0.6
		c30.7-0.6,61.3,0.1,94,2.1c32.3,1.9,66.8,5.1,95,7.1c2.3-0.1,4.6-0.3,6.9-0.4C396,191.6,390,191.3,385.5,190.2z"/>
</g>
<g>
	<path class="st0" d="M386.5,106.8c5.1,0.7,9.1,1.8,14.3,2.5c-4.5-4.1-9.3-7.5-14.3-10.2c11.3,4.3,22.7,11.8,34.2,13.4
		c-16-11-33.4-27.4-56.1-39.5c10.5,2.6,22.2,6.5,33.3,8.7c-44.4-25.9-101.3-45-148.4-52.9c-47.9-8.5-86-5.8-110.6-2.4
		c-27.6,4-58.9,9.3-90.1,7C17.6,31.8-13.4,22.3-39,9.7C-64.6-2.7-84.8-18.4-97-29.2c-12.5-11.1-17.1-17.4-18.4-17.3
		c-18.3,10-32.5,16-51.2,18.5c0.2,0.6,4.1,5.2,17.6,16.5c13.6,10.8,36.7,28.4,77.2,42.7C-34.1,45.7,20.9,57,69.3,59.3
		c49.5,3.1,92.5-2.7,131.1-2.8c30.8-1,62.7,6.2,94.5,19.7c31.6,13,63,32.4,89.5,44.7c4.6-0.3,9.3-0.7,13.8-1.1
		C395.7,113.7,389.8,111.7,386.5,106.8z"/>
	<path class="st2" d="M386.5,106.8c4.8,0.7,9.5,1.9,14.3,2.5l-0.1,0.2c-4.4-3.9-9.1-7.4-14.3-10.2l0.1-0.2c5.7,2.2,11.2,5,16.8,7.6
		c5.6,2.5,11.3,4.9,17.4,5.8l-0.2,0.4c-4.7-3.2-9.3-6.7-13.8-10.2c-4.5-3.5-9-7-13.6-10.5c-9.1-6.9-18.6-13.3-28.7-18.7l-2.2-1.2
		l2.5,0.6c11.1,2.8,22.1,6.4,33.3,8.7l-0.2,0.6c-19.7-11.4-40.5-20.9-61.8-29c-10.7-4-21.4-7.7-32.3-11c-10.9-3.3-21.9-6.2-33-8.7
		c-22.2-4.9-44.8-8.4-67.6-9.5c-22.7-1.1-45.6,0-68.1,3.4c-22.5,3.3-45.2,6.7-68,6.9c-5.7,0-11.4-0.1-17.1-0.5
		c-5.7-0.3-11.4-0.9-17-1.7c-11.3-1.6-22.5-4-33.4-7.3c-21.9-6.5-42.8-16-62.1-28.2c-9.7-6.1-18.9-12.8-27.7-20
		c-4.4-3.6-8.7-7.4-12.8-11.3c-2.1-2-4.1-4-6.1-6l-3-3.1c-0.5-0.5-1-1-1.5-1.5c-0.3-0.2-0.5-0.5-0.8-0.7c-0.2-0.2-0.6-0.4-0.7-0.4
		l0.1,0c-8,4.4-16.2,8.6-24.7,11.8c-8.5,3.3-17.5,5.6-26.6,6.8l0.3-0.5c0.1,0.2,0.4,0.5,0.6,0.8c0.2,0.3,0.5,0.6,0.7,0.8
		c0.5,0.6,1,1.1,1.6,1.6c1.1,1.1,2.2,2.1,3.3,3.2c2.2,2.1,4.5,4.1,6.8,6.1c4.6,4,9.4,7.7,14.3,11.3c9.8,7.2,20.2,13.7,31,19.3
		c10.8,5.7,22,10.5,33.4,14.7c2.9,1,5.7,2.1,8.6,3.2c2.9,1,5.8,2,8.6,3c5.8,1.9,11.6,3.6,17.5,5.3C-16.2,47.6,7.8,52.3,32,55.4
		C44,57,56.2,58.1,68.4,58.7c12.2,0.8,24.4,1.1,36.6,0.9c24.4-0.2,48.7-2.1,73.1-3.1c6.1-0.3,12.2-0.4,18.3-0.5l4.6,0
		c1.5,0,3.1-0.1,4.6-0.1c3.1,0,6.1,0.1,9.2,0.2c12.2,0.6,24.4,2.4,36.3,5.2c23.9,5.5,46.6,15,68.4,25.8c10.9,5.4,21.7,11.2,32.5,17
		c10.8,5.8,21.5,11.5,32.6,16.7l-0.1,0l13.8-1l-0.1,0.1c-0.6-1.4-1.3-2.6-2.3-3.8c-0.9-1.1-2-2.1-3.1-3.1
		C390.5,111.1,388.1,109.4,386.5,106.8l-0.1,0L386.5,106.8z M386.6,106.9c1.7,2.4,4,4.1,6.2,6c1.1,1,2.2,2,3.2,3.1
		c0.9,1.1,1.7,2.4,2.3,3.8l0,0.1l-0.1,0l-13.8,1.1l0,0l0,0c-11.1-5.1-21.9-10.9-32.7-16.6c-10.8-5.7-21.5-11.5-32.5-16.9
		c-21.9-10.8-44.6-20.2-68.4-25.6c-11.9-2.7-24-4.5-36.1-5c-3-0.1-6.1-0.2-9.1-0.2c-1.5,0-3,0-4.6,0.1l-4.6,0
		c-6.1,0.1-12.2,0.3-18.3,0.5c-12.2,0.5-24.4,1.3-36.6,1.9c-12.2,0.6-24.4,1.1-36.6,1.2c-12.2,0.1-24.4-0.2-36.6-1
		c-12.2-0.6-24.4-1.7-36.5-3.3C7.6,53.2-16.4,48.5-40,42c-5.9-1.6-11.7-3.4-17.5-5.3c-2.9-1-5.8-1.9-8.7-3c-2.9-1-5.7-2.2-8.6-3.2
		c-11.5-4.2-22.7-9.1-33.5-14.8c-10.8-5.7-21.2-12.2-31.1-19.4c-4.9-3.6-9.8-7.4-14.3-11.4c-2.3-2-4.6-4-6.8-6.1
		c-1.1-1-2.2-2.1-3.3-3.2c-0.5-0.5-1.1-1.1-1.6-1.7c-0.3-0.3-0.5-0.6-0.8-0.9c-0.3-0.3-0.5-0.5-0.7-1l-0.2-0.4l0.5-0.1
		c9-1.2,17.9-3.4,26.4-6.6c8.5-3.2,16.7-7.4,24.7-11.7l0.1,0l0.1,0c0.6,0,0.8,0.3,1.1,0.5c0.3,0.2,0.6,0.5,0.8,0.7
		c0.5,0.5,1,1,1.5,1.5l3,3.1c2,2,4,4,6.1,6c4.1,3.9,8.4,7.7,12.8,11.3c8.8,7.3,18,13.9,27.6,20c19.3,12.1,40.1,21.7,62,28.2
		c10.9,3.2,22.1,5.7,33.3,7.3c5.6,0.8,11.3,1.3,17,1.6c5.7,0.4,11.4,0.5,17.1,0.5c22.8-0.2,45.4-3.7,67.9-7
		c22.5-3.4,45.4-4.6,68.2-3.5c22.8,1,45.4,4.5,67.7,9.3c22.3,5,44.1,11.6,65.5,19.7c21.3,8.1,42.1,17.6,61.8,29.1l1.8,1l-2-0.4
		c-11.3-2.3-22.2-5.9-33.3-8.7l0.2-0.6c10.1,5.4,19.6,11.9,28.7,18.8c9.2,6.9,18,14.2,27.4,20.7l0.8,0.6l-1-0.1
		c-6.1-0.9-11.9-3.3-17.4-5.9c-5.6-2.6-11-5.4-16.7-7.7l0.1-0.2c5.2,2.8,9.9,6.3,14.3,10.3l0.2,0.2l-0.3,0
		C396,108.8,391.4,107.6,386.6,106.9z"/>
</g>
<g>
	<path class="st3" d="M386.5,107c5.1,0.7,9.1,1.8,14.3,2.5c-4.5-4.1-9.3-7.5-14.2-10.2c11.2,4.3,22.6,11.8,34.1,13.4
		c-16-10.9-33.2-27.3-55.7-39.5c12.2,3.1,26,7.9,38.8,9.7c-0.1-0.1-0.2-0.2-0.3-0.3c-45.1-26.8-103.6-46.9-152-55.2
		c-49.2-9-88.3-6-113.5-2.6c-27.6,4.1-58.7,9.4-89.7,7.1C17.5,30-13.2,20.4-38.4,8c-52.9-27-75.7-58.4-76.4-56.6
		c-18.3,10-32.5,16-51.2,18.5c0.2,0.6,4.1,5.2,17.5,16.5c13.5,10.8,36.5,28.4,76.6,42.9c37.5,14.6,92.1,26.2,140.4,28.4
		c49.4,3.1,92.6-2.9,131.2-3.4c31.9-1.4,65.3,6.1,98.4,20.3c33,13.6,65.7,33.9,92.6,46c2.5-0.2,4.9-0.4,7.3-0.6
		C395.7,113.8,389.8,111.8,386.5,107z"/>
	<path class="st2" d="M386.5,106.9c4.8,0.6,9.5,1.8,14.3,2.4l-0.1,0.3c-4.3-3.9-9.1-7.4-14.2-10.1l0.2-0.5c5.7,2.2,11.2,5,16.8,7.5
		c5.6,2.5,11.3,4.8,17.3,5.6l-0.3,0.8c-4.7-3.2-9.3-6.7-13.8-10.2c-4.5-3.5-9-7-13.5-10.4c-9.1-6.9-18.5-13.3-28.5-18.7l-4.8-2.6
		l5.3,1.4c6.5,1.6,12.9,3.6,19.3,5.3c6.4,1.7,12.9,3.4,19.4,4.3l-0.7,1.3l-0.3-0.3l0.2,0.1c-19.8-11.7-40.7-21.4-62.2-29.7
		c-10.7-4.1-21.6-7.9-32.6-11.3c-11-3.4-22.1-6.5-33.3-9.1c-5.6-1.3-11.2-2.5-16.9-3.6c-5.6-1.1-11.3-2.1-17-3
		c-11.4-1.8-22.8-3-34.3-3.7c-22.9-1.4-46-0.6-68.8,2.5c-22.8,3.3-45.6,7-68.7,7.5c-5.8,0.1-11.5,0-17.3-0.3
		c-2.9-0.2-5.7-0.4-8.6-0.6c-2.9-0.2-5.7-0.6-8.6-0.9C23.5,29.4,12.2,27,1.1,23.7c-11.1-3.2-21.9-7.2-32.4-12
		c-2.6-1.2-5.2-2.4-7.8-3.7c-2.6-1.3-5.1-2.7-7.6-4c-5.1-2.8-10-5.7-14.9-8.8c-9.8-6.1-19.2-12.9-28.1-20.2
		c-4.5-3.7-8.8-7.5-13-11.5c-2.1-2-4.2-4-6.2-6l-3-3.1l-1.5-1.5c-0.3-0.2-0.5-0.5-0.8-0.7c-0.1-0.1-0.3-0.2-0.4-0.3
		c-0.1,0-0.1-0.1-0.1-0.1c0,0,0,0,0.1,0c0.1,0,0.4-0.2,0.4-0.3l0,0.2l-0.3,0.1c-8,4.4-16.2,8.6-24.7,11.9
		c-8.6,3.3-17.5,5.6-26.6,6.8l0.6-1c0-0.1,0,0,0.1,0.1l0.1,0.2l0.3,0.4c0.2,0.3,0.5,0.6,0.7,0.8c0.5,0.6,1,1.1,1.6,1.6
		c1.1,1.1,2.2,2.1,3.3,3.2c2.3,2.1,4.6,4.1,6.9,6.1l3.5,3c1.1,1,2.4,1.9,3.6,2.9c2.4,1.9,4.9,3.8,7.3,5.6
		c9.9,7.3,20.4,13.8,31.2,19.5c10.9,5.7,22.2,10.6,33.7,14.8c11.5,4.5,23.2,8.2,35.1,11.5c23.7,6.5,48,11.2,72.4,14.3
		c12.2,1.5,24.5,2.5,36.8,3.1c12.3,0.7,24.6,0.9,36.9,0.6c24.6-0.4,49.2-2.5,73.9-3.6c6.2-0.3,12.4-0.4,18.5-0.5
		c6.2-0.2,12.4-0.1,18.6,0.3c12.4,0.9,24.6,2.9,36.6,5.9c12,3,23.8,6.9,35.3,11.5c5.7,2.3,11.4,4.7,17,7.3c5.6,2.6,11.2,5.2,16.7,8
		c11,5.5,21.9,11.4,32.8,17.2c10.9,5.8,21.8,11.6,33,16.7l-0.1,0l7.3-0.6l-0.2,0.3c-0.5-1.3-1.3-2.6-2.2-3.7c-0.9-1.1-2-2.1-3.1-3.1
		c-2.2-1.9-4.6-3.7-6.3-6.2l-0.1-0.2L386.5,106.9z M386.8,107.1c1.6,2.3,4,4,6.1,5.9c1.1,1,2.2,2,3.2,3.1c1,1.1,1.7,2.4,2.3,3.8
		l0.1,0.2l-0.3,0l-7.3,0.6l-0.1,0l-0.1,0c-11.3-5-22.2-10.7-33.2-16.4c-10.9-5.7-21.8-11.5-32.9-17c-22.1-10.9-44.9-20.6-68.9-26.3
		c-12-2.9-24.1-4.9-36.4-5.7c-6.1-0.4-12.3-0.5-18.4-0.2c-6.2,0.1-12.3,0.3-18.5,0.6c-12.3,0.6-24.6,1.5-36.9,2.2
		c-12.3,0.7-24.7,1.3-37,1.6c-12.4,0.2-24.7,0.1-37.1-0.6c-12.3-0.6-24.7-1.6-36.9-3.1C10,52.7-14.3,48-38.2,41.4
		c-11.9-3.3-23.7-7.2-35.2-11.6c-11.6-4.3-23-9.2-33.9-15c-11-5.8-21.5-12.4-31.4-19.8c-2.5-1.8-4.9-3.7-7.4-5.7
		c-1.2-1-2.4-1.9-3.6-2.9l-3.5-3c-2.3-2-4.6-4.1-6.9-6.2c-1.1-1.1-2.2-2.1-3.3-3.2c-0.5-0.6-1.1-1.1-1.6-1.7
		c-0.3-0.3-0.5-0.6-0.8-0.9l-0.4-0.5l-0.2-0.3c-0.1-0.1-0.1-0.2-0.2-0.4l-0.4-0.9l1-0.1c9-1.1,17.9-3.4,26.3-6.6
		c8.5-3.2,16.6-7.3,24.6-11.7l-0.3,0.3c0-0.2,0.4-0.5,0.6-0.5c0.2,0,0.3,0,0.4,0.1c0.2,0.1,0.3,0.1,0.4,0.2c0.2,0.1,0.3,0.3,0.5,0.4
		c0.3,0.3,0.6,0.5,0.8,0.8l1.5,1.5l3,3.1c2,2,4.1,4.1,6.1,6.1c4.2,4,8.4,7.8,12.9,11.5c8.8,7.3,18.2,14.1,27.9,20.2
		c4.9,3.1,9.8,6,14.8,8.8c2.5,1.4,5.1,2.7,7.6,4.1c2.6,1.3,5.2,2.5,7.8,3.7c10.5,4.8,21.3,8.8,32.3,12.1c11,3.2,22.3,5.7,33.7,7.2
		c2.9,0.4,5.7,0.7,8.6,0.9c2.9,0.2,5.7,0.4,8.6,0.6c5.7,0.3,11.5,0.4,17.2,0.3c11.5-0.3,23-1.3,34.4-2.7c11.4-1.4,22.8-3.3,34.2-5
		c22.8-3.2,46-4.3,69-3c23.1,1.2,45.9,4.9,68.4,10.1c22.5,5.2,44.6,12.2,66.1,20.5c21.5,8.4,42.5,18.2,62.3,30l0.1,0.1L404,82
		l0.3,0.3l1.5,1.6l-2.2-0.3c-6.7-1-13.2-2.6-19.6-4.4c-6.4-1.8-12.8-3.7-19.3-5.4l0.5-1.3c10.1,5.5,19.5,12,28.5,19
		c9.1,6.9,17.8,14.2,27.1,20.7l1.6,1.1l-1.9-0.3c-6.2-0.9-11.9-3.3-17.5-5.9c-5.6-2.6-11-5.4-16.6-7.7l0.2-0.5
		c5.2,2.8,9.9,6.4,14.2,10.3l0.4,0.4l-0.6-0.1C396.1,109,391.5,107.8,386.8,107.1z"/>
</g>
<g class="st1">
	<path d="M1203.2,241c-1.6-18.7-16.3-37.3-20.7-54.5c-36.8,9.5-79.1,12.4-116.1,13.8c-37.6,1.3-69.8,1.1-99.6,1.4
		c-29.7,0.2-57,0.8-84.1,1.4c-26.6,0.6-53.1,1.2-67.6-0.1c-20.6-0.9-41.6-3.2-69.5-8c-28-4.4-62.9-11.3-115.2-11.8
		c0.1,0,0.2,0.1,0.2,0.1c-10.4,3.3-21.3,4.2-33,5.1c19.9,1.3,38.4,5.1,58.8,8.2c-8.6,1.2-22.3-0.4-34.4-0.5
		c5.8,0.4,11.7,1.1,18.3,2.2c-4.7,0.4-9,0.4-14.6,0.7c6.2,1.4,13.2,1.6,20.9,3.6c-2.2,0.2-4.6,0.5-7.2,0.7
		c57.7,3.4,89,5.1,113.1,6.4c22.9,1.2,38.7,1.8,38.2,1.8c74.8-2.3,122.9-0.6,161.4,2.8c38,3.4,66.4,8.6,91.6,13.5
		c49.5,10.4,87.3,18.7,113.8,20.3c27.6,2.6,38.1-2,42.8-3.6C1204.8,242.2,1203.3,242.9,1203.2,241z"/>
</g>
</svg>
