<?xml version="1.0" encoding="utf-8"?>
<!-- Generator: Adobe Illustrator 15.1.0, SVG Export Plug-In . SVG Version: 6.00 Build 0)  -->
<!DOCTYPE svg PUBLIC "-//W3C//DTD SVG 1.1//EN" "http://www.w3.org/Graphics/SVG/1.1/DTD/svg11.dtd">
<svg version="1.1" id="cheer" xmlns="http://www.w3.org/2000/svg" xmlns:xlink="http://www.w3.org/1999/xlink" x="0px" y="0px"
	 width="67.5px" height="56px" viewBox="0 0 67.5 56" style="enable-background:new 0 0 67.5 56;" xml:space="preserve">
<style type="text/css">
<![CDATA[
	.st0{fill:#231F20;}
	.st1{fill:#FFCCCC;}
]]>
</style>
<g>
	<g>
		<path class="st1" d="M11.7,10.1c0,0,4.7,19.9,49.6,32.1l-5,5.1l4.9,4.7c0,0-49.8,7.9-54.9-43.4l5,9.1L11.7,10.1z"/>
		<g>
			<path class="st0" d="M11.8,10c0.9,2.4,2.3,4.5,3.9,6.4c1.6,1.9,3.3,3.8,5.2,5.4c3.8,3.3,8,6,12.4,8.5c4.4,2.4,9,4.5,13.7,6.4
				c4.7,1.9,9.5,3.6,14.3,5l0.6,0.2l-0.5,0.4c-1.7,1.7-3.4,3.4-5,5.1l0-0.4c1.6,1.6,3.3,3.1,4.9,4.7l0.5,0.5l-0.7,0.1
				c-6.6,0.9-13.4,0.7-20-0.5c-3.3-0.7-6.5-1.6-9.7-2.9c-3.1-1.3-6.1-3-8.8-5c-5.5-4-9.8-9.6-12.6-15.8C7.5,21.9,6.1,15.3,5.5,8.6
				L5.2,5l1.6,3.2c1.6,3.1,3.1,6.2,4.7,9.3l-0.8,0.2c0.3-2.5,0.5-5.1,0.8-7.6l0-0.4L11.8,10z M11.8,10.7c0,2.3-0.1,4.7-0.2,7l0,1.4
				l-0.7-1.2c-1.8-3-3.5-6-5.2-9l1.3-0.4c0.8,6.5,2.4,12.9,5.2,18.8c2.8,5.8,6.8,11.1,11.9,15c5.1,4,11.2,6.6,17.6,8.1
				c3.2,0.8,6.4,1.3,9.7,1.5c3.3,0.2,6.6,0.2,9.8-0.2l-0.2,0.6c-1.6-1.6-3.2-3.2-4.9-4.8l-0.2-0.2l0.2-0.2c1.7-1.7,3.3-3.4,4.9-5.2
				l0.2,0.6c-4.9-1.2-9.9-2.6-14.7-4.3c-4.8-1.7-9.5-3.8-14-6.3c-4.5-2.5-8.7-5.5-12.4-9.1C18.2,21,16.4,19.1,15,17
				C13.6,15,12.4,12.9,11.8,10.7z"/>
		</g>
	</g>
</g>
</svg>
