<?xml version="1.0" encoding="utf-8"?>
<!-- Generator: Adobe Illustrator 15.1.0, SVG Export Plug-In . SVG Version: 6.00 Build 0)  -->
<!DOCTYPE svg PUBLIC "-//W3C//DTD SVG 1.1//EN" "http://www.w3.org/Graphics/SVG/1.1/DTD/svg11.dtd">
<svg version="1.1" id="cheers_on_floor" xmlns="http://www.w3.org/2000/svg" xmlns:xlink="http://www.w3.org/1999/xlink" x="0px"
	 y="0px" width="942px" height="176.1px" viewBox="0 0 942 176.1" style="enable-background:new 0 0 942 176.1;"
	 xml:space="preserve">
<style type="text/css">
<![CDATA[
	.st0{opacity:0.22;}
	.st1{fill:#231F20;}
	.st2{fill:#FFCCCC;}
	.st3{fill:#FFED48;}
]]>
</style>
<g class="st0">
	<path d="M691.2,87.6l-0.9,3.9l-13.6-0.3c37.8,24.4,14.5,33.9,14.5,33.9l11.7-2.6l-7.2,5.6C764.2,106.7,691.2,87.6,691.2,87.6z"/>
	<path d="M641.2,51.9c48.4-6.5,66.8-2.2,66.8-2.2l-5-2.1l10.9,1.4c-41.3-12.6-79.6,0.3-79.6,0.3l7.7,0.2L641.2,51.9z"/>
	<path d="M848.8,12.1l-5.9,2.3l-7.8-1.9c-10.5,19.4-37.5,22.2-37.5,22.2l10.6-0.1l-12,2.5C866.7,32.7,848.8,12.1,848.8,12.1z"/>
	<path d="M793.7,112.6l6.2,1.4l-4.8,2c52.5,2,60.9,8.6,60.9,8.6l-0.7-2.6l7,2.9C848.6,107.6,793.7,112.6,793.7,112.6z"/>
	<path d="M876.5,65.2l3.3-0.8l2.9,1c10.7-8.3,23.5-8.8,23.5-8.8l-4.7-0.2l6.1-0.8C875,55.6,876.5,65.2,876.5,65.2z"/>
	<path d="M654.4,62.6c-9.1-0.2-17.1,1.9-17.7,4.7s6.3,5.2,15.4,5.4c9.1,0.2,17.1-1.9,17.7-4.7C670.5,65.2,663.6,62.8,654.4,62.6z"/>
	<path d="M642.6,114.8c-6.6-0.1-12.3,1.4-12.8,3.4c-0.1,0.5,0.1,0.9,0.5,1.3c-18.9,2.9-14.1,9.8-14.1,9.8l2.8-1l3.4,0.9
		c3-4.3,7.6-6.7,11.5-8.1c1.9,0.5,4.3,0.8,7,0.9c6.6,0.1,12.3-1.4,12.8-3.4C654.3,116.6,649.3,114.9,642.6,114.8z"/>
	<path d="M795.5,89.4c0.5-2-4.5-3.7-11.2-3.9c-6.6-0.1-12.3,1.4-12.8,3.4c-0.5,2,4.5,3.7,11.2,3.9S795.1,91.4,795.5,89.4z"/>
	<path d="M720.1,21.4c-3-0.1-5.5,0.6-5.7,1.5c-0.2,0.9,2,1.7,5,1.7c3,0.1,5.5-0.6,5.7-1.5S723,21.5,720.1,21.4z"/>
	<path d="M750,151.9c-4-0.1-7.5,0.7-7.8,1.8s2.8,2.1,6.9,2.1c4,0.1,7.5-0.7,7.8-1.8S754,152,750,151.9z"/>
	<path d="M919.2,20c-8-0.2-15,1.7-15.5,4.1c-0.5,2.4,5.5,4.5,13.6,4.7s15-1.7,15.5-4.1C933.3,22.2,927.2,20.1,919.2,20z"/>
	<polygon points="878.1,136.8 897.2,137.2 900.7,121.6 881.7,121.2 	"/>
	<path d="M795.2,27.3l-2.7-1l3.5-0.9c-27.2-3.3-28.6-7.2-28.6-7.2l-0.9,1.4l-2.4-1.8C763.4,27.7,795.2,27.3,795.2,27.3z"/>
</g>
<g class="st0">
	<path d="M71.7,81.6l-0.8,3.3l-11.5-0.2c32,20.6,12.3,28.6,12.3,28.6l9.9-2.2l-6.1,4.7C133.3,97.6,71.7,81.6,71.7,81.6z"/>
	<path d="M29.5,51.4c40.9-5.5,56.4-1.8,56.4-1.8l-4.2-1.8l9.2,1.2C56,38.3,23.6,49.2,23.6,49.2l6.5,0.2L29.5,51.4z"/>
	<path d="M204.7,17.8l-5,1.9l-6.6-1.6c-8.9,16.4-31.6,18.7-31.6,18.7l9-0.1l-10.1,2.1C219.9,35.1,204.7,17.8,204.7,17.8z"/>
	<path d="M158.2,102.6l5.3,1.2l-4,1.7c44.3,1.7,51.4,7.2,51.4,7.2l-0.6-2.2l5.9,2.4C204.5,98.4,158.2,102.6,158.2,102.6z"/>
	<path d="M228.2,62.6l2.8-0.7l2.4,0.9c9-7,19.8-7.4,19.8-7.4l-4-0.2l5.1-0.6C226.9,54.5,228.2,62.6,228.2,62.6z"/>
	<path d="M40.6,60.4c-7.7-0.2-14.4,1.6-14.9,3.9s5.3,4.4,13,4.5c7.7,0.2,14.4-1.6,14.9-3.9C54.2,62.6,48.4,60.6,40.6,60.4z"/>
	<path d="M30.7,104.4c-5.6-0.1-10.4,1.2-10.8,2.9c-0.1,0.4,0.1,0.8,0.5,1.1c-15.9,2.5-11.9,8.3-11.9,8.3l2.4-0.8l2.9,0.8
		c2.6-3.6,6.4-5.7,9.7-6.8c1.6,0.4,3.6,0.7,5.9,0.7c5.6,0.1,10.4-1.2,10.8-2.9C40.5,106,36.3,104.6,30.7,104.4z"/>
	<path d="M159.8,83.1c0.4-1.7-3.8-3.2-9.4-3.3s-10.4,1.2-10.8,2.9c-0.4,1.7,3.8,3.2,9.4,3.3S159.4,84.7,159.8,83.1z"/>
	<path d="M96.1,25.7c-2.5-0.1-4.7,0.5-4.8,1.3c-0.2,0.8,1.7,1.4,4.2,1.5c2.5,0.1,4.7-0.5,4.8-1.3C100.4,26.4,98.6,25.7,96.1,25.7z"
		/>
	<path d="M121.3,135.8c-3.4-0.1-6.3,0.6-6.5,1.6s2.4,1.7,5.8,1.8c3.4,0.1,6.3-0.6,6.5-1.6S124.7,135.9,121.3,135.8z"/>
	<path d="M264.2,24.4c-6.8-0.1-12.7,1.4-13.1,3.5c-0.5,2.1,4.7,3.8,11.4,4c6.8,0.1,12.7-1.4,13.1-3.5
		C276.1,26.3,270.9,24.6,264.2,24.4z"/>
	<polygon points="229.5,123.1 245.6,123.4 248.6,110.3 232.5,109.9 	"/>
	<path d="M159.5,30.6l-2.3-0.9l3-0.7c-23-2.8-24.2-6.1-24.2-6.1l-0.7,1.2l-2-1.6C132.7,30.9,159.5,30.6,159.5,30.6z"/>
</g>
<g>
	<g>
		<path class="st2" d="M687.9,121.5c0,0,23.3-9.5-14.5-33.9l13.6,0.3l0.9-3.9c0,0,73,19,4.5,40.5l7.2-5.6L687.9,121.5z"/>
		<g>
			<path class="st1" d="M687.9,121.4c1.7-0.9,3.2-2.1,4.4-3.5c1.2-1.4,2-3.2,2.1-5c0.2-1.8-0.3-3.6-1-5.3c-0.8-1.7-1.8-3.2-3-4.7
				c-2.4-2.9-5.2-5.5-8.2-7.9c-3-2.4-6.1-4.7-9.2-6.8l-2-1.4l2.4,0.1c4.5,0.2,9.1,0.5,13.6,0.6l-0.3,0.3l0.9-3.9l0.1-0.3l0.3,0.1
				c3.2,0.9,6.3,1.8,9.4,2.9c3.1,1,6.2,2.2,9.2,3.5c3,1.3,6,2.8,8.8,4.7c1.4,1,2.7,2,3.9,3.2c1.2,1.2,2.3,2.7,2.9,4.4
				c0.7,1.7,0.7,3.7,0.1,5.5c-0.6,1.8-1.7,3.2-2.9,4.5c-2.4,2.5-5.3,4.3-8.3,5.8c-5.9,3.1-12.2,5.2-18.5,7l-4.2,1.2l3.5-2.6
				c2.4-1.8,4.9-3.6,7.3-5.4l0.5,1c-2,0.4-3.9,0.8-5.9,1.1c-2,0.4-3.9,0.7-5.9,1.1l-0.6,0.1L687.9,121.4z M687.9,121.4
				c1.9-0.5,3.9-1.1,5.8-1.6c1.9-0.5,3.9-1,5.8-1.5l2.4-0.6l-1.9,1.6c-2.3,1.9-4.7,3.9-7,5.8l-0.7-1.4c3.1-1,6.2-2.1,9.2-3.4
				c3-1.2,6-2.5,8.8-4.1c2.8-1.5,5.6-3.2,7.7-5.4c1.1-1.1,2-2.3,2.5-3.7c0.5-1.3,0.5-2.8,0-4.2c-0.5-1.4-1.4-2.6-2.4-3.8
				c-1.1-1.1-2.3-2.2-3.6-3.1c-2.6-1.9-5.4-3.5-8.3-5c-5.8-2.9-12-5.2-18.3-6.9l0.4-0.2l-0.9,3.9l-0.1,0.3l-0.3,0
				c-4.5,0-9.1,0.1-13.6,0.1l0.4-1.3c3.3,2,6.6,4.2,9.6,6.6c3,2.4,5.9,5.1,8.3,8.3c1.2,1.6,2.3,3.3,3,5.2c0.7,1.9,1.1,3.9,0.8,6
				c-0.3,2-1.3,3.9-2.7,5.3c-1.4,1.4-3.1,2.5-4.9,3.2L687.9,121.4z"/>
		</g>
	</g>
	<g>
		<path class="st2" d="M704.7,46.1c0,0-18.4-4.3-66.8,2.2l0.7-2.4l-7.7-0.2c0,0,38.4-12.9,79.6-0.3L699.7,44L704.7,46.1z"/>
		<g>
			<path class="st1" d="M704.7,46.2c-2.8-0.4-5.5-0.6-8.3-0.7c-2.8-0.1-5.6-0.2-8.3-0.1c-5.6,0.1-11.1,0.2-16.7,0.6
				c-5.6,0.3-11.1,0.7-16.7,1c-5.6,0.4-11.1,0.9-16.7,1.6l-0.5,0.1l0.1-0.5l0.7-2.4l0.3,0.4L631,46l-2.1,0l2-0.7
				c3.2-1,6.5-1.9,9.8-2.7c3.3-0.8,6.6-1.5,9.9-2c6.7-1.1,13.4-1.6,20.2-1.8c6.8-0.1,13.6,0.3,20.3,1.3c6.7,1,13.3,2.5,19.8,4.7
				l-0.3,1.3c-3.6-0.6-7.2-1.1-10.9-1.7l0.2-0.6l5.5,2.6L704.7,46.2z M704.7,46.2l-5.1-1.9l-2.1-0.8l2.3,0.2c3.7,0.3,7.3,0.7,10.9,1
				l-0.3,1.3c-6.5-1.8-13-3.1-19.6-3.9c-6.6-0.8-13.3-1.2-20-1.2c-6.7,0-13.4,0.5-20,1.3c-6.6,0.8-13.3,1.9-19.7,3.8l-0.1-0.7
				l7.7,0.3l0.4,0l-0.1,0.4l-0.7,2.4l-0.3-0.4c5.5-0.8,11.1-1.6,16.6-2.3c5.6-0.7,11.1-1.2,16.7-1.5c5.6-0.3,11.2-0.4,16.8-0.1
				c5.6,0.3,11.2,0.6,16.7,2L704.7,46.2z"/>
		</g>
	</g>
	<g>
		<path class="st2" d="M794.3,31c0,0,27-2.8,37.5-22.2l7.8,1.9l5.9-2.3c0,0,17.9,20.6-52.5,24.9l12-2.5L794.3,31z"/>
		<g>
			<path class="st1" d="M794.3,30.9c3.7-0.7,7.3-1.7,10.8-3c3.5-1.2,6.9-2.7,10.2-4.5c3.2-1.8,6.3-3.9,9-6.4c2.7-2.5,5.1-5.3,7-8.5
				l0.2-0.4l0.4,0.1c2.6,0.7,5.2,1.4,7.7,2.1l-0.2,0c2-0.7,3.9-1.4,5.9-2.2l0.2-0.1l0.1,0.2c0.9,1.2,1.6,2.5,1.9,3.9
				c0.3,1.4,0.3,2.9-0.1,4.3c-0.8,2.9-3,5.1-5.3,6.7c-2.3,1.7-4.9,3-7.6,4c-2.6,1.1-5.4,1.9-8.1,2.6c-11,2.8-22.3,4-33.5,4.4
				l-0.2-1.7c4-0.7,8-1.5,12-2.1l0.1,1.1c-1.8,0-3.5-0.1-5.3-0.1c-1.8-0.1-3.5-0.1-5.3-0.2l-0.9,0L794.3,30.9z M794.3,30.9
				c1.8-0.1,3.5-0.2,5.3-0.3c1.8-0.1,3.5-0.2,5.3-0.3l0.1,1.1c-4,1-7.9,1.9-11.9,2.8l-0.2-1.7c5.6-0.5,11.1-1,16.7-1.7
				c5.5-0.7,11.1-1.5,16.5-2.8c5.4-1.3,10.8-2.9,15.5-5.8c2.3-1.5,4.4-3.4,5.3-6c0.9-2.6,0.1-5.5-1.6-7.6l0.3,0.1
				c-2,0.8-3.9,1.5-5.9,2.3l-0.1,0l-0.1,0c-2.6-0.6-5.2-1.1-7.9-1.6l0.7-0.3c-1.7,3.4-4.1,6.6-6.9,9.2c-2.8,2.6-6,4.8-9.4,6.6
				c-3.4,1.8-7,3.2-10.6,4.2c-3.7,1-7.4,1.8-11.2,2L794.3,30.9z"/>
		</g>
	</g>
	<g>
		<path class="st2" d="M852.8,120.9c0,0-8.4-6.6-60.9-8.6l4.8-2l-6.2-1.4c0,0,54.8-5,68.7,12.2l-7-2.9L852.8,120.9z"/>
		<g>
			<path class="st1" d="M852.8,120.9c-2.3-1.2-4.8-1.7-7.3-2.3c-2.5-0.6-5-1-7.6-1.4c-5.1-0.8-10.2-1.4-15.3-1.9l-15.3-1.6
				c-5.1-0.5-10.3-0.9-15.4-1.1l-1.4,0l1.3-0.5l4.8-2l0.1,0.7c-2.1-0.4-4.2-0.9-6.3-1.3l-3-0.6l3-0.3c6-0.6,11.9-1,17.9-1.1
				c6-0.1,12,0.1,18,0.6c6,0.6,12,1.6,17.8,3.4c2.9,0.9,5.7,2,8.4,3.5c2.7,1.5,5.2,3.4,7,5.9l1.2,1.6l-1.8-0.8
				c-2.3-1-4.6-2.1-6.9-3.1l0.3-0.3l0.6,2.9L852.8,120.9z M852.6,120.6l-0.7-2.3l-0.1-0.4l0.4,0.2c2.4,0.9,4.8,1.7,7.1,2.6l-0.6,0.8
				c-1.9-2.2-4.4-3.8-7-5.1c-2.6-1.3-5.4-2.3-8.2-3.1c-5.7-1.6-11.5-2.5-17.4-3.1c-5.9-0.6-11.8-0.9-17.8-1
				c-5.9-0.1-11.9-0.1-17.9,0.3l0.1-0.9c2.1,0.5,4.1,1,6.2,1.5l1.1,0.2l-1,0.4l-4.8,1.9l-0.1-0.6c5.1,0.2,10.3,0.3,15.5,0.5
				c5.2,0.2,10.3,0.5,15.5,1c5.1,0.6,10.3,1.3,15.3,2.4c2.5,0.5,5.1,1.1,7.5,1.9c1.2,0.4,2.5,0.8,3.7,1.3
				C850.5,119.5,851.6,119.9,852.6,120.6z"/>
		</g>
	</g>
	<g>
		<path class="st2" d="M902.9,53c0,0-12.8,0.5-23.5,8.8l-2.9-1l-3.3,0.8c0,0-1.5-9.6,31-9.5l-6.1,0.8L902.9,53z"/>
		<g>
			<path class="st1" d="M903,53.1c-2.1,0.4-4.1,0.9-6.1,1.4c-2,0.6-4,1.2-5.9,2c-1.9,0.7-3.8,1.6-5.7,2.5c-1.9,0.9-3.7,1.9-5.4,3.1
				l-0.2,0.2l-0.2-0.1c-0.9-0.4-1.9-0.8-2.8-1.2l0.2,0c-1.1,0.3-2.2,0.5-3.3,0.8L873,62l0-0.3c-0.1-1.7,0.9-3,1.9-4.1
				c1.1-1.1,2.3-1.9,3.7-2.6c2.6-1.4,5.5-2.1,8.4-2.7c2.9-0.6,5.8-0.9,8.7-1.1c2.9-0.1,5.8-0.1,8.7,0l0.1,1.7
				c-2,0.2-4.1,0.3-6.1,0.4l0-1c0.8,0.1,1.6,0.2,2.4,0.3c0.8,0.1,1.6,0.2,2.4,0.3l0.6,0.1L903,53.1z M902.9,53.1
				c-0.8,0-1.6,0.1-2.4,0.1c-0.8,0-1.6,0.1-2.4,0.1l0-1c2-0.4,4-0.8,6-1.1l0.1,1.7c-2.9,0.1-5.7,0.2-8.5,0.5
				c-2.8,0.2-5.7,0.4-8.5,0.8c-2.8,0.4-5.6,1-8.2,2c-1.3,0.5-2.6,1.1-3.6,2c-0.5,0.4-1,0.9-1.3,1.5c-0.3,0.6-0.6,1.3-0.5,1.8
				l-0.4-0.3c1.1-0.3,2.2-0.6,3.3-0.9l0.1,0l0.1,0c1,0.3,1.9,0.6,2.9,0.9l-0.5,0.1c1.6-1.4,3.4-2.7,5.2-3.8c1.9-1.1,3.9-2,5.9-2.7
				c2-0.7,4.1-1.2,6.3-1.6c2.1-0.3,4.3-0.5,6.4-0.4L902.9,53.1z"/>
		</g>
	</g>
	<g>
		<path class="st3" d="M651.2,58.9c9.1,0.2,16.1,2.6,15.4,5.4c-0.6,2.8-8.5,4.9-17.7,4.7c-9.1-0.2-16.1-2.6-15.4-5.4
			S642,58.7,651.2,58.9z"/>
		<path d="M651.2,58.9c3,0.1,6.1,0.2,9.1,0.8c1.5,0.3,3,0.7,4.4,1.4c0.7,0.4,1.4,0.8,1.9,1.5c0.3,0.4,0.5,0.8,0.4,1.3
			c0,0.5-0.2,0.9-0.5,1.3c-0.5,0.7-1.2,1.1-1.9,1.5c-0.7,0.4-1.4,0.6-2.2,0.8c-1.5,0.4-3,0.7-4.5,1c-3,0.4-6.1,0.7-9.1,0.7
			c-3.1,0-6.1-0.2-9.1-0.9c-1.5-0.3-3-0.8-4.4-1.5c-0.7-0.4-1.4-0.8-2-1.6c-0.3-0.4-0.5-0.8-0.5-1.4c0-0.5,0.2-1,0.5-1.4
			c0.5-0.7,1.3-1.2,2-1.6c0.7-0.4,1.4-0.7,2.2-0.9c1.5-0.5,3-0.8,4.5-0.9C645.1,58.8,648.1,58.8,651.2,58.9z M651.2,59
			c-3-0.1-6.1,0.3-9,0.9c-1.5,0.3-2.9,0.7-4.3,1.2c-0.7,0.3-1.4,0.5-2,0.9c-0.6,0.3-1.2,0.8-1.6,1.3c-0.3,0.5-0.4,1,0,1.5
			c0.4,0.5,1,0.9,1.6,1.3c1.3,0.7,2.7,1.1,4.1,1.5c2.9,0.7,5.9,1.1,8.9,1.2c3,0.1,6.1,0,9-0.5c1.5-0.3,3-0.6,4.4-1.2
			c1.4-0.5,2.8-1.2,3.6-2.3c0.4-0.5,0.4-1.1,0-1.6c-0.4-0.5-1-0.9-1.6-1.3c-1.3-0.7-2.7-1.2-4.2-1.6C657.2,59.5,654.2,59,651.2,59z"
			/>
	</g>
	<g>
		<path class="st3" d="M639.4,111.1c6.6,0.1,11.6,1.9,11.2,3.9c-0.5,2-6.2,3.5-12.8,3.4c-6.6-0.1-11.6-1.9-11.2-3.9
			C627,112.5,632.8,111,639.4,111.1z"/>
		<path d="M639.4,111c2.2,0.1,4.4,0.1,6.6,0.5c1.1,0.2,2.2,0.5,3.2,1c0.5,0.3,1,0.6,1.4,1.1c0.2,0.3,0.4,0.6,0.3,1
			c0,0.1,0,0.2,0,0.3c0,0.2,0,0.2-0.1,0.2c-0.1,0.2-0.2,0.4-0.3,0.5c-0.4,0.5-0.9,0.8-1.5,1.1c-0.5,0.3-1.1,0.4-1.6,0.6
			c-1.1,0.3-2.2,0.5-3.3,0.7c-2.2,0.3-4.4,0.5-6.6,0.5c-2.2,0-4.4-0.1-6.6-0.6c-1.1-0.2-2.2-0.6-3.2-1.1c-0.5-0.3-1-0.6-1.5-1.2
			c-0.2-0.3-0.4-0.7-0.4-1.1c0-0.1,0-0.2,0-0.3c0,0,0,0,0-0.1l0,0l0-0.1c0.1-0.2,0.2-0.4,0.3-0.5c0.4-0.6,1-0.9,1.5-1.2
			c0.5-0.3,1.1-0.5,1.6-0.6c1.1-0.3,2.2-0.5,3.3-0.6C635,111,637.2,111,639.4,111z M639.4,111.1c-2.2,0-4.4,0.2-6.5,0.7
			c-1.1,0.2-2.1,0.5-3.1,0.9c-1,0.4-2,0.8-2.5,1.5c-0.1,0.1-0.1,0.1-0.1,0.2l0,0.1l0,0c0-0.1,0,0,0,0c0,0,0,0.1,0,0.1
			c0,0.1,0.1,0.3,0.2,0.5c0.2,0.3,0.7,0.6,1.1,0.9c0.9,0.5,1.9,0.8,3,1.1c2.1,0.5,4.3,0.8,6.4,0.9c2.2,0.1,4.4,0.1,6.5-0.3
			c1.1-0.2,2.1-0.5,3.1-0.9c1-0.4,2-0.9,2.5-1.6c0.1-0.1,0.1-0.1,0.1-0.2c0,0,0.1-0.2,0-0.2c0,0,0-0.1,0-0.1c0-0.2-0.1-0.3-0.2-0.5
			c-0.3-0.3-0.7-0.6-1.1-0.9c-0.9-0.5-1.9-0.9-3-1.2C643.8,111.5,641.6,111.2,639.4,111.1z"/>
	</g>
	<g>
		<path class="st3" d="M781.1,81.9c6.6,0.1,11.6,1.9,11.2,3.9c-0.5,2-6.2,3.5-12.8,3.4s-11.6-1.9-11.2-3.9
			C768.7,83.3,774.5,81.8,781.1,81.9z"/>
		<path d="M781.1,81.8c2.2,0.1,4.4,0.1,6.6,0.5c1.1,0.2,2.2,0.5,3.2,1c0.5,0.3,1,0.6,1.4,1.1c0.2,0.3,0.4,0.6,0.3,1
			c0,0.1,0,0.2,0,0.3c0,0.2,0,0.2-0.1,0.2c-0.1,0.2-0.2,0.4-0.3,0.5c-0.4,0.5-0.9,0.8-1.5,1.1c-0.5,0.3-1.1,0.4-1.6,0.6
			c-1.1,0.3-2.2,0.5-3.3,0.7c-2.2,0.3-4.4,0.5-6.6,0.5c-2.2,0-4.4-0.1-6.6-0.6c-1.1-0.2-2.2-0.6-3.2-1.1c-0.5-0.3-1-0.6-1.5-1.2
			c-0.2-0.3-0.4-0.7-0.4-1.1c0-0.1,0-0.2,0-0.3c0,0,0,0,0-0.1l0,0l0-0.1c0.1-0.2,0.2-0.4,0.3-0.5c0.4-0.6,1-0.9,1.5-1.2
			c0.5-0.3,1.1-0.5,1.6-0.6c1.1-0.3,2.2-0.5,3.3-0.6C776.7,81.8,778.9,81.8,781.1,81.8z M781.1,81.9c-2.2,0-4.4,0.2-6.5,0.7
			c-1.1,0.2-2.1,0.5-3.1,0.9c-1,0.4-2,0.8-2.5,1.5c-0.1,0.1-0.1,0.1-0.1,0.2l0,0.1l0,0c0-0.1,0,0,0,0c0,0,0,0.1,0,0.1
			c0,0.1,0.1,0.3,0.2,0.5c0.2,0.3,0.7,0.6,1.1,0.9c0.9,0.5,1.9,0.8,3,1.1c2.1,0.5,4.3,0.8,6.4,0.9c2.2,0.1,4.4,0.1,6.5-0.3
			c1.1-0.2,2.1-0.5,3.1-0.9c1-0.4,2-0.9,2.5-1.6c0.1-0.1,0.1-0.1,0.1-0.2c0,0,0.1-0.2,0-0.1c0,0,0-0.1,0-0.1c0-0.2-0.1-0.3-0.2-0.5
			c-0.3-0.3-0.7-0.6-1.1-0.9c-0.9-0.5-1.9-0.9-3-1.2C785.5,82.3,783.3,82,781.1,81.9z"/>
	</g>
	<g>
		<path class="st3" d="M716.8,17.8c3,0.1,5.2,0.8,5,1.7s-2.8,1.6-5.7,1.5c-3-0.1-5.2-0.8-5-1.7C711.3,18.4,713.9,17.7,716.8,17.8z"
			/>
		<path d="M716.8,17.7c1,0,2,0,3,0.1c0.5,0.1,1,0.2,1.5,0.4c0.3,0.1,0.5,0.3,0.7,0.6c0.1,0.1,0.2,0.4,0.2,0.6c0,0.1,0,0.1,0,0.2
			c0,0.1,0,0.1,0,0.1c0,0.1-0.1,0.2-0.2,0.3c-0.5,0.5-1,0.6-1.5,0.8c-0.5,0.1-1,0.2-1.5,0.2c-1,0.1-2,0.2-3,0.3c-1,0.1-2,0.1-3-0.2
			c-0.5-0.1-1-0.2-1.5-0.5c-0.3-0.1-0.5-0.3-0.8-0.6c-0.1-0.2-0.2-0.4-0.2-0.6c0-0.1,0-0.1,0-0.2c0,0,0,0,0-0.1l0,0l0,0
			c0-0.1,0.1-0.2,0.2-0.3c0.5-0.6,1-0.7,1.5-0.9c0.5-0.1,1-0.2,1.5-0.2C714.9,17.6,715.8,17.7,716.8,17.7z M716.8,17.8
			c-1,0-2,0.2-2.9,0.5c-0.5,0.1-0.9,0.3-1.3,0.5c-0.4,0.2-0.9,0.4-1,0.6c0,0,0,0,0,0l0,0l0,0c0-0.1,0,0,0,0c0,0,0,0,0,0c0,0,0,0,0,0
			c0.1,0.1,0.2,0.2,0.4,0.3c0.4,0.2,0.8,0.4,1.2,0.5c0.9,0.2,1.9,0.4,2.8,0.5c1,0.1,2,0.1,2.9-0.1c0.5-0.1,0.9-0.2,1.4-0.4
			c0.4-0.2,0.9-0.5,1-0.7c0,0,0,0,0,0c0,0,0-0.1,0,0c0,0,0,0,0,0c0,0,0,0,0-0.1c-0.1-0.1-0.2-0.2-0.4-0.3c-0.4-0.2-0.8-0.4-1.3-0.6
			C718.8,18.1,717.8,17.8,716.8,17.8z"/>
	</g>
	<g>
		<path class="st3" d="M746.7,148.2c4,0.1,7.1,1,6.9,2.1s-3.7,1.9-7.8,1.8c-4-0.1-7.1-1-6.9-2.1S742.7,148.1,746.7,148.2z"/>
		<path d="M746.7,148.2c1.3,0,2.7,0,4,0.2c0.7,0.1,1.4,0.2,2,0.5c0.3,0.1,0.7,0.3,1,0.6c0.1,0.2,0.3,0.4,0.3,0.7
			c0,0.3-0.1,0.6-0.3,0.8c-0.6,0.6-1.3,0.8-2,0.9c-0.7,0.1-1.3,0.2-2,0.3c-1.3,0.2-2.6,0.3-4,0.3c-1.3,0.1-2.7,0-4-0.2
			c-0.7-0.1-1.3-0.3-2-0.6c-0.3-0.1-0.7-0.3-1-0.7c-0.2-0.2-0.3-0.4-0.4-0.7c0-0.3,0.1-0.6,0.3-0.8c0.3-0.4,0.7-0.6,1-0.7
			c0.3-0.2,0.7-0.3,1-0.3c0.7-0.2,1.4-0.2,2-0.3C744.1,148,745.4,148.1,746.7,148.2z M746.7,148.3c-1.3,0-2.6,0.2-3.9,0.5
			c-0.6,0.2-1.3,0.3-1.8,0.5c-0.6,0.2-1.2,0.5-1.4,0.8c0,0.1-0.1,0,0,0.2c0.1,0.1,0.4,0.3,0.6,0.4c0.5,0.3,1.2,0.4,1.8,0.6
			c1.2,0.3,2.5,0.5,3.8,0.6c1.3,0.1,2.6,0.1,3.9-0.1c0.6-0.1,1.3-0.3,1.9-0.5c0.6-0.2,1.2-0.5,1.5-0.9c0.1-0.2,0.1-0.2-0.1-0.3
			c-0.2-0.2-0.4-0.3-0.7-0.4c-0.5-0.3-1.2-0.5-1.8-0.7C749.4,148.5,748.1,148.3,746.7,148.3z"/>
	</g>
	<g>
		<path class="st3" d="M915.9,16.3c8,0.2,14.1,2.3,13.6,4.7c-0.5,2.4-7.5,4.3-15.5,4.1s-14.1-2.3-13.6-4.7
			C900.9,18,907.9,16.1,915.9,16.3z"/>
		<path d="M915.9,16.3c2.7,0.1,5.3,0.2,8,0.7c1.3,0.3,2.7,0.6,3.9,1.2c0.6,0.3,1.2,0.7,1.7,1.4c0.2,0.3,0.4,0.7,0.4,1.2
			c0,0.1,0,0.2,0,0.3c0,0.2-0.1,0.2-0.1,0.3c-0.1,0.2-0.2,0.4-0.3,0.6c-0.5,0.6-1.1,1-1.7,1.3c-0.6,0.3-1.3,0.5-1.9,0.7
			c-1.3,0.4-2.6,0.6-4,0.8c-2.7,0.4-5.3,0.6-8,0.6c-2.7,0-5.4-0.1-8-0.7c-1.3-0.3-2.6-0.7-3.9-1.3c-0.6-0.3-1.3-0.7-1.7-1.4
			c-0.2-0.3-0.4-0.8-0.4-1.2c0-0.1,0-0.2,0-0.3c0,0,0,0,0-0.1l0-0.1l0-0.1c0.1-0.2,0.2-0.4,0.3-0.6c0.5-0.7,1.1-1,1.7-1.4
			c0.6-0.3,1.3-0.6,1.9-0.8c1.3-0.4,2.6-0.7,4-0.8C910.6,16.2,913.2,16.2,915.9,16.3z M915.9,16.4c-2.7-0.1-5.3,0.2-7.9,0.8
			c-1.3,0.3-2.6,0.6-3.8,1.1c-1.2,0.5-2.5,1-3.1,1.9c-0.1,0.1-0.1,0.2-0.2,0.3l0,0.1l0,0.1c0-0.1,0,0,0,0c0,0.1,0,0.1,0,0.2
			c0,0.2,0.1,0.4,0.2,0.6c0.3,0.4,0.8,0.8,1.4,1.1c1.1,0.6,2.4,1,3.6,1.3c2.5,0.6,5.2,0.9,7.8,1.1c2.7,0.1,5.3,0,7.9-0.4
			c1.3-0.2,2.6-0.6,3.8-1c1.2-0.5,2.5-1.1,3.1-2c0.1-0.1,0.1-0.2,0.2-0.3c0-0.1,0.1-0.2,0-0.2c0-0.1,0-0.1,0-0.2
			c0-0.2-0.1-0.5-0.3-0.7c-0.3-0.4-0.9-0.8-1.4-1.1c-1.1-0.6-2.4-1-3.6-1.4C921.2,16.8,918.6,16.4,915.9,16.4z"/>
	</g>
	<g>
		<polygon class="st3" points="897.5,118 893.9,133.6 874.9,133.2 878.4,117.6 		"/>
		<path d="M897.5,118c-0.4,2.6-0.9,5.2-1.4,7.9c-0.6,2.6-1.1,5.2-1.7,7.8l-0.1,0.3l-0.3,0c-1.6,0-3.2-0.1-4.8-0.2
			c-1.6-0.1-3.2-0.2-4.8-0.2c-3.2-0.1-6.4-0.1-9.5-0.1l-0.3,0l0.1-0.3c0.5-2.6,1-5.2,1.6-7.8c0.6-2.6,1.1-5.2,1.7-7.8l0.1-0.4l0.4,0
			c3.2,0.1,6.4,0.2,9.5,0.3c1.6,0.1,3.2,0.2,4.8,0.2C894.3,117.7,895.9,117.8,897.5,118L897.5,118L897.5,118z M897.4,118
			c-1.6,0-3.1,0.1-4.7,0.1c-1.6,0-3.2,0.1-4.8,0c-3.2,0-6.4,0-9.5-0.1l0.5-0.4c-0.6,2.6-1.2,5.2-1.8,7.8c-0.6,2.6-1.3,5.2-1.9,7.8
			l-0.3-0.3c3.2,0.2,6.4,0.3,9.5,0.3c1.6,0,3.2,0,4.8,0c1.6,0,3.2,0,4.8,0l-0.4,0.3c0.5-2.6,1.2-5.2,1.8-7.8
			C896,123.1,896.7,120.6,897.4,118z"/>
	</g>
	<g>
		<path class="st2" d="M637.8,115.8c0,0-12.4,1.1-18.6,9.8l-3.4-0.9l-2.8,1c0,0-6.6-9.4,25.6-10.9l-5.6,1L637.8,115.8z"/>
		<g>
			<path class="st1" d="M637.9,115.9c-1.7,0.4-3.5,1-5.1,1.6c-1.7,0.6-3.3,1.3-4.8,2.1c-1.6,0.8-3,1.7-4.4,2.8
				c-1.4,1-2.7,2.2-3.8,3.5l-0.3,0.3l-0.3-0.1c-1.1-0.4-2.2-0.8-3.3-1.1l0.2,0c-1,0.3-1.9,0.6-2.8,0.9l-0.2,0.1l-0.1-0.2
				c-0.8-1.2-0.8-2.8-0.2-4.1c0.6-1.3,1.7-2.3,2.8-3c2.3-1.5,4.9-2.4,7.4-3.1c2.6-0.6,5.2-1.1,7.8-1.4c2.6-0.3,5.3-0.4,7.9-0.4
				l0.2,1.7L636,116l-2.8,0.3l-0.1-1.1c0.8,0.1,1.6,0.1,2.4,0.2c0.8,0.1,1.6,0.1,2.4,0.2l0.5,0.1L637.9,115.9z M637.8,115.9
				c-0.8,0.1-1.6,0.2-2.4,0.2c-0.8,0.1-1.6,0.1-2.4,0.2l-0.1-1.1l2.8-0.7l2.8-0.7l0.2,1.7c-2.6,0.2-5.2,0.5-7.7,0.8
				c-2.6,0.3-5.1,0.6-7.6,1.1c-2.5,0.5-5,1.1-7.2,2.3c-1.1,0.6-2.1,1.3-2.8,2.3c-0.3,0.5-0.5,1.1-0.5,1.7c0,0.6,0.2,1.2,0.5,1.7
				l-0.3-0.1c0.9-0.3,1.9-0.7,2.8-1l0.1,0l0.1,0c1.1,0.3,2.3,0.5,3.4,0.7l-0.6,0.2c1-1.6,2.2-3,3.6-4.2c1.4-1.2,3.1-2.2,4.7-2.9
				c1.7-0.8,3.4-1.4,5.2-1.8c1.8-0.4,3.6-0.6,5.4-0.6L637.8,115.9z"/>
		</g>
	</g>
	<g>
		<path class="st2" d="M764.1,14.6c0,0,1.4,3.9,28.6,7.2l-3.5,0.9l2.7,1c0,0-31.8,0.3-31.1-9.5l2.4,1.8L764.1,14.6z"/>
		<g>
			<path class="st1" d="M764.2,14.5c0.4,0.4,1,0.7,1.5,0.9c0.6,0.2,1.1,0.5,1.7,0.6c1.2,0.4,2.3,0.7,3.5,1c2.4,0.6,4.8,1.1,7.2,1.5
				c2.4,0.5,4.8,1,7.3,1.5c2.4,0.5,4.9,1,7.3,1.3l1.7,0.2l-1.7,0.4c-1.2,0.3-2.3,0.6-3.5,0.9l0-0.7c0.9,0.3,1.8,0.6,2.7,0.9l2.4,0.8
				l-2.6,0.1c-2.9,0.1-5.8,0.2-8.7,0.1c-2.9-0.1-5.8-0.4-8.7-0.8c-2.9-0.5-5.8-1.2-8.6-2.4c-1.4-0.6-2.7-1.4-3.9-2.5
				c-0.6-0.6-1.1-1.2-1.4-2c-0.3-0.8-0.4-1.6-0.3-2.4l0.1-0.9l0.7,0.6c0.8,0.7,1.5,1.4,2.3,2l-0.4,0.1c0.3-0.5,0.7-0.9,1-1.3
				l0.1-0.1L764.2,14.5z M764.1,14.8c-0.2,0.5-0.4,0.9-0.7,1.4l-0.1,0.2l-0.3-0.2c-0.9-0.5-1.7-1.1-2.6-1.7l0.8-0.4
				c0,1.3,0.7,2.4,1.7,3.2c1,0.8,2.3,1.4,3.6,1.9c2.6,1,5.4,1.5,8.2,2c2.8,0.5,5.6,0.9,8.5,1.1c2.9,0.3,5.7,0.6,8.6,0.7l-0.2,0.9
				c-0.9-0.4-1.8-0.8-2.7-1.1l-1.1-0.4l1.1-0.2c1.2-0.2,2.3-0.5,3.5-0.8l0,0.6c-2.5-0.3-5-0.5-7.5-0.7c-2.5-0.2-5-0.5-7.4-1
				c-2.4-0.5-4.9-1.1-7.3-2c-1.2-0.4-2.4-0.9-3.5-1.5c-0.6-0.3-1.1-0.6-1.6-1C764.9,15.7,764.5,15.3,764.1,14.8z"/>
		</g>
	</g>
</g>
<g>
	<g>
		<path class="st2" d="M71.4,111.6c0,0,19.7-8-12.3-28.6l11.5,0.2l0.8-3.3c0,0,61.7,16.1,3.8,34.2l6.1-4.7L71.4,111.6z"/>
		<g>
			<path class="st1" d="M71.4,111.5c1.4-0.8,2.7-1.8,3.7-3c1-1.2,1.6-2.7,1.7-4.2c0.1-1.5-0.2-3-0.9-4.4c-0.6-1.4-1.5-2.7-2.5-3.9
				c-2-2.5-4.4-4.6-6.9-6.6c-2.5-2-5.1-3.9-7.8-5.8l-2-1.4l2.4,0.1c3.8,0.2,7.7,0.5,11.5,0.6l-0.3,0.3l0.8-3.3l0.1-0.3l0.3,0.1
				c2.7,0.7,5.3,1.6,8,2.5c2.6,0.9,5.2,1.8,7.8,2.9c2.6,1.1,5.1,2.3,7.4,4c2.3,1.6,4.7,3.5,5.8,6.5c0.6,1.5,0.6,3.2,0.1,4.7
				c-0.5,1.5-1.4,2.8-2.4,3.8c-2.1,2.1-4.5,3.6-7,5c-5,2.6-10.3,4.4-15.7,5.9l-4.2,1.2l3.5-2.6c2.1-1.5,4.1-3,6.2-4.5l0.5,1
				c-1.7,0.3-3.3,0.6-5,0.9c-1.7,0.3-3.3,0.6-5,0.9l-0.6,0.1L71.4,111.5z M71.4,111.5c1.6-0.5,3.3-0.9,4.9-1.4
				c1.6-0.5,3.3-0.9,4.9-1.3l2.4-0.6l-1.9,1.6c-2,1.6-3.9,3.3-5.9,4.9l-0.7-1.4c5.2-1.8,10.4-3.7,15.1-6.3c2.4-1.3,4.7-2.7,6.5-4.5
				c0.9-0.9,1.7-1.9,2.1-3c0.4-1.1,0.4-2.3,0-3.4c-0.4-1.1-1.1-2.2-2-3.2c-0.9-1-1.9-1.8-3-2.6c-2.2-1.6-4.5-3-7-4.2
				c-4.9-2.5-10.1-4.4-15.4-5.9l0.4-0.2L71,83.3l-0.1,0.3l-0.3,0c-3.8,0-7.7,0.1-11.5,0.1l0.4-1.3c2.8,1.7,5.6,3.5,8.1,5.6
				c2.6,2.1,5,4.3,7,7c1,1.3,1.9,2.8,2.5,4.4c0.6,1.6,1,3.4,0.7,5.1c-0.2,1.7-1.1,3.3-2.3,4.5c-1.2,1.2-2.6,2.1-4.2,2.7L71.4,111.5z
				"/>
		</g>
	</g>
	<g>
		<path class="st2" d="M85.6,47.9c0,0-15.5-3.6-56.4,1.8l0.6-2.1l-6.5-0.2c0,0,32.4-10.9,67.2-0.2l-9.2-1.2L85.6,47.9z"/>
		<g>
			<path class="st1" d="M85.6,48c-2.3-0.3-4.7-0.4-7-0.5c-2.3-0.1-4.7-0.1-7-0.1c-4.7,0-9.4,0.2-14.1,0.5l-14.1,0.8
				c-4.7,0.3-9.4,0.7-14.1,1.3l-0.5,0.1l0.1-0.5l0.6-2.1l0.3,0.4c-2.2-0.1-4.3-0.1-6.5-0.1l-2.1,0l2-0.7c2.7-0.9,5.5-1.7,8.2-2.3
				c2.8-0.7,5.6-1.3,8.4-1.7c5.6-0.9,11.4-1.4,17.1-1.5c5.7-0.1,11.5,0.2,17.1,1.1c5.7,0.8,11.3,2.1,16.7,4l-0.3,1.3
				c-3.1-0.5-6.1-0.9-9.2-1.5l0.2-0.6c1.4,0.7,2.8,1.3,4.2,2l0.5,0.3L85.6,48z M85.6,48c-1.5-0.5-2.9-1.1-4.3-1.6l-2.1-0.8l2.3,0.2
				c3.1,0.2,6.2,0.5,9.2,0.8l-0.3,1.3c-5.5-1.5-11-2.6-16.6-3.2c-5.6-0.7-11.2-1-16.8-1c-5.6,0-11.3,0.4-16.9,1
				c-5.6,0.7-11.2,1.6-16.6,3.2l-0.1-0.7c2.2,0.1,4.3,0.2,6.5,0.2l0.4,0l-0.1,0.4l-0.6,2.1l-0.3-0.4c4.7-0.6,9.3-1.4,14-2
				c4.7-0.6,9.4-1.1,14.1-1.3c4.7-0.2,9.5-0.3,14.2-0.1c4.7,0.2,9.5,0.6,14.1,1.7L85.6,48z"/>
		</g>
	</g>
	<g>
		<path class="st2" d="M161.3,35.2c0,0,22.8-2.4,31.6-18.7l6.6,1.6l5-1.9c0,0,15.1,17.4-44.3,21l10.1-2.1L161.3,35.2z"/>
		<g>
			<path class="st1" d="M161.3,35.1c3.1-0.6,6.1-1.5,9.1-2.6c3-1.1,5.8-2.3,8.5-3.9c2.7-1.5,5.3-3.3,7.6-5.4
				c2.3-2.1,4.3-4.4,5.9-7.1l0.2-0.4l0.4,0.1c2.2,0.6,4.3,1.2,6.5,1.8l-0.2,0c1.7-0.6,3.3-1.2,5-1.8l0.2-0.1l0.1,0.2
				c1.5,1.9,2.3,4.6,1.6,7c-0.7,2.4-2.5,4.3-4.5,5.7c-2,1.4-4.2,2.5-6.4,3.4c-2.2,0.9-4.5,1.6-6.9,2.2c-9.3,2.4-18.8,3.4-28.3,3.7
				l-0.2-1.7c3.4-0.6,6.8-1.2,10.2-1.8l0.1,1.1c-1.5,0-3-0.1-4.5-0.1c-1.5-0.1-3-0.1-4.5-0.2l-0.8,0L161.3,35.1z M161.3,35.1
				c1.5-0.1,3-0.2,4.5-0.3c1.5-0.1,3-0.2,4.5-0.2l0.1,1.1c-3.3,0.8-6.7,1.6-10,2.4l-0.2-1.7c4.7-0.4,9.4-0.9,14.1-1.5
				c4.7-0.6,9.3-1.3,13.9-2.3c4.5-1.1,9.1-2.4,13-4.8c1.9-1.2,3.7-2.8,4.4-5c0.7-2.1,0.1-4.6-1.3-6.4l0.3,0.1
				c-1.7,0.6-3.3,1.3-4.9,2l-0.1,0l-0.1,0c-2.2-0.5-4.4-0.9-6.6-1.3l0.7-0.3c-1.4,2.9-3.4,5.6-5.8,7.8c-2.4,2.2-5.1,4.1-8,5.6
				c-2.9,1.5-5.9,2.7-9,3.5c-3.1,0.8-6.3,1.4-9.4,1.6L161.3,35.1z"/>
		</g>
	</g>
	<g>
		<path class="st2" d="M210.6,111c0,0-7.1-5.5-51.4-7.2l4-1.7L158,101c0,0,46.3-4.3,58,10.3l-5.9-2.4L210.6,111z"/>
		<g>
			<path class="st1" d="M210.6,111.1c-1.9-0.9-4.1-1.4-6.2-1.9c-2.1-0.5-4.2-0.8-6.4-1.2c-4.3-0.6-8.6-1.2-12.9-1.6l-12.9-1.4
				c-4.3-0.4-8.7-0.8-13-1l-1.4,0l1.3-0.5l4-1.7l0.1,0.6c-1.8-0.4-3.5-0.7-5.3-1.1l-2.9-0.6l3-0.3c5-0.5,10.1-0.9,15.2-1
				c5.1-0.1,10.1,0.1,15.2,0.5c5.1,0.5,10.1,1.3,15,2.9c2.4,0.8,4.9,1.7,7.1,3c2.3,1.3,4.4,2.9,5.9,5l1.2,1.6l-1.8-0.8
				c-1.9-0.9-3.9-1.8-5.8-2.7l0.3-0.3l0.5,2.4L210.6,111.1z M210.5,110.8l-0.6-1.9l-0.1-0.4l0.5,0.2c2,0.7,4,1.4,6,2.2l-0.6,0.8
				c-1.6-1.8-3.7-3.2-5.9-4.3c-2.2-1.1-4.5-1.9-6.9-2.6c-4.8-1.3-9.7-2.1-14.7-2.6c-5-0.6-10-0.8-15-0.9c-5-0.1-10.1-0.1-15.1,0.2
				l0.1-0.9c1.7,0.4,3.5,0.9,5.2,1.3l1,0.2l-0.9,0.4l-4.1,1.6l-0.1-0.6c4.3,0.2,8.7,0.2,13.1,0.3c4.4,0.1,8.7,0.3,13.1,0.8
				c4.3,0.5,8.7,1.1,12.9,2c2.1,0.4,4.3,1,6.4,1.6c1,0.3,2.1,0.7,3.1,1.1C208.7,109.8,209.6,110.2,210.5,110.8z"/>
		</g>
	</g>
	<g>
		<path class="st2" d="M253,53.8c0,0-10.8,0.4-19.8,7.4l-2.4-0.9l-2.8,0.7c0,0-1.3-8.1,26.2-8l-5.1,0.6L253,53.8z"/>
		<g>
			<path class="st1" d="M253,53.9c-3.5,0.7-6.9,1.7-10.2,3c-1.6,0.6-3.2,1.4-4.8,2.1c-1.6,0.7-3.1,1.6-4.6,2.6l-0.3,0.2l-0.2-0.1
				c-0.8-0.4-1.6-0.7-2.4-1l0.2,0c-0.9,0.2-1.9,0.4-2.8,0.7l-0.4,0.1l0-0.3c-0.1-1.5,0.7-2.6,1.6-3.5c0.9-0.9,2-1.6,3.1-2.2
				c2.2-1.2,4.7-1.8,7.1-2.3c2.4-0.5,4.9-0.8,7.3-0.9c2.5-0.1,4.9-0.1,7.3,0l0.1,1.7c-1.7,0.1-3.4,0.2-5.2,0.3l0-1
				c0.7,0.1,1.3,0.2,2,0.3s1.3,0.2,2,0.3l0.5,0.1L253,53.9z M253,53.9c-0.7,0.1-1.3,0.1-2,0.1c-0.7,0-1.3,0.1-2,0.1l0-1
				c1.7-0.3,3.4-0.7,5.1-1l0.1,1.7c-2.4,0.1-4.8,0.2-7.2,0.4c-2.4,0.2-4.8,0.3-7.1,0.7c-2.3,0.4-4.7,0.8-6.9,1.6
				c-1.1,0.4-2.2,0.9-3.1,1.6c-0.4,0.4-0.8,0.8-1.1,1.3c-0.3,0.5-0.5,1.1-0.5,1.5l-0.4-0.3c0.9-0.2,1.9-0.5,2.8-0.7l0.1,0l0.1,0
				c0.8,0.3,1.6,0.5,2.5,0.8l-0.5,0.1c1.4-1.2,2.8-2.3,4.4-3.3c1.6-1,3.3-1.7,5-2.3c1.7-0.6,3.5-1,5.3-1.3c1.8-0.3,3.6-0.4,5.4-0.3
				L253,53.9z"/>
		</g>
	</g>
	<g>
		<path class="st3" d="M40.4,58.7c7.7,0.2,13.6,2.2,13,4.5c-0.5,2.3-7.2,4.1-14.9,3.9c-7.7-0.2-13.6-2.2-13-4.5S32.7,58.6,40.4,58.7
			z"/>
		<path d="M40.4,58.7c2.6,0.1,5.1,0.2,7.7,0.6c1.3,0.2,2.6,0.6,3.8,1.2c0.6,0.3,1.2,0.7,1.6,1.3c0.2,0.3,0.4,0.7,0.4,1.1
			c0,0.1,0,0.2,0,0.3c0,0.2-0.1,0.2-0.1,0.3c-0.1,0.2-0.2,0.4-0.3,0.5c-0.5,0.6-1.1,1-1.7,1.3c-0.6,0.3-1.2,0.5-1.8,0.7
			c-1.3,0.4-2.5,0.6-3.8,0.8c-2.5,0.4-5.1,0.6-7.7,0.6c-2.6,0-5.2-0.1-7.7-0.7c-1.3-0.3-2.5-0.6-3.8-1.3c-0.6-0.3-1.2-0.7-1.7-1.3
			c-0.2-0.3-0.4-0.7-0.4-1.2c0-0.1,0-0.2,0-0.3c0,0,0,0,0-0.1l0-0.1l0-0.1c0.1-0.2,0.2-0.4,0.3-0.6c0.5-0.6,1.1-1,1.7-1.3
			c0.6-0.3,1.2-0.6,1.9-0.7c1.3-0.4,2.5-0.6,3.8-0.8C35.2,58.6,37.8,58.6,40.4,58.7z M40.4,58.8c-2.6-0.1-5.1,0.2-7.6,0.8
			c-1.2,0.3-2.5,0.6-3.6,1c-1.1,0.4-2.4,1-3,1.8c-0.1,0.1-0.1,0.2-0.1,0.3l0,0.1l0,0.1c0-0.1,0,0,0,0c0,0,0,0.1,0,0.1
			c0,0.2,0.1,0.4,0.2,0.6c0.3,0.4,0.8,0.7,1.3,1c1.1,0.6,2.3,1,3.5,1.3c2.4,0.6,5,0.9,7.5,1.1c2.5,0.1,5.1,0,7.6-0.4
			c1.3-0.2,2.5-0.5,3.7-1c1.1-0.4,2.4-1,3-1.9c0.1-0.1,0.1-0.2,0.2-0.3c0-0.1,0.1-0.2,0-0.2c0-0.1,0-0.1,0-0.2
			c0-0.2-0.1-0.4-0.2-0.6c-0.3-0.4-0.8-0.8-1.3-1.1c-1.1-0.6-2.3-1-3.5-1.4C45.5,59.2,42.9,58.8,40.4,58.8z"/>
	</g>
	<g>
		<path class="st3" d="M30.4,102.8c5.6,0.1,9.8,1.6,9.4,3.3c-0.4,1.7-5.2,3-10.8,2.9c-5.6-0.1-9.8-1.6-9.4-3.3
			C20,103.9,24.8,102.7,30.4,102.8z"/>
		<path d="M30.4,102.7c1.9,0.1,3.7,0.1,5.6,0.4c0.9,0.2,1.9,0.4,2.8,0.8c0.4,0.2,0.9,0.5,1.2,1c0.2,0.2,0.3,0.6,0.3,0.9
			c0,0.1,0,0.2,0,0.3c0,0.2,0,0.1-0.1,0.2c-0.1,0.1-0.1,0.3-0.2,0.4c-0.8,0.9-1.7,1.1-2.6,1.4c-0.9,0.3-1.8,0.4-2.8,0.5
			c-1.8,0.3-3.7,0.4-5.6,0.5c-1.9,0.1-3.8-0.1-5.6-0.5c-0.9-0.2-1.9-0.5-2.8-0.9c-0.4-0.2-0.9-0.5-1.3-1c-0.2-0.2-0.3-0.6-0.3-1
			c0-0.1,0-0.2,0-0.3c0,0,0,0,0-0.1l0,0l0-0.1c0-0.1,0.2-0.3,0.2-0.5c0.4-0.5,0.8-0.8,1.3-1c0.4-0.2,0.9-0.4,1.4-0.5
			c0.9-0.3,1.9-0.4,2.8-0.5C26.7,102.6,28.6,102.7,30.4,102.7z M30.4,102.8c-1.9,0-3.7,0.2-5.5,0.6c-0.9,0.2-1.8,0.5-2.6,0.8
			c-0.8,0.3-1.7,0.7-2.1,1.3c-0.1,0.1-0.1,0.1-0.1,0.2l0,0.1l0,0c0-0.1,0,0,0,0c0,0,0,0.1,0,0.1c0,0.1,0,0.2,0.1,0.3
			c0.2,0.3,0.5,0.5,0.9,0.7c0.7,0.4,1.6,0.7,2.5,0.9c1.8,0.4,3.6,0.7,5.4,0.8c1.8,0.1,3.7,0.1,5.5-0.3c0.9-0.2,1.8-0.4,2.6-0.8
			c0.8-0.3,1.7-0.8,2.1-1.4c0.1-0.1,0.1-0.1,0.1-0.2c0,0,0-0.2,0-0.1c0,0,0-0.1,0-0.1c0-0.1-0.1-0.3-0.2-0.4
			c-0.2-0.3-0.6-0.5-0.9-0.7c-0.8-0.4-1.6-0.7-2.5-1C34.1,103.2,32.3,102.9,30.4,102.8z"/>
	</g>
	<g>
		<path class="st3" d="M150.1,78.1c5.6,0.1,9.8,1.6,9.4,3.3c-0.4,1.7-5.2,3-10.8,2.9s-9.8-1.6-9.4-3.3
			C139.7,79.3,144.5,78,150.1,78.1z"/>
		<path d="M150.1,78.1c1.9,0.1,3.7,0.1,5.6,0.4c0.9,0.2,1.9,0.4,2.8,0.8c0.4,0.2,0.9,0.5,1.2,1c0.2,0.2,0.3,0.6,0.3,0.9
			c0,0.1,0,0.2,0,0.3c0,0.2,0,0.1-0.1,0.2c-0.1,0.1-0.1,0.3-0.2,0.4c-0.8,0.9-1.7,1.1-2.6,1.4c-0.9,0.3-1.8,0.4-2.8,0.5
			c-1.8,0.3-3.7,0.4-5.6,0.5c-1.9,0.1-3.8-0.1-5.6-0.5c-0.9-0.2-1.9-0.5-2.8-0.9c-0.4-0.2-0.9-0.5-1.3-1c-0.2-0.2-0.3-0.6-0.3-1
			c0-0.1,0-0.2,0-0.3c0,0,0,0,0-0.1l0,0l0-0.1c0-0.1,0.2-0.3,0.2-0.5c0.4-0.5,0.8-0.8,1.3-1c0.4-0.2,0.9-0.4,1.4-0.5
			c0.9-0.3,1.9-0.4,2.8-0.5C146.4,78,148.2,78,150.1,78.1z M150.1,78.2c-1.9,0-3.7,0.2-5.5,0.6c-0.9,0.2-1.8,0.5-2.6,0.8
			c-0.8,0.3-1.7,0.7-2.1,1.3c-0.1,0.1-0.1,0.1-0.1,0.2l0,0.1l0,0c0-0.1,0,0,0,0c0,0,0,0.1,0,0.1c0,0.1,0,0.2,0.1,0.3
			c0.2,0.3,0.5,0.5,0.9,0.7c0.7,0.4,1.6,0.7,2.5,0.9c1.8,0.4,3.6,0.7,5.4,0.8c1.8,0.1,3.7,0.1,5.5-0.3c0.9-0.2,1.8-0.4,2.6-0.8
			c0.8-0.3,1.7-0.8,2.1-1.4c0.1-0.1,0.1-0.1,0.1-0.2c0,0,0-0.2,0-0.1c0,0,0-0.1,0-0.1c0-0.1-0.1-0.3-0.2-0.4
			c-0.2-0.3-0.6-0.5-0.9-0.7c-0.8-0.4-1.6-0.7-2.5-1C153.8,78.5,151.9,78.2,150.1,78.2z"/>
	</g>
	<g>
		<path class="st3" d="M95.8,24c2.5,0.1,4.4,0.7,4.2,1.5c-0.2,0.8-2.3,1.3-4.8,1.3c-2.5-0.1-4.4-0.7-4.2-1.5
			C91.2,24.5,93.3,23.9,95.8,24z"/>
		<path d="M95.8,23.9c0.8,0,1.7,0,2.5,0c0.4,0,0.9,0.1,1.3,0.3c0.2,0.1,0.4,0.2,0.6,0.5c0.1,0.1,0.2,0.3,0.2,0.5c0,0.1,0,0.1,0,0.2
			c0,0.1,0,0.1,0,0.1c0,0.1-0.1,0.2-0.1,0.2c-0.4,0.5-0.9,0.5-1.3,0.7c-0.4,0.1-0.9,0.1-1.3,0.2c-0.8,0.1-1.7,0.2-2.5,0.3
			c-0.8,0.1-1.7,0.1-2.6-0.1c-0.4-0.1-0.9-0.2-1.3-0.4c-0.2-0.1-0.5-0.2-0.7-0.5c-0.1-0.1-0.2-0.4-0.2-0.6c0-0.1,0-0.1,0-0.2
			c0,0,0,0,0-0.1l0,0l0,0c0-0.1,0.1-0.2,0.1-0.3c0.5-0.5,0.9-0.6,1.3-0.8c0.4-0.1,0.9-0.2,1.3-0.2C94.2,23.8,95,23.9,95.8,23.9z
			 M95.8,24c-0.8,0-1.7,0.2-2.4,0.4c-0.4,0.1-0.8,0.3-1.1,0.4c-0.3,0.1-0.7,0.3-0.8,0.5c0,0,0,0,0,0l0,0l0,0l0,0l0,0c0,0,0,0,0,0
			c0,0,0.2,0.1,0.3,0.2c0.3,0.2,0.7,0.3,1,0.4c0.8,0.2,1.6,0.4,2.4,0.5c0.8,0.1,1.6,0.1,2.4-0.1c0.4-0.1,0.8-0.2,1.1-0.4
			c0.3-0.2,0.7-0.4,0.8-0.6c0,0,0,0,0,0c0,0,0-0.1,0,0c0,0,0,0,0,0c0,0,0,0,0,0c0-0.1-0.2-0.2-0.3-0.3c-0.3-0.2-0.7-0.3-1-0.5
			C97.5,24.3,96.6,24,95.8,24z"/>
	</g>
	<g>
		<path class="st3" d="M121.1,134.1c3.4,0.1,6,0.9,5.8,1.8s-3.1,1.6-6.5,1.6c-3.4-0.1-6-0.9-5.8-1.8S117.7,134,121.1,134.1z"/>
		<path d="M121.1,134.1c1.1,0,2.2,0,3.4,0.1c0.6,0.1,1.2,0.2,1.7,0.4c0.3,0.1,0.6,0.3,0.8,0.6c0.1,0.1,0.3,0.4,0.3,0.6
			c0,0.3-0.1,0.5-0.2,0.7c-0.6,0.6-1.1,0.6-1.7,0.8c-0.6,0.1-1.1,0.2-1.7,0.2c-1.1,0.1-2.2,0.2-3.4,0.3c-1.1,0.1-2.3,0-3.4-0.2
			c-0.6-0.1-1.1-0.2-1.7-0.5c-0.3-0.1-0.6-0.3-0.9-0.6c-0.1-0.2-0.3-0.4-0.3-0.7c0-0.3,0.1-0.6,0.2-0.8c0.3-0.3,0.6-0.5,0.9-0.6
			c0.3-0.1,0.6-0.2,0.9-0.3c0.6-0.1,1.2-0.2,1.7-0.2C118.8,133.9,120,134,121.1,134.1z M121.1,134.2c-1.1,0-2.2,0.2-3.3,0.5
			c-0.5,0.1-1,0.3-1.5,0.5c-0.5,0.2-1,0.4-1.2,0.6c0,0.1-0.1-0.1,0,0.1c0.1,0.1,0.3,0.2,0.5,0.3c0.4,0.2,1,0.4,1.5,0.5
			c1,0.2,2.1,0.4,3.2,0.5c1.1,0.1,2.2,0.1,3.3-0.1c0.5-0.1,1.1-0.3,1.6-0.5c0.5-0.2,1-0.5,1.2-0.8c0-0.1,0-0.1-0.1-0.2
			c-0.1-0.1-0.3-0.2-0.5-0.4c-0.5-0.2-1-0.4-1.5-0.6C123.3,134.4,122.2,134.2,121.1,134.2z"/>
	</g>
	<g>
		<path class="st3" d="M263.9,22.8c6.8,0.1,11.9,1.9,11.4,4c-0.5,2.1-6.3,3.6-13.1,3.5c-6.8-0.1-11.9-1.9-11.4-4
			C251.2,24.2,257.1,22.6,263.9,22.8z"/>
		<path d="M263.9,22.7c2.3,0.1,4.5,0.1,6.8,0.5c1.1,0.2,2.3,0.5,3.3,1c0.5,0.3,1.1,0.6,1.5,1.2c0.2,0.3,0.4,0.6,0.3,1
			c0,0.1,0,0.2,0,0.3c0,0.2,0,0.2-0.1,0.3c-0.1,0.2-0.2,0.4-0.3,0.5c-0.4,0.5-1,0.9-1.5,1.1c-0.5,0.3-1.1,0.4-1.6,0.6
			c-1.1,0.3-2.2,0.5-3.3,0.7c-2.2,0.3-4.5,0.5-6.8,0.6c-2.3,0-4.6-0.1-6.8-0.6c-1.1-0.3-2.2-0.6-3.3-1.1c-0.5-0.3-1.1-0.6-1.5-1.2
			c-0.2-0.3-0.4-0.7-0.4-1.1c0-0.1,0-0.2,0-0.3c0,0,0,0,0-0.1l0-0.1l0-0.1c0.1-0.2,0.2-0.4,0.3-0.5c0.4-0.6,1-0.9,1.5-1.2
			c0.5-0.3,1.1-0.5,1.6-0.7c1.1-0.3,2.2-0.5,3.4-0.7C259.4,22.6,261.7,22.7,263.9,22.7z M263.9,22.8c-2.3,0-4.5,0.2-6.7,0.7
			c-1.1,0.2-2.2,0.6-3.2,0.9c-1,0.4-2.1,0.8-2.6,1.6c-0.1,0.1-0.1,0.1-0.1,0.2l0,0.1l0,0.1c0-0.1,0,0,0,0c0,0,0,0.1,0,0.1
			c0,0.1,0.1,0.3,0.2,0.5c0.2,0.3,0.7,0.6,1.1,0.9c0.9,0.5,2,0.8,3,1.1c2.1,0.5,4.4,0.8,6.6,1c2.2,0.1,4.5,0.1,6.7-0.3
			c1.1-0.2,2.2-0.5,3.2-0.9c1-0.4,2.1-0.9,2.6-1.7c0.1-0.1,0.1-0.2,0.1-0.3c0,0,0.1-0.2,0-0.2c0,0,0-0.1,0-0.1
			c0-0.2-0.1-0.3-0.2-0.5c-0.3-0.4-0.7-0.7-1.2-0.9c-0.9-0.5-2-0.9-3-1.2C268.4,23.2,266.2,22.8,263.9,22.8z"/>
	</g>
	<g>
		<polygon class="st3" points="248.3,108.6 245.4,121.8 229.3,121.4 232.2,108.3 		"/>
		<path d="M248.4,108.6c-0.3,2.2-0.8,4.4-1.2,6.7c-0.5,2.2-0.9,4.4-1.4,6.6l-0.1,0.4l-0.4,0c-2.7-0.1-5.4-0.3-8-0.4
			c-2.7-0.1-5.4-0.1-8.1-0.1l-0.3,0l0.1-0.3c0.4-2.2,0.8-4.4,1.3-6.6c0.5-2.2,0.9-4.4,1.4-6.6l0.1-0.4l0.4,0c2.7,0,5.4,0.2,8,0.3
			C243,108.1,245.7,108.3,248.4,108.6L248.4,108.6L248.4,108.6z M248.3,108.6c-2.7,0.1-5.3,0.2-8,0.2c-2.7,0-5.4,0-8.1,0l0.5-0.4
			c-0.5,2.2-1,4.4-1.6,6.6c-0.5,2.2-1.1,4.4-1.7,6.5l-0.3-0.3c2.7,0.1,5.4,0.3,8,0.3c2.7,0,5.4-0.1,8.1-0.1l-0.4,0.3
			c0.5-2.2,1-4.4,1.6-6.6C247.1,112.9,247.6,110.8,248.3,108.6z"/>
	</g>
	<g>
		<path class="st2" d="M29.1,106.7c0,0-10.5,0.9-15.7,8.3l-2.9-0.8l-2.4,0.8c0,0-5.6-7.9,21.6-9.2l-4.7,0.9L29.1,106.7z"/>
		<g>
			<path class="st1" d="M29.1,106.8c-1.5,0.4-2.9,0.9-4.3,1.4c-1.4,0.5-2.8,1.1-4,1.8c-1.3,0.7-2.5,1.5-3.7,2.3
				c-1.2,0.9-2.3,1.8-3.2,2.9l-0.3,0.3l-0.3-0.1c-0.9-0.3-1.9-0.7-2.8-1l0.2,0c-0.8,0.2-1.6,0.5-2.4,0.8l-0.2,0.1L8,115.2
				c-0.7-1-0.7-2.4-0.2-3.5c0.5-1.1,1.4-1.9,2.4-2.6c1.9-1.3,4.1-2.1,6.3-2.6c2.2-0.6,4.4-1,6.6-1.2c2.2-0.2,4.4-0.3,6.7-0.3
				l0.2,1.7c-1.6,0.2-3.2,0.4-4.8,0.6l-0.1-1.1c0.7,0.1,1.4,0.1,2,0.2c0.7,0.1,1.4,0.1,2,0.2l0.5,0.1L29.1,106.8z M29.1,106.8
				c-0.7,0.1-1.4,0.2-2,0.2c-0.7,0.1-1.4,0.1-2,0.2l-0.1-1.1c1.5-0.4,3.1-0.8,4.7-1.2l0.2,1.7c-2.2,0.2-4.4,0.4-6.5,0.7
				c-2.2,0.3-4.3,0.5-6.4,0.9c-2.1,0.4-4.2,0.9-6.1,1.8c-0.9,0.5-1.8,1.1-2.3,1.9c-0.3,0.4-0.4,0.9-0.4,1.4c0,0.5,0.2,1,0.4,1.4
				l-0.3-0.1c0.8-0.3,1.6-0.6,2.4-0.9l0.1,0l0.1,0c1,0.2,1.9,0.4,2.9,0.6l-0.6,0.2c0.8-1.4,1.8-2.6,3-3.6c1.2-1,2.6-1.8,4-2.5
				c1.4-0.6,2.9-1.1,4.4-1.5c1.5-0.3,3.1-0.5,4.6-0.4L29.1,106.8z"/>
		</g>
	</g>
	<g>
		<path class="st2" d="M135.7,21.3c0,0,1.2,3.3,24.2,6.1l-3,0.7l2.3,0.9c0,0-26.8,0.3-26.3-8l2,1.6L135.7,21.3z"/>
		<g>
			<path class="st1" d="M135.8,21.2c0.3,0.3,0.8,0.6,1.3,0.8c0.5,0.2,1,0.4,1.4,0.5c1,0.3,2,0.6,3,0.8c2,0.5,4.1,0.9,6.1,1.3
				c2,0.4,4.1,0.8,6.1,1.3c2,0.5,4.1,0.9,6.2,1.2l1.7,0.2l-1.7,0.4c-1,0.2-2,0.5-2.9,0.8l0-0.7c0.8,0.3,1.5,0.5,2.3,0.7l2.4,0.8
				l-2.6,0.1c-2.5,0.1-4.9,0.3-7.4,0.2c-2.5-0.1-4.9-0.3-7.4-0.7c-2.5-0.4-4.9-1-7.3-2c-1.2-0.5-2.3-1.2-3.3-2.2
				c-0.5-0.5-0.9-1.1-1.2-1.7c-0.3-0.7-0.4-1.4-0.3-2.1l0.1-1l0.7,0.6c0.6,0.6,1.3,1.2,1.9,1.8l-0.4,0.1c0.3-0.4,0.6-0.8,0.9-1.1
				l0.1-0.1L135.8,21.2z M135.8,21.5c-0.2,0.4-0.3,0.8-0.5,1.1l-0.1,0.2l-0.3-0.2c-0.7-0.5-1.5-0.9-2.2-1.4l0.8-0.4
				c0,1.1,0.6,2,1.5,2.6c0.8,0.7,1.9,1.1,3,1.6c2.2,0.8,4.5,1.3,6.9,1.7c2.4,0.4,4.8,0.8,7.2,1c2.4,0.2,4.8,0.5,7.3,0.7l-0.2,0.9
				c-0.7-0.3-1.5-0.7-2.2-1l-1.1-0.4l1.1-0.2c1-0.2,2-0.4,3-0.7l0,0.6c-2.1-0.3-4.2-0.4-6.3-0.5c-2.1-0.1-4.2-0.4-6.3-0.8
				c-2.1-0.4-4.1-1-6.1-1.7c-1-0.4-2-0.8-3-1.3c-0.5-0.3-0.9-0.5-1.4-0.8C136.4,22.2,136,21.9,135.8,21.5z"/>
		</g>
	</g>
</g>
</svg>
