<?xml version="1.0" encoding="utf-8"?>
<!-- Generator: Adobe Illustrator 15.1.0, SVG Export Plug-In . SVG Version: 6.00 Build 0)  -->
<!DOCTYPE svg PUBLIC "-//W3C//DTD SVG 1.1//EN" "http://www.w3.org/Graphics/SVG/1.1/DTD/svg11.dtd">
<svg version="1.1" id="tiger" xmlns="http://www.w3.org/2000/svg" xmlns:xlink="http://www.w3.org/1999/xlink" x="0px" y="0px"
	 width="201px" height="309px" viewBox="0 0 201 309" style="enable-background:new 0 0 201 309;" xml:space="preserve">
<style type="text/css">
<![CDATA[
	.st0{opacity:0.6;fill:#FF9494;}
	.st1{opacity:8.000000e-002;}
	.st2{opacity:0.38;fill:#BF7326;}
	.st3{opacity:0.23;}
	.st4{opacity:0.25;}
	.st5{opacity:0.46;}
	.st6{fill:#B78558;}
	.st7{fill:#EDBB8A;}
	.st8{opacity:0.42;fill:#FF9494;}
	.st9{fill:#C99C6B;}
	.st10{fill:#FF9D33;}
	.st11{fill:#FFE1C5;}
	.st12{fill:#FFF4EB;}
	.st13{fill:#FFFFFF;}
	.st14{fill:#FFE1C5;stroke:#000000;stroke-miterlimit:10;}
]]>
</style>
<g>
	<ellipse class="st3" cx="114.5" cy="270" rx="71.4" ry="26.3"/>
	<g>
		<path class="st10" d="M118.1,213.4c0,0,59.8,103.7,32.9,0.5"/>
		<path d="M118.1,213.4c4.8,7.6,9.7,15.1,14.6,22.6c2.5,3.7,4.9,7.5,7.7,11c1.4,1.8,2.8,3.5,4.3,5.2c1.5,1.7,3.1,3.2,4.8,4.6
			c0.9,0.7,1.8,1.3,2.7,1.8c1,0.5,2,0.8,2.9,0.5c0.9-0.3,1.4-1.3,1.7-2.3c0.3-1,0.4-2.1,0.5-3.2c0.1-2.2,0-4.4-0.3-6.6
			c-0.2-2.2-0.5-4.4-0.9-6.6c-1.4-8.8-3.4-17.6-5.4-26.4l0.1,0c2.5,8.6,4.8,17.3,6.3,26.2c0.7,4.4,1.3,8.9,1,13.5
			c-0.1,1.1-0.2,2.3-0.6,3.4c-0.2,0.6-0.4,1.1-0.8,1.6c-0.4,0.5-0.9,1-1.5,1.2c-1.3,0.4-2.5-0.1-3.5-0.6c-1-0.6-1.9-1.3-2.8-2
			c-3.4-3-6.2-6.5-9-10c-2.8-3.5-5.5-7.1-8.1-10.8C127,229.1,122.3,221.4,118.1,213.4L118.1,213.4z"/>
	</g>
	<path class="st2" d="M118.1,213.4c0,0,59.8,103.7,32.9,0.5"/>
	<g>
		<g>
			<path class="st10" d="M123.1,218.2c0,0-2.1-27.8,30-49.5c32.2-21.8,43.5-72.6,30.4-78.6c-13.2-6.1-10.6,5.3-6.1,6.9
				c4.5,1.6,5,41.3-30.2,65.4c-35.2,24-35.9,54.7-35.3,62.2C112,224.5,115.2,235.7,123.1,218.2z"/>
			<path d="M123.1,218.2c-0.2-3.4,0.3-6.7,0.9-10c0.7-3.3,1.7-6.5,3-9.7c2.6-6.2,6.3-12,10.8-17.1c4.5-5.1,9.7-9.5,15.3-13.3
				c5.5-3.8,10.4-8.4,14.7-13.5c4.3-5.1,8-10.8,11.1-16.7c3.1-5.9,5.7-12.2,7.4-18.7c0.9-3.2,1.6-6.5,2-9.9c0.4-3.3,0.6-6.7,0.1-10
				c-0.2-1.7-0.6-3.3-1.2-4.8c-0.6-1.5-1.6-2.9-3-3.9c-0.7-0.4-1.5-0.7-2.2-1.1c-0.8-0.3-1.6-0.6-2.4-0.8c-0.8-0.2-1.6-0.3-2.4-0.3
				c-0.8,0-1.6,0.2-2.2,0.6c-0.6,0.5-0.9,1.2-0.9,2c0,0.8,0.2,1.6,0.5,2.3c0.3,0.7,0.8,1.4,1.3,2c0.3,0.3,0.6,0.6,0.9,0.8
				c0.2,0.1,0.3,0.2,0.5,0.3c0.2,0.1,0.4,0.1,0.6,0.3c0.8,0.7,1,1.5,1.3,2.3c0.2,0.8,0.4,1.7,0.5,2.5c0.2,1.7,0.3,3.4,0.2,5.1
				c-0.2,6.8-1.7,13.5-4,19.8c-4.6,12.7-12.9,24.1-23.5,32.5c-1.3,1.1-2.7,2.1-4.1,3c-1.4,1-2.8,1.9-4.1,2.9c-2.7,2-5.3,4.1-7.8,6.4
				c-4.9,4.5-9.4,9.6-13.1,15.1c-3.7,5.6-6.6,11.7-8.6,18.1c-1.9,6.4-3,13.1-2.6,19.8l0,0c0.2,0.7,0.5,1.4,0.9,2
				c0.4,0.6,0.9,1.1,1.6,1.3c0.7,0.2,1.4,0,2-0.4c0.6-0.4,1.2-0.9,1.7-1.5c1-1.1,1.8-2.4,2.6-3.7C121.8,221,122.4,219.6,123.1,218.2
				z M123.2,218.3c-0.6,1.4-1.3,2.8-2,4.1c-0.7,1.3-1.5,2.6-2.5,3.8c-0.5,0.6-1.1,1.1-1.7,1.5c-0.7,0.4-1.5,0.7-2.3,0.4
				c-0.8-0.2-1.4-0.8-1.8-1.5c-0.4-0.6-0.8-1.3-1-2.1l0,0l0,0c-0.5-6.8,0.5-13.6,2.4-20c1.9-6.5,4.8-12.7,8.5-18.4
				c3.7-5.7,8.2-10.8,13.1-15.4c2.5-2.3,5.1-4.4,7.8-6.5c1.4-1,2.8-2,4.1-2.9c1.4-1,2.7-2,4-3c5.2-4.2,9.9-9,13.9-14.4
				c4-5.4,7.2-11.3,9.5-17.6c2.3-6.3,3.9-12.9,4.1-19.5c0.1-1.7,0-3.3-0.2-5c-0.1-0.8-0.2-1.6-0.5-2.4c-0.2-0.8-0.5-1.6-1.1-2
				c-0.1-0.1-0.3-0.1-0.5-0.2c-0.2-0.1-0.4-0.2-0.6-0.3c-0.4-0.2-0.7-0.5-1-0.9c-0.6-0.6-1.1-1.4-1.4-2.2c-0.3-0.8-0.5-1.7-0.5-2.6
				c0-0.9,0.4-1.8,1.1-2.4c0.7-0.6,1.7-0.7,2.5-0.7c0.9,0,1.7,0.2,2.5,0.4c0.8,0.2,1.6,0.5,2.4,0.8c0.8,0.3,1.6,0.6,2.3,1.1
				c1.4,1,2.4,2.5,3.1,4.1c0.7,1.6,1,3.3,1.2,4.9c0.7,6.7-0.4,13.5-2.1,20c-1.7,6.5-4.2,12.8-7.2,18.9c-3.1,6-6.7,11.8-11,17
				c-4.3,5.2-9.3,9.9-14.9,13.7c-5.6,3.7-10.7,8.1-15.2,13.1c-4.5,5-8.2,10.6-10.9,16.8c-1.3,3.1-2.4,6.3-3.2,9.5
				C123.6,211.5,123.1,214.9,123.2,218.3L123.2,218.3L123.2,218.3z"/>
		</g>
		<path class="st2" d="M117.6,202.9c-0.1,3.7,2.3,7.5,6,8.7c-0.6,4.1-0.4,6.6-0.4,6.6c-7.9,17.5-11.2,6.3-11.2,6.3
			c-1.9-4.7,0.1-38.2,35.3-62.2c14.8-10.1,23.3-23.1,27.9-34.7C171.2,154.8,131.1,173,117.6,202.9z"/>
		<path d="M117.2,196.3c1-2.1,2.2-4.2,3.5-6.3c0.8,3.5,2.2,6.6,3.7,9.7C120.3,201.6,119,200,117.2,196.3z"/>
		<path d="M147.6,171.8c-0.8-1.8-2.3-4.9-3.5-7.3c1-0.8,2-1.5,3.1-2.2c0.7-0.5,1.3-0.9,1.9-1.4C147.1,164.9,148.7,168.8,147.6,171.8
			z"/>
		<path d="M165.1,149.5c-0.1,3.7,1.8,4,4.1,4.2c-1.1,1.3-2.2,2.7-3.4,4C164.2,155.5,162.5,152.8,165.1,149.5z"/>
		<path d="M188.7,107.5c-0.2,2.6-0.7,5.4-1.3,8.4c-2.2-1.3-4.3-2.6-6.8-4.5C182.9,110.2,185.8,108.9,188.7,107.5z"/>
		<path d="M183.5,90c0.9,0.4,1.6,1.1,2.3,1.8c-3.2,1.3-6.5,2.6-9.6,4.3C172.6,93.3,171.6,84.5,183.5,90z"/>
		<path d="M180.1,134c-2.7,1.3-5.7,1.7-8.8,1.9c1.9-3.5,3.4-7,4.6-10.3C176.1,128.9,175.9,132.5,180.1,134z"/>
		<path d="M131.7,183.9c-0.9-0.8-1.7-1.8-2.4-3.4C130.3,181.5,131.1,182.7,131.7,183.9z"/>
		<path d="M131.7,183.9c1,0.9,2.1,1.3,3.3,1.5c-0.6,0.7-1.1,1.5-1.7,2.2C132.9,186.4,132.4,185.1,131.7,183.9z"/>
		<path d="M117.3,214.2c2.5-3.1,4.3-4.6,6.8-6c-0.3,1.3-0.5,2.5-0.6,3.5C121.3,211.7,119.2,211.9,117.3,214.2z"/>
	</g>
	<g>
		<path class="st7" d="M153.1,110.2c-1.3-8.3-1.8-7.7-1.9-11.6c-0.5-25.4-24.7-37.3-54.6-37.3c-29.8,0-51,5.9-53.5,35.6
			c-0.4,4.7,2,9.5,1.9,13.8c-0.1,4.3-1.9,7.2-1.9,10.8c0,11.9,13.3,18.9,56.6,18.9c43.4,0,55.3-7,55.3-18.9
			C155,117.1,154.4,118.4,153.1,110.2z"/>
		<g>
			<path d="M153,110.2c-0.3-1.7-0.6-3.3-0.9-5c-0.3-1.7-0.8-3.3-1-5c-0.1-1.7-0.1-3.4-0.3-5c-0.2-1.7-0.5-3.3-0.9-4.9
				c-0.9-3.2-2.3-6.3-4.1-9.1c-1.9-2.8-4.2-5.3-6.8-7.4c-5.2-4.2-11.4-7-17.8-8.9c-6.4-1.8-13.1-2.8-19.8-3.1
				c-6.7-0.3-13.5-0.2-20.1,0.5c-6.7,0.7-13.4,1.9-19.5,4.8c-3,1.4-5.9,3.3-8.3,5.6c-2.4,2.3-4.4,5.1-5.9,8c-1.5,3-2.5,6.2-3.2,9.5
				c-0.3,1.6-0.6,3.3-0.8,5c-0.1,0.8-0.2,1.7-0.2,2.5c0,0.8,0,1.7,0.1,2.5c0.4,3.3,1.7,6.5,1.9,10c0.1,1.7-0.2,3.4-0.6,5.1
				c-0.4,1.6-0.9,3.2-1.1,4.9c-0.4,3.2,0.5,6.7,2.6,9.1c2.1,2.5,5.1,4.2,8.1,5.4c6.2,2.4,12.9,3.4,19.6,4.2c6.7,0.7,13.4,1,20.1,1.1
				c6.7,0.1,13.5,0,20.2-0.2c6.7-0.3,13.4-0.8,20-2c3.3-0.6,6.6-1.4,9.7-2.6c3.1-1.2,6.1-2.9,8.2-5.5c1.1-1.3,1.8-2.8,2.2-4.4
				c0.4-1.6,0.5-3.3,0.4-5c0-1.7-0.6-3.3-0.9-4.9C153.6,113.5,153.3,111.8,153,110.2z M153.1,110.2c0.3,1.7,0.6,3.3,0.9,5
				c0.4,1.6,1,3.2,1,5c0.1,1.7,0,3.4-0.4,5c-0.4,1.6-1.2,3.2-2.2,4.6c-2.1,2.7-5.2,4.5-8.3,5.8c-3.1,1.3-6.4,2.2-9.7,2.8
				c-6.6,1.3-13.4,1.9-20.1,2.3c-6.7,0.4-13.5,0.4-20.2,0.3c-6.7-0.1-13.5-0.4-20.2-1.1c-3.4-0.4-6.7-0.8-10-1.5
				c-3.3-0.7-6.6-1.5-9.8-2.8c-3.1-1.3-6.2-3-8.5-5.7c-1.1-1.3-1.9-2.9-2.4-4.6c-0.4-1.7-0.6-3.4-0.3-5.2c0.2-1.7,0.8-3.3,1.2-4.9
				c0.4-1.6,0.7-3.2,0.6-4.9c-0.1-3.3-1.3-6.5-1.8-9.9c-0.1-0.8-0.2-1.7-0.1-2.6c0-0.9,0.1-1.7,0.2-2.5c0.2-1.7,0.5-3.4,0.8-5
				c0.7-3.3,1.8-6.6,3.3-9.6c1.5-3,3.6-5.8,6.1-8.1c2.5-2.3,5.3-4.2,8.4-5.7c3.1-1.5,6.3-2.5,9.6-3.3c3.3-0.8,6.6-1.3,10-1.7
				c3.4-0.4,6.7-0.6,10.1-0.7c3.4-0.1,6.7-0.2,10.1,0c6.8,0.3,13.5,1.2,20,3.1c6.5,1.9,12.8,4.8,18,9.2c2.6,2.2,4.9,4.7,6.7,7.6
				c1.8,2.9,3.2,6,4,9.3c0.4,1.6,0.7,3.3,0.9,5c0.2,1.7,0.2,3.4,0.3,5c0.1,1.7,0.6,3.3,0.9,5C152.6,106.8,152.9,108.5,153.1,110.2z"
				/>
		</g>
	</g>
	<g>
		<path class="st7" d="M43.1,96.9c-0.1,1.4,0,2.9,0.3,4.3c0-1.6-0.2-3.1-0.2-4.7C43.2,96.7,43.1,96.8,43.1,96.9z"/>
		<g>
			<path d="M43.2,96.9c0,0.4,0.1,0.7,0.2,1.1c0.1,0.4,0.2,0.7,0.2,1.1c0,0.4-0.1,0.7-0.1,1.1c0,0.4,0,0.7,0.2,1.1l-0.4,0
				c-0.1-0.4-0.2-0.8-0.3-1.2c-0.1-0.4-0.1-0.8-0.2-1.2c0-0.4,0-0.8,0-1.2c0.1-0.4,0.2-0.8,0.3-1.2l0.2,0
				C43.2,96.7,43.2,96.8,43.2,96.9z M43.1,96.9c0-0.1,0-0.2,0-0.3l0.2,0c0.1,0.4,0.3,0.8,0.4,1.2c0.1,0.4,0.2,0.8,0.2,1.2
				c0,0.4,0,0.8,0,1.2c0,0.4-0.1,0.8-0.2,1.2l-0.4,0c0-0.4,0-0.7-0.2-1.1c-0.1-0.4-0.3-0.7-0.4-1.1c-0.1-0.4,0-0.8,0.1-1.1
				C42.9,97.7,43.1,97.3,43.1,96.9z"/>
		</g>
	</g>
	<g class="st5">
		<path class="st6" d="M46.6,108.9c1.5-1.5-1.3-4.5-2.9-6.1c0.6,2.8,1.4,5.5,1.4,8c-0.1,4.3-1.9,7.2-1.9,10.8
			c0,7.4,5.2,13,19.7,16.1C52,132.5,44.6,124.4,46.6,108.9z"/>
		<path class="st6" d="M153.1,110.2c-1.3-8.3-1.8-7.7-1.9-11.6c0-2-0.2-4-0.6-5.8c0.4-9.5-1.6-45-51-47.4c0,0-42.3-0.4-50.3,22.7
			c0,0-4.3,3.2-1.1,19.4l4.4-4.2l3.6,1.8l3-5l2,4.1l4.1-4.7l3.3,3.8l3.8-4.4l3.8,6.6l3.4-6l4.6,3.8l1.4-4.2l4,4.2l2.4-5.7l5,6.6
			l3.8-5.1c0,0,2.8,6.8,3.1,6.2c0.3-0.6,3.9-5,3.9-5s0,6,1.2,4.8c1.2-1.2,4.8-5.6,5.2-5c0.4,0.6,2.8,4.1,2.8,4.1l3.4-2.7l1.4,5
			l5.7-5l1.2,4l4-4.4l1.4,5.4h4.7l1.5,5.4l4.3-3.8l2.6,3.2c3.2,18,0.8,36.3-12,46.5c14.8-3.1,19.7-8.7,19.7-16.3
			C155,117.1,154.4,118.4,153.1,110.2z"/>
	</g>
	<path d="M49.3,64.8c0,0-4.3,3.2-1.1,19.4l4.4-4.2l3.6,1.8l3-5l2,4.1l4.1-4.7l3.3,3.8l3.8-4.4l3.8,6.6l3.4-6l4.6,3.8l1.4-4.2l4,4.2
		l2.4-5.7l5,6.6l3.8-5.1c0,0,2.8,6.8,3.1,6.2c0.3-0.6,3.9-5,3.9-5s0,6,1.2,4.8c1.2-1.2,4.8-5.6,5.2-5c0.4,0.6,2.8,4.1,2.8,4.1
		l3.4-2.7l1.4,5l5.7-5l1.2,4l4-4.4l1.4,5.4h4.7l1.5,5.4l4.3-3.8l5.7,7c0,0,6.3-47-50.9-49.7C99.6,42.1,57.2,41.8,49.3,64.8z"/>
	<g>
		<path class="st10" d="M157.2,12.8c-14.4,4.4-35.2,2-35.2,2l0,0c-6.4-1.2-14.2-2-23.6-2C90.1,12.8,83,13.7,77,15
			c0.1-0.1,0.1-0.1,0.2-0.2c0,0-20.8,2.4-35.2-2C27.5,8.4,4.7,9.6,12.9,28c8.2,18.4,17.4,18.1,17.4,18.1s0,0,0.1,0
			c-8.7,14.7-9.2,31.4-6.5,46.6c5.7,32,16.7,47.7,51.9,51.9c0,0,0,0,0,0c0,0-14.2,31.1-20.1,60.6c-2.8,14.3,0.8,22.3,9,26.8
			c1.3,27.6,7.1,92.8,31.7,5.8c2.5,0.1,5.1,0.2,7.8,0.2c7.9,0.2,16.1-0.1,23.8-1.1c3.1,5.3,9.2,8.9,16.1,8.9
			c10.2,0,18.4-7.8,18.4-17.3c0-1.9-0.3-3.7-0.9-5.4c4.6-5.6,6.2-13.2,3.1-23.3c-8.3-26.7-25.3-49.9-30.9-57
			c27.7-6.1,37-21.9,41.5-50.4c2.5-15.6,2.1-31.7-6.4-46.2c0,0,0,0,0,0s9.2,0.3,17.4-18.1C194.5,9.6,171.6,8.4,157.2,12.8z
			 M99.4,140.4c-43.2,0-56.5-7-56.5-18.9c0-3.6,1.9-6.5,1.9-10.7c0.1-4.2-2.3-9.1-1.9-13.8c1.3-16.2,8.3-25.3,19.2-30.3
			c3.8,3.1,10.7,5.1,18.7,5.1c6.1,0,11.6-1.2,15.6-3.2c4,2,9.5,3.2,15.6,3.2c7.1,0,13.3-1.6,17.3-4.2c12.8,5.9,21.2,16.1,21.5,30.9
			c0.1,3.9,0.6,3.3,1.9,11.6c1.3,8.3,1.9,6.9,1.9,11.3C154.6,133.4,142.7,140.4,99.4,140.4z"/>
		<g>
			<path d="M157.2,12.8c-5.7,1.7-11.6,2.4-17.5,2.6c-5.9,0.2-11.8,0.1-17.7-0.5l0.1-0.2l0,0l0.3,0.3l-0.4-0.1
				c-7.4-1.3-15-1.9-22.5-1.9c-7.5-0.1-15.1,0.6-22.4,2.2l-0.7,0.2l0.5-0.5l0.2-0.2l0.2,0.4c-4.4,0.5-8.8,0.7-13.2,0.7
				c-4.4,0-8.8-0.2-13.2-0.8c-2.2-0.3-4.4-0.7-6.5-1.2c-1.1-0.3-2.1-0.6-3.2-0.9c-1-0.3-2.1-0.6-3.2-0.8c-4.3-0.9-8.6-1.3-13-1
				c-2.2,0.2-4.3,0.5-6.4,1.2c-2,0.7-4,1.8-5.3,3.4c-1.4,1.6-1.9,3.8-1.8,5.9c0.1,2.1,0.8,4.2,1.7,6.2c1.8,4,3.9,7.8,6.7,11.2
				c1.4,1.7,2.9,3.2,4.7,4.4c0.9,0.6,1.8,1.2,2.8,1.6c1,0.4,2,0.7,3,0.8l-0.1,0l0.1,0l1.2-0.5l-0.7,1.1c-2.7,4.6-4.8,9.6-6,14.7
				c-1.3,5.2-1.9,10.5-1.9,15.9c0,5.3,0.5,10.7,1.5,16c0.9,5.3,2.1,10.5,3.7,15.6c1.6,5.1,3.7,10.1,6.6,14.6
				c2.9,4.5,6.6,8.4,11,11.4c4.4,3,9.4,5.2,14.5,6.7c5.1,1.5,10.4,2.5,15.7,3.1l0,0.4c0,0,0.1,0,0.1,0l0.1-0.1
				c-3.2,7.2-6.1,14.5-8.9,21.9c-2.7,7.4-5.2,14.9-7.3,22.5c-1.1,3.8-2,7.6-2.9,11.5c-0.8,3.8-1.7,7.7-1.9,11.6
				c-0.2,3.9,0.2,7.9,1.8,11.5c0.8,1.8,1.9,3.4,3.3,4.8c1.4,1.4,3,2.5,4.7,3.5l0.1,0.1l0,0.1c0.4,8.5,1.1,16.9,2.2,25.4
				c0.6,4.2,1.2,8.4,2.3,12.5c0.5,2.1,1.1,4.1,1.9,6c0.4,1,0.8,1.9,1.4,2.8c0.6,0.9,1.2,1.7,2.1,2.1c0.9,0.5,1.9,0.4,2.7-0.1
				c0.9-0.5,1.6-1.2,2.3-2c1.4-1.6,2.4-3.4,3.4-5.3c2-3.7,3.6-7.7,5-11.6c2.9-8,5.4-16.1,7.7-24.3l0.1-0.3l0.3,0
				c5.3,0.2,10.5,0.3,15.8,0.2c5.3-0.1,10.5-0.4,15.8-1.1l0.3,0l0.2,0.3c2.2,3.7,5.8,6.5,9.9,7.8c4.1,1.3,8.6,1.2,12.6-0.4
				c4-1.5,7.4-4.6,9.4-8.4c1.9-3.8,2.2-8.4,0.8-12.5l-0.1-0.3l0.2-0.2c2.3-2.8,3.9-6.3,4.4-9.9c0.5-3.6,0.1-7.4-0.8-10.9
				c-2-7.1-4.8-14.1-8-20.9c-3.2-6.8-6.8-13.3-10.7-19.7c-3.9-6.3-8.2-12.5-12.7-18.4l-0.5-0.6l0.8-0.2c4.8-1.1,9.5-2.5,13.9-4.6
				c4.4-2.1,8.5-4.8,12-8.2c3.5-3.4,6.2-7.6,8.3-12c2.1-4.4,3.6-9.1,4.8-13.9c2.3-9.5,3.9-19.3,3.6-29.2c-0.1-4.9-0.8-9.8-2-14.6
				c-1.2-4.7-3.1-9.3-5.6-13.6l-0.2-0.3l0.4,0c0.1,0,0.1,0,0.1,0l-0.1,0c1.4,0,2.8-0.6,4-1.2c1.3-0.7,2.5-1.5,3.5-2.5
				c2.2-1.9,4-4.2,5.6-6.6c1.6-2.4,2.9-5,4.1-7.7c1.2-2.6,2-5.5,1.7-8.4c-0.2-1.4-0.7-2.8-1.6-3.9c-0.9-1.1-2.1-2-3.3-2.7
				c-2.6-1.3-5.5-1.9-8.4-2.2C168.6,10.4,162.8,11.2,157.2,12.8z M157.2,12.7c5.6-1.7,11.4-2.5,17.3-2.1c2.9,0.2,5.8,0.8,8.4,2.1
				c1.3,0.7,2.5,1.6,3.4,2.7c0.9,1.2,1.5,2.6,1.7,4c0.4,3-0.5,5.9-1.6,8.5c-1.2,2.7-2.5,5.3-4.1,7.7c-1.6,2.4-3.4,4.8-5.6,6.7
				c-1.1,1-2.3,1.8-3.6,2.5c-1.3,0.7-2.7,1.2-4.2,1.3l0,0l0,0c0,0,0,0,0.1,0L169,46c2.5,4.3,4.4,8.9,5.7,13.6
				c1.3,4.8,1.9,9.7,2.1,14.7c0.3,9.9-1.3,19.8-3.5,29.4c-1.2,4.8-2.7,9.5-4.8,14c-2.1,4.5-4.9,8.7-8.4,12.3
				c-3.5,3.6-7.7,6.4-12.2,8.5c-4.5,2.1-9.3,3.6-14.1,4.7l0.3-0.8c4.6,5.9,8.8,12.1,12.8,18.5c3.9,6.4,7.5,13,10.7,19.8
				c3.2,6.8,6,13.8,8,21c0.9,3.7,1.4,7.5,0.8,11.3c-0.5,3.8-2.1,7.4-4.6,10.4l0.1-0.5c1.5,4.3,1.2,9.1-0.8,13.2
				c-2,4.1-5.7,7.2-9.9,8.8c-4.2,1.6-9,1.8-13.2,0.4c-4.3-1.4-8.1-4.3-10.4-8.2l0.4,0.2c-5.3,0.6-10.6,1-15.8,1.1
				c-5.3,0.1-10.6-0.1-15.9-0.2l0.4-0.3c-2.3,8.2-4.8,16.3-7.8,24.3c-1.5,4-3.1,7.9-5.1,11.7c-1,1.9-2.1,3.7-3.5,5.4
				c-0.7,0.8-1.5,1.6-2.5,2.1c-0.5,0.3-1.1,0.4-1.7,0.5c-0.6,0-1.2-0.1-1.7-0.4c-1-0.6-1.7-1.5-2.3-2.4c-0.6-0.9-1-1.9-1.4-2.9
				c-0.8-2-1.4-4.1-1.9-6.1c-1-4.1-1.7-8.4-2.2-12.6c-1.1-8.4-1.7-16.9-2.1-25.4l0.1,0.2c-1.7-1-3.4-2.1-4.8-3.6
				c-1.4-1.4-2.5-3.1-3.4-4.9c-1.7-3.7-2-7.7-1.8-11.7c0.2-4,1.1-7.8,1.9-11.7c0.9-3.8,1.9-7.7,2.9-11.5c2.2-7.6,4.6-15.1,7.3-22.5
				c2.7-7.4,5.6-14.7,8.8-22l0-0.1l0.1,0c0,0,0.1,0,0.1,0l0,0.4c-5.3-0.6-10.7-1.6-15.8-3.1c-5.2-1.5-10.2-3.7-14.7-6.7
				c-4.5-3-8.3-7-11.2-11.6c-2.9-4.5-5-9.6-6.7-14.7c-1.6-5.1-2.8-10.4-3.7-15.7c-1-5.3-1.5-10.7-1.5-16.1c0-5.4,0.6-10.8,1.9-16.1
				c1.3-5.2,3.3-10.3,6.1-15l0.5,0.6l-0.1,0l-0.1,0l-0.1,0c-1.2,0-2.3-0.4-3.4-0.8c-1-0.4-2-1-2.9-1.7c-1.8-1.3-3.4-2.9-4.8-4.6
				c-2.8-3.4-4.9-7.4-6.7-11.4c-0.9-2-1.6-4.2-1.7-6.5c-0.1-2.3,0.5-4.6,2-6.4c1.5-1.8,3.6-2.9,5.7-3.6c2.1-0.7,4.3-1.1,6.5-1.2
				c4.4-0.3,8.9,0.2,13.2,1.1c1.1,0.2,2.1,0.5,3.2,0.8c1.1,0.3,2.1,0.6,3.2,0.9c2.1,0.5,4.3,0.9,6.4,1.2c4.3,0.6,8.7,0.8,13.1,0.8
				c4.4,0,8.8-0.2,13.1-0.6l0.6-0.1l-0.4,0.4l-0.2,0.2l-0.2-0.4c7.4-1.6,15-2.3,22.5-2.2c7.5,0.1,15.1,0.7,22.5,2.1l-0.1,0.2l0,0
				l-0.3-0.3l0.4,0c5.9,0.6,11.8,0.8,17.7,0.6C145.6,15,151.5,14.4,157.2,12.7z"/>
			<path d="M99.4,140.5c-5.3,0-10.6-0.1-15.9-0.3c-5.3-0.3-10.6-0.6-15.9-1.4c-5.3-0.8-10.5-1.9-15.4-4.1c-2.4-1.1-4.8-2.6-6.6-4.7
				c-1.8-2-2.9-4.8-3.1-7.5c-0.1-1.4,0-2.8,0.4-4.1c0.3-1.3,0.7-2.6,1-3.9c0.3-1.3,0.5-2.6,0.5-3.8c0-1.3-0.2-2.6-0.4-3.9
				c-0.5-2.6-1.3-5.2-1.4-7.9c0-0.7,0-1.4,0-2c0.1-0.7,0.1-1.3,0.2-2c0.2-1.3,0.4-2.6,0.6-4c1-5.2,3-10.4,6.2-14.7
				c3.2-4.3,7.6-7.6,12.5-9.8l0.1,0l0.1,0.1c2.3,1.9,5.1,3,8,3.7c2.9,0.8,5.8,1.2,8.8,1.3c3,0.1,5.9-0.1,8.9-0.6
				c2.9-0.5,5.8-1.3,8.4-2.6l0.1-0.1l0.1,0.1c2.5,1.2,5.3,2,8,2.5c2.8,0.5,5.6,0.7,8.4,0.6c2.8-0.1,5.6-0.4,8.4-1.1
				c2.7-0.7,5.4-1.6,7.7-3.1l0.2-0.1l0.2,0.1c4.8,2.2,9.4,5.2,13.1,9.1c3.7,3.9,6.4,8.7,7.7,14c0.7,2.6,1,5.3,1.1,8
				c0,1.3,0.1,2.6,0.4,3.8c0.3,1.3,0.6,2.6,0.8,3.9c0.5,2.6,0.8,5.2,1.4,7.8c0.3,1.3,0.6,2.5,0.9,3.8c0.3,1.3,0.4,2.7,0.3,4.1
				c0,2.7-0.8,5.5-2.5,7.7c-1.6,2.2-3.9,3.8-6.3,5c-4.8,2.4-10.1,3.4-15.3,4.3c-5.2,0.8-10.5,1.2-15.8,1.4
				C110,140.4,104.7,140.5,99.4,140.5z M99.4,140.4c10.6-0.1,21.2-0.4,31.6-2.1c5.2-0.9,10.4-2.1,15-4.5c2.3-1.2,4.4-2.8,5.9-4.8
				c1.5-2.1,2.2-4.6,2.2-7.2c0-1.3,0-2.6-0.3-3.8c-0.3-1.3-0.7-2.6-0.9-3.9c-0.5-2.6-0.9-5.2-1.4-7.8c-0.2-1.3-0.5-2.6-0.8-3.9
				c-0.3-1.3-0.4-2.7-0.4-4c-0.1-2.6-0.4-5.2-1.1-7.7c-1.3-5-3.8-9.7-7.4-13.5c-3.5-3.8-8-6.8-12.7-9l0.4,0c-2.5,1.5-5.2,2.5-8,3.1
				c-2.8,0.6-5.7,0.9-8.5,1c-2.9,0-5.7-0.2-8.5-0.7c-2.8-0.5-5.6-1.3-8.2-2.6h0.2c-2.7,1.3-5.6,2.1-8.6,2.6c-3,0.5-6,0.6-9,0.5
				c-3-0.1-6-0.6-8.9-1.4c-2.9-0.8-5.7-2-8.1-3.8l0.2,0c-4.8,2.2-9.2,5.4-12.3,9.7C46.8,80.9,45,86,44,91.1
				c-0.2,1.3-0.4,2.6-0.6,3.9c-0.1,0.7-0.1,1.3-0.2,2c0,0.6,0,1.3,0,1.9c0.2,2.6,1,5.1,1.5,7.8c0.3,1.3,0.5,2.7,0.5,4
				c0,1.4-0.2,2.7-0.5,4c-0.6,2.6-1.6,5.1-1.3,7.7c0.1,2.6,1.1,5.1,2.8,7c1.7,2,3.9,3.4,6.3,4.5c4.8,2.2,10,3.4,15.2,4.3
				C78.1,140,88.8,140.3,99.4,140.4z"/>
		</g>
	</g>
	<path class="st2" d="M75,275c-1.2,0.9-2.4,1.5-3.6,1.9c4.6,10.1,12.3,5.7,25-39.2c1.2,0,2.5,0.1,3.8,0.1c-4.3-0.6-8.9-2.3-12.2-4.8
		C84,247,88,266,75,275z"/>
	<path class="st2" d="M137,240c-2-1-3-6,1-7c-4.7,0-8.8,1.9-12.8,4.1c1-0.1,1.9-0.2,2.8-0.3c3.1,5.3,9.2,8.9,16.1,8.9
		c7.5,0,13.9-4.2,16.8-10.2C153.1,239.8,145,243.7,137,240z"/>
	<path class="st14" d="M133.2,221.1c-2.9-29.1-25.6-51.6-28.6-80.7c-1.7,0-3.4,0-5.2,0c-1.7,0-3.3,0-4.9,0c-2.2,32-21,62.7,1.7,96.9
		c4.9,0.4,2.3,0.5,8,0.6c10,0.2,14.4-0.3,23.7-2C133.4,231.4,133.2,225.7,133.2,221.1z"/>
	<path class="st2" d="M72.6,151.9c-4.5,10.9-12.8,32.5-16.9,53.3c-2.3,11.6-0.4,19.1,4.8,23.9C55.8,207.5,78.3,174.8,72.6,151.9z"/>
	<path class="st2" d="M163.6,48c-1.6,27.2,11.2,68.9-19.2,89.7c-0.9,0.6-1.6,1.5-2.2,2.5c21.2-7.4,29-22.6,33-48
		c2.5-15.6,2.1-31.7-6.4-46.2c0,0,0,0,0,0s9.2,0.3,17.4-18.1c0.8-1.7,1.3-3.3,1.5-4.7C182.8,35,163.6,40.6,163.6,48z"/>
	<path class="st2" d="M163.6,219.9c2.9-5.2,3.5-11.9,0.9-20.2c-6.1-19.5-16.8-37.2-24.3-48.1c0.1,2.5,0.4,5,0.9,7
		C149.8,178.7,166.2,197.6,163.6,219.9z"/>
	<path class="st2" d="M28.4,49.9c-6.7,13.7-6.9,28.9-4.4,42.7c3.8,21.7,10.1,35.8,24.7,44c-0.1-0.2-0.3-0.3-0.4-0.5
		C34.6,108.8,16.7,80.1,28.4,49.9z"/>
	
		<ellipse transform="matrix(-0.9994 -3.429232e-002 3.429232e-002 -0.9994 105.3998 119.0939)" class="st0" cx="53.7" cy="58.6" rx="11.6" ry="3.4"/>
	<path d="M148.4,164.3c-3.8,6.3-8.7,11.2-17.2,13.3c8.4,0,15.7-1.1,22.5-3.6C152,170.6,150.2,167.3,148.4,164.3z"/>
	<path d="M157.1,180.7c-2.1,2.8-4.9,4.9-8.3,6.1c3.1-0.8,6.7-1.4,9.5-3.5C157.9,182.4,157.5,181.5,157.1,180.7z"/>
	
		<ellipse transform="matrix(-0.9994 -3.377883e-002 3.377883e-002 -0.9994 93.2445 113.6808)" class="st13" cx="47.6" cy="56.1" rx="2.3" ry="1.5"/>
	<path d="M164.6,199.7c-1-3.3-2.2-6.5-3.4-9.6c-4.4,9.7-12.8,16.6-23.5,17.9c9.3,1,19.3-1.3,27.4-6.5
		C164.9,200.9,164.8,200.3,164.6,199.7z"/>
	<path d="M150.5,220.8c3.9,0.8,8.1,0.8,12.4,0.2c1.6-2.5,2.7-5.4,3.1-8.6C161.9,217.2,156.9,220.8,150.5,220.8z"/>
	<path d="M88,174.4c-7.4,0-15.7,0-22.8-2.9c-0.7,2.1-1.5,4.3-2.2,6.6C70.9,180.5,79.9,177.8,88,174.4z"/>
	<path d="M83.2,196.8c-8.6,1.2-16.2-2.2-24.4-4.7c-0.9,3.2-1.7,6.4-2.4,9.7C65.8,203.9,75.1,203.8,83.2,196.8z"/>
	<path d="M73.6,220.8c-5.9,0-12.7,0-18.5-2.6c0.6,4.2,2.2,7.5,4.7,10C65,227.4,69.8,225.3,73.6,220.8z"/>
	<path d="M61.4,183.2c-0.4,1.3-0.8,2.7-1.2,4c4.5,0,8.9-0.1,13.4-1.6C68.8,186.8,65,184.5,61.4,183.2z"/>
	<path d="M155.6,65.6c6.3,0,13.3,0,19.7-2.3c-0.6-3.1-1.5-6.2-2.6-9.2C168.4,59.8,162.9,63.2,155.6,65.6z"/>
	<path d="M30.6,83.3c3.6,4.5,7.7,9,12.4,12.7c0.2-1.8,0.4-3.5,0.7-5.1C38.7,89.4,34.7,84.6,30.6,83.3z"/>
	<path d="M41.8,112.1C33.3,111,29,106.4,25.7,101c1.1,4.8,2.4,9.1,4,13C33.3,115.2,37.3,115,41.8,112.1z"/>
	<path d="M38.6,72.1c-6-2.4-10.2-7.4-13.9-12.5c-1.2,4.3-1.8,8.6-2.1,12.9C27.6,74.1,33.1,73.9,38.6,72.1z"/>
	<path d="M160.4,110.5c4.5-1.5,8.6-3.7,12.4-6.5c0.7-2.6,1.2-5.4,1.8-8.3C171.8,102.1,166.6,106.8,160.4,110.5z"/>
	<path class="st0" d="M149.5,56.2c0.1,1.9-5.1,3.5-11.5,3.7c-6.4,0.2-11.6-1.1-11.7-3c-0.1-1.8,5.1-3.5,11.5-3.7
		C144.2,53,149.5,54.4,149.5,56.2z"/>
	
		<ellipse transform="matrix(0.9994 -3.394354e-002 3.394354e-002 0.9994 -1.7506 4.9224)" class="st13" cx="144.1" cy="54" rx="2.2" ry="1.5"/>
	<path d="M149.5,89.6c0.8,2.8,1.3,5.8,1.3,9c0,2.3,0.3,3.1,0.7,5c9.1-3.2,14.8-14.9,18.6-23.6C164,86,158,89.2,149.5,89.6z"/>
	<g>
		<g>
			<path class="st11" d="M52.7,24.6C52.7,24.4,52.7,24.4,52.7,24.6L52.7,24.6z"/>
			<path d="M52.7,24.6L52.7,24.6c-0.4,0-0.5,0-0.4,0c0.1,0,0.2-0.1,0.2-0.1c0,0,0,0,0,0c0,0,0,0,0,0C52.5,24.6,52.6,24.7,52.7,24.6
				c0,0.1,0.1,0.1,0.2,0s0.1-0.2,0.1-0.2l0.1,0l0.1,0c0,0,0.1,0,0.1,0C53.2,24.5,53.1,24.5,52.7,24.6L52.7,24.6z M52.7,24.7
				c-0.3,0-0.4,0-0.5,0c0,0,0,0,0-0.1c0,0,0,0,0.1-0.1l0.1,0c0-0.1,0-0.2,0.1-0.2c0.1-0.1,0.2-0.1,0.2-0.1c0.1,0,0.3,0.1,0.2,0.2
				c0,0,0,0,0,0c0,0,0,0,0,0c0,0,0.2,0,0.3,0C53.2,24.5,53.1,24.5,52.7,24.7L52.7,24.7L52.7,24.7z"/>
		</g>
		<g>
			<path class="st11" d="M95.2,50.2c-0.1,0-0.2,0-0.3,0c-43.1,1.1-65.7,20-52.8,44.4c2.4-12.8,10.5-23.5,20-27.9
				c3.8,3.1,10.7,5.1,18.7,5.1c6.1,0,11.6-1.2,15.6-3.2c0.2,0.1,0.5,0.2,0.7,0.3C94.5,63.1,93.7,56.7,95.2,50.2z"/>
			<path d="M95.1,50.3c-7,0.3-14.1,1.1-20.9,2.5c-6.9,1.4-13.7,3.5-19.9,6.8c-3.1,1.7-6,3.6-8.5,6c-2.5,2.4-4.6,5.3-5.9,8.6
				c-1.3,3.3-1.6,6.9-1.1,10.3c0.5,3.5,1.8,6.8,3.4,9.9l-0.4,0.1c1-5.9,3.3-11.5,6.7-16.5c3.4-4.9,7.9-9.2,13.4-11.8l0.3-0.1
				l0.3,0.2c2.3,1.8,5,2.9,7.8,3.7c2.8,0.8,5.8,1.2,8.7,1.3c2.9,0.1,5.9,0,8.8-0.5c2.9-0.5,5.8-1.2,8.4-2.5l0.1-0.1l0.2,0.1l0.7,0.3
				l-0.4,0.4c-1.3-3-2.1-6.1-2.4-9.4C94.1,56.6,94.4,53.4,95.1,50.3z M95.2,50.2c-1.3,6.3-0.4,12.9,2.2,18.7l0.4,0.8L97,69.3
				L96.2,69l0.3,0c-2.7,1.4-5.6,2.2-8.6,2.7c-3,0.5-6,0.7-9,0.6c-3-0.1-6-0.5-8.9-1.3c-2.9-0.8-5.8-1.9-8.2-3.9l0.5,0.1
				c-5.3,2.4-9.8,6.5-13.1,11.3c-3.4,4.8-5.7,10.3-6.9,16.1l-0.1,0.7l-0.3-0.6c-1.6-3.2-2.9-6.5-3.3-10.1c-0.5-3.5-0.2-7.2,1.1-10.5
				c1.2-3.3,3.3-6.4,5.8-8.9c2.5-2.5,5.4-4.6,8.6-6.3c6.3-3.4,13.2-5.5,20.1-6.8C81,50.7,88.1,50.2,95.2,50.2L95.2,50.2L95.2,50.2z"
				/>
		</g>
		<g>
			<path class="st11" d="M157.2,76.9c-6.9-20.9-23.3-27.6-62-26.6c-1.5,6.5-0.7,12.9,1.9,18.8c3.9,1.8,9.1,2.8,14.9,2.8
				c7.1,0,13.3-1.6,17.3-4.2c12.8,5.9,21.2,14.5,21.5,29.3c0,0.6,0,1.1,0.1,1.6C156.9,92.8,160.2,86.5,157.2,76.9z"/>
			<path d="M157.2,76.9c-1-2.9-2.2-5.7-3.8-8.3c-1.6-2.6-3.5-5-5.8-7c-2.3-2-4.8-3.7-7.6-5c-2.7-1.3-5.6-2.3-8.5-3.1
				c-5.9-1.6-11.9-2.3-18-2.8c-6.1-0.4-12.2-0.5-18.3-0.4l0.2-0.1c-0.7,3.1-0.9,6.3-0.6,9.5c0.3,3.2,1.3,6.3,2.6,9.2l-0.1-0.1
				c5.1,2.2,10.7,2.8,16.1,2.6c2.7-0.1,5.5-0.5,8.1-1.1c2.6-0.7,5.2-1.6,7.5-3l0.2-0.1l0.2,0.1c3.1,1.4,6.1,3,8.8,5
				c2.7,2,5.3,4.3,7.3,7.1c2,2.7,3.6,5.9,4.4,9.2c0.4,1.6,0.7,3.3,0.9,5c0.2,1.7,0.1,3.4,0.2,5l-0.6-0.2c1.5-1.3,2.9-2.8,4-4.4
				c1.2-1.6,2.1-3.4,2.8-5.3c0.6-1.9,0.9-3.9,0.8-5.9C158.1,80.8,157.7,78.8,157.2,76.9z M157.3,76.8c0.6,1.9,1,3.9,1.1,5.9
				c0.1,2-0.1,4.1-0.7,6c-0.6,1.9-1.5,3.8-2.7,5.5c-1.2,1.7-2.5,3.2-4,4.6l-0.5,0.5l-0.1-0.7c-0.1-0.9-0.1-1.7-0.2-2.5
				c-0.1-0.8-0.1-1.7-0.2-2.5c-0.2-1.6-0.5-3.3-1-4.9c-0.9-3.2-2.4-6.2-4.4-8.8c-2-2.6-4.4-4.9-7.1-6.8c-2.7-1.9-5.6-3.6-8.6-5
				l0.5,0c-2.4,1.5-5.1,2.4-7.8,3.1c-2.7,0.6-5.5,1-8.3,1c-2.8,0.1-5.6-0.1-8.3-0.6c-2.8-0.5-5.5-1.2-8-2.4l-0.1,0l0-0.1
				c-1.3-3-2.1-6.1-2.4-9.3c-0.3-3.2-0.1-6.5,0.6-9.6l0-0.1l0.1,0c6.1-0.2,12.2-0.2,18.3,0.1c6.1,0.3,12.2,1,18.2,2.6
				c3,0.8,5.9,1.9,8.6,3.3c2.7,1.4,5.3,3.2,7.6,5.3C152.4,65.5,155.4,71,157.3,76.8z"/>
		</g>
	</g>
	<g>
		<path class="st10" d="M81.6,146c0,0-56.2-23.3-60.7-17.2c-4.5,6.1,45,31.9,45,31.9s3.5,0.6,0.2,10.9"/>
		<path d="M81.5,146.1c-9.4-3.5-18.8-7-28.3-10.4c-4.7-1.7-9.4-3.4-14.2-4.8c-4.8-1.4-9.7-2.8-14.7-2.9c-0.6,0-1.2,0.1-1.8,0.2
			c-0.6,0.1-1.2,0.4-1.4,0.8c-0.3,0.4-0.2,1,0,1.6c0.2,0.5,0.6,1,1,1.5c1.6,1.9,3.6,3.4,5.5,5c4,3,8.2,5.7,12.5,8.3
			c4.3,2.6,8.6,5.2,12.9,7.7c4.3,2.5,8.7,5,13.1,7.4l-0.1,0c0.7,0.2,1,0.7,1.3,1.1c0.3,0.5,0.4,1,0.5,1.5c0.1,1,0.1,2,0,3
			c-0.3,2-0.8,3.8-1.5,5.7l-0.1,0c0.5-1.9,1-3.8,1.2-5.7c0.1-1,0.1-1.9-0.1-2.8c-0.1-0.5-0.2-0.9-0.4-1.3c-0.2-0.4-0.6-0.7-0.9-0.8
			l-0.1,0l0,0c-9-4.5-17.8-9.4-26.3-14.7c-4.2-2.7-8.5-5.5-12.4-8.6c-2-1.6-3.9-3.2-5.5-5.2c-0.4-0.5-0.7-1.1-1-1.7
			c-0.2-0.6-0.4-1.4,0.1-2c0.5-0.6,1.1-0.8,1.8-1c0.6-0.1,1.3-0.2,1.9-0.1c2.5,0,5,0.5,7.5,1.1c2.5,0.5,4.9,1.2,7.3,1.8
			c4.8,1.3,9.7,2.8,14.4,4.4C63,138.2,72.4,141.9,81.5,146.1L81.5,146.1z"/>
	</g>
	<g>
		<path class="st10" d="M130.2,142.9c0,0,56.9-34.9,62.8-29.1c5.9,5.8-43.3,42.4-43.3,42.4s-3.7,1.3,1.7,11.9"/>
		<path d="M130.2,142.9c9.2-6,18.8-11.6,28.5-16.8c4.9-2.6,9.8-5,14.9-7.3c2.5-1.1,5-2.3,7.6-3.2c2.6-1,5.2-2,7.9-2.5
			c0.7-0.1,1.4-0.2,2.1-0.2c0.7,0,1.5,0.2,2.1,0.7c0.6,0.6,0.6,1.5,0.4,2.2c-0.2,0.7-0.5,1.4-0.8,2c-1.4,2.5-3.2,4.6-5.1,6.6
			c-3.8,4.1-7.9,7.8-12,11.4c-8.3,7.2-17,14-26,20.5l0,0l-0.1,0c-0.3,0.1-0.7,0.6-0.8,1c-0.2,0.5-0.2,1-0.3,1.5c0,1,0.2,2.1,0.4,3.1
			c0.5,2.1,1.4,4,2.3,6l-0.1,0c-1-1.9-1.9-3.8-2.6-5.9c-0.3-1-0.5-2.1-0.6-3.2c0-0.6,0.1-1.1,0.2-1.7c0.2-0.5,0.5-1.1,1.1-1.4
			l-0.1,0c4.3-3.4,8.7-6.8,12.9-10.3c4.3-3.4,8.5-7,12.7-10.5c4.2-3.6,8.3-7.3,12.1-11.2c1.9-2,3.7-4,5.1-6.4
			c0.3-0.6,0.6-1.2,0.8-1.8c0.2-0.6,0.1-1.3-0.3-1.7c-0.4-0.4-1.1-0.6-1.7-0.6c-0.7,0-1.3,0-2,0.1c-5.4,1-10.4,3.4-15.4,5.7
			c-5,2.4-9.8,5.1-14.6,7.7C149.4,132.1,139.9,137.5,130.2,142.9L130.2,142.9z"/>
	</g>
	<path d="M104.1,48.7c0,3.8-4.1,10.1-9.2,10.1s-9.2-6.3-9.2-10.1c0-3.8,4.1-5.3,9.2-5.3S104.1,44.9,104.1,48.7z"/>
	<g>
		<path class="st4" d="M140.4,46.9c0.1,3.2-2.6,5.8-6,5.8c-3.4,0.1-6.1-2.5-6.2-5.6c-0.1-3.2,2.6-5.8,6-5.8
			C137.6,41.2,140.4,43.8,140.4,46.9z"/>
		<path d="M138.9,46.9c0.1,3.2-2.6,5.8-6,5.8c-3.4,0.1-6.1-2.5-6.2-5.6c-0.1-3.2,2.6-5.8,6-5.8C136.1,41.3,138.9,43.8,138.9,46.9z"
			/>
		<path class="st13" d="M130.8,46.1c0,0.5-0.4,1-1,1c-0.6,0-1-0.4-1-0.9s0.4-1,1-1C130.4,45.2,130.8,45.6,130.8,46.1z"/>
	</g>
	<g>
		<path class="st4" d="M67,49.1c0.1,3.2-2.6,5.8-6,5.8c-3.3,0.1-6.1-2.5-6.2-5.6c-0.1-3.2,2.6-5.8,6-5.8
			C64.1,43.4,66.9,45.9,67,49.1z"/>
		<path d="M65.4,49.1c0.1,3.2-2.6,5.8-6,5.8c-3.4,0.1-6.1-2.5-6.2-5.6c-0.1-3.2,2.6-5.8,6-5.8C62.6,43.4,65.4,45.9,65.4,49.1z"/>
		<path class="st13" d="M57.4,48.3c0,0.5-0.4,1-1,1c-0.6,0-1-0.4-1-0.9c0-0.5,0.4-1,1-1C56.9,47.3,57.3,47.7,57.4,48.3z"/>
	</g>
	<ellipse transform="matrix(0.9866 -0.1634 0.1634 0.9866 -6.3045 15.5533)" class="st13" cx="91.4" cy="46.1" rx="3.5" ry="0.7"/>
	<g>
		<path class="st11" d="M140.9,22.1c0,0,13.2,1.5,22.4-1.3c9.2-2.8,23.7-2,18.5,9.7c-5.2,11.8-11.1,11.6-11.1,11.6
			S151.1,33.5,140.9,22.1z"/>
		<path d="M140.9,22.1c5.6,0.3,11.2,0.3,16.7-0.5c1.4-0.2,2.7-0.5,4.1-0.8c0.7-0.2,1.3-0.3,2-0.5c0.7-0.2,1.4-0.4,2.1-0.5
			c2.8-0.6,5.6-0.8,8.4-0.5c1.4,0.1,2.8,0.4,4.1,0.9c1.3,0.5,2.6,1.2,3.5,2.3c0.9,1.1,1.3,2.6,1.2,4c-0.1,1.4-0.5,2.8-1,4.1
			c-1.1,2.6-2.4,5.1-4.2,7.3c-0.9,1.1-1.9,2.2-3.1,3c-1.2,0.8-2.5,1.6-4.1,1.7l-0.1,0l-0.1,0c-2.8-1.2-5.5-2.6-8.1-4
			c-2.6-1.5-5.3-3-7.8-4.7C149.6,30.6,144.7,26.8,140.9,22.1l-0.1,0L140.9,22.1z M141,22.2c2.1,2.1,4.3,4,6.7,5.8
			c2.4,1.8,4.9,3.5,7.4,5.1c2.6,1.6,5.1,3.1,7.8,4.5c2.6,1.4,5.3,2.8,8,4.1l-0.2,0c0.5,0,1.2-0.2,1.8-0.5c0.6-0.3,1.2-0.6,1.7-1
			c1.1-0.8,2.1-1.7,3-2.8c1.8-2.1,3.2-4.5,4.3-7c0.6-1.2,1-2.6,1.1-3.9c0.1-1.4-0.3-2.8-1.1-3.8c-0.9-1.1-2.1-1.7-3.4-2.2
			c-1.3-0.4-2.7-0.6-4.1-0.7c-2.8-0.1-5.5,0.2-8.2,0.8c-0.7,0.1-1.3,0.3-2,0.5c-0.7,0.2-1.4,0.4-2,0.6c-1.4,0.3-2.8,0.6-4.2,0.7
			c-2.8,0.3-5.6,0.5-8.4,0.4C146.5,22.8,143.7,22.6,141,22.2z"/>
	</g>
	<g>
		<path class="st11" d="M140.9,22.1c0,0,13.2,1.5,22.4-1.3c9.2-2.8,23.7-2,18.5,9.7c-5.2,11.8-11.1,11.6-11.1,11.6
			S151.1,33.5,140.9,22.1z"/>
		<path d="M140.9,22.1c5.6,0.3,11.2,0.3,16.7-0.5c1.4-0.2,2.7-0.5,4.1-0.8c0.7-0.2,1.3-0.3,2-0.5c0.7-0.2,1.4-0.4,2.1-0.5
			c2.8-0.6,5.6-0.8,8.4-0.5c1.4,0.1,2.8,0.4,4.1,0.9c1.3,0.5,2.6,1.2,3.5,2.3c0.9,1.1,1.3,2.6,1.2,4c-0.1,1.4-0.5,2.8-1,4.1
			c-1.1,2.6-2.4,5.1-4.2,7.3c-0.9,1.1-1.9,2.2-3.1,3c-1.2,0.8-2.5,1.6-4.1,1.7l-0.1,0l-0.1,0c-2.8-1.2-5.5-2.6-8.1-4
			c-2.6-1.5-5.3-3-7.8-4.7C149.6,30.6,144.7,26.8,140.9,22.1l-0.1,0L140.9,22.1z M141,22.2c2.1,2.1,4.3,4,6.7,5.8
			c2.4,1.8,4.9,3.5,7.4,5.1c2.6,1.6,5.1,3.1,7.8,4.5c2.6,1.4,5.3,2.8,8,4.1l-0.2,0c0.5,0,1.2-0.2,1.8-0.5c0.6-0.3,1.2-0.6,1.7-1
			c1.1-0.8,2.1-1.7,3-2.8c1.8-2.1,3.2-4.5,4.3-7c0.6-1.2,1-2.6,1.1-3.9c0.1-1.4-0.3-2.8-1.1-3.8c-0.9-1.1-2.1-1.7-3.4-2.2
			c-1.3-0.4-2.7-0.6-4.1-0.7c-2.8-0.1-5.5,0.2-8.2,0.8c-0.7,0.1-1.3,0.3-2,0.5c-0.7,0.2-1.4,0.4-2,0.6c-1.4,0.3-2.8,0.6-4.2,0.7
			c-2.8,0.3-5.6,0.5-8.4,0.4C146.5,22.8,143.7,22.6,141,22.2z"/>
	</g>
	<g>
		<path class="st11" d="M61.3,19.3c0,0-13.7,3.2-23.6,1.3c-9.9-1.8-25,0.7-18.2,12.3c6.8,11.6,13,10.7,13,10.7S52,32.4,61.3,19.3z"
			/>
		<path d="M61.2,19.4c-2.8,0.7-5.7,1.3-8.5,1.6c-2.9,0.4-5.9,0.6-8.8,0.6c-1.5,0-3-0.1-4.4-0.3c-0.7-0.1-1.5-0.2-2.2-0.4
			c-0.7-0.1-1.4-0.2-2.1-0.3c-2.9-0.3-5.8-0.3-8.7,0.1c-1.4,0.2-2.9,0.6-4.2,1.2c-1.3,0.6-2.6,1.4-3.3,2.7c-0.8,1.2-1,2.7-0.7,4.1
			c0.2,1.4,0.9,2.8,1.6,4c1.5,2.5,3.3,4.8,5.4,6.8c1,1,2.2,1.9,3.4,2.5c0.6,0.3,1.3,0.6,1.9,0.8c0.6,0.2,1.4,0.3,2,0.3l-0.2,0.1
			c2.7-1.6,5.3-3.4,7.9-5.2c2.6-1.8,5.1-3.7,7.6-5.6c2.5-2,4.9-4,7.1-6.2C57.1,24.1,59.3,21.8,61.2,19.4z M61.4,19.3
			c-3.5,5.3-8.2,9.8-13,13.8c-2.4,2-5,3.9-7.6,5.8c-2.6,1.8-5.3,3.6-8,5.2l-0.1,0.1l-0.1,0c-1.7,0.1-3.1-0.5-4.5-1.2
			c-1.3-0.7-2.5-1.7-3.6-2.8c-2.1-2.1-3.8-4.6-5.2-7.2c-0.7-1.3-1.3-2.7-1.6-4.2c-0.3-1.5,0-3.1,0.8-4.3c0.8-1.3,2.1-2.2,3.4-2.8
			c1.3-0.6,2.8-1.1,4.2-1.4c2.9-0.6,5.9-0.7,8.9-0.5c0.7,0.1,1.5,0.2,2.2,0.3c0.7,0.1,1.4,0.2,2.2,0.3c1.4,0.2,2.9,0.3,4.3,0.3
			C49.7,20.9,55.5,20.2,61.4,19.3L61.4,19.3L61.4,19.3z"/>
	</g>
	<g>
		<g>
			<line class="st13" x1="124.1" y1="57.8" x2="144.7" y2="50.1"/>
			<path d="M124.1,57.8c3.3-1.7,6.7-3,10.1-4.3c3.4-1.3,6.9-2.5,10.5-3.4c-3.3,1.7-6.7,3-10.1,4.3C131.1,55.7,127.7,56.9,124.1,57.8
				z"/>
		</g>
		<g>
			<line class="st13" x1="127.6" y1="59.7" x2="149.6" y2="60.1"/>
			<path d="M127.6,59.7c3.7-0.3,7.4-0.3,11-0.3c3.7,0.1,7.3,0.3,11,0.7c-3.7,0.3-7.4,0.3-11,0.3C135,60.3,131.3,60.1,127.6,59.7z"/>
		</g>
		<g>
			<line class="st13" x1="124.1" y1="61.5" x2="144.4" y2="70"/>
			<path d="M124.1,61.5c3.5,1.1,7,2.4,10.3,3.8c3.4,1.4,6.7,2.9,10,4.7c-3.5-1.1-7-2.4-10.3-3.8C130.6,64.8,127.3,63.3,124.1,61.5z"
				/>
		</g>
	</g>
	<g>
		<g>
			<line class="st13" x1="63.9" y1="59.7" x2="43.2" y2="52"/>
			<path d="M63.9,59.7c-3.6-0.9-7-2.1-10.5-3.4c-3.4-1.3-6.8-2.7-10.1-4.3c3.6,0.9,7,2.1,10.5,3.4C57.1,56.6,60.6,58,63.9,59.7z"/>
		</g>
		<g>
			<line class="st13" x1="60.3" y1="61.5" x2="38.3" y2="61.9"/>
			<path d="M60.3,61.5c-3.7,0.5-7.3,0.6-11,0.7c-3.7,0.1-7.3,0-11-0.3c3.7-0.5,7.3-0.6,11-0.7C53,61.2,56.6,61.2,60.3,61.5z"/>
		</g>
		<g>
			<line class="st13" x1="63.9" y1="63.3" x2="43.6" y2="71.9"/>
			<path d="M63.9,63.3c-3.2,1.8-6.6,3.3-10,4.7c-3.4,1.4-6.8,2.7-10.3,3.8c3.2-1.8,6.6-3.3,10-4.7C56.9,65.7,60.3,64.4,63.9,63.3z"
				/>
		</g>
	</g>
	<path d="M112.3,27.1c-4.3-1.5-9-2.1-13.7-2.4c0.5-1.6,1.1-3.2,1.5-4.7c10.7-0.8,18.9-3.1,18.9-3.1c-5.5-1.9-11.5-2.7-17.3-3
		c0.1-0.4,0.2-0.7,0.2-1.1c-1.2,0-2.3,0-3.5,0c-4.5,0-8.7,0.3-12.5,0.7c0,0.3,0.1,0.6,0.1,0.9c-8.9,0.9-15.3,2.5-15.3,2.5
		c5,1.9,10.5,2.8,15.9,3.2c0.2,1.6,0.5,3.3,0.7,4.9c-7.6,0.7-13.2,2.1-13.2,2.1c4.5,1.7,9.4,2.4,14.2,2.6c0.4,1.7,0.9,3.3,1.5,4.9
		c-6,0.5-10.6,1.6-10.6,1.6c3.8,1.4,8,1.9,12,2c0.5,1.2,1.1,2.3,1.8,3.5c0.3-1.2,0.6-2.3,1-3.5c7.2-0.3,13.1-1.9,13.1-1.9
		c-3.8-1.3-7.9-1.7-11.9-1.8c0.5-1.6,1.1-3.3,1.7-4.9C105.6,28.9,112.3,27.1,112.3,27.1z"/>
	<path d="M135.9,108.1c0.1,2.9-2.5,5.3-5.9,5.4c-3.3,0.1-6.1-2.1-6.2-5c-0.1-2.9,2.5-5.3,5.9-5.4C133,103,135.8,105.3,135.9,108.1z"
		/>
	<path d="M138.7,99c0.1,0.9-3.4,2.1-7.8,2.8c-4.4,0.6-8.1,0.4-8.3-0.4c-0.1-0.9,3.4-2.1,7.8-2.8C134.9,97.9,138.6,98.1,138.7,99z"/>
	<path class="st13" d="M128.2,107.5c0,0.5-0.5,1-1.2,1c-0.7,0-1.3-0.4-1.3-0.9c0-0.5,0.5-1,1.2-1S128.1,106.9,128.2,107.5z"/>
	<path d="M60.2,108.9c-0.1,2.9,2.5,5.3,5.9,5.4c3.3,0.1,6.1-2.1,6.2-5c0.1-2.9-2.5-5.3-5.9-5.4C63.1,103.8,60.3,106,60.2,108.9z"/>
	<path d="M57.4,99.7c-0.1,0.9,3.4,2.1,7.8,2.8c4.4,0.6,8.1,0.4,8.3-0.4c0.1-0.9-3.4-2.1-7.8-2.8C61.3,98.6,57.6,98.8,57.4,99.7z"/>
	
		<ellipse transform="matrix(-0.9994 -3.397803e-002 3.397803e-002 -0.9994 121.9233 218.5163)" class="st13" cx="62.8" cy="108.2" rx="1.3" ry="0.9"/>
	
		<ellipse transform="matrix(0.9994 -3.429375e-002 3.429375e-002 0.9994 -3.9362 4.8225)" class="st8" cx="138.6" cy="117.2" rx="11.6" ry="3.4"/>
	
		<ellipse transform="matrix(0.9994 -3.431102e-002 3.431102e-002 0.9994 -3.8457 5.0341)" class="st13" cx="144.8" cy="114.6" rx="3.6" ry="2.4"/>
	<path class="st8" d="M47.8,117.6c-0.1,1.9,5.1,3.5,11.5,3.7c6.4,0.2,11.6-1.1,11.7-3c0.1-1.8-5.1-3.5-11.5-3.7
		C53.1,114.4,47.9,115.7,47.8,117.6z"/>
	
		<ellipse transform="matrix(-0.9994 -3.432044e-002 3.432044e-002 -0.9994 102.4458 232.4909)" class="st13" cx="53.2" cy="115.4" rx="3.6" ry="2.4"/>
	<g>
		<path class="st9" d="M89.3,131.1c0,0,8-36.9,22.4,0C111.7,131.1,101.5,136.1,89.3,131.1z"/>
		<g>
			<path d="M89.3,131.1c0.3-1.7,0.7-3.4,1.2-5.1c0.5-1.7,1.1-3.3,1.8-4.9c0.7-1.6,1.6-3.2,2.9-4.5c0.6-0.7,1.3-1.2,2.2-1.7
				c0.8-0.4,1.8-0.6,2.7-0.4c1.8,0.3,3.2,1.6,4.4,2.8c1.2,1.3,2.2,2.7,3.1,4.2c1.8,3,3.3,6.1,4.6,9.4l0.2,0.4l-0.4,0.2
				c-1.8,0.8-3.7,1.4-5.6,1.8c-1.9,0.4-3.9,0.5-5.8,0.5c-1.9-0.1-3.9-0.3-5.8-0.7C92.9,132.7,91,132,89.3,131.1L89.3,131.1
				L89.3,131.1z M89.4,131.1c1.8,0.6,3.6,1.1,5.5,1.4c1.9,0.3,3.8,0.5,5.7,0.4c1.9,0,3.8-0.2,5.6-0.6c1.8-0.4,3.7-0.9,5.4-1.6
				l-0.2,0.6c-1.2-3.2-2.5-6.4-4.2-9.5c-0.8-1.5-1.8-3-2.9-4.3c-1.1-1.2-2.6-2.4-4.3-2.5c-1.7-0.2-3.1,0.9-4.2,2.2
				c-1.1,1.3-2,2.7-2.7,4.3C91.5,124.5,90.4,127.8,89.4,131.1z"/>
		</g>
	</g>
	<g>
		<path class="st13" d="M92.3,122.1c4.8,0,9.8-0.5,14.8-0.8C100.2,109.9,95.2,115.6,92.3,122.1z"/>
		<path d="M92.3,122.1c1.2-0.1,2.5-0.1,3.7-0.2l3.7-0.3c2.5-0.2,4.9-0.4,7.4-0.6l-0.3,0.5c-0.9-1.5-1.9-2.9-3.1-4.2
			c-1.2-1.2-2.7-2.3-4.3-2.2c-1.7,0-3.1,1.2-4.2,2.5C94,119,93.1,120.5,92.3,122.1z M92.3,122.1c0.6-1.6,1.4-3.3,2.5-4.7
			c0.5-0.7,1.2-1.4,1.9-1.9c0.7-0.5,1.6-0.9,2.6-1c1-0.1,1.9,0.2,2.7,0.7c0.8,0.4,1.5,1,2.2,1.7c1.3,1.3,2.3,2.8,3.2,4.3l0.3,0.5
			l-0.6,0c-2.5,0.1-4.9,0.3-7.4,0.4C97.3,122.2,94.8,122.2,92.3,122.1z"/>
	</g>
	<path class="st1" d="M84.8,145.9c0,0,13.1-9.4,34.5,0c0,0,4.8,1.8,2.9,7.3c-1.8,5.5,0.4,7.1,0.4,7.1l-3.6-4.3c0,0,5.6,9.4,5.2,16.9
		c0,0.5-0.1,0.9-0.1,1.4c-1.3,7.7-2.9,7-5.8,13.6c0,0-9.3-1.6-6.1-9.7c0,0-2.7,4.7,0,12.1c0,0-8.8-0.1-9.9-12.6
		c0,0,1.4,9.7-4.1,10.2c0,0,2-4.1,0-10.2l-2.6,4.8c0,0-12.3-7-4.8-24.5l-5.9,6c0,0,7.6-10.7,2.9-13.9
		C83,147.1,84.8,145.9,84.8,145.9z"/>
	<path class="st2" d="M79.2,142.7c16.1,6.3,33.8,8.9,47.7-0.7c-7.3,0.9-16.4,1.4-27.5,1.4C91.7,143.4,85.1,143.1,79.2,142.7z"/>
	<g>
		<path class="st12" d="M83.2,144.3c0,0,13.1-9.4,34.4,0c0,0,4.8,1.8,2.9,7.3c-1.8,5.5,0.4,7.1,0.4,7.1l-3.6-4.3
			c0,0,5.6,9.4,5.2,16.9c0,0.5-0.1,0.9-0.2,1.4c-1.3,7.7-2.9,7-5.8,13.6c0,0-9.3-1.6-6.1-9.7c0,0-2.7,4.7,0,12.1
			c0,0-8.8-0.1-9.9-12.6c0,0,1.4,9.7-4.1,10.2c0,0,2-4.1,0-10.2l-2.6,4.8c0,0-12.3-7-4.8-24.5l-5.9,6c0,0,7.6-10.7,2.9-13.9
			C81.4,145.5,83.2,144.3,83.2,144.3z"/>
		<path d="M83.2,144.3c3.7-2.4,8-3.6,12.3-4.1c4.3-0.5,8.7-0.2,13,0.7c2.1,0.5,4.2,1.1,6.3,1.8c1,0.4,2.1,0.8,3,1.2
			c1.1,0.5,2,1.2,2.7,2.2c0.7,1,1,2.2,0.9,3.3c0,0.6-0.1,1.2-0.2,1.7l-0.5,1.6c-0.3,1-0.5,2.1-0.4,3.1c0,0.5,0.1,1,0.3,1.5
			c0.1,0.4,0.4,0.9,0.7,1.2l-0.6,0.6l-3.6-4.3l0.6-0.5c1.4,2.5,2.6,5.1,3.5,7.9c0.9,2.7,1.6,5.5,1.6,8.4c0,1.5-0.3,2.9-0.6,4.3
			c-0.3,1.4-0.7,2.8-1.4,4.1c-0.6,1.3-1.5,2.5-2.2,3.7c-0.7,1.2-1.4,2.5-1.9,3.8l-0.1,0.1l-0.1,0c-1.1-0.2-2.2-0.6-3.2-1.1
			c-1-0.5-1.9-1.2-2.6-2.2c-0.7-0.9-1.1-2.1-1.1-3.2c0-1.2,0.2-2.3,0.7-3.4l0.4,0.2c-0.4,0.9-0.7,1.9-0.9,2.9c-0.2,1-0.2,2-0.2,3
			c0.1,2,0.5,4,1.2,6l0.2,0.5l-0.5,0c-1.6-0.1-3-0.6-4.3-1.4c-1.3-0.8-2.4-1.9-3.3-3.1c-1.7-2.5-2.5-5.5-2.7-8.5l0.9-0.1
			c0.1,1.1,0.2,2.1,0.2,3.1c0,1-0.1,2.1-0.4,3.1c-0.2,1-0.6,2.1-1.4,3c-0.7,0.9-1.9,1.5-3,1.5l-0.9,0.1l0.4-0.8
			c0.3-0.7,0.5-1.5,0.7-2.4c0.1-0.8,0.2-1.7,0.2-2.5c0-1.7-0.3-3.3-0.9-5l1,0.1l-2.6,4.8l-0.3,0.5l-0.4-0.3c-2-1.3-3.6-3-4.9-5
			c-1.2-2-2.1-4.2-2.4-6.6c-0.3-2.3-0.2-4.7,0.3-6.9c0.4-2.3,1.2-4.5,2.1-6.6l0.6,0.4l-6,5.9l-0.4-0.3c1-1.4,1.9-2.9,2.7-4.5
			c0.8-1.6,1.5-3.2,1.7-5c0.1-0.9,0.1-1.8-0.2-2.6c-0.1-0.4-0.4-0.8-0.7-1.1c-0.3-0.3-0.7-0.6-1-0.8c-0.7-0.5-1.4-1.1-2-1.7
			c-0.3-0.3-0.6-0.7-0.7-1.1C82.8,145.1,82.8,144.6,83.2,144.3z M83.3,144.4c-0.4,0.2-0.4,0.7-0.3,1.1c0.1,0.4,0.4,0.8,0.7,1.1
			c0.6,0.7,1.3,1.2,2,1.7c0.4,0.3,0.8,0.5,1.1,0.8c0.3,0.3,0.5,0.7,0.7,1.2c0.3,0.9,0.3,1.8,0.2,2.7c-0.2,1.8-0.9,3.5-1.6,5.1
			c-0.8,1.6-1.6,3.2-2.6,4.6l-0.4-0.3l5.8-6.1l1.3-1.4l-0.7,1.8c-0.8,2.1-1.5,4.2-1.9,6.4c-0.4,2.2-0.5,4.4-0.1,6.6
			c0.3,2.2,1.1,4.3,2.3,6.2c1.2,1.8,2.7,3.5,4.5,4.7l-0.7,0.2L96,176l0.6-1.1L97,176c0.6,1.7,0.9,3.5,0.9,5.3c0,0.9,0,1.8-0.2,2.7
			c-0.2,0.9-0.4,1.8-0.8,2.6l-0.5-0.7c0.9-0.1,1.7-0.5,2.3-1.2c0.6-0.7,0.9-1.6,1.2-2.5c0.4-1.9,0.4-4,0.2-5.9l0.9-0.1
			c0.2,2.8,0.9,5.7,2.5,8.1c0.8,1.2,1.8,2.2,3,2.9c1.2,0.7,2.6,1.2,3.9,1.3l-0.3,0.4c-0.7-2-1.1-4.1-1.2-6.2c0-1,0.1-2.1,0.3-3.1
			c0.2-1,0.5-2,1-3l0.4,0.2c-0.4,1-0.7,2.1-0.7,3.2c0,1.1,0.4,2.2,1,3c0.6,0.9,1.5,1.6,2.5,2.1c1,0.5,2,0.9,3.1,1.1l-0.2,0.1
			c0.6-1.3,1.2-2.6,2-3.8c0.7-1.2,1.5-2.4,2.1-3.7c0.6-1.3,1-2.6,1.3-4c0.3-1.4,0.6-2.8,0.5-4.2c0-2.8-0.8-5.6-1.7-8.2
			c-1-2.7-2.2-5.2-3.6-7.7l0.6-0.5l3.6,4.3l-0.6,0.6c-1-0.9-1.3-2.1-1.3-3.3c0-1.2,0.1-2.3,0.4-3.4c0.3-1.1,0.7-2,0.7-3.1
			c0.1-1-0.2-2-0.7-2.8c-0.5-0.8-1.4-1.5-2.3-1.9c-1-0.4-2-0.9-3-1.2c-2-0.8-4.1-1.4-6.2-2c-4.2-1-8.5-1.4-12.9-1.1
			c-2.2,0.2-4.3,0.6-6.4,1.3C87.1,142.4,85.1,143.2,83.3,144.4z"/>
	</g>
	<path class="st1" d="M120.5,158.2c-0.5-0.9-1.2-2.8,0.1-6.5c1.8-5.5-2.9-7.3-2.9-7.3c-0.5-0.2-1-0.4-1.5-0.6
		c0.8,3.7,1.5,7.6,1.8,11.6L120.5,158.2z"/>
	<path class="st1" d="M118.1,155.7c0.8,9,0,18.1-4.1,25.3c-1.6-3.2-1.6-8-3.2-11.2c-1.6,3.2-4.8,4.8-3.2,8c-4.8-1.6-6.4-8-11.2-8
		c0,3.2-1.6,4.8-3.2,6.4c-1.2,0.3-2.4,0.5-3.6,0.5c2,3,4.4,4.3,4.4,4.3l2.6-4.8c2,6.1,0,10.2,0,10.2c5.1-0.4,4.3-8.9,4.1-10.1
		c0,0,0-0.1,0-0.1c0,0,0,0.1,0,0.1c1.1,12.4,9.9,12.5,9.9,12.5c-2.7-7.4,0-12.1,0-12.1c-3.2,8,6.1,9.7,6.1,9.7
		c2.9-6.6,4.5-5.9,5.8-13.6c0.1-0.4,0.1-0.9,0.2-1.4C123,165.5,119.6,158.5,118.1,155.7z"/>
	<g>
		<path class="st12" d="M100.6,176.3c0-0.1,0-0.1,0-0.1C100.6,176.3,100.6,176.3,100.6,176.3z"/>
		<path d="M100.6,176.3c-0.2,0-0.3,0-0.3,0c-0.1,0-0.1,0,0,0c0.1,0,0.2-0.1,0.2-0.1c0,0,0,0-0.1,0l0.5,0c0.2,0,0.3,0,0.3,0
			C101.1,176.2,101,176.3,100.6,176.3L100.6,176.3L100.6,176.3z M100.6,176.3L100.6,176.3c-0.4,0-0.5,0-0.5,0c0,0,0-0.1,0.2-0.1
			l-2.1,0.5l2.6-0.5c-0.1,0-0.1,0-0.1,0c0,0,0.2,0,0.3,0c0.1,0,0,0,0,0C100.9,176.3,100.9,176.3,100.6,176.3L100.6,176.3z"/>
	</g>
</g>
</svg>
