<?xml version="1.0" encoding="utf-8"?>
<!-- Generator: Adobe Illustrator 15.1.0, SVG Export Plug-In . SVG Version: 6.00 Build 0)  -->
<!DOCTYPE svg PUBLIC "-//W3C//DTD SVG 1.1//EN" "http://www.w3.org/Graphics/SVG/1.1/DTD/svg11.dtd">
<svg version="1.1" id="tiger_1_" xmlns="http://www.w3.org/2000/svg" xmlns:xlink="http://www.w3.org/1999/xlink" x="0px" y="0px"
	 width="22px" height="19.4px" viewBox="0 0 22 19.4" style="enable-background:new 0 0 22 19.4;" xml:space="preserve">
<style type="text/css">
<![CDATA[
	.st0{opacity:0.13;}
	.st1{fill:#FFFFFF;}
]]>
</style>
<g>
	<path class="st1" d="M15.7,1.2c-2.5-0.7-5.1,0.3-6.9,2.4L3.3,2.1L1,9.9l5.5,1.6c0.4,2.8,2.1,5.1,4.5,5.8c3.6,1.1,7.6-1.7,8.9-6.1
		C21.3,6.8,19.4,2.3,15.7,1.2z"/>
	<path d="M15.7,1.3C14.5,0.9,13.1,1,12,1.6C10.8,2.1,9.8,2.9,9,3.9L8.9,4L8.7,4C6.8,3.6,5,3,3.2,2.5l0.5-0.3C2.9,4.8,2,7.4,1.2,10
		L1,9.7C2,10,2.9,10.3,3.8,10.6c0.9,0.3,1.8,0.5,2.8,0.8l0.1,0l0,0.1c0.4,2.5,2.2,4.9,4.6,5.4c1.2,0.3,2.5,0.1,3.6-0.4
		c1.1-0.5,2.1-1.3,2.9-2.3c0.8-1,1.4-2.1,1.7-3.3c0.4-1.2,0.5-2.5,0.4-3.8c-0.1-1.3-0.5-2.5-1.2-3.6C18.1,2.5,17,1.7,15.7,1.3z
		 M15.7,1.2C17,1.5,18.2,2.4,19,3.4c0.8,1.1,1.4,2.4,1.6,3.7c0.5,2.7-0.3,5.6-2.1,7.8c-0.9,1.1-2,2-3.3,2.5
		c-1.3,0.5-2.8,0.7-4.2,0.3c-1.4-0.4-2.6-1.3-3.4-2.4c-0.8-1.1-1.2-2.5-1.4-3.8l0.1,0.2c-0.9-0.3-1.8-0.6-2.7-0.8
		c-0.9-0.3-1.8-0.5-2.7-0.8l-0.2,0l0-0.2c0.7-2.6,1.3-5.3,2-7.9L3,1.5l0.4,0.1c1.8,0.5,3.7,1.1,5.5,1.7L8.5,3.5
		c0.9-1,2.1-1.7,3.3-2.2C13.1,0.9,14.5,0.8,15.7,1.2z"/>
</g>
<path class="st0" d="M14.7,12.3c-4.2,2.5-8.4-3.7-13.2-4.1L1,9.9l5.5,1.6c0.4,2.8,2.1,5.1,4.5,5.8c3.6,1.1,7.6-1.7,8.9-6.1
	c0.6-1.9,0.5-3.9,0-5.6C18.9,8.5,17.3,11,14.7,12.3z"/>
</svg>
