<?xml version="1.0" encoding="utf-8"?>
<!-- Generator: Adobe Illustrator 15.1.0, SVG Export Plug-In . SVG Version: 6.00 Build 0)  -->
<!DOCTYPE svg PUBLIC "-//W3C//DTD SVG 1.1//EN" "http://www.w3.org/Graphics/SVG/1.1/DTD/svg11.dtd">
<svg version="1.1" id="tiger_1_" xmlns="http://www.w3.org/2000/svg" xmlns:xlink="http://www.w3.org/1999/xlink" x="0px" y="0px"
	 width="200.5px" height="271.5px" viewBox="0 0 200.5 271.5" style="enable-background:new 0 0 200.5 271.5;" xml:space="preserve"
	>
<style type="text/css">
<![CDATA[
	.st0{opacity:0.6;fill:#FF9494;}
	.st1{opacity:8.000000e-002;}
	.st2{opacity:0.38;fill:#BF7326;}
	.st3{opacity:0.24;}
	.st4{opacity:0.25;}
	.st5{opacity:0.46;}
	.st6{opacity:0.65;}
	.st7{fill:#B78558;}
	.st8{fill:#B78B69;}
	.st9{fill:#EDBB8A;}
	.st10{opacity:0.44;fill:#B78558;}
	.st11{fill:url(#SVGID_1_);}
	.st12{opacity:0.42;fill:#FF9494;}
	.st13{fill:#FF9D33;}
	.st14{fill:#FFE1C5;}
	.st15{fill:#FFF4EB;}
	.st16{fill:#FFFFFF;}
	.st17{fill:#FF9D33;stroke:#000000;stroke-miterlimit:10;}
	.st18{fill:#FFE1C5;stroke:#000000;stroke-miterlimit:10;}
]]>
</style>
<g>
	<path class="st3" d="M111.7,240.7c-11.4,0-22,0.6-30.8,1.5c-2.1-0.9-5.8-1.9-10.3-1.4c-0.2,0-0.4,0-0.6,0.1c0-0.1-0.1-0.1-0.1-0.2
		c-1,0.2-2,0.4-3.1,0.7c0,0,0,0,0,0c-4.4,1.1-9.4,3.7-14.3,9c-0.4,0.4-0.8,0.8-1.2,1.2c-0.1,0.1-0.3,0.2-0.4,0.3
		c-0.3,0.3-0.5,0.5-0.8,0.7c-0.1,0.1-0.3,0.3-0.5,0.4c-0.3,0.2-0.5,0.4-0.8,0.6c-0.2,0.1-0.3,0.2-0.5,0.4c-0.3,0.2-0.5,0.4-0.8,0.5
		c-0.2,0.1-0.3,0.2-0.5,0.3c-0.3,0.2-0.6,0.4-0.9,0.5c-0.1,0.1-0.3,0.2-0.4,0.2c-0.4,0.2-0.8,0.4-1.2,0.6c-0.2,0.1-0.4,0.2-0.6,0.3
		c-0.2,0.1-0.4,0.2-0.6,0.3c-0.2,0.1-0.4,0.2-0.7,0.3c-0.2,0.1-0.4,0.1-0.5,0.2c-0.2,0.1-0.5,0.2-0.7,0.3c-0.2,0-0.3,0.1-0.5,0.1
		c-0.3,0.1-0.5,0.2-0.8,0.2c-0.1,0-0.2,0.1-0.3,0.1c-0.4,0.1-0.8,0.2-1.1,0.3c0,0,0,0,0,0c-0.8,0.2-1.7,0.3-2.5,0.4c0,0,0,0,0,0
		c-0.8,0.1-1.6,0.1-2.4,0.1c0,0,0,0,0,0c-7,0-12.4-3.1-12.6-4.6c-0.2-1.3-1.4-2.9-2.4-3.1c0,0,0,0,0,0c0,0-0.1,0-0.1,0
		c0,0,0,0-0.1,0c0,0-0.1,0-0.1,0s-0.1,0-0.1,0c0,0-0.1,0-0.1,0c0,0-0.1,0-0.1,0c0,0,0,0-0.1,0c0,0-0.1,0-0.1,0.1c0,0,0,0,0,0
		c0,0-0.1,0.1-0.1,0.1c0,0,0,0,0,0c-0.1,0.2-0.3,0.4-0.3,0.7c0,0,0,0,0,0c0,0.1,0,0.2-0.1,0.3c0,0,0,0,0,0.1c0,0.1,0,0.2,0,0.3
		c0,0,0,0.1,0,0.1c0,0.1,0,0.2,0,0.3c0,0,0,0.1,0,0.1c0,0.1,0,0.2,0,0.3c0,0.1,0,0.1,0,0.2c0,0.1,0,0.2,0,0.4c0,0.1,0,0.1,0,0.2
		c0,0.1,0,0.3,0,0.4c0,0.1,0,0.1,0,0.2c0,0.1,0,0.3,0.1,0.5c0,0.1,0,0.1,0,0.2c0,0.2,0.1,0.5,0.1,0.7c0,0.2,0.1,0.4,0.2,0.6
		c0.8,2.4,3.4,4.3,7,5.5c0,0,0,0,0,0c0,0,0.1,0,0.1,0c5.9,1.9,14.3,1.8,21.7-1.8c0,0,0,0,0,0c0.2-0.1,0.4-0.2,0.6-0.3
		c0.1-0.1,0.3-0.1,0.4-0.2c2.5-1.3,4.8-3,6.8-5.2c0.9-1,1.8-1.9,2.7-2.6c5.9,4,27.9,7.1,54.2,7.1c30.8,0,55.8-4.1,55.8-9.2
		C167.5,244.8,142.5,240.7,111.7,240.7z"/>
	<path class="st17" d="M114.5,210.4c0,1.8,0.1,3.6,0.1,5.4h9.1c0,0,3.3,80.2,18.7-5.4H114.5z"/>
	<path class="st2" d="M114.5,210.4c0,1.8,0.1,3.6,0.1,5.4h9.1c0,0,3.3,80.2,18.7-5.4H114.5z"/>
	<g>
		<g>
			<path class="st13" d="M104.6,163.9c0,0-5.5,24.5-39,34.8C32.1,209,8.9,249.8,18.7,258.5c9.7,8.7,10.5-1.8,7-4.3
				c-3.5-2.6,6.6-37,43.3-48.4c36.7-11.4,45.4-37.6,46.9-44.3C115.9,161.5,116,150.9,104.6,163.9z"/>
			<path d="M104.6,164c-0.7,2.9-2,5.7-3.4,8.4c-1.5,2.7-3.2,5.2-5.1,7.5c-3.9,4.7-8.6,8.7-13.8,11.9c-5.2,3.2-10.9,5.6-16.7,7.4
				c-5.7,1.8-11.2,4.5-16.3,7.8c-10.1,6.6-18.8,15.4-25.3,25.6c-1.6,2.6-3.1,5.2-4.3,8c-1.2,2.8-2.2,5.6-2.7,8.6
				c-0.2,1.5-0.4,3-0.2,4.5c0.2,1.5,0.6,3,1.5,4.1c0.5,0.6,1.1,1,1.6,1.5c0.6,0.5,1.2,0.9,1.8,1.3c0.6,0.4,1.3,0.7,2,0.9
				c0.7,0.2,1.4,0.3,2.1,0c0.6-0.2,1.1-0.8,1.3-1.5c0.2-0.7,0.3-1.4,0.2-2.1c-0.1-0.7-0.3-1.4-0.6-2.1c-0.2-0.3-0.4-0.6-0.6-0.9
				c-0.1-0.1-0.2-0.3-0.4-0.4c-0.1-0.1-0.3-0.2-0.5-0.4c-0.5-0.8-0.5-1.6-0.5-2.4c0-0.8,0.1-1.5,0.2-2.3c0.3-1.5,0.7-3,1.2-4.4
				c2-5.8,5-11.2,8.7-16.1c7.4-9.8,17.5-17.4,28.9-21.8c1.4-0.6,2.9-1.1,4.3-1.5c1.5-0.5,2.9-0.9,4.3-1.4c2.8-1,5.6-2.1,8.4-3.4
				c5.4-2.6,10.6-5.8,15.3-9.6c4.7-3.8,8.8-8.3,12.2-13.3c3.4-5,6.1-10.5,7.5-16.4l0,0c0-0.7-0.1-1.3-0.3-2c-0.2-0.6-0.5-1.2-1-1.6
				c-0.5-0.4-1.2-0.4-1.8-0.2c-0.6,0.2-1.2,0.5-1.8,0.8c-1.2,0.7-2.2,1.6-3.2,2.5C106.5,162,105.6,162.9,104.6,164z M104.6,163.9
				c0.9-1,1.8-2.1,2.8-3c1-1,2-1.9,3.2-2.6c0.6-0.4,1.2-0.7,1.9-0.9c0.7-0.2,1.5-0.2,2.1,0.2c0.6,0.4,1,1.1,1.2,1.8
				c0.2,0.7,0.3,1.4,0.3,2.1l0,0l0,0c-1.3,6-4,11.6-7.4,16.7c-3.4,5.1-7.5,9.7-12.2,13.6c-4.7,3.9-9.9,7.2-15.4,9.8
				c-2.8,1.3-5.6,2.5-8.5,3.5c-1.4,0.5-2.9,1-4.3,1.4c-1.4,0.5-2.8,1-4.2,1.5c-5.6,2.2-10.9,5.1-15.7,8.7
				c-4.8,3.6-9.2,7.9-12.8,12.7c-3.7,4.8-6.7,10.1-8.7,15.7c-0.5,1.4-0.9,2.9-1.2,4.3c-0.1,0.7-0.2,1.5-0.3,2.2c0,0.7,0,1.5,0.4,2
				c0.1,0.1,0.2,0.2,0.4,0.3c0.2,0.1,0.3,0.3,0.4,0.4c0.3,0.3,0.5,0.7,0.6,1c0.4,0.7,0.6,1.5,0.6,2.3c0.1,0.8,0,1.6-0.2,2.4
				c-0.3,0.8-0.8,1.5-1.6,1.8c-0.8,0.3-1.6,0.2-2.4-0.1c-0.8-0.2-1.4-0.6-2.1-1c-0.7-0.4-1.3-0.9-1.9-1.3c-0.6-0.5-1.2-1-1.7-1.6
				c-1-1.2-1.4-2.8-1.6-4.3c-0.1-1.5,0-3.1,0.2-4.6c1.2-6,3.9-11.6,7.1-16.7c3.2-5.2,7-10,11.2-14.4c4.2-4.4,8.9-8.4,14-11.7
				c5.1-3.3,10.6-6.1,16.5-7.9c5.8-1.7,11.4-4.1,16.5-7.2c5.2-3.1,9.9-7,13.8-11.6c2-2.3,3.7-4.8,5.3-7.4
				C102.4,169.6,103.7,166.8,104.6,163.9L104.6,163.9L104.6,163.9z"/>
		</g>
		<path class="st2" d="M105.3,178.6c1.1-3.2,0-7.1-2.8-9.1c1.6-3.4,2.1-5.6,2.1-5.6c11.4-13,11.3-2.5,11.3-2.5
			c0.4,4.5-10.2,32.9-46.9,44.3c-15.5,4.8-26.2,13.7-33.2,22.6C46.4,205.9,85.8,200.8,105.3,178.6z"/>
		<path d="M103.9,184.4c-1.4,1.5-3,3-4.7,4.5c0.3-3.2-0.2-6.3-0.6-9.3C102.6,179,103.3,180.8,103.9,184.4z"/>
		<path d="M71.2,197.5c0.3,1.7,0.7,4.8,1.1,7.2c-1.1,0.4-2.1,0.8-3.2,1.1c-0.7,0.2-1.4,0.5-2,0.7C69.8,203.6,69.5,199.8,71.2,197.5z
			"/>
		<path d="M50.3,212.1c1-3.1-0.5-4-2.4-4.7c1.3-0.9,2.6-1.7,4-2.5C52.6,207.2,53.4,210,50.3,212.1z"/>
		<path d="M18.8,242.1c0.9-2.2,2-4.5,3.3-6.9c1.5,1.7,3.1,3.4,4.7,5.7C24.6,241.3,21.7,241.7,18.8,242.1z"/>
		<path d="M18.7,258.5c-0.7-0.6-1.1-1.3-1.5-2.2c3.1-0.3,6.3-0.6,9.4-1.2C28.9,258.6,27.5,266.4,18.7,258.5z"/>
		<path d="M33.2,221.5c2.6-0.4,5.4,0,8.1,0.7c-2.5,2.5-4.8,5.1-6.7,7.7C35.3,227,36.4,223.9,33.2,221.5z"/>
		<path d="M88.1,191.3c0.5,0.9,1,2,1.2,3.5C88.7,193.7,88.3,192.5,88.1,191.3z"/>
		<path d="M88.1,191.3c-0.6-1-1.5-1.7-2.5-2.2c0.7-0.5,1.4-1,2-1.5C87.7,188.8,87.8,190.1,88.1,191.3z"/>
		<path d="M108.5,168.9c-2.9,2.1-4.9,2.8-7.4,3.3c0.6-1,1.1-2,1.5-2.9C104.5,170,106.3,170.4,108.5,168.9z"/>
	</g>
	<g>
		<path class="st9" d="M155.6,112.4c-0.4-7.5-0.9-7.1-0.6-10.6c2-22.8-18.5-35.8-45.3-38.7C83,60.3,63.4,63.5,58.3,89.9
			c-0.8,4.2,0.9,8.7,0.4,12.5c-0.5,3.8-2.4,6.3-2.8,9.5c-1.2,10.7,10.1,18.3,48.9,22.5c38.9,4.2,50.2-1,51.4-11.6
			C156.7,118.8,156,120,155.6,112.4z"/>
		<g>
			<path d="M155.6,112.4c-0.1-1.5-0.2-3-0.3-4.5c-0.1-1.5-0.4-3-0.4-4.5c0.1-1.5,0.2-3,0.2-4.5c0-1.5-0.1-3-0.4-4.5
				c-0.5-3-1.4-5.9-2.8-8.6c-1.4-2.7-3.2-5.1-5.3-7.2c-4.3-4.3-9.6-7.4-15.1-9.7c-5.6-2.3-11.5-3.8-17.5-4.7c-6-0.9-12-1.5-18.1-1.5
				c-6-0.1-12.2,0.4-17.9,2.4c-2.9,1-5.6,2.4-8,4.2c-2.4,1.8-4.5,4.1-6.1,6.6c-1.6,2.5-2.9,5.3-3.8,8.2c-0.5,1.4-0.8,2.9-1.2,4.4
				c-0.2,0.7-0.3,1.5-0.4,2.2c-0.1,0.7-0.1,1.5-0.1,2.2c0.1,3,0.9,6,0.7,9.1c-0.1,1.5-0.5,3.1-1,4.5c-0.5,1.4-1.2,2.8-1.5,4.3
				c-0.7,2.9-0.2,6,1.5,8.4c1.6,2.4,4.1,4.2,6.8,5.6c5.3,2.8,11.2,4.3,17.1,5.6c5.9,1.3,11.9,2.2,17.9,2.9c6,0.8,12.1,1.3,18.1,1.7
				c6,0.4,12.1,0.6,18.2,0.2c3-0.2,6-0.6,8.9-1.4c2.9-0.8,5.8-2,7.9-4.1c1.1-1.1,1.9-2.3,2.4-3.8c0.5-1.4,0.8-2.9,0.9-4.4
				c0.1-1.5-0.2-3-0.4-4.5C155.7,115.5,155.6,113.9,155.6,112.4z M155.7,112.4c0.1,1.5,0.2,3,0.4,4.5c0.2,1.5,0.5,3,0.4,4.5
				c-0.1,1.5-0.3,3.1-0.8,4.5c-0.5,1.4-1.4,2.8-2.4,3.9c-2.2,2.2-5.1,3.5-8,4.4c-2.9,0.9-6,1.3-9,1.6c-6.1,0.6-12.2,0.4-18.3,0.1
				c-6.1-0.3-12.1-1-18.2-1.7c-6-0.7-12.1-1.6-18-2.9c-5.9-1.3-11.9-2.9-17.4-5.8c-2.7-1.5-5.3-3.3-7.1-6c-1.8-2.6-2.2-6-1.5-9.1
				c0.4-1.5,1-2.9,1.6-4.3c0.5-1.4,0.9-2.8,1.1-4.3c0.2-3-0.6-6-0.6-9.1c0-0.8,0-1.5,0.1-2.3c0.1-0.8,0.3-1.5,0.5-2.3
				c0.3-1.5,0.7-3,1.2-4.4c1-2.9,2.2-5.7,3.9-8.3c1.7-2.6,3.8-4.8,6.2-6.7c2.4-1.8,5.2-3.3,8.1-4.3c5.8-2,11.9-2.6,18-2.6
				c3,0,6.1,0.1,9.1,0.3c3,0.2,6.1,0.5,9.1,0.9c6,0.9,12,2.4,17.7,4.7c5.6,2.4,11,5.6,15.3,10c2.1,2.2,3.9,4.7,5.3,7.5
				c1.4,2.7,2.3,5.7,2.7,8.7c0.2,1.5,0.3,3,0.3,4.6c0,1.5-0.2,3-0.2,4.6c0,1.5,0.2,3,0.3,4.5C155.5,109.4,155.6,110.9,155.7,112.4z"
				/>
		</g>
	</g>
	<path class="st10" d="M78.1,117.7c-8-16.7-6-39.9,7.1-54.7c-13.9,2.2-23.5,9.5-26.9,26.9c-0.8,4.2,0.9,8.7,0.4,12.5
		c-0.5,3.8-2.4,6.3-2.8,9.5c-1.1,10,8.6,17.2,41.4,21.6C89.1,130.5,82.1,125.7,78.1,117.7z"/>
	<g>
		<path class="st9" d="M56.8,89.7c-0.2,1.3-0.3,2.6-0.2,3.9c0.1-1.4,0.2-2.8,0.2-4.2C56.8,89.5,56.8,89.6,56.8,89.7z"/>
		<g>
			<path d="M56.8,89.8c-0.1,0.3,0,0.7,0.1,1c0.1,0.3,0.1,0.6,0.1,1c0,0.3-0.2,0.6-0.2,1c-0.1,0.3,0,0.7,0.1,1l-0.4,0
				c0-0.4-0.1-0.7-0.2-1.1c0-0.4,0-0.7,0-1.1c0-0.4,0-0.7,0.1-1.1c0.1-0.3,0.3-0.7,0.4-1l0.2,0C56.9,89.6,56.8,89.7,56.8,89.8z
				 M56.7,89.7c0-0.1,0-0.2,0-0.3l0.2,0c0,0.4,0.2,0.7,0.3,1.1c0.1,0.4,0.1,0.7,0,1.1c0,0.4-0.1,0.7-0.2,1.1c-0.1,0.4-0.2,0.7-0.3,1
				l-0.4,0c0-0.3,0-0.7,0-1c-0.1-0.3-0.2-0.7-0.2-1c0-0.3,0-0.7,0.2-1C56.5,90.4,56.7,90.1,56.7,89.7z"/>
		</g>
	</g>
	<g class="st5">
		<path class="st7" d="M59.5,100.9c1.5-1.2-0.7-4.1-2-5.8c0.3,2.5,0.7,5,0.4,7.3c-0.5,3.8-2.4,6.3-2.8,9.5
			c-0.7,6.7,3.4,12.1,16.1,16.3C62,122.6,56.2,114.6,59.5,100.9z"/>
		<path class="st7" d="M154.8,112.3c-0.4-7.5-0.9-7.1-0.6-10.6c0.2-1.8,0.2-3.6,0-5.3c1.3-8.5,3-40.5-41.2-47.4
			c0,0-37.9-4.4-47.3,15.5c0,0-4.1,2.5-2.8,17.3l4.4-3.3l3.1,2l3.2-4.2l1.4,3.9l4.1-3.8l2.5,3.7l3.8-3.6l2.8,6.3l3.6-5.1l3.8,3.9
			l1.7-3.6l3.2,4.2l2.7-4.9l3.9,6.4l3.9-4.2c0,0,1.9,6.4,2.2,5.9c0.3-0.5,4-4.1,4-4.1s-0.6,5.4,0.6,4.4c1.2-1,4.9-4.6,5.2-4
			c0.3,0.6,2.1,4,2.1,4l3.3-2.1l0.8,4.6l5.6-3.9l0.7,3.7l4.1-3.6l0.7,5l4.2,0.5l0.9,5l4.2-3l2.1,3.1c1.1,16.4-2.8,32.6-15.3,40.5
			c13.6-1.3,18.5-5.9,19.2-12.7C155.9,118.7,155.2,119.9,154.8,112.3z"/>
	</g>
	<path d="M65.4,68.8c0,0-3.9,2.8-1.5,17.5l4.1-3.7l3.2,1.7l2.9-4.4l1.6,3.8l3.8-4.1l2.8,3.5l3.6-3.9l3.2,6.1l3.3-5.3l4,3.6l1.4-3.7
		l3.5,3.9l2.3-5.1l4.3,6.1l3.6-4.5c0,0,2.4,6.2,2.6,5.7c0.3-0.5,3.7-4.4,3.7-4.4s-0.2,5.4,0.9,4.4c1.1-1,4.5-4.9,4.9-4.4
		c0.3,0.6,2.4,3.8,2.4,3.8l3.2-2.3l1.1,4.6l5.3-4.3l0.9,3.6l3.8-3.8l1.1,4.9l4.2,0.1l1.2,4.9l4-3.3l5,6.5c0,0,7.1-42.1-44.3-46.4
		C111.4,50,73.3,48.3,65.4,68.8z"/>
	<g>
		<path class="st13" d="M167.2,25.3c-13.4,2.6-31.8-1.6-31.8-1.6h0c-5.6-1.7-12.5-3.2-20.9-4.1C107,18.8,100.5,19,95,19.5
			c0.1-0.1,0.1-0.1,0.2-0.2c0,0-18.9,0.1-31.4-5.2C51.3,8.8,30.8,7.7,36.3,25c5.6,17.3,13.9,17.9,13.9,17.9s0,0,0.1,0
			C41.1,55.2,39,70.2,40,84c2,29.1,14.1,48,44.7,55.3c-5,7.8-17.7,31.3-23,54.8c-3.6,15.9,4.6,24.2,17.5,28
			c7.3,21,22.8,57.6,25.2,2.8c4.8-0.1,9.6-0.4,14.4-0.8c29.4-2.9,31.3-12.4,23.8-36.6c-7.3-23.6-7.1-40.6-9.3-44.8
			c22.2-3.8,36-20.9,42.4-44.5c3.8-13.8,4.9-28.2-1.3-42c0,0,0,0,0,0s8.2,1.2,17.4-14.5C200.9,26.1,180.5,22.8,167.2,25.3z
			 M155.2,112.4c0.4,7.5,1.1,6.3,0.6,10.3c-1.2,10.7-14.1,15.6-52.9,11.4c-38.8-4.2-36.6-13.8-38-18.7c-0.9-3.1,0.3-7.6,0.7-11.4
			c0.5-3.8,0.5-7.9,1.3-12.1c2.8-14.4,15.1-22.4,25.4-25.7c3.1,3.1,9.1,5.6,16.3,6.4c5.5,0.6,10.5,0,14.3-1.3
			c3.4,2.1,8.2,3.8,13.7,4.4c6.3,0.7,12.1-0.2,15.9-2c5.7,10.5,3.2,15,2.1,28.3C154.4,105.3,154.9,104.9,155.2,112.4z"/>
		<g>
			<path d="M167.2,25.4c-5.3,1-10.6,1-16,0.7c-5.3-0.4-10.6-1.1-15.9-2.2l-1.2-0.3l1.3,0h0l0,0.3c-6.5-1.9-13.2-3.2-20-3.9
				c-6.7-0.8-13.6-0.9-20.3-0.1l-0.7,0.1l0.6-0.5l0.2-0.2l0.2,0.4c-4,0-7.9-0.2-11.9-0.7c-3.9-0.4-7.9-1-11.7-2
				c-1.9-0.5-3.8-1-5.7-1.7C65,15,64,14.6,63.1,14.2c-0.9-0.4-1.8-0.7-2.8-1c-3.7-1.2-7.6-2-11.5-2.1c-2-0.1-3.9,0-5.8,0.5
				c-1.9,0.4-3.7,1.2-5.1,2.5c-1.4,1.3-2.1,3.2-2.2,5.1c-0.1,1.9,0.3,3.8,0.9,5.7c1.2,3.7,2.7,7.4,4.9,10.7c1.1,1.6,2.3,3.2,3.7,4.4
				c0.7,0.6,1.5,1.2,2.3,1.7c0.8,0.5,1.7,0.9,2.6,1l-0.1,0l0.1,0l1.2-0.3l-0.7,1c-3,4-5.4,8.4-7,13.1c-1.7,4.7-2.7,9.6-3.1,14.6
				c-0.5,5-0.4,10,0,15c0.4,5,1.2,10,2.4,14.8c1.3,4.8,3.1,9.6,5.6,13.9c2.5,4.3,5.7,8.3,9.4,11.6c3.8,3.3,8.1,6,12.6,8.1
				c4.6,2.1,9.3,3.7,14.2,4.9l0.2,0.1l-0.1,0.2c-4.3,6.8-8,14.1-11.3,21.4c-3.3,7.4-6.3,14.9-8.7,22.6c-1.2,3.9-2.3,7.8-3.1,11.7
				c-0.8,3.9-0.9,8,0.1,11.9c1.1,3.9,3.5,7.2,6.7,9.7c3.2,2.4,6.9,4.1,10.7,5.2l0.2,0l0.1,0.1c1.9,5.3,3.9,10.6,6.2,15.8
				c1.2,2.6,2.4,5.1,3.8,7.6c1.4,2.4,2.9,4.9,5,6.7c1,0.9,2.3,1.5,3.5,0.9c1.1-0.6,1.8-1.9,2.4-3.1c1.1-2.6,1.6-5.3,2.1-8.1
				c0.9-5.6,1.3-11.2,1.5-16.9l0-0.4l0.4,0c4.8-0.1,9.6-0.4,14.4-0.8c4.8-0.5,9.6-1.2,14.2-2.5c2.3-0.7,4.5-1.6,6.5-2.8
				c2-1.2,3.7-2.9,4.8-5c1.1-2.1,1.5-4.4,1.5-6.8c0-2.4-0.2-4.8-0.7-7.1c-0.9-4.7-2.3-9.3-3.7-13.9c-1.4-4.6-2.6-9.3-3.5-14.1
				c-1-4.7-1.8-9.5-2.5-14.3l-1-7.2c-0.2-1.2-0.4-2.4-0.6-3.5c-0.2-1.2-0.5-2.4-1-3.3l-0.3-0.6l0.7-0.1c4.4-0.8,8.7-2.1,12.7-4
				c4-1.9,7.7-4.5,11-7.5c6.6-6,11.5-13.8,14.9-22.1c1.7-4.1,3.1-8.4,4.2-12.8c1.1-4.4,1.9-8.8,2.3-13.2c0.4-4.5,0.3-9-0.3-13.4
				c-0.6-4.4-1.9-8.8-3.7-12.9l-0.1-0.3l0.3,0c0,0,0.1,0,0.1,0l0,0l-0.1,0c1.2,0.1,2.5-0.2,3.7-0.7c1.2-0.5,2.3-1.1,3.4-1.9
				c2.1-1.5,4-3.4,5.6-5.4c1.7-2,3.1-4.2,4.4-6.5c1.3-2.2,2.4-4.7,2.3-7.3c0-1.3-0.4-2.6-1.1-3.7c-0.7-1.1-1.6-2-2.7-2.7
				c-2.2-1.4-4.7-2.2-7.3-2.7C177.6,24.3,172.3,24.4,167.2,25.4z M167.2,25.3c5.2-1,10.5-1.1,15.7-0.2c2.6,0.5,5.1,1.3,7.4,2.7
				c1.1,0.7,2.1,1.7,2.8,2.8c0.7,1.1,1.1,2.5,1.1,3.8c0.1,2.7-1,5.2-2.3,7.5c-1.3,2.3-2.8,4.5-4.4,6.5c-1.7,2-3.5,3.9-5.7,5.5
				c-1.1,0.8-2.2,1.4-3.5,1.9c-1.2,0.5-2.5,0.8-3.9,0.7l0,0l0,0c0,0,0,0,0,0c0,0,0.1,0,0.1,0l0.2-0.3c3.8,8.2,5,17.5,4.3,26.5
				c-0.4,4.5-1.2,9-2.2,13.4c-1.1,4.4-2.4,8.7-4.1,12.9c-3.4,8.4-8.2,16.3-15,22.5c-3.3,3.1-7.1,5.7-11.2,7.7c-4.1,2-8.5,3.3-13,4.1
				l0.3-0.7c0.6,1.2,0.8,2.4,1.1,3.6c0.2,1.2,0.4,2.4,0.6,3.6l1,7.2c0.7,4.8,1.5,9.5,2.5,14.2c1,4.7,2.2,9.4,3.5,14
				c1.4,4.6,2.8,9.3,3.7,14c0.4,2.4,0.7,4.8,0.7,7.3c-0.1,2.5-0.5,5-1.7,7.2c-1.1,2.2-3,4.1-5.1,5.4c-2.1,1.3-4.4,2.2-6.7,2.9
				c-4.7,1.4-9.5,2.1-14.3,2.6c-4.8,0.5-9.7,0.8-14.5,0.8l0.4-0.4c-0.3,5.7-0.6,11.4-1.6,17c-0.5,2.8-1.1,5.6-2.2,8.3
				c-0.3,0.7-0.6,1.3-1.1,1.9c-0.4,0.6-1,1.2-1.7,1.5c-0.7,0.4-1.6,0.4-2.4,0.1c-0.8-0.3-1.4-0.7-1.9-1.2c-1.1-1-2-2.1-2.8-3.3
				c-0.8-1.2-1.6-2.4-2.3-3.7c-1.4-2.5-2.6-5.1-3.8-7.7c-2.3-5.2-4.3-10.5-6.2-15.9l0.2,0.2c-3.9-1.2-7.7-2.8-10.9-5.4
				c-3.2-2.5-5.7-6-6.8-10c-1.1-4-0.9-8.2-0.1-12.1c0.8-4,1.9-7.9,3.1-11.7c2.4-7.7,5.4-15.3,8.8-22.6c3.4-7.3,7.1-14.5,11.4-21.4
				l0.1,0.3c-4.9-1.2-9.7-2.7-14.3-4.8c-4.6-2.1-8.9-4.8-12.7-8.1c-3.8-3.3-7.1-7.3-9.6-11.7c-2.5-4.4-4.4-9.1-5.7-14
				C41,96,40.2,91,39.8,86c-0.4-5-0.5-10.1-0.1-15.1c0.5-5,1.5-10,3.1-14.8c1.7-4.8,4.1-9.3,7.1-13.4l0.4,0.6l-0.1,0l-0.1,0l-0.1,0
				c-2.2-0.4-3.9-1.5-5.4-2.8c-1.5-1.3-2.8-2.9-3.9-4.6c-2.2-3.4-3.8-7.1-5-10.9c-0.6-1.9-1-3.9-0.9-6c0.1-2,0.9-4.1,2.4-5.6
				c1.5-1.5,3.5-2.2,5.5-2.7c2-0.4,4-0.5,6-0.5c4,0.2,7.9,1,11.7,2.2c0.9,0.3,1.9,0.7,2.8,1c0.9,0.4,1.8,0.8,2.7,1.1
				c1.8,0.7,3.7,1.2,5.6,1.7c3.8,0.9,7.7,1.6,11.6,2c3.9,0.4,7.9,0.7,11.8,0.7l0.6,0l-0.5,0.4l-0.2,0.2L95,19.3
				c6.8-0.7,13.6-0.6,20.4,0.3c6.8,0.8,13.5,2.1,20,4l0.9,0.3l-0.9,0h0l0-0.3c5.2,1.1,10.5,1.9,15.8,2.3
				C156.5,26.2,161.9,26.2,167.2,25.3z"/>
			<path d="M155.3,112.4c0.1,1.8,0.2,3.7,0.5,5.5c0.1,0.9,0.3,1.8,0.3,2.7c0,0.9-0.1,1.8-0.2,2.8c-0.3,1.8-1,3.6-2.1,5.1
				c-1.1,1.5-2.6,2.6-4.3,3.5c-3.3,1.8-6.9,2.6-10.6,3.2c-3.7,0.5-7.3,0.8-11,0.8c-7.4,0.1-14.7-0.4-22.1-1.1
				c-7.3-0.7-14.6-1.8-21.8-3.6c-3.6-0.9-7.1-2.1-10.4-3.7c-1.6-0.8-3.2-1.8-4.6-3.1c-1.4-1.3-2.5-2.8-3.1-4.6
				c-0.3-0.9-0.5-1.8-0.7-2.7c-0.1-0.5-0.2-0.9-0.3-1.3c-0.1-0.4-0.2-0.9-0.3-1.4c-0.3-1.9-0.1-3.7,0.2-5.5c0.2-1.8,0.6-3.6,0.8-5.5
				c0.2-1.8,0.3-3.7,0.4-5.5c0.3-3.7,0.7-7.4,2-10.9c1.3-3.5,3.2-6.7,5.7-9.5c4.9-5.6,11.5-9.5,18.5-11.9l0.3-0.1l0.2,0.2
				c1.9,1.8,4.2,3.1,6.7,4c2.5,1,5.1,1.6,7.7,2c2.6,0.4,5.3,0.5,7.9,0.4c2.6-0.1,5.3-0.6,7.7-1.5l0.2-0.1l0.2,0.1
				c2.1,1.3,4.5,2.3,6.9,3c2.4,0.7,4.9,1.2,7.4,1.4c2.5,0.2,5.1,0.2,7.6-0.1c2.5-0.3,5-0.9,7.3-1.9l0.3-0.2l0.2,0.3
				c1.6,2.9,2.8,6.1,3.3,9.4c0.5,3.3,0.1,6.7-0.3,9.9c-0.4,3.3-0.9,6.5-1.2,9.8c-0.2,1.6,0.1,3.3,0.3,4.9
				C155.1,109.1,155.2,110.8,155.3,112.4z M155.2,112.4c-0.1-1.6-0.2-3.3-0.4-4.9c-0.2-1.6-0.4-3.3-0.3-4.9c0.2-3.3,0.7-6.6,1-9.9
				c0.4-3.3,0.7-6.6,0.1-9.8c-0.5-3.2-1.8-6.3-3.4-9.1l0.5,0.2c-2.4,1.2-4.9,1.8-7.5,2.1c-2.6,0.3-5.2,0.4-7.8,0.2
				c-2.6-0.2-5.1-0.7-7.6-1.4c-2.5-0.7-4.9-1.7-7.2-3.1l0.5,0c-2.6,0.9-5.3,1.4-8,1.6c-2.7,0.2-5.5,0-8.1-0.4
				c-2.7-0.4-5.3-1.1-7.9-2.1c-2.5-1-5-2.3-7-4.3l0.5,0.1c-6.9,2.3-13.4,6-18.3,11.5c-2.4,2.7-4.4,5.8-5.7,9.3
				c-1.3,3.4-1.8,7.1-2.1,10.7c-0.2,1.8-0.3,3.7-0.5,5.5c-0.2,1.8-0.6,3.6-0.8,5.5c-0.3,1.8-0.5,3.6-0.2,5.4
				c0.1,0.5,0.2,0.9,0.3,1.3c0.1,0.5,0.2,0.9,0.3,1.4c0.2,0.9,0.4,1.8,0.7,2.6c0.6,1.7,1.7,3.2,3,4.4c1.3,1.2,2.9,2.2,4.5,3
				c3.3,1.6,6.8,2.7,10.4,3.5c7.1,1.7,14.4,2.5,21.7,3.3c3.7,0.4,7.3,0.6,11,0.9c3.7,0.2,7.3,0.4,11,0.4c3.7,0,7.3-0.2,11-0.6
				c3.6-0.5,7.2-1.2,10.5-2.9c1.6-0.8,3.1-1.9,4.2-3.4c1.1-1.4,1.8-3.2,2.1-5c0.1-0.9,0.2-1.8,0.2-2.7c0-0.9-0.2-1.8-0.3-2.7
				C155.4,116.1,155.3,114.3,155.2,112.4z"/>
		</g>
	</g>
	<path class="st2" d="M104.6,225c-1.9-0.3-4.1-1.4-5.8-0.9c2.7,8.6,1.3,21.7-5.3,27.7c4.7,4.8,9,1.5,10.5-20.6
		c-0.2,0-0.3,0.1-0.5,0.1c0.2,0,0.3-0.1,0.5-0.1c0.1-1.9,0.3-4,0.4-6.2C104.4,225,104.5,225,104.6,225z"/>
	<path class="st2" d="M138.4,203.5c0.4,8.9-4.4,15.1-11.3,19.5c21.3-3.9,22.1-13.8,15.4-35.4c-6.5-21.1-7-36.8-8.7-42.9
		C127.5,166.7,137.7,184.4,138.4,203.5z"/>
	<path class="st18" d="M101,207.1c0.5-26.4,9.8-44.2,10.4-70.6c1.5-0.1,3.1-0.2,4.7-0.3c1.5-0.1,2.9-0.2,4.4-0.4
		c4.3,28.6,23,60.2,12.6,85.8c-4.4,0.7-9.2,2-14.3,2.5c-8.9,0.9-5.6,1.2-14.2,0.3C103.9,220,101.3,211.3,101,207.1z"/>
	<path class="st2" d="M169.5,57.6c-4.1,24.3,3.4,62.9-25.9,78.6c-0.9,0.4-1.6,1.1-2.2,2c19.7-4.6,28.2-17.5,34.2-39.8
		c3.8-13.8,4.9-28.2-1.3-42c0,0,0,0,0,0s8.2,1.2,17.4-14.5c0.9-1.5,1.4-2.8,1.8-4.1C188,47.8,170.2,50.9,169.5,57.6z"/>
	<path class="st2" d="M64,212.2c-3-4.5-4-10.4-2.3-18.1c4.1-18,12.5-34.6,18.4-44.9c0.1,2.3,0,4.5-0.3,6.3
		C73.5,174.3,60.1,192.4,64,212.2z"/>
	<path class="st2" d="M48.1,46.2c-7.3,11.6-9,25.2-8.1,37.9c1.3,19.8,5.6,33.1,17.9,41.9c-0.1-0.2-0.2-0.3-0.3-0.5
		C47.9,99.6,34.6,72.1,48.1,46.2z"/>
	<path class="st0" d="M59.6,55c-0.2,1.7,4.2,3.7,9.9,4.5c5.7,0.8,10.5,0.1,10.8-1.5c0.2-1.6-4.2-3.7-9.9-4.5
		C64.7,52.6,59.8,53.3,59.6,55z"/>
	<path d="M73.7,161.2c3.8,5.4,15,9.4,22.7,10.7c-7.5,0.6-20.5,0.1-26.9-1.6C70.9,167.1,72.3,164,73.7,161.2z"/>
	<path d="M67.1,176.5c2.1,2.4,11.1,4,14.3,4.9c-2.9-0.5-12.4-0.8-15.2-2.5C66.5,178.1,66.8,177.3,67.1,176.5z"/>
	<path class="st16" d="M62.6,53.2c-0.1,0.8,0.7,1.5,1.9,1.7c1.1,0.2,2.2-0.3,2.3-1.1c0.1-0.8-0.7-1.5-1.9-1.7
		C63.8,52,62.7,52.5,62.6,53.2z"/>
	<path d="M61.7,194.1c0.7-3,1.5-6,2.4-8.9c4.2,7.6,34,14.8,26.4,14.4c-8.3,1.6-21.4,0.2-29.1-3.9C61.5,195.2,61.6,194.7,61.7,194.1z
		"/>
	<path d="M82.2,212.1c-3.4,1-13.6,1.3-17.4,1.1c-1.7-2.2-2.8-4.6-3.4-7.5C65.3,209.7,76.4,212.6,82.2,212.1z"/>
	<path d="M128.8,165.7c2.8-0.1,5.9-0.2,8.4-2.9c0.3,1.9,0.7,3.9,1,5.9C135.3,171,131.9,168.7,128.8,165.7z"/>
	<path d="M134.3,186.2c2.8,0.6,4.5-2.9,6.5-5.5c0.8,2.8,1.6,5.6,2.3,8.5C140.6,191.5,137.8,192,134.3,186.2z"/>
	<path d="M138.3,207.2c2.5-0.2,5.5-0.4,7.8-3c0,3.8-0.4,6.8-1.3,9.2C142.4,212.8,140.2,211.1,138.3,207.2z"/>
	<path d="M138.5,173.1c0.2,1.2,0.4,2.4,0.6,3.6c-1.1,0.1-2.1,0.1-3.3-1.2C136.9,176.5,137.7,174.3,138.5,173.1z"/>
	<g>
		<path class="st4" d="M150.4,54.5c-0.3,2.8-2.9,4.9-5.9,4.7c-3-0.3-5.2-2.8-5-5.6c0.3-2.8,2.9-4.9,5.9-4.7
			C148.4,49.1,150.7,51.6,150.4,54.5z"/>
		<path d="M151.4,54.6c-0.3,2.8-2.9,4.9-5.9,4.7c-3-0.3-5.2-2.8-5-5.6c0.3-2.8,2.9-4.9,5.9-4.7C149.4,49.3,151.6,51.8,151.4,54.6z"
			/>
		<path class="st16" d="M150.2,53.8c0,0.5-0.5,0.8-1,0.8c-0.5,0-0.9-0.5-0.8-0.9c0-0.5,0.5-0.8,1-0.8
			C149.9,52.8,150.3,53.3,150.2,53.8z"/>
	</g>
	<path d="M160.6,72.6c5.7,0.6,12,1.3,17.9-0.2c-0.3-2.8-0.7-5.7-1.5-8.5C172.6,68.6,167.4,71.1,160.6,72.6z"/>
	<path d="M46.9,76.3c2.8,4.4,6.1,8.9,9.9,12.6c0.3-1.6,0.7-3.1,1.2-4.5C53.5,82.5,50.4,77.9,46.9,76.3z"/>
	<path d="M54.1,103.2c-7.6-1.8-11-6.4-13.4-11.5c0.5,4.4,1.3,8.4,2.3,12.1C46.2,105.1,49.7,105.3,54.1,103.2z"/>
	<path d="M55.1,67c-5.1-2.7-8.4-7.6-11.2-12.6c-1.5,3.7-2.5,7.5-3.1,11.4C45,67.8,50,68.1,55.1,67z"/>
	<path d="M160.6,113.3c4.2-0.9,8.1-2.5,11.8-4.6c0.8-2.3,1.6-4.7,2.4-7.3C171.6,106.8,166.5,110.5,160.6,113.3z"/>
	
		<ellipse transform="matrix(0.9973 7.325481e-002 -7.325481e-002 0.9973 4.9898 -10.5018)" class="st0" cx="145.7" cy="62.8" rx="10.4" ry="3"/>
	
		<ellipse transform="matrix(0.9973 7.330227e-002 -7.330227e-002 0.9973 4.8821 -10.9348)" class="st16" cx="151.4" cy="61" rx="2" ry="1.3"/>
	<path d="M153.6,93.5c0.4,2.6,0.6,5.3,0.3,8.2c-0.2,2.1-0.1,2.8,0.1,4.6c8.5-2,14.7-11.9,18.9-19.4C167,91.8,161.3,94,153.6,93.5z"
		/>
	<g>
		<g>
			<path class="st14" d="M72.4,25.9C72.3,25.6,72.3,25.6,72.4,25.9L72.4,25.9z"/>
			<path d="M72.4,25.9L72.4,25.9c-0.4,0-0.5,0-0.4-0.1c0.1,0,0.2,0,0.3-0.1c0,0,0,0,0,0c0,0,0,0,0,0C72.1,25.8,72.2,26,72.4,25.9
				c0,0.1,0.1,0.1,0.2,0c0.1-0.1,0.1-0.2,0.1-0.2l0.1,0h0.1c0,0,0.1,0,0.1,0C72.8,25.7,72.7,25.8,72.4,25.9L72.4,25.9z M72.3,25.9
				c-0.3,0-0.4,0-0.5,0c0,0,0,0,0.1-0.1c0,0,0,0,0.1,0c0,0,0,0,0.1,0c0,0,0-0.2,0.1-0.2c0.1-0.1,0.2-0.1,0.2-0.1
				c0.1,0,0.2,0.2,0.2,0.2c0,0,0,0,0,0c0,0,0,0,0,0c0,0,0.2,0,0.3,0C72.8,25.8,72.7,25.8,72.3,25.9L72.3,25.9L72.3,25.9z"/>
		</g>
		<g>
			<path class="st14" d="M121.3,54.3c-0.1,0-13.6-1.5-13.7-1.5c-38.7-3.2-52.7,16-40.2,39.1c3.4-11.2,11.3-20.3,24.9-25.8
				c3.1,3.1,9.1,5.6,16.3,6.4c5.5,0.6,10.5,0,14.3-1.3c0.2,0.1,0.4,0.2,0.6,0.4C125.7,65,126.2,60.7,121.3,54.3z"/>
			<path d="M121.3,54.4c-7.2-0.7-14.4-1.9-21.7-1.6c-3.6,0-7.2,0.3-10.8,0.9c-3.6,0.6-7.1,1.4-10.4,2.8c-3.3,1.3-6.5,3.2-9.1,5.6
				c-2.6,2.4-4.6,5.6-5.5,9c-0.9,3.5-0.9,7.2-0.1,10.7c0.8,3.5,2.2,6.9,3.9,10.1l-0.4,0c1.7-6,4.9-11.6,9.3-16.1
				c4.4-4.5,9.9-7.8,15.7-10.1l0.3-0.1l0.3,0.2c1.8,1.8,4.2,3.1,6.7,4.1c2.5,1,5,1.6,7.7,2c2.6,0.4,5.3,0.6,7.9,0.4
				c2.6-0.1,5.3-0.5,7.8-1.4l0.2-0.1l0.2,0.1l0.6,0.4l-0.5,0.2c0.9-2.9,1.8-5.9,1.5-8.9c-0.1-1.5-0.5-3-1.2-4.4
				C123,56.9,122.2,55.6,121.3,54.4z M121.4,54.3c1,1.2,1.8,2.5,2.5,3.9c0.7,1.4,1.2,2.9,1.4,4.4c0.2,1.6,0.1,3.1-0.2,4.7
				c-0.3,1.5-0.7,3-1.1,4.5l-0.1,0.4l-0.4-0.2l-0.6-0.4l0.3,0c-2.6,1-5.3,1.4-8,1.6c-2.7,0.2-5.4,0.1-8.1-0.3
				c-2.7-0.4-5.4-1.1-7.9-2c-2.5-1-5-2.3-7-4.3l0.6,0.1c-2.9,1.1-5.6,2.5-8.2,4.1c-2.6,1.6-5,3.5-7.2,5.7c-4.4,4.3-7.6,9.7-9.5,15.6
				l-0.2,0.6l-0.3-0.5c-1.7-3.2-3.1-6.6-3.8-10.2c-0.8-3.6-0.9-7.3,0-10.9c0.9-3.6,2.8-6.9,5.4-9.5c2.6-2.6,5.9-4.5,9.3-5.9
				c6.9-2.7,14.3-3.4,21.5-3.3c3.6,0.1,7.3,0.4,10.9,0.8L121.4,54.3L121.4,54.3z"/>
		</g>
		<g>
			<path class="st14" d="M161,82.8c-4.2-19.4-4.8-25.6-39.6-28.4c4.8,6.3,4.2,12.3,1.6,16.4c3.3,2,8.6,4.3,13.7,4.9
				c6.3,0.7,12.1-0.2,15.9-2c4.2,19.1,3.4,13.5,2.2,26.8c0,0.6-0.1,1-0.1,1.4C160.7,97.3,162.7,91.7,161,82.8z"/>
			<path d="M160.9,82.8c-1-4.5-1.9-9-3.6-13.3c-0.9-2.1-2.1-4.1-3.6-5.7c-1.5-1.6-3.5-2.9-5.5-3.8c-4.1-1.9-8.6-2.9-13.1-3.7
				c-4.5-0.8-9.1-1.4-13.7-1.8l0.1-0.3c1.8,2.4,3.1,5.1,3.5,8.1c0.4,3-0.3,6-1.9,8.6l-0.1-0.3c2.2,1.3,4.6,2.3,7,3.2
				c2.4,0.8,4.9,1.4,7.5,1.6c2.5,0.2,5.1,0.2,7.6-0.2c2.5-0.3,5-0.9,7.3-2l0.6-0.3l0.1,0.6l1.6,7c0.5,2.3,1,4.7,1.4,7.1
				c0.2,1.2,0.3,2.4,0.2,3.7c-0.1,1.2-0.2,2.4-0.4,3.6c-0.3,2.4-0.6,4.7-0.8,7.1l-0.5-0.3c1.4-1,2.7-2.2,3.8-3.6
				c1.1-1.4,1.9-3,2.4-4.6c0.5-1.7,0.7-3.5,0.7-5.2C161.5,86.3,161.2,84.5,160.9,82.8z M161,82.8c0.3,1.7,0.6,3.5,0.6,5.3
				c0.1,1.8-0.1,3.6-0.6,5.3c-0.5,1.7-1.3,3.4-2.3,4.8c-1.1,1.5-2.4,2.7-3.8,3.8l-0.5,0.4l0-0.7c0-2.4,0.3-4.8,0.5-7.2
				c0.2-2.4,0.5-4.7,0.1-7c-0.4-2.3-0.9-4.6-1.4-7c-0.5-2.3-1-4.7-1.5-7l0.7,0.3c-2.4,1.1-5,1.7-7.6,2c-2.6,0.3-5.2,0.3-7.8,0
				c-2.6-0.2-5.2-0.9-7.6-1.8c-2.4-0.9-4.8-2-7-3.3l-0.2-0.1l0.1-0.2c1.6-2.4,2.3-5.4,1.9-8.3c-0.2-1.4-0.6-2.9-1.2-4.2
				c-0.6-1.3-1.4-2.6-2.3-3.7l-0.2-0.3l0.4,0c4.6,0.4,9.2,0.8,13.7,1.4c4.6,0.7,9.1,1.6,13.4,3.6c2.1,1,4.1,2.4,5.7,4.1
				c1.6,1.8,2.7,3.9,3.5,6c0.8,2.2,1.4,4.4,1.9,6.7C160.1,78.3,160.5,80.5,161,82.8z"/>
		</g>
	</g>
	<path d="M132,51.1c0.2,3.4-3.2,9.3-7.8,9.6c-4.6,0.3-8.6-5.2-8.8-8.6c-0.2-3.4,3.4-5,8-5.2C128.1,46.6,131.8,47.7,132,51.1z"/>
	<g>
		<path class="st4" d="M87.5,48.9c-0.3,2.8-2.9,4.9-5.9,4.7c-3-0.3-5.2-2.8-5-5.6c0.3-2.8,2.9-4.9,5.9-4.7
			C85.5,43.6,87.7,46.1,87.5,48.9z"/>
		<path d="M88.5,49.1c-0.3,2.8-2.9,4.9-5.9,4.7c-3-0.3-5.2-2.8-5-5.6c0.3-2.8,2.9-4.9,5.9-4.7C86.5,43.7,88.7,46.2,88.5,49.1z"/>
		<path class="st16" d="M86.6,47.2c0,0.5-0.5,0.8-1,0.8c-0.5,0-0.9-0.5-0.8-0.9c0-0.5,0.5-0.8,1-0.8C86.3,46.3,86.6,46.8,86.6,47.2z
			"/>
	</g>
	<ellipse transform="matrix(0.987 0.1605 -0.1605 0.987 9.5158 -19.7041)" class="st16" cx="126.7" cy="49.1" rx="3.1" ry="0.6"/>
	<g>
		<path class="st14" d="M151.6,32.2c0,0,11.7,2.7,20.2,1c8.5-1.6,21.5,0.5,15.6,10.5c-5.8,10-11.1,9.3-11.1,9.3
			S159.7,43.3,151.6,32.2z"/>
		<path d="M151.6,32.1c5,0.8,10,1.3,15,1.2c1.2,0,2.5-0.1,3.7-0.3c1.2-0.1,2.5-0.4,3.8-0.5c2.5-0.2,5.1-0.1,7.6,0.4
			c1.2,0.3,2.5,0.6,3.6,1.2c1.2,0.6,2.2,1.3,3,2.4c0.7,1.1,1,2.5,0.7,3.7c-0.2,1.3-0.7,2.5-1.3,3.6c-1.2,2.2-2.6,4.4-4.4,6.2
			c-0.9,0.9-1.9,1.8-3.1,2.4c-1.2,0.6-2.4,1.2-3.9,1.1l-0.1,0l-0.1-0.1c-2.4-1.4-4.7-2.8-6.9-4.4c-2.2-1.6-4.4-3.2-6.5-4.9
			C158.6,40.6,154.6,36.7,151.6,32.1l-0.1,0L151.6,32.1z M151.8,32.2c1.6,2.1,3.5,4,5.4,5.8c2,1.8,4,3.6,6.2,5.3
			c2.1,1.7,4.3,3.3,6.5,4.8c2.2,1.5,4.5,3,6.8,4.4l-0.2-0.1c0.5,0,1.1-0.1,1.7-0.2c0.6-0.2,1.1-0.4,1.6-0.7c1.1-0.6,2-1.3,2.9-2.2
			c1.8-1.7,3.3-3.7,4.6-5.9c0.6-1.1,1.2-2.2,1.4-3.4c0.2-1.2,0-2.5-0.6-3.5c-0.7-1-1.7-1.7-2.8-2.3c-1.1-0.5-2.3-0.8-3.6-1
			c-2.5-0.4-5-0.3-7.4,0c-1.2,0.1-2.4,0.4-3.7,0.6c-1.3,0.2-2.5,0.2-3.8,0.3c-2.5,0-5.1-0.1-7.6-0.5
			C156.6,33.3,154.1,32.9,151.8,32.2z"/>
	</g>
	<g>
		<path class="st14" d="M151.6,32.2c0,0,11.7,2.7,20.2,1c8.5-1.6,21.5,0.5,15.6,10.5c-5.8,10-11.1,9.3-11.1,9.3
			S159.7,43.3,151.6,32.2z"/>
		<path d="M151.6,32.1c5,0.8,10,1.3,15,1.2c1.2,0,2.5-0.1,3.7-0.3c1.2-0.1,2.5-0.4,3.8-0.5c2.5-0.2,5.1-0.1,7.6,0.4
			c1.2,0.3,2.5,0.6,3.6,1.2c1.2,0.6,2.2,1.3,3,2.4c0.7,1.1,1,2.5,0.7,3.7c-0.2,1.3-0.7,2.5-1.3,3.6c-1.2,2.2-2.6,4.4-4.4,6.2
			c-0.9,0.9-1.9,1.8-3.1,2.4c-1.2,0.6-2.4,1.2-3.9,1.1l-0.1,0l-0.1-0.1c-2.4-1.4-4.7-2.8-6.9-4.4c-2.2-1.6-4.4-3.2-6.5-4.9
			C158.6,40.6,154.6,36.7,151.6,32.1l-0.1,0L151.6,32.1z M151.8,32.2c1.6,2.1,3.5,4,5.4,5.8c2,1.8,4,3.6,6.2,5.3
			c2.1,1.7,4.3,3.3,6.5,4.8c2.2,1.5,4.5,3,6.8,4.4l-0.2-0.1c0.5,0,1.1-0.1,1.7-0.2c0.6-0.2,1.1-0.4,1.6-0.7c1.1-0.6,2-1.3,2.9-2.2
			c1.8-1.7,3.3-3.7,4.6-5.9c0.6-1.1,1.2-2.2,1.4-3.4c0.2-1.2,0-2.5-0.6-3.5c-0.7-1-1.7-1.7-2.8-2.3c-1.1-0.5-2.3-0.8-3.6-1
			c-2.5-0.4-5-0.3-7.4,0c-1.2,0.1-2.4,0.4-3.7,0.6c-1.3,0.2-2.5,0.2-3.8,0.3c-2.5,0-5.1-0.1-7.6-0.5
			C156.6,33.3,154.1,32.9,151.8,32.2z"/>
	</g>
	<g>
		<path class="st14" d="M80.6,21.9c0,0-12.6,1.5-21.3-1.1c-8.7-2.6-22.5-1.8-17.5,9.3C46.8,41.2,52.4,41,52.4,41
			S70.9,32.7,80.6,21.9z"/>
		<path d="M80.4,22c-2.6,0.4-5.2,0.6-7.8,0.7c-2.7,0.1-5.3,0-8-0.3c-1.3-0.2-2.7-0.4-4-0.7c-0.6-0.2-1.3-0.4-1.9-0.5
			c-0.6-0.2-1.3-0.3-1.9-0.5c-2.5-0.6-5.2-0.9-7.8-0.8c-1.3,0.1-2.6,0.3-3.9,0.7c-1.2,0.4-2.4,1-3.2,2c-0.8,1-1.2,2.3-1.1,3.6
			c0.1,1.3,0.5,2.5,1.1,3.7c1.1,2.4,2.5,4.7,4.2,6.6c0.8,1,1.8,1.9,2.8,2.6c0.5,0.4,1.1,0.7,1.7,0.9c0.6,0.2,1.2,0.4,1.7,0.4l-0.2,0
			c2.6-1.2,5.1-2.5,7.6-3.9c2.5-1.4,4.9-2.8,7.3-4.3c2.4-1.5,4.7-3.1,7-4.8C76.3,25.8,78.5,24,80.4,22z M80.6,21.9
			c-3.7,4.4-8.2,8-13,11.2c-2.4,1.6-4.9,3.1-7.4,4.4c-2.5,1.4-5.1,2.7-7.7,3.9l-0.1,0l-0.1,0c-1.6-0.1-2.8-0.8-3.9-1.6
			c-1.1-0.8-2.1-1.8-2.9-2.8c-1.7-2.1-2.9-4.5-4-7c-0.5-1.2-0.9-2.5-1-3.9c-0.1-1.4,0.3-2.8,1.2-3.8c0.9-1.1,2.1-1.7,3.4-2.2
			c1.3-0.4,2.6-0.7,3.9-0.8c2.7-0.3,5.4-0.1,8,0.4c0.7,0.1,1.3,0.3,2,0.5c0.6,0.2,1.3,0.4,1.9,0.5c1.3,0.3,2.6,0.5,3.9,0.7
			C70,22.1,75.3,22.2,80.6,21.9L80.6,21.9L80.6,21.9z"/>
	</g>
	<g>
		<g>
			<line class="st16" x1="143.3" y1="62.3" x2="162.6" y2="57.4"/>
			<path d="M143.3,62.3c3.1-1.2,6.3-2.1,9.5-2.9c3.2-0.8,6.4-1.5,9.7-2c-3.1,1.2-6.3,2.1-9.5,2.9C149.8,61.2,146.6,61.9,143.3,62.3z
				"/>
		</g>
		<g>
			<line class="st16" x1="146.3" y1="64.3" x2="166" y2="66.8"/>
			<path d="M146.3,64.3c3.3,0,6.6,0.4,9.9,0.8c3.3,0.4,6.6,0.9,9.8,1.8c-3.3,0-6.6-0.4-9.9-0.8C152.8,65.6,149.5,65.1,146.3,64.3z"
				/>
		</g>
		<g>
			<line class="st16" x1="142.9" y1="65.6" x2="160.3" y2="75.2"/>
			<path d="M142.9,65.6c3.1,1.3,6,2.8,8.9,4.4c2.9,1.6,5.7,3.3,8.4,5.2c-3.1-1.3-6-2.8-8.9-4.4C148.5,69.2,145.6,67.6,142.9,65.6z"
				/>
		</g>
	</g>
	<g>
		<g>
			<line class="st16" x1="91.7" y1="59.2" x2="74" y2="50.3"/>
			<path d="M91.7,59.2c-3.1-1.1-6.1-2.5-9.1-4c-3-1.5-5.9-3.1-8.7-4.9c3.1,1.1,6.1,2.5,9.1,4C86,55.8,88.9,57.3,91.7,59.2z"/>
		</g>
		<g>
			<line class="st16" x1="88.4" y1="60.5" x2="68.6" y2="58.7"/>
			<path d="M88.4,60.5c-3.3,0.1-6.6-0.1-9.9-0.4c-3.3-0.3-6.6-0.7-9.8-1.4c3.3-0.1,6.6,0.1,9.9,0.4C81.8,59.4,85.1,59.8,88.4,60.5z"
				/>
		</g>
		<g>
			<line class="st16" x1="91.4" y1="62.4" x2="72.4" y2="68.1"/>
			<path d="M91.4,62.4c-3.1,1.3-6.2,2.4-9.4,3.3c-3.2,0.9-6.4,1.8-9.7,2.4c3.1-1.3,6.2-2.4,9.4-3.3C84.9,63.9,88.1,63,91.4,62.4z"/>
		</g>
	</g>
	<path d="M100,33.7c3.8-1.6,8-2.4,12.2-2.9c-0.6-1.4-1.1-2.8-1.6-4.2c-9.7-0.2-17.2-1.7-17.2-1.7c4.8-2,10.2-3.1,15.4-3.6
		c-0.1-0.3-0.2-1.8-0.3-2.1c1-0.1,2.2,0.2,3.3,0.2c4.3,0.2,7.6,1.2,11.1,1.4c0,0.3,0.1-0.2,0,0c7.7,1.9,14.3,4.6,14.3,4.6
		c-4.4,2-9.7-0.1-14.5,0.6c-0.1,1.5-0.2,3-0.4,4.4c6.9,0.2,12,1.1,12,1.1c-3.9,1.8-8.3,2.7-12.6,3.1c-0.3,1.5-0.6,3-1.1,4.5
		c5.5,0.1,9.6,0.9,9.6,0.9c-3.3,1.5-7.1,2.2-10.7,2.4c-0.4,1.1-0.9,2.1-1.4,3.2c-0.3-1-0.7-2.1-1.1-3.1c-6.5,0.1-11.9-1-11.9-1
		c3.3-1.4,7.1-2,10.6-2.3c-0.6-1.5-1.2-2.9-1.8-4.3C106.1,35,100,33.7,100,33.7z"/>
	<path d="M147.6,109.1c0.3,2.4-1.4,4.6-3.8,4.9c-2.4,0.3-3.9-1.5-4.3-3.9c-0.3-2.4,0.7-4.4,3.1-4.7C145,105,147.3,106.7,147.6,109.1
		z"/>
	<path d="M150.3,105.7c-0.3,0.7-3.3,0-6.7-1.5c-3.4-1.5-5.9-3.3-5.6-4c0.3-0.7,3.3,0,6.7,1.5C148.1,103.2,150.6,105,150.3,105.7z"/>
	
		<ellipse transform="matrix(0.9973 7.347519e-002 -7.347519e-002 0.9973 8.3783 -10.3645)" class="st16" cx="145.1" cy="108.7" rx="1" ry="0.8"/>
	<path d="M82.7,103.4c-0.4,2.6,1.8,5,4.7,5.4c3,0.4,5.7-1.3,6.1-3.9c0.4-2.6-1.8-5-4.8-5.4C85.8,99.1,83.1,100.8,82.7,103.4z"/>
	<path d="M79.4,97.9c0.2,0.8,3.5,0.8,7.5,0c4-0.8,7.1-2,6.9-2.8c-0.2-0.8-3.5-0.8-7.5,0C82.4,95.8,79.3,97.1,79.4,97.9z"/>
	
		<ellipse transform="matrix(-0.9901 -0.1407 0.1407 -0.9901 165.9568 217.8218)" class="st16" cx="90.7" cy="103" rx="1.1" ry="0.9"/>
	<path class="st12" d="M153,117.3c-0.1,1.3-3,2.2-6.5,1.9c-3.5-0.3-6.2-1.5-6.1-2.8c0.1-1.3,3-2.2,6.4-1.9
		C150.4,114.7,153.1,116,153,117.3z"/>
	
		<ellipse transform="matrix(0.9973 7.289739e-002 -7.289739e-002 0.9973 8.7358 -10.6229)" class="st16" cx="149.9" cy="114.4" rx="1.5" ry="0.8"/>
	<path class="st12" d="M70.7,110.7c-0.2,1.7,4.2,3.7,9.9,4.5c5.7,0.8,10.5,0.1,10.8-1.5c0.2-1.7-4.2-3.6-9.9-4.5
		C75.7,108.4,70.9,109.1,70.7,110.7z"/>
	<path class="st16" d="M72.6,108.9c-0.2,1.2,1.1,2.3,2.9,2.6c1.8,0.3,3.3-0.5,3.5-1.7c0.2-1.2-1.1-2.3-2.9-2.6
		C74.3,106.9,72.7,107.7,72.6,108.9z"/>
	<path class="st1" d="M129.5,140.1c0,0-12.4-7.5-31,2.5c0,0-4.1,2-2.1,6.8c2.1,4.9,0.1,6.5,0.1,6.5l2.9-4.1c0,0-4.4,8.9-3.5,15.6
		c0.1,0.4,0.1,0.8,0.2,1.2c1.7,6.8,3.1,6.1,6.2,11.8c0,0,8.3-2.1,4.8-9.1c0,0,2.7,4,0.9,10.9c0,0,7.9-0.7,8-12c0,0-0.6,8.8,4.4,8.9
		c0,0-2.1-3.5-0.7-9.2l2.7,4.2c0,0,10.6-7.2,2.6-22.3l5.7,5c0,0-7.6-9.1-3.6-12.3C131.3,141,129.5,140.1,129.5,140.1z"/>
	<path class="st2" d="M87.9,138.7c14.5,5.6,30.5,8,43-0.6c-6.6,0.8-14.8,1.2-24.8,1.2C99.2,139.3,93.2,139.1,87.9,138.7z"/>
	<g>
		<path class="st15" d="M131.8,139.4c0,0-11.3-9.1-31-1.8c0,0-4.4,1.4-3,6.5c1.4,5.1-0.8,6.4-0.8,6.4l3.5-3.7c0,0-5.6,8.2-5.5,14.9
			c0,0.4,0,0.8,0.1,1.2c0.8,7,2.3,6.4,4.6,12.5c0,0,8.5-1,6-8.4c0,0,2.2,4.4-0.6,10.9c0,0,7.9,0.4,9.5-10.9c0,0-1.8,8.7,3.2,9.4
			c0,0-1.6-3.8,0.5-9.2l2.1,4.5c0,0,11.4-5.7,5.6-21.8l5,5.7c0,0-6.3-10-1.9-12.6C133.4,140.5,131.8,139.4,131.8,139.4z"/>
		<path d="M131.8,139.4c-3.2-2.3-7-3.5-10.8-4.1c-3.9-0.6-7.8-0.4-11.6,0.3c-1.9,0.4-3.8,0.9-5.6,1.4c-0.9,0.3-1.8,0.6-2.8,1
			c-0.8,0.3-1.6,0.9-2.1,1.6c-0.5,0.7-0.8,1.6-0.8,2.5c0,0.9,0.3,1.8,0.5,2.8c0.2,1,0.3,2,0.2,3.1c-0.1,1-0.4,2.1-1.4,2.9l-0.5-0.7
			l3.5-3.7l0.6,0.5c-1.4,2.1-2.6,4.4-3.7,6.7c-1,2.3-1.8,4.8-2,7.3c-0.1,1.3,0.1,2.5,0.3,3.8c0.2,1.3,0.5,2.5,1,3.7
			c0.5,1.2,1.2,2.3,1.7,3.4c0.6,1.1,1.1,2.3,1.6,3.5l-0.2-0.1c1-0.1,1.9-0.4,2.8-0.8c0.9-0.4,1.7-1,2.4-1.7c0.6-0.7,1-1.7,1.1-2.7
			c0.1-1-0.1-2-0.4-2.9l0.4-0.2c0.4,0.9,0.6,1.8,0.7,2.8c0.1,0.9,0.1,1.9,0.1,2.8c-0.1,1.9-0.6,3.8-1.4,5.5l-0.3-0.5
			c1.2,0,2.5-0.4,3.6-1c1.1-0.6,2.1-1.5,2.8-2.5c1.5-2,2.3-4.6,2.6-7.1l0.9,0.2c-0.3,1.7-0.4,3.6-0.1,5.3c0.2,0.9,0.4,1.7,0.9,2.3
			c0.5,0.7,1.2,1,2,1.2l-0.5,0.7c-0.3-0.8-0.5-1.6-0.6-2.4c-0.1-0.8-0.1-1.6,0-2.4c0.1-1.6,0.5-3.2,1.1-4.7l0.5-1.1l0.5,1.1l2.1,4.5
			l-0.7-0.2c1.7-0.9,3.2-2.3,4.3-3.9c1.1-1.6,1.9-3.5,2.3-5.4c0.8-3.9,0.1-8-1.2-11.8l-0.6-1.8l1.2,1.5l4.9,5.8l-0.4,0.3
			c-0.8-1.4-1.5-2.8-2.1-4.3c-0.6-1.5-1.1-3-1.2-4.7c-0.1-0.8,0-1.6,0.3-2.4c0.2-0.4,0.4-0.7,0.7-1c0.3-0.3,0.7-0.5,1-0.7
			c0.7-0.4,1.3-0.9,1.9-1.4c0.3-0.3,0.5-0.6,0.7-0.9C132.1,140.1,132.1,139.7,131.8,139.4z M131.8,139.4c0.4,0.3,0.4,0.8,0.2,1.2
			c-0.2,0.4-0.4,0.7-0.7,1c-0.6,0.6-1.2,1-1.9,1.5c-0.7,0.4-1.3,0.9-1.6,1.6c-0.3,0.7-0.4,1.5-0.3,2.3c0.1,1.6,0.7,3.1,1.3,4.5
			c0.6,1.5,1.4,2.9,2.2,4.2l-0.4,0.3l-5.1-5.6l0.6-0.4c1.5,3.8,2.3,8.1,1.5,12.3c-0.4,2.1-1.3,4.1-2.5,5.8c-1.2,1.7-2.8,3.2-4.7,4.3
			l-0.5,0.3l-0.2-0.5l-2.1-4.5l1,0c-0.6,1.4-0.9,2.9-1,4.4c-0.1,0.8-0.1,1.5,0,2.3c0.1,0.7,0.2,1.5,0.5,2.1l0.3,0.8l-0.8-0.1
			c-1-0.1-2-0.7-2.6-1.6c-0.6-0.8-0.9-1.8-1.1-2.8c-0.2-1-0.2-1.9-0.2-2.8c0-0.9,0.1-1.9,0.3-2.8l0.9,0.2c-0.4,2.6-1.2,5.3-2.9,7.5
			c-0.8,1.1-1.9,2-3.1,2.6c-1.2,0.6-2.6,1-4,1l-0.5,0l0.2-0.5c0.7-1.7,1.2-3.5,1.4-5.3c0.1-0.9,0.1-1.8,0-2.7
			c-0.1-0.9-0.3-1.8-0.6-2.6l0.4-0.2c0.3,1,0.5,2,0.4,3.1c-0.1,1-0.5,2.1-1.2,2.9c-0.7,0.8-1.6,1.4-2.5,1.8c-0.9,0.4-1.9,0.7-3,0.9
			l-0.1,0l0-0.1c-0.4-1.2-0.9-2.4-1.5-3.5c-0.6-1.1-1.3-2.2-1.8-3.4c-0.5-1.2-0.8-2.5-1-3.7c-0.2-1.3-0.4-2.6-0.3-3.9
			c0.1-2.6,0.9-5.1,1.8-7.5c1-2.4,2.2-4.7,3.6-6.9l0.6,0.5l-3.4,3.7l-0.5-0.7c0.2-0.2,0.5-0.6,0.7-1c0.2-0.4,0.3-0.9,0.3-1.3
			c0.1-0.9,0-1.9-0.2-2.8c-0.2-0.9-0.5-1.9-0.5-3c0-1.1,0.4-2.1,1-3c0.7-0.9,1.5-1.5,2.5-1.8c0.9-0.3,1.9-0.6,2.8-0.9
			c1.9-0.6,3.8-1,5.8-1.3c3.9-0.6,7.9-0.7,11.8,0C124.8,135.7,128.6,137,131.8,139.4z"/>
	</g>
	<path class="st1" d="M98.3,153.7c0.4-0.8,0.8-2.6-0.5-5.9c-2.1-4.9,2.1-6.8,2.1-6.8c0.4-0.2,0.9-0.5,1.3-0.7
		c-0.5,3.4-0.8,6.9-0.8,10.5L98.3,153.7z"/>
	<path class="st1" d="M99.8,147.8c-1.2,8.1-0.9,16.3,2.4,23c1.6-2.8,1.9-7.1,3.5-9.9c1.3,3,4.1,4.6,2.5,7.4
		c4.4-1.2,6.2-6.9,10.5-6.6c-0.2,2.9,1.2,4.4,2.6,5.9c1.1,0.3,2.2,0.5,3.2,0.7c-2,2.6-4.2,3.6-4.2,3.6l-2.1-4.5
		c-2.2,5.4-0.5,9.2-0.5,9.2c-4.6-0.7-3.4-8.2-3.2-9.3c0,0,0-0.1,0-0.1c0,0,0,0,0,0.1c-1.7,11.1-9.5,10.7-9.5,10.7
		c2.8-6.5,0.6-10.9,0.6-10.9c2.5,7.4-6,8.4-6,8.4c-2.3-6.1-3.8-5.6-4.6-12.5c0-0.4-0.1-0.8-0.1-1.2
		C94.9,156.4,98.4,150.2,99.8,147.8z"/>
	<g>
		<path class="st15" d="M117.5,168.6c0-0.1,0-0.1,0-0.1C117.5,168.5,117.5,168.5,117.5,168.6z"/>
		<path d="M117.5,168.6L117.5,168.6c-0.2,0-0.3,0-0.4,0c-0.1,0-0.1,0,0,0c0.1,0,0.2,0,0.3,0c0,0,0,0-0.1,0l0.5,0
			c0.2,0,0.3,0.1,0.3,0.1C118,168.6,117.9,168.6,117.5,168.6L117.5,168.6z M117.5,168.6c-0.3,0-0.4-0.1-0.5-0.1c0,0,0.1,0,0.3,0
			l0.5,0c-0.1,0-0.1,0-0.1,0c0,0,0.2,0,0.3,0c0.1,0,0,0,0,0C117.9,168.6,117.8,168.6,117.5,168.6L117.5,168.6L117.5,168.6z"/>
	</g>
	<g>
		<ellipse transform="matrix(0.9613 0.2754 -0.2754 0.9613 37.2185 -28.0417)" class="st8" cx="118.4" cy="118.5" rx="2" ry="2.9"/>
		<path d="M120.4,119c-0.2,0.6-0.5,1.2-0.9,1.7c-0.4,0.5-1.1,0.9-1.9,0.8c-0.8-0.2-1.3-0.9-1.5-1.5c-0.2-0.7-0.2-1.4,0-2.2
			c0.2-0.6,0.6-1.3,1.1-1.8c0.5-0.5,1.4-0.8,2.1-0.5c0.7,0.3,1.1,1,1.2,1.6C120.6,117.8,120.5,118.4,120.4,119z M120.4,119
			c0.2-0.6,0.2-1.3,0-1.9c-0.2-0.6-0.7-1.1-1.2-1.2c-0.5-0.1-1,0.2-1.4,0.6c-0.4,0.4-0.6,0.9-0.8,1.5c-0.1,0.5-0.2,1.1-0.1,1.6
			c0.1,0.5,0.3,1.1,0.8,1.3c0.5,0.2,1.1,0,1.6-0.4C119.8,120.2,120.2,119.6,120.4,119z"/>
	</g>
	<g>
		<path class="st13" d="M78.5,157.4c0,0,41.9,102.3,19.3-9.6"/>
		<path d="M78.5,157.4c3.6,7.8,7.2,15.6,10.9,23.4c1.8,3.9,3.7,7.8,5.9,11.5c1.1,1.8,2.3,3.7,3.6,5.3c0.7,0.8,1.4,1.6,2.3,2.1
			c0.4,0.2,0.9,0.4,1.3,0.2c0.4-0.2,0.7-0.6,0.9-1.1c0.4-1,0.5-2,0.5-3.1c0.1-1.1,0.1-2.1,0-3.2c-0.1-2.1-0.2-4.3-0.5-6.4
			c-0.4-4.3-1.1-8.5-1.7-12.8c-1.3-8.5-2.8-17-4.2-25.5l0.1,0c2,8.4,3.7,16.8,5.1,25.3c0.7,4.3,1.2,8.5,1.6,12.8
			c0.2,2.2,0.3,4.3,0.3,6.5c0,1.1,0,2.2-0.1,3.3c-0.1,1.1-0.3,2.2-0.7,3.2c-0.2,0.5-0.6,1.1-1.2,1.3c-0.6,0.2-1.3,0-1.7-0.3
			c-1-0.6-1.7-1.4-2.4-2.3c-1.4-1.7-2.5-3.5-3.7-5.3c-2.2-3.7-4.4-7.4-6.3-11.3C84.8,173.5,81.4,165.5,78.5,157.4L78.5,157.4z"/>
	</g>
	<g>
		<path class="st13" d="M132.5,142.2c0,0,6.9,5.2,6.5,14.2c-0.4,9,8.4,35.8,8.4,35.8s-9.4,6.6-18.1-28.1"/>
		<path d="M132.5,142.2c3.5,2.7,6.1,6.8,6.7,11.3c0.2,1.1,0.2,2.3,0.1,3.4c0,1.1,0.1,2.2,0.2,3.2c0.2,2.2,0.6,4.3,1,6.5
			c0.8,4.3,1.8,8.7,3.1,12.9c1.2,4.2,2.7,8.4,4.1,12.6l0.1,0.3l-0.3,0.2c-1.6,1-3.4,0.7-4.8,0c-1.5-0.7-2.6-1.8-3.7-3
			c-2-2.4-3.4-5.2-4.7-7.9c-1.2-2.8-2.2-5.7-3.1-8.6c-0.9-2.9-1.6-5.9-2.2-8.9l0.1,0c0.9,2.9,1.8,5.8,2.8,8.7c1,2.9,2.1,5.7,3.3,8.4
			c1.2,2.7,2.7,5.4,4.6,7.7c0.9,1.1,2,2.2,3.3,2.8c0.6,0.3,1.3,0.5,2,0.6c0.7,0,1.4-0.1,1.9-0.4l-0.2,0.5c-1.3-4.2-2.4-8.5-3.6-12.8
			c-1.1-4.3-2.4-8.5-3.4-12.8c-0.5-2.2-1-4.3-1.2-6.6c-0.1-1.1-0.2-2.2-0.2-3.4c0.1-1.1,0.1-2.2-0.1-3.2
			C137.9,149.3,135.7,145.2,132.5,142.2L132.5,142.2z"/>
	</g>
	<path class="st2" d="M128.6,162.9l0.6,1.2c8.7,34.8,18.1,28.1,18.1,28.1s0-0.1-0.1-0.4c-11.2-11.2-5.8-19.6-18.3-29.6
		C128.8,162,128.7,163.3,128.6,162.9z"/>
	<g class="st6">
		
			<radialGradient id="SVGID_1_" cx="70.377" cy="100.0713" r="7.0514" gradientTransform="matrix(0.1105 -0.9939 0.7857 8.734521e-002 -16.0266 161.2767)" gradientUnits="userSpaceOnUse">
			<stop  offset="0" style="stop-color:#A2FFEE"/>
			<stop  offset="5.849278e-002" style="stop-color:#ABFFF0;stop-opacity:0.9415"/>
			<stop  offset="0.3339" style="stop-color:#CFFFF6;stop-opacity:0.6661"/>
			<stop  offset="0.5911" style="stop-color:#E9FFFB;stop-opacity:0.4089"/>
			<stop  offset="0.8208" style="stop-color:#F9FFFE;stop-opacity:0.1792"/>
			<stop  offset="1" style="stop-color:#FFFFFF;stop-opacity:0"/>
		</radialGradient>
		<path class="st11" d="M71.8,95.3c0,0,0.7,2.7,1.3,5.3c0.6,2.6-5,3.8-4.9,0c0.1-3.8,2.8-2.8,2.5-10.3"/>
		<path d="M71.8,95.3c0.3,0.9,0.6,1.9,0.9,2.9l0.4,1.5c0.1,0.2,0.1,0.5,0.2,0.7c0,0.1,0.1,0.3,0.1,0.4c0,0.1,0,0.3,0,0.4
			c-0.1,0.6-0.5,1-0.9,1.3c-0.4,0.3-0.9,0.5-1.4,0.5c-0.5,0.1-1,0-1.5-0.1c-0.5-0.2-0.9-0.5-1.2-1c-0.2-0.5-0.3-1-0.3-1.5
			c0-0.5,0.1-1,0.3-1.5c0.3-1,1-1.8,1.4-2.7c0.8-1.8,0.9-3.8,1-5.8l0.1,0c0.2,2,0.3,4.1-0.5,6c-0.4,1-1.1,1.7-1.4,2.6
			c-0.2,0.4-0.3,0.9-0.3,1.4c0,0.5-0.1,1,0.1,1.4c0.3,0.9,1.5,1.3,2.4,1.1c0.9-0.1,1.9-0.8,2-1.7c0.1-0.4-0.2-0.9-0.2-1.4l-0.3-1.5
			C72.1,97.3,71.9,96.3,71.8,95.3L71.8,95.3z"/>
	</g>
</g>
</svg>
