<?xml version="1.0" encoding="utf-8"?>
<!-- Generator: Adobe Illustrator 15.1.0, SVG Export Plug-In . SVG Version: 6.00 Build 0)  -->
<!DOCTYPE svg PUBLIC "-//W3C//DTD SVG 1.1//EN" "http://www.w3.org/Graphics/SVG/1.1/DTD/svg11.dtd">
<svg version="1.1" id="Cat" xmlns="http://www.w3.org/2000/svg" xmlns:xlink="http://www.w3.org/1999/xlink" x="0px" y="0px"
	 width="237.6px" height="237.4px" viewBox="0 0 237.6 237.4" style="enable-background:new 0 0 237.6 237.4;" xml:space="preserve"
	>
<style type="text/css">
<![CDATA[
	.st0{opacity:0.24;fill:#44362E;}
	.st1{opacity:0.4;fill:#44362E;}
	.st2{opacity:0.14;}
	.st3{opacity:0.24;}
	.st4{opacity:0.25;}
	.st5{opacity:0.36;}
	.st6{fill:#886E5F;}
	.st7{fill:#EDEDED;}
	.st8{fill:#BC9B7A;}
	.st9{fill:#F9D3AA;}
	.st10{fill:#FBDCCA;}
	.st11{opacity:0.52;fill:#FF9999;}
	.st12{fill:#FFFFFF;}
	.st13{opacity:0.47;fill:#FFA6A6;}
	.st14{fill:#3A1D0B;}
	.st15{opacity:0.25;fill:#825E37;}
]]>
</style>
<g>
	
		<ellipse transform="matrix(0.9939 -0.1104 0.1104 0.9939 -20.4684 13.183)" class="st3" cx="108.8" cy="191.4" rx="82.4" ry="35.1"/>
	<g>
		<path class="st6" d="M172.3,84.5c0,0,17.3-0.6,7.1,6.3c-10.2,7-25.9,10.4-24.6,30.7c1.3,20.4-13.6,39.3-13.6,39.3l-10.6-5.8
			c0,0,17.4-6.2,14.6-39.7C145.4,115.4,148.2,92.4,172.3,84.5z"/>
		<g>
			<path d="M172.3,84.5c2.1-0.1,4.2-0.1,6.3,0.2c1,0.2,2.1,0.4,3.1,0.9c0.5,0.3,1,0.7,1.1,1.3c0.1,0.6-0.1,1.2-0.4,1.7
				c-0.6,0.9-1.5,1.6-2.3,2.2c-0.9,0.6-1.7,1.2-2.6,1.8c-1.8,1.1-3.6,2.1-5.5,3.2c-3.7,2.1-7.3,4.2-10.2,7.1
				c-1.5,1.5-2.8,3.1-3.8,4.9c-1,1.8-1.7,3.8-2.1,5.8c-0.4,2-0.6,4.1-0.6,6.2c0,2.1,0.2,4.2,0,6.3c-0.2,4.2-1.1,8.4-2.3,12.4
				c-1.3,4-2.9,8-4.8,11.7c-1.9,3.8-4.1,7.4-6.6,10.8l-0.1,0.2l-0.2-0.1l-10.6-5.7l-0.7-0.4l0.8-0.3c1.6-0.7,3.2-1.8,4.5-3
				c1.3-1.2,2.6-2.6,3.6-4.2c2.1-3,3.6-6.5,4.5-10c1-3.6,1.5-7.2,1.7-11c0.2-3.7,0.1-7.4-0.2-11.1l0-0.1l0,0
				c0.6-3.6,1.8-7.1,3.4-10.3c1.6-3.3,3.6-6.3,6-9c2.4-2.7,5.2-5.1,8.2-7C165.6,87,168.9,85.5,172.3,84.5L172.3,84.5L172.3,84.5z
				 M172.3,84.6c-6.8,2.3-13,6.3-17.6,11.8c-2.3,2.7-4.2,5.7-5.7,9c-1.5,3.2-2.6,6.7-3.2,10.1l0-0.1c0.3,3.7,0.4,7.5,0.2,11.3
				c-0.2,3.8-0.8,7.5-1.8,11.2c-1,3.6-2.6,7.2-4.8,10.3c-2.2,3.1-5,5.8-8.6,7.4l0.1-0.7l10.5,5.9l-0.4,0.1c2.5-3.3,4.8-6.9,6.7-10.6
				c1.9-3.7,3.6-7.6,4.8-11.7c1.2-4,2-8.2,2.1-12.4c0.1-2.1-0.1-4.2-0.2-6.3c0-2.1,0.1-4.3,0.5-6.4c0.8-4.2,3-8.2,6.1-11.1
				c3.1-3,6.8-5.1,10.5-7.2c1.8-1,3.7-2,5.5-3.1c0.9-0.5,1.8-1.1,2.6-1.7c0.8-0.6,1.7-1.2,2.3-2.1c0.3-0.4,0.5-0.9,0.4-1.3
				c-0.1-0.4-0.5-0.8-0.9-1c-0.9-0.5-1.9-0.7-2.9-0.9C176.6,84.7,174.4,84.6,172.3,84.6z"/>
		</g>
	</g>
	<path class="st1" d="M152.6,110.8c0.3-13.1,16.7-19.1,29.9-22.9c-0.3,0.8-1.3,1.8-3.1,3c-10.2,7-25.9,10.4-24.6,30.7
		c1.3,20.4-13.6,39.3-13.6,39.3l-3.8-2.1C148.9,147.6,151.8,127.8,152.6,110.8z"/>
	<g>
		<path class="st9" d="M145,94.2c-0.5-6.3-0.9-5.9-0.7-8.8c1.1-19-16.2-29.3-38.5-31.2c-22.3-1.8-38.5,1.3-42.1,23.4
			c-0.6,3.5,0.9,7.2,0.6,10.4c-0.3,3.2-1.9,5.3-2.1,7.9c-0.7,8.9,8.7,15,41.1,17.6c32.4,2.7,41.7-1.9,42.4-10.8
			C146,99.4,145.5,100.4,145,94.2z"/>
		<g>
			<path d="M144.9,94.2c-0.1-1.3-0.2-2.5-0.4-3.8c-0.1-1.3-0.4-2.5-0.4-3.8c0-1.3,0.1-2.5,0.1-3.8c0-1.3-0.2-2.5-0.4-3.7
				c-0.9-5-3.5-9.5-7.1-12.9c-3.6-3.4-8.1-5.9-12.8-7.7c-4.7-1.7-9.6-2.9-14.6-3.5c-5-0.6-10-1-15.1-0.9c-5,0.1-10.1,0.6-14.8,2.4
				c-2.3,0.9-4.6,2.1-6.5,3.6c-2,1.6-3.6,3.5-4.9,5.6c-1.3,2.1-2.3,4.5-3,6.9c-0.3,1.2-0.6,2.4-0.9,3.7c-0.1,0.6-0.2,1.2-0.3,1.8
				c-0.1,0.6-0.1,1.2,0,1.8c0.1,2.5,0.9,4.9,0.8,7.6c0,1.3-0.4,2.6-0.8,3.8c-0.4,1.2-0.9,2.4-1.1,3.6c-0.5,2.4,0,4.9,1.4,6.9
				c1.4,2,3.5,3.4,5.7,4.5c4.5,2.2,9.4,3.3,14.3,4.3c4.9,0.9,9.9,1.6,15,2.1c5,0.5,10,0.8,15.1,1.1c5,0.2,10.1,0.2,15.1-0.2
				c2.5-0.2,5-0.6,7.4-1.3c2.4-0.7,4.7-1.8,6.5-3.6c0.9-0.9,1.5-2,1.9-3.2c0.4-1.2,0.6-2.4,0.6-3.7c0.1-1.3-0.2-2.5-0.4-3.7
				C145.1,96.7,145,95.4,144.9,94.2z M145,94.2c0.1,1.3,0.2,2.5,0.4,3.8c0.2,1.2,0.5,2.5,0.4,3.8c0,1.3-0.2,2.5-0.6,3.8
				c-0.4,1.2-1.1,2.3-1.9,3.3c-1.7,1.9-4.1,3-6.5,3.8c-2.4,0.8-4.9,1.2-7.5,1.6c-5,0.6-10.1,0.6-15.2,0.5c-5.1-0.1-10.1-0.5-15.1-1
				c-5-0.5-10.1-1.1-15-2.1c-5-1-10-2.2-14.6-4.5c-2.3-1.2-4.5-2.6-6-4.8c-1.5-2.2-2-5-1.4-7.6c0.3-1.3,0.8-2.5,1.2-3.6
				c0.4-1.2,0.7-2.4,0.8-3.6c0.1-2.5-0.6-4.9-0.7-7.5c0-0.6,0-1.3,0.1-1.9c0.1-0.6,0.2-1.3,0.3-1.9c0.3-1.2,0.6-2.5,0.9-3.7
				c0.7-2.4,1.7-4.8,3.1-7c1.3-2.2,3-4.1,5-5.7c2-1.6,4.2-2.8,6.6-3.7c4.8-1.8,9.9-2.4,14.9-2.6c5.1-0.1,10.1,0.1,15.2,0.7
				c5,0.6,10,1.7,14.8,3.5c4.7,1.8,9.3,4.4,12.9,8c3.6,3.6,6.2,8.3,7,13.3c0.2,1.3,0.3,2.5,0.3,3.8c0,1.3-0.1,2.5-0.1,3.8
				c0,1.3,0.3,2.5,0.4,3.8C144.8,91.7,145,92.9,145,94.2z"/>
		</g>
	</g>
	<path class="st15" d="M144.6,90c2.8-5.4,15.4-32.2-1.9-42.2c-19.3-11.1-75-15.3-80.5,19.1c0,0-6.8,14.6-1.8,21.3
		c0.6,0.8,2.3-1.9,3.7-4.4c0.2,1.4,0.4,2.8,0.3,4.1c-0.3,3.2-1.9,5.3-2.1,7.9c-0.5,5.5,3.1,10,13.6,13.2c-3.3-2.9-6.1-6.1-8.2-9.9
		c-4-7.7-2-16,1.3-24.6l6.5-12.2c0,0,6,14.7,25.8,20.4c0,0-7.5-9.3-6.9-13.3c0,0,6.6,17.6,27.1,17.4c0,0-11.9-9.1-11.7-13.4
		c0,0,14.9,16.1,32.2,17.3c-1,8.8-4.3,16.9-10.3,22.6c9.9-1.6,13.5-5.3,13.9-10.7c0.3-3.3-0.3-2.3-0.7-8.6
		C144.8,92.2,144.7,90.9,144.6,90z"/>
	<g>
		<path class="st14" d="M75.6,60.8c0,0,6,14.7,25.8,20.4c0,0-7.5-9.3-6.9-13.3c0,0,6.6,17.6,27.1,17.4c0,0-11.9-9.1-11.7-13.4
			c0,0,16.1,17.4,34.2,17.4c0,0,17.9-32-1.4-43.2c-19.3-11.1-75-15.3-80.5,19.1c0,0-6.8,14.6-1.8,21.3c1,1.4,5.7-8.2,5.7-8.2
			L75.6,60.8z"/>
		<g>
			<path d="M75.6,60.8c1.2,2.6,2.8,4.9,4.7,7c1.8,2.1,3.9,4,6.2,5.7c4.5,3.4,9.6,5.8,15,7.4l-0.4,0.5c-1.6-2-3.1-4.1-4.4-6.3
				c-0.7-1.1-1.3-2.2-1.8-3.4c-0.5-1.2-1-2.5-0.8-3.9l0.2-1.5l0.6,1.5c1.1,2.6,2.6,5,4.4,7.1c1.8,2.2,3.9,4.1,6.3,5.6
				c2.4,1.5,5,2.7,7.7,3.4c2.7,0.7,5.5,1,8.4,1l-0.2,0.7c-2.4-1.9-4.7-3.9-6.8-6c-1.1-1.1-2.1-2.2-3-3.4c-0.5-0.6-0.9-1.3-1.2-2
				c-0.3-0.7-0.7-1.5-0.6-2.3l0-0.7l0.5,0.5c2.2,2.4,4.7,4.5,7.3,6.5c2.6,2,5.3,3.9,8.1,5.4c2.9,1.6,5.8,2.9,9,3.9
				c3.1,1,6.4,1.5,9.6,1.5l-0.2,0.1c2.7-5.2,4.9-10.8,6.3-16.5c0.7-2.9,1.1-5.8,1.2-8.7c0.1-2.9-0.3-5.9-1.3-8.6
				c-1-2.7-2.7-5.2-4.9-7c-2.2-1.9-4.9-3.1-7.6-4.2c-5.5-2.2-11.2-3.5-17-4.4c-5.8-0.9-11.7-1.2-17.6-1c-5.9,0.3-11.7,1.1-17.3,2.8
				c-5.6,1.7-10.9,4.4-15.1,8.5c-2.1,2-3.8,4.4-5.1,7c-1.3,2.6-2.2,5.4-2.7,8.3l0,0.1l0,0.1c-1.7,3.9-3.1,8.2-3.6,12.5
				c-0.2,2.1-0.2,4.3,0.5,6.4c0.2,0.5,0.4,1,0.6,1.4c0.1,0.2,0.3,0.5,0.4,0.7c0.1,0.1,0,0.1,0.1,0.1c0,0,0.1,0,0.2-0.1
				c0.8-0.6,1.4-1.6,1.9-2.5c1.1-1.9,2.2-3.8,3.2-5.7l3.2-5.8L75.6,60.8L75.6,60.8z M75.6,60.9l-6,11.6l-3.1,5.8c-1,2-2,3.9-3.1,5.8
				c-0.6,0.9-1.1,1.9-2.1,2.7c-0.1,0.1-0.3,0.2-0.5,0.2c-0.1,0-0.3,0-0.4-0.1c-0.1,0-0.1-0.1-0.1-0.1l-0.1-0.1l0,0
				c-0.2-0.2-0.3-0.5-0.5-0.7c-0.3-0.5-0.5-1-0.7-1.5c-0.7-2.1-0.8-4.4-0.6-6.6c0.4-4.4,1.8-8.7,3.5-12.7l0,0.1
				c0.9-5.9,3.6-11.6,8-15.9c4.3-4.2,9.8-7,15.5-8.8c5.7-1.8,11.7-2.6,17.6-2.8c6-0.2,11.9,0.2,17.8,1.1c5.9,0.9,11.7,2.3,17.2,4.6
				c1.4,0.6,2.7,1.2,4.1,1.9c1.3,0.7,2.6,1.5,3.7,2.5c2.3,2,4.1,4.5,5,7.4c1,2.8,1.3,5.9,1.2,8.8c-0.1,3-0.6,5.9-1.3,8.8
				c-1.4,5.8-3.6,11.3-6.4,16.6l0,0.1l-0.1,0c-3.3,0-6.6-0.6-9.7-1.6c-3.1-1-6.2-2.3-9.1-3.9c-2.9-1.6-5.6-3.4-8.2-5.4
				c-2.6-2-5.1-4.1-7.4-6.5l0.5-0.2c0,0.7,0.2,1.4,0.6,2c0.3,0.6,0.8,1.3,1.2,1.8c0.9,1.2,1.9,2.3,3,3.3c2.1,2.1,4.5,4.1,6.8,5.9
				l0.9,0.7l-1.2,0c-2.9,0-5.8-0.3-8.6-1c-2.8-0.7-5.5-1.9-7.9-3.5c-2.4-1.6-4.6-3.6-6.5-5.8c-1.8-2.2-3.4-4.7-4.5-7.4l0.8-0.1
				c-0.1,1.1,0.3,2.3,0.7,3.5c0.5,1.1,1.1,2.3,1.7,3.3c1.3,2.2,2.8,4.2,4.3,6.2l0.7,0.9l-1-0.3c-5.4-1.6-10.6-4.2-15.1-7.7
				c-2.2-1.8-4.3-3.7-6.1-5.9C78.3,65.8,76.7,63.4,75.6,60.9z"/>
		</g>
	</g>
	<g>
		<path class="st6" d="M171.2,21.6c0,0-5.3-3.5-19.3-1.6c-7.2,1-14.1,1.6-19,1.9c-5.4-2-13-3.9-23-4.7c-11.6-0.9-20.2,0.7-26.1,2.5
			c-4.8-0.9-11.3-2.3-18.1-4.1c-13.7-3.7-19.4-0.8-19.4-0.8s-6,19.1,5.2,31.3l0.9-0.6c-3.8,8.7-4.4,18.3-3.6,27.3
			c2.3,24.5,9.6,36.9,35.8,42.2c0,0,0,0,0,0c0,0-12.6,22.5-18.8,44.4c-6.2,21.9,9.8,25.1,34.4,27.6c24.6,2.5,53.3-0.3,47.8-25.1
			c-4.6-20.6-16-39.1-19.7-44.8c21.2-2.9,29.2-14.2,34.4-35.4c2.4-10,3.3-20.3,0-30.3C174.6,40.7,171.2,21.6,171.2,21.6z
			 M102.7,113.3c-32.5-2.7-42.1-8.8-41.3-17.7c0.2-2.7,1.8-4.8,2.1-8c0.3-3.2-1.2-7-0.6-10.5c2-12.1,7.8-18.6,16.3-21.6
			c2.7,2.5,7.8,4.5,13.8,5c4.6,0.4,8.8-0.2,11.9-1.4c2.9,1.7,6.9,3,11.5,3.4c5.3,0.4,10.1-0.4,13.3-2.1c9.3,5.3,15,13.4,14.3,24.6
			c-0.2,2.9,0.2,2.5,0.7,8.8c0.5,6.3,1,5.3,0.7,8.6C144.7,111.4,135.3,116,102.7,113.3z"/>
		<g>
			<path d="M171.2,21.6c-1.4-0.8-3-1.2-4.5-1.5c-1.6-0.3-3.2-0.5-4.8-0.5c-3.2-0.1-6.5,0.1-9.6,0.6c-6.4,0.9-12.9,1.6-19.3,2l-0.1,0
				l-0.1,0c-7.8-2.8-16.1-4.1-24.4-4.7c-8.3-0.5-16.7,0.2-24.6,2.6l-0.1,0l-0.1,0c-6.3-1.2-12.5-2.6-18.7-4.2
				c-3.1-0.8-6.2-1.4-9.3-1.6c-1.6-0.1-3.1-0.1-4.7,0c-1.5,0.1-3.2,0.4-4.5,0.9l0.2-0.3c-0.7,2.6-1.2,5.3-1.4,8
				c-0.2,2.7-0.2,5.5,0.1,8.2c0.3,2.7,1,5.4,2,7.9c1.1,2.5,2.5,4.8,4.4,6.8l-0.4-0.1l0.9-0.6l0.9-0.6l-0.4,1
				c-2.9,6.7-4,14.2-3.9,21.5c0.1,3.7,0.4,7.4,0.9,11c0.5,3.7,1.2,7.3,2.3,10.8c1.1,3.5,2.5,6.9,4.6,10c2,3.1,4.6,5.7,7.7,7.9
				c3,2.1,6.4,3.8,9.8,5c3.5,1.3,7.1,2.2,10.7,2.9l-0.1,0.3c0,0,0.1,0,0.1,0l0.1-0.1c-4.3,7.9-8.1,16-11.6,24.3
				c-1.7,4.1-3.3,8.3-4.8,12.6c-0.7,2.1-1.4,4.3-2,6.4c-0.6,2.1-1.2,4.3-1.4,6.5c-0.3,2.2-0.3,4.4,0.2,6.6c0.5,2.1,1.5,4.2,2.9,5.8
				c1.5,1.6,3.3,2.9,5.3,3.8c2,1,4.1,1.7,6.3,2.3c4.3,1.2,8.8,1.8,13.2,2.4c4.5,0.5,8.9,1,13.4,1.3c4.5,0.3,9,0.3,13.4,0.1
				c4.5-0.3,8.9-0.8,13.2-2.1c4.2-1.2,8.4-3.1,11.4-6.4c1.5-1.6,2.6-3.5,3.3-5.6c0.7-2.1,0.9-4.3,0.7-6.5c-0.1-2.2-0.6-4.4-1.1-6.5
				c-0.5-2.2-1.1-4.3-1.8-6.5c-1.3-4.3-2.9-8.5-4.7-12.6c-3.6-8.2-7.8-16.1-12.7-23.6l-0.4-0.7l0.8-0.1l0,0
				c6.9-0.9,13.8-2.9,19.2-7.2c2.7-2.1,5.1-4.7,7-7.6c1.9-2.9,3.4-6.1,4.6-9.3c1.2-3.3,2.2-6.6,3.1-10c0.9-3.4,1.6-6.8,2-10.3
				c0.8-6.9,0.5-14-1.7-20.7l0-0.1l0.1-0.1c2-1.8,3.7-3.9,5-6.3c1.3-2.3,2.3-4.9,2.9-7.5c0.6-2.6,1-5.3,1.1-8
				C171.7,26.9,171.6,24.2,171.2,21.6z M171.3,21.6c0.4,2.7,0.5,5.4,0.5,8.1c-0.1,2.7-0.4,5.4-1.1,8c-0.6,2.6-1.6,5.2-2.9,7.6
				c-1.3,2.4-3,4.5-5,6.4l0-0.2c2.3,6.7,2.7,13.9,1.9,20.9c-0.4,3.5-1.1,7-1.9,10.4c-0.8,3.4-1.8,6.8-3,10.1
				c-1.2,3.3-2.7,6.5-4.6,9.5c-1.9,3-4.3,5.7-7.1,7.9c-2.8,2.2-6,3.9-9.3,5.1c-3.3,1.2-6.8,2-10.3,2.5l0,0l0.4-0.8
				c4.9,7.6,9.2,15.5,12.8,23.8c1.8,4.1,3.4,8.4,4.7,12.7c0.7,2.2,1.3,4.3,1.8,6.5c0.5,2.2,1,4.4,1.1,6.7c0.1,2.3-0.1,4.6-0.8,6.8
				c-0.7,2.2-1.9,4.3-3.5,6c-3.2,3.4-7.5,5.4-11.8,6.6c-4.4,1.2-8.9,1.8-13.4,2.1c-4.5,0.3-9,0.2-13.5-0.1c-4.5-0.3-9-0.8-13.4-1.3
				c-4.5-0.6-8.9-1.3-13.3-2.5c-2.2-0.6-4.3-1.3-6.4-2.4c-2-1-4-2.3-5.5-4c-1.5-1.7-2.6-3.9-3.1-6.1c-0.5-2.3-0.4-4.6-0.2-6.8
				c0.3-2.3,0.8-4.5,1.5-6.6c0.6-2.2,1.3-4.3,2.1-6.4c1.5-4.3,3.1-8.4,4.8-12.6c3.5-8.3,7.4-16.4,11.7-24.3l0-0.1l0.1,0
				c0,0,0.1,0,0.1,0l0.8,0.5l-0.9-0.2c-7.2-1.5-14.5-3.8-20.6-8c-3-2.1-5.7-4.8-7.8-7.9c-2.1-3.1-3.6-6.5-4.7-10.1
				c-1.1-3.6-1.8-7.2-2.3-10.9c-0.5-3.7-0.9-7.4-1-11.1c-0.2-7.4,0.9-15,3.9-21.8l0.5,0.4l-0.9,0.6l-0.2,0.1l-0.2-0.2
				c-1.9-2.1-3.4-4.4-4.5-7c-1.1-2.6-1.8-5.3-2.1-8.1c-0.4-2.8-0.4-5.6-0.2-8.3c0.2-2.8,0.7-5.5,1.4-8.2l0.1-0.2l0.2-0.1
				c1.6-0.7,3.2-0.9,4.8-1c1.6-0.1,3.2-0.1,4.8,0c3.2,0.2,6.4,0.9,9.5,1.7c6.1,1.7,12.3,3.1,18.6,4.3l-0.2,0
				c8-2.5,16.5-3.1,24.8-2.5c8.3,0.6,16.6,2,24.5,4.9l-0.1,0c6.4-0.4,12.9-1,19.3-1.8c3.2-0.4,6.5-0.6,9.7-0.5
				c1.6,0.1,3.2,0.3,4.8,0.6C168.2,20.3,169.8,20.7,171.3,21.6L171.3,21.6L171.3,21.6z"/>
			<path d="M102.7,113.4c-4-0.3-8-0.7-12-1.2c-4-0.5-8-1.1-11.9-2c-3.9-0.9-7.8-2-11.4-4c-1.8-1-3.5-2.3-4.7-3.9
				c-1.3-1.7-1.9-3.8-1.9-5.9c0-0.3,0-0.5,0-0.8c0-0.3,0.1-0.5,0.1-0.8c0.1-0.5,0.2-1,0.4-1.5c0.3-1,0.7-1.9,1-2.8
				c0.3-0.9,0.5-1.9,0.6-2.8c0.1-1,0-1.9-0.1-2.9c-0.2-2-0.6-4-0.6-6c0-0.5,0.1-1,0.2-1.6c0.1-0.5,0.2-1,0.3-1.5
				c0.2-1,0.5-2,0.7-2.9c1.1-3.9,2.9-7.6,5.6-10.7c2.7-3.1,6.2-5.3,10-6.6l0.1,0l0.1,0.1c1.6,1.5,3.7,2.5,5.8,3.3
				c2.1,0.8,4.3,1.2,6.5,1.5c2.2,0.3,4.5,0.3,6.7,0.1c2.2-0.2,4.4-0.6,6.5-1.5l0.1-0.1l0.1,0.1c1.8,1.1,3.8,1.8,5.9,2.3
				c2.1,0.5,4.2,0.8,6.3,0.9c2.1,0.1,4.2,0,6.3-0.3c2.1-0.3,4.1-0.9,6-1.8l0.2-0.1l0.2,0.1c3.5,2,6.8,4.5,9.3,7.7
				c2.6,3.2,4.3,7,5,11c0.3,2,0.4,4.1,0.3,6.1c-0.1,1-0.1,1.9,0,2.9c0.1,1,0.3,2,0.4,3c0.2,2,0.3,4,0.5,6c0.1,1,0.3,1.9,0.4,2.9
				c0.2,1,0.1,2.1,0,3.1c-0.2,2.1-1,4.1-2.4,5.7c-1.4,1.6-3.2,2.7-5.1,3.4c-3.8,1.5-7.8,2-11.8,2.2c-4,0.3-8,0.2-12,0.1
				C110.6,114,106.7,113.7,102.7,113.4z M102.7,113.3c7.9,0.6,15.9,1,23.9,0.3c3.9-0.4,7.9-1,11.6-2.5c1.8-0.8,3.5-1.8,4.7-3.3
				c1.2-1.4,1.9-3.3,2.1-5.2c0.1-1,0.1-1.9,0-2.9c-0.2-1-0.3-2-0.5-3c-0.2-2-0.3-4-0.6-6c-0.1-1-0.2-2-0.4-3c-0.1-1-0.1-2.1-0.1-3.1
				c0.1-2,0-3.9-0.3-5.8c-0.6-3.8-2.3-7.5-4.7-10.6c-2.4-3.1-5.6-5.6-9-7.5l0.4,0c-2,1-4.1,1.6-6.3,1.9c-2.2,0.3-4.3,0.4-6.5,0.2
				c-2.2-0.1-4.3-0.5-6.4-1.1c-2.1-0.6-4.1-1.4-6-2.5l0.2,0c-2.1,0.8-4.4,1.2-6.7,1.4c-2.3,0.2-4.5,0.1-6.8-0.2
				c-2.2-0.3-4.5-0.8-6.6-1.6c-2.1-0.8-4.2-1.8-5.9-3.4l0.2,0c-3.7,1.3-7.2,3.5-9.8,6.6c-2.6,3-4.3,6.7-5.3,10.6
				c-0.2,1-0.5,1.9-0.7,2.9c-0.1,0.5-0.2,1-0.3,1.5c-0.1,0.5-0.1,1-0.1,1.4c0,2,0.4,3.9,0.7,5.9c0.1,1,0.2,2,0.1,3.1
				c-0.1,1-0.3,2.1-0.7,3c-0.6,2-1.5,3.7-1.5,5.7c-0.1,1.9,0.5,3.8,1.7,5.4c1.1,1.6,2.7,2.8,4.4,3.8c3.4,2,7.3,3.2,11.1,4.2
				C86.7,111.6,94.7,112.6,102.7,113.3z"/>
		</g>
	</g>
	<path class="st1" d="M171.6,24.7c-9,19.9-13.6,38.9-15.4,61.2c0.3,11-6.2,20.5-15.1,27.8c12-5.3,17.6-15.7,21.6-32
		c2.4-10,3.3-20.3,0-30.3C171.7,43.3,172,30.6,171.6,24.7z"/>
	<path class="st1" d="M75.5,109c-11-3.2-14.6-7.7-14.1-13.4c0-0.2,0.1-0.4,0.1-0.6c-10.9-17.1-8.8-40.6-2.2-60.2
		c-9.8,11.1-11.5,25.1-10.3,37.9c2.2,23.4,9,35.9,32.7,41.5C80.2,112.4,77.9,110.7,75.5,109z"/>
	<path class="st1" d="M143.4,180.2c4.5-4,6.6-9.9,4.7-18.3c-3.2-14.2-9.6-27.4-14.5-36.1C137.2,143.8,146.9,162.3,143.4,180.2z"/>
	<path class="st1" d="M115.6,116.4c-3.9-0.1-8.2-0.3-13.1-0.7c-3.8-0.3-7.3-0.7-10.5-1.1C99.8,119.3,107.7,118.9,115.6,116.4z"/>
	<path class="st1" d="M82.5,119.1c-3.9,7.5-12,24-16.6,40.2c-3,10.5-0.9,16.7,4.8,20.6C67.7,162.1,80.4,137.8,82.5,119.1z"/>
	<g>
		<path class="st4" d="M139.2,47.9c-0.2,2.5-2.4,4.3-4.9,4.1c-2.5-0.2-4.3-2.4-4.1-4.9c0.2-2.5,2.4-4.3,4.9-4.1
			C137.6,43.2,139.4,45.4,139.2,47.9z"/>
		<path d="M138.1,47.8c-0.2,2.5-2.4,4.3-4.9,4.1c-2.5-0.2-4.3-2.4-4.1-4.9c0.2-2.5,2.4-4.3,4.9-4.1
			C136.4,43.1,138.3,45.3,138.1,47.8z"/>
		<path class="st12" d="M132.2,46.5c0,0.4-0.4,0.7-0.8,0.7c-0.4,0-0.7-0.4-0.7-0.8c0-0.4,0.4-0.7,0.8-0.7
			C131.9,45.7,132.2,46.1,132.2,46.5z"/>
	</g>
	<g>
		<path class="st4" d="M84.1,44.1c-0.2,2.5-2.4,4.3-4.9,4.1c-2.5-0.2-4.3-2.4-4.1-4.9c0.2-2.5,2.4-4.3,4.9-4.1
			C82.5,39.4,84.3,41.6,84.1,44.1z"/>
		<circle cx="78.5" cy="43.6" r="4.5"/>
		<path class="st12" d="M77.1,42.8c0,0.4-0.4,0.7-0.8,0.7c-0.4,0-0.7-0.4-0.7-0.8c0-0.4,0.4-0.7,0.8-0.7
			C76.8,42,77.1,42.3,77.1,42.8z"/>
	</g>
	<path class="st5" d="M78.9,59c2.7,2.5,7.8,4.5,13.8,5c4.6,0.4,8.8-0.2,11.9-1.4c2.9,1.7,6.9,3,11.5,3.4c5.3,0.4,10.1-0.4,13.3-2.1
		c9.3,5.3,15,13.4,14.3,24.6c-0.1,1.9,0,2.4,0.3,4.2c0.1-0.2,0.2-0.3,0.2-0.5c4.7-13,3.4-30.1-7-37c-18.4-12.4-42.1-15.6-62.3-6.3
		C61.2,57.1,56,72.2,62.6,82C64.7,70.5,70.6,61.9,78.9,59z"/>
	<g>
		<path class="st10" d="M79.2,55.6c2.7,2.5,7.8,4.5,13.8,5c4.6,0.4,8.8-0.2,11.9-1.4c2.9,1.7,6.9,3,11.5,3.4
			c5.3,0.4,10.1-0.4,13.3-2.1c9.3,5.3,15,13.4,14.3,24.6c-0.1,1.9,0,2.4,0.3,4.2c0.1-0.2,0.2-0.3,0.2-0.5c4.7-13,3.4-30.1-7-37
			c-18.4-12.4-42.1-15.6-62.3-6.3c-13.7,8.2-18.9,23.3-12.3,33.1C65,67.1,70.9,58.5,79.2,55.6z"/>
		<g>
			<path d="M79.2,55.5c1.7,1.5,3.7,2.5,5.8,3.2c2.1,0.7,4.3,1.2,6.5,1.4c2.2,0.2,4.5,0.3,6.7,0.1c2.2-0.2,4.4-0.6,6.5-1.5l0.2-0.1
				l0.2,0.1c1.8,1.1,3.8,1.8,5.9,2.3c2.1,0.5,4.2,0.8,6.3,1c2.1,0.1,4.2,0,6.3-0.3c2.1-0.3,4.1-0.9,6-1.8l0.2-0.1l0.2,0.1
				c2.5,1.4,4.9,3.2,7,5.2c2.1,2,3.8,4.4,5.1,7c1.3,2.6,2,5.5,2.2,8.4c0.1,1.4,0.1,2.9,0,4.3c0,0.7-0.1,1.4,0,2.1
				c0,0.7,0.2,1.4,0.2,2.1l-0.4-0.1c0.2-0.3,0.3-0.4,0.3-0.7l0.3-0.8c0.2-0.5,0.3-1,0.5-1.6c0.3-1.1,0.6-2.1,0.8-3.2
				c0.5-2.2,0.8-4.3,0.9-6.5c0.3-4.4-0.2-8.9-1.5-13.1c-1.3-4.2-3.7-8.1-7.2-10.7c-3.6-2.5-7.5-4.6-11.5-6.4
				c-8.1-3.5-16.8-5.4-25.6-5.5c-8.8-0.1-17.6,1.7-25.6,5.4l0,0c-5.5,3.3-10.3,8.1-12.9,14c-1.3,2.9-2.1,6.1-2.1,9.3
				c0,3.2,0.9,6.4,2.7,9.1l-0.6,0.1c1-4.9,2.6-9.6,5.3-13.8c1.4-2.1,3-4,4.9-5.6C74.6,57.6,76.8,56.3,79.2,55.5L79.2,55.5L79.2,55.5
				z M79.2,55.6c-2.3,0.9-4.4,2.2-6.2,3.8c-1.8,1.6-3.4,3.5-4.7,5.6c-2.6,4.1-4.2,8.9-5.1,13.7L63,79.5l-0.5-0.7
				c-1.9-2.8-2.9-6.1-3-9.5c-0.1-3.4,0.7-6.7,2-9.7c1.3-3.1,3.3-5.9,5.5-8.3c2.3-2.4,4.9-4.5,7.8-6.2l0,0l0,0
				c8.1-3.8,17.1-5.5,26-5.4c8.9,0.1,17.8,2.2,25.9,5.9c4.1,1.8,7.9,4,11.6,6.6c3.6,2.7,6,6.8,7.3,11c1.3,4.3,1.7,8.8,1.5,13.2
				c-0.1,2.2-0.4,4.4-0.8,6.6c-0.2,1.1-0.5,2.2-0.8,3.2c-0.1,0.5-0.3,1.1-0.5,1.6l-0.3,0.8c-0.1,0.2-0.2,0.6-0.3,0.8l-0.3,0.6
				l-0.1-0.7c-0.1-0.7-0.2-1.4-0.3-2.1c-0.1-0.7,0-1.5,0-2.2c0.1-1.4,0-2.8-0.1-4.2c-0.3-2.8-1.1-5.6-2.3-8.1c-1.3-2.5-3-4.8-5-6.8
				c-2-2-4.3-3.6-6.8-5l0.4,0c-2,1-4.1,1.6-6.3,1.9c-2.2,0.3-4.3,0.4-6.5,0.2c-2.2-0.1-4.3-0.5-6.4-1c-2.1-0.6-4.1-1.3-6-2.5l0.3,0
				c-2.1,0.8-4.4,1.2-6.7,1.4C96,61,93.8,61,91.5,60.7c-2.2-0.3-4.5-0.8-6.6-1.6C82.8,58.2,80.8,57.2,79.2,55.6z"/>
		</g>
	</g>
	<path class="st0" d="M132.5,56.3c-3.5-1.5-7.4,1.8-11.1,1.5c-12.2,0.2-19.1-4-31.5-1.4c-2.5,1-5.7-4.1-9.4-3.2
		c-4.1,0.3-6.9,3.5-9.1,7.4c2.2-2.3,4.8-4,7.7-5c2.7,2.5,7.8,4.5,13.8,5c4.6,0.4,8.8-0.2,11.9-1.4c2.9,1.7,6.9,3,11.5,3.4
		c5.3,0.4,10.1-0.4,13.3-2.1c8.4,4.7,13.8,11.9,14.3,21.4C144.2,71.9,141,61.9,132.5,56.3z"/>
	<path class="st11" d="M144.2,53.3c-0.1,1.4-3.6,2.4-7.8,2.3c-4.3-0.2-7.7-1.4-7.6-2.9c0.1-1.4,3.5-2.4,7.8-2.3
		C140.8,50.6,144.2,51.8,144.2,53.3z"/>
	<path class="st12" d="M144.2,51.5c0,0.5-1.1,0.8-2.5,0.7c-1.4-0.1-2.5-0.5-2.4-0.9c0-0.5,1.1-0.8,2.5-0.7
		C143.1,50.7,144.2,51.1,144.2,51.5z"/>
	<path class="st11" d="M63.7,47.5c-0.2,1.4,3.1,3,7.3,3.5c4.2,0.5,7.8-0.2,8-1.6c0.2-1.4-3.1-3-7.3-3.5
		C67.4,45.3,63.9,46.1,63.7,47.5z"/>
	<path class="st12" d="M63.9,45.7c-0.1,0.5,1,1,2.4,1.1c1.4,0.2,2.5-0.1,2.6-0.5c0.1-0.5-1-1-2.4-1.1C65.1,45.1,64,45.3,63.9,45.7z"
		/>
	<path d="M111.7,51.6c-0.2,2.7-3.5,6.9-7,6.6c-3.6-0.3-6.1-5-5.9-7.7c0.2-2.7,3.2-3.5,6.8-3.2C109.1,47.6,111.9,48.9,111.7,51.6z"/>
	
		<ellipse transform="matrix(0.9966 -8.254522e-002 8.254522e-002 0.9966 -3.694 8.6598)" class="st12" cx="102.9" cy="49" rx="2.5" ry="0.5"/>
	<g>
		<path d="M120.9,94c1.1-0.7,2.4-1.3,3.7-1.7c1.3-0.4,2.6-0.8,4-0.9c1.4-0.1,2.9-0.2,4.3,0.5c1.3,0.6,2.5,1.8,2.9,3.1l-0.2,0.1
			c-1.3-0.6-2.3-1.1-3.5-1.4c-1.1-0.3-2.3-0.7-3.5-0.7c-1.3-0.1-2.5,0-3.8,0.3c-1.3,0.2-2.6,0.5-3.8,0.9L120.9,94z"/>
	</g>
	<path class="st13" d="M140.5,98.4c0,1.6-4.2,2.8-9.2,2.7c-5.1-0.1-9.2-1.5-9.1-3c0-1.6,4.2-2.8,9.2-2.7
		C136.5,95.5,140.5,96.8,140.5,98.4z"/>
	<path class="st12" d="M138.7,96.4c-0.1,0.8-1.3,1.2-2.7,1.1c-1.4-0.2-2.4-0.9-2.3-1.7c0.1-0.8,1.3-1.2,2.7-1.1
		C137.8,94.8,138.8,95.6,138.7,96.4z"/>
	<g>
		<path d="M86.6,91.7c-1.2-0.6-2.4-1.1-3.6-1.6c-1.2-0.4-2.5-0.8-3.7-0.9c-1.3-0.1-2.5,0.1-3.6,0.1c-1.2,0.1-2.3,0.4-3.7,0.8
			l-0.1-0.2c0.7-1.3,2-2.2,3.4-2.6c1.5-0.4,3-0.1,4.3,0.2c1.4,0.4,2.6,0.9,3.8,1.5c1.2,0.7,2.3,1.4,3.3,2.3L86.6,91.7z"/>
	</g>
	<path class="st13" d="M66.6,92.6c-0.2,1.6,3.7,3.4,8.7,4.1c5,0.7,9.3,0,9.5-1.5c0.2-1.6-3.7-3.4-8.7-4.1
		C71.1,90.4,66.8,91.1,66.6,92.6z"/>
	<path class="st12" d="M68.7,90.9c0,0.8,1.1,1.4,2.5,1.5c1.4,0.1,2.5-0.5,2.6-1.3c0-0.8-1.1-1.4-2.5-1.5
		C69.9,89.6,68.8,90.1,68.7,90.9z"/>
	<g>
		<path class="st8" d="M116.8,105.7c0.3-3.3-4.8-7.6-11.5-8.1s-12.4,2.9-12.6,6.2c-0.3,3.3,5,5.2,11.6,5.7
			C111.1,110,116.6,109,116.8,105.7z"/>
		<g>
			<path d="M116.8,105.7c0.1-1.2-0.5-2.4-1.3-3.3c-0.8-0.9-1.8-1.6-2.8-2.2c-2.1-1.1-4.4-1.9-6.7-2.2c-2.3-0.3-4.8-0.2-7.1,0.5
				c-1.1,0.4-2.3,0.9-3.2,1.6c-1,0.7-1.9,1.6-2.3,2.6c-0.2,0.5-0.3,1.1-0.2,1.6c0.1,0.5,0.4,1,0.8,1.4c0.8,0.8,1.9,1.3,3,1.7
				c2.2,0.8,4.6,1.1,7,1.4c2.4,0.2,4.8,0.3,7.2,0.2c1.2-0.1,2.4-0.3,3.5-0.7C115.7,107.9,116.7,107,116.8,105.7z M116.9,105.7
				c-0.1,1.3-1.1,2.3-2.2,2.8c-1.1,0.6-2.3,0.9-3.5,1.2c-2.4,0.5-4.9,0.4-7.4,0.2c-2.5-0.2-4.9-0.7-7.3-1.6
				c-1.2-0.5-2.3-1.1-3.2-2.1c-0.4-0.5-0.8-1.1-0.8-1.8c-0.1-0.7,0.1-1.3,0.3-1.9c0.6-1.2,1.5-2,2.5-2.7c1-0.7,2.2-1.2,3.3-1.6
				c2.3-0.8,4.8-1.2,7.3-1c2.5,0.2,4.9,1.1,7,2.5c1,0.7,2,1.6,2.7,2.6C116.4,103.3,117,104.5,116.9,105.7z"/>
		</g>
	</g>
	<g>
		<path class="st6" d="M87.7,116c0,0-40.9-21-44.6-16.7c-3.7,4.3,31.9,26.8,31.9,26.8s2.6,0.7-0.5,8.2"/>
		<path d="M87.6,116c-6.9-3.1-13.8-6.4-20.7-9.5c-3.5-1.5-6.9-3.1-10.4-4.6c-3.5-1.4-7.1-2.7-10.9-3.1c-0.5,0-0.9,0-1.4,0
			c-0.4,0.1-0.9,0.2-1.1,0.5c-0.2,0.3-0.2,0.7-0.1,1.1c0.1,0.4,0.4,0.8,0.6,1.2c1.1,1.5,2.5,2.8,3.9,4c2.8,2.5,5.8,4.8,8.9,7
			c3.1,2.2,6.1,4.4,9.3,6.6c3.1,2.2,6.2,4.3,9.4,6.4l-0.1,0c0.5,0.2,0.7,0.6,0.9,1c0.2,0.4,0.2,0.8,0.3,1.2c0,0.8-0.1,1.5-0.2,2.3
			c-0.3,1.5-0.9,2.8-1.5,4.2l-0.1,0c0.5-1.4,1-2.8,1.2-4.2c0.1-0.7,0.2-1.4,0.1-2.1c0-0.3-0.1-0.7-0.3-1c-0.1-0.3-0.4-0.5-0.6-0.6
			l0,0l0,0c-6.5-3.9-12.8-8.1-18.9-12.7c-3-2.3-6-4.6-8.8-7.3c-1.4-1.3-2.7-2.7-3.8-4.3c-0.3-0.4-0.5-0.9-0.6-1.4
			c-0.1-0.5-0.2-1.1,0.2-1.6c0.4-0.5,0.9-0.6,1.4-0.6c0.5-0.1,1,0,1.5,0c1.9,0.2,3.8,0.7,5.6,1.3c1.8,0.5,3.6,1.2,5.4,1.8
			c3.6,1.3,7.1,2.6,10.6,4.2C74.3,108.9,81.1,112.2,87.6,116L87.6,116z"/>
	</g>
	<g>
		<path class="st6" d="M124.5,116.7c0,0,45-22.8,49.1-18.1c4.1,4.7-35.2,29.2-35.2,29.2s-2.9,0.8,0.5,9"/>
		<path d="M124.5,116.6c7.3-4,14.8-7.7,22.4-11c3.8-1.7,7.7-3.1,11.7-4.5c2-0.7,3.9-1.4,5.9-2c2-0.6,4-1.2,6.1-1.4
			c0.5,0,1.1-0.1,1.6,0c0.5,0.1,1.1,0.2,1.6,0.7c0.4,0.5,0.4,1.2,0.2,1.7c-0.2,0.5-0.4,1-0.7,1.5c-1.2,1.8-2.7,3.3-4.2,4.7
			c-3.1,2.9-6.4,5.4-9.7,7.9c-6.7,4.9-13.7,9.5-20.8,13.8l0,0l0,0c-0.2,0.1-0.5,0.4-0.6,0.7c-0.2,0.3-0.2,0.7-0.3,1.1
			c-0.1,0.8,0,1.6,0.1,2.3c0.3,1.6,0.7,3.1,1.3,4.6l-0.1,0c-0.7-1.5-1.2-3-1.6-4.6c-0.2-0.8-0.3-1.6-0.2-2.5c0-0.4,0.1-0.9,0.3-1.3
			c0.2-0.4,0.4-0.8,1-1l-0.1,0c3.5-2.3,6.9-4.6,10.3-7c3.4-2.3,6.8-4.7,10.2-7.2c3.4-2.4,6.7-4.9,9.8-7.7c1.5-1.4,3.1-2.8,4.3-4.4
			c0.3-0.4,0.5-0.8,0.7-1.3c0.2-0.5,0.2-0.9-0.1-1.3c-0.2-0.3-0.7-0.5-1.2-0.6c-0.5-0.1-1-0.1-1.5,0c-4.1,0.4-8.1,1.9-11.9,3.3
			c-3.9,1.5-7.7,3.2-11.5,4.9C139.6,109.8,132.1,113.3,124.5,116.6L124.5,116.6z"/>
	</g>
	<g>
		<path class="st14" d="M141,30c0,0,5.7,2.2,14.5-1.2c8.9-3.4,11.6-4,11.6-4s1.8,16.8-6.3,23.4C160.8,48.1,160.8,40.1,141,30z"/>
		<g>
			<path d="M141,29.9c2.2,0.6,4.5,0.6,6.7,0.3c2.2-0.3,4.4-0.8,6.5-1.5c2.1-0.8,4.2-1.6,6.4-2.4c2.2-0.7,4.3-1.4,6.5-1.9l0.2-0.1
				l0,0.2c0.2,2.1,0.1,4.2,0.1,6.3c-0.1,2.1-0.3,4.2-0.7,6.3c-0.4,2.1-0.9,4.1-1.8,6.1c-0.9,1.9-2.1,3.8-3.8,5.2l-0.7,0.6l-0.1-1
				c-0.1-0.9-0.6-2-1.1-3c-0.5-1-1.2-1.9-1.9-2.7c-1.4-1.7-3.1-3.3-4.9-4.7C148.9,34.8,145,32.3,141,29.9l-0.4-0.1L141,29.9z
				 M141.1,29.9c4.2,1.9,8.2,4.2,11.9,7c1.9,1.4,3.6,3,5.1,4.8c0.8,0.9,1.5,1.9,2,2.9c0.6,1.1,1.1,2.1,1.2,3.5l-0.8-0.4
				c1.6-1.3,2.8-2.9,3.7-4.8c0.9-1.8,1.6-3.8,2-5.8c0.5-2,0.7-4.1,0.9-6.2c0.1-2.1,0.1-4.2-0.2-6.2l0.3,0.2
				c-2.1,0.6-4.3,1.5-6.4,2.3c-2.1,0.8-4.2,1.6-6.4,2.4c-2.2,0.7-4.4,1.2-6.7,1.3C145.5,31,143.2,30.8,141.1,29.9L141.1,29.9z"/>
		</g>
	</g>
	<g>
		<path class="st14" d="M75.5,25.3c0,0-5.8,2-14.5-1.8C52.3,19.7,49.5,19,49.5,19S47.1,35.7,55,42.6C55,42.6,55.4,34.7,75.5,25.3z"
			/>
		<g>
			<path d="M75.5,25.3c-2.2,0.7-4.5,0.8-6.8,0.6c-2.3-0.2-4.5-0.8-6.7-1.6c-2.1-0.8-4.2-1.8-6.3-2.6c-2.1-0.9-4.2-1.8-6.3-2.5
				l0.3-0.2c-0.3,2.1-0.4,4.1-0.4,6.2c0,2.1,0.2,4.2,0.6,6.2c0.4,2,1,4,1.8,5.9c0.9,1.9,2,3.6,3.5,4.9l-0.8,0.3
				c0.2-1.4,0.7-2.4,1.3-3.4c0.6-1,1.4-1.9,2.2-2.8c1.6-1.7,3.4-3.3,5.3-4.6C67,29.1,71.2,27,75.5,25.3L75.5,25.3z M75.5,25.3
				c-4.1,2.2-8.1,4.5-11.7,7.2c-1.8,1.4-3.5,2.9-5.1,4.5c-0.8,0.8-1.4,1.7-2,2.7c-0.6,0.9-1.1,2-1.2,2.9l-0.1,1L54.6,43
				c-1.6-1.5-2.8-3.3-3.6-5.3c-0.8-2-1.3-4.1-1.6-6.1c-0.3-2.1-0.4-4.2-0.4-6.3c0-2.1,0.1-4.2,0.3-6.3l0-0.2l0.2,0.1
				c2.2,0.6,4.3,1.4,6.5,2.2c2.1,0.8,4.2,1.7,6.3,2.6c2.1,0.8,4.2,1.4,6.5,1.8C71,25.6,73.2,25.7,75.5,25.3l0.3-0.2L75.5,25.3z"/>
		</g>
	</g>
	<g>
		<path d="M90.3,51.5c-2.5-0.8-5.1-1.4-7.7-1.8c-2.6-0.4-5.2-0.7-7.9-0.8c-5.3-0.2-10.5,0.1-15.7,1c-5.2,0.8-10.3,2.3-15.2,4.2
			c-4.9,1.9-9.7,4.3-14.2,7c2.2-1.5,4.4-2.9,6.7-4.2c2.3-1.3,4.7-2.4,7.2-3.5c4.9-2.1,10.1-3.6,15.3-4.5c5.3-0.9,10.6-1.2,15.9-0.8
			C80.1,48.6,85.4,49.5,90.3,51.5z"/>
	</g>
	<g>
		<path d="M92.2,53.5c-2.3,0-4.6,0.1-6.9,0.2c-2.3,0.1-4.6,0.3-6.8,0.5c-4.6,0.5-9.1,1.1-13.5,2.1c-4.5,1-8.8,2.3-12.9,4.3
			c-2,1-4,2.2-5.7,3.6c-1.8,1.4-3.3,3.1-4.5,5.1c1-2.1,2.5-3.9,4.2-5.4c1.7-1.6,3.7-2.8,5.7-4c4.1-2.2,8.6-3.6,13-4.6
			c4.5-1,9.1-1.6,13.7-1.9C83,53.2,87.6,53.2,92.2,53.5z"/>
	</g>
	<g>
		<path d="M88.6,56c-2.4,0-4.8,0.3-7.2,0.8c-2.4,0.5-4.7,1.1-7,2c-4.5,1.6-8.9,3.7-12.9,6.3c-4.1,2.5-7.9,5.5-11.5,8.7
			c-1.8,1.6-3.5,3.3-5.2,5c-1.7,1.7-3.3,3.5-4.9,5.4c2.9-3.9,6.1-7.6,9.6-11c3.5-3.4,7.4-6.4,11.5-9c4.2-2.6,8.6-4.7,13.2-6.2
			C78.9,56.6,83.8,55.6,88.6,56z"/>
	</g>
	<g>
		<path d="M123.8,53.3c5.2-1.2,10.6-1.3,15.9-0.8c5.3,0.5,10.6,1.7,15.6,3.4c5,1.8,9.9,4.1,14.4,6.9c2.3,1.4,4.4,3,6.5,4.6
			c2.1,1.7,4.1,3.4,6,5.3c-4.1-3.4-8.3-6.5-12.9-9.2c-4.5-2.7-9.3-4.9-14.3-6.6c-5-1.8-10.1-2.9-15.4-3.5c-2.6-0.3-5.3-0.5-7.9-0.5
			C129,52.8,126.4,52.9,123.8,53.3z"/>
	</g>
	<g>
		<path d="M121.6,55c4.6,0.4,9.1,1.2,13.6,2.2c4.5,1,8.9,2.4,13.2,4.1c4.3,1.8,8.4,3.9,12.1,6.7c1.8,1.4,3.5,3,5,4.8
			c1.4,1.8,2.6,3.9,3.3,6.1c-0.9-2.1-2.1-4.1-3.7-5.7c-1.5-1.7-3.2-3.2-5.1-4.5c-3.7-2.6-7.8-4.7-12-6.4c-4.2-1.7-8.6-3.1-13-4.3
			c-2.2-0.6-4.4-1.1-6.7-1.6C126.1,55.8,123.8,55.4,121.6,55z"/>
	</g>
	<g>
		<path d="M124.7,58c4.9,0.4,9.5,2.2,13.9,4.4c4.4,2.2,8.4,5.1,12,8.3c3.6,3.3,6.9,6.9,9.9,10.8c2.9,3.9,5.5,8,7.7,12.4
			c-1.3-2.1-2.6-4.1-4-6.1c-1.4-2-2.8-3.9-4.3-5.8c-3-3.8-6.3-7.3-9.9-10.5c-3.6-3.2-7.5-6-11.7-8.4c-2.1-1.2-4.3-2.2-6.5-3.1
			C129.4,59.1,127.1,58.4,124.7,58z"/>
	</g>
	<g>
		<g>
			<path d="M164.5,40.6c0.8,1.6,1.6,3.1,2.6,4.4c1,1.3,2.2,2.3,3.7,2.8c1.4,0.5,3,0.5,4.6,0.1c1.6-0.3,3.2-0.9,4.9-1.5
				c-1.2,1.3-2.8,2.4-4.5,3c-1.7,0.7-3.8,0.9-5.7,0.3c-1.9-0.7-3.4-2.2-4.3-3.8C165,44.3,164.5,42.5,164.5,40.6z"/>
		</g>
		<g>
			<path d="M156.5,45.6c1.6,0.4,3.1,1.2,4.5,2.3c1.3,1,2.6,2.3,3.2,4.1c0.3,0.9,0.5,1.8,0.4,2.8c-0.1,1-0.5,1.9-1,2.6
				c-1.1,1.5-2.5,2.4-4.1,3c1.1-1.2,2.1-2.5,2.7-3.8c0.6-1.3,0.6-2.6,0.1-3.9c-0.5-1.3-1.4-2.5-2.4-3.7
				C158.9,47.9,157.7,46.8,156.5,45.6z"/>
		</g>
		<g>
			<path d="M171.9,64.9c-1.4-1.3-2.5-2.8-3.3-4.6c-0.4-0.9-0.6-2-0.5-3.1c0.1-1.1,0.8-2.3,1.7-3c0.9-0.7,2-1,3-1.1
				c1-0.1,2-0.2,2.9-0.1c1.9,0.2,3.7,0.6,5.5,1.4c-1.9,0.1-3.7,0.1-5.5,0.2c-1.7,0.1-3.5,0.4-4.7,1.2c-0.6,0.4-0.9,0.9-1,1.6
				c-0.2,0.7-0.1,1.5,0.1,2.4C170.5,61.4,171.2,63.1,171.9,64.9z"/>
		</g>
	</g>
	<g>
		<g>
			<path d="M142.3,37.2c0.6,0.9,1.2,1.7,1.8,2.3c0.6,0.7,1.2,1.1,1.9,1.3c0.7,0.2,1.5,0.3,2.4,0.1c0.9-0.1,1.8-0.4,2.9-0.5
				c-0.6,0.9-1.4,1.6-2.4,2c-1,0.5-2.3,0.7-3.5,0.2c-1.2-0.4-2.1-1.4-2.6-2.4C142.3,39.4,142.1,38.3,142.3,37.2z"/>
		</g>
		<g>
			<path d="M137.7,40.1c1,0.1,1.9,0.5,2.8,1c0.8,0.6,1.6,1.3,2,2.4c0.2,0.5,0.3,1.2,0.2,1.8c-0.1,0.6-0.3,1.2-0.7,1.6
				c-0.7,0.9-1.6,1.3-2.6,1.5c0.5-0.9,1-1.6,1.3-2.3c0.2-0.7,0.2-1.3,0-1.9c-0.2-0.6-0.7-1.3-1.2-2
				C138.9,41.6,138.3,40.9,137.7,40.1z"/>
		</g>
		<g>
			<path d="M146.4,50.9c-0.9-0.6-1.7-1.5-2.2-2.5c-0.2-0.5-0.4-1.2-0.3-1.9c0.1-0.7,0.5-1.5,1.1-2c0.6-0.4,1.3-0.6,1.9-0.7
				c0.6-0.1,1.2-0.1,1.7,0c1.1,0.2,2.1,0.5,3.1,1.1c-1.1,0.2-2.1,0.3-3.1,0.5c-1,0.1-1.9,0.3-2.4,0.7c-0.2,0.2-0.4,0.3-0.4,0.6
				c-0.1,0.3-0.1,0.7,0,1.2C145.9,48.9,146.2,49.9,146.4,50.9z"/>
		</g>
	</g>
</g>
<g>
	<path class="st7" d="M185.3,177c0.4-1.2,0.7-2.4,0.8-3.7c0.8-8.5-4.6-16-12.1-16.7c-2.4-0.2-4.7,0.3-6.8,1.3
		c-2.9-3.1-6.7-5.1-11-5.5c-9.5-0.9-18.1,6.2-20.4,16.3c-2.9-3-6.6-4.9-10.9-5.4c-8.3-0.8-16,4.6-19.3,12.7
		c-1.7-8.7-8.2-15.4-16.5-16.3c-5-0.5-9.7,1.3-13.4,4.5c-1.6-2.5-4.1-4.2-7-4.5c-2.3-0.2-4.6,0.5-6.4,1.8c-3.6-3.6-8.2-6-13.4-6.5
		c-13.1-1.3-25,9.7-26.4,24.5c-1.5,14.8,8,27.9,21.1,29.2c8.4,0.8,16.2-3.4,21.2-10.3c-0.2,0.6-0.3,1.3-0.4,2
		c-0.6,6.1,3.3,11.5,8.7,12c5.4,0.5,10.3-4,10.9-10.1c0,0,0,0,0-0.1c0.1,0,0.1,0,0.2,0c0.6,4.9,4.1,8.8,8.7,9.3
		c5.4,0.5,10.3-4,10.9-10.1c0.2-1.6,0-3.2-0.4-4.6c0.9-0.6,1.8-1.3,2.5-2.1c1.1,2.3,2.5,4.4,4.2,6.1c-0.4,11.2,6.9,20.8,16.9,21.7
		c6.1,0.6,11.9-2.2,15.8-6.9c0.1,0,0.1,0,0.2,0c0.8,0.1,1.6,0.1,2.3,0.1c2.2,3.5,5.7,5.9,9.8,6.3c5.5,0.5,10.5-2.6,13.2-7.6
		c2.8,2.6,6.3,4.4,10.3,4.8c10.4,1,19.9-7.7,21-19.5C200.5,189,194.3,179.4,185.3,177z M67.5,193.3c0.6-1.4,1.1-2.9,1.5-4.4
		c0.3,0.9,0.6,1.7,1,2.5C69.1,191.9,68.2,192.5,67.5,193.3z"/>
	<g>
		<path d="M185.2,177c0.9-2.7,1-5.5,0.6-8.3c-0.5-2.7-1.7-5.4-3.5-7.5c-1.8-2.1-4.3-3.6-7-4.2c-2.7-0.6-5.6-0.2-8,1.1l-0.2,0.1
			l-0.1-0.1c-2.3-2.4-5.3-4.3-8.6-5c-3.3-0.8-6.8-0.5-9.9,0.7c-3.1,1.2-5.9,3.3-8,6c-2.1,2.6-3.6,5.8-4.4,9l-0.2,0.7l-0.5-0.5
			c-2.1-2.2-4.8-3.8-7.7-4.7c-2.9-0.8-6-0.8-9,0c-2.9,0.8-5.6,2.4-7.8,4.5c-2.2,2.1-3.9,4.7-5.1,7.5l-0.5,1.3l-0.3-1.4
			c-0.6-3.2-1.9-6.2-3.8-8.8c-1.9-2.6-4.5-4.7-7.4-6c-3-1.3-6.3-1.6-9.4-1.1c-3.2,0.6-6.1,2.1-8.6,4.2l-0.3,0.2l-0.2-0.3
			c-1.3-2.1-3.4-3.7-5.9-4.2c-1.2-0.3-2.5-0.2-3.7,0.1c-1.2,0.3-2.4,0.8-3.4,1.6l-0.2,0.1l-0.2-0.2c-3.5-3.5-8.1-5.9-13-6.4
			c-4.9-0.6-10,0.7-14.2,3.4c-4.2,2.7-7.5,6.6-9.6,11.1c-2.1,4.5-3,9.5-2.7,14.5c0.3,5,1.8,9.8,4.6,14c2.7,4.1,6.7,7.4,11.4,9.1
			c4.6,1.7,9.9,1.6,14.5-0.1c4.6-1.7,8.6-5,11.4-9l1.2-1.7l-0.5,2c-0.7,2.7-0.5,5.8,0.8,8.3c1.2,2.5,3.6,4.5,6.3,5.1
			c2.7,0.6,5.7-0.3,7.7-2.2c2.1-1.9,3.4-4.6,3.6-7.4l0-0.5l0.5,0.1l0.2,0l0.3,0.1l0,0.3c0.3,2.8,1.7,5.4,3.9,7.1
			c2.2,1.7,5.2,2.2,7.8,1.3c2.6-0.9,4.8-3,5.9-5.5c1.2-2.5,1.4-5.5,0.6-8.2l-0.1-0.3l0.3-0.2c0.9-0.5,1.7-1.2,2.4-2l0.5-0.5l0.3,0.7
			c0.3,0.5,0.5,1.1,0.8,1.6c0.3,0.5,0.6,1,1,1.5c0.3,0.5,0.7,1,1.1,1.4c0.4,0.5,0.8,0.9,1.2,1.3l0.1,0.2l0,0.2
			c-0.1,3.9,0.7,7.9,2.5,11.4c1.8,3.5,4.7,6.4,8.2,8.2c3.5,1.7,7.6,2.2,11.4,1.2c3.8-1,7.2-3.3,9.7-6.3l0.2-0.2l0.3,0
			c0.4,0.1,0.8,0.1,1.2,0.1c0.4,0,0.8,0,1.2,0l0.3,0l0.1,0.2c1.2,1.9,2.9,3.6,4.8,4.7c2,1.1,4.3,1.6,6.5,1.5c2.3-0.1,4.5-1,6.3-2.3
			c1.9-1.3,3.4-3.1,4.5-5.1l0.2-0.4l0.4,0.3c2.1,2,4.8,3.5,7.7,4.3c2.9,0.7,5.9,0.7,8.8-0.2c5.7-1.7,10.4-6.3,12.6-11.8
			c2.3-5.5,2.5-11.9,0.4-17.5c-1.1-2.8-2.7-5.4-4.9-7.5C190.9,179.4,188.2,177.9,185.2,177L185.2,177L185.2,177z M185.3,177
			c2.9,0.7,5.6,2.3,7.8,4.4c2.2,2.1,3.9,4.7,5,7.5c2.3,5.7,2.1,12.2-0.2,17.8c-2.3,5.6-7,10.4-12.9,12.2c-2.9,0.9-6.1,1-9.1,0.2
			c-3-0.7-5.8-2.3-8-4.4l0.6-0.1c-1.1,2.1-2.7,4-4.7,5.4c-2,1.4-4.3,2.3-6.8,2.5c-2.4,0.2-4.9-0.4-7.1-1.5c-2.1-1.2-3.9-2.9-5.2-5
			l0.4,0.2c-0.4,0-0.9,0-1.3,0c-0.5,0-0.8,0-1.3-0.1l0.4-0.2c-2.6,3.2-6.2,5.6-10.2,6.6c-4,1-8.4,0.6-12.1-1.3
			c-3.7-1.8-6.7-5-8.6-8.6c-1.9-3.6-2.8-7.8-2.6-11.9l0.1,0.4c-0.4-0.5-0.9-0.9-1.3-1.4c-0.4-0.5-0.8-1-1.2-1.5
			c-0.4-0.5-0.7-1.1-1-1.6c-0.3-0.6-0.6-1.1-0.9-1.7l0.8,0.1c-0.7,0.9-1.6,1.6-2.6,2.2l0.2-0.5c0.8,2.9,0.6,6.1-0.7,8.8
			c-1.2,2.7-3.6,5.1-6.5,6c-2.9,1-6.3,0.4-8.7-1.5c-2.4-1.9-3.9-4.8-4.3-7.8l0.4,0.4l-0.2,0l0.5-0.4c-0.3,3-1.6,6-3.9,8
			c-1.1,1-2.5,1.8-4,2.2c-1.5,0.4-3,0.5-4.6,0.2c-3-0.6-5.5-2.9-6.9-5.6c-1.3-2.7-1.6-5.9-0.8-8.8l0.7,0.3c-2.9,4.1-7,7.4-11.8,9.2
			c-4.8,1.8-10.1,1.8-14.9,0c-4.8-1.7-8.8-5.1-11.6-9.3c-2.8-4.2-4.3-9.2-4.6-14.2c-0.3-5,0.7-10.1,2.8-14.6
			c2.2-4.5,5.5-8.6,9.7-11.3c4.2-2.7,9.4-4.1,14.4-3.5c5,0.5,9.8,2.9,13.4,6.5l-0.4,0c2.1-1.6,4.9-2.3,7.5-1.8
			c1.3,0.3,2.5,0.8,3.6,1.6c1.1,0.8,2,1.8,2.7,2.9l-0.5-0.1c2.5-2.2,5.6-3.8,8.9-4.4c3.3-0.6,6.8-0.2,9.9,1.1
			c3.1,1.3,5.8,3.5,7.8,6.2c2,2.7,3.4,5.8,4,9.1l-0.8-0.1c1.2-2.9,3-5.6,5.3-7.8c2.3-2.2,5.1-3.8,8.2-4.7c3.1-0.8,6.4-0.8,9.4,0.1
			c3.1,0.9,5.8,2.6,8,4.9l-0.6,0.2c0.8-3.4,2.4-6.6,4.6-9.3c2.2-2.7,5.1-4.9,8.3-6.1c3.3-1.3,6.9-1.5,10.3-0.7
			c3.4,0.8,6.5,2.7,8.9,5.2l-0.3-0.1c2.6-1.3,5.6-1.7,8.4-1.1c2.8,0.6,5.3,2.2,7.2,4.4c1.8,2.2,3,4.9,3.5,7.7
			C186.5,171.5,186.2,174.3,185.3,177z"/>
		<path d="M67.4,193.3c0-0.4,0.1-0.8,0.1-1.2c0.1-0.4,0.2-0.7,0.3-1.1c0.1-0.4,0.4-0.7,0.6-1c0.2-0.3,0.3-0.7,0.4-1.1l0.1-0.6
			l0.3,0.5c0.2,0.4,0.5,0.8,0.7,1.2l0.6,1.2l0.2,0.4l-0.5,0.3c-0.4,0.2-0.9,0.5-1.3,0.7C68.5,192.8,68,193.1,67.4,193.3L67.4,193.3
			L67.4,193.3z M67.3,193.5l0.1-0.2c0.5-1,1.3-1.8,2.2-2.3l-0.2,0.7c-0.2-0.4-0.3-0.9-0.4-1.3c-0.1-0.4-0.1-0.9-0.2-1.4l0.3,0
			c-0.1,0.4-0.2,0.7-0.3,1.1c0,0.4,0,0.8-0.2,1.2c-0.2,0.7-0.6,1.5-1.2,2L67.3,193.5z"/>
	</g>
</g>
<path class="st2" d="M159.5,195.4c-4.2,16.3-21.2,6.9-28-2.7c0.9,3.9-4.2,3.4-3.3,7.4c-11.8,2.7-26.6-3.9-29.2-17
	c-2.6,13.9-18.9,9.7-26.1,3.9c-2.3-2.8-4.3-8.1-2.6-13.1c-7,18.6-27.3,16.6-40.6,7.6c-2.8-2-4.9-4.4-6.6-7.2c-0.6,1.9-1,3.8-1.2,5.8
	c-1.5,14.8,8,27.9,21.1,29.2c8.4,0.8,16.2-3.4,21.2-10.3c-0.2,0.6-0.3,1.3-0.4,2c-0.6,6.1,3.3,11.5,8.7,12c5.4,0.5,10.3-4,10.9-10.1
	c0,0,0,0,0-0.1c0.1,0,0.1,0,0.2,0c0.6,4.9,4.1,8.8,8.7,9.3c5.4,0.5,10.3-4,10.9-10.1c0.2-1.6,0-3.2-0.4-4.6c0.9-0.6,1.8-1.3,2.5-2.1
	c1.1,2.3,2.5,4.4,4.2,6.1c-0.4,11.2,6.9,20.8,16.9,21.7c6.1,0.6,11.9-2.2,15.8-6.9c0.1,0,0.1,0,0.2,0c0.8,0.1,1.6,0.1,2.3,0.1
	c2.2,3.5,5.7,5.9,9.8,6.3c5.5,0.5,10.5-2.6,13.2-7.6c2.8,2.6,6.3,4.4,10.3,4.8c9.6,0.9,18.4-6.4,20.6-16.8
	C184.7,208.3,169.8,208.9,159.5,195.4z M67.3,193.7c0.6-1.4,1.1-2.8,1.5-4.4c0.3,0.9,0.6,1.7,1,2.5C68.9,192.3,68,193,67.3,193.7z"
	/>
<g>
	<g>
		<circle class="st7" cx="56.4" cy="132.9" r="3.1"/>
		<path d="M59.4,133.5c-0.2,0.8-0.5,1.6-1.2,2.2c-0.7,0.6-1.7,0.9-2.6,0.6c-0.9-0.2-1.6-0.9-2-1.6c-0.4-0.7-0.7-1.6-0.6-2.5
			c0.1-1.8,2.1-3.3,4-2.9c0.9,0.2,1.8,0.8,2.1,1.6C59.6,131.8,59.6,132.7,59.4,133.5z M59.3,133.5c0.2-0.8-0.2-1.6-0.7-2.1
			c-0.5-0.5-1.1-0.8-1.8-1c-0.6-0.1-1.3,0-1.9,0.3c-0.6,0.4-1.1,0.9-1.3,1.6c-0.2,0.7-0.1,1.5,0.3,2.2c0.5,0.6,1.2,0.9,1.9,1
			c0.7,0.1,1.4,0,2-0.3C58.6,134.9,59.2,134.3,59.3,133.5z"/>
	</g>
	<g>
		<circle class="st7" cx="30.1" cy="171.3" r="6.4"/>
		<path d="M36.5,172.5c-0.3,1.6-1.2,3.2-2.6,4.3c-1.4,1.1-3.3,1.5-5.1,1.1c-1.8-0.4-3.2-1.6-4.1-3c-0.9-1.4-1.4-3.2-1.1-4.9
			c0.2-1.7,1.2-3.4,2.7-4.4c1.5-1,3.4-1.5,5.2-1.1c1.8,0.4,3.4,1.5,4.3,3C36.6,169.1,36.8,170.9,36.5,172.5z M36.4,172.5
			c0.3-1.6-0.2-3.4-1.2-4.6c-1-1.2-2.4-2.1-3.9-2.4c-1.5-0.3-3.1,0-4.4,0.8c-1.3,0.8-2.3,2.2-2.7,3.7c-0.4,1.6-0.1,3.3,0.8,4.7
			c0.9,1.3,2.5,2.2,4,2.4c1.6,0.2,3.1,0,4.5-0.8C34.9,175.5,36.1,174.1,36.4,172.5z"/>
	</g>
	<g>
		<circle class="st7" cx="36.5" cy="149.1" r="8.3"/>
		<path d="M44.7,150.7c-0.4,2.1-1.6,4.2-3.4,5.5c-1.8,1.4-4.2,1.9-6.4,1.4c-2.2-0.5-4.1-2-5.3-3.8c-1.2-1.8-1.7-4.1-1.4-6.3
			c0.3-2.2,1.6-4.3,3.5-5.6c1.9-1.3,4.3-1.9,6.6-1.4c2.3,0.4,4.3,1.9,5.4,3.8C44.8,146.3,45.1,148.6,44.7,150.7z M44.6,150.7
			c0.4-2.1-0.2-4.4-1.5-6c-1.3-1.6-3.1-2.8-5.1-3.1c-2-0.4-4.1,0-5.8,1.1c-1.7,1.1-3,2.9-3.5,4.9c-0.5,2-0.1,4.3,1.1,6
			c1.2,1.8,3.2,2.9,5.2,3.2c2,0.3,4.1-0.1,5.9-1.1C42.8,154.7,44.2,152.8,44.6,150.7z"/>
	</g>
	<g>
		<circle class="st7" cx="41.4" cy="202.6" r="13.3"/>
		<path d="M54.5,205.1c-0.7,3.4-2.6,6.6-5.5,8.7c-1.4,1-3.1,1.8-4.9,2.2c-1.8,0.4-3.6,0.3-5.4,0c-1.8-0.4-3.4-1.1-4.9-2.1
			c-1.5-1-2.7-2.3-3.7-3.8c-1.9-2.9-2.8-6.6-2.1-10.1c0.6-3.5,2.6-6.8,5.6-8.8c3-2.1,6.8-2.9,10.3-2.1c3.6,0.7,6.8,2.9,8.7,5.9
			C54.6,198,55.2,201.7,54.5,205.1z M54.4,205.1c0.7-3.4-0.2-7.1-2.2-9.8c-2-2.7-5-4.7-8.3-5.3c-3.3-0.6-6.8,0-9.6,1.9
			c-2.8,1.8-4.9,4.8-5.6,8.2c-0.8,3.3-0.1,7,1.9,9.8c1.9,2.9,5.1,4.8,8.4,5.3c3.3,0.6,6.8-0.1,9.7-1.9
			C51.6,211.6,53.8,208.6,54.4,205.1z"/>
	</g>
	<g>
		<circle class="st7" cx="78.2" cy="188.2" r="7"/>
		<path d="M85.1,189.5c-0.4,1.8-1.3,3.5-2.8,4.7c-1.5,1.2-3.6,1.7-5.5,1.2c-1.9-0.4-3.5-1.7-4.5-3.3c-1-1.6-1.5-3.5-1.2-5.4
			c0.3-1.9,1.4-3.7,3-4.8c1.6-1.1,3.7-1.6,5.6-1.2c1.9,0.4,3.7,1.6,4.6,3.3C85.3,185.8,85.5,187.7,85.1,189.5z M85,189.5
			c0.4-1.8-0.2-3.7-1.3-5.1c-1.1-1.4-2.6-2.3-4.3-2.6c-1.7-0.3-3.4,0-4.9,0.9c-1.4,0.9-2.5,2.4-3,4.1c-0.4,1.7-0.1,3.6,0.9,5.1
			c1,1.5,2.7,2.4,4.4,2.6c1.7,0.3,3.5-0.1,5-0.9C83.5,192.9,84.7,191.3,85,189.5z"/>
	</g>
	<g>
		<circle class="st7" cx="112.6" cy="194.2" r="11"/>
		<path d="M123.4,196.3c-0.6,2.8-2.1,5.5-4.5,7.3c-1.2,0.9-2.6,1.5-4,1.8c-1.5,0.3-3,0.3-4.5,0c-2.9-0.6-5.5-2.5-7.1-5
			c-1.6-2.4-2.3-5.5-1.8-8.4c0.5-2.9,2.2-5.7,4.7-7.4c2.5-1.7,5.6-2.4,8.6-1.8c3,0.6,5.7,2.4,7.2,5
			C123.5,190.4,124,193.5,123.4,196.3z M123.3,196.3c0.6-2.8-0.2-5.8-1.9-8.1c-1.7-2.2-4.1-3.8-6.8-4.3c-2.7-0.5-5.6,0-7.9,1.5
			c-2.3,1.5-4,3.9-4.6,6.7c-0.6,2.7-0.1,5.8,1.5,8.1c1.6,2.4,4.2,3.9,6.9,4.3c2.7,0.5,5.6-0.1,8-1.5
			C120.9,201.6,122.8,199.1,123.3,196.3z"/>
	</g>
	<g>
		<circle class="st7" cx="59.4" cy="165.4" r="4.8"/>
		<path d="M64.2,166.4c-0.3,1.2-0.9,2.5-1.9,3.3c-1,0.9-2.5,1.2-3.9,0.9c-1.3-0.3-2.4-1.3-3.1-2.4c-0.7-1.1-1-2.4-0.9-3.8
			c0.1-1.3,0.9-2.6,2-3.4c1.1-0.8,2.6-1.2,4-0.9c1.3,0.3,2.6,1.2,3.2,2.4C64.3,163.8,64.4,165.1,64.2,166.4z M64.1,166.4
			c0.3-1.2-0.2-2.5-1-3.4c-0.8-0.9-1.8-1.5-2.9-1.7c-1.1-0.2-2.3,0-3.2,0.6c-1,0.6-1.7,1.6-2,2.7c-0.3,1.1-0.1,2.5,0.6,3.5
			c0.7,1,1.9,1.6,3,1.7c1.1,0.2,2.3,0,3.4-0.6C62.9,168.6,63.9,167.6,64.1,166.4z"/>
	</g>
	<g>
		<path class="st7" d="M99.7,202c-1.2-0.2-2.3-0.1-3.4,0.2c-0.4-0.2-0.9-0.3-1.3-0.4c-3.6-0.7-7.1,1.6-7.8,5.2
			c-0.7,3.6,1.6,7.1,5.2,7.8c1.3,0.3,2.6,0.1,3.7-0.3c0.3,0.1,0.7,0.2,1,0.3c3.5,0.7,7-1.6,7.6-5.1S103.3,202.7,99.7,202z"/>
		<path d="M99.7,202c-1.1-0.2-2.3-0.1-3.3,0.3l0,0l-0.1,0c-2-0.7-4.2-0.3-5.9,0.8c-1.7,1.1-2.9,3-3,5.1c-0.2,2.1,0.9,4.2,2.7,5.4
			c0.9,0.6,1.9,0.9,2.9,1c1,0.1,2.1-0.1,3-0.5l0.1-0.1l0.2,0.1c1.6,0.6,3.4,0.4,4.8-0.4c1.5-0.8,2.6-2.1,3.1-3.7
			c0.5-1.6,0.3-3.4-0.5-4.9C103,203.6,101.5,202.4,99.7,202z M99.7,201.9c1.8,0.3,3.4,1.3,4.5,2.9c1.1,1.5,1.5,3.6,1,5.5
			c-0.5,1.9-1.8,3.5-3.6,4.4c-1.7,0.9-3.9,1-5.6,0.2l0.3,0c-1.1,0.4-2.2,0.5-3.4,0.3c-1.1-0.2-2.2-0.6-3.1-1.3
			c-1.8-1.3-2.9-3.4-3-5.7c0-1.1,0.2-2.3,0.7-3.3c0.5-1,1.3-1.9,2.3-2.5c1.9-1.3,4.5-1.3,6.5-0.3l-0.1,0c0.6-0.2,1.1-0.3,1.7-0.3
			C98.6,201.8,99.2,201.8,99.7,201.9z"/>
	</g>
	<g>
		<circle class="st7" cx="152.6" cy="213.2" r="7"/>
		<path d="M159.5,214.6c-0.4,1.8-1.3,3.5-2.8,4.7c-1.5,1.2-3.6,1.7-5.5,1.2c-1.9-0.4-3.5-1.7-4.5-3.3c-1-1.6-1.5-3.5-1.2-5.4
			c0.3-1.9,1.3-3.7,3-4.8c1.6-1.1,3.7-1.6,5.6-1.2c1.9,0.4,3.7,1.6,4.6,3.3C159.7,210.8,159.9,212.8,159.5,214.6z M159.4,214.5
			c0.4-1.8-0.2-3.7-1.3-5c-1.1-1.4-2.6-2.3-4.3-2.6c-1.7-0.3-3.4,0-4.9,0.9c-1.4,0.9-2.5,2.4-3,4.1c-0.4,1.7-0.1,3.6,0.9,5.1
			c1,1.5,2.7,2.4,4.4,2.6c1.7,0.3,3.5-0.1,5-0.9C157.9,217.9,159.1,216.4,159.4,214.5z"/>
	</g>
	<g>
		<circle class="st7" cx="127.7" cy="178.2" r="8.1"/>
		<path d="M135.6,179.8c-0.4,2.1-1.5,4.1-3.3,5.4c-1.7,1.4-4.1,1.9-6.3,1.4c-2.2-0.5-4-1.9-5.2-3.7c-1.2-1.8-1.7-4-1.4-6.2
			c0.3-2.1,1.6-4.2,3.4-5.5c1.8-1.3,4.2-1.8,6.4-1.4c2.2,0.4,4.2,1.8,5.3,3.7C135.8,175.5,136,177.7,135.6,179.8z M135.5,179.8
			c0.4-2.1-0.2-4.3-1.4-5.8c-1.3-1.6-3-2.7-5-3.1c-1.9-0.4-4,0-5.7,1.1c-1.7,1.1-2.9,2.8-3.4,4.8c-0.5,2-0.1,4.2,1.1,5.9
			c1.2,1.7,3.1,2.8,5.1,3.1c2,0.3,4-0.1,5.8-1.1C133.7,183.6,135.1,181.9,135.5,179.8z"/>
	</g>
	<g>
		<circle class="st7" cx="154.3" cy="187.6" r="5.4"/>
		<path d="M159.6,188.6c-0.3,1.4-1,2.7-2.1,3.7c-1.2,1-2.8,1.3-4.3,1c-1.5-0.4-2.7-1.4-3.5-2.6c-0.8-1.2-1.2-2.7-0.9-4.2
			c0.2-1.5,1-2.9,2.3-3.8c1.2-0.9,2.9-1.3,4.4-0.9c1.5,0.3,2.9,1.3,3.6,2.6C159.7,185.8,159.9,187.3,159.6,188.6z M159.5,188.6
			c0.3-1.4-0.2-2.8-1-3.8c-0.9-1-2-1.7-3.3-1.9c-1.2-0.2-2.6,0-3.6,0.7c-1.1,0.7-1.9,1.8-2.3,3.1c-0.4,1.3-0.1,2.8,0.7,3.9
			c0.8,1.1,2.1,1.8,3.4,2c1.3,0.2,2.6,0,3.8-0.7C158.3,191.2,159.2,190,159.5,188.6z"/>
	</g>
	<g>
		<circle class="st7" cx="173.8" cy="191.3" r="12"/>
		<path d="M185.6,193.6c-0.6,3.1-2.3,6-5,7.9c-1.3,1-2.8,1.7-4.4,2c-1.6,0.3-3.3,0.3-4.9,0c-1.6-0.3-3.1-1-4.4-2
			c-1.3-0.9-2.4-2.1-3.3-3.4c-1.7-2.7-2.5-6-1.9-9.2c0.5-3.2,2.4-6.2,5.1-8c2.7-1.9,6.2-2.6,9.4-1.9c3.2,0.6,6.2,2.6,7.8,5.4
			C185.7,187.1,186.2,190.5,185.6,193.6z M185.5,193.6c0.6-3.1-0.2-6.4-2.1-8.8c-1.8-2.5-4.5-4.2-7.5-4.8c-3-0.6-6.1,0-8.7,1.7
			c-2.5,1.7-4.4,4.3-5.1,7.3c-0.7,3-0.1,6.3,1.7,8.9c1.7,2.6,4.6,4.3,7.6,4.8c3,0.5,6.1-0.1,8.8-1.7
			C182.9,199.4,184.9,196.7,185.5,193.6z"/>
	</g>
	<g>
		<circle class="st7" cx="188.8" cy="219.2" r="2.6"/>
		<path d="M191.4,219.7c-0.1,0.7-0.4,1.4-1,1.9c-0.6,0.6-1.5,0.8-2.2,0.5c-0.8-0.2-1.4-0.8-1.7-1.4c-0.4-0.6-0.6-1.3-0.5-2.1
			c0-1.6,1.8-2.9,3.4-2.5c0.8,0.2,1.5,0.7,1.8,1.4C191.6,218.3,191.6,219.1,191.4,219.7z M191.3,219.7c0.1-0.7-0.2-1.4-0.6-1.8
			c-0.5-0.4-1-0.7-1.5-0.8c-0.5-0.1-1.1,0-1.6,0.3c-0.5,0.3-0.9,0.7-1.1,1.3c-0.2,0.6-0.1,1.3,0.3,1.8c0.4,0.5,1,0.8,1.6,0.8
			c0.6,0,1.1,0,1.7-0.3C190.7,220.9,191.2,220.4,191.3,219.7z"/>
	</g>
	<g>
		<circle class="st7" cx="213" cy="195.1" r="10.3"/>
		<path d="M223.1,197c-0.5,2.6-2,5.1-4.2,6.8c-2.2,1.7-5.2,2.3-8,1.7c-2.7-0.6-5.1-2.4-6.6-4.7c-1.5-2.3-2.1-5.1-1.7-7.8
			c0.4-2.7,2-5.3,4.3-6.9c2.3-1.6,5.3-2.3,8.1-1.7c2.7,0.5,5.3,2.3,6.7,4.7C223.2,191.5,223.6,194.4,223.1,197z M223,197
			c0.5-2.6-0.2-5.4-1.8-7.5c-1.6-2.1-3.9-3.5-6.4-4c-2.5-0.5-5.2,0-7.3,1.4c-2.2,1.4-3.7,3.7-4.3,6.2c-0.6,2.5-0.1,5.4,1.4,7.6
			c1.5,2.2,3.9,3.6,6.5,4c2.5,0.4,5.2-0.1,7.4-1.4C220.8,202,222.5,199.7,223,197z"/>
	</g>
	<g>
		<circle class="st7" cx="206.1" cy="166.9" r="4.4"/>
		<path d="M210.5,167.8c-0.2,1.1-0.8,2.3-1.7,3.1c-0.9,0.8-2.3,1.1-3.6,0.8c-1.2-0.3-2.2-1.2-2.9-2.2c-0.6-1-1-2.2-0.8-3.5
			c0.1-1.2,0.8-2.4,1.9-3.2c1-0.7,2.4-1.1,3.7-0.8c1.3,0.3,2.4,1.1,3,2.2C210.7,165.4,210.7,166.6,210.5,167.8z M210.4,167.8
			c0.2-1.1-0.2-2.3-0.9-3.1c-0.7-0.8-1.6-1.4-2.6-1.5c-1-0.2-2.1,0-2.9,0.5c-0.9,0.5-1.6,1.4-1.9,2.5c-0.3,1-0.1,2.3,0.5,3.2
			c0.7,0.9,1.7,1.4,2.8,1.5c1,0.1,2.1,0,3.1-0.5C209.4,169.8,210.2,168.9,210.4,167.8z"/>
	</g>
	<g>
		<circle class="st7" cx="183.4" cy="152.4" r="7.2"/>
		<path d="M190.4,153.8c-0.4,1.8-1.3,3.6-2.9,4.8c-1.5,1.2-3.7,1.7-5.6,1.2c-2-0.4-3.6-1.7-4.6-3.3c-1.1-1.6-1.5-3.6-1.2-5.5
			c0.3-1.9,1.4-3.8,3-4.9c1.6-1.2,3.7-1.6,5.8-1.2c1.9,0.4,3.8,1.6,4.7,3.4C190.6,149.9,190.8,151.9,190.4,153.8z M190.3,153.8
			c0.4-1.8-0.2-3.8-1.3-5.2c-1.1-1.4-2.7-2.4-4.4-2.7c-1.7-0.3-3.5,0-5,1c-1.5,1-2.6,2.5-3,4.2c-0.4,1.7-0.1,3.7,1,5.2
			c1.1,1.5,2.8,2.5,4.5,2.7c1.8,0.3,3.6-0.1,5.1-0.9C188.7,157.2,190,155.6,190.3,153.8z"/>
	</g>
	<g>
		<circle class="st7" cx="183" cy="169.3" r="5.8"/>
		<path d="M188.7,170.4c-0.3,1.5-1.1,3-2.3,4c-1.3,1-3,1.4-4.6,1c-1.6-0.4-2.9-1.5-3.8-2.8c-0.9-1.3-1.2-2.9-1-4.5
			c0.2-1.6,1.1-3.1,2.5-4c1.3-1,3.1-1.4,4.7-1c1.6,0.3,3.1,1.4,3.9,2.8C188.9,167.3,189,169,188.7,170.4z M188.6,170.4
			c0.3-1.5-0.2-3.1-1.1-4.2c-0.9-1.1-2.2-1.9-3.5-2.1c-1.3-0.3-2.8,0-4,0.8c-1.2,0.8-2.1,2-2.5,3.4c-0.4,1.4-0.1,3,0.8,4.2
			c0.9,1.2,2.2,2,3.7,2.1c1.4,0.2,2.8,0,4.1-0.7C187.3,173.2,188.4,171.9,188.6,170.4z"/>
	</g>
	<g>
		<circle class="st7" cx="177.5" cy="131.1" r="3"/>
		<path d="M180.5,131.7c-0.2,0.8-0.5,1.6-1.2,2.2c-0.6,0.6-1.7,0.9-2.5,0.6c-0.9-0.2-1.6-0.9-2-1.6c-0.4-0.7-0.7-1.5-0.6-2.4
			c0.1-1.8,2-3.3,4-2.9c0.9,0.2,1.7,0.8,2.1,1.6C180.7,130,180.7,130.9,180.5,131.7z M180.4,131.7c0.2-0.8-0.2-1.6-0.7-2.1
			c-0.5-0.5-1.1-0.8-1.8-1c-0.6-0.1-1.3,0-1.9,0.3c-0.6,0.4-1,0.9-1.3,1.6c-0.2,0.7-0.1,1.5,0.3,2.1c0.5,0.6,1.2,0.9,1.9,1
			c0.7,0.1,1.4,0,2-0.3C179.7,133.1,180.3,132.5,180.4,131.7z"/>
	</g>
</g>
</svg>
