<?xml version="1.0" encoding="utf-8"?>
<!-- Generator: Adobe Illustrator 15.1.0, SVG Export Plug-In . SVG Version: 6.00 Build 0)  -->
<!DOCTYPE svg PUBLIC "-//W3C//DTD SVG 1.1//EN" "http://www.w3.org/Graphics/SVG/1.1/DTD/svg11.dtd">
<svg version="1.1" id="rat" xmlns="http://www.w3.org/2000/svg" xmlns:xlink="http://www.w3.org/1999/xlink" x="0px" y="0px"
	 width="480px" height="519px" viewBox="0 0 480 519" style="enable-background:new 0 0 480 519;" xml:space="preserve">
<style type="text/css">
<![CDATA[
	.st0{fill:#7AD7EE;}
	.st1{fill:#AF9777;}
	.st2{opacity:0.14;}
	.st3{opacity:0.18;}
	.st4{opacity:0.24;}
	.st5{opacity:0.25;}
	.st6{fill:#EDEDED;}
	.st7{opacity:0.38;fill:url(#SVGID_3_);}
	.st8{opacity:0.38;fill:url(#SVGID_4_);}
	.st9{opacity:0.45;fill:#FDACBD;}
	.st10{opacity:0.24;fill:#F69D01;}
	.st11{fill:#FCC581;}
	.st12{opacity:0.25;fill:#078D9E;}
	.st13{fill:#FFFFFF;}
	.st14{fill:none;stroke:#078D9E;stroke-miterlimit:10;}
	.st15{fill:#006283;}
	.st16{opacity:0.25;clip-path:url(#SVGID_2_);}
]]>
</style>
<g>
	
		<ellipse transform="matrix(0.9597 -0.2809 0.2809 0.9597 -112.0632 102.073)" class="st4" cx="300.1" cy="442" rx="152.3" ry="55.8"/>
	<g>
		<g>
			<path class="st0" d="M287.4,374.3c0,0,68.3-0.2,36.7-92.5c-31.6-92.3,14.6-118.6,62.4-103.2c22,7.1,32,19.5,32,19.5
				s-7.7,4.4-25.1-4.1c0,0-77.4-39.2-65.5,57.1c0,0,28.9,89.5,16.8,105.5c-12.1,16-51.1,50.3-71.5,28.7L287.4,374.3z"/>
			<g>
				<path d="M287.4,374.2c6.6-0.3,13.2-2,19.2-4.7c6-2.8,11.4-6.8,15.5-12c4.1-5.2,6.9-11.3,8.4-17.7c1.5-6.4,1.8-13.1,1.5-19.7
					c-0.8-13.2-4.2-26.2-8.5-38.7c-2.2-6.3-4.1-12.7-5.6-19.1c-1.6-6.5-2.8-13-3.6-19.6c-0.8-6.6-1.1-13.3-0.7-19.9
					c0.4-6.6,1.6-13.3,3.9-19.5c2.3-6.2,5.9-12.1,10.7-16.7c4.8-4.6,10.8-8,17.1-9.9c6.4-1.9,13.1-2.6,19.7-2.3
					c6.6,0.3,13.2,1.5,19.6,3.4c6.4,1.9,12.5,4.5,18.3,7.8c2.9,1.7,5.7,3.5,8.3,5.5c2.6,2,5.1,4.2,7.3,6.8l0.2,0.2l-0.3,0.1
					c-1.4,0.7-2.9,0.9-4.4,1.1c-1.5,0.1-3,0.1-4.5,0c-3-0.3-6-1-8.8-2c-2.9-1-5.6-2.2-8.3-3.5c-2.7-1.3-5.5-2.4-8.3-3.3
					c-5.7-1.9-11.5-3.3-17.5-3.9c-5.9-0.5-12-0.2-17.6,1.8c-2.8,1-5.4,2.4-7.8,4.2c-2.4,1.8-4.4,4-6.1,6.4
					c-3.4,4.9-5.4,10.6-6.6,16.4c-1.2,5.8-1.6,11.8-1.6,17.8c0,6,0.5,11.9,1.2,17.9l0-0.1c4.9,15.4,9.3,31,13,46.8
					c1.8,7.9,3.5,15.8,4.8,23.8c1.3,8,2.3,16.1,1.9,24.3c-0.1,2-0.3,4.1-0.8,6.1c-0.5,2-1.3,4-2.6,5.6c-2.5,3.2-5.3,6.2-8.1,9.1
					c-5.8,5.7-12,10.9-18.8,15.4c-3.4,2.2-6.9,4.3-10.6,6c-3.7,1.7-7.5,3.1-11.5,3.9c-4,0.8-8.2,0.9-12.1-0.2c-4-1-7.6-3.3-10.3-6.3
					l-0.1-0.1l0.1-0.1L287.4,374.2L287.4,374.2z M287.4,374.3l-14.2,11.1l0-0.2c2.8,2.9,6.3,5.1,10.2,6.1c3.9,1,8,0.9,11.9,0.1
					c3.9-0.8,7.7-2.2,11.4-3.9c3.6-1.7,7.1-3.8,10.5-6c6.7-4.5,12.9-9.7,18.6-15.4c2.8-2.9,5.6-5.8,8-9c1.3-1.5,2-3.3,2.5-5.3
					c0.5-1.9,0.7-3.9,0.8-5.9c0.2-4,0-8-0.4-12c-0.4-4-0.9-8-1.6-12c-1.3-8-3-15.9-4.8-23.7c-3.7-15.7-8.1-31.3-12.9-46.7l0,0l0,0
					c-0.7-6-1.2-12-1.2-18c0-6,0.4-12.1,1.6-18c1.2-5.9,3.3-11.7,6.8-16.7c1.8-2.5,3.9-4.7,6.3-6.5c2.4-1.8,5.2-3.2,8-4.2
					c5.8-2,11.9-2.3,17.9-1.7c6,0.6,11.9,2,17.6,4c2.8,1,5.6,2.1,8.4,3.4c2.7,1.3,5.4,2.5,8.3,3.5c2.8,0.9,5.7,1.7,8.7,2
					c1.5,0.1,3,0.2,4.4,0c1.5-0.1,3-0.4,4.2-1l-0.1,0.4c-2.1-2.5-4.6-4.7-7.2-6.7c-2.6-2-5.4-3.9-8.2-5.5
					c-5.7-3.3-11.9-5.9-18.2-7.8c-6.3-1.9-12.9-3.2-19.5-3.5c-6.6-0.3-13.3,0.3-19.6,2.3c-6.3,1.9-12.2,5.3-16.9,9.9
					c-4.7,4.6-8.2,10.4-10.5,16.6c-2.3,6.2-3.4,12.8-3.8,19.4c-0.4,6.6,0,13.2,0.8,19.8c1.6,13.1,5.1,26,9.3,38.5
					c4.3,12.6,7.6,25.6,8.3,38.9c0.3,6.6,0,13.4-1.6,19.9c-1.5,6.5-4.3,12.7-8.6,17.9c-4.2,5.2-9.7,9.3-15.8,12
					C300.6,372.5,294,374.1,287.4,374.3z"/>
			</g>
		</g>
		<path class="st12" d="M295,381.5c0,0-1.1-4.5-1.9-7.8c-3.5,0.6-5.8,0.6-5.8,0.6l-14.3,11.1c20.4,21.5,59.4-12.7,71.5-28.7
			c8.3-11-2.6-56.2-10.3-83.8C340.8,319.8,352.1,374.7,295,381.5z"/>
		<g>
			<defs>
				<path id="SVGID_1_" d="M287.4,374.3c0,0,68.3-0.2,36.7-92.5c-31.6-92.3,14.6-118.6,62.4-103.2c22,7.1,32,19.5,32,19.5
					s-7.7,4.4-25.1-4.1c0,0-77.4-39.2-65.5,57.1c0,0,28.9,89.5,16.8,105.5c-12.1,16-51.1,50.3-71.5,28.7L287.4,374.3z"/>
			</defs>
			<clipPath id="SVGID_2_">
				<use xlink:href="#SVGID_1_"  style="overflow:visible;"/>
			</clipPath>
			<g class="st16">
				<g>
					<path class="st14" d="M291,370.9c0,0-6.2,13.3,3.6,24.8"/>
					<path class="st14" d="M299.8,368.8c0,0-6.2,13.3,3.6,24.8"/>
					<path class="st14" d="M306.5,367c0,0-3.5,14.2,8.4,23.6"/>
					<path class="st14" d="M312.4,362.3c0,0-0.3,14.7,13.4,21.2"/>
					<path class="st14" d="M326.5,337.1c0,0,10.5,10.2,24.6,4.7"/>
					<path class="st14" d="M324.7,327.1c0,0,12.5,7.7,25-0.7"/>
					<path class="st14" d="M323.4,314.6c0,0,12.5,7.7,25-0.7"/>
					<path class="st14" d="M322,302.1c0,0,12.5,7.7,25-0.7"/>
					<path class="st14" d="M320.7,289.6c0,0,12.5,7.7,25-0.7"/>
					<path class="st14" d="M316.3,277.8c0,0,12.5,7.7,25-0.7"/>
					<path class="st14" d="M314.5,263.3c0,0,12.5,7.7,25-0.7"/>
					<path class="st14" d="M311,248.6c0,0,12.5,7.7,25-0.7"/>
					<path class="st14" d="M308.6,236c0,0,11.3,9.4,24.9,2.7"/>
					<path class="st14" d="M309.2,223.9c0,0,11.3,9.4,24.9,2.7"/>
					<path class="st14" d="M309.1,210.5c0,0,10.1,10.6,24.4,5.6"/>
					<path class="st14" d="M313.6,196.6c0,0,7.8,12.4,22.8,10.4"/>
					<path class="st14" d="M322.9,184.4c0,0,4.9,13.8,20,15.1"/>
					<path class="st14" d="M335.4,174.5c0,0,0.5,14.6,14.6,20.4"/>
					<path class="st14" d="M349.5,167.2c0,0-3.3,14.3,8.8,23.5"/>
					<path class="st14" d="M365.8,166.8c0,0-7.9,12.3,0.3,25"/>
					<path class="st14" d="M380,170c0,0-11.2,9.5-7,24"/>
					<path class="st14" d="M394.2,174.1c0,0-12.5,7.7-10.5,22.7"/>
					<path class="st14" d="M405,178.4c0,0-12.5,7.7-10.5,22.7"/>
					<path class="st14" d="M414.4,184.5c0,0-12.5,7.7-10.5,22.8"/>
					<path class="st14" d="M317.2,358.8c0,0,1.6,11.1,19,10.1"/>
					<path class="st14" d="M324.7,351c0,0,3.2,10.8,20.3,7.2"/>
				</g>
			</g>
		</g>
	</g>
	<g>
		<path class="st11" d="M320,219.5c-5.4-13.1-6-12-7.6-18.3c-10.8-41.5-55.1-51.6-104.1-39.9c-49,11.6-81.5,29.6-74,79.4
			c1.2,7.9,6.9,14.9,8.5,21.9c1.6,7-0.4,12.6,1,18.4c4.6,19.6,29.2,25.9,100.3,9.1c71.2-16.9,88-33.1,83.4-52.6
			C325.9,230.1,325.4,232.6,320,219.5z"/>
		<g>
			<path d="M320,219.6c-1.1-2.6-2.2-5.2-3.4-7.8c-1.2-2.6-2.6-5.1-3.5-7.8c-0.5-1.4-0.8-2.7-1.2-4.1c-0.4-1.4-0.8-2.7-1.3-4.1
				c-1-2.7-2.1-5.3-3.4-7.8c-2.7-5-6.2-9.6-10.3-13.4c-4.1-3.9-8.9-7.1-14-9.6c-10.2-5-21.6-7.2-32.8-7.7
				c-11.3-0.5-22.7,0.5-33.8,2.6c-5.6,1-11.1,2.4-16.6,3.8c-5.5,1.4-10.9,3.1-16.3,4.9c-10.7,3.7-21.2,8.5-30.1,15.5
				c-4.4,3.5-8.4,7.7-11.5,12.4c-3.1,4.7-5.3,10-6.6,15.6c-1.3,5.5-1.8,11.2-1.6,16.9c0.1,2.8,0.3,5.7,0.7,8.5
				c0.2,1.4,0.4,2.8,0.6,4.2c0.3,1.4,0.7,2.7,1.2,4c2,5.3,5.3,10.1,6.9,15.6c0.8,2.8,1,5.7,0.9,8.5c0,2.9-0.3,5.7,0,8.5
				c0.3,2.8,1.2,5.5,2.5,7.9c1.3,2.5,3.2,4.6,5.4,6.3c4.5,3.4,10.1,5,15.6,5.8c5.6,0.8,11.3,0.9,16.9,0.8c5.7-0.2,11.3-0.8,16.9-1.5
				c11.3-1.5,22.4-3.6,33.5-6.1c11.1-2.5,22.1-5.2,33.1-8.3c10.9-3.1,21.8-6.6,32.1-11.2c5.2-2.3,10.2-4.9,14.9-8.2
				c4.6-3.2,8.9-7.2,11.4-12.3c1.2-2.5,1.9-5.4,1.9-8.2c0.1-2.8-0.5-5.6-1.3-8.4c-0.7-2.8-2.3-5.2-3.5-7.7
				C322.2,224.8,321.1,222.2,320,219.6z M320.1,219.5c1.1,2.6,2.2,5.2,3.5,7.8c1.2,2.6,2.8,5,3.6,7.8c0.8,2.7,1.4,5.6,1.3,8.4
				c0,2.9-0.7,5.7-1.9,8.3c-2.4,5.2-6.8,9.3-11.4,12.6c-4.7,3.3-9.7,6-14.9,8.4c-10.4,4.7-21.2,8.3-32.1,11.5
				c-10.9,3.2-22,5.9-33.1,8.3c-11.1,2.4-22.3,4.6-33.6,6c-5.6,0.7-11.3,1.3-17,1.5c-5.7,0.2-11.4,0.1-17.1-0.8
				c-2.8-0.4-5.6-1.1-8.4-2c-2.7-0.9-5.3-2.2-7.7-4c-2.3-1.8-4.3-4-5.6-6.6c-1.4-2.6-2.2-5.4-2.5-8.3c-0.3-2.9,0-5.7,0-8.6
				c0.1-2.8-0.1-5.6-0.9-8.4c-1.6-5.4-4.8-10.2-6.8-15.6c-0.5-1.3-0.9-2.7-1.2-4.1c-0.3-1.4-0.4-2.8-0.6-4.2
				c-0.3-2.8-0.6-5.7-0.6-8.5c-0.1-5.7,0.3-11.4,1.7-17c1.3-5.5,3.6-10.9,6.8-15.6c3.1-4.8,7.1-9,11.5-12.5
				c8.9-7.2,19.4-12,30.1-15.8c5.4-1.9,10.8-3.5,16.3-5c5.5-1.5,11-2.8,16.6-3.9c11.2-2.1,22.6-3.3,34-2.7c11.4,0.6,22.8,2.9,33.1,8
				c5.1,2.5,9.9,5.8,14,9.8c4.1,3.9,7.6,8.6,10.2,13.6c1.3,2.5,2.5,5.1,3.4,7.8c0.5,1.3,0.9,2.7,1.3,4.1c0.4,1.4,0.7,2.8,1.2,4.1
				c0.9,2.7,2.3,5.2,3.4,7.8C317.9,214.3,319,216.9,320.1,219.5z"/>
		</g>
	</g>
	<path class="st10" d="M328.4,234.5c-1.5-1.8-3.6-4.3-6.3-11c-5.4-13.1-6-12-7.6-18.3c-1.4-5.3-3.3-10.1-5.8-14.4
		c-7-15.1-19.5-24.8-35.3-29.8c1,1.4,2,2.8,3,4.2c-18.5-6.1-41.7-5.7-66,0c-27.9,6.6-50.5,15.3-63.3,30.8
		c-5.1,6.2-8.7,13.5-10.5,22.1c-0.3-3-0.6-6.1-0.7-9.2c-2.8,8.9-3.4,19.3-1.5,31.8c1.2,7.9,6.9,14.9,8.5,21.9c1.6,7-0.4,12.6,1,18.4
		c3.2,13.6,16.1,20.8,47.6,18.3c-12.9-1.6-23.8-6.1-30.7-16.4c-8.7-12.7-16.3-28.6-20.8-46c-0.6-3.2-0.9-6.5-0.4-9.7
		c-0.5,5.6,3.8,8.3,5,13.5c-1.8-14.8,3.3-26.5,7-40.4c16.2,13,39.5,13.4,59.6,11.7c-4.7-4.4-9.4-8.8-15.4-11
		c13.8,4.1,31.2-0.1,44.5,9.6c2.6-4.3-2.1-8.7-1.2-12.6c15.8,20.1,36.3,6.1,54.9,7.2c-3.4-6.5-10.7-6.6-16.8-8.9
		c17.3-1,25.7,9.4,34.1,20.3c4.2,10.2,5.7,20.8,2.4,32.1c-2.5,12.8-12.9,20.8-24.8,28.3c33.7-12.5,42.1-25.2,38.7-39.7
		c-0.5-2-0.9-3.3-1.3-4.3C327,233.5,327.7,234,328.4,234.5z"/>
	<path d="M327.4,230.3c-1.5-1.8-3.6-4.3-6.3-11c-5.4-13.1-6-12-7.6-18.3c-10.8-41.5-55.1-51.6-104.1-39.9
		c-27.9,6.6-50.5,15.3-63.3,30.8c-9.7,11.7-13.9,27.2-10.6,48.6c0.9,5.9,4.3,11.3,6.7,16.5c3.1-11.3-5.4-22.7-3.4-34
		c-0.5,5.6,3.8,8.3,5,13.5c-1.8-14.8,3.3-26.5,7-40.4c16.2,13,39.5,13.4,59.6,11.8c-4.7-4.4-9.4-8.8-15.4-11
		c13.8,4.1,31.2-0.1,44.5,9.6c2.6-4.3-2.1-8.7-1.2-12.6c15.8,20.1,36.3,6.1,54.9,7.2c-3.4-6.5-10.7-6.6-16.8-8.9
		C304,190.4,308.8,218.3,327.4,230.3z"/>
	<path d="M283.8,221.7c0.7,1.1-3.5,4.8-9.3,8.3c-5.8,3.5-11,5.4-11.7,4.3c-0.7-1.1,3.5-4.8,9.3-8.3
		C277.9,222.6,283.1,220.6,283.8,221.7z"/>
	<path d="M160.1,251.1c-0.1,1.3,5.3,2.7,12,3.3c6.7,0.5,12.3-0.1,12.4-1.4c0.1-1.3-5.3-2.7-12-3.3
		C165.7,249.2,160.2,249.8,160.1,251.1z"/>
	<ellipse transform="matrix(0.973 -0.2309 0.2309 0.973 -47.5724 74.2202)" class="st9" cx="293.3" cy="240.4" rx="19" ry="7.1"/>
	<path class="st13" d="M310.7,231.4c0.3,1.2-2.2,2.9-5.5,3.7c-3.3,0.8-6.3,0.4-6.6-0.8c-0.3-1.2,2.2-2.9,5.5-3.7
		C307.4,229.8,310.4,230.1,310.7,231.4z"/>
	<path class="st9" d="M184.9,266c0.5,2.3-5.6,5.7-13.8,7.7c-8.1,1.9-15.2,1.6-15.7-0.7c-0.5-2.3,5.6-5.7,13.8-7.7
		C177.3,263.4,184.4,263.7,184.9,266z"/>
	<g>
		<path class="st13" d="M178.2,163.4c0,0,8.3,35.1,22.2,30.4c2.5-0.8,5.2-0.2,7.5-0.4c-3.2-12.2-6.4-25.7-8.3-38.3
			C190.7,155.5,182.1,157.6,178.2,163.4z"/>
		<path d="M178.2,163.4c1.1,3.9,2.4,7.7,3.9,11.5c1.5,3.8,3.2,7.4,5.3,10.8c1,1.7,2.2,3.3,3.6,4.8c1.4,1.4,3,2.7,4.9,3.2
			c0.9,0.3,1.9,0.4,2.9,0.3c1-0.1,1.9-0.5,3-0.7c2.1-0.3,4.1,0.1,6.1-0.1l-0.1,0.2c-1.7-6.3-3.4-12.6-4.9-19
			c-0.7-3.2-1.4-6.4-2.1-9.6c-0.6-3.2-1.2-6.4-1.6-9.7l0.5,0.4c-3.9,0.2-7.9,0.6-11.7,1.7c-1.9,0.5-3.7,1.3-5.4,2.3
			C180.9,160.6,179.4,161.8,178.2,163.4z M178.1,163.4c1.1-1.7,2.5-3.1,4.2-4.2c1.7-1.1,3.5-1.9,5.4-2.6c1.9-0.6,3.9-1.1,5.9-1.4
			c2-0.3,4-0.5,6-0.6l0.5,0l0.1,0.5c0.5,3.2,1.1,6.4,1.7,9.6c0.6,3.2,1.2,6.4,1.9,9.6c1.4,6.4,2.7,12.8,4.3,19.1l0,0.2l-0.2,0
			c-2.1,0.1-4.1-0.2-6.1,0.1c-1,0.1-1.9,0.6-3,0.7c-1,0.2-2.1,0.1-3.1-0.1c-2-0.5-3.8-1.8-5.3-3.2c-1.5-1.4-2.7-3.1-3.8-4.8
			c-2.2-3.5-3.8-7.2-5.2-11.1C180.1,171.3,178.9,167.4,178.1,163.4L178.1,163.4L178.1,163.4z"/>
	</g>
	<g>
		<path class="st13" d="M227.2,157.8c0,0-14.1-3.3-27.6-2.7c1.9,12.6,5.1,26.1,8.3,38.3c8.1-0.7,14.1-2.1,14.1-2.1
			S232.8,191.2,227.2,157.8z"/>
		<path d="M227.1,157.9c-4.5-0.8-9.1-1.4-13.7-1.8c-2.3-0.2-4.6-0.4-6.9-0.5c-2.3-0.1-4.6-0.1-6.9,0l0.4-0.5
			c0.5,3.2,0.9,6.5,1.5,9.7c0.5,3.2,1.2,6.4,1.9,9.6c0.7,3.2,1.5,6.4,2.3,9.5l2.5,9.5l-0.4-0.3c4.7-0.5,9.4-1.2,14.1-2.2l0,0l0.1,0
			c0.5-0.1,1.2-0.4,1.8-0.8c0.6-0.4,1-0.9,1.5-1.5c0.8-1.2,1.4-2.5,1.8-3.9c0.8-2.8,1.2-5.8,1.3-8.8c0.1-3,0-6-0.2-9
			C227.9,163.8,227.6,160.8,227.1,157.9z M227.2,157.8c1.2,5.9,2,12,2,18c0,3-0.3,6.1-1.2,9.1c-0.4,1.5-1,2.9-2,4.2
			c-0.5,0.6-1,1.2-1.7,1.7c-0.7,0.5-1.4,0.9-2.4,1l0.1,0c-2.4,0.5-4.7,0.9-7.1,1.2c-2.4,0.3-4.7,0.6-7.1,0.8l-0.3,0l-0.1-0.3
			c-0.8-3.2-1.5-6.4-2.2-9.5l-2.1-9.6c-0.7-3.2-1.4-6.4-2.1-9.6c-0.7-3.2-1.3-6.4-1.8-9.6l-0.1-0.5l0.5,0c4.7-0.2,9.3,0.1,13.9,0.6
			c2.3,0.3,4.6,0.6,6.9,1C222.7,156.7,225,157.2,227.2,157.8L227.2,157.8L227.2,157.8z"/>
	</g>
	<path class="st3" d="M199.6,155.1c-8.9,0.4-17.5,2.5-21.5,8.3c0,0,2.4,10.1,6.8,18.8c5.7-1.4,11.4-3.1,16.2-8.3
		c0.2,6.6,1.2,13.1,2.6,19.5c1.4,0,2.9,0.1,4.2,0C204.7,181.2,201.5,167.7,199.6,155.1z"/>
	<path class="st3" d="M199.6,155.1c0.8,5.1,1.8,10.2,2.9,15.4c6.9,2.3,15.1,3.9,22.6,2.1c5.1,14.2-5.9,16.3-15.3,20.6
		c7.1-0.7,12.2-1.9,12.2-1.9s10.8-0.2,5.2-33.6C227.2,157.8,213.1,154.6,199.6,155.1z"/>
	<path class="st13" d="M163.6,267.4c0.2,1-2.5,2.5-6,3.4c-3.6,0.8-6.7,0.7-6.9-0.3c-0.2-1,2.5-2.5,6-3.4
		C160.3,266.2,163.4,266.3,163.6,267.4z"/>
	<g>
		<g>
			<path class="st0" d="M360.5,66.4c-8.6-36.1-44.8-58.5-80.9-49.9c-33.7,8-55.4,40.1-51.2,73.7c-9.7,0.6-19.8,2-30.3,4.5
				c-22.5,5.3-41.4,14.2-56.7,25.4C127.1,93.1,95.9,78,64.7,85.4C27.9,94.2,5,131.2,13.8,168.1c8.8,36.9,45.8,59.7,82.6,51
				c0.1,0,0.2,0,0.2-0.1c1.2,7.4,3.3,14.6,6.4,21.7c21.6,49.9,45.5,71,104.2,64.3c0,0,0,0,0,0c0,0-11.1,55.9-9.2,106.2
				c1.9,50.3,37.8,46.2,91.3,34.6c53.5-11.6,111.9-37,83.4-85.4c-23.7-40.2-60.4-71.4-72.1-80.8c42.6-20.7,51.6-49.8,48-97.9
				c-1.2-16.3-6.5-31.5-15.2-44.7C355.5,121.7,367,94,360.5,66.4z M244,289.2c-70.2,16.7-94.5,10.4-99.1-9c-1.4-5.8,0.5-11.3-1-18.2
				c-1.6-6.9-7.2-13.8-8.4-21.6c-4.6-30.6,6.1-49.1,26.5-61.4c5.2,2,12,2.4,19,0.8c9.6-2.3,17.1-7.9,19.8-14
				c6.1,4.1,16,5.5,26.4,3.1c8.5-2,15.6-6.2,19.8-11.2c31.6,0.8,56.6,14.2,64.3,43.8c1.6,6.3,2.2,5.2,7.5,18.1
				c5.3,12.9,5.8,10.4,7.5,17.6C331,256.5,314.4,272.5,244,289.2z"/>
		</g>
		<g>
			<path d="M360.4,66.4c-2-8.3-5.5-16.1-10.4-23.1c-4.9-6.9-11.1-12.9-18.2-17.6c-7.1-4.6-15.1-7.9-23.4-9.6
				c-8.3-1.7-16.9-1.8-25.3-0.2c-8.3,1.5-16.4,4.6-23.6,9.1c-7.2,4.5-13.5,10.4-18.5,17.2c-5,6.8-8.7,14.6-10.8,22.8
				c-2.1,8.2-2.7,16.8-1.6,25.2l0,0.3l-0.3,0c-7.7,0.5-15.4,1.5-23.1,3c-7.6,1.5-15.1,3.5-22.5,5.9c-14.7,4.9-28.7,11.9-41.2,21.1
				l-0.4,0.3l-0.2-0.5c-5.9-11.2-15-20.8-26-27.1c-11-6.4-23.7-9.7-36.4-9.3c-12.7,0.4-25.3,4.3-35.9,11.4
				c-10.6,7-19.1,17.1-24.4,28.7c-5.3,11.6-7.2,24.6-5.5,37.3c1.7,12.6,6.9,24.7,15.1,34.5c8.1,9.8,19,17.3,31.1,21.3
				c12.1,4.1,25.3,4.7,37.7,1.6l0.2,0l0,0.2c1.1,6.5,2.8,12.8,5.2,18.9c2.5,6.1,5.3,12,8.2,17.9c3,5.8,6.3,11.5,10,16.9
				c3.8,5.4,8,10.4,12.8,14.8c4.8,4.4,10.3,8.1,16.2,11c5.9,2.8,12.2,4.7,18.7,5.9c12.9,2.3,26.2,1.9,39.2,0.4l0.8-0.1l-0.6,0.6
				c0,0-0.1,0-0.1,0.1l0.2-0.2c-1.8,9.7-3.3,19.6-4.7,29.4c-1.3,9.8-2.4,19.7-3.2,29.6c-0.8,9.9-1.3,19.8-1.5,29.7
				c-0.1,5,0,9.9,0.1,14.9c0.1,5,0.5,9.9,1.4,14.7c0.9,4.8,2.4,9.6,4.9,13.8c2.4,4.2,6,7.9,10.2,10.3c4.2,2.5,9,3.8,13.9,4.5
				c4.9,0.7,9.8,0.8,14.8,0.5c9.9-0.5,19.7-2.1,29.4-4c4.9-0.9,9.7-1.9,14.6-3c4.9-1,9.7-2.2,14.5-3.4c9.6-2.5,19.1-5.4,28.3-9
				c9.2-3.6,18.2-7.9,26.4-13.4c4.1-2.8,8-5.9,11.4-9.4c3.4-3.5,6.4-7.5,8.4-12c2.1-4.4,3.1-9.3,3.1-14.2c0-4.9-1.1-9.8-2.9-14.4
				c-0.9-2.3-1.9-4.5-3.1-6.7c-1.2-2.2-2.5-4.3-3.8-6.4c-2.6-4.2-5.4-8.3-8.2-12.4c-5.7-8.1-12-15.8-18.5-23.3
				c-13.1-14.9-27.5-28.7-42.9-41.2l-0.5-0.4l0.6-0.3c6.2-3,12.2-6.4,17.8-10.4c5.6-4,10.7-8.7,15-14.1c4.3-5.4,7.7-11.4,10.1-17.9
				c2.4-6.4,3.9-13.2,4.8-20c0.9-6.8,1.1-13.7,1-20.6c-0.1-3.4-0.2-6.9-0.4-10.3c-0.2-3.4-0.4-6.9-0.9-10.3
				c-1.9-13.7-6.8-26.9-14.4-38.4l-0.1-0.1l0.1-0.1c11-7.6,19.6-18.6,24.4-31.1c2.4-6.2,3.9-12.8,4.3-19.5
				C362.5,79.6,361.9,72.9,360.4,66.4z M360.5,66.4c1.6,6.5,2.1,13.3,1.7,20c-0.4,6.7-1.9,13.3-4.3,19.6
				c-4.8,12.5-13.4,23.6-24.4,31.3l0-0.2c7.6,11.5,12.6,24.8,14.6,38.5c0.5,3.4,0.7,6.9,1,10.3c0.2,3.4,0.4,6.9,0.4,10.4
				c0.1,6.9-0.1,13.8-0.9,20.7c-0.8,6.9-2.3,13.7-4.7,20.2c-2.4,6.5-5.8,12.6-10.2,18.1c-4.3,5.4-9.5,10.2-15.1,14.3
				c-5.6,4.1-11.6,7.5-17.9,10.6l0.1-0.7c7.8,6.2,15.2,12.8,22.4,19.7c7.2,6.9,14.1,14,20.7,21.5c6.6,7.5,12.8,15.2,18.6,23.3
				c2.9,4.1,5.6,8.2,8.3,12.4c1.3,2.1,2.6,4.2,3.8,6.4c1.2,2.2,2.2,4.5,3.1,6.8c1.8,4.7,2.9,9.6,3,14.7c0.1,5-1,10.1-3.2,14.7
				c-2.1,4.6-5.1,8.7-8.6,12.3c-3.5,3.6-7.4,6.7-11.5,9.5c-8.3,5.6-17.4,9.9-26.6,13.5c-9.3,3.6-18.8,6.5-28.4,9
				c-4.8,1.2-9.7,2.4-14.5,3.4c-4.9,1-9.7,2.1-14.6,3c-9.8,1.8-19.6,3.5-29.6,4c-5,0.2-10,0.2-15-0.6c-4.9-0.7-9.9-2.1-14.2-4.7
				c-4.4-2.5-8-6.3-10.5-10.6c-2.5-4.4-4.1-9.2-5-14.1c-0.9-4.9-1.3-9.9-1.4-14.9c-0.1-5-0.2-9.9-0.1-14.9
				c0.2-9.9,0.7-19.9,1.5-29.8c0.8-9.9,1.9-19.8,3.2-29.6c1.3-9.8,2.9-19.7,4.7-29.4l0-0.1l0.1-0.1c0,0,0,0-0.1,0l0.2,0.5
				c-13,1.5-26.4,1.9-39.3-0.5c-6.5-1.2-12.8-3.1-18.8-6c-5.9-2.8-11.4-6.6-16.3-11.1c-4.9-4.4-9.1-9.5-12.9-14.9
				c-3.8-5.4-7-11.1-10-17c-3-5.9-5.7-11.8-8.2-17.9c-2.4-6.1-4.2-12.5-5.2-19l0.2,0.1c-12.4,3-25.7,2.5-37.9-1.6
				c-12.2-4-23.1-11.5-31.3-21.4c-8.2-9.8-13.5-22.1-15.2-34.8c-1.8-12.7,0.2-25.9,5.5-37.6c5.3-11.7,13.9-21.9,24.5-29
				C53,87.6,65.7,83.6,78.5,83.2c12.8-0.4,25.8,2.9,36.9,9.3c11.1,6.4,20.4,16.1,26.4,27.4l-0.7-0.2c12.6-9.2,26.7-16.2,41.5-21.1
				c7.4-2.5,14.9-4.4,22.6-5.9c7.6-1.5,15.4-2.5,23.2-2.9l-0.3,0.4c-1.1-8.5-0.5-17.1,1.7-25.4c2.2-8.3,5.9-16.1,11-22.9
				c5.1-6.9,11.4-12.8,18.7-17.3c7.2-4.5,15.3-7.6,23.7-9.1c8.4-1.5,17.1-1.4,25.4,0.3c8.3,1.7,16.3,5,23.5,9.7
				c7.1,4.7,13.3,10.7,18.2,17.7C355,50.2,358.6,58.1,360.5,66.4z"/>
			<path d="M244,289.3c-9,2.1-18,4.1-27.1,5.8c-9.1,1.7-18.2,3-27.4,3.7c-4.6,0.3-9.2,0.5-13.9,0.3c-4.6-0.2-9.2-0.7-13.7-2
				c-4.5-1.2-8.8-3.3-12.1-6.7c-3.3-3.4-5.2-7.9-5.7-12.6c-0.2-2.3-0.1-4.7,0-7c0.1-2.3,0.1-4.6-0.3-6.8c-0.6-4.5-2.9-8.6-4.9-12.7
				c-1-2.1-2-4.2-2.7-6.4c-0.4-1.1-0.7-2.2-0.9-3.4c-0.2-1.2-0.3-2.3-0.5-3.4c-0.6-4.6-0.8-9.2-0.6-13.9c0.4-9.2,2.7-18.5,7.7-26.4
				c2.5-3.9,5.5-7.5,8.9-10.6c3.4-3.1,7.2-5.8,11.1-8.2l0.1,0l0.1,0c3.4,1.3,7.2,1.8,10.8,1.8c3.7-0.1,7.3-0.7,10.8-1.8
				c3.5-1.1,6.9-2.7,9.8-4.9c2.9-2.2,5.5-4.9,7-8.3l0.1-0.3l0.3,0.2c3.5,2.3,7.6,3.5,11.7,4c4.1,0.5,8.4,0.2,12.5-0.6
				c4.1-0.8,8.1-2.1,11.8-4c3.7-1.9,7.1-4.4,9.8-7.5l0.1-0.1l0.2,0c9.6,0.2,19.2,1.6,28.3,4.8c9.1,3.2,17.5,8.3,24,15.5
				c3.2,3.6,6,7.6,8.1,11.9c1.1,2.2,2,4.4,2.8,6.7c0.8,2.3,1.4,4.6,2.1,6.9c0.6,2.3,1.7,4.4,2.7,6.5c1,2.2,2,4.3,3,6.5
				c1.9,4.4,3.6,8.8,5.8,13c0.5,1.1,1.1,2.1,1.6,3.2c0.5,1.1,0.8,2.3,1.1,3.5c0.6,2.3,1,4.8,1,7.2c0,2.4-0.5,4.9-1.4,7.1
				c-0.9,2.3-2.2,4.4-3.7,6.2c-3.1,3.8-6.9,6.7-11,9.3c-4.1,2.5-8.4,4.7-12.7,6.6c-8.8,3.8-17.8,6.9-27,9.6
				C262.6,284.7,253.3,287.1,244,289.3z M244,289.2c9.3-2.2,18.5-4.7,27.7-7.4c9.1-2.8,18.2-5.9,26.9-9.8c4.3-2,8.6-4.1,12.6-6.7
				c4-2.6,7.8-5.5,10.7-9.2c1.5-1.8,2.7-3.9,3.5-6.1c0.8-2.2,1.3-4.5,1.3-6.9c0-2.3-0.4-4.7-1-6.9c-0.3-1.1-0.6-2.3-1.1-3.3
				c-0.4-1.1-1-2.1-1.6-3.2c-2.3-4.2-4-8.7-5.9-13.1c-0.9-2.2-1.9-4.4-2.9-6.5c-1-2.1-2.1-4.3-2.8-6.7c-0.6-2.3-1.2-4.6-2-6.8
				c-0.8-2.2-1.7-4.4-2.8-6.5c-2.1-4.2-4.8-8.2-7.9-11.7c-6.3-7.1-14.7-12.2-23.6-15.3c-9-3.2-18.5-4.6-28-4.9l0.3-0.1
				c-2.8,3.2-6.3,5.7-10.1,7.7c-3.8,1.9-7.9,3.2-12,4c-4.2,0.8-8.4,1-12.6,0.5c-4.2-0.5-8.4-1.7-11.9-4.1l0.4-0.1
				c-1.6,3.4-4.2,6.2-7.2,8.4c-3,2.2-6.4,3.8-10,4.9c-3.5,1.1-7.3,1.7-11,1.8c-3.7,0-7.5-0.5-10.9-1.8l0.1,0
				c-7.9,4.7-15,10.9-19.8,18.8c-4.9,7.8-7.2,17-7.5,26.2c-0.2,4.6,0.1,9.2,0.7,13.7c0.2,1.1,0.3,2.3,0.5,3.4
				c0.2,1.1,0.5,2.2,0.9,3.3c0.7,2.2,1.7,4.2,2.7,6.3c1,2.1,2.1,4.1,3,6.2c0.9,2.1,1.7,4.4,2,6.7c0.4,2.3,0.4,4.7,0.3,7
				c-0.1,2.3-0.2,4.6,0,6.9c0.5,4.5,2.3,8.9,5.4,12.1c3.1,3.3,7.4,5.3,11.7,6.6c4.4,1.3,9,1.8,13.6,2.1c4.6,0.2,9.2,0.1,13.8-0.2
				C207.9,297,226.1,293.3,244,289.2z"/>
		</g>
	</g>
	<path class="st12" d="M239.2,298.7c12.7-5.2,26.1-9.2,40.1-12C266.5,296,253.1,299.5,239.2,298.7z"/>
	<path class="st9" d="M275.1,143.3c0.9,3.8-6.6,8.8-16.8,11.2c-10.2,2.4-19.2,1.3-20.1-2.5c-0.9-3.8,6.6-8.8,16.8-11.2
		C265.2,138.4,274.2,139.5,275.1,143.3z"/>
	<path class="st13" d="M274,138.7c0.3,1.2-2.2,2.9-5.5,3.7c-3.3,0.8-6.3,0.4-6.6-0.8c-0.3-1.2,2.2-2.9,5.5-3.7
		C270.8,137.1,273.7,137.4,274,138.7z"/>
	<path class="st9" d="M162.3,170.6c0.5,2.3-5.6,5.7-13.8,7.7c-8.1,1.9-15.2,1.6-15.7-0.7c-0.5-2.3,5.6-5.7,13.8-7.7
		C154.7,168,161.8,168.3,162.3,170.6z"/>
	<path class="st13" d="M141,172c0.2,1-2.5,2.5-6,3.4c-3.6,0.9-6.7,0.7-6.9-0.3c-0.2-1,2.5-2.5,6-3.4C137.7,170.9,140.7,171,141,172z
		"/>
	<path class="st12" d="M202.2,341.8c-0.3,1.1-0.6,2.3-0.9,3.4c-2.2,19.4-4,43.3-3.2,66c1,27.6,12.4,38.8,31.3,41.4
		c-1.9-1.9-3.7-3.9-5.4-6.2C199.8,416.2,216,376.4,202.2,341.8z"/>
	<path class="st12" d="M372.7,360.4c-12.3-20.9-28.1-39.3-42.1-53.5c1.2,27.7,36.8,45.9,44.5,70.6c2,5.9,3,11.7,3.4,17.4
		C381.8,384.9,380.5,373.5,372.7,360.4z"/>
	<path class="st12" d="M232,296c-21,5.5-42.3,6.9-62,2.2c-7.8-0.9-13.5-3-17.6-6.1c-28.4-13.5-46.9-47.7-46-80.3
		c-32.9,11-63.3-2.2-85-24.7c14.9,25.2,45,38.9,74.9,31.8c0.1,0,0.2,0,0.2-0.1c1.2,7.4,3.3,14.6,6.4,21.7
		c21.6,49.9,45.5,71,104.2,64.3c0,0,0,0,0,0c0,0-2.9,14.7-5.5,35.8c0.1,0.3,0.3,0.7,0.4,1C207.3,323,215.2,305.3,232,296z"/>
	<g>
		<path class="st0" d="M201.2,345.2c0.3-1.1,0.6-2.3,0.9-3.4c-0.1-0.3-0.3-0.7-0.4-1C201.6,342.2,201.4,343.7,201.2,345.2z"/>
		<g>
			<path d="M201.2,345.3l0-0.1c-0.1-0.6-0.1-1.2,0.1-1.8c0.1-0.6,0.6-1.1,0.8-1.6l0,0.1c-0.1-0.3-0.3-0.7-0.5-0.9l0.6-0.1
				c0.1,0.4,0.1,0.8,0.1,1.1c0,0.4,0,0.7-0.1,1.1c-0.1,0.7-0.3,1.5-0.7,2.2L201.2,345.3z M201.2,345.2c-0.2-0.8-0.3-1.5-0.2-2.3
				c0-0.4,0.1-0.7,0.2-1.1c0.1-0.4,0.2-0.7,0.3-1.1l0.4-1l0.1,0.9c0.1,0.4,0.1,0.7,0.3,1.1l0,0l0,0.1c-0.1,0.6,0,1.2-0.2,1.8
				C201.9,344.2,201.7,344.7,201.2,345.2L201.2,345.2L201.2,345.2z"/>
		</g>
	</g>
	<path class="st12" d="M360.5,66.4c-3.1-13.1-9.8-24.3-18.8-33C353.3,57.8,356,86,345,111.1c-5.9,12.4-23.7,21.1-22.7,25.2
		c9.2,32.3,8.9,67.9,4.2,101.5c1.2,5.5,0.6,10.8-2.6,15.9c-0.8,4.5-1.7,8.9-2.7,13.2c24.9-19.7,30.3-46.2,27.3-85.2
		c-1.2-16.3-6.5-31.5-15.2-44.7C355.5,121.7,367,94,360.5,66.4z"/>
	<g>
		<path class="st0" d="M215.4,308.4c0,0-100.9-16.3-105.9-4.7c-5,11.7,86,34.7,86,34.7s6-0.3,4.5,17.8"/>
		<path d="M215.4,308.4c-16.7-2.3-33.4-4.5-50.2-6.2c-8.4-0.9-16.8-1.7-25.2-2.2c-4.2-0.2-8.4-0.3-12.6-0.3
			c-4.2,0.1-8.4,0.3-12.5,1.2c-1,0.3-2,0.6-2.9,1c-0.9,0.4-1.8,1.1-2.2,2c-0.4,0.9,0,1.9,0.6,2.7c0.6,0.8,1.4,1.5,2.2,2.2
			c3.3,2.5,7.2,4.3,11,6.1c7.7,3.4,15.6,6.2,23.6,8.9c8,2.7,16,5.2,24.1,7.5c8.1,2.4,16.2,4.7,24.3,6.9l-0.1,0
			c1,0.1,1.7,0.6,2.3,1.3c0.6,0.6,1,1.4,1.3,2.2c0.6,1.6,0.9,3.2,1.1,4.8c0.3,3.3,0.2,6.6-0.1,9.8l-0.1,0c0.2-3.3,0.2-6.5-0.2-9.8
			c-0.2-1.6-0.5-3.2-1.2-4.7c-0.3-0.7-0.7-1.4-1.2-2c-0.5-0.6-1.2-1-1.9-1l-0.1,0l0,0c-8.2-2-16.3-4.2-24.5-6.5
			c-8.1-2.4-16.2-4.8-24.2-7.5c-8-2.7-15.9-5.6-23.6-9.1c-3.8-1.8-7.6-3.7-11-6.3c-0.8-0.7-1.6-1.4-2.3-2.3
			c-0.3-0.5-0.6-0.9-0.7-1.5c-0.1-0.5-0.1-1.2,0.1-1.7c0.5-1.1,1.5-1.7,2.4-2.2c1-0.5,2-0.7,3-1c4.2-0.9,8.4-1.1,12.6-1.2
			c4.2-0.1,8.4,0,12.7,0.2c8.4,0.3,16.9,0.9,25.3,1.8C182.1,303.1,198.8,305.4,215.4,308.4L215.4,308.4z"/>
	</g>
	<g>
		<path class="st0" d="M293.8,284.4c0,0,79.5-79.2,91.4-72c11.9,7.2-54.4,86-54.4,86s-5.5,3.6,7.3,18.7"/>
		<path d="M293.7,284.4c12.9-13.2,26.4-26,40.2-38.3c6.9-6.1,14.1-12.1,21.4-17.8c3.6-2.9,7.3-5.7,11.2-8.3c3.8-2.6,7.7-5.2,12-7
			c1.1-0.4,2.2-0.8,3.3-1.1c1.1-0.2,2.4-0.3,3.5,0.4c0.5,0.3,0.9,0.9,1.2,1.4c0.2,0.6,0.3,1.2,0.3,1.8c0,1.2-0.2,2.4-0.5,3.5
			c-0.6,2.3-1.5,4.4-2.5,6.5c-1,2.1-2.1,4.2-3.2,6.2c-4.6,8.1-9.8,15.7-15.2,23.3c-5.4,7.5-11,14.9-16.7,22.2
			c-5.8,7.3-11.6,14.4-17.6,21.5l0,0l0,0c-0.6,0.4-0.9,1.3-1,2.1c-0.1,0.8,0,1.7,0.2,2.6c0.4,1.7,1.1,3.4,2,4.9
			c1.7,3.1,3.8,6,6.1,8.8l-0.1,0.1c-2.3-2.7-4.6-5.5-6.4-8.7c-0.9-1.6-1.7-3.2-2.1-5c-0.2-0.9-0.3-1.8-0.2-2.8
			c0.1-0.9,0.4-1.9,1.2-2.6l-0.1,0.1c5.9-7.1,11.6-14.4,17.3-21.7c5.7-7.3,11.3-14.7,16.7-22.2c5.4-7.5,10.7-15.1,15.4-23.1
			c1.2-2,2.3-4,3.3-6.1c1-2.1,1.9-4.2,2.6-6.4c0.3-1.1,0.6-2.2,0.6-3.3c0-1.1-0.3-2.3-1.2-2.8c-0.9-0.6-2.1-0.6-3.2-0.4
			c-1.1,0.2-2.2,0.6-3.3,1c-4.2,1.8-8.1,4.3-12,6.9c-3.8,2.7-7.5,5.5-11.1,8.4c-7.2,5.8-14.1,11.9-21,18.1
			C320.7,259,307.2,271.7,293.7,284.4L293.7,284.4z"/>
	</g>
	<path d="M206.4,154.1c0.6,2.3-2,9.2-6.9,10.4c-4.9,1.2-10.3-3.8-10.8-6.1c-0.6-2.3,3-5.2,7.9-6.3
		C201.5,150.8,205.9,151.8,206.4,154.1z"/>
	<path class="st13" d="M195,154.7c0.2,0.4-0.7,1.1-2,1.6c-1.3,0.5-2.4,0.7-2.5,0.3c-0.2-0.4,0.7-1.1,2-1.6
		C193.7,154.5,194.8,154.4,195,154.7z"/>
	<g>
		<path class="st12" d="M252.6,135.7c1,4.1-1.5,8.1-5.6,9.1c-4.1,1-8.1-1.5-9.1-5.6c-1-4.1,1.5-8.1,5.6-9.1
			C247.6,129.1,251.7,131.6,252.6,135.7z"/>
		<path d="M250.8,136.1c1,4.1-1.5,8.1-5.6,9.1c-4.1,1-8.1-1.5-9.1-5.6c-1-4.1,1.5-8.1,5.6-9.1C245.7,129.6,249.8,132.1,250.8,136.1z
			"/>
		<path class="st13" d="M240.7,137.2c0.2,0.7-0.3,1.4-0.9,1.5c-0.7,0.2-1.4-0.3-1.5-0.9c-0.2-0.7,0.3-1.4,0.9-1.5
			C239.9,136.1,240.6,136.5,240.7,137.2z"/>
	</g>
	<g>
		<path class="st12" d="M163.2,156.9c1,4.1-1.5,8.1-5.6,9.1c-4.1,1-8.1-1.6-9.1-5.6c-1-4.1,1.5-8.1,5.6-9.1
			C158.2,150.3,162.2,152.9,163.2,156.9z"/>
		<path d="M161.3,157.4c1,4.1-1.5,8.1-5.6,9.1c-4.1,1-8.1-1.5-9.1-5.6c-1-4.1,1.5-8.1,5.6-9.1C156.3,150.8,160.4,153.3,161.3,157.4z
			"/>
		<path class="st13" d="M151.3,158.4c0.2,0.7-0.3,1.4-0.9,1.5c-0.7,0.2-1.4-0.3-1.5-0.9c-0.2-0.7,0.3-1.4,0.9-1.5
			C150.4,157.3,151.1,157.8,151.3,158.4z"/>
	</g>
	
		<linearGradient id="SVGID_3_" gradientUnits="userSpaceOnUse" x1="300.9736" y1="80.5776" x2="368.2931" y2="147.8971" gradientTransform="matrix(0.973 -0.2309 0.2309 0.973 -50.3929 41.9239)">
		<stop  offset="1.818180e-002" style="stop-color:#078D9E"/>
		<stop  offset="1" style="stop-color:#078D9E;stop-opacity:0"/>
	</linearGradient>
	<path class="st7" d="M318.4,125.1c0,0-44.8-3.9-63.6-42.3c-18.9-38.4,46.9-59.7,65-43.9c0,0,31.2,12.5,27.7,45.6
		C344.9,108.1,335.4,111.8,318.4,125.1z"/>
	<g>
		<path class="st15" d="M310.9,122.7c-6.1-0.9-12.6-3.3-19.4-6.8c2.4-0.5,4.8-1.9,6.6-4.2c3.8-4.7,3.7-11-0.1-14.1
			c-3.3-2.6-8.3-2-12.1,1.2c1.6-4,0.9-8.3-2.1-10.7c-3.8-3.1-10-1.7-13.8,3c-2,2.5-2.9,5.5-2.8,8.2C256,88.5,252.1,76,261.7,59.5
			C275.1,36.8,303.9,29,326.1,42c10.2,6,17.2,15.4,20.5,26c-3.5-11.7-11.2-22.2-22.6-28.9c-23.8-14-54.5-6-68.5,17.8
			c-14,23.8-0.3,40.1,23.2,54.6c12.7,7.8,24.5,12.7,35,13C312.8,123.9,311.8,123.3,310.9,122.7z"/>
		<g>
			<path d="M310.9,122.7c-6.8-1-13.4-3.6-19.5-6.6l-0.5-0.3l0.6-0.1c3-0.6,5.5-2.6,7.2-5.1c1.7-2.5,2.5-5.6,1.8-8.6
				c-0.3-1.4-1.1-2.8-2.1-3.8c-1.1-1-2.4-1.7-3.9-1.9c-2.9-0.4-6,0.8-8.2,2.7l-1,0.9l0.5-1.3c1.1-2.7,1.2-5.9-0.4-8.4
				c-0.7-1.2-1.9-2.2-3.2-2.8c-1.3-0.6-2.8-0.7-4.2-0.6c-2.9,0.4-5.5,2.1-7.4,4.3c-1.8,2.3-2.9,5.2-2.8,8.1l0.1,1.1l-0.8-0.8
				c-4.6-4.4-8.5-9.8-10.2-16c-0.8-3.1-1-6.4-0.6-9.6c0.4-3.2,1.3-6.3,2.6-9.2c2.6-5.8,6.2-11.2,10.8-15.6c4.6-4.4,10-8,15.9-10.3
				c11.8-4.7,25.6-4.4,37.1,1c5.8,2.7,11,6.6,15.1,11.4c4.2,4.8,7.3,10.5,9.3,16.6l-0.6,0.2c-2.6-8.8-7.7-16.8-14.6-22.9
				c-6.9-6.1-15.4-10.2-24.4-11.8c-9-1.6-18.5-0.6-27,2.8c-8.5,3.4-16,9.2-21.4,16.5c-2.7,3.7-5,7.7-6.5,12
				c-1.5,4.3-2.3,8.9-1.8,13.4c0.5,4.5,2.3,8.8,4.8,12.6c2.5,3.8,5.7,7.1,9.2,10.2c3.5,3,7.2,5.7,11.1,8.3c3.9,2.5,7.8,4.9,11.9,7
				c4.1,2.1,8.3,4,12.7,5.5c4.4,1.5,8.9,2.5,13.5,2.7l0,0.1C312.8,123.9,311.8,123.3,310.9,122.7z M310.9,122.6
				c0.9,0.6,1.9,1.2,2.9,1.8l0.2,0.1l-0.3,0c-4.6-0.1-9.2-1.1-13.6-2.5c-4.4-1.4-8.7-3.3-12.8-5.4c-4.1-2.1-8.1-4.5-12-7
				c-3.9-2.5-7.7-5.2-11.2-8.2c-3.5-3-6.8-6.4-9.4-10.2c-2.6-3.8-4.5-8.3-5.1-13c-0.6-4.7,0.2-9.5,1.8-13.8
				c1.6-4.4,3.9-8.5,6.7-12.3c5.5-7.5,13.2-13.4,21.9-16.8c8.7-3.5,18.3-4.5,27.5-2.8c9.2,1.6,17.9,5.8,24.8,12.1
				c7,6.2,12.1,14.4,14.7,23.3l-0.6,0.2c-1.9-6-4.9-11.7-9.1-16.4c-4.1-4.8-9.2-8.7-14.9-11.4c-5.7-2.7-12-4.2-18.3-4.4
				c-6.3-0.1-12.6,1-18.5,3.4c-5.9,2.3-11.2,5.9-15.7,10.3c-4.5,4.4-8.1,9.7-10.6,15.5c-1.2,2.9-2.1,5.9-2.5,9
				c-0.4,3.1-0.1,6.3,0.7,9.3c1.6,6.1,5.5,11.3,10.1,15.6l-0.8,0.3c-0.1-3.2,1.1-6.3,3-8.6c2-2.4,4.8-4.2,7.9-4.6
				c1.6-0.2,3.2,0,4.6,0.6c1.5,0.7,2.7,1.7,3.5,3.1c1.6,2.8,1.5,6.2,0.4,9l-0.5-0.4c2.4-2,5.6-3.3,8.7-2.8c1.6,0.2,3.1,1,4.2,2.1
				c1.2,1.1,1.9,2.6,2.3,4.1c0.7,3.1-0.2,6.4-1.9,9c-1.7,2.6-4.4,4.6-7.5,5.2l0.1-0.4C297.6,118.9,304.1,121.5,310.9,122.6
				L310.9,122.6L310.9,122.6z"/>
		</g>
	</g>
	
		<linearGradient id="SVGID_4_" gradientUnits="userSpaceOnUse" x1="-262.6479" y1="131.3774" x2="-195.3271" y2="198.6983" gradientTransform="matrix(-0.9246 0.3809 0.3809 0.9246 -198.5151 88.6179)">
		<stop  offset="1.818180e-002" style="stop-color:#078D9E"/>
		<stop  offset="1" style="stop-color:#078D9E;stop-opacity:0"/>
	</linearGradient>
	<path class="st8" d="M91.2,203.8c0,0,34.1-29.3,26.9-71.5c-7.1-42.2-72.9-21-78.4,2.3c0,0-18.1,28.4,4.2,53.2
		C59.8,205.5,69.7,202.9,91.2,203.8z"/>
	<g>
		<path class="st15" d="M95.9,197.5c4.4-4.3,8.3-10,11.8-16.9c-2.2,1-5,1.3-7.8,0.5c-5.8-1.6-9.5-6.8-8.1-11.5
			c1.1-4.1,5.6-6.5,10.5-6.1c-3.6-2.3-5.6-6.2-4.6-9.9c1.3-4.7,7.1-7.3,12.9-5.6c3.1,0.9,5.6,2.8,7.1,5c2.8-15.3-1.4-27.8-18.8-35.5
			c-24.1-10.6-52.1-0.2-62.5,23.3c-4.8,10.8-5,22.6-1.5,33.1c-4-11.5-3.9-24.6,1.5-36.7c11.2-25.3,40.7-36.7,66-25.5
			c25.3,11.2,23.7,32.4,13,57.9c-5.7,13.7-12.5,24.6-20.8,31C95.1,199.6,95.5,198.5,95.9,197.5z"/>
		<g>
			<path d="M95.8,197.4c4.9-4.9,8.6-10.8,11.7-16.9l0.3,0.3c-2.9,1.3-6.2,1.2-9.1,0.1c-2.9-1.1-5.5-3.2-6.8-6.2
				c-0.6-1.4-0.9-3.1-0.6-4.7c0.3-1.6,1.1-3,2.2-4.1c2.3-2.2,5.6-3.1,8.7-2.8l-0.2,0.6c-2.6-1.6-4.7-4.4-5-7.5
				c-0.1-1.6,0.2-3.2,1-4.6c0.8-1.4,2-2.5,3.4-3.2c2.8-1.5,6.1-1.7,9.1-0.9c3,0.8,5.8,2.6,7.5,5.3l-0.8,0.2
				c1.1-6.1,1.3-12.6-0.9-18.5c-1.1-2.9-2.8-5.6-4.9-7.9c-2.1-2.3-4.6-4.3-7.3-5.9c-5.4-3.2-11.4-5.4-17.6-6.4
				c-6.2-1-12.6-0.7-18.8,0.8c-6.1,1.5-12,4.2-17,8c-5,3.8-9.2,8.7-12.3,14.2c-3,5.5-4.9,11.7-5.5,18c-0.6,6.3,0.2,12.7,2.3,18.6
				l-0.6,0.2c-3.1-8.8-3.7-18.4-1.7-27.5c2-9.1,6.6-17.6,13.1-24.3c6.5-6.7,14.9-11.5,23.9-13.7c9-2.3,18.7-2,27.6,0.9
				c4.4,1.4,8.7,3.4,12.6,6.1c3.9,2.6,7.3,6.1,9.5,10.2c2.3,4.1,3.3,8.8,3.4,13.5c0.1,4.7-0.6,9.3-1.7,13.8
				c-1.1,4.5-2.6,8.9-4.3,13.2c-1.7,4.3-3.6,8.5-5.7,12.7c-2.1,4.1-4.5,8.1-7.2,11.8c-2.7,3.7-5.9,7.2-9.6,10l-0.2,0.2l0.1-0.3
				C95,199.5,95.4,198.5,95.8,197.4L95.8,197.4L95.8,197.4z M95.9,197.5c-0.4,1.1-0.8,2.1-1.2,3.1l-0.1-0.1
				c3.6-2.8,6.7-6.3,9.4-10.1c2.7-3.8,5-7.8,7-11.9c2.1-4.1,3.9-8.4,5.5-12.7c1.6-4.3,3.1-8.7,4.2-13.2c1.1-4.5,1.7-9.1,1.5-13.6
				c-0.2-4.6-1.2-9.1-3.4-13.1c-2.2-4-5.5-7.3-9.3-9.8c-3.8-2.6-8-4.5-12.3-5.9c-8.7-2.8-18.2-3.1-27.1-0.9
				c-8.9,2.2-17.1,6.9-23.5,13.5c-6.4,6.5-10.9,14.9-12.9,23.8c-2.1,8.9-1.5,18.4,1.5,27.1l-0.6,0.2c-2-6.1-2.7-12.5-2.2-18.9
				c0.6-6.3,2.5-12.6,5.6-18.1c6.2-11.2,17.2-19.4,29.5-22.5c6.2-1.6,12.7-1.9,19-0.9c6.3,0.9,12.4,3.1,17.9,6.4
				c2.7,1.6,5.3,3.6,7.5,6c2.2,2.4,3.9,5.1,5.1,8.1c2.3,6.1,2.2,12.7,1.1,19l-0.2,1.1l-0.6-1c-1.6-2.4-4.2-4.2-7-4.9
				c-2.8-0.8-5.9-0.6-8.5,0.8c-1.3,0.7-2.4,1.7-3.1,2.9c-0.7,1.2-1.1,2.7-0.9,4.1c0.2,2.9,2.2,5.5,4.6,7l1.2,0.7l-1.4-0.1
				c-3-0.3-6.1,0.5-8.3,2.6c-1.1,1-1.8,2.4-2.1,3.8c-0.3,1.4-0.1,3,0.5,4.3c1.2,2.8,3.7,4.8,6.4,5.9c2.8,1.1,6,1.2,8.8,0l0.6-0.2
				l-0.3,0.5C104.7,186.8,100.9,192.7,95.9,197.5z"/>
		</g>
	</g>
	<g>
		<g>
			<path d="M235.2,151.6c5.8-4.1,12.1-7.6,18.6-10.6c6.5-3,13.3-5.5,20.2-7.2c7-1.7,14.2-2.6,21.3-2.3c3.6,0.2,7.2,0.7,10.6,1.5
				c3.5,0.9,6.9,2.1,10,3.8c-6.5-2.9-13.6-4.4-20.7-4.5c-7.1-0.2-14.2,0.8-21.1,2.5c-6.9,1.7-13.6,4.1-20.1,6.9
				c-3.3,1.4-6.5,3-9.6,4.6C241.3,148,238.2,149.7,235.2,151.6z"/>
		</g>
		<g>
			<path d="M236.3,156.4c6-1.8,12.1-3.1,18.3-4.2c6.2-1,12.4-1.7,18.7-2c6.3-0.2,12.6,0,18.8,0.9c6.2,0.9,12.3,2.6,17.9,5.4
				c-2.9-1.2-5.8-2.2-8.8-3c-3-0.8-6.1-1.3-9.2-1.7c-6.2-0.8-12.4-0.9-18.6-0.7c-6.2,0.2-12.4,0.9-18.6,1.7
				c-3.1,0.4-6.2,0.9-9.2,1.5C242.4,155,239.4,155.7,236.3,156.4z"/>
		</g>
		<g>
			<path d="M234.3,160.2c7.6,0.2,15.3,1.1,22.8,2.3c7.6,1.3,15,3,22.4,5.3c7.3,2.4,14.4,5.3,21,9.3c3.3,2,6.4,4.3,9.2,6.9
				c2.8,2.6,5.3,5.5,7.3,8.8c-2.2-3.2-4.7-6-7.6-8.5c-2.9-2.5-6-4.7-9.3-6.6c-6.6-3.8-13.7-6.7-20.9-9c-7.2-2.4-14.7-4.1-22.2-5.5
				c-3.7-0.7-7.5-1.3-11.3-1.8C241.9,160.9,238.1,160.5,234.3,160.2z"/>
		</g>
		<g>
			<path d="M170.6,169.9c-3.6-0.3-7.1-0.5-10.7-0.6c-3.6-0.1-7.1,0-10.7,0.2c-7.1,0.4-14.2,1.2-21.1,2.8c-6.9,1.6-13.7,3.9-19.9,7.3
				c-6.3,3.3-11.9,7.8-16.5,13.4c2.1-2.9,4.6-5.5,7.3-7.9c2.7-2.3,5.7-4.4,8.8-6.2c6.3-3.5,13.1-5.9,20.1-7.6
				c7-1.6,14.2-2.4,21.3-2.6C156.4,168.6,163.6,168.9,170.6,169.9z"/>
		</g>
		<g>
			<path d="M171.8,174.7c-3,0.7-6.1,1.5-9,2.4c-3,0.9-6,1.8-8.9,2.8c-5.9,2-11.7,4.2-17.4,6.8c-5.7,2.5-11.2,5.5-16.3,9
				c-2.6,1.7-5.1,3.6-7.4,5.6c-2.4,2-4.6,4.2-6.6,6.6c3.7-5.1,8.4-9.3,13.5-12.9c5.1-3.6,10.7-6.6,16.4-9.2
				c5.7-2.6,11.6-4.8,17.6-6.6C159.5,177.3,165.6,175.8,171.8,174.7z"/>
		</g>
		<g>
			<path d="M175.3,177.2c-3.3,2-6.5,4.1-9.6,6.2c-3.2,2.2-6.3,4.4-9.3,6.7c-6.1,4.6-11.9,9.5-17.4,14.9
				c-5.5,5.3-10.5,11.1-14.7,17.4c-2.1,3.2-3.9,6.5-5.4,10.1c-1.5,3.5-2.5,7.2-3,11c0.3-3.8,1.2-7.6,2.6-11.2
				c1.4-3.6,3.1-7,5.2-10.3c4.1-6.5,9.2-12.4,14.6-17.7c5.5-5.3,11.4-10.3,17.6-14.8C162.1,185,168.6,180.8,175.3,177.2z"/>
		</g>
	</g>
	<g class="st5">
		<path class="st13" d="M211.9,337l0.5,22.9c0.1,3.8,0.2,7.6,0.4,11.4c0.1,3.8,0.3,7.6,0.5,11.4c0.2,3.8,0.4,7.6,0.7,11.4
			c0.2,3.8,0.6,7.6,0.9,11.4c0.7,7.6,1.6,15.1,2.8,22.7c-2.4-7.3-4-14.8-5.1-22.4c-0.6-3.8-1-7.6-1.4-11.4
			c-0.4-3.8-0.6-7.6-0.8-11.5c-0.2-3.8-0.3-7.7-0.3-11.5c0-3.8,0-7.7,0.1-11.5C210.4,352.3,210.9,344.6,211.9,337z"/>
	</g>
	<g>
		<path class="st1" d="M260.2,256c1.2,4.7-9.5,6.2-22.3,9.5c-12.8,3.2-23,7-24.1,2.3c-1.2-4.7,8.2-11.1,21.1-14.4
			C247.6,250.1,259,251.3,260.2,256z"/>
		<path d="M260.2,256c0.1,0.5,0.1,1.1-0.1,1.7c-0.2,0.5-0.6,1-1,1.3c-0.8,0.7-1.9,1.2-2.9,1.7c-2,0.9-4.1,1.5-6.3,2.2
			c-4.2,1.2-8.5,2.2-12.8,3.2l-12.8,3.1c-2.2,0.4-4.3,0.9-6.5,1c-1.1,0-2.3-0.1-3.3-0.7c-1-0.7-1.4-2-1.2-3.2
			c0.2-1.2,0.8-2.2,1.5-3.1c0.7-0.9,1.5-1.7,2.4-2.4c1.7-1.4,3.6-2.6,5.6-3.6c4-2,8.2-3.5,12.5-4.5c4.3-1,8.7-1.6,13.2-1.5
			c2.2,0.1,4.4,0.3,6.6,0.9c1.1,0.3,2.1,0.7,3.1,1.3C259.1,254,260,254.8,260.2,256z M260.1,256c-0.3-1.1-1.1-1.9-2-2.4
			c-0.9-0.6-2-0.9-3-1.2c-2.1-0.5-4.3-0.6-6.5-0.5c-4.4,0.1-8.7,0.8-12.9,1.8c-4.2,1.1-8.4,2.4-12.3,4.3c-1.9,1-3.8,2.1-5.6,3.4
			c-0.8,0.7-1.7,1.4-2.4,2.2c-0.7,0.8-1.3,1.7-1.5,2.7c-0.2,1,0.1,2.1,0.9,2.7c0.8,0.6,2,0.7,3,0.7c2.2,0,4.3-0.5,6.5-1
			c4.3-1,8.4-2.4,12.7-3.6c4.3-1.1,8.6-2.1,12.8-3c2.1-0.5,4.3-1,6.3-1.8c1-0.4,2-0.9,2.8-1.6c0.4-0.3,0.8-0.8,1-1.3
			C260.2,257.1,260.3,256.5,260.1,256z"/>
	</g>
	<g>
		<path class="st13" d="M234.8,253.4c-12.8,3.2-22.3,9.7-21.1,14.4c0.1,0.5,0.4,1,0.8,1.3c13.9-7.4,28.6-12.4,43.8-15.4
			C254.4,251,245.1,250.8,234.8,253.4z"/>
		<path d="M234.8,253.4c-2.3,0.6-4.6,1.3-6.8,2.2c-2.2,0.9-4.3,1.9-6.4,3.2c-2,1.2-4,2.6-5.6,4.2c-0.8,0.8-1.5,1.8-1.8,2.8
			c-0.4,1-0.3,2.2,0.5,2.9l-0.4,0c1.7-0.9,3.5-1.7,5.3-2.5c1.8-0.8,3.5-1.6,5.3-2.4c3.6-1.6,7.2-3.1,10.8-4.4
			c3.6-1.4,7.4-2.5,11.1-3.6c1.9-0.5,3.8-1,5.7-1.5c1.9-0.4,3.8-0.8,5.7-1.2L258,254c-1.6-1-3.5-1.5-5.5-1.8
			c-1.9-0.3-3.9-0.4-5.9-0.4c-2,0-4,0.2-6,0.4C238.7,252.6,236.8,253,234.8,253.4z M234.8,253.3c1.9-0.5,3.9-0.9,5.9-1.3
			c2-0.4,4-0.6,6-0.8c2-0.2,4-0.2,6.1,0.1c2,0.2,4.1,0.7,5.9,1.9l1.1,0.7l-1.3,0.3c-1.9,0.4-3.8,0.8-5.7,1.2
			c-1.9,0.4-3.8,0.9-5.7,1.4c-3.8,1-7.5,2.1-11.2,3.3c-3.7,1.2-7.3,2.5-10.9,4.1c-1.8,0.8-3.5,1.6-5.3,2.5c-1.7,0.9-3.4,1.8-5.1,2.8
			l-0.2,0.1l-0.2-0.2c-1.1-0.9-1.2-2.5-0.8-3.7c0.4-1.2,1.2-2.3,2-3.2c1.7-1.8,3.8-3.1,5.9-4.3c2.1-1.1,4.4-2,6.6-2.8
			C230.2,254.6,232.5,253.9,234.8,253.3z"/>
	</g>
</g>
<g>
	<g>
		<path class="st6" d="M415.7,376.9c0-2-0.3-4.1-0.8-6.2c-3.3-13.7-15.8-22.6-28-19.7c-3.9,0.9-7.3,2.9-10,5.7
			c-6.2-3.2-13.2-4.4-20.2-2.7c-15.3,3.6-24.9,19.3-23.2,36.4c-6.1-3.1-13-4.2-19.9-2.5c-13.4,3.2-22.5,15.7-23.4,30.3
			c-7.3-12.7-21-19.8-34.5-16.6c-8.1,1.9-14.5,7.2-18.6,14.2c-3.8-3-8.6-4.4-13.3-3.2c-3.8,0.9-6.9,3.2-9,6.3
			c-7.6-3.7-16.1-5-24.5-3c-21.2,5-33.8,28.5-28.1,52.5c5.7,23.9,27.5,39.3,48.7,34.2c13.5-3.2,23.5-14,27.5-27.5
			c0.1,1.1,0.2,2.2,0.5,3.3c2.3,9.9,11.4,16.2,20.1,14.1c8.8-2.1,14-11.8,11.6-21.7c0,0,0-0.1,0-0.1c0.1,0,0.2,0,0.3-0.1
			c3.6,7.3,11.2,11.6,18.6,9.9c8.8-2.1,14-11.8,11.6-21.7c-0.6-2.6-1.7-4.9-3.1-7c1.1-1.4,2.1-2.9,2.8-4.6c2.9,3,6.3,5.5,9.9,7.2
			c5.3,17.7,21.9,28.7,38.1,24.9c9.9-2.3,17.4-9.8,21-19.3c0.1,0,0.2,0,0.3-0.1c1.3-0.3,2.5-0.7,3.7-1.2c5.3,4.3,12,6.2,18.7,4.6
			c8.8-2.1,15-9.8,16.5-19c5.8,2.6,12.2,3.4,18.6,1.9c16.9-4,26.9-22.7,22.4-41.7C445.9,387.4,431.1,375.8,415.7,376.9z
			 M240.3,465.6c0.2-2.5,0.2-5.1,0-7.6c0.9,1.2,1.8,2.3,2.8,3.4C242,462.5,241,464,240.3,465.6z"/>
		<g>
			<path d="M415.6,376.9c-0.1-4.6-1.3-9.3-3.6-13.3c-2.2-4-5.5-7.5-9.5-9.9c-4-2.3-8.7-3.4-13.3-2.8c-4.6,0.6-8.9,2.7-12.1,6.1
				l-0.1,0.1l-0.2-0.1c-5-2.6-10.7-3.8-16.3-3.3c-5.6,0.5-11,2.8-15.3,6.4c-4.3,3.6-7.5,8.4-9.4,13.7c-1.9,5.3-2.6,11-2,16.6
				l0.1,0.7l-0.6-0.3c-4.5-2.3-9.6-3.5-14.7-3.2c-5,0.3-10,1.9-14.2,4.8c-4.2,2.8-7.5,6.8-9.9,11.3c-2.3,4.5-3.7,9.5-4,14.5
				l-0.1,1.4l-0.7-1.2c-2.7-4.6-6.4-8.7-10.8-11.8c-4.4-3-9.6-5-15-5.3c-5.3-0.4-10.8,0.8-15.5,3.5c-4.7,2.6-8.5,6.6-11.3,11.3
				l-0.2,0.3l-0.3-0.2c-1.6-1.3-3.5-2.3-5.5-2.9c-2-0.6-4.1-0.8-6.2-0.5c-2,0.3-4.1,1-5.8,2.1c-1.8,1.1-3.3,2.6-4.4,4.3l-0.1,0.2
				l-0.2-0.1c-7.3-3.6-15.9-4.9-23.9-3.1c-4,0.9-7.8,2.5-11.3,4.7c-3.5,2.2-6.5,5-9.1,8.2c-5.1,6.4-8.2,14.4-9.1,22.6
				c-0.9,8.2,0.4,16.6,3.5,24.2c3.1,7.6,8.2,14.4,14.7,19.4c6.5,5,14.6,8.1,22.8,8.1c8.2,0.1,16.4-2.8,22.7-8
				c6.4-5.2,10.8-12.5,13.1-20.3l0.6-2l0.1,2.1c0.3,4.7,2.4,9.4,5.7,12.7c3.3,3.3,8.1,5.3,12.8,4.7c2.3-0.3,4.6-1.2,6.5-2.5
				c1.9-1.4,3.5-3.2,4.6-5.2c2.3-4.1,2.8-9.2,1.7-13.7l-0.1-0.5l0.5-0.1l0.3-0.1l0.3-0.1l0.2,0.3c2,4.2,5.7,7.7,10.1,9.2
				c4.4,1.5,9.5,0.7,13.2-2.1c3.7-2.8,6-7.4,6.4-12c0.4-4.7-0.8-9.5-3.5-13.3l-0.2-0.3l0.2-0.3c1.1-1.3,2-2.9,2.7-4.5l0.3-0.7
				l0.5,0.5c2.8,2.9,6.1,5.4,9.7,7.1l0.2,0.1l0.1,0.2c1.9,6.3,5.4,12.1,10.2,16.6c4.8,4.5,10.9,7.6,17.4,8.5
				c6.5,0.9,13.3-0.7,18.7-4.3c5.5-3.6,9.6-9.1,11.9-15.2l0.1-0.3l0.2,0c0.4-0.1,0.6-0.2,1-0.2c0.3-0.1,0.6-0.2,1-0.3
				c0.6-0.2,1.3-0.4,1.9-0.7l0.3-0.1l0.2,0.2c3,2.4,6.5,4.1,10.2,4.8c3.7,0.7,7.7,0.2,11.2-1.2c3.5-1.5,6.6-4,8.8-7.1
				c2.2-3.1,3.7-6.8,4.3-10.5l0.1-0.5l0.5,0.2c4.5,2,9.5,3,14.4,2.6c4.9-0.4,9.7-2.2,13.7-5c4-2.8,7.3-6.7,9.6-11.1
				c2.3-4.4,3.6-9.3,3.9-14.2c0.7-9.9-2.5-20-8.9-27.7c-3.2-3.8-7.2-7-11.7-9.1C425.7,377.6,420.7,376.6,415.6,376.9L415.6,376.9
				L415.6,376.9z M415.7,376.9c5-0.4,10,0.6,14.6,2.7c4.6,2.1,8.6,5.2,11.8,9.1c6.5,7.6,9.8,17.9,9.2,27.9c-0.3,5-1.6,10-3.9,14.5
				c-2.3,4.5-5.6,8.5-9.7,11.4c-4.1,2.9-9,4.8-14,5.2c-5,0.5-10.2-0.5-14.8-2.6l0.5-0.3c-0.6,3.9-2.1,7.7-4.4,10.9
				c-2.3,3.2-5.5,5.9-9.1,7.4c-3.7,1.6-7.8,2-11.7,1.3c-3.9-0.7-7.6-2.5-10.7-5l0.5,0.1c-0.7,0.3-1.3,0.5-2,0.7
				c-0.3,0.1-0.7,0.2-1,0.3c-0.3,0.1-0.7,0.2-1,0.2l0.3-0.3c-2.4,6.3-6.6,12-12.3,15.7c-5.6,3.7-12.7,5.4-19.4,4.5
				c-6.7-0.9-13-4.1-17.9-8.7c-4.9-4.6-8.5-10.6-10.4-17l0.3,0.3c-3.8-1.8-7.2-4.3-10-7.3l0.8-0.1c-0.7,1.7-1.6,3.3-2.8,4.7l0-0.6
				c2.8,4,4.1,9.1,3.7,14c-0.5,4.9-2.8,9.7-6.8,12.7c-2,1.5-4.3,2.5-6.8,2.9c-2.4,0.4-5,0.2-7.3-0.6c-4.7-1.6-8.5-5.3-10.7-9.7
				l0.5,0.2l-0.3,0.1l0.4-0.6c1.2,4.8,0.6,10-1.8,14.4c-1.2,2.2-2.9,4.1-4.9,5.5c-2,1.4-4.4,2.4-6.9,2.7c-2.5,0.3-5,0-7.3-0.9
				c-2.3-0.9-4.4-2.3-6.2-4c-3.5-3.5-5.6-8.3-5.9-13.2l0.7,0.1c-2.4,8-6.9,15.4-13.4,20.6c-6.4,5.3-14.8,8.2-23.1,8
				c-8.3-0.1-16.5-3.3-23.1-8.3c-6.6-5.1-11.7-12-14.8-19.6c-3.1-7.7-4.4-16.1-3.4-24.4c0.9-8.2,4-16.3,9.1-22.8
				c2.6-3.3,5.7-6.1,9.2-8.4c3.5-2.3,7.4-3.9,11.4-4.8c4.1-0.9,8.3-1.1,12.4-0.6c4.1,0.5,8.1,1.8,11.9,3.6l-0.3,0.1
				c1.2-1.8,2.8-3.3,4.6-4.5c1.8-1.2,3.9-1.9,6-2.2c2.1-0.3,4.3-0.1,6.4,0.5c2.1,0.6,4,1.7,5.7,3l-0.5,0.1
				c2.7-4.7,6.7-8.8,11.5-11.5c4.8-2.7,10.4-4,15.9-3.6c5.5,0.4,10.8,2.3,15.4,5.4c4.5,3.1,8.3,7.3,11.1,12l-0.8,0.2
				c0.3-5.2,1.6-10.3,4-14.9c2.4-4.6,5.9-8.7,10.2-11.6c4.3-2.9,9.4-4.6,14.6-4.9c5.2-0.3,10.4,1,15,3.3l-0.5,0.4
				c-0.6-5.7,0.1-11.5,2.1-16.9c2-5.4,5.3-10.3,9.7-13.9c4.4-3.7,9.9-6,15.6-6.5c5.7-0.5,11.5,0.8,16.6,3.4l-0.3,0
				c3.3-3.4,7.7-5.6,12.4-6.2c4.7-0.6,9.5,0.6,13.5,3c4,2.4,7.3,5.9,9.6,10C414.5,367.6,415.7,372.2,415.7,376.9z"/>
			<path d="M240.2,465.6c-0.1-0.6-0.2-1.3-0.2-1.9c0-0.6-0.1-1.3,0-1.9c0-0.6,0.1-1.3,0.2-1.9c0.1-0.6,0-1.3-0.1-1.9l-0.1-0.6
				l0.4,0.4c0.5,0.6,1,1.1,1.6,1.6c0.5,0.5,1,1,1.5,1.5l0.4,0.3l-0.3,0.4c-0.5,0.6-1.1,1.2-1.6,1.9l-0.8,1
				C240.8,464.9,240.6,465.2,240.2,465.6l0,0.1L240.2,465.6z M240.2,465.5c0.4-1.7,1.3-3.3,2.5-4.6l0,0.7c-0.5-0.6-1-1.1-1.4-1.7
				c-0.4-0.6-0.8-1.3-1.2-1.9l0.3-0.1c0,0.6,0.1,1.3,0.2,1.9c0.1,0.6,0.2,1.3,0.3,1.9C240.9,463,240.7,464.3,240.2,465.5
				L240.2,465.5z"/>
		</g>
	</g>
	<path class="st2" d="M385.2,419.5c2.2,27.7-29.5,22.2-45.2,10.7c3.5,5.7-4.7,7.6-1.2,13.3c-17,10.6-43.7,8.2-54.7-10.9
		c3.3,23.1-24.4,25.3-38.7,20c-5.1-3.1-11.2-10.4-11-19.1c-0.9,32.8-33.8,40.6-59.3,33.6c-5.4-1.6-10-4.3-14.1-7.7
		c0.1,3.2,0.5,6.5,1.3,9.8c5.7,23.9,27.5,39.3,48.7,34.2c13.5-3.2,23.5-14,27.5-27.5c0.1,1.1,0.2,2.2,0.5,3.3
		c2.3,9.9,11.4,16.2,20.1,14.1c8.8-2.1,14-11.8,11.6-21.7c0,0,0-0.1,0-0.1c0.1,0,0.2,0,0.3-0.1c3.6,7.3,11.2,11.6,18.6,9.9
		c8.8-2.1,14-11.8,11.6-21.7c-0.6-2.6-1.7-5-3.1-7c1.1-1.4,2.1-2.9,2.8-4.6c2.9,3,6.3,5.5,9.9,7.2c5.3,17.7,21.9,28.7,38.1,24.9
		c9.9-2.4,17.4-9.8,21-19.3c0.1,0,0.2,0,0.3,0c1.3-0.3,2.5-0.7,3.7-1.2c5.3,4.3,12,6.2,18.7,4.6c8.8-2.1,15-9.8,16.5-19
		c5.8,2.6,12.3,3.4,18.6,1.9c15.6-3.7,25.3-19.9,23.1-37.3C431.6,426.1,408.6,435.1,385.2,419.5z M240.2,466.4c0.2-2.5,0.2-5,0-7.6
		c0.9,1.2,1.8,2.3,2.8,3.4C241.9,463.3,240.9,464.8,240.2,466.4z"/>
	<g>
		<g>
			<circle class="st6" cx="146.7" cy="344.2" r="5.7"/>
			<path d="M152.4,343.9c0.1,1.5-0.3,3-1.2,4.3c-0.9,1.3-2.5,2.1-4.1,2.1c-1.6,0-3.1-0.7-4.2-1.7c-1.1-1-1.9-2.4-2.1-4
				c-0.2-1.5,0.3-3.2,1.3-4.4c1-1.2,2.6-2,4.2-2.1c1.6-0.1,3.3,0.5,4.3,1.7C151.8,340.9,152.4,342.4,152.4,343.9z M152.3,343.9
				c-0.1-1.5-0.9-2.8-2.1-3.7c-1.1-0.8-2.5-1.2-3.9-1.1c-1.3,0.1-2.6,0.7-3.6,1.7c-0.9,1-1.5,2.3-1.5,3.8c0,1.4,0.6,2.9,1.7,3.8
				c1.1,0.9,2.6,1.3,4,1.1c1.4-0.1,2.7-0.7,3.7-1.7C151.8,346.8,152.5,345.4,152.3,343.9z"/>
		</g>
		<g>
			<circle class="st6" cx="117.7" cy="424.6" r="11.8"/>
			<path d="M129.5,423.9c0.2,3.1-0.7,6.3-2.8,8.7c-1,1.2-2.3,2.3-3.7,3c-1.4,0.7-3,1.1-4.6,1.2c-1.6,0.1-3.2-0.2-4.6-0.8
				c-1.5-0.6-2.8-1.4-4-2.4c-2.3-2.1-3.8-5-4.1-8.2c-0.3-3.1,0.7-6.4,2.9-8.8c2.1-2.4,5.2-4,8.4-4.2c3.2-0.2,6.5,1,8.7,3.2
				C128,417.7,129.3,420.8,129.5,423.9z M129.4,423.9c-0.2-3.1-1.8-6-4.1-7.8c-2.3-1.9-5.3-2.9-8.3-2.7c-2.9,0.2-5.8,1.5-7.8,3.7
				c-2,2.2-3.1,5.2-3,8.2c0.1,3,1.5,6,3.8,8c2.3,2,5.4,2.9,8.4,2.7c2.9-0.2,5.8-1.6,7.9-3.7C128.3,430,129.6,426.9,129.4,423.9z"/>
		</g>
		<g>
			<circle class="st6" cx="118.9" cy="382.3" r="15.2"/>
			<path d="M134.1,381.3c0.3,4-1,8.1-3.6,11.2c-2.6,3.1-6.6,5.1-10.6,5.3c-2,0.1-4.1-0.2-6-1c-1.9-0.7-3.6-1.8-5.1-3.1
				c-3-2.7-4.9-6.5-5.2-10.5c-0.4-4,1-8.2,3.7-11.3c1.3-1.5,3-2.8,4.8-3.7c1.8-0.9,3.9-1.4,5.9-1.5c4.1-0.3,8.3,1.2,11.2,4.1
				C132.2,373.5,133.9,377.4,134.1,381.3z M134,381.3c-0.1-2-0.7-3.9-1.6-5.7c-0.9-1.7-2.2-3.3-3.7-4.5c-3-2.5-6.9-3.8-10.7-3.5
				c-3.8,0.2-7.5,2-10.1,4.9c-2.6,2.9-4,6.7-3.9,10.6c0.1,3.9,1.9,7.8,4.9,10.3c3,2.6,7,3.8,10.8,3.5c3.8-0.3,7.6-2,10.2-4.9
				c1.3-1.4,2.4-3.1,3.1-4.9C133.8,385.3,134.1,383.3,134,381.3z"/>
		</g>
		<g>
			<circle class="st6" cx="152.2" cy="475.1" r="24.4"/>
			<path d="M176.6,473.6c0.4,6.4-1.7,13-5.9,17.9c-2.1,2.5-4.7,4.5-7.6,5.9c-2.9,1.5-6.1,2.2-9.4,2.4c-3.2,0.2-6.5-0.3-9.6-1.4
				c-3-1.1-5.8-2.8-8.3-5c-2.4-2.2-4.4-4.8-5.8-7.6c-1.4-2.9-2.3-6.1-2.5-9.3c-0.5-6.5,1.7-13.1,6-18c2.1-2.5,4.8-4.5,7.7-5.9
				c2.9-1.5,6.2-2.3,9.4-2.5c3.3-0.2,6.6,0.2,9.6,1.4c3.1,1.1,5.9,2.8,8.3,5C173.4,460.9,176.3,467.2,176.6,473.6z M176.5,473.6
				c-0.2-3.2-1-6.3-2.5-9.2c-1.4-2.8-3.5-5.4-5.9-7.4c-4.8-4.1-11.2-6.2-17.4-5.8c-6.3,0.4-12.3,3.3-16.5,8c-2.1,2.3-3.7,5.1-4.8,8
				c-1.1,3-1.5,6.1-1.4,9.3c0.3,6.3,3.2,12.5,8,16.7c4.8,4.2,11.3,6.3,17.5,5.8c6.3-0.4,12.3-3.3,16.6-8c2.1-2.3,3.8-5.1,4.9-8.1
				C176.3,480,176.7,476.8,176.5,473.6z"/>
		</g>
		<g>
			<circle class="st6" cx="211" cy="432.5" r="12.9"/>
			<path d="M223.9,431.8c0.2,3.4-0.8,6.8-3,9.5c-1.1,1.3-2.5,2.5-4,3.2c-1.6,0.8-3.3,1.2-5,1.3c-1.7,0.1-3.5-0.2-5.1-0.8
				c-1.6-0.6-3.1-1.5-4.4-2.7c-2.5-2.3-4.2-5.5-4.5-9c-0.3-3.4,0.8-7,3.1-9.6c2.3-2.7,5.7-4.3,9.2-4.5c3.5-0.2,7.1,1.1,9.5,3.5
				C222.3,425.1,223.7,428.4,223.9,431.8z M223.8,431.8c-0.2-3.4-1.9-6.5-4.5-8.6c-2.6-2.1-5.8-3.2-9.1-2.9
				c-3.2,0.2-6.3,1.7-8.5,4.1c-2.2,2.4-3.4,5.7-3.3,9c0.1,3.3,1.6,6.6,4.1,8.7c2.5,2.2,5.9,3.2,9.2,2.9c3.2-0.2,6.4-1.7,8.6-4.1
				C222.7,438.5,224,435.1,223.8,431.8z"/>
		</g>
		<g>
			<circle class="st6" cx="274.9" cy="427.5" r="20.2"/>
			<path d="M295.1,426.2c0.4,5.3-1.4,10.7-4.9,14.8c-1.7,2.1-3.9,3.7-6.3,4.9c-2.4,1.2-5.1,1.9-7.8,2c-2.7,0.1-5.4-0.3-7.9-1.2
				c-2.5-0.9-4.8-2.3-6.8-4.1c-4-3.6-6.5-8.7-6.9-14c-0.5-5.3,1.4-10.9,5-14.9c1.8-2,4-3.7,6.4-4.9c2.4-1.2,5.1-1.9,7.8-2
				c5.4-0.4,10.9,1.6,14.9,5.3C292.4,415.8,294.8,420.9,295.1,426.2z M295,426.2c-0.2-2.6-0.9-5.2-2.1-7.6c-1.2-2.3-2.9-4.4-4.9-6.1
				c-4-3.4-9.2-5.1-14.4-4.8c-5.1,0.3-10.1,2.7-13.6,6.6c-3.5,3.8-5.4,9.1-5.1,14.3c0.2,5.2,2.6,10.4,6.6,13.8
				c3.9,3.5,9.3,5.2,14.5,4.8c5.2-0.3,10.1-2.7,13.7-6.6c1.8-1.9,3.2-4.2,4.1-6.6C294.7,431.5,295.1,428.9,295,426.2z"/>
		</g>
		<g>
			<circle class="st6" cx="167.1" cy="400.8" r="8.9"/>
			<path d="M176,400.2c0.1,2.3-0.5,4.7-2,6.6c-1.5,1.9-3.9,3.1-6.3,3.2c-5,0.2-9.3-3.9-9.7-8.7c-0.3-2.4,0.5-4.9,2.1-6.7
				c1.6-1.9,3.9-3.1,6.4-3.2c2.4-0.1,5,0.8,6.7,2.5C174.9,395.6,175.8,397.9,176,400.2z M175.9,400.2c-0.1-2.3-1.4-4.5-3.1-5.9
				c-1.8-1.4-4-2.1-6.2-1.9c-2.2,0.1-4.3,1.1-5.8,2.7c-1.5,1.6-2.3,3.8-2.3,6.1c0,2.3,1.1,4.5,2.8,6c1.7,1.5,4.1,2.1,6.3,1.9
				c2.2-0.2,4.3-1.2,5.9-2.8C175,404.8,176,402.5,175.9,400.2z"/>
		</g>
		<g>
			<path class="st6" d="M255.6,447.2c-2.2,0.1-4.2,0.8-5.9,2c-0.8-0.1-1.7-0.2-2.5-0.1c-6.7,0.4-11.8,6.2-11.4,12.9
				c0.4,6.7,6.2,11.8,12.9,11.4c2.4-0.1,4.6-1,6.4-2.3c0.6,0.1,1.3,0.1,1.9,0.1c6.6-0.4,11.6-6.1,11.2-12.7
				C267.9,451.8,262.2,446.8,255.6,447.2z"/>
			<path d="M255.6,447.3c-2.1,0.1-4.1,0.8-5.8,2l0,0l-0.1,0c-3.9-0.5-7.9,1.1-10.4,4c-2.6,2.8-3.7,6.9-2.9,10.7
				c0.8,3.8,3.7,7.1,7.4,8.4c1.8,0.6,3.8,0.8,5.8,0.5c1.9-0.3,3.7-1.1,5.3-2.2l0.1-0.1l0.2,0c3.2,0.3,6.4-0.8,8.8-2.9
				c2.4-2.1,3.8-5.2,3.9-8.3c0.1-3.2-1.1-6.4-3.3-8.7c-1.1-1.2-2.5-2.1-4-2.7C258.9,447.4,257.2,447.2,255.6,447.3z M255.6,447.2
				c1.7-0.1,3.3,0.1,4.9,0.7c1.6,0.5,3.1,1.4,4.3,2.5c2.5,2.2,4,5.6,4,9.1c0,3.4-1.6,6.8-4.2,9.1c-2.6,2.3-6.2,3.4-9.5,3l0.3-0.1
				c-3.3,2.4-7.9,2.9-11.6,1.4c-3.8-1.4-6.8-4.7-7.8-8.6c-0.5-2-0.6-4-0.1-6.1c0.5-2,1.5-3.9,2.9-5.4c1.4-1.5,3.2-2.7,5.1-3.3
				c1.9-0.6,4-0.8,6-0.4l-0.1,0C251.4,447.9,253.5,447.3,255.6,447.2z"/>
		</g>
		<g>
			<circle class="st6" cx="354.8" cy="442.9" r="12.8"/>
			<path d="M367.7,442.1c0.2,3.4-0.8,6.8-3,9.5c-1.1,1.3-2.5,2.4-4,3.2c-1.6,0.8-3.3,1.2-5,1.3c-1.7,0.1-3.5-0.2-5.1-0.8
				c-1.6-0.6-3.1-1.5-4.3-2.7c-2.5-2.3-4.2-5.5-4.5-9c-0.3-3.4,0.8-7,3.1-9.6c2.3-2.6,5.7-4.3,9.2-4.5c3.5-0.2,7.1,1.1,9.5,3.5
				C366.1,435.4,367.5,438.8,367.7,442.1z M367.6,442.1c-0.2-3.4-1.9-6.5-4.5-8.6c-2.5-2.1-5.8-3.1-9-2.9c-3.2,0.2-6.3,1.7-8.5,4.1
				c-2.2,2.4-3.4,5.7-3.3,9c0.1,3.3,1.6,6.6,4.1,8.7c2.5,2.2,5.9,3.2,9.2,2.9c3.2-0.2,6.3-1.7,8.6-4.1
				C366.5,448.8,367.8,445.5,367.6,442.1z"/>
		</g>
		<g>
			<circle class="st6" cx="294.4" cy="392.1" r="14.8"/>
			<path d="M309.2,391.2c0.2,3.9-1,7.9-3.5,10.9c-2.5,3.1-6.4,5-10.4,5.2c-2,0.1-4-0.2-5.8-0.9c-1.8-0.7-3.5-1.7-5-3
				c-2.9-2.6-4.8-6.3-5.1-10.3c-0.4-3.9,1-8,3.6-11c2.6-3,6.5-5,10.5-5.2c4-0.3,8.1,1.2,10.9,4C307.3,383.5,309,387.4,309.2,391.2z
				 M309.1,391.2c-0.1-1.9-0.6-3.8-1.5-5.5c-0.9-1.7-2.1-3.2-3.6-4.4c-2.9-2.4-6.7-3.7-10.4-3.4c-3.7,0.2-7.3,2-9.9,4.7
				c-2.5,2.8-3.9,6.6-3.8,10.4c0.1,3.8,1.9,7.6,4.8,10.1c2.9,2.6,6.8,3.7,10.6,3.4c3.8-0.3,7.4-2,10-4.7
				C307.8,399,309.4,395.1,309.1,391.2z"/>
		</g>
		<g>
			<circle class="st6" cx="346" cy="396.6" r="9.9"/>
			<path d="M355.9,396c0.2,2.6-0.6,5.3-2.3,7.3c-1.7,2.1-4.3,3.4-7,3.5c-5.5,0.2-10.3-4.3-10.7-9.6c-0.3-2.6,0.6-5.4,2.4-7.5
				c1.8-2.1,4.4-3.4,7.1-3.5c2.7-0.2,5.5,0.9,7.4,2.7C354.7,390.8,355.7,393.4,355.9,396z M355.8,396c-0.1-2.6-1.5-5-3.5-6.5
				c-2-1.6-4.4-2.4-6.9-2.2c-2.4,0.1-4.8,1.3-6.5,3.1c-1.7,1.8-2.6,4.3-2.5,6.8c0,2.5,1.2,5,3.1,6.7c1.9,1.7,4.5,2.4,7,2.2
				c2.5-0.2,4.8-1.3,6.6-3.1C354.9,401.1,356,398.6,355.8,396z"/>
		</g>
		<g>
			<circle class="st6" cx="382.4" cy="394.1" r="22.1"/>
			<path d="M404.4,392.8c0.4,5.8-1.5,11.7-5.3,16.2c-1.9,2.2-4.3,4.1-6.9,5.4c-2.6,1.3-5.6,2-8.5,2.2c-2.9,0.1-5.9-0.3-8.6-1.3
				c-2.7-1-5.3-2.5-7.5-4.5c-4.3-3.9-7.1-9.4-7.5-15.3c-0.5-5.8,1.5-11.9,5.4-16.3c1.9-2.2,4.3-4.1,7-5.4c2.7-1.3,5.6-2,8.5-2.2
				c2.9-0.2,5.9,0.2,8.7,1.2c2.8,1,5.4,2.5,7.5,4.6C401.5,381.4,404.2,387,404.4,392.8z M404.3,392.8c-0.2-2.9-0.9-5.7-2.3-8.3
				c-1.3-2.6-3.1-4.8-5.3-6.7c-4.3-3.7-10.1-5.6-15.7-5.2c-5.6,0.3-11.1,3-14.9,7.2c-3.8,4.2-5.9,9.9-5.6,15.6
				c0.2,5.7,2.9,11.3,7.2,15.1c4.3,3.8,10.2,5.7,15.8,5.2c5.7-0.4,11.1-3,15-7.2c1.9-2.1,3.5-4.6,4.5-7.3
				C404.1,398.6,404.5,395.7,404.3,392.8z"/>
		</g>
		<g>
			<circle class="st6" cx="422" cy="436.9" r="4.8"/>
			<path d="M426.8,436.7c0.1,1.3-0.2,2.6-1,3.7c-0.8,1.1-2.1,1.8-3.5,1.8c-1.4,0-2.7-0.6-3.6-1.5c-0.9-0.9-1.6-2.1-1.8-3.4
				c-0.2-1.3,0.2-2.8,1.1-3.8c0.9-1.1,2.2-1.8,3.6-1.8c1.4-0.1,2.8,0.5,3.7,1.5C426.3,434.1,426.7,435.4,426.8,436.7z M426.7,436.7
				c-0.1-1.3-0.8-2.4-1.8-3.1c-1-0.7-2.1-1-3.2-0.9c-1.1,0.1-2.2,0.6-3,1.4c-0.8,0.8-1.3,1.9-1.3,3.2c0,1.2,0.5,2.4,1.4,3.2
				c0.9,0.8,2.2,1.1,3.3,0.9c1.1-0.1,2.2-0.6,3.1-1.4C426.2,439.1,426.8,437.9,426.7,436.7z"/>
		</g>
		<g>
			<circle class="st6" cx="453.8" cy="382.9" r="18.9"/>
			<path d="M472.7,381.7c0.3,4.9-1.3,10-4.5,13.8c-3.2,3.9-8.1,6.3-13.2,6.5c-2.5,0.1-5.1-0.3-7.4-1.1c-2.3-0.9-4.5-2.2-6.4-3.8
				c-3.7-3.3-6.1-8.1-6.5-13.1c-0.4-5,1.3-10.2,4.6-14c1.7-1.9,3.7-3.5,6-4.6c2.3-1.1,4.8-1.8,7.3-1.9c5.1-0.3,10.2,1.5,13.9,5
				C470.2,372,472.4,376.8,472.7,381.7z M472.6,381.8c-0.2-2.5-0.8-4.9-1.9-7.1c-1.1-2.2-2.7-4.1-4.5-5.7c-3.7-3.1-8.6-4.8-13.4-4.4
				c-4.8,0.3-9.4,2.5-12.7,6.1c-3.2,3.6-5,8.4-4.8,13.3c0.2,4.9,2.4,9.7,6.2,12.9c3.7,3.3,8.7,4.8,13.5,4.4
				c4.8-0.3,9.5-2.5,12.8-6.1c1.7-1.8,3-3.9,3.8-6.2C472.4,386.7,472.7,384.2,472.6,381.8z"/>
		</g>
		<g>
			<circle class="st6" cx="428.7" cy="336" r="8.1"/>
			<path d="M436.9,335.5c0.1,2.1-0.5,4.3-1.8,6.1c-1.4,1.8-3.6,2.9-5.8,2.9c-2.2,0.1-4.4-0.9-6-2.3c-1.6-1.5-2.7-3.5-2.9-5.7
				c-0.2-2.2,0.5-4.5,1.9-6.2c1.5-1.7,3.6-2.8,5.9-2.9c2.2-0.1,4.6,0.7,6.1,2.3C435.9,331.2,436.7,333.3,436.9,335.5z M436.8,335.5
				c-0.1-2.1-1.3-4.1-2.9-5.3c-1.6-1.2-3.6-1.9-5.6-1.7c-2,0.1-3.9,1-5.2,2.5c-1.4,1.5-2.1,3.5-2.1,5.5c0,2,1,4.1,2.5,5.5
				c1.6,1.4,3.7,1.9,5.7,1.7c2-0.2,3.9-1.1,5.4-2.5C436,339.7,436.9,337.6,436.8,335.5z"/>
		</g>
		<g>
			<circle class="st6" cx="381.6" cy="320.6" r="13.2"/>
			<path d="M394.7,319.8c0.2,3.4-0.8,7-3.1,9.7c-1.1,1.4-2.5,2.5-4.1,3.3c-1.6,0.8-3.4,1.2-5.1,1.3c-1.8,0.1-3.6-0.2-5.2-0.8
				c-1.6-0.6-3.2-1.6-4.5-2.7c-2.6-2.3-4.3-5.6-4.6-9.2c-0.3-3.5,0.8-7.2,3.2-9.8c2.3-2.7,5.8-4.4,9.4-4.6c3.6-0.2,7.2,1.1,9.8,3.6
				C393.1,313,394.6,316.4,394.7,319.8z M394.6,319.8c-0.2-3.4-2-6.7-4.6-8.8c-2.6-2.1-6-3.2-9.3-3c-3.3,0.2-6.5,1.7-8.7,4.2
				c-2.2,2.5-3.5,5.8-3.4,9.2c0.1,3.4,1.6,6.7,4.2,8.9c2.6,2.3,6.1,3.3,9.4,3c3.3-0.2,6.5-1.8,8.9-4.2
				C393.5,326.7,394.9,323.3,394.6,319.8z"/>
		</g>
		<g>
			<circle class="st6" cx="388.6" cy="350.9" r="10.7"/>
			<path d="M399.3,350.2c0.2,2.8-0.6,5.7-2.5,7.9c-1.8,2.3-4.6,3.7-7.6,3.8c-1.4,0-2.9-0.2-4.2-0.7c-1.3-0.5-2.6-1.3-3.6-2.2
				c-2.1-1.9-3.5-4.6-3.7-7.5c-0.3-2.8,0.7-5.9,2.6-8c1.9-2.2,4.7-3.6,7.7-3.8c2.9-0.2,5.9,0.9,8,3
				C398,344.7,399.2,347.4,399.3,350.2z M399.2,350.2c-0.2-2.8-1.6-5.4-3.7-7.1c-2.1-1.7-4.8-2.6-7.5-2.4c-2.6,0.2-5.2,1.4-7,3.4
				c-1.8,2-2.8,4.7-2.7,7.4c0.1,2.7,1.3,5.4,3.4,7.2c2.1,1.8,4.9,2.6,7.6,2.4c2.7-0.2,5.2-1.4,7.1-3.4
				C398.3,355.8,399.4,353,399.2,350.2z"/>
		</g>
		<g>
			<circle class="st6" cx="361.3" cy="285.4" r="5.6"/>
			<path d="M366.9,285.1c0.1,1.5-0.3,3-1.2,4.3c-0.9,1.3-2.5,2.1-4.1,2.1c-1.6,0-3.1-0.7-4.2-1.7c-1.1-1-1.9-2.4-2-4
				c-0.2-1.5,0.3-3.2,1.3-4.4c1-1.2,2.5-2,4.2-2.1c1.6-0.1,3.2,0.5,4.3,1.7C366.3,282.1,366.8,283.6,366.9,285.1z M366.8,285.1
				c-0.1-1.5-0.9-2.8-2-3.6c-1.1-0.8-2.5-1.2-3.8-1.1c-1.3,0.1-2.6,0.7-3.5,1.6c-0.9,1-1.5,2.3-1.5,3.7c0,1.4,0.6,2.8,1.7,3.7
				c1.1,0.9,2.6,1.3,3.9,1.1c1.3-0.1,2.6-0.7,3.6-1.7C366.3,288,366.9,286.5,366.8,285.1z"/>
		</g>
	</g>
</g>
</svg>
