<?xml version="1.0" encoding="utf-8"?>
<!-- Generator: Adobe Illustrator 15.1.0, SVG Export Plug-In . SVG Version: 6.00 Build 0)  -->
<!DOCTYPE svg PUBLIC "-//W3C//DTD SVG 1.1//EN" "http://www.w3.org/Graphics/SVG/1.1/DTD/svg11.dtd">
<svg version="1.1" id="rat" xmlns="http://www.w3.org/2000/svg" xmlns:xlink="http://www.w3.org/1999/xlink" x="0px" y="0px"
	 width="103.5px" height="100.5px" viewBox="0 0 103.5 100.5" style="enable-background:new 0 0 103.5 100.5;" xml:space="preserve"
	>
<style type="text/css">
<![CDATA[
	.st0{opacity:0.68;fill:#B5E2E2;}
	.st1{opacity:0.58;fill:#FFFFFF;}
	.st2{fill:#C0FEFF;}
]]>
</style>
<g>
	<path class="st2" d="M20.1,92c0,0-9.4-50.1,47.7-67.3c57.1-17.2,8.9,13.8-21.6,33C46.2,57.7,17.8,71.9,20.1,92"/>
	<path d="M20.1,92c-1.2-7.4-0.8-15,0.8-22.3c1.6-7.3,4.7-14.4,9.1-20.5c2.2-3.1,4.7-5.9,7.5-8.4c2.8-2.5,5.8-4.8,9-6.8
		c3.2-2,6.5-3.7,9.9-5.2c3.4-1.5,6.9-2.8,10.5-3.9c3.6-1.1,7.2-2.1,10.8-3.1c3.6-0.9,7.3-1.8,11-2.2c0.9-0.1,1.9-0.1,2.8-0.1
		c0.5,0,1,0.1,1.4,0.2c0.5,0.1,1,0.4,1.3,0.8c0.4,0.5,0.4,1.1,0.2,1.6c-0.1,0.5-0.4,0.9-0.6,1.4c-0.5,0.8-1.1,1.6-1.8,2.3
		c-2.6,2.8-5.5,5.1-8.5,7.4c-11.9,9.1-24.6,17-37.3,25l0,0l0,0c-3.3,1.7-6.5,3.8-9.6,6c-3,2.2-5.9,4.7-8.5,7.5
		c-2.5,2.8-4.8,5.9-6.3,9.3C20.6,84.4,19.8,88.2,20.1,92L20.1,92c-0.5-3.8,0.1-7.7,1.6-11.2c1.5-3.5,3.7-6.7,6.2-9.6
		c2.5-2.9,5.4-5.4,8.4-7.7c3-2.3,6.2-4.4,9.6-6.2l0,0c6.3-4,12.6-8,18.9-12.1c6.2-4.1,12.5-8.2,18.4-12.7c3-2.2,5.9-4.5,8.5-7.2
		c0.6-0.7,1.2-1.4,1.7-2.1c0.5-0.7,0.9-1.7,0.4-2.2c-0.4-0.6-1.4-0.8-2.3-0.8c-0.9-0.1-1.8,0-2.8,0c-3.7,0.3-7.4,1.2-11,2
		c-3.6,0.9-7.2,1.9-10.8,3c-7.1,2.2-14,5.3-20.2,9.4c-6.2,4.1-11.8,9.2-16.1,15.2c-4.4,6-7.4,12.9-9.2,20.1c-0.9,3.6-1.4,7.3-1.7,11
		C19.7,84.5,19.7,88.3,20.1,92L20.1,92z"/>
</g>
<g>
	<path class="st2" d="M28.1,86.1c0,0,17.4-34.2,51.1-25.1c33.7,9.1-1.9,11.6-24.2,12.9C55,73.9,35.8,72.9,28.1,86.1"/>
	<path d="M28,86.1c2.2-4.4,5.1-8.3,8.4-12c3.3-3.6,7.1-6.8,11.3-9.4c4.2-2.5,8.9-4.3,13.8-5c4.9-0.8,9.8-0.6,14.6,0.4
		c2.4,0.5,4.7,1.1,7.1,1.8c2.3,0.7,4.7,1.4,6.9,2.5c0.6,0.3,1.1,0.5,1.6,0.9c0.5,0.3,1,0.7,1.4,1.3c0.2,0.3,0.3,0.7,0.3,1.1
		c-0.1,0.4-0.3,0.7-0.5,1c-0.5,0.5-1.1,0.8-1.6,1.1c-2.3,1-4.7,1.5-7.1,1.9c-9.6,1.6-19.4,2.2-29.1,2.8l0,0l0,0
		c-2.5-0.1-5.1,0.1-7.6,0.5c-2.5,0.4-5,1-7.4,1.9c-2.4,0.9-4.7,2.1-6.7,3.7C31.2,82.1,29.5,84,28,86.1L28,86.1
		c1.2-2.3,2.9-4.3,4.9-6c2-1.7,4.3-3,6.7-4c2.4-1,4.9-1.7,7.5-2.1c2.6-0.4,5.2-0.7,7.8-0.6h-0.1c4.9-0.3,9.7-0.6,14.5-1
		c4.8-0.4,9.7-0.8,14.5-1.6c2.4-0.4,4.8-0.8,7-1.7c1-0.4,2.3-1.2,1.6-2.1c-0.3-0.4-0.7-0.8-1.2-1.2c-0.5-0.3-1-0.6-1.5-0.9
		c-2.2-1.1-4.5-1.9-6.8-2.6c-2.3-0.7-4.7-1.4-7-1.9c-2.4-0.5-4.8-0.7-7.2-0.7c-2.4,0-4.8,0.2-7.2,0.7c-4.7,0.9-9.3,2.7-13.4,5.2
		c-4.2,2.4-7.9,5.6-11.2,9.1c-1.7,1.7-3.2,3.6-4.7,5.5C30.7,82.1,29.4,84.1,28,86.1L28,86.1z"/>
</g>
<g>
	<path class="st2" d="M21.6,24.6c-0.9,5.2-5.5,16.5-8.5,15.9s-3.5-12.6-2.5-17.9c0.9-5.2,4.2-9,7.2-8.5
		C20.8,14.6,22.5,19.3,21.6,24.6z"/>
	<path d="M21.7,24.6c-0.5,2.5-1.2,5-2.1,7.5c-0.9,2.4-1.9,4.9-3.5,7c-0.4,0.5-0.9,1-1.5,1.4c-0.3,0.2-0.7,0.4-1.1,0.4
		c-0.4,0.1-0.9-0.1-1.2-0.3c-0.6-0.5-0.9-1.1-1.2-1.8c-0.2-0.6-0.4-1.3-0.5-1.9c-0.5-2.6-0.6-5.2-0.7-7.8c0-2.6,0-5.2,0.5-7.8
		c0.5-2.6,1.7-5.1,3.9-6.9c1.1-0.8,2.7-1.3,4.1-0.8c1.4,0.5,2.3,1.8,2.8,3C22.3,19.3,22.1,22,21.7,24.6z M21.6,24.5
		c0.4-2.5,0.1-5.2-1-7.4c-0.6-1.1-1.4-2-2.4-2.4c-1-0.4-2.2-0.1-3.2,0.6c-1,0.7-1.8,1.7-2.4,2.7c-0.6,1.1-1.1,2.2-1.5,3.5
		c-0.7,2.4-0.8,5.1-0.8,7.6c0,2.6,0.2,5.2,0.9,7.6c0.2,0.6,0.4,1.2,0.6,1.8c0.3,0.6,0.6,1.1,1,1.4c0.4,0.3,0.9,0.2,1.3-0.2
		c0.5-0.3,0.9-0.8,1.3-1.3c1.5-2,2.7-4.3,3.8-6.6C20.1,29.5,21.1,27.1,21.6,24.5z"/>
</g>
<path class="st1" d="M59.3,29.6C68,26,76.7,23,85.4,20.2c-4.2,0.7-9.9,2.1-17.6,4.5c-32.9,9.9-43.7,30.8-47,46.7
	C29,53.2,42.2,37.1,59.3,29.6z"/>
<path class="st1" d="M79.2,61c-15.6-4.2-27.8,0.9-36.3,7.6c13.7-3.9,28.6-7.7,39.1,2.4c0.2,0.2,0.3,0.3,0.5,0.5
	C94.6,69.6,99.6,66.5,79.2,61z"/>
<path class="st0" d="M11.2,37.9c0.5,1.4,1.1,2.4,1.9,2.5c3.1,0.5,7.6-10.7,8.5-15.9c0.6-3.5,0-6.8-1.3-8.7
	C18.7,23.8,16.2,31.7,11.2,37.9z"/>
</svg>
