<?xml version="1.0" encoding="utf-8"?>
<!-- Generator: Adobe Illustrator 15.1.0, SVG Export Plug-In . SVG Version: 6.00 Build 0)  -->
<!DOCTYPE svg PUBLIC "-//W3C//DTD SVG 1.1//EN" "http://www.w3.org/Graphics/SVG/1.1/DTD/svg11.dtd">
<svg version="1.1" id="Cat" xmlns="http://www.w3.org/2000/svg" xmlns:xlink="http://www.w3.org/1999/xlink" x="0px" y="0px"
	 width="133.5px" height="57px" viewBox="0 0 133.5 57" style="enable-background:new 0 0 133.5 57;" xml:space="preserve">
<style type="text/css">
<![CDATA[
	.st0{opacity:0.37;fill:#AAB5BC;}
	.st1{fill:#EDF1F4;}
	.st2{fill:#231F20;}
]]>
</style>
<g>
	<path class="st1" d="M116.8,36.4c-1.1,0-2.1,0.1-2.9,0.4c0-0.1,0-0.3,0-0.4c0-2-2.5-3.6-5.9-4.1c0.4-0.9,0.7-1.9,0.7-2.9
		c0-6.2-8.9-11.3-19.8-11.3c-0.4,0-0.9,0-1.3,0c-1.7-5.4-9.3-9.5-18.5-9.5c-9.9,0-18,4.8-18.8,10.8c-0.8,0-1.5-0.1-2.3-0.1
		c-8.2,0-15.2,2.4-18.6,5.9c-0.7-0.1-1.4-0.2-2.2-0.2c-6.1,0-11.1,3.6-11.1,8c0,1.1,0.3,2.1,0.8,3c-0.3,0-0.5-0.1-0.8-0.1
		c-2,0-3.6,1-3.6,2.3s1.6,2.3,3.6,2.3c1.7,0,3-0.7,3.5-1.6c0.8,0.6,1.8,1.1,2.9,1.4c1.4,1.5,6.8,2.7,13.1,2.7c6.1,0,11.2-1,12.9-2.5
		c1.5,0,3-0.1,4.5-0.3c2.1,4.1,8.5,7,16.2,7c7.6,0,14-2.9,16.1-6.9c1.2,0.1,2.4,0.2,3.7,0.2c3.9,0,7.5-0.7,10.6-1.8
		c1.5,1.1,3.8,1.8,6.5,1.8c2.4,0,4.6-0.6,6-1.5c0.7,0.8,2.6,1.5,4.8,1.5c2.8,0,5.1-1,5.1-2.1C121.9,37.4,119.6,36.4,116.8,36.4z"/>
	<path class="st2" d="M116.8,36.4c-1,0-2,0.1-2.9,0.4l-0.1,0l0-0.1c0.1-0.7-0.1-1.3-0.5-1.9c-0.4-0.5-0.9-1-1.5-1.3
		c-1.2-0.7-2.5-1-3.8-1.2l-0.1,0l0.1-0.1c0.5-1.1,0.8-2.3,0.6-3.5c-0.1-1.2-0.6-2.3-1.3-3.3c-1.4-2-3.4-3.4-5.6-4.4
		c-2.2-1-4.5-1.7-6.9-2.1c-2.4-0.4-4.8-0.5-7.2-0.4l-0.3,0l-0.1-0.3c-0.5-1.7-1.7-3.2-3.1-4.4c-1.4-1.2-3-2.1-4.8-2.8
		c-3.4-1.4-7.2-2-11-2c-3.7,0.1-7.5,0.8-10.9,2.4c-1.7,0.8-3.3,1.9-4.5,3.2c-1.3,1.3-2.3,3-2.5,4.8l0,0.2l-0.2,0
		c-3.7-0.3-7.4,0-11,0.9c-1.8,0.4-3.6,1-5.2,1.8c-1.7,0.8-3.3,1.8-4.5,3.1l-0.1,0.1l-0.1,0c-3.3-0.5-6.9,0.2-9.6,2.1
		c-1.4,0.9-2.5,2.3-3,3.8c-0.5,1.6-0.3,3.3,0.5,4.7l0.3,0.5l-0.6-0.1c-1.1-0.2-2.3,0-3.2,0.6c-0.4,0.3-0.8,0.7-0.9,1.2
		c0,0.1,0,0.1,0,0.2c0,0.1,0,0.2,0,0.2c0,0.1,0.1,0.2,0.1,0.3c0.1,0.2,0.3,0.4,0.5,0.6c0.8,0.7,2,0.9,3.1,0.8
		c1.1-0.1,2.3-0.6,2.7-1.4l0.2-0.4l0.4,0.2c0.9,0.6,1.8,1,2.8,1.4l0.1,0l0.1,0.1c0.7,0.7,1.8,1,2.8,1.3c1.1,0.3,2.1,0.5,3.2,0.7
		c2.2,0.3,4.4,0.4,6.6,0.4c2.2,0,4.4-0.1,6.6-0.5c1.1-0.2,2.2-0.4,3.2-0.7c1-0.3,2.1-0.7,2.9-1.3l0.1-0.1l0.2,0
		c1.5,0,2.9-0.1,4.4-0.3l0.4,0l0.2,0.3c0.7,1.3,1.7,2.3,2.9,3.2c1.2,0.9,2.5,1.5,3.9,2.1c2.8,1,5.8,1.5,8.8,1.5c3,0,6-0.4,8.8-1.5
		c1.4-0.5,2.8-1.2,4-2c1.2-0.8,2.3-1.9,3-3.1l0.1-0.3l0.3,0c2.4,0.3,4.8,0.3,7.2,0.1c2.4-0.2,4.7-0.7,7-1.5l0.2-0.1l0.1,0.1
		c0.8,0.6,1.8,1,2.9,1.3c1,0.3,2.1,0.4,3.2,0.5c1.1,0,2.1,0,3.2-0.3c1.1-0.2,2.1-0.6,3-1.1L112,39l0.1,0.1c0.4,0.5,1.1,0.8,1.7,1
		c0.7,0.2,1.4,0.3,2.1,0.4c1.4,0.1,2.8,0,4.2-0.4c0.6-0.2,1.3-0.5,1.7-1.1c0.2-0.3,0.1-0.7-0.1-0.9c-0.2-0.3-0.5-0.5-0.8-0.7
		C119.7,36.7,118.2,36.5,116.8,36.4z M116.8,36.3c1.4,0,2.9,0.2,4.2,0.9c0.3,0.2,0.6,0.4,0.8,0.7c0.2,0.3,0.3,0.8,0.1,1.1
		c-0.4,0.7-1.1,1-1.8,1.2c-1.4,0.5-2.8,0.6-4.3,0.5c-0.7-0.1-1.4-0.2-2.1-0.4c-0.7-0.2-1.4-0.5-1.9-1.1l0.2,0
		c-1.9,1.2-4.2,1.6-6.4,1.6c-1.1,0-2.2-0.1-3.3-0.4c-1.1-0.3-2.1-0.7-3.1-1.3l0.3,0c-4.6,1.7-9.6,2.2-14.5,1.7l0.4-0.2
		c-0.8,1.4-1.9,2.6-3.2,3.5c-1.3,0.9-2.7,1.6-4.2,2.2c-2.9,1.1-6.1,1.5-9.2,1.5c-3.1,0-6.2-0.5-9.2-1.6c-1.5-0.5-2.9-1.3-4.2-2.2
		c-1.3-0.9-2.4-2.1-3.2-3.6l0.5,0.3c-1.5,0.2-3,0.3-4.5,0.3l0.3-0.1c-1,0.8-2.1,1.1-3.2,1.4c-1.1,0.3-2.2,0.5-3.4,0.7
		c-2.3,0.3-4.5,0.4-6.8,0.4c-2.3,0-4.5-0.2-6.8-0.5c-1.1-0.2-2.2-0.4-3.3-0.7c-1.1-0.4-2.2-0.7-3.2-1.6l0.2,0.1c-1-0.4-2-0.9-3-1.5
		l0.5-0.1c-0.3,0.7-0.9,1.1-1.5,1.3c-0.6,0.3-1.2,0.4-1.8,0.5c-1.2,0.1-2.5-0.1-3.6-1c-0.3-0.2-0.5-0.5-0.6-0.8
		c-0.1-0.2-0.1-0.3-0.2-0.5c0-0.1,0-0.2,0-0.2c0-0.1,0-0.2,0-0.3c0.1-0.7,0.6-1.3,1.1-1.6c1.1-0.7,2.4-0.8,3.6-0.6l-0.3,0.4
		c-0.9-1.5-1.1-3.5-0.5-5.1c0.6-1.7,1.8-3.1,3.2-4c2.9-2,6.5-2.5,9.9-2l-0.1,0.1c1.3-1.3,3-2.3,4.6-3.1c1.7-0.8,3.5-1.4,5.3-1.8
		c3.6-0.9,7.4-1.2,11.1-1L50,19.4c0.2-2,1.2-3.8,2.5-5.2c1.3-1.4,2.9-2.5,4.7-3.4c3.5-1.7,7.3-2.5,11.2-2.6c3.8-0.1,7.7,0.5,11.3,2
		c1.8,0.8,3.5,1.7,5,3c1.5,1.3,2.7,2.9,3.3,4.8l-0.4-0.3c2.5-0.1,4.9,0.1,7.3,0.6c2.4,0.5,4.8,1.2,7,2.3c2.2,1.1,4.3,2.6,5.6,4.6
		c0.7,1,1.1,2.2,1.3,3.5c0.1,1.2-0.2,2.5-0.7,3.6l-0.1-0.1c1.3,0.2,2.7,0.6,3.9,1.3c0.6,0.3,1.1,0.8,1.6,1.3c0.4,0.6,0.6,1.3,0.5,2
		l-0.1-0.1C114.8,36.5,115.8,36.3,116.8,36.3z"/>
</g>
<path class="st0" d="M116.8,36.4c-1.1,0-2.1,0.1-2.9,0.4c0-0.1,0-0.3,0-0.4c0-2-2.5-3.6-5.9-4.1c0.4-0.9,0.7-1.9,0.7-2.9
	c0-6.2-8.9-11.3-19.8-11.3c-0.4,0-0.9,0-1.3,0c-0.9-3.1-3.8-5.7-7.8-7.4c0.6,0.8,1,1.7,1.4,2.7c2,6,5,8,13,10c1,1,2,3,1,4
	c-2,1-5,0-7-1c1,11-13,13-20,7c1,2-2,2-1,4c-7,2-14-2-19-6c1,4-2,6-4,7c-4,1-8-1-10-5c-5,5.8-12.8,4.7-19.9,3
	c-1.1,0.4-1.9,1.1-1.9,2c0,1.2,1.6,2.3,3.6,2.3c1.7,0,3-0.7,3.5-1.6c0.8,0.6,1.8,1.1,2.9,1.4c1.4,1.5,6.8,2.7,13.1,2.7
	c6.1,0,11.2-1,12.9-2.5c1.5,0,3-0.1,4.5-0.3c2.1,4.1,8.5,7,16.2,7c7.6,0,14-2.9,16.1-6.9c1.2,0.1,2.4,0.2,3.7,0.2
	c3.9,0,7.5-0.7,10.6-1.8c1.5,1.1,3.8,1.8,6.5,1.8c2.4,0,4.6-0.6,6-1.5c0.7,0.8,2.6,1.5,4.8,1.5c2.8,0,5.1-1,5.1-2.1
	C121.9,37.4,119.6,36.4,116.8,36.4z"/>
</svg>
